0
SECTION
2
HEADER
9
$INSUNITS
70
1
0
ENDSEC
0
SECTION
2
ENTITIES
0
LINE
8
FRONT
10
0.000000
20
0.223374
30
0.0
11
0.112500
21
0.229772
31
0.0
0
LINE
8
FRONT
10
0.112500
20
0.229772
30
0.0
11
0.225000
21
0.236170
31
0.0
0
LINE
8
FRONT
10
0.225000
20
0.236170
30
0.0
11
0.337500
21
0.242567
31
0.0
0
LINE
8
FRONT
10
0.337500
20
0.242567
30
0.0
11
0.450000
21
0.248965
31
0.0
0
LINE
8
FRONT
10
0.450000
20
0.248965
30
0.0
11
0.500000
21
0.251808
31
0.0
0
LINE
8
FRONT
10
0.500000
20
0.251808
30
0.0
11
0.562500
21
0.255363
31
0.0
0
LINE
8
FRONT
10
0.562500
20
0.255363
30
0.0
11
0.675000
21
0.261760
31
0.0
0
LINE
8
FRONT
10
0.675000
20
0.261760
30
0.0
11
0.787500
21
0.268158
31
0.0
0
LINE
8
FRONT
10
0.787500
20
0.268158
30
0.0
11
0.900000
21
0.274556
31
0.0
0
LINE
8
FRONT
10
0.900000
20
0.274556
30
0.0
11
1.012500
21
0.280954
31
0.0
0
LINE
8
FRONT
10
1.012500
20
0.280954
30
0.0
11
1.125000
21
0.287351
31
0.0
0
LINE
8
FRONT
10
1.125000
20
0.287351
30
0.0
11
1.237500
21
0.293749
31
0.0
0
LINE
8
FRONT
10
1.237500
20
0.293749
30
0.0
11
1.350000
21
0.300147
31
0.0
0
LINE
8
FRONT
10
1.350000
20
0.300147
30
0.0
11
1.462500
21
0.306545
31
0.0
0
LINE
8
FRONT
10
1.462500
20
0.306545
30
0.0
11
1.575000
21
0.312942
31
0.0
0
LINE
8
FRONT
10
1.575000
20
0.312942
30
0.0
11
1.687500
21
0.319340
31
0.0
0
LINE
8
FRONT
10
1.687500
20
0.319340
30
0.0
11
1.800000
21
0.325738
31
0.0
0
LINE
8
FRONT
10
1.800000
20
0.325738
30
0.0
11
1.912500
21
0.332135
31
0.0
0
LINE
8
FRONT
10
1.912500
20
0.332135
30
0.0
11
2.025000
21
0.338533
31
0.0
0
LINE
8
FRONT
10
2.025000
20
0.338533
30
0.0
11
2.137500
21
0.344931
31
0.0
0
LINE
8
FRONT
10
2.137500
20
0.344931
30
0.0
11
2.250000
21
0.351329
31
0.0
0
LINE
8
FRONT
10
2.250000
20
0.351329
30
0.0
11
2.362500
21
0.357726
31
0.0
0
LINE
8
FRONT
10
2.362500
20
0.357726
30
0.0
11
2.475000
21
0.364124
31
0.0
0
LINE
8
FRONT
10
2.475000
20
0.364124
30
0.0
11
2.587500
21
0.370522
31
0.0
0
LINE
8
FRONT
10
2.587500
20
0.370522
30
0.0
11
2.700000
21
0.376919
31
0.0
0
LINE
8
FRONT
10
2.700000
20
0.376919
30
0.0
11
2.812500
21
0.383317
31
0.0
0
LINE
8
FRONT
10
2.812500
20
0.383317
30
0.0
11
2.925000
21
0.389715
31
0.0
0
LINE
8
FRONT
10
2.925000
20
0.389715
30
0.0
11
3.037500
21
0.396113
31
0.0
0
LINE
8
FRONT
10
3.037500
20
0.396113
30
0.0
11
3.150000
21
0.402510
31
0.0
0
LINE
8
FRONT
10
3.150000
20
0.402510
30
0.0
11
3.262500
21
0.408908
31
0.0
0
LINE
8
FRONT
10
3.262500
20
0.408908
30
0.0
11
3.375000
21
0.415306
31
0.0
0
LINE
8
FRONT
10
3.375000
20
0.415306
30
0.0
11
3.487500
21
0.421704
31
0.0
0
LINE
8
FRONT
10
3.487500
20
0.421704
30
0.0
11
3.600000
21
0.428101
31
0.0
0
LINE
8
FRONT
10
3.600000
20
0.428101
30
0.0
11
3.712500
21
0.434499
31
0.0
0
LINE
8
FRONT
10
3.712500
20
0.434499
30
0.0
11
3.825000
21
0.440897
31
0.0
0
LINE
8
FRONT
10
3.825000
20
0.440897
30
0.0
11
3.937500
21
0.447294
31
0.0
0
LINE
8
FRONT
10
3.937500
20
0.447294
30
0.0
11
4.050000
21
0.453692
31
0.0
0
LINE
8
FRONT
10
4.050000
20
0.453692
30
0.0
11
4.162500
21
0.460090
31
0.0
0
LINE
8
FRONT
10
4.162500
20
0.460090
30
0.0
11
4.275000
21
0.466488
31
0.0
0
LINE
8
FRONT
10
4.275000
20
0.466488
30
0.0
11
4.387500
21
0.472885
31
0.0
0
LINE
8
FRONT
10
4.387500
20
0.472885
30
0.0
11
4.500000
21
0.479283
31
0.0
0
LINE
8
FRONT
10
4.500000
20
0.479283
30
0.0
11
4.612500
21
0.472885
31
0.0
0
LINE
8
FRONT
10
4.612500
20
0.472885
30
0.0
11
4.725000
21
0.466488
31
0.0
0
LINE
8
FRONT
10
4.725000
20
0.466488
30
0.0
11
4.837500
21
0.460090
31
0.0
0
LINE
8
FRONT
10
4.837500
20
0.460090
30
0.0
11
4.950000
21
0.453692
31
0.0
0
LINE
8
FRONT
10
4.950000
20
0.453692
30
0.0
11
5.062500
21
0.447294
31
0.0
0
LINE
8
FRONT
10
5.062500
20
0.447294
30
0.0
11
5.175000
21
0.440897
31
0.0
0
LINE
8
FRONT
10
5.175000
20
0.440897
30
0.0
11
5.287500
21
0.434499
31
0.0
0
LINE
8
FRONT
10
5.287500
20
0.434499
30
0.0
11
5.400000
21
0.428101
31
0.0
0
LINE
8
FRONT
10
5.400000
20
0.428101
30
0.0
11
5.512500
21
0.421704
31
0.0
0
LINE
8
FRONT
10
5.512500
20
0.421704
30
0.0
11
5.625000
21
0.415306
31
0.0
0
LINE
8
FRONT
10
5.625000
20
0.415306
30
0.0
11
5.737500
21
0.408908
31
0.0
0
LINE
8
FRONT
10
5.737500
20
0.408908
30
0.0
11
5.850000
21
0.402510
31
0.0
0
LINE
8
FRONT
10
5.850000
20
0.402510
30
0.0
11
5.962500
21
0.396113
31
0.0
0
LINE
8
FRONT
10
5.962500
20
0.396113
30
0.0
11
6.075000
21
0.389715
31
0.0
0
LINE
8
FRONT
10
6.075000
20
0.389715
30
0.0
11
6.187500
21
0.383317
31
0.0
0
LINE
8
FRONT
10
6.187500
20
0.383317
30
0.0
11
6.300000
21
0.376919
31
0.0
0
LINE
8
FRONT
10
6.300000
20
0.376919
30
0.0
11
6.412500
21
0.370522
31
0.0
0
LINE
8
FRONT
10
6.412500
20
0.370522
30
0.0
11
6.525000
21
0.364124
31
0.0
0
LINE
8
FRONT
10
6.525000
20
0.364124
30
0.0
11
6.637500
21
0.357726
31
0.0
0
LINE
8
FRONT
10
6.637500
20
0.357726
30
0.0
11
6.750000
21
0.351329
31
0.0
0
LINE
8
FRONT
10
6.750000
20
0.351329
30
0.0
11
6.862500
21
0.344931
31
0.0
0
LINE
8
FRONT
10
6.862500
20
0.344931
30
0.0
11
6.975000
21
0.338533
31
0.0
0
LINE
8
FRONT
10
6.975000
20
0.338533
30
0.0
11
7.087500
21
0.332135
31
0.0
0
LINE
8
FRONT
10
7.087500
20
0.332135
30
0.0
11
7.200000
21
0.325738
31
0.0
0
LINE
8
FRONT
10
7.200000
20
0.325738
30
0.0
11
7.312500
21
0.319340
31
0.0
0
LINE
8
FRONT
10
7.312500
20
0.319340
30
0.0
11
7.425000
21
0.312942
31
0.0
0
LINE
8
FRONT
10
7.425000
20
0.312942
30
0.0
11
7.537500
21
0.306545
31
0.0
0
LINE
8
FRONT
10
7.537500
20
0.306545
30
0.0
11
7.650000
21
0.300147
31
0.0
0
LINE
8
FRONT
10
7.650000
20
0.300147
30
0.0
11
7.762500
21
0.293749
31
0.0
0
LINE
8
FRONT
10
7.762500
20
0.293749
30
0.0
11
7.875000
21
0.287351
31
0.0
0
LINE
8
FRONT
10
7.875000
20
0.287351
30
0.0
11
7.987500
21
0.280954
31
0.0
0
LINE
8
FRONT
10
7.987500
20
0.280954
30
0.0
11
8.100000
21
0.274556
31
0.0
0
LINE
8
FRONT
10
8.100000
20
0.274556
30
0.0
11
8.212500
21
0.268158
31
0.0
0
LINE
8
FRONT
10
8.212500
20
0.268158
30
0.0
11
8.325000
21
0.261760
31
0.0
0
LINE
8
FRONT
10
8.325000
20
0.261760
30
0.0
11
8.437500
21
0.255363
31
0.0
0
LINE
8
FRONT
10
8.437500
20
0.255363
30
0.0
11
8.500000
21
0.251808
31
0.0
0
LINE
8
FRONT
10
8.500000
20
0.251808
30
0.0
11
8.550000
21
0.248965
31
0.0
0
LINE
8
FRONT
10
8.550000
20
0.248965
30
0.0
11
8.662500
21
0.242567
31
0.0
0
LINE
8
FRONT
10
8.662500
20
0.242567
30
0.0
11
8.775000
21
0.236170
31
0.0
0
LINE
8
FRONT
10
8.775000
20
0.236170
30
0.0
11
8.887500
21
0.229772
31
0.0
0
LINE
8
FRONT
10
8.887500
20
0.229772
30
0.0
11
9.000000
21
0.223374
31
0.0
0
LINE
8
FRONT
10
0.000000
20
-0.223374
30
0.0
11
0.112500
21
-0.229772
31
0.0
0
LINE
8
FRONT
10
0.112500
20
-0.229772
30
0.0
11
0.225000
21
-0.236170
31
0.0
0
LINE
8
FRONT
10
0.225000
20
-0.236170
30
0.0
11
0.337500
21
-0.242567
31
0.0
0
LINE
8
FRONT
10
0.337500
20
-0.242567
30
0.0
11
0.450000
21
-0.248965
31
0.0
0
LINE
8
FRONT
10
0.450000
20
-0.248965
30
0.0
11
0.500000
21
-0.251808
31
0.0
0
LINE
8
FRONT
10
0.500000
20
-0.251808
30
0.0
11
0.562500
21
-0.255363
31
0.0
0
LINE
8
FRONT
10
0.562500
20
-0.255363
30
0.0
11
0.675000
21
-0.261760
31
0.0
0
LINE
8
FRONT
10
0.675000
20
-0.261760
30
0.0
11
0.787500
21
-0.268158
31
0.0
0
LINE
8
FRONT
10
0.787500
20
-0.268158
30
0.0
11
0.900000
21
-0.274556
31
0.0
0
LINE
8
FRONT
10
0.900000
20
-0.274556
30
0.0
11
1.012500
21
-0.280954
31
0.0
0
LINE
8
FRONT
10
1.012500
20
-0.280954
30
0.0
11
1.125000
21
-0.287351
31
0.0
0
LINE
8
FRONT
10
1.125000
20
-0.287351
30
0.0
11
1.237500
21
-0.293749
31
0.0
0
LINE
8
FRONT
10
1.237500
20
-0.293749
30
0.0
11
1.350000
21
-0.300147
31
0.0
0
LINE
8
FRONT
10
1.350000
20
-0.300147
30
0.0
11
1.462500
21
-0.306545
31
0.0
0
LINE
8
FRONT
10
1.462500
20
-0.306545
30
0.0
11
1.575000
21
-0.312942
31
0.0
0
LINE
8
FRONT
10
1.575000
20
-0.312942
30
0.0
11
1.687500
21
-0.319340
31
0.0
0
LINE
8
FRONT
10
1.687500
20
-0.319340
30
0.0
11
1.800000
21
-0.325738
31
0.0
0
LINE
8
FRONT
10
1.800000
20
-0.325738
30
0.0
11
1.912500
21
-0.332135
31
0.0
0
LINE
8
FRONT
10
1.912500
20
-0.332135
30
0.0
11
2.025000
21
-0.338533
31
0.0
0
LINE
8
FRONT
10
2.025000
20
-0.338533
30
0.0
11
2.137500
21
-0.344931
31
0.0
0
LINE
8
FRONT
10
2.137500
20
-0.344931
30
0.0
11
2.250000
21
-0.351329
31
0.0
0
LINE
8
FRONT
10
2.250000
20
-0.351329
30
0.0
11
2.362500
21
-0.357726
31
0.0
0
LINE
8
FRONT
10
2.362500
20
-0.357726
30
0.0
11
2.475000
21
-0.364124
31
0.0
0
LINE
8
FRONT
10
2.475000
20
-0.364124
30
0.0
11
2.587500
21
-0.370522
31
0.0
0
LINE
8
FRONT
10
2.587500
20
-0.370522
30
0.0
11
2.700000
21
-0.376919
31
0.0
0
LINE
8
FRONT
10
2.700000
20
-0.376919
30
0.0
11
2.812500
21
-0.383317
31
0.0
0
LINE
8
FRONT
10
2.812500
20
-0.383317
30
0.0
11
2.925000
21
-0.389715
31
0.0
0
LINE
8
FRONT
10
2.925000
20
-0.389715
30
0.0
11
3.037500
21
-0.396113
31
0.0
0
LINE
8
FRONT
10
3.037500
20
-0.396113
30
0.0
11
3.150000
21
-0.402510
31
0.0
0
LINE
8
FRONT
10
3.150000
20
-0.402510
30
0.0
11
3.262500
21
-0.408908
31
0.0
0
LINE
8
FRONT
10
3.262500
20
-0.408908
30
0.0
11
3.375000
21
-0.415306
31
0.0
0
LINE
8
FRONT
10
3.375000
20
-0.415306
30
0.0
11
3.487500
21
-0.421704
31
0.0
0
LINE
8
FRONT
10
3.487500
20
-0.421704
30
0.0
11
3.600000
21
-0.428101
31
0.0
0
LINE
8
FRONT
10
3.600000
20
-0.428101
30
0.0
11
3.712500
21
-0.434499
31
0.0
0
LINE
8
FRONT
10
3.712500
20
-0.434499
30
0.0
11
3.825000
21
-0.440897
31
0.0
0
LINE
8
FRONT
10
3.825000
20
-0.440897
30
0.0
11
3.937500
21
-0.447294
31
0.0
0
LINE
8
FRONT
10
3.937500
20
-0.447294
30
0.0
11
4.050000
21
-0.453692
31
0.0
0
LINE
8
FRONT
10
4.050000
20
-0.453692
30
0.0
11
4.162500
21
-0.460090
31
0.0
0
LINE
8
FRONT
10
4.162500
20
-0.460090
30
0.0
11
4.275000
21
-0.466488
31
0.0
0
LINE
8
FRONT
10
4.275000
20
-0.466488
30
0.0
11
4.387500
21
-0.472885
31
0.0
0
LINE
8
FRONT
10
4.387500
20
-0.472885
30
0.0
11
4.500000
21
-0.479283
31
0.0
0
LINE
8
FRONT
10
4.500000
20
-0.479283
30
0.0
11
4.612500
21
-0.472885
31
0.0
0
LINE
8
FRONT
10
4.612500
20
-0.472885
30
0.0
11
4.725000
21
-0.466488
31
0.0
0
LINE
8
FRONT
10
4.725000
20
-0.466488
30
0.0
11
4.837500
21
-0.460090
31
0.0
0
LINE
8
FRONT
10
4.837500
20
-0.460090
30
0.0
11
4.950000
21
-0.453692
31
0.0
0
LINE
8
FRONT
10
4.950000
20
-0.453692
30
0.0
11
5.062500
21
-0.447294
31
0.0
0
LINE
8
FRONT
10
5.062500
20
-0.447294
30
0.0
11
5.175000
21
-0.440897
31
0.0
0
LINE
8
FRONT
10
5.175000
20
-0.440897
30
0.0
11
5.287500
21
-0.434499
31
0.0
0
LINE
8
FRONT
10
5.287500
20
-0.434499
30
0.0
11
5.400000
21
-0.428101
31
0.0
0
LINE
8
FRONT
10
5.400000
20
-0.428101
30
0.0
11
5.512500
21
-0.421704
31
0.0
0
LINE
8
FRONT
10
5.512500
20
-0.421704
30
0.0
11
5.625000
21
-0.415306
31
0.0
0
LINE
8
FRONT
10
5.625000
20
-0.415306
30
0.0
11
5.737500
21
-0.408908
31
0.0
0
LINE
8
FRONT
10
5.737500
20
-0.408908
30
0.0
11
5.850000
21
-0.402510
31
0.0
0
LINE
8
FRONT
10
5.850000
20
-0.402510
30
0.0
11
5.962500
21
-0.396113
31
0.0
0
LINE
8
FRONT
10
5.962500
20
-0.396113
30
0.0
11
6.075000
21
-0.389715
31
0.0
0
LINE
8
FRONT
10
6.075000
20
-0.389715
30
0.0
11
6.187500
21
-0.383317
31
0.0
0
LINE
8
FRONT
10
6.187500
20
-0.383317
30
0.0
11
6.300000
21
-0.376919
31
0.0
0
LINE
8
FRONT
10
6.300000
20
-0.376919
30
0.0
11
6.412500
21
-0.370522
31
0.0
0
LINE
8
FRONT
10
6.412500
20
-0.370522
30
0.0
11
6.525000
21
-0.364124
31
0.0
0
LINE
8
FRONT
10
6.525000
20
-0.364124
30
0.0
11
6.637500
21
-0.357726
31
0.0
0
LINE
8
FRONT
10
6.637500
20
-0.357726
30
0.0
11
6.750000
21
-0.351329
31
0.0
0
LINE
8
FRONT
10
6.750000
20
-0.351329
30
0.0
11
6.862500
21
-0.344931
31
0.0
0
LINE
8
FRONT
10
6.862500
20
-0.344931
30
0.0
11
6.975000
21
-0.338533
31
0.0
0
LINE
8
FRONT
10
6.975000
20
-0.338533
30
0.0
11
7.087500
21
-0.332135
31
0.0
0
LINE
8
FRONT
10
7.087500
20
-0.332135
30
0.0
11
7.200000
21
-0.325738
31
0.0
0
LINE
8
FRONT
10
7.200000
20
-0.325738
30
0.0
11
7.312500
21
-0.319340
31
0.0
0
LINE
8
FRONT
10
7.312500
20
-0.319340
30
0.0
11
7.425000
21
-0.312942
31
0.0
0
LINE
8
FRONT
10
7.425000
20
-0.312942
30
0.0
11
7.537500
21
-0.306545
31
0.0
0
LINE
8
FRONT
10
7.537500
20
-0.306545
30
0.0
11
7.650000
21
-0.300147
31
0.0
0
LINE
8
FRONT
10
7.650000
20
-0.300147
30
0.0
11
7.762500
21
-0.293749
31
0.0
0
LINE
8
FRONT
10
7.762500
20
-0.293749
30
0.0
11
7.875000
21
-0.287351
31
0.0
0
LINE
8
FRONT
10
7.875000
20
-0.287351
30
0.0
11
7.987500
21
-0.280954
31
0.0
0
LINE
8
FRONT
10
7.987500
20
-0.280954
30
0.0
11
8.100000
21
-0.274556
31
0.0
0
LINE
8
FRONT
10
8.100000
20
-0.274556
30
0.0
11
8.212500
21
-0.268158
31
0.0
0
LINE
8
FRONT
10
8.212500
20
-0.268158
30
0.0
11
8.325000
21
-0.261760
31
0.0
0
LINE
8
FRONT
10
8.325000
20
-0.261760
30
0.0
11
8.437500
21
-0.255363
31
0.0
0
LINE
8
FRONT
10
8.437500
20
-0.255363
30
0.0
11
8.500000
21
-0.251808
31
0.0
0
LINE
8
FRONT
10
8.500000
20
-0.251808
30
0.0
11
8.550000
21
-0.248965
31
0.0
0
LINE
8
FRONT
10
8.550000
20
-0.248965
30
0.0
11
8.662500
21
-0.242567
31
0.0
0
LINE
8
FRONT
10
8.662500
20
-0.242567
30
0.0
11
8.775000
21
-0.236170
31
0.0
0
LINE
8
FRONT
10
8.775000
20
-0.236170
30
0.0
11
8.887500
21
-0.229772
31
0.0
0
LINE
8
FRONT
10
8.887500
20
-0.229772
30
0.0
11
9.000000
21
-0.223374
31
0.0
0
LINE
8
FRONT
10
0.000000
20
0.223374
30
0.0
11
0.000000
21
-0.223374
31
0.0
0
LINE
8
FRONT
10
9.000000
20
0.223374
30
0.0
11
9.000000
21
-0.223374
31
0.0
0
LINE
8
TOP
10
0.000000
20
2.297849
30
0.0
11
0.112500
21
2.300868
31
0.0
0
LINE
8
TOP
10
0.112500
20
2.300868
30
0.0
11
0.225000
21
2.303887
31
0.0
0
LINE
8
TOP
10
0.225000
20
2.303887
30
0.0
11
0.337500
21
2.306906
31
0.0
0
LINE
8
TOP
10
0.337500
20
2.306906
30
0.0
11
0.450000
21
2.309925
31
0.0
0
LINE
8
TOP
10
0.450000
20
2.309925
30
0.0
11
0.500000
21
2.311267
31
0.0
0
LINE
8
TOP
10
0.500000
20
2.311267
30
0.0
11
0.562500
21
2.312944
31
0.0
0
LINE
8
TOP
10
0.562500
20
2.312944
30
0.0
11
0.675000
21
2.315963
31
0.0
0
LINE
8
TOP
10
0.675000
20
2.315963
30
0.0
11
0.787500
21
2.318982
31
0.0
0
LINE
8
TOP
10
0.787500
20
2.318982
30
0.0
11
0.900000
21
2.322001
31
0.0
0
LINE
8
TOP
10
0.900000
20
2.322001
30
0.0
11
1.012500
21
2.325020
31
0.0
0
LINE
8
TOP
10
1.012500
20
2.325020
30
0.0
11
1.125000
21
2.328039
31
0.0
0
LINE
8
TOP
10
1.125000
20
2.328039
30
0.0
11
1.237500
21
2.331058
31
0.0
0
LINE
8
TOP
10
1.237500
20
2.331058
30
0.0
11
1.350000
21
2.334077
31
0.0
0
LINE
8
TOP
10
1.350000
20
2.334077
30
0.0
11
1.462500
21
2.337096
31
0.0
0
LINE
8
TOP
10
1.462500
20
2.337096
30
0.0
11
1.575000
21
2.340115
31
0.0
0
LINE
8
TOP
10
1.575000
20
2.340115
30
0.0
11
1.687500
21
2.343134
31
0.0
0
LINE
8
TOP
10
1.687500
20
2.343134
30
0.0
11
1.800000
21
2.346152
31
0.0
0
LINE
8
TOP
10
1.800000
20
2.346152
30
0.0
11
1.912500
21
2.349171
31
0.0
0
LINE
8
TOP
10
1.912500
20
2.349171
30
0.0
11
2.025000
21
2.352190
31
0.0
0
LINE
8
TOP
10
2.025000
20
2.352190
30
0.0
11
2.137500
21
2.355209
31
0.0
0
LINE
8
TOP
10
2.137500
20
2.355209
30
0.0
11
2.250000
21
2.358228
31
0.0
0
LINE
8
TOP
10
2.250000
20
2.358228
30
0.0
11
2.362500
21
2.361247
31
0.0
0
LINE
8
TOP
10
2.362500
20
2.361247
30
0.0
11
2.475000
21
2.364266
31
0.0
0
LINE
8
TOP
10
2.475000
20
2.364266
30
0.0
11
2.587500
21
2.367285
31
0.0
0
LINE
8
TOP
10
2.587500
20
2.367285
30
0.0
11
2.700000
21
2.370304
31
0.0
0
LINE
8
TOP
10
2.700000
20
2.370304
30
0.0
11
2.812500
21
2.373323
31
0.0
0
LINE
8
TOP
10
2.812500
20
2.373323
30
0.0
11
2.925000
21
2.376342
31
0.0
0
LINE
8
TOP
10
2.925000
20
2.376342
30
0.0
11
3.037500
21
2.379361
31
0.0
0
LINE
8
TOP
10
3.037500
20
2.379361
30
0.0
11
3.150000
21
2.382380
31
0.0
0
LINE
8
TOP
10
3.150000
20
2.382380
30
0.0
11
3.262500
21
2.385399
31
0.0
0
LINE
8
TOP
10
3.262500
20
2.385399
30
0.0
11
3.375000
21
2.388418
31
0.0
0
LINE
8
TOP
10
3.375000
20
2.388418
30
0.0
11
3.487500
21
2.391437
31
0.0
0
LINE
8
TOP
10
3.487500
20
2.391437
30
0.0
11
3.600000
21
2.394456
31
0.0
0
LINE
8
TOP
10
3.600000
20
2.394456
30
0.0
11
3.712500
21
2.397475
31
0.0
0
LINE
8
TOP
10
3.712500
20
2.397475
30
0.0
11
3.825000
21
2.400494
31
0.0
0
LINE
8
TOP
10
3.825000
20
2.400494
30
0.0
11
3.937500
21
2.403513
31
0.0
0
LINE
8
TOP
10
3.937500
20
2.403513
30
0.0
11
4.050000
21
2.406532
31
0.0
0
LINE
8
TOP
10
4.050000
20
2.406532
30
0.0
11
4.162500
21
2.409551
31
0.0
0
LINE
8
TOP
10
4.162500
20
2.409551
30
0.0
11
4.275000
21
2.412570
31
0.0
0
LINE
8
TOP
10
4.275000
20
2.412570
30
0.0
11
4.387500
21
2.415589
31
0.0
0
LINE
8
TOP
10
4.387500
20
2.415589
30
0.0
11
4.500000
21
2.418608
31
0.0
0
LINE
8
TOP
10
4.500000
20
2.418608
30
0.0
11
4.612500
21
2.415589
31
0.0
0
LINE
8
TOP
10
4.612500
20
2.415589
30
0.0
11
4.725000
21
2.412570
31
0.0
0
LINE
8
TOP
10
4.725000
20
2.412570
30
0.0
11
4.837500
21
2.409551
31
0.0
0
LINE
8
TOP
10
4.837500
20
2.409551
30
0.0
11
4.950000
21
2.406532
31
0.0
0
LINE
8
TOP
10
4.950000
20
2.406532
30
0.0
11
5.062500
21
2.403513
31
0.0
0
LINE
8
TOP
10
5.062500
20
2.403513
30
0.0
11
5.175000
21
2.400494
31
0.0
0
LINE
8
TOP
10
5.175000
20
2.400494
30
0.0
11
5.287500
21
2.397475
31
0.0
0
LINE
8
TOP
10
5.287500
20
2.397475
30
0.0
11
5.400000
21
2.394456
31
0.0
0
LINE
8
TOP
10
5.400000
20
2.394456
30
0.0
11
5.512500
21
2.391437
31
0.0
0
LINE
8
TOP
10
5.512500
20
2.391437
30
0.0
11
5.625000
21
2.388418
31
0.0
0
LINE
8
TOP
10
5.625000
20
2.388418
30
0.0
11
5.737500
21
2.385399
31
0.0
0
LINE
8
TOP
10
5.737500
20
2.385399
30
0.0
11
5.850000
21
2.382380
31
0.0
0
LINE
8
TOP
10
5.850000
20
2.382380
30
0.0
11
5.962500
21
2.379361
31
0.0
0
LINE
8
TOP
10
5.962500
20
2.379361
30
0.0
11
6.075000
21
2.376342
31
0.0
0
LINE
8
TOP
10
6.075000
20
2.376342
30
0.0
11
6.187500
21
2.373323
31
0.0
0
LINE
8
TOP
10
6.187500
20
2.373323
30
0.0
11
6.300000
21
2.370304
31
0.0
0
LINE
8
TOP
10
6.300000
20
2.370304
30
0.0
11
6.412500
21
2.367285
31
0.0
0
LINE
8
TOP
10
6.412500
20
2.367285
30
0.0
11
6.525000
21
2.364266
31
0.0
0
LINE
8
TOP
10
6.525000
20
2.364266
30
0.0
11
6.637500
21
2.361247
31
0.0
0
LINE
8
TOP
10
6.637500
20
2.361247
30
0.0
11
6.750000
21
2.358228
31
0.0
0
LINE
8
TOP
10
6.750000
20
2.358228
30
0.0
11
6.862500
21
2.355209
31
0.0
0
LINE
8
TOP
10
6.862500
20
2.355209
30
0.0
11
6.975000
21
2.352190
31
0.0
0
LINE
8
TOP
10
6.975000
20
2.352190
30
0.0
11
7.087500
21
2.349171
31
0.0
0
LINE
8
TOP
10
7.087500
20
2.349171
30
0.0
11
7.200000
21
2.346152
31
0.0
0
LINE
8
TOP
10
7.200000
20
2.346152
30
0.0
11
7.312500
21
2.343134
31
0.0
0
LINE
8
TOP
10
7.312500
20
2.343134
30
0.0
11
7.425000
21
2.340115
31
0.0
0
LINE
8
TOP
10
7.425000
20
2.340115
30
0.0
11
7.537500
21
2.337096
31
0.0
0
LINE
8
TOP
10
7.537500
20
2.337096
30
0.0
11
7.650000
21
2.334077
31
0.0
0
LINE
8
TOP
10
7.650000
20
2.334077
30
0.0
11
7.762500
21
2.331058
31
0.0
0
LINE
8
TOP
10
7.762500
20
2.331058
30
0.0
11
7.875000
21
2.328039
31
0.0
0
LINE
8
TOP
10
7.875000
20
2.328039
30
0.0
11
7.987500
21
2.325020
31
0.0
0
LINE
8
TOP
10
7.987500
20
2.325020
30
0.0
11
8.100000
21
2.322001
31
0.0
0
LINE
8
TOP
10
8.100000
20
2.322001
30
0.0
11
8.212500
21
2.318982
31
0.0
0
LINE
8
TOP
10
8.212500
20
2.318982
30
0.0
11
8.325000
21
2.315963
31
0.0
0
LINE
8
TOP
10
8.325000
20
2.315963
30
0.0
11
8.437500
21
2.312944
31
0.0
0
LINE
8
TOP
10
8.437500
20
2.312944
30
0.0
11
8.500000
21
2.311267
31
0.0
0
LINE
8
TOP
10
8.500000
20
2.311267
30
0.0
11
8.550000
21
2.309925
31
0.0
0
LINE
8
TOP
10
8.550000
20
2.309925
30
0.0
11
8.662500
21
2.306906
31
0.0
0
LINE
8
TOP
10
8.662500
20
2.306906
30
0.0
11
8.775000
21
2.303887
31
0.0
0
LINE
8
TOP
10
8.775000
20
2.303887
30
0.0
11
8.887500
21
2.300868
31
0.0
0
LINE
8
TOP
10
8.887500
20
2.300868
30
0.0
11
9.000000
21
2.297849
31
0.0
0
LINE
8
TOP
10
0.000000
20
2.077849
30
0.0
11
0.112500
21
2.074830
31
0.0
0
LINE
8
TOP
10
0.112500
20
2.074830
30
0.0
11
0.225000
21
2.071811
31
0.0
0
LINE
8
TOP
10
0.225000
20
2.071811
30
0.0
11
0.337500
21
2.068792
31
0.0
0
LINE
8
TOP
10
0.337500
20
2.068792
30
0.0
11
0.450000
21
2.065773
31
0.0
0
LINE
8
TOP
10
0.450000
20
2.065773
30
0.0
11
0.500000
21
2.064431
31
0.0
0
LINE
8
TOP
10
0.500000
20
2.064431
30
0.0
11
0.562500
21
2.062754
31
0.0
0
LINE
8
TOP
10
0.562500
20
2.062754
30
0.0
11
0.675000
21
2.059735
31
0.0
0
LINE
8
TOP
10
0.675000
20
2.059735
30
0.0
11
0.787500
21
2.056716
31
0.0
0
LINE
8
TOP
10
0.787500
20
2.056716
30
0.0
11
0.900000
21
2.053697
31
0.0
0
LINE
8
TOP
10
0.900000
20
2.053697
30
0.0
11
1.012500
21
2.050678
31
0.0
0
LINE
8
TOP
10
1.012500
20
2.050678
30
0.0
11
1.125000
21
2.047659
31
0.0
0
LINE
8
TOP
10
1.125000
20
2.047659
30
0.0
11
1.237500
21
2.044640
31
0.0
0
LINE
8
TOP
10
1.237500
20
2.044640
30
0.0
11
1.350000
21
2.041622
31
0.0
0
LINE
8
TOP
10
1.350000
20
2.041622
30
0.0
11
1.462500
21
2.038603
31
0.0
0
LINE
8
TOP
10
1.462500
20
2.038603
30
0.0
11
1.575000
21
2.035584
31
0.0
0
LINE
8
TOP
10
1.575000
20
2.035584
30
0.0
11
1.687500
21
2.032565
31
0.0
0
LINE
8
TOP
10
1.687500
20
2.032565
30
0.0
11
1.800000
21
2.029546
31
0.0
0
LINE
8
TOP
10
1.800000
20
2.029546
30
0.0
11
1.912500
21
2.026527
31
0.0
0
LINE
8
TOP
10
1.912500
20
2.026527
30
0.0
11
2.025000
21
2.023508
31
0.0
0
LINE
8
TOP
10
2.025000
20
2.023508
30
0.0
11
2.137500
21
2.020489
31
0.0
0
LINE
8
TOP
10
2.137500
20
2.020489
30
0.0
11
2.250000
21
2.017470
31
0.0
0
LINE
8
TOP
10
2.250000
20
2.017470
30
0.0
11
2.362500
21
2.014451
31
0.0
0
LINE
8
TOP
10
2.362500
20
2.014451
30
0.0
11
2.475000
21
2.011432
31
0.0
0
LINE
8
TOP
10
2.475000
20
2.011432
30
0.0
11
2.587500
21
2.008413
31
0.0
0
LINE
8
TOP
10
2.587500
20
2.008413
30
0.0
11
2.700000
21
2.005394
31
0.0
0
LINE
8
TOP
10
2.700000
20
2.005394
30
0.0
11
2.812500
21
2.002375
31
0.0
0
LINE
8
TOP
10
2.812500
20
2.002375
30
0.0
11
2.925000
21
1.999356
31
0.0
0
LINE
8
TOP
10
2.925000
20
1.999356
30
0.0
11
3.037500
21
1.996337
31
0.0
0
LINE
8
TOP
10
3.037500
20
1.996337
30
0.0
11
3.150000
21
1.993318
31
0.0
0
LINE
8
TOP
10
3.150000
20
1.993318
30
0.0
11
3.262500
21
1.990299
31
0.0
0
LINE
8
TOP
10
3.262500
20
1.990299
30
0.0
11
3.375000
21
1.987280
31
0.0
0
LINE
8
TOP
10
3.375000
20
1.987280
30
0.0
11
3.487500
21
1.984261
31
0.0
0
LINE
8
TOP
10
3.487500
20
1.984261
30
0.0
11
3.600000
21
1.981242
31
0.0
0
LINE
8
TOP
10
3.600000
20
1.981242
30
0.0
11
3.712500
21
1.978223
31
0.0
0
LINE
8
TOP
10
3.712500
20
1.978223
30
0.0
11
3.825000
21
1.975204
31
0.0
0
LINE
8
TOP
10
3.825000
20
1.975204
30
0.0
11
3.937500
21
1.972185
31
0.0
0
LINE
8
TOP
10
3.937500
20
1.972185
30
0.0
11
4.050000
21
1.969166
31
0.0
0
LINE
8
TOP
10
4.050000
20
1.969166
30
0.0
11
4.162500
21
1.966147
31
0.0
0
LINE
8
TOP
10
4.162500
20
1.966147
30
0.0
11
4.275000
21
1.963129
31
0.0
0
LINE
8
TOP
10
4.275000
20
1.963129
30
0.0
11
4.387500
21
1.960110
31
0.0
0
LINE
8
TOP
10
4.387500
20
1.960110
30
0.0
11
4.500000
21
1.957091
31
0.0
0
LINE
8
TOP
10
4.500000
20
1.957091
30
0.0
11
4.612500
21
1.960110
31
0.0
0
LINE
8
TOP
10
4.612500
20
1.960110
30
0.0
11
4.725000
21
1.963129
31
0.0
0
LINE
8
TOP
10
4.725000
20
1.963129
30
0.0
11
4.837500
21
1.966147
31
0.0
0
LINE
8
TOP
10
4.837500
20
1.966147
30
0.0
11
4.950000
21
1.969166
31
0.0
0
LINE
8
TOP
10
4.950000
20
1.969166
30
0.0
11
5.062500
21
1.972185
31
0.0
0
LINE
8
TOP
10
5.062500
20
1.972185
30
0.0
11
5.175000
21
1.975204
31
0.0
0
LINE
8
TOP
10
5.175000
20
1.975204
30
0.0
11
5.287500
21
1.978223
31
0.0
0
LINE
8
TOP
10
5.287500
20
1.978223
30
0.0
11
5.400000
21
1.981242
31
0.0
0
LINE
8
TOP
10
5.400000
20
1.981242
30
0.0
11
5.512500
21
1.984261
31
0.0
0
LINE
8
TOP
10
5.512500
20
1.984261
30
0.0
11
5.625000
21
1.987280
31
0.0
0
LINE
8
TOP
10
5.625000
20
1.987280
30
0.0
11
5.737500
21
1.990299
31
0.0
0
LINE
8
TOP
10
5.737500
20
1.990299
30
0.0
11
5.850000
21
1.993318
31
0.0
0
LINE
8
TOP
10
5.850000
20
1.993318
30
0.0
11
5.962500
21
1.996337
31
0.0
0
LINE
8
TOP
10
5.962500
20
1.996337
30
0.0
11
6.075000
21
1.999356
31
0.0
0
LINE
8
TOP
10
6.075000
20
1.999356
30
0.0
11
6.187500
21
2.002375
31
0.0
0
LINE
8
TOP
10
6.187500
20
2.002375
30
0.0
11
6.300000
21
2.005394
31
0.0
0
LINE
8
TOP
10
6.300000
20
2.005394
30
0.0
11
6.412500
21
2.008413
31
0.0
0
LINE
8
TOP
10
6.412500
20
2.008413
30
0.0
11
6.525000
21
2.011432
31
0.0
0
LINE
8
TOP
10
6.525000
20
2.011432
30
0.0
11
6.637500
21
2.014451
31
0.0
0
LINE
8
TOP
10
6.637500
20
2.014451
30
0.0
11
6.750000
21
2.017470
31
0.0
0
LINE
8
TOP
10
6.750000
20
2.017470
30
0.0
11
6.862500
21
2.020489
31
0.0
0
LINE
8
TOP
10
6.862500
20
2.020489
30
0.0
11
6.975000
21
2.023508
31
0.0
0
LINE
8
TOP
10
6.975000
20
2.023508
30
0.0
11
7.087500
21
2.026527
31
0.0
0
LINE
8
TOP
10
7.087500
20
2.026527
30
0.0
11
7.200000
21
2.029546
31
0.0
0
LINE
8
TOP
10
7.200000
20
2.029546
30
0.0
11
7.312500
21
2.032565
31
0.0
0
LINE
8
TOP
10
7.312500
20
2.032565
30
0.0
11
7.425000
21
2.035584
31
0.0
0
LINE
8
TOP
10
7.425000
20
2.035584
30
0.0
11
7.537500
21
2.038603
31
0.0
0
LINE
8
TOP
10
7.537500
20
2.038603
30
0.0
11
7.650000
21
2.041622
31
0.0
0
LINE
8
TOP
10
7.650000
20
2.041622
30
0.0
11
7.762500
21
2.044640
31
0.0
0
LINE
8
TOP
10
7.762500
20
2.044640
30
0.0
11
7.875000
21
2.047659
31
0.0
0
LINE
8
TOP
10
7.875000
20
2.047659
30
0.0
11
7.987500
21
2.050678
31
0.0
0
LINE
8
TOP
10
7.987500
20
2.050678
30
0.0
11
8.100000
21
2.053697
31
0.0
0
LINE
8
TOP
10
8.100000
20
2.053697
30
0.0
11
8.212500
21
2.056716
31
0.0
0
LINE
8
TOP
10
8.212500
20
2.056716
30
0.0
11
8.325000
21
2.059735
31
0.0
0
LINE
8
TOP
10
8.325000
20
2.059735
30
0.0
11
8.437500
21
2.062754
31
0.0
0
LINE
8
TOP
10
8.437500
20
2.062754
30
0.0
11
8.500000
21
2.064431
31
0.0
0
LINE
8
TOP
10
8.500000
20
2.064431
30
0.0
11
8.550000
21
2.065773
31
0.0
0
LINE
8
TOP
10
8.550000
20
2.065773
30
0.0
11
8.662500
21
2.068792
31
0.0
0
LINE
8
TOP
10
8.662500
20
2.068792
30
0.0
11
8.775000
21
2.071811
31
0.0
0
LINE
8
TOP
10
8.775000
20
2.071811
30
0.0
11
8.887500
21
2.074830
31
0.0
0
LINE
8
TOP
10
8.887500
20
2.074830
30
0.0
11
9.000000
21
2.077849
31
0.0
0
LINE
8
TOP
10
0.000000
20
2.297849
30
0.0
11
0.000000
21
2.077849
31
0.0
0
LINE
8
TOP
10
9.000000
20
2.297849
30
0.0
11
9.000000
21
2.077849
31
0.0
0
LINE
8
SECTION
10
10.269242
20
-0.479283
30
0.0
11
10.730758
21
-0.479283
31
0.0
0
LINE
8
SECTION
10
10.730758
20
-0.479283
30
0.0
11
10.730758
21
0.479283
31
0.0
0
LINE
8
SECTION
10
10.730758
20
0.479283
30
0.0
11
10.269242
21
0.479283
31
0.0
0
LINE
8
SECTION
10
10.269242
20
0.479283
30
0.0
11
10.269242
21
-0.479283
31
0.0
0
LINE
8
SECTION
10
10.309242
20
-0.439283
30
0.0
11
10.690758
21
-0.439283
31
0.0
0
LINE
8
SECTION
10
10.690758
20
-0.439283
30
0.0
11
10.690758
21
0.439283
31
0.0
0
LINE
8
SECTION
10
10.690758
20
0.439283
30
0.0
11
10.309242
21
0.439283
31
0.0
0
LINE
8
SECTION
10
10.309242
20
0.439283
30
0.0
11
10.309242
21
-0.439283
31
0.0
0
LINE
8
SECTION
10
10.309242
20
0.231126
30
0.0
11
10.349242
21
0.231126
31
0.0
0
LINE
8
SECTION
10
10.349242
20
0.231126
30
0.0
11
10.349242
21
0.439283
31
0.0
0
LINE
8
SECTION
10
10.349242
20
0.439283
30
0.0
11
10.309242
21
0.439283
31
0.0
0
LINE
8
SECTION
10
10.309242
20
0.439283
30
0.0
11
10.309242
21
0.231126
31
0.0
0
LINE
8
SECTION
10
10.309242
20
-0.439283
30
0.0
11
10.349242
21
-0.439283
31
0.0
0
LINE
8
SECTION
10
10.349242
20
-0.439283
30
0.0
11
10.349242
21
-0.231126
31
0.0
0
LINE
8
SECTION
10
10.349242
20
-0.231126
30
0.0
11
10.309242
21
-0.231126
31
0.0
0
LINE
8
SECTION
10
10.309242
20
-0.231126
30
0.0
11
10.309242
21
-0.439283
31
0.0
0
LINE
8
SECTION
10
10.650758
20
0.231126
30
0.0
11
10.690758
21
0.231126
31
0.0
0
LINE
8
SECTION
10
10.690758
20
0.231126
30
0.0
11
10.690758
21
0.439283
31
0.0
0
LINE
8
SECTION
10
10.690758
20
0.439283
30
0.0
11
10.650758
21
0.439283
31
0.0
0
LINE
8
SECTION
10
10.650758
20
0.439283
30
0.0
11
10.650758
21
0.231126
31
0.0
0
LINE
8
SECTION
10
10.650758
20
-0.439283
30
0.0
11
10.690758
21
-0.439283
31
0.0
0
LINE
8
SECTION
10
10.690758
20
-0.439283
30
0.0
11
10.690758
21
-0.231126
31
0.0
0
LINE
8
SECTION
10
10.690758
20
-0.231126
30
0.0
11
10.650758
21
-0.231126
31
0.0
0
LINE
8
SECTION
10
10.650758
20
-0.231126
30
0.0
11
10.650758
21
-0.439283
31
0.0
0
ENDSEC
0
EOF
