0
SECTION
2
HEADER
9
$INSUNITS
70
1
0
ENDSEC
0
SECTION
2
ENTITIES
0
LINE
8
FRONT
10
0.000000
20
0.243549
30
0.0
11
0.112500
21
0.246375
31
0.0
0
LINE
8
FRONT
10
0.112500
20
0.246375
30
0.0
11
0.225000
21
0.249202
31
0.0
0
LINE
8
FRONT
10
0.225000
20
0.249202
30
0.0
11
0.337500
21
0.252028
31
0.0
0
LINE
8
FRONT
10
0.337500
20
0.252028
30
0.0
11
0.450000
21
0.254854
31
0.0
0
LINE
8
FRONT
10
0.450000
20
0.254854
30
0.0
11
0.500000
21
0.256110
31
0.0
0
LINE
8
FRONT
10
0.500000
20
0.256110
30
0.0
11
0.562500
21
0.257680
31
0.0
0
LINE
8
FRONT
10
0.562500
20
0.257680
30
0.0
11
0.675000
21
0.260507
31
0.0
0
LINE
8
FRONT
10
0.675000
20
0.260507
30
0.0
11
0.787500
21
0.263333
31
0.0
0
LINE
8
FRONT
10
0.787500
20
0.263333
30
0.0
11
0.900000
21
0.266159
31
0.0
0
LINE
8
FRONT
10
0.900000
20
0.266159
30
0.0
11
1.012500
21
0.268986
31
0.0
0
LINE
8
FRONT
10
1.012500
20
0.268986
30
0.0
11
1.125000
21
0.271812
31
0.0
0
LINE
8
FRONT
10
1.125000
20
0.271812
30
0.0
11
1.237500
21
0.274638
31
0.0
0
LINE
8
FRONT
10
1.237500
20
0.274638
30
0.0
11
1.350000
21
0.277464
31
0.0
0
LINE
8
FRONT
10
1.350000
20
0.277464
30
0.0
11
1.462500
21
0.280291
31
0.0
0
LINE
8
FRONT
10
1.462500
20
0.280291
30
0.0
11
1.575000
21
0.283117
31
0.0
0
LINE
8
FRONT
10
1.575000
20
0.283117
30
0.0
11
1.687500
21
0.285943
31
0.0
0
LINE
8
FRONT
10
1.687500
20
0.285943
30
0.0
11
1.800000
21
0.288770
31
0.0
0
LINE
8
FRONT
10
1.800000
20
0.288770
30
0.0
11
1.912500
21
0.291596
31
0.0
0
LINE
8
FRONT
10
1.912500
20
0.291596
30
0.0
11
2.025000
21
0.294422
31
0.0
0
LINE
8
FRONT
10
2.025000
20
0.294422
30
0.0
11
2.137500
21
0.297248
31
0.0
0
LINE
8
FRONT
10
2.137500
20
0.297248
30
0.0
11
2.250000
21
0.300075
31
0.0
0
LINE
8
FRONT
10
2.250000
20
0.300075
30
0.0
11
2.362500
21
0.302901
31
0.0
0
LINE
8
FRONT
10
2.362500
20
0.302901
30
0.0
11
2.475000
21
0.305727
31
0.0
0
LINE
8
FRONT
10
2.475000
20
0.305727
30
0.0
11
2.587500
21
0.308553
31
0.0
0
LINE
8
FRONT
10
2.587500
20
0.308553
30
0.0
11
2.700000
21
0.311380
31
0.0
0
LINE
8
FRONT
10
2.700000
20
0.311380
30
0.0
11
2.812500
21
0.314206
31
0.0
0
LINE
8
FRONT
10
2.812500
20
0.314206
30
0.0
11
2.925000
21
0.317032
31
0.0
0
LINE
8
FRONT
10
2.925000
20
0.317032
30
0.0
11
3.037500
21
0.319859
31
0.0
0
LINE
8
FRONT
10
3.037500
20
0.319859
30
0.0
11
3.150000
21
0.322685
31
0.0
0
LINE
8
FRONT
10
3.150000
20
0.322685
30
0.0
11
3.262500
21
0.325511
31
0.0
0
LINE
8
FRONT
10
3.262500
20
0.325511
30
0.0
11
3.375000
21
0.328337
31
0.0
0
LINE
8
FRONT
10
3.375000
20
0.328337
30
0.0
11
3.487500
21
0.331164
31
0.0
0
LINE
8
FRONT
10
3.487500
20
0.331164
30
0.0
11
3.600000
21
0.333990
31
0.0
0
LINE
8
FRONT
10
3.600000
20
0.333990
30
0.0
11
3.712500
21
0.336816
31
0.0
0
LINE
8
FRONT
10
3.712500
20
0.336816
30
0.0
11
3.825000
21
0.339643
31
0.0
0
LINE
8
FRONT
10
3.825000
20
0.339643
30
0.0
11
3.937500
21
0.342469
31
0.0
0
LINE
8
FRONT
10
3.937500
20
0.342469
30
0.0
11
4.050000
21
0.345295
31
0.0
0
LINE
8
FRONT
10
4.050000
20
0.345295
30
0.0
11
4.162500
21
0.348121
31
0.0
0
LINE
8
FRONT
10
4.162500
20
0.348121
30
0.0
11
4.275000
21
0.350948
31
0.0
0
LINE
8
FRONT
10
4.275000
20
0.350948
30
0.0
11
4.387500
21
0.353774
31
0.0
0
LINE
8
FRONT
10
4.387500
20
0.353774
30
0.0
11
4.500000
21
0.356600
31
0.0
0
LINE
8
FRONT
10
4.500000
20
0.356600
30
0.0
11
4.612500
21
0.353774
31
0.0
0
LINE
8
FRONT
10
4.612500
20
0.353774
30
0.0
11
4.725000
21
0.350948
31
0.0
0
LINE
8
FRONT
10
4.725000
20
0.350948
30
0.0
11
4.837500
21
0.348121
31
0.0
0
LINE
8
FRONT
10
4.837500
20
0.348121
30
0.0
11
4.950000
21
0.345295
31
0.0
0
LINE
8
FRONT
10
4.950000
20
0.345295
30
0.0
11
5.062500
21
0.342469
31
0.0
0
LINE
8
FRONT
10
5.062500
20
0.342469
30
0.0
11
5.175000
21
0.339643
31
0.0
0
LINE
8
FRONT
10
5.175000
20
0.339643
30
0.0
11
5.287500
21
0.336816
31
0.0
0
LINE
8
FRONT
10
5.287500
20
0.336816
30
0.0
11
5.400000
21
0.333990
31
0.0
0
LINE
8
FRONT
10
5.400000
20
0.333990
30
0.0
11
5.512500
21
0.331164
31
0.0
0
LINE
8
FRONT
10
5.512500
20
0.331164
30
0.0
11
5.625000
21
0.328337
31
0.0
0
LINE
8
FRONT
10
5.625000
20
0.328337
30
0.0
11
5.737500
21
0.325511
31
0.0
0
LINE
8
FRONT
10
5.737500
20
0.325511
30
0.0
11
5.850000
21
0.322685
31
0.0
0
LINE
8
FRONT
10
5.850000
20
0.322685
30
0.0
11
5.962500
21
0.319859
31
0.0
0
LINE
8
FRONT
10
5.962500
20
0.319859
30
0.0
11
6.075000
21
0.317032
31
0.0
0
LINE
8
FRONT
10
6.075000
20
0.317032
30
0.0
11
6.187500
21
0.314206
31
0.0
0
LINE
8
FRONT
10
6.187500
20
0.314206
30
0.0
11
6.300000
21
0.311380
31
0.0
0
LINE
8
FRONT
10
6.300000
20
0.311380
30
0.0
11
6.412500
21
0.308553
31
0.0
0
LINE
8
FRONT
10
6.412500
20
0.308553
30
0.0
11
6.525000
21
0.305727
31
0.0
0
LINE
8
FRONT
10
6.525000
20
0.305727
30
0.0
11
6.637500
21
0.302901
31
0.0
0
LINE
8
FRONT
10
6.637500
20
0.302901
30
0.0
11
6.750000
21
0.300075
31
0.0
0
LINE
8
FRONT
10
6.750000
20
0.300075
30
0.0
11
6.862500
21
0.297248
31
0.0
0
LINE
8
FRONT
10
6.862500
20
0.297248
30
0.0
11
6.975000
21
0.294422
31
0.0
0
LINE
8
FRONT
10
6.975000
20
0.294422
30
0.0
11
7.087500
21
0.291596
31
0.0
0
LINE
8
FRONT
10
7.087500
20
0.291596
30
0.0
11
7.200000
21
0.288770
31
0.0
0
LINE
8
FRONT
10
7.200000
20
0.288770
30
0.0
11
7.312500
21
0.285943
31
0.0
0
LINE
8
FRONT
10
7.312500
20
0.285943
30
0.0
11
7.425000
21
0.283117
31
0.0
0
LINE
8
FRONT
10
7.425000
20
0.283117
30
0.0
11
7.537500
21
0.280291
31
0.0
0
LINE
8
FRONT
10
7.537500
20
0.280291
30
0.0
11
7.650000
21
0.277464
31
0.0
0
LINE
8
FRONT
10
7.650000
20
0.277464
30
0.0
11
7.762500
21
0.274638
31
0.0
0
LINE
8
FRONT
10
7.762500
20
0.274638
30
0.0
11
7.875000
21
0.271812
31
0.0
0
LINE
8
FRONT
10
7.875000
20
0.271812
30
0.0
11
7.987500
21
0.268986
31
0.0
0
LINE
8
FRONT
10
7.987500
20
0.268986
30
0.0
11
8.100000
21
0.266159
31
0.0
0
LINE
8
FRONT
10
8.100000
20
0.266159
30
0.0
11
8.212500
21
0.263333
31
0.0
0
LINE
8
FRONT
10
8.212500
20
0.263333
30
0.0
11
8.325000
21
0.260507
31
0.0
0
LINE
8
FRONT
10
8.325000
20
0.260507
30
0.0
11
8.437500
21
0.257680
31
0.0
0
LINE
8
FRONT
10
8.437500
20
0.257680
30
0.0
11
8.500000
21
0.256110
31
0.0
0
LINE
8
FRONT
10
8.500000
20
0.256110
30
0.0
11
8.550000
21
0.254854
31
0.0
0
LINE
8
FRONT
10
8.550000
20
0.254854
30
0.0
11
8.662500
21
0.252028
31
0.0
0
LINE
8
FRONT
10
8.662500
20
0.252028
30
0.0
11
8.775000
21
0.249202
31
0.0
0
LINE
8
FRONT
10
8.775000
20
0.249202
30
0.0
11
8.887500
21
0.246375
31
0.0
0
LINE
8
FRONT
10
8.887500
20
0.246375
30
0.0
11
9.000000
21
0.243549
31
0.0
0
LINE
8
FRONT
10
0.000000
20
-0.243549
30
0.0
11
0.112500
21
-0.246375
31
0.0
0
LINE
8
FRONT
10
0.112500
20
-0.246375
30
0.0
11
0.225000
21
-0.249202
31
0.0
0
LINE
8
FRONT
10
0.225000
20
-0.249202
30
0.0
11
0.337500
21
-0.252028
31
0.0
0
LINE
8
FRONT
10
0.337500
20
-0.252028
30
0.0
11
0.450000
21
-0.254854
31
0.0
0
LINE
8
FRONT
10
0.450000
20
-0.254854
30
0.0
11
0.500000
21
-0.256110
31
0.0
0
LINE
8
FRONT
10
0.500000
20
-0.256110
30
0.0
11
0.562500
21
-0.257680
31
0.0
0
LINE
8
FRONT
10
0.562500
20
-0.257680
30
0.0
11
0.675000
21
-0.260507
31
0.0
0
LINE
8
FRONT
10
0.675000
20
-0.260507
30
0.0
11
0.787500
21
-0.263333
31
0.0
0
LINE
8
FRONT
10
0.787500
20
-0.263333
30
0.0
11
0.900000
21
-0.266159
31
0.0
0
LINE
8
FRONT
10
0.900000
20
-0.266159
30
0.0
11
1.012500
21
-0.268986
31
0.0
0
LINE
8
FRONT
10
1.012500
20
-0.268986
30
0.0
11
1.125000
21
-0.271812
31
0.0
0
LINE
8
FRONT
10
1.125000
20
-0.271812
30
0.0
11
1.237500
21
-0.274638
31
0.0
0
LINE
8
FRONT
10
1.237500
20
-0.274638
30
0.0
11
1.350000
21
-0.277464
31
0.0
0
LINE
8
FRONT
10
1.350000
20
-0.277464
30
0.0
11
1.462500
21
-0.280291
31
0.0
0
LINE
8
FRONT
10
1.462500
20
-0.280291
30
0.0
11
1.575000
21
-0.283117
31
0.0
0
LINE
8
FRONT
10
1.575000
20
-0.283117
30
0.0
11
1.687500
21
-0.285943
31
0.0
0
LINE
8
FRONT
10
1.687500
20
-0.285943
30
0.0
11
1.800000
21
-0.288770
31
0.0
0
LINE
8
FRONT
10
1.800000
20
-0.288770
30
0.0
11
1.912500
21
-0.291596
31
0.0
0
LINE
8
FRONT
10
1.912500
20
-0.291596
30
0.0
11
2.025000
21
-0.294422
31
0.0
0
LINE
8
FRONT
10
2.025000
20
-0.294422
30
0.0
11
2.137500
21
-0.297248
31
0.0
0
LINE
8
FRONT
10
2.137500
20
-0.297248
30
0.0
11
2.250000
21
-0.300075
31
0.0
0
LINE
8
FRONT
10
2.250000
20
-0.300075
30
0.0
11
2.362500
21
-0.302901
31
0.0
0
LINE
8
FRONT
10
2.362500
20
-0.302901
30
0.0
11
2.475000
21
-0.305727
31
0.0
0
LINE
8
FRONT
10
2.475000
20
-0.305727
30
0.0
11
2.587500
21
-0.308553
31
0.0
0
LINE
8
FRONT
10
2.587500
20
-0.308553
30
0.0
11
2.700000
21
-0.311380
31
0.0
0
LINE
8
FRONT
10
2.700000
20
-0.311380
30
0.0
11
2.812500
21
-0.314206
31
0.0
0
LINE
8
FRONT
10
2.812500
20
-0.314206
30
0.0
11
2.925000
21
-0.317032
31
0.0
0
LINE
8
FRONT
10
2.925000
20
-0.317032
30
0.0
11
3.037500
21
-0.319859
31
0.0
0
LINE
8
FRONT
10
3.037500
20
-0.319859
30
0.0
11
3.150000
21
-0.322685
31
0.0
0
LINE
8
FRONT
10
3.150000
20
-0.322685
30
0.0
11
3.262500
21
-0.325511
31
0.0
0
LINE
8
FRONT
10
3.262500
20
-0.325511
30
0.0
11
3.375000
21
-0.328337
31
0.0
0
LINE
8
FRONT
10
3.375000
20
-0.328337
30
0.0
11
3.487500
21
-0.331164
31
0.0
0
LINE
8
FRONT
10
3.487500
20
-0.331164
30
0.0
11
3.600000
21
-0.333990
31
0.0
0
LINE
8
FRONT
10
3.600000
20
-0.333990
30
0.0
11
3.712500
21
-0.336816
31
0.0
0
LINE
8
FRONT
10
3.712500
20
-0.336816
30
0.0
11
3.825000
21
-0.339643
31
0.0
0
LINE
8
FRONT
10
3.825000
20
-0.339643
30
0.0
11
3.937500
21
-0.342469
31
0.0
0
LINE
8
FRONT
10
3.937500
20
-0.342469
30
0.0
11
4.050000
21
-0.345295
31
0.0
0
LINE
8
FRONT
10
4.050000
20
-0.345295
30
0.0
11
4.162500
21
-0.348121
31
0.0
0
LINE
8
FRONT
10
4.162500
20
-0.348121
30
0.0
11
4.275000
21
-0.350948
31
0.0
0
LINE
8
FRONT
10
4.275000
20
-0.350948
30
0.0
11
4.387500
21
-0.353774
31
0.0
0
LINE
8
FRONT
10
4.387500
20
-0.353774
30
0.0
11
4.500000
21
-0.356600
31
0.0
0
LINE
8
FRONT
10
4.500000
20
-0.356600
30
0.0
11
4.612500
21
-0.353774
31
0.0
0
LINE
8
FRONT
10
4.612500
20
-0.353774
30
0.0
11
4.725000
21
-0.350948
31
0.0
0
LINE
8
FRONT
10
4.725000
20
-0.350948
30
0.0
11
4.837500
21
-0.348121
31
0.0
0
LINE
8
FRONT
10
4.837500
20
-0.348121
30
0.0
11
4.950000
21
-0.345295
31
0.0
0
LINE
8
FRONT
10
4.950000
20
-0.345295
30
0.0
11
5.062500
21
-0.342469
31
0.0
0
LINE
8
FRONT
10
5.062500
20
-0.342469
30
0.0
11
5.175000
21
-0.339643
31
0.0
0
LINE
8
FRONT
10
5.175000
20
-0.339643
30
0.0
11
5.287500
21
-0.336816
31
0.0
0
LINE
8
FRONT
10
5.287500
20
-0.336816
30
0.0
11
5.400000
21
-0.333990
31
0.0
0
LINE
8
FRONT
10
5.400000
20
-0.333990
30
0.0
11
5.512500
21
-0.331164
31
0.0
0
LINE
8
FRONT
10
5.512500
20
-0.331164
30
0.0
11
5.625000
21
-0.328337
31
0.0
0
LINE
8
FRONT
10
5.625000
20
-0.328337
30
0.0
11
5.737500
21
-0.325511
31
0.0
0
LINE
8
FRONT
10
5.737500
20
-0.325511
30
0.0
11
5.850000
21
-0.322685
31
0.0
0
LINE
8
FRONT
10
5.850000
20
-0.322685
30
0.0
11
5.962500
21
-0.319859
31
0.0
0
LINE
8
FRONT
10
5.962500
20
-0.319859
30
0.0
11
6.075000
21
-0.317032
31
0.0
0
LINE
8
FRONT
10
6.075000
20
-0.317032
30
0.0
11
6.187500
21
-0.314206
31
0.0
0
LINE
8
FRONT
10
6.187500
20
-0.314206
30
0.0
11
6.300000
21
-0.311380
31
0.0
0
LINE
8
FRONT
10
6.300000
20
-0.311380
30
0.0
11
6.412500
21
-0.308553
31
0.0
0
LINE
8
FRONT
10
6.412500
20
-0.308553
30
0.0
11
6.525000
21
-0.305727
31
0.0
0
LINE
8
FRONT
10
6.525000
20
-0.305727
30
0.0
11
6.637500
21
-0.302901
31
0.0
0
LINE
8
FRONT
10
6.637500
20
-0.302901
30
0.0
11
6.750000
21
-0.300075
31
0.0
0
LINE
8
FRONT
10
6.750000
20
-0.300075
30
0.0
11
6.862500
21
-0.297248
31
0.0
0
LINE
8
FRONT
10
6.862500
20
-0.297248
30
0.0
11
6.975000
21
-0.294422
31
0.0
0
LINE
8
FRONT
10
6.975000
20
-0.294422
30
0.0
11
7.087500
21
-0.291596
31
0.0
0
LINE
8
FRONT
10
7.087500
20
-0.291596
30
0.0
11
7.200000
21
-0.288770
31
0.0
0
LINE
8
FRONT
10
7.200000
20
-0.288770
30
0.0
11
7.312500
21
-0.285943
31
0.0
0
LINE
8
FRONT
10
7.312500
20
-0.285943
30
0.0
11
7.425000
21
-0.283117
31
0.0
0
LINE
8
FRONT
10
7.425000
20
-0.283117
30
0.0
11
7.537500
21
-0.280291
31
0.0
0
LINE
8
FRONT
10
7.537500
20
-0.280291
30
0.0
11
7.650000
21
-0.277464
31
0.0
0
LINE
8
FRONT
10
7.650000
20
-0.277464
30
0.0
11
7.762500
21
-0.274638
31
0.0
0
LINE
8
FRONT
10
7.762500
20
-0.274638
30
0.0
11
7.875000
21
-0.271812
31
0.0
0
LINE
8
FRONT
10
7.875000
20
-0.271812
30
0.0
11
7.987500
21
-0.268986
31
0.0
0
LINE
8
FRONT
10
7.987500
20
-0.268986
30
0.0
11
8.100000
21
-0.266159
31
0.0
0
LINE
8
FRONT
10
8.100000
20
-0.266159
30
0.0
11
8.212500
21
-0.263333
31
0.0
0
LINE
8
FRONT
10
8.212500
20
-0.263333
30
0.0
11
8.325000
21
-0.260507
31
0.0
0
LINE
8
FRONT
10
8.325000
20
-0.260507
30
0.0
11
8.437500
21
-0.257680
31
0.0
0
LINE
8
FRONT
10
8.437500
20
-0.257680
30
0.0
11
8.500000
21
-0.256110
31
0.0
0
LINE
8
FRONT
10
8.500000
20
-0.256110
30
0.0
11
8.550000
21
-0.254854
31
0.0
0
LINE
8
FRONT
10
8.550000
20
-0.254854
30
0.0
11
8.662500
21
-0.252028
31
0.0
0
LINE
8
FRONT
10
8.662500
20
-0.252028
30
0.0
11
8.775000
21
-0.249202
31
0.0
0
LINE
8
FRONT
10
8.775000
20
-0.249202
30
0.0
11
8.887500
21
-0.246375
31
0.0
0
LINE
8
FRONT
10
8.887500
20
-0.246375
30
0.0
11
9.000000
21
-0.243549
31
0.0
0
LINE
8
FRONT
10
0.000000
20
0.243549
30
0.0
11
0.000000
21
-0.243549
31
0.0
0
LINE
8
FRONT
10
9.000000
20
0.243549
30
0.0
11
9.000000
21
-0.243549
31
0.0
0
LINE
8
TOP
10
0.000000
20
2.129570
30
0.0
11
0.112500
21
2.127285
31
0.0
0
LINE
8
TOP
10
0.112500
20
2.127285
30
0.0
11
0.225000
21
2.124999
31
0.0
0
LINE
8
TOP
10
0.225000
20
2.124999
30
0.0
11
0.337500
21
2.122713
31
0.0
0
LINE
8
TOP
10
0.337500
20
2.122713
30
0.0
11
0.450000
21
2.120427
31
0.0
0
LINE
8
TOP
10
0.450000
20
2.120427
30
0.0
11
0.500000
21
2.119411
31
0.0
0
LINE
8
TOP
10
0.500000
20
2.119411
30
0.0
11
0.562500
21
2.118141
31
0.0
0
LINE
8
TOP
10
0.562500
20
2.118141
30
0.0
11
0.675000
21
2.115855
31
0.0
0
LINE
8
TOP
10
0.675000
20
2.115855
30
0.0
11
0.787500
21
2.113569
31
0.0
0
LINE
8
TOP
10
0.787500
20
2.113569
30
0.0
11
0.900000
21
2.111284
31
0.0
0
LINE
8
TOP
10
0.900000
20
2.111284
30
0.0
11
1.012500
21
2.108998
31
0.0
0
LINE
8
TOP
10
1.012500
20
2.108998
30
0.0
11
1.125000
21
2.106712
31
0.0
0
LINE
8
TOP
10
1.125000
20
2.106712
30
0.0
11
1.237500
21
2.104426
31
0.0
0
LINE
8
TOP
10
1.237500
20
2.104426
30
0.0
11
1.350000
21
2.102140
31
0.0
0
LINE
8
TOP
10
1.350000
20
2.102140
30
0.0
11
1.462500
21
2.099854
31
0.0
0
LINE
8
TOP
10
1.462500
20
2.099854
30
0.0
11
1.575000
21
2.097568
31
0.0
0
LINE
8
TOP
10
1.575000
20
2.097568
30
0.0
11
1.687500
21
2.095283
31
0.0
0
LINE
8
TOP
10
1.687500
20
2.095283
30
0.0
11
1.800000
21
2.092997
31
0.0
0
LINE
8
TOP
10
1.800000
20
2.092997
30
0.0
11
1.912500
21
2.090711
31
0.0
0
LINE
8
TOP
10
1.912500
20
2.090711
30
0.0
11
2.025000
21
2.088425
31
0.0
0
LINE
8
TOP
10
2.025000
20
2.088425
30
0.0
11
2.137500
21
2.086139
31
0.0
0
LINE
8
TOP
10
2.137500
20
2.086139
30
0.0
11
2.250000
21
2.083853
31
0.0
0
LINE
8
TOP
10
2.250000
20
2.083853
30
0.0
11
2.362500
21
2.081567
31
0.0
0
LINE
8
TOP
10
2.362500
20
2.081567
30
0.0
11
2.475000
21
2.079282
31
0.0
0
LINE
8
TOP
10
2.475000
20
2.079282
30
0.0
11
2.587500
21
2.076996
31
0.0
0
LINE
8
TOP
10
2.587500
20
2.076996
30
0.0
11
2.700000
21
2.074710
31
0.0
0
LINE
8
TOP
10
2.700000
20
2.074710
30
0.0
11
2.812500
21
2.072424
31
0.0
0
LINE
8
TOP
10
2.812500
20
2.072424
30
0.0
11
2.925000
21
2.070138
31
0.0
0
LINE
8
TOP
10
2.925000
20
2.070138
30
0.0
11
3.037500
21
2.067852
31
0.0
0
LINE
8
TOP
10
3.037500
20
2.067852
30
0.0
11
3.150000
21
2.065566
31
0.0
0
LINE
8
TOP
10
3.150000
20
2.065566
30
0.0
11
3.262500
21
2.063281
31
0.0
0
LINE
8
TOP
10
3.262500
20
2.063281
30
0.0
11
3.375000
21
2.060995
31
0.0
0
LINE
8
TOP
10
3.375000
20
2.060995
30
0.0
11
3.487500
21
2.058709
31
0.0
0
LINE
8
TOP
10
3.487500
20
2.058709
30
0.0
11
3.600000
21
2.056423
31
0.0
0
LINE
8
TOP
10
3.600000
20
2.056423
30
0.0
11
3.712500
21
2.054137
31
0.0
0
LINE
8
TOP
10
3.712500
20
2.054137
30
0.0
11
3.825000
21
2.051851
31
0.0
0
LINE
8
TOP
10
3.825000
20
2.051851
30
0.0
11
3.937500
21
2.049565
31
0.0
0
LINE
8
TOP
10
3.937500
20
2.049565
30
0.0
11
4.050000
21
2.047280
31
0.0
0
LINE
8
TOP
10
4.050000
20
2.047280
30
0.0
11
4.162500
21
2.044994
31
0.0
0
LINE
8
TOP
10
4.162500
20
2.044994
30
0.0
11
4.275000
21
2.042708
31
0.0
0
LINE
8
TOP
10
4.275000
20
2.042708
30
0.0
11
4.387500
21
2.040422
31
0.0
0
LINE
8
TOP
10
4.387500
20
2.040422
30
0.0
11
4.500000
21
2.038136
31
0.0
0
LINE
8
TOP
10
4.500000
20
2.038136
30
0.0
11
4.612500
21
2.040422
31
0.0
0
LINE
8
TOP
10
4.612500
20
2.040422
30
0.0
11
4.725000
21
2.042708
31
0.0
0
LINE
8
TOP
10
4.725000
20
2.042708
30
0.0
11
4.837500
21
2.044994
31
0.0
0
LINE
8
TOP
10
4.837500
20
2.044994
30
0.0
11
4.950000
21
2.047280
31
0.0
0
LINE
8
TOP
10
4.950000
20
2.047280
30
0.0
11
5.062500
21
2.049565
31
0.0
0
LINE
8
TOP
10
5.062500
20
2.049565
30
0.0
11
5.175000
21
2.051851
31
0.0
0
LINE
8
TOP
10
5.175000
20
2.051851
30
0.0
11
5.287500
21
2.054137
31
0.0
0
LINE
8
TOP
10
5.287500
20
2.054137
30
0.0
11
5.400000
21
2.056423
31
0.0
0
LINE
8
TOP
10
5.400000
20
2.056423
30
0.0
11
5.512500
21
2.058709
31
0.0
0
LINE
8
TOP
10
5.512500
20
2.058709
30
0.0
11
5.625000
21
2.060995
31
0.0
0
LINE
8
TOP
10
5.625000
20
2.060995
30
0.0
11
5.737500
21
2.063281
31
0.0
0
LINE
8
TOP
10
5.737500
20
2.063281
30
0.0
11
5.850000
21
2.065566
31
0.0
0
LINE
8
TOP
10
5.850000
20
2.065566
30
0.0
11
5.962500
21
2.067852
31
0.0
0
LINE
8
TOP
10
5.962500
20
2.067852
30
0.0
11
6.075000
21
2.070138
31
0.0
0
LINE
8
TOP
10
6.075000
20
2.070138
30
0.0
11
6.187500
21
2.072424
31
0.0
0
LINE
8
TOP
10
6.187500
20
2.072424
30
0.0
11
6.300000
21
2.074710
31
0.0
0
LINE
8
TOP
10
6.300000
20
2.074710
30
0.0
11
6.412500
21
2.076996
31
0.0
0
LINE
8
TOP
10
6.412500
20
2.076996
30
0.0
11
6.525000
21
2.079282
31
0.0
0
LINE
8
TOP
10
6.525000
20
2.079282
30
0.0
11
6.637500
21
2.081567
31
0.0
0
LINE
8
TOP
10
6.637500
20
2.081567
30
0.0
11
6.750000
21
2.083853
31
0.0
0
LINE
8
TOP
10
6.750000
20
2.083853
30
0.0
11
6.862500
21
2.086139
31
0.0
0
LINE
8
TOP
10
6.862500
20
2.086139
30
0.0
11
6.975000
21
2.088425
31
0.0
0
LINE
8
TOP
10
6.975000
20
2.088425
30
0.0
11
7.087500
21
2.090711
31
0.0
0
LINE
8
TOP
10
7.087500
20
2.090711
30
0.0
11
7.200000
21
2.092997
31
0.0
0
LINE
8
TOP
10
7.200000
20
2.092997
30
0.0
11
7.312500
21
2.095283
31
0.0
0
LINE
8
TOP
10
7.312500
20
2.095283
30
0.0
11
7.425000
21
2.097568
31
0.0
0
LINE
8
TOP
10
7.425000
20
2.097568
30
0.0
11
7.537500
21
2.099854
31
0.0
0
LINE
8
TOP
10
7.537500
20
2.099854
30
0.0
11
7.650000
21
2.102140
31
0.0
0
LINE
8
TOP
10
7.650000
20
2.102140
30
0.0
11
7.762500
21
2.104426
31
0.0
0
LINE
8
TOP
10
7.762500
20
2.104426
30
0.0
11
7.875000
21
2.106712
31
0.0
0
LINE
8
TOP
10
7.875000
20
2.106712
30
0.0
11
7.987500
21
2.108998
31
0.0
0
LINE
8
TOP
10
7.987500
20
2.108998
30
0.0
11
8.100000
21
2.111284
31
0.0
0
LINE
8
TOP
10
8.100000
20
2.111284
30
0.0
11
8.212500
21
2.113569
31
0.0
0
LINE
8
TOP
10
8.212500
20
2.113569
30
0.0
11
8.325000
21
2.115855
31
0.0
0
LINE
8
TOP
10
8.325000
20
2.115855
30
0.0
11
8.437500
21
2.118141
31
0.0
0
LINE
8
TOP
10
8.437500
20
2.118141
30
0.0
11
8.500000
21
2.119411
31
0.0
0
LINE
8
TOP
10
8.500000
20
2.119411
30
0.0
11
8.550000
21
2.120427
31
0.0
0
LINE
8
TOP
10
8.550000
20
2.120427
30
0.0
11
8.662500
21
2.122713
31
0.0
0
LINE
8
TOP
10
8.662500
20
2.122713
30
0.0
11
8.775000
21
2.124999
31
0.0
0
LINE
8
TOP
10
8.775000
20
2.124999
30
0.0
11
8.887500
21
2.127285
31
0.0
0
LINE
8
TOP
10
8.887500
20
2.127285
30
0.0
11
9.000000
21
2.129570
31
0.0
0
LINE
8
TOP
10
0.000000
20
1.510031
30
0.0
11
0.112500
21
1.512317
31
0.0
0
LINE
8
TOP
10
0.112500
20
1.512317
30
0.0
11
0.225000
21
1.514602
31
0.0
0
LINE
8
TOP
10
0.225000
20
1.514602
30
0.0
11
0.337500
21
1.516888
31
0.0
0
LINE
8
TOP
10
0.337500
20
1.516888
30
0.0
11
0.450000
21
1.519174
31
0.0
0
LINE
8
TOP
10
0.450000
20
1.519174
30
0.0
11
0.500000
21
1.520190
31
0.0
0
LINE
8
TOP
10
0.500000
20
1.520190
30
0.0
11
0.562500
21
1.521460
31
0.0
0
LINE
8
TOP
10
0.562500
20
1.521460
30
0.0
11
0.675000
21
1.523746
31
0.0
0
LINE
8
TOP
10
0.675000
20
1.523746
30
0.0
11
0.787500
21
1.526032
31
0.0
0
LINE
8
TOP
10
0.787500
20
1.526032
30
0.0
11
0.900000
21
1.528318
31
0.0
0
LINE
8
TOP
10
0.900000
20
1.528318
30
0.0
11
1.012500
21
1.530603
31
0.0
0
LINE
8
TOP
10
1.012500
20
1.530603
30
0.0
11
1.125000
21
1.532889
31
0.0
0
LINE
8
TOP
10
1.125000
20
1.532889
30
0.0
11
1.237500
21
1.535175
31
0.0
0
LINE
8
TOP
10
1.237500
20
1.535175
30
0.0
11
1.350000
21
1.537461
31
0.0
0
LINE
8
TOP
10
1.350000
20
1.537461
30
0.0
11
1.462500
21
1.539747
31
0.0
0
LINE
8
TOP
10
1.462500
20
1.539747
30
0.0
11
1.575000
21
1.542033
31
0.0
0
LINE
8
TOP
10
1.575000
20
1.542033
30
0.0
11
1.687500
21
1.544319
31
0.0
0
LINE
8
TOP
10
1.687500
20
1.544319
30
0.0
11
1.800000
21
1.546604
31
0.0
0
LINE
8
TOP
10
1.800000
20
1.546604
30
0.0
11
1.912500
21
1.548890
31
0.0
0
LINE
8
TOP
10
1.912500
20
1.548890
30
0.0
11
2.025000
21
1.551176
31
0.0
0
LINE
8
TOP
10
2.025000
20
1.551176
30
0.0
11
2.137500
21
1.553462
31
0.0
0
LINE
8
TOP
10
2.137500
20
1.553462
30
0.0
11
2.250000
21
1.555748
31
0.0
0
LINE
8
TOP
10
2.250000
20
1.555748
30
0.0
11
2.362500
21
1.558034
31
0.0
0
LINE
8
TOP
10
2.362500
20
1.558034
30
0.0
11
2.475000
21
1.560320
31
0.0
0
LINE
8
TOP
10
2.475000
20
1.560320
30
0.0
11
2.587500
21
1.562605
31
0.0
0
LINE
8
TOP
10
2.587500
20
1.562605
30
0.0
11
2.700000
21
1.564891
31
0.0
0
LINE
8
TOP
10
2.700000
20
1.564891
30
0.0
11
2.812500
21
1.567177
31
0.0
0
LINE
8
TOP
10
2.812500
20
1.567177
30
0.0
11
2.925000
21
1.569463
31
0.0
0
LINE
8
TOP
10
2.925000
20
1.569463
30
0.0
11
3.037500
21
1.571749
31
0.0
0
LINE
8
TOP
10
3.037500
20
1.571749
30
0.0
11
3.150000
21
1.574035
31
0.0
0
LINE
8
TOP
10
3.150000
20
1.574035
30
0.0
11
3.262500
21
1.576321
31
0.0
0
LINE
8
TOP
10
3.262500
20
1.576321
30
0.0
11
3.375000
21
1.578606
31
0.0
0
LINE
8
TOP
10
3.375000
20
1.578606
30
0.0
11
3.487500
21
1.580892
31
0.0
0
LINE
8
TOP
10
3.487500
20
1.580892
30
0.0
11
3.600000
21
1.583178
31
0.0
0
LINE
8
TOP
10
3.600000
20
1.583178
30
0.0
11
3.712500
21
1.585464
31
0.0
0
LINE
8
TOP
10
3.712500
20
1.585464
30
0.0
11
3.825000
21
1.587750
31
0.0
0
LINE
8
TOP
10
3.825000
20
1.587750
30
0.0
11
3.937500
21
1.590036
31
0.0
0
LINE
8
TOP
10
3.937500
20
1.590036
30
0.0
11
4.050000
21
1.592322
31
0.0
0
LINE
8
TOP
10
4.050000
20
1.592322
30
0.0
11
4.162500
21
1.594607
31
0.0
0
LINE
8
TOP
10
4.162500
20
1.594607
30
0.0
11
4.275000
21
1.596893
31
0.0
0
LINE
8
TOP
10
4.275000
20
1.596893
30
0.0
11
4.387500
21
1.599179
31
0.0
0
LINE
8
TOP
10
4.387500
20
1.599179
30
0.0
11
4.500000
21
1.601465
31
0.0
0
LINE
8
TOP
10
4.500000
20
1.601465
30
0.0
11
4.612500
21
1.599179
31
0.0
0
LINE
8
TOP
10
4.612500
20
1.599179
30
0.0
11
4.725000
21
1.596893
31
0.0
0
LINE
8
TOP
10
4.725000
20
1.596893
30
0.0
11
4.837500
21
1.594607
31
0.0
0
LINE
8
TOP
10
4.837500
20
1.594607
30
0.0
11
4.950000
21
1.592322
31
0.0
0
LINE
8
TOP
10
4.950000
20
1.592322
30
0.0
11
5.062500
21
1.590036
31
0.0
0
LINE
8
TOP
10
5.062500
20
1.590036
30
0.0
11
5.175000
21
1.587750
31
0.0
0
LINE
8
TOP
10
5.175000
20
1.587750
30
0.0
11
5.287500
21
1.585464
31
0.0
0
LINE
8
TOP
10
5.287500
20
1.585464
30
0.0
11
5.400000
21
1.583178
31
0.0
0
LINE
8
TOP
10
5.400000
20
1.583178
30
0.0
11
5.512500
21
1.580892
31
0.0
0
LINE
8
TOP
10
5.512500
20
1.580892
30
0.0
11
5.625000
21
1.578606
31
0.0
0
LINE
8
TOP
10
5.625000
20
1.578606
30
0.0
11
5.737500
21
1.576321
31
0.0
0
LINE
8
TOP
10
5.737500
20
1.576321
30
0.0
11
5.850000
21
1.574035
31
0.0
0
LINE
8
TOP
10
5.850000
20
1.574035
30
0.0
11
5.962500
21
1.571749
31
0.0
0
LINE
8
TOP
10
5.962500
20
1.571749
30
0.0
11
6.075000
21
1.569463
31
0.0
0
LINE
8
TOP
10
6.075000
20
1.569463
30
0.0
11
6.187500
21
1.567177
31
0.0
0
LINE
8
TOP
10
6.187500
20
1.567177
30
0.0
11
6.300000
21
1.564891
31
0.0
0
LINE
8
TOP
10
6.300000
20
1.564891
30
0.0
11
6.412500
21
1.562605
31
0.0
0
LINE
8
TOP
10
6.412500
20
1.562605
30
0.0
11
6.525000
21
1.560320
31
0.0
0
LINE
8
TOP
10
6.525000
20
1.560320
30
0.0
11
6.637500
21
1.558034
31
0.0
0
LINE
8
TOP
10
6.637500
20
1.558034
30
0.0
11
6.750000
21
1.555748
31
0.0
0
LINE
8
TOP
10
6.750000
20
1.555748
30
0.0
11
6.862500
21
1.553462
31
0.0
0
LINE
8
TOP
10
6.862500
20
1.553462
30
0.0
11
6.975000
21
1.551176
31
0.0
0
LINE
8
TOP
10
6.975000
20
1.551176
30
0.0
11
7.087500
21
1.548890
31
0.0
0
LINE
8
TOP
10
7.087500
20
1.548890
30
0.0
11
7.200000
21
1.546604
31
0.0
0
LINE
8
TOP
10
7.200000
20
1.546604
30
0.0
11
7.312500
21
1.544319
31
0.0
0
LINE
8
TOP
10
7.312500
20
1.544319
30
0.0
11
7.425000
21
1.542033
31
0.0
0
LINE
8
TOP
10
7.425000
20
1.542033
30
0.0
11
7.537500
21
1.539747
31
0.0
0
LINE
8
TOP
10
7.537500
20
1.539747
30
0.0
11
7.650000
21
1.537461
31
0.0
0
LINE
8
TOP
10
7.650000
20
1.537461
30
0.0
11
7.762500
21
1.535175
31
0.0
0
LINE
8
TOP
10
7.762500
20
1.535175
30
0.0
11
7.875000
21
1.532889
31
0.0
0
LINE
8
TOP
10
7.875000
20
1.532889
30
0.0
11
7.987500
21
1.530603
31
0.0
0
LINE
8
TOP
10
7.987500
20
1.530603
30
0.0
11
8.100000
21
1.528318
31
0.0
0
LINE
8
TOP
10
8.100000
20
1.528318
30
0.0
11
8.212500
21
1.526032
31
0.0
0
LINE
8
TOP
10
8.212500
20
1.526032
30
0.0
11
8.325000
21
1.523746
31
0.0
0
LINE
8
TOP
10
8.325000
20
1.523746
30
0.0
11
8.437500
21
1.521460
31
0.0
0
LINE
8
TOP
10
8.437500
20
1.521460
30
0.0
11
8.500000
21
1.520190
31
0.0
0
LINE
8
TOP
10
8.500000
20
1.520190
30
0.0
11
8.550000
21
1.519174
31
0.0
0
LINE
8
TOP
10
8.550000
20
1.519174
30
0.0
11
8.662500
21
1.516888
31
0.0
0
LINE
8
TOP
10
8.662500
20
1.516888
30
0.0
11
8.775000
21
1.514602
31
0.0
0
LINE
8
TOP
10
8.775000
20
1.514602
30
0.0
11
8.887500
21
1.512317
31
0.0
0
LINE
8
TOP
10
8.887500
20
1.512317
30
0.0
11
9.000000
21
1.510031
31
0.0
0
LINE
8
TOP
10
0.000000
20
2.129570
30
0.0
11
0.000000
21
1.510031
31
0.0
0
LINE
8
TOP
10
9.000000
20
2.129570
30
0.0
11
9.000000
21
1.510031
31
0.0
0
LINE
8
SECTION
10
10.281664
20
-0.356600
30
0.0
11
10.718336
21
-0.356600
31
0.0
0
LINE
8
SECTION
10
10.718336
20
-0.356600
30
0.0
11
10.718336
21
0.356600
31
0.0
0
LINE
8
SECTION
10
10.718336
20
0.356600
30
0.0
11
10.281664
21
0.356600
31
0.0
0
LINE
8
SECTION
10
10.281664
20
0.356600
30
0.0
11
10.281664
21
-0.356600
31
0.0
0
LINE
8
SECTION
10
10.321664
20
-0.316600
30
0.0
11
10.678336
21
-0.316600
31
0.0
0
LINE
8
SECTION
10
10.678336
20
-0.316600
30
0.0
11
10.678336
21
0.316600
31
0.0
0
LINE
8
SECTION
10
10.678336
20
0.316600
30
0.0
11
10.321664
21
0.316600
31
0.0
0
LINE
8
SECTION
10
10.321664
20
0.316600
30
0.0
11
10.321664
21
-0.316600
31
0.0
0
LINE
8
SECTION
10
10.321664
20
0.000000
30
0.0
11
10.361664
21
0.000000
31
0.0
0
LINE
8
SECTION
10
10.361664
20
0.000000
30
0.0
11
10.361664
21
0.316600
31
0.0
0
LINE
8
SECTION
10
10.361664
20
0.316600
30
0.0
11
10.321664
21
0.316600
31
0.0
0
LINE
8
SECTION
10
10.321664
20
0.316600
30
0.0
11
10.321664
21
0.000000
31
0.0
0
LINE
8
SECTION
10
10.321664
20
-0.316600
30
0.0
11
10.361664
21
-0.316600
31
0.0
0
LINE
8
SECTION
10
10.361664
20
-0.316600
30
0.0
11
10.361664
21
0.000000
31
0.0
0
LINE
8
SECTION
10
10.361664
20
0.000000
30
0.0
11
10.321664
21
0.000000
31
0.0
0
LINE
8
SECTION
10
10.321664
20
0.000000
30
0.0
11
10.321664
21
-0.316600
31
0.0
0
LINE
8
SECTION
10
10.638336
20
0.000000
30
0.0
11
10.678336
21
0.000000
31
0.0
0
LINE
8
SECTION
10
10.678336
20
0.000000
30
0.0
11
10.678336
21
0.316600
31
0.0
0
LINE
8
SECTION
10
10.678336
20
0.316600
30
0.0
11
10.638336
21
0.316600
31
0.0
0
LINE
8
SECTION
10
10.638336
20
0.316600
30
0.0
11
10.638336
21
0.000000
31
0.0
0
LINE
8
SECTION
10
10.638336
20
-0.316600
30
0.0
11
10.678336
21
-0.316600
31
0.0
0
LINE
8
SECTION
10
10.678336
20
-0.316600
30
0.0
11
10.678336
21
0.000000
31
0.0
0
LINE
8
SECTION
10
10.678336
20
0.000000
30
0.0
11
10.638336
21
0.000000
31
0.0
0
LINE
8
SECTION
10
10.638336
20
0.000000
30
0.0
11
10.638336
21
-0.316600
31
0.0
0
ENDSEC
0
EOF
