0
SECTION
2
HEADER
9
$INSUNITS
70
1
0
ENDSEC
0
SECTION
2
ENTITIES
0
LINE
8
FRONT
10
0.000000
20
0.525434
30
0.0
11
0.100000
21
0.519291
31
0.0
0
LINE
8
FRONT
10
0.100000
20
0.519291
30
0.0
11
0.200000
21
0.513147
31
0.0
0
LINE
8
FRONT
10
0.200000
20
0.513147
30
0.0
11
0.300000
21
0.507003
31
0.0
0
LINE
8
FRONT
10
0.300000
20
0.507003
30
0.0
11
0.400000
21
0.500860
31
0.0
0
LINE
8
FRONT
10
0.400000
20
0.500860
30
0.0
11
0.500000
21
0.494716
31
0.0
0
LINE
8
FRONT
10
0.500000
20
0.494716
30
0.0
11
0.600000
21
0.488573
31
0.0
0
LINE
8
FRONT
10
0.600000
20
0.488573
30
0.0
11
0.700000
21
0.482429
31
0.0
0
LINE
8
FRONT
10
0.700000
20
0.482429
30
0.0
11
0.800000
21
0.476285
31
0.0
0
LINE
8
FRONT
10
0.800000
20
0.476285
30
0.0
11
0.900000
21
0.470142
31
0.0
0
LINE
8
FRONT
10
0.900000
20
0.470142
30
0.0
11
1.000000
21
0.463998
31
0.0
0
LINE
8
FRONT
10
1.000000
20
0.463998
30
0.0
11
1.100000
21
0.457854
31
0.0
0
LINE
8
FRONT
10
1.100000
20
0.457854
30
0.0
11
1.200000
21
0.451711
31
0.0
0
LINE
8
FRONT
10
1.200000
20
0.451711
30
0.0
11
1.300000
21
0.445567
31
0.0
0
LINE
8
FRONT
10
1.300000
20
0.445567
30
0.0
11
1.400000
21
0.439424
31
0.0
0
LINE
8
FRONT
10
1.400000
20
0.439424
30
0.0
11
1.500000
21
0.433280
31
0.0
0
LINE
8
FRONT
10
1.500000
20
0.433280
30
0.0
11
1.600000
21
0.427136
31
0.0
0
LINE
8
FRONT
10
1.600000
20
0.427136
30
0.0
11
1.700000
21
0.420993
31
0.0
0
LINE
8
FRONT
10
1.700000
20
0.420993
30
0.0
11
1.800000
21
0.414849
31
0.0
0
LINE
8
FRONT
10
1.800000
20
0.414849
30
0.0
11
1.900000
21
0.408706
31
0.0
0
LINE
8
FRONT
10
1.900000
20
0.408706
30
0.0
11
2.000000
21
0.402562
31
0.0
0
LINE
8
FRONT
10
2.000000
20
0.402562
30
0.0
11
2.100000
21
0.396418
31
0.0
0
LINE
8
FRONT
10
2.100000
20
0.396418
30
0.0
11
2.200000
21
0.390275
31
0.0
0
LINE
8
FRONT
10
2.200000
20
0.390275
30
0.0
11
2.300000
21
0.384131
31
0.0
0
LINE
8
FRONT
10
2.300000
20
0.384131
30
0.0
11
2.400000
21
0.377987
31
0.0
0
LINE
8
FRONT
10
2.400000
20
0.377987
30
0.0
11
2.500000
21
0.371844
31
0.0
0
LINE
8
FRONT
10
2.500000
20
0.371844
30
0.0
11
2.600000
21
0.365700
31
0.0
0
LINE
8
FRONT
10
2.600000
20
0.365700
30
0.0
11
2.700000
21
0.359557
31
0.0
0
LINE
8
FRONT
10
2.700000
20
0.359557
30
0.0
11
2.800000
21
0.353413
31
0.0
0
LINE
8
FRONT
10
2.800000
20
0.353413
30
0.0
11
2.900000
21
0.347269
31
0.0
0
LINE
8
FRONT
10
2.900000
20
0.347269
30
0.0
11
3.000000
21
0.341126
31
0.0
0
LINE
8
FRONT
10
3.000000
20
0.341126
30
0.0
11
3.100000
21
0.334982
31
0.0
0
LINE
8
FRONT
10
3.100000
20
0.334982
30
0.0
11
3.200000
21
0.328839
31
0.0
0
LINE
8
FRONT
10
3.200000
20
0.328839
30
0.0
11
3.300000
21
0.322695
31
0.0
0
LINE
8
FRONT
10
3.300000
20
0.322695
30
0.0
11
3.400000
21
0.316551
31
0.0
0
LINE
8
FRONT
10
3.400000
20
0.316551
30
0.0
11
3.500000
21
0.310408
31
0.0
0
LINE
8
FRONT
10
3.500000
20
0.310408
30
0.0
11
3.600000
21
0.304264
31
0.0
0
LINE
8
FRONT
10
3.600000
20
0.304264
30
0.0
11
3.700000
21
0.298120
31
0.0
0
LINE
8
FRONT
10
3.700000
20
0.298120
30
0.0
11
3.800000
21
0.291977
31
0.0
0
LINE
8
FRONT
10
3.800000
20
0.291977
30
0.0
11
3.900000
21
0.285833
31
0.0
0
LINE
8
FRONT
10
3.900000
20
0.285833
30
0.0
11
4.000000
21
0.279690
31
0.0
0
LINE
8
FRONT
10
4.000000
20
0.279690
30
0.0
11
4.100000
21
0.279324
31
0.0
0
LINE
8
FRONT
10
4.100000
20
0.279324
30
0.0
11
4.200000
21
0.278958
31
0.0
0
LINE
8
FRONT
10
4.200000
20
0.278958
30
0.0
11
4.300000
21
0.278592
31
0.0
0
LINE
8
FRONT
10
4.300000
20
0.278592
30
0.0
11
4.400000
21
0.278226
31
0.0
0
LINE
8
FRONT
10
4.400000
20
0.278226
30
0.0
11
4.500000
21
0.277861
31
0.0
0
LINE
8
FRONT
10
4.500000
20
0.277861
30
0.0
11
4.600000
21
0.277495
31
0.0
0
LINE
8
FRONT
10
4.600000
20
0.277495
30
0.0
11
4.700000
21
0.277129
31
0.0
0
LINE
8
FRONT
10
4.700000
20
0.277129
30
0.0
11
4.800000
21
0.276763
31
0.0
0
LINE
8
FRONT
10
4.800000
20
0.276763
30
0.0
11
4.900000
21
0.276398
31
0.0
0
LINE
8
FRONT
10
4.900000
20
0.276398
30
0.0
11
5.000000
21
0.276032
31
0.0
0
LINE
8
FRONT
10
5.000000
20
0.276032
30
0.0
11
5.100000
21
0.275666
31
0.0
0
LINE
8
FRONT
10
5.100000
20
0.275666
30
0.0
11
5.200000
21
0.275300
31
0.0
0
LINE
8
FRONT
10
5.200000
20
0.275300
30
0.0
11
5.300000
21
0.274934
31
0.0
0
LINE
8
FRONT
10
5.300000
20
0.274934
30
0.0
11
5.400000
21
0.274569
31
0.0
0
LINE
8
FRONT
10
5.400000
20
0.274569
30
0.0
11
5.500000
21
0.274203
31
0.0
0
LINE
8
FRONT
10
5.500000
20
0.274203
30
0.0
11
5.600000
21
0.273837
31
0.0
0
LINE
8
FRONT
10
5.600000
20
0.273837
30
0.0
11
5.700000
21
0.273471
31
0.0
0
LINE
8
FRONT
10
5.700000
20
0.273471
30
0.0
11
5.800000
21
0.273106
31
0.0
0
LINE
8
FRONT
10
5.800000
20
0.273106
30
0.0
11
5.900000
21
0.272740
31
0.0
0
LINE
8
FRONT
10
5.900000
20
0.272740
30
0.0
11
6.000000
21
0.272374
31
0.0
0
LINE
8
FRONT
10
6.000000
20
0.272374
30
0.0
11
6.100000
21
0.272008
31
0.0
0
LINE
8
FRONT
10
6.100000
20
0.272008
30
0.0
11
6.200000
21
0.271642
31
0.0
0
LINE
8
FRONT
10
6.200000
20
0.271642
30
0.0
11
6.300000
21
0.271277
31
0.0
0
LINE
8
FRONT
10
6.300000
20
0.271277
30
0.0
11
6.400000
21
0.270911
31
0.0
0
LINE
8
FRONT
10
6.400000
20
0.270911
30
0.0
11
6.500000
21
0.270545
31
0.0
0
LINE
8
FRONT
10
6.500000
20
0.270545
30
0.0
11
6.600000
21
0.270179
31
0.0
0
LINE
8
FRONT
10
6.600000
20
0.270179
30
0.0
11
6.700000
21
0.269814
31
0.0
0
LINE
8
FRONT
10
6.700000
20
0.269814
30
0.0
11
6.800000
21
0.269448
31
0.0
0
LINE
8
FRONT
10
6.800000
20
0.269448
30
0.0
11
6.900000
21
0.269082
31
0.0
0
LINE
8
FRONT
10
6.900000
20
0.269082
30
0.0
11
7.000000
21
0.268716
31
0.0
0
LINE
8
FRONT
10
7.000000
20
0.268716
30
0.0
11
7.100000
21
0.268350
31
0.0
0
LINE
8
FRONT
10
7.100000
20
0.268350
30
0.0
11
7.200000
21
0.267985
31
0.0
0
LINE
8
FRONT
10
7.200000
20
0.267985
30
0.0
11
7.300000
21
0.267619
31
0.0
0
LINE
8
FRONT
10
7.300000
20
0.267619
30
0.0
11
7.400000
21
0.267253
31
0.0
0
LINE
8
FRONT
10
7.400000
20
0.267253
30
0.0
11
7.500000
21
0.266887
31
0.0
0
LINE
8
FRONT
10
7.500000
20
0.266887
30
0.0
11
7.600000
21
0.266522
31
0.0
0
LINE
8
FRONT
10
7.600000
20
0.266522
30
0.0
11
7.700000
21
0.266156
31
0.0
0
LINE
8
FRONT
10
7.700000
20
0.266156
30
0.0
11
7.800000
21
0.265790
31
0.0
0
LINE
8
FRONT
10
7.800000
20
0.265790
30
0.0
11
7.900000
21
0.265424
31
0.0
0
LINE
8
FRONT
10
7.900000
20
0.265424
30
0.0
11
8.000000
21
0.265058
31
0.0
0
LINE
8
FRONT
10
0.000000
20
-0.525434
30
0.0
11
0.100000
21
-0.519291
31
0.0
0
LINE
8
FRONT
10
0.100000
20
-0.519291
30
0.0
11
0.200000
21
-0.513147
31
0.0
0
LINE
8
FRONT
10
0.200000
20
-0.513147
30
0.0
11
0.300000
21
-0.507003
31
0.0
0
LINE
8
FRONT
10
0.300000
20
-0.507003
30
0.0
11
0.400000
21
-0.500860
31
0.0
0
LINE
8
FRONT
10
0.400000
20
-0.500860
30
0.0
11
0.500000
21
-0.494716
31
0.0
0
LINE
8
FRONT
10
0.500000
20
-0.494716
30
0.0
11
0.600000
21
-0.488573
31
0.0
0
LINE
8
FRONT
10
0.600000
20
-0.488573
30
0.0
11
0.700000
21
-0.482429
31
0.0
0
LINE
8
FRONT
10
0.700000
20
-0.482429
30
0.0
11
0.800000
21
-0.476285
31
0.0
0
LINE
8
FRONT
10
0.800000
20
-0.476285
30
0.0
11
0.900000
21
-0.470142
31
0.0
0
LINE
8
FRONT
10
0.900000
20
-0.470142
30
0.0
11
1.000000
21
-0.463998
31
0.0
0
LINE
8
FRONT
10
1.000000
20
-0.463998
30
0.0
11
1.100000
21
-0.457854
31
0.0
0
LINE
8
FRONT
10
1.100000
20
-0.457854
30
0.0
11
1.200000
21
-0.451711
31
0.0
0
LINE
8
FRONT
10
1.200000
20
-0.451711
30
0.0
11
1.300000
21
-0.445567
31
0.0
0
LINE
8
FRONT
10
1.300000
20
-0.445567
30
0.0
11
1.400000
21
-0.439424
31
0.0
0
LINE
8
FRONT
10
1.400000
20
-0.439424
30
0.0
11
1.500000
21
-0.433280
31
0.0
0
LINE
8
FRONT
10
1.500000
20
-0.433280
30
0.0
11
1.600000
21
-0.427136
31
0.0
0
LINE
8
FRONT
10
1.600000
20
-0.427136
30
0.0
11
1.700000
21
-0.420993
31
0.0
0
LINE
8
FRONT
10
1.700000
20
-0.420993
30
0.0
11
1.800000
21
-0.414849
31
0.0
0
LINE
8
FRONT
10
1.800000
20
-0.414849
30
0.0
11
1.900000
21
-0.408706
31
0.0
0
LINE
8
FRONT
10
1.900000
20
-0.408706
30
0.0
11
2.000000
21
-0.402562
31
0.0
0
LINE
8
FRONT
10
2.000000
20
-0.402562
30
0.0
11
2.100000
21
-0.396418
31
0.0
0
LINE
8
FRONT
10
2.100000
20
-0.396418
30
0.0
11
2.200000
21
-0.390275
31
0.0
0
LINE
8
FRONT
10
2.200000
20
-0.390275
30
0.0
11
2.300000
21
-0.384131
31
0.0
0
LINE
8
FRONT
10
2.300000
20
-0.384131
30
0.0
11
2.400000
21
-0.377987
31
0.0
0
LINE
8
FRONT
10
2.400000
20
-0.377987
30
0.0
11
2.500000
21
-0.371844
31
0.0
0
LINE
8
FRONT
10
2.500000
20
-0.371844
30
0.0
11
2.600000
21
-0.365700
31
0.0
0
LINE
8
FRONT
10
2.600000
20
-0.365700
30
0.0
11
2.700000
21
-0.359557
31
0.0
0
LINE
8
FRONT
10
2.700000
20
-0.359557
30
0.0
11
2.800000
21
-0.353413
31
0.0
0
LINE
8
FRONT
10
2.800000
20
-0.353413
30
0.0
11
2.900000
21
-0.347269
31
0.0
0
LINE
8
FRONT
10
2.900000
20
-0.347269
30
0.0
11
3.000000
21
-0.341126
31
0.0
0
LINE
8
FRONT
10
3.000000
20
-0.341126
30
0.0
11
3.100000
21
-0.334982
31
0.0
0
LINE
8
FRONT
10
3.100000
20
-0.334982
30
0.0
11
3.200000
21
-0.328839
31
0.0
0
LINE
8
FRONT
10
3.200000
20
-0.328839
30
0.0
11
3.300000
21
-0.322695
31
0.0
0
LINE
8
FRONT
10
3.300000
20
-0.322695
30
0.0
11
3.400000
21
-0.316551
31
0.0
0
LINE
8
FRONT
10
3.400000
20
-0.316551
30
0.0
11
3.500000
21
-0.310408
31
0.0
0
LINE
8
FRONT
10
3.500000
20
-0.310408
30
0.0
11
3.600000
21
-0.304264
31
0.0
0
LINE
8
FRONT
10
3.600000
20
-0.304264
30
0.0
11
3.700000
21
-0.298120
31
0.0
0
LINE
8
FRONT
10
3.700000
20
-0.298120
30
0.0
11
3.800000
21
-0.291977
31
0.0
0
LINE
8
FRONT
10
3.800000
20
-0.291977
30
0.0
11
3.900000
21
-0.285833
31
0.0
0
LINE
8
FRONT
10
3.900000
20
-0.285833
30
0.0
11
4.000000
21
-0.279690
31
0.0
0
LINE
8
FRONT
10
4.000000
20
-0.279690
30
0.0
11
4.100000
21
-0.279324
31
0.0
0
LINE
8
FRONT
10
4.100000
20
-0.279324
30
0.0
11
4.200000
21
-0.278958
31
0.0
0
LINE
8
FRONT
10
4.200000
20
-0.278958
30
0.0
11
4.300000
21
-0.278592
31
0.0
0
LINE
8
FRONT
10
4.300000
20
-0.278592
30
0.0
11
4.400000
21
-0.278226
31
0.0
0
LINE
8
FRONT
10
4.400000
20
-0.278226
30
0.0
11
4.500000
21
-0.277861
31
0.0
0
LINE
8
FRONT
10
4.500000
20
-0.277861
30
0.0
11
4.600000
21
-0.277495
31
0.0
0
LINE
8
FRONT
10
4.600000
20
-0.277495
30
0.0
11
4.700000
21
-0.277129
31
0.0
0
LINE
8
FRONT
10
4.700000
20
-0.277129
30
0.0
11
4.800000
21
-0.276763
31
0.0
0
LINE
8
FRONT
10
4.800000
20
-0.276763
30
0.0
11
4.900000
21
-0.276398
31
0.0
0
LINE
8
FRONT
10
4.900000
20
-0.276398
30
0.0
11
5.000000
21
-0.276032
31
0.0
0
LINE
8
FRONT
10
5.000000
20
-0.276032
30
0.0
11
5.100000
21
-0.275666
31
0.0
0
LINE
8
FRONT
10
5.100000
20
-0.275666
30
0.0
11
5.200000
21
-0.275300
31
0.0
0
LINE
8
FRONT
10
5.200000
20
-0.275300
30
0.0
11
5.300000
21
-0.274934
31
0.0
0
LINE
8
FRONT
10
5.300000
20
-0.274934
30
0.0
11
5.400000
21
-0.274569
31
0.0
0
LINE
8
FRONT
10
5.400000
20
-0.274569
30
0.0
11
5.500000
21
-0.274203
31
0.0
0
LINE
8
FRONT
10
5.500000
20
-0.274203
30
0.0
11
5.600000
21
-0.273837
31
0.0
0
LINE
8
FRONT
10
5.600000
20
-0.273837
30
0.0
11
5.700000
21
-0.273471
31
0.0
0
LINE
8
FRONT
10
5.700000
20
-0.273471
30
0.0
11
5.800000
21
-0.273106
31
0.0
0
LINE
8
FRONT
10
5.800000
20
-0.273106
30
0.0
11
5.900000
21
-0.272740
31
0.0
0
LINE
8
FRONT
10
5.900000
20
-0.272740
30
0.0
11
6.000000
21
-0.272374
31
0.0
0
LINE
8
FRONT
10
6.000000
20
-0.272374
30
0.0
11
6.100000
21
-0.272008
31
0.0
0
LINE
8
FRONT
10
6.100000
20
-0.272008
30
0.0
11
6.200000
21
-0.271642
31
0.0
0
LINE
8
FRONT
10
6.200000
20
-0.271642
30
0.0
11
6.300000
21
-0.271277
31
0.0
0
LINE
8
FRONT
10
6.300000
20
-0.271277
30
0.0
11
6.400000
21
-0.270911
31
0.0
0
LINE
8
FRONT
10
6.400000
20
-0.270911
30
0.0
11
6.500000
21
-0.270545
31
0.0
0
LINE
8
FRONT
10
6.500000
20
-0.270545
30
0.0
11
6.600000
21
-0.270179
31
0.0
0
LINE
8
FRONT
10
6.600000
20
-0.270179
30
0.0
11
6.700000
21
-0.269814
31
0.0
0
LINE
8
FRONT
10
6.700000
20
-0.269814
30
0.0
11
6.800000
21
-0.269448
31
0.0
0
LINE
8
FRONT
10
6.800000
20
-0.269448
30
0.0
11
6.900000
21
-0.269082
31
0.0
0
LINE
8
FRONT
10
6.900000
20
-0.269082
30
0.0
11
7.000000
21
-0.268716
31
0.0
0
LINE
8
FRONT
10
7.000000
20
-0.268716
30
0.0
11
7.100000
21
-0.268350
31
0.0
0
LINE
8
FRONT
10
7.100000
20
-0.268350
30
0.0
11
7.200000
21
-0.267985
31
0.0
0
LINE
8
FRONT
10
7.200000
20
-0.267985
30
0.0
11
7.300000
21
-0.267619
31
0.0
0
LINE
8
FRONT
10
7.300000
20
-0.267619
30
0.0
11
7.400000
21
-0.267253
31
0.0
0
LINE
8
FRONT
10
7.400000
20
-0.267253
30
0.0
11
7.500000
21
-0.266887
31
0.0
0
LINE
8
FRONT
10
7.500000
20
-0.266887
30
0.0
11
7.600000
21
-0.266522
31
0.0
0
LINE
8
FRONT
10
7.600000
20
-0.266522
30
0.0
11
7.700000
21
-0.266156
31
0.0
0
LINE
8
FRONT
10
7.700000
20
-0.266156
30
0.0
11
7.800000
21
-0.265790
31
0.0
0
LINE
8
FRONT
10
7.800000
20
-0.265790
30
0.0
11
7.900000
21
-0.265424
31
0.0
0
LINE
8
FRONT
10
7.900000
20
-0.265424
30
0.0
11
8.000000
21
-0.265058
31
0.0
0
LINE
8
FRONT
10
0.000000
20
0.525434
30
0.0
11
0.000000
21
-0.525434
31
0.0
0
LINE
8
FRONT
10
8.000000
20
0.265058
30
0.0
11
8.000000
21
-0.265058
31
0.0
0
LINE
8
TOP
10
0.000000
20
2.549224
30
0.0
11
0.100000
21
2.548028
31
0.0
0
LINE
8
TOP
10
0.100000
20
2.548028
30
0.0
11
0.200000
21
2.546833
31
0.0
0
LINE
8
TOP
10
0.200000
20
2.546833
30
0.0
11
0.300000
21
2.545638
31
0.0
0
LINE
8
TOP
10
0.300000
20
2.545638
30
0.0
11
0.400000
21
2.544443
31
0.0
0
LINE
8
TOP
10
0.400000
20
2.544443
30
0.0
11
0.500000
21
2.543248
31
0.0
0
LINE
8
TOP
10
0.500000
20
2.543248
30
0.0
11
0.600000
21
2.542053
31
0.0
0
LINE
8
TOP
10
0.600000
20
2.542053
30
0.0
11
0.700000
21
2.540858
31
0.0
0
LINE
8
TOP
10
0.700000
20
2.540858
30
0.0
11
0.800000
21
2.539663
31
0.0
0
LINE
8
TOP
10
0.800000
20
2.539663
30
0.0
11
0.900000
21
2.538468
31
0.0
0
LINE
8
TOP
10
0.900000
20
2.538468
30
0.0
11
1.000000
21
2.537273
31
0.0
0
LINE
8
TOP
10
1.000000
20
2.537273
30
0.0
11
1.100000
21
2.536078
31
0.0
0
LINE
8
TOP
10
1.100000
20
2.536078
30
0.0
11
1.200000
21
2.534883
31
0.0
0
LINE
8
TOP
10
1.200000
20
2.534883
30
0.0
11
1.300000
21
2.533688
31
0.0
0
LINE
8
TOP
10
1.300000
20
2.533688
30
0.0
11
1.400000
21
2.532493
31
0.0
0
LINE
8
TOP
10
1.400000
20
2.532493
30
0.0
11
1.500000
21
2.531297
31
0.0
0
LINE
8
TOP
10
1.500000
20
2.531297
30
0.0
11
1.600000
21
2.530102
31
0.0
0
LINE
8
TOP
10
1.600000
20
2.530102
30
0.0
11
1.700000
21
2.528907
31
0.0
0
LINE
8
TOP
10
1.700000
20
2.528907
30
0.0
11
1.800000
21
2.527712
31
0.0
0
LINE
8
TOP
10
1.800000
20
2.527712
30
0.0
11
1.900000
21
2.526517
31
0.0
0
LINE
8
TOP
10
1.900000
20
2.526517
30
0.0
11
2.000000
21
2.525322
31
0.0
0
LINE
8
TOP
10
2.000000
20
2.525322
30
0.0
11
2.100000
21
2.524127
31
0.0
0
LINE
8
TOP
10
2.100000
20
2.524127
30
0.0
11
2.200000
21
2.522932
31
0.0
0
LINE
8
TOP
10
2.200000
20
2.522932
30
0.0
11
2.300000
21
2.521737
31
0.0
0
LINE
8
TOP
10
2.300000
20
2.521737
30
0.0
11
2.400000
21
2.520542
31
0.0
0
LINE
8
TOP
10
2.400000
20
2.520542
30
0.0
11
2.500000
21
2.519347
31
0.0
0
LINE
8
TOP
10
2.500000
20
2.519347
30
0.0
11
2.600000
21
2.518152
31
0.0
0
LINE
8
TOP
10
2.600000
20
2.518152
30
0.0
11
2.700000
21
2.516957
31
0.0
0
LINE
8
TOP
10
2.700000
20
2.516957
30
0.0
11
2.800000
21
2.515761
31
0.0
0
LINE
8
TOP
10
2.800000
20
2.515761
30
0.0
11
2.900000
21
2.514566
31
0.0
0
LINE
8
TOP
10
2.900000
20
2.514566
30
0.0
11
3.000000
21
2.513371
31
0.0
0
LINE
8
TOP
10
3.000000
20
2.513371
30
0.0
11
3.100000
21
2.512176
31
0.0
0
LINE
8
TOP
10
3.100000
20
2.512176
30
0.0
11
3.200000
21
2.510981
31
0.0
0
LINE
8
TOP
10
3.200000
20
2.510981
30
0.0
11
3.300000
21
2.509786
31
0.0
0
LINE
8
TOP
10
3.300000
20
2.509786
30
0.0
11
3.400000
21
2.508591
31
0.0
0
LINE
8
TOP
10
3.400000
20
2.508591
30
0.0
11
3.500000
21
2.507396
31
0.0
0
LINE
8
TOP
10
3.500000
20
2.507396
30
0.0
11
3.600000
21
2.506201
31
0.0
0
LINE
8
TOP
10
3.600000
20
2.506201
30
0.0
11
3.700000
21
2.505006
31
0.0
0
LINE
8
TOP
10
3.700000
20
2.505006
30
0.0
11
3.800000
21
2.503811
31
0.0
0
LINE
8
TOP
10
3.800000
20
2.503811
30
0.0
11
3.900000
21
2.502616
31
0.0
0
LINE
8
TOP
10
3.900000
20
2.502616
30
0.0
11
4.000000
21
2.501421
31
0.0
0
LINE
8
TOP
10
4.000000
20
2.501421
30
0.0
11
4.100000
21
2.504198
31
0.0
0
LINE
8
TOP
10
4.100000
20
2.504198
30
0.0
11
4.200000
21
2.506975
31
0.0
0
LINE
8
TOP
10
4.200000
20
2.506975
30
0.0
11
4.300000
21
2.509752
31
0.0
0
LINE
8
TOP
10
4.300000
20
2.509752
30
0.0
11
4.400000
21
2.512529
31
0.0
0
LINE
8
TOP
10
4.400000
20
2.512529
30
0.0
11
4.500000
21
2.515306
31
0.0
0
LINE
8
TOP
10
4.500000
20
2.515306
30
0.0
11
4.600000
21
2.518084
31
0.0
0
LINE
8
TOP
10
4.600000
20
2.518084
30
0.0
11
4.700000
21
2.520861
31
0.0
0
LINE
8
TOP
10
4.700000
20
2.520861
30
0.0
11
4.800000
21
2.523638
31
0.0
0
LINE
8
TOP
10
4.800000
20
2.523638
30
0.0
11
4.900000
21
2.526415
31
0.0
0
LINE
8
TOP
10
4.900000
20
2.526415
30
0.0
11
5.000000
21
2.529192
31
0.0
0
LINE
8
TOP
10
5.000000
20
2.529192
30
0.0
11
5.100000
21
2.531969
31
0.0
0
LINE
8
TOP
10
5.100000
20
2.531969
30
0.0
11
5.200000
21
2.534747
31
0.0
0
LINE
8
TOP
10
5.200000
20
2.534747
30
0.0
11
5.300000
21
2.537524
31
0.0
0
LINE
8
TOP
10
5.300000
20
2.537524
30
0.0
11
5.400000
21
2.540301
31
0.0
0
LINE
8
TOP
10
5.400000
20
2.540301
30
0.0
11
5.500000
21
2.543078
31
0.0
0
LINE
8
TOP
10
5.500000
20
2.543078
30
0.0
11
5.600000
21
2.545855
31
0.0
0
LINE
8
TOP
10
5.600000
20
2.545855
30
0.0
11
5.700000
21
2.548632
31
0.0
0
LINE
8
TOP
10
5.700000
20
2.548632
30
0.0
11
5.800000
21
2.551410
31
0.0
0
LINE
8
TOP
10
5.800000
20
2.551410
30
0.0
11
5.900000
21
2.554187
31
0.0
0
LINE
8
TOP
10
5.900000
20
2.554187
30
0.0
11
6.000000
21
2.556964
31
0.0
0
LINE
8
TOP
10
6.000000
20
2.556964
30
0.0
11
6.100000
21
2.559741
31
0.0
0
LINE
8
TOP
10
6.100000
20
2.559741
30
0.0
11
6.200000
21
2.562518
31
0.0
0
LINE
8
TOP
10
6.200000
20
2.562518
30
0.0
11
6.300000
21
2.565295
31
0.0
0
LINE
8
TOP
10
6.300000
20
2.565295
30
0.0
11
6.400000
21
2.568073
31
0.0
0
LINE
8
TOP
10
6.400000
20
2.568073
30
0.0
11
6.500000
21
2.570850
31
0.0
0
LINE
8
TOP
10
6.500000
20
2.570850
30
0.0
11
6.600000
21
2.573627
31
0.0
0
LINE
8
TOP
10
6.600000
20
2.573627
30
0.0
11
6.700000
21
2.576404
31
0.0
0
LINE
8
TOP
10
6.700000
20
2.576404
30
0.0
11
6.800000
21
2.579181
31
0.0
0
LINE
8
TOP
10
6.800000
20
2.579181
30
0.0
11
6.900000
21
2.581958
31
0.0
0
LINE
8
TOP
10
6.900000
20
2.581958
30
0.0
11
7.000000
21
2.584736
31
0.0
0
LINE
8
TOP
10
7.000000
20
2.584736
30
0.0
11
7.100000
21
2.587513
31
0.0
0
LINE
8
TOP
10
7.100000
20
2.587513
30
0.0
11
7.200000
21
2.590290
31
0.0
0
LINE
8
TOP
10
7.200000
20
2.590290
30
0.0
11
7.300000
21
2.593067
31
0.0
0
LINE
8
TOP
10
7.300000
20
2.593067
30
0.0
11
7.400000
21
2.595844
31
0.0
0
LINE
8
TOP
10
7.400000
20
2.595844
30
0.0
11
7.500000
21
2.598621
31
0.0
0
LINE
8
TOP
10
7.500000
20
2.598621
30
0.0
11
7.600000
21
2.601399
31
0.0
0
LINE
8
TOP
10
7.600000
20
2.601399
30
0.0
11
7.700000
21
2.604176
31
0.0
0
LINE
8
TOP
10
7.700000
20
2.604176
30
0.0
11
7.800000
21
2.606953
31
0.0
0
LINE
8
TOP
10
7.800000
20
2.606953
30
0.0
11
7.900000
21
2.609730
31
0.0
0
LINE
8
TOP
10
7.900000
20
2.609730
30
0.0
11
8.000000
21
2.612507
31
0.0
0
LINE
8
TOP
10
0.000000
20
2.103382
30
0.0
11
0.100000
21
2.104577
31
0.0
0
LINE
8
TOP
10
0.100000
20
2.104577
30
0.0
11
0.200000
21
2.105772
31
0.0
0
LINE
8
TOP
10
0.200000
20
2.105772
30
0.0
11
0.300000
21
2.106967
31
0.0
0
LINE
8
TOP
10
0.300000
20
2.106967
30
0.0
11
0.400000
21
2.108163
31
0.0
0
LINE
8
TOP
10
0.400000
20
2.108163
30
0.0
11
0.500000
21
2.109358
31
0.0
0
LINE
8
TOP
10
0.500000
20
2.109358
30
0.0
11
0.600000
21
2.110553
31
0.0
0
LINE
8
TOP
10
0.600000
20
2.110553
30
0.0
11
0.700000
21
2.111748
31
0.0
0
LINE
8
TOP
10
0.700000
20
2.111748
30
0.0
11
0.800000
21
2.112943
31
0.0
0
LINE
8
TOP
10
0.800000
20
2.112943
30
0.0
11
0.900000
21
2.114138
31
0.0
0
LINE
8
TOP
10
0.900000
20
2.114138
30
0.0
11
1.000000
21
2.115333
31
0.0
0
LINE
8
TOP
10
1.000000
20
2.115333
30
0.0
11
1.100000
21
2.116528
31
0.0
0
LINE
8
TOP
10
1.100000
20
2.116528
30
0.0
11
1.200000
21
2.117723
31
0.0
0
LINE
8
TOP
10
1.200000
20
2.117723
30
0.0
11
1.300000
21
2.118918
31
0.0
0
LINE
8
TOP
10
1.300000
20
2.118918
30
0.0
11
1.400000
21
2.120113
31
0.0
0
LINE
8
TOP
10
1.400000
20
2.120113
30
0.0
11
1.500000
21
2.121308
31
0.0
0
LINE
8
TOP
10
1.500000
20
2.121308
30
0.0
11
1.600000
21
2.122503
31
0.0
0
LINE
8
TOP
10
1.600000
20
2.122503
30
0.0
11
1.700000
21
2.123698
31
0.0
0
LINE
8
TOP
10
1.700000
20
2.123698
30
0.0
11
1.800000
21
2.124894
31
0.0
0
LINE
8
TOP
10
1.800000
20
2.124894
30
0.0
11
1.900000
21
2.126089
31
0.0
0
LINE
8
TOP
10
1.900000
20
2.126089
30
0.0
11
2.000000
21
2.127284
31
0.0
0
LINE
8
TOP
10
2.000000
20
2.127284
30
0.0
11
2.100000
21
2.128479
31
0.0
0
LINE
8
TOP
10
2.100000
20
2.128479
30
0.0
11
2.200000
21
2.129674
31
0.0
0
LINE
8
TOP
10
2.200000
20
2.129674
30
0.0
11
2.300000
21
2.130869
31
0.0
0
LINE
8
TOP
10
2.300000
20
2.130869
30
0.0
11
2.400000
21
2.132064
31
0.0
0
LINE
8
TOP
10
2.400000
20
2.132064
30
0.0
11
2.500000
21
2.133259
31
0.0
0
LINE
8
TOP
10
2.500000
20
2.133259
30
0.0
11
2.600000
21
2.134454
31
0.0
0
LINE
8
TOP
10
2.600000
20
2.134454
30
0.0
11
2.700000
21
2.135649
31
0.0
0
LINE
8
TOP
10
2.700000
20
2.135649
30
0.0
11
2.800000
21
2.136844
31
0.0
0
LINE
8
TOP
10
2.800000
20
2.136844
30
0.0
11
2.900000
21
2.138039
31
0.0
0
LINE
8
TOP
10
2.900000
20
2.138039
30
0.0
11
3.000000
21
2.139234
31
0.0
0
LINE
8
TOP
10
3.000000
20
2.139234
30
0.0
11
3.100000
21
2.140430
31
0.0
0
LINE
8
TOP
10
3.100000
20
2.140430
30
0.0
11
3.200000
21
2.141625
31
0.0
0
LINE
8
TOP
10
3.200000
20
2.141625
30
0.0
11
3.300000
21
2.142820
31
0.0
0
LINE
8
TOP
10
3.300000
20
2.142820
30
0.0
11
3.400000
21
2.144015
31
0.0
0
LINE
8
TOP
10
3.400000
20
2.144015
30
0.0
11
3.500000
21
2.145210
31
0.0
0
LINE
8
TOP
10
3.500000
20
2.145210
30
0.0
11
3.600000
21
2.146405
31
0.0
0
LINE
8
TOP
10
3.600000
20
2.146405
30
0.0
11
3.700000
21
2.147600
31
0.0
0
LINE
8
TOP
10
3.700000
20
2.147600
30
0.0
11
3.800000
21
2.148795
31
0.0
0
LINE
8
TOP
10
3.800000
20
2.148795
30
0.0
11
3.900000
21
2.149990
31
0.0
0
LINE
8
TOP
10
3.900000
20
2.149990
30
0.0
11
4.000000
21
2.151185
31
0.0
0
LINE
8
TOP
10
4.000000
20
2.151185
30
0.0
11
4.100000
21
2.148408
31
0.0
0
LINE
8
TOP
10
4.100000
20
2.148408
30
0.0
11
4.200000
21
2.145631
31
0.0
0
LINE
8
TOP
10
4.200000
20
2.145631
30
0.0
11
4.300000
21
2.142854
31
0.0
0
LINE
8
TOP
10
4.300000
20
2.142854
30
0.0
11
4.400000
21
2.140077
31
0.0
0
LINE
8
TOP
10
4.400000
20
2.140077
30
0.0
11
4.500000
21
2.137299
31
0.0
0
LINE
8
TOP
10
4.500000
20
2.137299
30
0.0
11
4.600000
21
2.134522
31
0.0
0
LINE
8
TOP
10
4.600000
20
2.134522
30
0.0
11
4.700000
21
2.131745
31
0.0
0
LINE
8
TOP
10
4.700000
20
2.131745
30
0.0
11
4.800000
21
2.128968
31
0.0
0
LINE
8
TOP
10
4.800000
20
2.128968
30
0.0
11
4.900000
21
2.126191
31
0.0
0
LINE
8
TOP
10
4.900000
20
2.126191
30
0.0
11
5.000000
21
2.123414
31
0.0
0
LINE
8
TOP
10
5.000000
20
2.123414
30
0.0
11
5.100000
21
2.120636
31
0.0
0
LINE
8
TOP
10
5.100000
20
2.120636
30
0.0
11
5.200000
21
2.117859
31
0.0
0
LINE
8
TOP
10
5.200000
20
2.117859
30
0.0
11
5.300000
21
2.115082
31
0.0
0
LINE
8
TOP
10
5.300000
20
2.115082
30
0.0
11
5.400000
21
2.112305
31
0.0
0
LINE
8
TOP
10
5.400000
20
2.112305
30
0.0
11
5.500000
21
2.109528
31
0.0
0
LINE
8
TOP
10
5.500000
20
2.109528
30
0.0
11
5.600000
21
2.106751
31
0.0
0
LINE
8
TOP
10
5.600000
20
2.106751
30
0.0
11
5.700000
21
2.103973
31
0.0
0
LINE
8
TOP
10
5.700000
20
2.103973
30
0.0
11
5.800000
21
2.101196
31
0.0
0
LINE
8
TOP
10
5.800000
20
2.101196
30
0.0
11
5.900000
21
2.098419
31
0.0
0
LINE
8
TOP
10
5.900000
20
2.098419
30
0.0
11
6.000000
21
2.095642
31
0.0
0
LINE
8
TOP
10
6.000000
20
2.095642
30
0.0
11
6.100000
21
2.092865
31
0.0
0
LINE
8
TOP
10
6.100000
20
2.092865
30
0.0
11
6.200000
21
2.090088
31
0.0
0
LINE
8
TOP
10
6.200000
20
2.090088
30
0.0
11
6.300000
21
2.087310
31
0.0
0
LINE
8
TOP
10
6.300000
20
2.087310
30
0.0
11
6.400000
21
2.084533
31
0.0
0
LINE
8
TOP
10
6.400000
20
2.084533
30
0.0
11
6.500000
21
2.081756
31
0.0
0
LINE
8
TOP
10
6.500000
20
2.081756
30
0.0
11
6.600000
21
2.078979
31
0.0
0
LINE
8
TOP
10
6.600000
20
2.078979
30
0.0
11
6.700000
21
2.076202
31
0.0
0
LINE
8
TOP
10
6.700000
20
2.076202
30
0.0
11
6.800000
21
2.073425
31
0.0
0
LINE
8
TOP
10
6.800000
20
2.073425
30
0.0
11
6.900000
21
2.070647
31
0.0
0
LINE
8
TOP
10
6.900000
20
2.070647
30
0.0
11
7.000000
21
2.067870
31
0.0
0
LINE
8
TOP
10
7.000000
20
2.067870
30
0.0
11
7.100000
21
2.065093
31
0.0
0
LINE
8
TOP
10
7.100000
20
2.065093
30
0.0
11
7.200000
21
2.062316
31
0.0
0
LINE
8
TOP
10
7.200000
20
2.062316
30
0.0
11
7.300000
21
2.059539
31
0.0
0
LINE
8
TOP
10
7.300000
20
2.059539
30
0.0
11
7.400000
21
2.056762
31
0.0
0
LINE
8
TOP
10
7.400000
20
2.056762
30
0.0
11
7.500000
21
2.053984
31
0.0
0
LINE
8
TOP
10
7.500000
20
2.053984
30
0.0
11
7.600000
21
2.051207
31
0.0
0
LINE
8
TOP
10
7.600000
20
2.051207
30
0.0
11
7.700000
21
2.048430
31
0.0
0
LINE
8
TOP
10
7.700000
20
2.048430
30
0.0
11
7.800000
21
2.045653
31
0.0
0
LINE
8
TOP
10
7.800000
20
2.045653
30
0.0
11
7.900000
21
2.042876
31
0.0
0
LINE
8
TOP
10
7.900000
20
2.042876
30
0.0
11
8.000000
21
2.040099
31
0.0
0
LINE
8
TOP
10
0.000000
20
2.549224
30
0.0
11
0.000000
21
2.103382
31
0.0
0
LINE
8
TOP
10
8.000000
20
2.612507
30
0.0
11
8.000000
21
2.040099
31
0.0
0
LINE
8
SECTION
10
9.324882
20
-0.279690
30
0.0
11
9.675118
21
-0.279690
31
0.0
0
LINE
8
SECTION
10
9.675118
20
-0.279690
30
0.0
11
9.675118
21
0.279690
31
0.0
0
LINE
8
SECTION
10
9.675118
20
0.279690
30
0.0
11
9.324882
21
0.279690
31
0.0
0
LINE
8
SECTION
10
9.324882
20
0.279690
30
0.0
11
9.324882
21
-0.279690
31
0.0
0
LINE
8
SECTION
10
9.384882
20
-0.219690
30
0.0
11
9.615118
21
-0.219690
31
0.0
0
LINE
8
SECTION
10
9.615118
20
-0.219690
30
0.0
11
9.615118
21
0.219690
31
0.0
0
LINE
8
SECTION
10
9.615118
20
0.219690
30
0.0
11
9.384882
21
0.219690
31
0.0
0
LINE
8
SECTION
10
9.384882
20
0.219690
30
0.0
11
9.384882
21
-0.219690
31
0.0
0
LINE
8
SECTION
10
9.384882
20
0.115418
30
0.0
11
9.444882
21
0.115418
31
0.0
0
LINE
8
SECTION
10
9.444882
20
0.115418
30
0.0
11
9.444882
21
0.219690
31
0.0
0
LINE
8
SECTION
10
9.444882
20
0.219690
30
0.0
11
9.384882
21
0.219690
31
0.0
0
LINE
8
SECTION
10
9.384882
20
0.219690
30
0.0
11
9.384882
21
0.115418
31
0.0
0
LINE
8
SECTION
10
9.384882
20
-0.219690
30
0.0
11
9.444882
21
-0.219690
31
0.0
0
LINE
8
SECTION
10
9.444882
20
-0.219690
30
0.0
11
9.444882
21
-0.115418
31
0.0
0
LINE
8
SECTION
10
9.444882
20
-0.115418
30
0.0
11
9.384882
21
-0.115418
31
0.0
0
LINE
8
SECTION
10
9.384882
20
-0.115418
30
0.0
11
9.384882
21
-0.219690
31
0.0
0
LINE
8
SECTION
10
9.555118
20
0.115418
30
0.0
11
9.615118
21
0.115418
31
0.0
0
LINE
8
SECTION
10
9.615118
20
0.115418
30
0.0
11
9.615118
21
0.219690
31
0.0
0
LINE
8
SECTION
10
9.615118
20
0.219690
30
0.0
11
9.555118
21
0.219690
31
0.0
0
LINE
8
SECTION
10
9.555118
20
0.219690
30
0.0
11
9.555118
21
0.115418
31
0.0
0
LINE
8
SECTION
10
9.555118
20
-0.219690
30
0.0
11
9.615118
21
-0.219690
31
0.0
0
LINE
8
SECTION
10
9.615118
20
-0.219690
30
0.0
11
9.615118
21
-0.115418
31
0.0
0
LINE
8
SECTION
10
9.615118
20
-0.115418
30
0.0
11
9.555118
21
-0.115418
31
0.0
0
LINE
8
SECTION
10
9.555118
20
-0.115418
30
0.0
11
9.555118
21
-0.219690
31
0.0
0
ENDSEC
0
EOF
