0
SECTION
2
HEADER
9
$INSUNITS
70
1
0
ENDSEC
0
SECTION
2
ENTITIES
0
LINE
8
FRONT
10
0.000000
20
0.196012
30
0.0
11
0.100000
21
0.195487
31
0.0
0
LINE
8
FRONT
10
0.100000
20
0.195487
30
0.0
11
0.200000
21
0.194962
31
0.0
0
LINE
8
FRONT
10
0.200000
20
0.194962
30
0.0
11
0.300000
21
0.194436
31
0.0
0
LINE
8
FRONT
10
0.300000
20
0.194436
30
0.0
11
0.400000
21
0.193911
31
0.0
0
LINE
8
FRONT
10
0.400000
20
0.193911
30
0.0
11
0.500000
21
0.193386
31
0.0
0
LINE
8
FRONT
10
0.500000
20
0.193386
30
0.0
11
0.600000
21
0.192861
31
0.0
0
LINE
8
FRONT
10
0.600000
20
0.192861
30
0.0
11
0.700000
21
0.192335
31
0.0
0
LINE
8
FRONT
10
0.700000
20
0.192335
30
0.0
11
0.800000
21
0.191810
31
0.0
0
LINE
8
FRONT
10
0.800000
20
0.191810
30
0.0
11
0.900000
21
0.191285
31
0.0
0
LINE
8
FRONT
10
0.900000
20
0.191285
30
0.0
11
1.000000
21
0.190759
31
0.0
0
LINE
8
FRONT
10
1.000000
20
0.190759
30
0.0
11
1.100000
21
0.190234
31
0.0
0
LINE
8
FRONT
10
1.100000
20
0.190234
30
0.0
11
1.200000
21
0.189709
31
0.0
0
LINE
8
FRONT
10
1.200000
20
0.189709
30
0.0
11
1.300000
21
0.189183
31
0.0
0
LINE
8
FRONT
10
1.300000
20
0.189183
30
0.0
11
1.400000
21
0.188658
31
0.0
0
LINE
8
FRONT
10
1.400000
20
0.188658
30
0.0
11
1.500000
21
0.188133
31
0.0
0
LINE
8
FRONT
10
1.500000
20
0.188133
30
0.0
11
1.600000
21
0.187607
31
0.0
0
LINE
8
FRONT
10
1.600000
20
0.187607
30
0.0
11
1.700000
21
0.187082
31
0.0
0
LINE
8
FRONT
10
1.700000
20
0.187082
30
0.0
11
1.800000
21
0.186557
31
0.0
0
LINE
8
FRONT
10
1.800000
20
0.186557
30
0.0
11
1.900000
21
0.186032
31
0.0
0
LINE
8
FRONT
10
1.900000
20
0.186032
30
0.0
11
2.000000
21
0.185506
31
0.0
0
LINE
8
FRONT
10
2.000000
20
0.185506
30
0.0
11
2.100000
21
0.184981
31
0.0
0
LINE
8
FRONT
10
2.100000
20
0.184981
30
0.0
11
2.200000
21
0.184456
31
0.0
0
LINE
8
FRONT
10
2.200000
20
0.184456
30
0.0
11
2.300000
21
0.183930
31
0.0
0
LINE
8
FRONT
10
2.300000
20
0.183930
30
0.0
11
2.400000
21
0.183405
31
0.0
0
LINE
8
FRONT
10
2.400000
20
0.183405
30
0.0
11
2.500000
21
0.182880
31
0.0
0
LINE
8
FRONT
10
2.500000
20
0.182880
30
0.0
11
2.600000
21
0.182354
31
0.0
0
LINE
8
FRONT
10
2.600000
20
0.182354
30
0.0
11
2.700000
21
0.181829
31
0.0
0
LINE
8
FRONT
10
2.700000
20
0.181829
30
0.0
11
2.800000
21
0.181304
31
0.0
0
LINE
8
FRONT
10
2.800000
20
0.181304
30
0.0
11
2.900000
21
0.180778
31
0.0
0
LINE
8
FRONT
10
2.900000
20
0.180778
30
0.0
11
3.000000
21
0.180253
31
0.0
0
LINE
8
FRONT
10
3.000000
20
0.180253
30
0.0
11
3.100000
21
0.179728
31
0.0
0
LINE
8
FRONT
10
3.100000
20
0.179728
30
0.0
11
3.200000
21
0.179202
31
0.0
0
LINE
8
FRONT
10
3.200000
20
0.179202
30
0.0
11
3.300000
21
0.178677
31
0.0
0
LINE
8
FRONT
10
3.300000
20
0.178677
30
0.0
11
3.400000
21
0.178152
31
0.0
0
LINE
8
FRONT
10
3.400000
20
0.178152
30
0.0
11
3.500000
21
0.177627
31
0.0
0
LINE
8
FRONT
10
3.500000
20
0.177627
30
0.0
11
3.600000
21
0.177101
31
0.0
0
LINE
8
FRONT
10
3.600000
20
0.177101
30
0.0
11
3.700000
21
0.176576
31
0.0
0
LINE
8
FRONT
10
3.700000
20
0.176576
30
0.0
11
3.800000
21
0.176051
31
0.0
0
LINE
8
FRONT
10
3.800000
20
0.176051
30
0.0
11
3.900000
21
0.175525
31
0.0
0
LINE
8
FRONT
10
3.900000
20
0.175525
30
0.0
11
4.000000
21
0.175000
31
0.0
0
LINE
8
FRONT
10
4.000000
20
0.175000
30
0.0
11
4.100000
21
0.175525
31
0.0
0
LINE
8
FRONT
10
4.100000
20
0.175525
30
0.0
11
4.200000
21
0.176051
31
0.0
0
LINE
8
FRONT
10
4.200000
20
0.176051
30
0.0
11
4.300000
21
0.176576
31
0.0
0
LINE
8
FRONT
10
4.300000
20
0.176576
30
0.0
11
4.400000
21
0.177101
31
0.0
0
LINE
8
FRONT
10
4.400000
20
0.177101
30
0.0
11
4.500000
21
0.177627
31
0.0
0
LINE
8
FRONT
10
4.500000
20
0.177627
30
0.0
11
4.600000
21
0.178152
31
0.0
0
LINE
8
FRONT
10
4.600000
20
0.178152
30
0.0
11
4.700000
21
0.178677
31
0.0
0
LINE
8
FRONT
10
4.700000
20
0.178677
30
0.0
11
4.800000
21
0.179202
31
0.0
0
LINE
8
FRONT
10
4.800000
20
0.179202
30
0.0
11
4.900000
21
0.179728
31
0.0
0
LINE
8
FRONT
10
4.900000
20
0.179728
30
0.0
11
5.000000
21
0.180253
31
0.0
0
LINE
8
FRONT
10
5.000000
20
0.180253
30
0.0
11
5.100000
21
0.180778
31
0.0
0
LINE
8
FRONT
10
5.100000
20
0.180778
30
0.0
11
5.200000
21
0.181304
31
0.0
0
LINE
8
FRONT
10
5.200000
20
0.181304
30
0.0
11
5.300000
21
0.181829
31
0.0
0
LINE
8
FRONT
10
5.300000
20
0.181829
30
0.0
11
5.400000
21
0.182354
31
0.0
0
LINE
8
FRONT
10
5.400000
20
0.182354
30
0.0
11
5.500000
21
0.182880
31
0.0
0
LINE
8
FRONT
10
5.500000
20
0.182880
30
0.0
11
5.600000
21
0.183405
31
0.0
0
LINE
8
FRONT
10
5.600000
20
0.183405
30
0.0
11
5.700000
21
0.183930
31
0.0
0
LINE
8
FRONT
10
5.700000
20
0.183930
30
0.0
11
5.800000
21
0.184456
31
0.0
0
LINE
8
FRONT
10
5.800000
20
0.184456
30
0.0
11
5.900000
21
0.184981
31
0.0
0
LINE
8
FRONT
10
5.900000
20
0.184981
30
0.0
11
6.000000
21
0.185506
31
0.0
0
LINE
8
FRONT
10
6.000000
20
0.185506
30
0.0
11
6.100000
21
0.186032
31
0.0
0
LINE
8
FRONT
10
6.100000
20
0.186032
30
0.0
11
6.200000
21
0.186557
31
0.0
0
LINE
8
FRONT
10
6.200000
20
0.186557
30
0.0
11
6.300000
21
0.187082
31
0.0
0
LINE
8
FRONT
10
6.300000
20
0.187082
30
0.0
11
6.400000
21
0.187607
31
0.0
0
LINE
8
FRONT
10
6.400000
20
0.187607
30
0.0
11
6.500000
21
0.188133
31
0.0
0
LINE
8
FRONT
10
6.500000
20
0.188133
30
0.0
11
6.600000
21
0.188658
31
0.0
0
LINE
8
FRONT
10
6.600000
20
0.188658
30
0.0
11
6.700000
21
0.189183
31
0.0
0
LINE
8
FRONT
10
6.700000
20
0.189183
30
0.0
11
6.800000
21
0.189709
31
0.0
0
LINE
8
FRONT
10
6.800000
20
0.189709
30
0.0
11
6.900000
21
0.190234
31
0.0
0
LINE
8
FRONT
10
6.900000
20
0.190234
30
0.0
11
7.000000
21
0.190759
31
0.0
0
LINE
8
FRONT
10
7.000000
20
0.190759
30
0.0
11
7.100000
21
0.191285
31
0.0
0
LINE
8
FRONT
10
7.100000
20
0.191285
30
0.0
11
7.200000
21
0.191810
31
0.0
0
LINE
8
FRONT
10
7.200000
20
0.191810
30
0.0
11
7.300000
21
0.192335
31
0.0
0
LINE
8
FRONT
10
7.300000
20
0.192335
30
0.0
11
7.400000
21
0.192861
31
0.0
0
LINE
8
FRONT
10
7.400000
20
0.192861
30
0.0
11
7.500000
21
0.193386
31
0.0
0
LINE
8
FRONT
10
7.500000
20
0.193386
30
0.0
11
7.600000
21
0.193911
31
0.0
0
LINE
8
FRONT
10
7.600000
20
0.193911
30
0.0
11
7.700000
21
0.194436
31
0.0
0
LINE
8
FRONT
10
7.700000
20
0.194436
30
0.0
11
7.800000
21
0.194962
31
0.0
0
LINE
8
FRONT
10
7.800000
20
0.194962
30
0.0
11
7.900000
21
0.195487
31
0.0
0
LINE
8
FRONT
10
7.900000
20
0.195487
30
0.0
11
8.000000
21
0.196012
31
0.0
0
LINE
8
FRONT
10
0.000000
20
-0.196012
30
0.0
11
0.100000
21
-0.195487
31
0.0
0
LINE
8
FRONT
10
0.100000
20
-0.195487
30
0.0
11
0.200000
21
-0.194962
31
0.0
0
LINE
8
FRONT
10
0.200000
20
-0.194962
30
0.0
11
0.300000
21
-0.194436
31
0.0
0
LINE
8
FRONT
10
0.300000
20
-0.194436
30
0.0
11
0.400000
21
-0.193911
31
0.0
0
LINE
8
FRONT
10
0.400000
20
-0.193911
30
0.0
11
0.500000
21
-0.193386
31
0.0
0
LINE
8
FRONT
10
0.500000
20
-0.193386
30
0.0
11
0.600000
21
-0.192861
31
0.0
0
LINE
8
FRONT
10
0.600000
20
-0.192861
30
0.0
11
0.700000
21
-0.192335
31
0.0
0
LINE
8
FRONT
10
0.700000
20
-0.192335
30
0.0
11
0.800000
21
-0.191810
31
0.0
0
LINE
8
FRONT
10
0.800000
20
-0.191810
30
0.0
11
0.900000
21
-0.191285
31
0.0
0
LINE
8
FRONT
10
0.900000
20
-0.191285
30
0.0
11
1.000000
21
-0.190759
31
0.0
0
LINE
8
FRONT
10
1.000000
20
-0.190759
30
0.0
11
1.100000
21
-0.190234
31
0.0
0
LINE
8
FRONT
10
1.100000
20
-0.190234
30
0.0
11
1.200000
21
-0.189709
31
0.0
0
LINE
8
FRONT
10
1.200000
20
-0.189709
30
0.0
11
1.300000
21
-0.189183
31
0.0
0
LINE
8
FRONT
10
1.300000
20
-0.189183
30
0.0
11
1.400000
21
-0.188658
31
0.0
0
LINE
8
FRONT
10
1.400000
20
-0.188658
30
0.0
11
1.500000
21
-0.188133
31
0.0
0
LINE
8
FRONT
10
1.500000
20
-0.188133
30
0.0
11
1.600000
21
-0.187607
31
0.0
0
LINE
8
FRONT
10
1.600000
20
-0.187607
30
0.0
11
1.700000
21
-0.187082
31
0.0
0
LINE
8
FRONT
10
1.700000
20
-0.187082
30
0.0
11
1.800000
21
-0.186557
31
0.0
0
LINE
8
FRONT
10
1.800000
20
-0.186557
30
0.0
11
1.900000
21
-0.186032
31
0.0
0
LINE
8
FRONT
10
1.900000
20
-0.186032
30
0.0
11
2.000000
21
-0.185506
31
0.0
0
LINE
8
FRONT
10
2.000000
20
-0.185506
30
0.0
11
2.100000
21
-0.184981
31
0.0
0
LINE
8
FRONT
10
2.100000
20
-0.184981
30
0.0
11
2.200000
21
-0.184456
31
0.0
0
LINE
8
FRONT
10
2.200000
20
-0.184456
30
0.0
11
2.300000
21
-0.183930
31
0.0
0
LINE
8
FRONT
10
2.300000
20
-0.183930
30
0.0
11
2.400000
21
-0.183405
31
0.0
0
LINE
8
FRONT
10
2.400000
20
-0.183405
30
0.0
11
2.500000
21
-0.182880
31
0.0
0
LINE
8
FRONT
10
2.500000
20
-0.182880
30
0.0
11
2.600000
21
-0.182354
31
0.0
0
LINE
8
FRONT
10
2.600000
20
-0.182354
30
0.0
11
2.700000
21
-0.181829
31
0.0
0
LINE
8
FRONT
10
2.700000
20
-0.181829
30
0.0
11
2.800000
21
-0.181304
31
0.0
0
LINE
8
FRONT
10
2.800000
20
-0.181304
30
0.0
11
2.900000
21
-0.180778
31
0.0
0
LINE
8
FRONT
10
2.900000
20
-0.180778
30
0.0
11
3.000000
21
-0.180253
31
0.0
0
LINE
8
FRONT
10
3.000000
20
-0.180253
30
0.0
11
3.100000
21
-0.179728
31
0.0
0
LINE
8
FRONT
10
3.100000
20
-0.179728
30
0.0
11
3.200000
21
-0.179202
31
0.0
0
LINE
8
FRONT
10
3.200000
20
-0.179202
30
0.0
11
3.300000
21
-0.178677
31
0.0
0
LINE
8
FRONT
10
3.300000
20
-0.178677
30
0.0
11
3.400000
21
-0.178152
31
0.0
0
LINE
8
FRONT
10
3.400000
20
-0.178152
30
0.0
11
3.500000
21
-0.177627
31
0.0
0
LINE
8
FRONT
10
3.500000
20
-0.177627
30
0.0
11
3.600000
21
-0.177101
31
0.0
0
LINE
8
FRONT
10
3.600000
20
-0.177101
30
0.0
11
3.700000
21
-0.176576
31
0.0
0
LINE
8
FRONT
10
3.700000
20
-0.176576
30
0.0
11
3.800000
21
-0.176051
31
0.0
0
LINE
8
FRONT
10
3.800000
20
-0.176051
30
0.0
11
3.900000
21
-0.175525
31
0.0
0
LINE
8
FRONT
10
3.900000
20
-0.175525
30
0.0
11
4.000000
21
-0.175000
31
0.0
0
LINE
8
FRONT
10
4.000000
20
-0.175000
30
0.0
11
4.100000
21
-0.175525
31
0.0
0
LINE
8
FRONT
10
4.100000
20
-0.175525
30
0.0
11
4.200000
21
-0.176051
31
0.0
0
LINE
8
FRONT
10
4.200000
20
-0.176051
30
0.0
11
4.300000
21
-0.176576
31
0.0
0
LINE
8
FRONT
10
4.300000
20
-0.176576
30
0.0
11
4.400000
21
-0.177101
31
0.0
0
LINE
8
FRONT
10
4.400000
20
-0.177101
30
0.0
11
4.500000
21
-0.177627
31
0.0
0
LINE
8
FRONT
10
4.500000
20
-0.177627
30
0.0
11
4.600000
21
-0.178152
31
0.0
0
LINE
8
FRONT
10
4.600000
20
-0.178152
30
0.0
11
4.700000
21
-0.178677
31
0.0
0
LINE
8
FRONT
10
4.700000
20
-0.178677
30
0.0
11
4.800000
21
-0.179202
31
0.0
0
LINE
8
FRONT
10
4.800000
20
-0.179202
30
0.0
11
4.900000
21
-0.179728
31
0.0
0
LINE
8
FRONT
10
4.900000
20
-0.179728
30
0.0
11
5.000000
21
-0.180253
31
0.0
0
LINE
8
FRONT
10
5.000000
20
-0.180253
30
0.0
11
5.100000
21
-0.180778
31
0.0
0
LINE
8
FRONT
10
5.100000
20
-0.180778
30
0.0
11
5.200000
21
-0.181304
31
0.0
0
LINE
8
FRONT
10
5.200000
20
-0.181304
30
0.0
11
5.300000
21
-0.181829
31
0.0
0
LINE
8
FRONT
10
5.300000
20
-0.181829
30
0.0
11
5.400000
21
-0.182354
31
0.0
0
LINE
8
FRONT
10
5.400000
20
-0.182354
30
0.0
11
5.500000
21
-0.182880
31
0.0
0
LINE
8
FRONT
10
5.500000
20
-0.182880
30
0.0
11
5.600000
21
-0.183405
31
0.0
0
LINE
8
FRONT
10
5.600000
20
-0.183405
30
0.0
11
5.700000
21
-0.183930
31
0.0
0
LINE
8
FRONT
10
5.700000
20
-0.183930
30
0.0
11
5.800000
21
-0.184456
31
0.0
0
LINE
8
FRONT
10
5.800000
20
-0.184456
30
0.0
11
5.900000
21
-0.184981
31
0.0
0
LINE
8
FRONT
10
5.900000
20
-0.184981
30
0.0
11
6.000000
21
-0.185506
31
0.0
0
LINE
8
FRONT
10
6.000000
20
-0.185506
30
0.0
11
6.100000
21
-0.186032
31
0.0
0
LINE
8
FRONT
10
6.100000
20
-0.186032
30
0.0
11
6.200000
21
-0.186557
31
0.0
0
LINE
8
FRONT
10
6.200000
20
-0.186557
30
0.0
11
6.300000
21
-0.187082
31
0.0
0
LINE
8
FRONT
10
6.300000
20
-0.187082
30
0.0
11
6.400000
21
-0.187607
31
0.0
0
LINE
8
FRONT
10
6.400000
20
-0.187607
30
0.0
11
6.500000
21
-0.188133
31
0.0
0
LINE
8
FRONT
10
6.500000
20
-0.188133
30
0.0
11
6.600000
21
-0.188658
31
0.0
0
LINE
8
FRONT
10
6.600000
20
-0.188658
30
0.0
11
6.700000
21
-0.189183
31
0.0
0
LINE
8
FRONT
10
6.700000
20
-0.189183
30
0.0
11
6.800000
21
-0.189709
31
0.0
0
LINE
8
FRONT
10
6.800000
20
-0.189709
30
0.0
11
6.900000
21
-0.190234
31
0.0
0
LINE
8
FRONT
10
6.900000
20
-0.190234
30
0.0
11
7.000000
21
-0.190759
31
0.0
0
LINE
8
FRONT
10
7.000000
20
-0.190759
30
0.0
11
7.100000
21
-0.191285
31
0.0
0
LINE
8
FRONT
10
7.100000
20
-0.191285
30
0.0
11
7.200000
21
-0.191810
31
0.0
0
LINE
8
FRONT
10
7.200000
20
-0.191810
30
0.0
11
7.300000
21
-0.192335
31
0.0
0
LINE
8
FRONT
10
7.300000
20
-0.192335
30
0.0
11
7.400000
21
-0.192861
31
0.0
0
LINE
8
FRONT
10
7.400000
20
-0.192861
30
0.0
11
7.500000
21
-0.193386
31
0.0
0
LINE
8
FRONT
10
7.500000
20
-0.193386
30
0.0
11
7.600000
21
-0.193911
31
0.0
0
LINE
8
FRONT
10
7.600000
20
-0.193911
30
0.0
11
7.700000
21
-0.194436
31
0.0
0
LINE
8
FRONT
10
7.700000
20
-0.194436
30
0.0
11
7.800000
21
-0.194962
31
0.0
0
LINE
8
FRONT
10
7.800000
20
-0.194962
30
0.0
11
7.900000
21
-0.195487
31
0.0
0
LINE
8
FRONT
10
7.900000
20
-0.195487
30
0.0
11
8.000000
21
-0.196012
31
0.0
0
LINE
8
FRONT
10
0.000000
20
0.196012
30
0.0
11
0.000000
21
-0.196012
31
0.0
0
LINE
8
FRONT
10
8.000000
20
0.196012
30
0.0
11
8.000000
21
-0.196012
31
0.0
0
LINE
8
TOP
10
0.000000
20
1.611114
30
0.0
11
0.100000
21
1.611217
31
0.0
0
LINE
8
TOP
10
0.100000
20
1.611217
30
0.0
11
0.200000
21
1.611319
31
0.0
0
LINE
8
TOP
10
0.200000
20
1.611319
30
0.0
11
0.300000
21
1.611422
31
0.0
0
LINE
8
TOP
10
0.300000
20
1.611422
30
0.0
11
0.400000
21
1.611525
31
0.0
0
LINE
8
TOP
10
0.400000
20
1.611525
30
0.0
11
0.500000
21
1.611628
31
0.0
0
LINE
8
TOP
10
0.500000
20
1.611628
30
0.0
11
0.600000
21
1.611731
31
0.0
0
LINE
8
TOP
10
0.600000
20
1.611731
30
0.0
11
0.700000
21
1.611833
31
0.0
0
LINE
8
TOP
10
0.700000
20
1.611833
30
0.0
11
0.800000
21
1.611936
31
0.0
0
LINE
8
TOP
10
0.800000
20
1.611936
30
0.0
11
0.900000
21
1.612039
31
0.0
0
LINE
8
TOP
10
0.900000
20
1.612039
30
0.0
11
1.000000
21
1.612142
31
0.0
0
LINE
8
TOP
10
1.000000
20
1.612142
30
0.0
11
1.100000
21
1.612245
31
0.0
0
LINE
8
TOP
10
1.100000
20
1.612245
30
0.0
11
1.200000
21
1.612347
31
0.0
0
LINE
8
TOP
10
1.200000
20
1.612347
30
0.0
11
1.300000
21
1.612450
31
0.0
0
LINE
8
TOP
10
1.300000
20
1.612450
30
0.0
11
1.400000
21
1.612553
31
0.0
0
LINE
8
TOP
10
1.400000
20
1.612553
30
0.0
11
1.500000
21
1.612656
31
0.0
0
LINE
8
TOP
10
1.500000
20
1.612656
30
0.0
11
1.600000
21
1.612758
31
0.0
0
LINE
8
TOP
10
1.600000
20
1.612758
30
0.0
11
1.700000
21
1.612861
31
0.0
0
LINE
8
TOP
10
1.700000
20
1.612861
30
0.0
11
1.800000
21
1.612964
31
0.0
0
LINE
8
TOP
10
1.800000
20
1.612964
30
0.0
11
1.900000
21
1.613067
31
0.0
0
LINE
8
TOP
10
1.900000
20
1.613067
30
0.0
11
2.000000
21
1.613170
31
0.0
0
LINE
8
TOP
10
2.000000
20
1.613170
30
0.0
11
2.100000
21
1.613272
31
0.0
0
LINE
8
TOP
10
2.100000
20
1.613272
30
0.0
11
2.200000
21
1.613375
31
0.0
0
LINE
8
TOP
10
2.200000
20
1.613375
30
0.0
11
2.300000
21
1.613478
31
0.0
0
LINE
8
TOP
10
2.300000
20
1.613478
30
0.0
11
2.400000
21
1.613581
31
0.0
0
LINE
8
TOP
10
2.400000
20
1.613581
30
0.0
11
2.500000
21
1.613684
31
0.0
0
LINE
8
TOP
10
2.500000
20
1.613684
30
0.0
11
2.600000
21
1.613786
31
0.0
0
LINE
8
TOP
10
2.600000
20
1.613786
30
0.0
11
2.700000
21
1.613889
31
0.0
0
LINE
8
TOP
10
2.700000
20
1.613889
30
0.0
11
2.800000
21
1.613992
31
0.0
0
LINE
8
TOP
10
2.800000
20
1.613992
30
0.0
11
2.900000
21
1.614095
31
0.0
0
LINE
8
TOP
10
2.900000
20
1.614095
30
0.0
11
3.000000
21
1.614198
31
0.0
0
LINE
8
TOP
10
3.000000
20
1.614198
30
0.0
11
3.100000
21
1.614300
31
0.0
0
LINE
8
TOP
10
3.100000
20
1.614300
30
0.0
11
3.200000
21
1.614403
31
0.0
0
LINE
8
TOP
10
3.200000
20
1.614403
30
0.0
11
3.300000
21
1.614506
31
0.0
0
LINE
8
TOP
10
3.300000
20
1.614506
30
0.0
11
3.400000
21
1.614609
31
0.0
0
LINE
8
TOP
10
3.400000
20
1.614609
30
0.0
11
3.500000
21
1.614711
31
0.0
0
LINE
8
TOP
10
3.500000
20
1.614711
30
0.0
11
3.600000
21
1.614814
31
0.0
0
LINE
8
TOP
10
3.600000
20
1.614814
30
0.0
11
3.700000
21
1.614917
31
0.0
0
LINE
8
TOP
10
3.700000
20
1.614917
30
0.0
11
3.800000
21
1.615020
31
0.0
0
LINE
8
TOP
10
3.800000
20
1.615020
30
0.0
11
3.900000
21
1.615123
31
0.0
0
LINE
8
TOP
10
3.900000
20
1.615123
30
0.0
11
4.000000
21
1.615225
31
0.0
0
LINE
8
TOP
10
4.000000
20
1.615225
30
0.0
11
4.100000
21
1.615123
31
0.0
0
LINE
8
TOP
10
4.100000
20
1.615123
30
0.0
11
4.200000
21
1.615020
31
0.0
0
LINE
8
TOP
10
4.200000
20
1.615020
30
0.0
11
4.300000
21
1.614917
31
0.0
0
LINE
8
TOP
10
4.300000
20
1.614917
30
0.0
11
4.400000
21
1.614814
31
0.0
0
LINE
8
TOP
10
4.400000
20
1.614814
30
0.0
11
4.500000
21
1.614711
31
0.0
0
LINE
8
TOP
10
4.500000
20
1.614711
30
0.0
11
4.600000
21
1.614609
31
0.0
0
LINE
8
TOP
10
4.600000
20
1.614609
30
0.0
11
4.700000
21
1.614506
31
0.0
0
LINE
8
TOP
10
4.700000
20
1.614506
30
0.0
11
4.800000
21
1.614403
31
0.0
0
LINE
8
TOP
10
4.800000
20
1.614403
30
0.0
11
4.900000
21
1.614300
31
0.0
0
LINE
8
TOP
10
4.900000
20
1.614300
30
0.0
11
5.000000
21
1.614198
31
0.0
0
LINE
8
TOP
10
5.000000
20
1.614198
30
0.0
11
5.100000
21
1.614095
31
0.0
0
LINE
8
TOP
10
5.100000
20
1.614095
30
0.0
11
5.200000
21
1.613992
31
0.0
0
LINE
8
TOP
10
5.200000
20
1.613992
30
0.0
11
5.300000
21
1.613889
31
0.0
0
LINE
8
TOP
10
5.300000
20
1.613889
30
0.0
11
5.400000
21
1.613786
31
0.0
0
LINE
8
TOP
10
5.400000
20
1.613786
30
0.0
11
5.500000
21
1.613684
31
0.0
0
LINE
8
TOP
10
5.500000
20
1.613684
30
0.0
11
5.600000
21
1.613581
31
0.0
0
LINE
8
TOP
10
5.600000
20
1.613581
30
0.0
11
5.700000
21
1.613478
31
0.0
0
LINE
8
TOP
10
5.700000
20
1.613478
30
0.0
11
5.800000
21
1.613375
31
0.0
0
LINE
8
TOP
10
5.800000
20
1.613375
30
0.0
11
5.900000
21
1.613272
31
0.0
0
LINE
8
TOP
10
5.900000
20
1.613272
30
0.0
11
6.000000
21
1.613170
31
0.0
0
LINE
8
TOP
10
6.000000
20
1.613170
30
0.0
11
6.100000
21
1.613067
31
0.0
0
LINE
8
TOP
10
6.100000
20
1.613067
30
0.0
11
6.200000
21
1.612964
31
0.0
0
LINE
8
TOP
10
6.200000
20
1.612964
30
0.0
11
6.300000
21
1.612861
31
0.0
0
LINE
8
TOP
10
6.300000
20
1.612861
30
0.0
11
6.400000
21
1.612758
31
0.0
0
LINE
8
TOP
10
6.400000
20
1.612758
30
0.0
11
6.500000
21
1.612656
31
0.0
0
LINE
8
TOP
10
6.500000
20
1.612656
30
0.0
11
6.600000
21
1.612553
31
0.0
0
LINE
8
TOP
10
6.600000
20
1.612553
30
0.0
11
6.700000
21
1.612450
31
0.0
0
LINE
8
TOP
10
6.700000
20
1.612450
30
0.0
11
6.800000
21
1.612347
31
0.0
0
LINE
8
TOP
10
6.800000
20
1.612347
30
0.0
11
6.900000
21
1.612245
31
0.0
0
LINE
8
TOP
10
6.900000
20
1.612245
30
0.0
11
7.000000
21
1.612142
31
0.0
0
LINE
8
TOP
10
7.000000
20
1.612142
30
0.0
11
7.100000
21
1.612039
31
0.0
0
LINE
8
TOP
10
7.100000
20
1.612039
30
0.0
11
7.200000
21
1.611936
31
0.0
0
LINE
8
TOP
10
7.200000
20
1.611936
30
0.0
11
7.300000
21
1.611833
31
0.0
0
LINE
8
TOP
10
7.300000
20
1.611833
30
0.0
11
7.400000
21
1.611731
31
0.0
0
LINE
8
TOP
10
7.400000
20
1.611731
30
0.0
11
7.500000
21
1.611628
31
0.0
0
LINE
8
TOP
10
7.500000
20
1.611628
30
0.0
11
7.600000
21
1.611525
31
0.0
0
LINE
8
TOP
10
7.600000
20
1.611525
30
0.0
11
7.700000
21
1.611422
31
0.0
0
LINE
8
TOP
10
7.700000
20
1.611422
30
0.0
11
7.800000
21
1.611319
31
0.0
0
LINE
8
TOP
10
7.800000
20
1.611319
30
0.0
11
7.900000
21
1.611217
31
0.0
0
LINE
8
TOP
10
7.900000
20
1.611217
30
0.0
11
8.000000
21
1.611114
31
0.0
0
LINE
8
TOP
10
0.000000
20
1.186724
30
0.0
11
0.100000
21
1.186621
31
0.0
0
LINE
8
TOP
10
0.100000
20
1.186621
30
0.0
11
0.200000
21
1.186519
31
0.0
0
LINE
8
TOP
10
0.200000
20
1.186519
30
0.0
11
0.300000
21
1.186416
31
0.0
0
LINE
8
TOP
10
0.300000
20
1.186416
30
0.0
11
0.400000
21
1.186313
31
0.0
0
LINE
8
TOP
10
0.400000
20
1.186313
30
0.0
11
0.500000
21
1.186210
31
0.0
0
LINE
8
TOP
10
0.500000
20
1.186210
30
0.0
11
0.600000
21
1.186107
31
0.0
0
LINE
8
TOP
10
0.600000
20
1.186107
30
0.0
11
0.700000
21
1.186005
31
0.0
0
LINE
8
TOP
10
0.700000
20
1.186005
30
0.0
11
0.800000
21
1.185902
31
0.0
0
LINE
8
TOP
10
0.800000
20
1.185902
30
0.0
11
0.900000
21
1.185799
31
0.0
0
LINE
8
TOP
10
0.900000
20
1.185799
30
0.0
11
1.000000
21
1.185696
31
0.0
0
LINE
8
TOP
10
1.000000
20
1.185696
30
0.0
11
1.100000
21
1.185593
31
0.0
0
LINE
8
TOP
10
1.100000
20
1.185593
30
0.0
11
1.200000
21
1.185491
31
0.0
0
LINE
8
TOP
10
1.200000
20
1.185491
30
0.0
11
1.300000
21
1.185388
31
0.0
0
LINE
8
TOP
10
1.300000
20
1.185388
30
0.0
11
1.400000
21
1.185285
31
0.0
0
LINE
8
TOP
10
1.400000
20
1.185285
30
0.0
11
1.500000
21
1.185182
31
0.0
0
LINE
8
TOP
10
1.500000
20
1.185182
30
0.0
11
1.600000
21
1.185080
31
0.0
0
LINE
8
TOP
10
1.600000
20
1.185080
30
0.0
11
1.700000
21
1.184977
31
0.0
0
LINE
8
TOP
10
1.700000
20
1.184977
30
0.0
11
1.800000
21
1.184874
31
0.0
0
LINE
8
TOP
10
1.800000
20
1.184874
30
0.0
11
1.900000
21
1.184771
31
0.0
0
LINE
8
TOP
10
1.900000
20
1.184771
30
0.0
11
2.000000
21
1.184668
31
0.0
0
LINE
8
TOP
10
2.000000
20
1.184668
30
0.0
11
2.100000
21
1.184566
31
0.0
0
LINE
8
TOP
10
2.100000
20
1.184566
30
0.0
11
2.200000
21
1.184463
31
0.0
0
LINE
8
TOP
10
2.200000
20
1.184463
30
0.0
11
2.300000
21
1.184360
31
0.0
0
LINE
8
TOP
10
2.300000
20
1.184360
30
0.0
11
2.400000
21
1.184257
31
0.0
0
LINE
8
TOP
10
2.400000
20
1.184257
30
0.0
11
2.500000
21
1.184154
31
0.0
0
LINE
8
TOP
10
2.500000
20
1.184154
30
0.0
11
2.600000
21
1.184052
31
0.0
0
LINE
8
TOP
10
2.600000
20
1.184052
30
0.0
11
2.700000
21
1.183949
31
0.0
0
LINE
8
TOP
10
2.700000
20
1.183949
30
0.0
11
2.800000
21
1.183846
31
0.0
0
LINE
8
TOP
10
2.800000
20
1.183846
30
0.0
11
2.900000
21
1.183743
31
0.0
0
LINE
8
TOP
10
2.900000
20
1.183743
30
0.0
11
3.000000
21
1.183641
31
0.0
0
LINE
8
TOP
10
3.000000
20
1.183641
30
0.0
11
3.100000
21
1.183538
31
0.0
0
LINE
8
TOP
10
3.100000
20
1.183538
30
0.0
11
3.200000
21
1.183435
31
0.0
0
LINE
8
TOP
10
3.200000
20
1.183435
30
0.0
11
3.300000
21
1.183332
31
0.0
0
LINE
8
TOP
10
3.300000
20
1.183332
30
0.0
11
3.400000
21
1.183229
31
0.0
0
LINE
8
TOP
10
3.400000
20
1.183229
30
0.0
11
3.500000
21
1.183127
31
0.0
0
LINE
8
TOP
10
3.500000
20
1.183127
30
0.0
11
3.600000
21
1.183024
31
0.0
0
LINE
8
TOP
10
3.600000
20
1.183024
30
0.0
11
3.700000
21
1.182921
31
0.0
0
LINE
8
TOP
10
3.700000
20
1.182921
30
0.0
11
3.800000
21
1.182818
31
0.0
0
LINE
8
TOP
10
3.800000
20
1.182818
30
0.0
11
3.900000
21
1.182715
31
0.0
0
LINE
8
TOP
10
3.900000
20
1.182715
30
0.0
11
4.000000
21
1.182613
31
0.0
0
LINE
8
TOP
10
4.000000
20
1.182613
30
0.0
11
4.100000
21
1.182715
31
0.0
0
LINE
8
TOP
10
4.100000
20
1.182715
30
0.0
11
4.200000
21
1.182818
31
0.0
0
LINE
8
TOP
10
4.200000
20
1.182818
30
0.0
11
4.300000
21
1.182921
31
0.0
0
LINE
8
TOP
10
4.300000
20
1.182921
30
0.0
11
4.400000
21
1.183024
31
0.0
0
LINE
8
TOP
10
4.400000
20
1.183024
30
0.0
11
4.500000
21
1.183127
31
0.0
0
LINE
8
TOP
10
4.500000
20
1.183127
30
0.0
11
4.600000
21
1.183229
31
0.0
0
LINE
8
TOP
10
4.600000
20
1.183229
30
0.0
11
4.700000
21
1.183332
31
0.0
0
LINE
8
TOP
10
4.700000
20
1.183332
30
0.0
11
4.800000
21
1.183435
31
0.0
0
LINE
8
TOP
10
4.800000
20
1.183435
30
0.0
11
4.900000
21
1.183538
31
0.0
0
LINE
8
TOP
10
4.900000
20
1.183538
30
0.0
11
5.000000
21
1.183641
31
0.0
0
LINE
8
TOP
10
5.000000
20
1.183641
30
0.0
11
5.100000
21
1.183743
31
0.0
0
LINE
8
TOP
10
5.100000
20
1.183743
30
0.0
11
5.200000
21
1.183846
31
0.0
0
LINE
8
TOP
10
5.200000
20
1.183846
30
0.0
11
5.300000
21
1.183949
31
0.0
0
LINE
8
TOP
10
5.300000
20
1.183949
30
0.0
11
5.400000
21
1.184052
31
0.0
0
LINE
8
TOP
10
5.400000
20
1.184052
30
0.0
11
5.500000
21
1.184154
31
0.0
0
LINE
8
TOP
10
5.500000
20
1.184154
30
0.0
11
5.600000
21
1.184257
31
0.0
0
LINE
8
TOP
10
5.600000
20
1.184257
30
0.0
11
5.700000
21
1.184360
31
0.0
0
LINE
8
TOP
10
5.700000
20
1.184360
30
0.0
11
5.800000
21
1.184463
31
0.0
0
LINE
8
TOP
10
5.800000
20
1.184463
30
0.0
11
5.900000
21
1.184566
31
0.0
0
LINE
8
TOP
10
5.900000
20
1.184566
30
0.0
11
6.000000
21
1.184668
31
0.0
0
LINE
8
TOP
10
6.000000
20
1.184668
30
0.0
11
6.100000
21
1.184771
31
0.0
0
LINE
8
TOP
10
6.100000
20
1.184771
30
0.0
11
6.200000
21
1.184874
31
0.0
0
LINE
8
TOP
10
6.200000
20
1.184874
30
0.0
11
6.300000
21
1.184977
31
0.0
0
LINE
8
TOP
10
6.300000
20
1.184977
30
0.0
11
6.400000
21
1.185080
31
0.0
0
LINE
8
TOP
10
6.400000
20
1.185080
30
0.0
11
6.500000
21
1.185182
31
0.0
0
LINE
8
TOP
10
6.500000
20
1.185182
30
0.0
11
6.600000
21
1.185285
31
0.0
0
LINE
8
TOP
10
6.600000
20
1.185285
30
0.0
11
6.700000
21
1.185388
31
0.0
0
LINE
8
TOP
10
6.700000
20
1.185388
30
0.0
11
6.800000
21
1.185491
31
0.0
0
LINE
8
TOP
10
6.800000
20
1.185491
30
0.0
11
6.900000
21
1.185593
31
0.0
0
LINE
8
TOP
10
6.900000
20
1.185593
30
0.0
11
7.000000
21
1.185696
31
0.0
0
LINE
8
TOP
10
7.000000
20
1.185696
30
0.0
11
7.100000
21
1.185799
31
0.0
0
LINE
8
TOP
10
7.100000
20
1.185799
30
0.0
11
7.200000
21
1.185902
31
0.0
0
LINE
8
TOP
10
7.200000
20
1.185902
30
0.0
11
7.300000
21
1.186005
31
0.0
0
LINE
8
TOP
10
7.300000
20
1.186005
30
0.0
11
7.400000
21
1.186107
31
0.0
0
LINE
8
TOP
10
7.400000
20
1.186107
30
0.0
11
7.500000
21
1.186210
31
0.0
0
LINE
8
TOP
10
7.500000
20
1.186210
30
0.0
11
7.600000
21
1.186313
31
0.0
0
LINE
8
TOP
10
7.600000
20
1.186313
30
0.0
11
7.700000
21
1.186416
31
0.0
0
LINE
8
TOP
10
7.700000
20
1.186416
30
0.0
11
7.800000
21
1.186519
31
0.0
0
LINE
8
TOP
10
7.800000
20
1.186519
30
0.0
11
7.900000
21
1.186621
31
0.0
0
LINE
8
TOP
10
7.900000
20
1.186621
30
0.0
11
8.000000
21
1.186724
31
0.0
0
LINE
8
TOP
10
0.000000
20
1.611114
30
0.0
11
0.000000
21
1.186724
31
0.0
0
LINE
8
TOP
10
8.000000
20
1.611114
30
0.0
11
8.000000
21
1.186724
31
0.0
0
LINE
8
SECTION
10
9.283694
20
-0.175000
30
0.0
11
9.716306
21
-0.175000
31
0.0
0
LINE
8
SECTION
10
9.716306
20
-0.175000
30
0.0
11
9.716306
21
0.175000
31
0.0
0
LINE
8
SECTION
10
9.716306
20
0.175000
30
0.0
11
9.283694
21
0.175000
31
0.0
0
LINE
8
SECTION
10
9.283694
20
0.175000
30
0.0
11
9.283694
21
-0.175000
31
0.0
0
LINE
8
SECTION
10
9.365705
20
-0.092988
30
0.0
11
9.634295
21
-0.092988
31
0.0
0
LINE
8
SECTION
10
9.634295
20
-0.092988
30
0.0
11
9.634295
21
0.092988
31
0.0
0
LINE
8
SECTION
10
9.634295
20
0.092988
30
0.0
11
9.365705
21
0.092988
31
0.0
0
LINE
8
SECTION
10
9.365705
20
0.092988
30
0.0
11
9.365705
21
-0.092988
31
0.0
0
LINE
8
SECTION
10
9.365705
20
0.000000
30
0.0
11
9.447717
21
0.000000
31
0.0
0
LINE
8
SECTION
10
9.447717
20
0.000000
30
0.0
11
9.447717
21
0.092988
31
0.0
0
LINE
8
SECTION
10
9.447717
20
0.092988
30
0.0
11
9.365705
21
0.092988
31
0.0
0
LINE
8
SECTION
10
9.365705
20
0.092988
30
0.0
11
9.365705
21
0.000000
31
0.0
0
LINE
8
SECTION
10
9.365705
20
-0.092988
30
0.0
11
9.447717
21
-0.092988
31
0.0
0
LINE
8
SECTION
10
9.447717
20
-0.092988
30
0.0
11
9.447717
21
0.000000
31
0.0
0
LINE
8
SECTION
10
9.447717
20
0.000000
30
0.0
11
9.365705
21
0.000000
31
0.0
0
LINE
8
SECTION
10
9.365705
20
0.000000
30
0.0
11
9.365705
21
-0.092988
31
0.0
0
LINE
8
SECTION
10
9.552283
20
0.000000
30
0.0
11
9.634295
21
0.000000
31
0.0
0
LINE
8
SECTION
10
9.634295
20
0.000000
30
0.0
11
9.634295
21
0.092988
31
0.0
0
LINE
8
SECTION
10
9.634295
20
0.092988
30
0.0
11
9.552283
21
0.092988
31
0.0
0
LINE
8
SECTION
10
9.552283
20
0.092988
30
0.0
11
9.552283
21
0.000000
31
0.0
0
LINE
8
SECTION
10
9.552283
20
-0.092988
30
0.0
11
9.634295
21
-0.092988
31
0.0
0
LINE
8
SECTION
10
9.634295
20
-0.092988
30
0.0
11
9.634295
21
0.000000
31
0.0
0
LINE
8
SECTION
10
9.634295
20
0.000000
30
0.0
11
9.552283
21
0.000000
31
0.0
0
LINE
8
SECTION
10
9.552283
20
0.000000
30
0.0
11
9.552283
21
-0.092988
31
0.0
0
ENDSEC
0
EOF
