0
SECTION
2
HEADER
9
$INSUNITS
70
1
0
ENDSEC
0
SECTION
2
ENTITIES
0
LINE
8
FRONT
10
0.000000
20
0.319351
30
0.0
11
0.112500
21
0.321041
31
0.0
0
LINE
8
FRONT
10
0.112500
20
0.321041
30
0.0
11
0.225000
21
0.322731
31
0.0
0
LINE
8
FRONT
10
0.225000
20
0.322731
30
0.0
11
0.337500
21
0.324421
31
0.0
0
LINE
8
FRONT
10
0.337500
20
0.324421
30
0.0
11
0.450000
21
0.326111
31
0.0
0
LINE
8
FRONT
10
0.450000
20
0.326111
30
0.0
11
0.500000
21
0.326862
31
0.0
0
LINE
8
FRONT
10
0.500000
20
0.326862
30
0.0
11
0.562500
21
0.327801
31
0.0
0
LINE
8
FRONT
10
0.562500
20
0.327801
30
0.0
11
0.675000
21
0.329491
31
0.0
0
LINE
8
FRONT
10
0.675000
20
0.329491
30
0.0
11
0.787500
21
0.331181
31
0.0
0
LINE
8
FRONT
10
0.787500
20
0.331181
30
0.0
11
0.900000
21
0.332871
31
0.0
0
LINE
8
FRONT
10
0.900000
20
0.332871
30
0.0
11
1.012500
21
0.334561
31
0.0
0
LINE
8
FRONT
10
1.012500
20
0.334561
30
0.0
11
1.125000
21
0.336250
31
0.0
0
LINE
8
FRONT
10
1.125000
20
0.336250
30
0.0
11
1.237500
21
0.337940
31
0.0
0
LINE
8
FRONT
10
1.237500
20
0.337940
30
0.0
11
1.350000
21
0.339630
31
0.0
0
LINE
8
FRONT
10
1.350000
20
0.339630
30
0.0
11
1.462500
21
0.341320
31
0.0
0
LINE
8
FRONT
10
1.462500
20
0.341320
30
0.0
11
1.575000
21
0.343010
31
0.0
0
LINE
8
FRONT
10
1.575000
20
0.343010
30
0.0
11
1.687500
21
0.344700
31
0.0
0
LINE
8
FRONT
10
1.687500
20
0.344700
30
0.0
11
1.800000
21
0.346390
31
0.0
0
LINE
8
FRONT
10
1.800000
20
0.346390
30
0.0
11
1.912500
21
0.348080
31
0.0
0
LINE
8
FRONT
10
1.912500
20
0.348080
30
0.0
11
2.025000
21
0.349770
31
0.0
0
LINE
8
FRONT
10
2.025000
20
0.349770
30
0.0
11
2.137500
21
0.351460
31
0.0
0
LINE
8
FRONT
10
2.137500
20
0.351460
30
0.0
11
2.250000
21
0.353150
31
0.0
0
LINE
8
FRONT
10
2.250000
20
0.353150
30
0.0
11
2.362500
21
0.354840
31
0.0
0
LINE
8
FRONT
10
2.362500
20
0.354840
30
0.0
11
2.475000
21
0.356530
31
0.0
0
LINE
8
FRONT
10
2.475000
20
0.356530
30
0.0
11
2.587500
21
0.358220
31
0.0
0
LINE
8
FRONT
10
2.587500
20
0.358220
30
0.0
11
2.700000
21
0.359910
31
0.0
0
LINE
8
FRONT
10
2.700000
20
0.359910
30
0.0
11
2.812500
21
0.361600
31
0.0
0
LINE
8
FRONT
10
2.812500
20
0.361600
30
0.0
11
2.925000
21
0.363290
31
0.0
0
LINE
8
FRONT
10
2.925000
20
0.363290
30
0.0
11
3.037500
21
0.364980
31
0.0
0
LINE
8
FRONT
10
3.037500
20
0.364980
30
0.0
11
3.150000
21
0.366670
31
0.0
0
LINE
8
FRONT
10
3.150000
20
0.366670
30
0.0
11
3.262500
21
0.368360
31
0.0
0
LINE
8
FRONT
10
3.262500
20
0.368360
30
0.0
11
3.375000
21
0.370050
31
0.0
0
LINE
8
FRONT
10
3.375000
20
0.370050
30
0.0
11
3.487500
21
0.371740
31
0.0
0
LINE
8
FRONT
10
3.487500
20
0.371740
30
0.0
11
3.600000
21
0.373430
31
0.0
0
LINE
8
FRONT
10
3.600000
20
0.373430
30
0.0
11
3.712500
21
0.375120
31
0.0
0
LINE
8
FRONT
10
3.712500
20
0.375120
30
0.0
11
3.825000
21
0.376810
31
0.0
0
LINE
8
FRONT
10
3.825000
20
0.376810
30
0.0
11
3.937500
21
0.378500
31
0.0
0
LINE
8
FRONT
10
3.937500
20
0.378500
30
0.0
11
4.050000
21
0.380190
31
0.0
0
LINE
8
FRONT
10
4.050000
20
0.380190
30
0.0
11
4.162500
21
0.381880
31
0.0
0
LINE
8
FRONT
10
4.162500
20
0.381880
30
0.0
11
4.275000
21
0.383570
31
0.0
0
LINE
8
FRONT
10
4.275000
20
0.383570
30
0.0
11
4.387500
21
0.385260
31
0.0
0
LINE
8
FRONT
10
4.387500
20
0.385260
30
0.0
11
4.500000
21
0.386950
31
0.0
0
LINE
8
FRONT
10
4.500000
20
0.386950
30
0.0
11
4.612500
21
0.385260
31
0.0
0
LINE
8
FRONT
10
4.612500
20
0.385260
30
0.0
11
4.725000
21
0.383570
31
0.0
0
LINE
8
FRONT
10
4.725000
20
0.383570
30
0.0
11
4.837500
21
0.381880
31
0.0
0
LINE
8
FRONT
10
4.837500
20
0.381880
30
0.0
11
4.950000
21
0.380190
31
0.0
0
LINE
8
FRONT
10
4.950000
20
0.380190
30
0.0
11
5.062500
21
0.378500
31
0.0
0
LINE
8
FRONT
10
5.062500
20
0.378500
30
0.0
11
5.175000
21
0.376810
31
0.0
0
LINE
8
FRONT
10
5.175000
20
0.376810
30
0.0
11
5.287500
21
0.375120
31
0.0
0
LINE
8
FRONT
10
5.287500
20
0.375120
30
0.0
11
5.400000
21
0.373430
31
0.0
0
LINE
8
FRONT
10
5.400000
20
0.373430
30
0.0
11
5.512500
21
0.371740
31
0.0
0
LINE
8
FRONT
10
5.512500
20
0.371740
30
0.0
11
5.625000
21
0.370050
31
0.0
0
LINE
8
FRONT
10
5.625000
20
0.370050
30
0.0
11
5.737500
21
0.368360
31
0.0
0
LINE
8
FRONT
10
5.737500
20
0.368360
30
0.0
11
5.850000
21
0.366670
31
0.0
0
LINE
8
FRONT
10
5.850000
20
0.366670
30
0.0
11
5.962500
21
0.364980
31
0.0
0
LINE
8
FRONT
10
5.962500
20
0.364980
30
0.0
11
6.075000
21
0.363290
31
0.0
0
LINE
8
FRONT
10
6.075000
20
0.363290
30
0.0
11
6.187500
21
0.361600
31
0.0
0
LINE
8
FRONT
10
6.187500
20
0.361600
30
0.0
11
6.300000
21
0.359910
31
0.0
0
LINE
8
FRONT
10
6.300000
20
0.359910
30
0.0
11
6.412500
21
0.358220
31
0.0
0
LINE
8
FRONT
10
6.412500
20
0.358220
30
0.0
11
6.525000
21
0.356530
31
0.0
0
LINE
8
FRONT
10
6.525000
20
0.356530
30
0.0
11
6.637500
21
0.354840
31
0.0
0
LINE
8
FRONT
10
6.637500
20
0.354840
30
0.0
11
6.750000
21
0.353150
31
0.0
0
LINE
8
FRONT
10
6.750000
20
0.353150
30
0.0
11
6.862500
21
0.351460
31
0.0
0
LINE
8
FRONT
10
6.862500
20
0.351460
30
0.0
11
6.975000
21
0.349770
31
0.0
0
LINE
8
FRONT
10
6.975000
20
0.349770
30
0.0
11
7.087500
21
0.348080
31
0.0
0
LINE
8
FRONT
10
7.087500
20
0.348080
30
0.0
11
7.200000
21
0.346390
31
0.0
0
LINE
8
FRONT
10
7.200000
20
0.346390
30
0.0
11
7.312500
21
0.344700
31
0.0
0
LINE
8
FRONT
10
7.312500
20
0.344700
30
0.0
11
7.425000
21
0.343010
31
0.0
0
LINE
8
FRONT
10
7.425000
20
0.343010
30
0.0
11
7.537500
21
0.341320
31
0.0
0
LINE
8
FRONT
10
7.537500
20
0.341320
30
0.0
11
7.650000
21
0.339630
31
0.0
0
LINE
8
FRONT
10
7.650000
20
0.339630
30
0.0
11
7.762500
21
0.337940
31
0.0
0
LINE
8
FRONT
10
7.762500
20
0.337940
30
0.0
11
7.875000
21
0.336250
31
0.0
0
LINE
8
FRONT
10
7.875000
20
0.336250
30
0.0
11
7.987500
21
0.334561
31
0.0
0
LINE
8
FRONT
10
7.987500
20
0.334561
30
0.0
11
8.100000
21
0.332871
31
0.0
0
LINE
8
FRONT
10
8.100000
20
0.332871
30
0.0
11
8.212500
21
0.331181
31
0.0
0
LINE
8
FRONT
10
8.212500
20
0.331181
30
0.0
11
8.325000
21
0.329491
31
0.0
0
LINE
8
FRONT
10
8.325000
20
0.329491
30
0.0
11
8.437500
21
0.327801
31
0.0
0
LINE
8
FRONT
10
8.437500
20
0.327801
30
0.0
11
8.500000
21
0.326862
31
0.0
0
LINE
8
FRONT
10
8.500000
20
0.326862
30
0.0
11
8.550000
21
0.326111
31
0.0
0
LINE
8
FRONT
10
8.550000
20
0.326111
30
0.0
11
8.662500
21
0.324421
31
0.0
0
LINE
8
FRONT
10
8.662500
20
0.324421
30
0.0
11
8.775000
21
0.322731
31
0.0
0
LINE
8
FRONT
10
8.775000
20
0.322731
30
0.0
11
8.887500
21
0.321041
31
0.0
0
LINE
8
FRONT
10
8.887500
20
0.321041
30
0.0
11
9.000000
21
0.319351
31
0.0
0
LINE
8
FRONT
10
0.000000
20
-0.319351
30
0.0
11
0.112500
21
-0.321041
31
0.0
0
LINE
8
FRONT
10
0.112500
20
-0.321041
30
0.0
11
0.225000
21
-0.322731
31
0.0
0
LINE
8
FRONT
10
0.225000
20
-0.322731
30
0.0
11
0.337500
21
-0.324421
31
0.0
0
LINE
8
FRONT
10
0.337500
20
-0.324421
30
0.0
11
0.450000
21
-0.326111
31
0.0
0
LINE
8
FRONT
10
0.450000
20
-0.326111
30
0.0
11
0.500000
21
-0.326862
31
0.0
0
LINE
8
FRONT
10
0.500000
20
-0.326862
30
0.0
11
0.562500
21
-0.327801
31
0.0
0
LINE
8
FRONT
10
0.562500
20
-0.327801
30
0.0
11
0.675000
21
-0.329491
31
0.0
0
LINE
8
FRONT
10
0.675000
20
-0.329491
30
0.0
11
0.787500
21
-0.331181
31
0.0
0
LINE
8
FRONT
10
0.787500
20
-0.331181
30
0.0
11
0.900000
21
-0.332871
31
0.0
0
LINE
8
FRONT
10
0.900000
20
-0.332871
30
0.0
11
1.012500
21
-0.334561
31
0.0
0
LINE
8
FRONT
10
1.012500
20
-0.334561
30
0.0
11
1.125000
21
-0.336250
31
0.0
0
LINE
8
FRONT
10
1.125000
20
-0.336250
30
0.0
11
1.237500
21
-0.337940
31
0.0
0
LINE
8
FRONT
10
1.237500
20
-0.337940
30
0.0
11
1.350000
21
-0.339630
31
0.0
0
LINE
8
FRONT
10
1.350000
20
-0.339630
30
0.0
11
1.462500
21
-0.341320
31
0.0
0
LINE
8
FRONT
10
1.462500
20
-0.341320
30
0.0
11
1.575000
21
-0.343010
31
0.0
0
LINE
8
FRONT
10
1.575000
20
-0.343010
30
0.0
11
1.687500
21
-0.344700
31
0.0
0
LINE
8
FRONT
10
1.687500
20
-0.344700
30
0.0
11
1.800000
21
-0.346390
31
0.0
0
LINE
8
FRONT
10
1.800000
20
-0.346390
30
0.0
11
1.912500
21
-0.348080
31
0.0
0
LINE
8
FRONT
10
1.912500
20
-0.348080
30
0.0
11
2.025000
21
-0.349770
31
0.0
0
LINE
8
FRONT
10
2.025000
20
-0.349770
30
0.0
11
2.137500
21
-0.351460
31
0.0
0
LINE
8
FRONT
10
2.137500
20
-0.351460
30
0.0
11
2.250000
21
-0.353150
31
0.0
0
LINE
8
FRONT
10
2.250000
20
-0.353150
30
0.0
11
2.362500
21
-0.354840
31
0.0
0
LINE
8
FRONT
10
2.362500
20
-0.354840
30
0.0
11
2.475000
21
-0.356530
31
0.0
0
LINE
8
FRONT
10
2.475000
20
-0.356530
30
0.0
11
2.587500
21
-0.358220
31
0.0
0
LINE
8
FRONT
10
2.587500
20
-0.358220
30
0.0
11
2.700000
21
-0.359910
31
0.0
0
LINE
8
FRONT
10
2.700000
20
-0.359910
30
0.0
11
2.812500
21
-0.361600
31
0.0
0
LINE
8
FRONT
10
2.812500
20
-0.361600
30
0.0
11
2.925000
21
-0.363290
31
0.0
0
LINE
8
FRONT
10
2.925000
20
-0.363290
30
0.0
11
3.037500
21
-0.364980
31
0.0
0
LINE
8
FRONT
10
3.037500
20
-0.364980
30
0.0
11
3.150000
21
-0.366670
31
0.0
0
LINE
8
FRONT
10
3.150000
20
-0.366670
30
0.0
11
3.262500
21
-0.368360
31
0.0
0
LINE
8
FRONT
10
3.262500
20
-0.368360
30
0.0
11
3.375000
21
-0.370050
31
0.0
0
LINE
8
FRONT
10
3.375000
20
-0.370050
30
0.0
11
3.487500
21
-0.371740
31
0.0
0
LINE
8
FRONT
10
3.487500
20
-0.371740
30
0.0
11
3.600000
21
-0.373430
31
0.0
0
LINE
8
FRONT
10
3.600000
20
-0.373430
30
0.0
11
3.712500
21
-0.375120
31
0.0
0
LINE
8
FRONT
10
3.712500
20
-0.375120
30
0.0
11
3.825000
21
-0.376810
31
0.0
0
LINE
8
FRONT
10
3.825000
20
-0.376810
30
0.0
11
3.937500
21
-0.378500
31
0.0
0
LINE
8
FRONT
10
3.937500
20
-0.378500
30
0.0
11
4.050000
21
-0.380190
31
0.0
0
LINE
8
FRONT
10
4.050000
20
-0.380190
30
0.0
11
4.162500
21
-0.381880
31
0.0
0
LINE
8
FRONT
10
4.162500
20
-0.381880
30
0.0
11
4.275000
21
-0.383570
31
0.0
0
LINE
8
FRONT
10
4.275000
20
-0.383570
30
0.0
11
4.387500
21
-0.385260
31
0.0
0
LINE
8
FRONT
10
4.387500
20
-0.385260
30
0.0
11
4.500000
21
-0.386950
31
0.0
0
LINE
8
FRONT
10
4.500000
20
-0.386950
30
0.0
11
4.612500
21
-0.385260
31
0.0
0
LINE
8
FRONT
10
4.612500
20
-0.385260
30
0.0
11
4.725000
21
-0.383570
31
0.0
0
LINE
8
FRONT
10
4.725000
20
-0.383570
30
0.0
11
4.837500
21
-0.381880
31
0.0
0
LINE
8
FRONT
10
4.837500
20
-0.381880
30
0.0
11
4.950000
21
-0.380190
31
0.0
0
LINE
8
FRONT
10
4.950000
20
-0.380190
30
0.0
11
5.062500
21
-0.378500
31
0.0
0
LINE
8
FRONT
10
5.062500
20
-0.378500
30
0.0
11
5.175000
21
-0.376810
31
0.0
0
LINE
8
FRONT
10
5.175000
20
-0.376810
30
0.0
11
5.287500
21
-0.375120
31
0.0
0
LINE
8
FRONT
10
5.287500
20
-0.375120
30
0.0
11
5.400000
21
-0.373430
31
0.0
0
LINE
8
FRONT
10
5.400000
20
-0.373430
30
0.0
11
5.512500
21
-0.371740
31
0.0
0
LINE
8
FRONT
10
5.512500
20
-0.371740
30
0.0
11
5.625000
21
-0.370050
31
0.0
0
LINE
8
FRONT
10
5.625000
20
-0.370050
30
0.0
11
5.737500
21
-0.368360
31
0.0
0
LINE
8
FRONT
10
5.737500
20
-0.368360
30
0.0
11
5.850000
21
-0.366670
31
0.0
0
LINE
8
FRONT
10
5.850000
20
-0.366670
30
0.0
11
5.962500
21
-0.364980
31
0.0
0
LINE
8
FRONT
10
5.962500
20
-0.364980
30
0.0
11
6.075000
21
-0.363290
31
0.0
0
LINE
8
FRONT
10
6.075000
20
-0.363290
30
0.0
11
6.187500
21
-0.361600
31
0.0
0
LINE
8
FRONT
10
6.187500
20
-0.361600
30
0.0
11
6.300000
21
-0.359910
31
0.0
0
LINE
8
FRONT
10
6.300000
20
-0.359910
30
0.0
11
6.412500
21
-0.358220
31
0.0
0
LINE
8
FRONT
10
6.412500
20
-0.358220
30
0.0
11
6.525000
21
-0.356530
31
0.0
0
LINE
8
FRONT
10
6.525000
20
-0.356530
30
0.0
11
6.637500
21
-0.354840
31
0.0
0
LINE
8
FRONT
10
6.637500
20
-0.354840
30
0.0
11
6.750000
21
-0.353150
31
0.0
0
LINE
8
FRONT
10
6.750000
20
-0.353150
30
0.0
11
6.862500
21
-0.351460
31
0.0
0
LINE
8
FRONT
10
6.862500
20
-0.351460
30
0.0
11
6.975000
21
-0.349770
31
0.0
0
LINE
8
FRONT
10
6.975000
20
-0.349770
30
0.0
11
7.087500
21
-0.348080
31
0.0
0
LINE
8
FRONT
10
7.087500
20
-0.348080
30
0.0
11
7.200000
21
-0.346390
31
0.0
0
LINE
8
FRONT
10
7.200000
20
-0.346390
30
0.0
11
7.312500
21
-0.344700
31
0.0
0
LINE
8
FRONT
10
7.312500
20
-0.344700
30
0.0
11
7.425000
21
-0.343010
31
0.0
0
LINE
8
FRONT
10
7.425000
20
-0.343010
30
0.0
11
7.537500
21
-0.341320
31
0.0
0
LINE
8
FRONT
10
7.537500
20
-0.341320
30
0.0
11
7.650000
21
-0.339630
31
0.0
0
LINE
8
FRONT
10
7.650000
20
-0.339630
30
0.0
11
7.762500
21
-0.337940
31
0.0
0
LINE
8
FRONT
10
7.762500
20
-0.337940
30
0.0
11
7.875000
21
-0.336250
31
0.0
0
LINE
8
FRONT
10
7.875000
20
-0.336250
30
0.0
11
7.987500
21
-0.334561
31
0.0
0
LINE
8
FRONT
10
7.987500
20
-0.334561
30
0.0
11
8.100000
21
-0.332871
31
0.0
0
LINE
8
FRONT
10
8.100000
20
-0.332871
30
0.0
11
8.212500
21
-0.331181
31
0.0
0
LINE
8
FRONT
10
8.212500
20
-0.331181
30
0.0
11
8.325000
21
-0.329491
31
0.0
0
LINE
8
FRONT
10
8.325000
20
-0.329491
30
0.0
11
8.437500
21
-0.327801
31
0.0
0
LINE
8
FRONT
10
8.437500
20
-0.327801
30
0.0
11
8.500000
21
-0.326862
31
0.0
0
LINE
8
FRONT
10
8.500000
20
-0.326862
30
0.0
11
8.550000
21
-0.326111
31
0.0
0
LINE
8
FRONT
10
8.550000
20
-0.326111
30
0.0
11
8.662500
21
-0.324421
31
0.0
0
LINE
8
FRONT
10
8.662500
20
-0.324421
30
0.0
11
8.775000
21
-0.322731
31
0.0
0
LINE
8
FRONT
10
8.775000
20
-0.322731
30
0.0
11
8.887500
21
-0.321041
31
0.0
0
LINE
8
FRONT
10
8.887500
20
-0.321041
30
0.0
11
9.000000
21
-0.319351
31
0.0
0
LINE
8
FRONT
10
0.000000
20
0.319351
30
0.0
11
0.000000
21
-0.319351
31
0.0
0
LINE
8
FRONT
10
9.000000
20
0.319351
30
0.0
11
9.000000
21
-0.319351
31
0.0
0
LINE
8
TOP
10
0.000000
20
2.021790
30
0.0
11
0.112500
21
2.024825
31
0.0
0
LINE
8
TOP
10
0.112500
20
2.024825
30
0.0
11
0.225000
21
2.027860
31
0.0
0
LINE
8
TOP
10
0.225000
20
2.027860
30
0.0
11
0.337500
21
2.030894
31
0.0
0
LINE
8
TOP
10
0.337500
20
2.030894
30
0.0
11
0.450000
21
2.033929
31
0.0
0
LINE
8
TOP
10
0.450000
20
2.033929
30
0.0
11
0.500000
21
2.035278
31
0.0
0
LINE
8
TOP
10
0.500000
20
2.035278
30
0.0
11
0.562500
21
2.036964
31
0.0
0
LINE
8
TOP
10
0.562500
20
2.036964
30
0.0
11
0.675000
21
2.039998
31
0.0
0
LINE
8
TOP
10
0.675000
20
2.039998
30
0.0
11
0.787500
21
2.043033
31
0.0
0
LINE
8
TOP
10
0.787500
20
2.043033
30
0.0
11
0.900000
21
2.046068
31
0.0
0
LINE
8
TOP
10
0.900000
20
2.046068
30
0.0
11
1.012500
21
2.049102
31
0.0
0
LINE
8
TOP
10
1.012500
20
2.049102
30
0.0
11
1.125000
21
2.052137
31
0.0
0
LINE
8
TOP
10
1.125000
20
2.052137
30
0.0
11
1.237500
21
2.055172
31
0.0
0
LINE
8
TOP
10
1.237500
20
2.055172
30
0.0
11
1.350000
21
2.058207
31
0.0
0
LINE
8
TOP
10
1.350000
20
2.058207
30
0.0
11
1.462500
21
2.061241
31
0.0
0
LINE
8
TOP
10
1.462500
20
2.061241
30
0.0
11
1.575000
21
2.064276
31
0.0
0
LINE
8
TOP
10
1.575000
20
2.064276
30
0.0
11
1.687500
21
2.067311
31
0.0
0
LINE
8
TOP
10
1.687500
20
2.067311
30
0.0
11
1.800000
21
2.070345
31
0.0
0
LINE
8
TOP
10
1.800000
20
2.070345
30
0.0
11
1.912500
21
2.073380
31
0.0
0
LINE
8
TOP
10
1.912500
20
2.073380
30
0.0
11
2.025000
21
2.076415
31
0.0
0
LINE
8
TOP
10
2.025000
20
2.076415
30
0.0
11
2.137500
21
2.079449
31
0.0
0
LINE
8
TOP
10
2.137500
20
2.079449
30
0.0
11
2.250000
21
2.082484
31
0.0
0
LINE
8
TOP
10
2.250000
20
2.082484
30
0.0
11
2.362500
21
2.085519
31
0.0
0
LINE
8
TOP
10
2.362500
20
2.085519
30
0.0
11
2.475000
21
2.088553
31
0.0
0
LINE
8
TOP
10
2.475000
20
2.088553
30
0.0
11
2.587500
21
2.091588
31
0.0
0
LINE
8
TOP
10
2.587500
20
2.091588
30
0.0
11
2.700000
21
2.094623
31
0.0
0
LINE
8
TOP
10
2.700000
20
2.094623
30
0.0
11
2.812500
21
2.097657
31
0.0
0
LINE
8
TOP
10
2.812500
20
2.097657
30
0.0
11
2.925000
21
2.100692
31
0.0
0
LINE
8
TOP
10
2.925000
20
2.100692
30
0.0
11
3.037500
21
2.103727
31
0.0
0
LINE
8
TOP
10
3.037500
20
2.103727
30
0.0
11
3.150000
21
2.106761
31
0.0
0
LINE
8
TOP
10
3.150000
20
2.106761
30
0.0
11
3.262500
21
2.109796
31
0.0
0
LINE
8
TOP
10
3.262500
20
2.109796
30
0.0
11
3.375000
21
2.112831
31
0.0
0
LINE
8
TOP
10
3.375000
20
2.112831
30
0.0
11
3.487500
21
2.115865
31
0.0
0
LINE
8
TOP
10
3.487500
20
2.115865
30
0.0
11
3.600000
21
2.118900
31
0.0
0
LINE
8
TOP
10
3.600000
20
2.118900
30
0.0
11
3.712500
21
2.121935
31
0.0
0
LINE
8
TOP
10
3.712500
20
2.121935
30
0.0
11
3.825000
21
2.124969
31
0.0
0
LINE
8
TOP
10
3.825000
20
2.124969
30
0.0
11
3.937500
21
2.128004
31
0.0
0
LINE
8
TOP
10
3.937500
20
2.128004
30
0.0
11
4.050000
21
2.131039
31
0.0
0
LINE
8
TOP
10
4.050000
20
2.131039
30
0.0
11
4.162500
21
2.134073
31
0.0
0
LINE
8
TOP
10
4.162500
20
2.134073
30
0.0
11
4.275000
21
2.137108
31
0.0
0
LINE
8
TOP
10
4.275000
20
2.137108
30
0.0
11
4.387500
21
2.140143
31
0.0
0
LINE
8
TOP
10
4.387500
20
2.140143
30
0.0
11
4.500000
21
2.143177
31
0.0
0
LINE
8
TOP
10
4.500000
20
2.143177
30
0.0
11
4.612500
21
2.140143
31
0.0
0
LINE
8
TOP
10
4.612500
20
2.140143
30
0.0
11
4.725000
21
2.137108
31
0.0
0
LINE
8
TOP
10
4.725000
20
2.137108
30
0.0
11
4.837500
21
2.134073
31
0.0
0
LINE
8
TOP
10
4.837500
20
2.134073
30
0.0
11
4.950000
21
2.131039
31
0.0
0
LINE
8
TOP
10
4.950000
20
2.131039
30
0.0
11
5.062500
21
2.128004
31
0.0
0
LINE
8
TOP
10
5.062500
20
2.128004
30
0.0
11
5.175000
21
2.124969
31
0.0
0
LINE
8
TOP
10
5.175000
20
2.124969
30
0.0
11
5.287500
21
2.121935
31
0.0
0
LINE
8
TOP
10
5.287500
20
2.121935
30
0.0
11
5.400000
21
2.118900
31
0.0
0
LINE
8
TOP
10
5.400000
20
2.118900
30
0.0
11
5.512500
21
2.115865
31
0.0
0
LINE
8
TOP
10
5.512500
20
2.115865
30
0.0
11
5.625000
21
2.112831
31
0.0
0
LINE
8
TOP
10
5.625000
20
2.112831
30
0.0
11
5.737500
21
2.109796
31
0.0
0
LINE
8
TOP
10
5.737500
20
2.109796
30
0.0
11
5.850000
21
2.106761
31
0.0
0
LINE
8
TOP
10
5.850000
20
2.106761
30
0.0
11
5.962500
21
2.103727
31
0.0
0
LINE
8
TOP
10
5.962500
20
2.103727
30
0.0
11
6.075000
21
2.100692
31
0.0
0
LINE
8
TOP
10
6.075000
20
2.100692
30
0.0
11
6.187500
21
2.097657
31
0.0
0
LINE
8
TOP
10
6.187500
20
2.097657
30
0.0
11
6.300000
21
2.094623
31
0.0
0
LINE
8
TOP
10
6.300000
20
2.094623
30
0.0
11
6.412500
21
2.091588
31
0.0
0
LINE
8
TOP
10
6.412500
20
2.091588
30
0.0
11
6.525000
21
2.088553
31
0.0
0
LINE
8
TOP
10
6.525000
20
2.088553
30
0.0
11
6.637500
21
2.085519
31
0.0
0
LINE
8
TOP
10
6.637500
20
2.085519
30
0.0
11
6.750000
21
2.082484
31
0.0
0
LINE
8
TOP
10
6.750000
20
2.082484
30
0.0
11
6.862500
21
2.079449
31
0.0
0
LINE
8
TOP
10
6.862500
20
2.079449
30
0.0
11
6.975000
21
2.076415
31
0.0
0
LINE
8
TOP
10
6.975000
20
2.076415
30
0.0
11
7.087500
21
2.073380
31
0.0
0
LINE
8
TOP
10
7.087500
20
2.073380
30
0.0
11
7.200000
21
2.070345
31
0.0
0
LINE
8
TOP
10
7.200000
20
2.070345
30
0.0
11
7.312500
21
2.067311
31
0.0
0
LINE
8
TOP
10
7.312500
20
2.067311
30
0.0
11
7.425000
21
2.064276
31
0.0
0
LINE
8
TOP
10
7.425000
20
2.064276
30
0.0
11
7.537500
21
2.061241
31
0.0
0
LINE
8
TOP
10
7.537500
20
2.061241
30
0.0
11
7.650000
21
2.058207
31
0.0
0
LINE
8
TOP
10
7.650000
20
2.058207
30
0.0
11
7.762500
21
2.055172
31
0.0
0
LINE
8
TOP
10
7.762500
20
2.055172
30
0.0
11
7.875000
21
2.052137
31
0.0
0
LINE
8
TOP
10
7.875000
20
2.052137
30
0.0
11
7.987500
21
2.049102
31
0.0
0
LINE
8
TOP
10
7.987500
20
2.049102
30
0.0
11
8.100000
21
2.046068
31
0.0
0
LINE
8
TOP
10
8.100000
20
2.046068
30
0.0
11
8.212500
21
2.043033
31
0.0
0
LINE
8
TOP
10
8.212500
20
2.043033
30
0.0
11
8.325000
21
2.039998
31
0.0
0
LINE
8
TOP
10
8.325000
20
2.039998
30
0.0
11
8.437500
21
2.036964
31
0.0
0
LINE
8
TOP
10
8.437500
20
2.036964
30
0.0
11
8.500000
21
2.035278
31
0.0
0
LINE
8
TOP
10
8.500000
20
2.035278
30
0.0
11
8.550000
21
2.033929
31
0.0
0
LINE
8
TOP
10
8.550000
20
2.033929
30
0.0
11
8.662500
21
2.030894
31
0.0
0
LINE
8
TOP
10
8.662500
20
2.030894
30
0.0
11
8.775000
21
2.027860
31
0.0
0
LINE
8
TOP
10
8.775000
20
2.027860
30
0.0
11
8.887500
21
2.024825
31
0.0
0
LINE
8
TOP
10
8.887500
20
2.024825
30
0.0
11
9.000000
21
2.021790
31
0.0
0
LINE
8
TOP
10
0.000000
20
1.799909
30
0.0
11
0.112500
21
1.796874
31
0.0
0
LINE
8
TOP
10
0.112500
20
1.796874
30
0.0
11
0.225000
21
1.793839
31
0.0
0
LINE
8
TOP
10
0.225000
20
1.793839
30
0.0
11
0.337500
21
1.790805
31
0.0
0
LINE
8
TOP
10
0.337500
20
1.790805
30
0.0
11
0.450000
21
1.787770
31
0.0
0
LINE
8
TOP
10
0.450000
20
1.787770
30
0.0
11
0.500000
21
1.786421
31
0.0
0
LINE
8
TOP
10
0.500000
20
1.786421
30
0.0
11
0.562500
21
1.784735
31
0.0
0
LINE
8
TOP
10
0.562500
20
1.784735
30
0.0
11
0.675000
21
1.781701
31
0.0
0
LINE
8
TOP
10
0.675000
20
1.781701
30
0.0
11
0.787500
21
1.778666
31
0.0
0
LINE
8
TOP
10
0.787500
20
1.778666
30
0.0
11
0.900000
21
1.775631
31
0.0
0
LINE
8
TOP
10
0.900000
20
1.775631
30
0.0
11
1.012500
21
1.772597
31
0.0
0
LINE
8
TOP
10
1.012500
20
1.772597
30
0.0
11
1.125000
21
1.769562
31
0.0
0
LINE
8
TOP
10
1.125000
20
1.769562
30
0.0
11
1.237500
21
1.766527
31
0.0
0
LINE
8
TOP
10
1.237500
20
1.766527
30
0.0
11
1.350000
21
1.763493
31
0.0
0
LINE
8
TOP
10
1.350000
20
1.763493
30
0.0
11
1.462500
21
1.760458
31
0.0
0
LINE
8
TOP
10
1.462500
20
1.760458
30
0.0
11
1.575000
21
1.757423
31
0.0
0
LINE
8
TOP
10
1.575000
20
1.757423
30
0.0
11
1.687500
21
1.754389
31
0.0
0
LINE
8
TOP
10
1.687500
20
1.754389
30
0.0
11
1.800000
21
1.751354
31
0.0
0
LINE
8
TOP
10
1.800000
20
1.751354
30
0.0
11
1.912500
21
1.748319
31
0.0
0
LINE
8
TOP
10
1.912500
20
1.748319
30
0.0
11
2.025000
21
1.745285
31
0.0
0
LINE
8
TOP
10
2.025000
20
1.745285
30
0.0
11
2.137500
21
1.742250
31
0.0
0
LINE
8
TOP
10
2.137500
20
1.742250
30
0.0
11
2.250000
21
1.739215
31
0.0
0
LINE
8
TOP
10
2.250000
20
1.739215
30
0.0
11
2.362500
21
1.736181
31
0.0
0
LINE
8
TOP
10
2.362500
20
1.736181
30
0.0
11
2.475000
21
1.733146
31
0.0
0
LINE
8
TOP
10
2.475000
20
1.733146
30
0.0
11
2.587500
21
1.730111
31
0.0
0
LINE
8
TOP
10
2.587500
20
1.730111
30
0.0
11
2.700000
21
1.727077
31
0.0
0
LINE
8
TOP
10
2.700000
20
1.727077
30
0.0
11
2.812500
21
1.724042
31
0.0
0
LINE
8
TOP
10
2.812500
20
1.724042
30
0.0
11
2.925000
21
1.721007
31
0.0
0
LINE
8
TOP
10
2.925000
20
1.721007
30
0.0
11
3.037500
21
1.717972
31
0.0
0
LINE
8
TOP
10
3.037500
20
1.717972
30
0.0
11
3.150000
21
1.714938
31
0.0
0
LINE
8
TOP
10
3.150000
20
1.714938
30
0.0
11
3.262500
21
1.711903
31
0.0
0
LINE
8
TOP
10
3.262500
20
1.711903
30
0.0
11
3.375000
21
1.708868
31
0.0
0
LINE
8
TOP
10
3.375000
20
1.708868
30
0.0
11
3.487500
21
1.705834
31
0.0
0
LINE
8
TOP
10
3.487500
20
1.705834
30
0.0
11
3.600000
21
1.702799
31
0.0
0
LINE
8
TOP
10
3.600000
20
1.702799
30
0.0
11
3.712500
21
1.699764
31
0.0
0
LINE
8
TOP
10
3.712500
20
1.699764
30
0.0
11
3.825000
21
1.696730
31
0.0
0
LINE
8
TOP
10
3.825000
20
1.696730
30
0.0
11
3.937500
21
1.693695
31
0.0
0
LINE
8
TOP
10
3.937500
20
1.693695
30
0.0
11
4.050000
21
1.690660
31
0.0
0
LINE
8
TOP
10
4.050000
20
1.690660
30
0.0
11
4.162500
21
1.687626
31
0.0
0
LINE
8
TOP
10
4.162500
20
1.687626
30
0.0
11
4.275000
21
1.684591
31
0.0
0
LINE
8
TOP
10
4.275000
20
1.684591
30
0.0
11
4.387500
21
1.681556
31
0.0
0
LINE
8
TOP
10
4.387500
20
1.681556
30
0.0
11
4.500000
21
1.678522
31
0.0
0
LINE
8
TOP
10
4.500000
20
1.678522
30
0.0
11
4.612500
21
1.681556
31
0.0
0
LINE
8
TOP
10
4.612500
20
1.681556
30
0.0
11
4.725000
21
1.684591
31
0.0
0
LINE
8
TOP
10
4.725000
20
1.684591
30
0.0
11
4.837500
21
1.687626
31
0.0
0
LINE
8
TOP
10
4.837500
20
1.687626
30
0.0
11
4.950000
21
1.690660
31
0.0
0
LINE
8
TOP
10
4.950000
20
1.690660
30
0.0
11
5.062500
21
1.693695
31
0.0
0
LINE
8
TOP
10
5.062500
20
1.693695
30
0.0
11
5.175000
21
1.696730
31
0.0
0
LINE
8
TOP
10
5.175000
20
1.696730
30
0.0
11
5.287500
21
1.699764
31
0.0
0
LINE
8
TOP
10
5.287500
20
1.699764
30
0.0
11
5.400000
21
1.702799
31
0.0
0
LINE
8
TOP
10
5.400000
20
1.702799
30
0.0
11
5.512500
21
1.705834
31
0.0
0
LINE
8
TOP
10
5.512500
20
1.705834
30
0.0
11
5.625000
21
1.708868
31
0.0
0
LINE
8
TOP
10
5.625000
20
1.708868
30
0.0
11
5.737500
21
1.711903
31
0.0
0
LINE
8
TOP
10
5.737500
20
1.711903
30
0.0
11
5.850000
21
1.714938
31
0.0
0
LINE
8
TOP
10
5.850000
20
1.714938
30
0.0
11
5.962500
21
1.717972
31
0.0
0
LINE
8
TOP
10
5.962500
20
1.717972
30
0.0
11
6.075000
21
1.721007
31
0.0
0
LINE
8
TOP
10
6.075000
20
1.721007
30
0.0
11
6.187500
21
1.724042
31
0.0
0
LINE
8
TOP
10
6.187500
20
1.724042
30
0.0
11
6.300000
21
1.727077
31
0.0
0
LINE
8
TOP
10
6.300000
20
1.727077
30
0.0
11
6.412500
21
1.730111
31
0.0
0
LINE
8
TOP
10
6.412500
20
1.730111
30
0.0
11
6.525000
21
1.733146
31
0.0
0
LINE
8
TOP
10
6.525000
20
1.733146
30
0.0
11
6.637500
21
1.736181
31
0.0
0
LINE
8
TOP
10
6.637500
20
1.736181
30
0.0
11
6.750000
21
1.739215
31
0.0
0
LINE
8
TOP
10
6.750000
20
1.739215
30
0.0
11
6.862500
21
1.742250
31
0.0
0
LINE
8
TOP
10
6.862500
20
1.742250
30
0.0
11
6.975000
21
1.745285
31
0.0
0
LINE
8
TOP
10
6.975000
20
1.745285
30
0.0
11
7.087500
21
1.748319
31
0.0
0
LINE
8
TOP
10
7.087500
20
1.748319
30
0.0
11
7.200000
21
1.751354
31
0.0
0
LINE
8
TOP
10
7.200000
20
1.751354
30
0.0
11
7.312500
21
1.754389
31
0.0
0
LINE
8
TOP
10
7.312500
20
1.754389
30
0.0
11
7.425000
21
1.757423
31
0.0
0
LINE
8
TOP
10
7.425000
20
1.757423
30
0.0
11
7.537500
21
1.760458
31
0.0
0
LINE
8
TOP
10
7.537500
20
1.760458
30
0.0
11
7.650000
21
1.763493
31
0.0
0
LINE
8
TOP
10
7.650000
20
1.763493
30
0.0
11
7.762500
21
1.766527
31
0.0
0
LINE
8
TOP
10
7.762500
20
1.766527
30
0.0
11
7.875000
21
1.769562
31
0.0
0
LINE
8
TOP
10
7.875000
20
1.769562
30
0.0
11
7.987500
21
1.772597
31
0.0
0
LINE
8
TOP
10
7.987500
20
1.772597
30
0.0
11
8.100000
21
1.775631
31
0.0
0
LINE
8
TOP
10
8.100000
20
1.775631
30
0.0
11
8.212500
21
1.778666
31
0.0
0
LINE
8
TOP
10
8.212500
20
1.778666
30
0.0
11
8.325000
21
1.781701
31
0.0
0
LINE
8
TOP
10
8.325000
20
1.781701
30
0.0
11
8.437500
21
1.784735
31
0.0
0
LINE
8
TOP
10
8.437500
20
1.784735
30
0.0
11
8.500000
21
1.786421
31
0.0
0
LINE
8
TOP
10
8.500000
20
1.786421
30
0.0
11
8.550000
21
1.787770
31
0.0
0
LINE
8
TOP
10
8.550000
20
1.787770
30
0.0
11
8.662500
21
1.790805
31
0.0
0
LINE
8
TOP
10
8.662500
20
1.790805
30
0.0
11
8.775000
21
1.793839
31
0.0
0
LINE
8
TOP
10
8.775000
20
1.793839
30
0.0
11
8.887500
21
1.796874
31
0.0
0
LINE
8
TOP
10
8.887500
20
1.796874
30
0.0
11
9.000000
21
1.799909
31
0.0
0
LINE
8
TOP
10
0.000000
20
2.021790
30
0.0
11
0.000000
21
1.799909
31
0.0
0
LINE
8
TOP
10
9.000000
20
2.021790
30
0.0
11
9.000000
21
1.799909
31
0.0
0
LINE
8
SECTION
10
10.267672
20
-0.386950
30
0.0
11
10.732328
21
-0.386950
31
0.0
0
LINE
8
SECTION
10
10.732328
20
-0.386950
30
0.0
11
10.732328
21
0.386950
31
0.0
0
LINE
8
SECTION
10
10.732328
20
0.386950
30
0.0
11
10.267672
21
0.386950
31
0.0
0
LINE
8
SECTION
10
10.267672
20
0.386950
30
0.0
11
10.267672
21
-0.386950
31
0.0
0
LINE
8
SECTION
10
10.312766
20
-0.341856
30
0.0
11
10.687234
21
-0.341856
31
0.0
0
LINE
8
SECTION
10
10.687234
20
-0.341856
30
0.0
11
10.687234
21
0.341856
31
0.0
0
LINE
8
SECTION
10
10.687234
20
0.341856
30
0.0
11
10.312766
21
0.341856
31
0.0
0
LINE
8
SECTION
10
10.312766
20
0.341856
30
0.0
11
10.312766
21
-0.341856
31
0.0
0
LINE
8
SECTION
10
10.312766
20
0.000000
30
0.0
11
10.357859
21
0.000000
31
0.0
0
LINE
8
SECTION
10
10.357859
20
0.000000
30
0.0
11
10.357859
21
0.341856
31
0.0
0
LINE
8
SECTION
10
10.357859
20
0.341856
30
0.0
11
10.312766
21
0.341856
31
0.0
0
LINE
8
SECTION
10
10.312766
20
0.341856
30
0.0
11
10.312766
21
0.000000
31
0.0
0
LINE
8
SECTION
10
10.312766
20
-0.341856
30
0.0
11
10.357859
21
-0.341856
31
0.0
0
LINE
8
SECTION
10
10.357859
20
-0.341856
30
0.0
11
10.357859
21
0.000000
31
0.0
0
LINE
8
SECTION
10
10.357859
20
0.000000
30
0.0
11
10.312766
21
0.000000
31
0.0
0
LINE
8
SECTION
10
10.312766
20
0.000000
30
0.0
11
10.312766
21
-0.341856
31
0.0
0
LINE
8
SECTION
10
10.642141
20
0.000000
30
0.0
11
10.687234
21
0.000000
31
0.0
0
LINE
8
SECTION
10
10.687234
20
0.000000
30
0.0
11
10.687234
21
0.341856
31
0.0
0
LINE
8
SECTION
10
10.687234
20
0.341856
30
0.0
11
10.642141
21
0.341856
31
0.0
0
LINE
8
SECTION
10
10.642141
20
0.341856
30
0.0
11
10.642141
21
0.000000
31
0.0
0
LINE
8
SECTION
10
10.642141
20
-0.341856
30
0.0
11
10.687234
21
-0.341856
31
0.0
0
LINE
8
SECTION
10
10.687234
20
-0.341856
30
0.0
11
10.687234
21
0.000000
31
0.0
0
LINE
8
SECTION
10
10.687234
20
0.000000
30
0.0
11
10.642141
21
0.000000
31
0.0
0
LINE
8
SECTION
10
10.642141
20
0.000000
30
0.0
11
10.642141
21
-0.341856
31
0.0
0
ENDSEC
0
EOF
