0
SECTION
2
HEADER
9
$INSUNITS
70
1
0
ENDSEC
0
SECTION
2
ENTITIES
0
LINE
8
FRONT
10
0.000000
20
0.336127
30
0.0
11
0.112500
21
0.335090
31
0.0
0
LINE
8
FRONT
10
0.112500
20
0.335090
30
0.0
11
0.225000
21
0.334053
31
0.0
0
LINE
8
FRONT
10
0.225000
20
0.334053
30
0.0
11
0.337500
21
0.333016
31
0.0
0
LINE
8
FRONT
10
0.337500
20
0.333016
30
0.0
11
0.450000
21
0.331979
31
0.0
0
LINE
8
FRONT
10
0.450000
20
0.331979
30
0.0
11
0.500000
21
0.331518
31
0.0
0
LINE
8
FRONT
10
0.500000
20
0.331518
30
0.0
11
0.562500
21
0.330942
31
0.0
0
LINE
8
FRONT
10
0.562500
20
0.330942
30
0.0
11
0.675000
21
0.329905
31
0.0
0
LINE
8
FRONT
10
0.675000
20
0.329905
30
0.0
11
0.787500
21
0.328868
31
0.0
0
LINE
8
FRONT
10
0.787500
20
0.328868
30
0.0
11
0.900000
21
0.327831
31
0.0
0
LINE
8
FRONT
10
0.900000
20
0.327831
30
0.0
11
1.012500
21
0.326794
31
0.0
0
LINE
8
FRONT
10
1.012500
20
0.326794
30
0.0
11
1.125000
21
0.325757
31
0.0
0
LINE
8
FRONT
10
1.125000
20
0.325757
30
0.0
11
1.237500
21
0.324720
31
0.0
0
LINE
8
FRONT
10
1.237500
20
0.324720
30
0.0
11
1.350000
21
0.323683
31
0.0
0
LINE
8
FRONT
10
1.350000
20
0.323683
30
0.0
11
1.462500
21
0.322646
31
0.0
0
LINE
8
FRONT
10
1.462500
20
0.322646
30
0.0
11
1.575000
21
0.321609
31
0.0
0
LINE
8
FRONT
10
1.575000
20
0.321609
30
0.0
11
1.687500
21
0.320572
31
0.0
0
LINE
8
FRONT
10
1.687500
20
0.320572
30
0.0
11
1.800000
21
0.319535
31
0.0
0
LINE
8
FRONT
10
1.800000
20
0.319535
30
0.0
11
1.912500
21
0.318498
31
0.0
0
LINE
8
FRONT
10
1.912500
20
0.318498
30
0.0
11
2.025000
21
0.317461
31
0.0
0
LINE
8
FRONT
10
2.025000
20
0.317461
30
0.0
11
2.137500
21
0.316424
31
0.0
0
LINE
8
FRONT
10
2.137500
20
0.316424
30
0.0
11
2.250000
21
0.315387
31
0.0
0
LINE
8
FRONT
10
2.250000
20
0.315387
30
0.0
11
2.362500
21
0.314350
31
0.0
0
LINE
8
FRONT
10
2.362500
20
0.314350
30
0.0
11
2.475000
21
0.313313
31
0.0
0
LINE
8
FRONT
10
2.475000
20
0.313313
30
0.0
11
2.587500
21
0.312276
31
0.0
0
LINE
8
FRONT
10
2.587500
20
0.312276
30
0.0
11
2.700000
21
0.311239
31
0.0
0
LINE
8
FRONT
10
2.700000
20
0.311239
30
0.0
11
2.812500
21
0.310202
31
0.0
0
LINE
8
FRONT
10
2.812500
20
0.310202
30
0.0
11
2.925000
21
0.309165
31
0.0
0
LINE
8
FRONT
10
2.925000
20
0.309165
30
0.0
11
3.037500
21
0.308128
31
0.0
0
LINE
8
FRONT
10
3.037500
20
0.308128
30
0.0
11
3.150000
21
0.307091
31
0.0
0
LINE
8
FRONT
10
3.150000
20
0.307091
30
0.0
11
3.262500
21
0.306054
31
0.0
0
LINE
8
FRONT
10
3.262500
20
0.306054
30
0.0
11
3.375000
21
0.305017
31
0.0
0
LINE
8
FRONT
10
3.375000
20
0.305017
30
0.0
11
3.487500
21
0.303980
31
0.0
0
LINE
8
FRONT
10
3.487500
20
0.303980
30
0.0
11
3.600000
21
0.302943
31
0.0
0
LINE
8
FRONT
10
3.600000
20
0.302943
30
0.0
11
3.712500
21
0.301906
31
0.0
0
LINE
8
FRONT
10
3.712500
20
0.301906
30
0.0
11
3.825000
21
0.300869
31
0.0
0
LINE
8
FRONT
10
3.825000
20
0.300869
30
0.0
11
3.937500
21
0.299832
31
0.0
0
LINE
8
FRONT
10
3.937500
20
0.299832
30
0.0
11
4.050000
21
0.298795
31
0.0
0
LINE
8
FRONT
10
4.050000
20
0.298795
30
0.0
11
4.162500
21
0.297758
31
0.0
0
LINE
8
FRONT
10
4.162500
20
0.297758
30
0.0
11
4.275000
21
0.296721
31
0.0
0
LINE
8
FRONT
10
4.275000
20
0.296721
30
0.0
11
4.387500
21
0.295684
31
0.0
0
LINE
8
FRONT
10
4.387500
20
0.295684
30
0.0
11
4.500000
21
0.294647
31
0.0
0
LINE
8
FRONT
10
4.500000
20
0.294647
30
0.0
11
4.612500
21
0.298733
31
0.0
0
LINE
8
FRONT
10
4.612500
20
0.298733
30
0.0
11
4.725000
21
0.302820
31
0.0
0
LINE
8
FRONT
10
4.725000
20
0.302820
30
0.0
11
4.837500
21
0.306907
31
0.0
0
LINE
8
FRONT
10
4.837500
20
0.306907
30
0.0
11
4.950000
21
0.310994
31
0.0
0
LINE
8
FRONT
10
4.950000
20
0.310994
30
0.0
11
5.062500
21
0.315080
31
0.0
0
LINE
8
FRONT
10
5.062500
20
0.315080
30
0.0
11
5.175000
21
0.319167
31
0.0
0
LINE
8
FRONT
10
5.175000
20
0.319167
30
0.0
11
5.287500
21
0.323254
31
0.0
0
LINE
8
FRONT
10
5.287500
20
0.323254
30
0.0
11
5.400000
21
0.327341
31
0.0
0
LINE
8
FRONT
10
5.400000
20
0.327341
30
0.0
11
5.512500
21
0.331427
31
0.0
0
LINE
8
FRONT
10
5.512500
20
0.331427
30
0.0
11
5.625000
21
0.335514
31
0.0
0
LINE
8
FRONT
10
5.625000
20
0.335514
30
0.0
11
5.737500
21
0.339601
31
0.0
0
LINE
8
FRONT
10
5.737500
20
0.339601
30
0.0
11
5.850000
21
0.343688
31
0.0
0
LINE
8
FRONT
10
5.850000
20
0.343688
30
0.0
11
5.962500
21
0.347774
31
0.0
0
LINE
8
FRONT
10
5.962500
20
0.347774
30
0.0
11
6.075000
21
0.351861
31
0.0
0
LINE
8
FRONT
10
6.075000
20
0.351861
30
0.0
11
6.187500
21
0.355948
31
0.0
0
LINE
8
FRONT
10
6.187500
20
0.355948
30
0.0
11
6.300000
21
0.360034
31
0.0
0
LINE
8
FRONT
10
6.300000
20
0.360034
30
0.0
11
6.412500
21
0.364121
31
0.0
0
LINE
8
FRONT
10
6.412500
20
0.364121
30
0.0
11
6.525000
21
0.368208
31
0.0
0
LINE
8
FRONT
10
6.525000
20
0.368208
30
0.0
11
6.637500
21
0.372295
31
0.0
0
LINE
8
FRONT
10
6.637500
20
0.372295
30
0.0
11
6.750000
21
0.376381
31
0.0
0
LINE
8
FRONT
10
6.750000
20
0.376381
30
0.0
11
6.862500
21
0.380468
31
0.0
0
LINE
8
FRONT
10
6.862500
20
0.380468
30
0.0
11
6.975000
21
0.384555
31
0.0
0
LINE
8
FRONT
10
6.975000
20
0.384555
30
0.0
11
7.087500
21
0.388642
31
0.0
0
LINE
8
FRONT
10
7.087500
20
0.388642
30
0.0
11
7.200000
21
0.392728
31
0.0
0
LINE
8
FRONT
10
7.200000
20
0.392728
30
0.0
11
7.312500
21
0.396815
31
0.0
0
LINE
8
FRONT
10
7.312500
20
0.396815
30
0.0
11
7.425000
21
0.400902
31
0.0
0
LINE
8
FRONT
10
7.425000
20
0.400902
30
0.0
11
7.537500
21
0.404989
31
0.0
0
LINE
8
FRONT
10
7.537500
20
0.404989
30
0.0
11
7.650000
21
0.409075
31
0.0
0
LINE
8
FRONT
10
7.650000
20
0.409075
30
0.0
11
7.762500
21
0.413162
31
0.0
0
LINE
8
FRONT
10
7.762500
20
0.413162
30
0.0
11
7.875000
21
0.417249
31
0.0
0
LINE
8
FRONT
10
7.875000
20
0.417249
30
0.0
11
7.987500
21
0.421336
31
0.0
0
LINE
8
FRONT
10
7.987500
20
0.421336
30
0.0
11
8.100000
21
0.425422
31
0.0
0
LINE
8
FRONT
10
8.100000
20
0.425422
30
0.0
11
8.212500
21
0.429509
31
0.0
0
LINE
8
FRONT
10
8.212500
20
0.429509
30
0.0
11
8.325000
21
0.433596
31
0.0
0
LINE
8
FRONT
10
8.325000
20
0.433596
30
0.0
11
8.437500
21
0.437683
31
0.0
0
LINE
8
FRONT
10
8.437500
20
0.437683
30
0.0
11
8.500000
21
0.439953
31
0.0
0
LINE
8
FRONT
10
8.500000
20
0.439953
30
0.0
11
8.550000
21
0.441769
31
0.0
0
LINE
8
FRONT
10
8.550000
20
0.441769
30
0.0
11
8.662500
21
0.445856
31
0.0
0
LINE
8
FRONT
10
8.662500
20
0.445856
30
0.0
11
8.775000
21
0.449943
31
0.0
0
LINE
8
FRONT
10
8.775000
20
0.449943
30
0.0
11
8.887500
21
0.454030
31
0.0
0
LINE
8
FRONT
10
8.887500
20
0.454030
30
0.0
11
9.000000
21
0.458116
31
0.0
0
LINE
8
FRONT
10
0.000000
20
-0.336127
30
0.0
11
0.112500
21
-0.335090
31
0.0
0
LINE
8
FRONT
10
0.112500
20
-0.335090
30
0.0
11
0.225000
21
-0.334053
31
0.0
0
LINE
8
FRONT
10
0.225000
20
-0.334053
30
0.0
11
0.337500
21
-0.333016
31
0.0
0
LINE
8
FRONT
10
0.337500
20
-0.333016
30
0.0
11
0.450000
21
-0.331979
31
0.0
0
LINE
8
FRONT
10
0.450000
20
-0.331979
30
0.0
11
0.500000
21
-0.331518
31
0.0
0
LINE
8
FRONT
10
0.500000
20
-0.331518
30
0.0
11
0.562500
21
-0.330942
31
0.0
0
LINE
8
FRONT
10
0.562500
20
-0.330942
30
0.0
11
0.675000
21
-0.329905
31
0.0
0
LINE
8
FRONT
10
0.675000
20
-0.329905
30
0.0
11
0.787500
21
-0.328868
31
0.0
0
LINE
8
FRONT
10
0.787500
20
-0.328868
30
0.0
11
0.900000
21
-0.327831
31
0.0
0
LINE
8
FRONT
10
0.900000
20
-0.327831
30
0.0
11
1.012500
21
-0.326794
31
0.0
0
LINE
8
FRONT
10
1.012500
20
-0.326794
30
0.0
11
1.125000
21
-0.325757
31
0.0
0
LINE
8
FRONT
10
1.125000
20
-0.325757
30
0.0
11
1.237500
21
-0.324720
31
0.0
0
LINE
8
FRONT
10
1.237500
20
-0.324720
30
0.0
11
1.350000
21
-0.323683
31
0.0
0
LINE
8
FRONT
10
1.350000
20
-0.323683
30
0.0
11
1.462500
21
-0.322646
31
0.0
0
LINE
8
FRONT
10
1.462500
20
-0.322646
30
0.0
11
1.575000
21
-0.321609
31
0.0
0
LINE
8
FRONT
10
1.575000
20
-0.321609
30
0.0
11
1.687500
21
-0.320572
31
0.0
0
LINE
8
FRONT
10
1.687500
20
-0.320572
30
0.0
11
1.800000
21
-0.319535
31
0.0
0
LINE
8
FRONT
10
1.800000
20
-0.319535
30
0.0
11
1.912500
21
-0.318498
31
0.0
0
LINE
8
FRONT
10
1.912500
20
-0.318498
30
0.0
11
2.025000
21
-0.317461
31
0.0
0
LINE
8
FRONT
10
2.025000
20
-0.317461
30
0.0
11
2.137500
21
-0.316424
31
0.0
0
LINE
8
FRONT
10
2.137500
20
-0.316424
30
0.0
11
2.250000
21
-0.315387
31
0.0
0
LINE
8
FRONT
10
2.250000
20
-0.315387
30
0.0
11
2.362500
21
-0.314350
31
0.0
0
LINE
8
FRONT
10
2.362500
20
-0.314350
30
0.0
11
2.475000
21
-0.313313
31
0.0
0
LINE
8
FRONT
10
2.475000
20
-0.313313
30
0.0
11
2.587500
21
-0.312276
31
0.0
0
LINE
8
FRONT
10
2.587500
20
-0.312276
30
0.0
11
2.700000
21
-0.311239
31
0.0
0
LINE
8
FRONT
10
2.700000
20
-0.311239
30
0.0
11
2.812500
21
-0.310202
31
0.0
0
LINE
8
FRONT
10
2.812500
20
-0.310202
30
0.0
11
2.925000
21
-0.309165
31
0.0
0
LINE
8
FRONT
10
2.925000
20
-0.309165
30
0.0
11
3.037500
21
-0.308128
31
0.0
0
LINE
8
FRONT
10
3.037500
20
-0.308128
30
0.0
11
3.150000
21
-0.307091
31
0.0
0
LINE
8
FRONT
10
3.150000
20
-0.307091
30
0.0
11
3.262500
21
-0.306054
31
0.0
0
LINE
8
FRONT
10
3.262500
20
-0.306054
30
0.0
11
3.375000
21
-0.305017
31
0.0
0
LINE
8
FRONT
10
3.375000
20
-0.305017
30
0.0
11
3.487500
21
-0.303980
31
0.0
0
LINE
8
FRONT
10
3.487500
20
-0.303980
30
0.0
11
3.600000
21
-0.302943
31
0.0
0
LINE
8
FRONT
10
3.600000
20
-0.302943
30
0.0
11
3.712500
21
-0.301906
31
0.0
0
LINE
8
FRONT
10
3.712500
20
-0.301906
30
0.0
11
3.825000
21
-0.300869
31
0.0
0
LINE
8
FRONT
10
3.825000
20
-0.300869
30
0.0
11
3.937500
21
-0.299832
31
0.0
0
LINE
8
FRONT
10
3.937500
20
-0.299832
30
0.0
11
4.050000
21
-0.298795
31
0.0
0
LINE
8
FRONT
10
4.050000
20
-0.298795
30
0.0
11
4.162500
21
-0.297758
31
0.0
0
LINE
8
FRONT
10
4.162500
20
-0.297758
30
0.0
11
4.275000
21
-0.296721
31
0.0
0
LINE
8
FRONT
10
4.275000
20
-0.296721
30
0.0
11
4.387500
21
-0.295684
31
0.0
0
LINE
8
FRONT
10
4.387500
20
-0.295684
30
0.0
11
4.500000
21
-0.294647
31
0.0
0
LINE
8
FRONT
10
4.500000
20
-0.294647
30
0.0
11
4.612500
21
-0.298733
31
0.0
0
LINE
8
FRONT
10
4.612500
20
-0.298733
30
0.0
11
4.725000
21
-0.302820
31
0.0
0
LINE
8
FRONT
10
4.725000
20
-0.302820
30
0.0
11
4.837500
21
-0.306907
31
0.0
0
LINE
8
FRONT
10
4.837500
20
-0.306907
30
0.0
11
4.950000
21
-0.310994
31
0.0
0
LINE
8
FRONT
10
4.950000
20
-0.310994
30
0.0
11
5.062500
21
-0.315080
31
0.0
0
LINE
8
FRONT
10
5.062500
20
-0.315080
30
0.0
11
5.175000
21
-0.319167
31
0.0
0
LINE
8
FRONT
10
5.175000
20
-0.319167
30
0.0
11
5.287500
21
-0.323254
31
0.0
0
LINE
8
FRONT
10
5.287500
20
-0.323254
30
0.0
11
5.400000
21
-0.327341
31
0.0
0
LINE
8
FRONT
10
5.400000
20
-0.327341
30
0.0
11
5.512500
21
-0.331427
31
0.0
0
LINE
8
FRONT
10
5.512500
20
-0.331427
30
0.0
11
5.625000
21
-0.335514
31
0.0
0
LINE
8
FRONT
10
5.625000
20
-0.335514
30
0.0
11
5.737500
21
-0.339601
31
0.0
0
LINE
8
FRONT
10
5.737500
20
-0.339601
30
0.0
11
5.850000
21
-0.343688
31
0.0
0
LINE
8
FRONT
10
5.850000
20
-0.343688
30
0.0
11
5.962500
21
-0.347774
31
0.0
0
LINE
8
FRONT
10
5.962500
20
-0.347774
30
0.0
11
6.075000
21
-0.351861
31
0.0
0
LINE
8
FRONT
10
6.075000
20
-0.351861
30
0.0
11
6.187500
21
-0.355948
31
0.0
0
LINE
8
FRONT
10
6.187500
20
-0.355948
30
0.0
11
6.300000
21
-0.360034
31
0.0
0
LINE
8
FRONT
10
6.300000
20
-0.360034
30
0.0
11
6.412500
21
-0.364121
31
0.0
0
LINE
8
FRONT
10
6.412500
20
-0.364121
30
0.0
11
6.525000
21
-0.368208
31
0.0
0
LINE
8
FRONT
10
6.525000
20
-0.368208
30
0.0
11
6.637500
21
-0.372295
31
0.0
0
LINE
8
FRONT
10
6.637500
20
-0.372295
30
0.0
11
6.750000
21
-0.376381
31
0.0
0
LINE
8
FRONT
10
6.750000
20
-0.376381
30
0.0
11
6.862500
21
-0.380468
31
0.0
0
LINE
8
FRONT
10
6.862500
20
-0.380468
30
0.0
11
6.975000
21
-0.384555
31
0.0
0
LINE
8
FRONT
10
6.975000
20
-0.384555
30
0.0
11
7.087500
21
-0.388642
31
0.0
0
LINE
8
FRONT
10
7.087500
20
-0.388642
30
0.0
11
7.200000
21
-0.392728
31
0.0
0
LINE
8
FRONT
10
7.200000
20
-0.392728
30
0.0
11
7.312500
21
-0.396815
31
0.0
0
LINE
8
FRONT
10
7.312500
20
-0.396815
30
0.0
11
7.425000
21
-0.400902
31
0.0
0
LINE
8
FRONT
10
7.425000
20
-0.400902
30
0.0
11
7.537500
21
-0.404989
31
0.0
0
LINE
8
FRONT
10
7.537500
20
-0.404989
30
0.0
11
7.650000
21
-0.409075
31
0.0
0
LINE
8
FRONT
10
7.650000
20
-0.409075
30
0.0
11
7.762500
21
-0.413162
31
0.0
0
LINE
8
FRONT
10
7.762500
20
-0.413162
30
0.0
11
7.875000
21
-0.417249
31
0.0
0
LINE
8
FRONT
10
7.875000
20
-0.417249
30
0.0
11
7.987500
21
-0.421336
31
0.0
0
LINE
8
FRONT
10
7.987500
20
-0.421336
30
0.0
11
8.100000
21
-0.425422
31
0.0
0
LINE
8
FRONT
10
8.100000
20
-0.425422
30
0.0
11
8.212500
21
-0.429509
31
0.0
0
LINE
8
FRONT
10
8.212500
20
-0.429509
30
0.0
11
8.325000
21
-0.433596
31
0.0
0
LINE
8
FRONT
10
8.325000
20
-0.433596
30
0.0
11
8.437500
21
-0.437683
31
0.0
0
LINE
8
FRONT
10
8.437500
20
-0.437683
30
0.0
11
8.500000
21
-0.439953
31
0.0
0
LINE
8
FRONT
10
8.500000
20
-0.439953
30
0.0
11
8.550000
21
-0.441769
31
0.0
0
LINE
8
FRONT
10
8.550000
20
-0.441769
30
0.0
11
8.662500
21
-0.445856
31
0.0
0
LINE
8
FRONT
10
8.662500
20
-0.445856
30
0.0
11
8.775000
21
-0.449943
31
0.0
0
LINE
8
FRONT
10
8.775000
20
-0.449943
30
0.0
11
8.887500
21
-0.454030
31
0.0
0
LINE
8
FRONT
10
8.887500
20
-0.454030
30
0.0
11
9.000000
21
-0.458116
31
0.0
0
LINE
8
FRONT
10
0.000000
20
0.336127
30
0.0
11
0.000000
21
-0.336127
31
0.0
0
LINE
8
FRONT
10
9.000000
20
0.458116
30
0.0
11
9.000000
21
-0.458116
31
0.0
0
LINE
8
TOP
10
0.000000
20
2.290463
30
0.0
11
0.112500
21
2.290579
31
0.0
0
LINE
8
TOP
10
0.112500
20
2.290579
30
0.0
11
0.225000
21
2.290694
31
0.0
0
LINE
8
TOP
10
0.225000
20
2.290694
30
0.0
11
0.337500
21
2.290809
31
0.0
0
LINE
8
TOP
10
0.337500
20
2.290809
30
0.0
11
0.450000
21
2.290924
31
0.0
0
LINE
8
TOP
10
0.450000
20
2.290924
30
0.0
11
0.500000
21
2.290975
31
0.0
0
LINE
8
TOP
10
0.500000
20
2.290975
30
0.0
11
0.562500
21
2.291039
31
0.0
0
LINE
8
TOP
10
0.562500
20
2.291039
30
0.0
11
0.675000
21
2.291154
31
0.0
0
LINE
8
TOP
10
0.675000
20
2.291154
30
0.0
11
0.787500
21
2.291269
31
0.0
0
LINE
8
TOP
10
0.787500
20
2.291269
30
0.0
11
0.900000
21
2.291384
31
0.0
0
LINE
8
TOP
10
0.900000
20
2.291384
30
0.0
11
1.012500
21
2.291499
31
0.0
0
LINE
8
TOP
10
1.012500
20
2.291499
30
0.0
11
1.125000
21
2.291615
31
0.0
0
LINE
8
TOP
10
1.125000
20
2.291615
30
0.0
11
1.237500
21
2.291730
31
0.0
0
LINE
8
TOP
10
1.237500
20
2.291730
30
0.0
11
1.350000
21
2.291845
31
0.0
0
LINE
8
TOP
10
1.350000
20
2.291845
30
0.0
11
1.462500
21
2.291960
31
0.0
0
LINE
8
TOP
10
1.462500
20
2.291960
30
0.0
11
1.575000
21
2.292075
31
0.0
0
LINE
8
TOP
10
1.575000
20
2.292075
30
0.0
11
1.687500
21
2.292190
31
0.0
0
LINE
8
TOP
10
1.687500
20
2.292190
30
0.0
11
1.800000
21
2.292305
31
0.0
0
LINE
8
TOP
10
1.800000
20
2.292305
30
0.0
11
1.912500
21
2.292420
31
0.0
0
LINE
8
TOP
10
1.912500
20
2.292420
30
0.0
11
2.025000
21
2.292535
31
0.0
0
LINE
8
TOP
10
2.025000
20
2.292535
30
0.0
11
2.137500
21
2.292651
31
0.0
0
LINE
8
TOP
10
2.137500
20
2.292651
30
0.0
11
2.250000
21
2.292766
31
0.0
0
LINE
8
TOP
10
2.250000
20
2.292766
30
0.0
11
2.362500
21
2.292881
31
0.0
0
LINE
8
TOP
10
2.362500
20
2.292881
30
0.0
11
2.475000
21
2.292996
31
0.0
0
LINE
8
TOP
10
2.475000
20
2.292996
30
0.0
11
2.587500
21
2.293111
31
0.0
0
LINE
8
TOP
10
2.587500
20
2.293111
30
0.0
11
2.700000
21
2.293226
31
0.0
0
LINE
8
TOP
10
2.700000
20
2.293226
30
0.0
11
2.812500
21
2.293341
31
0.0
0
LINE
8
TOP
10
2.812500
20
2.293341
30
0.0
11
2.925000
21
2.293456
31
0.0
0
LINE
8
TOP
10
2.925000
20
2.293456
30
0.0
11
3.037500
21
2.293572
31
0.0
0
LINE
8
TOP
10
3.037500
20
2.293572
30
0.0
11
3.150000
21
2.293687
31
0.0
0
LINE
8
TOP
10
3.150000
20
2.293687
30
0.0
11
3.262500
21
2.293802
31
0.0
0
LINE
8
TOP
10
3.262500
20
2.293802
30
0.0
11
3.375000
21
2.293917
31
0.0
0
LINE
8
TOP
10
3.375000
20
2.293917
30
0.0
11
3.487500
21
2.294032
31
0.0
0
LINE
8
TOP
10
3.487500
20
2.294032
30
0.0
11
3.600000
21
2.294147
31
0.0
0
LINE
8
TOP
10
3.600000
20
2.294147
30
0.0
11
3.712500
21
2.294262
31
0.0
0
LINE
8
TOP
10
3.712500
20
2.294262
30
0.0
11
3.825000
21
2.294377
31
0.0
0
LINE
8
TOP
10
3.825000
20
2.294377
30
0.0
11
3.937500
21
2.294492
31
0.0
0
LINE
8
TOP
10
3.937500
20
2.294492
30
0.0
11
4.050000
21
2.294608
31
0.0
0
LINE
8
TOP
10
4.050000
20
2.294608
30
0.0
11
4.162500
21
2.294723
31
0.0
0
LINE
8
TOP
10
4.162500
20
2.294723
30
0.0
11
4.275000
21
2.294838
31
0.0
0
LINE
8
TOP
10
4.275000
20
2.294838
30
0.0
11
4.387500
21
2.294953
31
0.0
0
LINE
8
TOP
10
4.387500
20
2.294953
30
0.0
11
4.500000
21
2.295068
31
0.0
0
LINE
8
TOP
10
4.500000
20
2.295068
30
0.0
11
4.612500
21
2.294879
31
0.0
0
LINE
8
TOP
10
4.612500
20
2.294879
30
0.0
11
4.725000
21
2.294689
31
0.0
0
LINE
8
TOP
10
4.725000
20
2.294689
30
0.0
11
4.837500
21
2.294500
31
0.0
0
LINE
8
TOP
10
4.837500
20
2.294500
30
0.0
11
4.950000
21
2.294311
31
0.0
0
LINE
8
TOP
10
4.950000
20
2.294311
30
0.0
11
5.062500
21
2.294121
31
0.0
0
LINE
8
TOP
10
5.062500
20
2.294121
30
0.0
11
5.175000
21
2.293932
31
0.0
0
LINE
8
TOP
10
5.175000
20
2.293932
30
0.0
11
5.287500
21
2.293743
31
0.0
0
LINE
8
TOP
10
5.287500
20
2.293743
30
0.0
11
5.400000
21
2.293553
31
0.0
0
LINE
8
TOP
10
5.400000
20
2.293553
30
0.0
11
5.512500
21
2.293364
31
0.0
0
LINE
8
TOP
10
5.512500
20
2.293364
30
0.0
11
5.625000
21
2.293175
31
0.0
0
LINE
8
TOP
10
5.625000
20
2.293175
30
0.0
11
5.737500
21
2.292985
31
0.0
0
LINE
8
TOP
10
5.737500
20
2.292985
30
0.0
11
5.850000
21
2.292796
31
0.0
0
LINE
8
TOP
10
5.850000
20
2.292796
30
0.0
11
5.962500
21
2.292607
31
0.0
0
LINE
8
TOP
10
5.962500
20
2.292607
30
0.0
11
6.075000
21
2.292417
31
0.0
0
LINE
8
TOP
10
6.075000
20
2.292417
30
0.0
11
6.187500
21
2.292228
31
0.0
0
LINE
8
TOP
10
6.187500
20
2.292228
30
0.0
11
6.300000
21
2.292039
31
0.0
0
LINE
8
TOP
10
6.300000
20
2.292039
30
0.0
11
6.412500
21
2.291849
31
0.0
0
LINE
8
TOP
10
6.412500
20
2.291849
30
0.0
11
6.525000
21
2.291660
31
0.0
0
LINE
8
TOP
10
6.525000
20
2.291660
30
0.0
11
6.637500
21
2.291471
31
0.0
0
LINE
8
TOP
10
6.637500
20
2.291471
30
0.0
11
6.750000
21
2.291281
31
0.0
0
LINE
8
TOP
10
6.750000
20
2.291281
30
0.0
11
6.862500
21
2.291092
31
0.0
0
LINE
8
TOP
10
6.862500
20
2.291092
30
0.0
11
6.975000
21
2.290903
31
0.0
0
LINE
8
TOP
10
6.975000
20
2.290903
30
0.0
11
7.087500
21
2.290713
31
0.0
0
LINE
8
TOP
10
7.087500
20
2.290713
30
0.0
11
7.200000
21
2.290524
31
0.0
0
LINE
8
TOP
10
7.200000
20
2.290524
30
0.0
11
7.312500
21
2.290335
31
0.0
0
LINE
8
TOP
10
7.312500
20
2.290335
30
0.0
11
7.425000
21
2.290145
31
0.0
0
LINE
8
TOP
10
7.425000
20
2.290145
30
0.0
11
7.537500
21
2.289956
31
0.0
0
LINE
8
TOP
10
7.537500
20
2.289956
30
0.0
11
7.650000
21
2.289767
31
0.0
0
LINE
8
TOP
10
7.650000
20
2.289767
30
0.0
11
7.762500
21
2.289577
31
0.0
0
LINE
8
TOP
10
7.762500
20
2.289577
30
0.0
11
7.875000
21
2.289388
31
0.0
0
LINE
8
TOP
10
7.875000
20
2.289388
30
0.0
11
7.987500
21
2.289199
31
0.0
0
LINE
8
TOP
10
7.987500
20
2.289199
30
0.0
11
8.100000
21
2.289009
31
0.0
0
LINE
8
TOP
10
8.100000
20
2.289009
30
0.0
11
8.212500
21
2.288820
31
0.0
0
LINE
8
TOP
10
8.212500
20
2.288820
30
0.0
11
8.325000
21
2.288631
31
0.0
0
LINE
8
TOP
10
8.325000
20
2.288631
30
0.0
11
8.437500
21
2.288441
31
0.0
0
LINE
8
TOP
10
8.437500
20
2.288441
30
0.0
11
8.500000
21
2.288336
31
0.0
0
LINE
8
TOP
10
8.500000
20
2.288336
30
0.0
11
8.550000
21
2.288252
31
0.0
0
LINE
8
TOP
10
8.550000
20
2.288252
30
0.0
11
8.662500
21
2.288063
31
0.0
0
LINE
8
TOP
10
8.662500
20
2.288063
30
0.0
11
8.775000
21
2.287874
31
0.0
0
LINE
8
TOP
10
8.775000
20
2.287874
30
0.0
11
8.887500
21
2.287684
31
0.0
0
LINE
8
TOP
10
8.887500
20
2.287684
30
0.0
11
9.000000
21
2.287495
31
0.0
0
LINE
8
TOP
10
0.000000
20
1.958234
30
0.0
11
0.112500
21
1.958119
31
0.0
0
LINE
8
TOP
10
0.112500
20
1.958119
30
0.0
11
0.225000
21
1.958004
31
0.0
0
LINE
8
TOP
10
0.225000
20
1.958004
30
0.0
11
0.337500
21
1.957889
31
0.0
0
LINE
8
TOP
10
0.337500
20
1.957889
30
0.0
11
0.450000
21
1.957774
31
0.0
0
LINE
8
TOP
10
0.450000
20
1.957774
30
0.0
11
0.500000
21
1.957723
31
0.0
0
LINE
8
TOP
10
0.500000
20
1.957723
30
0.0
11
0.562500
21
1.957659
31
0.0
0
LINE
8
TOP
10
0.562500
20
1.957659
30
0.0
11
0.675000
21
1.957544
31
0.0
0
LINE
8
TOP
10
0.675000
20
1.957544
30
0.0
11
0.787500
21
1.957428
31
0.0
0
LINE
8
TOP
10
0.787500
20
1.957428
30
0.0
11
0.900000
21
1.957313
31
0.0
0
LINE
8
TOP
10
0.900000
20
1.957313
30
0.0
11
1.012500
21
1.957198
31
0.0
0
LINE
8
TOP
10
1.012500
20
1.957198
30
0.0
11
1.125000
21
1.957083
31
0.0
0
LINE
8
TOP
10
1.125000
20
1.957083
30
0.0
11
1.237500
21
1.956968
31
0.0
0
LINE
8
TOP
10
1.237500
20
1.956968
30
0.0
11
1.350000
21
1.956853
31
0.0
0
LINE
8
TOP
10
1.350000
20
1.956853
30
0.0
11
1.462500
21
1.956738
31
0.0
0
LINE
8
TOP
10
1.462500
20
1.956738
30
0.0
11
1.575000
21
1.956623
31
0.0
0
LINE
8
TOP
10
1.575000
20
1.956623
30
0.0
11
1.687500
21
1.956508
31
0.0
0
LINE
8
TOP
10
1.687500
20
1.956508
30
0.0
11
1.800000
21
1.956392
31
0.0
0
LINE
8
TOP
10
1.800000
20
1.956392
30
0.0
11
1.912500
21
1.956277
31
0.0
0
LINE
8
TOP
10
1.912500
20
1.956277
30
0.0
11
2.025000
21
1.956162
31
0.0
0
LINE
8
TOP
10
2.025000
20
1.956162
30
0.0
11
2.137500
21
1.956047
31
0.0
0
LINE
8
TOP
10
2.137500
20
1.956047
30
0.0
11
2.250000
21
1.955932
31
0.0
0
LINE
8
TOP
10
2.250000
20
1.955932
30
0.0
11
2.362500
21
1.955817
31
0.0
0
LINE
8
TOP
10
2.362500
20
1.955817
30
0.0
11
2.475000
21
1.955702
31
0.0
0
LINE
8
TOP
10
2.475000
20
1.955702
30
0.0
11
2.587500
21
1.955587
31
0.0
0
LINE
8
TOP
10
2.587500
20
1.955587
30
0.0
11
2.700000
21
1.955472
31
0.0
0
LINE
8
TOP
10
2.700000
20
1.955472
30
0.0
11
2.812500
21
1.955356
31
0.0
0
LINE
8
TOP
10
2.812500
20
1.955356
30
0.0
11
2.925000
21
1.955241
31
0.0
0
LINE
8
TOP
10
2.925000
20
1.955241
30
0.0
11
3.037500
21
1.955126
31
0.0
0
LINE
8
TOP
10
3.037500
20
1.955126
30
0.0
11
3.150000
21
1.955011
31
0.0
0
LINE
8
TOP
10
3.150000
20
1.955011
30
0.0
11
3.262500
21
1.954896
31
0.0
0
LINE
8
TOP
10
3.262500
20
1.954896
30
0.0
11
3.375000
21
1.954781
31
0.0
0
LINE
8
TOP
10
3.375000
20
1.954781
30
0.0
11
3.487500
21
1.954666
31
0.0
0
LINE
8
TOP
10
3.487500
20
1.954666
30
0.0
11
3.600000
21
1.954551
31
0.0
0
LINE
8
TOP
10
3.600000
20
1.954551
30
0.0
11
3.712500
21
1.954436
31
0.0
0
LINE
8
TOP
10
3.712500
20
1.954436
30
0.0
11
3.825000
21
1.954320
31
0.0
0
LINE
8
TOP
10
3.825000
20
1.954320
30
0.0
11
3.937500
21
1.954205
31
0.0
0
LINE
8
TOP
10
3.937500
20
1.954205
30
0.0
11
4.050000
21
1.954090
31
0.0
0
LINE
8
TOP
10
4.050000
20
1.954090
30
0.0
11
4.162500
21
1.953975
31
0.0
0
LINE
8
TOP
10
4.162500
20
1.953975
30
0.0
11
4.275000
21
1.953860
31
0.0
0
LINE
8
TOP
10
4.275000
20
1.953860
30
0.0
11
4.387500
21
1.953745
31
0.0
0
LINE
8
TOP
10
4.387500
20
1.953745
30
0.0
11
4.500000
21
1.953630
31
0.0
0
LINE
8
TOP
10
4.500000
20
1.953630
30
0.0
11
4.612500
21
1.953819
31
0.0
0
LINE
8
TOP
10
4.612500
20
1.953819
30
0.0
11
4.725000
21
1.954008
31
0.0
0
LINE
8
TOP
10
4.725000
20
1.954008
30
0.0
11
4.837500
21
1.954198
31
0.0
0
LINE
8
TOP
10
4.837500
20
1.954198
30
0.0
11
4.950000
21
1.954387
31
0.0
0
LINE
8
TOP
10
4.950000
20
1.954387
30
0.0
11
5.062500
21
1.954576
31
0.0
0
LINE
8
TOP
10
5.062500
20
1.954576
30
0.0
11
5.175000
21
1.954766
31
0.0
0
LINE
8
TOP
10
5.175000
20
1.954766
30
0.0
11
5.287500
21
1.954955
31
0.0
0
LINE
8
TOP
10
5.287500
20
1.954955
30
0.0
11
5.400000
21
1.955144
31
0.0
0
LINE
8
TOP
10
5.400000
20
1.955144
30
0.0
11
5.512500
21
1.955334
31
0.0
0
LINE
8
TOP
10
5.512500
20
1.955334
30
0.0
11
5.625000
21
1.955523
31
0.0
0
LINE
8
TOP
10
5.625000
20
1.955523
30
0.0
11
5.737500
21
1.955712
31
0.0
0
LINE
8
TOP
10
5.737500
20
1.955712
30
0.0
11
5.850000
21
1.955902
31
0.0
0
LINE
8
TOP
10
5.850000
20
1.955902
30
0.0
11
5.962500
21
1.956091
31
0.0
0
LINE
8
TOP
10
5.962500
20
1.956091
30
0.0
11
6.075000
21
1.956280
31
0.0
0
LINE
8
TOP
10
6.075000
20
1.956280
30
0.0
11
6.187500
21
1.956470
31
0.0
0
LINE
8
TOP
10
6.187500
20
1.956470
30
0.0
11
6.300000
21
1.956659
31
0.0
0
LINE
8
TOP
10
6.300000
20
1.956659
30
0.0
11
6.412500
21
1.956848
31
0.0
0
LINE
8
TOP
10
6.412500
20
1.956848
30
0.0
11
6.525000
21
1.957038
31
0.0
0
LINE
8
TOP
10
6.525000
20
1.957038
30
0.0
11
6.637500
21
1.957227
31
0.0
0
LINE
8
TOP
10
6.637500
20
1.957227
30
0.0
11
6.750000
21
1.957416
31
0.0
0
LINE
8
TOP
10
6.750000
20
1.957416
30
0.0
11
6.862500
21
1.957606
31
0.0
0
LINE
8
TOP
10
6.862500
20
1.957606
30
0.0
11
6.975000
21
1.957795
31
0.0
0
LINE
8
TOP
10
6.975000
20
1.957795
30
0.0
11
7.087500
21
1.957984
31
0.0
0
LINE
8
TOP
10
7.087500
20
1.957984
30
0.0
11
7.200000
21
1.958174
31
0.0
0
LINE
8
TOP
10
7.200000
20
1.958174
30
0.0
11
7.312500
21
1.958363
31
0.0
0
LINE
8
TOP
10
7.312500
20
1.958363
30
0.0
11
7.425000
21
1.958552
31
0.0
0
LINE
8
TOP
10
7.425000
20
1.958552
30
0.0
11
7.537500
21
1.958742
31
0.0
0
LINE
8
TOP
10
7.537500
20
1.958742
30
0.0
11
7.650000
21
1.958931
31
0.0
0
LINE
8
TOP
10
7.650000
20
1.958931
30
0.0
11
7.762500
21
1.959120
31
0.0
0
LINE
8
TOP
10
7.762500
20
1.959120
30
0.0
11
7.875000
21
1.959310
31
0.0
0
LINE
8
TOP
10
7.875000
20
1.959310
30
0.0
11
7.987500
21
1.959499
31
0.0
0
LINE
8
TOP
10
7.987500
20
1.959499
30
0.0
11
8.100000
21
1.959688
31
0.0
0
LINE
8
TOP
10
8.100000
20
1.959688
30
0.0
11
8.212500
21
1.959878
31
0.0
0
LINE
8
TOP
10
8.212500
20
1.959878
30
0.0
11
8.325000
21
1.960067
31
0.0
0
LINE
8
TOP
10
8.325000
20
1.960067
30
0.0
11
8.437500
21
1.960256
31
0.0
0
LINE
8
TOP
10
8.437500
20
1.960256
30
0.0
11
8.500000
21
1.960361
31
0.0
0
LINE
8
TOP
10
8.500000
20
1.960361
30
0.0
11
8.550000
21
1.960446
31
0.0
0
LINE
8
TOP
10
8.550000
20
1.960446
30
0.0
11
8.662500
21
1.960635
31
0.0
0
LINE
8
TOP
10
8.662500
20
1.960635
30
0.0
11
8.775000
21
1.960824
31
0.0
0
LINE
8
TOP
10
8.775000
20
1.960824
30
0.0
11
8.887500
21
1.961014
31
0.0
0
LINE
8
TOP
10
8.887500
20
1.961014
30
0.0
11
9.000000
21
1.961203
31
0.0
0
LINE
8
TOP
10
0.000000
20
2.290463
30
0.0
11
0.000000
21
1.958234
31
0.0
0
LINE
8
TOP
10
9.000000
20
2.287495
30
0.0
11
9.000000
21
1.961203
31
0.0
0
LINE
8
SECTION
10
10.329281
20
-0.294647
30
0.0
11
10.670719
21
-0.294647
31
0.0
0
LINE
8
SECTION
10
10.670719
20
-0.294647
30
0.0
11
10.670719
21
0.294647
31
0.0
0
LINE
8
SECTION
10
10.670719
20
0.294647
30
0.0
11
10.329281
21
0.294647
31
0.0
0
LINE
8
SECTION
10
10.329281
20
0.294647
30
0.0
11
10.329281
21
-0.294647
31
0.0
0
LINE
8
SECTION
10
10.404432
20
-0.219495
30
0.0
11
10.595568
21
-0.219495
31
0.0
0
LINE
8
SECTION
10
10.595568
20
-0.219495
30
0.0
11
10.595568
21
0.219495
31
0.0
0
LINE
8
SECTION
10
10.595568
20
0.219495
30
0.0
11
10.404432
21
0.219495
31
0.0
0
LINE
8
SECTION
10
10.404432
20
0.219495
30
0.0
11
10.404432
21
-0.219495
31
0.0
0
LINE
8
SECTION
10
10.404432
20
0.000000
30
0.0
11
10.479583
21
0.000000
31
0.0
0
LINE
8
SECTION
10
10.479583
20
0.000000
30
0.0
11
10.479583
21
0.219495
31
0.0
0
LINE
8
SECTION
10
10.479583
20
0.219495
30
0.0
11
10.404432
21
0.219495
31
0.0
0
LINE
8
SECTION
10
10.404432
20
0.219495
30
0.0
11
10.404432
21
0.000000
31
0.0
0
LINE
8
SECTION
10
10.404432
20
-0.219495
30
0.0
11
10.479583
21
-0.219495
31
0.0
0
LINE
8
SECTION
10
10.479583
20
-0.219495
30
0.0
11
10.479583
21
0.000000
31
0.0
0
LINE
8
SECTION
10
10.479583
20
0.000000
30
0.0
11
10.404432
21
0.000000
31
0.0
0
LINE
8
SECTION
10
10.404432
20
0.000000
30
0.0
11
10.404432
21
-0.219495
31
0.0
0
LINE
8
SECTION
10
10.520417
20
0.000000
30
0.0
11
10.595568
21
0.000000
31
0.0
0
LINE
8
SECTION
10
10.595568
20
0.000000
30
0.0
11
10.595568
21
0.219495
31
0.0
0
LINE
8
SECTION
10
10.595568
20
0.219495
30
0.0
11
10.520417
21
0.219495
31
0.0
0
LINE
8
SECTION
10
10.520417
20
0.219495
30
0.0
11
10.520417
21
0.000000
31
0.0
0
LINE
8
SECTION
10
10.520417
20
-0.219495
30
0.0
11
10.595568
21
-0.219495
31
0.0
0
LINE
8
SECTION
10
10.595568
20
-0.219495
30
0.0
11
10.595568
21
0.000000
31
0.0
0
LINE
8
SECTION
10
10.595568
20
0.000000
30
0.0
11
10.520417
21
0.000000
31
0.0
0
LINE
8
SECTION
10
10.520417
20
0.000000
30
0.0
11
10.520417
21
-0.219495
31
0.0
0
ENDSEC
0
EOF
