0
SECTION
2
HEADER
9
$INSUNITS
70
1
0
ENDSEC
0
SECTION
2
ENTITIES
0
LINE
8
FRONT
10
0.000000
20
0.227197
30
0.0
11
0.112500
21
0.229597
31
0.0
0
LINE
8
FRONT
10
0.112500
20
0.229597
30
0.0
11
0.225000
21
0.231998
31
0.0
0
LINE
8
FRONT
10
0.225000
20
0.231998
30
0.0
11
0.337500
21
0.234398
31
0.0
0
LINE
8
FRONT
10
0.337500
20
0.234398
30
0.0
11
0.450000
21
0.236799
31
0.0
0
LINE
8
FRONT
10
0.450000
20
0.236799
30
0.0
11
0.500000
21
0.237866
31
0.0
0
LINE
8
FRONT
10
0.500000
20
0.237866
30
0.0
11
0.562500
21
0.239199
31
0.0
0
LINE
8
FRONT
10
0.562500
20
0.239199
30
0.0
11
0.675000
21
0.241600
31
0.0
0
LINE
8
FRONT
10
0.675000
20
0.241600
30
0.0
11
0.787500
21
0.244000
31
0.0
0
LINE
8
FRONT
10
0.787500
20
0.244000
30
0.0
11
0.900000
21
0.246401
31
0.0
0
LINE
8
FRONT
10
0.900000
20
0.246401
30
0.0
11
1.012500
21
0.248801
31
0.0
0
LINE
8
FRONT
10
1.012500
20
0.248801
30
0.0
11
1.125000
21
0.251202
31
0.0
0
LINE
8
FRONT
10
1.125000
20
0.251202
30
0.0
11
1.237500
21
0.253602
31
0.0
0
LINE
8
FRONT
10
1.237500
20
0.253602
30
0.0
11
1.350000
21
0.256003
31
0.0
0
LINE
8
FRONT
10
1.350000
20
0.256003
30
0.0
11
1.462500
21
0.258404
31
0.0
0
LINE
8
FRONT
10
1.462500
20
0.258404
30
0.0
11
1.575000
21
0.260804
31
0.0
0
LINE
8
FRONT
10
1.575000
20
0.260804
30
0.0
11
1.687500
21
0.263205
31
0.0
0
LINE
8
FRONT
10
1.687500
20
0.263205
30
0.0
11
1.800000
21
0.265605
31
0.0
0
LINE
8
FRONT
10
1.800000
20
0.265605
30
0.0
11
1.912500
21
0.268006
31
0.0
0
LINE
8
FRONT
10
1.912500
20
0.268006
30
0.0
11
2.025000
21
0.270406
31
0.0
0
LINE
8
FRONT
10
2.025000
20
0.270406
30
0.0
11
2.137500
21
0.272807
31
0.0
0
LINE
8
FRONT
10
2.137500
20
0.272807
30
0.0
11
2.250000
21
0.275207
31
0.0
0
LINE
8
FRONT
10
2.250000
20
0.275207
30
0.0
11
2.362500
21
0.277608
31
0.0
0
LINE
8
FRONT
10
2.362500
20
0.277608
30
0.0
11
2.475000
21
0.280008
31
0.0
0
LINE
8
FRONT
10
2.475000
20
0.280008
30
0.0
11
2.587500
21
0.282409
31
0.0
0
LINE
8
FRONT
10
2.587500
20
0.282409
30
0.0
11
2.700000
21
0.284809
31
0.0
0
LINE
8
FRONT
10
2.700000
20
0.284809
30
0.0
11
2.812500
21
0.287210
31
0.0
0
LINE
8
FRONT
10
2.812500
20
0.287210
30
0.0
11
2.925000
21
0.289610
31
0.0
0
LINE
8
FRONT
10
2.925000
20
0.289610
30
0.0
11
3.037500
21
0.292011
31
0.0
0
LINE
8
FRONT
10
3.037500
20
0.292011
30
0.0
11
3.150000
21
0.294411
31
0.0
0
LINE
8
FRONT
10
3.150000
20
0.294411
30
0.0
11
3.262500
21
0.296812
31
0.0
0
LINE
8
FRONT
10
3.262500
20
0.296812
30
0.0
11
3.375000
21
0.299213
31
0.0
0
LINE
8
FRONT
10
3.375000
20
0.299213
30
0.0
11
3.487500
21
0.301613
31
0.0
0
LINE
8
FRONT
10
3.487500
20
0.301613
30
0.0
11
3.600000
21
0.304014
31
0.0
0
LINE
8
FRONT
10
3.600000
20
0.304014
30
0.0
11
3.712500
21
0.306414
31
0.0
0
LINE
8
FRONT
10
3.712500
20
0.306414
30
0.0
11
3.825000
21
0.308815
31
0.0
0
LINE
8
FRONT
10
3.825000
20
0.308815
30
0.0
11
3.937500
21
0.311215
31
0.0
0
LINE
8
FRONT
10
3.937500
20
0.311215
30
0.0
11
4.050000
21
0.313616
31
0.0
0
LINE
8
FRONT
10
4.050000
20
0.313616
30
0.0
11
4.162500
21
0.316016
31
0.0
0
LINE
8
FRONT
10
4.162500
20
0.316016
30
0.0
11
4.275000
21
0.318417
31
0.0
0
LINE
8
FRONT
10
4.275000
20
0.318417
30
0.0
11
4.387500
21
0.320817
31
0.0
0
LINE
8
FRONT
10
4.387500
20
0.320817
30
0.0
11
4.500000
21
0.323218
31
0.0
0
LINE
8
FRONT
10
4.500000
20
0.323218
30
0.0
11
4.612500
21
0.320817
31
0.0
0
LINE
8
FRONT
10
4.612500
20
0.320817
30
0.0
11
4.725000
21
0.318417
31
0.0
0
LINE
8
FRONT
10
4.725000
20
0.318417
30
0.0
11
4.837500
21
0.316016
31
0.0
0
LINE
8
FRONT
10
4.837500
20
0.316016
30
0.0
11
4.950000
21
0.313616
31
0.0
0
LINE
8
FRONT
10
4.950000
20
0.313616
30
0.0
11
5.062500
21
0.311215
31
0.0
0
LINE
8
FRONT
10
5.062500
20
0.311215
30
0.0
11
5.175000
21
0.308815
31
0.0
0
LINE
8
FRONT
10
5.175000
20
0.308815
30
0.0
11
5.287500
21
0.306414
31
0.0
0
LINE
8
FRONT
10
5.287500
20
0.306414
30
0.0
11
5.400000
21
0.304014
31
0.0
0
LINE
8
FRONT
10
5.400000
20
0.304014
30
0.0
11
5.512500
21
0.301613
31
0.0
0
LINE
8
FRONT
10
5.512500
20
0.301613
30
0.0
11
5.625000
21
0.299213
31
0.0
0
LINE
8
FRONT
10
5.625000
20
0.299213
30
0.0
11
5.737500
21
0.296812
31
0.0
0
LINE
8
FRONT
10
5.737500
20
0.296812
30
0.0
11
5.850000
21
0.294411
31
0.0
0
LINE
8
FRONT
10
5.850000
20
0.294411
30
0.0
11
5.962500
21
0.292011
31
0.0
0
LINE
8
FRONT
10
5.962500
20
0.292011
30
0.0
11
6.075000
21
0.289610
31
0.0
0
LINE
8
FRONT
10
6.075000
20
0.289610
30
0.0
11
6.187500
21
0.287210
31
0.0
0
LINE
8
FRONT
10
6.187500
20
0.287210
30
0.0
11
6.300000
21
0.284809
31
0.0
0
LINE
8
FRONT
10
6.300000
20
0.284809
30
0.0
11
6.412500
21
0.282409
31
0.0
0
LINE
8
FRONT
10
6.412500
20
0.282409
30
0.0
11
6.525000
21
0.280008
31
0.0
0
LINE
8
FRONT
10
6.525000
20
0.280008
30
0.0
11
6.637500
21
0.277608
31
0.0
0
LINE
8
FRONT
10
6.637500
20
0.277608
30
0.0
11
6.750000
21
0.275207
31
0.0
0
LINE
8
FRONT
10
6.750000
20
0.275207
30
0.0
11
6.862500
21
0.272807
31
0.0
0
LINE
8
FRONT
10
6.862500
20
0.272807
30
0.0
11
6.975000
21
0.270406
31
0.0
0
LINE
8
FRONT
10
6.975000
20
0.270406
30
0.0
11
7.087500
21
0.268006
31
0.0
0
LINE
8
FRONT
10
7.087500
20
0.268006
30
0.0
11
7.200000
21
0.265605
31
0.0
0
LINE
8
FRONT
10
7.200000
20
0.265605
30
0.0
11
7.312500
21
0.263205
31
0.0
0
LINE
8
FRONT
10
7.312500
20
0.263205
30
0.0
11
7.425000
21
0.260804
31
0.0
0
LINE
8
FRONT
10
7.425000
20
0.260804
30
0.0
11
7.537500
21
0.258404
31
0.0
0
LINE
8
FRONT
10
7.537500
20
0.258404
30
0.0
11
7.650000
21
0.256003
31
0.0
0
LINE
8
FRONT
10
7.650000
20
0.256003
30
0.0
11
7.762500
21
0.253602
31
0.0
0
LINE
8
FRONT
10
7.762500
20
0.253602
30
0.0
11
7.875000
21
0.251202
31
0.0
0
LINE
8
FRONT
10
7.875000
20
0.251202
30
0.0
11
7.987500
21
0.248801
31
0.0
0
LINE
8
FRONT
10
7.987500
20
0.248801
30
0.0
11
8.100000
21
0.246401
31
0.0
0
LINE
8
FRONT
10
8.100000
20
0.246401
30
0.0
11
8.212500
21
0.244000
31
0.0
0
LINE
8
FRONT
10
8.212500
20
0.244000
30
0.0
11
8.325000
21
0.241600
31
0.0
0
LINE
8
FRONT
10
8.325000
20
0.241600
30
0.0
11
8.437500
21
0.239199
31
0.0
0
LINE
8
FRONT
10
8.437500
20
0.239199
30
0.0
11
8.500000
21
0.237866
31
0.0
0
LINE
8
FRONT
10
8.500000
20
0.237866
30
0.0
11
8.550000
21
0.236799
31
0.0
0
LINE
8
FRONT
10
8.550000
20
0.236799
30
0.0
11
8.662500
21
0.234398
31
0.0
0
LINE
8
FRONT
10
8.662500
20
0.234398
30
0.0
11
8.775000
21
0.231998
31
0.0
0
LINE
8
FRONT
10
8.775000
20
0.231998
30
0.0
11
8.887500
21
0.229597
31
0.0
0
LINE
8
FRONT
10
8.887500
20
0.229597
30
0.0
11
9.000000
21
0.227197
31
0.0
0
LINE
8
FRONT
10
0.000000
20
-0.227197
30
0.0
11
0.112500
21
-0.229597
31
0.0
0
LINE
8
FRONT
10
0.112500
20
-0.229597
30
0.0
11
0.225000
21
-0.231998
31
0.0
0
LINE
8
FRONT
10
0.225000
20
-0.231998
30
0.0
11
0.337500
21
-0.234398
31
0.0
0
LINE
8
FRONT
10
0.337500
20
-0.234398
30
0.0
11
0.450000
21
-0.236799
31
0.0
0
LINE
8
FRONT
10
0.450000
20
-0.236799
30
0.0
11
0.500000
21
-0.237866
31
0.0
0
LINE
8
FRONT
10
0.500000
20
-0.237866
30
0.0
11
0.562500
21
-0.239199
31
0.0
0
LINE
8
FRONT
10
0.562500
20
-0.239199
30
0.0
11
0.675000
21
-0.241600
31
0.0
0
LINE
8
FRONT
10
0.675000
20
-0.241600
30
0.0
11
0.787500
21
-0.244000
31
0.0
0
LINE
8
FRONT
10
0.787500
20
-0.244000
30
0.0
11
0.900000
21
-0.246401
31
0.0
0
LINE
8
FRONT
10
0.900000
20
-0.246401
30
0.0
11
1.012500
21
-0.248801
31
0.0
0
LINE
8
FRONT
10
1.012500
20
-0.248801
30
0.0
11
1.125000
21
-0.251202
31
0.0
0
LINE
8
FRONT
10
1.125000
20
-0.251202
30
0.0
11
1.237500
21
-0.253602
31
0.0
0
LINE
8
FRONT
10
1.237500
20
-0.253602
30
0.0
11
1.350000
21
-0.256003
31
0.0
0
LINE
8
FRONT
10
1.350000
20
-0.256003
30
0.0
11
1.462500
21
-0.258404
31
0.0
0
LINE
8
FRONT
10
1.462500
20
-0.258404
30
0.0
11
1.575000
21
-0.260804
31
0.0
0
LINE
8
FRONT
10
1.575000
20
-0.260804
30
0.0
11
1.687500
21
-0.263205
31
0.0
0
LINE
8
FRONT
10
1.687500
20
-0.263205
30
0.0
11
1.800000
21
-0.265605
31
0.0
0
LINE
8
FRONT
10
1.800000
20
-0.265605
30
0.0
11
1.912500
21
-0.268006
31
0.0
0
LINE
8
FRONT
10
1.912500
20
-0.268006
30
0.0
11
2.025000
21
-0.270406
31
0.0
0
LINE
8
FRONT
10
2.025000
20
-0.270406
30
0.0
11
2.137500
21
-0.272807
31
0.0
0
LINE
8
FRONT
10
2.137500
20
-0.272807
30
0.0
11
2.250000
21
-0.275207
31
0.0
0
LINE
8
FRONT
10
2.250000
20
-0.275207
30
0.0
11
2.362500
21
-0.277608
31
0.0
0
LINE
8
FRONT
10
2.362500
20
-0.277608
30
0.0
11
2.475000
21
-0.280008
31
0.0
0
LINE
8
FRONT
10
2.475000
20
-0.280008
30
0.0
11
2.587500
21
-0.282409
31
0.0
0
LINE
8
FRONT
10
2.587500
20
-0.282409
30
0.0
11
2.700000
21
-0.284809
31
0.0
0
LINE
8
FRONT
10
2.700000
20
-0.284809
30
0.0
11
2.812500
21
-0.287210
31
0.0
0
LINE
8
FRONT
10
2.812500
20
-0.287210
30
0.0
11
2.925000
21
-0.289610
31
0.0
0
LINE
8
FRONT
10
2.925000
20
-0.289610
30
0.0
11
3.037500
21
-0.292011
31
0.0
0
LINE
8
FRONT
10
3.037500
20
-0.292011
30
0.0
11
3.150000
21
-0.294411
31
0.0
0
LINE
8
FRONT
10
3.150000
20
-0.294411
30
0.0
11
3.262500
21
-0.296812
31
0.0
0
LINE
8
FRONT
10
3.262500
20
-0.296812
30
0.0
11
3.375000
21
-0.299213
31
0.0
0
LINE
8
FRONT
10
3.375000
20
-0.299213
30
0.0
11
3.487500
21
-0.301613
31
0.0
0
LINE
8
FRONT
10
3.487500
20
-0.301613
30
0.0
11
3.600000
21
-0.304014
31
0.0
0
LINE
8
FRONT
10
3.600000
20
-0.304014
30
0.0
11
3.712500
21
-0.306414
31
0.0
0
LINE
8
FRONT
10
3.712500
20
-0.306414
30
0.0
11
3.825000
21
-0.308815
31
0.0
0
LINE
8
FRONT
10
3.825000
20
-0.308815
30
0.0
11
3.937500
21
-0.311215
31
0.0
0
LINE
8
FRONT
10
3.937500
20
-0.311215
30
0.0
11
4.050000
21
-0.313616
31
0.0
0
LINE
8
FRONT
10
4.050000
20
-0.313616
30
0.0
11
4.162500
21
-0.316016
31
0.0
0
LINE
8
FRONT
10
4.162500
20
-0.316016
30
0.0
11
4.275000
21
-0.318417
31
0.0
0
LINE
8
FRONT
10
4.275000
20
-0.318417
30
0.0
11
4.387500
21
-0.320817
31
0.0
0
LINE
8
FRONT
10
4.387500
20
-0.320817
30
0.0
11
4.500000
21
-0.323218
31
0.0
0
LINE
8
FRONT
10
4.500000
20
-0.323218
30
0.0
11
4.612500
21
-0.320817
31
0.0
0
LINE
8
FRONT
10
4.612500
20
-0.320817
30
0.0
11
4.725000
21
-0.318417
31
0.0
0
LINE
8
FRONT
10
4.725000
20
-0.318417
30
0.0
11
4.837500
21
-0.316016
31
0.0
0
LINE
8
FRONT
10
4.837500
20
-0.316016
30
0.0
11
4.950000
21
-0.313616
31
0.0
0
LINE
8
FRONT
10
4.950000
20
-0.313616
30
0.0
11
5.062500
21
-0.311215
31
0.0
0
LINE
8
FRONT
10
5.062500
20
-0.311215
30
0.0
11
5.175000
21
-0.308815
31
0.0
0
LINE
8
FRONT
10
5.175000
20
-0.308815
30
0.0
11
5.287500
21
-0.306414
31
0.0
0
LINE
8
FRONT
10
5.287500
20
-0.306414
30
0.0
11
5.400000
21
-0.304014
31
0.0
0
LINE
8
FRONT
10
5.400000
20
-0.304014
30
0.0
11
5.512500
21
-0.301613
31
0.0
0
LINE
8
FRONT
10
5.512500
20
-0.301613
30
0.0
11
5.625000
21
-0.299213
31
0.0
0
LINE
8
FRONT
10
5.625000
20
-0.299213
30
0.0
11
5.737500
21
-0.296812
31
0.0
0
LINE
8
FRONT
10
5.737500
20
-0.296812
30
0.0
11
5.850000
21
-0.294411
31
0.0
0
LINE
8
FRONT
10
5.850000
20
-0.294411
30
0.0
11
5.962500
21
-0.292011
31
0.0
0
LINE
8
FRONT
10
5.962500
20
-0.292011
30
0.0
11
6.075000
21
-0.289610
31
0.0
0
LINE
8
FRONT
10
6.075000
20
-0.289610
30
0.0
11
6.187500
21
-0.287210
31
0.0
0
LINE
8
FRONT
10
6.187500
20
-0.287210
30
0.0
11
6.300000
21
-0.284809
31
0.0
0
LINE
8
FRONT
10
6.300000
20
-0.284809
30
0.0
11
6.412500
21
-0.282409
31
0.0
0
LINE
8
FRONT
10
6.412500
20
-0.282409
30
0.0
11
6.525000
21
-0.280008
31
0.0
0
LINE
8
FRONT
10
6.525000
20
-0.280008
30
0.0
11
6.637500
21
-0.277608
31
0.0
0
LINE
8
FRONT
10
6.637500
20
-0.277608
30
0.0
11
6.750000
21
-0.275207
31
0.0
0
LINE
8
FRONT
10
6.750000
20
-0.275207
30
0.0
11
6.862500
21
-0.272807
31
0.0
0
LINE
8
FRONT
10
6.862500
20
-0.272807
30
0.0
11
6.975000
21
-0.270406
31
0.0
0
LINE
8
FRONT
10
6.975000
20
-0.270406
30
0.0
11
7.087500
21
-0.268006
31
0.0
0
LINE
8
FRONT
10
7.087500
20
-0.268006
30
0.0
11
7.200000
21
-0.265605
31
0.0
0
LINE
8
FRONT
10
7.200000
20
-0.265605
30
0.0
11
7.312500
21
-0.263205
31
0.0
0
LINE
8
FRONT
10
7.312500
20
-0.263205
30
0.0
11
7.425000
21
-0.260804
31
0.0
0
LINE
8
FRONT
10
7.425000
20
-0.260804
30
0.0
11
7.537500
21
-0.258404
31
0.0
0
LINE
8
FRONT
10
7.537500
20
-0.258404
30
0.0
11
7.650000
21
-0.256003
31
0.0
0
LINE
8
FRONT
10
7.650000
20
-0.256003
30
0.0
11
7.762500
21
-0.253602
31
0.0
0
LINE
8
FRONT
10
7.762500
20
-0.253602
30
0.0
11
7.875000
21
-0.251202
31
0.0
0
LINE
8
FRONT
10
7.875000
20
-0.251202
30
0.0
11
7.987500
21
-0.248801
31
0.0
0
LINE
8
FRONT
10
7.987500
20
-0.248801
30
0.0
11
8.100000
21
-0.246401
31
0.0
0
LINE
8
FRONT
10
8.100000
20
-0.246401
30
0.0
11
8.212500
21
-0.244000
31
0.0
0
LINE
8
FRONT
10
8.212500
20
-0.244000
30
0.0
11
8.325000
21
-0.241600
31
0.0
0
LINE
8
FRONT
10
8.325000
20
-0.241600
30
0.0
11
8.437500
21
-0.239199
31
0.0
0
LINE
8
FRONT
10
8.437500
20
-0.239199
30
0.0
11
8.500000
21
-0.237866
31
0.0
0
LINE
8
FRONT
10
8.500000
20
-0.237866
30
0.0
11
8.550000
21
-0.236799
31
0.0
0
LINE
8
FRONT
10
8.550000
20
-0.236799
30
0.0
11
8.662500
21
-0.234398
31
0.0
0
LINE
8
FRONT
10
8.662500
20
-0.234398
30
0.0
11
8.775000
21
-0.231998
31
0.0
0
LINE
8
FRONT
10
8.775000
20
-0.231998
30
0.0
11
8.887500
21
-0.229597
31
0.0
0
LINE
8
FRONT
10
8.887500
20
-0.229597
30
0.0
11
9.000000
21
-0.227197
31
0.0
0
LINE
8
FRONT
10
0.000000
20
0.227197
30
0.0
11
0.000000
21
-0.227197
31
0.0
0
LINE
8
FRONT
10
9.000000
20
0.227197
30
0.0
11
9.000000
21
-0.227197
31
0.0
0
LINE
8
TOP
10
0.000000
20
1.819653
30
0.0
11
0.112500
21
1.823614
31
0.0
0
LINE
8
TOP
10
0.112500
20
1.823614
30
0.0
11
0.225000
21
1.827575
31
0.0
0
LINE
8
TOP
10
0.225000
20
1.827575
30
0.0
11
0.337500
21
1.831536
31
0.0
0
LINE
8
TOP
10
0.337500
20
1.831536
30
0.0
11
0.450000
21
1.835497
31
0.0
0
LINE
8
TOP
10
0.450000
20
1.835497
30
0.0
11
0.500000
21
1.837258
31
0.0
0
LINE
8
TOP
10
0.500000
20
1.837258
30
0.0
11
0.562500
21
1.839458
31
0.0
0
LINE
8
TOP
10
0.562500
20
1.839458
30
0.0
11
0.675000
21
1.843419
31
0.0
0
LINE
8
TOP
10
0.675000
20
1.843419
30
0.0
11
0.787500
21
1.847380
31
0.0
0
LINE
8
TOP
10
0.787500
20
1.847380
30
0.0
11
0.900000
21
1.851341
31
0.0
0
LINE
8
TOP
10
0.900000
20
1.851341
30
0.0
11
1.012500
21
1.855302
31
0.0
0
LINE
8
TOP
10
1.012500
20
1.855302
30
0.0
11
1.125000
21
1.859263
31
0.0
0
LINE
8
TOP
10
1.125000
20
1.859263
30
0.0
11
1.237500
21
1.863224
31
0.0
0
LINE
8
TOP
10
1.237500
20
1.863224
30
0.0
11
1.350000
21
1.867185
31
0.0
0
LINE
8
TOP
10
1.350000
20
1.867185
30
0.0
11
1.462500
21
1.871146
31
0.0
0
LINE
8
TOP
10
1.462500
20
1.871146
30
0.0
11
1.575000
21
1.875107
31
0.0
0
LINE
8
TOP
10
1.575000
20
1.875107
30
0.0
11
1.687500
21
1.879068
31
0.0
0
LINE
8
TOP
10
1.687500
20
1.879068
30
0.0
11
1.800000
21
1.883029
31
0.0
0
LINE
8
TOP
10
1.800000
20
1.883029
30
0.0
11
1.912500
21
1.886990
31
0.0
0
LINE
8
TOP
10
1.912500
20
1.886990
30
0.0
11
2.025000
21
1.890951
31
0.0
0
LINE
8
TOP
10
2.025000
20
1.890951
30
0.0
11
2.137500
21
1.894912
31
0.0
0
LINE
8
TOP
10
2.137500
20
1.894912
30
0.0
11
2.250000
21
1.898873
31
0.0
0
LINE
8
TOP
10
2.250000
20
1.898873
30
0.0
11
2.362500
21
1.902834
31
0.0
0
LINE
8
TOP
10
2.362500
20
1.902834
30
0.0
11
2.475000
21
1.906795
31
0.0
0
LINE
8
TOP
10
2.475000
20
1.906795
30
0.0
11
2.587500
21
1.910756
31
0.0
0
LINE
8
TOP
10
2.587500
20
1.910756
30
0.0
11
2.700000
21
1.914717
31
0.0
0
LINE
8
TOP
10
2.700000
20
1.914717
30
0.0
11
2.812500
21
1.918678
31
0.0
0
LINE
8
TOP
10
2.812500
20
1.918678
30
0.0
11
2.925000
21
1.922639
31
0.0
0
LINE
8
TOP
10
2.925000
20
1.922639
30
0.0
11
3.037500
21
1.926600
31
0.0
0
LINE
8
TOP
10
3.037500
20
1.926600
30
0.0
11
3.150000
21
1.930561
31
0.0
0
LINE
8
TOP
10
3.150000
20
1.930561
30
0.0
11
3.262500
21
1.934522
31
0.0
0
LINE
8
TOP
10
3.262500
20
1.934522
30
0.0
11
3.375000
21
1.938483
31
0.0
0
LINE
8
TOP
10
3.375000
20
1.938483
30
0.0
11
3.487500
21
1.942444
31
0.0
0
LINE
8
TOP
10
3.487500
20
1.942444
30
0.0
11
3.600000
21
1.946405
31
0.0
0
LINE
8
TOP
10
3.600000
20
1.946405
30
0.0
11
3.712500
21
1.950366
31
0.0
0
LINE
8
TOP
10
3.712500
20
1.950366
30
0.0
11
3.825000
21
1.954327
31
0.0
0
LINE
8
TOP
10
3.825000
20
1.954327
30
0.0
11
3.937500
21
1.958288
31
0.0
0
LINE
8
TOP
10
3.937500
20
1.958288
30
0.0
11
4.050000
21
1.962249
31
0.0
0
LINE
8
TOP
10
4.050000
20
1.962249
30
0.0
11
4.162500
21
1.966210
31
0.0
0
LINE
8
TOP
10
4.162500
20
1.966210
30
0.0
11
4.275000
21
1.970171
31
0.0
0
LINE
8
TOP
10
4.275000
20
1.970171
30
0.0
11
4.387500
21
1.974132
31
0.0
0
LINE
8
TOP
10
4.387500
20
1.974132
30
0.0
11
4.500000
21
1.978093
31
0.0
0
LINE
8
TOP
10
4.500000
20
1.978093
30
0.0
11
4.612500
21
1.974132
31
0.0
0
LINE
8
TOP
10
4.612500
20
1.974132
30
0.0
11
4.725000
21
1.970171
31
0.0
0
LINE
8
TOP
10
4.725000
20
1.970171
30
0.0
11
4.837500
21
1.966210
31
0.0
0
LINE
8
TOP
10
4.837500
20
1.966210
30
0.0
11
4.950000
21
1.962249
31
0.0
0
LINE
8
TOP
10
4.950000
20
1.962249
30
0.0
11
5.062500
21
1.958288
31
0.0
0
LINE
8
TOP
10
5.062500
20
1.958288
30
0.0
11
5.175000
21
1.954327
31
0.0
0
LINE
8
TOP
10
5.175000
20
1.954327
30
0.0
11
5.287500
21
1.950366
31
0.0
0
LINE
8
TOP
10
5.287500
20
1.950366
30
0.0
11
5.400000
21
1.946405
31
0.0
0
LINE
8
TOP
10
5.400000
20
1.946405
30
0.0
11
5.512500
21
1.942444
31
0.0
0
LINE
8
TOP
10
5.512500
20
1.942444
30
0.0
11
5.625000
21
1.938483
31
0.0
0
LINE
8
TOP
10
5.625000
20
1.938483
30
0.0
11
5.737500
21
1.934522
31
0.0
0
LINE
8
TOP
10
5.737500
20
1.934522
30
0.0
11
5.850000
21
1.930561
31
0.0
0
LINE
8
TOP
10
5.850000
20
1.930561
30
0.0
11
5.962500
21
1.926600
31
0.0
0
LINE
8
TOP
10
5.962500
20
1.926600
30
0.0
11
6.075000
21
1.922639
31
0.0
0
LINE
8
TOP
10
6.075000
20
1.922639
30
0.0
11
6.187500
21
1.918678
31
0.0
0
LINE
8
TOP
10
6.187500
20
1.918678
30
0.0
11
6.300000
21
1.914717
31
0.0
0
LINE
8
TOP
10
6.300000
20
1.914717
30
0.0
11
6.412500
21
1.910756
31
0.0
0
LINE
8
TOP
10
6.412500
20
1.910756
30
0.0
11
6.525000
21
1.906795
31
0.0
0
LINE
8
TOP
10
6.525000
20
1.906795
30
0.0
11
6.637500
21
1.902834
31
0.0
0
LINE
8
TOP
10
6.637500
20
1.902834
30
0.0
11
6.750000
21
1.898873
31
0.0
0
LINE
8
TOP
10
6.750000
20
1.898873
30
0.0
11
6.862500
21
1.894912
31
0.0
0
LINE
8
TOP
10
6.862500
20
1.894912
30
0.0
11
6.975000
21
1.890951
31
0.0
0
LINE
8
TOP
10
6.975000
20
1.890951
30
0.0
11
7.087500
21
1.886990
31
0.0
0
LINE
8
TOP
10
7.087500
20
1.886990
30
0.0
11
7.200000
21
1.883029
31
0.0
0
LINE
8
TOP
10
7.200000
20
1.883029
30
0.0
11
7.312500
21
1.879068
31
0.0
0
LINE
8
TOP
10
7.312500
20
1.879068
30
0.0
11
7.425000
21
1.875107
31
0.0
0
LINE
8
TOP
10
7.425000
20
1.875107
30
0.0
11
7.537500
21
1.871146
31
0.0
0
LINE
8
TOP
10
7.537500
20
1.871146
30
0.0
11
7.650000
21
1.867185
31
0.0
0
LINE
8
TOP
10
7.650000
20
1.867185
30
0.0
11
7.762500
21
1.863224
31
0.0
0
LINE
8
TOP
10
7.762500
20
1.863224
30
0.0
11
7.875000
21
1.859263
31
0.0
0
LINE
8
TOP
10
7.875000
20
1.859263
30
0.0
11
7.987500
21
1.855302
31
0.0
0
LINE
8
TOP
10
7.987500
20
1.855302
30
0.0
11
8.100000
21
1.851341
31
0.0
0
LINE
8
TOP
10
8.100000
20
1.851341
30
0.0
11
8.212500
21
1.847380
31
0.0
0
LINE
8
TOP
10
8.212500
20
1.847380
30
0.0
11
8.325000
21
1.843419
31
0.0
0
LINE
8
TOP
10
8.325000
20
1.843419
30
0.0
11
8.437500
21
1.839458
31
0.0
0
LINE
8
TOP
10
8.437500
20
1.839458
30
0.0
11
8.500000
21
1.837258
31
0.0
0
LINE
8
TOP
10
8.500000
20
1.837258
30
0.0
11
8.550000
21
1.835497
31
0.0
0
LINE
8
TOP
10
8.550000
20
1.835497
30
0.0
11
8.662500
21
1.831536
31
0.0
0
LINE
8
TOP
10
8.662500
20
1.831536
30
0.0
11
8.775000
21
1.827575
31
0.0
0
LINE
8
TOP
10
8.775000
20
1.827575
30
0.0
11
8.887500
21
1.823614
31
0.0
0
LINE
8
TOP
10
8.887500
20
1.823614
30
0.0
11
9.000000
21
1.819653
31
0.0
0
LINE
8
TOP
10
0.000000
20
1.619653
30
0.0
11
0.112500
21
1.615692
31
0.0
0
LINE
8
TOP
10
0.112500
20
1.615692
30
0.0
11
0.225000
21
1.611731
31
0.0
0
LINE
8
TOP
10
0.225000
20
1.611731
30
0.0
11
0.337500
21
1.607770
31
0.0
0
LINE
8
TOP
10
0.337500
20
1.607770
30
0.0
11
0.450000
21
1.603809
31
0.0
0
LINE
8
TOP
10
0.450000
20
1.603809
30
0.0
11
0.500000
21
1.602049
31
0.0
0
LINE
8
TOP
10
0.500000
20
1.602049
30
0.0
11
0.562500
21
1.599849
31
0.0
0
LINE
8
TOP
10
0.562500
20
1.599849
30
0.0
11
0.675000
21
1.595888
31
0.0
0
LINE
8
TOP
10
0.675000
20
1.595888
30
0.0
11
0.787500
21
1.591927
31
0.0
0
LINE
8
TOP
10
0.787500
20
1.591927
30
0.0
11
0.900000
21
1.587966
31
0.0
0
LINE
8
TOP
10
0.900000
20
1.587966
30
0.0
11
1.012500
21
1.584005
31
0.0
0
LINE
8
TOP
10
1.012500
20
1.584005
30
0.0
11
1.125000
21
1.580044
31
0.0
0
LINE
8
TOP
10
1.125000
20
1.580044
30
0.0
11
1.237500
21
1.576083
31
0.0
0
LINE
8
TOP
10
1.237500
20
1.576083
30
0.0
11
1.350000
21
1.572122
31
0.0
0
LINE
8
TOP
10
1.350000
20
1.572122
30
0.0
11
1.462500
21
1.568161
31
0.0
0
LINE
8
TOP
10
1.462500
20
1.568161
30
0.0
11
1.575000
21
1.564200
31
0.0
0
LINE
8
TOP
10
1.575000
20
1.564200
30
0.0
11
1.687500
21
1.560239
31
0.0
0
LINE
8
TOP
10
1.687500
20
1.560239
30
0.0
11
1.800000
21
1.556278
31
0.0
0
LINE
8
TOP
10
1.800000
20
1.556278
30
0.0
11
1.912500
21
1.552317
31
0.0
0
LINE
8
TOP
10
1.912500
20
1.552317
30
0.0
11
2.025000
21
1.548356
31
0.0
0
LINE
8
TOP
10
2.025000
20
1.548356
30
0.0
11
2.137500
21
1.544395
31
0.0
0
LINE
8
TOP
10
2.137500
20
1.544395
30
0.0
11
2.250000
21
1.540434
31
0.0
0
LINE
8
TOP
10
2.250000
20
1.540434
30
0.0
11
2.362500
21
1.536473
31
0.0
0
LINE
8
TOP
10
2.362500
20
1.536473
30
0.0
11
2.475000
21
1.532512
31
0.0
0
LINE
8
TOP
10
2.475000
20
1.532512
30
0.0
11
2.587500
21
1.528551
31
0.0
0
LINE
8
TOP
10
2.587500
20
1.528551
30
0.0
11
2.700000
21
1.524590
31
0.0
0
LINE
8
TOP
10
2.700000
20
1.524590
30
0.0
11
2.812500
21
1.520629
31
0.0
0
LINE
8
TOP
10
2.812500
20
1.520629
30
0.0
11
2.925000
21
1.516668
31
0.0
0
LINE
8
TOP
10
2.925000
20
1.516668
30
0.0
11
3.037500
21
1.512707
31
0.0
0
LINE
8
TOP
10
3.037500
20
1.512707
30
0.0
11
3.150000
21
1.508746
31
0.0
0
LINE
8
TOP
10
3.150000
20
1.508746
30
0.0
11
3.262500
21
1.504785
31
0.0
0
LINE
8
TOP
10
3.262500
20
1.504785
30
0.0
11
3.375000
21
1.500824
31
0.0
0
LINE
8
TOP
10
3.375000
20
1.500824
30
0.0
11
3.487500
21
1.496863
31
0.0
0
LINE
8
TOP
10
3.487500
20
1.496863
30
0.0
11
3.600000
21
1.492902
31
0.0
0
LINE
8
TOP
10
3.600000
20
1.492902
30
0.0
11
3.712500
21
1.488941
31
0.0
0
LINE
8
TOP
10
3.712500
20
1.488941
30
0.0
11
3.825000
21
1.484980
31
0.0
0
LINE
8
TOP
10
3.825000
20
1.484980
30
0.0
11
3.937500
21
1.481019
31
0.0
0
LINE
8
TOP
10
3.937500
20
1.481019
30
0.0
11
4.050000
21
1.477058
31
0.0
0
LINE
8
TOP
10
4.050000
20
1.477058
30
0.0
11
4.162500
21
1.473097
31
0.0
0
LINE
8
TOP
10
4.162500
20
1.473097
30
0.0
11
4.275000
21
1.469136
31
0.0
0
LINE
8
TOP
10
4.275000
20
1.469136
30
0.0
11
4.387500
21
1.465175
31
0.0
0
LINE
8
TOP
10
4.387500
20
1.465175
30
0.0
11
4.500000
21
1.461214
31
0.0
0
LINE
8
TOP
10
4.500000
20
1.461214
30
0.0
11
4.612500
21
1.465175
31
0.0
0
LINE
8
TOP
10
4.612500
20
1.465175
30
0.0
11
4.725000
21
1.469136
31
0.0
0
LINE
8
TOP
10
4.725000
20
1.469136
30
0.0
11
4.837500
21
1.473097
31
0.0
0
LINE
8
TOP
10
4.837500
20
1.473097
30
0.0
11
4.950000
21
1.477058
31
0.0
0
LINE
8
TOP
10
4.950000
20
1.477058
30
0.0
11
5.062500
21
1.481019
31
0.0
0
LINE
8
TOP
10
5.062500
20
1.481019
30
0.0
11
5.175000
21
1.484980
31
0.0
0
LINE
8
TOP
10
5.175000
20
1.484980
30
0.0
11
5.287500
21
1.488941
31
0.0
0
LINE
8
TOP
10
5.287500
20
1.488941
30
0.0
11
5.400000
21
1.492902
31
0.0
0
LINE
8
TOP
10
5.400000
20
1.492902
30
0.0
11
5.512500
21
1.496863
31
0.0
0
LINE
8
TOP
10
5.512500
20
1.496863
30
0.0
11
5.625000
21
1.500824
31
0.0
0
LINE
8
TOP
10
5.625000
20
1.500824
30
0.0
11
5.737500
21
1.504785
31
0.0
0
LINE
8
TOP
10
5.737500
20
1.504785
30
0.0
11
5.850000
21
1.508746
31
0.0
0
LINE
8
TOP
10
5.850000
20
1.508746
30
0.0
11
5.962500
21
1.512707
31
0.0
0
LINE
8
TOP
10
5.962500
20
1.512707
30
0.0
11
6.075000
21
1.516668
31
0.0
0
LINE
8
TOP
10
6.075000
20
1.516668
30
0.0
11
6.187500
21
1.520629
31
0.0
0
LINE
8
TOP
10
6.187500
20
1.520629
30
0.0
11
6.300000
21
1.524590
31
0.0
0
LINE
8
TOP
10
6.300000
20
1.524590
30
0.0
11
6.412500
21
1.528551
31
0.0
0
LINE
8
TOP
10
6.412500
20
1.528551
30
0.0
11
6.525000
21
1.532512
31
0.0
0
LINE
8
TOP
10
6.525000
20
1.532512
30
0.0
11
6.637500
21
1.536473
31
0.0
0
LINE
8
TOP
10
6.637500
20
1.536473
30
0.0
11
6.750000
21
1.540434
31
0.0
0
LINE
8
TOP
10
6.750000
20
1.540434
30
0.0
11
6.862500
21
1.544395
31
0.0
0
LINE
8
TOP
10
6.862500
20
1.544395
30
0.0
11
6.975000
21
1.548356
31
0.0
0
LINE
8
TOP
10
6.975000
20
1.548356
30
0.0
11
7.087500
21
1.552317
31
0.0
0
LINE
8
TOP
10
7.087500
20
1.552317
30
0.0
11
7.200000
21
1.556278
31
0.0
0
LINE
8
TOP
10
7.200000
20
1.556278
30
0.0
11
7.312500
21
1.560239
31
0.0
0
LINE
8
TOP
10
7.312500
20
1.560239
30
0.0
11
7.425000
21
1.564200
31
0.0
0
LINE
8
TOP
10
7.425000
20
1.564200
30
0.0
11
7.537500
21
1.568161
31
0.0
0
LINE
8
TOP
10
7.537500
20
1.568161
30
0.0
11
7.650000
21
1.572122
31
0.0
0
LINE
8
TOP
10
7.650000
20
1.572122
30
0.0
11
7.762500
21
1.576083
31
0.0
0
LINE
8
TOP
10
7.762500
20
1.576083
30
0.0
11
7.875000
21
1.580044
31
0.0
0
LINE
8
TOP
10
7.875000
20
1.580044
30
0.0
11
7.987500
21
1.584005
31
0.0
0
LINE
8
TOP
10
7.987500
20
1.584005
30
0.0
11
8.100000
21
1.587966
31
0.0
0
LINE
8
TOP
10
8.100000
20
1.587966
30
0.0
11
8.212500
21
1.591927
31
0.0
0
LINE
8
TOP
10
8.212500
20
1.591927
30
0.0
11
8.325000
21
1.595888
31
0.0
0
LINE
8
TOP
10
8.325000
20
1.595888
30
0.0
11
8.437500
21
1.599849
31
0.0
0
LINE
8
TOP
10
8.437500
20
1.599849
30
0.0
11
8.500000
21
1.602049
31
0.0
0
LINE
8
TOP
10
8.500000
20
1.602049
30
0.0
11
8.550000
21
1.603809
31
0.0
0
LINE
8
TOP
10
8.550000
20
1.603809
30
0.0
11
8.662500
21
1.607770
31
0.0
0
LINE
8
TOP
10
8.662500
20
1.607770
30
0.0
11
8.775000
21
1.611731
31
0.0
0
LINE
8
TOP
10
8.775000
20
1.611731
30
0.0
11
8.887500
21
1.615692
31
0.0
0
LINE
8
TOP
10
8.887500
20
1.615692
30
0.0
11
9.000000
21
1.619653
31
0.0
0
LINE
8
TOP
10
0.000000
20
1.819653
30
0.0
11
0.000000
21
1.619653
31
0.0
0
LINE
8
TOP
10
9.000000
20
1.819653
30
0.0
11
9.000000
21
1.619653
31
0.0
0
LINE
8
SECTION
10
10.241561
20
-0.323218
30
0.0
11
10.758439
21
-0.323218
31
0.0
0
LINE
8
SECTION
10
10.758439
20
-0.323218
30
0.0
11
10.758439
21
0.323218
31
0.0
0
LINE
8
SECTION
10
10.758439
20
0.323218
30
0.0
11
10.241561
21
0.323218
31
0.0
0
LINE
8
SECTION
10
10.241561
20
0.323218
30
0.0
11
10.241561
21
-0.323218
31
0.0
0
LINE
8
SECTION
10
10.281561
20
-0.283218
30
0.0
11
10.718439
21
-0.283218
31
0.0
0
LINE
8
SECTION
10
10.718439
20
-0.283218
30
0.0
11
10.718439
21
0.283218
31
0.0
0
LINE
8
SECTION
10
10.718439
20
0.283218
30
0.0
11
10.281561
21
0.283218
31
0.0
0
LINE
8
SECTION
10
10.281561
20
0.283218
30
0.0
11
10.281561
21
-0.283218
31
0.0
0
LINE
8
SECTION
10
10.281561
20
0.095732
30
0.0
11
10.321561
21
0.095732
31
0.0
0
LINE
8
SECTION
10
10.321561
20
0.095732
30
0.0
11
10.321561
21
0.283218
31
0.0
0
LINE
8
SECTION
10
10.321561
20
0.283218
30
0.0
11
10.281561
21
0.283218
31
0.0
0
LINE
8
SECTION
10
10.281561
20
0.283218
30
0.0
11
10.281561
21
0.095732
31
0.0
0
LINE
8
SECTION
10
10.281561
20
-0.283218
30
0.0
11
10.321561
21
-0.283218
31
0.0
0
LINE
8
SECTION
10
10.321561
20
-0.283218
30
0.0
11
10.321561
21
-0.095732
31
0.0
0
LINE
8
SECTION
10
10.321561
20
-0.095732
30
0.0
11
10.281561
21
-0.095732
31
0.0
0
LINE
8
SECTION
10
10.281561
20
-0.095732
30
0.0
11
10.281561
21
-0.283218
31
0.0
0
LINE
8
SECTION
10
10.678439
20
0.095732
30
0.0
11
10.718439
21
0.095732
31
0.0
0
LINE
8
SECTION
10
10.718439
20
0.095732
30
0.0
11
10.718439
21
0.283218
31
0.0
0
LINE
8
SECTION
10
10.718439
20
0.283218
30
0.0
11
10.678439
21
0.283218
31
0.0
0
LINE
8
SECTION
10
10.678439
20
0.283218
30
0.0
11
10.678439
21
0.095732
31
0.0
0
LINE
8
SECTION
10
10.678439
20
-0.283218
30
0.0
11
10.718439
21
-0.283218
31
0.0
0
LINE
8
SECTION
10
10.718439
20
-0.283218
30
0.0
11
10.718439
21
-0.095732
31
0.0
0
LINE
8
SECTION
10
10.718439
20
-0.095732
30
0.0
11
10.678439
21
-0.095732
31
0.0
0
LINE
8
SECTION
10
10.678439
20
-0.095732
30
0.0
11
10.678439
21
-0.283218
31
0.0
0
ENDSEC
0
EOF
