0
SECTION
2
HEADER
9
$INSUNITS
70
1
0
ENDSEC
0
SECTION
2
ENTITIES
0
LINE
8
FRONT
10
0.000000
20
0.243838
30
0.0
11
0.112500
21
0.244669
31
0.0
0
LINE
8
FRONT
10
0.112500
20
0.244669
30
0.0
11
0.225000
21
0.245499
31
0.0
0
LINE
8
FRONT
10
0.225000
20
0.245499
30
0.0
11
0.337500
21
0.246329
31
0.0
0
LINE
8
FRONT
10
0.337500
20
0.246329
30
0.0
11
0.450000
21
0.247159
31
0.0
0
LINE
8
FRONT
10
0.450000
20
0.247159
30
0.0
11
0.500000
21
0.247528
31
0.0
0
LINE
8
FRONT
10
0.500000
20
0.247528
30
0.0
11
0.562500
21
0.247989
31
0.0
0
LINE
8
FRONT
10
0.562500
20
0.247989
30
0.0
11
0.675000
21
0.248820
31
0.0
0
LINE
8
FRONT
10
0.675000
20
0.248820
30
0.0
11
0.787500
21
0.249650
31
0.0
0
LINE
8
FRONT
10
0.787500
20
0.249650
30
0.0
11
0.900000
21
0.250480
31
0.0
0
LINE
8
FRONT
10
0.900000
20
0.250480
30
0.0
11
1.012500
21
0.251310
31
0.0
0
LINE
8
FRONT
10
1.012500
20
0.251310
30
0.0
11
1.125000
21
0.252141
31
0.0
0
LINE
8
FRONT
10
1.125000
20
0.252141
30
0.0
11
1.237500
21
0.252971
31
0.0
0
LINE
8
FRONT
10
1.237500
20
0.252971
30
0.0
11
1.350000
21
0.253801
31
0.0
0
LINE
8
FRONT
10
1.350000
20
0.253801
30
0.0
11
1.462500
21
0.254631
31
0.0
0
LINE
8
FRONT
10
1.462500
20
0.254631
30
0.0
11
1.575000
21
0.255462
31
0.0
0
LINE
8
FRONT
10
1.575000
20
0.255462
30
0.0
11
1.687500
21
0.256292
31
0.0
0
LINE
8
FRONT
10
1.687500
20
0.256292
30
0.0
11
1.800000
21
0.257122
31
0.0
0
LINE
8
FRONT
10
1.800000
20
0.257122
30
0.0
11
1.912500
21
0.257952
31
0.0
0
LINE
8
FRONT
10
1.912500
20
0.257952
30
0.0
11
2.025000
21
0.258783
31
0.0
0
LINE
8
FRONT
10
2.025000
20
0.258783
30
0.0
11
2.137500
21
0.259613
31
0.0
0
LINE
8
FRONT
10
2.137500
20
0.259613
30
0.0
11
2.250000
21
0.260443
31
0.0
0
LINE
8
FRONT
10
2.250000
20
0.260443
30
0.0
11
2.362500
21
0.261273
31
0.0
0
LINE
8
FRONT
10
2.362500
20
0.261273
30
0.0
11
2.475000
21
0.262103
31
0.0
0
LINE
8
FRONT
10
2.475000
20
0.262103
30
0.0
11
2.587500
21
0.262934
31
0.0
0
LINE
8
FRONT
10
2.587500
20
0.262934
30
0.0
11
2.700000
21
0.263764
31
0.0
0
LINE
8
FRONT
10
2.700000
20
0.263764
30
0.0
11
2.812500
21
0.264594
31
0.0
0
LINE
8
FRONT
10
2.812500
20
0.264594
30
0.0
11
2.925000
21
0.265424
31
0.0
0
LINE
8
FRONT
10
2.925000
20
0.265424
30
0.0
11
3.037500
21
0.266255
31
0.0
0
LINE
8
FRONT
10
3.037500
20
0.266255
30
0.0
11
3.150000
21
0.267085
31
0.0
0
LINE
8
FRONT
10
3.150000
20
0.267085
30
0.0
11
3.262500
21
0.267915
31
0.0
0
LINE
8
FRONT
10
3.262500
20
0.267915
30
0.0
11
3.375000
21
0.268745
31
0.0
0
LINE
8
FRONT
10
3.375000
20
0.268745
30
0.0
11
3.487500
21
0.269576
31
0.0
0
LINE
8
FRONT
10
3.487500
20
0.269576
30
0.0
11
3.600000
21
0.270406
31
0.0
0
LINE
8
FRONT
10
3.600000
20
0.270406
30
0.0
11
3.712500
21
0.271236
31
0.0
0
LINE
8
FRONT
10
3.712500
20
0.271236
30
0.0
11
3.825000
21
0.272066
31
0.0
0
LINE
8
FRONT
10
3.825000
20
0.272066
30
0.0
11
3.937500
21
0.272897
31
0.0
0
LINE
8
FRONT
10
3.937500
20
0.272897
30
0.0
11
4.050000
21
0.273727
31
0.0
0
LINE
8
FRONT
10
4.050000
20
0.273727
30
0.0
11
4.162500
21
0.274557
31
0.0
0
LINE
8
FRONT
10
4.162500
20
0.274557
30
0.0
11
4.275000
21
0.275387
31
0.0
0
LINE
8
FRONT
10
4.275000
20
0.275387
30
0.0
11
4.387500
21
0.276217
31
0.0
0
LINE
8
FRONT
10
4.387500
20
0.276217
30
0.0
11
4.500000
21
0.277048
31
0.0
0
LINE
8
FRONT
10
4.500000
20
0.277048
30
0.0
11
4.612500
21
0.278977
31
0.0
0
LINE
8
FRONT
10
4.612500
20
0.278977
30
0.0
11
4.725000
21
0.280907
31
0.0
0
LINE
8
FRONT
10
4.725000
20
0.280907
30
0.0
11
4.837500
21
0.282836
31
0.0
0
LINE
8
FRONT
10
4.837500
20
0.282836
30
0.0
11
4.950000
21
0.284765
31
0.0
0
LINE
8
FRONT
10
4.950000
20
0.284765
30
0.0
11
5.062500
21
0.286695
31
0.0
0
LINE
8
FRONT
10
5.062500
20
0.286695
30
0.0
11
5.175000
21
0.288624
31
0.0
0
LINE
8
FRONT
10
5.175000
20
0.288624
30
0.0
11
5.287500
21
0.290554
31
0.0
0
LINE
8
FRONT
10
5.287500
20
0.290554
30
0.0
11
5.400000
21
0.292483
31
0.0
0
LINE
8
FRONT
10
5.400000
20
0.292483
30
0.0
11
5.512500
21
0.294413
31
0.0
0
LINE
8
FRONT
10
5.512500
20
0.294413
30
0.0
11
5.625000
21
0.296342
31
0.0
0
LINE
8
FRONT
10
5.625000
20
0.296342
30
0.0
11
5.737500
21
0.298271
31
0.0
0
LINE
8
FRONT
10
5.737500
20
0.298271
30
0.0
11
5.850000
21
0.300201
31
0.0
0
LINE
8
FRONT
10
5.850000
20
0.300201
30
0.0
11
5.962500
21
0.302130
31
0.0
0
LINE
8
FRONT
10
5.962500
20
0.302130
30
0.0
11
6.075000
21
0.304060
31
0.0
0
LINE
8
FRONT
10
6.075000
20
0.304060
30
0.0
11
6.187500
21
0.305989
31
0.0
0
LINE
8
FRONT
10
6.187500
20
0.305989
30
0.0
11
6.300000
21
0.307919
31
0.0
0
LINE
8
FRONT
10
6.300000
20
0.307919
30
0.0
11
6.412500
21
0.309848
31
0.0
0
LINE
8
FRONT
10
6.412500
20
0.309848
30
0.0
11
6.525000
21
0.311778
31
0.0
0
LINE
8
FRONT
10
6.525000
20
0.311778
30
0.0
11
6.637500
21
0.313707
31
0.0
0
LINE
8
FRONT
10
6.637500
20
0.313707
30
0.0
11
6.750000
21
0.315636
31
0.0
0
LINE
8
FRONT
10
6.750000
20
0.315636
30
0.0
11
6.862500
21
0.317566
31
0.0
0
LINE
8
FRONT
10
6.862500
20
0.317566
30
0.0
11
6.975000
21
0.319495
31
0.0
0
LINE
8
FRONT
10
6.975000
20
0.319495
30
0.0
11
7.087500
21
0.321425
31
0.0
0
LINE
8
FRONT
10
7.087500
20
0.321425
30
0.0
11
7.200000
21
0.323354
31
0.0
0
LINE
8
FRONT
10
7.200000
20
0.323354
30
0.0
11
7.312500
21
0.325284
31
0.0
0
LINE
8
FRONT
10
7.312500
20
0.325284
30
0.0
11
7.425000
21
0.327213
31
0.0
0
LINE
8
FRONT
10
7.425000
20
0.327213
30
0.0
11
7.537500
21
0.329142
31
0.0
0
LINE
8
FRONT
10
7.537500
20
0.329142
30
0.0
11
7.650000
21
0.331072
31
0.0
0
LINE
8
FRONT
10
7.650000
20
0.331072
30
0.0
11
7.762500
21
0.333001
31
0.0
0
LINE
8
FRONT
10
7.762500
20
0.333001
30
0.0
11
7.875000
21
0.334931
31
0.0
0
LINE
8
FRONT
10
7.875000
20
0.334931
30
0.0
11
7.987500
21
0.336860
31
0.0
0
LINE
8
FRONT
10
7.987500
20
0.336860
30
0.0
11
8.100000
21
0.338790
31
0.0
0
LINE
8
FRONT
10
8.100000
20
0.338790
30
0.0
11
8.212500
21
0.340719
31
0.0
0
LINE
8
FRONT
10
8.212500
20
0.340719
30
0.0
11
8.325000
21
0.342649
31
0.0
0
LINE
8
FRONT
10
8.325000
20
0.342649
30
0.0
11
8.437500
21
0.344578
31
0.0
0
LINE
8
FRONT
10
8.437500
20
0.344578
30
0.0
11
8.500000
21
0.345650
31
0.0
0
LINE
8
FRONT
10
8.500000
20
0.345650
30
0.0
11
8.550000
21
0.346507
31
0.0
0
LINE
8
FRONT
10
8.550000
20
0.346507
30
0.0
11
8.662500
21
0.348437
31
0.0
0
LINE
8
FRONT
10
8.662500
20
0.348437
30
0.0
11
8.775000
21
0.350366
31
0.0
0
LINE
8
FRONT
10
8.775000
20
0.350366
30
0.0
11
8.887500
21
0.352296
31
0.0
0
LINE
8
FRONT
10
8.887500
20
0.352296
30
0.0
11
9.000000
21
0.354225
31
0.0
0
LINE
8
FRONT
10
0.000000
20
-0.243838
30
0.0
11
0.112500
21
-0.244669
31
0.0
0
LINE
8
FRONT
10
0.112500
20
-0.244669
30
0.0
11
0.225000
21
-0.245499
31
0.0
0
LINE
8
FRONT
10
0.225000
20
-0.245499
30
0.0
11
0.337500
21
-0.246329
31
0.0
0
LINE
8
FRONT
10
0.337500
20
-0.246329
30
0.0
11
0.450000
21
-0.247159
31
0.0
0
LINE
8
FRONT
10
0.450000
20
-0.247159
30
0.0
11
0.500000
21
-0.247528
31
0.0
0
LINE
8
FRONT
10
0.500000
20
-0.247528
30
0.0
11
0.562500
21
-0.247989
31
0.0
0
LINE
8
FRONT
10
0.562500
20
-0.247989
30
0.0
11
0.675000
21
-0.248820
31
0.0
0
LINE
8
FRONT
10
0.675000
20
-0.248820
30
0.0
11
0.787500
21
-0.249650
31
0.0
0
LINE
8
FRONT
10
0.787500
20
-0.249650
30
0.0
11
0.900000
21
-0.250480
31
0.0
0
LINE
8
FRONT
10
0.900000
20
-0.250480
30
0.0
11
1.012500
21
-0.251310
31
0.0
0
LINE
8
FRONT
10
1.012500
20
-0.251310
30
0.0
11
1.125000
21
-0.252141
31
0.0
0
LINE
8
FRONT
10
1.125000
20
-0.252141
30
0.0
11
1.237500
21
-0.252971
31
0.0
0
LINE
8
FRONT
10
1.237500
20
-0.252971
30
0.0
11
1.350000
21
-0.253801
31
0.0
0
LINE
8
FRONT
10
1.350000
20
-0.253801
30
0.0
11
1.462500
21
-0.254631
31
0.0
0
LINE
8
FRONT
10
1.462500
20
-0.254631
30
0.0
11
1.575000
21
-0.255462
31
0.0
0
LINE
8
FRONT
10
1.575000
20
-0.255462
30
0.0
11
1.687500
21
-0.256292
31
0.0
0
LINE
8
FRONT
10
1.687500
20
-0.256292
30
0.0
11
1.800000
21
-0.257122
31
0.0
0
LINE
8
FRONT
10
1.800000
20
-0.257122
30
0.0
11
1.912500
21
-0.257952
31
0.0
0
LINE
8
FRONT
10
1.912500
20
-0.257952
30
0.0
11
2.025000
21
-0.258783
31
0.0
0
LINE
8
FRONT
10
2.025000
20
-0.258783
30
0.0
11
2.137500
21
-0.259613
31
0.0
0
LINE
8
FRONT
10
2.137500
20
-0.259613
30
0.0
11
2.250000
21
-0.260443
31
0.0
0
LINE
8
FRONT
10
2.250000
20
-0.260443
30
0.0
11
2.362500
21
-0.261273
31
0.0
0
LINE
8
FRONT
10
2.362500
20
-0.261273
30
0.0
11
2.475000
21
-0.262103
31
0.0
0
LINE
8
FRONT
10
2.475000
20
-0.262103
30
0.0
11
2.587500
21
-0.262934
31
0.0
0
LINE
8
FRONT
10
2.587500
20
-0.262934
30
0.0
11
2.700000
21
-0.263764
31
0.0
0
LINE
8
FRONT
10
2.700000
20
-0.263764
30
0.0
11
2.812500
21
-0.264594
31
0.0
0
LINE
8
FRONT
10
2.812500
20
-0.264594
30
0.0
11
2.925000
21
-0.265424
31
0.0
0
LINE
8
FRONT
10
2.925000
20
-0.265424
30
0.0
11
3.037500
21
-0.266255
31
0.0
0
LINE
8
FRONT
10
3.037500
20
-0.266255
30
0.0
11
3.150000
21
-0.267085
31
0.0
0
LINE
8
FRONT
10
3.150000
20
-0.267085
30
0.0
11
3.262500
21
-0.267915
31
0.0
0
LINE
8
FRONT
10
3.262500
20
-0.267915
30
0.0
11
3.375000
21
-0.268745
31
0.0
0
LINE
8
FRONT
10
3.375000
20
-0.268745
30
0.0
11
3.487500
21
-0.269576
31
0.0
0
LINE
8
FRONT
10
3.487500
20
-0.269576
30
0.0
11
3.600000
21
-0.270406
31
0.0
0
LINE
8
FRONT
10
3.600000
20
-0.270406
30
0.0
11
3.712500
21
-0.271236
31
0.0
0
LINE
8
FRONT
10
3.712500
20
-0.271236
30
0.0
11
3.825000
21
-0.272066
31
0.0
0
LINE
8
FRONT
10
3.825000
20
-0.272066
30
0.0
11
3.937500
21
-0.272897
31
0.0
0
LINE
8
FRONT
10
3.937500
20
-0.272897
30
0.0
11
4.050000
21
-0.273727
31
0.0
0
LINE
8
FRONT
10
4.050000
20
-0.273727
30
0.0
11
4.162500
21
-0.274557
31
0.0
0
LINE
8
FRONT
10
4.162500
20
-0.274557
30
0.0
11
4.275000
21
-0.275387
31
0.0
0
LINE
8
FRONT
10
4.275000
20
-0.275387
30
0.0
11
4.387500
21
-0.276217
31
0.0
0
LINE
8
FRONT
10
4.387500
20
-0.276217
30
0.0
11
4.500000
21
-0.277048
31
0.0
0
LINE
8
FRONT
10
4.500000
20
-0.277048
30
0.0
11
4.612500
21
-0.278977
31
0.0
0
LINE
8
FRONT
10
4.612500
20
-0.278977
30
0.0
11
4.725000
21
-0.280907
31
0.0
0
LINE
8
FRONT
10
4.725000
20
-0.280907
30
0.0
11
4.837500
21
-0.282836
31
0.0
0
LINE
8
FRONT
10
4.837500
20
-0.282836
30
0.0
11
4.950000
21
-0.284765
31
0.0
0
LINE
8
FRONT
10
4.950000
20
-0.284765
30
0.0
11
5.062500
21
-0.286695
31
0.0
0
LINE
8
FRONT
10
5.062500
20
-0.286695
30
0.0
11
5.175000
21
-0.288624
31
0.0
0
LINE
8
FRONT
10
5.175000
20
-0.288624
30
0.0
11
5.287500
21
-0.290554
31
0.0
0
LINE
8
FRONT
10
5.287500
20
-0.290554
30
0.0
11
5.400000
21
-0.292483
31
0.0
0
LINE
8
FRONT
10
5.400000
20
-0.292483
30
0.0
11
5.512500
21
-0.294413
31
0.0
0
LINE
8
FRONT
10
5.512500
20
-0.294413
30
0.0
11
5.625000
21
-0.296342
31
0.0
0
LINE
8
FRONT
10
5.625000
20
-0.296342
30
0.0
11
5.737500
21
-0.298271
31
0.0
0
LINE
8
FRONT
10
5.737500
20
-0.298271
30
0.0
11
5.850000
21
-0.300201
31
0.0
0
LINE
8
FRONT
10
5.850000
20
-0.300201
30
0.0
11
5.962500
21
-0.302130
31
0.0
0
LINE
8
FRONT
10
5.962500
20
-0.302130
30
0.0
11
6.075000
21
-0.304060
31
0.0
0
LINE
8
FRONT
10
6.075000
20
-0.304060
30
0.0
11
6.187500
21
-0.305989
31
0.0
0
LINE
8
FRONT
10
6.187500
20
-0.305989
30
0.0
11
6.300000
21
-0.307919
31
0.0
0
LINE
8
FRONT
10
6.300000
20
-0.307919
30
0.0
11
6.412500
21
-0.309848
31
0.0
0
LINE
8
FRONT
10
6.412500
20
-0.309848
30
0.0
11
6.525000
21
-0.311778
31
0.0
0
LINE
8
FRONT
10
6.525000
20
-0.311778
30
0.0
11
6.637500
21
-0.313707
31
0.0
0
LINE
8
FRONT
10
6.637500
20
-0.313707
30
0.0
11
6.750000
21
-0.315636
31
0.0
0
LINE
8
FRONT
10
6.750000
20
-0.315636
30
0.0
11
6.862500
21
-0.317566
31
0.0
0
LINE
8
FRONT
10
6.862500
20
-0.317566
30
0.0
11
6.975000
21
-0.319495
31
0.0
0
LINE
8
FRONT
10
6.975000
20
-0.319495
30
0.0
11
7.087500
21
-0.321425
31
0.0
0
LINE
8
FRONT
10
7.087500
20
-0.321425
30
0.0
11
7.200000
21
-0.323354
31
0.0
0
LINE
8
FRONT
10
7.200000
20
-0.323354
30
0.0
11
7.312500
21
-0.325284
31
0.0
0
LINE
8
FRONT
10
7.312500
20
-0.325284
30
0.0
11
7.425000
21
-0.327213
31
0.0
0
LINE
8
FRONT
10
7.425000
20
-0.327213
30
0.0
11
7.537500
21
-0.329142
31
0.0
0
LINE
8
FRONT
10
7.537500
20
-0.329142
30
0.0
11
7.650000
21
-0.331072
31
0.0
0
LINE
8
FRONT
10
7.650000
20
-0.331072
30
0.0
11
7.762500
21
-0.333001
31
0.0
0
LINE
8
FRONT
10
7.762500
20
-0.333001
30
0.0
11
7.875000
21
-0.334931
31
0.0
0
LINE
8
FRONT
10
7.875000
20
-0.334931
30
0.0
11
7.987500
21
-0.336860
31
0.0
0
LINE
8
FRONT
10
7.987500
20
-0.336860
30
0.0
11
8.100000
21
-0.338790
31
0.0
0
LINE
8
FRONT
10
8.100000
20
-0.338790
30
0.0
11
8.212500
21
-0.340719
31
0.0
0
LINE
8
FRONT
10
8.212500
20
-0.340719
30
0.0
11
8.325000
21
-0.342649
31
0.0
0
LINE
8
FRONT
10
8.325000
20
-0.342649
30
0.0
11
8.437500
21
-0.344578
31
0.0
0
LINE
8
FRONT
10
8.437500
20
-0.344578
30
0.0
11
8.500000
21
-0.345650
31
0.0
0
LINE
8
FRONT
10
8.500000
20
-0.345650
30
0.0
11
8.550000
21
-0.346507
31
0.0
0
LINE
8
FRONT
10
8.550000
20
-0.346507
30
0.0
11
8.662500
21
-0.348437
31
0.0
0
LINE
8
FRONT
10
8.662500
20
-0.348437
30
0.0
11
8.775000
21
-0.350366
31
0.0
0
LINE
8
FRONT
10
8.775000
20
-0.350366
30
0.0
11
8.887500
21
-0.352296
31
0.0
0
LINE
8
FRONT
10
8.887500
20
-0.352296
30
0.0
11
9.000000
21
-0.354225
31
0.0
0
LINE
8
FRONT
10
0.000000
20
0.243838
30
0.0
11
0.000000
21
-0.243838
31
0.0
0
LINE
8
FRONT
10
9.000000
20
0.354225
30
0.0
11
9.000000
21
-0.354225
31
0.0
0
LINE
8
TOP
10
0.000000
20
2.031574
30
0.0
11
0.112500
21
2.031678
31
0.0
0
LINE
8
TOP
10
0.112500
20
2.031678
30
0.0
11
0.225000
21
2.031783
31
0.0
0
LINE
8
TOP
10
0.225000
20
2.031783
30
0.0
11
0.337500
21
2.031887
31
0.0
0
LINE
8
TOP
10
0.337500
20
2.031887
30
0.0
11
0.450000
21
2.031991
31
0.0
0
LINE
8
TOP
10
0.450000
20
2.031991
30
0.0
11
0.500000
21
2.032037
31
0.0
0
LINE
8
TOP
10
0.500000
20
2.032037
30
0.0
11
0.562500
21
2.032095
31
0.0
0
LINE
8
TOP
10
0.562500
20
2.032095
30
0.0
11
0.675000
21
2.032199
31
0.0
0
LINE
8
TOP
10
0.675000
20
2.032199
30
0.0
11
0.787500
21
2.032303
31
0.0
0
LINE
8
TOP
10
0.787500
20
2.032303
30
0.0
11
0.900000
21
2.032408
31
0.0
0
LINE
8
TOP
10
0.900000
20
2.032408
30
0.0
11
1.012500
21
2.032512
31
0.0
0
LINE
8
TOP
10
1.012500
20
2.032512
30
0.0
11
1.125000
21
2.032616
31
0.0
0
LINE
8
TOP
10
1.125000
20
2.032616
30
0.0
11
1.237500
21
2.032720
31
0.0
0
LINE
8
TOP
10
1.237500
20
2.032720
30
0.0
11
1.350000
21
2.032824
31
0.0
0
LINE
8
TOP
10
1.350000
20
2.032824
30
0.0
11
1.462500
21
2.032928
31
0.0
0
LINE
8
TOP
10
1.462500
20
2.032928
30
0.0
11
1.575000
21
2.033033
31
0.0
0
LINE
8
TOP
10
1.575000
20
2.033033
30
0.0
11
1.687500
21
2.033137
31
0.0
0
LINE
8
TOP
10
1.687500
20
2.033137
30
0.0
11
1.800000
21
2.033241
31
0.0
0
LINE
8
TOP
10
1.800000
20
2.033241
30
0.0
11
1.912500
21
2.033345
31
0.0
0
LINE
8
TOP
10
1.912500
20
2.033345
30
0.0
11
2.025000
21
2.033449
31
0.0
0
LINE
8
TOP
10
2.025000
20
2.033449
30
0.0
11
2.137500
21
2.033553
31
0.0
0
LINE
8
TOP
10
2.137500
20
2.033553
30
0.0
11
2.250000
21
2.033658
31
0.0
0
LINE
8
TOP
10
2.250000
20
2.033658
30
0.0
11
2.362500
21
2.033762
31
0.0
0
LINE
8
TOP
10
2.362500
20
2.033762
30
0.0
11
2.475000
21
2.033866
31
0.0
0
LINE
8
TOP
10
2.475000
20
2.033866
30
0.0
11
2.587500
21
2.033970
31
0.0
0
LINE
8
TOP
10
2.587500
20
2.033970
30
0.0
11
2.700000
21
2.034074
31
0.0
0
LINE
8
TOP
10
2.700000
20
2.034074
30
0.0
11
2.812500
21
2.034178
31
0.0
0
LINE
8
TOP
10
2.812500
20
2.034178
30
0.0
11
2.925000
21
2.034283
31
0.0
0
LINE
8
TOP
10
2.925000
20
2.034283
30
0.0
11
3.037500
21
2.034387
31
0.0
0
LINE
8
TOP
10
3.037500
20
2.034387
30
0.0
11
3.150000
21
2.034491
31
0.0
0
LINE
8
TOP
10
3.150000
20
2.034491
30
0.0
11
3.262500
21
2.034595
31
0.0
0
LINE
8
TOP
10
3.262500
20
2.034595
30
0.0
11
3.375000
21
2.034699
31
0.0
0
LINE
8
TOP
10
3.375000
20
2.034699
30
0.0
11
3.487500
21
2.034803
31
0.0
0
LINE
8
TOP
10
3.487500
20
2.034803
30
0.0
11
3.600000
21
2.034908
31
0.0
0
LINE
8
TOP
10
3.600000
20
2.034908
30
0.0
11
3.712500
21
2.035012
31
0.0
0
LINE
8
TOP
10
3.712500
20
2.035012
30
0.0
11
3.825000
21
2.035116
31
0.0
0
LINE
8
TOP
10
3.825000
20
2.035116
30
0.0
11
3.937500
21
2.035220
31
0.0
0
LINE
8
TOP
10
3.937500
20
2.035220
30
0.0
11
4.050000
21
2.035324
31
0.0
0
LINE
8
TOP
10
4.050000
20
2.035324
30
0.0
11
4.162500
21
2.035428
31
0.0
0
LINE
8
TOP
10
4.162500
20
2.035428
30
0.0
11
4.275000
21
2.035533
31
0.0
0
LINE
8
TOP
10
4.275000
20
2.035533
30
0.0
11
4.387500
21
2.035637
31
0.0
0
LINE
8
TOP
10
4.387500
20
2.035637
30
0.0
11
4.500000
21
2.035741
31
0.0
0
LINE
8
TOP
10
4.500000
20
2.035741
30
0.0
11
4.612500
21
2.033731
31
0.0
0
LINE
8
TOP
10
4.612500
20
2.033731
30
0.0
11
4.725000
21
2.031721
31
0.0
0
LINE
8
TOP
10
4.725000
20
2.031721
30
0.0
11
4.837500
21
2.029711
31
0.0
0
LINE
8
TOP
10
4.837500
20
2.029711
30
0.0
11
4.950000
21
2.027701
31
0.0
0
LINE
8
TOP
10
4.950000
20
2.027701
30
0.0
11
5.062500
21
2.025692
31
0.0
0
LINE
8
TOP
10
5.062500
20
2.025692
30
0.0
11
5.175000
21
2.023682
31
0.0
0
LINE
8
TOP
10
5.175000
20
2.023682
30
0.0
11
5.287500
21
2.021672
31
0.0
0
LINE
8
TOP
10
5.287500
20
2.021672
30
0.0
11
5.400000
21
2.019662
31
0.0
0
LINE
8
TOP
10
5.400000
20
2.019662
30
0.0
11
5.512500
21
2.017652
31
0.0
0
LINE
8
TOP
10
5.512500
20
2.017652
30
0.0
11
5.625000
21
2.015642
31
0.0
0
LINE
8
TOP
10
5.625000
20
2.015642
30
0.0
11
5.737500
21
2.013632
31
0.0
0
LINE
8
TOP
10
5.737500
20
2.013632
30
0.0
11
5.850000
21
2.011623
31
0.0
0
LINE
8
TOP
10
5.850000
20
2.011623
30
0.0
11
5.962500
21
2.009613
31
0.0
0
LINE
8
TOP
10
5.962500
20
2.009613
30
0.0
11
6.075000
21
2.007603
31
0.0
0
LINE
8
TOP
10
6.075000
20
2.007603
30
0.0
11
6.187500
21
2.005593
31
0.0
0
LINE
8
TOP
10
6.187500
20
2.005593
30
0.0
11
6.300000
21
2.003583
31
0.0
0
LINE
8
TOP
10
6.300000
20
2.003583
30
0.0
11
6.412500
21
2.001573
31
0.0
0
LINE
8
TOP
10
6.412500
20
2.001573
30
0.0
11
6.525000
21
1.999563
31
0.0
0
LINE
8
TOP
10
6.525000
20
1.999563
30
0.0
11
6.637500
21
1.997554
31
0.0
0
LINE
8
TOP
10
6.637500
20
1.997554
30
0.0
11
6.750000
21
1.995544
31
0.0
0
LINE
8
TOP
10
6.750000
20
1.995544
30
0.0
11
6.862500
21
1.993534
31
0.0
0
LINE
8
TOP
10
6.862500
20
1.993534
30
0.0
11
6.975000
21
1.991524
31
0.0
0
LINE
8
TOP
10
6.975000
20
1.991524
30
0.0
11
7.087500
21
1.989514
31
0.0
0
LINE
8
TOP
10
7.087500
20
1.989514
30
0.0
11
7.200000
21
1.987504
31
0.0
0
LINE
8
TOP
10
7.200000
20
1.987504
30
0.0
11
7.312500
21
1.985494
31
0.0
0
LINE
8
TOP
10
7.312500
20
1.985494
30
0.0
11
7.425000
21
1.983485
31
0.0
0
LINE
8
TOP
10
7.425000
20
1.983485
30
0.0
11
7.537500
21
1.981475
31
0.0
0
LINE
8
TOP
10
7.537500
20
1.981475
30
0.0
11
7.650000
21
1.979465
31
0.0
0
LINE
8
TOP
10
7.650000
20
1.979465
30
0.0
11
7.762500
21
1.977455
31
0.0
0
LINE
8
TOP
10
7.762500
20
1.977455
30
0.0
11
7.875000
21
1.975445
31
0.0
0
LINE
8
TOP
10
7.875000
20
1.975445
30
0.0
11
7.987500
21
1.973435
31
0.0
0
LINE
8
TOP
10
7.987500
20
1.973435
30
0.0
11
8.100000
21
1.971425
31
0.0
0
LINE
8
TOP
10
8.100000
20
1.971425
30
0.0
11
8.212500
21
1.969416
31
0.0
0
LINE
8
TOP
10
8.212500
20
1.969416
30
0.0
11
8.325000
21
1.967406
31
0.0
0
LINE
8
TOP
10
8.325000
20
1.967406
30
0.0
11
8.437500
21
1.965396
31
0.0
0
LINE
8
TOP
10
8.437500
20
1.965396
30
0.0
11
8.500000
21
1.964279
31
0.0
0
LINE
8
TOP
10
8.500000
20
1.964279
30
0.0
11
8.550000
21
1.963386
31
0.0
0
LINE
8
TOP
10
8.550000
20
1.963386
30
0.0
11
8.662500
21
1.961376
31
0.0
0
LINE
8
TOP
10
8.662500
20
1.961376
30
0.0
11
8.775000
21
1.959366
31
0.0
0
LINE
8
TOP
10
8.775000
20
1.959366
30
0.0
11
8.887500
21
1.957356
31
0.0
0
LINE
8
TOP
10
8.887500
20
1.957356
30
0.0
11
9.000000
21
1.955347
31
0.0
0
LINE
8
TOP
10
0.000000
20
1.593777
30
0.0
11
0.112500
21
1.593672
31
0.0
0
LINE
8
TOP
10
0.112500
20
1.593672
30
0.0
11
0.225000
21
1.593568
31
0.0
0
LINE
8
TOP
10
0.225000
20
1.593568
30
0.0
11
0.337500
21
1.593464
31
0.0
0
LINE
8
TOP
10
0.337500
20
1.593464
30
0.0
11
0.450000
21
1.593360
31
0.0
0
LINE
8
TOP
10
0.450000
20
1.593360
30
0.0
11
0.500000
21
1.593314
31
0.0
0
LINE
8
TOP
10
0.500000
20
1.593314
30
0.0
11
0.562500
21
1.593256
31
0.0
0
LINE
8
TOP
10
0.562500
20
1.593256
30
0.0
11
0.675000
21
1.593152
31
0.0
0
LINE
8
TOP
10
0.675000
20
1.593152
30
0.0
11
0.787500
21
1.593047
31
0.0
0
LINE
8
TOP
10
0.787500
20
1.593047
30
0.0
11
0.900000
21
1.592943
31
0.0
0
LINE
8
TOP
10
0.900000
20
1.592943
30
0.0
11
1.012500
21
1.592839
31
0.0
0
LINE
8
TOP
10
1.012500
20
1.592839
30
0.0
11
1.125000
21
1.592735
31
0.0
0
LINE
8
TOP
10
1.125000
20
1.592735
30
0.0
11
1.237500
21
1.592631
31
0.0
0
LINE
8
TOP
10
1.237500
20
1.592631
30
0.0
11
1.350000
21
1.592527
31
0.0
0
LINE
8
TOP
10
1.350000
20
1.592527
30
0.0
11
1.462500
21
1.592422
31
0.0
0
LINE
8
TOP
10
1.462500
20
1.592422
30
0.0
11
1.575000
21
1.592318
31
0.0
0
LINE
8
TOP
10
1.575000
20
1.592318
30
0.0
11
1.687500
21
1.592214
31
0.0
0
LINE
8
TOP
10
1.687500
20
1.592214
30
0.0
11
1.800000
21
1.592110
31
0.0
0
LINE
8
TOP
10
1.800000
20
1.592110
30
0.0
11
1.912500
21
1.592006
31
0.0
0
LINE
8
TOP
10
1.912500
20
1.592006
30
0.0
11
2.025000
21
1.591902
31
0.0
0
LINE
8
TOP
10
2.025000
20
1.591902
30
0.0
11
2.137500
21
1.591797
31
0.0
0
LINE
8
TOP
10
2.137500
20
1.591797
30
0.0
11
2.250000
21
1.591693
31
0.0
0
LINE
8
TOP
10
2.250000
20
1.591693
30
0.0
11
2.362500
21
1.591589
31
0.0
0
LINE
8
TOP
10
2.362500
20
1.591589
30
0.0
11
2.475000
21
1.591485
31
0.0
0
LINE
8
TOP
10
2.475000
20
1.591485
30
0.0
11
2.587500
21
1.591381
31
0.0
0
LINE
8
TOP
10
2.587500
20
1.591381
30
0.0
11
2.700000
21
1.591277
31
0.0
0
LINE
8
TOP
10
2.700000
20
1.591277
30
0.0
11
2.812500
21
1.591172
31
0.0
0
LINE
8
TOP
10
2.812500
20
1.591172
30
0.0
11
2.925000
21
1.591068
31
0.0
0
LINE
8
TOP
10
2.925000
20
1.591068
30
0.0
11
3.037500
21
1.590964
31
0.0
0
LINE
8
TOP
10
3.037500
20
1.590964
30
0.0
11
3.150000
21
1.590860
31
0.0
0
LINE
8
TOP
10
3.150000
20
1.590860
30
0.0
11
3.262500
21
1.590756
31
0.0
0
LINE
8
TOP
10
3.262500
20
1.590756
30
0.0
11
3.375000
21
1.590652
31
0.0
0
LINE
8
TOP
10
3.375000
20
1.590652
30
0.0
11
3.487500
21
1.590547
31
0.0
0
LINE
8
TOP
10
3.487500
20
1.590547
30
0.0
11
3.600000
21
1.590443
31
0.0
0
LINE
8
TOP
10
3.600000
20
1.590443
30
0.0
11
3.712500
21
1.590339
31
0.0
0
LINE
8
TOP
10
3.712500
20
1.590339
30
0.0
11
3.825000
21
1.590235
31
0.0
0
LINE
8
TOP
10
3.825000
20
1.590235
30
0.0
11
3.937500
21
1.590131
31
0.0
0
LINE
8
TOP
10
3.937500
20
1.590131
30
0.0
11
4.050000
21
1.590027
31
0.0
0
LINE
8
TOP
10
4.050000
20
1.590027
30
0.0
11
4.162500
21
1.589922
31
0.0
0
LINE
8
TOP
10
4.162500
20
1.589922
30
0.0
11
4.275000
21
1.589818
31
0.0
0
LINE
8
TOP
10
4.275000
20
1.589818
30
0.0
11
4.387500
21
1.589714
31
0.0
0
LINE
8
TOP
10
4.387500
20
1.589714
30
0.0
11
4.500000
21
1.589610
31
0.0
0
LINE
8
TOP
10
4.500000
20
1.589610
30
0.0
11
4.612500
21
1.591620
31
0.0
0
LINE
8
TOP
10
4.612500
20
1.591620
30
0.0
11
4.725000
21
1.593630
31
0.0
0
LINE
8
TOP
10
4.725000
20
1.593630
30
0.0
11
4.837500
21
1.595639
31
0.0
0
LINE
8
TOP
10
4.837500
20
1.595639
30
0.0
11
4.950000
21
1.597649
31
0.0
0
LINE
8
TOP
10
4.950000
20
1.597649
30
0.0
11
5.062500
21
1.599659
31
0.0
0
LINE
8
TOP
10
5.062500
20
1.599659
30
0.0
11
5.175000
21
1.601669
31
0.0
0
LINE
8
TOP
10
5.175000
20
1.601669
30
0.0
11
5.287500
21
1.603679
31
0.0
0
LINE
8
TOP
10
5.287500
20
1.603679
30
0.0
11
5.400000
21
1.605689
31
0.0
0
LINE
8
TOP
10
5.400000
20
1.605689
30
0.0
11
5.512500
21
1.607699
31
0.0
0
LINE
8
TOP
10
5.512500
20
1.607699
30
0.0
11
5.625000
21
1.609708
31
0.0
0
LINE
8
TOP
10
5.625000
20
1.609708
30
0.0
11
5.737500
21
1.611718
31
0.0
0
LINE
8
TOP
10
5.737500
20
1.611718
30
0.0
11
5.850000
21
1.613728
31
0.0
0
LINE
8
TOP
10
5.850000
20
1.613728
30
0.0
11
5.962500
21
1.615738
31
0.0
0
LINE
8
TOP
10
5.962500
20
1.615738
30
0.0
11
6.075000
21
1.617748
31
0.0
0
LINE
8
TOP
10
6.075000
20
1.617748
30
0.0
11
6.187500
21
1.619758
31
0.0
0
LINE
8
TOP
10
6.187500
20
1.619758
30
0.0
11
6.300000
21
1.621768
31
0.0
0
LINE
8
TOP
10
6.300000
20
1.621768
30
0.0
11
6.412500
21
1.623777
31
0.0
0
LINE
8
TOP
10
6.412500
20
1.623777
30
0.0
11
6.525000
21
1.625787
31
0.0
0
LINE
8
TOP
10
6.525000
20
1.625787
30
0.0
11
6.637500
21
1.627797
31
0.0
0
LINE
8
TOP
10
6.637500
20
1.627797
30
0.0
11
6.750000
21
1.629807
31
0.0
0
LINE
8
TOP
10
6.750000
20
1.629807
30
0.0
11
6.862500
21
1.631817
31
0.0
0
LINE
8
TOP
10
6.862500
20
1.631817
30
0.0
11
6.975000
21
1.633827
31
0.0
0
LINE
8
TOP
10
6.975000
20
1.633827
30
0.0
11
7.087500
21
1.635837
31
0.0
0
LINE
8
TOP
10
7.087500
20
1.635837
30
0.0
11
7.200000
21
1.637846
31
0.0
0
LINE
8
TOP
10
7.200000
20
1.637846
30
0.0
11
7.312500
21
1.639856
31
0.0
0
LINE
8
TOP
10
7.312500
20
1.639856
30
0.0
11
7.425000
21
1.641866
31
0.0
0
LINE
8
TOP
10
7.425000
20
1.641866
30
0.0
11
7.537500
21
1.643876
31
0.0
0
LINE
8
TOP
10
7.537500
20
1.643876
30
0.0
11
7.650000
21
1.645886
31
0.0
0
LINE
8
TOP
10
7.650000
20
1.645886
30
0.0
11
7.762500
21
1.647896
31
0.0
0
LINE
8
TOP
10
7.762500
20
1.647896
30
0.0
11
7.875000
21
1.649906
31
0.0
0
LINE
8
TOP
10
7.875000
20
1.649906
30
0.0
11
7.987500
21
1.651915
31
0.0
0
LINE
8
TOP
10
7.987500
20
1.651915
30
0.0
11
8.100000
21
1.653925
31
0.0
0
LINE
8
TOP
10
8.100000
20
1.653925
30
0.0
11
8.212500
21
1.655935
31
0.0
0
LINE
8
TOP
10
8.212500
20
1.655935
30
0.0
11
8.325000
21
1.657945
31
0.0
0
LINE
8
TOP
10
8.325000
20
1.657945
30
0.0
11
8.437500
21
1.659955
31
0.0
0
LINE
8
TOP
10
8.437500
20
1.659955
30
0.0
11
8.500000
21
1.661071
31
0.0
0
LINE
8
TOP
10
8.500000
20
1.661071
30
0.0
11
8.550000
21
1.661965
31
0.0
0
LINE
8
TOP
10
8.550000
20
1.661965
30
0.0
11
8.662500
21
1.663975
31
0.0
0
LINE
8
TOP
10
8.662500
20
1.663975
30
0.0
11
8.775000
21
1.665984
31
0.0
0
LINE
8
TOP
10
8.775000
20
1.665984
30
0.0
11
8.887500
21
1.667994
31
0.0
0
LINE
8
TOP
10
8.887500
20
1.667994
30
0.0
11
9.000000
21
1.670004
31
0.0
0
LINE
8
TOP
10
0.000000
20
2.031574
30
0.0
11
0.000000
21
1.593777
31
0.0
0
LINE
8
TOP
10
9.000000
20
1.955347
30
0.0
11
9.000000
21
1.670004
31
0.0
0
LINE
8
SECTION
10
10.276934
20
-0.277048
30
0.0
11
10.723066
21
-0.277048
31
0.0
0
LINE
8
SECTION
10
10.723066
20
-0.277048
30
0.0
11
10.723066
21
0.277048
31
0.0
0
LINE
8
SECTION
10
10.723066
20
0.277048
30
0.0
11
10.276934
21
0.277048
31
0.0
0
LINE
8
SECTION
10
10.276934
20
0.277048
30
0.0
11
10.276934
21
-0.277048
31
0.0
0
LINE
8
SECTION
10
10.336934
20
-0.217048
30
0.0
11
10.663066
21
-0.217048
31
0.0
0
LINE
8
SECTION
10
10.663066
20
-0.217048
30
0.0
11
10.663066
21
0.217048
31
0.0
0
LINE
8
SECTION
10
10.663066
20
0.217048
30
0.0
11
10.336934
21
0.217048
31
0.0
0
LINE
8
SECTION
10
10.336934
20
0.217048
30
0.0
11
10.336934
21
-0.217048
31
0.0
0
LINE
8
SECTION
10
10.336934
20
0.000000
30
0.0
11
10.396934
21
0.000000
31
0.0
0
LINE
8
SECTION
10
10.396934
20
0.000000
30
0.0
11
10.396934
21
0.217048
31
0.0
0
LINE
8
SECTION
10
10.396934
20
0.217048
30
0.0
11
10.336934
21
0.217048
31
0.0
0
LINE
8
SECTION
10
10.336934
20
0.217048
30
0.0
11
10.336934
21
0.000000
31
0.0
0
LINE
8
SECTION
10
10.336934
20
-0.217048
30
0.0
11
10.396934
21
-0.217048
31
0.0
0
LINE
8
SECTION
10
10.396934
20
-0.217048
30
0.0
11
10.396934
21
0.000000
31
0.0
0
LINE
8
SECTION
10
10.396934
20
0.000000
30
0.0
11
10.336934
21
0.000000
31
0.0
0
LINE
8
SECTION
10
10.336934
20
0.000000
30
0.0
11
10.336934
21
-0.217048
31
0.0
0
LINE
8
SECTION
10
10.603066
20
0.000000
30
0.0
11
10.663066
21
0.000000
31
0.0
0
LINE
8
SECTION
10
10.663066
20
0.000000
30
0.0
11
10.663066
21
0.217048
31
0.0
0
LINE
8
SECTION
10
10.663066
20
0.217048
30
0.0
11
10.603066
21
0.217048
31
0.0
0
LINE
8
SECTION
10
10.603066
20
0.217048
30
0.0
11
10.603066
21
0.000000
31
0.0
0
LINE
8
SECTION
10
10.603066
20
-0.217048
30
0.0
11
10.663066
21
-0.217048
31
0.0
0
LINE
8
SECTION
10
10.663066
20
-0.217048
30
0.0
11
10.663066
21
0.000000
31
0.0
0
LINE
8
SECTION
10
10.663066
20
0.000000
30
0.0
11
10.603066
21
0.000000
31
0.0
0
LINE
8
SECTION
10
10.603066
20
0.000000
30
0.0
11
10.603066
21
-0.217048
31
0.0
0
ENDSEC
0
EOF
