0
SECTION
2
HEADER
9
$INSUNITS
70
1
0
ENDSEC
0
SECTION
2
ENTITIES
0
LINE
8
FRONT
10
0.000000
20
0.235721
30
0.0
11
0.112500
21
0.239550
31
0.0
0
LINE
8
FRONT
10
0.112500
20
0.239550
30
0.0
11
0.225000
21
0.243380
31
0.0
0
LINE
8
FRONT
10
0.225000
20
0.243380
30
0.0
11
0.337500
21
0.247209
31
0.0
0
LINE
8
FRONT
10
0.337500
20
0.247209
30
0.0
11
0.450000
21
0.251039
31
0.0
0
LINE
8
FRONT
10
0.450000
20
0.251039
30
0.0
11
0.500000
21
0.252741
31
0.0
0
LINE
8
FRONT
10
0.500000
20
0.252741
30
0.0
11
0.562500
21
0.254868
31
0.0
0
LINE
8
FRONT
10
0.562500
20
0.254868
30
0.0
11
0.675000
21
0.258697
31
0.0
0
LINE
8
FRONT
10
0.675000
20
0.258697
30
0.0
11
0.787500
21
0.262527
31
0.0
0
LINE
8
FRONT
10
0.787500
20
0.262527
30
0.0
11
0.900000
21
0.266356
31
0.0
0
LINE
8
FRONT
10
0.900000
20
0.266356
30
0.0
11
1.012500
21
0.270186
31
0.0
0
LINE
8
FRONT
10
1.012500
20
0.270186
30
0.0
11
1.125000
21
0.274015
31
0.0
0
LINE
8
FRONT
10
1.125000
20
0.274015
30
0.0
11
1.237500
21
0.277845
31
0.0
0
LINE
8
FRONT
10
1.237500
20
0.277845
30
0.0
11
1.350000
21
0.281674
31
0.0
0
LINE
8
FRONT
10
1.350000
20
0.281674
30
0.0
11
1.462500
21
0.285504
31
0.0
0
LINE
8
FRONT
10
1.462500
20
0.285504
30
0.0
11
1.575000
21
0.289333
31
0.0
0
LINE
8
FRONT
10
1.575000
20
0.289333
30
0.0
11
1.687500
21
0.293163
31
0.0
0
LINE
8
FRONT
10
1.687500
20
0.293163
30
0.0
11
1.800000
21
0.296992
31
0.0
0
LINE
8
FRONT
10
1.800000
20
0.296992
30
0.0
11
1.912500
21
0.300821
31
0.0
0
LINE
8
FRONT
10
1.912500
20
0.300821
30
0.0
11
2.025000
21
0.304651
31
0.0
0
LINE
8
FRONT
10
2.025000
20
0.304651
30
0.0
11
2.137500
21
0.308480
31
0.0
0
LINE
8
FRONT
10
2.137500
20
0.308480
30
0.0
11
2.250000
21
0.312310
31
0.0
0
LINE
8
FRONT
10
2.250000
20
0.312310
30
0.0
11
2.362500
21
0.316139
31
0.0
0
LINE
8
FRONT
10
2.362500
20
0.316139
30
0.0
11
2.475000
21
0.319969
31
0.0
0
LINE
8
FRONT
10
2.475000
20
0.319969
30
0.0
11
2.587500
21
0.323798
31
0.0
0
LINE
8
FRONT
10
2.587500
20
0.323798
30
0.0
11
2.700000
21
0.327628
31
0.0
0
LINE
8
FRONT
10
2.700000
20
0.327628
30
0.0
11
2.812500
21
0.331457
31
0.0
0
LINE
8
FRONT
10
2.812500
20
0.331457
30
0.0
11
2.925000
21
0.335287
31
0.0
0
LINE
8
FRONT
10
2.925000
20
0.335287
30
0.0
11
3.037500
21
0.339116
31
0.0
0
LINE
8
FRONT
10
3.037500
20
0.339116
30
0.0
11
3.150000
21
0.342945
31
0.0
0
LINE
8
FRONT
10
3.150000
20
0.342945
30
0.0
11
3.262500
21
0.346775
31
0.0
0
LINE
8
FRONT
10
3.262500
20
0.346775
30
0.0
11
3.375000
21
0.350604
31
0.0
0
LINE
8
FRONT
10
3.375000
20
0.350604
30
0.0
11
3.487500
21
0.354434
31
0.0
0
LINE
8
FRONT
10
3.487500
20
0.354434
30
0.0
11
3.600000
21
0.358263
31
0.0
0
LINE
8
FRONT
10
3.600000
20
0.358263
30
0.0
11
3.712500
21
0.362093
31
0.0
0
LINE
8
FRONT
10
3.712500
20
0.362093
30
0.0
11
3.825000
21
0.365922
31
0.0
0
LINE
8
FRONT
10
3.825000
20
0.365922
30
0.0
11
3.937500
21
0.369752
31
0.0
0
LINE
8
FRONT
10
3.937500
20
0.369752
30
0.0
11
4.050000
21
0.373581
31
0.0
0
LINE
8
FRONT
10
4.050000
20
0.373581
30
0.0
11
4.162500
21
0.377411
31
0.0
0
LINE
8
FRONT
10
4.162500
20
0.377411
30
0.0
11
4.275000
21
0.381240
31
0.0
0
LINE
8
FRONT
10
4.275000
20
0.381240
30
0.0
11
4.387500
21
0.385069
31
0.0
0
LINE
8
FRONT
10
4.387500
20
0.385069
30
0.0
11
4.500000
21
0.388899
31
0.0
0
LINE
8
FRONT
10
4.500000
20
0.388899
30
0.0
11
4.612500
21
0.385069
31
0.0
0
LINE
8
FRONT
10
4.612500
20
0.385069
30
0.0
11
4.725000
21
0.381240
31
0.0
0
LINE
8
FRONT
10
4.725000
20
0.381240
30
0.0
11
4.837500
21
0.377411
31
0.0
0
LINE
8
FRONT
10
4.837500
20
0.377411
30
0.0
11
4.950000
21
0.373581
31
0.0
0
LINE
8
FRONT
10
4.950000
20
0.373581
30
0.0
11
5.062500
21
0.369752
31
0.0
0
LINE
8
FRONT
10
5.062500
20
0.369752
30
0.0
11
5.175000
21
0.365922
31
0.0
0
LINE
8
FRONT
10
5.175000
20
0.365922
30
0.0
11
5.287500
21
0.362093
31
0.0
0
LINE
8
FRONT
10
5.287500
20
0.362093
30
0.0
11
5.400000
21
0.358263
31
0.0
0
LINE
8
FRONT
10
5.400000
20
0.358263
30
0.0
11
5.512500
21
0.354434
31
0.0
0
LINE
8
FRONT
10
5.512500
20
0.354434
30
0.0
11
5.625000
21
0.350604
31
0.0
0
LINE
8
FRONT
10
5.625000
20
0.350604
30
0.0
11
5.737500
21
0.346775
31
0.0
0
LINE
8
FRONT
10
5.737500
20
0.346775
30
0.0
11
5.850000
21
0.342945
31
0.0
0
LINE
8
FRONT
10
5.850000
20
0.342945
30
0.0
11
5.962500
21
0.339116
31
0.0
0
LINE
8
FRONT
10
5.962500
20
0.339116
30
0.0
11
6.075000
21
0.335287
31
0.0
0
LINE
8
FRONT
10
6.075000
20
0.335287
30
0.0
11
6.187500
21
0.331457
31
0.0
0
LINE
8
FRONT
10
6.187500
20
0.331457
30
0.0
11
6.300000
21
0.327628
31
0.0
0
LINE
8
FRONT
10
6.300000
20
0.327628
30
0.0
11
6.412500
21
0.323798
31
0.0
0
LINE
8
FRONT
10
6.412500
20
0.323798
30
0.0
11
6.525000
21
0.319969
31
0.0
0
LINE
8
FRONT
10
6.525000
20
0.319969
30
0.0
11
6.637500
21
0.316139
31
0.0
0
LINE
8
FRONT
10
6.637500
20
0.316139
30
0.0
11
6.750000
21
0.312310
31
0.0
0
LINE
8
FRONT
10
6.750000
20
0.312310
30
0.0
11
6.862500
21
0.308480
31
0.0
0
LINE
8
FRONT
10
6.862500
20
0.308480
30
0.0
11
6.975000
21
0.304651
31
0.0
0
LINE
8
FRONT
10
6.975000
20
0.304651
30
0.0
11
7.087500
21
0.300821
31
0.0
0
LINE
8
FRONT
10
7.087500
20
0.300821
30
0.0
11
7.200000
21
0.296992
31
0.0
0
LINE
8
FRONT
10
7.200000
20
0.296992
30
0.0
11
7.312500
21
0.293163
31
0.0
0
LINE
8
FRONT
10
7.312500
20
0.293163
30
0.0
11
7.425000
21
0.289333
31
0.0
0
LINE
8
FRONT
10
7.425000
20
0.289333
30
0.0
11
7.537500
21
0.285504
31
0.0
0
LINE
8
FRONT
10
7.537500
20
0.285504
30
0.0
11
7.650000
21
0.281674
31
0.0
0
LINE
8
FRONT
10
7.650000
20
0.281674
30
0.0
11
7.762500
21
0.277845
31
0.0
0
LINE
8
FRONT
10
7.762500
20
0.277845
30
0.0
11
7.875000
21
0.274015
31
0.0
0
LINE
8
FRONT
10
7.875000
20
0.274015
30
0.0
11
7.987500
21
0.270186
31
0.0
0
LINE
8
FRONT
10
7.987500
20
0.270186
30
0.0
11
8.100000
21
0.266356
31
0.0
0
LINE
8
FRONT
10
8.100000
20
0.266356
30
0.0
11
8.212500
21
0.262527
31
0.0
0
LINE
8
FRONT
10
8.212500
20
0.262527
30
0.0
11
8.325000
21
0.258697
31
0.0
0
LINE
8
FRONT
10
8.325000
20
0.258697
30
0.0
11
8.437500
21
0.254868
31
0.0
0
LINE
8
FRONT
10
8.437500
20
0.254868
30
0.0
11
8.500000
21
0.252741
31
0.0
0
LINE
8
FRONT
10
8.500000
20
0.252741
30
0.0
11
8.550000
21
0.251039
31
0.0
0
LINE
8
FRONT
10
8.550000
20
0.251039
30
0.0
11
8.662500
21
0.247209
31
0.0
0
LINE
8
FRONT
10
8.662500
20
0.247209
30
0.0
11
8.775000
21
0.243380
31
0.0
0
LINE
8
FRONT
10
8.775000
20
0.243380
30
0.0
11
8.887500
21
0.239550
31
0.0
0
LINE
8
FRONT
10
8.887500
20
0.239550
30
0.0
11
9.000000
21
0.235721
31
0.0
0
LINE
8
FRONT
10
0.000000
20
-0.235721
30
0.0
11
0.112500
21
-0.239550
31
0.0
0
LINE
8
FRONT
10
0.112500
20
-0.239550
30
0.0
11
0.225000
21
-0.243380
31
0.0
0
LINE
8
FRONT
10
0.225000
20
-0.243380
30
0.0
11
0.337500
21
-0.247209
31
0.0
0
LINE
8
FRONT
10
0.337500
20
-0.247209
30
0.0
11
0.450000
21
-0.251039
31
0.0
0
LINE
8
FRONT
10
0.450000
20
-0.251039
30
0.0
11
0.500000
21
-0.252741
31
0.0
0
LINE
8
FRONT
10
0.500000
20
-0.252741
30
0.0
11
0.562500
21
-0.254868
31
0.0
0
LINE
8
FRONT
10
0.562500
20
-0.254868
30
0.0
11
0.675000
21
-0.258697
31
0.0
0
LINE
8
FRONT
10
0.675000
20
-0.258697
30
0.0
11
0.787500
21
-0.262527
31
0.0
0
LINE
8
FRONT
10
0.787500
20
-0.262527
30
0.0
11
0.900000
21
-0.266356
31
0.0
0
LINE
8
FRONT
10
0.900000
20
-0.266356
30
0.0
11
1.012500
21
-0.270186
31
0.0
0
LINE
8
FRONT
10
1.012500
20
-0.270186
30
0.0
11
1.125000
21
-0.274015
31
0.0
0
LINE
8
FRONT
10
1.125000
20
-0.274015
30
0.0
11
1.237500
21
-0.277845
31
0.0
0
LINE
8
FRONT
10
1.237500
20
-0.277845
30
0.0
11
1.350000
21
-0.281674
31
0.0
0
LINE
8
FRONT
10
1.350000
20
-0.281674
30
0.0
11
1.462500
21
-0.285504
31
0.0
0
LINE
8
FRONT
10
1.462500
20
-0.285504
30
0.0
11
1.575000
21
-0.289333
31
0.0
0
LINE
8
FRONT
10
1.575000
20
-0.289333
30
0.0
11
1.687500
21
-0.293163
31
0.0
0
LINE
8
FRONT
10
1.687500
20
-0.293163
30
0.0
11
1.800000
21
-0.296992
31
0.0
0
LINE
8
FRONT
10
1.800000
20
-0.296992
30
0.0
11
1.912500
21
-0.300821
31
0.0
0
LINE
8
FRONT
10
1.912500
20
-0.300821
30
0.0
11
2.025000
21
-0.304651
31
0.0
0
LINE
8
FRONT
10
2.025000
20
-0.304651
30
0.0
11
2.137500
21
-0.308480
31
0.0
0
LINE
8
FRONT
10
2.137500
20
-0.308480
30
0.0
11
2.250000
21
-0.312310
31
0.0
0
LINE
8
FRONT
10
2.250000
20
-0.312310
30
0.0
11
2.362500
21
-0.316139
31
0.0
0
LINE
8
FRONT
10
2.362500
20
-0.316139
30
0.0
11
2.475000
21
-0.319969
31
0.0
0
LINE
8
FRONT
10
2.475000
20
-0.319969
30
0.0
11
2.587500
21
-0.323798
31
0.0
0
LINE
8
FRONT
10
2.587500
20
-0.323798
30
0.0
11
2.700000
21
-0.327628
31
0.0
0
LINE
8
FRONT
10
2.700000
20
-0.327628
30
0.0
11
2.812500
21
-0.331457
31
0.0
0
LINE
8
FRONT
10
2.812500
20
-0.331457
30
0.0
11
2.925000
21
-0.335287
31
0.0
0
LINE
8
FRONT
10
2.925000
20
-0.335287
30
0.0
11
3.037500
21
-0.339116
31
0.0
0
LINE
8
FRONT
10
3.037500
20
-0.339116
30
0.0
11
3.150000
21
-0.342945
31
0.0
0
LINE
8
FRONT
10
3.150000
20
-0.342945
30
0.0
11
3.262500
21
-0.346775
31
0.0
0
LINE
8
FRONT
10
3.262500
20
-0.346775
30
0.0
11
3.375000
21
-0.350604
31
0.0
0
LINE
8
FRONT
10
3.375000
20
-0.350604
30
0.0
11
3.487500
21
-0.354434
31
0.0
0
LINE
8
FRONT
10
3.487500
20
-0.354434
30
0.0
11
3.600000
21
-0.358263
31
0.0
0
LINE
8
FRONT
10
3.600000
20
-0.358263
30
0.0
11
3.712500
21
-0.362093
31
0.0
0
LINE
8
FRONT
10
3.712500
20
-0.362093
30
0.0
11
3.825000
21
-0.365922
31
0.0
0
LINE
8
FRONT
10
3.825000
20
-0.365922
30
0.0
11
3.937500
21
-0.369752
31
0.0
0
LINE
8
FRONT
10
3.937500
20
-0.369752
30
0.0
11
4.050000
21
-0.373581
31
0.0
0
LINE
8
FRONT
10
4.050000
20
-0.373581
30
0.0
11
4.162500
21
-0.377411
31
0.0
0
LINE
8
FRONT
10
4.162500
20
-0.377411
30
0.0
11
4.275000
21
-0.381240
31
0.0
0
LINE
8
FRONT
10
4.275000
20
-0.381240
30
0.0
11
4.387500
21
-0.385069
31
0.0
0
LINE
8
FRONT
10
4.387500
20
-0.385069
30
0.0
11
4.500000
21
-0.388899
31
0.0
0
LINE
8
FRONT
10
4.500000
20
-0.388899
30
0.0
11
4.612500
21
-0.385069
31
0.0
0
LINE
8
FRONT
10
4.612500
20
-0.385069
30
0.0
11
4.725000
21
-0.381240
31
0.0
0
LINE
8
FRONT
10
4.725000
20
-0.381240
30
0.0
11
4.837500
21
-0.377411
31
0.0
0
LINE
8
FRONT
10
4.837500
20
-0.377411
30
0.0
11
4.950000
21
-0.373581
31
0.0
0
LINE
8
FRONT
10
4.950000
20
-0.373581
30
0.0
11
5.062500
21
-0.369752
31
0.0
0
LINE
8
FRONT
10
5.062500
20
-0.369752
30
0.0
11
5.175000
21
-0.365922
31
0.0
0
LINE
8
FRONT
10
5.175000
20
-0.365922
30
0.0
11
5.287500
21
-0.362093
31
0.0
0
LINE
8
FRONT
10
5.287500
20
-0.362093
30
0.0
11
5.400000
21
-0.358263
31
0.0
0
LINE
8
FRONT
10
5.400000
20
-0.358263
30
0.0
11
5.512500
21
-0.354434
31
0.0
0
LINE
8
FRONT
10
5.512500
20
-0.354434
30
0.0
11
5.625000
21
-0.350604
31
0.0
0
LINE
8
FRONT
10
5.625000
20
-0.350604
30
0.0
11
5.737500
21
-0.346775
31
0.0
0
LINE
8
FRONT
10
5.737500
20
-0.346775
30
0.0
11
5.850000
21
-0.342945
31
0.0
0
LINE
8
FRONT
10
5.850000
20
-0.342945
30
0.0
11
5.962500
21
-0.339116
31
0.0
0
LINE
8
FRONT
10
5.962500
20
-0.339116
30
0.0
11
6.075000
21
-0.335287
31
0.0
0
LINE
8
FRONT
10
6.075000
20
-0.335287
30
0.0
11
6.187500
21
-0.331457
31
0.0
0
LINE
8
FRONT
10
6.187500
20
-0.331457
30
0.0
11
6.300000
21
-0.327628
31
0.0
0
LINE
8
FRONT
10
6.300000
20
-0.327628
30
0.0
11
6.412500
21
-0.323798
31
0.0
0
LINE
8
FRONT
10
6.412500
20
-0.323798
30
0.0
11
6.525000
21
-0.319969
31
0.0
0
LINE
8
FRONT
10
6.525000
20
-0.319969
30
0.0
11
6.637500
21
-0.316139
31
0.0
0
LINE
8
FRONT
10
6.637500
20
-0.316139
30
0.0
11
6.750000
21
-0.312310
31
0.0
0
LINE
8
FRONT
10
6.750000
20
-0.312310
30
0.0
11
6.862500
21
-0.308480
31
0.0
0
LINE
8
FRONT
10
6.862500
20
-0.308480
30
0.0
11
6.975000
21
-0.304651
31
0.0
0
LINE
8
FRONT
10
6.975000
20
-0.304651
30
0.0
11
7.087500
21
-0.300821
31
0.0
0
LINE
8
FRONT
10
7.087500
20
-0.300821
30
0.0
11
7.200000
21
-0.296992
31
0.0
0
LINE
8
FRONT
10
7.200000
20
-0.296992
30
0.0
11
7.312500
21
-0.293163
31
0.0
0
LINE
8
FRONT
10
7.312500
20
-0.293163
30
0.0
11
7.425000
21
-0.289333
31
0.0
0
LINE
8
FRONT
10
7.425000
20
-0.289333
30
0.0
11
7.537500
21
-0.285504
31
0.0
0
LINE
8
FRONT
10
7.537500
20
-0.285504
30
0.0
11
7.650000
21
-0.281674
31
0.0
0
LINE
8
FRONT
10
7.650000
20
-0.281674
30
0.0
11
7.762500
21
-0.277845
31
0.0
0
LINE
8
FRONT
10
7.762500
20
-0.277845
30
0.0
11
7.875000
21
-0.274015
31
0.0
0
LINE
8
FRONT
10
7.875000
20
-0.274015
30
0.0
11
7.987500
21
-0.270186
31
0.0
0
LINE
8
FRONT
10
7.987500
20
-0.270186
30
0.0
11
8.100000
21
-0.266356
31
0.0
0
LINE
8
FRONT
10
8.100000
20
-0.266356
30
0.0
11
8.212500
21
-0.262527
31
0.0
0
LINE
8
FRONT
10
8.212500
20
-0.262527
30
0.0
11
8.325000
21
-0.258697
31
0.0
0
LINE
8
FRONT
10
8.325000
20
-0.258697
30
0.0
11
8.437500
21
-0.254868
31
0.0
0
LINE
8
FRONT
10
8.437500
20
-0.254868
30
0.0
11
8.500000
21
-0.252741
31
0.0
0
LINE
8
FRONT
10
8.500000
20
-0.252741
30
0.0
11
8.550000
21
-0.251039
31
0.0
0
LINE
8
FRONT
10
8.550000
20
-0.251039
30
0.0
11
8.662500
21
-0.247209
31
0.0
0
LINE
8
FRONT
10
8.662500
20
-0.247209
30
0.0
11
8.775000
21
-0.243380
31
0.0
0
LINE
8
FRONT
10
8.775000
20
-0.243380
30
0.0
11
8.887500
21
-0.239550
31
0.0
0
LINE
8
FRONT
10
8.887500
20
-0.239550
30
0.0
11
9.000000
21
-0.235721
31
0.0
0
LINE
8
FRONT
10
0.000000
20
0.235721
30
0.0
11
0.000000
21
-0.235721
31
0.0
0
LINE
8
FRONT
10
9.000000
20
0.235721
30
0.0
11
9.000000
21
-0.235721
31
0.0
0
LINE
8
TOP
10
0.000000
20
2.059228
30
0.0
11
0.112500
21
2.062551
31
0.0
0
LINE
8
TOP
10
0.112500
20
2.062551
30
0.0
11
0.225000
21
2.065874
31
0.0
0
LINE
8
TOP
10
0.225000
20
2.065874
30
0.0
11
0.337500
21
2.069197
31
0.0
0
LINE
8
TOP
10
0.337500
20
2.069197
30
0.0
11
0.450000
21
2.072520
31
0.0
0
LINE
8
TOP
10
0.450000
20
2.072520
30
0.0
11
0.500000
21
2.073997
31
0.0
0
LINE
8
TOP
10
0.500000
20
2.073997
30
0.0
11
0.562500
21
2.075843
31
0.0
0
LINE
8
TOP
10
0.562500
20
2.075843
30
0.0
11
0.675000
21
2.079166
31
0.0
0
LINE
8
TOP
10
0.675000
20
2.079166
30
0.0
11
0.787500
21
2.082489
31
0.0
0
LINE
8
TOP
10
0.787500
20
2.082489
30
0.0
11
0.900000
21
2.085812
31
0.0
0
LINE
8
TOP
10
0.900000
20
2.085812
30
0.0
11
1.012500
21
2.089135
31
0.0
0
LINE
8
TOP
10
1.012500
20
2.089135
30
0.0
11
1.125000
21
2.092457
31
0.0
0
LINE
8
TOP
10
1.125000
20
2.092457
30
0.0
11
1.237500
21
2.095780
31
0.0
0
LINE
8
TOP
10
1.237500
20
2.095780
30
0.0
11
1.350000
21
2.099103
31
0.0
0
LINE
8
TOP
10
1.350000
20
2.099103
30
0.0
11
1.462500
21
2.102426
31
0.0
0
LINE
8
TOP
10
1.462500
20
2.102426
30
0.0
11
1.575000
21
2.105749
31
0.0
0
LINE
8
TOP
10
1.575000
20
2.105749
30
0.0
11
1.687500
21
2.109072
31
0.0
0
LINE
8
TOP
10
1.687500
20
2.109072
30
0.0
11
1.800000
21
2.112395
31
0.0
0
LINE
8
TOP
10
1.800000
20
2.112395
30
0.0
11
1.912500
21
2.115718
31
0.0
0
LINE
8
TOP
10
1.912500
20
2.115718
30
0.0
11
2.025000
21
2.119041
31
0.0
0
LINE
8
TOP
10
2.025000
20
2.119041
30
0.0
11
2.137500
21
2.122364
31
0.0
0
LINE
8
TOP
10
2.137500
20
2.122364
30
0.0
11
2.250000
21
2.125686
31
0.0
0
LINE
8
TOP
10
2.250000
20
2.125686
30
0.0
11
2.362500
21
2.129009
31
0.0
0
LINE
8
TOP
10
2.362500
20
2.129009
30
0.0
11
2.475000
21
2.132332
31
0.0
0
LINE
8
TOP
10
2.475000
20
2.132332
30
0.0
11
2.587500
21
2.135655
31
0.0
0
LINE
8
TOP
10
2.587500
20
2.135655
30
0.0
11
2.700000
21
2.138978
31
0.0
0
LINE
8
TOP
10
2.700000
20
2.138978
30
0.0
11
2.812500
21
2.142301
31
0.0
0
LINE
8
TOP
10
2.812500
20
2.142301
30
0.0
11
2.925000
21
2.145624
31
0.0
0
LINE
8
TOP
10
2.925000
20
2.145624
30
0.0
11
3.037500
21
2.148947
31
0.0
0
LINE
8
TOP
10
3.037500
20
2.148947
30
0.0
11
3.150000
21
2.152270
31
0.0
0
LINE
8
TOP
10
3.150000
20
2.152270
30
0.0
11
3.262500
21
2.155593
31
0.0
0
LINE
8
TOP
10
3.262500
20
2.155593
30
0.0
11
3.375000
21
2.158915
31
0.0
0
LINE
8
TOP
10
3.375000
20
2.158915
30
0.0
11
3.487500
21
2.162238
31
0.0
0
LINE
8
TOP
10
3.487500
20
2.162238
30
0.0
11
3.600000
21
2.165561
31
0.0
0
LINE
8
TOP
10
3.600000
20
2.165561
30
0.0
11
3.712500
21
2.168884
31
0.0
0
LINE
8
TOP
10
3.712500
20
2.168884
30
0.0
11
3.825000
21
2.172207
31
0.0
0
LINE
8
TOP
10
3.825000
20
2.172207
30
0.0
11
3.937500
21
2.175530
31
0.0
0
LINE
8
TOP
10
3.937500
20
2.175530
30
0.0
11
4.050000
21
2.178853
31
0.0
0
LINE
8
TOP
10
4.050000
20
2.178853
30
0.0
11
4.162500
21
2.182176
31
0.0
0
LINE
8
TOP
10
4.162500
20
2.182176
30
0.0
11
4.275000
21
2.185499
31
0.0
0
LINE
8
TOP
10
4.275000
20
2.185499
30
0.0
11
4.387500
21
2.188822
31
0.0
0
LINE
8
TOP
10
4.387500
20
2.188822
30
0.0
11
4.500000
21
2.192144
31
0.0
0
LINE
8
TOP
10
4.500000
20
2.192144
30
0.0
11
4.612500
21
2.188822
31
0.0
0
LINE
8
TOP
10
4.612500
20
2.188822
30
0.0
11
4.725000
21
2.185499
31
0.0
0
LINE
8
TOP
10
4.725000
20
2.185499
30
0.0
11
4.837500
21
2.182176
31
0.0
0
LINE
8
TOP
10
4.837500
20
2.182176
30
0.0
11
4.950000
21
2.178853
31
0.0
0
LINE
8
TOP
10
4.950000
20
2.178853
30
0.0
11
5.062500
21
2.175530
31
0.0
0
LINE
8
TOP
10
5.062500
20
2.175530
30
0.0
11
5.175000
21
2.172207
31
0.0
0
LINE
8
TOP
10
5.175000
20
2.172207
30
0.0
11
5.287500
21
2.168884
31
0.0
0
LINE
8
TOP
10
5.287500
20
2.168884
30
0.0
11
5.400000
21
2.165561
31
0.0
0
LINE
8
TOP
10
5.400000
20
2.165561
30
0.0
11
5.512500
21
2.162238
31
0.0
0
LINE
8
TOP
10
5.512500
20
2.162238
30
0.0
11
5.625000
21
2.158915
31
0.0
0
LINE
8
TOP
10
5.625000
20
2.158915
30
0.0
11
5.737500
21
2.155593
31
0.0
0
LINE
8
TOP
10
5.737500
20
2.155593
30
0.0
11
5.850000
21
2.152270
31
0.0
0
LINE
8
TOP
10
5.850000
20
2.152270
30
0.0
11
5.962500
21
2.148947
31
0.0
0
LINE
8
TOP
10
5.962500
20
2.148947
30
0.0
11
6.075000
21
2.145624
31
0.0
0
LINE
8
TOP
10
6.075000
20
2.145624
30
0.0
11
6.187500
21
2.142301
31
0.0
0
LINE
8
TOP
10
6.187500
20
2.142301
30
0.0
11
6.300000
21
2.138978
31
0.0
0
LINE
8
TOP
10
6.300000
20
2.138978
30
0.0
11
6.412500
21
2.135655
31
0.0
0
LINE
8
TOP
10
6.412500
20
2.135655
30
0.0
11
6.525000
21
2.132332
31
0.0
0
LINE
8
TOP
10
6.525000
20
2.132332
30
0.0
11
6.637500
21
2.129009
31
0.0
0
LINE
8
TOP
10
6.637500
20
2.129009
30
0.0
11
6.750000
21
2.125686
31
0.0
0
LINE
8
TOP
10
6.750000
20
2.125686
30
0.0
11
6.862500
21
2.122364
31
0.0
0
LINE
8
TOP
10
6.862500
20
2.122364
30
0.0
11
6.975000
21
2.119041
31
0.0
0
LINE
8
TOP
10
6.975000
20
2.119041
30
0.0
11
7.087500
21
2.115718
31
0.0
0
LINE
8
TOP
10
7.087500
20
2.115718
30
0.0
11
7.200000
21
2.112395
31
0.0
0
LINE
8
TOP
10
7.200000
20
2.112395
30
0.0
11
7.312500
21
2.109072
31
0.0
0
LINE
8
TOP
10
7.312500
20
2.109072
30
0.0
11
7.425000
21
2.105749
31
0.0
0
LINE
8
TOP
10
7.425000
20
2.105749
30
0.0
11
7.537500
21
2.102426
31
0.0
0
LINE
8
TOP
10
7.537500
20
2.102426
30
0.0
11
7.650000
21
2.099103
31
0.0
0
LINE
8
TOP
10
7.650000
20
2.099103
30
0.0
11
7.762500
21
2.095780
31
0.0
0
LINE
8
TOP
10
7.762500
20
2.095780
30
0.0
11
7.875000
21
2.092457
31
0.0
0
LINE
8
TOP
10
7.875000
20
2.092457
30
0.0
11
7.987500
21
2.089135
31
0.0
0
LINE
8
TOP
10
7.987500
20
2.089135
30
0.0
11
8.100000
21
2.085812
31
0.0
0
LINE
8
TOP
10
8.100000
20
2.085812
30
0.0
11
8.212500
21
2.082489
31
0.0
0
LINE
8
TOP
10
8.212500
20
2.082489
30
0.0
11
8.325000
21
2.079166
31
0.0
0
LINE
8
TOP
10
8.325000
20
2.079166
30
0.0
11
8.437500
21
2.075843
31
0.0
0
LINE
8
TOP
10
8.437500
20
2.075843
30
0.0
11
8.500000
21
2.073997
31
0.0
0
LINE
8
TOP
10
8.500000
20
2.073997
30
0.0
11
8.550000
21
2.072520
31
0.0
0
LINE
8
TOP
10
8.550000
20
2.072520
30
0.0
11
8.662500
21
2.069197
31
0.0
0
LINE
8
TOP
10
8.662500
20
2.069197
30
0.0
11
8.775000
21
2.065874
31
0.0
0
LINE
8
TOP
10
8.775000
20
2.065874
30
0.0
11
8.887500
21
2.062551
31
0.0
0
LINE
8
TOP
10
8.887500
20
2.062551
30
0.0
11
9.000000
21
2.059228
31
0.0
0
LINE
8
TOP
10
0.000000
20
1.774165
30
0.0
11
0.112500
21
1.770842
31
0.0
0
LINE
8
TOP
10
0.112500
20
1.770842
30
0.0
11
0.225000
21
1.767519
31
0.0
0
LINE
8
TOP
10
0.225000
20
1.767519
30
0.0
11
0.337500
21
1.764196
31
0.0
0
LINE
8
TOP
10
0.337500
20
1.764196
30
0.0
11
0.450000
21
1.760873
31
0.0
0
LINE
8
TOP
10
0.450000
20
1.760873
30
0.0
11
0.500000
21
1.759397
31
0.0
0
LINE
8
TOP
10
0.500000
20
1.759397
30
0.0
11
0.562500
21
1.757551
31
0.0
0
LINE
8
TOP
10
0.562500
20
1.757551
30
0.0
11
0.675000
21
1.754228
31
0.0
0
LINE
8
TOP
10
0.675000
20
1.754228
30
0.0
11
0.787500
21
1.750905
31
0.0
0
LINE
8
TOP
10
0.787500
20
1.750905
30
0.0
11
0.900000
21
1.747582
31
0.0
0
LINE
8
TOP
10
0.900000
20
1.747582
30
0.0
11
1.012500
21
1.744259
31
0.0
0
LINE
8
TOP
10
1.012500
20
1.744259
30
0.0
11
1.125000
21
1.740936
31
0.0
0
LINE
8
TOP
10
1.125000
20
1.740936
30
0.0
11
1.237500
21
1.737613
31
0.0
0
LINE
8
TOP
10
1.237500
20
1.737613
30
0.0
11
1.350000
21
1.734290
31
0.0
0
LINE
8
TOP
10
1.350000
20
1.734290
30
0.0
11
1.462500
21
1.730967
31
0.0
0
LINE
8
TOP
10
1.462500
20
1.730967
30
0.0
11
1.575000
21
1.727644
31
0.0
0
LINE
8
TOP
10
1.575000
20
1.727644
30
0.0
11
1.687500
21
1.724322
31
0.0
0
LINE
8
TOP
10
1.687500
20
1.724322
30
0.0
11
1.800000
21
1.720999
31
0.0
0
LINE
8
TOP
10
1.800000
20
1.720999
30
0.0
11
1.912500
21
1.717676
31
0.0
0
LINE
8
TOP
10
1.912500
20
1.717676
30
0.0
11
2.025000
21
1.714353
31
0.0
0
LINE
8
TOP
10
2.025000
20
1.714353
30
0.0
11
2.137500
21
1.711030
31
0.0
0
LINE
8
TOP
10
2.137500
20
1.711030
30
0.0
11
2.250000
21
1.707707
31
0.0
0
LINE
8
TOP
10
2.250000
20
1.707707
30
0.0
11
2.362500
21
1.704384
31
0.0
0
LINE
8
TOP
10
2.362500
20
1.704384
30
0.0
11
2.475000
21
1.701061
31
0.0
0
LINE
8
TOP
10
2.475000
20
1.701061
30
0.0
11
2.587500
21
1.697738
31
0.0
0
LINE
8
TOP
10
2.587500
20
1.697738
30
0.0
11
2.700000
21
1.694415
31
0.0
0
LINE
8
TOP
10
2.700000
20
1.694415
30
0.0
11
2.812500
21
1.691093
31
0.0
0
LINE
8
TOP
10
2.812500
20
1.691093
30
0.0
11
2.925000
21
1.687770
31
0.0
0
LINE
8
TOP
10
2.925000
20
1.687770
30
0.0
11
3.037500
21
1.684447
31
0.0
0
LINE
8
TOP
10
3.037500
20
1.684447
30
0.0
11
3.150000
21
1.681124
31
0.0
0
LINE
8
TOP
10
3.150000
20
1.681124
30
0.0
11
3.262500
21
1.677801
31
0.0
0
LINE
8
TOP
10
3.262500
20
1.677801
30
0.0
11
3.375000
21
1.674478
31
0.0
0
LINE
8
TOP
10
3.375000
20
1.674478
30
0.0
11
3.487500
21
1.671155
31
0.0
0
LINE
8
TOP
10
3.487500
20
1.671155
30
0.0
11
3.600000
21
1.667832
31
0.0
0
LINE
8
TOP
10
3.600000
20
1.667832
30
0.0
11
3.712500
21
1.664509
31
0.0
0
LINE
8
TOP
10
3.712500
20
1.664509
30
0.0
11
3.825000
21
1.661186
31
0.0
0
LINE
8
TOP
10
3.825000
20
1.661186
30
0.0
11
3.937500
21
1.657864
31
0.0
0
LINE
8
TOP
10
3.937500
20
1.657864
30
0.0
11
4.050000
21
1.654541
31
0.0
0
LINE
8
TOP
10
4.050000
20
1.654541
30
0.0
11
4.162500
21
1.651218
31
0.0
0
LINE
8
TOP
10
4.162500
20
1.651218
30
0.0
11
4.275000
21
1.647895
31
0.0
0
LINE
8
TOP
10
4.275000
20
1.647895
30
0.0
11
4.387500
21
1.644572
31
0.0
0
LINE
8
TOP
10
4.387500
20
1.644572
30
0.0
11
4.500000
21
1.641249
31
0.0
0
LINE
8
TOP
10
4.500000
20
1.641249
30
0.0
11
4.612500
21
1.644572
31
0.0
0
LINE
8
TOP
10
4.612500
20
1.644572
30
0.0
11
4.725000
21
1.647895
31
0.0
0
LINE
8
TOP
10
4.725000
20
1.647895
30
0.0
11
4.837500
21
1.651218
31
0.0
0
LINE
8
TOP
10
4.837500
20
1.651218
30
0.0
11
4.950000
21
1.654541
31
0.0
0
LINE
8
TOP
10
4.950000
20
1.654541
30
0.0
11
5.062500
21
1.657864
31
0.0
0
LINE
8
TOP
10
5.062500
20
1.657864
30
0.0
11
5.175000
21
1.661186
31
0.0
0
LINE
8
TOP
10
5.175000
20
1.661186
30
0.0
11
5.287500
21
1.664509
31
0.0
0
LINE
8
TOP
10
5.287500
20
1.664509
30
0.0
11
5.400000
21
1.667832
31
0.0
0
LINE
8
TOP
10
5.400000
20
1.667832
30
0.0
11
5.512500
21
1.671155
31
0.0
0
LINE
8
TOP
10
5.512500
20
1.671155
30
0.0
11
5.625000
21
1.674478
31
0.0
0
LINE
8
TOP
10
5.625000
20
1.674478
30
0.0
11
5.737500
21
1.677801
31
0.0
0
LINE
8
TOP
10
5.737500
20
1.677801
30
0.0
11
5.850000
21
1.681124
31
0.0
0
LINE
8
TOP
10
5.850000
20
1.681124
30
0.0
11
5.962500
21
1.684447
31
0.0
0
LINE
8
TOP
10
5.962500
20
1.684447
30
0.0
11
6.075000
21
1.687770
31
0.0
0
LINE
8
TOP
10
6.075000
20
1.687770
30
0.0
11
6.187500
21
1.691093
31
0.0
0
LINE
8
TOP
10
6.187500
20
1.691093
30
0.0
11
6.300000
21
1.694415
31
0.0
0
LINE
8
TOP
10
6.300000
20
1.694415
30
0.0
11
6.412500
21
1.697738
31
0.0
0
LINE
8
TOP
10
6.412500
20
1.697738
30
0.0
11
6.525000
21
1.701061
31
0.0
0
LINE
8
TOP
10
6.525000
20
1.701061
30
0.0
11
6.637500
21
1.704384
31
0.0
0
LINE
8
TOP
10
6.637500
20
1.704384
30
0.0
11
6.750000
21
1.707707
31
0.0
0
LINE
8
TOP
10
6.750000
20
1.707707
30
0.0
11
6.862500
21
1.711030
31
0.0
0
LINE
8
TOP
10
6.862500
20
1.711030
30
0.0
11
6.975000
21
1.714353
31
0.0
0
LINE
8
TOP
10
6.975000
20
1.714353
30
0.0
11
7.087500
21
1.717676
31
0.0
0
LINE
8
TOP
10
7.087500
20
1.717676
30
0.0
11
7.200000
21
1.720999
31
0.0
0
LINE
8
TOP
10
7.200000
20
1.720999
30
0.0
11
7.312500
21
1.724322
31
0.0
0
LINE
8
TOP
10
7.312500
20
1.724322
30
0.0
11
7.425000
21
1.727644
31
0.0
0
LINE
8
TOP
10
7.425000
20
1.727644
30
0.0
11
7.537500
21
1.730967
31
0.0
0
LINE
8
TOP
10
7.537500
20
1.730967
30
0.0
11
7.650000
21
1.734290
31
0.0
0
LINE
8
TOP
10
7.650000
20
1.734290
30
0.0
11
7.762500
21
1.737613
31
0.0
0
LINE
8
TOP
10
7.762500
20
1.737613
30
0.0
11
7.875000
21
1.740936
31
0.0
0
LINE
8
TOP
10
7.875000
20
1.740936
30
0.0
11
7.987500
21
1.744259
31
0.0
0
LINE
8
TOP
10
7.987500
20
1.744259
30
0.0
11
8.100000
21
1.747582
31
0.0
0
LINE
8
TOP
10
8.100000
20
1.747582
30
0.0
11
8.212500
21
1.750905
31
0.0
0
LINE
8
TOP
10
8.212500
20
1.750905
30
0.0
11
8.325000
21
1.754228
31
0.0
0
LINE
8
TOP
10
8.325000
20
1.754228
30
0.0
11
8.437500
21
1.757551
31
0.0
0
LINE
8
TOP
10
8.437500
20
1.757551
30
0.0
11
8.500000
21
1.759397
31
0.0
0
LINE
8
TOP
10
8.500000
20
1.759397
30
0.0
11
8.550000
21
1.760873
31
0.0
0
LINE
8
TOP
10
8.550000
20
1.760873
30
0.0
11
8.662500
21
1.764196
31
0.0
0
LINE
8
TOP
10
8.662500
20
1.764196
30
0.0
11
8.775000
21
1.767519
31
0.0
0
LINE
8
TOP
10
8.775000
20
1.767519
30
0.0
11
8.887500
21
1.770842
31
0.0
0
LINE
8
TOP
10
8.887500
20
1.770842
30
0.0
11
9.000000
21
1.774165
31
0.0
0
LINE
8
TOP
10
0.000000
20
2.059228
30
0.0
11
0.000000
21
1.774165
31
0.0
0
LINE
8
TOP
10
9.000000
20
2.059228
30
0.0
11
9.000000
21
1.774165
31
0.0
0
LINE
8
SECTION
10
10.224552
20
-0.388899
30
0.0
11
10.775448
21
-0.388899
31
0.0
0
LINE
8
SECTION
10
10.775448
20
-0.388899
30
0.0
11
10.775448
21
0.388899
31
0.0
0
LINE
8
SECTION
10
10.775448
20
0.388899
30
0.0
11
10.224552
21
0.388899
31
0.0
0
LINE
8
SECTION
10
10.224552
20
0.388899
30
0.0
11
10.224552
21
-0.388899
31
0.0
0
LINE
8
SECTION
10
10.264586
20
-0.348866
30
0.0
11
10.735414
21
-0.348866
31
0.0
0
LINE
8
SECTION
10
10.735414
20
-0.348866
30
0.0
11
10.735414
21
0.348866
31
0.0
0
LINE
8
SECTION
10
10.735414
20
0.348866
30
0.0
11
10.264586
21
0.348866
31
0.0
0
LINE
8
SECTION
10
10.264586
20
0.348866
30
0.0
11
10.264586
21
-0.348866
31
0.0
0
LINE
8
SECTION
10
10.264586
20
0.238808
30
0.0
11
10.304619
21
0.238808
31
0.0
0
LINE
8
SECTION
10
10.304619
20
0.238808
30
0.0
11
10.304619
21
0.348866
31
0.0
0
LINE
8
SECTION
10
10.304619
20
0.348866
30
0.0
11
10.264586
21
0.348866
31
0.0
0
LINE
8
SECTION
10
10.264586
20
0.348866
30
0.0
11
10.264586
21
0.238808
31
0.0
0
LINE
8
SECTION
10
10.264586
20
-0.348866
30
0.0
11
10.304619
21
-0.348866
31
0.0
0
LINE
8
SECTION
10
10.304619
20
-0.348866
30
0.0
11
10.304619
21
-0.238808
31
0.0
0
LINE
8
SECTION
10
10.304619
20
-0.238808
30
0.0
11
10.264586
21
-0.238808
31
0.0
0
LINE
8
SECTION
10
10.264586
20
-0.238808
30
0.0
11
10.264586
21
-0.348866
31
0.0
0
LINE
8
SECTION
10
10.695381
20
0.238808
30
0.0
11
10.735414
21
0.238808
31
0.0
0
LINE
8
SECTION
10
10.735414
20
0.238808
30
0.0
11
10.735414
21
0.348866
31
0.0
0
LINE
8
SECTION
10
10.735414
20
0.348866
30
0.0
11
10.695381
21
0.348866
31
0.0
0
LINE
8
SECTION
10
10.695381
20
0.348866
30
0.0
11
10.695381
21
0.238808
31
0.0
0
LINE
8
SECTION
10
10.695381
20
-0.348866
30
0.0
11
10.735414
21
-0.348866
31
0.0
0
LINE
8
SECTION
10
10.735414
20
-0.348866
30
0.0
11
10.735414
21
-0.238808
31
0.0
0
LINE
8
SECTION
10
10.735414
20
-0.238808
30
0.0
11
10.695381
21
-0.238808
31
0.0
0
LINE
8
SECTION
10
10.695381
20
-0.238808
30
0.0
11
10.695381
21
-0.348866
31
0.0
0
ENDSEC
0
EOF
