0
SECTION
2
HEADER
9
$INSUNITS
70
1
0
ENDSEC
0
SECTION
2
ENTITIES
0
LINE
8
FRONT
10
0.000000
20
0.361003
30
0.0
11
0.112500
21
0.358892
31
0.0
0
LINE
8
FRONT
10
0.112500
20
0.358892
30
0.0
11
0.225000
21
0.356780
31
0.0
0
LINE
8
FRONT
10
0.225000
20
0.356780
30
0.0
11
0.337500
21
0.354669
31
0.0
0
LINE
8
FRONT
10
0.337500
20
0.354669
30
0.0
11
0.450000
21
0.352557
31
0.0
0
LINE
8
FRONT
10
0.450000
20
0.352557
30
0.0
11
0.500000
21
0.351619
31
0.0
0
LINE
8
FRONT
10
0.500000
20
0.351619
30
0.0
11
0.562500
21
0.350446
31
0.0
0
LINE
8
FRONT
10
0.562500
20
0.350446
30
0.0
11
0.675000
21
0.348334
31
0.0
0
LINE
8
FRONT
10
0.675000
20
0.348334
30
0.0
11
0.787500
21
0.346223
31
0.0
0
LINE
8
FRONT
10
0.787500
20
0.346223
30
0.0
11
0.900000
21
0.344111
31
0.0
0
LINE
8
FRONT
10
0.900000
20
0.344111
30
0.0
11
1.012500
21
0.342000
31
0.0
0
LINE
8
FRONT
10
1.012500
20
0.342000
30
0.0
11
1.125000
21
0.339889
31
0.0
0
LINE
8
FRONT
10
1.125000
20
0.339889
30
0.0
11
1.237500
21
0.337777
31
0.0
0
LINE
8
FRONT
10
1.237500
20
0.337777
30
0.0
11
1.350000
21
0.335666
31
0.0
0
LINE
8
FRONT
10
1.350000
20
0.335666
30
0.0
11
1.462500
21
0.333554
31
0.0
0
LINE
8
FRONT
10
1.462500
20
0.333554
30
0.0
11
1.575000
21
0.331443
31
0.0
0
LINE
8
FRONT
10
1.575000
20
0.331443
30
0.0
11
1.687500
21
0.329331
31
0.0
0
LINE
8
FRONT
10
1.687500
20
0.329331
30
0.0
11
1.800000
21
0.327220
31
0.0
0
LINE
8
FRONT
10
1.800000
20
0.327220
30
0.0
11
1.912500
21
0.325108
31
0.0
0
LINE
8
FRONT
10
1.912500
20
0.325108
30
0.0
11
2.025000
21
0.322997
31
0.0
0
LINE
8
FRONT
10
2.025000
20
0.322997
30
0.0
11
2.137500
21
0.320885
31
0.0
0
LINE
8
FRONT
10
2.137500
20
0.320885
30
0.0
11
2.250000
21
0.318774
31
0.0
0
LINE
8
FRONT
10
2.250000
20
0.318774
30
0.0
11
2.362500
21
0.316662
31
0.0
0
LINE
8
FRONT
10
2.362500
20
0.316662
30
0.0
11
2.475000
21
0.314551
31
0.0
0
LINE
8
FRONT
10
2.475000
20
0.314551
30
0.0
11
2.587500
21
0.312440
31
0.0
0
LINE
8
FRONT
10
2.587500
20
0.312440
30
0.0
11
2.700000
21
0.310328
31
0.0
0
LINE
8
FRONT
10
2.700000
20
0.310328
30
0.0
11
2.812500
21
0.308217
31
0.0
0
LINE
8
FRONT
10
2.812500
20
0.308217
30
0.0
11
2.925000
21
0.306105
31
0.0
0
LINE
8
FRONT
10
2.925000
20
0.306105
30
0.0
11
3.037500
21
0.303994
31
0.0
0
LINE
8
FRONT
10
3.037500
20
0.303994
30
0.0
11
3.150000
21
0.301882
31
0.0
0
LINE
8
FRONT
10
3.150000
20
0.301882
30
0.0
11
3.262500
21
0.299771
31
0.0
0
LINE
8
FRONT
10
3.262500
20
0.299771
30
0.0
11
3.375000
21
0.297659
31
0.0
0
LINE
8
FRONT
10
3.375000
20
0.297659
30
0.0
11
3.487500
21
0.295548
31
0.0
0
LINE
8
FRONT
10
3.487500
20
0.295548
30
0.0
11
3.600000
21
0.293436
31
0.0
0
LINE
8
FRONT
10
3.600000
20
0.293436
30
0.0
11
3.712500
21
0.291325
31
0.0
0
LINE
8
FRONT
10
3.712500
20
0.291325
30
0.0
11
3.825000
21
0.289213
31
0.0
0
LINE
8
FRONT
10
3.825000
20
0.289213
30
0.0
11
3.937500
21
0.287102
31
0.0
0
LINE
8
FRONT
10
3.937500
20
0.287102
30
0.0
11
4.050000
21
0.284991
31
0.0
0
LINE
8
FRONT
10
4.050000
20
0.284991
30
0.0
11
4.162500
21
0.282879
31
0.0
0
LINE
8
FRONT
10
4.162500
20
0.282879
30
0.0
11
4.275000
21
0.280768
31
0.0
0
LINE
8
FRONT
10
4.275000
20
0.280768
30
0.0
11
4.387500
21
0.278656
31
0.0
0
LINE
8
FRONT
10
4.387500
20
0.278656
30
0.0
11
4.500000
21
0.276545
31
0.0
0
LINE
8
FRONT
10
4.500000
20
0.276545
30
0.0
11
4.612500
21
0.278745
31
0.0
0
LINE
8
FRONT
10
4.612500
20
0.278745
30
0.0
11
4.725000
21
0.280945
31
0.0
0
LINE
8
FRONT
10
4.725000
20
0.280945
30
0.0
11
4.837500
21
0.283145
31
0.0
0
LINE
8
FRONT
10
4.837500
20
0.283145
30
0.0
11
4.950000
21
0.285346
31
0.0
0
LINE
8
FRONT
10
4.950000
20
0.285346
30
0.0
11
5.062500
21
0.287546
31
0.0
0
LINE
8
FRONT
10
5.062500
20
0.287546
30
0.0
11
5.175000
21
0.289746
31
0.0
0
LINE
8
FRONT
10
5.175000
20
0.289746
30
0.0
11
5.287500
21
0.291946
31
0.0
0
LINE
8
FRONT
10
5.287500
20
0.291946
30
0.0
11
5.400000
21
0.294147
31
0.0
0
LINE
8
FRONT
10
5.400000
20
0.294147
30
0.0
11
5.512500
21
0.296347
31
0.0
0
LINE
8
FRONT
10
5.512500
20
0.296347
30
0.0
11
5.625000
21
0.298547
31
0.0
0
LINE
8
FRONT
10
5.625000
20
0.298547
30
0.0
11
5.737500
21
0.300747
31
0.0
0
LINE
8
FRONT
10
5.737500
20
0.300747
30
0.0
11
5.850000
21
0.302948
31
0.0
0
LINE
8
FRONT
10
5.850000
20
0.302948
30
0.0
11
5.962500
21
0.305148
31
0.0
0
LINE
8
FRONT
10
5.962500
20
0.305148
30
0.0
11
6.075000
21
0.307348
31
0.0
0
LINE
8
FRONT
10
6.075000
20
0.307348
30
0.0
11
6.187500
21
0.309548
31
0.0
0
LINE
8
FRONT
10
6.187500
20
0.309548
30
0.0
11
6.300000
21
0.311749
31
0.0
0
LINE
8
FRONT
10
6.300000
20
0.311749
30
0.0
11
6.412500
21
0.313949
31
0.0
0
LINE
8
FRONT
10
6.412500
20
0.313949
30
0.0
11
6.525000
21
0.316149
31
0.0
0
LINE
8
FRONT
10
6.525000
20
0.316149
30
0.0
11
6.637500
21
0.318349
31
0.0
0
LINE
8
FRONT
10
6.637500
20
0.318349
30
0.0
11
6.750000
21
0.320550
31
0.0
0
LINE
8
FRONT
10
6.750000
20
0.320550
30
0.0
11
6.862500
21
0.322750
31
0.0
0
LINE
8
FRONT
10
6.862500
20
0.322750
30
0.0
11
6.975000
21
0.324950
31
0.0
0
LINE
8
FRONT
10
6.975000
20
0.324950
30
0.0
11
7.087500
21
0.327150
31
0.0
0
LINE
8
FRONT
10
7.087500
20
0.327150
30
0.0
11
7.200000
21
0.329351
31
0.0
0
LINE
8
FRONT
10
7.200000
20
0.329351
30
0.0
11
7.312500
21
0.331551
31
0.0
0
LINE
8
FRONT
10
7.312500
20
0.331551
30
0.0
11
7.425000
21
0.333751
31
0.0
0
LINE
8
FRONT
10
7.425000
20
0.333751
30
0.0
11
7.537500
21
0.335951
31
0.0
0
LINE
8
FRONT
10
7.537500
20
0.335951
30
0.0
11
7.650000
21
0.338152
31
0.0
0
LINE
8
FRONT
10
7.650000
20
0.338152
30
0.0
11
7.762500
21
0.340352
31
0.0
0
LINE
8
FRONT
10
7.762500
20
0.340352
30
0.0
11
7.875000
21
0.342552
31
0.0
0
LINE
8
FRONT
10
7.875000
20
0.342552
30
0.0
11
7.987500
21
0.344752
31
0.0
0
LINE
8
FRONT
10
7.987500
20
0.344752
30
0.0
11
8.100000
21
0.346953
31
0.0
0
LINE
8
FRONT
10
8.100000
20
0.346953
30
0.0
11
8.212500
21
0.349153
31
0.0
0
LINE
8
FRONT
10
8.212500
20
0.349153
30
0.0
11
8.325000
21
0.351353
31
0.0
0
LINE
8
FRONT
10
8.325000
20
0.351353
30
0.0
11
8.437500
21
0.353553
31
0.0
0
LINE
8
FRONT
10
8.437500
20
0.353553
30
0.0
11
8.500000
21
0.354776
31
0.0
0
LINE
8
FRONT
10
8.500000
20
0.354776
30
0.0
11
8.550000
21
0.355754
31
0.0
0
LINE
8
FRONT
10
8.550000
20
0.355754
30
0.0
11
8.662500
21
0.357954
31
0.0
0
LINE
8
FRONT
10
8.662500
20
0.357954
30
0.0
11
8.775000
21
0.360154
31
0.0
0
LINE
8
FRONT
10
8.775000
20
0.360154
30
0.0
11
8.887500
21
0.362354
31
0.0
0
LINE
8
FRONT
10
8.887500
20
0.362354
30
0.0
11
9.000000
21
0.364555
31
0.0
0
LINE
8
FRONT
10
0.000000
20
-0.361003
30
0.0
11
0.112500
21
-0.358892
31
0.0
0
LINE
8
FRONT
10
0.112500
20
-0.358892
30
0.0
11
0.225000
21
-0.356780
31
0.0
0
LINE
8
FRONT
10
0.225000
20
-0.356780
30
0.0
11
0.337500
21
-0.354669
31
0.0
0
LINE
8
FRONT
10
0.337500
20
-0.354669
30
0.0
11
0.450000
21
-0.352557
31
0.0
0
LINE
8
FRONT
10
0.450000
20
-0.352557
30
0.0
11
0.500000
21
-0.351619
31
0.0
0
LINE
8
FRONT
10
0.500000
20
-0.351619
30
0.0
11
0.562500
21
-0.350446
31
0.0
0
LINE
8
FRONT
10
0.562500
20
-0.350446
30
0.0
11
0.675000
21
-0.348334
31
0.0
0
LINE
8
FRONT
10
0.675000
20
-0.348334
30
0.0
11
0.787500
21
-0.346223
31
0.0
0
LINE
8
FRONT
10
0.787500
20
-0.346223
30
0.0
11
0.900000
21
-0.344111
31
0.0
0
LINE
8
FRONT
10
0.900000
20
-0.344111
30
0.0
11
1.012500
21
-0.342000
31
0.0
0
LINE
8
FRONT
10
1.012500
20
-0.342000
30
0.0
11
1.125000
21
-0.339889
31
0.0
0
LINE
8
FRONT
10
1.125000
20
-0.339889
30
0.0
11
1.237500
21
-0.337777
31
0.0
0
LINE
8
FRONT
10
1.237500
20
-0.337777
30
0.0
11
1.350000
21
-0.335666
31
0.0
0
LINE
8
FRONT
10
1.350000
20
-0.335666
30
0.0
11
1.462500
21
-0.333554
31
0.0
0
LINE
8
FRONT
10
1.462500
20
-0.333554
30
0.0
11
1.575000
21
-0.331443
31
0.0
0
LINE
8
FRONT
10
1.575000
20
-0.331443
30
0.0
11
1.687500
21
-0.329331
31
0.0
0
LINE
8
FRONT
10
1.687500
20
-0.329331
30
0.0
11
1.800000
21
-0.327220
31
0.0
0
LINE
8
FRONT
10
1.800000
20
-0.327220
30
0.0
11
1.912500
21
-0.325108
31
0.0
0
LINE
8
FRONT
10
1.912500
20
-0.325108
30
0.0
11
2.025000
21
-0.322997
31
0.0
0
LINE
8
FRONT
10
2.025000
20
-0.322997
30
0.0
11
2.137500
21
-0.320885
31
0.0
0
LINE
8
FRONT
10
2.137500
20
-0.320885
30
0.0
11
2.250000
21
-0.318774
31
0.0
0
LINE
8
FRONT
10
2.250000
20
-0.318774
30
0.0
11
2.362500
21
-0.316662
31
0.0
0
LINE
8
FRONT
10
2.362500
20
-0.316662
30
0.0
11
2.475000
21
-0.314551
31
0.0
0
LINE
8
FRONT
10
2.475000
20
-0.314551
30
0.0
11
2.587500
21
-0.312440
31
0.0
0
LINE
8
FRONT
10
2.587500
20
-0.312440
30
0.0
11
2.700000
21
-0.310328
31
0.0
0
LINE
8
FRONT
10
2.700000
20
-0.310328
30
0.0
11
2.812500
21
-0.308217
31
0.0
0
LINE
8
FRONT
10
2.812500
20
-0.308217
30
0.0
11
2.925000
21
-0.306105
31
0.0
0
LINE
8
FRONT
10
2.925000
20
-0.306105
30
0.0
11
3.037500
21
-0.303994
31
0.0
0
LINE
8
FRONT
10
3.037500
20
-0.303994
30
0.0
11
3.150000
21
-0.301882
31
0.0
0
LINE
8
FRONT
10
3.150000
20
-0.301882
30
0.0
11
3.262500
21
-0.299771
31
0.0
0
LINE
8
FRONT
10
3.262500
20
-0.299771
30
0.0
11
3.375000
21
-0.297659
31
0.0
0
LINE
8
FRONT
10
3.375000
20
-0.297659
30
0.0
11
3.487500
21
-0.295548
31
0.0
0
LINE
8
FRONT
10
3.487500
20
-0.295548
30
0.0
11
3.600000
21
-0.293436
31
0.0
0
LINE
8
FRONT
10
3.600000
20
-0.293436
30
0.0
11
3.712500
21
-0.291325
31
0.0
0
LINE
8
FRONT
10
3.712500
20
-0.291325
30
0.0
11
3.825000
21
-0.289213
31
0.0
0
LINE
8
FRONT
10
3.825000
20
-0.289213
30
0.0
11
3.937500
21
-0.287102
31
0.0
0
LINE
8
FRONT
10
3.937500
20
-0.287102
30
0.0
11
4.050000
21
-0.284991
31
0.0
0
LINE
8
FRONT
10
4.050000
20
-0.284991
30
0.0
11
4.162500
21
-0.282879
31
0.0
0
LINE
8
FRONT
10
4.162500
20
-0.282879
30
0.0
11
4.275000
21
-0.280768
31
0.0
0
LINE
8
FRONT
10
4.275000
20
-0.280768
30
0.0
11
4.387500
21
-0.278656
31
0.0
0
LINE
8
FRONT
10
4.387500
20
-0.278656
30
0.0
11
4.500000
21
-0.276545
31
0.0
0
LINE
8
FRONT
10
4.500000
20
-0.276545
30
0.0
11
4.612500
21
-0.278745
31
0.0
0
LINE
8
FRONT
10
4.612500
20
-0.278745
30
0.0
11
4.725000
21
-0.280945
31
0.0
0
LINE
8
FRONT
10
4.725000
20
-0.280945
30
0.0
11
4.837500
21
-0.283145
31
0.0
0
LINE
8
FRONT
10
4.837500
20
-0.283145
30
0.0
11
4.950000
21
-0.285346
31
0.0
0
LINE
8
FRONT
10
4.950000
20
-0.285346
30
0.0
11
5.062500
21
-0.287546
31
0.0
0
LINE
8
FRONT
10
5.062500
20
-0.287546
30
0.0
11
5.175000
21
-0.289746
31
0.0
0
LINE
8
FRONT
10
5.175000
20
-0.289746
30
0.0
11
5.287500
21
-0.291946
31
0.0
0
LINE
8
FRONT
10
5.287500
20
-0.291946
30
0.0
11
5.400000
21
-0.294147
31
0.0
0
LINE
8
FRONT
10
5.400000
20
-0.294147
30
0.0
11
5.512500
21
-0.296347
31
0.0
0
LINE
8
FRONT
10
5.512500
20
-0.296347
30
0.0
11
5.625000
21
-0.298547
31
0.0
0
LINE
8
FRONT
10
5.625000
20
-0.298547
30
0.0
11
5.737500
21
-0.300747
31
0.0
0
LINE
8
FRONT
10
5.737500
20
-0.300747
30
0.0
11
5.850000
21
-0.302948
31
0.0
0
LINE
8
FRONT
10
5.850000
20
-0.302948
30
0.0
11
5.962500
21
-0.305148
31
0.0
0
LINE
8
FRONT
10
5.962500
20
-0.305148
30
0.0
11
6.075000
21
-0.307348
31
0.0
0
LINE
8
FRONT
10
6.075000
20
-0.307348
30
0.0
11
6.187500
21
-0.309548
31
0.0
0
LINE
8
FRONT
10
6.187500
20
-0.309548
30
0.0
11
6.300000
21
-0.311749
31
0.0
0
LINE
8
FRONT
10
6.300000
20
-0.311749
30
0.0
11
6.412500
21
-0.313949
31
0.0
0
LINE
8
FRONT
10
6.412500
20
-0.313949
30
0.0
11
6.525000
21
-0.316149
31
0.0
0
LINE
8
FRONT
10
6.525000
20
-0.316149
30
0.0
11
6.637500
21
-0.318349
31
0.0
0
LINE
8
FRONT
10
6.637500
20
-0.318349
30
0.0
11
6.750000
21
-0.320550
31
0.0
0
LINE
8
FRONT
10
6.750000
20
-0.320550
30
0.0
11
6.862500
21
-0.322750
31
0.0
0
LINE
8
FRONT
10
6.862500
20
-0.322750
30
0.0
11
6.975000
21
-0.324950
31
0.0
0
LINE
8
FRONT
10
6.975000
20
-0.324950
30
0.0
11
7.087500
21
-0.327150
31
0.0
0
LINE
8
FRONT
10
7.087500
20
-0.327150
30
0.0
11
7.200000
21
-0.329351
31
0.0
0
LINE
8
FRONT
10
7.200000
20
-0.329351
30
0.0
11
7.312500
21
-0.331551
31
0.0
0
LINE
8
FRONT
10
7.312500
20
-0.331551
30
0.0
11
7.425000
21
-0.333751
31
0.0
0
LINE
8
FRONT
10
7.425000
20
-0.333751
30
0.0
11
7.537500
21
-0.335951
31
0.0
0
LINE
8
FRONT
10
7.537500
20
-0.335951
30
0.0
11
7.650000
21
-0.338152
31
0.0
0
LINE
8
FRONT
10
7.650000
20
-0.338152
30
0.0
11
7.762500
21
-0.340352
31
0.0
0
LINE
8
FRONT
10
7.762500
20
-0.340352
30
0.0
11
7.875000
21
-0.342552
31
0.0
0
LINE
8
FRONT
10
7.875000
20
-0.342552
30
0.0
11
7.987500
21
-0.344752
31
0.0
0
LINE
8
FRONT
10
7.987500
20
-0.344752
30
0.0
11
8.100000
21
-0.346953
31
0.0
0
LINE
8
FRONT
10
8.100000
20
-0.346953
30
0.0
11
8.212500
21
-0.349153
31
0.0
0
LINE
8
FRONT
10
8.212500
20
-0.349153
30
0.0
11
8.325000
21
-0.351353
31
0.0
0
LINE
8
FRONT
10
8.325000
20
-0.351353
30
0.0
11
8.437500
21
-0.353553
31
0.0
0
LINE
8
FRONT
10
8.437500
20
-0.353553
30
0.0
11
8.500000
21
-0.354776
31
0.0
0
LINE
8
FRONT
10
8.500000
20
-0.354776
30
0.0
11
8.550000
21
-0.355754
31
0.0
0
LINE
8
FRONT
10
8.550000
20
-0.355754
30
0.0
11
8.662500
21
-0.357954
31
0.0
0
LINE
8
FRONT
10
8.662500
20
-0.357954
30
0.0
11
8.775000
21
-0.360154
31
0.0
0
LINE
8
FRONT
10
8.775000
20
-0.360154
30
0.0
11
8.887500
21
-0.362354
31
0.0
0
LINE
8
FRONT
10
8.887500
20
-0.362354
30
0.0
11
9.000000
21
-0.364555
31
0.0
0
LINE
8
FRONT
10
0.000000
20
0.361003
30
0.0
11
0.000000
21
-0.361003
31
0.0
0
LINE
8
FRONT
10
9.000000
20
0.364555
30
0.0
11
9.000000
21
-0.364555
31
0.0
0
LINE
8
TOP
10
0.000000
20
2.002332
30
0.0
11
0.112500
21
2.003186
31
0.0
0
LINE
8
TOP
10
0.112500
20
2.003186
30
0.0
11
0.225000
21
2.004040
31
0.0
0
LINE
8
TOP
10
0.225000
20
2.004040
30
0.0
11
0.337500
21
2.004894
31
0.0
0
LINE
8
TOP
10
0.337500
20
2.004894
30
0.0
11
0.450000
21
2.005748
31
0.0
0
LINE
8
TOP
10
0.450000
20
2.005748
30
0.0
11
0.500000
21
2.006127
31
0.0
0
LINE
8
TOP
10
0.500000
20
2.006127
30
0.0
11
0.562500
21
2.006601
31
0.0
0
LINE
8
TOP
10
0.562500
20
2.006601
30
0.0
11
0.675000
21
2.007455
31
0.0
0
LINE
8
TOP
10
0.675000
20
2.007455
30
0.0
11
0.787500
21
2.008309
31
0.0
0
LINE
8
TOP
10
0.787500
20
2.008309
30
0.0
11
0.900000
21
2.009163
31
0.0
0
LINE
8
TOP
10
0.900000
20
2.009163
30
0.0
11
1.012500
21
2.010017
31
0.0
0
LINE
8
TOP
10
1.012500
20
2.010017
30
0.0
11
1.125000
21
2.010871
31
0.0
0
LINE
8
TOP
10
1.125000
20
2.010871
30
0.0
11
1.237500
21
2.011724
31
0.0
0
LINE
8
TOP
10
1.237500
20
2.011724
30
0.0
11
1.350000
21
2.012578
31
0.0
0
LINE
8
TOP
10
1.350000
20
2.012578
30
0.0
11
1.462500
21
2.013432
31
0.0
0
LINE
8
TOP
10
1.462500
20
2.013432
30
0.0
11
1.575000
21
2.014286
31
0.0
0
LINE
8
TOP
10
1.575000
20
2.014286
30
0.0
11
1.687500
21
2.015140
31
0.0
0
LINE
8
TOP
10
1.687500
20
2.015140
30
0.0
11
1.800000
21
2.015994
31
0.0
0
LINE
8
TOP
10
1.800000
20
2.015994
30
0.0
11
1.912500
21
2.016848
31
0.0
0
LINE
8
TOP
10
1.912500
20
2.016848
30
0.0
11
2.025000
21
2.017701
31
0.0
0
LINE
8
TOP
10
2.025000
20
2.017701
30
0.0
11
2.137500
21
2.018555
31
0.0
0
LINE
8
TOP
10
2.137500
20
2.018555
30
0.0
11
2.250000
21
2.019409
31
0.0
0
LINE
8
TOP
10
2.250000
20
2.019409
30
0.0
11
2.362500
21
2.020263
31
0.0
0
LINE
8
TOP
10
2.362500
20
2.020263
30
0.0
11
2.475000
21
2.021117
31
0.0
0
LINE
8
TOP
10
2.475000
20
2.021117
30
0.0
11
2.587500
21
2.021971
31
0.0
0
LINE
8
TOP
10
2.587500
20
2.021971
30
0.0
11
2.700000
21
2.022825
31
0.0
0
LINE
8
TOP
10
2.700000
20
2.022825
30
0.0
11
2.812500
21
2.023678
31
0.0
0
LINE
8
TOP
10
2.812500
20
2.023678
30
0.0
11
2.925000
21
2.024532
31
0.0
0
LINE
8
TOP
10
2.925000
20
2.024532
30
0.0
11
3.037500
21
2.025386
31
0.0
0
LINE
8
TOP
10
3.037500
20
2.025386
30
0.0
11
3.150000
21
2.026240
31
0.0
0
LINE
8
TOP
10
3.150000
20
2.026240
30
0.0
11
3.262500
21
2.027094
31
0.0
0
LINE
8
TOP
10
3.262500
20
2.027094
30
0.0
11
3.375000
21
2.027948
31
0.0
0
LINE
8
TOP
10
3.375000
20
2.027948
30
0.0
11
3.487500
21
2.028801
31
0.0
0
LINE
8
TOP
10
3.487500
20
2.028801
30
0.0
11
3.600000
21
2.029655
31
0.0
0
LINE
8
TOP
10
3.600000
20
2.029655
30
0.0
11
3.712500
21
2.030509
31
0.0
0
LINE
8
TOP
10
3.712500
20
2.030509
30
0.0
11
3.825000
21
2.031363
31
0.0
0
LINE
8
TOP
10
3.825000
20
2.031363
30
0.0
11
3.937500
21
2.032217
31
0.0
0
LINE
8
TOP
10
3.937500
20
2.032217
30
0.0
11
4.050000
21
2.033071
31
0.0
0
LINE
8
TOP
10
4.050000
20
2.033071
30
0.0
11
4.162500
21
2.033925
31
0.0
0
LINE
8
TOP
10
4.162500
20
2.033925
30
0.0
11
4.275000
21
2.034778
31
0.0
0
LINE
8
TOP
10
4.275000
20
2.034778
30
0.0
11
4.387500
21
2.035632
31
0.0
0
LINE
8
TOP
10
4.387500
20
2.035632
30
0.0
11
4.500000
21
2.036486
31
0.0
0
LINE
8
TOP
10
4.500000
20
2.036486
30
0.0
11
4.612500
21
2.036835
31
0.0
0
LINE
8
TOP
10
4.612500
20
2.036835
30
0.0
11
4.725000
21
2.037185
31
0.0
0
LINE
8
TOP
10
4.725000
20
2.037185
30
0.0
11
4.837500
21
2.037534
31
0.0
0
LINE
8
TOP
10
4.837500
20
2.037534
30
0.0
11
4.950000
21
2.037883
31
0.0
0
LINE
8
TOP
10
4.950000
20
2.037883
30
0.0
11
5.062500
21
2.038233
31
0.0
0
LINE
8
TOP
10
5.062500
20
2.038233
30
0.0
11
5.175000
21
2.038582
31
0.0
0
LINE
8
TOP
10
5.175000
20
2.038582
30
0.0
11
5.287500
21
2.038931
31
0.0
0
LINE
8
TOP
10
5.287500
20
2.038931
30
0.0
11
5.400000
21
2.039281
31
0.0
0
LINE
8
TOP
10
5.400000
20
2.039281
30
0.0
11
5.512500
21
2.039630
31
0.0
0
LINE
8
TOP
10
5.512500
20
2.039630
30
0.0
11
5.625000
21
2.039979
31
0.0
0
LINE
8
TOP
10
5.625000
20
2.039979
30
0.0
11
5.737500
21
2.040329
31
0.0
0
LINE
8
TOP
10
5.737500
20
2.040329
30
0.0
11
5.850000
21
2.040678
31
0.0
0
LINE
8
TOP
10
5.850000
20
2.040678
30
0.0
11
5.962500
21
2.041027
31
0.0
0
LINE
8
TOP
10
5.962500
20
2.041027
30
0.0
11
6.075000
21
2.041376
31
0.0
0
LINE
8
TOP
10
6.075000
20
2.041376
30
0.0
11
6.187500
21
2.041726
31
0.0
0
LINE
8
TOP
10
6.187500
20
2.041726
30
0.0
11
6.300000
21
2.042075
31
0.0
0
LINE
8
TOP
10
6.300000
20
2.042075
30
0.0
11
6.412500
21
2.042424
31
0.0
0
LINE
8
TOP
10
6.412500
20
2.042424
30
0.0
11
6.525000
21
2.042774
31
0.0
0
LINE
8
TOP
10
6.525000
20
2.042774
30
0.0
11
6.637500
21
2.043123
31
0.0
0
LINE
8
TOP
10
6.637500
20
2.043123
30
0.0
11
6.750000
21
2.043472
31
0.0
0
LINE
8
TOP
10
6.750000
20
2.043472
30
0.0
11
6.862500
21
2.043822
31
0.0
0
LINE
8
TOP
10
6.862500
20
2.043822
30
0.0
11
6.975000
21
2.044171
31
0.0
0
LINE
8
TOP
10
6.975000
20
2.044171
30
0.0
11
7.087500
21
2.044520
31
0.0
0
LINE
8
TOP
10
7.087500
20
2.044520
30
0.0
11
7.200000
21
2.044870
31
0.0
0
LINE
8
TOP
10
7.200000
20
2.044870
30
0.0
11
7.312500
21
2.045219
31
0.0
0
LINE
8
TOP
10
7.312500
20
2.045219
30
0.0
11
7.425000
21
2.045568
31
0.0
0
LINE
8
TOP
10
7.425000
20
2.045568
30
0.0
11
7.537500
21
2.045918
31
0.0
0
LINE
8
TOP
10
7.537500
20
2.045918
30
0.0
11
7.650000
21
2.046267
31
0.0
0
LINE
8
TOP
10
7.650000
20
2.046267
30
0.0
11
7.762500
21
2.046616
31
0.0
0
LINE
8
TOP
10
7.762500
20
2.046616
30
0.0
11
7.875000
21
2.046966
31
0.0
0
LINE
8
TOP
10
7.875000
20
2.046966
30
0.0
11
7.987500
21
2.047315
31
0.0
0
LINE
8
TOP
10
7.987500
20
2.047315
30
0.0
11
8.100000
21
2.047664
31
0.0
0
LINE
8
TOP
10
8.100000
20
2.047664
30
0.0
11
8.212500
21
2.048013
31
0.0
0
LINE
8
TOP
10
8.212500
20
2.048013
30
0.0
11
8.325000
21
2.048363
31
0.0
0
LINE
8
TOP
10
8.325000
20
2.048363
30
0.0
11
8.437500
21
2.048712
31
0.0
0
LINE
8
TOP
10
8.437500
20
2.048712
30
0.0
11
8.500000
21
2.048906
31
0.0
0
LINE
8
TOP
10
8.500000
20
2.048906
30
0.0
11
8.550000
21
2.049061
31
0.0
0
LINE
8
TOP
10
8.550000
20
2.049061
30
0.0
11
8.662500
21
2.049411
31
0.0
0
LINE
8
TOP
10
8.662500
20
2.049411
30
0.0
11
8.775000
21
2.049760
31
0.0
0
LINE
8
TOP
10
8.775000
20
2.049760
30
0.0
11
8.887500
21
2.050109
31
0.0
0
LINE
8
TOP
10
8.887500
20
2.050109
30
0.0
11
9.000000
21
2.050459
31
0.0
0
LINE
8
TOP
10
0.000000
20
1.684996
30
0.0
11
0.112500
21
1.684142
31
0.0
0
LINE
8
TOP
10
0.112500
20
1.684142
30
0.0
11
0.225000
21
1.683288
31
0.0
0
LINE
8
TOP
10
0.225000
20
1.683288
30
0.0
11
0.337500
21
1.682434
31
0.0
0
LINE
8
TOP
10
0.337500
20
1.682434
30
0.0
11
0.450000
21
1.681580
31
0.0
0
LINE
8
TOP
10
0.450000
20
1.681580
30
0.0
11
0.500000
21
1.681201
31
0.0
0
LINE
8
TOP
10
0.500000
20
1.681201
30
0.0
11
0.562500
21
1.680726
31
0.0
0
LINE
8
TOP
10
0.562500
20
1.680726
30
0.0
11
0.675000
21
1.679873
31
0.0
0
LINE
8
TOP
10
0.675000
20
1.679873
30
0.0
11
0.787500
21
1.679019
31
0.0
0
LINE
8
TOP
10
0.787500
20
1.679019
30
0.0
11
0.900000
21
1.678165
31
0.0
0
LINE
8
TOP
10
0.900000
20
1.678165
30
0.0
11
1.012500
21
1.677311
31
0.0
0
LINE
8
TOP
10
1.012500
20
1.677311
30
0.0
11
1.125000
21
1.676457
31
0.0
0
LINE
8
TOP
10
1.125000
20
1.676457
30
0.0
11
1.237500
21
1.675603
31
0.0
0
LINE
8
TOP
10
1.237500
20
1.675603
30
0.0
11
1.350000
21
1.674750
31
0.0
0
LINE
8
TOP
10
1.350000
20
1.674750
30
0.0
11
1.462500
21
1.673896
31
0.0
0
LINE
8
TOP
10
1.462500
20
1.673896
30
0.0
11
1.575000
21
1.673042
31
0.0
0
LINE
8
TOP
10
1.575000
20
1.673042
30
0.0
11
1.687500
21
1.672188
31
0.0
0
LINE
8
TOP
10
1.687500
20
1.672188
30
0.0
11
1.800000
21
1.671334
31
0.0
0
LINE
8
TOP
10
1.800000
20
1.671334
30
0.0
11
1.912500
21
1.670480
31
0.0
0
LINE
8
TOP
10
1.912500
20
1.670480
30
0.0
11
2.025000
21
1.669626
31
0.0
0
LINE
8
TOP
10
2.025000
20
1.669626
30
0.0
11
2.137500
21
1.668773
31
0.0
0
LINE
8
TOP
10
2.137500
20
1.668773
30
0.0
11
2.250000
21
1.667919
31
0.0
0
LINE
8
TOP
10
2.250000
20
1.667919
30
0.0
11
2.362500
21
1.667065
31
0.0
0
LINE
8
TOP
10
2.362500
20
1.667065
30
0.0
11
2.475000
21
1.666211
31
0.0
0
LINE
8
TOP
10
2.475000
20
1.666211
30
0.0
11
2.587500
21
1.665357
31
0.0
0
LINE
8
TOP
10
2.587500
20
1.665357
30
0.0
11
2.700000
21
1.664503
31
0.0
0
LINE
8
TOP
10
2.700000
20
1.664503
30
0.0
11
2.812500
21
1.663650
31
0.0
0
LINE
8
TOP
10
2.812500
20
1.663650
30
0.0
11
2.925000
21
1.662796
31
0.0
0
LINE
8
TOP
10
2.925000
20
1.662796
30
0.0
11
3.037500
21
1.661942
31
0.0
0
LINE
8
TOP
10
3.037500
20
1.661942
30
0.0
11
3.150000
21
1.661088
31
0.0
0
LINE
8
TOP
10
3.150000
20
1.661088
30
0.0
11
3.262500
21
1.660234
31
0.0
0
LINE
8
TOP
10
3.262500
20
1.660234
30
0.0
11
3.375000
21
1.659380
31
0.0
0
LINE
8
TOP
10
3.375000
20
1.659380
30
0.0
11
3.487500
21
1.658526
31
0.0
0
LINE
8
TOP
10
3.487500
20
1.658526
30
0.0
11
3.600000
21
1.657673
31
0.0
0
LINE
8
TOP
10
3.600000
20
1.657673
30
0.0
11
3.712500
21
1.656819
31
0.0
0
LINE
8
TOP
10
3.712500
20
1.656819
30
0.0
11
3.825000
21
1.655965
31
0.0
0
LINE
8
TOP
10
3.825000
20
1.655965
30
0.0
11
3.937500
21
1.655111
31
0.0
0
LINE
8
TOP
10
3.937500
20
1.655111
30
0.0
11
4.050000
21
1.654257
31
0.0
0
LINE
8
TOP
10
4.050000
20
1.654257
30
0.0
11
4.162500
21
1.653403
31
0.0
0
LINE
8
TOP
10
4.162500
20
1.653403
30
0.0
11
4.275000
21
1.652550
31
0.0
0
LINE
8
TOP
10
4.275000
20
1.652550
30
0.0
11
4.387500
21
1.651696
31
0.0
0
LINE
8
TOP
10
4.387500
20
1.651696
30
0.0
11
4.500000
21
1.650842
31
0.0
0
LINE
8
TOP
10
4.500000
20
1.650842
30
0.0
11
4.612500
21
1.650493
31
0.0
0
LINE
8
TOP
10
4.612500
20
1.650493
30
0.0
11
4.725000
21
1.650143
31
0.0
0
LINE
8
TOP
10
4.725000
20
1.650143
30
0.0
11
4.837500
21
1.649794
31
0.0
0
LINE
8
TOP
10
4.837500
20
1.649794
30
0.0
11
4.950000
21
1.649445
31
0.0
0
LINE
8
TOP
10
4.950000
20
1.649445
30
0.0
11
5.062500
21
1.649095
31
0.0
0
LINE
8
TOP
10
5.062500
20
1.649095
30
0.0
11
5.175000
21
1.648746
31
0.0
0
LINE
8
TOP
10
5.175000
20
1.648746
30
0.0
11
5.287500
21
1.648397
31
0.0
0
LINE
8
TOP
10
5.287500
20
1.648397
30
0.0
11
5.400000
21
1.648047
31
0.0
0
LINE
8
TOP
10
5.400000
20
1.648047
30
0.0
11
5.512500
21
1.647698
31
0.0
0
LINE
8
TOP
10
5.512500
20
1.647698
30
0.0
11
5.625000
21
1.647349
31
0.0
0
LINE
8
TOP
10
5.625000
20
1.647349
30
0.0
11
5.737500
21
1.646999
31
0.0
0
LINE
8
TOP
10
5.737500
20
1.646999
30
0.0
11
5.850000
21
1.646650
31
0.0
0
LINE
8
TOP
10
5.850000
20
1.646650
30
0.0
11
5.962500
21
1.646301
31
0.0
0
LINE
8
TOP
10
5.962500
20
1.646301
30
0.0
11
6.075000
21
1.645951
31
0.0
0
LINE
8
TOP
10
6.075000
20
1.645951
30
0.0
11
6.187500
21
1.645602
31
0.0
0
LINE
8
TOP
10
6.187500
20
1.645602
30
0.0
11
6.300000
21
1.645253
31
0.0
0
LINE
8
TOP
10
6.300000
20
1.645253
30
0.0
11
6.412500
21
1.644904
31
0.0
0
LINE
8
TOP
10
6.412500
20
1.644904
30
0.0
11
6.525000
21
1.644554
31
0.0
0
LINE
8
TOP
10
6.525000
20
1.644554
30
0.0
11
6.637500
21
1.644205
31
0.0
0
LINE
8
TOP
10
6.637500
20
1.644205
30
0.0
11
6.750000
21
1.643856
31
0.0
0
LINE
8
TOP
10
6.750000
20
1.643856
30
0.0
11
6.862500
21
1.643506
31
0.0
0
LINE
8
TOP
10
6.862500
20
1.643506
30
0.0
11
6.975000
21
1.643157
31
0.0
0
LINE
8
TOP
10
6.975000
20
1.643157
30
0.0
11
7.087500
21
1.642808
31
0.0
0
LINE
8
TOP
10
7.087500
20
1.642808
30
0.0
11
7.200000
21
1.642458
31
0.0
0
LINE
8
TOP
10
7.200000
20
1.642458
30
0.0
11
7.312500
21
1.642109
31
0.0
0
LINE
8
TOP
10
7.312500
20
1.642109
30
0.0
11
7.425000
21
1.641760
31
0.0
0
LINE
8
TOP
10
7.425000
20
1.641760
30
0.0
11
7.537500
21
1.641410
31
0.0
0
LINE
8
TOP
10
7.537500
20
1.641410
30
0.0
11
7.650000
21
1.641061
31
0.0
0
LINE
8
TOP
10
7.650000
20
1.641061
30
0.0
11
7.762500
21
1.640712
31
0.0
0
LINE
8
TOP
10
7.762500
20
1.640712
30
0.0
11
7.875000
21
1.640362
31
0.0
0
LINE
8
TOP
10
7.875000
20
1.640362
30
0.0
11
7.987500
21
1.640013
31
0.0
0
LINE
8
TOP
10
7.987500
20
1.640013
30
0.0
11
8.100000
21
1.639664
31
0.0
0
LINE
8
TOP
10
8.100000
20
1.639664
30
0.0
11
8.212500
21
1.639314
31
0.0
0
LINE
8
TOP
10
8.212500
20
1.639314
30
0.0
11
8.325000
21
1.638965
31
0.0
0
LINE
8
TOP
10
8.325000
20
1.638965
30
0.0
11
8.437500
21
1.638616
31
0.0
0
LINE
8
TOP
10
8.437500
20
1.638616
30
0.0
11
8.500000
21
1.638422
31
0.0
0
LINE
8
TOP
10
8.500000
20
1.638422
30
0.0
11
8.550000
21
1.638267
31
0.0
0
LINE
8
TOP
10
8.550000
20
1.638267
30
0.0
11
8.662500
21
1.637917
31
0.0
0
LINE
8
TOP
10
8.662500
20
1.637917
30
0.0
11
8.775000
21
1.637568
31
0.0
0
LINE
8
TOP
10
8.775000
20
1.637568
30
0.0
11
8.887500
21
1.637219
31
0.0
0
LINE
8
TOP
10
8.887500
20
1.637219
30
0.0
11
9.000000
21
1.636869
31
0.0
0
LINE
8
TOP
10
0.000000
20
2.002332
30
0.0
11
0.000000
21
1.684996
31
0.0
0
LINE
8
TOP
10
9.000000
20
2.050459
30
0.0
11
9.000000
21
1.636869
31
0.0
0
LINE
8
SECTION
10
10.307178
20
-0.276545
30
0.0
11
10.692822
21
-0.276545
31
0.0
0
LINE
8
SECTION
10
10.692822
20
-0.276545
30
0.0
11
10.692822
21
0.276545
31
0.0
0
LINE
8
SECTION
10
10.692822
20
0.276545
30
0.0
11
10.307178
21
0.276545
31
0.0
0
LINE
8
SECTION
10
10.307178
20
0.276545
30
0.0
11
10.307178
21
-0.276545
31
0.0
0
LINE
8
SECTION
10
10.367178
20
-0.216545
30
0.0
11
10.632822
21
-0.216545
31
0.0
0
LINE
8
SECTION
10
10.632822
20
-0.216545
30
0.0
11
10.632822
21
0.216545
31
0.0
0
LINE
8
SECTION
10
10.632822
20
0.216545
30
0.0
11
10.367178
21
0.216545
31
0.0
0
LINE
8
SECTION
10
10.367178
20
0.216545
30
0.0
11
10.367178
21
-0.216545
31
0.0
0
LINE
8
SECTION
10
10.367178
20
0.000000
30
0.0
11
10.427178
21
0.000000
31
0.0
0
LINE
8
SECTION
10
10.427178
20
0.000000
30
0.0
11
10.427178
21
0.216545
31
0.0
0
LINE
8
SECTION
10
10.427178
20
0.216545
30
0.0
11
10.367178
21
0.216545
31
0.0
0
LINE
8
SECTION
10
10.367178
20
0.216545
30
0.0
11
10.367178
21
0.000000
31
0.0
0
LINE
8
SECTION
10
10.367178
20
-0.216545
30
0.0
11
10.427178
21
-0.216545
31
0.0
0
LINE
8
SECTION
10
10.427178
20
-0.216545
30
0.0
11
10.427178
21
0.000000
31
0.0
0
LINE
8
SECTION
10
10.427178
20
0.000000
30
0.0
11
10.367178
21
0.000000
31
0.0
0
LINE
8
SECTION
10
10.367178
20
0.000000
30
0.0
11
10.367178
21
-0.216545
31
0.0
0
LINE
8
SECTION
10
10.572822
20
0.000000
30
0.0
11
10.632822
21
0.000000
31
0.0
0
LINE
8
SECTION
10
10.632822
20
0.000000
30
0.0
11
10.632822
21
0.216545
31
0.0
0
LINE
8
SECTION
10
10.632822
20
0.216545
30
0.0
11
10.572822
21
0.216545
31
0.0
0
LINE
8
SECTION
10
10.572822
20
0.216545
30
0.0
11
10.572822
21
0.000000
31
0.0
0
LINE
8
SECTION
10
10.572822
20
-0.216545
30
0.0
11
10.632822
21
-0.216545
31
0.0
0
LINE
8
SECTION
10
10.632822
20
-0.216545
30
0.0
11
10.632822
21
0.000000
31
0.0
0
LINE
8
SECTION
10
10.632822
20
0.000000
30
0.0
11
10.572822
21
0.000000
31
0.0
0
LINE
8
SECTION
10
10.572822
20
0.000000
30
0.0
11
10.572822
21
-0.216545
31
0.0
0
ENDSEC
0
EOF
