0
SECTION
2
HEADER
9
$INSUNITS
70
1
0
ENDSEC
0
SECTION
2
ENTITIES
0
LINE
8
FRONT
10
0.000000
20
0.268075
30
0.0
11
0.112500
21
0.267652
31
0.0
0
LINE
8
FRONT
10
0.112500
20
0.267652
30
0.0
11
0.225000
21
0.267229
31
0.0
0
LINE
8
FRONT
10
0.225000
20
0.267229
30
0.0
11
0.337500
21
0.266807
31
0.0
0
LINE
8
FRONT
10
0.337500
20
0.266807
30
0.0
11
0.450000
21
0.266384
31
0.0
0
LINE
8
FRONT
10
0.450000
20
0.266384
30
0.0
11
0.500000
21
0.266196
31
0.0
0
LINE
8
FRONT
10
0.500000
20
0.266196
30
0.0
11
0.562500
21
0.265961
31
0.0
0
LINE
8
FRONT
10
0.562500
20
0.265961
30
0.0
11
0.675000
21
0.265539
31
0.0
0
LINE
8
FRONT
10
0.675000
20
0.265539
30
0.0
11
0.787500
21
0.265116
31
0.0
0
LINE
8
FRONT
10
0.787500
20
0.265116
30
0.0
11
0.900000
21
0.264693
31
0.0
0
LINE
8
FRONT
10
0.900000
20
0.264693
30
0.0
11
1.012500
21
0.264271
31
0.0
0
LINE
8
FRONT
10
1.012500
20
0.264271
30
0.0
11
1.125000
21
0.263848
31
0.0
0
LINE
8
FRONT
10
1.125000
20
0.263848
30
0.0
11
1.237500
21
0.263425
31
0.0
0
LINE
8
FRONT
10
1.237500
20
0.263425
30
0.0
11
1.350000
21
0.263003
31
0.0
0
LINE
8
FRONT
10
1.350000
20
0.263003
30
0.0
11
1.462500
21
0.262580
31
0.0
0
LINE
8
FRONT
10
1.462500
20
0.262580
30
0.0
11
1.575000
21
0.262157
31
0.0
0
LINE
8
FRONT
10
1.575000
20
0.262157
30
0.0
11
1.687500
21
0.261735
31
0.0
0
LINE
8
FRONT
10
1.687500
20
0.261735
30
0.0
11
1.800000
21
0.261312
31
0.0
0
LINE
8
FRONT
10
1.800000
20
0.261312
30
0.0
11
1.912500
21
0.260889
31
0.0
0
LINE
8
FRONT
10
1.912500
20
0.260889
30
0.0
11
2.025000
21
0.260467
31
0.0
0
LINE
8
FRONT
10
2.025000
20
0.260467
30
0.0
11
2.137500
21
0.260044
31
0.0
0
LINE
8
FRONT
10
2.137500
20
0.260044
30
0.0
11
2.250000
21
0.259621
31
0.0
0
LINE
8
FRONT
10
2.250000
20
0.259621
30
0.0
11
2.362500
21
0.259199
31
0.0
0
LINE
8
FRONT
10
2.362500
20
0.259199
30
0.0
11
2.475000
21
0.258776
31
0.0
0
LINE
8
FRONT
10
2.475000
20
0.258776
30
0.0
11
2.587500
21
0.258353
31
0.0
0
LINE
8
FRONT
10
2.587500
20
0.258353
30
0.0
11
2.700000
21
0.257931
31
0.0
0
LINE
8
FRONT
10
2.700000
20
0.257931
30
0.0
11
2.812500
21
0.257508
31
0.0
0
LINE
8
FRONT
10
2.812500
20
0.257508
30
0.0
11
2.925000
21
0.257085
31
0.0
0
LINE
8
FRONT
10
2.925000
20
0.257085
30
0.0
11
3.037500
21
0.256663
31
0.0
0
LINE
8
FRONT
10
3.037500
20
0.256663
30
0.0
11
3.150000
21
0.256240
31
0.0
0
LINE
8
FRONT
10
3.150000
20
0.256240
30
0.0
11
3.262500
21
0.255817
31
0.0
0
LINE
8
FRONT
10
3.262500
20
0.255817
30
0.0
11
3.375000
21
0.255395
31
0.0
0
LINE
8
FRONT
10
3.375000
20
0.255395
30
0.0
11
3.487500
21
0.254972
31
0.0
0
LINE
8
FRONT
10
3.487500
20
0.254972
30
0.0
11
3.600000
21
0.254549
31
0.0
0
LINE
8
FRONT
10
3.600000
20
0.254549
30
0.0
11
3.712500
21
0.254127
31
0.0
0
LINE
8
FRONT
10
3.712500
20
0.254127
30
0.0
11
3.825000
21
0.253704
31
0.0
0
LINE
8
FRONT
10
3.825000
20
0.253704
30
0.0
11
3.937500
21
0.253281
31
0.0
0
LINE
8
FRONT
10
3.937500
20
0.253281
30
0.0
11
4.050000
21
0.252859
31
0.0
0
LINE
8
FRONT
10
4.050000
20
0.252859
30
0.0
11
4.162500
21
0.252436
31
0.0
0
LINE
8
FRONT
10
4.162500
20
0.252436
30
0.0
11
4.275000
21
0.252013
31
0.0
0
LINE
8
FRONT
10
4.275000
20
0.252013
30
0.0
11
4.387500
21
0.251591
31
0.0
0
LINE
8
FRONT
10
4.387500
20
0.251591
30
0.0
11
4.500000
21
0.251168
31
0.0
0
LINE
8
FRONT
10
4.500000
20
0.251168
30
0.0
11
4.612500
21
0.253292
31
0.0
0
LINE
8
FRONT
10
4.612500
20
0.253292
30
0.0
11
4.725000
21
0.255417
31
0.0
0
LINE
8
FRONT
10
4.725000
20
0.255417
30
0.0
11
4.837500
21
0.257542
31
0.0
0
LINE
8
FRONT
10
4.837500
20
0.257542
30
0.0
11
4.950000
21
0.259666
31
0.0
0
LINE
8
FRONT
10
4.950000
20
0.259666
30
0.0
11
5.062500
21
0.261791
31
0.0
0
LINE
8
FRONT
10
5.062500
20
0.261791
30
0.0
11
5.175000
21
0.263915
31
0.0
0
LINE
8
FRONT
10
5.175000
20
0.263915
30
0.0
11
5.287500
21
0.266040
31
0.0
0
LINE
8
FRONT
10
5.287500
20
0.266040
30
0.0
11
5.400000
21
0.268164
31
0.0
0
LINE
8
FRONT
10
5.400000
20
0.268164
30
0.0
11
5.512500
21
0.270289
31
0.0
0
LINE
8
FRONT
10
5.512500
20
0.270289
30
0.0
11
5.625000
21
0.272413
31
0.0
0
LINE
8
FRONT
10
5.625000
20
0.272413
30
0.0
11
5.737500
21
0.274538
31
0.0
0
LINE
8
FRONT
10
5.737500
20
0.274538
30
0.0
11
5.850000
21
0.276663
31
0.0
0
LINE
8
FRONT
10
5.850000
20
0.276663
30
0.0
11
5.962500
21
0.278787
31
0.0
0
LINE
8
FRONT
10
5.962500
20
0.278787
30
0.0
11
6.075000
21
0.280912
31
0.0
0
LINE
8
FRONT
10
6.075000
20
0.280912
30
0.0
11
6.187500
21
0.283036
31
0.0
0
LINE
8
FRONT
10
6.187500
20
0.283036
30
0.0
11
6.300000
21
0.285161
31
0.0
0
LINE
8
FRONT
10
6.300000
20
0.285161
30
0.0
11
6.412500
21
0.287285
31
0.0
0
LINE
8
FRONT
10
6.412500
20
0.287285
30
0.0
11
6.525000
21
0.289410
31
0.0
0
LINE
8
FRONT
10
6.525000
20
0.289410
30
0.0
11
6.637500
21
0.291534
31
0.0
0
LINE
8
FRONT
10
6.637500
20
0.291534
30
0.0
11
6.750000
21
0.293659
31
0.0
0
LINE
8
FRONT
10
6.750000
20
0.293659
30
0.0
11
6.862500
21
0.295784
31
0.0
0
LINE
8
FRONT
10
6.862500
20
0.295784
30
0.0
11
6.975000
21
0.297908
31
0.0
0
LINE
8
FRONT
10
6.975000
20
0.297908
30
0.0
11
7.087500
21
0.300033
31
0.0
0
LINE
8
FRONT
10
7.087500
20
0.300033
30
0.0
11
7.200000
21
0.302157
31
0.0
0
LINE
8
FRONT
10
7.200000
20
0.302157
30
0.0
11
7.312500
21
0.304282
31
0.0
0
LINE
8
FRONT
10
7.312500
20
0.304282
30
0.0
11
7.425000
21
0.306406
31
0.0
0
LINE
8
FRONT
10
7.425000
20
0.306406
30
0.0
11
7.537500
21
0.308531
31
0.0
0
LINE
8
FRONT
10
7.537500
20
0.308531
30
0.0
11
7.650000
21
0.310656
31
0.0
0
LINE
8
FRONT
10
7.650000
20
0.310656
30
0.0
11
7.762500
21
0.312780
31
0.0
0
LINE
8
FRONT
10
7.762500
20
0.312780
30
0.0
11
7.875000
21
0.314905
31
0.0
0
LINE
8
FRONT
10
7.875000
20
0.314905
30
0.0
11
7.987500
21
0.317029
31
0.0
0
LINE
8
FRONT
10
7.987500
20
0.317029
30
0.0
11
8.100000
21
0.319154
31
0.0
0
LINE
8
FRONT
10
8.100000
20
0.319154
30
0.0
11
8.212500
21
0.321278
31
0.0
0
LINE
8
FRONT
10
8.212500
20
0.321278
30
0.0
11
8.325000
21
0.323403
31
0.0
0
LINE
8
FRONT
10
8.325000
20
0.323403
30
0.0
11
8.437500
21
0.325527
31
0.0
0
LINE
8
FRONT
10
8.437500
20
0.325527
30
0.0
11
8.500000
21
0.326708
31
0.0
0
LINE
8
FRONT
10
8.500000
20
0.326708
30
0.0
11
8.550000
21
0.327652
31
0.0
0
LINE
8
FRONT
10
8.550000
20
0.327652
30
0.0
11
8.662500
21
0.329777
31
0.0
0
LINE
8
FRONT
10
8.662500
20
0.329777
30
0.0
11
8.775000
21
0.331901
31
0.0
0
LINE
8
FRONT
10
8.775000
20
0.331901
30
0.0
11
8.887500
21
0.334026
31
0.0
0
LINE
8
FRONT
10
8.887500
20
0.334026
30
0.0
11
9.000000
21
0.336150
31
0.0
0
LINE
8
FRONT
10
0.000000
20
-0.268075
30
0.0
11
0.112500
21
-0.267652
31
0.0
0
LINE
8
FRONT
10
0.112500
20
-0.267652
30
0.0
11
0.225000
21
-0.267229
31
0.0
0
LINE
8
FRONT
10
0.225000
20
-0.267229
30
0.0
11
0.337500
21
-0.266807
31
0.0
0
LINE
8
FRONT
10
0.337500
20
-0.266807
30
0.0
11
0.450000
21
-0.266384
31
0.0
0
LINE
8
FRONT
10
0.450000
20
-0.266384
30
0.0
11
0.500000
21
-0.266196
31
0.0
0
LINE
8
FRONT
10
0.500000
20
-0.266196
30
0.0
11
0.562500
21
-0.265961
31
0.0
0
LINE
8
FRONT
10
0.562500
20
-0.265961
30
0.0
11
0.675000
21
-0.265539
31
0.0
0
LINE
8
FRONT
10
0.675000
20
-0.265539
30
0.0
11
0.787500
21
-0.265116
31
0.0
0
LINE
8
FRONT
10
0.787500
20
-0.265116
30
0.0
11
0.900000
21
-0.264693
31
0.0
0
LINE
8
FRONT
10
0.900000
20
-0.264693
30
0.0
11
1.012500
21
-0.264271
31
0.0
0
LINE
8
FRONT
10
1.012500
20
-0.264271
30
0.0
11
1.125000
21
-0.263848
31
0.0
0
LINE
8
FRONT
10
1.125000
20
-0.263848
30
0.0
11
1.237500
21
-0.263425
31
0.0
0
LINE
8
FRONT
10
1.237500
20
-0.263425
30
0.0
11
1.350000
21
-0.263003
31
0.0
0
LINE
8
FRONT
10
1.350000
20
-0.263003
30
0.0
11
1.462500
21
-0.262580
31
0.0
0
LINE
8
FRONT
10
1.462500
20
-0.262580
30
0.0
11
1.575000
21
-0.262157
31
0.0
0
LINE
8
FRONT
10
1.575000
20
-0.262157
30
0.0
11
1.687500
21
-0.261735
31
0.0
0
LINE
8
FRONT
10
1.687500
20
-0.261735
30
0.0
11
1.800000
21
-0.261312
31
0.0
0
LINE
8
FRONT
10
1.800000
20
-0.261312
30
0.0
11
1.912500
21
-0.260889
31
0.0
0
LINE
8
FRONT
10
1.912500
20
-0.260889
30
0.0
11
2.025000
21
-0.260467
31
0.0
0
LINE
8
FRONT
10
2.025000
20
-0.260467
30
0.0
11
2.137500
21
-0.260044
31
0.0
0
LINE
8
FRONT
10
2.137500
20
-0.260044
30
0.0
11
2.250000
21
-0.259621
31
0.0
0
LINE
8
FRONT
10
2.250000
20
-0.259621
30
0.0
11
2.362500
21
-0.259199
31
0.0
0
LINE
8
FRONT
10
2.362500
20
-0.259199
30
0.0
11
2.475000
21
-0.258776
31
0.0
0
LINE
8
FRONT
10
2.475000
20
-0.258776
30
0.0
11
2.587500
21
-0.258353
31
0.0
0
LINE
8
FRONT
10
2.587500
20
-0.258353
30
0.0
11
2.700000
21
-0.257931
31
0.0
0
LINE
8
FRONT
10
2.700000
20
-0.257931
30
0.0
11
2.812500
21
-0.257508
31
0.0
0
LINE
8
FRONT
10
2.812500
20
-0.257508
30
0.0
11
2.925000
21
-0.257085
31
0.0
0
LINE
8
FRONT
10
2.925000
20
-0.257085
30
0.0
11
3.037500
21
-0.256663
31
0.0
0
LINE
8
FRONT
10
3.037500
20
-0.256663
30
0.0
11
3.150000
21
-0.256240
31
0.0
0
LINE
8
FRONT
10
3.150000
20
-0.256240
30
0.0
11
3.262500
21
-0.255817
31
0.0
0
LINE
8
FRONT
10
3.262500
20
-0.255817
30
0.0
11
3.375000
21
-0.255395
31
0.0
0
LINE
8
FRONT
10
3.375000
20
-0.255395
30
0.0
11
3.487500
21
-0.254972
31
0.0
0
LINE
8
FRONT
10
3.487500
20
-0.254972
30
0.0
11
3.600000
21
-0.254549
31
0.0
0
LINE
8
FRONT
10
3.600000
20
-0.254549
30
0.0
11
3.712500
21
-0.254127
31
0.0
0
LINE
8
FRONT
10
3.712500
20
-0.254127
30
0.0
11
3.825000
21
-0.253704
31
0.0
0
LINE
8
FRONT
10
3.825000
20
-0.253704
30
0.0
11
3.937500
21
-0.253281
31
0.0
0
LINE
8
FRONT
10
3.937500
20
-0.253281
30
0.0
11
4.050000
21
-0.252859
31
0.0
0
LINE
8
FRONT
10
4.050000
20
-0.252859
30
0.0
11
4.162500
21
-0.252436
31
0.0
0
LINE
8
FRONT
10
4.162500
20
-0.252436
30
0.0
11
4.275000
21
-0.252013
31
0.0
0
LINE
8
FRONT
10
4.275000
20
-0.252013
30
0.0
11
4.387500
21
-0.251591
31
0.0
0
LINE
8
FRONT
10
4.387500
20
-0.251591
30
0.0
11
4.500000
21
-0.251168
31
0.0
0
LINE
8
FRONT
10
4.500000
20
-0.251168
30
0.0
11
4.612500
21
-0.253292
31
0.0
0
LINE
8
FRONT
10
4.612500
20
-0.253292
30
0.0
11
4.725000
21
-0.255417
31
0.0
0
LINE
8
FRONT
10
4.725000
20
-0.255417
30
0.0
11
4.837500
21
-0.257542
31
0.0
0
LINE
8
FRONT
10
4.837500
20
-0.257542
30
0.0
11
4.950000
21
-0.259666
31
0.0
0
LINE
8
FRONT
10
4.950000
20
-0.259666
30
0.0
11
5.062500
21
-0.261791
31
0.0
0
LINE
8
FRONT
10
5.062500
20
-0.261791
30
0.0
11
5.175000
21
-0.263915
31
0.0
0
LINE
8
FRONT
10
5.175000
20
-0.263915
30
0.0
11
5.287500
21
-0.266040
31
0.0
0
LINE
8
FRONT
10
5.287500
20
-0.266040
30
0.0
11
5.400000
21
-0.268164
31
0.0
0
LINE
8
FRONT
10
5.400000
20
-0.268164
30
0.0
11
5.512500
21
-0.270289
31
0.0
0
LINE
8
FRONT
10
5.512500
20
-0.270289
30
0.0
11
5.625000
21
-0.272413
31
0.0
0
LINE
8
FRONT
10
5.625000
20
-0.272413
30
0.0
11
5.737500
21
-0.274538
31
0.0
0
LINE
8
FRONT
10
5.737500
20
-0.274538
30
0.0
11
5.850000
21
-0.276663
31
0.0
0
LINE
8
FRONT
10
5.850000
20
-0.276663
30
0.0
11
5.962500
21
-0.278787
31
0.0
0
LINE
8
FRONT
10
5.962500
20
-0.278787
30
0.0
11
6.075000
21
-0.280912
31
0.0
0
LINE
8
FRONT
10
6.075000
20
-0.280912
30
0.0
11
6.187500
21
-0.283036
31
0.0
0
LINE
8
FRONT
10
6.187500
20
-0.283036
30
0.0
11
6.300000
21
-0.285161
31
0.0
0
LINE
8
FRONT
10
6.300000
20
-0.285161
30
0.0
11
6.412500
21
-0.287285
31
0.0
0
LINE
8
FRONT
10
6.412500
20
-0.287285
30
0.0
11
6.525000
21
-0.289410
31
0.0
0
LINE
8
FRONT
10
6.525000
20
-0.289410
30
0.0
11
6.637500
21
-0.291534
31
0.0
0
LINE
8
FRONT
10
6.637500
20
-0.291534
30
0.0
11
6.750000
21
-0.293659
31
0.0
0
LINE
8
FRONT
10
6.750000
20
-0.293659
30
0.0
11
6.862500
21
-0.295784
31
0.0
0
LINE
8
FRONT
10
6.862500
20
-0.295784
30
0.0
11
6.975000
21
-0.297908
31
0.0
0
LINE
8
FRONT
10
6.975000
20
-0.297908
30
0.0
11
7.087500
21
-0.300033
31
0.0
0
LINE
8
FRONT
10
7.087500
20
-0.300033
30
0.0
11
7.200000
21
-0.302157
31
0.0
0
LINE
8
FRONT
10
7.200000
20
-0.302157
30
0.0
11
7.312500
21
-0.304282
31
0.0
0
LINE
8
FRONT
10
7.312500
20
-0.304282
30
0.0
11
7.425000
21
-0.306406
31
0.0
0
LINE
8
FRONT
10
7.425000
20
-0.306406
30
0.0
11
7.537500
21
-0.308531
31
0.0
0
LINE
8
FRONT
10
7.537500
20
-0.308531
30
0.0
11
7.650000
21
-0.310656
31
0.0
0
LINE
8
FRONT
10
7.650000
20
-0.310656
30
0.0
11
7.762500
21
-0.312780
31
0.0
0
LINE
8
FRONT
10
7.762500
20
-0.312780
30
0.0
11
7.875000
21
-0.314905
31
0.0
0
LINE
8
FRONT
10
7.875000
20
-0.314905
30
0.0
11
7.987500
21
-0.317029
31
0.0
0
LINE
8
FRONT
10
7.987500
20
-0.317029
30
0.0
11
8.100000
21
-0.319154
31
0.0
0
LINE
8
FRONT
10
8.100000
20
-0.319154
30
0.0
11
8.212500
21
-0.321278
31
0.0
0
LINE
8
FRONT
10
8.212500
20
-0.321278
30
0.0
11
8.325000
21
-0.323403
31
0.0
0
LINE
8
FRONT
10
8.325000
20
-0.323403
30
0.0
11
8.437500
21
-0.325527
31
0.0
0
LINE
8
FRONT
10
8.437500
20
-0.325527
30
0.0
11
8.500000
21
-0.326708
31
0.0
0
LINE
8
FRONT
10
8.500000
20
-0.326708
30
0.0
11
8.550000
21
-0.327652
31
0.0
0
LINE
8
FRONT
10
8.550000
20
-0.327652
30
0.0
11
8.662500
21
-0.329777
31
0.0
0
LINE
8
FRONT
10
8.662500
20
-0.329777
30
0.0
11
8.775000
21
-0.331901
31
0.0
0
LINE
8
FRONT
10
8.775000
20
-0.331901
30
0.0
11
8.887500
21
-0.334026
31
0.0
0
LINE
8
FRONT
10
8.887500
20
-0.334026
30
0.0
11
9.000000
21
-0.336150
31
0.0
0
LINE
8
FRONT
10
0.000000
20
0.268075
30
0.0
11
0.000000
21
-0.268075
31
0.0
0
LINE
8
FRONT
10
9.000000
20
0.336150
30
0.0
11
9.000000
21
-0.336150
31
0.0
0
LINE
8
TOP
10
0.000000
20
1.956445
30
0.0
11
0.112500
21
1.956711
31
0.0
0
LINE
8
TOP
10
0.112500
20
1.956711
30
0.0
11
0.225000
21
1.956976
31
0.0
0
LINE
8
TOP
10
0.225000
20
1.956976
30
0.0
11
0.337500
21
1.957242
31
0.0
0
LINE
8
TOP
10
0.337500
20
1.957242
30
0.0
11
0.450000
21
1.957507
31
0.0
0
LINE
8
TOP
10
0.450000
20
1.957507
30
0.0
11
0.500000
21
1.957625
31
0.0
0
LINE
8
TOP
10
0.500000
20
1.957625
30
0.0
11
0.562500
21
1.957773
31
0.0
0
LINE
8
TOP
10
0.562500
20
1.957773
30
0.0
11
0.675000
21
1.958038
31
0.0
0
LINE
8
TOP
10
0.675000
20
1.958038
30
0.0
11
0.787500
21
1.958304
31
0.0
0
LINE
8
TOP
10
0.787500
20
1.958304
30
0.0
11
0.900000
21
1.958569
31
0.0
0
LINE
8
TOP
10
0.900000
20
1.958569
30
0.0
11
1.012500
21
1.958835
31
0.0
0
LINE
8
TOP
10
1.012500
20
1.958835
30
0.0
11
1.125000
21
1.959100
31
0.0
0
LINE
8
TOP
10
1.125000
20
1.959100
30
0.0
11
1.237500
21
1.959366
31
0.0
0
LINE
8
TOP
10
1.237500
20
1.959366
30
0.0
11
1.350000
21
1.959631
31
0.0
0
LINE
8
TOP
10
1.350000
20
1.959631
30
0.0
11
1.462500
21
1.959896
31
0.0
0
LINE
8
TOP
10
1.462500
20
1.959896
30
0.0
11
1.575000
21
1.960162
31
0.0
0
LINE
8
TOP
10
1.575000
20
1.960162
30
0.0
11
1.687500
21
1.960427
31
0.0
0
LINE
8
TOP
10
1.687500
20
1.960427
30
0.0
11
1.800000
21
1.960693
31
0.0
0
LINE
8
TOP
10
1.800000
20
1.960693
30
0.0
11
1.912500
21
1.960958
31
0.0
0
LINE
8
TOP
10
1.912500
20
1.960958
30
0.0
11
2.025000
21
1.961224
31
0.0
0
LINE
8
TOP
10
2.025000
20
1.961224
30
0.0
11
2.137500
21
1.961489
31
0.0
0
LINE
8
TOP
10
2.137500
20
1.961489
30
0.0
11
2.250000
21
1.961755
31
0.0
0
LINE
8
TOP
10
2.250000
20
1.961755
30
0.0
11
2.362500
21
1.962020
31
0.0
0
LINE
8
TOP
10
2.362500
20
1.962020
30
0.0
11
2.475000
21
1.962286
31
0.0
0
LINE
8
TOP
10
2.475000
20
1.962286
30
0.0
11
2.587500
21
1.962551
31
0.0
0
LINE
8
TOP
10
2.587500
20
1.962551
30
0.0
11
2.700000
21
1.962817
31
0.0
0
LINE
8
TOP
10
2.700000
20
1.962817
30
0.0
11
2.812500
21
1.963082
31
0.0
0
LINE
8
TOP
10
2.812500
20
1.963082
30
0.0
11
2.925000
21
1.963347
31
0.0
0
LINE
8
TOP
10
2.925000
20
1.963347
30
0.0
11
3.037500
21
1.963613
31
0.0
0
LINE
8
TOP
10
3.037500
20
1.963613
30
0.0
11
3.150000
21
1.963878
31
0.0
0
LINE
8
TOP
10
3.150000
20
1.963878
30
0.0
11
3.262500
21
1.964144
31
0.0
0
LINE
8
TOP
10
3.262500
20
1.964144
30
0.0
11
3.375000
21
1.964409
31
0.0
0
LINE
8
TOP
10
3.375000
20
1.964409
30
0.0
11
3.487500
21
1.964675
31
0.0
0
LINE
8
TOP
10
3.487500
20
1.964675
30
0.0
11
3.600000
21
1.964940
31
0.0
0
LINE
8
TOP
10
3.600000
20
1.964940
30
0.0
11
3.712500
21
1.965206
31
0.0
0
LINE
8
TOP
10
3.712500
20
1.965206
30
0.0
11
3.825000
21
1.965471
31
0.0
0
LINE
8
TOP
10
3.825000
20
1.965471
30
0.0
11
3.937500
21
1.965737
31
0.0
0
LINE
8
TOP
10
3.937500
20
1.965737
30
0.0
11
4.050000
21
1.966002
31
0.0
0
LINE
8
TOP
10
4.050000
20
1.966002
30
0.0
11
4.162500
21
1.966267
31
0.0
0
LINE
8
TOP
10
4.162500
20
1.966267
30
0.0
11
4.275000
21
1.966533
31
0.0
0
LINE
8
TOP
10
4.275000
20
1.966533
30
0.0
11
4.387500
21
1.966798
31
0.0
0
LINE
8
TOP
10
4.387500
20
1.966798
30
0.0
11
4.500000
21
1.967064
31
0.0
0
LINE
8
TOP
10
4.500000
20
1.967064
30
0.0
11
4.612500
21
1.966277
31
0.0
0
LINE
8
TOP
10
4.612500
20
1.966277
30
0.0
11
4.725000
21
1.965490
31
0.0
0
LINE
8
TOP
10
4.725000
20
1.965490
30
0.0
11
4.837500
21
1.964704
31
0.0
0
LINE
8
TOP
10
4.837500
20
1.964704
30
0.0
11
4.950000
21
1.963917
31
0.0
0
LINE
8
TOP
10
4.950000
20
1.963917
30
0.0
11
5.062500
21
1.963130
31
0.0
0
LINE
8
TOP
10
5.062500
20
1.963130
30
0.0
11
5.175000
21
1.962344
31
0.0
0
LINE
8
TOP
10
5.175000
20
1.962344
30
0.0
11
5.287500
21
1.961557
31
0.0
0
LINE
8
TOP
10
5.287500
20
1.961557
30
0.0
11
5.400000
21
1.960770
31
0.0
0
LINE
8
TOP
10
5.400000
20
1.960770
30
0.0
11
5.512500
21
1.959983
31
0.0
0
LINE
8
TOP
10
5.512500
20
1.959983
30
0.0
11
5.625000
21
1.959197
31
0.0
0
LINE
8
TOP
10
5.625000
20
1.959197
30
0.0
11
5.737500
21
1.958410
31
0.0
0
LINE
8
TOP
10
5.737500
20
1.958410
30
0.0
11
5.850000
21
1.957623
31
0.0
0
LINE
8
TOP
10
5.850000
20
1.957623
30
0.0
11
5.962500
21
1.956837
31
0.0
0
LINE
8
TOP
10
5.962500
20
1.956837
30
0.0
11
6.075000
21
1.956050
31
0.0
0
LINE
8
TOP
10
6.075000
20
1.956050
30
0.0
11
6.187500
21
1.955263
31
0.0
0
LINE
8
TOP
10
6.187500
20
1.955263
30
0.0
11
6.300000
21
1.954477
31
0.0
0
LINE
8
TOP
10
6.300000
20
1.954477
30
0.0
11
6.412500
21
1.953690
31
0.0
0
LINE
8
TOP
10
6.412500
20
1.953690
30
0.0
11
6.525000
21
1.952903
31
0.0
0
LINE
8
TOP
10
6.525000
20
1.952903
30
0.0
11
6.637500
21
1.952116
31
0.0
0
LINE
8
TOP
10
6.637500
20
1.952116
30
0.0
11
6.750000
21
1.951330
31
0.0
0
LINE
8
TOP
10
6.750000
20
1.951330
30
0.0
11
6.862500
21
1.950543
31
0.0
0
LINE
8
TOP
10
6.862500
20
1.950543
30
0.0
11
6.975000
21
1.949756
31
0.0
0
LINE
8
TOP
10
6.975000
20
1.949756
30
0.0
11
7.087500
21
1.948970
31
0.0
0
LINE
8
TOP
10
7.087500
20
1.948970
30
0.0
11
7.200000
21
1.948183
31
0.0
0
LINE
8
TOP
10
7.200000
20
1.948183
30
0.0
11
7.312500
21
1.947396
31
0.0
0
LINE
8
TOP
10
7.312500
20
1.947396
30
0.0
11
7.425000
21
1.946609
31
0.0
0
LINE
8
TOP
10
7.425000
20
1.946609
30
0.0
11
7.537500
21
1.945823
31
0.0
0
LINE
8
TOP
10
7.537500
20
1.945823
30
0.0
11
7.650000
21
1.945036
31
0.0
0
LINE
8
TOP
10
7.650000
20
1.945036
30
0.0
11
7.762500
21
1.944249
31
0.0
0
LINE
8
TOP
10
7.762500
20
1.944249
30
0.0
11
7.875000
21
1.943463
31
0.0
0
LINE
8
TOP
10
7.875000
20
1.943463
30
0.0
11
7.987500
21
1.942676
31
0.0
0
LINE
8
TOP
10
7.987500
20
1.942676
30
0.0
11
8.100000
21
1.941889
31
0.0
0
LINE
8
TOP
10
8.100000
20
1.941889
30
0.0
11
8.212500
21
1.941102
31
0.0
0
LINE
8
TOP
10
8.212500
20
1.941102
30
0.0
11
8.325000
21
1.940316
31
0.0
0
LINE
8
TOP
10
8.325000
20
1.940316
30
0.0
11
8.437500
21
1.939529
31
0.0
0
LINE
8
TOP
10
8.437500
20
1.939529
30
0.0
11
8.500000
21
1.939092
31
0.0
0
LINE
8
TOP
10
8.500000
20
1.939092
30
0.0
11
8.550000
21
1.938742
31
0.0
0
LINE
8
TOP
10
8.550000
20
1.938742
30
0.0
11
8.662500
21
1.937956
31
0.0
0
LINE
8
TOP
10
8.662500
20
1.937956
30
0.0
11
8.775000
21
1.937169
31
0.0
0
LINE
8
TOP
10
8.775000
20
1.937169
30
0.0
11
8.887500
21
1.936382
31
0.0
0
LINE
8
TOP
10
8.887500
20
1.936382
30
0.0
11
9.000000
21
1.935596
31
0.0
0
LINE
8
TOP
10
0.000000
20
1.560456
30
0.0
11
0.112500
21
1.560190
31
0.0
0
LINE
8
TOP
10
0.112500
20
1.560190
30
0.0
11
0.225000
21
1.559925
31
0.0
0
LINE
8
TOP
10
0.225000
20
1.559925
30
0.0
11
0.337500
21
1.559659
31
0.0
0
LINE
8
TOP
10
0.337500
20
1.559659
30
0.0
11
0.450000
21
1.559394
31
0.0
0
LINE
8
TOP
10
0.450000
20
1.559394
30
0.0
11
0.500000
21
1.559276
31
0.0
0
LINE
8
TOP
10
0.500000
20
1.559276
30
0.0
11
0.562500
21
1.559128
31
0.0
0
LINE
8
TOP
10
0.562500
20
1.559128
30
0.0
11
0.675000
21
1.558863
31
0.0
0
LINE
8
TOP
10
0.675000
20
1.558863
30
0.0
11
0.787500
21
1.558597
31
0.0
0
LINE
8
TOP
10
0.787500
20
1.558597
30
0.0
11
0.900000
21
1.558332
31
0.0
0
LINE
8
TOP
10
0.900000
20
1.558332
30
0.0
11
1.012500
21
1.558067
31
0.0
0
LINE
8
TOP
10
1.012500
20
1.558067
30
0.0
11
1.125000
21
1.557801
31
0.0
0
LINE
8
TOP
10
1.125000
20
1.557801
30
0.0
11
1.237500
21
1.557536
31
0.0
0
LINE
8
TOP
10
1.237500
20
1.557536
30
0.0
11
1.350000
21
1.557270
31
0.0
0
LINE
8
TOP
10
1.350000
20
1.557270
30
0.0
11
1.462500
21
1.557005
31
0.0
0
LINE
8
TOP
10
1.462500
20
1.557005
30
0.0
11
1.575000
21
1.556739
31
0.0
0
LINE
8
TOP
10
1.575000
20
1.556739
30
0.0
11
1.687500
21
1.556474
31
0.0
0
LINE
8
TOP
10
1.687500
20
1.556474
30
0.0
11
1.800000
21
1.556208
31
0.0
0
LINE
8
TOP
10
1.800000
20
1.556208
30
0.0
11
1.912500
21
1.555943
31
0.0
0
LINE
8
TOP
10
1.912500
20
1.555943
30
0.0
11
2.025000
21
1.555677
31
0.0
0
LINE
8
TOP
10
2.025000
20
1.555677
30
0.0
11
2.137500
21
1.555412
31
0.0
0
LINE
8
TOP
10
2.137500
20
1.555412
30
0.0
11
2.250000
21
1.555146
31
0.0
0
LINE
8
TOP
10
2.250000
20
1.555146
30
0.0
11
2.362500
21
1.554881
31
0.0
0
LINE
8
TOP
10
2.362500
20
1.554881
30
0.0
11
2.475000
21
1.554616
31
0.0
0
LINE
8
TOP
10
2.475000
20
1.554616
30
0.0
11
2.587500
21
1.554350
31
0.0
0
LINE
8
TOP
10
2.587500
20
1.554350
30
0.0
11
2.700000
21
1.554085
31
0.0
0
LINE
8
TOP
10
2.700000
20
1.554085
30
0.0
11
2.812500
21
1.553819
31
0.0
0
LINE
8
TOP
10
2.812500
20
1.553819
30
0.0
11
2.925000
21
1.553554
31
0.0
0
LINE
8
TOP
10
2.925000
20
1.553554
30
0.0
11
3.037500
21
1.553288
31
0.0
0
LINE
8
TOP
10
3.037500
20
1.553288
30
0.0
11
3.150000
21
1.553023
31
0.0
0
LINE
8
TOP
10
3.150000
20
1.553023
30
0.0
11
3.262500
21
1.552757
31
0.0
0
LINE
8
TOP
10
3.262500
20
1.552757
30
0.0
11
3.375000
21
1.552492
31
0.0
0
LINE
8
TOP
10
3.375000
20
1.552492
30
0.0
11
3.487500
21
1.552226
31
0.0
0
LINE
8
TOP
10
3.487500
20
1.552226
30
0.0
11
3.600000
21
1.551961
31
0.0
0
LINE
8
TOP
10
3.600000
20
1.551961
30
0.0
11
3.712500
21
1.551695
31
0.0
0
LINE
8
TOP
10
3.712500
20
1.551695
30
0.0
11
3.825000
21
1.551430
31
0.0
0
LINE
8
TOP
10
3.825000
20
1.551430
30
0.0
11
3.937500
21
1.551165
31
0.0
0
LINE
8
TOP
10
3.937500
20
1.551165
30
0.0
11
4.050000
21
1.550899
31
0.0
0
LINE
8
TOP
10
4.050000
20
1.550899
30
0.0
11
4.162500
21
1.550634
31
0.0
0
LINE
8
TOP
10
4.162500
20
1.550634
30
0.0
11
4.275000
21
1.550368
31
0.0
0
LINE
8
TOP
10
4.275000
20
1.550368
30
0.0
11
4.387500
21
1.550103
31
0.0
0
LINE
8
TOP
10
4.387500
20
1.550103
30
0.0
11
4.500000
21
1.549837
31
0.0
0
LINE
8
TOP
10
4.500000
20
1.549837
30
0.0
11
4.612500
21
1.550624
31
0.0
0
LINE
8
TOP
10
4.612500
20
1.550624
30
0.0
11
4.725000
21
1.551411
31
0.0
0
LINE
8
TOP
10
4.725000
20
1.551411
30
0.0
11
4.837500
21
1.552197
31
0.0
0
LINE
8
TOP
10
4.837500
20
1.552197
30
0.0
11
4.950000
21
1.552984
31
0.0
0
LINE
8
TOP
10
4.950000
20
1.552984
30
0.0
11
5.062500
21
1.553771
31
0.0
0
LINE
8
TOP
10
5.062500
20
1.553771
30
0.0
11
5.175000
21
1.554558
31
0.0
0
LINE
8
TOP
10
5.175000
20
1.554558
30
0.0
11
5.287500
21
1.555344
31
0.0
0
LINE
8
TOP
10
5.287500
20
1.555344
30
0.0
11
5.400000
21
1.556131
31
0.0
0
LINE
8
TOP
10
5.400000
20
1.556131
30
0.0
11
5.512500
21
1.556918
31
0.0
0
LINE
8
TOP
10
5.512500
20
1.556918
30
0.0
11
5.625000
21
1.557704
31
0.0
0
LINE
8
TOP
10
5.625000
20
1.557704
30
0.0
11
5.737500
21
1.558491
31
0.0
0
LINE
8
TOP
10
5.737500
20
1.558491
30
0.0
11
5.850000
21
1.559278
31
0.0
0
LINE
8
TOP
10
5.850000
20
1.559278
30
0.0
11
5.962500
21
1.560064
31
0.0
0
LINE
8
TOP
10
5.962500
20
1.560064
30
0.0
11
6.075000
21
1.560851
31
0.0
0
LINE
8
TOP
10
6.075000
20
1.560851
30
0.0
11
6.187500
21
1.561638
31
0.0
0
LINE
8
TOP
10
6.187500
20
1.561638
30
0.0
11
6.300000
21
1.562425
31
0.0
0
LINE
8
TOP
10
6.300000
20
1.562425
30
0.0
11
6.412500
21
1.563211
31
0.0
0
LINE
8
TOP
10
6.412500
20
1.563211
30
0.0
11
6.525000
21
1.563998
31
0.0
0
LINE
8
TOP
10
6.525000
20
1.563998
30
0.0
11
6.637500
21
1.564785
31
0.0
0
LINE
8
TOP
10
6.637500
20
1.564785
30
0.0
11
6.750000
21
1.565571
31
0.0
0
LINE
8
TOP
10
6.750000
20
1.565571
30
0.0
11
6.862500
21
1.566358
31
0.0
0
LINE
8
TOP
10
6.862500
20
1.566358
30
0.0
11
6.975000
21
1.567145
31
0.0
0
LINE
8
TOP
10
6.975000
20
1.567145
30
0.0
11
7.087500
21
1.567932
31
0.0
0
LINE
8
TOP
10
7.087500
20
1.567932
30
0.0
11
7.200000
21
1.568718
31
0.0
0
LINE
8
TOP
10
7.200000
20
1.568718
30
0.0
11
7.312500
21
1.569505
31
0.0
0
LINE
8
TOP
10
7.312500
20
1.569505
30
0.0
11
7.425000
21
1.570292
31
0.0
0
LINE
8
TOP
10
7.425000
20
1.570292
30
0.0
11
7.537500
21
1.571078
31
0.0
0
LINE
8
TOP
10
7.537500
20
1.571078
30
0.0
11
7.650000
21
1.571865
31
0.0
0
LINE
8
TOP
10
7.650000
20
1.571865
30
0.0
11
7.762500
21
1.572652
31
0.0
0
LINE
8
TOP
10
7.762500
20
1.572652
30
0.0
11
7.875000
21
1.573439
31
0.0
0
LINE
8
TOP
10
7.875000
20
1.573439
30
0.0
11
7.987500
21
1.574225
31
0.0
0
LINE
8
TOP
10
7.987500
20
1.574225
30
0.0
11
8.100000
21
1.575012
31
0.0
0
LINE
8
TOP
10
8.100000
20
1.575012
30
0.0
11
8.212500
21
1.575799
31
0.0
0
LINE
8
TOP
10
8.212500
20
1.575799
30
0.0
11
8.325000
21
1.576585
31
0.0
0
LINE
8
TOP
10
8.325000
20
1.576585
30
0.0
11
8.437500
21
1.577372
31
0.0
0
LINE
8
TOP
10
8.437500
20
1.577372
30
0.0
11
8.500000
21
1.577809
31
0.0
0
LINE
8
TOP
10
8.500000
20
1.577809
30
0.0
11
8.550000
21
1.578159
31
0.0
0
LINE
8
TOP
10
8.550000
20
1.578159
30
0.0
11
8.662500
21
1.578946
31
0.0
0
LINE
8
TOP
10
8.662500
20
1.578946
30
0.0
11
8.775000
21
1.579732
31
0.0
0
LINE
8
TOP
10
8.775000
20
1.579732
30
0.0
11
8.887500
21
1.580519
31
0.0
0
LINE
8
TOP
10
8.887500
20
1.580519
30
0.0
11
9.000000
21
1.581306
31
0.0
0
LINE
8
TOP
10
0.000000
20
1.956445
30
0.0
11
0.000000
21
1.560456
31
0.0
0
LINE
8
TOP
10
9.000000
20
1.935596
30
0.0
11
9.000000
21
1.581306
31
0.0
0
LINE
8
SECTION
10
10.291387
20
-0.251168
30
0.0
11
10.708613
21
-0.251168
31
0.0
0
LINE
8
SECTION
10
10.708613
20
-0.251168
30
0.0
11
10.708613
21
0.251168
31
0.0
0
LINE
8
SECTION
10
10.708613
20
0.251168
30
0.0
11
10.291387
21
0.251168
31
0.0
0
LINE
8
SECTION
10
10.291387
20
0.251168
30
0.0
11
10.291387
21
-0.251168
31
0.0
0
LINE
8
SECTION
10
10.351680
20
-0.190875
30
0.0
11
10.648320
21
-0.190875
31
0.0
0
LINE
8
SECTION
10
10.648320
20
-0.190875
30
0.0
11
10.648320
21
0.190875
31
0.0
0
LINE
8
SECTION
10
10.648320
20
0.190875
30
0.0
11
10.351680
21
0.190875
31
0.0
0
LINE
8
SECTION
10
10.351680
20
0.190875
30
0.0
11
10.351680
21
-0.190875
31
0.0
0
LINE
8
SECTION
10
10.351680
20
0.000000
30
0.0
11
10.411973
21
0.000000
31
0.0
0
LINE
8
SECTION
10
10.411973
20
0.000000
30
0.0
11
10.411973
21
0.190875
31
0.0
0
LINE
8
SECTION
10
10.411973
20
0.190875
30
0.0
11
10.351680
21
0.190875
31
0.0
0
LINE
8
SECTION
10
10.351680
20
0.190875
30
0.0
11
10.351680
21
0.000000
31
0.0
0
LINE
8
SECTION
10
10.351680
20
-0.190875
30
0.0
11
10.411973
21
-0.190875
31
0.0
0
LINE
8
SECTION
10
10.411973
20
-0.190875
30
0.0
11
10.411973
21
0.000000
31
0.0
0
LINE
8
SECTION
10
10.411973
20
0.000000
30
0.0
11
10.351680
21
0.000000
31
0.0
0
LINE
8
SECTION
10
10.351680
20
0.000000
30
0.0
11
10.351680
21
-0.190875
31
0.0
0
LINE
8
SECTION
10
10.588027
20
0.000000
30
0.0
11
10.648320
21
0.000000
31
0.0
0
LINE
8
SECTION
10
10.648320
20
0.000000
30
0.0
11
10.648320
21
0.190875
31
0.0
0
LINE
8
SECTION
10
10.648320
20
0.190875
30
0.0
11
10.588027
21
0.190875
31
0.0
0
LINE
8
SECTION
10
10.588027
20
0.190875
30
0.0
11
10.588027
21
0.000000
31
0.0
0
LINE
8
SECTION
10
10.588027
20
-0.190875
30
0.0
11
10.648320
21
-0.190875
31
0.0
0
LINE
8
SECTION
10
10.648320
20
-0.190875
30
0.0
11
10.648320
21
0.000000
31
0.0
0
LINE
8
SECTION
10
10.648320
20
0.000000
30
0.0
11
10.588027
21
0.000000
31
0.0
0
LINE
8
SECTION
10
10.588027
20
0.000000
30
0.0
11
10.588027
21
-0.190875
31
0.0
0
ENDSEC
0
EOF
