0
SECTION
2
HEADER
9
$INSUNITS
70
1
0
ENDSEC
0
SECTION
2
ENTITIES
0
LINE
8
FRONT
10
0.000000
20
0.426198
30
0.0
11
0.112500
21
0.422393
31
0.0
0
LINE
8
FRONT
10
0.112500
20
0.422393
30
0.0
11
0.225000
21
0.418588
31
0.0
0
LINE
8
FRONT
10
0.225000
20
0.418588
30
0.0
11
0.337500
21
0.414783
31
0.0
0
LINE
8
FRONT
10
0.337500
20
0.414783
30
0.0
11
0.450000
21
0.410978
31
0.0
0
LINE
8
FRONT
10
0.450000
20
0.410978
30
0.0
11
0.500000
21
0.409287
31
0.0
0
LINE
8
FRONT
10
0.500000
20
0.409287
30
0.0
11
0.562500
21
0.407174
31
0.0
0
LINE
8
FRONT
10
0.562500
20
0.407174
30
0.0
11
0.675000
21
0.403369
31
0.0
0
LINE
8
FRONT
10
0.675000
20
0.403369
30
0.0
11
0.787500
21
0.399564
31
0.0
0
LINE
8
FRONT
10
0.787500
20
0.399564
30
0.0
11
0.900000
21
0.395759
31
0.0
0
LINE
8
FRONT
10
0.900000
20
0.395759
30
0.0
11
1.012500
21
0.391955
31
0.0
0
LINE
8
FRONT
10
1.012500
20
0.391955
30
0.0
11
1.125000
21
0.388150
31
0.0
0
LINE
8
FRONT
10
1.125000
20
0.388150
30
0.0
11
1.237500
21
0.384345
31
0.0
0
LINE
8
FRONT
10
1.237500
20
0.384345
30
0.0
11
1.350000
21
0.380540
31
0.0
0
LINE
8
FRONT
10
1.350000
20
0.380540
30
0.0
11
1.462500
21
0.376736
31
0.0
0
LINE
8
FRONT
10
1.462500
20
0.376736
30
0.0
11
1.575000
21
0.372931
31
0.0
0
LINE
8
FRONT
10
1.575000
20
0.372931
30
0.0
11
1.687500
21
0.369126
31
0.0
0
LINE
8
FRONT
10
1.687500
20
0.369126
30
0.0
11
1.800000
21
0.365321
31
0.0
0
LINE
8
FRONT
10
1.800000
20
0.365321
30
0.0
11
1.912500
21
0.361516
31
0.0
0
LINE
8
FRONT
10
1.912500
20
0.361516
30
0.0
11
2.025000
21
0.357712
31
0.0
0
LINE
8
FRONT
10
2.025000
20
0.357712
30
0.0
11
2.137500
21
0.353907
31
0.0
0
LINE
8
FRONT
10
2.137500
20
0.353907
30
0.0
11
2.250000
21
0.350102
31
0.0
0
LINE
8
FRONT
10
2.250000
20
0.350102
30
0.0
11
2.362500
21
0.346297
31
0.0
0
LINE
8
FRONT
10
2.362500
20
0.346297
30
0.0
11
2.475000
21
0.342493
31
0.0
0
LINE
8
FRONT
10
2.475000
20
0.342493
30
0.0
11
2.587500
21
0.338688
31
0.0
0
LINE
8
FRONT
10
2.587500
20
0.338688
30
0.0
11
2.700000
21
0.334883
31
0.0
0
LINE
8
FRONT
10
2.700000
20
0.334883
30
0.0
11
2.812500
21
0.331078
31
0.0
0
LINE
8
FRONT
10
2.812500
20
0.331078
30
0.0
11
2.925000
21
0.327274
31
0.0
0
LINE
8
FRONT
10
2.925000
20
0.327274
30
0.0
11
3.037500
21
0.323469
31
0.0
0
LINE
8
FRONT
10
3.037500
20
0.323469
30
0.0
11
3.150000
21
0.319664
31
0.0
0
LINE
8
FRONT
10
3.150000
20
0.319664
30
0.0
11
3.262500
21
0.315859
31
0.0
0
LINE
8
FRONT
10
3.262500
20
0.315859
30
0.0
11
3.375000
21
0.312055
31
0.0
0
LINE
8
FRONT
10
3.375000
20
0.312055
30
0.0
11
3.487500
21
0.308250
31
0.0
0
LINE
8
FRONT
10
3.487500
20
0.308250
30
0.0
11
3.600000
21
0.304445
31
0.0
0
LINE
8
FRONT
10
3.600000
20
0.304445
30
0.0
11
3.712500
21
0.300640
31
0.0
0
LINE
8
FRONT
10
3.712500
20
0.300640
30
0.0
11
3.825000
21
0.296835
31
0.0
0
LINE
8
FRONT
10
3.825000
20
0.296835
30
0.0
11
3.937500
21
0.293031
31
0.0
0
LINE
8
FRONT
10
3.937500
20
0.293031
30
0.0
11
4.050000
21
0.289226
31
0.0
0
LINE
8
FRONT
10
4.050000
20
0.289226
30
0.0
11
4.162500
21
0.285421
31
0.0
0
LINE
8
FRONT
10
4.162500
20
0.285421
30
0.0
11
4.275000
21
0.281616
31
0.0
0
LINE
8
FRONT
10
4.275000
20
0.281616
30
0.0
11
4.387500
21
0.277812
31
0.0
0
LINE
8
FRONT
10
4.387500
20
0.277812
30
0.0
11
4.500000
21
0.274007
31
0.0
0
LINE
8
FRONT
10
4.500000
20
0.274007
30
0.0
11
4.612500
21
0.273395
31
0.0
0
LINE
8
FRONT
10
4.612500
20
0.273395
30
0.0
11
4.725000
21
0.272783
31
0.0
0
LINE
8
FRONT
10
4.725000
20
0.272783
30
0.0
11
4.837500
21
0.272171
31
0.0
0
LINE
8
FRONT
10
4.837500
20
0.272171
30
0.0
11
4.950000
21
0.271559
31
0.0
0
LINE
8
FRONT
10
4.950000
20
0.271559
30
0.0
11
5.062500
21
0.270947
31
0.0
0
LINE
8
FRONT
10
5.062500
20
0.270947
30
0.0
11
5.175000
21
0.270335
31
0.0
0
LINE
8
FRONT
10
5.175000
20
0.270335
30
0.0
11
5.287500
21
0.269723
31
0.0
0
LINE
8
FRONT
10
5.287500
20
0.269723
30
0.0
11
5.400000
21
0.269111
31
0.0
0
LINE
8
FRONT
10
5.400000
20
0.269111
30
0.0
11
5.512500
21
0.268499
31
0.0
0
LINE
8
FRONT
10
5.512500
20
0.268499
30
0.0
11
5.625000
21
0.267887
31
0.0
0
LINE
8
FRONT
10
5.625000
20
0.267887
30
0.0
11
5.737500
21
0.267275
31
0.0
0
LINE
8
FRONT
10
5.737500
20
0.267275
30
0.0
11
5.850000
21
0.266663
31
0.0
0
LINE
8
FRONT
10
5.850000
20
0.266663
30
0.0
11
5.962500
21
0.266051
31
0.0
0
LINE
8
FRONT
10
5.962500
20
0.266051
30
0.0
11
6.075000
21
0.265439
31
0.0
0
LINE
8
FRONT
10
6.075000
20
0.265439
30
0.0
11
6.187500
21
0.264827
31
0.0
0
LINE
8
FRONT
10
6.187500
20
0.264827
30
0.0
11
6.300000
21
0.264215
31
0.0
0
LINE
8
FRONT
10
6.300000
20
0.264215
30
0.0
11
6.412500
21
0.263603
31
0.0
0
LINE
8
FRONT
10
6.412500
20
0.263603
30
0.0
11
6.525000
21
0.262991
31
0.0
0
LINE
8
FRONT
10
6.525000
20
0.262991
30
0.0
11
6.637500
21
0.262379
31
0.0
0
LINE
8
FRONT
10
6.637500
20
0.262379
30
0.0
11
6.750000
21
0.261767
31
0.0
0
LINE
8
FRONT
10
6.750000
20
0.261767
30
0.0
11
6.862500
21
0.261155
31
0.0
0
LINE
8
FRONT
10
6.862500
20
0.261155
30
0.0
11
6.975000
21
0.260543
31
0.0
0
LINE
8
FRONT
10
6.975000
20
0.260543
30
0.0
11
7.087500
21
0.259931
31
0.0
0
LINE
8
FRONT
10
7.087500
20
0.259931
30
0.0
11
7.200000
21
0.259319
31
0.0
0
LINE
8
FRONT
10
7.200000
20
0.259319
30
0.0
11
7.312500
21
0.258707
31
0.0
0
LINE
8
FRONT
10
7.312500
20
0.258707
30
0.0
11
7.425000
21
0.258095
31
0.0
0
LINE
8
FRONT
10
7.425000
20
0.258095
30
0.0
11
7.537500
21
0.257483
31
0.0
0
LINE
8
FRONT
10
7.537500
20
0.257483
30
0.0
11
7.650000
21
0.256871
31
0.0
0
LINE
8
FRONT
10
7.650000
20
0.256871
30
0.0
11
7.762500
21
0.256259
31
0.0
0
LINE
8
FRONT
10
7.762500
20
0.256259
30
0.0
11
7.875000
21
0.255647
31
0.0
0
LINE
8
FRONT
10
7.875000
20
0.255647
30
0.0
11
7.987500
21
0.255035
31
0.0
0
LINE
8
FRONT
10
7.987500
20
0.255035
30
0.0
11
8.100000
21
0.254423
31
0.0
0
LINE
8
FRONT
10
8.100000
20
0.254423
30
0.0
11
8.212500
21
0.253811
31
0.0
0
LINE
8
FRONT
10
8.212500
20
0.253811
30
0.0
11
8.325000
21
0.253199
31
0.0
0
LINE
8
FRONT
10
8.325000
20
0.253199
30
0.0
11
8.437500
21
0.252587
31
0.0
0
LINE
8
FRONT
10
8.437500
20
0.252587
30
0.0
11
8.500000
21
0.252247
31
0.0
0
LINE
8
FRONT
10
8.500000
20
0.252247
30
0.0
11
8.550000
21
0.251975
31
0.0
0
LINE
8
FRONT
10
8.550000
20
0.251975
30
0.0
11
8.662500
21
0.251363
31
0.0
0
LINE
8
FRONT
10
8.662500
20
0.251363
30
0.0
11
8.775000
21
0.250751
31
0.0
0
LINE
8
FRONT
10
8.775000
20
0.250751
30
0.0
11
8.887500
21
0.250139
31
0.0
0
LINE
8
FRONT
10
8.887500
20
0.250139
30
0.0
11
9.000000
21
0.249527
31
0.0
0
LINE
8
FRONT
10
0.000000
20
-0.426198
30
0.0
11
0.112500
21
-0.422393
31
0.0
0
LINE
8
FRONT
10
0.112500
20
-0.422393
30
0.0
11
0.225000
21
-0.418588
31
0.0
0
LINE
8
FRONT
10
0.225000
20
-0.418588
30
0.0
11
0.337500
21
-0.414783
31
0.0
0
LINE
8
FRONT
10
0.337500
20
-0.414783
30
0.0
11
0.450000
21
-0.410978
31
0.0
0
LINE
8
FRONT
10
0.450000
20
-0.410978
30
0.0
11
0.500000
21
-0.409287
31
0.0
0
LINE
8
FRONT
10
0.500000
20
-0.409287
30
0.0
11
0.562500
21
-0.407174
31
0.0
0
LINE
8
FRONT
10
0.562500
20
-0.407174
30
0.0
11
0.675000
21
-0.403369
31
0.0
0
LINE
8
FRONT
10
0.675000
20
-0.403369
30
0.0
11
0.787500
21
-0.399564
31
0.0
0
LINE
8
FRONT
10
0.787500
20
-0.399564
30
0.0
11
0.900000
21
-0.395759
31
0.0
0
LINE
8
FRONT
10
0.900000
20
-0.395759
30
0.0
11
1.012500
21
-0.391955
31
0.0
0
LINE
8
FRONT
10
1.012500
20
-0.391955
30
0.0
11
1.125000
21
-0.388150
31
0.0
0
LINE
8
FRONT
10
1.125000
20
-0.388150
30
0.0
11
1.237500
21
-0.384345
31
0.0
0
LINE
8
FRONT
10
1.237500
20
-0.384345
30
0.0
11
1.350000
21
-0.380540
31
0.0
0
LINE
8
FRONT
10
1.350000
20
-0.380540
30
0.0
11
1.462500
21
-0.376736
31
0.0
0
LINE
8
FRONT
10
1.462500
20
-0.376736
30
0.0
11
1.575000
21
-0.372931
31
0.0
0
LINE
8
FRONT
10
1.575000
20
-0.372931
30
0.0
11
1.687500
21
-0.369126
31
0.0
0
LINE
8
FRONT
10
1.687500
20
-0.369126
30
0.0
11
1.800000
21
-0.365321
31
0.0
0
LINE
8
FRONT
10
1.800000
20
-0.365321
30
0.0
11
1.912500
21
-0.361516
31
0.0
0
LINE
8
FRONT
10
1.912500
20
-0.361516
30
0.0
11
2.025000
21
-0.357712
31
0.0
0
LINE
8
FRONT
10
2.025000
20
-0.357712
30
0.0
11
2.137500
21
-0.353907
31
0.0
0
LINE
8
FRONT
10
2.137500
20
-0.353907
30
0.0
11
2.250000
21
-0.350102
31
0.0
0
LINE
8
FRONT
10
2.250000
20
-0.350102
30
0.0
11
2.362500
21
-0.346297
31
0.0
0
LINE
8
FRONT
10
2.362500
20
-0.346297
30
0.0
11
2.475000
21
-0.342493
31
0.0
0
LINE
8
FRONT
10
2.475000
20
-0.342493
30
0.0
11
2.587500
21
-0.338688
31
0.0
0
LINE
8
FRONT
10
2.587500
20
-0.338688
30
0.0
11
2.700000
21
-0.334883
31
0.0
0
LINE
8
FRONT
10
2.700000
20
-0.334883
30
0.0
11
2.812500
21
-0.331078
31
0.0
0
LINE
8
FRONT
10
2.812500
20
-0.331078
30
0.0
11
2.925000
21
-0.327274
31
0.0
0
LINE
8
FRONT
10
2.925000
20
-0.327274
30
0.0
11
3.037500
21
-0.323469
31
0.0
0
LINE
8
FRONT
10
3.037500
20
-0.323469
30
0.0
11
3.150000
21
-0.319664
31
0.0
0
LINE
8
FRONT
10
3.150000
20
-0.319664
30
0.0
11
3.262500
21
-0.315859
31
0.0
0
LINE
8
FRONT
10
3.262500
20
-0.315859
30
0.0
11
3.375000
21
-0.312055
31
0.0
0
LINE
8
FRONT
10
3.375000
20
-0.312055
30
0.0
11
3.487500
21
-0.308250
31
0.0
0
LINE
8
FRONT
10
3.487500
20
-0.308250
30
0.0
11
3.600000
21
-0.304445
31
0.0
0
LINE
8
FRONT
10
3.600000
20
-0.304445
30
0.0
11
3.712500
21
-0.300640
31
0.0
0
LINE
8
FRONT
10
3.712500
20
-0.300640
30
0.0
11
3.825000
21
-0.296835
31
0.0
0
LINE
8
FRONT
10
3.825000
20
-0.296835
30
0.0
11
3.937500
21
-0.293031
31
0.0
0
LINE
8
FRONT
10
3.937500
20
-0.293031
30
0.0
11
4.050000
21
-0.289226
31
0.0
0
LINE
8
FRONT
10
4.050000
20
-0.289226
30
0.0
11
4.162500
21
-0.285421
31
0.0
0
LINE
8
FRONT
10
4.162500
20
-0.285421
30
0.0
11
4.275000
21
-0.281616
31
0.0
0
LINE
8
FRONT
10
4.275000
20
-0.281616
30
0.0
11
4.387500
21
-0.277812
31
0.0
0
LINE
8
FRONT
10
4.387500
20
-0.277812
30
0.0
11
4.500000
21
-0.274007
31
0.0
0
LINE
8
FRONT
10
4.500000
20
-0.274007
30
0.0
11
4.612500
21
-0.273395
31
0.0
0
LINE
8
FRONT
10
4.612500
20
-0.273395
30
0.0
11
4.725000
21
-0.272783
31
0.0
0
LINE
8
FRONT
10
4.725000
20
-0.272783
30
0.0
11
4.837500
21
-0.272171
31
0.0
0
LINE
8
FRONT
10
4.837500
20
-0.272171
30
0.0
11
4.950000
21
-0.271559
31
0.0
0
LINE
8
FRONT
10
4.950000
20
-0.271559
30
0.0
11
5.062500
21
-0.270947
31
0.0
0
LINE
8
FRONT
10
5.062500
20
-0.270947
30
0.0
11
5.175000
21
-0.270335
31
0.0
0
LINE
8
FRONT
10
5.175000
20
-0.270335
30
0.0
11
5.287500
21
-0.269723
31
0.0
0
LINE
8
FRONT
10
5.287500
20
-0.269723
30
0.0
11
5.400000
21
-0.269111
31
0.0
0
LINE
8
FRONT
10
5.400000
20
-0.269111
30
0.0
11
5.512500
21
-0.268499
31
0.0
0
LINE
8
FRONT
10
5.512500
20
-0.268499
30
0.0
11
5.625000
21
-0.267887
31
0.0
0
LINE
8
FRONT
10
5.625000
20
-0.267887
30
0.0
11
5.737500
21
-0.267275
31
0.0
0
LINE
8
FRONT
10
5.737500
20
-0.267275
30
0.0
11
5.850000
21
-0.266663
31
0.0
0
LINE
8
FRONT
10
5.850000
20
-0.266663
30
0.0
11
5.962500
21
-0.266051
31
0.0
0
LINE
8
FRONT
10
5.962500
20
-0.266051
30
0.0
11
6.075000
21
-0.265439
31
0.0
0
LINE
8
FRONT
10
6.075000
20
-0.265439
30
0.0
11
6.187500
21
-0.264827
31
0.0
0
LINE
8
FRONT
10
6.187500
20
-0.264827
30
0.0
11
6.300000
21
-0.264215
31
0.0
0
LINE
8
FRONT
10
6.300000
20
-0.264215
30
0.0
11
6.412500
21
-0.263603
31
0.0
0
LINE
8
FRONT
10
6.412500
20
-0.263603
30
0.0
11
6.525000
21
-0.262991
31
0.0
0
LINE
8
FRONT
10
6.525000
20
-0.262991
30
0.0
11
6.637500
21
-0.262379
31
0.0
0
LINE
8
FRONT
10
6.637500
20
-0.262379
30
0.0
11
6.750000
21
-0.261767
31
0.0
0
LINE
8
FRONT
10
6.750000
20
-0.261767
30
0.0
11
6.862500
21
-0.261155
31
0.0
0
LINE
8
FRONT
10
6.862500
20
-0.261155
30
0.0
11
6.975000
21
-0.260543
31
0.0
0
LINE
8
FRONT
10
6.975000
20
-0.260543
30
0.0
11
7.087500
21
-0.259931
31
0.0
0
LINE
8
FRONT
10
7.087500
20
-0.259931
30
0.0
11
7.200000
21
-0.259319
31
0.0
0
LINE
8
FRONT
10
7.200000
20
-0.259319
30
0.0
11
7.312500
21
-0.258707
31
0.0
0
LINE
8
FRONT
10
7.312500
20
-0.258707
30
0.0
11
7.425000
21
-0.258095
31
0.0
0
LINE
8
FRONT
10
7.425000
20
-0.258095
30
0.0
11
7.537500
21
-0.257483
31
0.0
0
LINE
8
FRONT
10
7.537500
20
-0.257483
30
0.0
11
7.650000
21
-0.256871
31
0.0
0
LINE
8
FRONT
10
7.650000
20
-0.256871
30
0.0
11
7.762500
21
-0.256259
31
0.0
0
LINE
8
FRONT
10
7.762500
20
-0.256259
30
0.0
11
7.875000
21
-0.255647
31
0.0
0
LINE
8
FRONT
10
7.875000
20
-0.255647
30
0.0
11
7.987500
21
-0.255035
31
0.0
0
LINE
8
FRONT
10
7.987500
20
-0.255035
30
0.0
11
8.100000
21
-0.254423
31
0.0
0
LINE
8
FRONT
10
8.100000
20
-0.254423
30
0.0
11
8.212500
21
-0.253811
31
0.0
0
LINE
8
FRONT
10
8.212500
20
-0.253811
30
0.0
11
8.325000
21
-0.253199
31
0.0
0
LINE
8
FRONT
10
8.325000
20
-0.253199
30
0.0
11
8.437500
21
-0.252587
31
0.0
0
LINE
8
FRONT
10
8.437500
20
-0.252587
30
0.0
11
8.500000
21
-0.252247
31
0.0
0
LINE
8
FRONT
10
8.500000
20
-0.252247
30
0.0
11
8.550000
21
-0.251975
31
0.0
0
LINE
8
FRONT
10
8.550000
20
-0.251975
30
0.0
11
8.662500
21
-0.251363
31
0.0
0
LINE
8
FRONT
10
8.662500
20
-0.251363
30
0.0
11
8.775000
21
-0.250751
31
0.0
0
LINE
8
FRONT
10
8.775000
20
-0.250751
30
0.0
11
8.887500
21
-0.250139
31
0.0
0
LINE
8
FRONT
10
8.887500
20
-0.250139
30
0.0
11
9.000000
21
-0.249527
31
0.0
0
LINE
8
FRONT
10
0.000000
20
0.426198
30
0.0
11
0.000000
21
-0.426198
31
0.0
0
LINE
8
FRONT
10
9.000000
20
0.249527
30
0.0
11
9.000000
21
-0.249527
31
0.0
0
LINE
8
TOP
10
0.000000
20
2.174813
30
0.0
11
0.112500
21
2.175607
31
0.0
0
LINE
8
TOP
10
0.112500
20
2.175607
30
0.0
11
0.225000
21
2.176401
31
0.0
0
LINE
8
TOP
10
0.225000
20
2.176401
30
0.0
11
0.337500
21
2.177195
31
0.0
0
LINE
8
TOP
10
0.337500
20
2.177195
30
0.0
11
0.450000
21
2.177988
31
0.0
0
LINE
8
TOP
10
0.450000
20
2.177988
30
0.0
11
0.500000
21
2.178341
31
0.0
0
LINE
8
TOP
10
0.500000
20
2.178341
30
0.0
11
0.562500
21
2.178782
31
0.0
0
LINE
8
TOP
10
0.562500
20
2.178782
30
0.0
11
0.675000
21
2.179576
31
0.0
0
LINE
8
TOP
10
0.675000
20
2.179576
30
0.0
11
0.787500
21
2.180370
31
0.0
0
LINE
8
TOP
10
0.787500
20
2.180370
30
0.0
11
0.900000
21
2.181164
31
0.0
0
LINE
8
TOP
10
0.900000
20
2.181164
30
0.0
11
1.012500
21
2.181958
31
0.0
0
LINE
8
TOP
10
1.012500
20
2.181958
30
0.0
11
1.125000
21
2.182751
31
0.0
0
LINE
8
TOP
10
1.125000
20
2.182751
30
0.0
11
1.237500
21
2.183545
31
0.0
0
LINE
8
TOP
10
1.237500
20
2.183545
30
0.0
11
1.350000
21
2.184339
31
0.0
0
LINE
8
TOP
10
1.350000
20
2.184339
30
0.0
11
1.462500
21
2.185133
31
0.0
0
LINE
8
TOP
10
1.462500
20
2.185133
30
0.0
11
1.575000
21
2.185927
31
0.0
0
LINE
8
TOP
10
1.575000
20
2.185927
30
0.0
11
1.687500
21
2.186721
31
0.0
0
LINE
8
TOP
10
1.687500
20
2.186721
30
0.0
11
1.800000
21
2.187515
31
0.0
0
LINE
8
TOP
10
1.800000
20
2.187515
30
0.0
11
1.912500
21
2.188308
31
0.0
0
LINE
8
TOP
10
1.912500
20
2.188308
30
0.0
11
2.025000
21
2.189102
31
0.0
0
LINE
8
TOP
10
2.025000
20
2.189102
30
0.0
11
2.137500
21
2.189896
31
0.0
0
LINE
8
TOP
10
2.137500
20
2.189896
30
0.0
11
2.250000
21
2.190690
31
0.0
0
LINE
8
TOP
10
2.250000
20
2.190690
30
0.0
11
2.362500
21
2.191484
31
0.0
0
LINE
8
TOP
10
2.362500
20
2.191484
30
0.0
11
2.475000
21
2.192278
31
0.0
0
LINE
8
TOP
10
2.475000
20
2.192278
30
0.0
11
2.587500
21
2.193072
31
0.0
0
LINE
8
TOP
10
2.587500
20
2.193072
30
0.0
11
2.700000
21
2.193865
31
0.0
0
LINE
8
TOP
10
2.700000
20
2.193865
30
0.0
11
2.812500
21
2.194659
31
0.0
0
LINE
8
TOP
10
2.812500
20
2.194659
30
0.0
11
2.925000
21
2.195453
31
0.0
0
LINE
8
TOP
10
2.925000
20
2.195453
30
0.0
11
3.037500
21
2.196247
31
0.0
0
LINE
8
TOP
10
3.037500
20
2.196247
30
0.0
11
3.150000
21
2.197041
31
0.0
0
LINE
8
TOP
10
3.150000
20
2.197041
30
0.0
11
3.262500
21
2.197835
31
0.0
0
LINE
8
TOP
10
3.262500
20
2.197835
30
0.0
11
3.375000
21
2.198629
31
0.0
0
LINE
8
TOP
10
3.375000
20
2.198629
30
0.0
11
3.487500
21
2.199422
31
0.0
0
LINE
8
TOP
10
3.487500
20
2.199422
30
0.0
11
3.600000
21
2.200216
31
0.0
0
LINE
8
TOP
10
3.600000
20
2.200216
30
0.0
11
3.712500
21
2.201010
31
0.0
0
LINE
8
TOP
10
3.712500
20
2.201010
30
0.0
11
3.825000
21
2.201804
31
0.0
0
LINE
8
TOP
10
3.825000
20
2.201804
30
0.0
11
3.937500
21
2.202598
31
0.0
0
LINE
8
TOP
10
3.937500
20
2.202598
30
0.0
11
4.050000
21
2.203392
31
0.0
0
LINE
8
TOP
10
4.050000
20
2.203392
30
0.0
11
4.162500
21
2.204186
31
0.0
0
LINE
8
TOP
10
4.162500
20
2.204186
30
0.0
11
4.275000
21
2.204979
31
0.0
0
LINE
8
TOP
10
4.275000
20
2.204979
30
0.0
11
4.387500
21
2.205773
31
0.0
0
LINE
8
TOP
10
4.387500
20
2.205773
30
0.0
11
4.500000
21
2.206567
31
0.0
0
LINE
8
TOP
10
4.500000
20
2.206567
30
0.0
11
4.612500
21
2.209114
31
0.0
0
LINE
8
TOP
10
4.612500
20
2.209114
30
0.0
11
4.725000
21
2.211662
31
0.0
0
LINE
8
TOP
10
4.725000
20
2.211662
30
0.0
11
4.837500
21
2.214209
31
0.0
0
LINE
8
TOP
10
4.837500
20
2.214209
30
0.0
11
4.950000
21
2.216757
31
0.0
0
LINE
8
TOP
10
4.950000
20
2.216757
30
0.0
11
5.062500
21
2.219304
31
0.0
0
LINE
8
TOP
10
5.062500
20
2.219304
30
0.0
11
5.175000
21
2.221851
31
0.0
0
LINE
8
TOP
10
5.175000
20
2.221851
30
0.0
11
5.287500
21
2.224399
31
0.0
0
LINE
8
TOP
10
5.287500
20
2.224399
30
0.0
11
5.400000
21
2.226946
31
0.0
0
LINE
8
TOP
10
5.400000
20
2.226946
30
0.0
11
5.512500
21
2.229493
31
0.0
0
LINE
8
TOP
10
5.512500
20
2.229493
30
0.0
11
5.625000
21
2.232041
31
0.0
0
LINE
8
TOP
10
5.625000
20
2.232041
30
0.0
11
5.737500
21
2.234588
31
0.0
0
LINE
8
TOP
10
5.737500
20
2.234588
30
0.0
11
5.850000
21
2.237136
31
0.0
0
LINE
8
TOP
10
5.850000
20
2.237136
30
0.0
11
5.962500
21
2.239683
31
0.0
0
LINE
8
TOP
10
5.962500
20
2.239683
30
0.0
11
6.075000
21
2.242230
31
0.0
0
LINE
8
TOP
10
6.075000
20
2.242230
30
0.0
11
6.187500
21
2.244778
31
0.0
0
LINE
8
TOP
10
6.187500
20
2.244778
30
0.0
11
6.300000
21
2.247325
31
0.0
0
LINE
8
TOP
10
6.300000
20
2.247325
30
0.0
11
6.412500
21
2.249872
31
0.0
0
LINE
8
TOP
10
6.412500
20
2.249872
30
0.0
11
6.525000
21
2.252420
31
0.0
0
LINE
8
TOP
10
6.525000
20
2.252420
30
0.0
11
6.637500
21
2.254967
31
0.0
0
LINE
8
TOP
10
6.637500
20
2.254967
30
0.0
11
6.750000
21
2.257514
31
0.0
0
LINE
8
TOP
10
6.750000
20
2.257514
30
0.0
11
6.862500
21
2.260062
31
0.0
0
LINE
8
TOP
10
6.862500
20
2.260062
30
0.0
11
6.975000
21
2.262609
31
0.0
0
LINE
8
TOP
10
6.975000
20
2.262609
30
0.0
11
7.087500
21
2.265157
31
0.0
0
LINE
8
TOP
10
7.087500
20
2.265157
30
0.0
11
7.200000
21
2.267704
31
0.0
0
LINE
8
TOP
10
7.200000
20
2.267704
30
0.0
11
7.312500
21
2.270251
31
0.0
0
LINE
8
TOP
10
7.312500
20
2.270251
30
0.0
11
7.425000
21
2.272799
31
0.0
0
LINE
8
TOP
10
7.425000
20
2.272799
30
0.0
11
7.537500
21
2.275346
31
0.0
0
LINE
8
TOP
10
7.537500
20
2.275346
30
0.0
11
7.650000
21
2.277893
31
0.0
0
LINE
8
TOP
10
7.650000
20
2.277893
30
0.0
11
7.762500
21
2.280441
31
0.0
0
LINE
8
TOP
10
7.762500
20
2.280441
30
0.0
11
7.875000
21
2.282988
31
0.0
0
LINE
8
TOP
10
7.875000
20
2.282988
30
0.0
11
7.987500
21
2.285535
31
0.0
0
LINE
8
TOP
10
7.987500
20
2.285535
30
0.0
11
8.100000
21
2.288083
31
0.0
0
LINE
8
TOP
10
8.100000
20
2.288083
30
0.0
11
8.212500
21
2.290630
31
0.0
0
LINE
8
TOP
10
8.212500
20
2.290630
30
0.0
11
8.325000
21
2.293178
31
0.0
0
LINE
8
TOP
10
8.325000
20
2.293178
30
0.0
11
8.437500
21
2.295725
31
0.0
0
LINE
8
TOP
10
8.437500
20
2.295725
30
0.0
11
8.500000
21
2.297140
31
0.0
0
LINE
8
TOP
10
8.500000
20
2.297140
30
0.0
11
8.550000
21
2.298272
31
0.0
0
LINE
8
TOP
10
8.550000
20
2.298272
30
0.0
11
8.662500
21
2.300820
31
0.0
0
LINE
8
TOP
10
8.662500
20
2.300820
30
0.0
11
8.775000
21
2.303367
31
0.0
0
LINE
8
TOP
10
8.775000
20
2.303367
30
0.0
11
8.887500
21
2.305914
31
0.0
0
LINE
8
TOP
10
8.887500
20
2.305914
30
0.0
11
9.000000
21
2.308462
31
0.0
0
LINE
8
TOP
10
0.000000
20
1.882372
30
0.0
11
0.112500
21
1.881578
31
0.0
0
LINE
8
TOP
10
0.112500
20
1.881578
30
0.0
11
0.225000
21
1.880784
31
0.0
0
LINE
8
TOP
10
0.225000
20
1.880784
30
0.0
11
0.337500
21
1.879991
31
0.0
0
LINE
8
TOP
10
0.337500
20
1.879991
30
0.0
11
0.450000
21
1.879197
31
0.0
0
LINE
8
TOP
10
0.450000
20
1.879197
30
0.0
11
0.500000
21
1.878844
31
0.0
0
LINE
8
TOP
10
0.500000
20
1.878844
30
0.0
11
0.562500
21
1.878403
31
0.0
0
LINE
8
TOP
10
0.562500
20
1.878403
30
0.0
11
0.675000
21
1.877609
31
0.0
0
LINE
8
TOP
10
0.675000
20
1.877609
30
0.0
11
0.787500
21
1.876815
31
0.0
0
LINE
8
TOP
10
0.787500
20
1.876815
30
0.0
11
0.900000
21
1.876021
31
0.0
0
LINE
8
TOP
10
0.900000
20
1.876021
30
0.0
11
1.012500
21
1.875227
31
0.0
0
LINE
8
TOP
10
1.012500
20
1.875227
30
0.0
11
1.125000
21
1.874434
31
0.0
0
LINE
8
TOP
10
1.125000
20
1.874434
30
0.0
11
1.237500
21
1.873640
31
0.0
0
LINE
8
TOP
10
1.237500
20
1.873640
30
0.0
11
1.350000
21
1.872846
31
0.0
0
LINE
8
TOP
10
1.350000
20
1.872846
30
0.0
11
1.462500
21
1.872052
31
0.0
0
LINE
8
TOP
10
1.462500
20
1.872052
30
0.0
11
1.575000
21
1.871258
31
0.0
0
LINE
8
TOP
10
1.575000
20
1.871258
30
0.0
11
1.687500
21
1.870464
31
0.0
0
LINE
8
TOP
10
1.687500
20
1.870464
30
0.0
11
1.800000
21
1.869670
31
0.0
0
LINE
8
TOP
10
1.800000
20
1.869670
30
0.0
11
1.912500
21
1.868877
31
0.0
0
LINE
8
TOP
10
1.912500
20
1.868877
30
0.0
11
2.025000
21
1.868083
31
0.0
0
LINE
8
TOP
10
2.025000
20
1.868083
30
0.0
11
2.137500
21
1.867289
31
0.0
0
LINE
8
TOP
10
2.137500
20
1.867289
30
0.0
11
2.250000
21
1.866495
31
0.0
0
LINE
8
TOP
10
2.250000
20
1.866495
30
0.0
11
2.362500
21
1.865701
31
0.0
0
LINE
8
TOP
10
2.362500
20
1.865701
30
0.0
11
2.475000
21
1.864907
31
0.0
0
LINE
8
TOP
10
2.475000
20
1.864907
30
0.0
11
2.587500
21
1.864113
31
0.0
0
LINE
8
TOP
10
2.587500
20
1.864113
30
0.0
11
2.700000
21
1.863320
31
0.0
0
LINE
8
TOP
10
2.700000
20
1.863320
30
0.0
11
2.812500
21
1.862526
31
0.0
0
LINE
8
TOP
10
2.812500
20
1.862526
30
0.0
11
2.925000
21
1.861732
31
0.0
0
LINE
8
TOP
10
2.925000
20
1.861732
30
0.0
11
3.037500
21
1.860938
31
0.0
0
LINE
8
TOP
10
3.037500
20
1.860938
30
0.0
11
3.150000
21
1.860144
31
0.0
0
LINE
8
TOP
10
3.150000
20
1.860144
30
0.0
11
3.262500
21
1.859350
31
0.0
0
LINE
8
TOP
10
3.262500
20
1.859350
30
0.0
11
3.375000
21
1.858557
31
0.0
0
LINE
8
TOP
10
3.375000
20
1.858557
30
0.0
11
3.487500
21
1.857763
31
0.0
0
LINE
8
TOP
10
3.487500
20
1.857763
30
0.0
11
3.600000
21
1.856969
31
0.0
0
LINE
8
TOP
10
3.600000
20
1.856969
30
0.0
11
3.712500
21
1.856175
31
0.0
0
LINE
8
TOP
10
3.712500
20
1.856175
30
0.0
11
3.825000
21
1.855381
31
0.0
0
LINE
8
TOP
10
3.825000
20
1.855381
30
0.0
11
3.937500
21
1.854587
31
0.0
0
LINE
8
TOP
10
3.937500
20
1.854587
30
0.0
11
4.050000
21
1.853793
31
0.0
0
LINE
8
TOP
10
4.050000
20
1.853793
30
0.0
11
4.162500
21
1.853000
31
0.0
0
LINE
8
TOP
10
4.162500
20
1.853000
30
0.0
11
4.275000
21
1.852206
31
0.0
0
LINE
8
TOP
10
4.275000
20
1.852206
30
0.0
11
4.387500
21
1.851412
31
0.0
0
LINE
8
TOP
10
4.387500
20
1.851412
30
0.0
11
4.500000
21
1.850618
31
0.0
0
LINE
8
TOP
10
4.500000
20
1.850618
30
0.0
11
4.612500
21
1.848071
31
0.0
0
LINE
8
TOP
10
4.612500
20
1.848071
30
0.0
11
4.725000
21
1.845523
31
0.0
0
LINE
8
TOP
10
4.725000
20
1.845523
30
0.0
11
4.837500
21
1.842976
31
0.0
0
LINE
8
TOP
10
4.837500
20
1.842976
30
0.0
11
4.950000
21
1.840428
31
0.0
0
LINE
8
TOP
10
4.950000
20
1.840428
30
0.0
11
5.062500
21
1.837881
31
0.0
0
LINE
8
TOP
10
5.062500
20
1.837881
30
0.0
11
5.175000
21
1.835334
31
0.0
0
LINE
8
TOP
10
5.175000
20
1.835334
30
0.0
11
5.287500
21
1.832786
31
0.0
0
LINE
8
TOP
10
5.287500
20
1.832786
30
0.0
11
5.400000
21
1.830239
31
0.0
0
LINE
8
TOP
10
5.400000
20
1.830239
30
0.0
11
5.512500
21
1.827692
31
0.0
0
LINE
8
TOP
10
5.512500
20
1.827692
30
0.0
11
5.625000
21
1.825144
31
0.0
0
LINE
8
TOP
10
5.625000
20
1.825144
30
0.0
11
5.737500
21
1.822597
31
0.0
0
LINE
8
TOP
10
5.737500
20
1.822597
30
0.0
11
5.850000
21
1.820050
31
0.0
0
LINE
8
TOP
10
5.850000
20
1.820050
30
0.0
11
5.962500
21
1.817502
31
0.0
0
LINE
8
TOP
10
5.962500
20
1.817502
30
0.0
11
6.075000
21
1.814955
31
0.0
0
LINE
8
TOP
10
6.075000
20
1.814955
30
0.0
11
6.187500
21
1.812407
31
0.0
0
LINE
8
TOP
10
6.187500
20
1.812407
30
0.0
11
6.300000
21
1.809860
31
0.0
0
LINE
8
TOP
10
6.300000
20
1.809860
30
0.0
11
6.412500
21
1.807313
31
0.0
0
LINE
8
TOP
10
6.412500
20
1.807313
30
0.0
11
6.525000
21
1.804765
31
0.0
0
LINE
8
TOP
10
6.525000
20
1.804765
30
0.0
11
6.637500
21
1.802218
31
0.0
0
LINE
8
TOP
10
6.637500
20
1.802218
30
0.0
11
6.750000
21
1.799671
31
0.0
0
LINE
8
TOP
10
6.750000
20
1.799671
30
0.0
11
6.862500
21
1.797123
31
0.0
0
LINE
8
TOP
10
6.862500
20
1.797123
30
0.0
11
6.975000
21
1.794576
31
0.0
0
LINE
8
TOP
10
6.975000
20
1.794576
30
0.0
11
7.087500
21
1.792029
31
0.0
0
LINE
8
TOP
10
7.087500
20
1.792029
30
0.0
11
7.200000
21
1.789481
31
0.0
0
LINE
8
TOP
10
7.200000
20
1.789481
30
0.0
11
7.312500
21
1.786934
31
0.0
0
LINE
8
TOP
10
7.312500
20
1.786934
30
0.0
11
7.425000
21
1.784386
31
0.0
0
LINE
8
TOP
10
7.425000
20
1.784386
30
0.0
11
7.537500
21
1.781839
31
0.0
0
LINE
8
TOP
10
7.537500
20
1.781839
30
0.0
11
7.650000
21
1.779292
31
0.0
0
LINE
8
TOP
10
7.650000
20
1.779292
30
0.0
11
7.762500
21
1.776744
31
0.0
0
LINE
8
TOP
10
7.762500
20
1.776744
30
0.0
11
7.875000
21
1.774197
31
0.0
0
LINE
8
TOP
10
7.875000
20
1.774197
30
0.0
11
7.987500
21
1.771650
31
0.0
0
LINE
8
TOP
10
7.987500
20
1.771650
30
0.0
11
8.100000
21
1.769102
31
0.0
0
LINE
8
TOP
10
8.100000
20
1.769102
30
0.0
11
8.212500
21
1.766555
31
0.0
0
LINE
8
TOP
10
8.212500
20
1.766555
30
0.0
11
8.325000
21
1.764008
31
0.0
0
LINE
8
TOP
10
8.325000
20
1.764008
30
0.0
11
8.437500
21
1.761460
31
0.0
0
LINE
8
TOP
10
8.437500
20
1.761460
30
0.0
11
8.500000
21
1.760045
31
0.0
0
LINE
8
TOP
10
8.500000
20
1.760045
30
0.0
11
8.550000
21
1.758913
31
0.0
0
LINE
8
TOP
10
8.550000
20
1.758913
30
0.0
11
8.662500
21
1.756365
31
0.0
0
LINE
8
TOP
10
8.662500
20
1.756365
30
0.0
11
8.775000
21
1.753818
31
0.0
0
LINE
8
TOP
10
8.775000
20
1.753818
30
0.0
11
8.887500
21
1.751271
31
0.0
0
LINE
8
TOP
10
8.887500
20
1.751271
30
0.0
11
9.000000
21
1.748723
31
0.0
0
LINE
8
TOP
10
0.000000
20
2.174813
30
0.0
11
0.000000
21
1.882372
31
0.0
0
LINE
8
TOP
10
9.000000
20
2.308462
30
0.0
11
9.000000
21
1.748723
31
0.0
0
LINE
8
SECTION
10
10.322025
20
-0.274007
30
0.0
11
10.677975
21
-0.274007
31
0.0
0
LINE
8
SECTION
10
10.677975
20
-0.274007
30
0.0
11
10.677975
21
0.274007
31
0.0
0
LINE
8
SECTION
10
10.677975
20
0.274007
30
0.0
11
10.322025
21
0.274007
31
0.0
0
LINE
8
SECTION
10
10.322025
20
0.274007
30
0.0
11
10.322025
21
-0.274007
31
0.0
0
LINE
8
SECTION
10
10.382025
20
-0.214007
30
0.0
11
10.617975
21
-0.214007
31
0.0
0
LINE
8
SECTION
10
10.617975
20
-0.214007
30
0.0
11
10.617975
21
0.214007
31
0.0
0
LINE
8
SECTION
10
10.617975
20
0.214007
30
0.0
11
10.382025
21
0.214007
31
0.0
0
LINE
8
SECTION
10
10.382025
20
0.214007
30
0.0
11
10.382025
21
-0.214007
31
0.0
0
LINE
8
SECTION
10
10.382025
20
0.000000
30
0.0
11
10.442025
21
0.000000
31
0.0
0
LINE
8
SECTION
10
10.442025
20
0.000000
30
0.0
11
10.442025
21
0.214007
31
0.0
0
LINE
8
SECTION
10
10.442025
20
0.214007
30
0.0
11
10.382025
21
0.214007
31
0.0
0
LINE
8
SECTION
10
10.382025
20
0.214007
30
0.0
11
10.382025
21
0.000000
31
0.0
0
LINE
8
SECTION
10
10.382025
20
-0.214007
30
0.0
11
10.442025
21
-0.214007
31
0.0
0
LINE
8
SECTION
10
10.442025
20
-0.214007
30
0.0
11
10.442025
21
0.000000
31
0.0
0
LINE
8
SECTION
10
10.442025
20
0.000000
30
0.0
11
10.382025
21
0.000000
31
0.0
0
LINE
8
SECTION
10
10.382025
20
0.000000
30
0.0
11
10.382025
21
-0.214007
31
0.0
0
LINE
8
SECTION
10
10.557975
20
0.000000
30
0.0
11
10.617975
21
0.000000
31
0.0
0
LINE
8
SECTION
10
10.617975
20
0.000000
30
0.0
11
10.617975
21
0.214007
31
0.0
0
LINE
8
SECTION
10
10.617975
20
0.214007
30
0.0
11
10.557975
21
0.214007
31
0.0
0
LINE
8
SECTION
10
10.557975
20
0.214007
30
0.0
11
10.557975
21
0.000000
31
0.0
0
LINE
8
SECTION
10
10.557975
20
-0.214007
30
0.0
11
10.617975
21
-0.214007
31
0.0
0
LINE
8
SECTION
10
10.617975
20
-0.214007
30
0.0
11
10.617975
21
0.000000
31
0.0
0
LINE
8
SECTION
10
10.617975
20
0.000000
30
0.0
11
10.557975
21
0.000000
31
0.0
0
LINE
8
SECTION
10
10.557975
20
0.000000
30
0.0
11
10.557975
21
-0.214007
31
0.0
0
ENDSEC
0
EOF
