0
SECTION
2
HEADER
9
$INSUNITS
70
1
0
ENDSEC
0
SECTION
2
ENTITIES
0
LINE
8
FRONT
10
0.000000
20
0.425000
30
0.0
11
0.100000
21
0.436875
31
0.0
0
LINE
8
FRONT
10
0.100000
20
0.436875
30
0.0
11
0.200000
21
0.448750
31
0.0
0
LINE
8
FRONT
10
0.200000
20
0.448750
30
0.0
11
0.300000
21
0.460625
31
0.0
0
LINE
8
FRONT
10
0.300000
20
0.460625
30
0.0
11
0.400000
21
0.472500
31
0.0
0
LINE
8
FRONT
10
0.400000
20
0.472500
30
0.0
11
0.500000
21
0.484375
31
0.0
0
LINE
8
FRONT
10
0.500000
20
0.484375
30
0.0
11
0.600000
21
0.496250
31
0.0
0
LINE
8
FRONT
10
0.600000
20
0.496250
30
0.0
11
0.700000
21
0.508125
31
0.0
0
LINE
8
FRONT
10
0.700000
20
0.508125
30
0.0
11
0.800000
21
0.520000
31
0.0
0
LINE
8
FRONT
10
0.800000
20
0.520000
30
0.0
11
0.900000
21
0.531875
31
0.0
0
LINE
8
FRONT
10
0.900000
20
0.531875
30
0.0
11
1.000000
21
0.543750
31
0.0
0
LINE
8
FRONT
10
1.000000
20
0.543750
30
0.0
11
1.100000
21
0.555625
31
0.0
0
LINE
8
FRONT
10
1.100000
20
0.555625
30
0.0
11
1.200000
21
0.567500
31
0.0
0
LINE
8
FRONT
10
1.200000
20
0.567500
30
0.0
11
1.300000
21
0.579375
31
0.0
0
LINE
8
FRONT
10
1.300000
20
0.579375
30
0.0
11
1.400000
21
0.591250
31
0.0
0
LINE
8
FRONT
10
1.400000
20
0.591250
30
0.0
11
1.500000
21
0.603125
31
0.0
0
LINE
8
FRONT
10
1.500000
20
0.603125
30
0.0
11
1.600000
21
0.615000
31
0.0
0
LINE
8
FRONT
10
1.600000
20
0.615000
30
0.0
11
1.700000
21
0.626875
31
0.0
0
LINE
8
FRONT
10
1.700000
20
0.626875
30
0.0
11
1.800000
21
0.638750
31
0.0
0
LINE
8
FRONT
10
1.800000
20
0.638750
30
0.0
11
1.900000
21
0.650625
31
0.0
0
LINE
8
FRONT
10
1.900000
20
0.650625
30
0.0
11
2.000000
21
0.662500
31
0.0
0
LINE
8
FRONT
10
2.000000
20
0.662500
30
0.0
11
2.100000
21
0.674375
31
0.0
0
LINE
8
FRONT
10
2.100000
20
0.674375
30
0.0
11
2.200000
21
0.686250
31
0.0
0
LINE
8
FRONT
10
2.200000
20
0.686250
30
0.0
11
2.300000
21
0.698125
31
0.0
0
LINE
8
FRONT
10
2.300000
20
0.698125
30
0.0
11
2.400000
21
0.710000
31
0.0
0
LINE
8
FRONT
10
2.400000
20
0.710000
30
0.0
11
2.500000
21
0.721875
31
0.0
0
LINE
8
FRONT
10
2.500000
20
0.721875
30
0.0
11
2.600000
21
0.733750
31
0.0
0
LINE
8
FRONT
10
2.600000
20
0.733750
30
0.0
11
2.700000
21
0.745625
31
0.0
0
LINE
8
FRONT
10
2.700000
20
0.745625
30
0.0
11
2.800000
21
0.757500
31
0.0
0
LINE
8
FRONT
10
2.800000
20
0.757500
30
0.0
11
2.900000
21
0.769375
31
0.0
0
LINE
8
FRONT
10
2.900000
20
0.769375
30
0.0
11
3.000000
21
0.781250
31
0.0
0
LINE
8
FRONT
10
3.000000
20
0.781250
30
0.0
11
3.100000
21
0.793125
31
0.0
0
LINE
8
FRONT
10
3.100000
20
0.793125
30
0.0
11
3.200000
21
0.805000
31
0.0
0
LINE
8
FRONT
10
3.200000
20
0.805000
30
0.0
11
3.300000
21
0.816875
31
0.0
0
LINE
8
FRONT
10
3.300000
20
0.816875
30
0.0
11
3.400000
21
0.828750
31
0.0
0
LINE
8
FRONT
10
3.400000
20
0.828750
30
0.0
11
3.500000
21
0.840625
31
0.0
0
LINE
8
FRONT
10
3.500000
20
0.840625
30
0.0
11
3.600000
21
0.852500
31
0.0
0
LINE
8
FRONT
10
3.600000
20
0.852500
30
0.0
11
3.700000
21
0.864375
31
0.0
0
LINE
8
FRONT
10
3.700000
20
0.864375
30
0.0
11
3.800000
21
0.876250
31
0.0
0
LINE
8
FRONT
10
3.800000
20
0.876250
30
0.0
11
3.900000
21
0.888125
31
0.0
0
LINE
8
FRONT
10
3.900000
20
0.888125
30
0.0
11
4.000000
21
0.900000
31
0.0
0
LINE
8
FRONT
10
4.000000
20
0.900000
30
0.0
11
4.100000
21
0.888125
31
0.0
0
LINE
8
FRONT
10
4.100000
20
0.888125
30
0.0
11
4.200000
21
0.876250
31
0.0
0
LINE
8
FRONT
10
4.200000
20
0.876250
30
0.0
11
4.300000
21
0.864375
31
0.0
0
LINE
8
FRONT
10
4.300000
20
0.864375
30
0.0
11
4.400000
21
0.852500
31
0.0
0
LINE
8
FRONT
10
4.400000
20
0.852500
30
0.0
11
4.500000
21
0.840625
31
0.0
0
LINE
8
FRONT
10
4.500000
20
0.840625
30
0.0
11
4.600000
21
0.828750
31
0.0
0
LINE
8
FRONT
10
4.600000
20
0.828750
30
0.0
11
4.700000
21
0.816875
31
0.0
0
LINE
8
FRONT
10
4.700000
20
0.816875
30
0.0
11
4.800000
21
0.805000
31
0.0
0
LINE
8
FRONT
10
4.800000
20
0.805000
30
0.0
11
4.900000
21
0.793125
31
0.0
0
LINE
8
FRONT
10
4.900000
20
0.793125
30
0.0
11
5.000000
21
0.781250
31
0.0
0
LINE
8
FRONT
10
5.000000
20
0.781250
30
0.0
11
5.100000
21
0.769375
31
0.0
0
LINE
8
FRONT
10
5.100000
20
0.769375
30
0.0
11
5.200000
21
0.757500
31
0.0
0
LINE
8
FRONT
10
5.200000
20
0.757500
30
0.0
11
5.300000
21
0.745625
31
0.0
0
LINE
8
FRONT
10
5.300000
20
0.745625
30
0.0
11
5.400000
21
0.733750
31
0.0
0
LINE
8
FRONT
10
5.400000
20
0.733750
30
0.0
11
5.500000
21
0.721875
31
0.0
0
LINE
8
FRONT
10
5.500000
20
0.721875
30
0.0
11
5.600000
21
0.710000
31
0.0
0
LINE
8
FRONT
10
5.600000
20
0.710000
30
0.0
11
5.700000
21
0.698125
31
0.0
0
LINE
8
FRONT
10
5.700000
20
0.698125
30
0.0
11
5.800000
21
0.686250
31
0.0
0
LINE
8
FRONT
10
5.800000
20
0.686250
30
0.0
11
5.900000
21
0.674375
31
0.0
0
LINE
8
FRONT
10
5.900000
20
0.674375
30
0.0
11
6.000000
21
0.662500
31
0.0
0
LINE
8
FRONT
10
6.000000
20
0.662500
30
0.0
11
6.100000
21
0.650625
31
0.0
0
LINE
8
FRONT
10
6.100000
20
0.650625
30
0.0
11
6.200000
21
0.638750
31
0.0
0
LINE
8
FRONT
10
6.200000
20
0.638750
30
0.0
11
6.300000
21
0.626875
31
0.0
0
LINE
8
FRONT
10
6.300000
20
0.626875
30
0.0
11
6.400000
21
0.615000
31
0.0
0
LINE
8
FRONT
10
6.400000
20
0.615000
30
0.0
11
6.500000
21
0.603125
31
0.0
0
LINE
8
FRONT
10
6.500000
20
0.603125
30
0.0
11
6.600000
21
0.591250
31
0.0
0
LINE
8
FRONT
10
6.600000
20
0.591250
30
0.0
11
6.700000
21
0.579375
31
0.0
0
LINE
8
FRONT
10
6.700000
20
0.579375
30
0.0
11
6.800000
21
0.567500
31
0.0
0
LINE
8
FRONT
10
6.800000
20
0.567500
30
0.0
11
6.900000
21
0.555625
31
0.0
0
LINE
8
FRONT
10
6.900000
20
0.555625
30
0.0
11
7.000000
21
0.543750
31
0.0
0
LINE
8
FRONT
10
7.000000
20
0.543750
30
0.0
11
7.100000
21
0.531875
31
0.0
0
LINE
8
FRONT
10
7.100000
20
0.531875
30
0.0
11
7.200000
21
0.520000
31
0.0
0
LINE
8
FRONT
10
7.200000
20
0.520000
30
0.0
11
7.300000
21
0.508125
31
0.0
0
LINE
8
FRONT
10
7.300000
20
0.508125
30
0.0
11
7.400000
21
0.496250
31
0.0
0
LINE
8
FRONT
10
7.400000
20
0.496250
30
0.0
11
7.500000
21
0.484375
31
0.0
0
LINE
8
FRONT
10
7.500000
20
0.484375
30
0.0
11
7.600000
21
0.472500
31
0.0
0
LINE
8
FRONT
10
7.600000
20
0.472500
30
0.0
11
7.700000
21
0.460625
31
0.0
0
LINE
8
FRONT
10
7.700000
20
0.460625
30
0.0
11
7.800000
21
0.448750
31
0.0
0
LINE
8
FRONT
10
7.800000
20
0.448750
30
0.0
11
7.900000
21
0.436875
31
0.0
0
LINE
8
FRONT
10
7.900000
20
0.436875
30
0.0
11
8.000000
21
0.425000
31
0.0
0
LINE
8
FRONT
10
0.000000
20
-0.425000
30
0.0
11
0.100000
21
-0.436875
31
0.0
0
LINE
8
FRONT
10
0.100000
20
-0.436875
30
0.0
11
0.200000
21
-0.448750
31
0.0
0
LINE
8
FRONT
10
0.200000
20
-0.448750
30
0.0
11
0.300000
21
-0.460625
31
0.0
0
LINE
8
FRONT
10
0.300000
20
-0.460625
30
0.0
11
0.400000
21
-0.472500
31
0.0
0
LINE
8
FRONT
10
0.400000
20
-0.472500
30
0.0
11
0.500000
21
-0.484375
31
0.0
0
LINE
8
FRONT
10
0.500000
20
-0.484375
30
0.0
11
0.600000
21
-0.496250
31
0.0
0
LINE
8
FRONT
10
0.600000
20
-0.496250
30
0.0
11
0.700000
21
-0.508125
31
0.0
0
LINE
8
FRONT
10
0.700000
20
-0.508125
30
0.0
11
0.800000
21
-0.520000
31
0.0
0
LINE
8
FRONT
10
0.800000
20
-0.520000
30
0.0
11
0.900000
21
-0.531875
31
0.0
0
LINE
8
FRONT
10
0.900000
20
-0.531875
30
0.0
11
1.000000
21
-0.543750
31
0.0
0
LINE
8
FRONT
10
1.000000
20
-0.543750
30
0.0
11
1.100000
21
-0.555625
31
0.0
0
LINE
8
FRONT
10
1.100000
20
-0.555625
30
0.0
11
1.200000
21
-0.567500
31
0.0
0
LINE
8
FRONT
10
1.200000
20
-0.567500
30
0.0
11
1.300000
21
-0.579375
31
0.0
0
LINE
8
FRONT
10
1.300000
20
-0.579375
30
0.0
11
1.400000
21
-0.591250
31
0.0
0
LINE
8
FRONT
10
1.400000
20
-0.591250
30
0.0
11
1.500000
21
-0.603125
31
0.0
0
LINE
8
FRONT
10
1.500000
20
-0.603125
30
0.0
11
1.600000
21
-0.615000
31
0.0
0
LINE
8
FRONT
10
1.600000
20
-0.615000
30
0.0
11
1.700000
21
-0.626875
31
0.0
0
LINE
8
FRONT
10
1.700000
20
-0.626875
30
0.0
11
1.800000
21
-0.638750
31
0.0
0
LINE
8
FRONT
10
1.800000
20
-0.638750
30
0.0
11
1.900000
21
-0.650625
31
0.0
0
LINE
8
FRONT
10
1.900000
20
-0.650625
30
0.0
11
2.000000
21
-0.662500
31
0.0
0
LINE
8
FRONT
10
2.000000
20
-0.662500
30
0.0
11
2.100000
21
-0.674375
31
0.0
0
LINE
8
FRONT
10
2.100000
20
-0.674375
30
0.0
11
2.200000
21
-0.686250
31
0.0
0
LINE
8
FRONT
10
2.200000
20
-0.686250
30
0.0
11
2.300000
21
-0.698125
31
0.0
0
LINE
8
FRONT
10
2.300000
20
-0.698125
30
0.0
11
2.400000
21
-0.710000
31
0.0
0
LINE
8
FRONT
10
2.400000
20
-0.710000
30
0.0
11
2.500000
21
-0.721875
31
0.0
0
LINE
8
FRONT
10
2.500000
20
-0.721875
30
0.0
11
2.600000
21
-0.733750
31
0.0
0
LINE
8
FRONT
10
2.600000
20
-0.733750
30
0.0
11
2.700000
21
-0.745625
31
0.0
0
LINE
8
FRONT
10
2.700000
20
-0.745625
30
0.0
11
2.800000
21
-0.757500
31
0.0
0
LINE
8
FRONT
10
2.800000
20
-0.757500
30
0.0
11
2.900000
21
-0.769375
31
0.0
0
LINE
8
FRONT
10
2.900000
20
-0.769375
30
0.0
11
3.000000
21
-0.781250
31
0.0
0
LINE
8
FRONT
10
3.000000
20
-0.781250
30
0.0
11
3.100000
21
-0.793125
31
0.0
0
LINE
8
FRONT
10
3.100000
20
-0.793125
30
0.0
11
3.200000
21
-0.805000
31
0.0
0
LINE
8
FRONT
10
3.200000
20
-0.805000
30
0.0
11
3.300000
21
-0.816875
31
0.0
0
LINE
8
FRONT
10
3.300000
20
-0.816875
30
0.0
11
3.400000
21
-0.828750
31
0.0
0
LINE
8
FRONT
10
3.400000
20
-0.828750
30
0.0
11
3.500000
21
-0.840625
31
0.0
0
LINE
8
FRONT
10
3.500000
20
-0.840625
30
0.0
11
3.600000
21
-0.852500
31
0.0
0
LINE
8
FRONT
10
3.600000
20
-0.852500
30
0.0
11
3.700000
21
-0.864375
31
0.0
0
LINE
8
FRONT
10
3.700000
20
-0.864375
30
0.0
11
3.800000
21
-0.876250
31
0.0
0
LINE
8
FRONT
10
3.800000
20
-0.876250
30
0.0
11
3.900000
21
-0.888125
31
0.0
0
LINE
8
FRONT
10
3.900000
20
-0.888125
30
0.0
11
4.000000
21
-0.900000
31
0.0
0
LINE
8
FRONT
10
4.000000
20
-0.900000
30
0.0
11
4.100000
21
-0.888125
31
0.0
0
LINE
8
FRONT
10
4.100000
20
-0.888125
30
0.0
11
4.200000
21
-0.876250
31
0.0
0
LINE
8
FRONT
10
4.200000
20
-0.876250
30
0.0
11
4.300000
21
-0.864375
31
0.0
0
LINE
8
FRONT
10
4.300000
20
-0.864375
30
0.0
11
4.400000
21
-0.852500
31
0.0
0
LINE
8
FRONT
10
4.400000
20
-0.852500
30
0.0
11
4.500000
21
-0.840625
31
0.0
0
LINE
8
FRONT
10
4.500000
20
-0.840625
30
0.0
11
4.600000
21
-0.828750
31
0.0
0
LINE
8
FRONT
10
4.600000
20
-0.828750
30
0.0
11
4.700000
21
-0.816875
31
0.0
0
LINE
8
FRONT
10
4.700000
20
-0.816875
30
0.0
11
4.800000
21
-0.805000
31
0.0
0
LINE
8
FRONT
10
4.800000
20
-0.805000
30
0.0
11
4.900000
21
-0.793125
31
0.0
0
LINE
8
FRONT
10
4.900000
20
-0.793125
30
0.0
11
5.000000
21
-0.781250
31
0.0
0
LINE
8
FRONT
10
5.000000
20
-0.781250
30
0.0
11
5.100000
21
-0.769375
31
0.0
0
LINE
8
FRONT
10
5.100000
20
-0.769375
30
0.0
11
5.200000
21
-0.757500
31
0.0
0
LINE
8
FRONT
10
5.200000
20
-0.757500
30
0.0
11
5.300000
21
-0.745625
31
0.0
0
LINE
8
FRONT
10
5.300000
20
-0.745625
30
0.0
11
5.400000
21
-0.733750
31
0.0
0
LINE
8
FRONT
10
5.400000
20
-0.733750
30
0.0
11
5.500000
21
-0.721875
31
0.0
0
LINE
8
FRONT
10
5.500000
20
-0.721875
30
0.0
11
5.600000
21
-0.710000
31
0.0
0
LINE
8
FRONT
10
5.600000
20
-0.710000
30
0.0
11
5.700000
21
-0.698125
31
0.0
0
LINE
8
FRONT
10
5.700000
20
-0.698125
30
0.0
11
5.800000
21
-0.686250
31
0.0
0
LINE
8
FRONT
10
5.800000
20
-0.686250
30
0.0
11
5.900000
21
-0.674375
31
0.0
0
LINE
8
FRONT
10
5.900000
20
-0.674375
30
0.0
11
6.000000
21
-0.662500
31
0.0
0
LINE
8
FRONT
10
6.000000
20
-0.662500
30
0.0
11
6.100000
21
-0.650625
31
0.0
0
LINE
8
FRONT
10
6.100000
20
-0.650625
30
0.0
11
6.200000
21
-0.638750
31
0.0
0
LINE
8
FRONT
10
6.200000
20
-0.638750
30
0.0
11
6.300000
21
-0.626875
31
0.0
0
LINE
8
FRONT
10
6.300000
20
-0.626875
30
0.0
11
6.400000
21
-0.615000
31
0.0
0
LINE
8
FRONT
10
6.400000
20
-0.615000
30
0.0
11
6.500000
21
-0.603125
31
0.0
0
LINE
8
FRONT
10
6.500000
20
-0.603125
30
0.0
11
6.600000
21
-0.591250
31
0.0
0
LINE
8
FRONT
10
6.600000
20
-0.591250
30
0.0
11
6.700000
21
-0.579375
31
0.0
0
LINE
8
FRONT
10
6.700000
20
-0.579375
30
0.0
11
6.800000
21
-0.567500
31
0.0
0
LINE
8
FRONT
10
6.800000
20
-0.567500
30
0.0
11
6.900000
21
-0.555625
31
0.0
0
LINE
8
FRONT
10
6.900000
20
-0.555625
30
0.0
11
7.000000
21
-0.543750
31
0.0
0
LINE
8
FRONT
10
7.000000
20
-0.543750
30
0.0
11
7.100000
21
-0.531875
31
0.0
0
LINE
8
FRONT
10
7.100000
20
-0.531875
30
0.0
11
7.200000
21
-0.520000
31
0.0
0
LINE
8
FRONT
10
7.200000
20
-0.520000
30
0.0
11
7.300000
21
-0.508125
31
0.0
0
LINE
8
FRONT
10
7.300000
20
-0.508125
30
0.0
11
7.400000
21
-0.496250
31
0.0
0
LINE
8
FRONT
10
7.400000
20
-0.496250
30
0.0
11
7.500000
21
-0.484375
31
0.0
0
LINE
8
FRONT
10
7.500000
20
-0.484375
30
0.0
11
7.600000
21
-0.472500
31
0.0
0
LINE
8
FRONT
10
7.600000
20
-0.472500
30
0.0
11
7.700000
21
-0.460625
31
0.0
0
LINE
8
FRONT
10
7.700000
20
-0.460625
30
0.0
11
7.800000
21
-0.448750
31
0.0
0
LINE
8
FRONT
10
7.800000
20
-0.448750
30
0.0
11
7.900000
21
-0.436875
31
0.0
0
LINE
8
FRONT
10
7.900000
20
-0.436875
30
0.0
11
8.000000
21
-0.425000
31
0.0
0
LINE
8
FRONT
10
0.000000
20
0.425000
30
0.0
11
0.000000
21
-0.425000
31
0.0
0
LINE
8
FRONT
10
8.000000
20
0.425000
30
0.0
11
8.000000
21
-0.425000
31
0.0
0
LINE
8
TOP
10
0.000000
20
4.000000
30
0.0
11
0.100000
21
4.000000
31
0.0
0
LINE
8
TOP
10
0.100000
20
4.000000
30
0.0
11
0.200000
21
4.000000
31
0.0
0
LINE
8
TOP
10
0.200000
20
4.000000
30
0.0
11
0.300000
21
4.000000
31
0.0
0
LINE
8
TOP
10
0.300000
20
4.000000
30
0.0
11
0.400000
21
4.000000
31
0.0
0
LINE
8
TOP
10
0.400000
20
4.000000
30
0.0
11
0.500000
21
4.000000
31
0.0
0
LINE
8
TOP
10
0.500000
20
4.000000
30
0.0
11
0.600000
21
4.000000
31
0.0
0
LINE
8
TOP
10
0.600000
20
4.000000
30
0.0
11
0.700000
21
4.000000
31
0.0
0
LINE
8
TOP
10
0.700000
20
4.000000
30
0.0
11
0.800000
21
4.000000
31
0.0
0
LINE
8
TOP
10
0.800000
20
4.000000
30
0.0
11
0.900000
21
4.000000
31
0.0
0
LINE
8
TOP
10
0.900000
20
4.000000
30
0.0
11
1.000000
21
4.000000
31
0.0
0
LINE
8
TOP
10
1.000000
20
4.000000
30
0.0
11
1.100000
21
4.000000
31
0.0
0
LINE
8
TOP
10
1.100000
20
4.000000
30
0.0
11
1.200000
21
4.000000
31
0.0
0
LINE
8
TOP
10
1.200000
20
4.000000
30
0.0
11
1.300000
21
4.000000
31
0.0
0
LINE
8
TOP
10
1.300000
20
4.000000
30
0.0
11
1.400000
21
4.000000
31
0.0
0
LINE
8
TOP
10
1.400000
20
4.000000
30
0.0
11
1.500000
21
4.000000
31
0.0
0
LINE
8
TOP
10
1.500000
20
4.000000
30
0.0
11
1.600000
21
4.000000
31
0.0
0
LINE
8
TOP
10
1.600000
20
4.000000
30
0.0
11
1.700000
21
4.000000
31
0.0
0
LINE
8
TOP
10
1.700000
20
4.000000
30
0.0
11
1.800000
21
4.000000
31
0.0
0
LINE
8
TOP
10
1.800000
20
4.000000
30
0.0
11
1.900000
21
4.000000
31
0.0
0
LINE
8
TOP
10
1.900000
20
4.000000
30
0.0
11
2.000000
21
4.000000
31
0.0
0
LINE
8
TOP
10
2.000000
20
4.000000
30
0.0
11
2.100000
21
4.000000
31
0.0
0
LINE
8
TOP
10
2.100000
20
4.000000
30
0.0
11
2.200000
21
4.000000
31
0.0
0
LINE
8
TOP
10
2.200000
20
4.000000
30
0.0
11
2.300000
21
4.000000
31
0.0
0
LINE
8
TOP
10
2.300000
20
4.000000
30
0.0
11
2.400000
21
4.000000
31
0.0
0
LINE
8
TOP
10
2.400000
20
4.000000
30
0.0
11
2.500000
21
4.000000
31
0.0
0
LINE
8
TOP
10
2.500000
20
4.000000
30
0.0
11
2.600000
21
4.000000
31
0.0
0
LINE
8
TOP
10
2.600000
20
4.000000
30
0.0
11
2.700000
21
4.000000
31
0.0
0
LINE
8
TOP
10
2.700000
20
4.000000
30
0.0
11
2.800000
21
4.000000
31
0.0
0
LINE
8
TOP
10
2.800000
20
4.000000
30
0.0
11
2.900000
21
4.000000
31
0.0
0
LINE
8
TOP
10
2.900000
20
4.000000
30
0.0
11
3.000000
21
4.000000
31
0.0
0
LINE
8
TOP
10
3.000000
20
4.000000
30
0.0
11
3.100000
21
4.000000
31
0.0
0
LINE
8
TOP
10
3.100000
20
4.000000
30
0.0
11
3.200000
21
4.000000
31
0.0
0
LINE
8
TOP
10
3.200000
20
4.000000
30
0.0
11
3.300000
21
4.000000
31
0.0
0
LINE
8
TOP
10
3.300000
20
4.000000
30
0.0
11
3.400000
21
4.000000
31
0.0
0
LINE
8
TOP
10
3.400000
20
4.000000
30
0.0
11
3.500000
21
4.000000
31
0.0
0
LINE
8
TOP
10
3.500000
20
4.000000
30
0.0
11
3.600000
21
4.000000
31
0.0
0
LINE
8
TOP
10
3.600000
20
4.000000
30
0.0
11
3.700000
21
4.000000
31
0.0
0
LINE
8
TOP
10
3.700000
20
4.000000
30
0.0
11
3.800000
21
4.000000
31
0.0
0
LINE
8
TOP
10
3.800000
20
4.000000
30
0.0
11
3.900000
21
4.000000
31
0.0
0
LINE
8
TOP
10
3.900000
20
4.000000
30
0.0
11
4.000000
21
4.000000
31
0.0
0
LINE
8
TOP
10
4.000000
20
4.000000
30
0.0
11
4.100000
21
4.000000
31
0.0
0
LINE
8
TOP
10
4.100000
20
4.000000
30
0.0
11
4.200000
21
4.000000
31
0.0
0
LINE
8
TOP
10
4.200000
20
4.000000
30
0.0
11
4.300000
21
4.000000
31
0.0
0
LINE
8
TOP
10
4.300000
20
4.000000
30
0.0
11
4.400000
21
4.000000
31
0.0
0
LINE
8
TOP
10
4.400000
20
4.000000
30
0.0
11
4.500000
21
4.000000
31
0.0
0
LINE
8
TOP
10
4.500000
20
4.000000
30
0.0
11
4.600000
21
4.000000
31
0.0
0
LINE
8
TOP
10
4.600000
20
4.000000
30
0.0
11
4.700000
21
4.000000
31
0.0
0
LINE
8
TOP
10
4.700000
20
4.000000
30
0.0
11
4.800000
21
4.000000
31
0.0
0
LINE
8
TOP
10
4.800000
20
4.000000
30
0.0
11
4.900000
21
4.000000
31
0.0
0
LINE
8
TOP
10
4.900000
20
4.000000
30
0.0
11
5.000000
21
4.000000
31
0.0
0
LINE
8
TOP
10
5.000000
20
4.000000
30
0.0
11
5.100000
21
4.000000
31
0.0
0
LINE
8
TOP
10
5.100000
20
4.000000
30
0.0
11
5.200000
21
4.000000
31
0.0
0
LINE
8
TOP
10
5.200000
20
4.000000
30
0.0
11
5.300000
21
4.000000
31
0.0
0
LINE
8
TOP
10
5.300000
20
4.000000
30
0.0
11
5.400000
21
4.000000
31
0.0
0
LINE
8
TOP
10
5.400000
20
4.000000
30
0.0
11
5.500000
21
4.000000
31
0.0
0
LINE
8
TOP
10
5.500000
20
4.000000
30
0.0
11
5.600000
21
4.000000
31
0.0
0
LINE
8
TOP
10
5.600000
20
4.000000
30
0.0
11
5.700000
21
4.000000
31
0.0
0
LINE
8
TOP
10
5.700000
20
4.000000
30
0.0
11
5.800000
21
4.000000
31
0.0
0
LINE
8
TOP
10
5.800000
20
4.000000
30
0.0
11
5.900000
21
4.000000
31
0.0
0
LINE
8
TOP
10
5.900000
20
4.000000
30
0.0
11
6.000000
21
4.000000
31
0.0
0
LINE
8
TOP
10
6.000000
20
4.000000
30
0.0
11
6.100000
21
4.000000
31
0.0
0
LINE
8
TOP
10
6.100000
20
4.000000
30
0.0
11
6.200000
21
4.000000
31
0.0
0
LINE
8
TOP
10
6.200000
20
4.000000
30
0.0
11
6.300000
21
4.000000
31
0.0
0
LINE
8
TOP
10
6.300000
20
4.000000
30
0.0
11
6.400000
21
4.000000
31
0.0
0
LINE
8
TOP
10
6.400000
20
4.000000
30
0.0
11
6.500000
21
4.000000
31
0.0
0
LINE
8
TOP
10
6.500000
20
4.000000
30
0.0
11
6.600000
21
4.000000
31
0.0
0
LINE
8
TOP
10
6.600000
20
4.000000
30
0.0
11
6.700000
21
4.000000
31
0.0
0
LINE
8
TOP
10
6.700000
20
4.000000
30
0.0
11
6.800000
21
4.000000
31
0.0
0
LINE
8
TOP
10
6.800000
20
4.000000
30
0.0
11
6.900000
21
4.000000
31
0.0
0
LINE
8
TOP
10
6.900000
20
4.000000
30
0.0
11
7.000000
21
4.000000
31
0.0
0
LINE
8
TOP
10
7.000000
20
4.000000
30
0.0
11
7.100000
21
4.000000
31
0.0
0
LINE
8
TOP
10
7.100000
20
4.000000
30
0.0
11
7.200000
21
4.000000
31
0.0
0
LINE
8
TOP
10
7.200000
20
4.000000
30
0.0
11
7.300000
21
4.000000
31
0.0
0
LINE
8
TOP
10
7.300000
20
4.000000
30
0.0
11
7.400000
21
4.000000
31
0.0
0
LINE
8
TOP
10
7.400000
20
4.000000
30
0.0
11
7.500000
21
4.000000
31
0.0
0
LINE
8
TOP
10
7.500000
20
4.000000
30
0.0
11
7.600000
21
4.000000
31
0.0
0
LINE
8
TOP
10
7.600000
20
4.000000
30
0.0
11
7.700000
21
4.000000
31
0.0
0
LINE
8
TOP
10
7.700000
20
4.000000
30
0.0
11
7.800000
21
4.000000
31
0.0
0
LINE
8
TOP
10
7.800000
20
4.000000
30
0.0
11
7.900000
21
4.000000
31
0.0
0
LINE
8
TOP
10
7.900000
20
4.000000
30
0.0
11
8.000000
21
4.000000
31
0.0
0
LINE
8
TOP
10
0.000000
20
2.900000
30
0.0
11
0.100000
21
2.900000
31
0.0
0
LINE
8
TOP
10
0.100000
20
2.900000
30
0.0
11
0.200000
21
2.900000
31
0.0
0
LINE
8
TOP
10
0.200000
20
2.900000
30
0.0
11
0.300000
21
2.900000
31
0.0
0
LINE
8
TOP
10
0.300000
20
2.900000
30
0.0
11
0.400000
21
2.900000
31
0.0
0
LINE
8
TOP
10
0.400000
20
2.900000
30
0.0
11
0.500000
21
2.900000
31
0.0
0
LINE
8
TOP
10
0.500000
20
2.900000
30
0.0
11
0.600000
21
2.900000
31
0.0
0
LINE
8
TOP
10
0.600000
20
2.900000
30
0.0
11
0.700000
21
2.900000
31
0.0
0
LINE
8
TOP
10
0.700000
20
2.900000
30
0.0
11
0.800000
21
2.900000
31
0.0
0
LINE
8
TOP
10
0.800000
20
2.900000
30
0.0
11
0.900000
21
2.900000
31
0.0
0
LINE
8
TOP
10
0.900000
20
2.900000
30
0.0
11
1.000000
21
2.900000
31
0.0
0
LINE
8
TOP
10
1.000000
20
2.900000
30
0.0
11
1.100000
21
2.900000
31
0.0
0
LINE
8
TOP
10
1.100000
20
2.900000
30
0.0
11
1.200000
21
2.900000
31
0.0
0
LINE
8
TOP
10
1.200000
20
2.900000
30
0.0
11
1.300000
21
2.900000
31
0.0
0
LINE
8
TOP
10
1.300000
20
2.900000
30
0.0
11
1.400000
21
2.900000
31
0.0
0
LINE
8
TOP
10
1.400000
20
2.900000
30
0.0
11
1.500000
21
2.900000
31
0.0
0
LINE
8
TOP
10
1.500000
20
2.900000
30
0.0
11
1.600000
21
2.900000
31
0.0
0
LINE
8
TOP
10
1.600000
20
2.900000
30
0.0
11
1.700000
21
2.900000
31
0.0
0
LINE
8
TOP
10
1.700000
20
2.900000
30
0.0
11
1.800000
21
2.900000
31
0.0
0
LINE
8
TOP
10
1.800000
20
2.900000
30
0.0
11
1.900000
21
2.900000
31
0.0
0
LINE
8
TOP
10
1.900000
20
2.900000
30
0.0
11
2.000000
21
2.900000
31
0.0
0
LINE
8
TOP
10
2.000000
20
2.900000
30
0.0
11
2.100000
21
2.900000
31
0.0
0
LINE
8
TOP
10
2.100000
20
2.900000
30
0.0
11
2.200000
21
2.900000
31
0.0
0
LINE
8
TOP
10
2.200000
20
2.900000
30
0.0
11
2.300000
21
2.900000
31
0.0
0
LINE
8
TOP
10
2.300000
20
2.900000
30
0.0
11
2.400000
21
2.900000
31
0.0
0
LINE
8
TOP
10
2.400000
20
2.900000
30
0.0
11
2.500000
21
2.900000
31
0.0
0
LINE
8
TOP
10
2.500000
20
2.900000
30
0.0
11
2.600000
21
2.900000
31
0.0
0
LINE
8
TOP
10
2.600000
20
2.900000
30
0.0
11
2.700000
21
2.900000
31
0.0
0
LINE
8
TOP
10
2.700000
20
2.900000
30
0.0
11
2.800000
21
2.900000
31
0.0
0
LINE
8
TOP
10
2.800000
20
2.900000
30
0.0
11
2.900000
21
2.900000
31
0.0
0
LINE
8
TOP
10
2.900000
20
2.900000
30
0.0
11
3.000000
21
2.900000
31
0.0
0
LINE
8
TOP
10
3.000000
20
2.900000
30
0.0
11
3.100000
21
2.900000
31
0.0
0
LINE
8
TOP
10
3.100000
20
2.900000
30
0.0
11
3.200000
21
2.900000
31
0.0
0
LINE
8
TOP
10
3.200000
20
2.900000
30
0.0
11
3.300000
21
2.900000
31
0.0
0
LINE
8
TOP
10
3.300000
20
2.900000
30
0.0
11
3.400000
21
2.900000
31
0.0
0
LINE
8
TOP
10
3.400000
20
2.900000
30
0.0
11
3.500000
21
2.900000
31
0.0
0
LINE
8
TOP
10
3.500000
20
2.900000
30
0.0
11
3.600000
21
2.900000
31
0.0
0
LINE
8
TOP
10
3.600000
20
2.900000
30
0.0
11
3.700000
21
2.900000
31
0.0
0
LINE
8
TOP
10
3.700000
20
2.900000
30
0.0
11
3.800000
21
2.900000
31
0.0
0
LINE
8
TOP
10
3.800000
20
2.900000
30
0.0
11
3.900000
21
2.900000
31
0.0
0
LINE
8
TOP
10
3.900000
20
2.900000
30
0.0
11
4.000000
21
2.900000
31
0.0
0
LINE
8
TOP
10
4.000000
20
2.900000
30
0.0
11
4.100000
21
2.900000
31
0.0
0
LINE
8
TOP
10
4.100000
20
2.900000
30
0.0
11
4.200000
21
2.900000
31
0.0
0
LINE
8
TOP
10
4.200000
20
2.900000
30
0.0
11
4.300000
21
2.900000
31
0.0
0
LINE
8
TOP
10
4.300000
20
2.900000
30
0.0
11
4.400000
21
2.900000
31
0.0
0
LINE
8
TOP
10
4.400000
20
2.900000
30
0.0
11
4.500000
21
2.900000
31
0.0
0
LINE
8
TOP
10
4.500000
20
2.900000
30
0.0
11
4.600000
21
2.900000
31
0.0
0
LINE
8
TOP
10
4.600000
20
2.900000
30
0.0
11
4.700000
21
2.900000
31
0.0
0
LINE
8
TOP
10
4.700000
20
2.900000
30
0.0
11
4.800000
21
2.900000
31
0.0
0
LINE
8
TOP
10
4.800000
20
2.900000
30
0.0
11
4.900000
21
2.900000
31
0.0
0
LINE
8
TOP
10
4.900000
20
2.900000
30
0.0
11
5.000000
21
2.900000
31
0.0
0
LINE
8
TOP
10
5.000000
20
2.900000
30
0.0
11
5.100000
21
2.900000
31
0.0
0
LINE
8
TOP
10
5.100000
20
2.900000
30
0.0
11
5.200000
21
2.900000
31
0.0
0
LINE
8
TOP
10
5.200000
20
2.900000
30
0.0
11
5.300000
21
2.900000
31
0.0
0
LINE
8
TOP
10
5.300000
20
2.900000
30
0.0
11
5.400000
21
2.900000
31
0.0
0
LINE
8
TOP
10
5.400000
20
2.900000
30
0.0
11
5.500000
21
2.900000
31
0.0
0
LINE
8
TOP
10
5.500000
20
2.900000
30
0.0
11
5.600000
21
2.900000
31
0.0
0
LINE
8
TOP
10
5.600000
20
2.900000
30
0.0
11
5.700000
21
2.900000
31
0.0
0
LINE
8
TOP
10
5.700000
20
2.900000
30
0.0
11
5.800000
21
2.900000
31
0.0
0
LINE
8
TOP
10
5.800000
20
2.900000
30
0.0
11
5.900000
21
2.900000
31
0.0
0
LINE
8
TOP
10
5.900000
20
2.900000
30
0.0
11
6.000000
21
2.900000
31
0.0
0
LINE
8
TOP
10
6.000000
20
2.900000
30
0.0
11
6.100000
21
2.900000
31
0.0
0
LINE
8
TOP
10
6.100000
20
2.900000
30
0.0
11
6.200000
21
2.900000
31
0.0
0
LINE
8
TOP
10
6.200000
20
2.900000
30
0.0
11
6.300000
21
2.900000
31
0.0
0
LINE
8
TOP
10
6.300000
20
2.900000
30
0.0
11
6.400000
21
2.900000
31
0.0
0
LINE
8
TOP
10
6.400000
20
2.900000
30
0.0
11
6.500000
21
2.900000
31
0.0
0
LINE
8
TOP
10
6.500000
20
2.900000
30
0.0
11
6.600000
21
2.900000
31
0.0
0
LINE
8
TOP
10
6.600000
20
2.900000
30
0.0
11
6.700000
21
2.900000
31
0.0
0
LINE
8
TOP
10
6.700000
20
2.900000
30
0.0
11
6.800000
21
2.900000
31
0.0
0
LINE
8
TOP
10
6.800000
20
2.900000
30
0.0
11
6.900000
21
2.900000
31
0.0
0
LINE
8
TOP
10
6.900000
20
2.900000
30
0.0
11
7.000000
21
2.900000
31
0.0
0
LINE
8
TOP
10
7.000000
20
2.900000
30
0.0
11
7.100000
21
2.900000
31
0.0
0
LINE
8
TOP
10
7.100000
20
2.900000
30
0.0
11
7.200000
21
2.900000
31
0.0
0
LINE
8
TOP
10
7.200000
20
2.900000
30
0.0
11
7.300000
21
2.900000
31
0.0
0
LINE
8
TOP
10
7.300000
20
2.900000
30
0.0
11
7.400000
21
2.900000
31
0.0
0
LINE
8
TOP
10
7.400000
20
2.900000
30
0.0
11
7.500000
21
2.900000
31
0.0
0
LINE
8
TOP
10
7.500000
20
2.900000
30
0.0
11
7.600000
21
2.900000
31
0.0
0
LINE
8
TOP
10
7.600000
20
2.900000
30
0.0
11
7.700000
21
2.900000
31
0.0
0
LINE
8
TOP
10
7.700000
20
2.900000
30
0.0
11
7.800000
21
2.900000
31
0.0
0
LINE
8
TOP
10
7.800000
20
2.900000
30
0.0
11
7.900000
21
2.900000
31
0.0
0
LINE
8
TOP
10
7.900000
20
2.900000
30
0.0
11
8.000000
21
2.900000
31
0.0
0
LINE
8
TOP
10
0.000000
20
4.000000
30
0.0
11
0.000000
21
2.900000
31
0.0
0
LINE
8
TOP
10
8.000000
20
4.000000
30
0.0
11
8.000000
21
2.900000
31
0.0
0
LINE
8
SECTION
10
8.950000
20
-0.900000
30
0.0
11
10.050000
21
-0.900000
31
0.0
0
LINE
8
SECTION
10
10.050000
20
-0.900000
30
0.0
11
10.050000
21
0.900000
31
0.0
0
LINE
8
SECTION
10
10.050000
20
0.900000
30
0.0
11
8.950000
21
0.900000
31
0.0
0
LINE
8
SECTION
10
8.950000
20
0.900000
30
0.0
11
8.950000
21
-0.900000
31
0.0
0
LINE
8
SECTION
10
9.070000
20
-0.780000
30
0.0
11
9.930000
21
-0.780000
31
0.0
0
LINE
8
SECTION
10
9.930000
20
-0.780000
30
0.0
11
9.930000
21
0.780000
31
0.0
0
LINE
8
SECTION
10
9.930000
20
0.780000
30
0.0
11
9.070000
21
0.780000
31
0.0
0
LINE
8
SECTION
10
9.070000
20
0.780000
30
0.0
11
9.070000
21
-0.780000
31
0.0
0
LINE
8
SECTION
10
9.070000
20
0.156000
30
0.0
11
9.190000
21
0.156000
31
0.0
0
LINE
8
SECTION
10
9.190000
20
0.156000
30
0.0
11
9.190000
21
0.780000
31
0.0
0
LINE
8
SECTION
10
9.190000
20
0.780000
30
0.0
11
9.070000
21
0.780000
31
0.0
0
LINE
8
SECTION
10
9.070000
20
0.780000
30
0.0
11
9.070000
21
0.156000
31
0.0
0
LINE
8
SECTION
10
9.070000
20
-0.780000
30
0.0
11
9.190000
21
-0.780000
31
0.0
0
LINE
8
SECTION
10
9.190000
20
-0.780000
30
0.0
11
9.190000
21
-0.156000
31
0.0
0
LINE
8
SECTION
10
9.190000
20
-0.156000
30
0.0
11
9.070000
21
-0.156000
31
0.0
0
LINE
8
SECTION
10
9.070000
20
-0.156000
30
0.0
11
9.070000
21
-0.780000
31
0.0
0
LINE
8
SECTION
10
9.810000
20
0.156000
30
0.0
11
9.930000
21
0.156000
31
0.0
0
LINE
8
SECTION
10
9.930000
20
0.156000
30
0.0
11
9.930000
21
0.780000
31
0.0
0
LINE
8
SECTION
10
9.930000
20
0.780000
30
0.0
11
9.810000
21
0.780000
31
0.0
0
LINE
8
SECTION
10
9.810000
20
0.780000
30
0.0
11
9.810000
21
0.156000
31
0.0
0
LINE
8
SECTION
10
9.810000
20
-0.780000
30
0.0
11
9.930000
21
-0.780000
31
0.0
0
LINE
8
SECTION
10
9.930000
20
-0.780000
30
0.0
11
9.930000
21
-0.156000
31
0.0
0
LINE
8
SECTION
10
9.930000
20
-0.156000
30
0.0
11
9.810000
21
-0.156000
31
0.0
0
LINE
8
SECTION
10
9.810000
20
-0.156000
30
0.0
11
9.810000
21
-0.780000
31
0.0
0
ENDSEC
0
EOF
