0
SECTION
2
HEADER
9
$INSUNITS
70
1
0
ENDSEC
0
SECTION
2
ENTITIES
0
LINE
8
FRONT
10
0.000000
20
0.147483
30
0.0
11
0.112500
21
0.150023
31
0.0
0
LINE
8
FRONT
10
0.112500
20
0.150023
30
0.0
11
0.225000
21
0.152563
31
0.0
0
LINE
8
FRONT
10
0.225000
20
0.152563
30
0.0
11
0.337500
21
0.155103
31
0.0
0
LINE
8
FRONT
10
0.337500
20
0.155103
30
0.0
11
0.450000
21
0.157643
31
0.0
0
LINE
8
FRONT
10
0.450000
20
0.157643
30
0.0
11
0.500000
21
0.158772
31
0.0
0
LINE
8
FRONT
10
0.500000
20
0.158772
30
0.0
11
0.562500
21
0.160183
31
0.0
0
LINE
8
FRONT
10
0.562500
20
0.160183
30
0.0
11
0.675000
21
0.162723
31
0.0
0
LINE
8
FRONT
10
0.675000
20
0.162723
30
0.0
11
0.787500
21
0.165264
31
0.0
0
LINE
8
FRONT
10
0.787500
20
0.165264
30
0.0
11
0.900000
21
0.167804
31
0.0
0
LINE
8
FRONT
10
0.900000
20
0.167804
30
0.0
11
1.012500
21
0.170344
31
0.0
0
LINE
8
FRONT
10
1.012500
20
0.170344
30
0.0
11
1.125000
21
0.172884
31
0.0
0
LINE
8
FRONT
10
1.125000
20
0.172884
30
0.0
11
1.237500
21
0.175424
31
0.0
0
LINE
8
FRONT
10
1.237500
20
0.175424
30
0.0
11
1.350000
21
0.177964
31
0.0
0
LINE
8
FRONT
10
1.350000
20
0.177964
30
0.0
11
1.462500
21
0.180504
31
0.0
0
LINE
8
FRONT
10
1.462500
20
0.180504
30
0.0
11
1.575000
21
0.183044
31
0.0
0
LINE
8
FRONT
10
1.575000
20
0.183044
30
0.0
11
1.687500
21
0.185584
31
0.0
0
LINE
8
FRONT
10
1.687500
20
0.185584
30
0.0
11
1.800000
21
0.188124
31
0.0
0
LINE
8
FRONT
10
1.800000
20
0.188124
30
0.0
11
1.912500
21
0.190664
31
0.0
0
LINE
8
FRONT
10
1.912500
20
0.190664
30
0.0
11
2.025000
21
0.193204
31
0.0
0
LINE
8
FRONT
10
2.025000
20
0.193204
30
0.0
11
2.137500
21
0.195744
31
0.0
0
LINE
8
FRONT
10
2.137500
20
0.195744
30
0.0
11
2.250000
21
0.198285
31
0.0
0
LINE
8
FRONT
10
2.250000
20
0.198285
30
0.0
11
2.362500
21
0.200825
31
0.0
0
LINE
8
FRONT
10
2.362500
20
0.200825
30
0.0
11
2.475000
21
0.203365
31
0.0
0
LINE
8
FRONT
10
2.475000
20
0.203365
30
0.0
11
2.587500
21
0.205905
31
0.0
0
LINE
8
FRONT
10
2.587500
20
0.205905
30
0.0
11
2.700000
21
0.208445
31
0.0
0
LINE
8
FRONT
10
2.700000
20
0.208445
30
0.0
11
2.812500
21
0.210985
31
0.0
0
LINE
8
FRONT
10
2.812500
20
0.210985
30
0.0
11
2.925000
21
0.213525
31
0.0
0
LINE
8
FRONT
10
2.925000
20
0.213525
30
0.0
11
3.037500
21
0.216065
31
0.0
0
LINE
8
FRONT
10
3.037500
20
0.216065
30
0.0
11
3.150000
21
0.218605
31
0.0
0
LINE
8
FRONT
10
3.150000
20
0.218605
30
0.0
11
3.262500
21
0.221145
31
0.0
0
LINE
8
FRONT
10
3.262500
20
0.221145
30
0.0
11
3.375000
21
0.223685
31
0.0
0
LINE
8
FRONT
10
3.375000
20
0.223685
30
0.0
11
3.487500
21
0.226225
31
0.0
0
LINE
8
FRONT
10
3.487500
20
0.226225
30
0.0
11
3.600000
21
0.228765
31
0.0
0
LINE
8
FRONT
10
3.600000
20
0.228765
30
0.0
11
3.712500
21
0.231306
31
0.0
0
LINE
8
FRONT
10
3.712500
20
0.231306
30
0.0
11
3.825000
21
0.233846
31
0.0
0
LINE
8
FRONT
10
3.825000
20
0.233846
30
0.0
11
3.937500
21
0.236386
31
0.0
0
LINE
8
FRONT
10
3.937500
20
0.236386
30
0.0
11
4.050000
21
0.238926
31
0.0
0
LINE
8
FRONT
10
4.050000
20
0.238926
30
0.0
11
4.162500
21
0.241466
31
0.0
0
LINE
8
FRONT
10
4.162500
20
0.241466
30
0.0
11
4.275000
21
0.244006
31
0.0
0
LINE
8
FRONT
10
4.275000
20
0.244006
30
0.0
11
4.387500
21
0.246546
31
0.0
0
LINE
8
FRONT
10
4.387500
20
0.246546
30
0.0
11
4.500000
21
0.249086
31
0.0
0
LINE
8
FRONT
10
4.500000
20
0.249086
30
0.0
11
4.612500
21
0.246546
31
0.0
0
LINE
8
FRONT
10
4.612500
20
0.246546
30
0.0
11
4.725000
21
0.244006
31
0.0
0
LINE
8
FRONT
10
4.725000
20
0.244006
30
0.0
11
4.837500
21
0.241466
31
0.0
0
LINE
8
FRONT
10
4.837500
20
0.241466
30
0.0
11
4.950000
21
0.238926
31
0.0
0
LINE
8
FRONT
10
4.950000
20
0.238926
30
0.0
11
5.062500
21
0.236386
31
0.0
0
LINE
8
FRONT
10
5.062500
20
0.236386
30
0.0
11
5.175000
21
0.233846
31
0.0
0
LINE
8
FRONT
10
5.175000
20
0.233846
30
0.0
11
5.287500
21
0.231306
31
0.0
0
LINE
8
FRONT
10
5.287500
20
0.231306
30
0.0
11
5.400000
21
0.228765
31
0.0
0
LINE
8
FRONT
10
5.400000
20
0.228765
30
0.0
11
5.512500
21
0.226225
31
0.0
0
LINE
8
FRONT
10
5.512500
20
0.226225
30
0.0
11
5.625000
21
0.223685
31
0.0
0
LINE
8
FRONT
10
5.625000
20
0.223685
30
0.0
11
5.737500
21
0.221145
31
0.0
0
LINE
8
FRONT
10
5.737500
20
0.221145
30
0.0
11
5.850000
21
0.218605
31
0.0
0
LINE
8
FRONT
10
5.850000
20
0.218605
30
0.0
11
5.962500
21
0.216065
31
0.0
0
LINE
8
FRONT
10
5.962500
20
0.216065
30
0.0
11
6.075000
21
0.213525
31
0.0
0
LINE
8
FRONT
10
6.075000
20
0.213525
30
0.0
11
6.187500
21
0.210985
31
0.0
0
LINE
8
FRONT
10
6.187500
20
0.210985
30
0.0
11
6.300000
21
0.208445
31
0.0
0
LINE
8
FRONT
10
6.300000
20
0.208445
30
0.0
11
6.412500
21
0.205905
31
0.0
0
LINE
8
FRONT
10
6.412500
20
0.205905
30
0.0
11
6.525000
21
0.203365
31
0.0
0
LINE
8
FRONT
10
6.525000
20
0.203365
30
0.0
11
6.637500
21
0.200825
31
0.0
0
LINE
8
FRONT
10
6.637500
20
0.200825
30
0.0
11
6.750000
21
0.198285
31
0.0
0
LINE
8
FRONT
10
6.750000
20
0.198285
30
0.0
11
6.862500
21
0.195744
31
0.0
0
LINE
8
FRONT
10
6.862500
20
0.195744
30
0.0
11
6.975000
21
0.193204
31
0.0
0
LINE
8
FRONT
10
6.975000
20
0.193204
30
0.0
11
7.087500
21
0.190664
31
0.0
0
LINE
8
FRONT
10
7.087500
20
0.190664
30
0.0
11
7.200000
21
0.188124
31
0.0
0
LINE
8
FRONT
10
7.200000
20
0.188124
30
0.0
11
7.312500
21
0.185584
31
0.0
0
LINE
8
FRONT
10
7.312500
20
0.185584
30
0.0
11
7.425000
21
0.183044
31
0.0
0
LINE
8
FRONT
10
7.425000
20
0.183044
30
0.0
11
7.537500
21
0.180504
31
0.0
0
LINE
8
FRONT
10
7.537500
20
0.180504
30
0.0
11
7.650000
21
0.177964
31
0.0
0
LINE
8
FRONT
10
7.650000
20
0.177964
30
0.0
11
7.762500
21
0.175424
31
0.0
0
LINE
8
FRONT
10
7.762500
20
0.175424
30
0.0
11
7.875000
21
0.172884
31
0.0
0
LINE
8
FRONT
10
7.875000
20
0.172884
30
0.0
11
7.987500
21
0.170344
31
0.0
0
LINE
8
FRONT
10
7.987500
20
0.170344
30
0.0
11
8.100000
21
0.167804
31
0.0
0
LINE
8
FRONT
10
8.100000
20
0.167804
30
0.0
11
8.212500
21
0.165264
31
0.0
0
LINE
8
FRONT
10
8.212500
20
0.165264
30
0.0
11
8.325000
21
0.162723
31
0.0
0
LINE
8
FRONT
10
8.325000
20
0.162723
30
0.0
11
8.437500
21
0.160183
31
0.0
0
LINE
8
FRONT
10
8.437500
20
0.160183
30
0.0
11
8.500000
21
0.158772
31
0.0
0
LINE
8
FRONT
10
8.500000
20
0.158772
30
0.0
11
8.550000
21
0.157643
31
0.0
0
LINE
8
FRONT
10
8.550000
20
0.157643
30
0.0
11
8.662500
21
0.155103
31
0.0
0
LINE
8
FRONT
10
8.662500
20
0.155103
30
0.0
11
8.775000
21
0.152563
31
0.0
0
LINE
8
FRONT
10
8.775000
20
0.152563
30
0.0
11
8.887500
21
0.150023
31
0.0
0
LINE
8
FRONT
10
8.887500
20
0.150023
30
0.0
11
9.000000
21
0.147483
31
0.0
0
LINE
8
FRONT
10
0.000000
20
-0.147483
30
0.0
11
0.112500
21
-0.150023
31
0.0
0
LINE
8
FRONT
10
0.112500
20
-0.150023
30
0.0
11
0.225000
21
-0.152563
31
0.0
0
LINE
8
FRONT
10
0.225000
20
-0.152563
30
0.0
11
0.337500
21
-0.155103
31
0.0
0
LINE
8
FRONT
10
0.337500
20
-0.155103
30
0.0
11
0.450000
21
-0.157643
31
0.0
0
LINE
8
FRONT
10
0.450000
20
-0.157643
30
0.0
11
0.500000
21
-0.158772
31
0.0
0
LINE
8
FRONT
10
0.500000
20
-0.158772
30
0.0
11
0.562500
21
-0.160183
31
0.0
0
LINE
8
FRONT
10
0.562500
20
-0.160183
30
0.0
11
0.675000
21
-0.162723
31
0.0
0
LINE
8
FRONT
10
0.675000
20
-0.162723
30
0.0
11
0.787500
21
-0.165264
31
0.0
0
LINE
8
FRONT
10
0.787500
20
-0.165264
30
0.0
11
0.900000
21
-0.167804
31
0.0
0
LINE
8
FRONT
10
0.900000
20
-0.167804
30
0.0
11
1.012500
21
-0.170344
31
0.0
0
LINE
8
FRONT
10
1.012500
20
-0.170344
30
0.0
11
1.125000
21
-0.172884
31
0.0
0
LINE
8
FRONT
10
1.125000
20
-0.172884
30
0.0
11
1.237500
21
-0.175424
31
0.0
0
LINE
8
FRONT
10
1.237500
20
-0.175424
30
0.0
11
1.350000
21
-0.177964
31
0.0
0
LINE
8
FRONT
10
1.350000
20
-0.177964
30
0.0
11
1.462500
21
-0.180504
31
0.0
0
LINE
8
FRONT
10
1.462500
20
-0.180504
30
0.0
11
1.575000
21
-0.183044
31
0.0
0
LINE
8
FRONT
10
1.575000
20
-0.183044
30
0.0
11
1.687500
21
-0.185584
31
0.0
0
LINE
8
FRONT
10
1.687500
20
-0.185584
30
0.0
11
1.800000
21
-0.188124
31
0.0
0
LINE
8
FRONT
10
1.800000
20
-0.188124
30
0.0
11
1.912500
21
-0.190664
31
0.0
0
LINE
8
FRONT
10
1.912500
20
-0.190664
30
0.0
11
2.025000
21
-0.193204
31
0.0
0
LINE
8
FRONT
10
2.025000
20
-0.193204
30
0.0
11
2.137500
21
-0.195744
31
0.0
0
LINE
8
FRONT
10
2.137500
20
-0.195744
30
0.0
11
2.250000
21
-0.198285
31
0.0
0
LINE
8
FRONT
10
2.250000
20
-0.198285
30
0.0
11
2.362500
21
-0.200825
31
0.0
0
LINE
8
FRONT
10
2.362500
20
-0.200825
30
0.0
11
2.475000
21
-0.203365
31
0.0
0
LINE
8
FRONT
10
2.475000
20
-0.203365
30
0.0
11
2.587500
21
-0.205905
31
0.0
0
LINE
8
FRONT
10
2.587500
20
-0.205905
30
0.0
11
2.700000
21
-0.208445
31
0.0
0
LINE
8
FRONT
10
2.700000
20
-0.208445
30
0.0
11
2.812500
21
-0.210985
31
0.0
0
LINE
8
FRONT
10
2.812500
20
-0.210985
30
0.0
11
2.925000
21
-0.213525
31
0.0
0
LINE
8
FRONT
10
2.925000
20
-0.213525
30
0.0
11
3.037500
21
-0.216065
31
0.0
0
LINE
8
FRONT
10
3.037500
20
-0.216065
30
0.0
11
3.150000
21
-0.218605
31
0.0
0
LINE
8
FRONT
10
3.150000
20
-0.218605
30
0.0
11
3.262500
21
-0.221145
31
0.0
0
LINE
8
FRONT
10
3.262500
20
-0.221145
30
0.0
11
3.375000
21
-0.223685
31
0.0
0
LINE
8
FRONT
10
3.375000
20
-0.223685
30
0.0
11
3.487500
21
-0.226225
31
0.0
0
LINE
8
FRONT
10
3.487500
20
-0.226225
30
0.0
11
3.600000
21
-0.228765
31
0.0
0
LINE
8
FRONT
10
3.600000
20
-0.228765
30
0.0
11
3.712500
21
-0.231306
31
0.0
0
LINE
8
FRONT
10
3.712500
20
-0.231306
30
0.0
11
3.825000
21
-0.233846
31
0.0
0
LINE
8
FRONT
10
3.825000
20
-0.233846
30
0.0
11
3.937500
21
-0.236386
31
0.0
0
LINE
8
FRONT
10
3.937500
20
-0.236386
30
0.0
11
4.050000
21
-0.238926
31
0.0
0
LINE
8
FRONT
10
4.050000
20
-0.238926
30
0.0
11
4.162500
21
-0.241466
31
0.0
0
LINE
8
FRONT
10
4.162500
20
-0.241466
30
0.0
11
4.275000
21
-0.244006
31
0.0
0
LINE
8
FRONT
10
4.275000
20
-0.244006
30
0.0
11
4.387500
21
-0.246546
31
0.0
0
LINE
8
FRONT
10
4.387500
20
-0.246546
30
0.0
11
4.500000
21
-0.249086
31
0.0
0
LINE
8
FRONT
10
4.500000
20
-0.249086
30
0.0
11
4.612500
21
-0.246546
31
0.0
0
LINE
8
FRONT
10
4.612500
20
-0.246546
30
0.0
11
4.725000
21
-0.244006
31
0.0
0
LINE
8
FRONT
10
4.725000
20
-0.244006
30
0.0
11
4.837500
21
-0.241466
31
0.0
0
LINE
8
FRONT
10
4.837500
20
-0.241466
30
0.0
11
4.950000
21
-0.238926
31
0.0
0
LINE
8
FRONT
10
4.950000
20
-0.238926
30
0.0
11
5.062500
21
-0.236386
31
0.0
0
LINE
8
FRONT
10
5.062500
20
-0.236386
30
0.0
11
5.175000
21
-0.233846
31
0.0
0
LINE
8
FRONT
10
5.175000
20
-0.233846
30
0.0
11
5.287500
21
-0.231306
31
0.0
0
LINE
8
FRONT
10
5.287500
20
-0.231306
30
0.0
11
5.400000
21
-0.228765
31
0.0
0
LINE
8
FRONT
10
5.400000
20
-0.228765
30
0.0
11
5.512500
21
-0.226225
31
0.0
0
LINE
8
FRONT
10
5.512500
20
-0.226225
30
0.0
11
5.625000
21
-0.223685
31
0.0
0
LINE
8
FRONT
10
5.625000
20
-0.223685
30
0.0
11
5.737500
21
-0.221145
31
0.0
0
LINE
8
FRONT
10
5.737500
20
-0.221145
30
0.0
11
5.850000
21
-0.218605
31
0.0
0
LINE
8
FRONT
10
5.850000
20
-0.218605
30
0.0
11
5.962500
21
-0.216065
31
0.0
0
LINE
8
FRONT
10
5.962500
20
-0.216065
30
0.0
11
6.075000
21
-0.213525
31
0.0
0
LINE
8
FRONT
10
6.075000
20
-0.213525
30
0.0
11
6.187500
21
-0.210985
31
0.0
0
LINE
8
FRONT
10
6.187500
20
-0.210985
30
0.0
11
6.300000
21
-0.208445
31
0.0
0
LINE
8
FRONT
10
6.300000
20
-0.208445
30
0.0
11
6.412500
21
-0.205905
31
0.0
0
LINE
8
FRONT
10
6.412500
20
-0.205905
30
0.0
11
6.525000
21
-0.203365
31
0.0
0
LINE
8
FRONT
10
6.525000
20
-0.203365
30
0.0
11
6.637500
21
-0.200825
31
0.0
0
LINE
8
FRONT
10
6.637500
20
-0.200825
30
0.0
11
6.750000
21
-0.198285
31
0.0
0
LINE
8
FRONT
10
6.750000
20
-0.198285
30
0.0
11
6.862500
21
-0.195744
31
0.0
0
LINE
8
FRONT
10
6.862500
20
-0.195744
30
0.0
11
6.975000
21
-0.193204
31
0.0
0
LINE
8
FRONT
10
6.975000
20
-0.193204
30
0.0
11
7.087500
21
-0.190664
31
0.0
0
LINE
8
FRONT
10
7.087500
20
-0.190664
30
0.0
11
7.200000
21
-0.188124
31
0.0
0
LINE
8
FRONT
10
7.200000
20
-0.188124
30
0.0
11
7.312500
21
-0.185584
31
0.0
0
LINE
8
FRONT
10
7.312500
20
-0.185584
30
0.0
11
7.425000
21
-0.183044
31
0.0
0
LINE
8
FRONT
10
7.425000
20
-0.183044
30
0.0
11
7.537500
21
-0.180504
31
0.0
0
LINE
8
FRONT
10
7.537500
20
-0.180504
30
0.0
11
7.650000
21
-0.177964
31
0.0
0
LINE
8
FRONT
10
7.650000
20
-0.177964
30
0.0
11
7.762500
21
-0.175424
31
0.0
0
LINE
8
FRONT
10
7.762500
20
-0.175424
30
0.0
11
7.875000
21
-0.172884
31
0.0
0
LINE
8
FRONT
10
7.875000
20
-0.172884
30
0.0
11
7.987500
21
-0.170344
31
0.0
0
LINE
8
FRONT
10
7.987500
20
-0.170344
30
0.0
11
8.100000
21
-0.167804
31
0.0
0
LINE
8
FRONT
10
8.100000
20
-0.167804
30
0.0
11
8.212500
21
-0.165264
31
0.0
0
LINE
8
FRONT
10
8.212500
20
-0.165264
30
0.0
11
8.325000
21
-0.162723
31
0.0
0
LINE
8
FRONT
10
8.325000
20
-0.162723
30
0.0
11
8.437500
21
-0.160183
31
0.0
0
LINE
8
FRONT
10
8.437500
20
-0.160183
30
0.0
11
8.500000
21
-0.158772
31
0.0
0
LINE
8
FRONT
10
8.500000
20
-0.158772
30
0.0
11
8.550000
21
-0.157643
31
0.0
0
LINE
8
FRONT
10
8.550000
20
-0.157643
30
0.0
11
8.662500
21
-0.155103
31
0.0
0
LINE
8
FRONT
10
8.662500
20
-0.155103
30
0.0
11
8.775000
21
-0.152563
31
0.0
0
LINE
8
FRONT
10
8.775000
20
-0.152563
30
0.0
11
8.887500
21
-0.150023
31
0.0
0
LINE
8
FRONT
10
8.887500
20
-0.150023
30
0.0
11
9.000000
21
-0.147483
31
0.0
0
LINE
8
FRONT
10
0.000000
20
0.147483
30
0.0
11
0.000000
21
-0.147483
31
0.0
0
LINE
8
FRONT
10
9.000000
20
0.147483
30
0.0
11
9.000000
21
-0.147483
31
0.0
0
LINE
8
TOP
10
0.000000
20
1.849962
30
0.0
11
0.112500
21
1.853812
31
0.0
0
LINE
8
TOP
10
0.112500
20
1.853812
30
0.0
11
0.225000
21
1.857663
31
0.0
0
LINE
8
TOP
10
0.225000
20
1.857663
30
0.0
11
0.337500
21
1.861514
31
0.0
0
LINE
8
TOP
10
0.337500
20
1.861514
30
0.0
11
0.450000
21
1.865365
31
0.0
0
LINE
8
TOP
10
0.450000
20
1.865365
30
0.0
11
0.500000
21
1.867077
31
0.0
0
LINE
8
TOP
10
0.500000
20
1.867077
30
0.0
11
0.562500
21
1.869216
31
0.0
0
LINE
8
TOP
10
0.562500
20
1.869216
30
0.0
11
0.675000
21
1.873067
31
0.0
0
LINE
8
TOP
10
0.675000
20
1.873067
30
0.0
11
0.787500
21
1.876918
31
0.0
0
LINE
8
TOP
10
0.787500
20
1.876918
30
0.0
11
0.900000
21
1.880769
31
0.0
0
LINE
8
TOP
10
0.900000
20
1.880769
30
0.0
11
1.012500
21
1.884620
31
0.0
0
LINE
8
TOP
10
1.012500
20
1.884620
30
0.0
11
1.125000
21
1.888471
31
0.0
0
LINE
8
TOP
10
1.125000
20
1.888471
30
0.0
11
1.237500
21
1.892322
31
0.0
0
LINE
8
TOP
10
1.237500
20
1.892322
30
0.0
11
1.350000
21
1.896173
31
0.0
0
LINE
8
TOP
10
1.350000
20
1.896173
30
0.0
11
1.462500
21
1.900024
31
0.0
0
LINE
8
TOP
10
1.462500
20
1.900024
30
0.0
11
1.575000
21
1.903875
31
0.0
0
LINE
8
TOP
10
1.575000
20
1.903875
30
0.0
11
1.687500
21
1.907726
31
0.0
0
LINE
8
TOP
10
1.687500
20
1.907726
30
0.0
11
1.800000
21
1.911577
31
0.0
0
LINE
8
TOP
10
1.800000
20
1.911577
30
0.0
11
1.912500
21
1.915428
31
0.0
0
LINE
8
TOP
10
1.912500
20
1.915428
30
0.0
11
2.025000
21
1.919279
31
0.0
0
LINE
8
TOP
10
2.025000
20
1.919279
30
0.0
11
2.137500
21
1.923130
31
0.0
0
LINE
8
TOP
10
2.137500
20
1.923130
30
0.0
11
2.250000
21
1.926981
31
0.0
0
LINE
8
TOP
10
2.250000
20
1.926981
30
0.0
11
2.362500
21
1.930832
31
0.0
0
LINE
8
TOP
10
2.362500
20
1.930832
30
0.0
11
2.475000
21
1.934683
31
0.0
0
LINE
8
TOP
10
2.475000
20
1.934683
30
0.0
11
2.587500
21
1.938534
31
0.0
0
LINE
8
TOP
10
2.587500
20
1.938534
30
0.0
11
2.700000
21
1.942384
31
0.0
0
LINE
8
TOP
10
2.700000
20
1.942384
30
0.0
11
2.812500
21
1.946235
31
0.0
0
LINE
8
TOP
10
2.812500
20
1.946235
30
0.0
11
2.925000
21
1.950086
31
0.0
0
LINE
8
TOP
10
2.925000
20
1.950086
30
0.0
11
3.037500
21
1.953937
31
0.0
0
LINE
8
TOP
10
3.037500
20
1.953937
30
0.0
11
3.150000
21
1.957788
31
0.0
0
LINE
8
TOP
10
3.150000
20
1.957788
30
0.0
11
3.262500
21
1.961639
31
0.0
0
LINE
8
TOP
10
3.262500
20
1.961639
30
0.0
11
3.375000
21
1.965490
31
0.0
0
LINE
8
TOP
10
3.375000
20
1.965490
30
0.0
11
3.487500
21
1.969341
31
0.0
0
LINE
8
TOP
10
3.487500
20
1.969341
30
0.0
11
3.600000
21
1.973192
31
0.0
0
LINE
8
TOP
10
3.600000
20
1.973192
30
0.0
11
3.712500
21
1.977043
31
0.0
0
LINE
8
TOP
10
3.712500
20
1.977043
30
0.0
11
3.825000
21
1.980894
31
0.0
0
LINE
8
TOP
10
3.825000
20
1.980894
30
0.0
11
3.937500
21
1.984745
31
0.0
0
LINE
8
TOP
10
3.937500
20
1.984745
30
0.0
11
4.050000
21
1.988596
31
0.0
0
LINE
8
TOP
10
4.050000
20
1.988596
30
0.0
11
4.162500
21
1.992447
31
0.0
0
LINE
8
TOP
10
4.162500
20
1.992447
30
0.0
11
4.275000
21
1.996298
31
0.0
0
LINE
8
TOP
10
4.275000
20
1.996298
30
0.0
11
4.387500
21
2.000149
31
0.0
0
LINE
8
TOP
10
4.387500
20
2.000149
30
0.0
11
4.500000
21
2.004000
31
0.0
0
LINE
8
TOP
10
4.500000
20
2.004000
30
0.0
11
4.612500
21
2.000149
31
0.0
0
LINE
8
TOP
10
4.612500
20
2.000149
30
0.0
11
4.725000
21
1.996298
31
0.0
0
LINE
8
TOP
10
4.725000
20
1.996298
30
0.0
11
4.837500
21
1.992447
31
0.0
0
LINE
8
TOP
10
4.837500
20
1.992447
30
0.0
11
4.950000
21
1.988596
31
0.0
0
LINE
8
TOP
10
4.950000
20
1.988596
30
0.0
11
5.062500
21
1.984745
31
0.0
0
LINE
8
TOP
10
5.062500
20
1.984745
30
0.0
11
5.175000
21
1.980894
31
0.0
0
LINE
8
TOP
10
5.175000
20
1.980894
30
0.0
11
5.287500
21
1.977043
31
0.0
0
LINE
8
TOP
10
5.287500
20
1.977043
30
0.0
11
5.400000
21
1.973192
31
0.0
0
LINE
8
TOP
10
5.400000
20
1.973192
30
0.0
11
5.512500
21
1.969341
31
0.0
0
LINE
8
TOP
10
5.512500
20
1.969341
30
0.0
11
5.625000
21
1.965490
31
0.0
0
LINE
8
TOP
10
5.625000
20
1.965490
30
0.0
11
5.737500
21
1.961639
31
0.0
0
LINE
8
TOP
10
5.737500
20
1.961639
30
0.0
11
5.850000
21
1.957788
31
0.0
0
LINE
8
TOP
10
5.850000
20
1.957788
30
0.0
11
5.962500
21
1.953937
31
0.0
0
LINE
8
TOP
10
5.962500
20
1.953937
30
0.0
11
6.075000
21
1.950086
31
0.0
0
LINE
8
TOP
10
6.075000
20
1.950086
30
0.0
11
6.187500
21
1.946235
31
0.0
0
LINE
8
TOP
10
6.187500
20
1.946235
30
0.0
11
6.300000
21
1.942384
31
0.0
0
LINE
8
TOP
10
6.300000
20
1.942384
30
0.0
11
6.412500
21
1.938534
31
0.0
0
LINE
8
TOP
10
6.412500
20
1.938534
30
0.0
11
6.525000
21
1.934683
31
0.0
0
LINE
8
TOP
10
6.525000
20
1.934683
30
0.0
11
6.637500
21
1.930832
31
0.0
0
LINE
8
TOP
10
6.637500
20
1.930832
30
0.0
11
6.750000
21
1.926981
31
0.0
0
LINE
8
TOP
10
6.750000
20
1.926981
30
0.0
11
6.862500
21
1.923130
31
0.0
0
LINE
8
TOP
10
6.862500
20
1.923130
30
0.0
11
6.975000
21
1.919279
31
0.0
0
LINE
8
TOP
10
6.975000
20
1.919279
30
0.0
11
7.087500
21
1.915428
31
0.0
0
LINE
8
TOP
10
7.087500
20
1.915428
30
0.0
11
7.200000
21
1.911577
31
0.0
0
LINE
8
TOP
10
7.200000
20
1.911577
30
0.0
11
7.312500
21
1.907726
31
0.0
0
LINE
8
TOP
10
7.312500
20
1.907726
30
0.0
11
7.425000
21
1.903875
31
0.0
0
LINE
8
TOP
10
7.425000
20
1.903875
30
0.0
11
7.537500
21
1.900024
31
0.0
0
LINE
8
TOP
10
7.537500
20
1.900024
30
0.0
11
7.650000
21
1.896173
31
0.0
0
LINE
8
TOP
10
7.650000
20
1.896173
30
0.0
11
7.762500
21
1.892322
31
0.0
0
LINE
8
TOP
10
7.762500
20
1.892322
30
0.0
11
7.875000
21
1.888471
31
0.0
0
LINE
8
TOP
10
7.875000
20
1.888471
30
0.0
11
7.987500
21
1.884620
31
0.0
0
LINE
8
TOP
10
7.987500
20
1.884620
30
0.0
11
8.100000
21
1.880769
31
0.0
0
LINE
8
TOP
10
8.100000
20
1.880769
30
0.0
11
8.212500
21
1.876918
31
0.0
0
LINE
8
TOP
10
8.212500
20
1.876918
30
0.0
11
8.325000
21
1.873067
31
0.0
0
LINE
8
TOP
10
8.325000
20
1.873067
30
0.0
11
8.437500
21
1.869216
31
0.0
0
LINE
8
TOP
10
8.437500
20
1.869216
30
0.0
11
8.500000
21
1.867077
31
0.0
0
LINE
8
TOP
10
8.500000
20
1.867077
30
0.0
11
8.550000
21
1.865365
31
0.0
0
LINE
8
TOP
10
8.550000
20
1.865365
30
0.0
11
8.662500
21
1.861514
31
0.0
0
LINE
8
TOP
10
8.662500
20
1.861514
30
0.0
11
8.775000
21
1.857663
31
0.0
0
LINE
8
TOP
10
8.775000
20
1.857663
30
0.0
11
8.887500
21
1.853812
31
0.0
0
LINE
8
TOP
10
8.887500
20
1.853812
30
0.0
11
9.000000
21
1.849962
31
0.0
0
LINE
8
TOP
10
0.000000
20
1.531038
30
0.0
11
0.112500
21
1.527187
31
0.0
0
LINE
8
TOP
10
0.112500
20
1.527187
30
0.0
11
0.225000
21
1.523336
31
0.0
0
LINE
8
TOP
10
0.225000
20
1.523336
30
0.0
11
0.337500
21
1.519485
31
0.0
0
LINE
8
TOP
10
0.337500
20
1.519485
30
0.0
11
0.450000
21
1.515634
31
0.0
0
LINE
8
TOP
10
0.450000
20
1.515634
30
0.0
11
0.500000
21
1.513923
31
0.0
0
LINE
8
TOP
10
0.500000
20
1.513923
30
0.0
11
0.562500
21
1.511783
31
0.0
0
LINE
8
TOP
10
0.562500
20
1.511783
30
0.0
11
0.675000
21
1.507932
31
0.0
0
LINE
8
TOP
10
0.675000
20
1.507932
30
0.0
11
0.787500
21
1.504081
31
0.0
0
LINE
8
TOP
10
0.787500
20
1.504081
30
0.0
11
0.900000
21
1.500230
31
0.0
0
LINE
8
TOP
10
0.900000
20
1.500230
30
0.0
11
1.012500
21
1.496380
31
0.0
0
LINE
8
TOP
10
1.012500
20
1.496380
30
0.0
11
1.125000
21
1.492529
31
0.0
0
LINE
8
TOP
10
1.125000
20
1.492529
30
0.0
11
1.237500
21
1.488678
31
0.0
0
LINE
8
TOP
10
1.237500
20
1.488678
30
0.0
11
1.350000
21
1.484827
31
0.0
0
LINE
8
TOP
10
1.350000
20
1.484827
30
0.0
11
1.462500
21
1.480976
31
0.0
0
LINE
8
TOP
10
1.462500
20
1.480976
30
0.0
11
1.575000
21
1.477125
31
0.0
0
LINE
8
TOP
10
1.575000
20
1.477125
30
0.0
11
1.687500
21
1.473274
31
0.0
0
LINE
8
TOP
10
1.687500
20
1.473274
30
0.0
11
1.800000
21
1.469423
31
0.0
0
LINE
8
TOP
10
1.800000
20
1.469423
30
0.0
11
1.912500
21
1.465572
31
0.0
0
LINE
8
TOP
10
1.912500
20
1.465572
30
0.0
11
2.025000
21
1.461721
31
0.0
0
LINE
8
TOP
10
2.025000
20
1.461721
30
0.0
11
2.137500
21
1.457870
31
0.0
0
LINE
8
TOP
10
2.137500
20
1.457870
30
0.0
11
2.250000
21
1.454019
31
0.0
0
LINE
8
TOP
10
2.250000
20
1.454019
30
0.0
11
2.362500
21
1.450168
31
0.0
0
LINE
8
TOP
10
2.362500
20
1.450168
30
0.0
11
2.475000
21
1.446317
31
0.0
0
LINE
8
TOP
10
2.475000
20
1.446317
30
0.0
11
2.587500
21
1.442466
31
0.0
0
LINE
8
TOP
10
2.587500
20
1.442466
30
0.0
11
2.700000
21
1.438615
31
0.0
0
LINE
8
TOP
10
2.700000
20
1.438615
30
0.0
11
2.812500
21
1.434764
31
0.0
0
LINE
8
TOP
10
2.812500
20
1.434764
30
0.0
11
2.925000
21
1.430913
31
0.0
0
LINE
8
TOP
10
2.925000
20
1.430913
30
0.0
11
3.037500
21
1.427062
31
0.0
0
LINE
8
TOP
10
3.037500
20
1.427062
30
0.0
11
3.150000
21
1.423211
31
0.0
0
LINE
8
TOP
10
3.150000
20
1.423211
30
0.0
11
3.262500
21
1.419360
31
0.0
0
LINE
8
TOP
10
3.262500
20
1.419360
30
0.0
11
3.375000
21
1.415509
31
0.0
0
LINE
8
TOP
10
3.375000
20
1.415509
30
0.0
11
3.487500
21
1.411658
31
0.0
0
LINE
8
TOP
10
3.487500
20
1.411658
30
0.0
11
3.600000
21
1.407808
31
0.0
0
LINE
8
TOP
10
3.600000
20
1.407808
30
0.0
11
3.712500
21
1.403957
31
0.0
0
LINE
8
TOP
10
3.712500
20
1.403957
30
0.0
11
3.825000
21
1.400106
31
0.0
0
LINE
8
TOP
10
3.825000
20
1.400106
30
0.0
11
3.937500
21
1.396255
31
0.0
0
LINE
8
TOP
10
3.937500
20
1.396255
30
0.0
11
4.050000
21
1.392404
31
0.0
0
LINE
8
TOP
10
4.050000
20
1.392404
30
0.0
11
4.162500
21
1.388553
31
0.0
0
LINE
8
TOP
10
4.162500
20
1.388553
30
0.0
11
4.275000
21
1.384702
31
0.0
0
LINE
8
TOP
10
4.275000
20
1.384702
30
0.0
11
4.387500
21
1.380851
31
0.0
0
LINE
8
TOP
10
4.387500
20
1.380851
30
0.0
11
4.500000
21
1.377000
31
0.0
0
LINE
8
TOP
10
4.500000
20
1.377000
30
0.0
11
4.612500
21
1.380851
31
0.0
0
LINE
8
TOP
10
4.612500
20
1.380851
30
0.0
11
4.725000
21
1.384702
31
0.0
0
LINE
8
TOP
10
4.725000
20
1.384702
30
0.0
11
4.837500
21
1.388553
31
0.0
0
LINE
8
TOP
10
4.837500
20
1.388553
30
0.0
11
4.950000
21
1.392404
31
0.0
0
LINE
8
TOP
10
4.950000
20
1.392404
30
0.0
11
5.062500
21
1.396255
31
0.0
0
LINE
8
TOP
10
5.062500
20
1.396255
30
0.0
11
5.175000
21
1.400106
31
0.0
0
LINE
8
TOP
10
5.175000
20
1.400106
30
0.0
11
5.287500
21
1.403957
31
0.0
0
LINE
8
TOP
10
5.287500
20
1.403957
30
0.0
11
5.400000
21
1.407808
31
0.0
0
LINE
8
TOP
10
5.400000
20
1.407808
30
0.0
11
5.512500
21
1.411658
31
0.0
0
LINE
8
TOP
10
5.512500
20
1.411658
30
0.0
11
5.625000
21
1.415509
31
0.0
0
LINE
8
TOP
10
5.625000
20
1.415509
30
0.0
11
5.737500
21
1.419360
31
0.0
0
LINE
8
TOP
10
5.737500
20
1.419360
30
0.0
11
5.850000
21
1.423211
31
0.0
0
LINE
8
TOP
10
5.850000
20
1.423211
30
0.0
11
5.962500
21
1.427062
31
0.0
0
LINE
8
TOP
10
5.962500
20
1.427062
30
0.0
11
6.075000
21
1.430913
31
0.0
0
LINE
8
TOP
10
6.075000
20
1.430913
30
0.0
11
6.187500
21
1.434764
31
0.0
0
LINE
8
TOP
10
6.187500
20
1.434764
30
0.0
11
6.300000
21
1.438615
31
0.0
0
LINE
8
TOP
10
6.300000
20
1.438615
30
0.0
11
6.412500
21
1.442466
31
0.0
0
LINE
8
TOP
10
6.412500
20
1.442466
30
0.0
11
6.525000
21
1.446317
31
0.0
0
LINE
8
TOP
10
6.525000
20
1.446317
30
0.0
11
6.637500
21
1.450168
31
0.0
0
LINE
8
TOP
10
6.637500
20
1.450168
30
0.0
11
6.750000
21
1.454019
31
0.0
0
LINE
8
TOP
10
6.750000
20
1.454019
30
0.0
11
6.862500
21
1.457870
31
0.0
0
LINE
8
TOP
10
6.862500
20
1.457870
30
0.0
11
6.975000
21
1.461721
31
0.0
0
LINE
8
TOP
10
6.975000
20
1.461721
30
0.0
11
7.087500
21
1.465572
31
0.0
0
LINE
8
TOP
10
7.087500
20
1.465572
30
0.0
11
7.200000
21
1.469423
31
0.0
0
LINE
8
TOP
10
7.200000
20
1.469423
30
0.0
11
7.312500
21
1.473274
31
0.0
0
LINE
8
TOP
10
7.312500
20
1.473274
30
0.0
11
7.425000
21
1.477125
31
0.0
0
LINE
8
TOP
10
7.425000
20
1.477125
30
0.0
11
7.537500
21
1.480976
31
0.0
0
LINE
8
TOP
10
7.537500
20
1.480976
30
0.0
11
7.650000
21
1.484827
31
0.0
0
LINE
8
TOP
10
7.650000
20
1.484827
30
0.0
11
7.762500
21
1.488678
31
0.0
0
LINE
8
TOP
10
7.762500
20
1.488678
30
0.0
11
7.875000
21
1.492529
31
0.0
0
LINE
8
TOP
10
7.875000
20
1.492529
30
0.0
11
7.987500
21
1.496380
31
0.0
0
LINE
8
TOP
10
7.987500
20
1.496380
30
0.0
11
8.100000
21
1.500230
31
0.0
0
LINE
8
TOP
10
8.100000
20
1.500230
30
0.0
11
8.212500
21
1.504081
31
0.0
0
LINE
8
TOP
10
8.212500
20
1.504081
30
0.0
11
8.325000
21
1.507932
31
0.0
0
LINE
8
TOP
10
8.325000
20
1.507932
30
0.0
11
8.437500
21
1.511783
31
0.0
0
LINE
8
TOP
10
8.437500
20
1.511783
30
0.0
11
8.500000
21
1.513923
31
0.0
0
LINE
8
TOP
10
8.500000
20
1.513923
30
0.0
11
8.550000
21
1.515634
31
0.0
0
LINE
8
TOP
10
8.550000
20
1.515634
30
0.0
11
8.662500
21
1.519485
31
0.0
0
LINE
8
TOP
10
8.662500
20
1.519485
30
0.0
11
8.775000
21
1.523336
31
0.0
0
LINE
8
TOP
10
8.775000
20
1.523336
30
0.0
11
8.887500
21
1.527187
31
0.0
0
LINE
8
TOP
10
8.887500
20
1.527187
30
0.0
11
9.000000
21
1.531038
31
0.0
0
LINE
8
TOP
10
0.000000
20
1.849962
30
0.0
11
0.000000
21
1.531038
31
0.0
0
LINE
8
TOP
10
9.000000
20
1.849962
30
0.0
11
9.000000
21
1.531038
31
0.0
0
LINE
8
SECTION
10
10.186500
20
-0.249086
30
0.0
11
10.813500
21
-0.249086
31
0.0
0
LINE
8
SECTION
10
10.813500
20
-0.249086
30
0.0
11
10.813500
21
0.249086
31
0.0
0
LINE
8
SECTION
10
10.813500
20
0.249086
30
0.0
11
10.186500
21
0.249086
31
0.0
0
LINE
8
SECTION
10
10.186500
20
0.249086
30
0.0
11
10.186500
21
-0.249086
31
0.0
0
LINE
8
SECTION
10
10.257306
20
-0.178280
30
0.0
11
10.742694
21
-0.178280
31
0.0
0
LINE
8
SECTION
10
10.742694
20
-0.178280
30
0.0
11
10.742694
21
0.178280
31
0.0
0
LINE
8
SECTION
10
10.742694
20
0.178280
30
0.0
11
10.257306
21
0.178280
31
0.0
0
LINE
8
SECTION
10
10.257306
20
0.178280
30
0.0
11
10.257306
21
-0.178280
31
0.0
0
LINE
8
SECTION
10
10.257306
20
0.000000
30
0.0
11
10.328112
21
0.000000
31
0.0
0
LINE
8
SECTION
10
10.328112
20
0.000000
30
0.0
11
10.328112
21
0.178280
31
0.0
0
LINE
8
SECTION
10
10.328112
20
0.178280
30
0.0
11
10.257306
21
0.178280
31
0.0
0
LINE
8
SECTION
10
10.257306
20
0.178280
30
0.0
11
10.257306
21
0.000000
31
0.0
0
LINE
8
SECTION
10
10.257306
20
-0.178280
30
0.0
11
10.328112
21
-0.178280
31
0.0
0
LINE
8
SECTION
10
10.328112
20
-0.178280
30
0.0
11
10.328112
21
0.000000
31
0.0
0
LINE
8
SECTION
10
10.328112
20
0.000000
30
0.0
11
10.257306
21
0.000000
31
0.0
0
LINE
8
SECTION
10
10.257306
20
0.000000
30
0.0
11
10.257306
21
-0.178280
31
0.0
0
LINE
8
SECTION
10
10.671888
20
0.000000
30
0.0
11
10.742694
21
0.000000
31
0.0
0
LINE
8
SECTION
10
10.742694
20
0.000000
30
0.0
11
10.742694
21
0.178280
31
0.0
0
LINE
8
SECTION
10
10.742694
20
0.178280
30
0.0
11
10.671888
21
0.178280
31
0.0
0
LINE
8
SECTION
10
10.671888
20
0.178280
30
0.0
11
10.671888
21
0.000000
31
0.0
0
LINE
8
SECTION
10
10.671888
20
-0.178280
30
0.0
11
10.742694
21
-0.178280
31
0.0
0
LINE
8
SECTION
10
10.742694
20
-0.178280
30
0.0
11
10.742694
21
0.000000
31
0.0
0
LINE
8
SECTION
10
10.742694
20
0.000000
30
0.0
11
10.671888
21
0.000000
31
0.0
0
LINE
8
SECTION
10
10.671888
20
0.000000
30
0.0
11
10.671888
21
-0.178280
31
0.0
0
ENDSEC
0
EOF
