0
SECTION
2
HEADER
9
$INSUNITS
70
1
0
ENDSEC
0
SECTION
2
ENTITIES
0
LINE
8
FRONT
10
0.000000
20
0.301362
30
0.0
11
0.112500
21
0.307884
31
0.0
0
LINE
8
FRONT
10
0.112500
20
0.307884
30
0.0
11
0.225000
21
0.314406
31
0.0
0
LINE
8
FRONT
10
0.225000
20
0.314406
30
0.0
11
0.337500
21
0.320928
31
0.0
0
LINE
8
FRONT
10
0.337500
20
0.320928
30
0.0
11
0.450000
21
0.327451
31
0.0
0
LINE
8
FRONT
10
0.450000
20
0.327451
30
0.0
11
0.500000
21
0.330349
31
0.0
0
LINE
8
FRONT
10
0.500000
20
0.330349
30
0.0
11
0.562500
21
0.333973
31
0.0
0
LINE
8
FRONT
10
0.562500
20
0.333973
30
0.0
11
0.675000
21
0.340495
31
0.0
0
LINE
8
FRONT
10
0.675000
20
0.340495
30
0.0
11
0.787500
21
0.347017
31
0.0
0
LINE
8
FRONT
10
0.787500
20
0.347017
30
0.0
11
0.900000
21
0.353540
31
0.0
0
LINE
8
FRONT
10
0.900000
20
0.353540
30
0.0
11
1.012500
21
0.360062
31
0.0
0
LINE
8
FRONT
10
1.012500
20
0.360062
30
0.0
11
1.125000
21
0.366584
31
0.0
0
LINE
8
FRONT
10
1.125000
20
0.366584
30
0.0
11
1.237500
21
0.373107
31
0.0
0
LINE
8
FRONT
10
1.237500
20
0.373107
30
0.0
11
1.350000
21
0.379629
31
0.0
0
LINE
8
FRONT
10
1.350000
20
0.379629
30
0.0
11
1.462500
21
0.386151
31
0.0
0
LINE
8
FRONT
10
1.462500
20
0.386151
30
0.0
11
1.575000
21
0.392673
31
0.0
0
LINE
8
FRONT
10
1.575000
20
0.392673
30
0.0
11
1.687500
21
0.399196
31
0.0
0
LINE
8
FRONT
10
1.687500
20
0.399196
30
0.0
11
1.800000
21
0.405718
31
0.0
0
LINE
8
FRONT
10
1.800000
20
0.405718
30
0.0
11
1.912500
21
0.412240
31
0.0
0
LINE
8
FRONT
10
1.912500
20
0.412240
30
0.0
11
2.025000
21
0.418762
31
0.0
0
LINE
8
FRONT
10
2.025000
20
0.418762
30
0.0
11
2.137500
21
0.425285
31
0.0
0
LINE
8
FRONT
10
2.137500
20
0.425285
30
0.0
11
2.250000
21
0.431807
31
0.0
0
LINE
8
FRONT
10
2.250000
20
0.431807
30
0.0
11
2.362500
21
0.438329
31
0.0
0
LINE
8
FRONT
10
2.362500
20
0.438329
30
0.0
11
2.475000
21
0.444851
31
0.0
0
LINE
8
FRONT
10
2.475000
20
0.444851
30
0.0
11
2.587500
21
0.451374
31
0.0
0
LINE
8
FRONT
10
2.587500
20
0.451374
30
0.0
11
2.700000
21
0.457896
31
0.0
0
LINE
8
FRONT
10
2.700000
20
0.457896
30
0.0
11
2.812500
21
0.464418
31
0.0
0
LINE
8
FRONT
10
2.812500
20
0.464418
30
0.0
11
2.925000
21
0.470940
31
0.0
0
LINE
8
FRONT
10
2.925000
20
0.470940
30
0.0
11
3.037500
21
0.477463
31
0.0
0
LINE
8
FRONT
10
3.037500
20
0.477463
30
0.0
11
3.150000
21
0.483985
31
0.0
0
LINE
8
FRONT
10
3.150000
20
0.483985
30
0.0
11
3.262500
21
0.490507
31
0.0
0
LINE
8
FRONT
10
3.262500
20
0.490507
30
0.0
11
3.375000
21
0.497030
31
0.0
0
LINE
8
FRONT
10
3.375000
20
0.497030
30
0.0
11
3.487500
21
0.503552
31
0.0
0
LINE
8
FRONT
10
3.487500
20
0.503552
30
0.0
11
3.600000
21
0.510074
31
0.0
0
LINE
8
FRONT
10
3.600000
20
0.510074
30
0.0
11
3.712500
21
0.516596
31
0.0
0
LINE
8
FRONT
10
3.712500
20
0.516596
30
0.0
11
3.825000
21
0.523119
31
0.0
0
LINE
8
FRONT
10
3.825000
20
0.523119
30
0.0
11
3.937500
21
0.529641
31
0.0
0
LINE
8
FRONT
10
3.937500
20
0.529641
30
0.0
11
4.050000
21
0.536163
31
0.0
0
LINE
8
FRONT
10
4.050000
20
0.536163
30
0.0
11
4.162500
21
0.542685
31
0.0
0
LINE
8
FRONT
10
4.162500
20
0.542685
30
0.0
11
4.275000
21
0.549208
31
0.0
0
LINE
8
FRONT
10
4.275000
20
0.549208
30
0.0
11
4.387500
21
0.555730
31
0.0
0
LINE
8
FRONT
10
4.387500
20
0.555730
30
0.0
11
4.500000
21
0.562252
31
0.0
0
LINE
8
FRONT
10
4.500000
20
0.562252
30
0.0
11
4.612500
21
0.555730
31
0.0
0
LINE
8
FRONT
10
4.612500
20
0.555730
30
0.0
11
4.725000
21
0.549208
31
0.0
0
LINE
8
FRONT
10
4.725000
20
0.549208
30
0.0
11
4.837500
21
0.542685
31
0.0
0
LINE
8
FRONT
10
4.837500
20
0.542685
30
0.0
11
4.950000
21
0.536163
31
0.0
0
LINE
8
FRONT
10
4.950000
20
0.536163
30
0.0
11
5.062500
21
0.529641
31
0.0
0
LINE
8
FRONT
10
5.062500
20
0.529641
30
0.0
11
5.175000
21
0.523119
31
0.0
0
LINE
8
FRONT
10
5.175000
20
0.523119
30
0.0
11
5.287500
21
0.516596
31
0.0
0
LINE
8
FRONT
10
5.287500
20
0.516596
30
0.0
11
5.400000
21
0.510074
31
0.0
0
LINE
8
FRONT
10
5.400000
20
0.510074
30
0.0
11
5.512500
21
0.503552
31
0.0
0
LINE
8
FRONT
10
5.512500
20
0.503552
30
0.0
11
5.625000
21
0.497030
31
0.0
0
LINE
8
FRONT
10
5.625000
20
0.497030
30
0.0
11
5.737500
21
0.490507
31
0.0
0
LINE
8
FRONT
10
5.737500
20
0.490507
30
0.0
11
5.850000
21
0.483985
31
0.0
0
LINE
8
FRONT
10
5.850000
20
0.483985
30
0.0
11
5.962500
21
0.477463
31
0.0
0
LINE
8
FRONT
10
5.962500
20
0.477463
30
0.0
11
6.075000
21
0.470940
31
0.0
0
LINE
8
FRONT
10
6.075000
20
0.470940
30
0.0
11
6.187500
21
0.464418
31
0.0
0
LINE
8
FRONT
10
6.187500
20
0.464418
30
0.0
11
6.300000
21
0.457896
31
0.0
0
LINE
8
FRONT
10
6.300000
20
0.457896
30
0.0
11
6.412500
21
0.451374
31
0.0
0
LINE
8
FRONT
10
6.412500
20
0.451374
30
0.0
11
6.525000
21
0.444851
31
0.0
0
LINE
8
FRONT
10
6.525000
20
0.444851
30
0.0
11
6.637500
21
0.438329
31
0.0
0
LINE
8
FRONT
10
6.637500
20
0.438329
30
0.0
11
6.750000
21
0.431807
31
0.0
0
LINE
8
FRONT
10
6.750000
20
0.431807
30
0.0
11
6.862500
21
0.425285
31
0.0
0
LINE
8
FRONT
10
6.862500
20
0.425285
30
0.0
11
6.975000
21
0.418762
31
0.0
0
LINE
8
FRONT
10
6.975000
20
0.418762
30
0.0
11
7.087500
21
0.412240
31
0.0
0
LINE
8
FRONT
10
7.087500
20
0.412240
30
0.0
11
7.200000
21
0.405718
31
0.0
0
LINE
8
FRONT
10
7.200000
20
0.405718
30
0.0
11
7.312500
21
0.399196
31
0.0
0
LINE
8
FRONT
10
7.312500
20
0.399196
30
0.0
11
7.425000
21
0.392673
31
0.0
0
LINE
8
FRONT
10
7.425000
20
0.392673
30
0.0
11
7.537500
21
0.386151
31
0.0
0
LINE
8
FRONT
10
7.537500
20
0.386151
30
0.0
11
7.650000
21
0.379629
31
0.0
0
LINE
8
FRONT
10
7.650000
20
0.379629
30
0.0
11
7.762500
21
0.373107
31
0.0
0
LINE
8
FRONT
10
7.762500
20
0.373107
30
0.0
11
7.875000
21
0.366584
31
0.0
0
LINE
8
FRONT
10
7.875000
20
0.366584
30
0.0
11
7.987500
21
0.360062
31
0.0
0
LINE
8
FRONT
10
7.987500
20
0.360062
30
0.0
11
8.100000
21
0.353540
31
0.0
0
LINE
8
FRONT
10
8.100000
20
0.353540
30
0.0
11
8.212500
21
0.347017
31
0.0
0
LINE
8
FRONT
10
8.212500
20
0.347017
30
0.0
11
8.325000
21
0.340495
31
0.0
0
LINE
8
FRONT
10
8.325000
20
0.340495
30
0.0
11
8.437500
21
0.333973
31
0.0
0
LINE
8
FRONT
10
8.437500
20
0.333973
30
0.0
11
8.500000
21
0.330349
31
0.0
0
LINE
8
FRONT
10
8.500000
20
0.330349
30
0.0
11
8.550000
21
0.327451
31
0.0
0
LINE
8
FRONT
10
8.550000
20
0.327451
30
0.0
11
8.662500
21
0.320928
31
0.0
0
LINE
8
FRONT
10
8.662500
20
0.320928
30
0.0
11
8.775000
21
0.314406
31
0.0
0
LINE
8
FRONT
10
8.775000
20
0.314406
30
0.0
11
8.887500
21
0.307884
31
0.0
0
LINE
8
FRONT
10
8.887500
20
0.307884
30
0.0
11
9.000000
21
0.301362
31
0.0
0
LINE
8
FRONT
10
0.000000
20
-0.301362
30
0.0
11
0.112500
21
-0.307884
31
0.0
0
LINE
8
FRONT
10
0.112500
20
-0.307884
30
0.0
11
0.225000
21
-0.314406
31
0.0
0
LINE
8
FRONT
10
0.225000
20
-0.314406
30
0.0
11
0.337500
21
-0.320928
31
0.0
0
LINE
8
FRONT
10
0.337500
20
-0.320928
30
0.0
11
0.450000
21
-0.327451
31
0.0
0
LINE
8
FRONT
10
0.450000
20
-0.327451
30
0.0
11
0.500000
21
-0.330349
31
0.0
0
LINE
8
FRONT
10
0.500000
20
-0.330349
30
0.0
11
0.562500
21
-0.333973
31
0.0
0
LINE
8
FRONT
10
0.562500
20
-0.333973
30
0.0
11
0.675000
21
-0.340495
31
0.0
0
LINE
8
FRONT
10
0.675000
20
-0.340495
30
0.0
11
0.787500
21
-0.347017
31
0.0
0
LINE
8
FRONT
10
0.787500
20
-0.347017
30
0.0
11
0.900000
21
-0.353540
31
0.0
0
LINE
8
FRONT
10
0.900000
20
-0.353540
30
0.0
11
1.012500
21
-0.360062
31
0.0
0
LINE
8
FRONT
10
1.012500
20
-0.360062
30
0.0
11
1.125000
21
-0.366584
31
0.0
0
LINE
8
FRONT
10
1.125000
20
-0.366584
30
0.0
11
1.237500
21
-0.373107
31
0.0
0
LINE
8
FRONT
10
1.237500
20
-0.373107
30
0.0
11
1.350000
21
-0.379629
31
0.0
0
LINE
8
FRONT
10
1.350000
20
-0.379629
30
0.0
11
1.462500
21
-0.386151
31
0.0
0
LINE
8
FRONT
10
1.462500
20
-0.386151
30
0.0
11
1.575000
21
-0.392673
31
0.0
0
LINE
8
FRONT
10
1.575000
20
-0.392673
30
0.0
11
1.687500
21
-0.399196
31
0.0
0
LINE
8
FRONT
10
1.687500
20
-0.399196
30
0.0
11
1.800000
21
-0.405718
31
0.0
0
LINE
8
FRONT
10
1.800000
20
-0.405718
30
0.0
11
1.912500
21
-0.412240
31
0.0
0
LINE
8
FRONT
10
1.912500
20
-0.412240
30
0.0
11
2.025000
21
-0.418762
31
0.0
0
LINE
8
FRONT
10
2.025000
20
-0.418762
30
0.0
11
2.137500
21
-0.425285
31
0.0
0
LINE
8
FRONT
10
2.137500
20
-0.425285
30
0.0
11
2.250000
21
-0.431807
31
0.0
0
LINE
8
FRONT
10
2.250000
20
-0.431807
30
0.0
11
2.362500
21
-0.438329
31
0.0
0
LINE
8
FRONT
10
2.362500
20
-0.438329
30
0.0
11
2.475000
21
-0.444851
31
0.0
0
LINE
8
FRONT
10
2.475000
20
-0.444851
30
0.0
11
2.587500
21
-0.451374
31
0.0
0
LINE
8
FRONT
10
2.587500
20
-0.451374
30
0.0
11
2.700000
21
-0.457896
31
0.0
0
LINE
8
FRONT
10
2.700000
20
-0.457896
30
0.0
11
2.812500
21
-0.464418
31
0.0
0
LINE
8
FRONT
10
2.812500
20
-0.464418
30
0.0
11
2.925000
21
-0.470940
31
0.0
0
LINE
8
FRONT
10
2.925000
20
-0.470940
30
0.0
11
3.037500
21
-0.477463
31
0.0
0
LINE
8
FRONT
10
3.037500
20
-0.477463
30
0.0
11
3.150000
21
-0.483985
31
0.0
0
LINE
8
FRONT
10
3.150000
20
-0.483985
30
0.0
11
3.262500
21
-0.490507
31
0.0
0
LINE
8
FRONT
10
3.262500
20
-0.490507
30
0.0
11
3.375000
21
-0.497030
31
0.0
0
LINE
8
FRONT
10
3.375000
20
-0.497030
30
0.0
11
3.487500
21
-0.503552
31
0.0
0
LINE
8
FRONT
10
3.487500
20
-0.503552
30
0.0
11
3.600000
21
-0.510074
31
0.0
0
LINE
8
FRONT
10
3.600000
20
-0.510074
30
0.0
11
3.712500
21
-0.516596
31
0.0
0
LINE
8
FRONT
10
3.712500
20
-0.516596
30
0.0
11
3.825000
21
-0.523119
31
0.0
0
LINE
8
FRONT
10
3.825000
20
-0.523119
30
0.0
11
3.937500
21
-0.529641
31
0.0
0
LINE
8
FRONT
10
3.937500
20
-0.529641
30
0.0
11
4.050000
21
-0.536163
31
0.0
0
LINE
8
FRONT
10
4.050000
20
-0.536163
30
0.0
11
4.162500
21
-0.542685
31
0.0
0
LINE
8
FRONT
10
4.162500
20
-0.542685
30
0.0
11
4.275000
21
-0.549208
31
0.0
0
LINE
8
FRONT
10
4.275000
20
-0.549208
30
0.0
11
4.387500
21
-0.555730
31
0.0
0
LINE
8
FRONT
10
4.387500
20
-0.555730
30
0.0
11
4.500000
21
-0.562252
31
0.0
0
LINE
8
FRONT
10
4.500000
20
-0.562252
30
0.0
11
4.612500
21
-0.555730
31
0.0
0
LINE
8
FRONT
10
4.612500
20
-0.555730
30
0.0
11
4.725000
21
-0.549208
31
0.0
0
LINE
8
FRONT
10
4.725000
20
-0.549208
30
0.0
11
4.837500
21
-0.542685
31
0.0
0
LINE
8
FRONT
10
4.837500
20
-0.542685
30
0.0
11
4.950000
21
-0.536163
31
0.0
0
LINE
8
FRONT
10
4.950000
20
-0.536163
30
0.0
11
5.062500
21
-0.529641
31
0.0
0
LINE
8
FRONT
10
5.062500
20
-0.529641
30
0.0
11
5.175000
21
-0.523119
31
0.0
0
LINE
8
FRONT
10
5.175000
20
-0.523119
30
0.0
11
5.287500
21
-0.516596
31
0.0
0
LINE
8
FRONT
10
5.287500
20
-0.516596
30
0.0
11
5.400000
21
-0.510074
31
0.0
0
LINE
8
FRONT
10
5.400000
20
-0.510074
30
0.0
11
5.512500
21
-0.503552
31
0.0
0
LINE
8
FRONT
10
5.512500
20
-0.503552
30
0.0
11
5.625000
21
-0.497030
31
0.0
0
LINE
8
FRONT
10
5.625000
20
-0.497030
30
0.0
11
5.737500
21
-0.490507
31
0.0
0
LINE
8
FRONT
10
5.737500
20
-0.490507
30
0.0
11
5.850000
21
-0.483985
31
0.0
0
LINE
8
FRONT
10
5.850000
20
-0.483985
30
0.0
11
5.962500
21
-0.477463
31
0.0
0
LINE
8
FRONT
10
5.962500
20
-0.477463
30
0.0
11
6.075000
21
-0.470940
31
0.0
0
LINE
8
FRONT
10
6.075000
20
-0.470940
30
0.0
11
6.187500
21
-0.464418
31
0.0
0
LINE
8
FRONT
10
6.187500
20
-0.464418
30
0.0
11
6.300000
21
-0.457896
31
0.0
0
LINE
8
FRONT
10
6.300000
20
-0.457896
30
0.0
11
6.412500
21
-0.451374
31
0.0
0
LINE
8
FRONT
10
6.412500
20
-0.451374
30
0.0
11
6.525000
21
-0.444851
31
0.0
0
LINE
8
FRONT
10
6.525000
20
-0.444851
30
0.0
11
6.637500
21
-0.438329
31
0.0
0
LINE
8
FRONT
10
6.637500
20
-0.438329
30
0.0
11
6.750000
21
-0.431807
31
0.0
0
LINE
8
FRONT
10
6.750000
20
-0.431807
30
0.0
11
6.862500
21
-0.425285
31
0.0
0
LINE
8
FRONT
10
6.862500
20
-0.425285
30
0.0
11
6.975000
21
-0.418762
31
0.0
0
LINE
8
FRONT
10
6.975000
20
-0.418762
30
0.0
11
7.087500
21
-0.412240
31
0.0
0
LINE
8
FRONT
10
7.087500
20
-0.412240
30
0.0
11
7.200000
21
-0.405718
31
0.0
0
LINE
8
FRONT
10
7.200000
20
-0.405718
30
0.0
11
7.312500
21
-0.399196
31
0.0
0
LINE
8
FRONT
10
7.312500
20
-0.399196
30
0.0
11
7.425000
21
-0.392673
31
0.0
0
LINE
8
FRONT
10
7.425000
20
-0.392673
30
0.0
11
7.537500
21
-0.386151
31
0.0
0
LINE
8
FRONT
10
7.537500
20
-0.386151
30
0.0
11
7.650000
21
-0.379629
31
0.0
0
LINE
8
FRONT
10
7.650000
20
-0.379629
30
0.0
11
7.762500
21
-0.373107
31
0.0
0
LINE
8
FRONT
10
7.762500
20
-0.373107
30
0.0
11
7.875000
21
-0.366584
31
0.0
0
LINE
8
FRONT
10
7.875000
20
-0.366584
30
0.0
11
7.987500
21
-0.360062
31
0.0
0
LINE
8
FRONT
10
7.987500
20
-0.360062
30
0.0
11
8.100000
21
-0.353540
31
0.0
0
LINE
8
FRONT
10
8.100000
20
-0.353540
30
0.0
11
8.212500
21
-0.347017
31
0.0
0
LINE
8
FRONT
10
8.212500
20
-0.347017
30
0.0
11
8.325000
21
-0.340495
31
0.0
0
LINE
8
FRONT
10
8.325000
20
-0.340495
30
0.0
11
8.437500
21
-0.333973
31
0.0
0
LINE
8
FRONT
10
8.437500
20
-0.333973
30
0.0
11
8.500000
21
-0.330349
31
0.0
0
LINE
8
FRONT
10
8.500000
20
-0.330349
30
0.0
11
8.550000
21
-0.327451
31
0.0
0
LINE
8
FRONT
10
8.550000
20
-0.327451
30
0.0
11
8.662500
21
-0.320928
31
0.0
0
LINE
8
FRONT
10
8.662500
20
-0.320928
30
0.0
11
8.775000
21
-0.314406
31
0.0
0
LINE
8
FRONT
10
8.775000
20
-0.314406
30
0.0
11
8.887500
21
-0.307884
31
0.0
0
LINE
8
FRONT
10
8.887500
20
-0.307884
30
0.0
11
9.000000
21
-0.301362
31
0.0
0
LINE
8
FRONT
10
0.000000
20
0.301362
30
0.0
11
0.000000
21
-0.301362
31
0.0
0
LINE
8
FRONT
10
9.000000
20
0.301362
30
0.0
11
9.000000
21
-0.301362
31
0.0
0
LINE
8
TOP
10
0.000000
20
2.562299
30
0.0
11
0.112500
21
2.564931
31
0.0
0
LINE
8
TOP
10
0.112500
20
2.564931
30
0.0
11
0.225000
21
2.567563
31
0.0
0
LINE
8
TOP
10
0.225000
20
2.567563
30
0.0
11
0.337500
21
2.570194
31
0.0
0
LINE
8
TOP
10
0.337500
20
2.570194
30
0.0
11
0.450000
21
2.572826
31
0.0
0
LINE
8
TOP
10
0.450000
20
2.572826
30
0.0
11
0.500000
21
2.573996
31
0.0
0
LINE
8
TOP
10
0.500000
20
2.573996
30
0.0
11
0.562500
21
2.575458
31
0.0
0
LINE
8
TOP
10
0.562500
20
2.575458
30
0.0
11
0.675000
21
2.578090
31
0.0
0
LINE
8
TOP
10
0.675000
20
2.578090
30
0.0
11
0.787500
21
2.580722
31
0.0
0
LINE
8
TOP
10
0.787500
20
2.580722
30
0.0
11
0.900000
21
2.583353
31
0.0
0
LINE
8
TOP
10
0.900000
20
2.583353
30
0.0
11
1.012500
21
2.585985
31
0.0
0
LINE
8
TOP
10
1.012500
20
2.585985
30
0.0
11
1.125000
21
2.588617
31
0.0
0
LINE
8
TOP
10
1.125000
20
2.588617
30
0.0
11
1.237500
21
2.591249
31
0.0
0
LINE
8
TOP
10
1.237500
20
2.591249
30
0.0
11
1.350000
21
2.593881
31
0.0
0
LINE
8
TOP
10
1.350000
20
2.593881
30
0.0
11
1.462500
21
2.596513
31
0.0
0
LINE
8
TOP
10
1.462500
20
2.596513
30
0.0
11
1.575000
21
2.599144
31
0.0
0
LINE
8
TOP
10
1.575000
20
2.599144
30
0.0
11
1.687500
21
2.601776
31
0.0
0
LINE
8
TOP
10
1.687500
20
2.601776
30
0.0
11
1.800000
21
2.604408
31
0.0
0
LINE
8
TOP
10
1.800000
20
2.604408
30
0.0
11
1.912500
21
2.607040
31
0.0
0
LINE
8
TOP
10
1.912500
20
2.607040
30
0.0
11
2.025000
21
2.609672
31
0.0
0
LINE
8
TOP
10
2.025000
20
2.609672
30
0.0
11
2.137500
21
2.612303
31
0.0
0
LINE
8
TOP
10
2.137500
20
2.612303
30
0.0
11
2.250000
21
2.614935
31
0.0
0
LINE
8
TOP
10
2.250000
20
2.614935
30
0.0
11
2.362500
21
2.617567
31
0.0
0
LINE
8
TOP
10
2.362500
20
2.617567
30
0.0
11
2.475000
21
2.620199
31
0.0
0
LINE
8
TOP
10
2.475000
20
2.620199
30
0.0
11
2.587500
21
2.622831
31
0.0
0
LINE
8
TOP
10
2.587500
20
2.622831
30
0.0
11
2.700000
21
2.625463
31
0.0
0
LINE
8
TOP
10
2.700000
20
2.625463
30
0.0
11
2.812500
21
2.628094
31
0.0
0
LINE
8
TOP
10
2.812500
20
2.628094
30
0.0
11
2.925000
21
2.630726
31
0.0
0
LINE
8
TOP
10
2.925000
20
2.630726
30
0.0
11
3.037500
21
2.633358
31
0.0
0
LINE
8
TOP
10
3.037500
20
2.633358
30
0.0
11
3.150000
21
2.635990
31
0.0
0
LINE
8
TOP
10
3.150000
20
2.635990
30
0.0
11
3.262500
21
2.638622
31
0.0
0
LINE
8
TOP
10
3.262500
20
2.638622
30
0.0
11
3.375000
21
2.641253
31
0.0
0
LINE
8
TOP
10
3.375000
20
2.641253
30
0.0
11
3.487500
21
2.643885
31
0.0
0
LINE
8
TOP
10
3.487500
20
2.643885
30
0.0
11
3.600000
21
2.646517
31
0.0
0
LINE
8
TOP
10
3.600000
20
2.646517
30
0.0
11
3.712500
21
2.649149
31
0.0
0
LINE
8
TOP
10
3.712500
20
2.649149
30
0.0
11
3.825000
21
2.651781
31
0.0
0
LINE
8
TOP
10
3.825000
20
2.651781
30
0.0
11
3.937500
21
2.654412
31
0.0
0
LINE
8
TOP
10
3.937500
20
2.654412
30
0.0
11
4.050000
21
2.657044
31
0.0
0
LINE
8
TOP
10
4.050000
20
2.657044
30
0.0
11
4.162500
21
2.659676
31
0.0
0
LINE
8
TOP
10
4.162500
20
2.659676
30
0.0
11
4.275000
21
2.662308
31
0.0
0
LINE
8
TOP
10
4.275000
20
2.662308
30
0.0
11
4.387500
21
2.664940
31
0.0
0
LINE
8
TOP
10
4.387500
20
2.664940
30
0.0
11
4.500000
21
2.667572
31
0.0
0
LINE
8
TOP
10
4.500000
20
2.667572
30
0.0
11
4.612500
21
2.664940
31
0.0
0
LINE
8
TOP
10
4.612500
20
2.664940
30
0.0
11
4.725000
21
2.662308
31
0.0
0
LINE
8
TOP
10
4.725000
20
2.662308
30
0.0
11
4.837500
21
2.659676
31
0.0
0
LINE
8
TOP
10
4.837500
20
2.659676
30
0.0
11
4.950000
21
2.657044
31
0.0
0
LINE
8
TOP
10
4.950000
20
2.657044
30
0.0
11
5.062500
21
2.654412
31
0.0
0
LINE
8
TOP
10
5.062500
20
2.654412
30
0.0
11
5.175000
21
2.651781
31
0.0
0
LINE
8
TOP
10
5.175000
20
2.651781
30
0.0
11
5.287500
21
2.649149
31
0.0
0
LINE
8
TOP
10
5.287500
20
2.649149
30
0.0
11
5.400000
21
2.646517
31
0.0
0
LINE
8
TOP
10
5.400000
20
2.646517
30
0.0
11
5.512500
21
2.643885
31
0.0
0
LINE
8
TOP
10
5.512500
20
2.643885
30
0.0
11
5.625000
21
2.641253
31
0.0
0
LINE
8
TOP
10
5.625000
20
2.641253
30
0.0
11
5.737500
21
2.638622
31
0.0
0
LINE
8
TOP
10
5.737500
20
2.638622
30
0.0
11
5.850000
21
2.635990
31
0.0
0
LINE
8
TOP
10
5.850000
20
2.635990
30
0.0
11
5.962500
21
2.633358
31
0.0
0
LINE
8
TOP
10
5.962500
20
2.633358
30
0.0
11
6.075000
21
2.630726
31
0.0
0
LINE
8
TOP
10
6.075000
20
2.630726
30
0.0
11
6.187500
21
2.628094
31
0.0
0
LINE
8
TOP
10
6.187500
20
2.628094
30
0.0
11
6.300000
21
2.625463
31
0.0
0
LINE
8
TOP
10
6.300000
20
2.625463
30
0.0
11
6.412500
21
2.622831
31
0.0
0
LINE
8
TOP
10
6.412500
20
2.622831
30
0.0
11
6.525000
21
2.620199
31
0.0
0
LINE
8
TOP
10
6.525000
20
2.620199
30
0.0
11
6.637500
21
2.617567
31
0.0
0
LINE
8
TOP
10
6.637500
20
2.617567
30
0.0
11
6.750000
21
2.614935
31
0.0
0
LINE
8
TOP
10
6.750000
20
2.614935
30
0.0
11
6.862500
21
2.612303
31
0.0
0
LINE
8
TOP
10
6.862500
20
2.612303
30
0.0
11
6.975000
21
2.609672
31
0.0
0
LINE
8
TOP
10
6.975000
20
2.609672
30
0.0
11
7.087500
21
2.607040
31
0.0
0
LINE
8
TOP
10
7.087500
20
2.607040
30
0.0
11
7.200000
21
2.604408
31
0.0
0
LINE
8
TOP
10
7.200000
20
2.604408
30
0.0
11
7.312500
21
2.601776
31
0.0
0
LINE
8
TOP
10
7.312500
20
2.601776
30
0.0
11
7.425000
21
2.599144
31
0.0
0
LINE
8
TOP
10
7.425000
20
2.599144
30
0.0
11
7.537500
21
2.596513
31
0.0
0
LINE
8
TOP
10
7.537500
20
2.596513
30
0.0
11
7.650000
21
2.593881
31
0.0
0
LINE
8
TOP
10
7.650000
20
2.593881
30
0.0
11
7.762500
21
2.591249
31
0.0
0
LINE
8
TOP
10
7.762500
20
2.591249
30
0.0
11
7.875000
21
2.588617
31
0.0
0
LINE
8
TOP
10
7.875000
20
2.588617
30
0.0
11
7.987500
21
2.585985
31
0.0
0
LINE
8
TOP
10
7.987500
20
2.585985
30
0.0
11
8.100000
21
2.583353
31
0.0
0
LINE
8
TOP
10
8.100000
20
2.583353
30
0.0
11
8.212500
21
2.580722
31
0.0
0
LINE
8
TOP
10
8.212500
20
2.580722
30
0.0
11
8.325000
21
2.578090
31
0.0
0
LINE
8
TOP
10
8.325000
20
2.578090
30
0.0
11
8.437500
21
2.575458
31
0.0
0
LINE
8
TOP
10
8.437500
20
2.575458
30
0.0
11
8.500000
21
2.573996
31
0.0
0
LINE
8
TOP
10
8.500000
20
2.573996
30
0.0
11
8.550000
21
2.572826
31
0.0
0
LINE
8
TOP
10
8.550000
20
2.572826
30
0.0
11
8.662500
21
2.570194
31
0.0
0
LINE
8
TOP
10
8.662500
20
2.570194
30
0.0
11
8.775000
21
2.567563
31
0.0
0
LINE
8
TOP
10
8.775000
20
2.567563
30
0.0
11
8.887500
21
2.564931
31
0.0
0
LINE
8
TOP
10
8.887500
20
2.564931
30
0.0
11
9.000000
21
2.562299
31
0.0
0
LINE
8
TOP
10
0.000000
20
2.311214
30
0.0
11
0.112500
21
2.308582
31
0.0
0
LINE
8
TOP
10
0.112500
20
2.308582
30
0.0
11
0.225000
21
2.305951
31
0.0
0
LINE
8
TOP
10
0.225000
20
2.305951
30
0.0
11
0.337500
21
2.303319
31
0.0
0
LINE
8
TOP
10
0.337500
20
2.303319
30
0.0
11
0.450000
21
2.300687
31
0.0
0
LINE
8
TOP
10
0.450000
20
2.300687
30
0.0
11
0.500000
21
2.299517
31
0.0
0
LINE
8
TOP
10
0.500000
20
2.299517
30
0.0
11
0.562500
21
2.298055
31
0.0
0
LINE
8
TOP
10
0.562500
20
2.298055
30
0.0
11
0.675000
21
2.295423
31
0.0
0
LINE
8
TOP
10
0.675000
20
2.295423
30
0.0
11
0.787500
21
2.292791
31
0.0
0
LINE
8
TOP
10
0.787500
20
2.292791
30
0.0
11
0.900000
21
2.290160
31
0.0
0
LINE
8
TOP
10
0.900000
20
2.290160
30
0.0
11
1.012500
21
2.287528
31
0.0
0
LINE
8
TOP
10
1.012500
20
2.287528
30
0.0
11
1.125000
21
2.284896
31
0.0
0
LINE
8
TOP
10
1.125000
20
2.284896
30
0.0
11
1.237500
21
2.282264
31
0.0
0
LINE
8
TOP
10
1.237500
20
2.282264
30
0.0
11
1.350000
21
2.279632
31
0.0
0
LINE
8
TOP
10
1.350000
20
2.279632
30
0.0
11
1.462500
21
2.277001
31
0.0
0
LINE
8
TOP
10
1.462500
20
2.277001
30
0.0
11
1.575000
21
2.274369
31
0.0
0
LINE
8
TOP
10
1.575000
20
2.274369
30
0.0
11
1.687500
21
2.271737
31
0.0
0
LINE
8
TOP
10
1.687500
20
2.271737
30
0.0
11
1.800000
21
2.269105
31
0.0
0
LINE
8
TOP
10
1.800000
20
2.269105
30
0.0
11
1.912500
21
2.266473
31
0.0
0
LINE
8
TOP
10
1.912500
20
2.266473
30
0.0
11
2.025000
21
2.263841
31
0.0
0
LINE
8
TOP
10
2.025000
20
2.263841
30
0.0
11
2.137500
21
2.261210
31
0.0
0
LINE
8
TOP
10
2.137500
20
2.261210
30
0.0
11
2.250000
21
2.258578
31
0.0
0
LINE
8
TOP
10
2.250000
20
2.258578
30
0.0
11
2.362500
21
2.255946
31
0.0
0
LINE
8
TOP
10
2.362500
20
2.255946
30
0.0
11
2.475000
21
2.253314
31
0.0
0
LINE
8
TOP
10
2.475000
20
2.253314
30
0.0
11
2.587500
21
2.250682
31
0.0
0
LINE
8
TOP
10
2.587500
20
2.250682
30
0.0
11
2.700000
21
2.248051
31
0.0
0
LINE
8
TOP
10
2.700000
20
2.248051
30
0.0
11
2.812500
21
2.245419
31
0.0
0
LINE
8
TOP
10
2.812500
20
2.245419
30
0.0
11
2.925000
21
2.242787
31
0.0
0
LINE
8
TOP
10
2.925000
20
2.242787
30
0.0
11
3.037500
21
2.240155
31
0.0
0
LINE
8
TOP
10
3.037500
20
2.240155
30
0.0
11
3.150000
21
2.237523
31
0.0
0
LINE
8
TOP
10
3.150000
20
2.237523
30
0.0
11
3.262500
21
2.234891
31
0.0
0
LINE
8
TOP
10
3.262500
20
2.234891
30
0.0
11
3.375000
21
2.232260
31
0.0
0
LINE
8
TOP
10
3.375000
20
2.232260
30
0.0
11
3.487500
21
2.229628
31
0.0
0
LINE
8
TOP
10
3.487500
20
2.229628
30
0.0
11
3.600000
21
2.226996
31
0.0
0
LINE
8
TOP
10
3.600000
20
2.226996
30
0.0
11
3.712500
21
2.224364
31
0.0
0
LINE
8
TOP
10
3.712500
20
2.224364
30
0.0
11
3.825000
21
2.221732
31
0.0
0
LINE
8
TOP
10
3.825000
20
2.221732
30
0.0
11
3.937500
21
2.219101
31
0.0
0
LINE
8
TOP
10
3.937500
20
2.219101
30
0.0
11
4.050000
21
2.216469
31
0.0
0
LINE
8
TOP
10
4.050000
20
2.216469
30
0.0
11
4.162500
21
2.213837
31
0.0
0
LINE
8
TOP
10
4.162500
20
2.213837
30
0.0
11
4.275000
21
2.211205
31
0.0
0
LINE
8
TOP
10
4.275000
20
2.211205
30
0.0
11
4.387500
21
2.208573
31
0.0
0
LINE
8
TOP
10
4.387500
20
2.208573
30
0.0
11
4.500000
21
2.205941
31
0.0
0
LINE
8
TOP
10
4.500000
20
2.205941
30
0.0
11
4.612500
21
2.208573
31
0.0
0
LINE
8
TOP
10
4.612500
20
2.208573
30
0.0
11
4.725000
21
2.211205
31
0.0
0
LINE
8
TOP
10
4.725000
20
2.211205
30
0.0
11
4.837500
21
2.213837
31
0.0
0
LINE
8
TOP
10
4.837500
20
2.213837
30
0.0
11
4.950000
21
2.216469
31
0.0
0
LINE
8
TOP
10
4.950000
20
2.216469
30
0.0
11
5.062500
21
2.219101
31
0.0
0
LINE
8
TOP
10
5.062500
20
2.219101
30
0.0
11
5.175000
21
2.221732
31
0.0
0
LINE
8
TOP
10
5.175000
20
2.221732
30
0.0
11
5.287500
21
2.224364
31
0.0
0
LINE
8
TOP
10
5.287500
20
2.224364
30
0.0
11
5.400000
21
2.226996
31
0.0
0
LINE
8
TOP
10
5.400000
20
2.226996
30
0.0
11
5.512500
21
2.229628
31
0.0
0
LINE
8
TOP
10
5.512500
20
2.229628
30
0.0
11
5.625000
21
2.232260
31
0.0
0
LINE
8
TOP
10
5.625000
20
2.232260
30
0.0
11
5.737500
21
2.234891
31
0.0
0
LINE
8
TOP
10
5.737500
20
2.234891
30
0.0
11
5.850000
21
2.237523
31
0.0
0
LINE
8
TOP
10
5.850000
20
2.237523
30
0.0
11
5.962500
21
2.240155
31
0.0
0
LINE
8
TOP
10
5.962500
20
2.240155
30
0.0
11
6.075000
21
2.242787
31
0.0
0
LINE
8
TOP
10
6.075000
20
2.242787
30
0.0
11
6.187500
21
2.245419
31
0.0
0
LINE
8
TOP
10
6.187500
20
2.245419
30
0.0
11
6.300000
21
2.248051
31
0.0
0
LINE
8
TOP
10
6.300000
20
2.248051
30
0.0
11
6.412500
21
2.250682
31
0.0
0
LINE
8
TOP
10
6.412500
20
2.250682
30
0.0
11
6.525000
21
2.253314
31
0.0
0
LINE
8
TOP
10
6.525000
20
2.253314
30
0.0
11
6.637500
21
2.255946
31
0.0
0
LINE
8
TOP
10
6.637500
20
2.255946
30
0.0
11
6.750000
21
2.258578
31
0.0
0
LINE
8
TOP
10
6.750000
20
2.258578
30
0.0
11
6.862500
21
2.261210
31
0.0
0
LINE
8
TOP
10
6.862500
20
2.261210
30
0.0
11
6.975000
21
2.263841
31
0.0
0
LINE
8
TOP
10
6.975000
20
2.263841
30
0.0
11
7.087500
21
2.266473
31
0.0
0
LINE
8
TOP
10
7.087500
20
2.266473
30
0.0
11
7.200000
21
2.269105
31
0.0
0
LINE
8
TOP
10
7.200000
20
2.269105
30
0.0
11
7.312500
21
2.271737
31
0.0
0
LINE
8
TOP
10
7.312500
20
2.271737
30
0.0
11
7.425000
21
2.274369
31
0.0
0
LINE
8
TOP
10
7.425000
20
2.274369
30
0.0
11
7.537500
21
2.277001
31
0.0
0
LINE
8
TOP
10
7.537500
20
2.277001
30
0.0
11
7.650000
21
2.279632
31
0.0
0
LINE
8
TOP
10
7.650000
20
2.279632
30
0.0
11
7.762500
21
2.282264
31
0.0
0
LINE
8
TOP
10
7.762500
20
2.282264
30
0.0
11
7.875000
21
2.284896
31
0.0
0
LINE
8
TOP
10
7.875000
20
2.284896
30
0.0
11
7.987500
21
2.287528
31
0.0
0
LINE
8
TOP
10
7.987500
20
2.287528
30
0.0
11
8.100000
21
2.290160
31
0.0
0
LINE
8
TOP
10
8.100000
20
2.290160
30
0.0
11
8.212500
21
2.292791
31
0.0
0
LINE
8
TOP
10
8.212500
20
2.292791
30
0.0
11
8.325000
21
2.295423
31
0.0
0
LINE
8
TOP
10
8.325000
20
2.295423
30
0.0
11
8.437500
21
2.298055
31
0.0
0
LINE
8
TOP
10
8.437500
20
2.298055
30
0.0
11
8.500000
21
2.299517
31
0.0
0
LINE
8
TOP
10
8.500000
20
2.299517
30
0.0
11
8.550000
21
2.300687
31
0.0
0
LINE
8
TOP
10
8.550000
20
2.300687
30
0.0
11
8.662500
21
2.303319
31
0.0
0
LINE
8
TOP
10
8.662500
20
2.303319
30
0.0
11
8.775000
21
2.305951
31
0.0
0
LINE
8
TOP
10
8.775000
20
2.305951
30
0.0
11
8.887500
21
2.308582
31
0.0
0
LINE
8
TOP
10
8.887500
20
2.308582
30
0.0
11
9.000000
21
2.311214
31
0.0
0
LINE
8
TOP
10
0.000000
20
2.562299
30
0.0
11
0.000000
21
2.311214
31
0.0
0
LINE
8
TOP
10
9.000000
20
2.562299
30
0.0
11
9.000000
21
2.311214
31
0.0
0
LINE
8
SECTION
10
10.269185
20
-0.562252
30
0.0
11
10.730815
21
-0.562252
31
0.0
0
LINE
8
SECTION
10
10.730815
20
-0.562252
30
0.0
11
10.730815
21
0.562252
31
0.0
0
LINE
8
SECTION
10
10.730815
20
0.562252
30
0.0
11
10.269185
21
0.562252
31
0.0
0
LINE
8
SECTION
10
10.269185
20
0.562252
30
0.0
11
10.269185
21
-0.562252
31
0.0
0
LINE
8
SECTION
10
10.309185
20
-0.522252
30
0.0
11
10.690815
21
-0.522252
31
0.0
0
LINE
8
SECTION
10
10.690815
20
-0.522252
30
0.0
11
10.690815
21
0.522252
31
0.0
0
LINE
8
SECTION
10
10.690815
20
0.522252
30
0.0
11
10.309185
21
0.522252
31
0.0
0
LINE
8
SECTION
10
10.309185
20
0.522252
30
0.0
11
10.309185
21
-0.522252
31
0.0
0
LINE
8
SECTION
10
10.309185
20
0.405238
30
0.0
11
10.349185
21
0.405238
31
0.0
0
LINE
8
SECTION
10
10.349185
20
0.405238
30
0.0
11
10.349185
21
0.522252
31
0.0
0
LINE
8
SECTION
10
10.349185
20
0.522252
30
0.0
11
10.309185
21
0.522252
31
0.0
0
LINE
8
SECTION
10
10.309185
20
0.522252
30
0.0
11
10.309185
21
0.405238
31
0.0
0
LINE
8
SECTION
10
10.309185
20
-0.522252
30
0.0
11
10.349185
21
-0.522252
31
0.0
0
LINE
8
SECTION
10
10.349185
20
-0.522252
30
0.0
11
10.349185
21
-0.405238
31
0.0
0
LINE
8
SECTION
10
10.349185
20
-0.405238
30
0.0
11
10.309185
21
-0.405238
31
0.0
0
LINE
8
SECTION
10
10.309185
20
-0.405238
30
0.0
11
10.309185
21
-0.522252
31
0.0
0
LINE
8
SECTION
10
10.650815
20
0.405238
30
0.0
11
10.690815
21
0.405238
31
0.0
0
LINE
8
SECTION
10
10.690815
20
0.405238
30
0.0
11
10.690815
21
0.522252
31
0.0
0
LINE
8
SECTION
10
10.690815
20
0.522252
30
0.0
11
10.650815
21
0.522252
31
0.0
0
LINE
8
SECTION
10
10.650815
20
0.522252
30
0.0
11
10.650815
21
0.405238
31
0.0
0
LINE
8
SECTION
10
10.650815
20
-0.522252
30
0.0
11
10.690815
21
-0.522252
31
0.0
0
LINE
8
SECTION
10
10.690815
20
-0.522252
30
0.0
11
10.690815
21
-0.405238
31
0.0
0
LINE
8
SECTION
10
10.690815
20
-0.405238
30
0.0
11
10.650815
21
-0.405238
31
0.0
0
LINE
8
SECTION
10
10.650815
20
-0.405238
30
0.0
11
10.650815
21
-0.522252
31
0.0
0
ENDSEC
0
EOF
