0
SECTION
2
HEADER
9
$INSUNITS
70
1
0
ENDSEC
0
SECTION
2
ENTITIES
0
LINE
8
FRONT
10
0.000000
20
0.237252
30
0.0
11
0.112500
21
0.240141
31
0.0
0
LINE
8
FRONT
10
0.112500
20
0.240141
30
0.0
11
0.225000
21
0.243030
31
0.0
0
LINE
8
FRONT
10
0.225000
20
0.243030
30
0.0
11
0.337500
21
0.245919
31
0.0
0
LINE
8
FRONT
10
0.337500
20
0.245919
30
0.0
11
0.450000
21
0.248808
31
0.0
0
LINE
8
FRONT
10
0.450000
20
0.248808
30
0.0
11
0.500000
21
0.250092
31
0.0
0
LINE
8
FRONT
10
0.500000
20
0.250092
30
0.0
11
0.562500
21
0.251697
31
0.0
0
LINE
8
FRONT
10
0.562500
20
0.251697
30
0.0
11
0.675000
21
0.254586
31
0.0
0
LINE
8
FRONT
10
0.675000
20
0.254586
30
0.0
11
0.787500
21
0.257475
31
0.0
0
LINE
8
FRONT
10
0.787500
20
0.257475
30
0.0
11
0.900000
21
0.260364
31
0.0
0
LINE
8
FRONT
10
0.900000
20
0.260364
30
0.0
11
1.012500
21
0.263253
31
0.0
0
LINE
8
FRONT
10
1.012500
20
0.263253
30
0.0
11
1.125000
21
0.266142
31
0.0
0
LINE
8
FRONT
10
1.125000
20
0.266142
30
0.0
11
1.237500
21
0.269031
31
0.0
0
LINE
8
FRONT
10
1.237500
20
0.269031
30
0.0
11
1.350000
21
0.271920
31
0.0
0
LINE
8
FRONT
10
1.350000
20
0.271920
30
0.0
11
1.462500
21
0.274809
31
0.0
0
LINE
8
FRONT
10
1.462500
20
0.274809
30
0.0
11
1.575000
21
0.277698
31
0.0
0
LINE
8
FRONT
10
1.575000
20
0.277698
30
0.0
11
1.687500
21
0.280587
31
0.0
0
LINE
8
FRONT
10
1.687500
20
0.280587
30
0.0
11
1.800000
21
0.283476
31
0.0
0
LINE
8
FRONT
10
1.800000
20
0.283476
30
0.0
11
1.912500
21
0.286365
31
0.0
0
LINE
8
FRONT
10
1.912500
20
0.286365
30
0.0
11
2.025000
21
0.289253
31
0.0
0
LINE
8
FRONT
10
2.025000
20
0.289253
30
0.0
11
2.137500
21
0.292142
31
0.0
0
LINE
8
FRONT
10
2.137500
20
0.292142
30
0.0
11
2.250000
21
0.295031
31
0.0
0
LINE
8
FRONT
10
2.250000
20
0.295031
30
0.0
11
2.362500
21
0.297920
31
0.0
0
LINE
8
FRONT
10
2.362500
20
0.297920
30
0.0
11
2.475000
21
0.300809
31
0.0
0
LINE
8
FRONT
10
2.475000
20
0.300809
30
0.0
11
2.587500
21
0.303698
31
0.0
0
LINE
8
FRONT
10
2.587500
20
0.303698
30
0.0
11
2.700000
21
0.306587
31
0.0
0
LINE
8
FRONT
10
2.700000
20
0.306587
30
0.0
11
2.812500
21
0.309476
31
0.0
0
LINE
8
FRONT
10
2.812500
20
0.309476
30
0.0
11
2.925000
21
0.312365
31
0.0
0
LINE
8
FRONT
10
2.925000
20
0.312365
30
0.0
11
3.037500
21
0.315254
31
0.0
0
LINE
8
FRONT
10
3.037500
20
0.315254
30
0.0
11
3.150000
21
0.318143
31
0.0
0
LINE
8
FRONT
10
3.150000
20
0.318143
30
0.0
11
3.262500
21
0.321032
31
0.0
0
LINE
8
FRONT
10
3.262500
20
0.321032
30
0.0
11
3.375000
21
0.323921
31
0.0
0
LINE
8
FRONT
10
3.375000
20
0.323921
30
0.0
11
3.487500
21
0.326810
31
0.0
0
LINE
8
FRONT
10
3.487500
20
0.326810
30
0.0
11
3.600000
21
0.329699
31
0.0
0
LINE
8
FRONT
10
3.600000
20
0.329699
30
0.0
11
3.712500
21
0.332588
31
0.0
0
LINE
8
FRONT
10
3.712500
20
0.332588
30
0.0
11
3.825000
21
0.335477
31
0.0
0
LINE
8
FRONT
10
3.825000
20
0.335477
30
0.0
11
3.937500
21
0.338366
31
0.0
0
LINE
8
FRONT
10
3.937500
20
0.338366
30
0.0
11
4.050000
21
0.341255
31
0.0
0
LINE
8
FRONT
10
4.050000
20
0.341255
30
0.0
11
4.162500
21
0.344143
31
0.0
0
LINE
8
FRONT
10
4.162500
20
0.344143
30
0.0
11
4.275000
21
0.347032
31
0.0
0
LINE
8
FRONT
10
4.275000
20
0.347032
30
0.0
11
4.387500
21
0.349921
31
0.0
0
LINE
8
FRONT
10
4.387500
20
0.349921
30
0.0
11
4.500000
21
0.352810
31
0.0
0
LINE
8
FRONT
10
4.500000
20
0.352810
30
0.0
11
4.612500
21
0.349921
31
0.0
0
LINE
8
FRONT
10
4.612500
20
0.349921
30
0.0
11
4.725000
21
0.347032
31
0.0
0
LINE
8
FRONT
10
4.725000
20
0.347032
30
0.0
11
4.837500
21
0.344143
31
0.0
0
LINE
8
FRONT
10
4.837500
20
0.344143
30
0.0
11
4.950000
21
0.341255
31
0.0
0
LINE
8
FRONT
10
4.950000
20
0.341255
30
0.0
11
5.062500
21
0.338366
31
0.0
0
LINE
8
FRONT
10
5.062500
20
0.338366
30
0.0
11
5.175000
21
0.335477
31
0.0
0
LINE
8
FRONT
10
5.175000
20
0.335477
30
0.0
11
5.287500
21
0.332588
31
0.0
0
LINE
8
FRONT
10
5.287500
20
0.332588
30
0.0
11
5.400000
21
0.329699
31
0.0
0
LINE
8
FRONT
10
5.400000
20
0.329699
30
0.0
11
5.512500
21
0.326810
31
0.0
0
LINE
8
FRONT
10
5.512500
20
0.326810
30
0.0
11
5.625000
21
0.323921
31
0.0
0
LINE
8
FRONT
10
5.625000
20
0.323921
30
0.0
11
5.737500
21
0.321032
31
0.0
0
LINE
8
FRONT
10
5.737500
20
0.321032
30
0.0
11
5.850000
21
0.318143
31
0.0
0
LINE
8
FRONT
10
5.850000
20
0.318143
30
0.0
11
5.962500
21
0.315254
31
0.0
0
LINE
8
FRONT
10
5.962500
20
0.315254
30
0.0
11
6.075000
21
0.312365
31
0.0
0
LINE
8
FRONT
10
6.075000
20
0.312365
30
0.0
11
6.187500
21
0.309476
31
0.0
0
LINE
8
FRONT
10
6.187500
20
0.309476
30
0.0
11
6.300000
21
0.306587
31
0.0
0
LINE
8
FRONT
10
6.300000
20
0.306587
30
0.0
11
6.412500
21
0.303698
31
0.0
0
LINE
8
FRONT
10
6.412500
20
0.303698
30
0.0
11
6.525000
21
0.300809
31
0.0
0
LINE
8
FRONT
10
6.525000
20
0.300809
30
0.0
11
6.637500
21
0.297920
31
0.0
0
LINE
8
FRONT
10
6.637500
20
0.297920
30
0.0
11
6.750000
21
0.295031
31
0.0
0
LINE
8
FRONT
10
6.750000
20
0.295031
30
0.0
11
6.862500
21
0.292142
31
0.0
0
LINE
8
FRONT
10
6.862500
20
0.292142
30
0.0
11
6.975000
21
0.289253
31
0.0
0
LINE
8
FRONT
10
6.975000
20
0.289253
30
0.0
11
7.087500
21
0.286365
31
0.0
0
LINE
8
FRONT
10
7.087500
20
0.286365
30
0.0
11
7.200000
21
0.283476
31
0.0
0
LINE
8
FRONT
10
7.200000
20
0.283476
30
0.0
11
7.312500
21
0.280587
31
0.0
0
LINE
8
FRONT
10
7.312500
20
0.280587
30
0.0
11
7.425000
21
0.277698
31
0.0
0
LINE
8
FRONT
10
7.425000
20
0.277698
30
0.0
11
7.537500
21
0.274809
31
0.0
0
LINE
8
FRONT
10
7.537500
20
0.274809
30
0.0
11
7.650000
21
0.271920
31
0.0
0
LINE
8
FRONT
10
7.650000
20
0.271920
30
0.0
11
7.762500
21
0.269031
31
0.0
0
LINE
8
FRONT
10
7.762500
20
0.269031
30
0.0
11
7.875000
21
0.266142
31
0.0
0
LINE
8
FRONT
10
7.875000
20
0.266142
30
0.0
11
7.987500
21
0.263253
31
0.0
0
LINE
8
FRONT
10
7.987500
20
0.263253
30
0.0
11
8.100000
21
0.260364
31
0.0
0
LINE
8
FRONT
10
8.100000
20
0.260364
30
0.0
11
8.212500
21
0.257475
31
0.0
0
LINE
8
FRONT
10
8.212500
20
0.257475
30
0.0
11
8.325000
21
0.254586
31
0.0
0
LINE
8
FRONT
10
8.325000
20
0.254586
30
0.0
11
8.437500
21
0.251697
31
0.0
0
LINE
8
FRONT
10
8.437500
20
0.251697
30
0.0
11
8.500000
21
0.250092
31
0.0
0
LINE
8
FRONT
10
8.500000
20
0.250092
30
0.0
11
8.550000
21
0.248808
31
0.0
0
LINE
8
FRONT
10
8.550000
20
0.248808
30
0.0
11
8.662500
21
0.245919
31
0.0
0
LINE
8
FRONT
10
8.662500
20
0.245919
30
0.0
11
8.775000
21
0.243030
31
0.0
0
LINE
8
FRONT
10
8.775000
20
0.243030
30
0.0
11
8.887500
21
0.240141
31
0.0
0
LINE
8
FRONT
10
8.887500
20
0.240141
30
0.0
11
9.000000
21
0.237252
31
0.0
0
LINE
8
FRONT
10
0.000000
20
-0.237252
30
0.0
11
0.112500
21
-0.240141
31
0.0
0
LINE
8
FRONT
10
0.112500
20
-0.240141
30
0.0
11
0.225000
21
-0.243030
31
0.0
0
LINE
8
FRONT
10
0.225000
20
-0.243030
30
0.0
11
0.337500
21
-0.245919
31
0.0
0
LINE
8
FRONT
10
0.337500
20
-0.245919
30
0.0
11
0.450000
21
-0.248808
31
0.0
0
LINE
8
FRONT
10
0.450000
20
-0.248808
30
0.0
11
0.500000
21
-0.250092
31
0.0
0
LINE
8
FRONT
10
0.500000
20
-0.250092
30
0.0
11
0.562500
21
-0.251697
31
0.0
0
LINE
8
FRONT
10
0.562500
20
-0.251697
30
0.0
11
0.675000
21
-0.254586
31
0.0
0
LINE
8
FRONT
10
0.675000
20
-0.254586
30
0.0
11
0.787500
21
-0.257475
31
0.0
0
LINE
8
FRONT
10
0.787500
20
-0.257475
30
0.0
11
0.900000
21
-0.260364
31
0.0
0
LINE
8
FRONT
10
0.900000
20
-0.260364
30
0.0
11
1.012500
21
-0.263253
31
0.0
0
LINE
8
FRONT
10
1.012500
20
-0.263253
30
0.0
11
1.125000
21
-0.266142
31
0.0
0
LINE
8
FRONT
10
1.125000
20
-0.266142
30
0.0
11
1.237500
21
-0.269031
31
0.0
0
LINE
8
FRONT
10
1.237500
20
-0.269031
30
0.0
11
1.350000
21
-0.271920
31
0.0
0
LINE
8
FRONT
10
1.350000
20
-0.271920
30
0.0
11
1.462500
21
-0.274809
31
0.0
0
LINE
8
FRONT
10
1.462500
20
-0.274809
30
0.0
11
1.575000
21
-0.277698
31
0.0
0
LINE
8
FRONT
10
1.575000
20
-0.277698
30
0.0
11
1.687500
21
-0.280587
31
0.0
0
LINE
8
FRONT
10
1.687500
20
-0.280587
30
0.0
11
1.800000
21
-0.283476
31
0.0
0
LINE
8
FRONT
10
1.800000
20
-0.283476
30
0.0
11
1.912500
21
-0.286365
31
0.0
0
LINE
8
FRONT
10
1.912500
20
-0.286365
30
0.0
11
2.025000
21
-0.289253
31
0.0
0
LINE
8
FRONT
10
2.025000
20
-0.289253
30
0.0
11
2.137500
21
-0.292142
31
0.0
0
LINE
8
FRONT
10
2.137500
20
-0.292142
30
0.0
11
2.250000
21
-0.295031
31
0.0
0
LINE
8
FRONT
10
2.250000
20
-0.295031
30
0.0
11
2.362500
21
-0.297920
31
0.0
0
LINE
8
FRONT
10
2.362500
20
-0.297920
30
0.0
11
2.475000
21
-0.300809
31
0.0
0
LINE
8
FRONT
10
2.475000
20
-0.300809
30
0.0
11
2.587500
21
-0.303698
31
0.0
0
LINE
8
FRONT
10
2.587500
20
-0.303698
30
0.0
11
2.700000
21
-0.306587
31
0.0
0
LINE
8
FRONT
10
2.700000
20
-0.306587
30
0.0
11
2.812500
21
-0.309476
31
0.0
0
LINE
8
FRONT
10
2.812500
20
-0.309476
30
0.0
11
2.925000
21
-0.312365
31
0.0
0
LINE
8
FRONT
10
2.925000
20
-0.312365
30
0.0
11
3.037500
21
-0.315254
31
0.0
0
LINE
8
FRONT
10
3.037500
20
-0.315254
30
0.0
11
3.150000
21
-0.318143
31
0.0
0
LINE
8
FRONT
10
3.150000
20
-0.318143
30
0.0
11
3.262500
21
-0.321032
31
0.0
0
LINE
8
FRONT
10
3.262500
20
-0.321032
30
0.0
11
3.375000
21
-0.323921
31
0.0
0
LINE
8
FRONT
10
3.375000
20
-0.323921
30
0.0
11
3.487500
21
-0.326810
31
0.0
0
LINE
8
FRONT
10
3.487500
20
-0.326810
30
0.0
11
3.600000
21
-0.329699
31
0.0
0
LINE
8
FRONT
10
3.600000
20
-0.329699
30
0.0
11
3.712500
21
-0.332588
31
0.0
0
LINE
8
FRONT
10
3.712500
20
-0.332588
30
0.0
11
3.825000
21
-0.335477
31
0.0
0
LINE
8
FRONT
10
3.825000
20
-0.335477
30
0.0
11
3.937500
21
-0.338366
31
0.0
0
LINE
8
FRONT
10
3.937500
20
-0.338366
30
0.0
11
4.050000
21
-0.341255
31
0.0
0
LINE
8
FRONT
10
4.050000
20
-0.341255
30
0.0
11
4.162500
21
-0.344143
31
0.0
0
LINE
8
FRONT
10
4.162500
20
-0.344143
30
0.0
11
4.275000
21
-0.347032
31
0.0
0
LINE
8
FRONT
10
4.275000
20
-0.347032
30
0.0
11
4.387500
21
-0.349921
31
0.0
0
LINE
8
FRONT
10
4.387500
20
-0.349921
30
0.0
11
4.500000
21
-0.352810
31
0.0
0
LINE
8
FRONT
10
4.500000
20
-0.352810
30
0.0
11
4.612500
21
-0.349921
31
0.0
0
LINE
8
FRONT
10
4.612500
20
-0.349921
30
0.0
11
4.725000
21
-0.347032
31
0.0
0
LINE
8
FRONT
10
4.725000
20
-0.347032
30
0.0
11
4.837500
21
-0.344143
31
0.0
0
LINE
8
FRONT
10
4.837500
20
-0.344143
30
0.0
11
4.950000
21
-0.341255
31
0.0
0
LINE
8
FRONT
10
4.950000
20
-0.341255
30
0.0
11
5.062500
21
-0.338366
31
0.0
0
LINE
8
FRONT
10
5.062500
20
-0.338366
30
0.0
11
5.175000
21
-0.335477
31
0.0
0
LINE
8
FRONT
10
5.175000
20
-0.335477
30
0.0
11
5.287500
21
-0.332588
31
0.0
0
LINE
8
FRONT
10
5.287500
20
-0.332588
30
0.0
11
5.400000
21
-0.329699
31
0.0
0
LINE
8
FRONT
10
5.400000
20
-0.329699
30
0.0
11
5.512500
21
-0.326810
31
0.0
0
LINE
8
FRONT
10
5.512500
20
-0.326810
30
0.0
11
5.625000
21
-0.323921
31
0.0
0
LINE
8
FRONT
10
5.625000
20
-0.323921
30
0.0
11
5.737500
21
-0.321032
31
0.0
0
LINE
8
FRONT
10
5.737500
20
-0.321032
30
0.0
11
5.850000
21
-0.318143
31
0.0
0
LINE
8
FRONT
10
5.850000
20
-0.318143
30
0.0
11
5.962500
21
-0.315254
31
0.0
0
LINE
8
FRONT
10
5.962500
20
-0.315254
30
0.0
11
6.075000
21
-0.312365
31
0.0
0
LINE
8
FRONT
10
6.075000
20
-0.312365
30
0.0
11
6.187500
21
-0.309476
31
0.0
0
LINE
8
FRONT
10
6.187500
20
-0.309476
30
0.0
11
6.300000
21
-0.306587
31
0.0
0
LINE
8
FRONT
10
6.300000
20
-0.306587
30
0.0
11
6.412500
21
-0.303698
31
0.0
0
LINE
8
FRONT
10
6.412500
20
-0.303698
30
0.0
11
6.525000
21
-0.300809
31
0.0
0
LINE
8
FRONT
10
6.525000
20
-0.300809
30
0.0
11
6.637500
21
-0.297920
31
0.0
0
LINE
8
FRONT
10
6.637500
20
-0.297920
30
0.0
11
6.750000
21
-0.295031
31
0.0
0
LINE
8
FRONT
10
6.750000
20
-0.295031
30
0.0
11
6.862500
21
-0.292142
31
0.0
0
LINE
8
FRONT
10
6.862500
20
-0.292142
30
0.0
11
6.975000
21
-0.289253
31
0.0
0
LINE
8
FRONT
10
6.975000
20
-0.289253
30
0.0
11
7.087500
21
-0.286365
31
0.0
0
LINE
8
FRONT
10
7.087500
20
-0.286365
30
0.0
11
7.200000
21
-0.283476
31
0.0
0
LINE
8
FRONT
10
7.200000
20
-0.283476
30
0.0
11
7.312500
21
-0.280587
31
0.0
0
LINE
8
FRONT
10
7.312500
20
-0.280587
30
0.0
11
7.425000
21
-0.277698
31
0.0
0
LINE
8
FRONT
10
7.425000
20
-0.277698
30
0.0
11
7.537500
21
-0.274809
31
0.0
0
LINE
8
FRONT
10
7.537500
20
-0.274809
30
0.0
11
7.650000
21
-0.271920
31
0.0
0
LINE
8
FRONT
10
7.650000
20
-0.271920
30
0.0
11
7.762500
21
-0.269031
31
0.0
0
LINE
8
FRONT
10
7.762500
20
-0.269031
30
0.0
11
7.875000
21
-0.266142
31
0.0
0
LINE
8
FRONT
10
7.875000
20
-0.266142
30
0.0
11
7.987500
21
-0.263253
31
0.0
0
LINE
8
FRONT
10
7.987500
20
-0.263253
30
0.0
11
8.100000
21
-0.260364
31
0.0
0
LINE
8
FRONT
10
8.100000
20
-0.260364
30
0.0
11
8.212500
21
-0.257475
31
0.0
0
LINE
8
FRONT
10
8.212500
20
-0.257475
30
0.0
11
8.325000
21
-0.254586
31
0.0
0
LINE
8
FRONT
10
8.325000
20
-0.254586
30
0.0
11
8.437500
21
-0.251697
31
0.0
0
LINE
8
FRONT
10
8.437500
20
-0.251697
30
0.0
11
8.500000
21
-0.250092
31
0.0
0
LINE
8
FRONT
10
8.500000
20
-0.250092
30
0.0
11
8.550000
21
-0.248808
31
0.0
0
LINE
8
FRONT
10
8.550000
20
-0.248808
30
0.0
11
8.662500
21
-0.245919
31
0.0
0
LINE
8
FRONT
10
8.662500
20
-0.245919
30
0.0
11
8.775000
21
-0.243030
31
0.0
0
LINE
8
FRONT
10
8.775000
20
-0.243030
30
0.0
11
8.887500
21
-0.240141
31
0.0
0
LINE
8
FRONT
10
8.887500
20
-0.240141
30
0.0
11
9.000000
21
-0.237252
31
0.0
0
LINE
8
FRONT
10
0.000000
20
0.237252
30
0.0
11
0.000000
21
-0.237252
31
0.0
0
LINE
8
FRONT
10
9.000000
20
0.237252
30
0.0
11
9.000000
21
-0.237252
31
0.0
0
LINE
8
TOP
10
0.000000
20
1.945803
30
0.0
11
0.112500
21
1.949865
31
0.0
0
LINE
8
TOP
10
0.112500
20
1.949865
30
0.0
11
0.225000
21
1.953926
31
0.0
0
LINE
8
TOP
10
0.225000
20
1.953926
30
0.0
11
0.337500
21
1.957988
31
0.0
0
LINE
8
TOP
10
0.337500
20
1.957988
30
0.0
11
0.450000
21
1.962050
31
0.0
0
LINE
8
TOP
10
0.450000
20
1.962050
30
0.0
11
0.500000
21
1.963855
31
0.0
0
LINE
8
TOP
10
0.500000
20
1.963855
30
0.0
11
0.562500
21
1.966111
31
0.0
0
LINE
8
TOP
10
0.562500
20
1.966111
30
0.0
11
0.675000
21
1.970173
31
0.0
0
LINE
8
TOP
10
0.675000
20
1.970173
30
0.0
11
0.787500
21
1.974235
31
0.0
0
LINE
8
TOP
10
0.787500
20
1.974235
30
0.0
11
0.900000
21
1.978296
31
0.0
0
LINE
8
TOP
10
0.900000
20
1.978296
30
0.0
11
1.012500
21
1.982358
31
0.0
0
LINE
8
TOP
10
1.012500
20
1.982358
30
0.0
11
1.125000
21
1.986420
31
0.0
0
LINE
8
TOP
10
1.125000
20
1.986420
30
0.0
11
1.237500
21
1.990481
31
0.0
0
LINE
8
TOP
10
1.237500
20
1.990481
30
0.0
11
1.350000
21
1.994543
31
0.0
0
LINE
8
TOP
10
1.350000
20
1.994543
30
0.0
11
1.462500
21
1.998605
31
0.0
0
LINE
8
TOP
10
1.462500
20
1.998605
30
0.0
11
1.575000
21
2.002666
31
0.0
0
LINE
8
TOP
10
1.575000
20
2.002666
30
0.0
11
1.687500
21
2.006728
31
0.0
0
LINE
8
TOP
10
1.687500
20
2.006728
30
0.0
11
1.800000
21
2.010790
31
0.0
0
LINE
8
TOP
10
1.800000
20
2.010790
30
0.0
11
1.912500
21
2.014851
31
0.0
0
LINE
8
TOP
10
1.912500
20
2.014851
30
0.0
11
2.025000
21
2.018913
31
0.0
0
LINE
8
TOP
10
2.025000
20
2.018913
30
0.0
11
2.137500
21
2.022975
31
0.0
0
LINE
8
TOP
10
2.137500
20
2.022975
30
0.0
11
2.250000
21
2.027037
31
0.0
0
LINE
8
TOP
10
2.250000
20
2.027037
30
0.0
11
2.362500
21
2.031098
31
0.0
0
LINE
8
TOP
10
2.362500
20
2.031098
30
0.0
11
2.475000
21
2.035160
31
0.0
0
LINE
8
TOP
10
2.475000
20
2.035160
30
0.0
11
2.587500
21
2.039222
31
0.0
0
LINE
8
TOP
10
2.587500
20
2.039222
30
0.0
11
2.700000
21
2.043283
31
0.0
0
LINE
8
TOP
10
2.700000
20
2.043283
30
0.0
11
2.812500
21
2.047345
31
0.0
0
LINE
8
TOP
10
2.812500
20
2.047345
30
0.0
11
2.925000
21
2.051407
31
0.0
0
LINE
8
TOP
10
2.925000
20
2.051407
30
0.0
11
3.037500
21
2.055468
31
0.0
0
LINE
8
TOP
10
3.037500
20
2.055468
30
0.0
11
3.150000
21
2.059530
31
0.0
0
LINE
8
TOP
10
3.150000
20
2.059530
30
0.0
11
3.262500
21
2.063592
31
0.0
0
LINE
8
TOP
10
3.262500
20
2.063592
30
0.0
11
3.375000
21
2.067653
31
0.0
0
LINE
8
TOP
10
3.375000
20
2.067653
30
0.0
11
3.487500
21
2.071715
31
0.0
0
LINE
8
TOP
10
3.487500
20
2.071715
30
0.0
11
3.600000
21
2.075777
31
0.0
0
LINE
8
TOP
10
3.600000
20
2.075777
30
0.0
11
3.712500
21
2.079838
31
0.0
0
LINE
8
TOP
10
3.712500
20
2.079838
30
0.0
11
3.825000
21
2.083900
31
0.0
0
LINE
8
TOP
10
3.825000
20
2.083900
30
0.0
11
3.937500
21
2.087962
31
0.0
0
LINE
8
TOP
10
3.937500
20
2.087962
30
0.0
11
4.050000
21
2.092023
31
0.0
0
LINE
8
TOP
10
4.050000
20
2.092023
30
0.0
11
4.162500
21
2.096085
31
0.0
0
LINE
8
TOP
10
4.162500
20
2.096085
30
0.0
11
4.275000
21
2.100147
31
0.0
0
LINE
8
TOP
10
4.275000
20
2.100147
30
0.0
11
4.387500
21
2.104208
31
0.0
0
LINE
8
TOP
10
4.387500
20
2.104208
30
0.0
11
4.500000
21
2.108270
31
0.0
0
LINE
8
TOP
10
4.500000
20
2.108270
30
0.0
11
4.612500
21
2.104208
31
0.0
0
LINE
8
TOP
10
4.612500
20
2.104208
30
0.0
11
4.725000
21
2.100147
31
0.0
0
LINE
8
TOP
10
4.725000
20
2.100147
30
0.0
11
4.837500
21
2.096085
31
0.0
0
LINE
8
TOP
10
4.837500
20
2.096085
30
0.0
11
4.950000
21
2.092023
31
0.0
0
LINE
8
TOP
10
4.950000
20
2.092023
30
0.0
11
5.062500
21
2.087962
31
0.0
0
LINE
8
TOP
10
5.062500
20
2.087962
30
0.0
11
5.175000
21
2.083900
31
0.0
0
LINE
8
TOP
10
5.175000
20
2.083900
30
0.0
11
5.287500
21
2.079838
31
0.0
0
LINE
8
TOP
10
5.287500
20
2.079838
30
0.0
11
5.400000
21
2.075777
31
0.0
0
LINE
8
TOP
10
5.400000
20
2.075777
30
0.0
11
5.512500
21
2.071715
31
0.0
0
LINE
8
TOP
10
5.512500
20
2.071715
30
0.0
11
5.625000
21
2.067653
31
0.0
0
LINE
8
TOP
10
5.625000
20
2.067653
30
0.0
11
5.737500
21
2.063592
31
0.0
0
LINE
8
TOP
10
5.737500
20
2.063592
30
0.0
11
5.850000
21
2.059530
31
0.0
0
LINE
8
TOP
10
5.850000
20
2.059530
30
0.0
11
5.962500
21
2.055468
31
0.0
0
LINE
8
TOP
10
5.962500
20
2.055468
30
0.0
11
6.075000
21
2.051407
31
0.0
0
LINE
8
TOP
10
6.075000
20
2.051407
30
0.0
11
6.187500
21
2.047345
31
0.0
0
LINE
8
TOP
10
6.187500
20
2.047345
30
0.0
11
6.300000
21
2.043283
31
0.0
0
LINE
8
TOP
10
6.300000
20
2.043283
30
0.0
11
6.412500
21
2.039222
31
0.0
0
LINE
8
TOP
10
6.412500
20
2.039222
30
0.0
11
6.525000
21
2.035160
31
0.0
0
LINE
8
TOP
10
6.525000
20
2.035160
30
0.0
11
6.637500
21
2.031098
31
0.0
0
LINE
8
TOP
10
6.637500
20
2.031098
30
0.0
11
6.750000
21
2.027037
31
0.0
0
LINE
8
TOP
10
6.750000
20
2.027037
30
0.0
11
6.862500
21
2.022975
31
0.0
0
LINE
8
TOP
10
6.862500
20
2.022975
30
0.0
11
6.975000
21
2.018913
31
0.0
0
LINE
8
TOP
10
6.975000
20
2.018913
30
0.0
11
7.087500
21
2.014851
31
0.0
0
LINE
8
TOP
10
7.087500
20
2.014851
30
0.0
11
7.200000
21
2.010790
31
0.0
0
LINE
8
TOP
10
7.200000
20
2.010790
30
0.0
11
7.312500
21
2.006728
31
0.0
0
LINE
8
TOP
10
7.312500
20
2.006728
30
0.0
11
7.425000
21
2.002666
31
0.0
0
LINE
8
TOP
10
7.425000
20
2.002666
30
0.0
11
7.537500
21
1.998605
31
0.0
0
LINE
8
TOP
10
7.537500
20
1.998605
30
0.0
11
7.650000
21
1.994543
31
0.0
0
LINE
8
TOP
10
7.650000
20
1.994543
30
0.0
11
7.762500
21
1.990481
31
0.0
0
LINE
8
TOP
10
7.762500
20
1.990481
30
0.0
11
7.875000
21
1.986420
31
0.0
0
LINE
8
TOP
10
7.875000
20
1.986420
30
0.0
11
7.987500
21
1.982358
31
0.0
0
LINE
8
TOP
10
7.987500
20
1.982358
30
0.0
11
8.100000
21
1.978296
31
0.0
0
LINE
8
TOP
10
8.100000
20
1.978296
30
0.0
11
8.212500
21
1.974235
31
0.0
0
LINE
8
TOP
10
8.212500
20
1.974235
30
0.0
11
8.325000
21
1.970173
31
0.0
0
LINE
8
TOP
10
8.325000
20
1.970173
30
0.0
11
8.437500
21
1.966111
31
0.0
0
LINE
8
TOP
10
8.437500
20
1.966111
30
0.0
11
8.500000
21
1.963855
31
0.0
0
LINE
8
TOP
10
8.500000
20
1.963855
30
0.0
11
8.550000
21
1.962050
31
0.0
0
LINE
8
TOP
10
8.550000
20
1.962050
30
0.0
11
8.662500
21
1.957988
31
0.0
0
LINE
8
TOP
10
8.662500
20
1.957988
30
0.0
11
8.775000
21
1.953926
31
0.0
0
LINE
8
TOP
10
8.775000
20
1.953926
30
0.0
11
8.887500
21
1.949865
31
0.0
0
LINE
8
TOP
10
8.887500
20
1.949865
30
0.0
11
9.000000
21
1.945803
31
0.0
0
LINE
8
TOP
10
0.000000
20
1.671059
30
0.0
11
0.112500
21
1.666997
31
0.0
0
LINE
8
TOP
10
0.112500
20
1.666997
30
0.0
11
0.225000
21
1.662935
31
0.0
0
LINE
8
TOP
10
0.225000
20
1.662935
30
0.0
11
0.337500
21
1.658874
31
0.0
0
LINE
8
TOP
10
0.337500
20
1.658874
30
0.0
11
0.450000
21
1.654812
31
0.0
0
LINE
8
TOP
10
0.450000
20
1.654812
30
0.0
11
0.500000
21
1.653007
31
0.0
0
LINE
8
TOP
10
0.500000
20
1.653007
30
0.0
11
0.562500
21
1.650750
31
0.0
0
LINE
8
TOP
10
0.562500
20
1.650750
30
0.0
11
0.675000
21
1.646689
31
0.0
0
LINE
8
TOP
10
0.675000
20
1.646689
30
0.0
11
0.787500
21
1.642627
31
0.0
0
LINE
8
TOP
10
0.787500
20
1.642627
30
0.0
11
0.900000
21
1.638565
31
0.0
0
LINE
8
TOP
10
0.900000
20
1.638565
30
0.0
11
1.012500
21
1.634504
31
0.0
0
LINE
8
TOP
10
1.012500
20
1.634504
30
0.0
11
1.125000
21
1.630442
31
0.0
0
LINE
8
TOP
10
1.125000
20
1.630442
30
0.0
11
1.237500
21
1.626380
31
0.0
0
LINE
8
TOP
10
1.237500
20
1.626380
30
0.0
11
1.350000
21
1.622319
31
0.0
0
LINE
8
TOP
10
1.350000
20
1.622319
30
0.0
11
1.462500
21
1.618257
31
0.0
0
LINE
8
TOP
10
1.462500
20
1.618257
30
0.0
11
1.575000
21
1.614195
31
0.0
0
LINE
8
TOP
10
1.575000
20
1.614195
30
0.0
11
1.687500
21
1.610134
31
0.0
0
LINE
8
TOP
10
1.687500
20
1.610134
30
0.0
11
1.800000
21
1.606072
31
0.0
0
LINE
8
TOP
10
1.800000
20
1.606072
30
0.0
11
1.912500
21
1.602010
31
0.0
0
LINE
8
TOP
10
1.912500
20
1.602010
30
0.0
11
2.025000
21
1.597949
31
0.0
0
LINE
8
TOP
10
2.025000
20
1.597949
30
0.0
11
2.137500
21
1.593887
31
0.0
0
LINE
8
TOP
10
2.137500
20
1.593887
30
0.0
11
2.250000
21
1.589825
31
0.0
0
LINE
8
TOP
10
2.250000
20
1.589825
30
0.0
11
2.362500
21
1.585764
31
0.0
0
LINE
8
TOP
10
2.362500
20
1.585764
30
0.0
11
2.475000
21
1.581702
31
0.0
0
LINE
8
TOP
10
2.475000
20
1.581702
30
0.0
11
2.587500
21
1.577640
31
0.0
0
LINE
8
TOP
10
2.587500
20
1.577640
30
0.0
11
2.700000
21
1.573579
31
0.0
0
LINE
8
TOP
10
2.700000
20
1.573579
30
0.0
11
2.812500
21
1.569517
31
0.0
0
LINE
8
TOP
10
2.812500
20
1.569517
30
0.0
11
2.925000
21
1.565455
31
0.0
0
LINE
8
TOP
10
2.925000
20
1.565455
30
0.0
11
3.037500
21
1.561394
31
0.0
0
LINE
8
TOP
10
3.037500
20
1.561394
30
0.0
11
3.150000
21
1.557332
31
0.0
0
LINE
8
TOP
10
3.150000
20
1.557332
30
0.0
11
3.262500
21
1.553270
31
0.0
0
LINE
8
TOP
10
3.262500
20
1.553270
30
0.0
11
3.375000
21
1.549209
31
0.0
0
LINE
8
TOP
10
3.375000
20
1.549209
30
0.0
11
3.487500
21
1.545147
31
0.0
0
LINE
8
TOP
10
3.487500
20
1.545147
30
0.0
11
3.600000
21
1.541085
31
0.0
0
LINE
8
TOP
10
3.600000
20
1.541085
30
0.0
11
3.712500
21
1.537024
31
0.0
0
LINE
8
TOP
10
3.712500
20
1.537024
30
0.0
11
3.825000
21
1.532962
31
0.0
0
LINE
8
TOP
10
3.825000
20
1.532962
30
0.0
11
3.937500
21
1.528900
31
0.0
0
LINE
8
TOP
10
3.937500
20
1.528900
30
0.0
11
4.050000
21
1.524839
31
0.0
0
LINE
8
TOP
10
4.050000
20
1.524839
30
0.0
11
4.162500
21
1.520777
31
0.0
0
LINE
8
TOP
10
4.162500
20
1.520777
30
0.0
11
4.275000
21
1.516715
31
0.0
0
LINE
8
TOP
10
4.275000
20
1.516715
30
0.0
11
4.387500
21
1.512654
31
0.0
0
LINE
8
TOP
10
4.387500
20
1.512654
30
0.0
11
4.500000
21
1.508592
31
0.0
0
LINE
8
TOP
10
4.500000
20
1.508592
30
0.0
11
4.612500
21
1.512654
31
0.0
0
LINE
8
TOP
10
4.612500
20
1.512654
30
0.0
11
4.725000
21
1.516715
31
0.0
0
LINE
8
TOP
10
4.725000
20
1.516715
30
0.0
11
4.837500
21
1.520777
31
0.0
0
LINE
8
TOP
10
4.837500
20
1.520777
30
0.0
11
4.950000
21
1.524839
31
0.0
0
LINE
8
TOP
10
4.950000
20
1.524839
30
0.0
11
5.062500
21
1.528900
31
0.0
0
LINE
8
TOP
10
5.062500
20
1.528900
30
0.0
11
5.175000
21
1.532962
31
0.0
0
LINE
8
TOP
10
5.175000
20
1.532962
30
0.0
11
5.287500
21
1.537024
31
0.0
0
LINE
8
TOP
10
5.287500
20
1.537024
30
0.0
11
5.400000
21
1.541085
31
0.0
0
LINE
8
TOP
10
5.400000
20
1.541085
30
0.0
11
5.512500
21
1.545147
31
0.0
0
LINE
8
TOP
10
5.512500
20
1.545147
30
0.0
11
5.625000
21
1.549209
31
0.0
0
LINE
8
TOP
10
5.625000
20
1.549209
30
0.0
11
5.737500
21
1.553270
31
0.0
0
LINE
8
TOP
10
5.737500
20
1.553270
30
0.0
11
5.850000
21
1.557332
31
0.0
0
LINE
8
TOP
10
5.850000
20
1.557332
30
0.0
11
5.962500
21
1.561394
31
0.0
0
LINE
8
TOP
10
5.962500
20
1.561394
30
0.0
11
6.075000
21
1.565455
31
0.0
0
LINE
8
TOP
10
6.075000
20
1.565455
30
0.0
11
6.187500
21
1.569517
31
0.0
0
LINE
8
TOP
10
6.187500
20
1.569517
30
0.0
11
6.300000
21
1.573579
31
0.0
0
LINE
8
TOP
10
6.300000
20
1.573579
30
0.0
11
6.412500
21
1.577640
31
0.0
0
LINE
8
TOP
10
6.412500
20
1.577640
30
0.0
11
6.525000
21
1.581702
31
0.0
0
LINE
8
TOP
10
6.525000
20
1.581702
30
0.0
11
6.637500
21
1.585764
31
0.0
0
LINE
8
TOP
10
6.637500
20
1.585764
30
0.0
11
6.750000
21
1.589825
31
0.0
0
LINE
8
TOP
10
6.750000
20
1.589825
30
0.0
11
6.862500
21
1.593887
31
0.0
0
LINE
8
TOP
10
6.862500
20
1.593887
30
0.0
11
6.975000
21
1.597949
31
0.0
0
LINE
8
TOP
10
6.975000
20
1.597949
30
0.0
11
7.087500
21
1.602010
31
0.0
0
LINE
8
TOP
10
7.087500
20
1.602010
30
0.0
11
7.200000
21
1.606072
31
0.0
0
LINE
8
TOP
10
7.200000
20
1.606072
30
0.0
11
7.312500
21
1.610134
31
0.0
0
LINE
8
TOP
10
7.312500
20
1.610134
30
0.0
11
7.425000
21
1.614195
31
0.0
0
LINE
8
TOP
10
7.425000
20
1.614195
30
0.0
11
7.537500
21
1.618257
31
0.0
0
LINE
8
TOP
10
7.537500
20
1.618257
30
0.0
11
7.650000
21
1.622319
31
0.0
0
LINE
8
TOP
10
7.650000
20
1.622319
30
0.0
11
7.762500
21
1.626380
31
0.0
0
LINE
8
TOP
10
7.762500
20
1.626380
30
0.0
11
7.875000
21
1.630442
31
0.0
0
LINE
8
TOP
10
7.875000
20
1.630442
30
0.0
11
7.987500
21
1.634504
31
0.0
0
LINE
8
TOP
10
7.987500
20
1.634504
30
0.0
11
8.100000
21
1.638565
31
0.0
0
LINE
8
TOP
10
8.100000
20
1.638565
30
0.0
11
8.212500
21
1.642627
31
0.0
0
LINE
8
TOP
10
8.212500
20
1.642627
30
0.0
11
8.325000
21
1.646689
31
0.0
0
LINE
8
TOP
10
8.325000
20
1.646689
30
0.0
11
8.437500
21
1.650750
31
0.0
0
LINE
8
TOP
10
8.437500
20
1.650750
30
0.0
11
8.500000
21
1.653007
31
0.0
0
LINE
8
TOP
10
8.500000
20
1.653007
30
0.0
11
8.550000
21
1.654812
31
0.0
0
LINE
8
TOP
10
8.550000
20
1.654812
30
0.0
11
8.662500
21
1.658874
31
0.0
0
LINE
8
TOP
10
8.662500
20
1.658874
30
0.0
11
8.775000
21
1.662935
31
0.0
0
LINE
8
TOP
10
8.775000
20
1.662935
30
0.0
11
8.887500
21
1.666997
31
0.0
0
LINE
8
TOP
10
8.887500
20
1.666997
30
0.0
11
9.000000
21
1.671059
31
0.0
0
LINE
8
TOP
10
0.000000
20
1.945803
30
0.0
11
0.000000
21
1.671059
31
0.0
0
LINE
8
TOP
10
9.000000
20
1.945803
30
0.0
11
9.000000
21
1.671059
31
0.0
0
LINE
8
SECTION
10
10.200161
20
-0.352810
30
0.0
11
10.799839
21
-0.352810
31
0.0
0
LINE
8
SECTION
10
10.799839
20
-0.352810
30
0.0
11
10.799839
21
0.352810
31
0.0
0
LINE
8
SECTION
10
10.799839
20
0.352810
30
0.0
11
10.200161
21
0.352810
31
0.0
0
LINE
8
SECTION
10
10.200161
20
0.352810
30
0.0
11
10.200161
21
-0.352810
31
0.0
0
LINE
8
SECTION
10
10.240161
20
-0.312810
30
0.0
11
10.759839
21
-0.312810
31
0.0
0
LINE
8
SECTION
10
10.759839
20
-0.312810
30
0.0
11
10.759839
21
0.312810
31
0.0
0
LINE
8
SECTION
10
10.759839
20
0.312810
30
0.0
11
10.240161
21
0.312810
31
0.0
0
LINE
8
SECTION
10
10.240161
20
0.312810
30
0.0
11
10.240161
21
-0.312810
31
0.0
0
LINE
8
SECTION
10
10.240161
20
0.198836
30
0.0
11
10.280161
21
0.198836
31
0.0
0
LINE
8
SECTION
10
10.280161
20
0.198836
30
0.0
11
10.280161
21
0.312810
31
0.0
0
LINE
8
SECTION
10
10.280161
20
0.312810
30
0.0
11
10.240161
21
0.312810
31
0.0
0
LINE
8
SECTION
10
10.240161
20
0.312810
30
0.0
11
10.240161
21
0.198836
31
0.0
0
LINE
8
SECTION
10
10.240161
20
-0.312810
30
0.0
11
10.280161
21
-0.312810
31
0.0
0
LINE
8
SECTION
10
10.280161
20
-0.312810
30
0.0
11
10.280161
21
-0.198836
31
0.0
0
LINE
8
SECTION
10
10.280161
20
-0.198836
30
0.0
11
10.240161
21
-0.198836
31
0.0
0
LINE
8
SECTION
10
10.240161
20
-0.198836
30
0.0
11
10.240161
21
-0.312810
31
0.0
0
LINE
8
SECTION
10
10.719839
20
0.198836
30
0.0
11
10.759839
21
0.198836
31
0.0
0
LINE
8
SECTION
10
10.759839
20
0.198836
30
0.0
11
10.759839
21
0.312810
31
0.0
0
LINE
8
SECTION
10
10.759839
20
0.312810
30
0.0
11
10.719839
21
0.312810
31
0.0
0
LINE
8
SECTION
10
10.719839
20
0.312810
30
0.0
11
10.719839
21
0.198836
31
0.0
0
LINE
8
SECTION
10
10.719839
20
-0.312810
30
0.0
11
10.759839
21
-0.312810
31
0.0
0
LINE
8
SECTION
10
10.759839
20
-0.312810
30
0.0
11
10.759839
21
-0.198836
31
0.0
0
LINE
8
SECTION
10
10.759839
20
-0.198836
30
0.0
11
10.719839
21
-0.198836
31
0.0
0
LINE
8
SECTION
10
10.719839
20
-0.198836
30
0.0
11
10.719839
21
-0.312810
31
0.0
0
ENDSEC
0
EOF
