0
SECTION
2
HEADER
9
$INSUNITS
70
1
0
ENDSEC
0
SECTION
2
ENTITIES
0
LINE
8
FRONT
10
0.000000
20
0.211868
30
0.0
11
0.112500
21
0.211243
31
0.0
0
LINE
8
FRONT
10
0.112500
20
0.211243
30
0.0
11
0.225000
21
0.210619
31
0.0
0
LINE
8
FRONT
10
0.225000
20
0.210619
30
0.0
11
0.337500
21
0.209995
31
0.0
0
LINE
8
FRONT
10
0.337500
20
0.209995
30
0.0
11
0.450000
21
0.209370
31
0.0
0
LINE
8
FRONT
10
0.450000
20
0.209370
30
0.0
11
0.500000
21
0.209093
31
0.0
0
LINE
8
FRONT
10
0.500000
20
0.209093
30
0.0
11
0.562500
21
0.208746
31
0.0
0
LINE
8
FRONT
10
0.562500
20
0.208746
30
0.0
11
0.675000
21
0.208121
31
0.0
0
LINE
8
FRONT
10
0.675000
20
0.208121
30
0.0
11
0.787500
21
0.207497
31
0.0
0
LINE
8
FRONT
10
0.787500
20
0.207497
30
0.0
11
0.900000
21
0.206872
31
0.0
0
LINE
8
FRONT
10
0.900000
20
0.206872
30
0.0
11
1.012500
21
0.206248
31
0.0
0
LINE
8
FRONT
10
1.012500
20
0.206248
30
0.0
11
1.125000
21
0.205624
31
0.0
0
LINE
8
FRONT
10
1.125000
20
0.205624
30
0.0
11
1.237500
21
0.204999
31
0.0
0
LINE
8
FRONT
10
1.237500
20
0.204999
30
0.0
11
1.350000
21
0.204375
31
0.0
0
LINE
8
FRONT
10
1.350000
20
0.204375
30
0.0
11
1.462500
21
0.203750
31
0.0
0
LINE
8
FRONT
10
1.462500
20
0.203750
30
0.0
11
1.575000
21
0.203126
31
0.0
0
LINE
8
FRONT
10
1.575000
20
0.203126
30
0.0
11
1.687500
21
0.202501
31
0.0
0
LINE
8
FRONT
10
1.687500
20
0.202501
30
0.0
11
1.800000
21
0.201877
31
0.0
0
LINE
8
FRONT
10
1.800000
20
0.201877
30
0.0
11
1.912500
21
0.201253
31
0.0
0
LINE
8
FRONT
10
1.912500
20
0.201253
30
0.0
11
2.025000
21
0.200628
31
0.0
0
LINE
8
FRONT
10
2.025000
20
0.200628
30
0.0
11
2.137500
21
0.200004
31
0.0
0
LINE
8
FRONT
10
2.137500
20
0.200004
30
0.0
11
2.250000
21
0.199379
31
0.0
0
LINE
8
FRONT
10
2.250000
20
0.199379
30
0.0
11
2.362500
21
0.198755
31
0.0
0
LINE
8
FRONT
10
2.362500
20
0.198755
30
0.0
11
2.475000
21
0.198130
31
0.0
0
LINE
8
FRONT
10
2.475000
20
0.198130
30
0.0
11
2.587500
21
0.197506
31
0.0
0
LINE
8
FRONT
10
2.587500
20
0.197506
30
0.0
11
2.700000
21
0.196882
31
0.0
0
LINE
8
FRONT
10
2.700000
20
0.196882
30
0.0
11
2.812500
21
0.196257
31
0.0
0
LINE
8
FRONT
10
2.812500
20
0.196257
30
0.0
11
2.925000
21
0.195633
31
0.0
0
LINE
8
FRONT
10
2.925000
20
0.195633
30
0.0
11
3.037500
21
0.195008
31
0.0
0
LINE
8
FRONT
10
3.037500
20
0.195008
30
0.0
11
3.150000
21
0.194384
31
0.0
0
LINE
8
FRONT
10
3.150000
20
0.194384
30
0.0
11
3.262500
21
0.193759
31
0.0
0
LINE
8
FRONT
10
3.262500
20
0.193759
30
0.0
11
3.375000
21
0.193135
31
0.0
0
LINE
8
FRONT
10
3.375000
20
0.193135
30
0.0
11
3.487500
21
0.192511
31
0.0
0
LINE
8
FRONT
10
3.487500
20
0.192511
30
0.0
11
3.600000
21
0.191886
31
0.0
0
LINE
8
FRONT
10
3.600000
20
0.191886
30
0.0
11
3.712500
21
0.191262
31
0.0
0
LINE
8
FRONT
10
3.712500
20
0.191262
30
0.0
11
3.825000
21
0.190637
31
0.0
0
LINE
8
FRONT
10
3.825000
20
0.190637
30
0.0
11
3.937500
21
0.190013
31
0.0
0
LINE
8
FRONT
10
3.937500
20
0.190013
30
0.0
11
4.050000
21
0.189388
31
0.0
0
LINE
8
FRONT
10
4.050000
20
0.189388
30
0.0
11
4.162500
21
0.188764
31
0.0
0
LINE
8
FRONT
10
4.162500
20
0.188764
30
0.0
11
4.275000
21
0.188140
31
0.0
0
LINE
8
FRONT
10
4.275000
20
0.188140
30
0.0
11
4.387500
21
0.187515
31
0.0
0
LINE
8
FRONT
10
4.387500
20
0.187515
30
0.0
11
4.500000
21
0.186891
31
0.0
0
LINE
8
FRONT
10
4.500000
20
0.186891
30
0.0
11
4.612500
21
0.188074
31
0.0
0
LINE
8
FRONT
10
4.612500
20
0.188074
30
0.0
11
4.725000
21
0.189257
31
0.0
0
LINE
8
FRONT
10
4.725000
20
0.189257
30
0.0
11
4.837500
21
0.190441
31
0.0
0
LINE
8
FRONT
10
4.837500
20
0.190441
30
0.0
11
4.950000
21
0.191624
31
0.0
0
LINE
8
FRONT
10
4.950000
20
0.191624
30
0.0
11
5.062500
21
0.192807
31
0.0
0
LINE
8
FRONT
10
5.062500
20
0.192807
30
0.0
11
5.175000
21
0.193990
31
0.0
0
LINE
8
FRONT
10
5.175000
20
0.193990
30
0.0
11
5.287500
21
0.195174
31
0.0
0
LINE
8
FRONT
10
5.287500
20
0.195174
30
0.0
11
5.400000
21
0.196357
31
0.0
0
LINE
8
FRONT
10
5.400000
20
0.196357
30
0.0
11
5.512500
21
0.197540
31
0.0
0
LINE
8
FRONT
10
5.512500
20
0.197540
30
0.0
11
5.625000
21
0.198723
31
0.0
0
LINE
8
FRONT
10
5.625000
20
0.198723
30
0.0
11
5.737500
21
0.199907
31
0.0
0
LINE
8
FRONT
10
5.737500
20
0.199907
30
0.0
11
5.850000
21
0.201090
31
0.0
0
LINE
8
FRONT
10
5.850000
20
0.201090
30
0.0
11
5.962500
21
0.202273
31
0.0
0
LINE
8
FRONT
10
5.962500
20
0.202273
30
0.0
11
6.075000
21
0.203456
31
0.0
0
LINE
8
FRONT
10
6.075000
20
0.203456
30
0.0
11
6.187500
21
0.204640
31
0.0
0
LINE
8
FRONT
10
6.187500
20
0.204640
30
0.0
11
6.300000
21
0.205823
31
0.0
0
LINE
8
FRONT
10
6.300000
20
0.205823
30
0.0
11
6.412500
21
0.207006
31
0.0
0
LINE
8
FRONT
10
6.412500
20
0.207006
30
0.0
11
6.525000
21
0.208189
31
0.0
0
LINE
8
FRONT
10
6.525000
20
0.208189
30
0.0
11
6.637500
21
0.209373
31
0.0
0
LINE
8
FRONT
10
6.637500
20
0.209373
30
0.0
11
6.750000
21
0.210556
31
0.0
0
LINE
8
FRONT
10
6.750000
20
0.210556
30
0.0
11
6.862500
21
0.211739
31
0.0
0
LINE
8
FRONT
10
6.862500
20
0.211739
30
0.0
11
6.975000
21
0.212922
31
0.0
0
LINE
8
FRONT
10
6.975000
20
0.212922
30
0.0
11
7.087500
21
0.214106
31
0.0
0
LINE
8
FRONT
10
7.087500
20
0.214106
30
0.0
11
7.200000
21
0.215289
31
0.0
0
LINE
8
FRONT
10
7.200000
20
0.215289
30
0.0
11
7.312500
21
0.216472
31
0.0
0
LINE
8
FRONT
10
7.312500
20
0.216472
30
0.0
11
7.425000
21
0.217655
31
0.0
0
LINE
8
FRONT
10
7.425000
20
0.217655
30
0.0
11
7.537500
21
0.218839
31
0.0
0
LINE
8
FRONT
10
7.537500
20
0.218839
30
0.0
11
7.650000
21
0.220022
31
0.0
0
LINE
8
FRONT
10
7.650000
20
0.220022
30
0.0
11
7.762500
21
0.221205
31
0.0
0
LINE
8
FRONT
10
7.762500
20
0.221205
30
0.0
11
7.875000
21
0.222389
31
0.0
0
LINE
8
FRONT
10
7.875000
20
0.222389
30
0.0
11
7.987500
21
0.223572
31
0.0
0
LINE
8
FRONT
10
7.987500
20
0.223572
30
0.0
11
8.100000
21
0.224755
31
0.0
0
LINE
8
FRONT
10
8.100000
20
0.224755
30
0.0
11
8.212500
21
0.225938
31
0.0
0
LINE
8
FRONT
10
8.212500
20
0.225938
30
0.0
11
8.325000
21
0.227122
31
0.0
0
LINE
8
FRONT
10
8.325000
20
0.227122
30
0.0
11
8.437500
21
0.228305
31
0.0
0
LINE
8
FRONT
10
8.437500
20
0.228305
30
0.0
11
8.500000
21
0.228962
31
0.0
0
LINE
8
FRONT
10
8.500000
20
0.228962
30
0.0
11
8.550000
21
0.229488
31
0.0
0
LINE
8
FRONT
10
8.550000
20
0.229488
30
0.0
11
8.662500
21
0.230671
31
0.0
0
LINE
8
FRONT
10
8.662500
20
0.230671
30
0.0
11
8.775000
21
0.231855
31
0.0
0
LINE
8
FRONT
10
8.775000
20
0.231855
30
0.0
11
8.887500
21
0.233038
31
0.0
0
LINE
8
FRONT
10
8.887500
20
0.233038
30
0.0
11
9.000000
21
0.234221
31
0.0
0
LINE
8
FRONT
10
0.000000
20
-0.211868
30
0.0
11
0.112500
21
-0.211243
31
0.0
0
LINE
8
FRONT
10
0.112500
20
-0.211243
30
0.0
11
0.225000
21
-0.210619
31
0.0
0
LINE
8
FRONT
10
0.225000
20
-0.210619
30
0.0
11
0.337500
21
-0.209995
31
0.0
0
LINE
8
FRONT
10
0.337500
20
-0.209995
30
0.0
11
0.450000
21
-0.209370
31
0.0
0
LINE
8
FRONT
10
0.450000
20
-0.209370
30
0.0
11
0.500000
21
-0.209093
31
0.0
0
LINE
8
FRONT
10
0.500000
20
-0.209093
30
0.0
11
0.562500
21
-0.208746
31
0.0
0
LINE
8
FRONT
10
0.562500
20
-0.208746
30
0.0
11
0.675000
21
-0.208121
31
0.0
0
LINE
8
FRONT
10
0.675000
20
-0.208121
30
0.0
11
0.787500
21
-0.207497
31
0.0
0
LINE
8
FRONT
10
0.787500
20
-0.207497
30
0.0
11
0.900000
21
-0.206872
31
0.0
0
LINE
8
FRONT
10
0.900000
20
-0.206872
30
0.0
11
1.012500
21
-0.206248
31
0.0
0
LINE
8
FRONT
10
1.012500
20
-0.206248
30
0.0
11
1.125000
21
-0.205624
31
0.0
0
LINE
8
FRONT
10
1.125000
20
-0.205624
30
0.0
11
1.237500
21
-0.204999
31
0.0
0
LINE
8
FRONT
10
1.237500
20
-0.204999
30
0.0
11
1.350000
21
-0.204375
31
0.0
0
LINE
8
FRONT
10
1.350000
20
-0.204375
30
0.0
11
1.462500
21
-0.203750
31
0.0
0
LINE
8
FRONT
10
1.462500
20
-0.203750
30
0.0
11
1.575000
21
-0.203126
31
0.0
0
LINE
8
FRONT
10
1.575000
20
-0.203126
30
0.0
11
1.687500
21
-0.202501
31
0.0
0
LINE
8
FRONT
10
1.687500
20
-0.202501
30
0.0
11
1.800000
21
-0.201877
31
0.0
0
LINE
8
FRONT
10
1.800000
20
-0.201877
30
0.0
11
1.912500
21
-0.201253
31
0.0
0
LINE
8
FRONT
10
1.912500
20
-0.201253
30
0.0
11
2.025000
21
-0.200628
31
0.0
0
LINE
8
FRONT
10
2.025000
20
-0.200628
30
0.0
11
2.137500
21
-0.200004
31
0.0
0
LINE
8
FRONT
10
2.137500
20
-0.200004
30
0.0
11
2.250000
21
-0.199379
31
0.0
0
LINE
8
FRONT
10
2.250000
20
-0.199379
30
0.0
11
2.362500
21
-0.198755
31
0.0
0
LINE
8
FRONT
10
2.362500
20
-0.198755
30
0.0
11
2.475000
21
-0.198130
31
0.0
0
LINE
8
FRONT
10
2.475000
20
-0.198130
30
0.0
11
2.587500
21
-0.197506
31
0.0
0
LINE
8
FRONT
10
2.587500
20
-0.197506
30
0.0
11
2.700000
21
-0.196882
31
0.0
0
LINE
8
FRONT
10
2.700000
20
-0.196882
30
0.0
11
2.812500
21
-0.196257
31
0.0
0
LINE
8
FRONT
10
2.812500
20
-0.196257
30
0.0
11
2.925000
21
-0.195633
31
0.0
0
LINE
8
FRONT
10
2.925000
20
-0.195633
30
0.0
11
3.037500
21
-0.195008
31
0.0
0
LINE
8
FRONT
10
3.037500
20
-0.195008
30
0.0
11
3.150000
21
-0.194384
31
0.0
0
LINE
8
FRONT
10
3.150000
20
-0.194384
30
0.0
11
3.262500
21
-0.193759
31
0.0
0
LINE
8
FRONT
10
3.262500
20
-0.193759
30
0.0
11
3.375000
21
-0.193135
31
0.0
0
LINE
8
FRONT
10
3.375000
20
-0.193135
30
0.0
11
3.487500
21
-0.192511
31
0.0
0
LINE
8
FRONT
10
3.487500
20
-0.192511
30
0.0
11
3.600000
21
-0.191886
31
0.0
0
LINE
8
FRONT
10
3.600000
20
-0.191886
30
0.0
11
3.712500
21
-0.191262
31
0.0
0
LINE
8
FRONT
10
3.712500
20
-0.191262
30
0.0
11
3.825000
21
-0.190637
31
0.0
0
LINE
8
FRONT
10
3.825000
20
-0.190637
30
0.0
11
3.937500
21
-0.190013
31
0.0
0
LINE
8
FRONT
10
3.937500
20
-0.190013
30
0.0
11
4.050000
21
-0.189388
31
0.0
0
LINE
8
FRONT
10
4.050000
20
-0.189388
30
0.0
11
4.162500
21
-0.188764
31
0.0
0
LINE
8
FRONT
10
4.162500
20
-0.188764
30
0.0
11
4.275000
21
-0.188140
31
0.0
0
LINE
8
FRONT
10
4.275000
20
-0.188140
30
0.0
11
4.387500
21
-0.187515
31
0.0
0
LINE
8
FRONT
10
4.387500
20
-0.187515
30
0.0
11
4.500000
21
-0.186891
31
0.0
0
LINE
8
FRONT
10
4.500000
20
-0.186891
30
0.0
11
4.612500
21
-0.188074
31
0.0
0
LINE
8
FRONT
10
4.612500
20
-0.188074
30
0.0
11
4.725000
21
-0.189257
31
0.0
0
LINE
8
FRONT
10
4.725000
20
-0.189257
30
0.0
11
4.837500
21
-0.190441
31
0.0
0
LINE
8
FRONT
10
4.837500
20
-0.190441
30
0.0
11
4.950000
21
-0.191624
31
0.0
0
LINE
8
FRONT
10
4.950000
20
-0.191624
30
0.0
11
5.062500
21
-0.192807
31
0.0
0
LINE
8
FRONT
10
5.062500
20
-0.192807
30
0.0
11
5.175000
21
-0.193990
31
0.0
0
LINE
8
FRONT
10
5.175000
20
-0.193990
30
0.0
11
5.287500
21
-0.195174
31
0.0
0
LINE
8
FRONT
10
5.287500
20
-0.195174
30
0.0
11
5.400000
21
-0.196357
31
0.0
0
LINE
8
FRONT
10
5.400000
20
-0.196357
30
0.0
11
5.512500
21
-0.197540
31
0.0
0
LINE
8
FRONT
10
5.512500
20
-0.197540
30
0.0
11
5.625000
21
-0.198723
31
0.0
0
LINE
8
FRONT
10
5.625000
20
-0.198723
30
0.0
11
5.737500
21
-0.199907
31
0.0
0
LINE
8
FRONT
10
5.737500
20
-0.199907
30
0.0
11
5.850000
21
-0.201090
31
0.0
0
LINE
8
FRONT
10
5.850000
20
-0.201090
30
0.0
11
5.962500
21
-0.202273
31
0.0
0
LINE
8
FRONT
10
5.962500
20
-0.202273
30
0.0
11
6.075000
21
-0.203456
31
0.0
0
LINE
8
FRONT
10
6.075000
20
-0.203456
30
0.0
11
6.187500
21
-0.204640
31
0.0
0
LINE
8
FRONT
10
6.187500
20
-0.204640
30
0.0
11
6.300000
21
-0.205823
31
0.0
0
LINE
8
FRONT
10
6.300000
20
-0.205823
30
0.0
11
6.412500
21
-0.207006
31
0.0
0
LINE
8
FRONT
10
6.412500
20
-0.207006
30
0.0
11
6.525000
21
-0.208189
31
0.0
0
LINE
8
FRONT
10
6.525000
20
-0.208189
30
0.0
11
6.637500
21
-0.209373
31
0.0
0
LINE
8
FRONT
10
6.637500
20
-0.209373
30
0.0
11
6.750000
21
-0.210556
31
0.0
0
LINE
8
FRONT
10
6.750000
20
-0.210556
30
0.0
11
6.862500
21
-0.211739
31
0.0
0
LINE
8
FRONT
10
6.862500
20
-0.211739
30
0.0
11
6.975000
21
-0.212922
31
0.0
0
LINE
8
FRONT
10
6.975000
20
-0.212922
30
0.0
11
7.087500
21
-0.214106
31
0.0
0
LINE
8
FRONT
10
7.087500
20
-0.214106
30
0.0
11
7.200000
21
-0.215289
31
0.0
0
LINE
8
FRONT
10
7.200000
20
-0.215289
30
0.0
11
7.312500
21
-0.216472
31
0.0
0
LINE
8
FRONT
10
7.312500
20
-0.216472
30
0.0
11
7.425000
21
-0.217655
31
0.0
0
LINE
8
FRONT
10
7.425000
20
-0.217655
30
0.0
11
7.537500
21
-0.218839
31
0.0
0
LINE
8
FRONT
10
7.537500
20
-0.218839
30
0.0
11
7.650000
21
-0.220022
31
0.0
0
LINE
8
FRONT
10
7.650000
20
-0.220022
30
0.0
11
7.762500
21
-0.221205
31
0.0
0
LINE
8
FRONT
10
7.762500
20
-0.221205
30
0.0
11
7.875000
21
-0.222389
31
0.0
0
LINE
8
FRONT
10
7.875000
20
-0.222389
30
0.0
11
7.987500
21
-0.223572
31
0.0
0
LINE
8
FRONT
10
7.987500
20
-0.223572
30
0.0
11
8.100000
21
-0.224755
31
0.0
0
LINE
8
FRONT
10
8.100000
20
-0.224755
30
0.0
11
8.212500
21
-0.225938
31
0.0
0
LINE
8
FRONT
10
8.212500
20
-0.225938
30
0.0
11
8.325000
21
-0.227122
31
0.0
0
LINE
8
FRONT
10
8.325000
20
-0.227122
30
0.0
11
8.437500
21
-0.228305
31
0.0
0
LINE
8
FRONT
10
8.437500
20
-0.228305
30
0.0
11
8.500000
21
-0.228962
31
0.0
0
LINE
8
FRONT
10
8.500000
20
-0.228962
30
0.0
11
8.550000
21
-0.229488
31
0.0
0
LINE
8
FRONT
10
8.550000
20
-0.229488
30
0.0
11
8.662500
21
-0.230671
31
0.0
0
LINE
8
FRONT
10
8.662500
20
-0.230671
30
0.0
11
8.775000
21
-0.231855
31
0.0
0
LINE
8
FRONT
10
8.775000
20
-0.231855
30
0.0
11
8.887500
21
-0.233038
31
0.0
0
LINE
8
FRONT
10
8.887500
20
-0.233038
30
0.0
11
9.000000
21
-0.234221
31
0.0
0
LINE
8
FRONT
10
0.000000
20
0.211868
30
0.0
11
0.000000
21
-0.211868
31
0.0
0
LINE
8
FRONT
10
9.000000
20
0.234221
30
0.0
11
9.000000
21
-0.234221
31
0.0
0
LINE
8
TOP
10
0.000000
20
2.181243
30
0.0
11
0.112500
21
2.184952
31
0.0
0
LINE
8
TOP
10
0.112500
20
2.184952
30
0.0
11
0.225000
21
2.188661
31
0.0
0
LINE
8
TOP
10
0.225000
20
2.188661
30
0.0
11
0.337500
21
2.192370
31
0.0
0
LINE
8
TOP
10
0.337500
20
2.192370
30
0.0
11
0.450000
21
2.196078
31
0.0
0
LINE
8
TOP
10
0.450000
20
2.196078
30
0.0
11
0.500000
21
2.197727
31
0.0
0
LINE
8
TOP
10
0.500000
20
2.197727
30
0.0
11
0.562500
21
2.199787
31
0.0
0
LINE
8
TOP
10
0.562500
20
2.199787
30
0.0
11
0.675000
21
2.203496
31
0.0
0
LINE
8
TOP
10
0.675000
20
2.203496
30
0.0
11
0.787500
21
2.207205
31
0.0
0
LINE
8
TOP
10
0.787500
20
2.207205
30
0.0
11
0.900000
21
2.210914
31
0.0
0
LINE
8
TOP
10
0.900000
20
2.210914
30
0.0
11
1.012500
21
2.214623
31
0.0
0
LINE
8
TOP
10
1.012500
20
2.214623
30
0.0
11
1.125000
21
2.218332
31
0.0
0
LINE
8
TOP
10
1.125000
20
2.218332
30
0.0
11
1.237500
21
2.222041
31
0.0
0
LINE
8
TOP
10
1.237500
20
2.222041
30
0.0
11
1.350000
21
2.225750
31
0.0
0
LINE
8
TOP
10
1.350000
20
2.225750
30
0.0
11
1.462500
21
2.229459
31
0.0
0
LINE
8
TOP
10
1.462500
20
2.229459
30
0.0
11
1.575000
21
2.233168
31
0.0
0
LINE
8
TOP
10
1.575000
20
2.233168
30
0.0
11
1.687500
21
2.236877
31
0.0
0
LINE
8
TOP
10
1.687500
20
2.236877
30
0.0
11
1.800000
21
2.240586
31
0.0
0
LINE
8
TOP
10
1.800000
20
2.240586
30
0.0
11
1.912500
21
2.244295
31
0.0
0
LINE
8
TOP
10
1.912500
20
2.244295
30
0.0
11
2.025000
21
2.248004
31
0.0
0
LINE
8
TOP
10
2.025000
20
2.248004
30
0.0
11
2.137500
21
2.251713
31
0.0
0
LINE
8
TOP
10
2.137500
20
2.251713
30
0.0
11
2.250000
21
2.255422
31
0.0
0
LINE
8
TOP
10
2.250000
20
2.255422
30
0.0
11
2.362500
21
2.259131
31
0.0
0
LINE
8
TOP
10
2.362500
20
2.259131
30
0.0
11
2.475000
21
2.262840
31
0.0
0
LINE
8
TOP
10
2.475000
20
2.262840
30
0.0
11
2.587500
21
2.266549
31
0.0
0
LINE
8
TOP
10
2.587500
20
2.266549
30
0.0
11
2.700000
21
2.270257
31
0.0
0
LINE
8
TOP
10
2.700000
20
2.270257
30
0.0
11
2.812500
21
2.273966
31
0.0
0
LINE
8
TOP
10
2.812500
20
2.273966
30
0.0
11
2.925000
21
2.277675
31
0.0
0
LINE
8
TOP
10
2.925000
20
2.277675
30
0.0
11
3.037500
21
2.281384
31
0.0
0
LINE
8
TOP
10
3.037500
20
2.281384
30
0.0
11
3.150000
21
2.285093
31
0.0
0
LINE
8
TOP
10
3.150000
20
2.285093
30
0.0
11
3.262500
21
2.288802
31
0.0
0
LINE
8
TOP
10
3.262500
20
2.288802
30
0.0
11
3.375000
21
2.292511
31
0.0
0
LINE
8
TOP
10
3.375000
20
2.292511
30
0.0
11
3.487500
21
2.296220
31
0.0
0
LINE
8
TOP
10
3.487500
20
2.296220
30
0.0
11
3.600000
21
2.299929
31
0.0
0
LINE
8
TOP
10
3.600000
20
2.299929
30
0.0
11
3.712500
21
2.303638
31
0.0
0
LINE
8
TOP
10
3.712500
20
2.303638
30
0.0
11
3.825000
21
2.307347
31
0.0
0
LINE
8
TOP
10
3.825000
20
2.307347
30
0.0
11
3.937500
21
2.311056
31
0.0
0
LINE
8
TOP
10
3.937500
20
2.311056
30
0.0
11
4.050000
21
2.314765
31
0.0
0
LINE
8
TOP
10
4.050000
20
2.314765
30
0.0
11
4.162500
21
2.318474
31
0.0
0
LINE
8
TOP
10
4.162500
20
2.318474
30
0.0
11
4.275000
21
2.322183
31
0.0
0
LINE
8
TOP
10
4.275000
20
2.322183
30
0.0
11
4.387500
21
2.325892
31
0.0
0
LINE
8
TOP
10
4.387500
20
2.325892
30
0.0
11
4.500000
21
2.329601
31
0.0
0
LINE
8
TOP
10
4.500000
20
2.329601
30
0.0
11
4.612500
21
2.322978
31
0.0
0
LINE
8
TOP
10
4.612500
20
2.322978
30
0.0
11
4.725000
21
2.316356
31
0.0
0
LINE
8
TOP
10
4.725000
20
2.316356
30
0.0
11
4.837500
21
2.309734
31
0.0
0
LINE
8
TOP
10
4.837500
20
2.309734
30
0.0
11
4.950000
21
2.303112
31
0.0
0
LINE
8
TOP
10
4.950000
20
2.303112
30
0.0
11
5.062500
21
2.296490
31
0.0
0
LINE
8
TOP
10
5.062500
20
2.296490
30
0.0
11
5.175000
21
2.289868
31
0.0
0
LINE
8
TOP
10
5.175000
20
2.289868
30
0.0
11
5.287500
21
2.283245
31
0.0
0
LINE
8
TOP
10
5.287500
20
2.283245
30
0.0
11
5.400000
21
2.276623
31
0.0
0
LINE
8
TOP
10
5.400000
20
2.276623
30
0.0
11
5.512500
21
2.270001
31
0.0
0
LINE
8
TOP
10
5.512500
20
2.270001
30
0.0
11
5.625000
21
2.263379
31
0.0
0
LINE
8
TOP
10
5.625000
20
2.263379
30
0.0
11
5.737500
21
2.256757
31
0.0
0
LINE
8
TOP
10
5.737500
20
2.256757
30
0.0
11
5.850000
21
2.250134
31
0.0
0
LINE
8
TOP
10
5.850000
20
2.250134
30
0.0
11
5.962500
21
2.243512
31
0.0
0
LINE
8
TOP
10
5.962500
20
2.243512
30
0.0
11
6.075000
21
2.236890
31
0.0
0
LINE
8
TOP
10
6.075000
20
2.236890
30
0.0
11
6.187500
21
2.230268
31
0.0
0
LINE
8
TOP
10
6.187500
20
2.230268
30
0.0
11
6.300000
21
2.223646
31
0.0
0
LINE
8
TOP
10
6.300000
20
2.223646
30
0.0
11
6.412500
21
2.217023
31
0.0
0
LINE
8
TOP
10
6.412500
20
2.217023
30
0.0
11
6.525000
21
2.210401
31
0.0
0
LINE
8
TOP
10
6.525000
20
2.210401
30
0.0
11
6.637500
21
2.203779
31
0.0
0
LINE
8
TOP
10
6.637500
20
2.203779
30
0.0
11
6.750000
21
2.197157
31
0.0
0
LINE
8
TOP
10
6.750000
20
2.197157
30
0.0
11
6.862500
21
2.190535
31
0.0
0
LINE
8
TOP
10
6.862500
20
2.190535
30
0.0
11
6.975000
21
2.183912
31
0.0
0
LINE
8
TOP
10
6.975000
20
2.183912
30
0.0
11
7.087500
21
2.177290
31
0.0
0
LINE
8
TOP
10
7.087500
20
2.177290
30
0.0
11
7.200000
21
2.170668
31
0.0
0
LINE
8
TOP
10
7.200000
20
2.170668
30
0.0
11
7.312500
21
2.164046
31
0.0
0
LINE
8
TOP
10
7.312500
20
2.164046
30
0.0
11
7.425000
21
2.157424
31
0.0
0
LINE
8
TOP
10
7.425000
20
2.157424
30
0.0
11
7.537500
21
2.150802
31
0.0
0
LINE
8
TOP
10
7.537500
20
2.150802
30
0.0
11
7.650000
21
2.144179
31
0.0
0
LINE
8
TOP
10
7.650000
20
2.144179
30
0.0
11
7.762500
21
2.137557
31
0.0
0
LINE
8
TOP
10
7.762500
20
2.137557
30
0.0
11
7.875000
21
2.130935
31
0.0
0
LINE
8
TOP
10
7.875000
20
2.130935
30
0.0
11
7.987500
21
2.124313
31
0.0
0
LINE
8
TOP
10
7.987500
20
2.124313
30
0.0
11
8.100000
21
2.117691
31
0.0
0
LINE
8
TOP
10
8.100000
20
2.117691
30
0.0
11
8.212500
21
2.111068
31
0.0
0
LINE
8
TOP
10
8.212500
20
2.111068
30
0.0
11
8.325000
21
2.104446
31
0.0
0
LINE
8
TOP
10
8.325000
20
2.104446
30
0.0
11
8.437500
21
2.097824
31
0.0
0
LINE
8
TOP
10
8.437500
20
2.097824
30
0.0
11
8.500000
21
2.094145
31
0.0
0
LINE
8
TOP
10
8.500000
20
2.094145
30
0.0
11
8.550000
21
2.091202
31
0.0
0
LINE
8
TOP
10
8.550000
20
2.091202
30
0.0
11
8.662500
21
2.084580
31
0.0
0
LINE
8
TOP
10
8.662500
20
2.084580
30
0.0
11
8.775000
21
2.077957
31
0.0
0
LINE
8
TOP
10
8.775000
20
2.077957
30
0.0
11
8.887500
21
2.071335
31
0.0
0
LINE
8
TOP
10
8.887500
20
2.071335
30
0.0
11
9.000000
21
2.064713
31
0.0
0
LINE
8
TOP
10
0.000000
20
1.688158
30
0.0
11
0.112500
21
1.684449
31
0.0
0
LINE
8
TOP
10
0.112500
20
1.684449
30
0.0
11
0.225000
21
1.680740
31
0.0
0
LINE
8
TOP
10
0.225000
20
1.680740
30
0.0
11
0.337500
21
1.677031
31
0.0
0
LINE
8
TOP
10
0.337500
20
1.677031
30
0.0
11
0.450000
21
1.673322
31
0.0
0
LINE
8
TOP
10
0.450000
20
1.673322
30
0.0
11
0.500000
21
1.671674
31
0.0
0
LINE
8
TOP
10
0.500000
20
1.671674
30
0.0
11
0.562500
21
1.669614
31
0.0
0
LINE
8
TOP
10
0.562500
20
1.669614
30
0.0
11
0.675000
21
1.665905
31
0.0
0
LINE
8
TOP
10
0.675000
20
1.665905
30
0.0
11
0.787500
21
1.662196
31
0.0
0
LINE
8
TOP
10
0.787500
20
1.662196
30
0.0
11
0.900000
21
1.658487
31
0.0
0
LINE
8
TOP
10
0.900000
20
1.658487
30
0.0
11
1.012500
21
1.654778
31
0.0
0
LINE
8
TOP
10
1.012500
20
1.654778
30
0.0
11
1.125000
21
1.651069
31
0.0
0
LINE
8
TOP
10
1.125000
20
1.651069
30
0.0
11
1.237500
21
1.647360
31
0.0
0
LINE
8
TOP
10
1.237500
20
1.647360
30
0.0
11
1.350000
21
1.643651
31
0.0
0
LINE
8
TOP
10
1.350000
20
1.643651
30
0.0
11
1.462500
21
1.639942
31
0.0
0
LINE
8
TOP
10
1.462500
20
1.639942
30
0.0
11
1.575000
21
1.636233
31
0.0
0
LINE
8
TOP
10
1.575000
20
1.636233
30
0.0
11
1.687500
21
1.632524
31
0.0
0
LINE
8
TOP
10
1.687500
20
1.632524
30
0.0
11
1.800000
21
1.628815
31
0.0
0
LINE
8
TOP
10
1.800000
20
1.628815
30
0.0
11
1.912500
21
1.625106
31
0.0
0
LINE
8
TOP
10
1.912500
20
1.625106
30
0.0
11
2.025000
21
1.621397
31
0.0
0
LINE
8
TOP
10
2.025000
20
1.621397
30
0.0
11
2.137500
21
1.617688
31
0.0
0
LINE
8
TOP
10
2.137500
20
1.617688
30
0.0
11
2.250000
21
1.613979
31
0.0
0
LINE
8
TOP
10
2.250000
20
1.613979
30
0.0
11
2.362500
21
1.610270
31
0.0
0
LINE
8
TOP
10
2.362500
20
1.610270
30
0.0
11
2.475000
21
1.606561
31
0.0
0
LINE
8
TOP
10
2.475000
20
1.606561
30
0.0
11
2.587500
21
1.602852
31
0.0
0
LINE
8
TOP
10
2.587500
20
1.602852
30
0.0
11
2.700000
21
1.599143
31
0.0
0
LINE
8
TOP
10
2.700000
20
1.599143
30
0.0
11
2.812500
21
1.595435
31
0.0
0
LINE
8
TOP
10
2.812500
20
1.595435
30
0.0
11
2.925000
21
1.591726
31
0.0
0
LINE
8
TOP
10
2.925000
20
1.591726
30
0.0
11
3.037500
21
1.588017
31
0.0
0
LINE
8
TOP
10
3.037500
20
1.588017
30
0.0
11
3.150000
21
1.584308
31
0.0
0
LINE
8
TOP
10
3.150000
20
1.584308
30
0.0
11
3.262500
21
1.580599
31
0.0
0
LINE
8
TOP
10
3.262500
20
1.580599
30
0.0
11
3.375000
21
1.576890
31
0.0
0
LINE
8
TOP
10
3.375000
20
1.576890
30
0.0
11
3.487500
21
1.573181
31
0.0
0
LINE
8
TOP
10
3.487500
20
1.573181
30
0.0
11
3.600000
21
1.569472
31
0.0
0
LINE
8
TOP
10
3.600000
20
1.569472
30
0.0
11
3.712500
21
1.565763
31
0.0
0
LINE
8
TOP
10
3.712500
20
1.565763
30
0.0
11
3.825000
21
1.562054
31
0.0
0
LINE
8
TOP
10
3.825000
20
1.562054
30
0.0
11
3.937500
21
1.558345
31
0.0
0
LINE
8
TOP
10
3.937500
20
1.558345
30
0.0
11
4.050000
21
1.554636
31
0.0
0
LINE
8
TOP
10
4.050000
20
1.554636
30
0.0
11
4.162500
21
1.550927
31
0.0
0
LINE
8
TOP
10
4.162500
20
1.550927
30
0.0
11
4.275000
21
1.547218
31
0.0
0
LINE
8
TOP
10
4.275000
20
1.547218
30
0.0
11
4.387500
21
1.543509
31
0.0
0
LINE
8
TOP
10
4.387500
20
1.543509
30
0.0
11
4.500000
21
1.539800
31
0.0
0
LINE
8
TOP
10
4.500000
20
1.539800
30
0.0
11
4.612500
21
1.546423
31
0.0
0
LINE
8
TOP
10
4.612500
20
1.546423
30
0.0
11
4.725000
21
1.553045
31
0.0
0
LINE
8
TOP
10
4.725000
20
1.553045
30
0.0
11
4.837500
21
1.559667
31
0.0
0
LINE
8
TOP
10
4.837500
20
1.559667
30
0.0
11
4.950000
21
1.566289
31
0.0
0
LINE
8
TOP
10
4.950000
20
1.566289
30
0.0
11
5.062500
21
1.572911
31
0.0
0
LINE
8
TOP
10
5.062500
20
1.572911
30
0.0
11
5.175000
21
1.579533
31
0.0
0
LINE
8
TOP
10
5.175000
20
1.579533
30
0.0
11
5.287500
21
1.586156
31
0.0
0
LINE
8
TOP
10
5.287500
20
1.586156
30
0.0
11
5.400000
21
1.592778
31
0.0
0
LINE
8
TOP
10
5.400000
20
1.592778
30
0.0
11
5.512500
21
1.599400
31
0.0
0
LINE
8
TOP
10
5.512500
20
1.599400
30
0.0
11
5.625000
21
1.606022
31
0.0
0
LINE
8
TOP
10
5.625000
20
1.606022
30
0.0
11
5.737500
21
1.612644
31
0.0
0
LINE
8
TOP
10
5.737500
20
1.612644
30
0.0
11
5.850000
21
1.619267
31
0.0
0
LINE
8
TOP
10
5.850000
20
1.619267
30
0.0
11
5.962500
21
1.625889
31
0.0
0
LINE
8
TOP
10
5.962500
20
1.625889
30
0.0
11
6.075000
21
1.632511
31
0.0
0
LINE
8
TOP
10
6.075000
20
1.632511
30
0.0
11
6.187500
21
1.639133
31
0.0
0
LINE
8
TOP
10
6.187500
20
1.639133
30
0.0
11
6.300000
21
1.645755
31
0.0
0
LINE
8
TOP
10
6.300000
20
1.645755
30
0.0
11
6.412500
21
1.652378
31
0.0
0
LINE
8
TOP
10
6.412500
20
1.652378
30
0.0
11
6.525000
21
1.659000
31
0.0
0
LINE
8
TOP
10
6.525000
20
1.659000
30
0.0
11
6.637500
21
1.665622
31
0.0
0
LINE
8
TOP
10
6.637500
20
1.665622
30
0.0
11
6.750000
21
1.672244
31
0.0
0
LINE
8
TOP
10
6.750000
20
1.672244
30
0.0
11
6.862500
21
1.678866
31
0.0
0
LINE
8
TOP
10
6.862500
20
1.678866
30
0.0
11
6.975000
21
1.685488
31
0.0
0
LINE
8
TOP
10
6.975000
20
1.685488
30
0.0
11
7.087500
21
1.692111
31
0.0
0
LINE
8
TOP
10
7.087500
20
1.692111
30
0.0
11
7.200000
21
1.698733
31
0.0
0
LINE
8
TOP
10
7.200000
20
1.698733
30
0.0
11
7.312500
21
1.705355
31
0.0
0
LINE
8
TOP
10
7.312500
20
1.705355
30
0.0
11
7.425000
21
1.711977
31
0.0
0
LINE
8
TOP
10
7.425000
20
1.711977
30
0.0
11
7.537500
21
1.718599
31
0.0
0
LINE
8
TOP
10
7.537500
20
1.718599
30
0.0
11
7.650000
21
1.725222
31
0.0
0
LINE
8
TOP
10
7.650000
20
1.725222
30
0.0
11
7.762500
21
1.731844
31
0.0
0
LINE
8
TOP
10
7.762500
20
1.731844
30
0.0
11
7.875000
21
1.738466
31
0.0
0
LINE
8
TOP
10
7.875000
20
1.738466
30
0.0
11
7.987500
21
1.745088
31
0.0
0
LINE
8
TOP
10
7.987500
20
1.745088
30
0.0
11
8.100000
21
1.751710
31
0.0
0
LINE
8
TOP
10
8.100000
20
1.751710
30
0.0
11
8.212500
21
1.758333
31
0.0
0
LINE
8
TOP
10
8.212500
20
1.758333
30
0.0
11
8.325000
21
1.764955
31
0.0
0
LINE
8
TOP
10
8.325000
20
1.764955
30
0.0
11
8.437500
21
1.771577
31
0.0
0
LINE
8
TOP
10
8.437500
20
1.771577
30
0.0
11
8.500000
21
1.775256
31
0.0
0
LINE
8
TOP
10
8.500000
20
1.775256
30
0.0
11
8.550000
21
1.778199
31
0.0
0
LINE
8
TOP
10
8.550000
20
1.778199
30
0.0
11
8.662500
21
1.784821
31
0.0
0
LINE
8
TOP
10
8.662500
20
1.784821
30
0.0
11
8.775000
21
1.791443
31
0.0
0
LINE
8
TOP
10
8.775000
20
1.791443
30
0.0
11
8.887500
21
1.798066
31
0.0
0
LINE
8
TOP
10
8.887500
20
1.798066
30
0.0
11
9.000000
21
1.804688
31
0.0
0
LINE
8
TOP
10
0.000000
20
2.181243
30
0.0
11
0.000000
21
1.688158
31
0.0
0
LINE
8
TOP
10
9.000000
20
2.064713
30
0.0
11
9.000000
21
1.804688
31
0.0
0
LINE
8
SECTION
10
10.105100
20
-0.186891
30
0.0
11
10.894900
21
-0.186891
31
0.0
0
LINE
8
SECTION
10
10.894900
20
-0.186891
30
0.0
11
10.894900
21
0.186891
31
0.0
0
LINE
8
SECTION
10
10.894900
20
0.186891
30
0.0
11
10.105100
21
0.186891
31
0.0
0
LINE
8
SECTION
10
10.105100
20
0.186891
30
0.0
11
10.105100
21
-0.186891
31
0.0
0
LINE
8
SECTION
10
10.145100
20
-0.146891
30
0.0
11
10.854900
21
-0.146891
31
0.0
0
LINE
8
SECTION
10
10.854900
20
-0.146891
30
0.0
11
10.854900
21
0.146891
31
0.0
0
LINE
8
SECTION
10
10.854900
20
0.146891
30
0.0
11
10.145100
21
0.146891
31
0.0
0
LINE
8
SECTION
10
10.145100
20
0.146891
30
0.0
11
10.145100
21
-0.146891
31
0.0
0
LINE
8
SECTION
10
10.145100
20
0.000000
30
0.0
11
10.185100
21
0.000000
31
0.0
0
LINE
8
SECTION
10
10.185100
20
0.000000
30
0.0
11
10.185100
21
0.146891
31
0.0
0
LINE
8
SECTION
10
10.185100
20
0.146891
30
0.0
11
10.145100
21
0.146891
31
0.0
0
LINE
8
SECTION
10
10.145100
20
0.146891
30
0.0
11
10.145100
21
0.000000
31
0.0
0
LINE
8
SECTION
10
10.145100
20
-0.146891
30
0.0
11
10.185100
21
-0.146891
31
0.0
0
LINE
8
SECTION
10
10.185100
20
-0.146891
30
0.0
11
10.185100
21
0.000000
31
0.0
0
LINE
8
SECTION
10
10.185100
20
0.000000
30
0.0
11
10.145100
21
0.000000
31
0.0
0
LINE
8
SECTION
10
10.145100
20
0.000000
30
0.0
11
10.145100
21
-0.146891
31
0.0
0
LINE
8
SECTION
10
10.814900
20
0.000000
30
0.0
11
10.854900
21
0.000000
31
0.0
0
LINE
8
SECTION
10
10.854900
20
0.000000
30
0.0
11
10.854900
21
0.146891
31
0.0
0
LINE
8
SECTION
10
10.854900
20
0.146891
30
0.0
11
10.814900
21
0.146891
31
0.0
0
LINE
8
SECTION
10
10.814900
20
0.146891
30
0.0
11
10.814900
21
0.000000
31
0.0
0
LINE
8
SECTION
10
10.814900
20
-0.146891
30
0.0
11
10.854900
21
-0.146891
31
0.0
0
LINE
8
SECTION
10
10.854900
20
-0.146891
30
0.0
11
10.854900
21
0.000000
31
0.0
0
LINE
8
SECTION
10
10.854900
20
0.000000
30
0.0
11
10.814900
21
0.000000
31
0.0
0
LINE
8
SECTION
10
10.814900
20
0.000000
30
0.0
11
10.814900
21
-0.146891
31
0.0
0
ENDSEC
0
EOF
