0
SECTION
2
HEADER
9
$INSUNITS
70
1
0
ENDSEC
0
SECTION
2
ENTITIES
0
LINE
8
FRONT
10
0.000000
20
0.240000
30
0.0
11
0.112500
21
0.241648
31
0.0
0
LINE
8
FRONT
10
0.112500
20
0.241648
30
0.0
11
0.225000
21
0.243296
31
0.0
0
LINE
8
FRONT
10
0.225000
20
0.243296
30
0.0
11
0.337500
21
0.244944
31
0.0
0
LINE
8
FRONT
10
0.337500
20
0.244944
30
0.0
11
0.450000
21
0.246592
31
0.0
0
LINE
8
FRONT
10
0.450000
20
0.246592
30
0.0
11
0.500000
21
0.247324
31
0.0
0
LINE
8
FRONT
10
0.500000
20
0.247324
30
0.0
11
0.562500
21
0.248240
31
0.0
0
LINE
8
FRONT
10
0.562500
20
0.248240
30
0.0
11
0.675000
21
0.249888
31
0.0
0
LINE
8
FRONT
10
0.675000
20
0.249888
30
0.0
11
0.787500
21
0.251536
31
0.0
0
LINE
8
FRONT
10
0.787500
20
0.251536
30
0.0
11
0.900000
21
0.253184
31
0.0
0
LINE
8
FRONT
10
0.900000
20
0.253184
30
0.0
11
1.012500
21
0.254832
31
0.0
0
LINE
8
FRONT
10
1.012500
20
0.254832
30
0.0
11
1.125000
21
0.256479
31
0.0
0
LINE
8
FRONT
10
1.125000
20
0.256479
30
0.0
11
1.237500
21
0.258127
31
0.0
0
LINE
8
FRONT
10
1.237500
20
0.258127
30
0.0
11
1.350000
21
0.259775
31
0.0
0
LINE
8
FRONT
10
1.350000
20
0.259775
30
0.0
11
1.462500
21
0.261423
31
0.0
0
LINE
8
FRONT
10
1.462500
20
0.261423
30
0.0
11
1.575000
21
0.263071
31
0.0
0
LINE
8
FRONT
10
1.575000
20
0.263071
30
0.0
11
1.687500
21
0.264719
31
0.0
0
LINE
8
FRONT
10
1.687500
20
0.264719
30
0.0
11
1.800000
21
0.266367
31
0.0
0
LINE
8
FRONT
10
1.800000
20
0.266367
30
0.0
11
1.912500
21
0.268015
31
0.0
0
LINE
8
FRONT
10
1.912500
20
0.268015
30
0.0
11
2.025000
21
0.269663
31
0.0
0
LINE
8
FRONT
10
2.025000
20
0.269663
30
0.0
11
2.137500
21
0.271311
31
0.0
0
LINE
8
FRONT
10
2.137500
20
0.271311
30
0.0
11
2.250000
21
0.272959
31
0.0
0
LINE
8
FRONT
10
2.250000
20
0.272959
30
0.0
11
2.362500
21
0.274607
31
0.0
0
LINE
8
FRONT
10
2.362500
20
0.274607
30
0.0
11
2.475000
21
0.276255
31
0.0
0
LINE
8
FRONT
10
2.475000
20
0.276255
30
0.0
11
2.587500
21
0.277903
31
0.0
0
LINE
8
FRONT
10
2.587500
20
0.277903
30
0.0
11
2.700000
21
0.279551
31
0.0
0
LINE
8
FRONT
10
2.700000
20
0.279551
30
0.0
11
2.812500
21
0.281199
31
0.0
0
LINE
8
FRONT
10
2.812500
20
0.281199
30
0.0
11
2.925000
21
0.282847
31
0.0
0
LINE
8
FRONT
10
2.925000
20
0.282847
30
0.0
11
3.037500
21
0.284495
31
0.0
0
LINE
8
FRONT
10
3.037500
20
0.284495
30
0.0
11
3.150000
21
0.286142
31
0.0
0
LINE
8
FRONT
10
3.150000
20
0.286142
30
0.0
11
3.262500
21
0.287790
31
0.0
0
LINE
8
FRONT
10
3.262500
20
0.287790
30
0.0
11
3.375000
21
0.289438
31
0.0
0
LINE
8
FRONT
10
3.375000
20
0.289438
30
0.0
11
3.487500
21
0.291086
31
0.0
0
LINE
8
FRONT
10
3.487500
20
0.291086
30
0.0
11
3.600000
21
0.292734
31
0.0
0
LINE
8
FRONT
10
3.600000
20
0.292734
30
0.0
11
3.712500
21
0.294382
31
0.0
0
LINE
8
FRONT
10
3.712500
20
0.294382
30
0.0
11
3.825000
21
0.296030
31
0.0
0
LINE
8
FRONT
10
3.825000
20
0.296030
30
0.0
11
3.937500
21
0.297678
31
0.0
0
LINE
8
FRONT
10
3.937500
20
0.297678
30
0.0
11
4.050000
21
0.299326
31
0.0
0
LINE
8
FRONT
10
4.050000
20
0.299326
30
0.0
11
4.162500
21
0.300974
31
0.0
0
LINE
8
FRONT
10
4.162500
20
0.300974
30
0.0
11
4.275000
21
0.302622
31
0.0
0
LINE
8
FRONT
10
4.275000
20
0.302622
30
0.0
11
4.387500
21
0.304270
31
0.0
0
LINE
8
FRONT
10
4.387500
20
0.304270
30
0.0
11
4.500000
21
0.305918
31
0.0
0
LINE
8
FRONT
10
4.500000
20
0.305918
30
0.0
11
4.612500
21
0.304904
31
0.0
0
LINE
8
FRONT
10
4.612500
20
0.304904
30
0.0
11
4.725000
21
0.303891
31
0.0
0
LINE
8
FRONT
10
4.725000
20
0.303891
30
0.0
11
4.837500
21
0.302878
31
0.0
0
LINE
8
FRONT
10
4.837500
20
0.302878
30
0.0
11
4.950000
21
0.301865
31
0.0
0
LINE
8
FRONT
10
4.950000
20
0.301865
30
0.0
11
5.062500
21
0.300851
31
0.0
0
LINE
8
FRONT
10
5.062500
20
0.300851
30
0.0
11
5.175000
21
0.299838
31
0.0
0
LINE
8
FRONT
10
5.175000
20
0.299838
30
0.0
11
5.287500
21
0.298825
31
0.0
0
LINE
8
FRONT
10
5.287500
20
0.298825
30
0.0
11
5.400000
21
0.297811
31
0.0
0
LINE
8
FRONT
10
5.400000
20
0.297811
30
0.0
11
5.512500
21
0.296798
31
0.0
0
LINE
8
FRONT
10
5.512500
20
0.296798
30
0.0
11
5.625000
21
0.295785
31
0.0
0
LINE
8
FRONT
10
5.625000
20
0.295785
30
0.0
11
5.737500
21
0.294771
31
0.0
0
LINE
8
FRONT
10
5.737500
20
0.294771
30
0.0
11
5.850000
21
0.293758
31
0.0
0
LINE
8
FRONT
10
5.850000
20
0.293758
30
0.0
11
5.962500
21
0.292745
31
0.0
0
LINE
8
FRONT
10
5.962500
20
0.292745
30
0.0
11
6.075000
21
0.291732
31
0.0
0
LINE
8
FRONT
10
6.075000
20
0.291732
30
0.0
11
6.187500
21
0.290718
31
0.0
0
LINE
8
FRONT
10
6.187500
20
0.290718
30
0.0
11
6.300000
21
0.289705
31
0.0
0
LINE
8
FRONT
10
6.300000
20
0.289705
30
0.0
11
6.412500
21
0.288692
31
0.0
0
LINE
8
FRONT
10
6.412500
20
0.288692
30
0.0
11
6.525000
21
0.287678
31
0.0
0
LINE
8
FRONT
10
6.525000
20
0.287678
30
0.0
11
6.637500
21
0.286665
31
0.0
0
LINE
8
FRONT
10
6.637500
20
0.286665
30
0.0
11
6.750000
21
0.285652
31
0.0
0
LINE
8
FRONT
10
6.750000
20
0.285652
30
0.0
11
6.862500
21
0.284638
31
0.0
0
LINE
8
FRONT
10
6.862500
20
0.284638
30
0.0
11
6.975000
21
0.283625
31
0.0
0
LINE
8
FRONT
10
6.975000
20
0.283625
30
0.0
11
7.087500
21
0.282612
31
0.0
0
LINE
8
FRONT
10
7.087500
20
0.282612
30
0.0
11
7.200000
21
0.281599
31
0.0
0
LINE
8
FRONT
10
7.200000
20
0.281599
30
0.0
11
7.312500
21
0.280585
31
0.0
0
LINE
8
FRONT
10
7.312500
20
0.280585
30
0.0
11
7.425000
21
0.279572
31
0.0
0
LINE
8
FRONT
10
7.425000
20
0.279572
30
0.0
11
7.537500
21
0.278559
31
0.0
0
LINE
8
FRONT
10
7.537500
20
0.278559
30
0.0
11
7.650000
21
0.277545
31
0.0
0
LINE
8
FRONT
10
7.650000
20
0.277545
30
0.0
11
7.762500
21
0.276532
31
0.0
0
LINE
8
FRONT
10
7.762500
20
0.276532
30
0.0
11
7.875000
21
0.275519
31
0.0
0
LINE
8
FRONT
10
7.875000
20
0.275519
30
0.0
11
7.987500
21
0.274505
31
0.0
0
LINE
8
FRONT
10
7.987500
20
0.274505
30
0.0
11
8.100000
21
0.273492
31
0.0
0
LINE
8
FRONT
10
8.100000
20
0.273492
30
0.0
11
8.212500
21
0.272479
31
0.0
0
LINE
8
FRONT
10
8.212500
20
0.272479
30
0.0
11
8.325000
21
0.271466
31
0.0
0
LINE
8
FRONT
10
8.325000
20
0.271466
30
0.0
11
8.437500
21
0.270452
31
0.0
0
LINE
8
FRONT
10
8.437500
20
0.270452
30
0.0
11
8.500000
21
0.269889
31
0.0
0
LINE
8
FRONT
10
8.500000
20
0.269889
30
0.0
11
8.550000
21
0.269439
31
0.0
0
LINE
8
FRONT
10
8.550000
20
0.269439
30
0.0
11
8.662500
21
0.268426
31
0.0
0
LINE
8
FRONT
10
8.662500
20
0.268426
30
0.0
11
8.775000
21
0.267412
31
0.0
0
LINE
8
FRONT
10
8.775000
20
0.267412
30
0.0
11
8.887500
21
0.266399
31
0.0
0
LINE
8
FRONT
10
8.887500
20
0.266399
30
0.0
11
9.000000
21
0.265386
31
0.0
0
LINE
8
FRONT
10
0.000000
20
-0.240000
30
0.0
11
0.112500
21
-0.241648
31
0.0
0
LINE
8
FRONT
10
0.112500
20
-0.241648
30
0.0
11
0.225000
21
-0.243296
31
0.0
0
LINE
8
FRONT
10
0.225000
20
-0.243296
30
0.0
11
0.337500
21
-0.244944
31
0.0
0
LINE
8
FRONT
10
0.337500
20
-0.244944
30
0.0
11
0.450000
21
-0.246592
31
0.0
0
LINE
8
FRONT
10
0.450000
20
-0.246592
30
0.0
11
0.500000
21
-0.247324
31
0.0
0
LINE
8
FRONT
10
0.500000
20
-0.247324
30
0.0
11
0.562500
21
-0.248240
31
0.0
0
LINE
8
FRONT
10
0.562500
20
-0.248240
30
0.0
11
0.675000
21
-0.249888
31
0.0
0
LINE
8
FRONT
10
0.675000
20
-0.249888
30
0.0
11
0.787500
21
-0.251536
31
0.0
0
LINE
8
FRONT
10
0.787500
20
-0.251536
30
0.0
11
0.900000
21
-0.253184
31
0.0
0
LINE
8
FRONT
10
0.900000
20
-0.253184
30
0.0
11
1.012500
21
-0.254832
31
0.0
0
LINE
8
FRONT
10
1.012500
20
-0.254832
30
0.0
11
1.125000
21
-0.256479
31
0.0
0
LINE
8
FRONT
10
1.125000
20
-0.256479
30
0.0
11
1.237500
21
-0.258127
31
0.0
0
LINE
8
FRONT
10
1.237500
20
-0.258127
30
0.0
11
1.350000
21
-0.259775
31
0.0
0
LINE
8
FRONT
10
1.350000
20
-0.259775
30
0.0
11
1.462500
21
-0.261423
31
0.0
0
LINE
8
FRONT
10
1.462500
20
-0.261423
30
0.0
11
1.575000
21
-0.263071
31
0.0
0
LINE
8
FRONT
10
1.575000
20
-0.263071
30
0.0
11
1.687500
21
-0.264719
31
0.0
0
LINE
8
FRONT
10
1.687500
20
-0.264719
30
0.0
11
1.800000
21
-0.266367
31
0.0
0
LINE
8
FRONT
10
1.800000
20
-0.266367
30
0.0
11
1.912500
21
-0.268015
31
0.0
0
LINE
8
FRONT
10
1.912500
20
-0.268015
30
0.0
11
2.025000
21
-0.269663
31
0.0
0
LINE
8
FRONT
10
2.025000
20
-0.269663
30
0.0
11
2.137500
21
-0.271311
31
0.0
0
LINE
8
FRONT
10
2.137500
20
-0.271311
30
0.0
11
2.250000
21
-0.272959
31
0.0
0
LINE
8
FRONT
10
2.250000
20
-0.272959
30
0.0
11
2.362500
21
-0.274607
31
0.0
0
LINE
8
FRONT
10
2.362500
20
-0.274607
30
0.0
11
2.475000
21
-0.276255
31
0.0
0
LINE
8
FRONT
10
2.475000
20
-0.276255
30
0.0
11
2.587500
21
-0.277903
31
0.0
0
LINE
8
FRONT
10
2.587500
20
-0.277903
30
0.0
11
2.700000
21
-0.279551
31
0.0
0
LINE
8
FRONT
10
2.700000
20
-0.279551
30
0.0
11
2.812500
21
-0.281199
31
0.0
0
LINE
8
FRONT
10
2.812500
20
-0.281199
30
0.0
11
2.925000
21
-0.282847
31
0.0
0
LINE
8
FRONT
10
2.925000
20
-0.282847
30
0.0
11
3.037500
21
-0.284495
31
0.0
0
LINE
8
FRONT
10
3.037500
20
-0.284495
30
0.0
11
3.150000
21
-0.286142
31
0.0
0
LINE
8
FRONT
10
3.150000
20
-0.286142
30
0.0
11
3.262500
21
-0.287790
31
0.0
0
LINE
8
FRONT
10
3.262500
20
-0.287790
30
0.0
11
3.375000
21
-0.289438
31
0.0
0
LINE
8
FRONT
10
3.375000
20
-0.289438
30
0.0
11
3.487500
21
-0.291086
31
0.0
0
LINE
8
FRONT
10
3.487500
20
-0.291086
30
0.0
11
3.600000
21
-0.292734
31
0.0
0
LINE
8
FRONT
10
3.600000
20
-0.292734
30
0.0
11
3.712500
21
-0.294382
31
0.0
0
LINE
8
FRONT
10
3.712500
20
-0.294382
30
0.0
11
3.825000
21
-0.296030
31
0.0
0
LINE
8
FRONT
10
3.825000
20
-0.296030
30
0.0
11
3.937500
21
-0.297678
31
0.0
0
LINE
8
FRONT
10
3.937500
20
-0.297678
30
0.0
11
4.050000
21
-0.299326
31
0.0
0
LINE
8
FRONT
10
4.050000
20
-0.299326
30
0.0
11
4.162500
21
-0.300974
31
0.0
0
LINE
8
FRONT
10
4.162500
20
-0.300974
30
0.0
11
4.275000
21
-0.302622
31
0.0
0
LINE
8
FRONT
10
4.275000
20
-0.302622
30
0.0
11
4.387500
21
-0.304270
31
0.0
0
LINE
8
FRONT
10
4.387500
20
-0.304270
30
0.0
11
4.500000
21
-0.305918
31
0.0
0
LINE
8
FRONT
10
4.500000
20
-0.305918
30
0.0
11
4.612500
21
-0.304904
31
0.0
0
LINE
8
FRONT
10
4.612500
20
-0.304904
30
0.0
11
4.725000
21
-0.303891
31
0.0
0
LINE
8
FRONT
10
4.725000
20
-0.303891
30
0.0
11
4.837500
21
-0.302878
31
0.0
0
LINE
8
FRONT
10
4.837500
20
-0.302878
30
0.0
11
4.950000
21
-0.301865
31
0.0
0
LINE
8
FRONT
10
4.950000
20
-0.301865
30
0.0
11
5.062500
21
-0.300851
31
0.0
0
LINE
8
FRONT
10
5.062500
20
-0.300851
30
0.0
11
5.175000
21
-0.299838
31
0.0
0
LINE
8
FRONT
10
5.175000
20
-0.299838
30
0.0
11
5.287500
21
-0.298825
31
0.0
0
LINE
8
FRONT
10
5.287500
20
-0.298825
30
0.0
11
5.400000
21
-0.297811
31
0.0
0
LINE
8
FRONT
10
5.400000
20
-0.297811
30
0.0
11
5.512500
21
-0.296798
31
0.0
0
LINE
8
FRONT
10
5.512500
20
-0.296798
30
0.0
11
5.625000
21
-0.295785
31
0.0
0
LINE
8
FRONT
10
5.625000
20
-0.295785
30
0.0
11
5.737500
21
-0.294771
31
0.0
0
LINE
8
FRONT
10
5.737500
20
-0.294771
30
0.0
11
5.850000
21
-0.293758
31
0.0
0
LINE
8
FRONT
10
5.850000
20
-0.293758
30
0.0
11
5.962500
21
-0.292745
31
0.0
0
LINE
8
FRONT
10
5.962500
20
-0.292745
30
0.0
11
6.075000
21
-0.291732
31
0.0
0
LINE
8
FRONT
10
6.075000
20
-0.291732
30
0.0
11
6.187500
21
-0.290718
31
0.0
0
LINE
8
FRONT
10
6.187500
20
-0.290718
30
0.0
11
6.300000
21
-0.289705
31
0.0
0
LINE
8
FRONT
10
6.300000
20
-0.289705
30
0.0
11
6.412500
21
-0.288692
31
0.0
0
LINE
8
FRONT
10
6.412500
20
-0.288692
30
0.0
11
6.525000
21
-0.287678
31
0.0
0
LINE
8
FRONT
10
6.525000
20
-0.287678
30
0.0
11
6.637500
21
-0.286665
31
0.0
0
LINE
8
FRONT
10
6.637500
20
-0.286665
30
0.0
11
6.750000
21
-0.285652
31
0.0
0
LINE
8
FRONT
10
6.750000
20
-0.285652
30
0.0
11
6.862500
21
-0.284638
31
0.0
0
LINE
8
FRONT
10
6.862500
20
-0.284638
30
0.0
11
6.975000
21
-0.283625
31
0.0
0
LINE
8
FRONT
10
6.975000
20
-0.283625
30
0.0
11
7.087500
21
-0.282612
31
0.0
0
LINE
8
FRONT
10
7.087500
20
-0.282612
30
0.0
11
7.200000
21
-0.281599
31
0.0
0
LINE
8
FRONT
10
7.200000
20
-0.281599
30
0.0
11
7.312500
21
-0.280585
31
0.0
0
LINE
8
FRONT
10
7.312500
20
-0.280585
30
0.0
11
7.425000
21
-0.279572
31
0.0
0
LINE
8
FRONT
10
7.425000
20
-0.279572
30
0.0
11
7.537500
21
-0.278559
31
0.0
0
LINE
8
FRONT
10
7.537500
20
-0.278559
30
0.0
11
7.650000
21
-0.277545
31
0.0
0
LINE
8
FRONT
10
7.650000
20
-0.277545
30
0.0
11
7.762500
21
-0.276532
31
0.0
0
LINE
8
FRONT
10
7.762500
20
-0.276532
30
0.0
11
7.875000
21
-0.275519
31
0.0
0
LINE
8
FRONT
10
7.875000
20
-0.275519
30
0.0
11
7.987500
21
-0.274505
31
0.0
0
LINE
8
FRONT
10
7.987500
20
-0.274505
30
0.0
11
8.100000
21
-0.273492
31
0.0
0
LINE
8
FRONT
10
8.100000
20
-0.273492
30
0.0
11
8.212500
21
-0.272479
31
0.0
0
LINE
8
FRONT
10
8.212500
20
-0.272479
30
0.0
11
8.325000
21
-0.271466
31
0.0
0
LINE
8
FRONT
10
8.325000
20
-0.271466
30
0.0
11
8.437500
21
-0.270452
31
0.0
0
LINE
8
FRONT
10
8.437500
20
-0.270452
30
0.0
11
8.500000
21
-0.269889
31
0.0
0
LINE
8
FRONT
10
8.500000
20
-0.269889
30
0.0
11
8.550000
21
-0.269439
31
0.0
0
LINE
8
FRONT
10
8.550000
20
-0.269439
30
0.0
11
8.662500
21
-0.268426
31
0.0
0
LINE
8
FRONT
10
8.662500
20
-0.268426
30
0.0
11
8.775000
21
-0.267412
31
0.0
0
LINE
8
FRONT
10
8.775000
20
-0.267412
30
0.0
11
8.887500
21
-0.266399
31
0.0
0
LINE
8
FRONT
10
8.887500
20
-0.266399
30
0.0
11
9.000000
21
-0.265386
31
0.0
0
LINE
8
FRONT
10
0.000000
20
0.240000
30
0.0
11
0.000000
21
-0.240000
31
0.0
0
LINE
8
FRONT
10
9.000000
20
0.265386
30
0.0
11
9.000000
21
-0.265386
31
0.0
0
LINE
8
TOP
10
0.000000
20
1.946398
30
0.0
11
0.112500
21
1.945913
31
0.0
0
LINE
8
TOP
10
0.112500
20
1.945913
30
0.0
11
0.225000
21
1.945428
31
0.0
0
LINE
8
TOP
10
0.225000
20
1.945428
30
0.0
11
0.337500
21
1.944943
31
0.0
0
LINE
8
TOP
10
0.337500
20
1.944943
30
0.0
11
0.450000
21
1.944458
31
0.0
0
LINE
8
TOP
10
0.450000
20
1.944458
30
0.0
11
0.500000
21
1.944242
31
0.0
0
LINE
8
TOP
10
0.500000
20
1.944242
30
0.0
11
0.562500
21
1.943973
31
0.0
0
LINE
8
TOP
10
0.562500
20
1.943973
30
0.0
11
0.675000
21
1.943488
31
0.0
0
LINE
8
TOP
10
0.675000
20
1.943488
30
0.0
11
0.787500
21
1.943003
31
0.0
0
LINE
8
TOP
10
0.787500
20
1.943003
30
0.0
11
0.900000
21
1.942518
31
0.0
0
LINE
8
TOP
10
0.900000
20
1.942518
30
0.0
11
1.012500
21
1.942033
31
0.0
0
LINE
8
TOP
10
1.012500
20
1.942033
30
0.0
11
1.125000
21
1.941548
31
0.0
0
LINE
8
TOP
10
1.125000
20
1.941548
30
0.0
11
1.237500
21
1.941063
31
0.0
0
LINE
8
TOP
10
1.237500
20
1.941063
30
0.0
11
1.350000
21
1.940578
31
0.0
0
LINE
8
TOP
10
1.350000
20
1.940578
30
0.0
11
1.462500
21
1.940093
31
0.0
0
LINE
8
TOP
10
1.462500
20
1.940093
30
0.0
11
1.575000
21
1.939608
31
0.0
0
LINE
8
TOP
10
1.575000
20
1.939608
30
0.0
11
1.687500
21
1.939123
31
0.0
0
LINE
8
TOP
10
1.687500
20
1.939123
30
0.0
11
1.800000
21
1.938638
31
0.0
0
LINE
8
TOP
10
1.800000
20
1.938638
30
0.0
11
1.912500
21
1.938153
31
0.0
0
LINE
8
TOP
10
1.912500
20
1.938153
30
0.0
11
2.025000
21
1.937668
31
0.0
0
LINE
8
TOP
10
2.025000
20
1.937668
30
0.0
11
2.137500
21
1.937183
31
0.0
0
LINE
8
TOP
10
2.137500
20
1.937183
30
0.0
11
2.250000
21
1.936698
31
0.0
0
LINE
8
TOP
10
2.250000
20
1.936698
30
0.0
11
2.362500
21
1.936213
31
0.0
0
LINE
8
TOP
10
2.362500
20
1.936213
30
0.0
11
2.475000
21
1.935728
31
0.0
0
LINE
8
TOP
10
2.475000
20
1.935728
30
0.0
11
2.587500
21
1.935243
31
0.0
0
LINE
8
TOP
10
2.587500
20
1.935243
30
0.0
11
2.700000
21
1.934758
31
0.0
0
LINE
8
TOP
10
2.700000
20
1.934758
30
0.0
11
2.812500
21
1.934273
31
0.0
0
LINE
8
TOP
10
2.812500
20
1.934273
30
0.0
11
2.925000
21
1.933788
31
0.0
0
LINE
8
TOP
10
2.925000
20
1.933788
30
0.0
11
3.037500
21
1.933303
31
0.0
0
LINE
8
TOP
10
3.037500
20
1.933303
30
0.0
11
3.150000
21
1.932818
31
0.0
0
LINE
8
TOP
10
3.150000
20
1.932818
30
0.0
11
3.262500
21
1.932333
31
0.0
0
LINE
8
TOP
10
3.262500
20
1.932333
30
0.0
11
3.375000
21
1.931848
31
0.0
0
LINE
8
TOP
10
3.375000
20
1.931848
30
0.0
11
3.487500
21
1.931363
31
0.0
0
LINE
8
TOP
10
3.487500
20
1.931363
30
0.0
11
3.600000
21
1.930879
31
0.0
0
LINE
8
TOP
10
3.600000
20
1.930879
30
0.0
11
3.712500
21
1.930394
31
0.0
0
LINE
8
TOP
10
3.712500
20
1.930394
30
0.0
11
3.825000
21
1.929909
31
0.0
0
LINE
8
TOP
10
3.825000
20
1.929909
30
0.0
11
3.937500
21
1.929424
31
0.0
0
LINE
8
TOP
10
3.937500
20
1.929424
30
0.0
11
4.050000
21
1.928939
31
0.0
0
LINE
8
TOP
10
4.050000
20
1.928939
30
0.0
11
4.162500
21
1.928454
31
0.0
0
LINE
8
TOP
10
4.162500
20
1.928454
30
0.0
11
4.275000
21
1.927969
31
0.0
0
LINE
8
TOP
10
4.275000
20
1.927969
30
0.0
11
4.387500
21
1.927484
31
0.0
0
LINE
8
TOP
10
4.387500
20
1.927484
30
0.0
11
4.500000
21
1.926999
31
0.0
0
LINE
8
TOP
10
4.500000
20
1.926999
30
0.0
11
4.612500
21
1.923518
31
0.0
0
LINE
8
TOP
10
4.612500
20
1.923518
30
0.0
11
4.725000
21
1.920036
31
0.0
0
LINE
8
TOP
10
4.725000
20
1.920036
30
0.0
11
4.837500
21
1.916555
31
0.0
0
LINE
8
TOP
10
4.837500
20
1.916555
30
0.0
11
4.950000
21
1.913074
31
0.0
0
LINE
8
TOP
10
4.950000
20
1.913074
30
0.0
11
5.062500
21
1.909593
31
0.0
0
LINE
8
TOP
10
5.062500
20
1.909593
30
0.0
11
5.175000
21
1.906112
31
0.0
0
LINE
8
TOP
10
5.175000
20
1.906112
30
0.0
11
5.287500
21
1.902631
31
0.0
0
LINE
8
TOP
10
5.287500
20
1.902631
30
0.0
11
5.400000
21
1.899150
31
0.0
0
LINE
8
TOP
10
5.400000
20
1.899150
30
0.0
11
5.512500
21
1.895669
31
0.0
0
LINE
8
TOP
10
5.512500
20
1.895669
30
0.0
11
5.625000
21
1.892187
31
0.0
0
LINE
8
TOP
10
5.625000
20
1.892187
30
0.0
11
5.737500
21
1.888706
31
0.0
0
LINE
8
TOP
10
5.737500
20
1.888706
30
0.0
11
5.850000
21
1.885225
31
0.0
0
LINE
8
TOP
10
5.850000
20
1.885225
30
0.0
11
5.962500
21
1.881744
31
0.0
0
LINE
8
TOP
10
5.962500
20
1.881744
30
0.0
11
6.075000
21
1.878263
31
0.0
0
LINE
8
TOP
10
6.075000
20
1.878263
30
0.0
11
6.187500
21
1.874782
31
0.0
0
LINE
8
TOP
10
6.187500
20
1.874782
30
0.0
11
6.300000
21
1.871301
31
0.0
0
LINE
8
TOP
10
6.300000
20
1.871301
30
0.0
11
6.412500
21
1.867819
31
0.0
0
LINE
8
TOP
10
6.412500
20
1.867819
30
0.0
11
6.525000
21
1.864338
31
0.0
0
LINE
8
TOP
10
6.525000
20
1.864338
30
0.0
11
6.637500
21
1.860857
31
0.0
0
LINE
8
TOP
10
6.637500
20
1.860857
30
0.0
11
6.750000
21
1.857376
31
0.0
0
LINE
8
TOP
10
6.750000
20
1.857376
30
0.0
11
6.862500
21
1.853895
31
0.0
0
LINE
8
TOP
10
6.862500
20
1.853895
30
0.0
11
6.975000
21
1.850414
31
0.0
0
LINE
8
TOP
10
6.975000
20
1.850414
30
0.0
11
7.087500
21
1.846933
31
0.0
0
LINE
8
TOP
10
7.087500
20
1.846933
30
0.0
11
7.200000
21
1.843452
31
0.0
0
LINE
8
TOP
10
7.200000
20
1.843452
30
0.0
11
7.312500
21
1.839970
31
0.0
0
LINE
8
TOP
10
7.312500
20
1.839970
30
0.0
11
7.425000
21
1.836489
31
0.0
0
LINE
8
TOP
10
7.425000
20
1.836489
30
0.0
11
7.537500
21
1.833008
31
0.0
0
LINE
8
TOP
10
7.537500
20
1.833008
30
0.0
11
7.650000
21
1.829527
31
0.0
0
LINE
8
TOP
10
7.650000
20
1.829527
30
0.0
11
7.762500
21
1.826046
31
0.0
0
LINE
8
TOP
10
7.762500
20
1.826046
30
0.0
11
7.875000
21
1.822565
31
0.0
0
LINE
8
TOP
10
7.875000
20
1.822565
30
0.0
11
7.987500
21
1.819084
31
0.0
0
LINE
8
TOP
10
7.987500
20
1.819084
30
0.0
11
8.100000
21
1.815602
31
0.0
0
LINE
8
TOP
10
8.100000
20
1.815602
30
0.0
11
8.212500
21
1.812121
31
0.0
0
LINE
8
TOP
10
8.212500
20
1.812121
30
0.0
11
8.325000
21
1.808640
31
0.0
0
LINE
8
TOP
10
8.325000
20
1.808640
30
0.0
11
8.437500
21
1.805159
31
0.0
0
LINE
8
TOP
10
8.437500
20
1.805159
30
0.0
11
8.500000
21
1.803225
31
0.0
0
LINE
8
TOP
10
8.500000
20
1.803225
30
0.0
11
8.550000
21
1.801678
31
0.0
0
LINE
8
TOP
10
8.550000
20
1.801678
30
0.0
11
8.662500
21
1.798197
31
0.0
0
LINE
8
TOP
10
8.662500
20
1.798197
30
0.0
11
8.775000
21
1.794716
31
0.0
0
LINE
8
TOP
10
8.775000
20
1.794716
30
0.0
11
8.887500
21
1.791234
31
0.0
0
LINE
8
TOP
10
8.887500
20
1.791234
30
0.0
11
9.000000
21
1.787753
31
0.0
0
LINE
8
TOP
10
0.000000
20
1.389109
30
0.0
11
0.112500
21
1.389594
31
0.0
0
LINE
8
TOP
10
0.112500
20
1.389594
30
0.0
11
0.225000
21
1.390079
31
0.0
0
LINE
8
TOP
10
0.225000
20
1.390079
30
0.0
11
0.337500
21
1.390564
31
0.0
0
LINE
8
TOP
10
0.337500
20
1.390564
30
0.0
11
0.450000
21
1.391049
31
0.0
0
LINE
8
TOP
10
0.450000
20
1.391049
30
0.0
11
0.500000
21
1.391265
31
0.0
0
LINE
8
TOP
10
0.500000
20
1.391265
30
0.0
11
0.562500
21
1.391534
31
0.0
0
LINE
8
TOP
10
0.562500
20
1.391534
30
0.0
11
0.675000
21
1.392019
31
0.0
0
LINE
8
TOP
10
0.675000
20
1.392019
30
0.0
11
0.787500
21
1.392504
31
0.0
0
LINE
8
TOP
10
0.787500
20
1.392504
30
0.0
11
0.900000
21
1.392989
31
0.0
0
LINE
8
TOP
10
0.900000
20
1.392989
30
0.0
11
1.012500
21
1.393474
31
0.0
0
LINE
8
TOP
10
1.012500
20
1.393474
30
0.0
11
1.125000
21
1.393959
31
0.0
0
LINE
8
TOP
10
1.125000
20
1.393959
30
0.0
11
1.237500
21
1.394444
31
0.0
0
LINE
8
TOP
10
1.237500
20
1.394444
30
0.0
11
1.350000
21
1.394929
31
0.0
0
LINE
8
TOP
10
1.350000
20
1.394929
30
0.0
11
1.462500
21
1.395414
31
0.0
0
LINE
8
TOP
10
1.462500
20
1.395414
30
0.0
11
1.575000
21
1.395899
31
0.0
0
LINE
8
TOP
10
1.575000
20
1.395899
30
0.0
11
1.687500
21
1.396384
31
0.0
0
LINE
8
TOP
10
1.687500
20
1.396384
30
0.0
11
1.800000
21
1.396869
31
0.0
0
LINE
8
TOP
10
1.800000
20
1.396869
30
0.0
11
1.912500
21
1.397354
31
0.0
0
LINE
8
TOP
10
1.912500
20
1.397354
30
0.0
11
2.025000
21
1.397839
31
0.0
0
LINE
8
TOP
10
2.025000
20
1.397839
30
0.0
11
2.137500
21
1.398324
31
0.0
0
LINE
8
TOP
10
2.137500
20
1.398324
30
0.0
11
2.250000
21
1.398809
31
0.0
0
LINE
8
TOP
10
2.250000
20
1.398809
30
0.0
11
2.362500
21
1.399293
31
0.0
0
LINE
8
TOP
10
2.362500
20
1.399293
30
0.0
11
2.475000
21
1.399778
31
0.0
0
LINE
8
TOP
10
2.475000
20
1.399778
30
0.0
11
2.587500
21
1.400263
31
0.0
0
LINE
8
TOP
10
2.587500
20
1.400263
30
0.0
11
2.700000
21
1.400748
31
0.0
0
LINE
8
TOP
10
2.700000
20
1.400748
30
0.0
11
2.812500
21
1.401233
31
0.0
0
LINE
8
TOP
10
2.812500
20
1.401233
30
0.0
11
2.925000
21
1.401718
31
0.0
0
LINE
8
TOP
10
2.925000
20
1.401718
30
0.0
11
3.037500
21
1.402203
31
0.0
0
LINE
8
TOP
10
3.037500
20
1.402203
30
0.0
11
3.150000
21
1.402688
31
0.0
0
LINE
8
TOP
10
3.150000
20
1.402688
30
0.0
11
3.262500
21
1.403173
31
0.0
0
LINE
8
TOP
10
3.262500
20
1.403173
30
0.0
11
3.375000
21
1.403658
31
0.0
0
LINE
8
TOP
10
3.375000
20
1.403658
30
0.0
11
3.487500
21
1.404143
31
0.0
0
LINE
8
TOP
10
3.487500
20
1.404143
30
0.0
11
3.600000
21
1.404628
31
0.0
0
LINE
8
TOP
10
3.600000
20
1.404628
30
0.0
11
3.712500
21
1.405113
31
0.0
0
LINE
8
TOP
10
3.712500
20
1.405113
30
0.0
11
3.825000
21
1.405598
31
0.0
0
LINE
8
TOP
10
3.825000
20
1.405598
30
0.0
11
3.937500
21
1.406083
31
0.0
0
LINE
8
TOP
10
3.937500
20
1.406083
30
0.0
11
4.050000
21
1.406568
31
0.0
0
LINE
8
TOP
10
4.050000
20
1.406568
30
0.0
11
4.162500
21
1.407053
31
0.0
0
LINE
8
TOP
10
4.162500
20
1.407053
30
0.0
11
4.275000
21
1.407538
31
0.0
0
LINE
8
TOP
10
4.275000
20
1.407538
30
0.0
11
4.387500
21
1.408023
31
0.0
0
LINE
8
TOP
10
4.387500
20
1.408023
30
0.0
11
4.500000
21
1.408508
31
0.0
0
LINE
8
TOP
10
4.500000
20
1.408508
30
0.0
11
4.612500
21
1.411989
31
0.0
0
LINE
8
TOP
10
4.612500
20
1.411989
30
0.0
11
4.725000
21
1.415470
31
0.0
0
LINE
8
TOP
10
4.725000
20
1.415470
30
0.0
11
4.837500
21
1.418951
31
0.0
0
LINE
8
TOP
10
4.837500
20
1.418951
30
0.0
11
4.950000
21
1.422432
31
0.0
0
LINE
8
TOP
10
4.950000
20
1.422432
30
0.0
11
5.062500
21
1.425914
31
0.0
0
LINE
8
TOP
10
5.062500
20
1.425914
30
0.0
11
5.175000
21
1.429395
31
0.0
0
LINE
8
TOP
10
5.175000
20
1.429395
30
0.0
11
5.287500
21
1.432876
31
0.0
0
LINE
8
TOP
10
5.287500
20
1.432876
30
0.0
11
5.400000
21
1.436357
31
0.0
0
LINE
8
TOP
10
5.400000
20
1.436357
30
0.0
11
5.512500
21
1.439838
31
0.0
0
LINE
8
TOP
10
5.512500
20
1.439838
30
0.0
11
5.625000
21
1.443319
31
0.0
0
LINE
8
TOP
10
5.625000
20
1.443319
30
0.0
11
5.737500
21
1.446800
31
0.0
0
LINE
8
TOP
10
5.737500
20
1.446800
30
0.0
11
5.850000
21
1.450282
31
0.0
0
LINE
8
TOP
10
5.850000
20
1.450282
30
0.0
11
5.962500
21
1.453763
31
0.0
0
LINE
8
TOP
10
5.962500
20
1.453763
30
0.0
11
6.075000
21
1.457244
31
0.0
0
LINE
8
TOP
10
6.075000
20
1.457244
30
0.0
11
6.187500
21
1.460725
31
0.0
0
LINE
8
TOP
10
6.187500
20
1.460725
30
0.0
11
6.300000
21
1.464206
31
0.0
0
LINE
8
TOP
10
6.300000
20
1.464206
30
0.0
11
6.412500
21
1.467687
31
0.0
0
LINE
8
TOP
10
6.412500
20
1.467687
30
0.0
11
6.525000
21
1.471168
31
0.0
0
LINE
8
TOP
10
6.525000
20
1.471168
30
0.0
11
6.637500
21
1.474650
31
0.0
0
LINE
8
TOP
10
6.637500
20
1.474650
30
0.0
11
6.750000
21
1.478131
31
0.0
0
LINE
8
TOP
10
6.750000
20
1.478131
30
0.0
11
6.862500
21
1.481612
31
0.0
0
LINE
8
TOP
10
6.862500
20
1.481612
30
0.0
11
6.975000
21
1.485093
31
0.0
0
LINE
8
TOP
10
6.975000
20
1.485093
30
0.0
11
7.087500
21
1.488574
31
0.0
0
LINE
8
TOP
10
7.087500
20
1.488574
30
0.0
11
7.200000
21
1.492055
31
0.0
0
LINE
8
TOP
10
7.200000
20
1.492055
30
0.0
11
7.312500
21
1.495536
31
0.0
0
LINE
8
TOP
10
7.312500
20
1.495536
30
0.0
11
7.425000
21
1.499017
31
0.0
0
LINE
8
TOP
10
7.425000
20
1.499017
30
0.0
11
7.537500
21
1.502499
31
0.0
0
LINE
8
TOP
10
7.537500
20
1.502499
30
0.0
11
7.650000
21
1.505980
31
0.0
0
LINE
8
TOP
10
7.650000
20
1.505980
30
0.0
11
7.762500
21
1.509461
31
0.0
0
LINE
8
TOP
10
7.762500
20
1.509461
30
0.0
11
7.875000
21
1.512942
31
0.0
0
LINE
8
TOP
10
7.875000
20
1.512942
30
0.0
11
7.987500
21
1.516423
31
0.0
0
LINE
8
TOP
10
7.987500
20
1.516423
30
0.0
11
8.100000
21
1.519904
31
0.0
0
LINE
8
TOP
10
8.100000
20
1.519904
30
0.0
11
8.212500
21
1.523385
31
0.0
0
LINE
8
TOP
10
8.212500
20
1.523385
30
0.0
11
8.325000
21
1.526867
31
0.0
0
LINE
8
TOP
10
8.325000
20
1.526867
30
0.0
11
8.437500
21
1.530348
31
0.0
0
LINE
8
TOP
10
8.437500
20
1.530348
30
0.0
11
8.500000
21
1.532282
31
0.0
0
LINE
8
TOP
10
8.500000
20
1.532282
30
0.0
11
8.550000
21
1.533829
31
0.0
0
LINE
8
TOP
10
8.550000
20
1.533829
30
0.0
11
8.662500
21
1.537310
31
0.0
0
LINE
8
TOP
10
8.662500
20
1.537310
30
0.0
11
8.775000
21
1.540791
31
0.0
0
LINE
8
TOP
10
8.775000
20
1.540791
30
0.0
11
8.887500
21
1.544272
31
0.0
0
LINE
8
TOP
10
8.887500
20
1.544272
30
0.0
11
9.000000
21
1.547753
31
0.0
0
LINE
8
TOP
10
0.000000
20
1.946398
30
0.0
11
0.000000
21
1.389109
31
0.0
0
LINE
8
TOP
10
9.000000
20
1.787753
30
0.0
11
9.000000
21
1.547753
31
0.0
0
LINE
8
SECTION
10
10.240755
20
-0.305918
30
0.0
11
10.759245
21
-0.305918
31
0.0
0
LINE
8
SECTION
10
10.759245
20
-0.305918
30
0.0
11
10.759245
21
0.305918
31
0.0
0
LINE
8
SECTION
10
10.759245
20
0.305918
30
0.0
11
10.240755
21
0.305918
31
0.0
0
LINE
8
SECTION
10
10.240755
20
0.305918
30
0.0
11
10.240755
21
-0.305918
31
0.0
0
LINE
8
SECTION
10
10.300755
20
-0.245918
30
0.0
11
10.699245
21
-0.245918
31
0.0
0
LINE
8
SECTION
10
10.699245
20
-0.245918
30
0.0
11
10.699245
21
0.245918
31
0.0
0
LINE
8
SECTION
10
10.699245
20
0.245918
30
0.0
11
10.300755
21
0.245918
31
0.0
0
LINE
8
SECTION
10
10.300755
20
0.245918
30
0.0
11
10.300755
21
-0.245918
31
0.0
0
LINE
8
SECTION
10
10.300755
20
0.000000
30
0.0
11
10.360755
21
0.000000
31
0.0
0
LINE
8
SECTION
10
10.360755
20
0.000000
30
0.0
11
10.360755
21
0.245918
31
0.0
0
LINE
8
SECTION
10
10.360755
20
0.245918
30
0.0
11
10.300755
21
0.245918
31
0.0
0
LINE
8
SECTION
10
10.300755
20
0.245918
30
0.0
11
10.300755
21
0.000000
31
0.0
0
LINE
8
SECTION
10
10.300755
20
-0.245918
30
0.0
11
10.360755
21
-0.245918
31
0.0
0
LINE
8
SECTION
10
10.360755
20
-0.245918
30
0.0
11
10.360755
21
0.000000
31
0.0
0
LINE
8
SECTION
10
10.360755
20
0.000000
30
0.0
11
10.300755
21
0.000000
31
0.0
0
LINE
8
SECTION
10
10.300755
20
0.000000
30
0.0
11
10.300755
21
-0.245918
31
0.0
0
LINE
8
SECTION
10
10.639245
20
0.000000
30
0.0
11
10.699245
21
0.000000
31
0.0
0
LINE
8
SECTION
10
10.699245
20
0.000000
30
0.0
11
10.699245
21
0.245918
31
0.0
0
LINE
8
SECTION
10
10.699245
20
0.245918
30
0.0
11
10.639245
21
0.245918
31
0.0
0
LINE
8
SECTION
10
10.639245
20
0.245918
30
0.0
11
10.639245
21
0.000000
31
0.0
0
LINE
8
SECTION
10
10.639245
20
-0.245918
30
0.0
11
10.699245
21
-0.245918
31
0.0
0
LINE
8
SECTION
10
10.699245
20
-0.245918
30
0.0
11
10.699245
21
0.000000
31
0.0
0
LINE
8
SECTION
10
10.699245
20
0.000000
30
0.0
11
10.639245
21
0.000000
31
0.0
0
LINE
8
SECTION
10
10.639245
20
0.000000
30
0.0
11
10.639245
21
-0.245918
31
0.0
0
ENDSEC
0
EOF
