0
SECTION
2
HEADER
9
$INSUNITS
70
1
0
ENDSEC
0
SECTION
2
ENTITIES
0
LINE
8
FRONT
10
0.000000
20
0.304423
30
0.0
11
0.112500
21
0.305889
31
0.0
0
LINE
8
FRONT
10
0.112500
20
0.305889
30
0.0
11
0.225000
21
0.307355
31
0.0
0
LINE
8
FRONT
10
0.225000
20
0.307355
30
0.0
11
0.337500
21
0.308820
31
0.0
0
LINE
8
FRONT
10
0.337500
20
0.308820
30
0.0
11
0.450000
21
0.310286
31
0.0
0
LINE
8
FRONT
10
0.450000
20
0.310286
30
0.0
11
0.500000
21
0.310937
31
0.0
0
LINE
8
FRONT
10
0.500000
20
0.310937
30
0.0
11
0.562500
21
0.311752
31
0.0
0
LINE
8
FRONT
10
0.562500
20
0.311752
30
0.0
11
0.675000
21
0.313217
31
0.0
0
LINE
8
FRONT
10
0.675000
20
0.313217
30
0.0
11
0.787500
21
0.314683
31
0.0
0
LINE
8
FRONT
10
0.787500
20
0.314683
30
0.0
11
0.900000
21
0.316149
31
0.0
0
LINE
8
FRONT
10
0.900000
20
0.316149
30
0.0
11
1.012500
21
0.317614
31
0.0
0
LINE
8
FRONT
10
1.012500
20
0.317614
30
0.0
11
1.125000
21
0.319080
31
0.0
0
LINE
8
FRONT
10
1.125000
20
0.319080
30
0.0
11
1.237500
21
0.320545
31
0.0
0
LINE
8
FRONT
10
1.237500
20
0.320545
30
0.0
11
1.350000
21
0.322011
31
0.0
0
LINE
8
FRONT
10
1.350000
20
0.322011
30
0.0
11
1.462500
21
0.323477
31
0.0
0
LINE
8
FRONT
10
1.462500
20
0.323477
30
0.0
11
1.575000
21
0.324942
31
0.0
0
LINE
8
FRONT
10
1.575000
20
0.324942
30
0.0
11
1.687500
21
0.326408
31
0.0
0
LINE
8
FRONT
10
1.687500
20
0.326408
30
0.0
11
1.800000
21
0.327874
31
0.0
0
LINE
8
FRONT
10
1.800000
20
0.327874
30
0.0
11
1.912500
21
0.329339
31
0.0
0
LINE
8
FRONT
10
1.912500
20
0.329339
30
0.0
11
2.025000
21
0.330805
31
0.0
0
LINE
8
FRONT
10
2.025000
20
0.330805
30
0.0
11
2.137500
21
0.332271
31
0.0
0
LINE
8
FRONT
10
2.137500
20
0.332271
30
0.0
11
2.250000
21
0.333736
31
0.0
0
LINE
8
FRONT
10
2.250000
20
0.333736
30
0.0
11
2.362500
21
0.335202
31
0.0
0
LINE
8
FRONT
10
2.362500
20
0.335202
30
0.0
11
2.475000
21
0.336668
31
0.0
0
LINE
8
FRONT
10
2.475000
20
0.336668
30
0.0
11
2.587500
21
0.338133
31
0.0
0
LINE
8
FRONT
10
2.587500
20
0.338133
30
0.0
11
2.700000
21
0.339599
31
0.0
0
LINE
8
FRONT
10
2.700000
20
0.339599
30
0.0
11
2.812500
21
0.341065
31
0.0
0
LINE
8
FRONT
10
2.812500
20
0.341065
30
0.0
11
2.925000
21
0.342530
31
0.0
0
LINE
8
FRONT
10
2.925000
20
0.342530
30
0.0
11
3.037500
21
0.343996
31
0.0
0
LINE
8
FRONT
10
3.037500
20
0.343996
30
0.0
11
3.150000
21
0.345462
31
0.0
0
LINE
8
FRONT
10
3.150000
20
0.345462
30
0.0
11
3.262500
21
0.346927
31
0.0
0
LINE
8
FRONT
10
3.262500
20
0.346927
30
0.0
11
3.375000
21
0.348393
31
0.0
0
LINE
8
FRONT
10
3.375000
20
0.348393
30
0.0
11
3.487500
21
0.349859
31
0.0
0
LINE
8
FRONT
10
3.487500
20
0.349859
30
0.0
11
3.600000
21
0.351324
31
0.0
0
LINE
8
FRONT
10
3.600000
20
0.351324
30
0.0
11
3.712500
21
0.352790
31
0.0
0
LINE
8
FRONT
10
3.712500
20
0.352790
30
0.0
11
3.825000
21
0.354256
31
0.0
0
LINE
8
FRONT
10
3.825000
20
0.354256
30
0.0
11
3.937500
21
0.355721
31
0.0
0
LINE
8
FRONT
10
3.937500
20
0.355721
30
0.0
11
4.050000
21
0.357187
31
0.0
0
LINE
8
FRONT
10
4.050000
20
0.357187
30
0.0
11
4.162500
21
0.358653
31
0.0
0
LINE
8
FRONT
10
4.162500
20
0.358653
30
0.0
11
4.275000
21
0.360118
31
0.0
0
LINE
8
FRONT
10
4.275000
20
0.360118
30
0.0
11
4.387500
21
0.361584
31
0.0
0
LINE
8
FRONT
10
4.387500
20
0.361584
30
0.0
11
4.500000
21
0.363049
31
0.0
0
LINE
8
FRONT
10
4.500000
20
0.363049
30
0.0
11
4.612500
21
0.363483
31
0.0
0
LINE
8
FRONT
10
4.612500
20
0.363483
30
0.0
11
4.725000
21
0.363917
31
0.0
0
LINE
8
FRONT
10
4.725000
20
0.363917
30
0.0
11
4.837500
21
0.364351
31
0.0
0
LINE
8
FRONT
10
4.837500
20
0.364351
30
0.0
11
4.950000
21
0.364785
31
0.0
0
LINE
8
FRONT
10
4.950000
20
0.364785
30
0.0
11
5.062500
21
0.365219
31
0.0
0
LINE
8
FRONT
10
5.062500
20
0.365219
30
0.0
11
5.175000
21
0.365653
31
0.0
0
LINE
8
FRONT
10
5.175000
20
0.365653
30
0.0
11
5.287500
21
0.366087
31
0.0
0
LINE
8
FRONT
10
5.287500
20
0.366087
30
0.0
11
5.400000
21
0.366521
31
0.0
0
LINE
8
FRONT
10
5.400000
20
0.366521
30
0.0
11
5.512500
21
0.366955
31
0.0
0
LINE
8
FRONT
10
5.512500
20
0.366955
30
0.0
11
5.625000
21
0.367389
31
0.0
0
LINE
8
FRONT
10
5.625000
20
0.367389
30
0.0
11
5.737500
21
0.367823
31
0.0
0
LINE
8
FRONT
10
5.737500
20
0.367823
30
0.0
11
5.850000
21
0.368256
31
0.0
0
LINE
8
FRONT
10
5.850000
20
0.368256
30
0.0
11
5.962500
21
0.368690
31
0.0
0
LINE
8
FRONT
10
5.962500
20
0.368690
30
0.0
11
6.075000
21
0.369124
31
0.0
0
LINE
8
FRONT
10
6.075000
20
0.369124
30
0.0
11
6.187500
21
0.369558
31
0.0
0
LINE
8
FRONT
10
6.187500
20
0.369558
30
0.0
11
6.300000
21
0.369992
31
0.0
0
LINE
8
FRONT
10
6.300000
20
0.369992
30
0.0
11
6.412500
21
0.370426
31
0.0
0
LINE
8
FRONT
10
6.412500
20
0.370426
30
0.0
11
6.525000
21
0.370860
31
0.0
0
LINE
8
FRONT
10
6.525000
20
0.370860
30
0.0
11
6.637500
21
0.371294
31
0.0
0
LINE
8
FRONT
10
6.637500
20
0.371294
30
0.0
11
6.750000
21
0.371728
31
0.0
0
LINE
8
FRONT
10
6.750000
20
0.371728
30
0.0
11
6.862500
21
0.372162
31
0.0
0
LINE
8
FRONT
10
6.862500
20
0.372162
30
0.0
11
6.975000
21
0.372596
31
0.0
0
LINE
8
FRONT
10
6.975000
20
0.372596
30
0.0
11
7.087500
21
0.373029
31
0.0
0
LINE
8
FRONT
10
7.087500
20
0.373029
30
0.0
11
7.200000
21
0.373463
31
0.0
0
LINE
8
FRONT
10
7.200000
20
0.373463
30
0.0
11
7.312500
21
0.373897
31
0.0
0
LINE
8
FRONT
10
7.312500
20
0.373897
30
0.0
11
7.425000
21
0.374331
31
0.0
0
LINE
8
FRONT
10
7.425000
20
0.374331
30
0.0
11
7.537500
21
0.374765
31
0.0
0
LINE
8
FRONT
10
7.537500
20
0.374765
30
0.0
11
7.650000
21
0.375199
31
0.0
0
LINE
8
FRONT
10
7.650000
20
0.375199
30
0.0
11
7.762500
21
0.375633
31
0.0
0
LINE
8
FRONT
10
7.762500
20
0.375633
30
0.0
11
7.875000
21
0.376067
31
0.0
0
LINE
8
FRONT
10
7.875000
20
0.376067
30
0.0
11
7.987500
21
0.376501
31
0.0
0
LINE
8
FRONT
10
7.987500
20
0.376501
30
0.0
11
8.100000
21
0.376935
31
0.0
0
LINE
8
FRONT
10
8.100000
20
0.376935
30
0.0
11
8.212500
21
0.377369
31
0.0
0
LINE
8
FRONT
10
8.212500
20
0.377369
30
0.0
11
8.325000
21
0.377803
31
0.0
0
LINE
8
FRONT
10
8.325000
20
0.377803
30
0.0
11
8.437500
21
0.378236
31
0.0
0
LINE
8
FRONT
10
8.437500
20
0.378236
30
0.0
11
8.500000
21
0.378477
31
0.0
0
LINE
8
FRONT
10
8.500000
20
0.378477
30
0.0
11
8.550000
21
0.378670
31
0.0
0
LINE
8
FRONT
10
8.550000
20
0.378670
30
0.0
11
8.662500
21
0.379104
31
0.0
0
LINE
8
FRONT
10
8.662500
20
0.379104
30
0.0
11
8.775000
21
0.379538
31
0.0
0
LINE
8
FRONT
10
8.775000
20
0.379538
30
0.0
11
8.887500
21
0.379972
31
0.0
0
LINE
8
FRONT
10
8.887500
20
0.379972
30
0.0
11
9.000000
21
0.380406
31
0.0
0
LINE
8
FRONT
10
0.000000
20
-0.304423
30
0.0
11
0.112500
21
-0.305889
31
0.0
0
LINE
8
FRONT
10
0.112500
20
-0.305889
30
0.0
11
0.225000
21
-0.307355
31
0.0
0
LINE
8
FRONT
10
0.225000
20
-0.307355
30
0.0
11
0.337500
21
-0.308820
31
0.0
0
LINE
8
FRONT
10
0.337500
20
-0.308820
30
0.0
11
0.450000
21
-0.310286
31
0.0
0
LINE
8
FRONT
10
0.450000
20
-0.310286
30
0.0
11
0.500000
21
-0.310937
31
0.0
0
LINE
8
FRONT
10
0.500000
20
-0.310937
30
0.0
11
0.562500
21
-0.311752
31
0.0
0
LINE
8
FRONT
10
0.562500
20
-0.311752
30
0.0
11
0.675000
21
-0.313217
31
0.0
0
LINE
8
FRONT
10
0.675000
20
-0.313217
30
0.0
11
0.787500
21
-0.314683
31
0.0
0
LINE
8
FRONT
10
0.787500
20
-0.314683
30
0.0
11
0.900000
21
-0.316149
31
0.0
0
LINE
8
FRONT
10
0.900000
20
-0.316149
30
0.0
11
1.012500
21
-0.317614
31
0.0
0
LINE
8
FRONT
10
1.012500
20
-0.317614
30
0.0
11
1.125000
21
-0.319080
31
0.0
0
LINE
8
FRONT
10
1.125000
20
-0.319080
30
0.0
11
1.237500
21
-0.320545
31
0.0
0
LINE
8
FRONT
10
1.237500
20
-0.320545
30
0.0
11
1.350000
21
-0.322011
31
0.0
0
LINE
8
FRONT
10
1.350000
20
-0.322011
30
0.0
11
1.462500
21
-0.323477
31
0.0
0
LINE
8
FRONT
10
1.462500
20
-0.323477
30
0.0
11
1.575000
21
-0.324942
31
0.0
0
LINE
8
FRONT
10
1.575000
20
-0.324942
30
0.0
11
1.687500
21
-0.326408
31
0.0
0
LINE
8
FRONT
10
1.687500
20
-0.326408
30
0.0
11
1.800000
21
-0.327874
31
0.0
0
LINE
8
FRONT
10
1.800000
20
-0.327874
30
0.0
11
1.912500
21
-0.329339
31
0.0
0
LINE
8
FRONT
10
1.912500
20
-0.329339
30
0.0
11
2.025000
21
-0.330805
31
0.0
0
LINE
8
FRONT
10
2.025000
20
-0.330805
30
0.0
11
2.137500
21
-0.332271
31
0.0
0
LINE
8
FRONT
10
2.137500
20
-0.332271
30
0.0
11
2.250000
21
-0.333736
31
0.0
0
LINE
8
FRONT
10
2.250000
20
-0.333736
30
0.0
11
2.362500
21
-0.335202
31
0.0
0
LINE
8
FRONT
10
2.362500
20
-0.335202
30
0.0
11
2.475000
21
-0.336668
31
0.0
0
LINE
8
FRONT
10
2.475000
20
-0.336668
30
0.0
11
2.587500
21
-0.338133
31
0.0
0
LINE
8
FRONT
10
2.587500
20
-0.338133
30
0.0
11
2.700000
21
-0.339599
31
0.0
0
LINE
8
FRONT
10
2.700000
20
-0.339599
30
0.0
11
2.812500
21
-0.341065
31
0.0
0
LINE
8
FRONT
10
2.812500
20
-0.341065
30
0.0
11
2.925000
21
-0.342530
31
0.0
0
LINE
8
FRONT
10
2.925000
20
-0.342530
30
0.0
11
3.037500
21
-0.343996
31
0.0
0
LINE
8
FRONT
10
3.037500
20
-0.343996
30
0.0
11
3.150000
21
-0.345462
31
0.0
0
LINE
8
FRONT
10
3.150000
20
-0.345462
30
0.0
11
3.262500
21
-0.346927
31
0.0
0
LINE
8
FRONT
10
3.262500
20
-0.346927
30
0.0
11
3.375000
21
-0.348393
31
0.0
0
LINE
8
FRONT
10
3.375000
20
-0.348393
30
0.0
11
3.487500
21
-0.349859
31
0.0
0
LINE
8
FRONT
10
3.487500
20
-0.349859
30
0.0
11
3.600000
21
-0.351324
31
0.0
0
LINE
8
FRONT
10
3.600000
20
-0.351324
30
0.0
11
3.712500
21
-0.352790
31
0.0
0
LINE
8
FRONT
10
3.712500
20
-0.352790
30
0.0
11
3.825000
21
-0.354256
31
0.0
0
LINE
8
FRONT
10
3.825000
20
-0.354256
30
0.0
11
3.937500
21
-0.355721
31
0.0
0
LINE
8
FRONT
10
3.937500
20
-0.355721
30
0.0
11
4.050000
21
-0.357187
31
0.0
0
LINE
8
FRONT
10
4.050000
20
-0.357187
30
0.0
11
4.162500
21
-0.358653
31
0.0
0
LINE
8
FRONT
10
4.162500
20
-0.358653
30
0.0
11
4.275000
21
-0.360118
31
0.0
0
LINE
8
FRONT
10
4.275000
20
-0.360118
30
0.0
11
4.387500
21
-0.361584
31
0.0
0
LINE
8
FRONT
10
4.387500
20
-0.361584
30
0.0
11
4.500000
21
-0.363049
31
0.0
0
LINE
8
FRONT
10
4.500000
20
-0.363049
30
0.0
11
4.612500
21
-0.363483
31
0.0
0
LINE
8
FRONT
10
4.612500
20
-0.363483
30
0.0
11
4.725000
21
-0.363917
31
0.0
0
LINE
8
FRONT
10
4.725000
20
-0.363917
30
0.0
11
4.837500
21
-0.364351
31
0.0
0
LINE
8
FRONT
10
4.837500
20
-0.364351
30
0.0
11
4.950000
21
-0.364785
31
0.0
0
LINE
8
FRONT
10
4.950000
20
-0.364785
30
0.0
11
5.062500
21
-0.365219
31
0.0
0
LINE
8
FRONT
10
5.062500
20
-0.365219
30
0.0
11
5.175000
21
-0.365653
31
0.0
0
LINE
8
FRONT
10
5.175000
20
-0.365653
30
0.0
11
5.287500
21
-0.366087
31
0.0
0
LINE
8
FRONT
10
5.287500
20
-0.366087
30
0.0
11
5.400000
21
-0.366521
31
0.0
0
LINE
8
FRONT
10
5.400000
20
-0.366521
30
0.0
11
5.512500
21
-0.366955
31
0.0
0
LINE
8
FRONT
10
5.512500
20
-0.366955
30
0.0
11
5.625000
21
-0.367389
31
0.0
0
LINE
8
FRONT
10
5.625000
20
-0.367389
30
0.0
11
5.737500
21
-0.367823
31
0.0
0
LINE
8
FRONT
10
5.737500
20
-0.367823
30
0.0
11
5.850000
21
-0.368256
31
0.0
0
LINE
8
FRONT
10
5.850000
20
-0.368256
30
0.0
11
5.962500
21
-0.368690
31
0.0
0
LINE
8
FRONT
10
5.962500
20
-0.368690
30
0.0
11
6.075000
21
-0.369124
31
0.0
0
LINE
8
FRONT
10
6.075000
20
-0.369124
30
0.0
11
6.187500
21
-0.369558
31
0.0
0
LINE
8
FRONT
10
6.187500
20
-0.369558
30
0.0
11
6.300000
21
-0.369992
31
0.0
0
LINE
8
FRONT
10
6.300000
20
-0.369992
30
0.0
11
6.412500
21
-0.370426
31
0.0
0
LINE
8
FRONT
10
6.412500
20
-0.370426
30
0.0
11
6.525000
21
-0.370860
31
0.0
0
LINE
8
FRONT
10
6.525000
20
-0.370860
30
0.0
11
6.637500
21
-0.371294
31
0.0
0
LINE
8
FRONT
10
6.637500
20
-0.371294
30
0.0
11
6.750000
21
-0.371728
31
0.0
0
LINE
8
FRONT
10
6.750000
20
-0.371728
30
0.0
11
6.862500
21
-0.372162
31
0.0
0
LINE
8
FRONT
10
6.862500
20
-0.372162
30
0.0
11
6.975000
21
-0.372596
31
0.0
0
LINE
8
FRONT
10
6.975000
20
-0.372596
30
0.0
11
7.087500
21
-0.373029
31
0.0
0
LINE
8
FRONT
10
7.087500
20
-0.373029
30
0.0
11
7.200000
21
-0.373463
31
0.0
0
LINE
8
FRONT
10
7.200000
20
-0.373463
30
0.0
11
7.312500
21
-0.373897
31
0.0
0
LINE
8
FRONT
10
7.312500
20
-0.373897
30
0.0
11
7.425000
21
-0.374331
31
0.0
0
LINE
8
FRONT
10
7.425000
20
-0.374331
30
0.0
11
7.537500
21
-0.374765
31
0.0
0
LINE
8
FRONT
10
7.537500
20
-0.374765
30
0.0
11
7.650000
21
-0.375199
31
0.0
0
LINE
8
FRONT
10
7.650000
20
-0.375199
30
0.0
11
7.762500
21
-0.375633
31
0.0
0
LINE
8
FRONT
10
7.762500
20
-0.375633
30
0.0
11
7.875000
21
-0.376067
31
0.0
0
LINE
8
FRONT
10
7.875000
20
-0.376067
30
0.0
11
7.987500
21
-0.376501
31
0.0
0
LINE
8
FRONT
10
7.987500
20
-0.376501
30
0.0
11
8.100000
21
-0.376935
31
0.0
0
LINE
8
FRONT
10
8.100000
20
-0.376935
30
0.0
11
8.212500
21
-0.377369
31
0.0
0
LINE
8
FRONT
10
8.212500
20
-0.377369
30
0.0
11
8.325000
21
-0.377803
31
0.0
0
LINE
8
FRONT
10
8.325000
20
-0.377803
30
0.0
11
8.437500
21
-0.378236
31
0.0
0
LINE
8
FRONT
10
8.437500
20
-0.378236
30
0.0
11
8.500000
21
-0.378477
31
0.0
0
LINE
8
FRONT
10
8.500000
20
-0.378477
30
0.0
11
8.550000
21
-0.378670
31
0.0
0
LINE
8
FRONT
10
8.550000
20
-0.378670
30
0.0
11
8.662500
21
-0.379104
31
0.0
0
LINE
8
FRONT
10
8.662500
20
-0.379104
30
0.0
11
8.775000
21
-0.379538
31
0.0
0
LINE
8
FRONT
10
8.775000
20
-0.379538
30
0.0
11
8.887500
21
-0.379972
31
0.0
0
LINE
8
FRONT
10
8.887500
20
-0.379972
30
0.0
11
9.000000
21
-0.380406
31
0.0
0
LINE
8
FRONT
10
0.000000
20
0.304423
30
0.0
11
0.000000
21
-0.304423
31
0.0
0
LINE
8
FRONT
10
9.000000
20
0.380406
30
0.0
11
9.000000
21
-0.380406
31
0.0
0
LINE
8
TOP
10
0.000000
20
2.073843
30
0.0
11
0.112500
21
2.074628
31
0.0
0
LINE
8
TOP
10
0.112500
20
2.074628
30
0.0
11
0.225000
21
2.075412
31
0.0
0
LINE
8
TOP
10
0.225000
20
2.075412
30
0.0
11
0.337500
21
2.076197
31
0.0
0
LINE
8
TOP
10
0.337500
20
2.076197
30
0.0
11
0.450000
21
2.076982
31
0.0
0
LINE
8
TOP
10
0.450000
20
2.076982
30
0.0
11
0.500000
21
2.077331
31
0.0
0
LINE
8
TOP
10
0.500000
20
2.077331
30
0.0
11
0.562500
21
2.077767
31
0.0
0
LINE
8
TOP
10
0.562500
20
2.077767
30
0.0
11
0.675000
21
2.078552
31
0.0
0
LINE
8
TOP
10
0.675000
20
2.078552
30
0.0
11
0.787500
21
2.079336
31
0.0
0
LINE
8
TOP
10
0.787500
20
2.079336
30
0.0
11
0.900000
21
2.080121
31
0.0
0
LINE
8
TOP
10
0.900000
20
2.080121
30
0.0
11
1.012500
21
2.080906
31
0.0
0
LINE
8
TOP
10
1.012500
20
2.080906
30
0.0
11
1.125000
21
2.081691
31
0.0
0
LINE
8
TOP
10
1.125000
20
2.081691
30
0.0
11
1.237500
21
2.082476
31
0.0
0
LINE
8
TOP
10
1.237500
20
2.082476
30
0.0
11
1.350000
21
2.083260
31
0.0
0
LINE
8
TOP
10
1.350000
20
2.083260
30
0.0
11
1.462500
21
2.084045
31
0.0
0
LINE
8
TOP
10
1.462500
20
2.084045
30
0.0
11
1.575000
21
2.084830
31
0.0
0
LINE
8
TOP
10
1.575000
20
2.084830
30
0.0
11
1.687500
21
2.085615
31
0.0
0
LINE
8
TOP
10
1.687500
20
2.085615
30
0.0
11
1.800000
21
2.086400
31
0.0
0
LINE
8
TOP
10
1.800000
20
2.086400
30
0.0
11
1.912500
21
2.087184
31
0.0
0
LINE
8
TOP
10
1.912500
20
2.087184
30
0.0
11
2.025000
21
2.087969
31
0.0
0
LINE
8
TOP
10
2.025000
20
2.087969
30
0.0
11
2.137500
21
2.088754
31
0.0
0
LINE
8
TOP
10
2.137500
20
2.088754
30
0.0
11
2.250000
21
2.089539
31
0.0
0
LINE
8
TOP
10
2.250000
20
2.089539
30
0.0
11
2.362500
21
2.090324
31
0.0
0
LINE
8
TOP
10
2.362500
20
2.090324
30
0.0
11
2.475000
21
2.091108
31
0.0
0
LINE
8
TOP
10
2.475000
20
2.091108
30
0.0
11
2.587500
21
2.091893
31
0.0
0
LINE
8
TOP
10
2.587500
20
2.091893
30
0.0
11
2.700000
21
2.092678
31
0.0
0
LINE
8
TOP
10
2.700000
20
2.092678
30
0.0
11
2.812500
21
2.093463
31
0.0
0
LINE
8
TOP
10
2.812500
20
2.093463
30
0.0
11
2.925000
21
2.094248
31
0.0
0
LINE
8
TOP
10
2.925000
20
2.094248
30
0.0
11
3.037500
21
2.095032
31
0.0
0
LINE
8
TOP
10
3.037500
20
2.095032
30
0.0
11
3.150000
21
2.095817
31
0.0
0
LINE
8
TOP
10
3.150000
20
2.095817
30
0.0
11
3.262500
21
2.096602
31
0.0
0
LINE
8
TOP
10
3.262500
20
2.096602
30
0.0
11
3.375000
21
2.097387
31
0.0
0
LINE
8
TOP
10
3.375000
20
2.097387
30
0.0
11
3.487500
21
2.098172
31
0.0
0
LINE
8
TOP
10
3.487500
20
2.098172
30
0.0
11
3.600000
21
2.098956
31
0.0
0
LINE
8
TOP
10
3.600000
20
2.098956
30
0.0
11
3.712500
21
2.099741
31
0.0
0
LINE
8
TOP
10
3.712500
20
2.099741
30
0.0
11
3.825000
21
2.100526
31
0.0
0
LINE
8
TOP
10
3.825000
20
2.100526
30
0.0
11
3.937500
21
2.101311
31
0.0
0
LINE
8
TOP
10
3.937500
20
2.101311
30
0.0
11
4.050000
21
2.102096
31
0.0
0
LINE
8
TOP
10
4.050000
20
2.102096
30
0.0
11
4.162500
21
2.102880
31
0.0
0
LINE
8
TOP
10
4.162500
20
2.102880
30
0.0
11
4.275000
21
2.103665
31
0.0
0
LINE
8
TOP
10
4.275000
20
2.103665
30
0.0
11
4.387500
21
2.104450
31
0.0
0
LINE
8
TOP
10
4.387500
20
2.104450
30
0.0
11
4.500000
21
2.105235
31
0.0
0
LINE
8
TOP
10
4.500000
20
2.105235
30
0.0
11
4.612500
21
2.102884
31
0.0
0
LINE
8
TOP
10
4.612500
20
2.102884
30
0.0
11
4.725000
21
2.100534
31
0.0
0
LINE
8
TOP
10
4.725000
20
2.100534
30
0.0
11
4.837500
21
2.098184
31
0.0
0
LINE
8
TOP
10
4.837500
20
2.098184
30
0.0
11
4.950000
21
2.095833
31
0.0
0
LINE
8
TOP
10
4.950000
20
2.095833
30
0.0
11
5.062500
21
2.093483
31
0.0
0
LINE
8
TOP
10
5.062500
20
2.093483
30
0.0
11
5.175000
21
2.091132
31
0.0
0
LINE
8
TOP
10
5.175000
20
2.091132
30
0.0
11
5.287500
21
2.088782
31
0.0
0
LINE
8
TOP
10
5.287500
20
2.088782
30
0.0
11
5.400000
21
2.086431
31
0.0
0
LINE
8
TOP
10
5.400000
20
2.086431
30
0.0
11
5.512500
21
2.084081
31
0.0
0
LINE
8
TOP
10
5.512500
20
2.084081
30
0.0
11
5.625000
21
2.081731
31
0.0
0
LINE
8
TOP
10
5.625000
20
2.081731
30
0.0
11
5.737500
21
2.079380
31
0.0
0
LINE
8
TOP
10
5.737500
20
2.079380
30
0.0
11
5.850000
21
2.077030
31
0.0
0
LINE
8
TOP
10
5.850000
20
2.077030
30
0.0
11
5.962500
21
2.074679
31
0.0
0
LINE
8
TOP
10
5.962500
20
2.074679
30
0.0
11
6.075000
21
2.072329
31
0.0
0
LINE
8
TOP
10
6.075000
20
2.072329
30
0.0
11
6.187500
21
2.069979
31
0.0
0
LINE
8
TOP
10
6.187500
20
2.069979
30
0.0
11
6.300000
21
2.067628
31
0.0
0
LINE
8
TOP
10
6.300000
20
2.067628
30
0.0
11
6.412500
21
2.065278
31
0.0
0
LINE
8
TOP
10
6.412500
20
2.065278
30
0.0
11
6.525000
21
2.062927
31
0.0
0
LINE
8
TOP
10
6.525000
20
2.062927
30
0.0
11
6.637500
21
2.060577
31
0.0
0
LINE
8
TOP
10
6.637500
20
2.060577
30
0.0
11
6.750000
21
2.058226
31
0.0
0
LINE
8
TOP
10
6.750000
20
2.058226
30
0.0
11
6.862500
21
2.055876
31
0.0
0
LINE
8
TOP
10
6.862500
20
2.055876
30
0.0
11
6.975000
21
2.053526
31
0.0
0
LINE
8
TOP
10
6.975000
20
2.053526
30
0.0
11
7.087500
21
2.051175
31
0.0
0
LINE
8
TOP
10
7.087500
20
2.051175
30
0.0
11
7.200000
21
2.048825
31
0.0
0
LINE
8
TOP
10
7.200000
20
2.048825
30
0.0
11
7.312500
21
2.046474
31
0.0
0
LINE
8
TOP
10
7.312500
20
2.046474
30
0.0
11
7.425000
21
2.044124
31
0.0
0
LINE
8
TOP
10
7.425000
20
2.044124
30
0.0
11
7.537500
21
2.041773
31
0.0
0
LINE
8
TOP
10
7.537500
20
2.041773
30
0.0
11
7.650000
21
2.039423
31
0.0
0
LINE
8
TOP
10
7.650000
20
2.039423
30
0.0
11
7.762500
21
2.037073
31
0.0
0
LINE
8
TOP
10
7.762500
20
2.037073
30
0.0
11
7.875000
21
2.034722
31
0.0
0
LINE
8
TOP
10
7.875000
20
2.034722
30
0.0
11
7.987500
21
2.032372
31
0.0
0
LINE
8
TOP
10
7.987500
20
2.032372
30
0.0
11
8.100000
21
2.030021
31
0.0
0
LINE
8
TOP
10
8.100000
20
2.030021
30
0.0
11
8.212500
21
2.027671
31
0.0
0
LINE
8
TOP
10
8.212500
20
2.027671
30
0.0
11
8.325000
21
2.025321
31
0.0
0
LINE
8
TOP
10
8.325000
20
2.025321
30
0.0
11
8.437500
21
2.022970
31
0.0
0
LINE
8
TOP
10
8.437500
20
2.022970
30
0.0
11
8.500000
21
2.021664
31
0.0
0
LINE
8
TOP
10
8.500000
20
2.021664
30
0.0
11
8.550000
21
2.020620
31
0.0
0
LINE
8
TOP
10
8.550000
20
2.020620
30
0.0
11
8.662500
21
2.018269
31
0.0
0
LINE
8
TOP
10
8.662500
20
2.018269
30
0.0
11
8.775000
21
2.015919
31
0.0
0
LINE
8
TOP
10
8.775000
20
2.015919
30
0.0
11
8.887500
21
2.013568
31
0.0
0
LINE
8
TOP
10
8.887500
20
2.013568
30
0.0
11
9.000000
21
2.011218
31
0.0
0
LINE
8
TOP
10
0.000000
20
1.708593
30
0.0
11
0.112500
21
1.707808
31
0.0
0
LINE
8
TOP
10
0.112500
20
1.707808
30
0.0
11
0.225000
21
1.707024
31
0.0
0
LINE
8
TOP
10
0.225000
20
1.707024
30
0.0
11
0.337500
21
1.706239
31
0.0
0
LINE
8
TOP
10
0.337500
20
1.706239
30
0.0
11
0.450000
21
1.705454
31
0.0
0
LINE
8
TOP
10
0.450000
20
1.705454
30
0.0
11
0.500000
21
1.705105
31
0.0
0
LINE
8
TOP
10
0.500000
20
1.705105
30
0.0
11
0.562500
21
1.704669
31
0.0
0
LINE
8
TOP
10
0.562500
20
1.704669
30
0.0
11
0.675000
21
1.703884
31
0.0
0
LINE
8
TOP
10
0.675000
20
1.703884
30
0.0
11
0.787500
21
1.703100
31
0.0
0
LINE
8
TOP
10
0.787500
20
1.703100
30
0.0
11
0.900000
21
1.702315
31
0.0
0
LINE
8
TOP
10
0.900000
20
1.702315
30
0.0
11
1.012500
21
1.701530
31
0.0
0
LINE
8
TOP
10
1.012500
20
1.701530
30
0.0
11
1.125000
21
1.700745
31
0.0
0
LINE
8
TOP
10
1.125000
20
1.700745
30
0.0
11
1.237500
21
1.699960
31
0.0
0
LINE
8
TOP
10
1.237500
20
1.699960
30
0.0
11
1.350000
21
1.699176
31
0.0
0
LINE
8
TOP
10
1.350000
20
1.699176
30
0.0
11
1.462500
21
1.698391
31
0.0
0
LINE
8
TOP
10
1.462500
20
1.698391
30
0.0
11
1.575000
21
1.697606
31
0.0
0
LINE
8
TOP
10
1.575000
20
1.697606
30
0.0
11
1.687500
21
1.696821
31
0.0
0
LINE
8
TOP
10
1.687500
20
1.696821
30
0.0
11
1.800000
21
1.696036
31
0.0
0
LINE
8
TOP
10
1.800000
20
1.696036
30
0.0
11
1.912500
21
1.695252
31
0.0
0
LINE
8
TOP
10
1.912500
20
1.695252
30
0.0
11
2.025000
21
1.694467
31
0.0
0
LINE
8
TOP
10
2.025000
20
1.694467
30
0.0
11
2.137500
21
1.693682
31
0.0
0
LINE
8
TOP
10
2.137500
20
1.693682
30
0.0
11
2.250000
21
1.692897
31
0.0
0
LINE
8
TOP
10
2.250000
20
1.692897
30
0.0
11
2.362500
21
1.692112
31
0.0
0
LINE
8
TOP
10
2.362500
20
1.692112
30
0.0
11
2.475000
21
1.691328
31
0.0
0
LINE
8
TOP
10
2.475000
20
1.691328
30
0.0
11
2.587500
21
1.690543
31
0.0
0
LINE
8
TOP
10
2.587500
20
1.690543
30
0.0
11
2.700000
21
1.689758
31
0.0
0
LINE
8
TOP
10
2.700000
20
1.689758
30
0.0
11
2.812500
21
1.688973
31
0.0
0
LINE
8
TOP
10
2.812500
20
1.688973
30
0.0
11
2.925000
21
1.688188
31
0.0
0
LINE
8
TOP
10
2.925000
20
1.688188
30
0.0
11
3.037500
21
1.687404
31
0.0
0
LINE
8
TOP
10
3.037500
20
1.687404
30
0.0
11
3.150000
21
1.686619
31
0.0
0
LINE
8
TOP
10
3.150000
20
1.686619
30
0.0
11
3.262500
21
1.685834
31
0.0
0
LINE
8
TOP
10
3.262500
20
1.685834
30
0.0
11
3.375000
21
1.685049
31
0.0
0
LINE
8
TOP
10
3.375000
20
1.685049
30
0.0
11
3.487500
21
1.684264
31
0.0
0
LINE
8
TOP
10
3.487500
20
1.684264
30
0.0
11
3.600000
21
1.683480
31
0.0
0
LINE
8
TOP
10
3.600000
20
1.683480
30
0.0
11
3.712500
21
1.682695
31
0.0
0
LINE
8
TOP
10
3.712500
20
1.682695
30
0.0
11
3.825000
21
1.681910
31
0.0
0
LINE
8
TOP
10
3.825000
20
1.681910
30
0.0
11
3.937500
21
1.681125
31
0.0
0
LINE
8
TOP
10
3.937500
20
1.681125
30
0.0
11
4.050000
21
1.680340
31
0.0
0
LINE
8
TOP
10
4.050000
20
1.680340
30
0.0
11
4.162500
21
1.679556
31
0.0
0
LINE
8
TOP
10
4.162500
20
1.679556
30
0.0
11
4.275000
21
1.678771
31
0.0
0
LINE
8
TOP
10
4.275000
20
1.678771
30
0.0
11
4.387500
21
1.677986
31
0.0
0
LINE
8
TOP
10
4.387500
20
1.677986
30
0.0
11
4.500000
21
1.677201
31
0.0
0
LINE
8
TOP
10
4.500000
20
1.677201
30
0.0
11
4.612500
21
1.679552
31
0.0
0
LINE
8
TOP
10
4.612500
20
1.679552
30
0.0
11
4.725000
21
1.681902
31
0.0
0
LINE
8
TOP
10
4.725000
20
1.681902
30
0.0
11
4.837500
21
1.684252
31
0.0
0
LINE
8
TOP
10
4.837500
20
1.684252
30
0.0
11
4.950000
21
1.686603
31
0.0
0
LINE
8
TOP
10
4.950000
20
1.686603
30
0.0
11
5.062500
21
1.688953
31
0.0
0
LINE
8
TOP
10
5.062500
20
1.688953
30
0.0
11
5.175000
21
1.691304
31
0.0
0
LINE
8
TOP
10
5.175000
20
1.691304
30
0.0
11
5.287500
21
1.693654
31
0.0
0
LINE
8
TOP
10
5.287500
20
1.693654
30
0.0
11
5.400000
21
1.696005
31
0.0
0
LINE
8
TOP
10
5.400000
20
1.696005
30
0.0
11
5.512500
21
1.698355
31
0.0
0
LINE
8
TOP
10
5.512500
20
1.698355
30
0.0
11
5.625000
21
1.700705
31
0.0
0
LINE
8
TOP
10
5.625000
20
1.700705
30
0.0
11
5.737500
21
1.703056
31
0.0
0
LINE
8
TOP
10
5.737500
20
1.703056
30
0.0
11
5.850000
21
1.705406
31
0.0
0
LINE
8
TOP
10
5.850000
20
1.705406
30
0.0
11
5.962500
21
1.707757
31
0.0
0
LINE
8
TOP
10
5.962500
20
1.707757
30
0.0
11
6.075000
21
1.710107
31
0.0
0
LINE
8
TOP
10
6.075000
20
1.710107
30
0.0
11
6.187500
21
1.712457
31
0.0
0
LINE
8
TOP
10
6.187500
20
1.712457
30
0.0
11
6.300000
21
1.714808
31
0.0
0
LINE
8
TOP
10
6.300000
20
1.714808
30
0.0
11
6.412500
21
1.717158
31
0.0
0
LINE
8
TOP
10
6.412500
20
1.717158
30
0.0
11
6.525000
21
1.719509
31
0.0
0
LINE
8
TOP
10
6.525000
20
1.719509
30
0.0
11
6.637500
21
1.721859
31
0.0
0
LINE
8
TOP
10
6.637500
20
1.721859
30
0.0
11
6.750000
21
1.724210
31
0.0
0
LINE
8
TOP
10
6.750000
20
1.724210
30
0.0
11
6.862500
21
1.726560
31
0.0
0
LINE
8
TOP
10
6.862500
20
1.726560
30
0.0
11
6.975000
21
1.728910
31
0.0
0
LINE
8
TOP
10
6.975000
20
1.728910
30
0.0
11
7.087500
21
1.731261
31
0.0
0
LINE
8
TOP
10
7.087500
20
1.731261
30
0.0
11
7.200000
21
1.733611
31
0.0
0
LINE
8
TOP
10
7.200000
20
1.733611
30
0.0
11
7.312500
21
1.735962
31
0.0
0
LINE
8
TOP
10
7.312500
20
1.735962
30
0.0
11
7.425000
21
1.738312
31
0.0
0
LINE
8
TOP
10
7.425000
20
1.738312
30
0.0
11
7.537500
21
1.740663
31
0.0
0
LINE
8
TOP
10
7.537500
20
1.740663
30
0.0
11
7.650000
21
1.743013
31
0.0
0
LINE
8
TOP
10
7.650000
20
1.743013
30
0.0
11
7.762500
21
1.745363
31
0.0
0
LINE
8
TOP
10
7.762500
20
1.745363
30
0.0
11
7.875000
21
1.747714
31
0.0
0
LINE
8
TOP
10
7.875000
20
1.747714
30
0.0
11
7.987500
21
1.750064
31
0.0
0
LINE
8
TOP
10
7.987500
20
1.750064
30
0.0
11
8.100000
21
1.752415
31
0.0
0
LINE
8
TOP
10
8.100000
20
1.752415
30
0.0
11
8.212500
21
1.754765
31
0.0
0
LINE
8
TOP
10
8.212500
20
1.754765
30
0.0
11
8.325000
21
1.757115
31
0.0
0
LINE
8
TOP
10
8.325000
20
1.757115
30
0.0
11
8.437500
21
1.759466
31
0.0
0
LINE
8
TOP
10
8.437500
20
1.759466
30
0.0
11
8.500000
21
1.760772
31
0.0
0
LINE
8
TOP
10
8.500000
20
1.760772
30
0.0
11
8.550000
21
1.761816
31
0.0
0
LINE
8
TOP
10
8.550000
20
1.761816
30
0.0
11
8.662500
21
1.764167
31
0.0
0
LINE
8
TOP
10
8.662500
20
1.764167
30
0.0
11
8.775000
21
1.766517
31
0.0
0
LINE
8
TOP
10
8.775000
20
1.766517
30
0.0
11
8.887500
21
1.768868
31
0.0
0
LINE
8
TOP
10
8.887500
20
1.768868
30
0.0
11
9.000000
21
1.771218
31
0.0
0
LINE
8
TOP
10
0.000000
20
2.073843
30
0.0
11
0.000000
21
1.708593
31
0.0
0
LINE
8
TOP
10
9.000000
20
2.011218
30
0.0
11
9.000000
21
1.771218
31
0.0
0
LINE
8
SECTION
10
10.285983
20
-0.363049
30
0.0
11
10.714017
21
-0.363049
31
0.0
0
LINE
8
SECTION
10
10.714017
20
-0.363049
30
0.0
11
10.714017
21
0.363049
31
0.0
0
LINE
8
SECTION
10
10.714017
20
0.363049
30
0.0
11
10.285983
21
0.363049
31
0.0
0
LINE
8
SECTION
10
10.285983
20
0.363049
30
0.0
11
10.285983
21
-0.363049
31
0.0
0
LINE
8
SECTION
10
10.345983
20
-0.303049
30
0.0
11
10.654017
21
-0.303049
31
0.0
0
LINE
8
SECTION
10
10.654017
20
-0.303049
30
0.0
11
10.654017
21
0.303049
31
0.0
0
LINE
8
SECTION
10
10.654017
20
0.303049
30
0.0
11
10.345983
21
0.303049
31
0.0
0
LINE
8
SECTION
10
10.345983
20
0.303049
30
0.0
11
10.345983
21
-0.303049
31
0.0
0
LINE
8
SECTION
10
10.345983
20
0.000000
30
0.0
11
10.405983
21
0.000000
31
0.0
0
LINE
8
SECTION
10
10.405983
20
0.000000
30
0.0
11
10.405983
21
0.303049
31
0.0
0
LINE
8
SECTION
10
10.405983
20
0.303049
30
0.0
11
10.345983
21
0.303049
31
0.0
0
LINE
8
SECTION
10
10.345983
20
0.303049
30
0.0
11
10.345983
21
0.000000
31
0.0
0
LINE
8
SECTION
10
10.345983
20
-0.303049
30
0.0
11
10.405983
21
-0.303049
31
0.0
0
LINE
8
SECTION
10
10.405983
20
-0.303049
30
0.0
11
10.405983
21
0.000000
31
0.0
0
LINE
8
SECTION
10
10.405983
20
0.000000
30
0.0
11
10.345983
21
0.000000
31
0.0
0
LINE
8
SECTION
10
10.345983
20
0.000000
30
0.0
11
10.345983
21
-0.303049
31
0.0
0
LINE
8
SECTION
10
10.594017
20
0.000000
30
0.0
11
10.654017
21
0.000000
31
0.0
0
LINE
8
SECTION
10
10.654017
20
0.000000
30
0.0
11
10.654017
21
0.303049
31
0.0
0
LINE
8
SECTION
10
10.654017
20
0.303049
30
0.0
11
10.594017
21
0.303049
31
0.0
0
LINE
8
SECTION
10
10.594017
20
0.303049
30
0.0
11
10.594017
21
0.000000
31
0.0
0
LINE
8
SECTION
10
10.594017
20
-0.303049
30
0.0
11
10.654017
21
-0.303049
31
0.0
0
LINE
8
SECTION
10
10.654017
20
-0.303049
30
0.0
11
10.654017
21
0.000000
31
0.0
0
LINE
8
SECTION
10
10.654017
20
0.000000
30
0.0
11
10.594017
21
0.000000
31
0.0
0
LINE
8
SECTION
10
10.594017
20
0.000000
30
0.0
11
10.594017
21
-0.303049
31
0.0
0
ENDSEC
0
EOF
