0
SECTION
2
HEADER
9
$INSUNITS
70
1
0
ENDSEC
0
SECTION
2
ENTITIES
0
LINE
8
FRONT
10
0.000000
20
0.325125
30
0.0
11
0.112500
21
0.325629
31
0.0
0
LINE
8
FRONT
10
0.112500
20
0.325629
30
0.0
11
0.225000
21
0.326133
31
0.0
0
LINE
8
FRONT
10
0.225000
20
0.326133
30
0.0
11
0.337500
21
0.326637
31
0.0
0
LINE
8
FRONT
10
0.337500
20
0.326637
30
0.0
11
0.450000
21
0.327141
31
0.0
0
LINE
8
FRONT
10
0.450000
20
0.327141
30
0.0
11
0.500000
21
0.327365
31
0.0
0
LINE
8
FRONT
10
0.500000
20
0.327365
30
0.0
11
0.562500
21
0.327645
31
0.0
0
LINE
8
FRONT
10
0.562500
20
0.327645
30
0.0
11
0.675000
21
0.328150
31
0.0
0
LINE
8
FRONT
10
0.675000
20
0.328150
30
0.0
11
0.787500
21
0.328654
31
0.0
0
LINE
8
FRONT
10
0.787500
20
0.328654
30
0.0
11
0.900000
21
0.329158
31
0.0
0
LINE
8
FRONT
10
0.900000
20
0.329158
30
0.0
11
1.012500
21
0.329662
31
0.0
0
LINE
8
FRONT
10
1.012500
20
0.329662
30
0.0
11
1.125000
21
0.330166
31
0.0
0
LINE
8
FRONT
10
1.125000
20
0.330166
30
0.0
11
1.237500
21
0.330670
31
0.0
0
LINE
8
FRONT
10
1.237500
20
0.330670
30
0.0
11
1.350000
21
0.331174
31
0.0
0
LINE
8
FRONT
10
1.350000
20
0.331174
30
0.0
11
1.462500
21
0.331678
31
0.0
0
LINE
8
FRONT
10
1.462500
20
0.331678
30
0.0
11
1.575000
21
0.332183
31
0.0
0
LINE
8
FRONT
10
1.575000
20
0.332183
30
0.0
11
1.687500
21
0.332687
31
0.0
0
LINE
8
FRONT
10
1.687500
20
0.332687
30
0.0
11
1.800000
21
0.333191
31
0.0
0
LINE
8
FRONT
10
1.800000
20
0.333191
30
0.0
11
1.912500
21
0.333695
31
0.0
0
LINE
8
FRONT
10
1.912500
20
0.333695
30
0.0
11
2.025000
21
0.334199
31
0.0
0
LINE
8
FRONT
10
2.025000
20
0.334199
30
0.0
11
2.137500
21
0.334703
31
0.0
0
LINE
8
FRONT
10
2.137500
20
0.334703
30
0.0
11
2.250000
21
0.335207
31
0.0
0
LINE
8
FRONT
10
2.250000
20
0.335207
30
0.0
11
2.362500
21
0.335711
31
0.0
0
LINE
8
FRONT
10
2.362500
20
0.335711
30
0.0
11
2.475000
21
0.336216
31
0.0
0
LINE
8
FRONT
10
2.475000
20
0.336216
30
0.0
11
2.587500
21
0.336720
31
0.0
0
LINE
8
FRONT
10
2.587500
20
0.336720
30
0.0
11
2.700000
21
0.337224
31
0.0
0
LINE
8
FRONT
10
2.700000
20
0.337224
30
0.0
11
2.812500
21
0.337728
31
0.0
0
LINE
8
FRONT
10
2.812500
20
0.337728
30
0.0
11
2.925000
21
0.338232
31
0.0
0
LINE
8
FRONT
10
2.925000
20
0.338232
30
0.0
11
3.037500
21
0.338736
31
0.0
0
LINE
8
FRONT
10
3.037500
20
0.338736
30
0.0
11
3.150000
21
0.339240
31
0.0
0
LINE
8
FRONT
10
3.150000
20
0.339240
30
0.0
11
3.262500
21
0.339744
31
0.0
0
LINE
8
FRONT
10
3.262500
20
0.339744
30
0.0
11
3.375000
21
0.340249
31
0.0
0
LINE
8
FRONT
10
3.375000
20
0.340249
30
0.0
11
3.487500
21
0.340753
31
0.0
0
LINE
8
FRONT
10
3.487500
20
0.340753
30
0.0
11
3.600000
21
0.341257
31
0.0
0
LINE
8
FRONT
10
3.600000
20
0.341257
30
0.0
11
3.712500
21
0.341761
31
0.0
0
LINE
8
FRONT
10
3.712500
20
0.341761
30
0.0
11
3.825000
21
0.342265
31
0.0
0
LINE
8
FRONT
10
3.825000
20
0.342265
30
0.0
11
3.937500
21
0.342769
31
0.0
0
LINE
8
FRONT
10
3.937500
20
0.342769
30
0.0
11
4.050000
21
0.343273
31
0.0
0
LINE
8
FRONT
10
4.050000
20
0.343273
30
0.0
11
4.162500
21
0.343778
31
0.0
0
LINE
8
FRONT
10
4.162500
20
0.343778
30
0.0
11
4.275000
21
0.344282
31
0.0
0
LINE
8
FRONT
10
4.275000
20
0.344282
30
0.0
11
4.387500
21
0.344786
31
0.0
0
LINE
8
FRONT
10
4.387500
20
0.344786
30
0.0
11
4.500000
21
0.345290
31
0.0
0
LINE
8
FRONT
10
4.500000
20
0.345290
30
0.0
11
4.612500
21
0.344786
31
0.0
0
LINE
8
FRONT
10
4.612500
20
0.344786
30
0.0
11
4.725000
21
0.344282
31
0.0
0
LINE
8
FRONT
10
4.725000
20
0.344282
30
0.0
11
4.837500
21
0.343778
31
0.0
0
LINE
8
FRONT
10
4.837500
20
0.343778
30
0.0
11
4.950000
21
0.343273
31
0.0
0
LINE
8
FRONT
10
4.950000
20
0.343273
30
0.0
11
5.062500
21
0.342769
31
0.0
0
LINE
8
FRONT
10
5.062500
20
0.342769
30
0.0
11
5.175000
21
0.342265
31
0.0
0
LINE
8
FRONT
10
5.175000
20
0.342265
30
0.0
11
5.287500
21
0.341761
31
0.0
0
LINE
8
FRONT
10
5.287500
20
0.341761
30
0.0
11
5.400000
21
0.341257
31
0.0
0
LINE
8
FRONT
10
5.400000
20
0.341257
30
0.0
11
5.512500
21
0.340753
31
0.0
0
LINE
8
FRONT
10
5.512500
20
0.340753
30
0.0
11
5.625000
21
0.340249
31
0.0
0
LINE
8
FRONT
10
5.625000
20
0.340249
30
0.0
11
5.737500
21
0.339744
31
0.0
0
LINE
8
FRONT
10
5.737500
20
0.339744
30
0.0
11
5.850000
21
0.339240
31
0.0
0
LINE
8
FRONT
10
5.850000
20
0.339240
30
0.0
11
5.962500
21
0.338736
31
0.0
0
LINE
8
FRONT
10
5.962500
20
0.338736
30
0.0
11
6.075000
21
0.338232
31
0.0
0
LINE
8
FRONT
10
6.075000
20
0.338232
30
0.0
11
6.187500
21
0.337728
31
0.0
0
LINE
8
FRONT
10
6.187500
20
0.337728
30
0.0
11
6.300000
21
0.337224
31
0.0
0
LINE
8
FRONT
10
6.300000
20
0.337224
30
0.0
11
6.412500
21
0.336720
31
0.0
0
LINE
8
FRONT
10
6.412500
20
0.336720
30
0.0
11
6.525000
21
0.336216
31
0.0
0
LINE
8
FRONT
10
6.525000
20
0.336216
30
0.0
11
6.637500
21
0.335711
31
0.0
0
LINE
8
FRONT
10
6.637500
20
0.335711
30
0.0
11
6.750000
21
0.335207
31
0.0
0
LINE
8
FRONT
10
6.750000
20
0.335207
30
0.0
11
6.862500
21
0.334703
31
0.0
0
LINE
8
FRONT
10
6.862500
20
0.334703
30
0.0
11
6.975000
21
0.334199
31
0.0
0
LINE
8
FRONT
10
6.975000
20
0.334199
30
0.0
11
7.087500
21
0.333695
31
0.0
0
LINE
8
FRONT
10
7.087500
20
0.333695
30
0.0
11
7.200000
21
0.333191
31
0.0
0
LINE
8
FRONT
10
7.200000
20
0.333191
30
0.0
11
7.312500
21
0.332687
31
0.0
0
LINE
8
FRONT
10
7.312500
20
0.332687
30
0.0
11
7.425000
21
0.332183
31
0.0
0
LINE
8
FRONT
10
7.425000
20
0.332183
30
0.0
11
7.537500
21
0.331678
31
0.0
0
LINE
8
FRONT
10
7.537500
20
0.331678
30
0.0
11
7.650000
21
0.331174
31
0.0
0
LINE
8
FRONT
10
7.650000
20
0.331174
30
0.0
11
7.762500
21
0.330670
31
0.0
0
LINE
8
FRONT
10
7.762500
20
0.330670
30
0.0
11
7.875000
21
0.330166
31
0.0
0
LINE
8
FRONT
10
7.875000
20
0.330166
30
0.0
11
7.987500
21
0.329662
31
0.0
0
LINE
8
FRONT
10
7.987500
20
0.329662
30
0.0
11
8.100000
21
0.329158
31
0.0
0
LINE
8
FRONT
10
8.100000
20
0.329158
30
0.0
11
8.212500
21
0.328654
31
0.0
0
LINE
8
FRONT
10
8.212500
20
0.328654
30
0.0
11
8.325000
21
0.328150
31
0.0
0
LINE
8
FRONT
10
8.325000
20
0.328150
30
0.0
11
8.437500
21
0.327645
31
0.0
0
LINE
8
FRONT
10
8.437500
20
0.327645
30
0.0
11
8.500000
21
0.327365
31
0.0
0
LINE
8
FRONT
10
8.500000
20
0.327365
30
0.0
11
8.550000
21
0.327141
31
0.0
0
LINE
8
FRONT
10
8.550000
20
0.327141
30
0.0
11
8.662500
21
0.326637
31
0.0
0
LINE
8
FRONT
10
8.662500
20
0.326637
30
0.0
11
8.775000
21
0.326133
31
0.0
0
LINE
8
FRONT
10
8.775000
20
0.326133
30
0.0
11
8.887500
21
0.325629
31
0.0
0
LINE
8
FRONT
10
8.887500
20
0.325629
30
0.0
11
9.000000
21
0.325125
31
0.0
0
LINE
8
FRONT
10
0.000000
20
-0.325125
30
0.0
11
0.112500
21
-0.325629
31
0.0
0
LINE
8
FRONT
10
0.112500
20
-0.325629
30
0.0
11
0.225000
21
-0.326133
31
0.0
0
LINE
8
FRONT
10
0.225000
20
-0.326133
30
0.0
11
0.337500
21
-0.326637
31
0.0
0
LINE
8
FRONT
10
0.337500
20
-0.326637
30
0.0
11
0.450000
21
-0.327141
31
0.0
0
LINE
8
FRONT
10
0.450000
20
-0.327141
30
0.0
11
0.500000
21
-0.327365
31
0.0
0
LINE
8
FRONT
10
0.500000
20
-0.327365
30
0.0
11
0.562500
21
-0.327645
31
0.0
0
LINE
8
FRONT
10
0.562500
20
-0.327645
30
0.0
11
0.675000
21
-0.328150
31
0.0
0
LINE
8
FRONT
10
0.675000
20
-0.328150
30
0.0
11
0.787500
21
-0.328654
31
0.0
0
LINE
8
FRONT
10
0.787500
20
-0.328654
30
0.0
11
0.900000
21
-0.329158
31
0.0
0
LINE
8
FRONT
10
0.900000
20
-0.329158
30
0.0
11
1.012500
21
-0.329662
31
0.0
0
LINE
8
FRONT
10
1.012500
20
-0.329662
30
0.0
11
1.125000
21
-0.330166
31
0.0
0
LINE
8
FRONT
10
1.125000
20
-0.330166
30
0.0
11
1.237500
21
-0.330670
31
0.0
0
LINE
8
FRONT
10
1.237500
20
-0.330670
30
0.0
11
1.350000
21
-0.331174
31
0.0
0
LINE
8
FRONT
10
1.350000
20
-0.331174
30
0.0
11
1.462500
21
-0.331678
31
0.0
0
LINE
8
FRONT
10
1.462500
20
-0.331678
30
0.0
11
1.575000
21
-0.332183
31
0.0
0
LINE
8
FRONT
10
1.575000
20
-0.332183
30
0.0
11
1.687500
21
-0.332687
31
0.0
0
LINE
8
FRONT
10
1.687500
20
-0.332687
30
0.0
11
1.800000
21
-0.333191
31
0.0
0
LINE
8
FRONT
10
1.800000
20
-0.333191
30
0.0
11
1.912500
21
-0.333695
31
0.0
0
LINE
8
FRONT
10
1.912500
20
-0.333695
30
0.0
11
2.025000
21
-0.334199
31
0.0
0
LINE
8
FRONT
10
2.025000
20
-0.334199
30
0.0
11
2.137500
21
-0.334703
31
0.0
0
LINE
8
FRONT
10
2.137500
20
-0.334703
30
0.0
11
2.250000
21
-0.335207
31
0.0
0
LINE
8
FRONT
10
2.250000
20
-0.335207
30
0.0
11
2.362500
21
-0.335711
31
0.0
0
LINE
8
FRONT
10
2.362500
20
-0.335711
30
0.0
11
2.475000
21
-0.336216
31
0.0
0
LINE
8
FRONT
10
2.475000
20
-0.336216
30
0.0
11
2.587500
21
-0.336720
31
0.0
0
LINE
8
FRONT
10
2.587500
20
-0.336720
30
0.0
11
2.700000
21
-0.337224
31
0.0
0
LINE
8
FRONT
10
2.700000
20
-0.337224
30
0.0
11
2.812500
21
-0.337728
31
0.0
0
LINE
8
FRONT
10
2.812500
20
-0.337728
30
0.0
11
2.925000
21
-0.338232
31
0.0
0
LINE
8
FRONT
10
2.925000
20
-0.338232
30
0.0
11
3.037500
21
-0.338736
31
0.0
0
LINE
8
FRONT
10
3.037500
20
-0.338736
30
0.0
11
3.150000
21
-0.339240
31
0.0
0
LINE
8
FRONT
10
3.150000
20
-0.339240
30
0.0
11
3.262500
21
-0.339744
31
0.0
0
LINE
8
FRONT
10
3.262500
20
-0.339744
30
0.0
11
3.375000
21
-0.340249
31
0.0
0
LINE
8
FRONT
10
3.375000
20
-0.340249
30
0.0
11
3.487500
21
-0.340753
31
0.0
0
LINE
8
FRONT
10
3.487500
20
-0.340753
30
0.0
11
3.600000
21
-0.341257
31
0.0
0
LINE
8
FRONT
10
3.600000
20
-0.341257
30
0.0
11
3.712500
21
-0.341761
31
0.0
0
LINE
8
FRONT
10
3.712500
20
-0.341761
30
0.0
11
3.825000
21
-0.342265
31
0.0
0
LINE
8
FRONT
10
3.825000
20
-0.342265
30
0.0
11
3.937500
21
-0.342769
31
0.0
0
LINE
8
FRONT
10
3.937500
20
-0.342769
30
0.0
11
4.050000
21
-0.343273
31
0.0
0
LINE
8
FRONT
10
4.050000
20
-0.343273
30
0.0
11
4.162500
21
-0.343778
31
0.0
0
LINE
8
FRONT
10
4.162500
20
-0.343778
30
0.0
11
4.275000
21
-0.344282
31
0.0
0
LINE
8
FRONT
10
4.275000
20
-0.344282
30
0.0
11
4.387500
21
-0.344786
31
0.0
0
LINE
8
FRONT
10
4.387500
20
-0.344786
30
0.0
11
4.500000
21
-0.345290
31
0.0
0
LINE
8
FRONT
10
4.500000
20
-0.345290
30
0.0
11
4.612500
21
-0.344786
31
0.0
0
LINE
8
FRONT
10
4.612500
20
-0.344786
30
0.0
11
4.725000
21
-0.344282
31
0.0
0
LINE
8
FRONT
10
4.725000
20
-0.344282
30
0.0
11
4.837500
21
-0.343778
31
0.0
0
LINE
8
FRONT
10
4.837500
20
-0.343778
30
0.0
11
4.950000
21
-0.343273
31
0.0
0
LINE
8
FRONT
10
4.950000
20
-0.343273
30
0.0
11
5.062500
21
-0.342769
31
0.0
0
LINE
8
FRONT
10
5.062500
20
-0.342769
30
0.0
11
5.175000
21
-0.342265
31
0.0
0
LINE
8
FRONT
10
5.175000
20
-0.342265
30
0.0
11
5.287500
21
-0.341761
31
0.0
0
LINE
8
FRONT
10
5.287500
20
-0.341761
30
0.0
11
5.400000
21
-0.341257
31
0.0
0
LINE
8
FRONT
10
5.400000
20
-0.341257
30
0.0
11
5.512500
21
-0.340753
31
0.0
0
LINE
8
FRONT
10
5.512500
20
-0.340753
30
0.0
11
5.625000
21
-0.340249
31
0.0
0
LINE
8
FRONT
10
5.625000
20
-0.340249
30
0.0
11
5.737500
21
-0.339744
31
0.0
0
LINE
8
FRONT
10
5.737500
20
-0.339744
30
0.0
11
5.850000
21
-0.339240
31
0.0
0
LINE
8
FRONT
10
5.850000
20
-0.339240
30
0.0
11
5.962500
21
-0.338736
31
0.0
0
LINE
8
FRONT
10
5.962500
20
-0.338736
30
0.0
11
6.075000
21
-0.338232
31
0.0
0
LINE
8
FRONT
10
6.075000
20
-0.338232
30
0.0
11
6.187500
21
-0.337728
31
0.0
0
LINE
8
FRONT
10
6.187500
20
-0.337728
30
0.0
11
6.300000
21
-0.337224
31
0.0
0
LINE
8
FRONT
10
6.300000
20
-0.337224
30
0.0
11
6.412500
21
-0.336720
31
0.0
0
LINE
8
FRONT
10
6.412500
20
-0.336720
30
0.0
11
6.525000
21
-0.336216
31
0.0
0
LINE
8
FRONT
10
6.525000
20
-0.336216
30
0.0
11
6.637500
21
-0.335711
31
0.0
0
LINE
8
FRONT
10
6.637500
20
-0.335711
30
0.0
11
6.750000
21
-0.335207
31
0.0
0
LINE
8
FRONT
10
6.750000
20
-0.335207
30
0.0
11
6.862500
21
-0.334703
31
0.0
0
LINE
8
FRONT
10
6.862500
20
-0.334703
30
0.0
11
6.975000
21
-0.334199
31
0.0
0
LINE
8
FRONT
10
6.975000
20
-0.334199
30
0.0
11
7.087500
21
-0.333695
31
0.0
0
LINE
8
FRONT
10
7.087500
20
-0.333695
30
0.0
11
7.200000
21
-0.333191
31
0.0
0
LINE
8
FRONT
10
7.200000
20
-0.333191
30
0.0
11
7.312500
21
-0.332687
31
0.0
0
LINE
8
FRONT
10
7.312500
20
-0.332687
30
0.0
11
7.425000
21
-0.332183
31
0.0
0
LINE
8
FRONT
10
7.425000
20
-0.332183
30
0.0
11
7.537500
21
-0.331678
31
0.0
0
LINE
8
FRONT
10
7.537500
20
-0.331678
30
0.0
11
7.650000
21
-0.331174
31
0.0
0
LINE
8
FRONT
10
7.650000
20
-0.331174
30
0.0
11
7.762500
21
-0.330670
31
0.0
0
LINE
8
FRONT
10
7.762500
20
-0.330670
30
0.0
11
7.875000
21
-0.330166
31
0.0
0
LINE
8
FRONT
10
7.875000
20
-0.330166
30
0.0
11
7.987500
21
-0.329662
31
0.0
0
LINE
8
FRONT
10
7.987500
20
-0.329662
30
0.0
11
8.100000
21
-0.329158
31
0.0
0
LINE
8
FRONT
10
8.100000
20
-0.329158
30
0.0
11
8.212500
21
-0.328654
31
0.0
0
LINE
8
FRONT
10
8.212500
20
-0.328654
30
0.0
11
8.325000
21
-0.328150
31
0.0
0
LINE
8
FRONT
10
8.325000
20
-0.328150
30
0.0
11
8.437500
21
-0.327645
31
0.0
0
LINE
8
FRONT
10
8.437500
20
-0.327645
30
0.0
11
8.500000
21
-0.327365
31
0.0
0
LINE
8
FRONT
10
8.500000
20
-0.327365
30
0.0
11
8.550000
21
-0.327141
31
0.0
0
LINE
8
FRONT
10
8.550000
20
-0.327141
30
0.0
11
8.662500
21
-0.326637
31
0.0
0
LINE
8
FRONT
10
8.662500
20
-0.326637
30
0.0
11
8.775000
21
-0.326133
31
0.0
0
LINE
8
FRONT
10
8.775000
20
-0.326133
30
0.0
11
8.887500
21
-0.325629
31
0.0
0
LINE
8
FRONT
10
8.887500
20
-0.325629
30
0.0
11
9.000000
21
-0.325125
31
0.0
0
LINE
8
FRONT
10
0.000000
20
0.325125
30
0.0
11
0.000000
21
-0.325125
31
0.0
0
LINE
8
FRONT
10
9.000000
20
0.325125
30
0.0
11
9.000000
21
-0.325125
31
0.0
0
LINE
8
TOP
10
0.000000
20
1.900870
30
0.0
11
0.112500
21
1.904809
31
0.0
0
LINE
8
TOP
10
0.112500
20
1.904809
30
0.0
11
0.225000
21
1.908749
31
0.0
0
LINE
8
TOP
10
0.225000
20
1.908749
30
0.0
11
0.337500
21
1.912688
31
0.0
0
LINE
8
TOP
10
0.337500
20
1.912688
30
0.0
11
0.450000
21
1.916627
31
0.0
0
LINE
8
TOP
10
0.450000
20
1.916627
30
0.0
11
0.500000
21
1.918378
31
0.0
0
LINE
8
TOP
10
0.500000
20
1.918378
30
0.0
11
0.562500
21
1.920567
31
0.0
0
LINE
8
TOP
10
0.562500
20
1.920567
30
0.0
11
0.675000
21
1.924506
31
0.0
0
LINE
8
TOP
10
0.675000
20
1.924506
30
0.0
11
0.787500
21
1.928446
31
0.0
0
LINE
8
TOP
10
0.787500
20
1.928446
30
0.0
11
0.900000
21
1.932385
31
0.0
0
LINE
8
TOP
10
0.900000
20
1.932385
30
0.0
11
1.012500
21
1.936324
31
0.0
0
LINE
8
TOP
10
1.012500
20
1.936324
30
0.0
11
1.125000
21
1.940264
31
0.0
0
LINE
8
TOP
10
1.125000
20
1.940264
30
0.0
11
1.237500
21
1.944203
31
0.0
0
LINE
8
TOP
10
1.237500
20
1.944203
30
0.0
11
1.350000
21
1.948143
31
0.0
0
LINE
8
TOP
10
1.350000
20
1.948143
30
0.0
11
1.462500
21
1.952082
31
0.0
0
LINE
8
TOP
10
1.462500
20
1.952082
30
0.0
11
1.575000
21
1.956022
31
0.0
0
LINE
8
TOP
10
1.575000
20
1.956022
30
0.0
11
1.687500
21
1.959961
31
0.0
0
LINE
8
TOP
10
1.687500
20
1.959961
30
0.0
11
1.800000
21
1.963900
31
0.0
0
LINE
8
TOP
10
1.800000
20
1.963900
30
0.0
11
1.912500
21
1.967840
31
0.0
0
LINE
8
TOP
10
1.912500
20
1.967840
30
0.0
11
2.025000
21
1.971779
31
0.0
0
LINE
8
TOP
10
2.025000
20
1.971779
30
0.0
11
2.137500
21
1.975719
31
0.0
0
LINE
8
TOP
10
2.137500
20
1.975719
30
0.0
11
2.250000
21
1.979658
31
0.0
0
LINE
8
TOP
10
2.250000
20
1.979658
30
0.0
11
2.362500
21
1.983597
31
0.0
0
LINE
8
TOP
10
2.362500
20
1.983597
30
0.0
11
2.475000
21
1.987537
31
0.0
0
LINE
8
TOP
10
2.475000
20
1.987537
30
0.0
11
2.587500
21
1.991476
31
0.0
0
LINE
8
TOP
10
2.587500
20
1.991476
30
0.0
11
2.700000
21
1.995416
31
0.0
0
LINE
8
TOP
10
2.700000
20
1.995416
30
0.0
11
2.812500
21
1.999355
31
0.0
0
LINE
8
TOP
10
2.812500
20
1.999355
30
0.0
11
2.925000
21
2.003294
31
0.0
0
LINE
8
TOP
10
2.925000
20
2.003294
30
0.0
11
3.037500
21
2.007234
31
0.0
0
LINE
8
TOP
10
3.037500
20
2.007234
30
0.0
11
3.150000
21
2.011173
31
0.0
0
LINE
8
TOP
10
3.150000
20
2.011173
30
0.0
11
3.262500
21
2.015113
31
0.0
0
LINE
8
TOP
10
3.262500
20
2.015113
30
0.0
11
3.375000
21
2.019052
31
0.0
0
LINE
8
TOP
10
3.375000
20
2.019052
30
0.0
11
3.487500
21
2.022992
31
0.0
0
LINE
8
TOP
10
3.487500
20
2.022992
30
0.0
11
3.600000
21
2.026931
31
0.0
0
LINE
8
TOP
10
3.600000
20
2.026931
30
0.0
11
3.712500
21
2.030870
31
0.0
0
LINE
8
TOP
10
3.712500
20
2.030870
30
0.0
11
3.825000
21
2.034810
31
0.0
0
LINE
8
TOP
10
3.825000
20
2.034810
30
0.0
11
3.937500
21
2.038749
31
0.0
0
LINE
8
TOP
10
3.937500
20
2.038749
30
0.0
11
4.050000
21
2.042689
31
0.0
0
LINE
8
TOP
10
4.050000
20
2.042689
30
0.0
11
4.162500
21
2.046628
31
0.0
0
LINE
8
TOP
10
4.162500
20
2.046628
30
0.0
11
4.275000
21
2.050567
31
0.0
0
LINE
8
TOP
10
4.275000
20
2.050567
30
0.0
11
4.387500
21
2.054507
31
0.0
0
LINE
8
TOP
10
4.387500
20
2.054507
30
0.0
11
4.500000
21
2.058446
31
0.0
0
LINE
8
TOP
10
4.500000
20
2.058446
30
0.0
11
4.612500
21
2.054507
31
0.0
0
LINE
8
TOP
10
4.612500
20
2.054507
30
0.0
11
4.725000
21
2.050567
31
0.0
0
LINE
8
TOP
10
4.725000
20
2.050567
30
0.0
11
4.837500
21
2.046628
31
0.0
0
LINE
8
TOP
10
4.837500
20
2.046628
30
0.0
11
4.950000
21
2.042689
31
0.0
0
LINE
8
TOP
10
4.950000
20
2.042689
30
0.0
11
5.062500
21
2.038749
31
0.0
0
LINE
8
TOP
10
5.062500
20
2.038749
30
0.0
11
5.175000
21
2.034810
31
0.0
0
LINE
8
TOP
10
5.175000
20
2.034810
30
0.0
11
5.287500
21
2.030870
31
0.0
0
LINE
8
TOP
10
5.287500
20
2.030870
30
0.0
11
5.400000
21
2.026931
31
0.0
0
LINE
8
TOP
10
5.400000
20
2.026931
30
0.0
11
5.512500
21
2.022992
31
0.0
0
LINE
8
TOP
10
5.512500
20
2.022992
30
0.0
11
5.625000
21
2.019052
31
0.0
0
LINE
8
TOP
10
5.625000
20
2.019052
30
0.0
11
5.737500
21
2.015113
31
0.0
0
LINE
8
TOP
10
5.737500
20
2.015113
30
0.0
11
5.850000
21
2.011173
31
0.0
0
LINE
8
TOP
10
5.850000
20
2.011173
30
0.0
11
5.962500
21
2.007234
31
0.0
0
LINE
8
TOP
10
5.962500
20
2.007234
30
0.0
11
6.075000
21
2.003294
31
0.0
0
LINE
8
TOP
10
6.075000
20
2.003294
30
0.0
11
6.187500
21
1.999355
31
0.0
0
LINE
8
TOP
10
6.187500
20
1.999355
30
0.0
11
6.300000
21
1.995416
31
0.0
0
LINE
8
TOP
10
6.300000
20
1.995416
30
0.0
11
6.412500
21
1.991476
31
0.0
0
LINE
8
TOP
10
6.412500
20
1.991476
30
0.0
11
6.525000
21
1.987537
31
0.0
0
LINE
8
TOP
10
6.525000
20
1.987537
30
0.0
11
6.637500
21
1.983597
31
0.0
0
LINE
8
TOP
10
6.637500
20
1.983597
30
0.0
11
6.750000
21
1.979658
31
0.0
0
LINE
8
TOP
10
6.750000
20
1.979658
30
0.0
11
6.862500
21
1.975719
31
0.0
0
LINE
8
TOP
10
6.862500
20
1.975719
30
0.0
11
6.975000
21
1.971779
31
0.0
0
LINE
8
TOP
10
6.975000
20
1.971779
30
0.0
11
7.087500
21
1.967840
31
0.0
0
LINE
8
TOP
10
7.087500
20
1.967840
30
0.0
11
7.200000
21
1.963900
31
0.0
0
LINE
8
TOP
10
7.200000
20
1.963900
30
0.0
11
7.312500
21
1.959961
31
0.0
0
LINE
8
TOP
10
7.312500
20
1.959961
30
0.0
11
7.425000
21
1.956022
31
0.0
0
LINE
8
TOP
10
7.425000
20
1.956022
30
0.0
11
7.537500
21
1.952082
31
0.0
0
LINE
8
TOP
10
7.537500
20
1.952082
30
0.0
11
7.650000
21
1.948143
31
0.0
0
LINE
8
TOP
10
7.650000
20
1.948143
30
0.0
11
7.762500
21
1.944203
31
0.0
0
LINE
8
TOP
10
7.762500
20
1.944203
30
0.0
11
7.875000
21
1.940264
31
0.0
0
LINE
8
TOP
10
7.875000
20
1.940264
30
0.0
11
7.987500
21
1.936324
31
0.0
0
LINE
8
TOP
10
7.987500
20
1.936324
30
0.0
11
8.100000
21
1.932385
31
0.0
0
LINE
8
TOP
10
8.100000
20
1.932385
30
0.0
11
8.212500
21
1.928446
31
0.0
0
LINE
8
TOP
10
8.212500
20
1.928446
30
0.0
11
8.325000
21
1.924506
31
0.0
0
LINE
8
TOP
10
8.325000
20
1.924506
30
0.0
11
8.437500
21
1.920567
31
0.0
0
LINE
8
TOP
10
8.437500
20
1.920567
30
0.0
11
8.500000
21
1.918378
31
0.0
0
LINE
8
TOP
10
8.500000
20
1.918378
30
0.0
11
8.550000
21
1.916627
31
0.0
0
LINE
8
TOP
10
8.550000
20
1.916627
30
0.0
11
8.662500
21
1.912688
31
0.0
0
LINE
8
TOP
10
8.662500
20
1.912688
30
0.0
11
8.775000
21
1.908749
31
0.0
0
LINE
8
TOP
10
8.775000
20
1.908749
30
0.0
11
8.887500
21
1.904809
31
0.0
0
LINE
8
TOP
10
8.887500
20
1.904809
30
0.0
11
9.000000
21
1.900870
31
0.0
0
LINE
8
TOP
10
0.000000
20
1.670870
30
0.0
11
0.112500
21
1.666930
31
0.0
0
LINE
8
TOP
10
0.112500
20
1.666930
30
0.0
11
0.225000
21
1.662991
31
0.0
0
LINE
8
TOP
10
0.225000
20
1.662991
30
0.0
11
0.337500
21
1.659051
31
0.0
0
LINE
8
TOP
10
0.337500
20
1.659051
30
0.0
11
0.450000
21
1.655112
31
0.0
0
LINE
8
TOP
10
0.450000
20
1.655112
30
0.0
11
0.500000
21
1.653361
31
0.0
0
LINE
8
TOP
10
0.500000
20
1.653361
30
0.0
11
0.562500
21
1.651172
31
0.0
0
LINE
8
TOP
10
0.562500
20
1.651172
30
0.0
11
0.675000
21
1.647233
31
0.0
0
LINE
8
TOP
10
0.675000
20
1.647233
30
0.0
11
0.787500
21
1.643294
31
0.0
0
LINE
8
TOP
10
0.787500
20
1.643294
30
0.0
11
0.900000
21
1.639354
31
0.0
0
LINE
8
TOP
10
0.900000
20
1.639354
30
0.0
11
1.012500
21
1.635415
31
0.0
0
LINE
8
TOP
10
1.012500
20
1.635415
30
0.0
11
1.125000
21
1.631475
31
0.0
0
LINE
8
TOP
10
1.125000
20
1.631475
30
0.0
11
1.237500
21
1.627536
31
0.0
0
LINE
8
TOP
10
1.237500
20
1.627536
30
0.0
11
1.350000
21
1.623597
31
0.0
0
LINE
8
TOP
10
1.350000
20
1.623597
30
0.0
11
1.462500
21
1.619657
31
0.0
0
LINE
8
TOP
10
1.462500
20
1.619657
30
0.0
11
1.575000
21
1.615718
31
0.0
0
LINE
8
TOP
10
1.575000
20
1.615718
30
0.0
11
1.687500
21
1.611778
31
0.0
0
LINE
8
TOP
10
1.687500
20
1.611778
30
0.0
11
1.800000
21
1.607839
31
0.0
0
LINE
8
TOP
10
1.800000
20
1.607839
30
0.0
11
1.912500
21
1.603900
31
0.0
0
LINE
8
TOP
10
1.912500
20
1.603900
30
0.0
11
2.025000
21
1.599960
31
0.0
0
LINE
8
TOP
10
2.025000
20
1.599960
30
0.0
11
2.137500
21
1.596021
31
0.0
0
LINE
8
TOP
10
2.137500
20
1.596021
30
0.0
11
2.250000
21
1.592081
31
0.0
0
LINE
8
TOP
10
2.250000
20
1.592081
30
0.0
11
2.362500
21
1.588142
31
0.0
0
LINE
8
TOP
10
2.362500
20
1.588142
30
0.0
11
2.475000
21
1.584202
31
0.0
0
LINE
8
TOP
10
2.475000
20
1.584202
30
0.0
11
2.587500
21
1.580263
31
0.0
0
LINE
8
TOP
10
2.587500
20
1.580263
30
0.0
11
2.700000
21
1.576324
31
0.0
0
LINE
8
TOP
10
2.700000
20
1.576324
30
0.0
11
2.812500
21
1.572384
31
0.0
0
LINE
8
TOP
10
2.812500
20
1.572384
30
0.0
11
2.925000
21
1.568445
31
0.0
0
LINE
8
TOP
10
2.925000
20
1.568445
30
0.0
11
3.037500
21
1.564505
31
0.0
0
LINE
8
TOP
10
3.037500
20
1.564505
30
0.0
11
3.150000
21
1.560566
31
0.0
0
LINE
8
TOP
10
3.150000
20
1.560566
30
0.0
11
3.262500
21
1.556627
31
0.0
0
LINE
8
TOP
10
3.262500
20
1.556627
30
0.0
11
3.375000
21
1.552687
31
0.0
0
LINE
8
TOP
10
3.375000
20
1.552687
30
0.0
11
3.487500
21
1.548748
31
0.0
0
LINE
8
TOP
10
3.487500
20
1.548748
30
0.0
11
3.600000
21
1.544808
31
0.0
0
LINE
8
TOP
10
3.600000
20
1.544808
30
0.0
11
3.712500
21
1.540869
31
0.0
0
LINE
8
TOP
10
3.712500
20
1.540869
30
0.0
11
3.825000
21
1.536930
31
0.0
0
LINE
8
TOP
10
3.825000
20
1.536930
30
0.0
11
3.937500
21
1.532990
31
0.0
0
LINE
8
TOP
10
3.937500
20
1.532990
30
0.0
11
4.050000
21
1.529051
31
0.0
0
LINE
8
TOP
10
4.050000
20
1.529051
30
0.0
11
4.162500
21
1.525111
31
0.0
0
LINE
8
TOP
10
4.162500
20
1.525111
30
0.0
11
4.275000
21
1.521172
31
0.0
0
LINE
8
TOP
10
4.275000
20
1.521172
30
0.0
11
4.387500
21
1.517233
31
0.0
0
LINE
8
TOP
10
4.387500
20
1.517233
30
0.0
11
4.500000
21
1.513293
31
0.0
0
LINE
8
TOP
10
4.500000
20
1.513293
30
0.0
11
4.612500
21
1.517233
31
0.0
0
LINE
8
TOP
10
4.612500
20
1.517233
30
0.0
11
4.725000
21
1.521172
31
0.0
0
LINE
8
TOP
10
4.725000
20
1.521172
30
0.0
11
4.837500
21
1.525111
31
0.0
0
LINE
8
TOP
10
4.837500
20
1.525111
30
0.0
11
4.950000
21
1.529051
31
0.0
0
LINE
8
TOP
10
4.950000
20
1.529051
30
0.0
11
5.062500
21
1.532990
31
0.0
0
LINE
8
TOP
10
5.062500
20
1.532990
30
0.0
11
5.175000
21
1.536930
31
0.0
0
LINE
8
TOP
10
5.175000
20
1.536930
30
0.0
11
5.287500
21
1.540869
31
0.0
0
LINE
8
TOP
10
5.287500
20
1.540869
30
0.0
11
5.400000
21
1.544808
31
0.0
0
LINE
8
TOP
10
5.400000
20
1.544808
30
0.0
11
5.512500
21
1.548748
31
0.0
0
LINE
8
TOP
10
5.512500
20
1.548748
30
0.0
11
5.625000
21
1.552687
31
0.0
0
LINE
8
TOP
10
5.625000
20
1.552687
30
0.0
11
5.737500
21
1.556627
31
0.0
0
LINE
8
TOP
10
5.737500
20
1.556627
30
0.0
11
5.850000
21
1.560566
31
0.0
0
LINE
8
TOP
10
5.850000
20
1.560566
30
0.0
11
5.962500
21
1.564505
31
0.0
0
LINE
8
TOP
10
5.962500
20
1.564505
30
0.0
11
6.075000
21
1.568445
31
0.0
0
LINE
8
TOP
10
6.075000
20
1.568445
30
0.0
11
6.187500
21
1.572384
31
0.0
0
LINE
8
TOP
10
6.187500
20
1.572384
30
0.0
11
6.300000
21
1.576324
31
0.0
0
LINE
8
TOP
10
6.300000
20
1.576324
30
0.0
11
6.412500
21
1.580263
31
0.0
0
LINE
8
TOP
10
6.412500
20
1.580263
30
0.0
11
6.525000
21
1.584202
31
0.0
0
LINE
8
TOP
10
6.525000
20
1.584202
30
0.0
11
6.637500
21
1.588142
31
0.0
0
LINE
8
TOP
10
6.637500
20
1.588142
30
0.0
11
6.750000
21
1.592081
31
0.0
0
LINE
8
TOP
10
6.750000
20
1.592081
30
0.0
11
6.862500
21
1.596021
31
0.0
0
LINE
8
TOP
10
6.862500
20
1.596021
30
0.0
11
6.975000
21
1.599960
31
0.0
0
LINE
8
TOP
10
6.975000
20
1.599960
30
0.0
11
7.087500
21
1.603900
31
0.0
0
LINE
8
TOP
10
7.087500
20
1.603900
30
0.0
11
7.200000
21
1.607839
31
0.0
0
LINE
8
TOP
10
7.200000
20
1.607839
30
0.0
11
7.312500
21
1.611778
31
0.0
0
LINE
8
TOP
10
7.312500
20
1.611778
30
0.0
11
7.425000
21
1.615718
31
0.0
0
LINE
8
TOP
10
7.425000
20
1.615718
30
0.0
11
7.537500
21
1.619657
31
0.0
0
LINE
8
TOP
10
7.537500
20
1.619657
30
0.0
11
7.650000
21
1.623597
31
0.0
0
LINE
8
TOP
10
7.650000
20
1.623597
30
0.0
11
7.762500
21
1.627536
31
0.0
0
LINE
8
TOP
10
7.762500
20
1.627536
30
0.0
11
7.875000
21
1.631475
31
0.0
0
LINE
8
TOP
10
7.875000
20
1.631475
30
0.0
11
7.987500
21
1.635415
31
0.0
0
LINE
8
TOP
10
7.987500
20
1.635415
30
0.0
11
8.100000
21
1.639354
31
0.0
0
LINE
8
TOP
10
8.100000
20
1.639354
30
0.0
11
8.212500
21
1.643294
31
0.0
0
LINE
8
TOP
10
8.212500
20
1.643294
30
0.0
11
8.325000
21
1.647233
31
0.0
0
LINE
8
TOP
10
8.325000
20
1.647233
30
0.0
11
8.437500
21
1.651172
31
0.0
0
LINE
8
TOP
10
8.437500
20
1.651172
30
0.0
11
8.500000
21
1.653361
31
0.0
0
LINE
8
TOP
10
8.500000
20
1.653361
30
0.0
11
8.550000
21
1.655112
31
0.0
0
LINE
8
TOP
10
8.550000
20
1.655112
30
0.0
11
8.662500
21
1.659051
31
0.0
0
LINE
8
TOP
10
8.662500
20
1.659051
30
0.0
11
8.775000
21
1.662991
31
0.0
0
LINE
8
TOP
10
8.775000
20
1.662991
30
0.0
11
8.887500
21
1.666930
31
0.0
0
LINE
8
TOP
10
8.887500
20
1.666930
30
0.0
11
9.000000
21
1.670870
31
0.0
0
LINE
8
TOP
10
0.000000
20
1.900870
30
0.0
11
0.000000
21
1.670870
31
0.0
0
LINE
8
TOP
10
9.000000
20
1.900870
30
0.0
11
9.000000
21
1.670870
31
0.0
0
LINE
8
SECTION
10
10.227423
20
-0.345290
30
0.0
11
10.772577
21
-0.345290
31
0.0
0
LINE
8
SECTION
10
10.772577
20
-0.345290
30
0.0
11
10.772577
21
0.345290
31
0.0
0
LINE
8
SECTION
10
10.772577
20
0.345290
30
0.0
11
10.227423
21
0.345290
31
0.0
0
LINE
8
SECTION
10
10.227423
20
0.345290
30
0.0
11
10.227423
21
-0.345290
31
0.0
0
LINE
8
SECTION
10
10.267423
20
-0.305290
30
0.0
11
10.732577
21
-0.305290
31
0.0
0
LINE
8
SECTION
10
10.732577
20
-0.305290
30
0.0
11
10.732577
21
0.305290
31
0.0
0
LINE
8
SECTION
10
10.732577
20
0.305290
30
0.0
11
10.267423
21
0.305290
31
0.0
0
LINE
8
SECTION
10
10.267423
20
0.305290
30
0.0
11
10.267423
21
-0.305290
31
0.0
0
LINE
8
SECTION
10
10.267423
20
0.198151
30
0.0
11
10.307423
21
0.198151
31
0.0
0
LINE
8
SECTION
10
10.307423
20
0.198151
30
0.0
11
10.307423
21
0.305290
31
0.0
0
LINE
8
SECTION
10
10.307423
20
0.305290
30
0.0
11
10.267423
21
0.305290
31
0.0
0
LINE
8
SECTION
10
10.267423
20
0.305290
30
0.0
11
10.267423
21
0.198151
31
0.0
0
LINE
8
SECTION
10
10.267423
20
-0.305290
30
0.0
11
10.307423
21
-0.305290
31
0.0
0
LINE
8
SECTION
10
10.307423
20
-0.305290
30
0.0
11
10.307423
21
-0.198151
31
0.0
0
LINE
8
SECTION
10
10.307423
20
-0.198151
30
0.0
11
10.267423
21
-0.198151
31
0.0
0
LINE
8
SECTION
10
10.267423
20
-0.198151
30
0.0
11
10.267423
21
-0.305290
31
0.0
0
LINE
8
SECTION
10
10.692577
20
0.198151
30
0.0
11
10.732577
21
0.198151
31
0.0
0
LINE
8
SECTION
10
10.732577
20
0.198151
30
0.0
11
10.732577
21
0.305290
31
0.0
0
LINE
8
SECTION
10
10.732577
20
0.305290
30
0.0
11
10.692577
21
0.305290
31
0.0
0
LINE
8
SECTION
10
10.692577
20
0.305290
30
0.0
11
10.692577
21
0.198151
31
0.0
0
LINE
8
SECTION
10
10.692577
20
-0.305290
30
0.0
11
10.732577
21
-0.305290
31
0.0
0
LINE
8
SECTION
10
10.732577
20
-0.305290
30
0.0
11
10.732577
21
-0.198151
31
0.0
0
LINE
8
SECTION
10
10.732577
20
-0.198151
30
0.0
11
10.692577
21
-0.198151
31
0.0
0
LINE
8
SECTION
10
10.692577
20
-0.198151
30
0.0
11
10.692577
21
-0.305290
31
0.0
0
ENDSEC
0
EOF
