0
SECTION
2
HEADER
9
$INSUNITS
70
1
0
ENDSEC
0
SECTION
2
ENTITIES
0
LINE
8
FRONT
10
0.000000
20
0.312259
30
0.0
11
0.112500
21
0.313004
31
0.0
0
LINE
8
FRONT
10
0.112500
20
0.313004
30
0.0
11
0.225000
21
0.313749
31
0.0
0
LINE
8
FRONT
10
0.225000
20
0.313749
30
0.0
11
0.337500
21
0.314494
31
0.0
0
LINE
8
FRONT
10
0.337500
20
0.314494
30
0.0
11
0.450000
21
0.315240
31
0.0
0
LINE
8
FRONT
10
0.450000
20
0.315240
30
0.0
11
0.500000
21
0.315571
31
0.0
0
LINE
8
FRONT
10
0.500000
20
0.315571
30
0.0
11
0.562500
21
0.315985
31
0.0
0
LINE
8
FRONT
10
0.562500
20
0.315985
30
0.0
11
0.675000
21
0.316730
31
0.0
0
LINE
8
FRONT
10
0.675000
20
0.316730
30
0.0
11
0.787500
21
0.317475
31
0.0
0
LINE
8
FRONT
10
0.787500
20
0.317475
30
0.0
11
0.900000
21
0.318221
31
0.0
0
LINE
8
FRONT
10
0.900000
20
0.318221
30
0.0
11
1.012500
21
0.318966
31
0.0
0
LINE
8
FRONT
10
1.012500
20
0.318966
30
0.0
11
1.125000
21
0.319711
31
0.0
0
LINE
8
FRONT
10
1.125000
20
0.319711
30
0.0
11
1.237500
21
0.320456
31
0.0
0
LINE
8
FRONT
10
1.237500
20
0.320456
30
0.0
11
1.350000
21
0.321202
31
0.0
0
LINE
8
FRONT
10
1.350000
20
0.321202
30
0.0
11
1.462500
21
0.321947
31
0.0
0
LINE
8
FRONT
10
1.462500
20
0.321947
30
0.0
11
1.575000
21
0.322692
31
0.0
0
LINE
8
FRONT
10
1.575000
20
0.322692
30
0.0
11
1.687500
21
0.323437
31
0.0
0
LINE
8
FRONT
10
1.687500
20
0.323437
30
0.0
11
1.800000
21
0.324183
31
0.0
0
LINE
8
FRONT
10
1.800000
20
0.324183
30
0.0
11
1.912500
21
0.324928
31
0.0
0
LINE
8
FRONT
10
1.912500
20
0.324928
30
0.0
11
2.025000
21
0.325673
31
0.0
0
LINE
8
FRONT
10
2.025000
20
0.325673
30
0.0
11
2.137500
21
0.326418
31
0.0
0
LINE
8
FRONT
10
2.137500
20
0.326418
30
0.0
11
2.250000
21
0.327164
31
0.0
0
LINE
8
FRONT
10
2.250000
20
0.327164
30
0.0
11
2.362500
21
0.327909
31
0.0
0
LINE
8
FRONT
10
2.362500
20
0.327909
30
0.0
11
2.475000
21
0.328654
31
0.0
0
LINE
8
FRONT
10
2.475000
20
0.328654
30
0.0
11
2.587500
21
0.329399
31
0.0
0
LINE
8
FRONT
10
2.587500
20
0.329399
30
0.0
11
2.700000
21
0.330145
31
0.0
0
LINE
8
FRONT
10
2.700000
20
0.330145
30
0.0
11
2.812500
21
0.330890
31
0.0
0
LINE
8
FRONT
10
2.812500
20
0.330890
30
0.0
11
2.925000
21
0.331635
31
0.0
0
LINE
8
FRONT
10
2.925000
20
0.331635
30
0.0
11
3.037500
21
0.332380
31
0.0
0
LINE
8
FRONT
10
3.037500
20
0.332380
30
0.0
11
3.150000
21
0.333126
31
0.0
0
LINE
8
FRONT
10
3.150000
20
0.333126
30
0.0
11
3.262500
21
0.333871
31
0.0
0
LINE
8
FRONT
10
3.262500
20
0.333871
30
0.0
11
3.375000
21
0.334616
31
0.0
0
LINE
8
FRONT
10
3.375000
20
0.334616
30
0.0
11
3.487500
21
0.335361
31
0.0
0
LINE
8
FRONT
10
3.487500
20
0.335361
30
0.0
11
3.600000
21
0.336106
31
0.0
0
LINE
8
FRONT
10
3.600000
20
0.336106
30
0.0
11
3.712500
21
0.336852
31
0.0
0
LINE
8
FRONT
10
3.712500
20
0.336852
30
0.0
11
3.825000
21
0.337597
31
0.0
0
LINE
8
FRONT
10
3.825000
20
0.337597
30
0.0
11
3.937500
21
0.338342
31
0.0
0
LINE
8
FRONT
10
3.937500
20
0.338342
30
0.0
11
4.050000
21
0.339087
31
0.0
0
LINE
8
FRONT
10
4.050000
20
0.339087
30
0.0
11
4.162500
21
0.339833
31
0.0
0
LINE
8
FRONT
10
4.162500
20
0.339833
30
0.0
11
4.275000
21
0.340578
31
0.0
0
LINE
8
FRONT
10
4.275000
20
0.340578
30
0.0
11
4.387500
21
0.341323
31
0.0
0
LINE
8
FRONT
10
4.387500
20
0.341323
30
0.0
11
4.500000
21
0.342068
31
0.0
0
LINE
8
FRONT
10
4.500000
20
0.342068
30
0.0
11
4.612500
21
0.346508
31
0.0
0
LINE
8
FRONT
10
4.612500
20
0.346508
30
0.0
11
4.725000
21
0.350948
31
0.0
0
LINE
8
FRONT
10
4.725000
20
0.350948
30
0.0
11
4.837500
21
0.355388
31
0.0
0
LINE
8
FRONT
10
4.837500
20
0.355388
30
0.0
11
4.950000
21
0.359828
31
0.0
0
LINE
8
FRONT
10
4.950000
20
0.359828
30
0.0
11
5.062500
21
0.364268
31
0.0
0
LINE
8
FRONT
10
5.062500
20
0.364268
30
0.0
11
5.175000
21
0.368708
31
0.0
0
LINE
8
FRONT
10
5.175000
20
0.368708
30
0.0
11
5.287500
21
0.373148
31
0.0
0
LINE
8
FRONT
10
5.287500
20
0.373148
30
0.0
11
5.400000
21
0.377588
31
0.0
0
LINE
8
FRONT
10
5.400000
20
0.377588
30
0.0
11
5.512500
21
0.382028
31
0.0
0
LINE
8
FRONT
10
5.512500
20
0.382028
30
0.0
11
5.625000
21
0.386468
31
0.0
0
LINE
8
FRONT
10
5.625000
20
0.386468
30
0.0
11
5.737500
21
0.390908
31
0.0
0
LINE
8
FRONT
10
5.737500
20
0.390908
30
0.0
11
5.850000
21
0.395347
31
0.0
0
LINE
8
FRONT
10
5.850000
20
0.395347
30
0.0
11
5.962500
21
0.399787
31
0.0
0
LINE
8
FRONT
10
5.962500
20
0.399787
30
0.0
11
6.075000
21
0.404227
31
0.0
0
LINE
8
FRONT
10
6.075000
20
0.404227
30
0.0
11
6.187500
21
0.408667
31
0.0
0
LINE
8
FRONT
10
6.187500
20
0.408667
30
0.0
11
6.300000
21
0.413107
31
0.0
0
LINE
8
FRONT
10
6.300000
20
0.413107
30
0.0
11
6.412500
21
0.417547
31
0.0
0
LINE
8
FRONT
10
6.412500
20
0.417547
30
0.0
11
6.525000
21
0.421987
31
0.0
0
LINE
8
FRONT
10
6.525000
20
0.421987
30
0.0
11
6.637500
21
0.426427
31
0.0
0
LINE
8
FRONT
10
6.637500
20
0.426427
30
0.0
11
6.750000
21
0.430867
31
0.0
0
LINE
8
FRONT
10
6.750000
20
0.430867
30
0.0
11
6.862500
21
0.435307
31
0.0
0
LINE
8
FRONT
10
6.862500
20
0.435307
30
0.0
11
6.975000
21
0.439747
31
0.0
0
LINE
8
FRONT
10
6.975000
20
0.439747
30
0.0
11
7.087500
21
0.444187
31
0.0
0
LINE
8
FRONT
10
7.087500
20
0.444187
30
0.0
11
7.200000
21
0.448626
31
0.0
0
LINE
8
FRONT
10
7.200000
20
0.448626
30
0.0
11
7.312500
21
0.453066
31
0.0
0
LINE
8
FRONT
10
7.312500
20
0.453066
30
0.0
11
7.425000
21
0.457506
31
0.0
0
LINE
8
FRONT
10
7.425000
20
0.457506
30
0.0
11
7.537500
21
0.461946
31
0.0
0
LINE
8
FRONT
10
7.537500
20
0.461946
30
0.0
11
7.650000
21
0.466386
31
0.0
0
LINE
8
FRONT
10
7.650000
20
0.466386
30
0.0
11
7.762500
21
0.470826
31
0.0
0
LINE
8
FRONT
10
7.762500
20
0.470826
30
0.0
11
7.875000
21
0.475266
31
0.0
0
LINE
8
FRONT
10
7.875000
20
0.475266
30
0.0
11
7.987500
21
0.479706
31
0.0
0
LINE
8
FRONT
10
7.987500
20
0.479706
30
0.0
11
8.100000
21
0.484146
31
0.0
0
LINE
8
FRONT
10
8.100000
20
0.484146
30
0.0
11
8.212500
21
0.488586
31
0.0
0
LINE
8
FRONT
10
8.212500
20
0.488586
30
0.0
11
8.325000
21
0.493026
31
0.0
0
LINE
8
FRONT
10
8.325000
20
0.493026
30
0.0
11
8.437500
21
0.497465
31
0.0
0
LINE
8
FRONT
10
8.437500
20
0.497465
30
0.0
11
8.500000
21
0.499932
31
0.0
0
LINE
8
FRONT
10
8.500000
20
0.499932
30
0.0
11
8.550000
21
0.501905
31
0.0
0
LINE
8
FRONT
10
8.550000
20
0.501905
30
0.0
11
8.662500
21
0.506345
31
0.0
0
LINE
8
FRONT
10
8.662500
20
0.506345
30
0.0
11
8.775000
21
0.510785
31
0.0
0
LINE
8
FRONT
10
8.775000
20
0.510785
30
0.0
11
8.887500
21
0.515225
31
0.0
0
LINE
8
FRONT
10
8.887500
20
0.515225
30
0.0
11
9.000000
21
0.519665
31
0.0
0
LINE
8
FRONT
10
0.000000
20
-0.312259
30
0.0
11
0.112500
21
-0.313004
31
0.0
0
LINE
8
FRONT
10
0.112500
20
-0.313004
30
0.0
11
0.225000
21
-0.313749
31
0.0
0
LINE
8
FRONT
10
0.225000
20
-0.313749
30
0.0
11
0.337500
21
-0.314494
31
0.0
0
LINE
8
FRONT
10
0.337500
20
-0.314494
30
0.0
11
0.450000
21
-0.315240
31
0.0
0
LINE
8
FRONT
10
0.450000
20
-0.315240
30
0.0
11
0.500000
21
-0.315571
31
0.0
0
LINE
8
FRONT
10
0.500000
20
-0.315571
30
0.0
11
0.562500
21
-0.315985
31
0.0
0
LINE
8
FRONT
10
0.562500
20
-0.315985
30
0.0
11
0.675000
21
-0.316730
31
0.0
0
LINE
8
FRONT
10
0.675000
20
-0.316730
30
0.0
11
0.787500
21
-0.317475
31
0.0
0
LINE
8
FRONT
10
0.787500
20
-0.317475
30
0.0
11
0.900000
21
-0.318221
31
0.0
0
LINE
8
FRONT
10
0.900000
20
-0.318221
30
0.0
11
1.012500
21
-0.318966
31
0.0
0
LINE
8
FRONT
10
1.012500
20
-0.318966
30
0.0
11
1.125000
21
-0.319711
31
0.0
0
LINE
8
FRONT
10
1.125000
20
-0.319711
30
0.0
11
1.237500
21
-0.320456
31
0.0
0
LINE
8
FRONT
10
1.237500
20
-0.320456
30
0.0
11
1.350000
21
-0.321202
31
0.0
0
LINE
8
FRONT
10
1.350000
20
-0.321202
30
0.0
11
1.462500
21
-0.321947
31
0.0
0
LINE
8
FRONT
10
1.462500
20
-0.321947
30
0.0
11
1.575000
21
-0.322692
31
0.0
0
LINE
8
FRONT
10
1.575000
20
-0.322692
30
0.0
11
1.687500
21
-0.323437
31
0.0
0
LINE
8
FRONT
10
1.687500
20
-0.323437
30
0.0
11
1.800000
21
-0.324183
31
0.0
0
LINE
8
FRONT
10
1.800000
20
-0.324183
30
0.0
11
1.912500
21
-0.324928
31
0.0
0
LINE
8
FRONT
10
1.912500
20
-0.324928
30
0.0
11
2.025000
21
-0.325673
31
0.0
0
LINE
8
FRONT
10
2.025000
20
-0.325673
30
0.0
11
2.137500
21
-0.326418
31
0.0
0
LINE
8
FRONT
10
2.137500
20
-0.326418
30
0.0
11
2.250000
21
-0.327164
31
0.0
0
LINE
8
FRONT
10
2.250000
20
-0.327164
30
0.0
11
2.362500
21
-0.327909
31
0.0
0
LINE
8
FRONT
10
2.362500
20
-0.327909
30
0.0
11
2.475000
21
-0.328654
31
0.0
0
LINE
8
FRONT
10
2.475000
20
-0.328654
30
0.0
11
2.587500
21
-0.329399
31
0.0
0
LINE
8
FRONT
10
2.587500
20
-0.329399
30
0.0
11
2.700000
21
-0.330145
31
0.0
0
LINE
8
FRONT
10
2.700000
20
-0.330145
30
0.0
11
2.812500
21
-0.330890
31
0.0
0
LINE
8
FRONT
10
2.812500
20
-0.330890
30
0.0
11
2.925000
21
-0.331635
31
0.0
0
LINE
8
FRONT
10
2.925000
20
-0.331635
30
0.0
11
3.037500
21
-0.332380
31
0.0
0
LINE
8
FRONT
10
3.037500
20
-0.332380
30
0.0
11
3.150000
21
-0.333126
31
0.0
0
LINE
8
FRONT
10
3.150000
20
-0.333126
30
0.0
11
3.262500
21
-0.333871
31
0.0
0
LINE
8
FRONT
10
3.262500
20
-0.333871
30
0.0
11
3.375000
21
-0.334616
31
0.0
0
LINE
8
FRONT
10
3.375000
20
-0.334616
30
0.0
11
3.487500
21
-0.335361
31
0.0
0
LINE
8
FRONT
10
3.487500
20
-0.335361
30
0.0
11
3.600000
21
-0.336106
31
0.0
0
LINE
8
FRONT
10
3.600000
20
-0.336106
30
0.0
11
3.712500
21
-0.336852
31
0.0
0
LINE
8
FRONT
10
3.712500
20
-0.336852
30
0.0
11
3.825000
21
-0.337597
31
0.0
0
LINE
8
FRONT
10
3.825000
20
-0.337597
30
0.0
11
3.937500
21
-0.338342
31
0.0
0
LINE
8
FRONT
10
3.937500
20
-0.338342
30
0.0
11
4.050000
21
-0.339087
31
0.0
0
LINE
8
FRONT
10
4.050000
20
-0.339087
30
0.0
11
4.162500
21
-0.339833
31
0.0
0
LINE
8
FRONT
10
4.162500
20
-0.339833
30
0.0
11
4.275000
21
-0.340578
31
0.0
0
LINE
8
FRONT
10
4.275000
20
-0.340578
30
0.0
11
4.387500
21
-0.341323
31
0.0
0
LINE
8
FRONT
10
4.387500
20
-0.341323
30
0.0
11
4.500000
21
-0.342068
31
0.0
0
LINE
8
FRONT
10
4.500000
20
-0.342068
30
0.0
11
4.612500
21
-0.346508
31
0.0
0
LINE
8
FRONT
10
4.612500
20
-0.346508
30
0.0
11
4.725000
21
-0.350948
31
0.0
0
LINE
8
FRONT
10
4.725000
20
-0.350948
30
0.0
11
4.837500
21
-0.355388
31
0.0
0
LINE
8
FRONT
10
4.837500
20
-0.355388
30
0.0
11
4.950000
21
-0.359828
31
0.0
0
LINE
8
FRONT
10
4.950000
20
-0.359828
30
0.0
11
5.062500
21
-0.364268
31
0.0
0
LINE
8
FRONT
10
5.062500
20
-0.364268
30
0.0
11
5.175000
21
-0.368708
31
0.0
0
LINE
8
FRONT
10
5.175000
20
-0.368708
30
0.0
11
5.287500
21
-0.373148
31
0.0
0
LINE
8
FRONT
10
5.287500
20
-0.373148
30
0.0
11
5.400000
21
-0.377588
31
0.0
0
LINE
8
FRONT
10
5.400000
20
-0.377588
30
0.0
11
5.512500
21
-0.382028
31
0.0
0
LINE
8
FRONT
10
5.512500
20
-0.382028
30
0.0
11
5.625000
21
-0.386468
31
0.0
0
LINE
8
FRONT
10
5.625000
20
-0.386468
30
0.0
11
5.737500
21
-0.390908
31
0.0
0
LINE
8
FRONT
10
5.737500
20
-0.390908
30
0.0
11
5.850000
21
-0.395347
31
0.0
0
LINE
8
FRONT
10
5.850000
20
-0.395347
30
0.0
11
5.962500
21
-0.399787
31
0.0
0
LINE
8
FRONT
10
5.962500
20
-0.399787
30
0.0
11
6.075000
21
-0.404227
31
0.0
0
LINE
8
FRONT
10
6.075000
20
-0.404227
30
0.0
11
6.187500
21
-0.408667
31
0.0
0
LINE
8
FRONT
10
6.187500
20
-0.408667
30
0.0
11
6.300000
21
-0.413107
31
0.0
0
LINE
8
FRONT
10
6.300000
20
-0.413107
30
0.0
11
6.412500
21
-0.417547
31
0.0
0
LINE
8
FRONT
10
6.412500
20
-0.417547
30
0.0
11
6.525000
21
-0.421987
31
0.0
0
LINE
8
FRONT
10
6.525000
20
-0.421987
30
0.0
11
6.637500
21
-0.426427
31
0.0
0
LINE
8
FRONT
10
6.637500
20
-0.426427
30
0.0
11
6.750000
21
-0.430867
31
0.0
0
LINE
8
FRONT
10
6.750000
20
-0.430867
30
0.0
11
6.862500
21
-0.435307
31
0.0
0
LINE
8
FRONT
10
6.862500
20
-0.435307
30
0.0
11
6.975000
21
-0.439747
31
0.0
0
LINE
8
FRONT
10
6.975000
20
-0.439747
30
0.0
11
7.087500
21
-0.444187
31
0.0
0
LINE
8
FRONT
10
7.087500
20
-0.444187
30
0.0
11
7.200000
21
-0.448626
31
0.0
0
LINE
8
FRONT
10
7.200000
20
-0.448626
30
0.0
11
7.312500
21
-0.453066
31
0.0
0
LINE
8
FRONT
10
7.312500
20
-0.453066
30
0.0
11
7.425000
21
-0.457506
31
0.0
0
LINE
8
FRONT
10
7.425000
20
-0.457506
30
0.0
11
7.537500
21
-0.461946
31
0.0
0
LINE
8
FRONT
10
7.537500
20
-0.461946
30
0.0
11
7.650000
21
-0.466386
31
0.0
0
LINE
8
FRONT
10
7.650000
20
-0.466386
30
0.0
11
7.762500
21
-0.470826
31
0.0
0
LINE
8
FRONT
10
7.762500
20
-0.470826
30
0.0
11
7.875000
21
-0.475266
31
0.0
0
LINE
8
FRONT
10
7.875000
20
-0.475266
30
0.0
11
7.987500
21
-0.479706
31
0.0
0
LINE
8
FRONT
10
7.987500
20
-0.479706
30
0.0
11
8.100000
21
-0.484146
31
0.0
0
LINE
8
FRONT
10
8.100000
20
-0.484146
30
0.0
11
8.212500
21
-0.488586
31
0.0
0
LINE
8
FRONT
10
8.212500
20
-0.488586
30
0.0
11
8.325000
21
-0.493026
31
0.0
0
LINE
8
FRONT
10
8.325000
20
-0.493026
30
0.0
11
8.437500
21
-0.497465
31
0.0
0
LINE
8
FRONT
10
8.437500
20
-0.497465
30
0.0
11
8.500000
21
-0.499932
31
0.0
0
LINE
8
FRONT
10
8.500000
20
-0.499932
30
0.0
11
8.550000
21
-0.501905
31
0.0
0
LINE
8
FRONT
10
8.550000
20
-0.501905
30
0.0
11
8.662500
21
-0.506345
31
0.0
0
LINE
8
FRONT
10
8.662500
20
-0.506345
30
0.0
11
8.775000
21
-0.510785
31
0.0
0
LINE
8
FRONT
10
8.775000
20
-0.510785
30
0.0
11
8.887500
21
-0.515225
31
0.0
0
LINE
8
FRONT
10
8.887500
20
-0.515225
30
0.0
11
9.000000
21
-0.519665
31
0.0
0
LINE
8
FRONT
10
0.000000
20
0.312259
30
0.0
11
0.000000
21
-0.312259
31
0.0
0
LINE
8
FRONT
10
9.000000
20
0.519665
30
0.0
11
9.000000
21
-0.519665
31
0.0
0
LINE
8
TOP
10
0.000000
20
2.464906
30
0.0
11
0.112500
21
2.465154
31
0.0
0
LINE
8
TOP
10
0.112500
20
2.465154
30
0.0
11
0.225000
21
2.465402
31
0.0
0
LINE
8
TOP
10
0.225000
20
2.465402
30
0.0
11
0.337500
21
2.465649
31
0.0
0
LINE
8
TOP
10
0.337500
20
2.465649
30
0.0
11
0.450000
21
2.465897
31
0.0
0
LINE
8
TOP
10
0.450000
20
2.465897
30
0.0
11
0.500000
21
2.466007
31
0.0
0
LINE
8
TOP
10
0.500000
20
2.466007
30
0.0
11
0.562500
21
2.466145
31
0.0
0
LINE
8
TOP
10
0.562500
20
2.466145
30
0.0
11
0.675000
21
2.466393
31
0.0
0
LINE
8
TOP
10
0.675000
20
2.466393
30
0.0
11
0.787500
21
2.466640
31
0.0
0
LINE
8
TOP
10
0.787500
20
2.466640
30
0.0
11
0.900000
21
2.466888
31
0.0
0
LINE
8
TOP
10
0.900000
20
2.466888
30
0.0
11
1.012500
21
2.467136
31
0.0
0
LINE
8
TOP
10
1.012500
20
2.467136
30
0.0
11
1.125000
21
2.467383
31
0.0
0
LINE
8
TOP
10
1.125000
20
2.467383
30
0.0
11
1.237500
21
2.467631
31
0.0
0
LINE
8
TOP
10
1.237500
20
2.467631
30
0.0
11
1.350000
21
2.467879
31
0.0
0
LINE
8
TOP
10
1.350000
20
2.467879
30
0.0
11
1.462500
21
2.468127
31
0.0
0
LINE
8
TOP
10
1.462500
20
2.468127
30
0.0
11
1.575000
21
2.468374
31
0.0
0
LINE
8
TOP
10
1.575000
20
2.468374
30
0.0
11
1.687500
21
2.468622
31
0.0
0
LINE
8
TOP
10
1.687500
20
2.468622
30
0.0
11
1.800000
21
2.468870
31
0.0
0
LINE
8
TOP
10
1.800000
20
2.468870
30
0.0
11
1.912500
21
2.469118
31
0.0
0
LINE
8
TOP
10
1.912500
20
2.469118
30
0.0
11
2.025000
21
2.469365
31
0.0
0
LINE
8
TOP
10
2.025000
20
2.469365
30
0.0
11
2.137500
21
2.469613
31
0.0
0
LINE
8
TOP
10
2.137500
20
2.469613
30
0.0
11
2.250000
21
2.469861
31
0.0
0
LINE
8
TOP
10
2.250000
20
2.469861
30
0.0
11
2.362500
21
2.470109
31
0.0
0
LINE
8
TOP
10
2.362500
20
2.470109
30
0.0
11
2.475000
21
2.470356
31
0.0
0
LINE
8
TOP
10
2.475000
20
2.470356
30
0.0
11
2.587500
21
2.470604
31
0.0
0
LINE
8
TOP
10
2.587500
20
2.470604
30
0.0
11
2.700000
21
2.470852
31
0.0
0
LINE
8
TOP
10
2.700000
20
2.470852
30
0.0
11
2.812500
21
2.471100
31
0.0
0
LINE
8
TOP
10
2.812500
20
2.471100
30
0.0
11
2.925000
21
2.471347
31
0.0
0
LINE
8
TOP
10
2.925000
20
2.471347
30
0.0
11
3.037500
21
2.471595
31
0.0
0
LINE
8
TOP
10
3.037500
20
2.471595
30
0.0
11
3.150000
21
2.471843
31
0.0
0
LINE
8
TOP
10
3.150000
20
2.471843
30
0.0
11
3.262500
21
2.472091
31
0.0
0
LINE
8
TOP
10
3.262500
20
2.472091
30
0.0
11
3.375000
21
2.472338
31
0.0
0
LINE
8
TOP
10
3.375000
20
2.472338
30
0.0
11
3.487500
21
2.472586
31
0.0
0
LINE
8
TOP
10
3.487500
20
2.472586
30
0.0
11
3.600000
21
2.472834
31
0.0
0
LINE
8
TOP
10
3.600000
20
2.472834
30
0.0
11
3.712500
21
2.473082
31
0.0
0
LINE
8
TOP
10
3.712500
20
2.473082
30
0.0
11
3.825000
21
2.473329
31
0.0
0
LINE
8
TOP
10
3.825000
20
2.473329
30
0.0
11
3.937500
21
2.473577
31
0.0
0
LINE
8
TOP
10
3.937500
20
2.473577
30
0.0
11
4.050000
21
2.473825
31
0.0
0
LINE
8
TOP
10
4.050000
20
2.473825
30
0.0
11
4.162500
21
2.474073
31
0.0
0
LINE
8
TOP
10
4.162500
20
2.474073
30
0.0
11
4.275000
21
2.474320
31
0.0
0
LINE
8
TOP
10
4.275000
20
2.474320
30
0.0
11
4.387500
21
2.474568
31
0.0
0
LINE
8
TOP
10
4.387500
20
2.474568
30
0.0
11
4.500000
21
2.474816
31
0.0
0
LINE
8
TOP
10
4.500000
20
2.474816
30
0.0
11
4.612500
21
2.473864
31
0.0
0
LINE
8
TOP
10
4.612500
20
2.473864
30
0.0
11
4.725000
21
2.472911
31
0.0
0
LINE
8
TOP
10
4.725000
20
2.472911
30
0.0
11
4.837500
21
2.471959
31
0.0
0
LINE
8
TOP
10
4.837500
20
2.471959
30
0.0
11
4.950000
21
2.471007
31
0.0
0
LINE
8
TOP
10
4.950000
20
2.471007
30
0.0
11
5.062500
21
2.470054
31
0.0
0
LINE
8
TOP
10
5.062500
20
2.470054
30
0.0
11
5.175000
21
2.469102
31
0.0
0
LINE
8
TOP
10
5.175000
20
2.469102
30
0.0
11
5.287500
21
2.468149
31
0.0
0
LINE
8
TOP
10
5.287500
20
2.468149
30
0.0
11
5.400000
21
2.467197
31
0.0
0
LINE
8
TOP
10
5.400000
20
2.467197
30
0.0
11
5.512500
21
2.466245
31
0.0
0
LINE
8
TOP
10
5.512500
20
2.466245
30
0.0
11
5.625000
21
2.465292
31
0.0
0
LINE
8
TOP
10
5.625000
20
2.465292
30
0.0
11
5.737500
21
2.464340
31
0.0
0
LINE
8
TOP
10
5.737500
20
2.464340
30
0.0
11
5.850000
21
2.463388
31
0.0
0
LINE
8
TOP
10
5.850000
20
2.463388
30
0.0
11
5.962500
21
2.462435
31
0.0
0
LINE
8
TOP
10
5.962500
20
2.462435
30
0.0
11
6.075000
21
2.461483
31
0.0
0
LINE
8
TOP
10
6.075000
20
2.461483
30
0.0
11
6.187500
21
2.460531
31
0.0
0
LINE
8
TOP
10
6.187500
20
2.460531
30
0.0
11
6.300000
21
2.459578
31
0.0
0
LINE
8
TOP
10
6.300000
20
2.459578
30
0.0
11
6.412500
21
2.458626
31
0.0
0
LINE
8
TOP
10
6.412500
20
2.458626
30
0.0
11
6.525000
21
2.457673
31
0.0
0
LINE
8
TOP
10
6.525000
20
2.457673
30
0.0
11
6.637500
21
2.456721
31
0.0
0
LINE
8
TOP
10
6.637500
20
2.456721
30
0.0
11
6.750000
21
2.455769
31
0.0
0
LINE
8
TOP
10
6.750000
20
2.455769
30
0.0
11
6.862500
21
2.454816
31
0.0
0
LINE
8
TOP
10
6.862500
20
2.454816
30
0.0
11
6.975000
21
2.453864
31
0.0
0
LINE
8
TOP
10
6.975000
20
2.453864
30
0.0
11
7.087500
21
2.452912
31
0.0
0
LINE
8
TOP
10
7.087500
20
2.452912
30
0.0
11
7.200000
21
2.451959
31
0.0
0
LINE
8
TOP
10
7.200000
20
2.451959
30
0.0
11
7.312500
21
2.451007
31
0.0
0
LINE
8
TOP
10
7.312500
20
2.451007
30
0.0
11
7.425000
21
2.450055
31
0.0
0
LINE
8
TOP
10
7.425000
20
2.450055
30
0.0
11
7.537500
21
2.449102
31
0.0
0
LINE
8
TOP
10
7.537500
20
2.449102
30
0.0
11
7.650000
21
2.448150
31
0.0
0
LINE
8
TOP
10
7.650000
20
2.448150
30
0.0
11
7.762500
21
2.447198
31
0.0
0
LINE
8
TOP
10
7.762500
20
2.447198
30
0.0
11
7.875000
21
2.446245
31
0.0
0
LINE
8
TOP
10
7.875000
20
2.446245
30
0.0
11
7.987500
21
2.445293
31
0.0
0
LINE
8
TOP
10
7.987500
20
2.445293
30
0.0
11
8.100000
21
2.444340
31
0.0
0
LINE
8
TOP
10
8.100000
20
2.444340
30
0.0
11
8.212500
21
2.443388
31
0.0
0
LINE
8
TOP
10
8.212500
20
2.443388
30
0.0
11
8.325000
21
2.442436
31
0.0
0
LINE
8
TOP
10
8.325000
20
2.442436
30
0.0
11
8.437500
21
2.441483
31
0.0
0
LINE
8
TOP
10
8.437500
20
2.441483
30
0.0
11
8.500000
21
2.440954
31
0.0
0
LINE
8
TOP
10
8.500000
20
2.440954
30
0.0
11
8.550000
21
2.440531
31
0.0
0
LINE
8
TOP
10
8.550000
20
2.440531
30
0.0
11
8.662500
21
2.439579
31
0.0
0
LINE
8
TOP
10
8.662500
20
2.439579
30
0.0
11
8.775000
21
2.438626
31
0.0
0
LINE
8
TOP
10
8.775000
20
2.438626
30
0.0
11
8.887500
21
2.437674
31
0.0
0
LINE
8
TOP
10
8.887500
20
2.437674
30
0.0
11
9.000000
21
2.436722
31
0.0
0
LINE
8
TOP
10
0.000000
20
2.153084
30
0.0
11
0.112500
21
2.152837
31
0.0
0
LINE
8
TOP
10
0.112500
20
2.152837
30
0.0
11
0.225000
21
2.152589
31
0.0
0
LINE
8
TOP
10
0.225000
20
2.152589
30
0.0
11
0.337500
21
2.152341
31
0.0
0
LINE
8
TOP
10
0.337500
20
2.152341
30
0.0
11
0.450000
21
2.152093
31
0.0
0
LINE
8
TOP
10
0.450000
20
2.152093
30
0.0
11
0.500000
21
2.151983
31
0.0
0
LINE
8
TOP
10
0.500000
20
2.151983
30
0.0
11
0.562500
21
2.151846
31
0.0
0
LINE
8
TOP
10
0.562500
20
2.151846
30
0.0
11
0.675000
21
2.151598
31
0.0
0
LINE
8
TOP
10
0.675000
20
2.151598
30
0.0
11
0.787500
21
2.151350
31
0.0
0
LINE
8
TOP
10
0.787500
20
2.151350
30
0.0
11
0.900000
21
2.151102
31
0.0
0
LINE
8
TOP
10
0.900000
20
2.151102
30
0.0
11
1.012500
21
2.150855
31
0.0
0
LINE
8
TOP
10
1.012500
20
2.150855
30
0.0
11
1.125000
21
2.150607
31
0.0
0
LINE
8
TOP
10
1.125000
20
2.150607
30
0.0
11
1.237500
21
2.150359
31
0.0
0
LINE
8
TOP
10
1.237500
20
2.150359
30
0.0
11
1.350000
21
2.150111
31
0.0
0
LINE
8
TOP
10
1.350000
20
2.150111
30
0.0
11
1.462500
21
2.149864
31
0.0
0
LINE
8
TOP
10
1.462500
20
2.149864
30
0.0
11
1.575000
21
2.149616
31
0.0
0
LINE
8
TOP
10
1.575000
20
2.149616
30
0.0
11
1.687500
21
2.149368
31
0.0
0
LINE
8
TOP
10
1.687500
20
2.149368
30
0.0
11
1.800000
21
2.149121
31
0.0
0
LINE
8
TOP
10
1.800000
20
2.149121
30
0.0
11
1.912500
21
2.148873
31
0.0
0
LINE
8
TOP
10
1.912500
20
2.148873
30
0.0
11
2.025000
21
2.148625
31
0.0
0
LINE
8
TOP
10
2.025000
20
2.148625
30
0.0
11
2.137500
21
2.148377
31
0.0
0
LINE
8
TOP
10
2.137500
20
2.148377
30
0.0
11
2.250000
21
2.148130
31
0.0
0
LINE
8
TOP
10
2.250000
20
2.148130
30
0.0
11
2.362500
21
2.147882
31
0.0
0
LINE
8
TOP
10
2.362500
20
2.147882
30
0.0
11
2.475000
21
2.147634
31
0.0
0
LINE
8
TOP
10
2.475000
20
2.147634
30
0.0
11
2.587500
21
2.147386
31
0.0
0
LINE
8
TOP
10
2.587500
20
2.147386
30
0.0
11
2.700000
21
2.147139
31
0.0
0
LINE
8
TOP
10
2.700000
20
2.147139
30
0.0
11
2.812500
21
2.146891
31
0.0
0
LINE
8
TOP
10
2.812500
20
2.146891
30
0.0
11
2.925000
21
2.146643
31
0.0
0
LINE
8
TOP
10
2.925000
20
2.146643
30
0.0
11
3.037500
21
2.146395
31
0.0
0
LINE
8
TOP
10
3.037500
20
2.146395
30
0.0
11
3.150000
21
2.146148
31
0.0
0
LINE
8
TOP
10
3.150000
20
2.146148
30
0.0
11
3.262500
21
2.145900
31
0.0
0
LINE
8
TOP
10
3.262500
20
2.145900
30
0.0
11
3.375000
21
2.145652
31
0.0
0
LINE
8
TOP
10
3.375000
20
2.145652
30
0.0
11
3.487500
21
2.145404
31
0.0
0
LINE
8
TOP
10
3.487500
20
2.145404
30
0.0
11
3.600000
21
2.145157
31
0.0
0
LINE
8
TOP
10
3.600000
20
2.145157
30
0.0
11
3.712500
21
2.144909
31
0.0
0
LINE
8
TOP
10
3.712500
20
2.144909
30
0.0
11
3.825000
21
2.144661
31
0.0
0
LINE
8
TOP
10
3.825000
20
2.144661
30
0.0
11
3.937500
21
2.144413
31
0.0
0
LINE
8
TOP
10
3.937500
20
2.144413
30
0.0
11
4.050000
21
2.144166
31
0.0
0
LINE
8
TOP
10
4.050000
20
2.144166
30
0.0
11
4.162500
21
2.143918
31
0.0
0
LINE
8
TOP
10
4.162500
20
2.143918
30
0.0
11
4.275000
21
2.143670
31
0.0
0
LINE
8
TOP
10
4.275000
20
2.143670
30
0.0
11
4.387500
21
2.143422
31
0.0
0
LINE
8
TOP
10
4.387500
20
2.143422
30
0.0
11
4.500000
21
2.143175
31
0.0
0
LINE
8
TOP
10
4.500000
20
2.143175
30
0.0
11
4.612500
21
2.144127
31
0.0
0
LINE
8
TOP
10
4.612500
20
2.144127
30
0.0
11
4.725000
21
2.145079
31
0.0
0
LINE
8
TOP
10
4.725000
20
2.145079
30
0.0
11
4.837500
21
2.146032
31
0.0
0
LINE
8
TOP
10
4.837500
20
2.146032
30
0.0
11
4.950000
21
2.146984
31
0.0
0
LINE
8
TOP
10
4.950000
20
2.146984
30
0.0
11
5.062500
21
2.147936
31
0.0
0
LINE
8
TOP
10
5.062500
20
2.147936
30
0.0
11
5.175000
21
2.148889
31
0.0
0
LINE
8
TOP
10
5.175000
20
2.148889
30
0.0
11
5.287500
21
2.149841
31
0.0
0
LINE
8
TOP
10
5.287500
20
2.149841
30
0.0
11
5.400000
21
2.150793
31
0.0
0
LINE
8
TOP
10
5.400000
20
2.150793
30
0.0
11
5.512500
21
2.151746
31
0.0
0
LINE
8
TOP
10
5.512500
20
2.151746
30
0.0
11
5.625000
21
2.152698
31
0.0
0
LINE
8
TOP
10
5.625000
20
2.152698
30
0.0
11
5.737500
21
2.153650
31
0.0
0
LINE
8
TOP
10
5.737500
20
2.153650
30
0.0
11
5.850000
21
2.154603
31
0.0
0
LINE
8
TOP
10
5.850000
20
2.154603
30
0.0
11
5.962500
21
2.155555
31
0.0
0
LINE
8
TOP
10
5.962500
20
2.155555
30
0.0
11
6.075000
21
2.156508
31
0.0
0
LINE
8
TOP
10
6.075000
20
2.156508
30
0.0
11
6.187500
21
2.157460
31
0.0
0
LINE
8
TOP
10
6.187500
20
2.157460
30
0.0
11
6.300000
21
2.158412
31
0.0
0
LINE
8
TOP
10
6.300000
20
2.158412
30
0.0
11
6.412500
21
2.159365
31
0.0
0
LINE
8
TOP
10
6.412500
20
2.159365
30
0.0
11
6.525000
21
2.160317
31
0.0
0
LINE
8
TOP
10
6.525000
20
2.160317
30
0.0
11
6.637500
21
2.161269
31
0.0
0
LINE
8
TOP
10
6.637500
20
2.161269
30
0.0
11
6.750000
21
2.162222
31
0.0
0
LINE
8
TOP
10
6.750000
20
2.162222
30
0.0
11
6.862500
21
2.163174
31
0.0
0
LINE
8
TOP
10
6.862500
20
2.163174
30
0.0
11
6.975000
21
2.164126
31
0.0
0
LINE
8
TOP
10
6.975000
20
2.164126
30
0.0
11
7.087500
21
2.165079
31
0.0
0
LINE
8
TOP
10
7.087500
20
2.165079
30
0.0
11
7.200000
21
2.166031
31
0.0
0
LINE
8
TOP
10
7.200000
20
2.166031
30
0.0
11
7.312500
21
2.166984
31
0.0
0
LINE
8
TOP
10
7.312500
20
2.166984
30
0.0
11
7.425000
21
2.167936
31
0.0
0
LINE
8
TOP
10
7.425000
20
2.167936
30
0.0
11
7.537500
21
2.168888
31
0.0
0
LINE
8
TOP
10
7.537500
20
2.168888
30
0.0
11
7.650000
21
2.169841
31
0.0
0
LINE
8
TOP
10
7.650000
20
2.169841
30
0.0
11
7.762500
21
2.170793
31
0.0
0
LINE
8
TOP
10
7.762500
20
2.170793
30
0.0
11
7.875000
21
2.171745
31
0.0
0
LINE
8
TOP
10
7.875000
20
2.171745
30
0.0
11
7.987500
21
2.172698
31
0.0
0
LINE
8
TOP
10
7.987500
20
2.172698
30
0.0
11
8.100000
21
2.173650
31
0.0
0
LINE
8
TOP
10
8.100000
20
2.173650
30
0.0
11
8.212500
21
2.174602
31
0.0
0
LINE
8
TOP
10
8.212500
20
2.174602
30
0.0
11
8.325000
21
2.175555
31
0.0
0
LINE
8
TOP
10
8.325000
20
2.175555
30
0.0
11
8.437500
21
2.176507
31
0.0
0
LINE
8
TOP
10
8.437500
20
2.176507
30
0.0
11
8.500000
21
2.177036
31
0.0
0
LINE
8
TOP
10
8.500000
20
2.177036
30
0.0
11
8.550000
21
2.177459
31
0.0
0
LINE
8
TOP
10
8.550000
20
2.177459
30
0.0
11
8.662500
21
2.178412
31
0.0
0
LINE
8
TOP
10
8.662500
20
2.178412
30
0.0
11
8.775000
21
2.179364
31
0.0
0
LINE
8
TOP
10
8.775000
20
2.179364
30
0.0
11
8.887500
21
2.180317
31
0.0
0
LINE
8
TOP
10
8.887500
20
2.180317
30
0.0
11
9.000000
21
2.181269
31
0.0
0
LINE
8
TOP
10
0.000000
20
2.464906
30
0.0
11
0.000000
21
2.153084
31
0.0
0
LINE
8
TOP
10
9.000000
20
2.436722
30
0.0
11
9.000000
21
2.181269
31
0.0
0
LINE
8
SECTION
10
10.334179
20
-0.342068
30
0.0
11
10.665821
21
-0.342068
31
0.0
0
LINE
8
SECTION
10
10.665821
20
-0.342068
30
0.0
11
10.665821
21
0.342068
31
0.0
0
LINE
8
SECTION
10
10.665821
20
0.342068
30
0.0
11
10.334179
21
0.342068
31
0.0
0
LINE
8
SECTION
10
10.334179
20
0.342068
30
0.0
11
10.334179
21
-0.342068
31
0.0
0
LINE
8
SECTION
10
10.397267
20
-0.278980
30
0.0
11
10.602733
21
-0.278980
31
0.0
0
LINE
8
SECTION
10
10.602733
20
-0.278980
30
0.0
11
10.602733
21
0.278980
31
0.0
0
LINE
8
SECTION
10
10.602733
20
0.278980
30
0.0
11
10.397267
21
0.278980
31
0.0
0
LINE
8
SECTION
10
10.397267
20
0.278980
30
0.0
11
10.397267
21
-0.278980
31
0.0
0
LINE
8
SECTION
10
10.397267
20
0.000000
30
0.0
11
10.460355
21
0.000000
31
0.0
0
LINE
8
SECTION
10
10.460355
20
0.000000
30
0.0
11
10.460355
21
0.278980
31
0.0
0
LINE
8
SECTION
10
10.460355
20
0.278980
30
0.0
11
10.397267
21
0.278980
31
0.0
0
LINE
8
SECTION
10
10.397267
20
0.278980
30
0.0
11
10.397267
21
0.000000
31
0.0
0
LINE
8
SECTION
10
10.397267
20
-0.278980
30
0.0
11
10.460355
21
-0.278980
31
0.0
0
LINE
8
SECTION
10
10.460355
20
-0.278980
30
0.0
11
10.460355
21
0.000000
31
0.0
0
LINE
8
SECTION
10
10.460355
20
0.000000
30
0.0
11
10.397267
21
0.000000
31
0.0
0
LINE
8
SECTION
10
10.397267
20
0.000000
30
0.0
11
10.397267
21
-0.278980
31
0.0
0
LINE
8
SECTION
10
10.539645
20
0.000000
30
0.0
11
10.602733
21
0.000000
31
0.0
0
LINE
8
SECTION
10
10.602733
20
0.000000
30
0.0
11
10.602733
21
0.278980
31
0.0
0
LINE
8
SECTION
10
10.602733
20
0.278980
30
0.0
11
10.539645
21
0.278980
31
0.0
0
LINE
8
SECTION
10
10.539645
20
0.278980
30
0.0
11
10.539645
21
0.000000
31
0.0
0
LINE
8
SECTION
10
10.539645
20
-0.278980
30
0.0
11
10.602733
21
-0.278980
31
0.0
0
LINE
8
SECTION
10
10.602733
20
-0.278980
30
0.0
11
10.602733
21
0.000000
31
0.0
0
LINE
8
SECTION
10
10.602733
20
0.000000
30
0.0
11
10.539645
21
0.000000
31
0.0
0
LINE
8
SECTION
10
10.539645
20
0.000000
30
0.0
11
10.539645
21
-0.278980
31
0.0
0
ENDSEC
0
EOF
