0
SECTION
2
HEADER
9
$INSUNITS
70
1
0
ENDSEC
0
SECTION
2
ENTITIES
0
LINE
8
FRONT
10
0.000000
20
0.240000
30
0.0
11
0.112500
21
0.241790
31
0.0
0
LINE
8
FRONT
10
0.112500
20
0.241790
30
0.0
11
0.225000
21
0.243581
31
0.0
0
LINE
8
FRONT
10
0.225000
20
0.243581
30
0.0
11
0.337500
21
0.245371
31
0.0
0
LINE
8
FRONT
10
0.337500
20
0.245371
30
0.0
11
0.450000
21
0.247162
31
0.0
0
LINE
8
FRONT
10
0.450000
20
0.247162
30
0.0
11
0.500000
21
0.247958
31
0.0
0
LINE
8
FRONT
10
0.500000
20
0.247958
30
0.0
11
0.562500
21
0.248952
31
0.0
0
LINE
8
FRONT
10
0.562500
20
0.248952
30
0.0
11
0.675000
21
0.250743
31
0.0
0
LINE
8
FRONT
10
0.675000
20
0.250743
30
0.0
11
0.787500
21
0.252533
31
0.0
0
LINE
8
FRONT
10
0.787500
20
0.252533
30
0.0
11
0.900000
21
0.254324
31
0.0
0
LINE
8
FRONT
10
0.900000
20
0.254324
30
0.0
11
1.012500
21
0.256114
31
0.0
0
LINE
8
FRONT
10
1.012500
20
0.256114
30
0.0
11
1.125000
21
0.257905
31
0.0
0
LINE
8
FRONT
10
1.125000
20
0.257905
30
0.0
11
1.237500
21
0.259695
31
0.0
0
LINE
8
FRONT
10
1.237500
20
0.259695
30
0.0
11
1.350000
21
0.261486
31
0.0
0
LINE
8
FRONT
10
1.350000
20
0.261486
30
0.0
11
1.462500
21
0.263276
31
0.0
0
LINE
8
FRONT
10
1.462500
20
0.263276
30
0.0
11
1.575000
21
0.265067
31
0.0
0
LINE
8
FRONT
10
1.575000
20
0.265067
30
0.0
11
1.687500
21
0.266857
31
0.0
0
LINE
8
FRONT
10
1.687500
20
0.266857
30
0.0
11
1.800000
21
0.268648
31
0.0
0
LINE
8
FRONT
10
1.800000
20
0.268648
30
0.0
11
1.912500
21
0.270438
31
0.0
0
LINE
8
FRONT
10
1.912500
20
0.270438
30
0.0
11
2.025000
21
0.272229
31
0.0
0
LINE
8
FRONT
10
2.025000
20
0.272229
30
0.0
11
2.137500
21
0.274019
31
0.0
0
LINE
8
FRONT
10
2.137500
20
0.274019
30
0.0
11
2.250000
21
0.275810
31
0.0
0
LINE
8
FRONT
10
2.250000
20
0.275810
30
0.0
11
2.362500
21
0.277600
31
0.0
0
LINE
8
FRONT
10
2.362500
20
0.277600
30
0.0
11
2.475000
21
0.279391
31
0.0
0
LINE
8
FRONT
10
2.475000
20
0.279391
30
0.0
11
2.587500
21
0.281181
31
0.0
0
LINE
8
FRONT
10
2.587500
20
0.281181
30
0.0
11
2.700000
21
0.282972
31
0.0
0
LINE
8
FRONT
10
2.700000
20
0.282972
30
0.0
11
2.812500
21
0.284762
31
0.0
0
LINE
8
FRONT
10
2.812500
20
0.284762
30
0.0
11
2.925000
21
0.286553
31
0.0
0
LINE
8
FRONT
10
2.925000
20
0.286553
30
0.0
11
3.037500
21
0.288343
31
0.0
0
LINE
8
FRONT
10
3.037500
20
0.288343
30
0.0
11
3.150000
21
0.290134
31
0.0
0
LINE
8
FRONT
10
3.150000
20
0.290134
30
0.0
11
3.262500
21
0.291924
31
0.0
0
LINE
8
FRONT
10
3.262500
20
0.291924
30
0.0
11
3.375000
21
0.293715
31
0.0
0
LINE
8
FRONT
10
3.375000
20
0.293715
30
0.0
11
3.487500
21
0.295505
31
0.0
0
LINE
8
FRONT
10
3.487500
20
0.295505
30
0.0
11
3.600000
21
0.297296
31
0.0
0
LINE
8
FRONT
10
3.600000
20
0.297296
30
0.0
11
3.712500
21
0.299086
31
0.0
0
LINE
8
FRONT
10
3.712500
20
0.299086
30
0.0
11
3.825000
21
0.300877
31
0.0
0
LINE
8
FRONT
10
3.825000
20
0.300877
30
0.0
11
3.937500
21
0.302667
31
0.0
0
LINE
8
FRONT
10
3.937500
20
0.302667
30
0.0
11
4.050000
21
0.304458
31
0.0
0
LINE
8
FRONT
10
4.050000
20
0.304458
30
0.0
11
4.162500
21
0.306248
31
0.0
0
LINE
8
FRONT
10
4.162500
20
0.306248
30
0.0
11
4.275000
21
0.308038
31
0.0
0
LINE
8
FRONT
10
4.275000
20
0.308038
30
0.0
11
4.387500
21
0.309829
31
0.0
0
LINE
8
FRONT
10
4.387500
20
0.309829
30
0.0
11
4.500000
21
0.311619
31
0.0
0
LINE
8
FRONT
10
4.500000
20
0.311619
30
0.0
11
4.612500
21
0.311678
31
0.0
0
LINE
8
FRONT
10
4.612500
20
0.311678
30
0.0
11
4.725000
21
0.311736
31
0.0
0
LINE
8
FRONT
10
4.725000
20
0.311736
30
0.0
11
4.837500
21
0.311794
31
0.0
0
LINE
8
FRONT
10
4.837500
20
0.311794
30
0.0
11
4.950000
21
0.311852
31
0.0
0
LINE
8
FRONT
10
4.950000
20
0.311852
30
0.0
11
5.062500
21
0.311910
31
0.0
0
LINE
8
FRONT
10
5.062500
20
0.311910
30
0.0
11
5.175000
21
0.311968
31
0.0
0
LINE
8
FRONT
10
5.175000
20
0.311968
30
0.0
11
5.287500
21
0.312026
31
0.0
0
LINE
8
FRONT
10
5.287500
20
0.312026
30
0.0
11
5.400000
21
0.312084
31
0.0
0
LINE
8
FRONT
10
5.400000
20
0.312084
30
0.0
11
5.512500
21
0.312142
31
0.0
0
LINE
8
FRONT
10
5.512500
20
0.312142
30
0.0
11
5.625000
21
0.312200
31
0.0
0
LINE
8
FRONT
10
5.625000
20
0.312200
30
0.0
11
5.737500
21
0.312259
31
0.0
0
LINE
8
FRONT
10
5.737500
20
0.312259
30
0.0
11
5.850000
21
0.312317
31
0.0
0
LINE
8
FRONT
10
5.850000
20
0.312317
30
0.0
11
5.962500
21
0.312375
31
0.0
0
LINE
8
FRONT
10
5.962500
20
0.312375
30
0.0
11
6.075000
21
0.312433
31
0.0
0
LINE
8
FRONT
10
6.075000
20
0.312433
30
0.0
11
6.187500
21
0.312491
31
0.0
0
LINE
8
FRONT
10
6.187500
20
0.312491
30
0.0
11
6.300000
21
0.312549
31
0.0
0
LINE
8
FRONT
10
6.300000
20
0.312549
30
0.0
11
6.412500
21
0.312607
31
0.0
0
LINE
8
FRONT
10
6.412500
20
0.312607
30
0.0
11
6.525000
21
0.312665
31
0.0
0
LINE
8
FRONT
10
6.525000
20
0.312665
30
0.0
11
6.637500
21
0.312723
31
0.0
0
LINE
8
FRONT
10
6.637500
20
0.312723
30
0.0
11
6.750000
21
0.312781
31
0.0
0
LINE
8
FRONT
10
6.750000
20
0.312781
30
0.0
11
6.862500
21
0.312840
31
0.0
0
LINE
8
FRONT
10
6.862500
20
0.312840
30
0.0
11
6.975000
21
0.312898
31
0.0
0
LINE
8
FRONT
10
6.975000
20
0.312898
30
0.0
11
7.087500
21
0.312956
31
0.0
0
LINE
8
FRONT
10
7.087500
20
0.312956
30
0.0
11
7.200000
21
0.313014
31
0.0
0
LINE
8
FRONT
10
7.200000
20
0.313014
30
0.0
11
7.312500
21
0.313072
31
0.0
0
LINE
8
FRONT
10
7.312500
20
0.313072
30
0.0
11
7.425000
21
0.313130
31
0.0
0
LINE
8
FRONT
10
7.425000
20
0.313130
30
0.0
11
7.537500
21
0.313188
31
0.0
0
LINE
8
FRONT
10
7.537500
20
0.313188
30
0.0
11
7.650000
21
0.313246
31
0.0
0
LINE
8
FRONT
10
7.650000
20
0.313246
30
0.0
11
7.762500
21
0.313304
31
0.0
0
LINE
8
FRONT
10
7.762500
20
0.313304
30
0.0
11
7.875000
21
0.313362
31
0.0
0
LINE
8
FRONT
10
7.875000
20
0.313362
30
0.0
11
7.987500
21
0.313421
31
0.0
0
LINE
8
FRONT
10
7.987500
20
0.313421
30
0.0
11
8.100000
21
0.313479
31
0.0
0
LINE
8
FRONT
10
8.100000
20
0.313479
30
0.0
11
8.212500
21
0.313537
31
0.0
0
LINE
8
FRONT
10
8.212500
20
0.313537
30
0.0
11
8.325000
21
0.313595
31
0.0
0
LINE
8
FRONT
10
8.325000
20
0.313595
30
0.0
11
8.437500
21
0.313653
31
0.0
0
LINE
8
FRONT
10
8.437500
20
0.313653
30
0.0
11
8.500000
21
0.313685
31
0.0
0
LINE
8
FRONT
10
8.500000
20
0.313685
30
0.0
11
8.550000
21
0.313711
31
0.0
0
LINE
8
FRONT
10
8.550000
20
0.313711
30
0.0
11
8.662500
21
0.313769
31
0.0
0
LINE
8
FRONT
10
8.662500
20
0.313769
30
0.0
11
8.775000
21
0.313827
31
0.0
0
LINE
8
FRONT
10
8.775000
20
0.313827
30
0.0
11
8.887500
21
0.313885
31
0.0
0
LINE
8
FRONT
10
8.887500
20
0.313885
30
0.0
11
9.000000
21
0.313943
31
0.0
0
LINE
8
FRONT
10
0.000000
20
-0.240000
30
0.0
11
0.112500
21
-0.241790
31
0.0
0
LINE
8
FRONT
10
0.112500
20
-0.241790
30
0.0
11
0.225000
21
-0.243581
31
0.0
0
LINE
8
FRONT
10
0.225000
20
-0.243581
30
0.0
11
0.337500
21
-0.245371
31
0.0
0
LINE
8
FRONT
10
0.337500
20
-0.245371
30
0.0
11
0.450000
21
-0.247162
31
0.0
0
LINE
8
FRONT
10
0.450000
20
-0.247162
30
0.0
11
0.500000
21
-0.247958
31
0.0
0
LINE
8
FRONT
10
0.500000
20
-0.247958
30
0.0
11
0.562500
21
-0.248952
31
0.0
0
LINE
8
FRONT
10
0.562500
20
-0.248952
30
0.0
11
0.675000
21
-0.250743
31
0.0
0
LINE
8
FRONT
10
0.675000
20
-0.250743
30
0.0
11
0.787500
21
-0.252533
31
0.0
0
LINE
8
FRONT
10
0.787500
20
-0.252533
30
0.0
11
0.900000
21
-0.254324
31
0.0
0
LINE
8
FRONT
10
0.900000
20
-0.254324
30
0.0
11
1.012500
21
-0.256114
31
0.0
0
LINE
8
FRONT
10
1.012500
20
-0.256114
30
0.0
11
1.125000
21
-0.257905
31
0.0
0
LINE
8
FRONT
10
1.125000
20
-0.257905
30
0.0
11
1.237500
21
-0.259695
31
0.0
0
LINE
8
FRONT
10
1.237500
20
-0.259695
30
0.0
11
1.350000
21
-0.261486
31
0.0
0
LINE
8
FRONT
10
1.350000
20
-0.261486
30
0.0
11
1.462500
21
-0.263276
31
0.0
0
LINE
8
FRONT
10
1.462500
20
-0.263276
30
0.0
11
1.575000
21
-0.265067
31
0.0
0
LINE
8
FRONT
10
1.575000
20
-0.265067
30
0.0
11
1.687500
21
-0.266857
31
0.0
0
LINE
8
FRONT
10
1.687500
20
-0.266857
30
0.0
11
1.800000
21
-0.268648
31
0.0
0
LINE
8
FRONT
10
1.800000
20
-0.268648
30
0.0
11
1.912500
21
-0.270438
31
0.0
0
LINE
8
FRONT
10
1.912500
20
-0.270438
30
0.0
11
2.025000
21
-0.272229
31
0.0
0
LINE
8
FRONT
10
2.025000
20
-0.272229
30
0.0
11
2.137500
21
-0.274019
31
0.0
0
LINE
8
FRONT
10
2.137500
20
-0.274019
30
0.0
11
2.250000
21
-0.275810
31
0.0
0
LINE
8
FRONT
10
2.250000
20
-0.275810
30
0.0
11
2.362500
21
-0.277600
31
0.0
0
LINE
8
FRONT
10
2.362500
20
-0.277600
30
0.0
11
2.475000
21
-0.279391
31
0.0
0
LINE
8
FRONT
10
2.475000
20
-0.279391
30
0.0
11
2.587500
21
-0.281181
31
0.0
0
LINE
8
FRONT
10
2.587500
20
-0.281181
30
0.0
11
2.700000
21
-0.282972
31
0.0
0
LINE
8
FRONT
10
2.700000
20
-0.282972
30
0.0
11
2.812500
21
-0.284762
31
0.0
0
LINE
8
FRONT
10
2.812500
20
-0.284762
30
0.0
11
2.925000
21
-0.286553
31
0.0
0
LINE
8
FRONT
10
2.925000
20
-0.286553
30
0.0
11
3.037500
21
-0.288343
31
0.0
0
LINE
8
FRONT
10
3.037500
20
-0.288343
30
0.0
11
3.150000
21
-0.290134
31
0.0
0
LINE
8
FRONT
10
3.150000
20
-0.290134
30
0.0
11
3.262500
21
-0.291924
31
0.0
0
LINE
8
FRONT
10
3.262500
20
-0.291924
30
0.0
11
3.375000
21
-0.293715
31
0.0
0
LINE
8
FRONT
10
3.375000
20
-0.293715
30
0.0
11
3.487500
21
-0.295505
31
0.0
0
LINE
8
FRONT
10
3.487500
20
-0.295505
30
0.0
11
3.600000
21
-0.297296
31
0.0
0
LINE
8
FRONT
10
3.600000
20
-0.297296
30
0.0
11
3.712500
21
-0.299086
31
0.0
0
LINE
8
FRONT
10
3.712500
20
-0.299086
30
0.0
11
3.825000
21
-0.300877
31
0.0
0
LINE
8
FRONT
10
3.825000
20
-0.300877
30
0.0
11
3.937500
21
-0.302667
31
0.0
0
LINE
8
FRONT
10
3.937500
20
-0.302667
30
0.0
11
4.050000
21
-0.304458
31
0.0
0
LINE
8
FRONT
10
4.050000
20
-0.304458
30
0.0
11
4.162500
21
-0.306248
31
0.0
0
LINE
8
FRONT
10
4.162500
20
-0.306248
30
0.0
11
4.275000
21
-0.308038
31
0.0
0
LINE
8
FRONT
10
4.275000
20
-0.308038
30
0.0
11
4.387500
21
-0.309829
31
0.0
0
LINE
8
FRONT
10
4.387500
20
-0.309829
30
0.0
11
4.500000
21
-0.311619
31
0.0
0
LINE
8
FRONT
10
4.500000
20
-0.311619
30
0.0
11
4.612500
21
-0.311678
31
0.0
0
LINE
8
FRONT
10
4.612500
20
-0.311678
30
0.0
11
4.725000
21
-0.311736
31
0.0
0
LINE
8
FRONT
10
4.725000
20
-0.311736
30
0.0
11
4.837500
21
-0.311794
31
0.0
0
LINE
8
FRONT
10
4.837500
20
-0.311794
30
0.0
11
4.950000
21
-0.311852
31
0.0
0
LINE
8
FRONT
10
4.950000
20
-0.311852
30
0.0
11
5.062500
21
-0.311910
31
0.0
0
LINE
8
FRONT
10
5.062500
20
-0.311910
30
0.0
11
5.175000
21
-0.311968
31
0.0
0
LINE
8
FRONT
10
5.175000
20
-0.311968
30
0.0
11
5.287500
21
-0.312026
31
0.0
0
LINE
8
FRONT
10
5.287500
20
-0.312026
30
0.0
11
5.400000
21
-0.312084
31
0.0
0
LINE
8
FRONT
10
5.400000
20
-0.312084
30
0.0
11
5.512500
21
-0.312142
31
0.0
0
LINE
8
FRONT
10
5.512500
20
-0.312142
30
0.0
11
5.625000
21
-0.312200
31
0.0
0
LINE
8
FRONT
10
5.625000
20
-0.312200
30
0.0
11
5.737500
21
-0.312259
31
0.0
0
LINE
8
FRONT
10
5.737500
20
-0.312259
30
0.0
11
5.850000
21
-0.312317
31
0.0
0
LINE
8
FRONT
10
5.850000
20
-0.312317
30
0.0
11
5.962500
21
-0.312375
31
0.0
0
LINE
8
FRONT
10
5.962500
20
-0.312375
30
0.0
11
6.075000
21
-0.312433
31
0.0
0
LINE
8
FRONT
10
6.075000
20
-0.312433
30
0.0
11
6.187500
21
-0.312491
31
0.0
0
LINE
8
FRONT
10
6.187500
20
-0.312491
30
0.0
11
6.300000
21
-0.312549
31
0.0
0
LINE
8
FRONT
10
6.300000
20
-0.312549
30
0.0
11
6.412500
21
-0.312607
31
0.0
0
LINE
8
FRONT
10
6.412500
20
-0.312607
30
0.0
11
6.525000
21
-0.312665
31
0.0
0
LINE
8
FRONT
10
6.525000
20
-0.312665
30
0.0
11
6.637500
21
-0.312723
31
0.0
0
LINE
8
FRONT
10
6.637500
20
-0.312723
30
0.0
11
6.750000
21
-0.312781
31
0.0
0
LINE
8
FRONT
10
6.750000
20
-0.312781
30
0.0
11
6.862500
21
-0.312840
31
0.0
0
LINE
8
FRONT
10
6.862500
20
-0.312840
30
0.0
11
6.975000
21
-0.312898
31
0.0
0
LINE
8
FRONT
10
6.975000
20
-0.312898
30
0.0
11
7.087500
21
-0.312956
31
0.0
0
LINE
8
FRONT
10
7.087500
20
-0.312956
30
0.0
11
7.200000
21
-0.313014
31
0.0
0
LINE
8
FRONT
10
7.200000
20
-0.313014
30
0.0
11
7.312500
21
-0.313072
31
0.0
0
LINE
8
FRONT
10
7.312500
20
-0.313072
30
0.0
11
7.425000
21
-0.313130
31
0.0
0
LINE
8
FRONT
10
7.425000
20
-0.313130
30
0.0
11
7.537500
21
-0.313188
31
0.0
0
LINE
8
FRONT
10
7.537500
20
-0.313188
30
0.0
11
7.650000
21
-0.313246
31
0.0
0
LINE
8
FRONT
10
7.650000
20
-0.313246
30
0.0
11
7.762500
21
-0.313304
31
0.0
0
LINE
8
FRONT
10
7.762500
20
-0.313304
30
0.0
11
7.875000
21
-0.313362
31
0.0
0
LINE
8
FRONT
10
7.875000
20
-0.313362
30
0.0
11
7.987500
21
-0.313421
31
0.0
0
LINE
8
FRONT
10
7.987500
20
-0.313421
30
0.0
11
8.100000
21
-0.313479
31
0.0
0
LINE
8
FRONT
10
8.100000
20
-0.313479
30
0.0
11
8.212500
21
-0.313537
31
0.0
0
LINE
8
FRONT
10
8.212500
20
-0.313537
30
0.0
11
8.325000
21
-0.313595
31
0.0
0
LINE
8
FRONT
10
8.325000
20
-0.313595
30
0.0
11
8.437500
21
-0.313653
31
0.0
0
LINE
8
FRONT
10
8.437500
20
-0.313653
30
0.0
11
8.500000
21
-0.313685
31
0.0
0
LINE
8
FRONT
10
8.500000
20
-0.313685
30
0.0
11
8.550000
21
-0.313711
31
0.0
0
LINE
8
FRONT
10
8.550000
20
-0.313711
30
0.0
11
8.662500
21
-0.313769
31
0.0
0
LINE
8
FRONT
10
8.662500
20
-0.313769
30
0.0
11
8.775000
21
-0.313827
31
0.0
0
LINE
8
FRONT
10
8.775000
20
-0.313827
30
0.0
11
8.887500
21
-0.313885
31
0.0
0
LINE
8
FRONT
10
8.887500
20
-0.313885
30
0.0
11
9.000000
21
-0.313943
31
0.0
0
LINE
8
FRONT
10
0.000000
20
0.240000
30
0.0
11
0.000000
21
-0.240000
31
0.0
0
LINE
8
FRONT
10
9.000000
20
0.313943
30
0.0
11
9.000000
21
-0.313943
31
0.0
0
LINE
8
TOP
10
0.000000
20
1.875700
30
0.0
11
0.112500
21
1.875300
31
0.0
0
LINE
8
TOP
10
0.112500
20
1.875300
30
0.0
11
0.225000
21
1.874900
31
0.0
0
LINE
8
TOP
10
0.225000
20
1.874900
30
0.0
11
0.337500
21
1.874500
31
0.0
0
LINE
8
TOP
10
0.337500
20
1.874500
30
0.0
11
0.450000
21
1.874100
31
0.0
0
LINE
8
TOP
10
0.450000
20
1.874100
30
0.0
11
0.500000
21
1.873923
31
0.0
0
LINE
8
TOP
10
0.500000
20
1.873923
30
0.0
11
0.562500
21
1.873700
31
0.0
0
LINE
8
TOP
10
0.562500
20
1.873700
30
0.0
11
0.675000
21
1.873301
31
0.0
0
LINE
8
TOP
10
0.675000
20
1.873301
30
0.0
11
0.787500
21
1.872901
31
0.0
0
LINE
8
TOP
10
0.787500
20
1.872901
30
0.0
11
0.900000
21
1.872501
31
0.0
0
LINE
8
TOP
10
0.900000
20
1.872501
30
0.0
11
1.012500
21
1.872101
31
0.0
0
LINE
8
TOP
10
1.012500
20
1.872101
30
0.0
11
1.125000
21
1.871701
31
0.0
0
LINE
8
TOP
10
1.125000
20
1.871701
30
0.0
11
1.237500
21
1.871301
31
0.0
0
LINE
8
TOP
10
1.237500
20
1.871301
30
0.0
11
1.350000
21
1.870902
31
0.0
0
LINE
8
TOP
10
1.350000
20
1.870902
30
0.0
11
1.462500
21
1.870502
31
0.0
0
LINE
8
TOP
10
1.462500
20
1.870502
30
0.0
11
1.575000
21
1.870102
31
0.0
0
LINE
8
TOP
10
1.575000
20
1.870102
30
0.0
11
1.687500
21
1.869702
31
0.0
0
LINE
8
TOP
10
1.687500
20
1.869702
30
0.0
11
1.800000
21
1.869302
31
0.0
0
LINE
8
TOP
10
1.800000
20
1.869302
30
0.0
11
1.912500
21
1.868902
31
0.0
0
LINE
8
TOP
10
1.912500
20
1.868902
30
0.0
11
2.025000
21
1.868503
31
0.0
0
LINE
8
TOP
10
2.025000
20
1.868503
30
0.0
11
2.137500
21
1.868103
31
0.0
0
LINE
8
TOP
10
2.137500
20
1.868103
30
0.0
11
2.250000
21
1.867703
31
0.0
0
LINE
8
TOP
10
2.250000
20
1.867703
30
0.0
11
2.362500
21
1.867303
31
0.0
0
LINE
8
TOP
10
2.362500
20
1.867303
30
0.0
11
2.475000
21
1.866903
31
0.0
0
LINE
8
TOP
10
2.475000
20
1.866903
30
0.0
11
2.587500
21
1.866503
31
0.0
0
LINE
8
TOP
10
2.587500
20
1.866503
30
0.0
11
2.700000
21
1.866103
31
0.0
0
LINE
8
TOP
10
2.700000
20
1.866103
30
0.0
11
2.812500
21
1.865704
31
0.0
0
LINE
8
TOP
10
2.812500
20
1.865704
30
0.0
11
2.925000
21
1.865304
31
0.0
0
LINE
8
TOP
10
2.925000
20
1.865304
30
0.0
11
3.037500
21
1.864904
31
0.0
0
LINE
8
TOP
10
3.037500
20
1.864904
30
0.0
11
3.150000
21
1.864504
31
0.0
0
LINE
8
TOP
10
3.150000
20
1.864504
30
0.0
11
3.262500
21
1.864104
31
0.0
0
LINE
8
TOP
10
3.262500
20
1.864104
30
0.0
11
3.375000
21
1.863704
31
0.0
0
LINE
8
TOP
10
3.375000
20
1.863704
30
0.0
11
3.487500
21
1.863305
31
0.0
0
LINE
8
TOP
10
3.487500
20
1.863305
30
0.0
11
3.600000
21
1.862905
31
0.0
0
LINE
8
TOP
10
3.600000
20
1.862905
30
0.0
11
3.712500
21
1.862505
31
0.0
0
LINE
8
TOP
10
3.712500
20
1.862505
30
0.0
11
3.825000
21
1.862105
31
0.0
0
LINE
8
TOP
10
3.825000
20
1.862105
30
0.0
11
3.937500
21
1.861705
31
0.0
0
LINE
8
TOP
10
3.937500
20
1.861705
30
0.0
11
4.050000
21
1.861305
31
0.0
0
LINE
8
TOP
10
4.050000
20
1.861305
30
0.0
11
4.162500
21
1.860906
31
0.0
0
LINE
8
TOP
10
4.162500
20
1.860906
30
0.0
11
4.275000
21
1.860506
31
0.0
0
LINE
8
TOP
10
4.275000
20
1.860506
30
0.0
11
4.387500
21
1.860106
31
0.0
0
LINE
8
TOP
10
4.387500
20
1.860106
30
0.0
11
4.500000
21
1.859706
31
0.0
0
LINE
8
TOP
10
4.500000
20
1.859706
30
0.0
11
4.612500
21
1.859970
31
0.0
0
LINE
8
TOP
10
4.612500
20
1.859970
30
0.0
11
4.725000
21
1.860233
31
0.0
0
LINE
8
TOP
10
4.725000
20
1.860233
30
0.0
11
4.837500
21
1.860497
31
0.0
0
LINE
8
TOP
10
4.837500
20
1.860497
30
0.0
11
4.950000
21
1.860761
31
0.0
0
LINE
8
TOP
10
4.950000
20
1.860761
30
0.0
11
5.062500
21
1.861024
31
0.0
0
LINE
8
TOP
10
5.062500
20
1.861024
30
0.0
11
5.175000
21
1.861288
31
0.0
0
LINE
8
TOP
10
5.175000
20
1.861288
30
0.0
11
5.287500
21
1.861551
31
0.0
0
LINE
8
TOP
10
5.287500
20
1.861551
30
0.0
11
5.400000
21
1.861815
31
0.0
0
LINE
8
TOP
10
5.400000
20
1.861815
30
0.0
11
5.512500
21
1.862079
31
0.0
0
LINE
8
TOP
10
5.512500
20
1.862079
30
0.0
11
5.625000
21
1.862342
31
0.0
0
LINE
8
TOP
10
5.625000
20
1.862342
30
0.0
11
5.737500
21
1.862606
31
0.0
0
LINE
8
TOP
10
5.737500
20
1.862606
30
0.0
11
5.850000
21
1.862869
31
0.0
0
LINE
8
TOP
10
5.850000
20
1.862869
30
0.0
11
5.962500
21
1.863133
31
0.0
0
LINE
8
TOP
10
5.962500
20
1.863133
30
0.0
11
6.075000
21
1.863397
31
0.0
0
LINE
8
TOP
10
6.075000
20
1.863397
30
0.0
11
6.187500
21
1.863660
31
0.0
0
LINE
8
TOP
10
6.187500
20
1.863660
30
0.0
11
6.300000
21
1.863924
31
0.0
0
LINE
8
TOP
10
6.300000
20
1.863924
30
0.0
11
6.412500
21
1.864187
31
0.0
0
LINE
8
TOP
10
6.412500
20
1.864187
30
0.0
11
6.525000
21
1.864451
31
0.0
0
LINE
8
TOP
10
6.525000
20
1.864451
30
0.0
11
6.637500
21
1.864715
31
0.0
0
LINE
8
TOP
10
6.637500
20
1.864715
30
0.0
11
6.750000
21
1.864978
31
0.0
0
LINE
8
TOP
10
6.750000
20
1.864978
30
0.0
11
6.862500
21
1.865242
31
0.0
0
LINE
8
TOP
10
6.862500
20
1.865242
30
0.0
11
6.975000
21
1.865506
31
0.0
0
LINE
8
TOP
10
6.975000
20
1.865506
30
0.0
11
7.087500
21
1.865769
31
0.0
0
LINE
8
TOP
10
7.087500
20
1.865769
30
0.0
11
7.200000
21
1.866033
31
0.0
0
LINE
8
TOP
10
7.200000
20
1.866033
30
0.0
11
7.312500
21
1.866296
31
0.0
0
LINE
8
TOP
10
7.312500
20
1.866296
30
0.0
11
7.425000
21
1.866560
31
0.0
0
LINE
8
TOP
10
7.425000
20
1.866560
30
0.0
11
7.537500
21
1.866824
31
0.0
0
LINE
8
TOP
10
7.537500
20
1.866824
30
0.0
11
7.650000
21
1.867087
31
0.0
0
LINE
8
TOP
10
7.650000
20
1.867087
30
0.0
11
7.762500
21
1.867351
31
0.0
0
LINE
8
TOP
10
7.762500
20
1.867351
30
0.0
11
7.875000
21
1.867614
31
0.0
0
LINE
8
TOP
10
7.875000
20
1.867614
30
0.0
11
7.987500
21
1.867878
31
0.0
0
LINE
8
TOP
10
7.987500
20
1.867878
30
0.0
11
8.100000
21
1.868142
31
0.0
0
LINE
8
TOP
10
8.100000
20
1.868142
30
0.0
11
8.212500
21
1.868405
31
0.0
0
LINE
8
TOP
10
8.212500
20
1.868405
30
0.0
11
8.325000
21
1.868669
31
0.0
0
LINE
8
TOP
10
8.325000
20
1.868669
30
0.0
11
8.437500
21
1.868932
31
0.0
0
LINE
8
TOP
10
8.437500
20
1.868932
30
0.0
11
8.500000
21
1.869079
31
0.0
0
LINE
8
TOP
10
8.500000
20
1.869079
30
0.0
11
8.550000
21
1.869196
31
0.0
0
LINE
8
TOP
10
8.550000
20
1.869196
30
0.0
11
8.662500
21
1.869460
31
0.0
0
LINE
8
TOP
10
8.662500
20
1.869460
30
0.0
11
8.775000
21
1.869723
31
0.0
0
LINE
8
TOP
10
8.775000
20
1.869723
30
0.0
11
8.887500
21
1.869987
31
0.0
0
LINE
8
TOP
10
8.887500
20
1.869987
30
0.0
11
9.000000
21
1.870251
31
0.0
0
LINE
8
TOP
10
0.000000
20
1.507961
30
0.0
11
0.112500
21
1.508361
31
0.0
0
LINE
8
TOP
10
0.112500
20
1.508361
30
0.0
11
0.225000
21
1.508761
31
0.0
0
LINE
8
TOP
10
0.225000
20
1.508761
30
0.0
11
0.337500
21
1.509161
31
0.0
0
LINE
8
TOP
10
0.337500
20
1.509161
30
0.0
11
0.450000
21
1.509560
31
0.0
0
LINE
8
TOP
10
0.450000
20
1.509560
30
0.0
11
0.500000
21
1.509738
31
0.0
0
LINE
8
TOP
10
0.500000
20
1.509738
30
0.0
11
0.562500
21
1.509960
31
0.0
0
LINE
8
TOP
10
0.562500
20
1.509960
30
0.0
11
0.675000
21
1.510360
31
0.0
0
LINE
8
TOP
10
0.675000
20
1.510360
30
0.0
11
0.787500
21
1.510760
31
0.0
0
LINE
8
TOP
10
0.787500
20
1.510760
30
0.0
11
0.900000
21
1.511160
31
0.0
0
LINE
8
TOP
10
0.900000
20
1.511160
30
0.0
11
1.012500
21
1.511560
31
0.0
0
LINE
8
TOP
10
1.012500
20
1.511560
30
0.0
11
1.125000
21
1.511959
31
0.0
0
LINE
8
TOP
10
1.125000
20
1.511959
30
0.0
11
1.237500
21
1.512359
31
0.0
0
LINE
8
TOP
10
1.237500
20
1.512359
30
0.0
11
1.350000
21
1.512759
31
0.0
0
LINE
8
TOP
10
1.350000
20
1.512759
30
0.0
11
1.462500
21
1.513159
31
0.0
0
LINE
8
TOP
10
1.462500
20
1.513159
30
0.0
11
1.575000
21
1.513559
31
0.0
0
LINE
8
TOP
10
1.575000
20
1.513559
30
0.0
11
1.687500
21
1.513959
31
0.0
0
LINE
8
TOP
10
1.687500
20
1.513959
30
0.0
11
1.800000
21
1.514358
31
0.0
0
LINE
8
TOP
10
1.800000
20
1.514358
30
0.0
11
1.912500
21
1.514758
31
0.0
0
LINE
8
TOP
10
1.912500
20
1.514758
30
0.0
11
2.025000
21
1.515158
31
0.0
0
LINE
8
TOP
10
2.025000
20
1.515158
30
0.0
11
2.137500
21
1.515558
31
0.0
0
LINE
8
TOP
10
2.137500
20
1.515558
30
0.0
11
2.250000
21
1.515958
31
0.0
0
LINE
8
TOP
10
2.250000
20
1.515958
30
0.0
11
2.362500
21
1.516358
31
0.0
0
LINE
8
TOP
10
2.362500
20
1.516358
30
0.0
11
2.475000
21
1.516757
31
0.0
0
LINE
8
TOP
10
2.475000
20
1.516757
30
0.0
11
2.587500
21
1.517157
31
0.0
0
LINE
8
TOP
10
2.587500
20
1.517157
30
0.0
11
2.700000
21
1.517557
31
0.0
0
LINE
8
TOP
10
2.700000
20
1.517557
30
0.0
11
2.812500
21
1.517957
31
0.0
0
LINE
8
TOP
10
2.812500
20
1.517957
30
0.0
11
2.925000
21
1.518357
31
0.0
0
LINE
8
TOP
10
2.925000
20
1.518357
30
0.0
11
3.037500
21
1.518757
31
0.0
0
LINE
8
TOP
10
3.037500
20
1.518757
30
0.0
11
3.150000
21
1.519157
31
0.0
0
LINE
8
TOP
10
3.150000
20
1.519157
30
0.0
11
3.262500
21
1.519556
31
0.0
0
LINE
8
TOP
10
3.262500
20
1.519556
30
0.0
11
3.375000
21
1.519956
31
0.0
0
LINE
8
TOP
10
3.375000
20
1.519956
30
0.0
11
3.487500
21
1.520356
31
0.0
0
LINE
8
TOP
10
3.487500
20
1.520356
30
0.0
11
3.600000
21
1.520756
31
0.0
0
LINE
8
TOP
10
3.600000
20
1.520756
30
0.0
11
3.712500
21
1.521156
31
0.0
0
LINE
8
TOP
10
3.712500
20
1.521156
30
0.0
11
3.825000
21
1.521556
31
0.0
0
LINE
8
TOP
10
3.825000
20
1.521556
30
0.0
11
3.937500
21
1.521955
31
0.0
0
LINE
8
TOP
10
3.937500
20
1.521955
30
0.0
11
4.050000
21
1.522355
31
0.0
0
LINE
8
TOP
10
4.050000
20
1.522355
30
0.0
11
4.162500
21
1.522755
31
0.0
0
LINE
8
TOP
10
4.162500
20
1.522755
30
0.0
11
4.275000
21
1.523155
31
0.0
0
LINE
8
TOP
10
4.275000
20
1.523155
30
0.0
11
4.387500
21
1.523555
31
0.0
0
LINE
8
TOP
10
4.387500
20
1.523555
30
0.0
11
4.500000
21
1.523955
31
0.0
0
LINE
8
TOP
10
4.500000
20
1.523955
30
0.0
11
4.612500
21
1.523691
31
0.0
0
LINE
8
TOP
10
4.612500
20
1.523691
30
0.0
11
4.725000
21
1.523427
31
0.0
0
LINE
8
TOP
10
4.725000
20
1.523427
30
0.0
11
4.837500
21
1.523164
31
0.0
0
LINE
8
TOP
10
4.837500
20
1.523164
30
0.0
11
4.950000
21
1.522900
31
0.0
0
LINE
8
TOP
10
4.950000
20
1.522900
30
0.0
11
5.062500
21
1.522637
31
0.0
0
LINE
8
TOP
10
5.062500
20
1.522637
30
0.0
11
5.175000
21
1.522373
31
0.0
0
LINE
8
TOP
10
5.175000
20
1.522373
30
0.0
11
5.287500
21
1.522109
31
0.0
0
LINE
8
TOP
10
5.287500
20
1.522109
30
0.0
11
5.400000
21
1.521846
31
0.0
0
LINE
8
TOP
10
5.400000
20
1.521846
30
0.0
11
5.512500
21
1.521582
31
0.0
0
LINE
8
TOP
10
5.512500
20
1.521582
30
0.0
11
5.625000
21
1.521318
31
0.0
0
LINE
8
TOP
10
5.625000
20
1.521318
30
0.0
11
5.737500
21
1.521055
31
0.0
0
LINE
8
TOP
10
5.737500
20
1.521055
30
0.0
11
5.850000
21
1.520791
31
0.0
0
LINE
8
TOP
10
5.850000
20
1.520791
30
0.0
11
5.962500
21
1.520528
31
0.0
0
LINE
8
TOP
10
5.962500
20
1.520528
30
0.0
11
6.075000
21
1.520264
31
0.0
0
LINE
8
TOP
10
6.075000
20
1.520264
30
0.0
11
6.187500
21
1.520000
31
0.0
0
LINE
8
TOP
10
6.187500
20
1.520000
30
0.0
11
6.300000
21
1.519737
31
0.0
0
LINE
8
TOP
10
6.300000
20
1.519737
30
0.0
11
6.412500
21
1.519473
31
0.0
0
LINE
8
TOP
10
6.412500
20
1.519473
30
0.0
11
6.525000
21
1.519210
31
0.0
0
LINE
8
TOP
10
6.525000
20
1.519210
30
0.0
11
6.637500
21
1.518946
31
0.0
0
LINE
8
TOP
10
6.637500
20
1.518946
30
0.0
11
6.750000
21
1.518682
31
0.0
0
LINE
8
TOP
10
6.750000
20
1.518682
30
0.0
11
6.862500
21
1.518419
31
0.0
0
LINE
8
TOP
10
6.862500
20
1.518419
30
0.0
11
6.975000
21
1.518155
31
0.0
0
LINE
8
TOP
10
6.975000
20
1.518155
30
0.0
11
7.087500
21
1.517892
31
0.0
0
LINE
8
TOP
10
7.087500
20
1.517892
30
0.0
11
7.200000
21
1.517628
31
0.0
0
LINE
8
TOP
10
7.200000
20
1.517628
30
0.0
11
7.312500
21
1.517364
31
0.0
0
LINE
8
TOP
10
7.312500
20
1.517364
30
0.0
11
7.425000
21
1.517101
31
0.0
0
LINE
8
TOP
10
7.425000
20
1.517101
30
0.0
11
7.537500
21
1.516837
31
0.0
0
LINE
8
TOP
10
7.537500
20
1.516837
30
0.0
11
7.650000
21
1.516573
31
0.0
0
LINE
8
TOP
10
7.650000
20
1.516573
30
0.0
11
7.762500
21
1.516310
31
0.0
0
LINE
8
TOP
10
7.762500
20
1.516310
30
0.0
11
7.875000
21
1.516046
31
0.0
0
LINE
8
TOP
10
7.875000
20
1.516046
30
0.0
11
7.987500
21
1.515783
31
0.0
0
LINE
8
TOP
10
7.987500
20
1.515783
30
0.0
11
8.100000
21
1.515519
31
0.0
0
LINE
8
TOP
10
8.100000
20
1.515519
30
0.0
11
8.212500
21
1.515255
31
0.0
0
LINE
8
TOP
10
8.212500
20
1.515255
30
0.0
11
8.325000
21
1.514992
31
0.0
0
LINE
8
TOP
10
8.325000
20
1.514992
30
0.0
11
8.437500
21
1.514728
31
0.0
0
LINE
8
TOP
10
8.437500
20
1.514728
30
0.0
11
8.500000
21
1.514582
31
0.0
0
LINE
8
TOP
10
8.500000
20
1.514582
30
0.0
11
8.550000
21
1.514465
31
0.0
0
LINE
8
TOP
10
8.550000
20
1.514465
30
0.0
11
8.662500
21
1.514201
31
0.0
0
LINE
8
TOP
10
8.662500
20
1.514201
30
0.0
11
8.775000
21
1.513937
31
0.0
0
LINE
8
TOP
10
8.775000
20
1.513937
30
0.0
11
8.887500
21
1.513674
31
0.0
0
LINE
8
TOP
10
8.887500
20
1.513674
30
0.0
11
9.000000
21
1.513410
31
0.0
0
LINE
8
TOP
10
0.000000
20
1.875700
30
0.0
11
0.000000
21
1.507961
31
0.0
0
LINE
8
TOP
10
9.000000
20
1.870251
30
0.0
11
9.000000
21
1.513410
31
0.0
0
LINE
8
SECTION
10
10.332124
20
-0.311619
30
0.0
11
10.667876
21
-0.311619
31
0.0
0
LINE
8
SECTION
10
10.667876
20
-0.311619
30
0.0
11
10.667876
21
0.311619
31
0.0
0
LINE
8
SECTION
10
10.667876
20
0.311619
30
0.0
11
10.332124
21
0.311619
31
0.0
0
LINE
8
SECTION
10
10.332124
20
0.311619
30
0.0
11
10.332124
21
-0.311619
31
0.0
0
LINE
8
SECTION
10
10.401753
20
-0.241991
30
0.0
11
10.598247
21
-0.241991
31
0.0
0
LINE
8
SECTION
10
10.598247
20
-0.241991
30
0.0
11
10.598247
21
0.241991
31
0.0
0
LINE
8
SECTION
10
10.598247
20
0.241991
30
0.0
11
10.401753
21
0.241991
31
0.0
0
LINE
8
SECTION
10
10.401753
20
0.241991
30
0.0
11
10.401753
21
-0.241991
31
0.0
0
LINE
8
SECTION
10
10.401753
20
0.000000
30
0.0
11
10.471382
21
0.000000
31
0.0
0
LINE
8
SECTION
10
10.471382
20
0.000000
30
0.0
11
10.471382
21
0.241991
31
0.0
0
LINE
8
SECTION
10
10.471382
20
0.241991
30
0.0
11
10.401753
21
0.241991
31
0.0
0
LINE
8
SECTION
10
10.401753
20
0.241991
30
0.0
11
10.401753
21
0.000000
31
0.0
0
LINE
8
SECTION
10
10.401753
20
-0.241991
30
0.0
11
10.471382
21
-0.241991
31
0.0
0
LINE
8
SECTION
10
10.471382
20
-0.241991
30
0.0
11
10.471382
21
0.000000
31
0.0
0
LINE
8
SECTION
10
10.471382
20
0.000000
30
0.0
11
10.401753
21
0.000000
31
0.0
0
LINE
8
SECTION
10
10.401753
20
0.000000
30
0.0
11
10.401753
21
-0.241991
31
0.0
0
LINE
8
SECTION
10
10.528618
20
0.000000
30
0.0
11
10.598247
21
0.000000
31
0.0
0
LINE
8
SECTION
10
10.598247
20
0.000000
30
0.0
11
10.598247
21
0.241991
31
0.0
0
LINE
8
SECTION
10
10.598247
20
0.241991
30
0.0
11
10.528618
21
0.241991
31
0.0
0
LINE
8
SECTION
10
10.528618
20
0.241991
30
0.0
11
10.528618
21
0.000000
31
0.0
0
LINE
8
SECTION
10
10.528618
20
-0.241991
30
0.0
11
10.598247
21
-0.241991
31
0.0
0
LINE
8
SECTION
10
10.598247
20
-0.241991
30
0.0
11
10.598247
21
0.000000
31
0.0
0
LINE
8
SECTION
10
10.598247
20
0.000000
30
0.0
11
10.528618
21
0.000000
31
0.0
0
LINE
8
SECTION
10
10.528618
20
0.000000
30
0.0
11
10.528618
21
-0.241991
31
0.0
0
ENDSEC
0
EOF
