0
SECTION
2
HEADER
9
$INSUNITS
70
1
0
ENDSEC
0
SECTION
2
ENTITIES
0
LINE
8
FRONT
10
0.000000
20
0.225522
30
0.0
11
0.112500
21
0.229309
31
0.0
0
LINE
8
FRONT
10
0.112500
20
0.229309
30
0.0
11
0.225000
21
0.233096
31
0.0
0
LINE
8
FRONT
10
0.225000
20
0.233096
30
0.0
11
0.337500
21
0.236883
31
0.0
0
LINE
8
FRONT
10
0.337500
20
0.236883
30
0.0
11
0.450000
21
0.240670
31
0.0
0
LINE
8
FRONT
10
0.450000
20
0.240670
30
0.0
11
0.500000
21
0.242353
31
0.0
0
LINE
8
FRONT
10
0.500000
20
0.242353
30
0.0
11
0.562500
21
0.244457
31
0.0
0
LINE
8
FRONT
10
0.562500
20
0.244457
30
0.0
11
0.675000
21
0.248245
31
0.0
0
LINE
8
FRONT
10
0.675000
20
0.248245
30
0.0
11
0.787500
21
0.252032
31
0.0
0
LINE
8
FRONT
10
0.787500
20
0.252032
30
0.0
11
0.900000
21
0.255819
31
0.0
0
LINE
8
FRONT
10
0.900000
20
0.255819
30
0.0
11
1.012500
21
0.259606
31
0.0
0
LINE
8
FRONT
10
1.012500
20
0.259606
30
0.0
11
1.125000
21
0.263393
31
0.0
0
LINE
8
FRONT
10
1.125000
20
0.263393
30
0.0
11
1.237500
21
0.267180
31
0.0
0
LINE
8
FRONT
10
1.237500
20
0.267180
30
0.0
11
1.350000
21
0.270968
31
0.0
0
LINE
8
FRONT
10
1.350000
20
0.270968
30
0.0
11
1.462500
21
0.274755
31
0.0
0
LINE
8
FRONT
10
1.462500
20
0.274755
30
0.0
11
1.575000
21
0.278542
31
0.0
0
LINE
8
FRONT
10
1.575000
20
0.278542
30
0.0
11
1.687500
21
0.282329
31
0.0
0
LINE
8
FRONT
10
1.687500
20
0.282329
30
0.0
11
1.800000
21
0.286116
31
0.0
0
LINE
8
FRONT
10
1.800000
20
0.286116
30
0.0
11
1.912500
21
0.289903
31
0.0
0
LINE
8
FRONT
10
1.912500
20
0.289903
30
0.0
11
2.025000
21
0.293691
31
0.0
0
LINE
8
FRONT
10
2.025000
20
0.293691
30
0.0
11
2.137500
21
0.297478
31
0.0
0
LINE
8
FRONT
10
2.137500
20
0.297478
30
0.0
11
2.250000
21
0.301265
31
0.0
0
LINE
8
FRONT
10
2.250000
20
0.301265
30
0.0
11
2.362500
21
0.305052
31
0.0
0
LINE
8
FRONT
10
2.362500
20
0.305052
30
0.0
11
2.475000
21
0.308839
31
0.0
0
LINE
8
FRONT
10
2.475000
20
0.308839
30
0.0
11
2.587500
21
0.312626
31
0.0
0
LINE
8
FRONT
10
2.587500
20
0.312626
30
0.0
11
2.700000
21
0.316414
31
0.0
0
LINE
8
FRONT
10
2.700000
20
0.316414
30
0.0
11
2.812500
21
0.320201
31
0.0
0
LINE
8
FRONT
10
2.812500
20
0.320201
30
0.0
11
2.925000
21
0.323988
31
0.0
0
LINE
8
FRONT
10
2.925000
20
0.323988
30
0.0
11
3.037500
21
0.327775
31
0.0
0
LINE
8
FRONT
10
3.037500
20
0.327775
30
0.0
11
3.150000
21
0.331562
31
0.0
0
LINE
8
FRONT
10
3.150000
20
0.331562
30
0.0
11
3.262500
21
0.335350
31
0.0
0
LINE
8
FRONT
10
3.262500
20
0.335350
30
0.0
11
3.375000
21
0.339137
31
0.0
0
LINE
8
FRONT
10
3.375000
20
0.339137
30
0.0
11
3.487500
21
0.342924
31
0.0
0
LINE
8
FRONT
10
3.487500
20
0.342924
30
0.0
11
3.600000
21
0.346711
31
0.0
0
LINE
8
FRONT
10
3.600000
20
0.346711
30
0.0
11
3.712500
21
0.350498
31
0.0
0
LINE
8
FRONT
10
3.712500
20
0.350498
30
0.0
11
3.825000
21
0.354285
31
0.0
0
LINE
8
FRONT
10
3.825000
20
0.354285
30
0.0
11
3.937500
21
0.358073
31
0.0
0
LINE
8
FRONT
10
3.937500
20
0.358073
30
0.0
11
4.050000
21
0.361860
31
0.0
0
LINE
8
FRONT
10
4.050000
20
0.361860
30
0.0
11
4.162500
21
0.365647
31
0.0
0
LINE
8
FRONT
10
4.162500
20
0.365647
30
0.0
11
4.275000
21
0.369434
31
0.0
0
LINE
8
FRONT
10
4.275000
20
0.369434
30
0.0
11
4.387500
21
0.373221
31
0.0
0
LINE
8
FRONT
10
4.387500
20
0.373221
30
0.0
11
4.500000
21
0.377008
31
0.0
0
LINE
8
FRONT
10
4.500000
20
0.377008
30
0.0
11
4.612500
21
0.373221
31
0.0
0
LINE
8
FRONT
10
4.612500
20
0.373221
30
0.0
11
4.725000
21
0.369434
31
0.0
0
LINE
8
FRONT
10
4.725000
20
0.369434
30
0.0
11
4.837500
21
0.365647
31
0.0
0
LINE
8
FRONT
10
4.837500
20
0.365647
30
0.0
11
4.950000
21
0.361860
31
0.0
0
LINE
8
FRONT
10
4.950000
20
0.361860
30
0.0
11
5.062500
21
0.358073
31
0.0
0
LINE
8
FRONT
10
5.062500
20
0.358073
30
0.0
11
5.175000
21
0.354285
31
0.0
0
LINE
8
FRONT
10
5.175000
20
0.354285
30
0.0
11
5.287500
21
0.350498
31
0.0
0
LINE
8
FRONT
10
5.287500
20
0.350498
30
0.0
11
5.400000
21
0.346711
31
0.0
0
LINE
8
FRONT
10
5.400000
20
0.346711
30
0.0
11
5.512500
21
0.342924
31
0.0
0
LINE
8
FRONT
10
5.512500
20
0.342924
30
0.0
11
5.625000
21
0.339137
31
0.0
0
LINE
8
FRONT
10
5.625000
20
0.339137
30
0.0
11
5.737500
21
0.335350
31
0.0
0
LINE
8
FRONT
10
5.737500
20
0.335350
30
0.0
11
5.850000
21
0.331562
31
0.0
0
LINE
8
FRONT
10
5.850000
20
0.331562
30
0.0
11
5.962500
21
0.327775
31
0.0
0
LINE
8
FRONT
10
5.962500
20
0.327775
30
0.0
11
6.075000
21
0.323988
31
0.0
0
LINE
8
FRONT
10
6.075000
20
0.323988
30
0.0
11
6.187500
21
0.320201
31
0.0
0
LINE
8
FRONT
10
6.187500
20
0.320201
30
0.0
11
6.300000
21
0.316414
31
0.0
0
LINE
8
FRONT
10
6.300000
20
0.316414
30
0.0
11
6.412500
21
0.312626
31
0.0
0
LINE
8
FRONT
10
6.412500
20
0.312626
30
0.0
11
6.525000
21
0.308839
31
0.0
0
LINE
8
FRONT
10
6.525000
20
0.308839
30
0.0
11
6.637500
21
0.305052
31
0.0
0
LINE
8
FRONT
10
6.637500
20
0.305052
30
0.0
11
6.750000
21
0.301265
31
0.0
0
LINE
8
FRONT
10
6.750000
20
0.301265
30
0.0
11
6.862500
21
0.297478
31
0.0
0
LINE
8
FRONT
10
6.862500
20
0.297478
30
0.0
11
6.975000
21
0.293691
31
0.0
0
LINE
8
FRONT
10
6.975000
20
0.293691
30
0.0
11
7.087500
21
0.289903
31
0.0
0
LINE
8
FRONT
10
7.087500
20
0.289903
30
0.0
11
7.200000
21
0.286116
31
0.0
0
LINE
8
FRONT
10
7.200000
20
0.286116
30
0.0
11
7.312500
21
0.282329
31
0.0
0
LINE
8
FRONT
10
7.312500
20
0.282329
30
0.0
11
7.425000
21
0.278542
31
0.0
0
LINE
8
FRONT
10
7.425000
20
0.278542
30
0.0
11
7.537500
21
0.274755
31
0.0
0
LINE
8
FRONT
10
7.537500
20
0.274755
30
0.0
11
7.650000
21
0.270968
31
0.0
0
LINE
8
FRONT
10
7.650000
20
0.270968
30
0.0
11
7.762500
21
0.267180
31
0.0
0
LINE
8
FRONT
10
7.762500
20
0.267180
30
0.0
11
7.875000
21
0.263393
31
0.0
0
LINE
8
FRONT
10
7.875000
20
0.263393
30
0.0
11
7.987500
21
0.259606
31
0.0
0
LINE
8
FRONT
10
7.987500
20
0.259606
30
0.0
11
8.100000
21
0.255819
31
0.0
0
LINE
8
FRONT
10
8.100000
20
0.255819
30
0.0
11
8.212500
21
0.252032
31
0.0
0
LINE
8
FRONT
10
8.212500
20
0.252032
30
0.0
11
8.325000
21
0.248245
31
0.0
0
LINE
8
FRONT
10
8.325000
20
0.248245
30
0.0
11
8.437500
21
0.244457
31
0.0
0
LINE
8
FRONT
10
8.437500
20
0.244457
30
0.0
11
8.500000
21
0.242353
31
0.0
0
LINE
8
FRONT
10
8.500000
20
0.242353
30
0.0
11
8.550000
21
0.240670
31
0.0
0
LINE
8
FRONT
10
8.550000
20
0.240670
30
0.0
11
8.662500
21
0.236883
31
0.0
0
LINE
8
FRONT
10
8.662500
20
0.236883
30
0.0
11
8.775000
21
0.233096
31
0.0
0
LINE
8
FRONT
10
8.775000
20
0.233096
30
0.0
11
8.887500
21
0.229309
31
0.0
0
LINE
8
FRONT
10
8.887500
20
0.229309
30
0.0
11
9.000000
21
0.225522
31
0.0
0
LINE
8
FRONT
10
0.000000
20
-0.225522
30
0.0
11
0.112500
21
-0.229309
31
0.0
0
LINE
8
FRONT
10
0.112500
20
-0.229309
30
0.0
11
0.225000
21
-0.233096
31
0.0
0
LINE
8
FRONT
10
0.225000
20
-0.233096
30
0.0
11
0.337500
21
-0.236883
31
0.0
0
LINE
8
FRONT
10
0.337500
20
-0.236883
30
0.0
11
0.450000
21
-0.240670
31
0.0
0
LINE
8
FRONT
10
0.450000
20
-0.240670
30
0.0
11
0.500000
21
-0.242353
31
0.0
0
LINE
8
FRONT
10
0.500000
20
-0.242353
30
0.0
11
0.562500
21
-0.244457
31
0.0
0
LINE
8
FRONT
10
0.562500
20
-0.244457
30
0.0
11
0.675000
21
-0.248245
31
0.0
0
LINE
8
FRONT
10
0.675000
20
-0.248245
30
0.0
11
0.787500
21
-0.252032
31
0.0
0
LINE
8
FRONT
10
0.787500
20
-0.252032
30
0.0
11
0.900000
21
-0.255819
31
0.0
0
LINE
8
FRONT
10
0.900000
20
-0.255819
30
0.0
11
1.012500
21
-0.259606
31
0.0
0
LINE
8
FRONT
10
1.012500
20
-0.259606
30
0.0
11
1.125000
21
-0.263393
31
0.0
0
LINE
8
FRONT
10
1.125000
20
-0.263393
30
0.0
11
1.237500
21
-0.267180
31
0.0
0
LINE
8
FRONT
10
1.237500
20
-0.267180
30
0.0
11
1.350000
21
-0.270968
31
0.0
0
LINE
8
FRONT
10
1.350000
20
-0.270968
30
0.0
11
1.462500
21
-0.274755
31
0.0
0
LINE
8
FRONT
10
1.462500
20
-0.274755
30
0.0
11
1.575000
21
-0.278542
31
0.0
0
LINE
8
FRONT
10
1.575000
20
-0.278542
30
0.0
11
1.687500
21
-0.282329
31
0.0
0
LINE
8
FRONT
10
1.687500
20
-0.282329
30
0.0
11
1.800000
21
-0.286116
31
0.0
0
LINE
8
FRONT
10
1.800000
20
-0.286116
30
0.0
11
1.912500
21
-0.289903
31
0.0
0
LINE
8
FRONT
10
1.912500
20
-0.289903
30
0.0
11
2.025000
21
-0.293691
31
0.0
0
LINE
8
FRONT
10
2.025000
20
-0.293691
30
0.0
11
2.137500
21
-0.297478
31
0.0
0
LINE
8
FRONT
10
2.137500
20
-0.297478
30
0.0
11
2.250000
21
-0.301265
31
0.0
0
LINE
8
FRONT
10
2.250000
20
-0.301265
30
0.0
11
2.362500
21
-0.305052
31
0.0
0
LINE
8
FRONT
10
2.362500
20
-0.305052
30
0.0
11
2.475000
21
-0.308839
31
0.0
0
LINE
8
FRONT
10
2.475000
20
-0.308839
30
0.0
11
2.587500
21
-0.312626
31
0.0
0
LINE
8
FRONT
10
2.587500
20
-0.312626
30
0.0
11
2.700000
21
-0.316414
31
0.0
0
LINE
8
FRONT
10
2.700000
20
-0.316414
30
0.0
11
2.812500
21
-0.320201
31
0.0
0
LINE
8
FRONT
10
2.812500
20
-0.320201
30
0.0
11
2.925000
21
-0.323988
31
0.0
0
LINE
8
FRONT
10
2.925000
20
-0.323988
30
0.0
11
3.037500
21
-0.327775
31
0.0
0
LINE
8
FRONT
10
3.037500
20
-0.327775
30
0.0
11
3.150000
21
-0.331562
31
0.0
0
LINE
8
FRONT
10
3.150000
20
-0.331562
30
0.0
11
3.262500
21
-0.335350
31
0.0
0
LINE
8
FRONT
10
3.262500
20
-0.335350
30
0.0
11
3.375000
21
-0.339137
31
0.0
0
LINE
8
FRONT
10
3.375000
20
-0.339137
30
0.0
11
3.487500
21
-0.342924
31
0.0
0
LINE
8
FRONT
10
3.487500
20
-0.342924
30
0.0
11
3.600000
21
-0.346711
31
0.0
0
LINE
8
FRONT
10
3.600000
20
-0.346711
30
0.0
11
3.712500
21
-0.350498
31
0.0
0
LINE
8
FRONT
10
3.712500
20
-0.350498
30
0.0
11
3.825000
21
-0.354285
31
0.0
0
LINE
8
FRONT
10
3.825000
20
-0.354285
30
0.0
11
3.937500
21
-0.358073
31
0.0
0
LINE
8
FRONT
10
3.937500
20
-0.358073
30
0.0
11
4.050000
21
-0.361860
31
0.0
0
LINE
8
FRONT
10
4.050000
20
-0.361860
30
0.0
11
4.162500
21
-0.365647
31
0.0
0
LINE
8
FRONT
10
4.162500
20
-0.365647
30
0.0
11
4.275000
21
-0.369434
31
0.0
0
LINE
8
FRONT
10
4.275000
20
-0.369434
30
0.0
11
4.387500
21
-0.373221
31
0.0
0
LINE
8
FRONT
10
4.387500
20
-0.373221
30
0.0
11
4.500000
21
-0.377008
31
0.0
0
LINE
8
FRONT
10
4.500000
20
-0.377008
30
0.0
11
4.612500
21
-0.373221
31
0.0
0
LINE
8
FRONT
10
4.612500
20
-0.373221
30
0.0
11
4.725000
21
-0.369434
31
0.0
0
LINE
8
FRONT
10
4.725000
20
-0.369434
30
0.0
11
4.837500
21
-0.365647
31
0.0
0
LINE
8
FRONT
10
4.837500
20
-0.365647
30
0.0
11
4.950000
21
-0.361860
31
0.0
0
LINE
8
FRONT
10
4.950000
20
-0.361860
30
0.0
11
5.062500
21
-0.358073
31
0.0
0
LINE
8
FRONT
10
5.062500
20
-0.358073
30
0.0
11
5.175000
21
-0.354285
31
0.0
0
LINE
8
FRONT
10
5.175000
20
-0.354285
30
0.0
11
5.287500
21
-0.350498
31
0.0
0
LINE
8
FRONT
10
5.287500
20
-0.350498
30
0.0
11
5.400000
21
-0.346711
31
0.0
0
LINE
8
FRONT
10
5.400000
20
-0.346711
30
0.0
11
5.512500
21
-0.342924
31
0.0
0
LINE
8
FRONT
10
5.512500
20
-0.342924
30
0.0
11
5.625000
21
-0.339137
31
0.0
0
LINE
8
FRONT
10
5.625000
20
-0.339137
30
0.0
11
5.737500
21
-0.335350
31
0.0
0
LINE
8
FRONT
10
5.737500
20
-0.335350
30
0.0
11
5.850000
21
-0.331562
31
0.0
0
LINE
8
FRONT
10
5.850000
20
-0.331562
30
0.0
11
5.962500
21
-0.327775
31
0.0
0
LINE
8
FRONT
10
5.962500
20
-0.327775
30
0.0
11
6.075000
21
-0.323988
31
0.0
0
LINE
8
FRONT
10
6.075000
20
-0.323988
30
0.0
11
6.187500
21
-0.320201
31
0.0
0
LINE
8
FRONT
10
6.187500
20
-0.320201
30
0.0
11
6.300000
21
-0.316414
31
0.0
0
LINE
8
FRONT
10
6.300000
20
-0.316414
30
0.0
11
6.412500
21
-0.312626
31
0.0
0
LINE
8
FRONT
10
6.412500
20
-0.312626
30
0.0
11
6.525000
21
-0.308839
31
0.0
0
LINE
8
FRONT
10
6.525000
20
-0.308839
30
0.0
11
6.637500
21
-0.305052
31
0.0
0
LINE
8
FRONT
10
6.637500
20
-0.305052
30
0.0
11
6.750000
21
-0.301265
31
0.0
0
LINE
8
FRONT
10
6.750000
20
-0.301265
30
0.0
11
6.862500
21
-0.297478
31
0.0
0
LINE
8
FRONT
10
6.862500
20
-0.297478
30
0.0
11
6.975000
21
-0.293691
31
0.0
0
LINE
8
FRONT
10
6.975000
20
-0.293691
30
0.0
11
7.087500
21
-0.289903
31
0.0
0
LINE
8
FRONT
10
7.087500
20
-0.289903
30
0.0
11
7.200000
21
-0.286116
31
0.0
0
LINE
8
FRONT
10
7.200000
20
-0.286116
30
0.0
11
7.312500
21
-0.282329
31
0.0
0
LINE
8
FRONT
10
7.312500
20
-0.282329
30
0.0
11
7.425000
21
-0.278542
31
0.0
0
LINE
8
FRONT
10
7.425000
20
-0.278542
30
0.0
11
7.537500
21
-0.274755
31
0.0
0
LINE
8
FRONT
10
7.537500
20
-0.274755
30
0.0
11
7.650000
21
-0.270968
31
0.0
0
LINE
8
FRONT
10
7.650000
20
-0.270968
30
0.0
11
7.762500
21
-0.267180
31
0.0
0
LINE
8
FRONT
10
7.762500
20
-0.267180
30
0.0
11
7.875000
21
-0.263393
31
0.0
0
LINE
8
FRONT
10
7.875000
20
-0.263393
30
0.0
11
7.987500
21
-0.259606
31
0.0
0
LINE
8
FRONT
10
7.987500
20
-0.259606
30
0.0
11
8.100000
21
-0.255819
31
0.0
0
LINE
8
FRONT
10
8.100000
20
-0.255819
30
0.0
11
8.212500
21
-0.252032
31
0.0
0
LINE
8
FRONT
10
8.212500
20
-0.252032
30
0.0
11
8.325000
21
-0.248245
31
0.0
0
LINE
8
FRONT
10
8.325000
20
-0.248245
30
0.0
11
8.437500
21
-0.244457
31
0.0
0
LINE
8
FRONT
10
8.437500
20
-0.244457
30
0.0
11
8.500000
21
-0.242353
31
0.0
0
LINE
8
FRONT
10
8.500000
20
-0.242353
30
0.0
11
8.550000
21
-0.240670
31
0.0
0
LINE
8
FRONT
10
8.550000
20
-0.240670
30
0.0
11
8.662500
21
-0.236883
31
0.0
0
LINE
8
FRONT
10
8.662500
20
-0.236883
30
0.0
11
8.775000
21
-0.233096
31
0.0
0
LINE
8
FRONT
10
8.775000
20
-0.233096
30
0.0
11
8.887500
21
-0.229309
31
0.0
0
LINE
8
FRONT
10
8.887500
20
-0.229309
30
0.0
11
9.000000
21
-0.225522
31
0.0
0
LINE
8
FRONT
10
0.000000
20
0.225522
30
0.0
11
0.000000
21
-0.225522
31
0.0
0
LINE
8
FRONT
10
9.000000
20
0.225522
30
0.0
11
9.000000
21
-0.225522
31
0.0
0
LINE
8
TOP
10
0.000000
20
2.037166
30
0.0
11
0.112500
21
2.040055
31
0.0
0
LINE
8
TOP
10
0.112500
20
2.040055
30
0.0
11
0.225000
21
2.042944
31
0.0
0
LINE
8
TOP
10
0.225000
20
2.042944
30
0.0
11
0.337500
21
2.045834
31
0.0
0
LINE
8
TOP
10
0.337500
20
2.045834
30
0.0
11
0.450000
21
2.048723
31
0.0
0
LINE
8
TOP
10
0.450000
20
2.048723
30
0.0
11
0.500000
21
2.050007
31
0.0
0
LINE
8
TOP
10
0.500000
20
2.050007
30
0.0
11
0.562500
21
2.051612
31
0.0
0
LINE
8
TOP
10
0.562500
20
2.051612
30
0.0
11
0.675000
21
2.054502
31
0.0
0
LINE
8
TOP
10
0.675000
20
2.054502
30
0.0
11
0.787500
21
2.057391
31
0.0
0
LINE
8
TOP
10
0.787500
20
2.057391
30
0.0
11
0.900000
21
2.060280
31
0.0
0
LINE
8
TOP
10
0.900000
20
2.060280
30
0.0
11
1.012500
21
2.063169
31
0.0
0
LINE
8
TOP
10
1.012500
20
2.063169
30
0.0
11
1.125000
21
2.066059
31
0.0
0
LINE
8
TOP
10
1.125000
20
2.066059
30
0.0
11
1.237500
21
2.068948
31
0.0
0
LINE
8
TOP
10
1.237500
20
2.068948
30
0.0
11
1.350000
21
2.071837
31
0.0
0
LINE
8
TOP
10
1.350000
20
2.071837
30
0.0
11
1.462500
21
2.074727
31
0.0
0
LINE
8
TOP
10
1.462500
20
2.074727
30
0.0
11
1.575000
21
2.077616
31
0.0
0
LINE
8
TOP
10
1.575000
20
2.077616
30
0.0
11
1.687500
21
2.080505
31
0.0
0
LINE
8
TOP
10
1.687500
20
2.080505
30
0.0
11
1.800000
21
2.083395
31
0.0
0
LINE
8
TOP
10
1.800000
20
2.083395
30
0.0
11
1.912500
21
2.086284
31
0.0
0
LINE
8
TOP
10
1.912500
20
2.086284
30
0.0
11
2.025000
21
2.089173
31
0.0
0
LINE
8
TOP
10
2.025000
20
2.089173
30
0.0
11
2.137500
21
2.092062
31
0.0
0
LINE
8
TOP
10
2.137500
20
2.092062
30
0.0
11
2.250000
21
2.094952
31
0.0
0
LINE
8
TOP
10
2.250000
20
2.094952
30
0.0
11
2.362500
21
2.097841
31
0.0
0
LINE
8
TOP
10
2.362500
20
2.097841
30
0.0
11
2.475000
21
2.100730
31
0.0
0
LINE
8
TOP
10
2.475000
20
2.100730
30
0.0
11
2.587500
21
2.103620
31
0.0
0
LINE
8
TOP
10
2.587500
20
2.103620
30
0.0
11
2.700000
21
2.106509
31
0.0
0
LINE
8
TOP
10
2.700000
20
2.106509
30
0.0
11
2.812500
21
2.109398
31
0.0
0
LINE
8
TOP
10
2.812500
20
2.109398
30
0.0
11
2.925000
21
2.112287
31
0.0
0
LINE
8
TOP
10
2.925000
20
2.112287
30
0.0
11
3.037500
21
2.115177
31
0.0
0
LINE
8
TOP
10
3.037500
20
2.115177
30
0.0
11
3.150000
21
2.118066
31
0.0
0
LINE
8
TOP
10
3.150000
20
2.118066
30
0.0
11
3.262500
21
2.120955
31
0.0
0
LINE
8
TOP
10
3.262500
20
2.120955
30
0.0
11
3.375000
21
2.123845
31
0.0
0
LINE
8
TOP
10
3.375000
20
2.123845
30
0.0
11
3.487500
21
2.126734
31
0.0
0
LINE
8
TOP
10
3.487500
20
2.126734
30
0.0
11
3.600000
21
2.129623
31
0.0
0
LINE
8
TOP
10
3.600000
20
2.129623
30
0.0
11
3.712500
21
2.132513
31
0.0
0
LINE
8
TOP
10
3.712500
20
2.132513
30
0.0
11
3.825000
21
2.135402
31
0.0
0
LINE
8
TOP
10
3.825000
20
2.135402
30
0.0
11
3.937500
21
2.138291
31
0.0
0
LINE
8
TOP
10
3.937500
20
2.138291
30
0.0
11
4.050000
21
2.141180
31
0.0
0
LINE
8
TOP
10
4.050000
20
2.141180
30
0.0
11
4.162500
21
2.144070
31
0.0
0
LINE
8
TOP
10
4.162500
20
2.144070
30
0.0
11
4.275000
21
2.146959
31
0.0
0
LINE
8
TOP
10
4.275000
20
2.146959
30
0.0
11
4.387500
21
2.149848
31
0.0
0
LINE
8
TOP
10
4.387500
20
2.149848
30
0.0
11
4.500000
21
2.152738
31
0.0
0
LINE
8
TOP
10
4.500000
20
2.152738
30
0.0
11
4.612500
21
2.149848
31
0.0
0
LINE
8
TOP
10
4.612500
20
2.149848
30
0.0
11
4.725000
21
2.146959
31
0.0
0
LINE
8
TOP
10
4.725000
20
2.146959
30
0.0
11
4.837500
21
2.144070
31
0.0
0
LINE
8
TOP
10
4.837500
20
2.144070
30
0.0
11
4.950000
21
2.141180
31
0.0
0
LINE
8
TOP
10
4.950000
20
2.141180
30
0.0
11
5.062500
21
2.138291
31
0.0
0
LINE
8
TOP
10
5.062500
20
2.138291
30
0.0
11
5.175000
21
2.135402
31
0.0
0
LINE
8
TOP
10
5.175000
20
2.135402
30
0.0
11
5.287500
21
2.132513
31
0.0
0
LINE
8
TOP
10
5.287500
20
2.132513
30
0.0
11
5.400000
21
2.129623
31
0.0
0
LINE
8
TOP
10
5.400000
20
2.129623
30
0.0
11
5.512500
21
2.126734
31
0.0
0
LINE
8
TOP
10
5.512500
20
2.126734
30
0.0
11
5.625000
21
2.123845
31
0.0
0
LINE
8
TOP
10
5.625000
20
2.123845
30
0.0
11
5.737500
21
2.120955
31
0.0
0
LINE
8
TOP
10
5.737500
20
2.120955
30
0.0
11
5.850000
21
2.118066
31
0.0
0
LINE
8
TOP
10
5.850000
20
2.118066
30
0.0
11
5.962500
21
2.115177
31
0.0
0
LINE
8
TOP
10
5.962500
20
2.115177
30
0.0
11
6.075000
21
2.112287
31
0.0
0
LINE
8
TOP
10
6.075000
20
2.112287
30
0.0
11
6.187500
21
2.109398
31
0.0
0
LINE
8
TOP
10
6.187500
20
2.109398
30
0.0
11
6.300000
21
2.106509
31
0.0
0
LINE
8
TOP
10
6.300000
20
2.106509
30
0.0
11
6.412500
21
2.103620
31
0.0
0
LINE
8
TOP
10
6.412500
20
2.103620
30
0.0
11
6.525000
21
2.100730
31
0.0
0
LINE
8
TOP
10
6.525000
20
2.100730
30
0.0
11
6.637500
21
2.097841
31
0.0
0
LINE
8
TOP
10
6.637500
20
2.097841
30
0.0
11
6.750000
21
2.094952
31
0.0
0
LINE
8
TOP
10
6.750000
20
2.094952
30
0.0
11
6.862500
21
2.092062
31
0.0
0
LINE
8
TOP
10
6.862500
20
2.092062
30
0.0
11
6.975000
21
2.089173
31
0.0
0
LINE
8
TOP
10
6.975000
20
2.089173
30
0.0
11
7.087500
21
2.086284
31
0.0
0
LINE
8
TOP
10
7.087500
20
2.086284
30
0.0
11
7.200000
21
2.083395
31
0.0
0
LINE
8
TOP
10
7.200000
20
2.083395
30
0.0
11
7.312500
21
2.080505
31
0.0
0
LINE
8
TOP
10
7.312500
20
2.080505
30
0.0
11
7.425000
21
2.077616
31
0.0
0
LINE
8
TOP
10
7.425000
20
2.077616
30
0.0
11
7.537500
21
2.074727
31
0.0
0
LINE
8
TOP
10
7.537500
20
2.074727
30
0.0
11
7.650000
21
2.071837
31
0.0
0
LINE
8
TOP
10
7.650000
20
2.071837
30
0.0
11
7.762500
21
2.068948
31
0.0
0
LINE
8
TOP
10
7.762500
20
2.068948
30
0.0
11
7.875000
21
2.066059
31
0.0
0
LINE
8
TOP
10
7.875000
20
2.066059
30
0.0
11
7.987500
21
2.063169
31
0.0
0
LINE
8
TOP
10
7.987500
20
2.063169
30
0.0
11
8.100000
21
2.060280
31
0.0
0
LINE
8
TOP
10
8.100000
20
2.060280
30
0.0
11
8.212500
21
2.057391
31
0.0
0
LINE
8
TOP
10
8.212500
20
2.057391
30
0.0
11
8.325000
21
2.054502
31
0.0
0
LINE
8
TOP
10
8.325000
20
2.054502
30
0.0
11
8.437500
21
2.051612
31
0.0
0
LINE
8
TOP
10
8.437500
20
2.051612
30
0.0
11
8.500000
21
2.050007
31
0.0
0
LINE
8
TOP
10
8.500000
20
2.050007
30
0.0
11
8.550000
21
2.048723
31
0.0
0
LINE
8
TOP
10
8.550000
20
2.048723
30
0.0
11
8.662500
21
2.045834
31
0.0
0
LINE
8
TOP
10
8.662500
20
2.045834
30
0.0
11
8.775000
21
2.042944
31
0.0
0
LINE
8
TOP
10
8.775000
20
2.042944
30
0.0
11
8.887500
21
2.040055
31
0.0
0
LINE
8
TOP
10
8.887500
20
2.040055
30
0.0
11
9.000000
21
2.037166
31
0.0
0
LINE
8
TOP
10
0.000000
20
1.724885
30
0.0
11
0.112500
21
1.721995
31
0.0
0
LINE
8
TOP
10
0.112500
20
1.721995
30
0.0
11
0.225000
21
1.719106
31
0.0
0
LINE
8
TOP
10
0.225000
20
1.719106
30
0.0
11
0.337500
21
1.716217
31
0.0
0
LINE
8
TOP
10
0.337500
20
1.716217
30
0.0
11
0.450000
21
1.713328
31
0.0
0
LINE
8
TOP
10
0.450000
20
1.713328
30
0.0
11
0.500000
21
1.712043
31
0.0
0
LINE
8
TOP
10
0.500000
20
1.712043
30
0.0
11
0.562500
21
1.710438
31
0.0
0
LINE
8
TOP
10
0.562500
20
1.710438
30
0.0
11
0.675000
21
1.707549
31
0.0
0
LINE
8
TOP
10
0.675000
20
1.707549
30
0.0
11
0.787500
21
1.704660
31
0.0
0
LINE
8
TOP
10
0.787500
20
1.704660
30
0.0
11
0.900000
21
1.701770
31
0.0
0
LINE
8
TOP
10
0.900000
20
1.701770
30
0.0
11
1.012500
21
1.698881
31
0.0
0
LINE
8
TOP
10
1.012500
20
1.698881
30
0.0
11
1.125000
21
1.695992
31
0.0
0
LINE
8
TOP
10
1.125000
20
1.695992
30
0.0
11
1.237500
21
1.693102
31
0.0
0
LINE
8
TOP
10
1.237500
20
1.693102
30
0.0
11
1.350000
21
1.690213
31
0.0
0
LINE
8
TOP
10
1.350000
20
1.690213
30
0.0
11
1.462500
21
1.687324
31
0.0
0
LINE
8
TOP
10
1.462500
20
1.687324
30
0.0
11
1.575000
21
1.684435
31
0.0
0
LINE
8
TOP
10
1.575000
20
1.684435
30
0.0
11
1.687500
21
1.681545
31
0.0
0
LINE
8
TOP
10
1.687500
20
1.681545
30
0.0
11
1.800000
21
1.678656
31
0.0
0
LINE
8
TOP
10
1.800000
20
1.678656
30
0.0
11
1.912500
21
1.675767
31
0.0
0
LINE
8
TOP
10
1.912500
20
1.675767
30
0.0
11
2.025000
21
1.672877
31
0.0
0
LINE
8
TOP
10
2.025000
20
1.672877
30
0.0
11
2.137500
21
1.669988
31
0.0
0
LINE
8
TOP
10
2.137500
20
1.669988
30
0.0
11
2.250000
21
1.667099
31
0.0
0
LINE
8
TOP
10
2.250000
20
1.667099
30
0.0
11
2.362500
21
1.664210
31
0.0
0
LINE
8
TOP
10
2.362500
20
1.664210
30
0.0
11
2.475000
21
1.661320
31
0.0
0
LINE
8
TOP
10
2.475000
20
1.661320
30
0.0
11
2.587500
21
1.658431
31
0.0
0
LINE
8
TOP
10
2.587500
20
1.658431
30
0.0
11
2.700000
21
1.655542
31
0.0
0
LINE
8
TOP
10
2.700000
20
1.655542
30
0.0
11
2.812500
21
1.652652
31
0.0
0
LINE
8
TOP
10
2.812500
20
1.652652
30
0.0
11
2.925000
21
1.649763
31
0.0
0
LINE
8
TOP
10
2.925000
20
1.649763
30
0.0
11
3.037500
21
1.646874
31
0.0
0
LINE
8
TOP
10
3.037500
20
1.646874
30
0.0
11
3.150000
21
1.643984
31
0.0
0
LINE
8
TOP
10
3.150000
20
1.643984
30
0.0
11
3.262500
21
1.641095
31
0.0
0
LINE
8
TOP
10
3.262500
20
1.641095
30
0.0
11
3.375000
21
1.638206
31
0.0
0
LINE
8
TOP
10
3.375000
20
1.638206
30
0.0
11
3.487500
21
1.635317
31
0.0
0
LINE
8
TOP
10
3.487500
20
1.635317
30
0.0
11
3.600000
21
1.632427
31
0.0
0
LINE
8
TOP
10
3.600000
20
1.632427
30
0.0
11
3.712500
21
1.629538
31
0.0
0
LINE
8
TOP
10
3.712500
20
1.629538
30
0.0
11
3.825000
21
1.626649
31
0.0
0
LINE
8
TOP
10
3.825000
20
1.626649
30
0.0
11
3.937500
21
1.623759
31
0.0
0
LINE
8
TOP
10
3.937500
20
1.623759
30
0.0
11
4.050000
21
1.620870
31
0.0
0
LINE
8
TOP
10
4.050000
20
1.620870
30
0.0
11
4.162500
21
1.617981
31
0.0
0
LINE
8
TOP
10
4.162500
20
1.617981
30
0.0
11
4.275000
21
1.615092
31
0.0
0
LINE
8
TOP
10
4.275000
20
1.615092
30
0.0
11
4.387500
21
1.612202
31
0.0
0
LINE
8
TOP
10
4.387500
20
1.612202
30
0.0
11
4.500000
21
1.609313
31
0.0
0
LINE
8
TOP
10
4.500000
20
1.609313
30
0.0
11
4.612500
21
1.612202
31
0.0
0
LINE
8
TOP
10
4.612500
20
1.612202
30
0.0
11
4.725000
21
1.615092
31
0.0
0
LINE
8
TOP
10
4.725000
20
1.615092
30
0.0
11
4.837500
21
1.617981
31
0.0
0
LINE
8
TOP
10
4.837500
20
1.617981
30
0.0
11
4.950000
21
1.620870
31
0.0
0
LINE
8
TOP
10
4.950000
20
1.620870
30
0.0
11
5.062500
21
1.623759
31
0.0
0
LINE
8
TOP
10
5.062500
20
1.623759
30
0.0
11
5.175000
21
1.626649
31
0.0
0
LINE
8
TOP
10
5.175000
20
1.626649
30
0.0
11
5.287500
21
1.629538
31
0.0
0
LINE
8
TOP
10
5.287500
20
1.629538
30
0.0
11
5.400000
21
1.632427
31
0.0
0
LINE
8
TOP
10
5.400000
20
1.632427
30
0.0
11
5.512500
21
1.635317
31
0.0
0
LINE
8
TOP
10
5.512500
20
1.635317
30
0.0
11
5.625000
21
1.638206
31
0.0
0
LINE
8
TOP
10
5.625000
20
1.638206
30
0.0
11
5.737500
21
1.641095
31
0.0
0
LINE
8
TOP
10
5.737500
20
1.641095
30
0.0
11
5.850000
21
1.643984
31
0.0
0
LINE
8
TOP
10
5.850000
20
1.643984
30
0.0
11
5.962500
21
1.646874
31
0.0
0
LINE
8
TOP
10
5.962500
20
1.646874
30
0.0
11
6.075000
21
1.649763
31
0.0
0
LINE
8
TOP
10
6.075000
20
1.649763
30
0.0
11
6.187500
21
1.652652
31
0.0
0
LINE
8
TOP
10
6.187500
20
1.652652
30
0.0
11
6.300000
21
1.655542
31
0.0
0
LINE
8
TOP
10
6.300000
20
1.655542
30
0.0
11
6.412500
21
1.658431
31
0.0
0
LINE
8
TOP
10
6.412500
20
1.658431
30
0.0
11
6.525000
21
1.661320
31
0.0
0
LINE
8
TOP
10
6.525000
20
1.661320
30
0.0
11
6.637500
21
1.664210
31
0.0
0
LINE
8
TOP
10
6.637500
20
1.664210
30
0.0
11
6.750000
21
1.667099
31
0.0
0
LINE
8
TOP
10
6.750000
20
1.667099
30
0.0
11
6.862500
21
1.669988
31
0.0
0
LINE
8
TOP
10
6.862500
20
1.669988
30
0.0
11
6.975000
21
1.672877
31
0.0
0
LINE
8
TOP
10
6.975000
20
1.672877
30
0.0
11
7.087500
21
1.675767
31
0.0
0
LINE
8
TOP
10
7.087500
20
1.675767
30
0.0
11
7.200000
21
1.678656
31
0.0
0
LINE
8
TOP
10
7.200000
20
1.678656
30
0.0
11
7.312500
21
1.681545
31
0.0
0
LINE
8
TOP
10
7.312500
20
1.681545
30
0.0
11
7.425000
21
1.684435
31
0.0
0
LINE
8
TOP
10
7.425000
20
1.684435
30
0.0
11
7.537500
21
1.687324
31
0.0
0
LINE
8
TOP
10
7.537500
20
1.687324
30
0.0
11
7.650000
21
1.690213
31
0.0
0
LINE
8
TOP
10
7.650000
20
1.690213
30
0.0
11
7.762500
21
1.693102
31
0.0
0
LINE
8
TOP
10
7.762500
20
1.693102
30
0.0
11
7.875000
21
1.695992
31
0.0
0
LINE
8
TOP
10
7.875000
20
1.695992
30
0.0
11
7.987500
21
1.698881
31
0.0
0
LINE
8
TOP
10
7.987500
20
1.698881
30
0.0
11
8.100000
21
1.701770
31
0.0
0
LINE
8
TOP
10
8.100000
20
1.701770
30
0.0
11
8.212500
21
1.704660
31
0.0
0
LINE
8
TOP
10
8.212500
20
1.704660
30
0.0
11
8.325000
21
1.707549
31
0.0
0
LINE
8
TOP
10
8.325000
20
1.707549
30
0.0
11
8.437500
21
1.710438
31
0.0
0
LINE
8
TOP
10
8.437500
20
1.710438
30
0.0
11
8.500000
21
1.712043
31
0.0
0
LINE
8
TOP
10
8.500000
20
1.712043
30
0.0
11
8.550000
21
1.713328
31
0.0
0
LINE
8
TOP
10
8.550000
20
1.713328
30
0.0
11
8.662500
21
1.716217
31
0.0
0
LINE
8
TOP
10
8.662500
20
1.716217
30
0.0
11
8.775000
21
1.719106
31
0.0
0
LINE
8
TOP
10
8.775000
20
1.719106
30
0.0
11
8.887500
21
1.721995
31
0.0
0
LINE
8
TOP
10
8.887500
20
1.721995
30
0.0
11
9.000000
21
1.724885
31
0.0
0
LINE
8
TOP
10
0.000000
20
2.037166
30
0.0
11
0.000000
21
1.724885
31
0.0
0
LINE
8
TOP
10
9.000000
20
2.037166
30
0.0
11
9.000000
21
1.724885
31
0.0
0
LINE
8
SECTION
10
10.228288
20
-0.377008
30
0.0
11
10.771712
21
-0.377008
31
0.0
0
LINE
8
SECTION
10
10.771712
20
-0.377008
30
0.0
11
10.771712
21
0.377008
31
0.0
0
LINE
8
SECTION
10
10.771712
20
0.377008
30
0.0
11
10.228288
21
0.377008
31
0.0
0
LINE
8
SECTION
10
10.228288
20
0.377008
30
0.0
11
10.228288
21
-0.377008
31
0.0
0
LINE
8
SECTION
10
10.268288
20
-0.337008
30
0.0
11
10.731712
21
-0.337008
31
0.0
0
LINE
8
SECTION
10
10.731712
20
-0.337008
30
0.0
11
10.731712
21
0.337008
31
0.0
0
LINE
8
SECTION
10
10.731712
20
0.337008
30
0.0
11
10.268288
21
0.337008
31
0.0
0
LINE
8
SECTION
10
10.268288
20
0.337008
30
0.0
11
10.268288
21
-0.337008
31
0.0
0
LINE
8
SECTION
10
10.268288
20
0.245555
30
0.0
11
10.308288
21
0.245555
31
0.0
0
LINE
8
SECTION
10
10.308288
20
0.245555
30
0.0
11
10.308288
21
0.337008
31
0.0
0
LINE
8
SECTION
10
10.308288
20
0.337008
30
0.0
11
10.268288
21
0.337008
31
0.0
0
LINE
8
SECTION
10
10.268288
20
0.337008
30
0.0
11
10.268288
21
0.245555
31
0.0
0
LINE
8
SECTION
10
10.268288
20
-0.337008
30
0.0
11
10.308288
21
-0.337008
31
0.0
0
LINE
8
SECTION
10
10.308288
20
-0.337008
30
0.0
11
10.308288
21
-0.245555
31
0.0
0
LINE
8
SECTION
10
10.308288
20
-0.245555
30
0.0
11
10.268288
21
-0.245555
31
0.0
0
LINE
8
SECTION
10
10.268288
20
-0.245555
30
0.0
11
10.268288
21
-0.337008
31
0.0
0
LINE
8
SECTION
10
10.691712
20
0.245555
30
0.0
11
10.731712
21
0.245555
31
0.0
0
LINE
8
SECTION
10
10.731712
20
0.245555
30
0.0
11
10.731712
21
0.337008
31
0.0
0
LINE
8
SECTION
10
10.731712
20
0.337008
30
0.0
11
10.691712
21
0.337008
31
0.0
0
LINE
8
SECTION
10
10.691712
20
0.337008
30
0.0
11
10.691712
21
0.245555
31
0.0
0
LINE
8
SECTION
10
10.691712
20
-0.337008
30
0.0
11
10.731712
21
-0.337008
31
0.0
0
LINE
8
SECTION
10
10.731712
20
-0.337008
30
0.0
11
10.731712
21
-0.245555
31
0.0
0
LINE
8
SECTION
10
10.731712
20
-0.245555
30
0.0
11
10.691712
21
-0.245555
31
0.0
0
LINE
8
SECTION
10
10.691712
20
-0.245555
30
0.0
11
10.691712
21
-0.337008
31
0.0
0
ENDSEC
0
EOF
