0
SECTION
2
HEADER
9
$INSUNITS
70
1
0
ENDSEC
0
SECTION
2
ENTITIES
0
LINE
8
FRONT
10
0.000000
20
0.249909
30
0.0
11
0.112500
21
0.253546
31
0.0
0
LINE
8
FRONT
10
0.112500
20
0.253546
30
0.0
11
0.225000
21
0.257182
31
0.0
0
LINE
8
FRONT
10
0.225000
20
0.257182
30
0.0
11
0.337500
21
0.260819
31
0.0
0
LINE
8
FRONT
10
0.337500
20
0.260819
30
0.0
11
0.450000
21
0.264455
31
0.0
0
LINE
8
FRONT
10
0.450000
20
0.264455
30
0.0
11
0.500000
21
0.266072
31
0.0
0
LINE
8
FRONT
10
0.500000
20
0.266072
30
0.0
11
0.562500
21
0.268092
31
0.0
0
LINE
8
FRONT
10
0.562500
20
0.268092
30
0.0
11
0.675000
21
0.271728
31
0.0
0
LINE
8
FRONT
10
0.675000
20
0.271728
30
0.0
11
0.787500
21
0.275365
31
0.0
0
LINE
8
FRONT
10
0.787500
20
0.275365
30
0.0
11
0.900000
21
0.279001
31
0.0
0
LINE
8
FRONT
10
0.900000
20
0.279001
30
0.0
11
1.012500
21
0.282638
31
0.0
0
LINE
8
FRONT
10
1.012500
20
0.282638
30
0.0
11
1.125000
21
0.286274
31
0.0
0
LINE
8
FRONT
10
1.125000
20
0.286274
30
0.0
11
1.237500
21
0.289911
31
0.0
0
LINE
8
FRONT
10
1.237500
20
0.289911
30
0.0
11
1.350000
21
0.293547
31
0.0
0
LINE
8
FRONT
10
1.350000
20
0.293547
30
0.0
11
1.462500
21
0.297184
31
0.0
0
LINE
8
FRONT
10
1.462500
20
0.297184
30
0.0
11
1.575000
21
0.300820
31
0.0
0
LINE
8
FRONT
10
1.575000
20
0.300820
30
0.0
11
1.687500
21
0.304457
31
0.0
0
LINE
8
FRONT
10
1.687500
20
0.304457
30
0.0
11
1.800000
21
0.308093
31
0.0
0
LINE
8
FRONT
10
1.800000
20
0.308093
30
0.0
11
1.912500
21
0.311730
31
0.0
0
LINE
8
FRONT
10
1.912500
20
0.311730
30
0.0
11
2.025000
21
0.315366
31
0.0
0
LINE
8
FRONT
10
2.025000
20
0.315366
30
0.0
11
2.137500
21
0.319003
31
0.0
0
LINE
8
FRONT
10
2.137500
20
0.319003
30
0.0
11
2.250000
21
0.322639
31
0.0
0
LINE
8
FRONT
10
2.250000
20
0.322639
30
0.0
11
2.362500
21
0.326276
31
0.0
0
LINE
8
FRONT
10
2.362500
20
0.326276
30
0.0
11
2.475000
21
0.329912
31
0.0
0
LINE
8
FRONT
10
2.475000
20
0.329912
30
0.0
11
2.587500
21
0.333549
31
0.0
0
LINE
8
FRONT
10
2.587500
20
0.333549
30
0.0
11
2.700000
21
0.337185
31
0.0
0
LINE
8
FRONT
10
2.700000
20
0.337185
30
0.0
11
2.812500
21
0.340822
31
0.0
0
LINE
8
FRONT
10
2.812500
20
0.340822
30
0.0
11
2.925000
21
0.344458
31
0.0
0
LINE
8
FRONT
10
2.925000
20
0.344458
30
0.0
11
3.037500
21
0.348095
31
0.0
0
LINE
8
FRONT
10
3.037500
20
0.348095
30
0.0
11
3.150000
21
0.351731
31
0.0
0
LINE
8
FRONT
10
3.150000
20
0.351731
30
0.0
11
3.262500
21
0.355368
31
0.0
0
LINE
8
FRONT
10
3.262500
20
0.355368
30
0.0
11
3.375000
21
0.359004
31
0.0
0
LINE
8
FRONT
10
3.375000
20
0.359004
30
0.0
11
3.487500
21
0.362641
31
0.0
0
LINE
8
FRONT
10
3.487500
20
0.362641
30
0.0
11
3.600000
21
0.366277
31
0.0
0
LINE
8
FRONT
10
3.600000
20
0.366277
30
0.0
11
3.712500
21
0.369914
31
0.0
0
LINE
8
FRONT
10
3.712500
20
0.369914
30
0.0
11
3.825000
21
0.373550
31
0.0
0
LINE
8
FRONT
10
3.825000
20
0.373550
30
0.0
11
3.937500
21
0.377187
31
0.0
0
LINE
8
FRONT
10
3.937500
20
0.377187
30
0.0
11
4.050000
21
0.380823
31
0.0
0
LINE
8
FRONT
10
4.050000
20
0.380823
30
0.0
11
4.162500
21
0.384459
31
0.0
0
LINE
8
FRONT
10
4.162500
20
0.384459
30
0.0
11
4.275000
21
0.388096
31
0.0
0
LINE
8
FRONT
10
4.275000
20
0.388096
30
0.0
11
4.387500
21
0.391732
31
0.0
0
LINE
8
FRONT
10
4.387500
20
0.391732
30
0.0
11
4.500000
21
0.395369
31
0.0
0
LINE
8
FRONT
10
4.500000
20
0.395369
30
0.0
11
4.612500
21
0.391732
31
0.0
0
LINE
8
FRONT
10
4.612500
20
0.391732
30
0.0
11
4.725000
21
0.388096
31
0.0
0
LINE
8
FRONT
10
4.725000
20
0.388096
30
0.0
11
4.837500
21
0.384459
31
0.0
0
LINE
8
FRONT
10
4.837500
20
0.384459
30
0.0
11
4.950000
21
0.380823
31
0.0
0
LINE
8
FRONT
10
4.950000
20
0.380823
30
0.0
11
5.062500
21
0.377187
31
0.0
0
LINE
8
FRONT
10
5.062500
20
0.377187
30
0.0
11
5.175000
21
0.373550
31
0.0
0
LINE
8
FRONT
10
5.175000
20
0.373550
30
0.0
11
5.287500
21
0.369914
31
0.0
0
LINE
8
FRONT
10
5.287500
20
0.369914
30
0.0
11
5.400000
21
0.366277
31
0.0
0
LINE
8
FRONT
10
5.400000
20
0.366277
30
0.0
11
5.512500
21
0.362641
31
0.0
0
LINE
8
FRONT
10
5.512500
20
0.362641
30
0.0
11
5.625000
21
0.359004
31
0.0
0
LINE
8
FRONT
10
5.625000
20
0.359004
30
0.0
11
5.737500
21
0.355368
31
0.0
0
LINE
8
FRONT
10
5.737500
20
0.355368
30
0.0
11
5.850000
21
0.351731
31
0.0
0
LINE
8
FRONT
10
5.850000
20
0.351731
30
0.0
11
5.962500
21
0.348095
31
0.0
0
LINE
8
FRONT
10
5.962500
20
0.348095
30
0.0
11
6.075000
21
0.344458
31
0.0
0
LINE
8
FRONT
10
6.075000
20
0.344458
30
0.0
11
6.187500
21
0.340822
31
0.0
0
LINE
8
FRONT
10
6.187500
20
0.340822
30
0.0
11
6.300000
21
0.337185
31
0.0
0
LINE
8
FRONT
10
6.300000
20
0.337185
30
0.0
11
6.412500
21
0.333549
31
0.0
0
LINE
8
FRONT
10
6.412500
20
0.333549
30
0.0
11
6.525000
21
0.329912
31
0.0
0
LINE
8
FRONT
10
6.525000
20
0.329912
30
0.0
11
6.637500
21
0.326276
31
0.0
0
LINE
8
FRONT
10
6.637500
20
0.326276
30
0.0
11
6.750000
21
0.322639
31
0.0
0
LINE
8
FRONT
10
6.750000
20
0.322639
30
0.0
11
6.862500
21
0.319003
31
0.0
0
LINE
8
FRONT
10
6.862500
20
0.319003
30
0.0
11
6.975000
21
0.315366
31
0.0
0
LINE
8
FRONT
10
6.975000
20
0.315366
30
0.0
11
7.087500
21
0.311730
31
0.0
0
LINE
8
FRONT
10
7.087500
20
0.311730
30
0.0
11
7.200000
21
0.308093
31
0.0
0
LINE
8
FRONT
10
7.200000
20
0.308093
30
0.0
11
7.312500
21
0.304457
31
0.0
0
LINE
8
FRONT
10
7.312500
20
0.304457
30
0.0
11
7.425000
21
0.300820
31
0.0
0
LINE
8
FRONT
10
7.425000
20
0.300820
30
0.0
11
7.537500
21
0.297184
31
0.0
0
LINE
8
FRONT
10
7.537500
20
0.297184
30
0.0
11
7.650000
21
0.293547
31
0.0
0
LINE
8
FRONT
10
7.650000
20
0.293547
30
0.0
11
7.762500
21
0.289911
31
0.0
0
LINE
8
FRONT
10
7.762500
20
0.289911
30
0.0
11
7.875000
21
0.286274
31
0.0
0
LINE
8
FRONT
10
7.875000
20
0.286274
30
0.0
11
7.987500
21
0.282638
31
0.0
0
LINE
8
FRONT
10
7.987500
20
0.282638
30
0.0
11
8.100000
21
0.279001
31
0.0
0
LINE
8
FRONT
10
8.100000
20
0.279001
30
0.0
11
8.212500
21
0.275365
31
0.0
0
LINE
8
FRONT
10
8.212500
20
0.275365
30
0.0
11
8.325000
21
0.271728
31
0.0
0
LINE
8
FRONT
10
8.325000
20
0.271728
30
0.0
11
8.437500
21
0.268092
31
0.0
0
LINE
8
FRONT
10
8.437500
20
0.268092
30
0.0
11
8.500000
21
0.266072
31
0.0
0
LINE
8
FRONT
10
8.500000
20
0.266072
30
0.0
11
8.550000
21
0.264455
31
0.0
0
LINE
8
FRONT
10
8.550000
20
0.264455
30
0.0
11
8.662500
21
0.260819
31
0.0
0
LINE
8
FRONT
10
8.662500
20
0.260819
30
0.0
11
8.775000
21
0.257182
31
0.0
0
LINE
8
FRONT
10
8.775000
20
0.257182
30
0.0
11
8.887500
21
0.253546
31
0.0
0
LINE
8
FRONT
10
8.887500
20
0.253546
30
0.0
11
9.000000
21
0.249909
31
0.0
0
LINE
8
FRONT
10
0.000000
20
-0.249909
30
0.0
11
0.112500
21
-0.253546
31
0.0
0
LINE
8
FRONT
10
0.112500
20
-0.253546
30
0.0
11
0.225000
21
-0.257182
31
0.0
0
LINE
8
FRONT
10
0.225000
20
-0.257182
30
0.0
11
0.337500
21
-0.260819
31
0.0
0
LINE
8
FRONT
10
0.337500
20
-0.260819
30
0.0
11
0.450000
21
-0.264455
31
0.0
0
LINE
8
FRONT
10
0.450000
20
-0.264455
30
0.0
11
0.500000
21
-0.266072
31
0.0
0
LINE
8
FRONT
10
0.500000
20
-0.266072
30
0.0
11
0.562500
21
-0.268092
31
0.0
0
LINE
8
FRONT
10
0.562500
20
-0.268092
30
0.0
11
0.675000
21
-0.271728
31
0.0
0
LINE
8
FRONT
10
0.675000
20
-0.271728
30
0.0
11
0.787500
21
-0.275365
31
0.0
0
LINE
8
FRONT
10
0.787500
20
-0.275365
30
0.0
11
0.900000
21
-0.279001
31
0.0
0
LINE
8
FRONT
10
0.900000
20
-0.279001
30
0.0
11
1.012500
21
-0.282638
31
0.0
0
LINE
8
FRONT
10
1.012500
20
-0.282638
30
0.0
11
1.125000
21
-0.286274
31
0.0
0
LINE
8
FRONT
10
1.125000
20
-0.286274
30
0.0
11
1.237500
21
-0.289911
31
0.0
0
LINE
8
FRONT
10
1.237500
20
-0.289911
30
0.0
11
1.350000
21
-0.293547
31
0.0
0
LINE
8
FRONT
10
1.350000
20
-0.293547
30
0.0
11
1.462500
21
-0.297184
31
0.0
0
LINE
8
FRONT
10
1.462500
20
-0.297184
30
0.0
11
1.575000
21
-0.300820
31
0.0
0
LINE
8
FRONT
10
1.575000
20
-0.300820
30
0.0
11
1.687500
21
-0.304457
31
0.0
0
LINE
8
FRONT
10
1.687500
20
-0.304457
30
0.0
11
1.800000
21
-0.308093
31
0.0
0
LINE
8
FRONT
10
1.800000
20
-0.308093
30
0.0
11
1.912500
21
-0.311730
31
0.0
0
LINE
8
FRONT
10
1.912500
20
-0.311730
30
0.0
11
2.025000
21
-0.315366
31
0.0
0
LINE
8
FRONT
10
2.025000
20
-0.315366
30
0.0
11
2.137500
21
-0.319003
31
0.0
0
LINE
8
FRONT
10
2.137500
20
-0.319003
30
0.0
11
2.250000
21
-0.322639
31
0.0
0
LINE
8
FRONT
10
2.250000
20
-0.322639
30
0.0
11
2.362500
21
-0.326276
31
0.0
0
LINE
8
FRONT
10
2.362500
20
-0.326276
30
0.0
11
2.475000
21
-0.329912
31
0.0
0
LINE
8
FRONT
10
2.475000
20
-0.329912
30
0.0
11
2.587500
21
-0.333549
31
0.0
0
LINE
8
FRONT
10
2.587500
20
-0.333549
30
0.0
11
2.700000
21
-0.337185
31
0.0
0
LINE
8
FRONT
10
2.700000
20
-0.337185
30
0.0
11
2.812500
21
-0.340822
31
0.0
0
LINE
8
FRONT
10
2.812500
20
-0.340822
30
0.0
11
2.925000
21
-0.344458
31
0.0
0
LINE
8
FRONT
10
2.925000
20
-0.344458
30
0.0
11
3.037500
21
-0.348095
31
0.0
0
LINE
8
FRONT
10
3.037500
20
-0.348095
30
0.0
11
3.150000
21
-0.351731
31
0.0
0
LINE
8
FRONT
10
3.150000
20
-0.351731
30
0.0
11
3.262500
21
-0.355368
31
0.0
0
LINE
8
FRONT
10
3.262500
20
-0.355368
30
0.0
11
3.375000
21
-0.359004
31
0.0
0
LINE
8
FRONT
10
3.375000
20
-0.359004
30
0.0
11
3.487500
21
-0.362641
31
0.0
0
LINE
8
FRONT
10
3.487500
20
-0.362641
30
0.0
11
3.600000
21
-0.366277
31
0.0
0
LINE
8
FRONT
10
3.600000
20
-0.366277
30
0.0
11
3.712500
21
-0.369914
31
0.0
0
LINE
8
FRONT
10
3.712500
20
-0.369914
30
0.0
11
3.825000
21
-0.373550
31
0.0
0
LINE
8
FRONT
10
3.825000
20
-0.373550
30
0.0
11
3.937500
21
-0.377187
31
0.0
0
LINE
8
FRONT
10
3.937500
20
-0.377187
30
0.0
11
4.050000
21
-0.380823
31
0.0
0
LINE
8
FRONT
10
4.050000
20
-0.380823
30
0.0
11
4.162500
21
-0.384459
31
0.0
0
LINE
8
FRONT
10
4.162500
20
-0.384459
30
0.0
11
4.275000
21
-0.388096
31
0.0
0
LINE
8
FRONT
10
4.275000
20
-0.388096
30
0.0
11
4.387500
21
-0.391732
31
0.0
0
LINE
8
FRONT
10
4.387500
20
-0.391732
30
0.0
11
4.500000
21
-0.395369
31
0.0
0
LINE
8
FRONT
10
4.500000
20
-0.395369
30
0.0
11
4.612500
21
-0.391732
31
0.0
0
LINE
8
FRONT
10
4.612500
20
-0.391732
30
0.0
11
4.725000
21
-0.388096
31
0.0
0
LINE
8
FRONT
10
4.725000
20
-0.388096
30
0.0
11
4.837500
21
-0.384459
31
0.0
0
LINE
8
FRONT
10
4.837500
20
-0.384459
30
0.0
11
4.950000
21
-0.380823
31
0.0
0
LINE
8
FRONT
10
4.950000
20
-0.380823
30
0.0
11
5.062500
21
-0.377187
31
0.0
0
LINE
8
FRONT
10
5.062500
20
-0.377187
30
0.0
11
5.175000
21
-0.373550
31
0.0
0
LINE
8
FRONT
10
5.175000
20
-0.373550
30
0.0
11
5.287500
21
-0.369914
31
0.0
0
LINE
8
FRONT
10
5.287500
20
-0.369914
30
0.0
11
5.400000
21
-0.366277
31
0.0
0
LINE
8
FRONT
10
5.400000
20
-0.366277
30
0.0
11
5.512500
21
-0.362641
31
0.0
0
LINE
8
FRONT
10
5.512500
20
-0.362641
30
0.0
11
5.625000
21
-0.359004
31
0.0
0
LINE
8
FRONT
10
5.625000
20
-0.359004
30
0.0
11
5.737500
21
-0.355368
31
0.0
0
LINE
8
FRONT
10
5.737500
20
-0.355368
30
0.0
11
5.850000
21
-0.351731
31
0.0
0
LINE
8
FRONT
10
5.850000
20
-0.351731
30
0.0
11
5.962500
21
-0.348095
31
0.0
0
LINE
8
FRONT
10
5.962500
20
-0.348095
30
0.0
11
6.075000
21
-0.344458
31
0.0
0
LINE
8
FRONT
10
6.075000
20
-0.344458
30
0.0
11
6.187500
21
-0.340822
31
0.0
0
LINE
8
FRONT
10
6.187500
20
-0.340822
30
0.0
11
6.300000
21
-0.337185
31
0.0
0
LINE
8
FRONT
10
6.300000
20
-0.337185
30
0.0
11
6.412500
21
-0.333549
31
0.0
0
LINE
8
FRONT
10
6.412500
20
-0.333549
30
0.0
11
6.525000
21
-0.329912
31
0.0
0
LINE
8
FRONT
10
6.525000
20
-0.329912
30
0.0
11
6.637500
21
-0.326276
31
0.0
0
LINE
8
FRONT
10
6.637500
20
-0.326276
30
0.0
11
6.750000
21
-0.322639
31
0.0
0
LINE
8
FRONT
10
6.750000
20
-0.322639
30
0.0
11
6.862500
21
-0.319003
31
0.0
0
LINE
8
FRONT
10
6.862500
20
-0.319003
30
0.0
11
6.975000
21
-0.315366
31
0.0
0
LINE
8
FRONT
10
6.975000
20
-0.315366
30
0.0
11
7.087500
21
-0.311730
31
0.0
0
LINE
8
FRONT
10
7.087500
20
-0.311730
30
0.0
11
7.200000
21
-0.308093
31
0.0
0
LINE
8
FRONT
10
7.200000
20
-0.308093
30
0.0
11
7.312500
21
-0.304457
31
0.0
0
LINE
8
FRONT
10
7.312500
20
-0.304457
30
0.0
11
7.425000
21
-0.300820
31
0.0
0
LINE
8
FRONT
10
7.425000
20
-0.300820
30
0.0
11
7.537500
21
-0.297184
31
0.0
0
LINE
8
FRONT
10
7.537500
20
-0.297184
30
0.0
11
7.650000
21
-0.293547
31
0.0
0
LINE
8
FRONT
10
7.650000
20
-0.293547
30
0.0
11
7.762500
21
-0.289911
31
0.0
0
LINE
8
FRONT
10
7.762500
20
-0.289911
30
0.0
11
7.875000
21
-0.286274
31
0.0
0
LINE
8
FRONT
10
7.875000
20
-0.286274
30
0.0
11
7.987500
21
-0.282638
31
0.0
0
LINE
8
FRONT
10
7.987500
20
-0.282638
30
0.0
11
8.100000
21
-0.279001
31
0.0
0
LINE
8
FRONT
10
8.100000
20
-0.279001
30
0.0
11
8.212500
21
-0.275365
31
0.0
0
LINE
8
FRONT
10
8.212500
20
-0.275365
30
0.0
11
8.325000
21
-0.271728
31
0.0
0
LINE
8
FRONT
10
8.325000
20
-0.271728
30
0.0
11
8.437500
21
-0.268092
31
0.0
0
LINE
8
FRONT
10
8.437500
20
-0.268092
30
0.0
11
8.500000
21
-0.266072
31
0.0
0
LINE
8
FRONT
10
8.500000
20
-0.266072
30
0.0
11
8.550000
21
-0.264455
31
0.0
0
LINE
8
FRONT
10
8.550000
20
-0.264455
30
0.0
11
8.662500
21
-0.260819
31
0.0
0
LINE
8
FRONT
10
8.662500
20
-0.260819
30
0.0
11
8.775000
21
-0.257182
31
0.0
0
LINE
8
FRONT
10
8.775000
20
-0.257182
30
0.0
11
8.887500
21
-0.253546
31
0.0
0
LINE
8
FRONT
10
8.887500
20
-0.253546
30
0.0
11
9.000000
21
-0.249909
31
0.0
0
LINE
8
FRONT
10
0.000000
20
0.249909
30
0.0
11
0.000000
21
-0.249909
31
0.0
0
LINE
8
FRONT
10
9.000000
20
0.249909
30
0.0
11
9.000000
21
-0.249909
31
0.0
0
LINE
8
TOP
10
0.000000
20
2.101960
30
0.0
11
0.112500
21
2.103998
31
0.0
0
LINE
8
TOP
10
0.112500
20
2.103998
30
0.0
11
0.225000
21
2.106036
31
0.0
0
LINE
8
TOP
10
0.225000
20
2.106036
30
0.0
11
0.337500
21
2.108074
31
0.0
0
LINE
8
TOP
10
0.337500
20
2.108074
30
0.0
11
0.450000
21
2.110112
31
0.0
0
LINE
8
TOP
10
0.450000
20
2.110112
30
0.0
11
0.500000
21
2.111018
31
0.0
0
LINE
8
TOP
10
0.500000
20
2.111018
30
0.0
11
0.562500
21
2.112150
31
0.0
0
LINE
8
TOP
10
0.562500
20
2.112150
30
0.0
11
0.675000
21
2.114188
31
0.0
0
LINE
8
TOP
10
0.675000
20
2.114188
30
0.0
11
0.787500
21
2.116225
31
0.0
0
LINE
8
TOP
10
0.787500
20
2.116225
30
0.0
11
0.900000
21
2.118263
31
0.0
0
LINE
8
TOP
10
0.900000
20
2.118263
30
0.0
11
1.012500
21
2.120301
31
0.0
0
LINE
8
TOP
10
1.012500
20
2.120301
30
0.0
11
1.125000
21
2.122339
31
0.0
0
LINE
8
TOP
10
1.125000
20
2.122339
30
0.0
11
1.237500
21
2.124377
31
0.0
0
LINE
8
TOP
10
1.237500
20
2.124377
30
0.0
11
1.350000
21
2.126415
31
0.0
0
LINE
8
TOP
10
1.350000
20
2.126415
30
0.0
11
1.462500
21
2.128453
31
0.0
0
LINE
8
TOP
10
1.462500
20
2.128453
30
0.0
11
1.575000
21
2.130491
31
0.0
0
LINE
8
TOP
10
1.575000
20
2.130491
30
0.0
11
1.687500
21
2.132529
31
0.0
0
LINE
8
TOP
10
1.687500
20
2.132529
30
0.0
11
1.800000
21
2.134566
31
0.0
0
LINE
8
TOP
10
1.800000
20
2.134566
30
0.0
11
1.912500
21
2.136604
31
0.0
0
LINE
8
TOP
10
1.912500
20
2.136604
30
0.0
11
2.025000
21
2.138642
31
0.0
0
LINE
8
TOP
10
2.025000
20
2.138642
30
0.0
11
2.137500
21
2.140680
31
0.0
0
LINE
8
TOP
10
2.137500
20
2.140680
30
0.0
11
2.250000
21
2.142718
31
0.0
0
LINE
8
TOP
10
2.250000
20
2.142718
30
0.0
11
2.362500
21
2.144756
31
0.0
0
LINE
8
TOP
10
2.362500
20
2.144756
30
0.0
11
2.475000
21
2.146794
31
0.0
0
LINE
8
TOP
10
2.475000
20
2.146794
30
0.0
11
2.587500
21
2.148832
31
0.0
0
LINE
8
TOP
10
2.587500
20
2.148832
30
0.0
11
2.700000
21
2.150870
31
0.0
0
LINE
8
TOP
10
2.700000
20
2.150870
30
0.0
11
2.812500
21
2.152907
31
0.0
0
LINE
8
TOP
10
2.812500
20
2.152907
30
0.0
11
2.925000
21
2.154945
31
0.0
0
LINE
8
TOP
10
2.925000
20
2.154945
30
0.0
11
3.037500
21
2.156983
31
0.0
0
LINE
8
TOP
10
3.037500
20
2.156983
30
0.0
11
3.150000
21
2.159021
31
0.0
0
LINE
8
TOP
10
3.150000
20
2.159021
30
0.0
11
3.262500
21
2.161059
31
0.0
0
LINE
8
TOP
10
3.262500
20
2.161059
30
0.0
11
3.375000
21
2.163097
31
0.0
0
LINE
8
TOP
10
3.375000
20
2.163097
30
0.0
11
3.487500
21
2.165135
31
0.0
0
LINE
8
TOP
10
3.487500
20
2.165135
30
0.0
11
3.600000
21
2.167173
31
0.0
0
LINE
8
TOP
10
3.600000
20
2.167173
30
0.0
11
3.712500
21
2.169211
31
0.0
0
LINE
8
TOP
10
3.712500
20
2.169211
30
0.0
11
3.825000
21
2.171248
31
0.0
0
LINE
8
TOP
10
3.825000
20
2.171248
30
0.0
11
3.937500
21
2.173286
31
0.0
0
LINE
8
TOP
10
3.937500
20
2.173286
30
0.0
11
4.050000
21
2.175324
31
0.0
0
LINE
8
TOP
10
4.050000
20
2.175324
30
0.0
11
4.162500
21
2.177362
31
0.0
0
LINE
8
TOP
10
4.162500
20
2.177362
30
0.0
11
4.275000
21
2.179400
31
0.0
0
LINE
8
TOP
10
4.275000
20
2.179400
30
0.0
11
4.387500
21
2.181438
31
0.0
0
LINE
8
TOP
10
4.387500
20
2.181438
30
0.0
11
4.500000
21
2.183476
31
0.0
0
LINE
8
TOP
10
4.500000
20
2.183476
30
0.0
11
4.612500
21
2.181438
31
0.0
0
LINE
8
TOP
10
4.612500
20
2.181438
30
0.0
11
4.725000
21
2.179400
31
0.0
0
LINE
8
TOP
10
4.725000
20
2.179400
30
0.0
11
4.837500
21
2.177362
31
0.0
0
LINE
8
TOP
10
4.837500
20
2.177362
30
0.0
11
4.950000
21
2.175324
31
0.0
0
LINE
8
TOP
10
4.950000
20
2.175324
30
0.0
11
5.062500
21
2.173286
31
0.0
0
LINE
8
TOP
10
5.062500
20
2.173286
30
0.0
11
5.175000
21
2.171248
31
0.0
0
LINE
8
TOP
10
5.175000
20
2.171248
30
0.0
11
5.287500
21
2.169211
31
0.0
0
LINE
8
TOP
10
5.287500
20
2.169211
30
0.0
11
5.400000
21
2.167173
31
0.0
0
LINE
8
TOP
10
5.400000
20
2.167173
30
0.0
11
5.512500
21
2.165135
31
0.0
0
LINE
8
TOP
10
5.512500
20
2.165135
30
0.0
11
5.625000
21
2.163097
31
0.0
0
LINE
8
TOP
10
5.625000
20
2.163097
30
0.0
11
5.737500
21
2.161059
31
0.0
0
LINE
8
TOP
10
5.737500
20
2.161059
30
0.0
11
5.850000
21
2.159021
31
0.0
0
LINE
8
TOP
10
5.850000
20
2.159021
30
0.0
11
5.962500
21
2.156983
31
0.0
0
LINE
8
TOP
10
5.962500
20
2.156983
30
0.0
11
6.075000
21
2.154945
31
0.0
0
LINE
8
TOP
10
6.075000
20
2.154945
30
0.0
11
6.187500
21
2.152907
31
0.0
0
LINE
8
TOP
10
6.187500
20
2.152907
30
0.0
11
6.300000
21
2.150870
31
0.0
0
LINE
8
TOP
10
6.300000
20
2.150870
30
0.0
11
6.412500
21
2.148832
31
0.0
0
LINE
8
TOP
10
6.412500
20
2.148832
30
0.0
11
6.525000
21
2.146794
31
0.0
0
LINE
8
TOP
10
6.525000
20
2.146794
30
0.0
11
6.637500
21
2.144756
31
0.0
0
LINE
8
TOP
10
6.637500
20
2.144756
30
0.0
11
6.750000
21
2.142718
31
0.0
0
LINE
8
TOP
10
6.750000
20
2.142718
30
0.0
11
6.862500
21
2.140680
31
0.0
0
LINE
8
TOP
10
6.862500
20
2.140680
30
0.0
11
6.975000
21
2.138642
31
0.0
0
LINE
8
TOP
10
6.975000
20
2.138642
30
0.0
11
7.087500
21
2.136604
31
0.0
0
LINE
8
TOP
10
7.087500
20
2.136604
30
0.0
11
7.200000
21
2.134566
31
0.0
0
LINE
8
TOP
10
7.200000
20
2.134566
30
0.0
11
7.312500
21
2.132529
31
0.0
0
LINE
8
TOP
10
7.312500
20
2.132529
30
0.0
11
7.425000
21
2.130491
31
0.0
0
LINE
8
TOP
10
7.425000
20
2.130491
30
0.0
11
7.537500
21
2.128453
31
0.0
0
LINE
8
TOP
10
7.537500
20
2.128453
30
0.0
11
7.650000
21
2.126415
31
0.0
0
LINE
8
TOP
10
7.650000
20
2.126415
30
0.0
11
7.762500
21
2.124377
31
0.0
0
LINE
8
TOP
10
7.762500
20
2.124377
30
0.0
11
7.875000
21
2.122339
31
0.0
0
LINE
8
TOP
10
7.875000
20
2.122339
30
0.0
11
7.987500
21
2.120301
31
0.0
0
LINE
8
TOP
10
7.987500
20
2.120301
30
0.0
11
8.100000
21
2.118263
31
0.0
0
LINE
8
TOP
10
8.100000
20
2.118263
30
0.0
11
8.212500
21
2.116225
31
0.0
0
LINE
8
TOP
10
8.212500
20
2.116225
30
0.0
11
8.325000
21
2.114188
31
0.0
0
LINE
8
TOP
10
8.325000
20
2.114188
30
0.0
11
8.437500
21
2.112150
31
0.0
0
LINE
8
TOP
10
8.437500
20
2.112150
30
0.0
11
8.500000
21
2.111018
31
0.0
0
LINE
8
TOP
10
8.500000
20
2.111018
30
0.0
11
8.550000
21
2.110112
31
0.0
0
LINE
8
TOP
10
8.550000
20
2.110112
30
0.0
11
8.662500
21
2.108074
31
0.0
0
LINE
8
TOP
10
8.662500
20
2.108074
30
0.0
11
8.775000
21
2.106036
31
0.0
0
LINE
8
TOP
10
8.775000
20
2.106036
30
0.0
11
8.887500
21
2.103998
31
0.0
0
LINE
8
TOP
10
8.887500
20
2.103998
30
0.0
11
9.000000
21
2.101960
31
0.0
0
LINE
8
TOP
10
0.000000
20
1.770254
30
0.0
11
0.112500
21
1.768216
31
0.0
0
LINE
8
TOP
10
0.112500
20
1.768216
30
0.0
11
0.225000
21
1.766178
31
0.0
0
LINE
8
TOP
10
0.225000
20
1.766178
30
0.0
11
0.337500
21
1.764140
31
0.0
0
LINE
8
TOP
10
0.337500
20
1.764140
30
0.0
11
0.450000
21
1.762102
31
0.0
0
LINE
8
TOP
10
0.450000
20
1.762102
30
0.0
11
0.500000
21
1.761196
31
0.0
0
LINE
8
TOP
10
0.500000
20
1.761196
30
0.0
11
0.562500
21
1.760064
31
0.0
0
LINE
8
TOP
10
0.562500
20
1.760064
30
0.0
11
0.675000
21
1.758026
31
0.0
0
LINE
8
TOP
10
0.675000
20
1.758026
30
0.0
11
0.787500
21
1.755988
31
0.0
0
LINE
8
TOP
10
0.787500
20
1.755988
30
0.0
11
0.900000
21
1.753950
31
0.0
0
LINE
8
TOP
10
0.900000
20
1.753950
30
0.0
11
1.012500
21
1.751913
31
0.0
0
LINE
8
TOP
10
1.012500
20
1.751913
30
0.0
11
1.125000
21
1.749875
31
0.0
0
LINE
8
TOP
10
1.125000
20
1.749875
30
0.0
11
1.237500
21
1.747837
31
0.0
0
LINE
8
TOP
10
1.237500
20
1.747837
30
0.0
11
1.350000
21
1.745799
31
0.0
0
LINE
8
TOP
10
1.350000
20
1.745799
30
0.0
11
1.462500
21
1.743761
31
0.0
0
LINE
8
TOP
10
1.462500
20
1.743761
30
0.0
11
1.575000
21
1.741723
31
0.0
0
LINE
8
TOP
10
1.575000
20
1.741723
30
0.0
11
1.687500
21
1.739685
31
0.0
0
LINE
8
TOP
10
1.687500
20
1.739685
30
0.0
11
1.800000
21
1.737647
31
0.0
0
LINE
8
TOP
10
1.800000
20
1.737647
30
0.0
11
1.912500
21
1.735609
31
0.0
0
LINE
8
TOP
10
1.912500
20
1.735609
30
0.0
11
2.025000
21
1.733572
31
0.0
0
LINE
8
TOP
10
2.025000
20
1.733572
30
0.0
11
2.137500
21
1.731534
31
0.0
0
LINE
8
TOP
10
2.137500
20
1.731534
30
0.0
11
2.250000
21
1.729496
31
0.0
0
LINE
8
TOP
10
2.250000
20
1.729496
30
0.0
11
2.362500
21
1.727458
31
0.0
0
LINE
8
TOP
10
2.362500
20
1.727458
30
0.0
11
2.475000
21
1.725420
31
0.0
0
LINE
8
TOP
10
2.475000
20
1.725420
30
0.0
11
2.587500
21
1.723382
31
0.0
0
LINE
8
TOP
10
2.587500
20
1.723382
30
0.0
11
2.700000
21
1.721344
31
0.0
0
LINE
8
TOP
10
2.700000
20
1.721344
30
0.0
11
2.812500
21
1.719306
31
0.0
0
LINE
8
TOP
10
2.812500
20
1.719306
30
0.0
11
2.925000
21
1.717268
31
0.0
0
LINE
8
TOP
10
2.925000
20
1.717268
30
0.0
11
3.037500
21
1.715231
31
0.0
0
LINE
8
TOP
10
3.037500
20
1.715231
30
0.0
11
3.150000
21
1.713193
31
0.0
0
LINE
8
TOP
10
3.150000
20
1.713193
30
0.0
11
3.262500
21
1.711155
31
0.0
0
LINE
8
TOP
10
3.262500
20
1.711155
30
0.0
11
3.375000
21
1.709117
31
0.0
0
LINE
8
TOP
10
3.375000
20
1.709117
30
0.0
11
3.487500
21
1.707079
31
0.0
0
LINE
8
TOP
10
3.487500
20
1.707079
30
0.0
11
3.600000
21
1.705041
31
0.0
0
LINE
8
TOP
10
3.600000
20
1.705041
30
0.0
11
3.712500
21
1.703003
31
0.0
0
LINE
8
TOP
10
3.712500
20
1.703003
30
0.0
11
3.825000
21
1.700965
31
0.0
0
LINE
8
TOP
10
3.825000
20
1.700965
30
0.0
11
3.937500
21
1.698927
31
0.0
0
LINE
8
TOP
10
3.937500
20
1.698927
30
0.0
11
4.050000
21
1.696890
31
0.0
0
LINE
8
TOP
10
4.050000
20
1.696890
30
0.0
11
4.162500
21
1.694852
31
0.0
0
LINE
8
TOP
10
4.162500
20
1.694852
30
0.0
11
4.275000
21
1.692814
31
0.0
0
LINE
8
TOP
10
4.275000
20
1.692814
30
0.0
11
4.387500
21
1.690776
31
0.0
0
LINE
8
TOP
10
4.387500
20
1.690776
30
0.0
11
4.500000
21
1.688738
31
0.0
0
LINE
8
TOP
10
4.500000
20
1.688738
30
0.0
11
4.612500
21
1.690776
31
0.0
0
LINE
8
TOP
10
4.612500
20
1.690776
30
0.0
11
4.725000
21
1.692814
31
0.0
0
LINE
8
TOP
10
4.725000
20
1.692814
30
0.0
11
4.837500
21
1.694852
31
0.0
0
LINE
8
TOP
10
4.837500
20
1.694852
30
0.0
11
4.950000
21
1.696890
31
0.0
0
LINE
8
TOP
10
4.950000
20
1.696890
30
0.0
11
5.062500
21
1.698927
31
0.0
0
LINE
8
TOP
10
5.062500
20
1.698927
30
0.0
11
5.175000
21
1.700965
31
0.0
0
LINE
8
TOP
10
5.175000
20
1.700965
30
0.0
11
5.287500
21
1.703003
31
0.0
0
LINE
8
TOP
10
5.287500
20
1.703003
30
0.0
11
5.400000
21
1.705041
31
0.0
0
LINE
8
TOP
10
5.400000
20
1.705041
30
0.0
11
5.512500
21
1.707079
31
0.0
0
LINE
8
TOP
10
5.512500
20
1.707079
30
0.0
11
5.625000
21
1.709117
31
0.0
0
LINE
8
TOP
10
5.625000
20
1.709117
30
0.0
11
5.737500
21
1.711155
31
0.0
0
LINE
8
TOP
10
5.737500
20
1.711155
30
0.0
11
5.850000
21
1.713193
31
0.0
0
LINE
8
TOP
10
5.850000
20
1.713193
30
0.0
11
5.962500
21
1.715231
31
0.0
0
LINE
8
TOP
10
5.962500
20
1.715231
30
0.0
11
6.075000
21
1.717268
31
0.0
0
LINE
8
TOP
10
6.075000
20
1.717268
30
0.0
11
6.187500
21
1.719306
31
0.0
0
LINE
8
TOP
10
6.187500
20
1.719306
30
0.0
11
6.300000
21
1.721344
31
0.0
0
LINE
8
TOP
10
6.300000
20
1.721344
30
0.0
11
6.412500
21
1.723382
31
0.0
0
LINE
8
TOP
10
6.412500
20
1.723382
30
0.0
11
6.525000
21
1.725420
31
0.0
0
LINE
8
TOP
10
6.525000
20
1.725420
30
0.0
11
6.637500
21
1.727458
31
0.0
0
LINE
8
TOP
10
6.637500
20
1.727458
30
0.0
11
6.750000
21
1.729496
31
0.0
0
LINE
8
TOP
10
6.750000
20
1.729496
30
0.0
11
6.862500
21
1.731534
31
0.0
0
LINE
8
TOP
10
6.862500
20
1.731534
30
0.0
11
6.975000
21
1.733572
31
0.0
0
LINE
8
TOP
10
6.975000
20
1.733572
30
0.0
11
7.087500
21
1.735609
31
0.0
0
LINE
8
TOP
10
7.087500
20
1.735609
30
0.0
11
7.200000
21
1.737647
31
0.0
0
LINE
8
TOP
10
7.200000
20
1.737647
30
0.0
11
7.312500
21
1.739685
31
0.0
0
LINE
8
TOP
10
7.312500
20
1.739685
30
0.0
11
7.425000
21
1.741723
31
0.0
0
LINE
8
TOP
10
7.425000
20
1.741723
30
0.0
11
7.537500
21
1.743761
31
0.0
0
LINE
8
TOP
10
7.537500
20
1.743761
30
0.0
11
7.650000
21
1.745799
31
0.0
0
LINE
8
TOP
10
7.650000
20
1.745799
30
0.0
11
7.762500
21
1.747837
31
0.0
0
LINE
8
TOP
10
7.762500
20
1.747837
30
0.0
11
7.875000
21
1.749875
31
0.0
0
LINE
8
TOP
10
7.875000
20
1.749875
30
0.0
11
7.987500
21
1.751913
31
0.0
0
LINE
8
TOP
10
7.987500
20
1.751913
30
0.0
11
8.100000
21
1.753950
31
0.0
0
LINE
8
TOP
10
8.100000
20
1.753950
30
0.0
11
8.212500
21
1.755988
31
0.0
0
LINE
8
TOP
10
8.212500
20
1.755988
30
0.0
11
8.325000
21
1.758026
31
0.0
0
LINE
8
TOP
10
8.325000
20
1.758026
30
0.0
11
8.437500
21
1.760064
31
0.0
0
LINE
8
TOP
10
8.437500
20
1.760064
30
0.0
11
8.500000
21
1.761196
31
0.0
0
LINE
8
TOP
10
8.500000
20
1.761196
30
0.0
11
8.550000
21
1.762102
31
0.0
0
LINE
8
TOP
10
8.550000
20
1.762102
30
0.0
11
8.662500
21
1.764140
31
0.0
0
LINE
8
TOP
10
8.662500
20
1.764140
30
0.0
11
8.775000
21
1.766178
31
0.0
0
LINE
8
TOP
10
8.775000
20
1.766178
30
0.0
11
8.887500
21
1.768216
31
0.0
0
LINE
8
TOP
10
8.887500
20
1.768216
30
0.0
11
9.000000
21
1.770254
31
0.0
0
LINE
8
TOP
10
0.000000
20
2.101960
30
0.0
11
0.000000
21
1.770254
31
0.0
0
LINE
8
TOP
10
9.000000
20
2.101960
30
0.0
11
9.000000
21
1.770254
31
0.0
0
LINE
8
SECTION
10
10.252631
20
-0.395369
30
0.0
11
10.747369
21
-0.395369
31
0.0
0
LINE
8
SECTION
10
10.747369
20
-0.395369
30
0.0
11
10.747369
21
0.395369
31
0.0
0
LINE
8
SECTION
10
10.747369
20
0.395369
30
0.0
11
10.252631
21
0.395369
31
0.0
0
LINE
8
SECTION
10
10.252631
20
0.395369
30
0.0
11
10.252631
21
-0.395369
31
0.0
0
LINE
8
SECTION
10
10.292631
20
-0.355369
30
0.0
11
10.707369
21
-0.355369
31
0.0
0
LINE
8
SECTION
10
10.707369
20
-0.355369
30
0.0
11
10.707369
21
0.355369
31
0.0
0
LINE
8
SECTION
10
10.707369
20
0.355369
30
0.0
11
10.292631
21
0.355369
31
0.0
0
LINE
8
SECTION
10
10.292631
20
0.355369
30
0.0
11
10.292631
21
-0.355369
31
0.0
0
LINE
8
SECTION
10
10.292631
20
0.237491
30
0.0
11
10.332631
21
0.237491
31
0.0
0
LINE
8
SECTION
10
10.332631
20
0.237491
30
0.0
11
10.332631
21
0.355369
31
0.0
0
LINE
8
SECTION
10
10.332631
20
0.355369
30
0.0
11
10.292631
21
0.355369
31
0.0
0
LINE
8
SECTION
10
10.292631
20
0.355369
30
0.0
11
10.292631
21
0.237491
31
0.0
0
LINE
8
SECTION
10
10.292631
20
-0.355369
30
0.0
11
10.332631
21
-0.355369
31
0.0
0
LINE
8
SECTION
10
10.332631
20
-0.355369
30
0.0
11
10.332631
21
-0.237491
31
0.0
0
LINE
8
SECTION
10
10.332631
20
-0.237491
30
0.0
11
10.292631
21
-0.237491
31
0.0
0
LINE
8
SECTION
10
10.292631
20
-0.237491
30
0.0
11
10.292631
21
-0.355369
31
0.0
0
LINE
8
SECTION
10
10.667369
20
0.237491
30
0.0
11
10.707369
21
0.237491
31
0.0
0
LINE
8
SECTION
10
10.707369
20
0.237491
30
0.0
11
10.707369
21
0.355369
31
0.0
0
LINE
8
SECTION
10
10.707369
20
0.355369
30
0.0
11
10.667369
21
0.355369
31
0.0
0
LINE
8
SECTION
10
10.667369
20
0.355369
30
0.0
11
10.667369
21
0.237491
31
0.0
0
LINE
8
SECTION
10
10.667369
20
-0.355369
30
0.0
11
10.707369
21
-0.355369
31
0.0
0
LINE
8
SECTION
10
10.707369
20
-0.355369
30
0.0
11
10.707369
21
-0.237491
31
0.0
0
LINE
8
SECTION
10
10.707369
20
-0.237491
30
0.0
11
10.667369
21
-0.237491
31
0.0
0
LINE
8
SECTION
10
10.667369
20
-0.237491
30
0.0
11
10.667369
21
-0.355369
31
0.0
0
ENDSEC
0
EOF
