0
SECTION
2
HEADER
9
$INSUNITS
70
1
0
ENDSEC
0
SECTION
2
ENTITIES
0
LINE
8
FRONT
10
0.000000
20
0.240000
30
0.0
11
0.112500
21
0.243786
31
0.0
0
LINE
8
FRONT
10
0.112500
20
0.243786
30
0.0
11
0.225000
21
0.247572
31
0.0
0
LINE
8
FRONT
10
0.225000
20
0.247572
30
0.0
11
0.337500
21
0.251358
31
0.0
0
LINE
8
FRONT
10
0.337500
20
0.251358
30
0.0
11
0.450000
21
0.255144
31
0.0
0
LINE
8
FRONT
10
0.450000
20
0.255144
30
0.0
11
0.500000
21
0.256826
31
0.0
0
LINE
8
FRONT
10
0.500000
20
0.256826
30
0.0
11
0.562500
21
0.258929
31
0.0
0
LINE
8
FRONT
10
0.562500
20
0.258929
30
0.0
11
0.675000
21
0.262715
31
0.0
0
LINE
8
FRONT
10
0.675000
20
0.262715
30
0.0
11
0.787500
21
0.266501
31
0.0
0
LINE
8
FRONT
10
0.787500
20
0.266501
30
0.0
11
0.900000
21
0.270287
31
0.0
0
LINE
8
FRONT
10
0.900000
20
0.270287
30
0.0
11
1.012500
21
0.274073
31
0.0
0
LINE
8
FRONT
10
1.012500
20
0.274073
30
0.0
11
1.125000
21
0.277859
31
0.0
0
LINE
8
FRONT
10
1.125000
20
0.277859
30
0.0
11
1.237500
21
0.281645
31
0.0
0
LINE
8
FRONT
10
1.237500
20
0.281645
30
0.0
11
1.350000
21
0.285431
31
0.0
0
LINE
8
FRONT
10
1.350000
20
0.285431
30
0.0
11
1.462500
21
0.289217
31
0.0
0
LINE
8
FRONT
10
1.462500
20
0.289217
30
0.0
11
1.575000
21
0.293003
31
0.0
0
LINE
8
FRONT
10
1.575000
20
0.293003
30
0.0
11
1.687500
21
0.296788
31
0.0
0
LINE
8
FRONT
10
1.687500
20
0.296788
30
0.0
11
1.800000
21
0.300574
31
0.0
0
LINE
8
FRONT
10
1.800000
20
0.300574
30
0.0
11
1.912500
21
0.304360
31
0.0
0
LINE
8
FRONT
10
1.912500
20
0.304360
30
0.0
11
2.025000
21
0.308146
31
0.0
0
LINE
8
FRONT
10
2.025000
20
0.308146
30
0.0
11
2.137500
21
0.311932
31
0.0
0
LINE
8
FRONT
10
2.137500
20
0.311932
30
0.0
11
2.250000
21
0.315718
31
0.0
0
LINE
8
FRONT
10
2.250000
20
0.315718
30
0.0
11
2.362500
21
0.319504
31
0.0
0
LINE
8
FRONT
10
2.362500
20
0.319504
30
0.0
11
2.475000
21
0.323290
31
0.0
0
LINE
8
FRONT
10
2.475000
20
0.323290
30
0.0
11
2.587500
21
0.327076
31
0.0
0
LINE
8
FRONT
10
2.587500
20
0.327076
30
0.0
11
2.700000
21
0.330861
31
0.0
0
LINE
8
FRONT
10
2.700000
20
0.330861
30
0.0
11
2.812500
21
0.334647
31
0.0
0
LINE
8
FRONT
10
2.812500
20
0.334647
30
0.0
11
2.925000
21
0.338433
31
0.0
0
LINE
8
FRONT
10
2.925000
20
0.338433
30
0.0
11
3.037500
21
0.342219
31
0.0
0
LINE
8
FRONT
10
3.037500
20
0.342219
30
0.0
11
3.150000
21
0.346005
31
0.0
0
LINE
8
FRONT
10
3.150000
20
0.346005
30
0.0
11
3.262500
21
0.349791
31
0.0
0
LINE
8
FRONT
10
3.262500
20
0.349791
30
0.0
11
3.375000
21
0.353577
31
0.0
0
LINE
8
FRONT
10
3.375000
20
0.353577
30
0.0
11
3.487500
21
0.357363
31
0.0
0
LINE
8
FRONT
10
3.487500
20
0.357363
30
0.0
11
3.600000
21
0.361149
31
0.0
0
LINE
8
FRONT
10
3.600000
20
0.361149
30
0.0
11
3.712500
21
0.364934
31
0.0
0
LINE
8
FRONT
10
3.712500
20
0.364934
30
0.0
11
3.825000
21
0.368720
31
0.0
0
LINE
8
FRONT
10
3.825000
20
0.368720
30
0.0
11
3.937500
21
0.372506
31
0.0
0
LINE
8
FRONT
10
3.937500
20
0.372506
30
0.0
11
4.050000
21
0.376292
31
0.0
0
LINE
8
FRONT
10
4.050000
20
0.376292
30
0.0
11
4.162500
21
0.380078
31
0.0
0
LINE
8
FRONT
10
4.162500
20
0.380078
30
0.0
11
4.275000
21
0.383864
31
0.0
0
LINE
8
FRONT
10
4.275000
20
0.383864
30
0.0
11
4.387500
21
0.387650
31
0.0
0
LINE
8
FRONT
10
4.387500
20
0.387650
30
0.0
11
4.500000
21
0.391436
31
0.0
0
LINE
8
FRONT
10
4.500000
20
0.391436
30
0.0
11
4.612500
21
0.389914
31
0.0
0
LINE
8
FRONT
10
4.612500
20
0.389914
30
0.0
11
4.725000
21
0.388391
31
0.0
0
LINE
8
FRONT
10
4.725000
20
0.388391
30
0.0
11
4.837500
21
0.386869
31
0.0
0
LINE
8
FRONT
10
4.837500
20
0.386869
30
0.0
11
4.950000
21
0.385347
31
0.0
0
LINE
8
FRONT
10
4.950000
20
0.385347
30
0.0
11
5.062500
21
0.383825
31
0.0
0
LINE
8
FRONT
10
5.062500
20
0.383825
30
0.0
11
5.175000
21
0.382303
31
0.0
0
LINE
8
FRONT
10
5.175000
20
0.382303
30
0.0
11
5.287500
21
0.380780
31
0.0
0
LINE
8
FRONT
10
5.287500
20
0.380780
30
0.0
11
5.400000
21
0.379258
31
0.0
0
LINE
8
FRONT
10
5.400000
20
0.379258
30
0.0
11
5.512500
21
0.377736
31
0.0
0
LINE
8
FRONT
10
5.512500
20
0.377736
30
0.0
11
5.625000
21
0.376214
31
0.0
0
LINE
8
FRONT
10
5.625000
20
0.376214
30
0.0
11
5.737500
21
0.374692
31
0.0
0
LINE
8
FRONT
10
5.737500
20
0.374692
30
0.0
11
5.850000
21
0.373170
31
0.0
0
LINE
8
FRONT
10
5.850000
20
0.373170
30
0.0
11
5.962500
21
0.371647
31
0.0
0
LINE
8
FRONT
10
5.962500
20
0.371647
30
0.0
11
6.075000
21
0.370125
31
0.0
0
LINE
8
FRONT
10
6.075000
20
0.370125
30
0.0
11
6.187500
21
0.368603
31
0.0
0
LINE
8
FRONT
10
6.187500
20
0.368603
30
0.0
11
6.300000
21
0.367081
31
0.0
0
LINE
8
FRONT
10
6.300000
20
0.367081
30
0.0
11
6.412500
21
0.365559
31
0.0
0
LINE
8
FRONT
10
6.412500
20
0.365559
30
0.0
11
6.525000
21
0.364037
31
0.0
0
LINE
8
FRONT
10
6.525000
20
0.364037
30
0.0
11
6.637500
21
0.362514
31
0.0
0
LINE
8
FRONT
10
6.637500
20
0.362514
30
0.0
11
6.750000
21
0.360992
31
0.0
0
LINE
8
FRONT
10
6.750000
20
0.360992
30
0.0
11
6.862500
21
0.359470
31
0.0
0
LINE
8
FRONT
10
6.862500
20
0.359470
30
0.0
11
6.975000
21
0.357948
31
0.0
0
LINE
8
FRONT
10
6.975000
20
0.357948
30
0.0
11
7.087500
21
0.356426
31
0.0
0
LINE
8
FRONT
10
7.087500
20
0.356426
30
0.0
11
7.200000
21
0.354903
31
0.0
0
LINE
8
FRONT
10
7.200000
20
0.354903
30
0.0
11
7.312500
21
0.353381
31
0.0
0
LINE
8
FRONT
10
7.312500
20
0.353381
30
0.0
11
7.425000
21
0.351859
31
0.0
0
LINE
8
FRONT
10
7.425000
20
0.351859
30
0.0
11
7.537500
21
0.350337
31
0.0
0
LINE
8
FRONT
10
7.537500
20
0.350337
30
0.0
11
7.650000
21
0.348815
31
0.0
0
LINE
8
FRONT
10
7.650000
20
0.348815
30
0.0
11
7.762500
21
0.347293
31
0.0
0
LINE
8
FRONT
10
7.762500
20
0.347293
30
0.0
11
7.875000
21
0.345770
31
0.0
0
LINE
8
FRONT
10
7.875000
20
0.345770
30
0.0
11
7.987500
21
0.344248
31
0.0
0
LINE
8
FRONT
10
7.987500
20
0.344248
30
0.0
11
8.100000
21
0.342726
31
0.0
0
LINE
8
FRONT
10
8.100000
20
0.342726
30
0.0
11
8.212500
21
0.341204
31
0.0
0
LINE
8
FRONT
10
8.212500
20
0.341204
30
0.0
11
8.325000
21
0.339682
31
0.0
0
LINE
8
FRONT
10
8.325000
20
0.339682
30
0.0
11
8.437500
21
0.338159
31
0.0
0
LINE
8
FRONT
10
8.437500
20
0.338159
30
0.0
11
8.500000
21
0.337314
31
0.0
0
LINE
8
FRONT
10
8.500000
20
0.337314
30
0.0
11
8.550000
21
0.336637
31
0.0
0
LINE
8
FRONT
10
8.550000
20
0.336637
30
0.0
11
8.662500
21
0.335115
31
0.0
0
LINE
8
FRONT
10
8.662500
20
0.335115
30
0.0
11
8.775000
21
0.333593
31
0.0
0
LINE
8
FRONT
10
8.775000
20
0.333593
30
0.0
11
8.887500
21
0.332071
31
0.0
0
LINE
8
FRONT
10
8.887500
20
0.332071
30
0.0
11
9.000000
21
0.330549
31
0.0
0
LINE
8
FRONT
10
0.000000
20
-0.240000
30
0.0
11
0.112500
21
-0.243786
31
0.0
0
LINE
8
FRONT
10
0.112500
20
-0.243786
30
0.0
11
0.225000
21
-0.247572
31
0.0
0
LINE
8
FRONT
10
0.225000
20
-0.247572
30
0.0
11
0.337500
21
-0.251358
31
0.0
0
LINE
8
FRONT
10
0.337500
20
-0.251358
30
0.0
11
0.450000
21
-0.255144
31
0.0
0
LINE
8
FRONT
10
0.450000
20
-0.255144
30
0.0
11
0.500000
21
-0.256826
31
0.0
0
LINE
8
FRONT
10
0.500000
20
-0.256826
30
0.0
11
0.562500
21
-0.258929
31
0.0
0
LINE
8
FRONT
10
0.562500
20
-0.258929
30
0.0
11
0.675000
21
-0.262715
31
0.0
0
LINE
8
FRONT
10
0.675000
20
-0.262715
30
0.0
11
0.787500
21
-0.266501
31
0.0
0
LINE
8
FRONT
10
0.787500
20
-0.266501
30
0.0
11
0.900000
21
-0.270287
31
0.0
0
LINE
8
FRONT
10
0.900000
20
-0.270287
30
0.0
11
1.012500
21
-0.274073
31
0.0
0
LINE
8
FRONT
10
1.012500
20
-0.274073
30
0.0
11
1.125000
21
-0.277859
31
0.0
0
LINE
8
FRONT
10
1.125000
20
-0.277859
30
0.0
11
1.237500
21
-0.281645
31
0.0
0
LINE
8
FRONT
10
1.237500
20
-0.281645
30
0.0
11
1.350000
21
-0.285431
31
0.0
0
LINE
8
FRONT
10
1.350000
20
-0.285431
30
0.0
11
1.462500
21
-0.289217
31
0.0
0
LINE
8
FRONT
10
1.462500
20
-0.289217
30
0.0
11
1.575000
21
-0.293003
31
0.0
0
LINE
8
FRONT
10
1.575000
20
-0.293003
30
0.0
11
1.687500
21
-0.296788
31
0.0
0
LINE
8
FRONT
10
1.687500
20
-0.296788
30
0.0
11
1.800000
21
-0.300574
31
0.0
0
LINE
8
FRONT
10
1.800000
20
-0.300574
30
0.0
11
1.912500
21
-0.304360
31
0.0
0
LINE
8
FRONT
10
1.912500
20
-0.304360
30
0.0
11
2.025000
21
-0.308146
31
0.0
0
LINE
8
FRONT
10
2.025000
20
-0.308146
30
0.0
11
2.137500
21
-0.311932
31
0.0
0
LINE
8
FRONT
10
2.137500
20
-0.311932
30
0.0
11
2.250000
21
-0.315718
31
0.0
0
LINE
8
FRONT
10
2.250000
20
-0.315718
30
0.0
11
2.362500
21
-0.319504
31
0.0
0
LINE
8
FRONT
10
2.362500
20
-0.319504
30
0.0
11
2.475000
21
-0.323290
31
0.0
0
LINE
8
FRONT
10
2.475000
20
-0.323290
30
0.0
11
2.587500
21
-0.327076
31
0.0
0
LINE
8
FRONT
10
2.587500
20
-0.327076
30
0.0
11
2.700000
21
-0.330861
31
0.0
0
LINE
8
FRONT
10
2.700000
20
-0.330861
30
0.0
11
2.812500
21
-0.334647
31
0.0
0
LINE
8
FRONT
10
2.812500
20
-0.334647
30
0.0
11
2.925000
21
-0.338433
31
0.0
0
LINE
8
FRONT
10
2.925000
20
-0.338433
30
0.0
11
3.037500
21
-0.342219
31
0.0
0
LINE
8
FRONT
10
3.037500
20
-0.342219
30
0.0
11
3.150000
21
-0.346005
31
0.0
0
LINE
8
FRONT
10
3.150000
20
-0.346005
30
0.0
11
3.262500
21
-0.349791
31
0.0
0
LINE
8
FRONT
10
3.262500
20
-0.349791
30
0.0
11
3.375000
21
-0.353577
31
0.0
0
LINE
8
FRONT
10
3.375000
20
-0.353577
30
0.0
11
3.487500
21
-0.357363
31
0.0
0
LINE
8
FRONT
10
3.487500
20
-0.357363
30
0.0
11
3.600000
21
-0.361149
31
0.0
0
LINE
8
FRONT
10
3.600000
20
-0.361149
30
0.0
11
3.712500
21
-0.364934
31
0.0
0
LINE
8
FRONT
10
3.712500
20
-0.364934
30
0.0
11
3.825000
21
-0.368720
31
0.0
0
LINE
8
FRONT
10
3.825000
20
-0.368720
30
0.0
11
3.937500
21
-0.372506
31
0.0
0
LINE
8
FRONT
10
3.937500
20
-0.372506
30
0.0
11
4.050000
21
-0.376292
31
0.0
0
LINE
8
FRONT
10
4.050000
20
-0.376292
30
0.0
11
4.162500
21
-0.380078
31
0.0
0
LINE
8
FRONT
10
4.162500
20
-0.380078
30
0.0
11
4.275000
21
-0.383864
31
0.0
0
LINE
8
FRONT
10
4.275000
20
-0.383864
30
0.0
11
4.387500
21
-0.387650
31
0.0
0
LINE
8
FRONT
10
4.387500
20
-0.387650
30
0.0
11
4.500000
21
-0.391436
31
0.0
0
LINE
8
FRONT
10
4.500000
20
-0.391436
30
0.0
11
4.612500
21
-0.389914
31
0.0
0
LINE
8
FRONT
10
4.612500
20
-0.389914
30
0.0
11
4.725000
21
-0.388391
31
0.0
0
LINE
8
FRONT
10
4.725000
20
-0.388391
30
0.0
11
4.837500
21
-0.386869
31
0.0
0
LINE
8
FRONT
10
4.837500
20
-0.386869
30
0.0
11
4.950000
21
-0.385347
31
0.0
0
LINE
8
FRONT
10
4.950000
20
-0.385347
30
0.0
11
5.062500
21
-0.383825
31
0.0
0
LINE
8
FRONT
10
5.062500
20
-0.383825
30
0.0
11
5.175000
21
-0.382303
31
0.0
0
LINE
8
FRONT
10
5.175000
20
-0.382303
30
0.0
11
5.287500
21
-0.380780
31
0.0
0
LINE
8
FRONT
10
5.287500
20
-0.380780
30
0.0
11
5.400000
21
-0.379258
31
0.0
0
LINE
8
FRONT
10
5.400000
20
-0.379258
30
0.0
11
5.512500
21
-0.377736
31
0.0
0
LINE
8
FRONT
10
5.512500
20
-0.377736
30
0.0
11
5.625000
21
-0.376214
31
0.0
0
LINE
8
FRONT
10
5.625000
20
-0.376214
30
0.0
11
5.737500
21
-0.374692
31
0.0
0
LINE
8
FRONT
10
5.737500
20
-0.374692
30
0.0
11
5.850000
21
-0.373170
31
0.0
0
LINE
8
FRONT
10
5.850000
20
-0.373170
30
0.0
11
5.962500
21
-0.371647
31
0.0
0
LINE
8
FRONT
10
5.962500
20
-0.371647
30
0.0
11
6.075000
21
-0.370125
31
0.0
0
LINE
8
FRONT
10
6.075000
20
-0.370125
30
0.0
11
6.187500
21
-0.368603
31
0.0
0
LINE
8
FRONT
10
6.187500
20
-0.368603
30
0.0
11
6.300000
21
-0.367081
31
0.0
0
LINE
8
FRONT
10
6.300000
20
-0.367081
30
0.0
11
6.412500
21
-0.365559
31
0.0
0
LINE
8
FRONT
10
6.412500
20
-0.365559
30
0.0
11
6.525000
21
-0.364037
31
0.0
0
LINE
8
FRONT
10
6.525000
20
-0.364037
30
0.0
11
6.637500
21
-0.362514
31
0.0
0
LINE
8
FRONT
10
6.637500
20
-0.362514
30
0.0
11
6.750000
21
-0.360992
31
0.0
0
LINE
8
FRONT
10
6.750000
20
-0.360992
30
0.0
11
6.862500
21
-0.359470
31
0.0
0
LINE
8
FRONT
10
6.862500
20
-0.359470
30
0.0
11
6.975000
21
-0.357948
31
0.0
0
LINE
8
FRONT
10
6.975000
20
-0.357948
30
0.0
11
7.087500
21
-0.356426
31
0.0
0
LINE
8
FRONT
10
7.087500
20
-0.356426
30
0.0
11
7.200000
21
-0.354903
31
0.0
0
LINE
8
FRONT
10
7.200000
20
-0.354903
30
0.0
11
7.312500
21
-0.353381
31
0.0
0
LINE
8
FRONT
10
7.312500
20
-0.353381
30
0.0
11
7.425000
21
-0.351859
31
0.0
0
LINE
8
FRONT
10
7.425000
20
-0.351859
30
0.0
11
7.537500
21
-0.350337
31
0.0
0
LINE
8
FRONT
10
7.537500
20
-0.350337
30
0.0
11
7.650000
21
-0.348815
31
0.0
0
LINE
8
FRONT
10
7.650000
20
-0.348815
30
0.0
11
7.762500
21
-0.347293
31
0.0
0
LINE
8
FRONT
10
7.762500
20
-0.347293
30
0.0
11
7.875000
21
-0.345770
31
0.0
0
LINE
8
FRONT
10
7.875000
20
-0.345770
30
0.0
11
7.987500
21
-0.344248
31
0.0
0
LINE
8
FRONT
10
7.987500
20
-0.344248
30
0.0
11
8.100000
21
-0.342726
31
0.0
0
LINE
8
FRONT
10
8.100000
20
-0.342726
30
0.0
11
8.212500
21
-0.341204
31
0.0
0
LINE
8
FRONT
10
8.212500
20
-0.341204
30
0.0
11
8.325000
21
-0.339682
31
0.0
0
LINE
8
FRONT
10
8.325000
20
-0.339682
30
0.0
11
8.437500
21
-0.338159
31
0.0
0
LINE
8
FRONT
10
8.437500
20
-0.338159
30
0.0
11
8.500000
21
-0.337314
31
0.0
0
LINE
8
FRONT
10
8.500000
20
-0.337314
30
0.0
11
8.550000
21
-0.336637
31
0.0
0
LINE
8
FRONT
10
8.550000
20
-0.336637
30
0.0
11
8.662500
21
-0.335115
31
0.0
0
LINE
8
FRONT
10
8.662500
20
-0.335115
30
0.0
11
8.775000
21
-0.333593
31
0.0
0
LINE
8
FRONT
10
8.775000
20
-0.333593
30
0.0
11
8.887500
21
-0.332071
31
0.0
0
LINE
8
FRONT
10
8.887500
20
-0.332071
30
0.0
11
9.000000
21
-0.330549
31
0.0
0
LINE
8
FRONT
10
0.000000
20
0.240000
30
0.0
11
0.000000
21
-0.240000
31
0.0
0
LINE
8
FRONT
10
9.000000
20
0.330549
30
0.0
11
9.000000
21
-0.330549
31
0.0
0
LINE
8
TOP
10
0.000000
20
2.126164
30
0.0
11
0.112500
21
2.125278
31
0.0
0
LINE
8
TOP
10
0.112500
20
2.125278
30
0.0
11
0.225000
21
2.124393
31
0.0
0
LINE
8
TOP
10
0.225000
20
2.124393
30
0.0
11
0.337500
21
2.123508
31
0.0
0
LINE
8
TOP
10
0.337500
20
2.123508
30
0.0
11
0.450000
21
2.122622
31
0.0
0
LINE
8
TOP
10
0.450000
20
2.122622
30
0.0
11
0.500000
21
2.122229
31
0.0
0
LINE
8
TOP
10
0.500000
20
2.122229
30
0.0
11
0.562500
21
2.121737
31
0.0
0
LINE
8
TOP
10
0.562500
20
2.121737
30
0.0
11
0.675000
21
2.120851
31
0.0
0
LINE
8
TOP
10
0.675000
20
2.120851
30
0.0
11
0.787500
21
2.119966
31
0.0
0
LINE
8
TOP
10
0.787500
20
2.119966
30
0.0
11
0.900000
21
2.119080
31
0.0
0
LINE
8
TOP
10
0.900000
20
2.119080
30
0.0
11
1.012500
21
2.118195
31
0.0
0
LINE
8
TOP
10
1.012500
20
2.118195
30
0.0
11
1.125000
21
2.117309
31
0.0
0
LINE
8
TOP
10
1.125000
20
2.117309
30
0.0
11
1.237500
21
2.116424
31
0.0
0
LINE
8
TOP
10
1.237500
20
2.116424
30
0.0
11
1.350000
21
2.115538
31
0.0
0
LINE
8
TOP
10
1.350000
20
2.115538
30
0.0
11
1.462500
21
2.114653
31
0.0
0
LINE
8
TOP
10
1.462500
20
2.114653
30
0.0
11
1.575000
21
2.113768
31
0.0
0
LINE
8
TOP
10
1.575000
20
2.113768
30
0.0
11
1.687500
21
2.112882
31
0.0
0
LINE
8
TOP
10
1.687500
20
2.112882
30
0.0
11
1.800000
21
2.111997
31
0.0
0
LINE
8
TOP
10
1.800000
20
2.111997
30
0.0
11
1.912500
21
2.111111
31
0.0
0
LINE
8
TOP
10
1.912500
20
2.111111
30
0.0
11
2.025000
21
2.110226
31
0.0
0
LINE
8
TOP
10
2.025000
20
2.110226
30
0.0
11
2.137500
21
2.109340
31
0.0
0
LINE
8
TOP
10
2.137500
20
2.109340
30
0.0
11
2.250000
21
2.108455
31
0.0
0
LINE
8
TOP
10
2.250000
20
2.108455
30
0.0
11
2.362500
21
2.107569
31
0.0
0
LINE
8
TOP
10
2.362500
20
2.107569
30
0.0
11
2.475000
21
2.106684
31
0.0
0
LINE
8
TOP
10
2.475000
20
2.106684
30
0.0
11
2.587500
21
2.105799
31
0.0
0
LINE
8
TOP
10
2.587500
20
2.105799
30
0.0
11
2.700000
21
2.104913
31
0.0
0
LINE
8
TOP
10
2.700000
20
2.104913
30
0.0
11
2.812500
21
2.104028
31
0.0
0
LINE
8
TOP
10
2.812500
20
2.104028
30
0.0
11
2.925000
21
2.103142
31
0.0
0
LINE
8
TOP
10
2.925000
20
2.103142
30
0.0
11
3.037500
21
2.102257
31
0.0
0
LINE
8
TOP
10
3.037500
20
2.102257
30
0.0
11
3.150000
21
2.101371
31
0.0
0
LINE
8
TOP
10
3.150000
20
2.101371
30
0.0
11
3.262500
21
2.100486
31
0.0
0
LINE
8
TOP
10
3.262500
20
2.100486
30
0.0
11
3.375000
21
2.099600
31
0.0
0
LINE
8
TOP
10
3.375000
20
2.099600
30
0.0
11
3.487500
21
2.098715
31
0.0
0
LINE
8
TOP
10
3.487500
20
2.098715
30
0.0
11
3.600000
21
2.097830
31
0.0
0
LINE
8
TOP
10
3.600000
20
2.097830
30
0.0
11
3.712500
21
2.096944
31
0.0
0
LINE
8
TOP
10
3.712500
20
2.096944
30
0.0
11
3.825000
21
2.096059
31
0.0
0
LINE
8
TOP
10
3.825000
20
2.096059
30
0.0
11
3.937500
21
2.095173
31
0.0
0
LINE
8
TOP
10
3.937500
20
2.095173
30
0.0
11
4.050000
21
2.094288
31
0.0
0
LINE
8
TOP
10
4.050000
20
2.094288
30
0.0
11
4.162500
21
2.093402
31
0.0
0
LINE
8
TOP
10
4.162500
20
2.093402
30
0.0
11
4.275000
21
2.092517
31
0.0
0
LINE
8
TOP
10
4.275000
20
2.092517
30
0.0
11
4.387500
21
2.091631
31
0.0
0
LINE
8
TOP
10
4.387500
20
2.091631
30
0.0
11
4.500000
21
2.090746
31
0.0
0
LINE
8
TOP
10
4.500000
20
2.090746
30
0.0
11
4.612500
21
2.089585
31
0.0
0
LINE
8
TOP
10
4.612500
20
2.089585
30
0.0
11
4.725000
21
2.088424
31
0.0
0
LINE
8
TOP
10
4.725000
20
2.088424
30
0.0
11
4.837500
21
2.087263
31
0.0
0
LINE
8
TOP
10
4.837500
20
2.087263
30
0.0
11
4.950000
21
2.086102
31
0.0
0
LINE
8
TOP
10
4.950000
20
2.086102
30
0.0
11
5.062500
21
2.084941
31
0.0
0
LINE
8
TOP
10
5.062500
20
2.084941
30
0.0
11
5.175000
21
2.083780
31
0.0
0
LINE
8
TOP
10
5.175000
20
2.083780
30
0.0
11
5.287500
21
2.082619
31
0.0
0
LINE
8
TOP
10
5.287500
20
2.082619
30
0.0
11
5.400000
21
2.081458
31
0.0
0
LINE
8
TOP
10
5.400000
20
2.081458
30
0.0
11
5.512500
21
2.080297
31
0.0
0
LINE
8
TOP
10
5.512500
20
2.080297
30
0.0
11
5.625000
21
2.079136
31
0.0
0
LINE
8
TOP
10
5.625000
20
2.079136
30
0.0
11
5.737500
21
2.077975
31
0.0
0
LINE
8
TOP
10
5.737500
20
2.077975
30
0.0
11
5.850000
21
2.076814
31
0.0
0
LINE
8
TOP
10
5.850000
20
2.076814
30
0.0
11
5.962500
21
2.075653
31
0.0
0
LINE
8
TOP
10
5.962500
20
2.075653
30
0.0
11
6.075000
21
2.074492
31
0.0
0
LINE
8
TOP
10
6.075000
20
2.074492
30
0.0
11
6.187500
21
2.073331
31
0.0
0
LINE
8
TOP
10
6.187500
20
2.073331
30
0.0
11
6.300000
21
2.072170
31
0.0
0
LINE
8
TOP
10
6.300000
20
2.072170
30
0.0
11
6.412500
21
2.071009
31
0.0
0
LINE
8
TOP
10
6.412500
20
2.071009
30
0.0
11
6.525000
21
2.069848
31
0.0
0
LINE
8
TOP
10
6.525000
20
2.069848
30
0.0
11
6.637500
21
2.068688
31
0.0
0
LINE
8
TOP
10
6.637500
20
2.068688
30
0.0
11
6.750000
21
2.067527
31
0.0
0
LINE
8
TOP
10
6.750000
20
2.067527
30
0.0
11
6.862500
21
2.066366
31
0.0
0
LINE
8
TOP
10
6.862500
20
2.066366
30
0.0
11
6.975000
21
2.065205
31
0.0
0
LINE
8
TOP
10
6.975000
20
2.065205
30
0.0
11
7.087500
21
2.064044
31
0.0
0
LINE
8
TOP
10
7.087500
20
2.064044
30
0.0
11
7.200000
21
2.062883
31
0.0
0
LINE
8
TOP
10
7.200000
20
2.062883
30
0.0
11
7.312500
21
2.061722
31
0.0
0
LINE
8
TOP
10
7.312500
20
2.061722
30
0.0
11
7.425000
21
2.060561
31
0.0
0
LINE
8
TOP
10
7.425000
20
2.060561
30
0.0
11
7.537500
21
2.059400
31
0.0
0
LINE
8
TOP
10
7.537500
20
2.059400
30
0.0
11
7.650000
21
2.058239
31
0.0
0
LINE
8
TOP
10
7.650000
20
2.058239
30
0.0
11
7.762500
21
2.057078
31
0.0
0
LINE
8
TOP
10
7.762500
20
2.057078
30
0.0
11
7.875000
21
2.055917
31
0.0
0
LINE
8
TOP
10
7.875000
20
2.055917
30
0.0
11
7.987500
21
2.054756
31
0.0
0
LINE
8
TOP
10
7.987500
20
2.054756
30
0.0
11
8.100000
21
2.053595
31
0.0
0
LINE
8
TOP
10
8.100000
20
2.053595
30
0.0
11
8.212500
21
2.052434
31
0.0
0
LINE
8
TOP
10
8.212500
20
2.052434
30
0.0
11
8.325000
21
2.051273
31
0.0
0
LINE
8
TOP
10
8.325000
20
2.051273
30
0.0
11
8.437500
21
2.050112
31
0.0
0
LINE
8
TOP
10
8.437500
20
2.050112
30
0.0
11
8.500000
21
2.049467
31
0.0
0
LINE
8
TOP
10
8.500000
20
2.049467
30
0.0
11
8.550000
21
2.048951
31
0.0
0
LINE
8
TOP
10
8.550000
20
2.048951
30
0.0
11
8.662500
21
2.047790
31
0.0
0
LINE
8
TOP
10
8.662500
20
2.047790
30
0.0
11
8.775000
21
2.046629
31
0.0
0
LINE
8
TOP
10
8.775000
20
2.046629
30
0.0
11
8.887500
21
2.045468
31
0.0
0
LINE
8
TOP
10
8.887500
20
2.045468
30
0.0
11
9.000000
21
2.044307
31
0.0
0
LINE
8
TOP
10
0.000000
20
1.722451
30
0.0
11
0.112500
21
1.723336
31
0.0
0
LINE
8
TOP
10
0.112500
20
1.723336
30
0.0
11
0.225000
21
1.724221
31
0.0
0
LINE
8
TOP
10
0.225000
20
1.724221
30
0.0
11
0.337500
21
1.725107
31
0.0
0
LINE
8
TOP
10
0.337500
20
1.725107
30
0.0
11
0.450000
21
1.725992
31
0.0
0
LINE
8
TOP
10
0.450000
20
1.725992
30
0.0
11
0.500000
21
1.726386
31
0.0
0
LINE
8
TOP
10
0.500000
20
1.726386
30
0.0
11
0.562500
21
1.726878
31
0.0
0
LINE
8
TOP
10
0.562500
20
1.726878
30
0.0
11
0.675000
21
1.727763
31
0.0
0
LINE
8
TOP
10
0.675000
20
1.727763
30
0.0
11
0.787500
21
1.728649
31
0.0
0
LINE
8
TOP
10
0.787500
20
1.728649
30
0.0
11
0.900000
21
1.729534
31
0.0
0
LINE
8
TOP
10
0.900000
20
1.729534
30
0.0
11
1.012500
21
1.730420
31
0.0
0
LINE
8
TOP
10
1.012500
20
1.730420
30
0.0
11
1.125000
21
1.731305
31
0.0
0
LINE
8
TOP
10
1.125000
20
1.731305
30
0.0
11
1.237500
21
1.732190
31
0.0
0
LINE
8
TOP
10
1.237500
20
1.732190
30
0.0
11
1.350000
21
1.733076
31
0.0
0
LINE
8
TOP
10
1.350000
20
1.733076
30
0.0
11
1.462500
21
1.733961
31
0.0
0
LINE
8
TOP
10
1.462500
20
1.733961
30
0.0
11
1.575000
21
1.734847
31
0.0
0
LINE
8
TOP
10
1.575000
20
1.734847
30
0.0
11
1.687500
21
1.735732
31
0.0
0
LINE
8
TOP
10
1.687500
20
1.735732
30
0.0
11
1.800000
21
1.736618
31
0.0
0
LINE
8
TOP
10
1.800000
20
1.736618
30
0.0
11
1.912500
21
1.737503
31
0.0
0
LINE
8
TOP
10
1.912500
20
1.737503
30
0.0
11
2.025000
21
1.738389
31
0.0
0
LINE
8
TOP
10
2.025000
20
1.738389
30
0.0
11
2.137500
21
1.739274
31
0.0
0
LINE
8
TOP
10
2.137500
20
1.739274
30
0.0
11
2.250000
21
1.740159
31
0.0
0
LINE
8
TOP
10
2.250000
20
1.740159
30
0.0
11
2.362500
21
1.741045
31
0.0
0
LINE
8
TOP
10
2.362500
20
1.741045
30
0.0
11
2.475000
21
1.741930
31
0.0
0
LINE
8
TOP
10
2.475000
20
1.741930
30
0.0
11
2.587500
21
1.742816
31
0.0
0
LINE
8
TOP
10
2.587500
20
1.742816
30
0.0
11
2.700000
21
1.743701
31
0.0
0
LINE
8
TOP
10
2.700000
20
1.743701
30
0.0
11
2.812500
21
1.744587
31
0.0
0
LINE
8
TOP
10
2.812500
20
1.744587
30
0.0
11
2.925000
21
1.745472
31
0.0
0
LINE
8
TOP
10
2.925000
20
1.745472
30
0.0
11
3.037500
21
1.746358
31
0.0
0
LINE
8
TOP
10
3.037500
20
1.746358
30
0.0
11
3.150000
21
1.747243
31
0.0
0
LINE
8
TOP
10
3.150000
20
1.747243
30
0.0
11
3.262500
21
1.748129
31
0.0
0
LINE
8
TOP
10
3.262500
20
1.748129
30
0.0
11
3.375000
21
1.749014
31
0.0
0
LINE
8
TOP
10
3.375000
20
1.749014
30
0.0
11
3.487500
21
1.749899
31
0.0
0
LINE
8
TOP
10
3.487500
20
1.749899
30
0.0
11
3.600000
21
1.750785
31
0.0
0
LINE
8
TOP
10
3.600000
20
1.750785
30
0.0
11
3.712500
21
1.751670
31
0.0
0
LINE
8
TOP
10
3.712500
20
1.751670
30
0.0
11
3.825000
21
1.752556
31
0.0
0
LINE
8
TOP
10
3.825000
20
1.752556
30
0.0
11
3.937500
21
1.753441
31
0.0
0
LINE
8
TOP
10
3.937500
20
1.753441
30
0.0
11
4.050000
21
1.754327
31
0.0
0
LINE
8
TOP
10
4.050000
20
1.754327
30
0.0
11
4.162500
21
1.755212
31
0.0
0
LINE
8
TOP
10
4.162500
20
1.755212
30
0.0
11
4.275000
21
1.756098
31
0.0
0
LINE
8
TOP
10
4.275000
20
1.756098
30
0.0
11
4.387500
21
1.756983
31
0.0
0
LINE
8
TOP
10
4.387500
20
1.756983
30
0.0
11
4.500000
21
1.757868
31
0.0
0
LINE
8
TOP
10
4.500000
20
1.757868
30
0.0
11
4.612500
21
1.759029
31
0.0
0
LINE
8
TOP
10
4.612500
20
1.759029
30
0.0
11
4.725000
21
1.760190
31
0.0
0
LINE
8
TOP
10
4.725000
20
1.760190
30
0.0
11
4.837500
21
1.761351
31
0.0
0
LINE
8
TOP
10
4.837500
20
1.761351
30
0.0
11
4.950000
21
1.762512
31
0.0
0
LINE
8
TOP
10
4.950000
20
1.762512
30
0.0
11
5.062500
21
1.763673
31
0.0
0
LINE
8
TOP
10
5.062500
20
1.763673
30
0.0
11
5.175000
21
1.764834
31
0.0
0
LINE
8
TOP
10
5.175000
20
1.764834
30
0.0
11
5.287500
21
1.765995
31
0.0
0
LINE
8
TOP
10
5.287500
20
1.765995
30
0.0
11
5.400000
21
1.767156
31
0.0
0
LINE
8
TOP
10
5.400000
20
1.767156
30
0.0
11
5.512500
21
1.768317
31
0.0
0
LINE
8
TOP
10
5.512500
20
1.768317
30
0.0
11
5.625000
21
1.769478
31
0.0
0
LINE
8
TOP
10
5.625000
20
1.769478
30
0.0
11
5.737500
21
1.770639
31
0.0
0
LINE
8
TOP
10
5.737500
20
1.770639
30
0.0
11
5.850000
21
1.771800
31
0.0
0
LINE
8
TOP
10
5.850000
20
1.771800
30
0.0
11
5.962500
21
1.772961
31
0.0
0
LINE
8
TOP
10
5.962500
20
1.772961
30
0.0
11
6.075000
21
1.774122
31
0.0
0
LINE
8
TOP
10
6.075000
20
1.774122
30
0.0
11
6.187500
21
1.775283
31
0.0
0
LINE
8
TOP
10
6.187500
20
1.775283
30
0.0
11
6.300000
21
1.776444
31
0.0
0
LINE
8
TOP
10
6.300000
20
1.776444
30
0.0
11
6.412500
21
1.777605
31
0.0
0
LINE
8
TOP
10
6.412500
20
1.777605
30
0.0
11
6.525000
21
1.778766
31
0.0
0
LINE
8
TOP
10
6.525000
20
1.778766
30
0.0
11
6.637500
21
1.779927
31
0.0
0
LINE
8
TOP
10
6.637500
20
1.779927
30
0.0
11
6.750000
21
1.781088
31
0.0
0
LINE
8
TOP
10
6.750000
20
1.781088
30
0.0
11
6.862500
21
1.782249
31
0.0
0
LINE
8
TOP
10
6.862500
20
1.782249
30
0.0
11
6.975000
21
1.783410
31
0.0
0
LINE
8
TOP
10
6.975000
20
1.783410
30
0.0
11
7.087500
21
1.784571
31
0.0
0
LINE
8
TOP
10
7.087500
20
1.784571
30
0.0
11
7.200000
21
1.785732
31
0.0
0
LINE
8
TOP
10
7.200000
20
1.785732
30
0.0
11
7.312500
21
1.786893
31
0.0
0
LINE
8
TOP
10
7.312500
20
1.786893
30
0.0
11
7.425000
21
1.788054
31
0.0
0
LINE
8
TOP
10
7.425000
20
1.788054
30
0.0
11
7.537500
21
1.789215
31
0.0
0
LINE
8
TOP
10
7.537500
20
1.789215
30
0.0
11
7.650000
21
1.790376
31
0.0
0
LINE
8
TOP
10
7.650000
20
1.790376
30
0.0
11
7.762500
21
1.791537
31
0.0
0
LINE
8
TOP
10
7.762500
20
1.791537
30
0.0
11
7.875000
21
1.792698
31
0.0
0
LINE
8
TOP
10
7.875000
20
1.792698
30
0.0
11
7.987500
21
1.793858
31
0.0
0
LINE
8
TOP
10
7.987500
20
1.793858
30
0.0
11
8.100000
21
1.795019
31
0.0
0
LINE
8
TOP
10
8.100000
20
1.795019
30
0.0
11
8.212500
21
1.796180
31
0.0
0
LINE
8
TOP
10
8.212500
20
1.796180
30
0.0
11
8.325000
21
1.797341
31
0.0
0
LINE
8
TOP
10
8.325000
20
1.797341
30
0.0
11
8.437500
21
1.798502
31
0.0
0
LINE
8
TOP
10
8.437500
20
1.798502
30
0.0
11
8.500000
21
1.799147
31
0.0
0
LINE
8
TOP
10
8.500000
20
1.799147
30
0.0
11
8.550000
21
1.799663
31
0.0
0
LINE
8
TOP
10
8.550000
20
1.799663
30
0.0
11
8.662500
21
1.800824
31
0.0
0
LINE
8
TOP
10
8.662500
20
1.800824
30
0.0
11
8.775000
21
1.801985
31
0.0
0
LINE
8
TOP
10
8.775000
20
1.801985
30
0.0
11
8.887500
21
1.803146
31
0.0
0
LINE
8
TOP
10
8.887500
20
1.803146
30
0.0
11
9.000000
21
1.804307
31
0.0
0
LINE
8
TOP
10
0.000000
20
2.126164
30
0.0
11
0.000000
21
1.722451
31
0.0
0
LINE
8
TOP
10
9.000000
20
2.044307
30
0.0
11
9.000000
21
1.804307
31
0.0
0
LINE
8
SECTION
10
10.333561
20
-0.391436
30
0.0
11
10.666439
21
-0.391436
31
0.0
0
LINE
8
SECTION
10
10.666439
20
-0.391436
30
0.0
11
10.666439
21
0.391436
31
0.0
0
LINE
8
SECTION
10
10.666439
20
0.391436
30
0.0
11
10.333561
21
0.391436
31
0.0
0
LINE
8
SECTION
10
10.333561
20
0.391436
30
0.0
11
10.333561
21
-0.391436
31
0.0
0
LINE
8
SECTION
10
10.393561
20
-0.331436
30
0.0
11
10.606439
21
-0.331436
31
0.0
0
LINE
8
SECTION
10
10.606439
20
-0.331436
30
0.0
11
10.606439
21
0.331436
31
0.0
0
LINE
8
SECTION
10
10.606439
20
0.331436
30
0.0
11
10.393561
21
0.331436
31
0.0
0
LINE
8
SECTION
10
10.393561
20
0.331436
30
0.0
11
10.393561
21
-0.331436
31
0.0
0
LINE
8
SECTION
10
10.393561
20
0.000000
30
0.0
11
10.453561
21
0.000000
31
0.0
0
LINE
8
SECTION
10
10.453561
20
0.000000
30
0.0
11
10.453561
21
0.331436
31
0.0
0
LINE
8
SECTION
10
10.453561
20
0.331436
30
0.0
11
10.393561
21
0.331436
31
0.0
0
LINE
8
SECTION
10
10.393561
20
0.331436
30
0.0
11
10.393561
21
0.000000
31
0.0
0
LINE
8
SECTION
10
10.393561
20
-0.331436
30
0.0
11
10.453561
21
-0.331436
31
0.0
0
LINE
8
SECTION
10
10.453561
20
-0.331436
30
0.0
11
10.453561
21
0.000000
31
0.0
0
LINE
8
SECTION
10
10.453561
20
0.000000
30
0.0
11
10.393561
21
0.000000
31
0.0
0
LINE
8
SECTION
10
10.393561
20
0.000000
30
0.0
11
10.393561
21
-0.331436
31
0.0
0
LINE
8
SECTION
10
10.546439
20
0.000000
30
0.0
11
10.606439
21
0.000000
31
0.0
0
LINE
8
SECTION
10
10.606439
20
0.000000
30
0.0
11
10.606439
21
0.331436
31
0.0
0
LINE
8
SECTION
10
10.606439
20
0.331436
30
0.0
11
10.546439
21
0.331436
31
0.0
0
LINE
8
SECTION
10
10.546439
20
0.331436
30
0.0
11
10.546439
21
0.000000
31
0.0
0
LINE
8
SECTION
10
10.546439
20
-0.331436
30
0.0
11
10.606439
21
-0.331436
31
0.0
0
LINE
8
SECTION
10
10.606439
20
-0.331436
30
0.0
11
10.606439
21
0.000000
31
0.0
0
LINE
8
SECTION
10
10.606439
20
0.000000
30
0.0
11
10.546439
21
0.000000
31
0.0
0
LINE
8
SECTION
10
10.546439
20
0.000000
30
0.0
11
10.546439
21
-0.331436
31
0.0
0
ENDSEC
0
EOF
