0
SECTION
2
HEADER
9
$INSUNITS
70
1
0
ENDSEC
0
SECTION
2
ENTITIES
0
LINE
8
FRONT
10
0.000000
20
0.198275
30
0.0
11
0.112500
21
0.197936
31
0.0
0
LINE
8
FRONT
10
0.112500
20
0.197936
30
0.0
11
0.225000
21
0.197596
31
0.0
0
LINE
8
FRONT
10
0.225000
20
0.197596
30
0.0
11
0.337500
21
0.197256
31
0.0
0
LINE
8
FRONT
10
0.337500
20
0.197256
30
0.0
11
0.450000
21
0.196916
31
0.0
0
LINE
8
FRONT
10
0.450000
20
0.196916
30
0.0
11
0.500000
21
0.196765
31
0.0
0
LINE
8
FRONT
10
0.500000
20
0.196765
30
0.0
11
0.562500
21
0.196576
31
0.0
0
LINE
8
FRONT
10
0.562500
20
0.196576
30
0.0
11
0.675000
21
0.196236
31
0.0
0
LINE
8
FRONT
10
0.675000
20
0.196236
30
0.0
11
0.787500
21
0.195897
31
0.0
0
LINE
8
FRONT
10
0.787500
20
0.195897
30
0.0
11
0.900000
21
0.195557
31
0.0
0
LINE
8
FRONT
10
0.900000
20
0.195557
30
0.0
11
1.012500
21
0.195217
31
0.0
0
LINE
8
FRONT
10
1.012500
20
0.195217
30
0.0
11
1.125000
21
0.194877
31
0.0
0
LINE
8
FRONT
10
1.125000
20
0.194877
30
0.0
11
1.237500
21
0.194537
31
0.0
0
LINE
8
FRONT
10
1.237500
20
0.194537
30
0.0
11
1.350000
21
0.194197
31
0.0
0
LINE
8
FRONT
10
1.350000
20
0.194197
30
0.0
11
1.462500
21
0.193857
31
0.0
0
LINE
8
FRONT
10
1.462500
20
0.193857
30
0.0
11
1.575000
21
0.193518
31
0.0
0
LINE
8
FRONT
10
1.575000
20
0.193518
30
0.0
11
1.687500
21
0.193178
31
0.0
0
LINE
8
FRONT
10
1.687500
20
0.193178
30
0.0
11
1.800000
21
0.192838
31
0.0
0
LINE
8
FRONT
10
1.800000
20
0.192838
30
0.0
11
1.912500
21
0.192498
31
0.0
0
LINE
8
FRONT
10
1.912500
20
0.192498
30
0.0
11
2.025000
21
0.192158
31
0.0
0
LINE
8
FRONT
10
2.025000
20
0.192158
30
0.0
11
2.137500
21
0.191818
31
0.0
0
LINE
8
FRONT
10
2.137500
20
0.191818
30
0.0
11
2.250000
21
0.191479
31
0.0
0
LINE
8
FRONT
10
2.250000
20
0.191479
30
0.0
11
2.362500
21
0.191139
31
0.0
0
LINE
8
FRONT
10
2.362500
20
0.191139
30
0.0
11
2.475000
21
0.190799
31
0.0
0
LINE
8
FRONT
10
2.475000
20
0.190799
30
0.0
11
2.587500
21
0.190459
31
0.0
0
LINE
8
FRONT
10
2.587500
20
0.190459
30
0.0
11
2.700000
21
0.190119
31
0.0
0
LINE
8
FRONT
10
2.700000
20
0.190119
30
0.0
11
2.812500
21
0.189779
31
0.0
0
LINE
8
FRONT
10
2.812500
20
0.189779
30
0.0
11
2.925000
21
0.189439
31
0.0
0
LINE
8
FRONT
10
2.925000
20
0.189439
30
0.0
11
3.037500
21
0.189100
31
0.0
0
LINE
8
FRONT
10
3.037500
20
0.189100
30
0.0
11
3.150000
21
0.188760
31
0.0
0
LINE
8
FRONT
10
3.150000
20
0.188760
30
0.0
11
3.262500
21
0.188420
31
0.0
0
LINE
8
FRONT
10
3.262500
20
0.188420
30
0.0
11
3.375000
21
0.188080
31
0.0
0
LINE
8
FRONT
10
3.375000
20
0.188080
30
0.0
11
3.487500
21
0.187740
31
0.0
0
LINE
8
FRONT
10
3.487500
20
0.187740
30
0.0
11
3.600000
21
0.187400
31
0.0
0
LINE
8
FRONT
10
3.600000
20
0.187400
30
0.0
11
3.712500
21
0.187061
31
0.0
0
LINE
8
FRONT
10
3.712500
20
0.187061
30
0.0
11
3.825000
21
0.186721
31
0.0
0
LINE
8
FRONT
10
3.825000
20
0.186721
30
0.0
11
3.937500
21
0.186381
31
0.0
0
LINE
8
FRONT
10
3.937500
20
0.186381
30
0.0
11
4.050000
21
0.186041
31
0.0
0
LINE
8
FRONT
10
4.050000
20
0.186041
30
0.0
11
4.162500
21
0.185701
31
0.0
0
LINE
8
FRONT
10
4.162500
20
0.185701
30
0.0
11
4.275000
21
0.185361
31
0.0
0
LINE
8
FRONT
10
4.275000
20
0.185361
30
0.0
11
4.387500
21
0.185021
31
0.0
0
LINE
8
FRONT
10
4.387500
20
0.185021
30
0.0
11
4.500000
21
0.184682
31
0.0
0
LINE
8
FRONT
10
4.500000
20
0.184682
30
0.0
11
4.612500
21
0.185021
31
0.0
0
LINE
8
FRONT
10
4.612500
20
0.185021
30
0.0
11
4.725000
21
0.185361
31
0.0
0
LINE
8
FRONT
10
4.725000
20
0.185361
30
0.0
11
4.837500
21
0.185701
31
0.0
0
LINE
8
FRONT
10
4.837500
20
0.185701
30
0.0
11
4.950000
21
0.186041
31
0.0
0
LINE
8
FRONT
10
4.950000
20
0.186041
30
0.0
11
5.062500
21
0.186381
31
0.0
0
LINE
8
FRONT
10
5.062500
20
0.186381
30
0.0
11
5.175000
21
0.186721
31
0.0
0
LINE
8
FRONT
10
5.175000
20
0.186721
30
0.0
11
5.287500
21
0.187061
31
0.0
0
LINE
8
FRONT
10
5.287500
20
0.187061
30
0.0
11
5.400000
21
0.187400
31
0.0
0
LINE
8
FRONT
10
5.400000
20
0.187400
30
0.0
11
5.512500
21
0.187740
31
0.0
0
LINE
8
FRONT
10
5.512500
20
0.187740
30
0.0
11
5.625000
21
0.188080
31
0.0
0
LINE
8
FRONT
10
5.625000
20
0.188080
30
0.0
11
5.737500
21
0.188420
31
0.0
0
LINE
8
FRONT
10
5.737500
20
0.188420
30
0.0
11
5.850000
21
0.188760
31
0.0
0
LINE
8
FRONT
10
5.850000
20
0.188760
30
0.0
11
5.962500
21
0.189100
31
0.0
0
LINE
8
FRONT
10
5.962500
20
0.189100
30
0.0
11
6.075000
21
0.189439
31
0.0
0
LINE
8
FRONT
10
6.075000
20
0.189439
30
0.0
11
6.187500
21
0.189779
31
0.0
0
LINE
8
FRONT
10
6.187500
20
0.189779
30
0.0
11
6.300000
21
0.190119
31
0.0
0
LINE
8
FRONT
10
6.300000
20
0.190119
30
0.0
11
6.412500
21
0.190459
31
0.0
0
LINE
8
FRONT
10
6.412500
20
0.190459
30
0.0
11
6.525000
21
0.190799
31
0.0
0
LINE
8
FRONT
10
6.525000
20
0.190799
30
0.0
11
6.637500
21
0.191139
31
0.0
0
LINE
8
FRONT
10
6.637500
20
0.191139
30
0.0
11
6.750000
21
0.191479
31
0.0
0
LINE
8
FRONT
10
6.750000
20
0.191479
30
0.0
11
6.862500
21
0.191818
31
0.0
0
LINE
8
FRONT
10
6.862500
20
0.191818
30
0.0
11
6.975000
21
0.192158
31
0.0
0
LINE
8
FRONT
10
6.975000
20
0.192158
30
0.0
11
7.087500
21
0.192498
31
0.0
0
LINE
8
FRONT
10
7.087500
20
0.192498
30
0.0
11
7.200000
21
0.192838
31
0.0
0
LINE
8
FRONT
10
7.200000
20
0.192838
30
0.0
11
7.312500
21
0.193178
31
0.0
0
LINE
8
FRONT
10
7.312500
20
0.193178
30
0.0
11
7.425000
21
0.193518
31
0.0
0
LINE
8
FRONT
10
7.425000
20
0.193518
30
0.0
11
7.537500
21
0.193857
31
0.0
0
LINE
8
FRONT
10
7.537500
20
0.193857
30
0.0
11
7.650000
21
0.194197
31
0.0
0
LINE
8
FRONT
10
7.650000
20
0.194197
30
0.0
11
7.762500
21
0.194537
31
0.0
0
LINE
8
FRONT
10
7.762500
20
0.194537
30
0.0
11
7.875000
21
0.194877
31
0.0
0
LINE
8
FRONT
10
7.875000
20
0.194877
30
0.0
11
7.987500
21
0.195217
31
0.0
0
LINE
8
FRONT
10
7.987500
20
0.195217
30
0.0
11
8.100000
21
0.195557
31
0.0
0
LINE
8
FRONT
10
8.100000
20
0.195557
30
0.0
11
8.212500
21
0.195897
31
0.0
0
LINE
8
FRONT
10
8.212500
20
0.195897
30
0.0
11
8.325000
21
0.196236
31
0.0
0
LINE
8
FRONT
10
8.325000
20
0.196236
30
0.0
11
8.437500
21
0.196576
31
0.0
0
LINE
8
FRONT
10
8.437500
20
0.196576
30
0.0
11
8.500000
21
0.196765
31
0.0
0
LINE
8
FRONT
10
8.500000
20
0.196765
30
0.0
11
8.550000
21
0.196916
31
0.0
0
LINE
8
FRONT
10
8.550000
20
0.196916
30
0.0
11
8.662500
21
0.197256
31
0.0
0
LINE
8
FRONT
10
8.662500
20
0.197256
30
0.0
11
8.775000
21
0.197596
31
0.0
0
LINE
8
FRONT
10
8.775000
20
0.197596
30
0.0
11
8.887500
21
0.197936
31
0.0
0
LINE
8
FRONT
10
8.887500
20
0.197936
30
0.0
11
9.000000
21
0.198275
31
0.0
0
LINE
8
FRONT
10
0.000000
20
-0.198275
30
0.0
11
0.112500
21
-0.197936
31
0.0
0
LINE
8
FRONT
10
0.112500
20
-0.197936
30
0.0
11
0.225000
21
-0.197596
31
0.0
0
LINE
8
FRONT
10
0.225000
20
-0.197596
30
0.0
11
0.337500
21
-0.197256
31
0.0
0
LINE
8
FRONT
10
0.337500
20
-0.197256
30
0.0
11
0.450000
21
-0.196916
31
0.0
0
LINE
8
FRONT
10
0.450000
20
-0.196916
30
0.0
11
0.500000
21
-0.196765
31
0.0
0
LINE
8
FRONT
10
0.500000
20
-0.196765
30
0.0
11
0.562500
21
-0.196576
31
0.0
0
LINE
8
FRONT
10
0.562500
20
-0.196576
30
0.0
11
0.675000
21
-0.196236
31
0.0
0
LINE
8
FRONT
10
0.675000
20
-0.196236
30
0.0
11
0.787500
21
-0.195897
31
0.0
0
LINE
8
FRONT
10
0.787500
20
-0.195897
30
0.0
11
0.900000
21
-0.195557
31
0.0
0
LINE
8
FRONT
10
0.900000
20
-0.195557
30
0.0
11
1.012500
21
-0.195217
31
0.0
0
LINE
8
FRONT
10
1.012500
20
-0.195217
30
0.0
11
1.125000
21
-0.194877
31
0.0
0
LINE
8
FRONT
10
1.125000
20
-0.194877
30
0.0
11
1.237500
21
-0.194537
31
0.0
0
LINE
8
FRONT
10
1.237500
20
-0.194537
30
0.0
11
1.350000
21
-0.194197
31
0.0
0
LINE
8
FRONT
10
1.350000
20
-0.194197
30
0.0
11
1.462500
21
-0.193857
31
0.0
0
LINE
8
FRONT
10
1.462500
20
-0.193857
30
0.0
11
1.575000
21
-0.193518
31
0.0
0
LINE
8
FRONT
10
1.575000
20
-0.193518
30
0.0
11
1.687500
21
-0.193178
31
0.0
0
LINE
8
FRONT
10
1.687500
20
-0.193178
30
0.0
11
1.800000
21
-0.192838
31
0.0
0
LINE
8
FRONT
10
1.800000
20
-0.192838
30
0.0
11
1.912500
21
-0.192498
31
0.0
0
LINE
8
FRONT
10
1.912500
20
-0.192498
30
0.0
11
2.025000
21
-0.192158
31
0.0
0
LINE
8
FRONT
10
2.025000
20
-0.192158
30
0.0
11
2.137500
21
-0.191818
31
0.0
0
LINE
8
FRONT
10
2.137500
20
-0.191818
30
0.0
11
2.250000
21
-0.191479
31
0.0
0
LINE
8
FRONT
10
2.250000
20
-0.191479
30
0.0
11
2.362500
21
-0.191139
31
0.0
0
LINE
8
FRONT
10
2.362500
20
-0.191139
30
0.0
11
2.475000
21
-0.190799
31
0.0
0
LINE
8
FRONT
10
2.475000
20
-0.190799
30
0.0
11
2.587500
21
-0.190459
31
0.0
0
LINE
8
FRONT
10
2.587500
20
-0.190459
30
0.0
11
2.700000
21
-0.190119
31
0.0
0
LINE
8
FRONT
10
2.700000
20
-0.190119
30
0.0
11
2.812500
21
-0.189779
31
0.0
0
LINE
8
FRONT
10
2.812500
20
-0.189779
30
0.0
11
2.925000
21
-0.189439
31
0.0
0
LINE
8
FRONT
10
2.925000
20
-0.189439
30
0.0
11
3.037500
21
-0.189100
31
0.0
0
LINE
8
FRONT
10
3.037500
20
-0.189100
30
0.0
11
3.150000
21
-0.188760
31
0.0
0
LINE
8
FRONT
10
3.150000
20
-0.188760
30
0.0
11
3.262500
21
-0.188420
31
0.0
0
LINE
8
FRONT
10
3.262500
20
-0.188420
30
0.0
11
3.375000
21
-0.188080
31
0.0
0
LINE
8
FRONT
10
3.375000
20
-0.188080
30
0.0
11
3.487500
21
-0.187740
31
0.0
0
LINE
8
FRONT
10
3.487500
20
-0.187740
30
0.0
11
3.600000
21
-0.187400
31
0.0
0
LINE
8
FRONT
10
3.600000
20
-0.187400
30
0.0
11
3.712500
21
-0.187061
31
0.0
0
LINE
8
FRONT
10
3.712500
20
-0.187061
30
0.0
11
3.825000
21
-0.186721
31
0.0
0
LINE
8
FRONT
10
3.825000
20
-0.186721
30
0.0
11
3.937500
21
-0.186381
31
0.0
0
LINE
8
FRONT
10
3.937500
20
-0.186381
30
0.0
11
4.050000
21
-0.186041
31
0.0
0
LINE
8
FRONT
10
4.050000
20
-0.186041
30
0.0
11
4.162500
21
-0.185701
31
0.0
0
LINE
8
FRONT
10
4.162500
20
-0.185701
30
0.0
11
4.275000
21
-0.185361
31
0.0
0
LINE
8
FRONT
10
4.275000
20
-0.185361
30
0.0
11
4.387500
21
-0.185021
31
0.0
0
LINE
8
FRONT
10
4.387500
20
-0.185021
30
0.0
11
4.500000
21
-0.184682
31
0.0
0
LINE
8
FRONT
10
4.500000
20
-0.184682
30
0.0
11
4.612500
21
-0.185021
31
0.0
0
LINE
8
FRONT
10
4.612500
20
-0.185021
30
0.0
11
4.725000
21
-0.185361
31
0.0
0
LINE
8
FRONT
10
4.725000
20
-0.185361
30
0.0
11
4.837500
21
-0.185701
31
0.0
0
LINE
8
FRONT
10
4.837500
20
-0.185701
30
0.0
11
4.950000
21
-0.186041
31
0.0
0
LINE
8
FRONT
10
4.950000
20
-0.186041
30
0.0
11
5.062500
21
-0.186381
31
0.0
0
LINE
8
FRONT
10
5.062500
20
-0.186381
30
0.0
11
5.175000
21
-0.186721
31
0.0
0
LINE
8
FRONT
10
5.175000
20
-0.186721
30
0.0
11
5.287500
21
-0.187061
31
0.0
0
LINE
8
FRONT
10
5.287500
20
-0.187061
30
0.0
11
5.400000
21
-0.187400
31
0.0
0
LINE
8
FRONT
10
5.400000
20
-0.187400
30
0.0
11
5.512500
21
-0.187740
31
0.0
0
LINE
8
FRONT
10
5.512500
20
-0.187740
30
0.0
11
5.625000
21
-0.188080
31
0.0
0
LINE
8
FRONT
10
5.625000
20
-0.188080
30
0.0
11
5.737500
21
-0.188420
31
0.0
0
LINE
8
FRONT
10
5.737500
20
-0.188420
30
0.0
11
5.850000
21
-0.188760
31
0.0
0
LINE
8
FRONT
10
5.850000
20
-0.188760
30
0.0
11
5.962500
21
-0.189100
31
0.0
0
LINE
8
FRONT
10
5.962500
20
-0.189100
30
0.0
11
6.075000
21
-0.189439
31
0.0
0
LINE
8
FRONT
10
6.075000
20
-0.189439
30
0.0
11
6.187500
21
-0.189779
31
0.0
0
LINE
8
FRONT
10
6.187500
20
-0.189779
30
0.0
11
6.300000
21
-0.190119
31
0.0
0
LINE
8
FRONT
10
6.300000
20
-0.190119
30
0.0
11
6.412500
21
-0.190459
31
0.0
0
LINE
8
FRONT
10
6.412500
20
-0.190459
30
0.0
11
6.525000
21
-0.190799
31
0.0
0
LINE
8
FRONT
10
6.525000
20
-0.190799
30
0.0
11
6.637500
21
-0.191139
31
0.0
0
LINE
8
FRONT
10
6.637500
20
-0.191139
30
0.0
11
6.750000
21
-0.191479
31
0.0
0
LINE
8
FRONT
10
6.750000
20
-0.191479
30
0.0
11
6.862500
21
-0.191818
31
0.0
0
LINE
8
FRONT
10
6.862500
20
-0.191818
30
0.0
11
6.975000
21
-0.192158
31
0.0
0
LINE
8
FRONT
10
6.975000
20
-0.192158
30
0.0
11
7.087500
21
-0.192498
31
0.0
0
LINE
8
FRONT
10
7.087500
20
-0.192498
30
0.0
11
7.200000
21
-0.192838
31
0.0
0
LINE
8
FRONT
10
7.200000
20
-0.192838
30
0.0
11
7.312500
21
-0.193178
31
0.0
0
LINE
8
FRONT
10
7.312500
20
-0.193178
30
0.0
11
7.425000
21
-0.193518
31
0.0
0
LINE
8
FRONT
10
7.425000
20
-0.193518
30
0.0
11
7.537500
21
-0.193857
31
0.0
0
LINE
8
FRONT
10
7.537500
20
-0.193857
30
0.0
11
7.650000
21
-0.194197
31
0.0
0
LINE
8
FRONT
10
7.650000
20
-0.194197
30
0.0
11
7.762500
21
-0.194537
31
0.0
0
LINE
8
FRONT
10
7.762500
20
-0.194537
30
0.0
11
7.875000
21
-0.194877
31
0.0
0
LINE
8
FRONT
10
7.875000
20
-0.194877
30
0.0
11
7.987500
21
-0.195217
31
0.0
0
LINE
8
FRONT
10
7.987500
20
-0.195217
30
0.0
11
8.100000
21
-0.195557
31
0.0
0
LINE
8
FRONT
10
8.100000
20
-0.195557
30
0.0
11
8.212500
21
-0.195897
31
0.0
0
LINE
8
FRONT
10
8.212500
20
-0.195897
30
0.0
11
8.325000
21
-0.196236
31
0.0
0
LINE
8
FRONT
10
8.325000
20
-0.196236
30
0.0
11
8.437500
21
-0.196576
31
0.0
0
LINE
8
FRONT
10
8.437500
20
-0.196576
30
0.0
11
8.500000
21
-0.196765
31
0.0
0
LINE
8
FRONT
10
8.500000
20
-0.196765
30
0.0
11
8.550000
21
-0.196916
31
0.0
0
LINE
8
FRONT
10
8.550000
20
-0.196916
30
0.0
11
8.662500
21
-0.197256
31
0.0
0
LINE
8
FRONT
10
8.662500
20
-0.197256
30
0.0
11
8.775000
21
-0.197596
31
0.0
0
LINE
8
FRONT
10
8.775000
20
-0.197596
30
0.0
11
8.887500
21
-0.197936
31
0.0
0
LINE
8
FRONT
10
8.887500
20
-0.197936
30
0.0
11
9.000000
21
-0.198275
31
0.0
0
LINE
8
FRONT
10
0.000000
20
0.198275
30
0.0
11
0.000000
21
-0.198275
31
0.0
0
LINE
8
FRONT
10
9.000000
20
0.198275
30
0.0
11
9.000000
21
-0.198275
31
0.0
0
LINE
8
TOP
10
0.000000
20
1.859141
30
0.0
11
0.112500
21
1.859711
31
0.0
0
LINE
8
TOP
10
0.112500
20
1.859711
30
0.0
11
0.225000
21
1.860281
31
0.0
0
LINE
8
TOP
10
0.225000
20
1.860281
30
0.0
11
0.337500
21
1.860851
31
0.0
0
LINE
8
TOP
10
0.337500
20
1.860851
30
0.0
11
0.450000
21
1.861422
31
0.0
0
LINE
8
TOP
10
0.450000
20
1.861422
30
0.0
11
0.500000
21
1.861675
31
0.0
0
LINE
8
TOP
10
0.500000
20
1.861675
30
0.0
11
0.562500
21
1.861992
31
0.0
0
LINE
8
TOP
10
0.562500
20
1.861992
30
0.0
11
0.675000
21
1.862562
31
0.0
0
LINE
8
TOP
10
0.675000
20
1.862562
30
0.0
11
0.787500
21
1.863132
31
0.0
0
LINE
8
TOP
10
0.787500
20
1.863132
30
0.0
11
0.900000
21
1.863703
31
0.0
0
LINE
8
TOP
10
0.900000
20
1.863703
30
0.0
11
1.012500
21
1.864273
31
0.0
0
LINE
8
TOP
10
1.012500
20
1.864273
30
0.0
11
1.125000
21
1.864843
31
0.0
0
LINE
8
TOP
10
1.125000
20
1.864843
30
0.0
11
1.237500
21
1.865413
31
0.0
0
LINE
8
TOP
10
1.237500
20
1.865413
30
0.0
11
1.350000
21
1.865984
31
0.0
0
LINE
8
TOP
10
1.350000
20
1.865984
30
0.0
11
1.462500
21
1.866554
31
0.0
0
LINE
8
TOP
10
1.462500
20
1.866554
30
0.0
11
1.575000
21
1.867124
31
0.0
0
LINE
8
TOP
10
1.575000
20
1.867124
30
0.0
11
1.687500
21
1.867695
31
0.0
0
LINE
8
TOP
10
1.687500
20
1.867695
30
0.0
11
1.800000
21
1.868265
31
0.0
0
LINE
8
TOP
10
1.800000
20
1.868265
30
0.0
11
1.912500
21
1.868835
31
0.0
0
LINE
8
TOP
10
1.912500
20
1.868835
30
0.0
11
2.025000
21
1.869405
31
0.0
0
LINE
8
TOP
10
2.025000
20
1.869405
30
0.0
11
2.137500
21
1.869976
31
0.0
0
LINE
8
TOP
10
2.137500
20
1.869976
30
0.0
11
2.250000
21
1.870546
31
0.0
0
LINE
8
TOP
10
2.250000
20
1.870546
30
0.0
11
2.362500
21
1.871116
31
0.0
0
LINE
8
TOP
10
2.362500
20
1.871116
30
0.0
11
2.475000
21
1.871686
31
0.0
0
LINE
8
TOP
10
2.475000
20
1.871686
30
0.0
11
2.587500
21
1.872257
31
0.0
0
LINE
8
TOP
10
2.587500
20
1.872257
30
0.0
11
2.700000
21
1.872827
31
0.0
0
LINE
8
TOP
10
2.700000
20
1.872827
30
0.0
11
2.812500
21
1.873397
31
0.0
0
LINE
8
TOP
10
2.812500
20
1.873397
30
0.0
11
2.925000
21
1.873967
31
0.0
0
LINE
8
TOP
10
2.925000
20
1.873967
30
0.0
11
3.037500
21
1.874538
31
0.0
0
LINE
8
TOP
10
3.037500
20
1.874538
30
0.0
11
3.150000
21
1.875108
31
0.0
0
LINE
8
TOP
10
3.150000
20
1.875108
30
0.0
11
3.262500
21
1.875678
31
0.0
0
LINE
8
TOP
10
3.262500
20
1.875678
30
0.0
11
3.375000
21
1.876248
31
0.0
0
LINE
8
TOP
10
3.375000
20
1.876248
30
0.0
11
3.487500
21
1.876819
31
0.0
0
LINE
8
TOP
10
3.487500
20
1.876819
30
0.0
11
3.600000
21
1.877389
31
0.0
0
LINE
8
TOP
10
3.600000
20
1.877389
30
0.0
11
3.712500
21
1.877959
31
0.0
0
LINE
8
TOP
10
3.712500
20
1.877959
30
0.0
11
3.825000
21
1.878529
31
0.0
0
LINE
8
TOP
10
3.825000
20
1.878529
30
0.0
11
3.937500
21
1.879100
31
0.0
0
LINE
8
TOP
10
3.937500
20
1.879100
30
0.0
11
4.050000
21
1.879670
31
0.0
0
LINE
8
TOP
10
4.050000
20
1.879670
30
0.0
11
4.162500
21
1.880240
31
0.0
0
LINE
8
TOP
10
4.162500
20
1.880240
30
0.0
11
4.275000
21
1.880811
31
0.0
0
LINE
8
TOP
10
4.275000
20
1.880811
30
0.0
11
4.387500
21
1.881381
31
0.0
0
LINE
8
TOP
10
4.387500
20
1.881381
30
0.0
11
4.500000
21
1.881951
31
0.0
0
LINE
8
TOP
10
4.500000
20
1.881951
30
0.0
11
4.612500
21
1.881381
31
0.0
0
LINE
8
TOP
10
4.612500
20
1.881381
30
0.0
11
4.725000
21
1.880811
31
0.0
0
LINE
8
TOP
10
4.725000
20
1.880811
30
0.0
11
4.837500
21
1.880240
31
0.0
0
LINE
8
TOP
10
4.837500
20
1.880240
30
0.0
11
4.950000
21
1.879670
31
0.0
0
LINE
8
TOP
10
4.950000
20
1.879670
30
0.0
11
5.062500
21
1.879100
31
0.0
0
LINE
8
TOP
10
5.062500
20
1.879100
30
0.0
11
5.175000
21
1.878529
31
0.0
0
LINE
8
TOP
10
5.175000
20
1.878529
30
0.0
11
5.287500
21
1.877959
31
0.0
0
LINE
8
TOP
10
5.287500
20
1.877959
30
0.0
11
5.400000
21
1.877389
31
0.0
0
LINE
8
TOP
10
5.400000
20
1.877389
30
0.0
11
5.512500
21
1.876819
31
0.0
0
LINE
8
TOP
10
5.512500
20
1.876819
30
0.0
11
5.625000
21
1.876248
31
0.0
0
LINE
8
TOP
10
5.625000
20
1.876248
30
0.0
11
5.737500
21
1.875678
31
0.0
0
LINE
8
TOP
10
5.737500
20
1.875678
30
0.0
11
5.850000
21
1.875108
31
0.0
0
LINE
8
TOP
10
5.850000
20
1.875108
30
0.0
11
5.962500
21
1.874538
31
0.0
0
LINE
8
TOP
10
5.962500
20
1.874538
30
0.0
11
6.075000
21
1.873967
31
0.0
0
LINE
8
TOP
10
6.075000
20
1.873967
30
0.0
11
6.187500
21
1.873397
31
0.0
0
LINE
8
TOP
10
6.187500
20
1.873397
30
0.0
11
6.300000
21
1.872827
31
0.0
0
LINE
8
TOP
10
6.300000
20
1.872827
30
0.0
11
6.412500
21
1.872257
31
0.0
0
LINE
8
TOP
10
6.412500
20
1.872257
30
0.0
11
6.525000
21
1.871686
31
0.0
0
LINE
8
TOP
10
6.525000
20
1.871686
30
0.0
11
6.637500
21
1.871116
31
0.0
0
LINE
8
TOP
10
6.637500
20
1.871116
30
0.0
11
6.750000
21
1.870546
31
0.0
0
LINE
8
TOP
10
6.750000
20
1.870546
30
0.0
11
6.862500
21
1.869976
31
0.0
0
LINE
8
TOP
10
6.862500
20
1.869976
30
0.0
11
6.975000
21
1.869405
31
0.0
0
LINE
8
TOP
10
6.975000
20
1.869405
30
0.0
11
7.087500
21
1.868835
31
0.0
0
LINE
8
TOP
10
7.087500
20
1.868835
30
0.0
11
7.200000
21
1.868265
31
0.0
0
LINE
8
TOP
10
7.200000
20
1.868265
30
0.0
11
7.312500
21
1.867695
31
0.0
0
LINE
8
TOP
10
7.312500
20
1.867695
30
0.0
11
7.425000
21
1.867124
31
0.0
0
LINE
8
TOP
10
7.425000
20
1.867124
30
0.0
11
7.537500
21
1.866554
31
0.0
0
LINE
8
TOP
10
7.537500
20
1.866554
30
0.0
11
7.650000
21
1.865984
31
0.0
0
LINE
8
TOP
10
7.650000
20
1.865984
30
0.0
11
7.762500
21
1.865413
31
0.0
0
LINE
8
TOP
10
7.762500
20
1.865413
30
0.0
11
7.875000
21
1.864843
31
0.0
0
LINE
8
TOP
10
7.875000
20
1.864843
30
0.0
11
7.987500
21
1.864273
31
0.0
0
LINE
8
TOP
10
7.987500
20
1.864273
30
0.0
11
8.100000
21
1.863703
31
0.0
0
LINE
8
TOP
10
8.100000
20
1.863703
30
0.0
11
8.212500
21
1.863132
31
0.0
0
LINE
8
TOP
10
8.212500
20
1.863132
30
0.0
11
8.325000
21
1.862562
31
0.0
0
LINE
8
TOP
10
8.325000
20
1.862562
30
0.0
11
8.437500
21
1.861992
31
0.0
0
LINE
8
TOP
10
8.437500
20
1.861992
30
0.0
11
8.500000
21
1.861675
31
0.0
0
LINE
8
TOP
10
8.500000
20
1.861675
30
0.0
11
8.550000
21
1.861422
31
0.0
0
LINE
8
TOP
10
8.550000
20
1.861422
30
0.0
11
8.662500
21
1.860851
31
0.0
0
LINE
8
TOP
10
8.662500
20
1.860851
30
0.0
11
8.775000
21
1.860281
31
0.0
0
LINE
8
TOP
10
8.775000
20
1.860281
30
0.0
11
8.887500
21
1.859711
31
0.0
0
LINE
8
TOP
10
8.887500
20
1.859711
30
0.0
11
9.000000
21
1.859141
31
0.0
0
LINE
8
TOP
10
0.000000
20
1.338786
30
0.0
11
0.112500
21
1.338216
31
0.0
0
LINE
8
TOP
10
0.112500
20
1.338216
30
0.0
11
0.225000
21
1.337645
31
0.0
0
LINE
8
TOP
10
0.225000
20
1.337645
30
0.0
11
0.337500
21
1.337075
31
0.0
0
LINE
8
TOP
10
0.337500
20
1.337075
30
0.0
11
0.450000
21
1.336505
31
0.0
0
LINE
8
TOP
10
0.450000
20
1.336505
30
0.0
11
0.500000
21
1.336251
31
0.0
0
LINE
8
TOP
10
0.500000
20
1.336251
30
0.0
11
0.562500
21
1.335935
31
0.0
0
LINE
8
TOP
10
0.562500
20
1.335935
30
0.0
11
0.675000
21
1.335364
31
0.0
0
LINE
8
TOP
10
0.675000
20
1.335364
30
0.0
11
0.787500
21
1.334794
31
0.0
0
LINE
8
TOP
10
0.787500
20
1.334794
30
0.0
11
0.900000
21
1.334224
31
0.0
0
LINE
8
TOP
10
0.900000
20
1.334224
30
0.0
11
1.012500
21
1.333654
31
0.0
0
LINE
8
TOP
10
1.012500
20
1.333654
30
0.0
11
1.125000
21
1.333083
31
0.0
0
LINE
8
TOP
10
1.125000
20
1.333083
30
0.0
11
1.237500
21
1.332513
31
0.0
0
LINE
8
TOP
10
1.237500
20
1.332513
30
0.0
11
1.350000
21
1.331943
31
0.0
0
LINE
8
TOP
10
1.350000
20
1.331943
30
0.0
11
1.462500
21
1.331373
31
0.0
0
LINE
8
TOP
10
1.462500
20
1.331373
30
0.0
11
1.575000
21
1.330802
31
0.0
0
LINE
8
TOP
10
1.575000
20
1.330802
30
0.0
11
1.687500
21
1.330232
31
0.0
0
LINE
8
TOP
10
1.687500
20
1.330232
30
0.0
11
1.800000
21
1.329662
31
0.0
0
LINE
8
TOP
10
1.800000
20
1.329662
30
0.0
11
1.912500
21
1.329092
31
0.0
0
LINE
8
TOP
10
1.912500
20
1.329092
30
0.0
11
2.025000
21
1.328521
31
0.0
0
LINE
8
TOP
10
2.025000
20
1.328521
30
0.0
11
2.137500
21
1.327951
31
0.0
0
LINE
8
TOP
10
2.137500
20
1.327951
30
0.0
11
2.250000
21
1.327381
31
0.0
0
LINE
8
TOP
10
2.250000
20
1.327381
30
0.0
11
2.362500
21
1.326810
31
0.0
0
LINE
8
TOP
10
2.362500
20
1.326810
30
0.0
11
2.475000
21
1.326240
31
0.0
0
LINE
8
TOP
10
2.475000
20
1.326240
30
0.0
11
2.587500
21
1.325670
31
0.0
0
LINE
8
TOP
10
2.587500
20
1.325670
30
0.0
11
2.700000
21
1.325100
31
0.0
0
LINE
8
TOP
10
2.700000
20
1.325100
30
0.0
11
2.812500
21
1.324529
31
0.0
0
LINE
8
TOP
10
2.812500
20
1.324529
30
0.0
11
2.925000
21
1.323959
31
0.0
0
LINE
8
TOP
10
2.925000
20
1.323959
30
0.0
11
3.037500
21
1.323389
31
0.0
0
LINE
8
TOP
10
3.037500
20
1.323389
30
0.0
11
3.150000
21
1.322819
31
0.0
0
LINE
8
TOP
10
3.150000
20
1.322819
30
0.0
11
3.262500
21
1.322248
31
0.0
0
LINE
8
TOP
10
3.262500
20
1.322248
30
0.0
11
3.375000
21
1.321678
31
0.0
0
LINE
8
TOP
10
3.375000
20
1.321678
30
0.0
11
3.487500
21
1.321108
31
0.0
0
LINE
8
TOP
10
3.487500
20
1.321108
30
0.0
11
3.600000
21
1.320538
31
0.0
0
LINE
8
TOP
10
3.600000
20
1.320538
30
0.0
11
3.712500
21
1.319967
31
0.0
0
LINE
8
TOP
10
3.712500
20
1.319967
30
0.0
11
3.825000
21
1.319397
31
0.0
0
LINE
8
TOP
10
3.825000
20
1.319397
30
0.0
11
3.937500
21
1.318827
31
0.0
0
LINE
8
TOP
10
3.937500
20
1.318827
30
0.0
11
4.050000
21
1.318257
31
0.0
0
LINE
8
TOP
10
4.050000
20
1.318257
30
0.0
11
4.162500
21
1.317686
31
0.0
0
LINE
8
TOP
10
4.162500
20
1.317686
30
0.0
11
4.275000
21
1.317116
31
0.0
0
LINE
8
TOP
10
4.275000
20
1.317116
30
0.0
11
4.387500
21
1.316546
31
0.0
0
LINE
8
TOP
10
4.387500
20
1.316546
30
0.0
11
4.500000
21
1.315976
31
0.0
0
LINE
8
TOP
10
4.500000
20
1.315976
30
0.0
11
4.612500
21
1.316546
31
0.0
0
LINE
8
TOP
10
4.612500
20
1.316546
30
0.0
11
4.725000
21
1.317116
31
0.0
0
LINE
8
TOP
10
4.725000
20
1.317116
30
0.0
11
4.837500
21
1.317686
31
0.0
0
LINE
8
TOP
10
4.837500
20
1.317686
30
0.0
11
4.950000
21
1.318257
31
0.0
0
LINE
8
TOP
10
4.950000
20
1.318257
30
0.0
11
5.062500
21
1.318827
31
0.0
0
LINE
8
TOP
10
5.062500
20
1.318827
30
0.0
11
5.175000
21
1.319397
31
0.0
0
LINE
8
TOP
10
5.175000
20
1.319397
30
0.0
11
5.287500
21
1.319967
31
0.0
0
LINE
8
TOP
10
5.287500
20
1.319967
30
0.0
11
5.400000
21
1.320538
31
0.0
0
LINE
8
TOP
10
5.400000
20
1.320538
30
0.0
11
5.512500
21
1.321108
31
0.0
0
LINE
8
TOP
10
5.512500
20
1.321108
30
0.0
11
5.625000
21
1.321678
31
0.0
0
LINE
8
TOP
10
5.625000
20
1.321678
30
0.0
11
5.737500
21
1.322248
31
0.0
0
LINE
8
TOP
10
5.737500
20
1.322248
30
0.0
11
5.850000
21
1.322819
31
0.0
0
LINE
8
TOP
10
5.850000
20
1.322819
30
0.0
11
5.962500
21
1.323389
31
0.0
0
LINE
8
TOP
10
5.962500
20
1.323389
30
0.0
11
6.075000
21
1.323959
31
0.0
0
LINE
8
TOP
10
6.075000
20
1.323959
30
0.0
11
6.187500
21
1.324529
31
0.0
0
LINE
8
TOP
10
6.187500
20
1.324529
30
0.0
11
6.300000
21
1.325100
31
0.0
0
LINE
8
TOP
10
6.300000
20
1.325100
30
0.0
11
6.412500
21
1.325670
31
0.0
0
LINE
8
TOP
10
6.412500
20
1.325670
30
0.0
11
6.525000
21
1.326240
31
0.0
0
LINE
8
TOP
10
6.525000
20
1.326240
30
0.0
11
6.637500
21
1.326810
31
0.0
0
LINE
8
TOP
10
6.637500
20
1.326810
30
0.0
11
6.750000
21
1.327381
31
0.0
0
LINE
8
TOP
10
6.750000
20
1.327381
30
0.0
11
6.862500
21
1.327951
31
0.0
0
LINE
8
TOP
10
6.862500
20
1.327951
30
0.0
11
6.975000
21
1.328521
31
0.0
0
LINE
8
TOP
10
6.975000
20
1.328521
30
0.0
11
7.087500
21
1.329092
31
0.0
0
LINE
8
TOP
10
7.087500
20
1.329092
30
0.0
11
7.200000
21
1.329662
31
0.0
0
LINE
8
TOP
10
7.200000
20
1.329662
30
0.0
11
7.312500
21
1.330232
31
0.0
0
LINE
8
TOP
10
7.312500
20
1.330232
30
0.0
11
7.425000
21
1.330802
31
0.0
0
LINE
8
TOP
10
7.425000
20
1.330802
30
0.0
11
7.537500
21
1.331373
31
0.0
0
LINE
8
TOP
10
7.537500
20
1.331373
30
0.0
11
7.650000
21
1.331943
31
0.0
0
LINE
8
TOP
10
7.650000
20
1.331943
30
0.0
11
7.762500
21
1.332513
31
0.0
0
LINE
8
TOP
10
7.762500
20
1.332513
30
0.0
11
7.875000
21
1.333083
31
0.0
0
LINE
8
TOP
10
7.875000
20
1.333083
30
0.0
11
7.987500
21
1.333654
31
0.0
0
LINE
8
TOP
10
7.987500
20
1.333654
30
0.0
11
8.100000
21
1.334224
31
0.0
0
LINE
8
TOP
10
8.100000
20
1.334224
30
0.0
11
8.212500
21
1.334794
31
0.0
0
LINE
8
TOP
10
8.212500
20
1.334794
30
0.0
11
8.325000
21
1.335364
31
0.0
0
LINE
8
TOP
10
8.325000
20
1.335364
30
0.0
11
8.437500
21
1.335935
31
0.0
0
LINE
8
TOP
10
8.437500
20
1.335935
30
0.0
11
8.500000
21
1.336251
31
0.0
0
LINE
8
TOP
10
8.500000
20
1.336251
30
0.0
11
8.550000
21
1.336505
31
0.0
0
LINE
8
TOP
10
8.550000
20
1.336505
30
0.0
11
8.662500
21
1.337075
31
0.0
0
LINE
8
TOP
10
8.662500
20
1.337075
30
0.0
11
8.775000
21
1.337645
31
0.0
0
LINE
8
TOP
10
8.775000
20
1.337645
30
0.0
11
8.887500
21
1.338216
31
0.0
0
LINE
8
TOP
10
8.887500
20
1.338216
30
0.0
11
9.000000
21
1.338786
31
0.0
0
LINE
8
TOP
10
0.000000
20
1.859141
30
0.0
11
0.000000
21
1.338786
31
0.0
0
LINE
8
TOP
10
9.000000
20
1.859141
30
0.0
11
9.000000
21
1.338786
31
0.0
0
LINE
8
SECTION
10
10.217012
20
-0.184682
30
0.0
11
10.782988
21
-0.184682
31
0.0
0
LINE
8
SECTION
10
10.782988
20
-0.184682
30
0.0
11
10.782988
21
0.184682
31
0.0
0
LINE
8
SECTION
10
10.782988
20
0.184682
30
0.0
11
10.217012
21
0.184682
31
0.0
0
LINE
8
SECTION
10
10.217012
20
0.184682
30
0.0
11
10.217012
21
-0.184682
31
0.0
0
LINE
8
SECTION
10
10.263322
20
-0.138372
30
0.0
11
10.736678
21
-0.138372
31
0.0
0
LINE
8
SECTION
10
10.736678
20
-0.138372
30
0.0
11
10.736678
21
0.138372
31
0.0
0
LINE
8
SECTION
10
10.736678
20
0.138372
30
0.0
11
10.263322
21
0.138372
31
0.0
0
LINE
8
SECTION
10
10.263322
20
0.138372
30
0.0
11
10.263322
21
-0.138372
31
0.0
0
LINE
8
SECTION
10
10.263322
20
0.000000
30
0.0
11
10.309631
21
0.000000
31
0.0
0
LINE
8
SECTION
10
10.309631
20
0.000000
30
0.0
11
10.309631
21
0.138372
31
0.0
0
LINE
8
SECTION
10
10.309631
20
0.138372
30
0.0
11
10.263322
21
0.138372
31
0.0
0
LINE
8
SECTION
10
10.263322
20
0.138372
30
0.0
11
10.263322
21
0.000000
31
0.0
0
LINE
8
SECTION
10
10.263322
20
-0.138372
30
0.0
11
10.309631
21
-0.138372
31
0.0
0
LINE
8
SECTION
10
10.309631
20
-0.138372
30
0.0
11
10.309631
21
0.000000
31
0.0
0
LINE
8
SECTION
10
10.309631
20
0.000000
30
0.0
11
10.263322
21
0.000000
31
0.0
0
LINE
8
SECTION
10
10.263322
20
0.000000
30
0.0
11
10.263322
21
-0.138372
31
0.0
0
LINE
8
SECTION
10
10.690369
20
0.000000
30
0.0
11
10.736678
21
0.000000
31
0.0
0
LINE
8
SECTION
10
10.736678
20
0.000000
30
0.0
11
10.736678
21
0.138372
31
0.0
0
LINE
8
SECTION
10
10.736678
20
0.138372
30
0.0
11
10.690369
21
0.138372
31
0.0
0
LINE
8
SECTION
10
10.690369
20
0.138372
30
0.0
11
10.690369
21
0.000000
31
0.0
0
LINE
8
SECTION
10
10.690369
20
-0.138372
30
0.0
11
10.736678
21
-0.138372
31
0.0
0
LINE
8
SECTION
10
10.736678
20
-0.138372
30
0.0
11
10.736678
21
0.000000
31
0.0
0
LINE
8
SECTION
10
10.736678
20
0.000000
30
0.0
11
10.690369
21
0.000000
31
0.0
0
LINE
8
SECTION
10
10.690369
20
0.000000
30
0.0
11
10.690369
21
-0.138372
31
0.0
0
ENDSEC
0
EOF
