0
SECTION
2
HEADER
9
$INSUNITS
70
1
0
ENDSEC
0
SECTION
2
ENTITIES
0
LINE
8
FRONT
10
0.000000
20
0.358171
30
0.0
11
0.112500
21
0.357383
31
0.0
0
LINE
8
FRONT
10
0.112500
20
0.357383
30
0.0
11
0.225000
21
0.356596
31
0.0
0
LINE
8
FRONT
10
0.225000
20
0.356596
30
0.0
11
0.337500
21
0.355808
31
0.0
0
LINE
8
FRONT
10
0.337500
20
0.355808
30
0.0
11
0.450000
21
0.355021
31
0.0
0
LINE
8
FRONT
10
0.450000
20
0.355021
30
0.0
11
0.500000
21
0.354671
31
0.0
0
LINE
8
FRONT
10
0.500000
20
0.354671
30
0.0
11
0.562500
21
0.354233
31
0.0
0
LINE
8
FRONT
10
0.562500
20
0.354233
30
0.0
11
0.675000
21
0.353446
31
0.0
0
LINE
8
FRONT
10
0.675000
20
0.353446
30
0.0
11
0.787500
21
0.352658
31
0.0
0
LINE
8
FRONT
10
0.787500
20
0.352658
30
0.0
11
0.900000
21
0.351871
31
0.0
0
LINE
8
FRONT
10
0.900000
20
0.351871
30
0.0
11
1.012500
21
0.351083
31
0.0
0
LINE
8
FRONT
10
1.012500
20
0.351083
30
0.0
11
1.125000
21
0.350296
31
0.0
0
LINE
8
FRONT
10
1.125000
20
0.350296
30
0.0
11
1.237500
21
0.349509
31
0.0
0
LINE
8
FRONT
10
1.237500
20
0.349509
30
0.0
11
1.350000
21
0.348721
31
0.0
0
LINE
8
FRONT
10
1.350000
20
0.348721
30
0.0
11
1.462500
21
0.347934
31
0.0
0
LINE
8
FRONT
10
1.462500
20
0.347934
30
0.0
11
1.575000
21
0.347146
31
0.0
0
LINE
8
FRONT
10
1.575000
20
0.347146
30
0.0
11
1.687500
21
0.346359
31
0.0
0
LINE
8
FRONT
10
1.687500
20
0.346359
30
0.0
11
1.800000
21
0.345571
31
0.0
0
LINE
8
FRONT
10
1.800000
20
0.345571
30
0.0
11
1.912500
21
0.344784
31
0.0
0
LINE
8
FRONT
10
1.912500
20
0.344784
30
0.0
11
2.025000
21
0.343996
31
0.0
0
LINE
8
FRONT
10
2.025000
20
0.343996
30
0.0
11
2.137500
21
0.343209
31
0.0
0
LINE
8
FRONT
10
2.137500
20
0.343209
30
0.0
11
2.250000
21
0.342421
31
0.0
0
LINE
8
FRONT
10
2.250000
20
0.342421
30
0.0
11
2.362500
21
0.341634
31
0.0
0
LINE
8
FRONT
10
2.362500
20
0.341634
30
0.0
11
2.475000
21
0.340846
31
0.0
0
LINE
8
FRONT
10
2.475000
20
0.340846
30
0.0
11
2.587500
21
0.340059
31
0.0
0
LINE
8
FRONT
10
2.587500
20
0.340059
30
0.0
11
2.700000
21
0.339271
31
0.0
0
LINE
8
FRONT
10
2.700000
20
0.339271
30
0.0
11
2.812500
21
0.338484
31
0.0
0
LINE
8
FRONT
10
2.812500
20
0.338484
30
0.0
11
2.925000
21
0.337696
31
0.0
0
LINE
8
FRONT
10
2.925000
20
0.337696
30
0.0
11
3.037500
21
0.336909
31
0.0
0
LINE
8
FRONT
10
3.037500
20
0.336909
30
0.0
11
3.150000
21
0.336121
31
0.0
0
LINE
8
FRONT
10
3.150000
20
0.336121
30
0.0
11
3.262500
21
0.335334
31
0.0
0
LINE
8
FRONT
10
3.262500
20
0.335334
30
0.0
11
3.375000
21
0.334546
31
0.0
0
LINE
8
FRONT
10
3.375000
20
0.334546
30
0.0
11
3.487500
21
0.333759
31
0.0
0
LINE
8
FRONT
10
3.487500
20
0.333759
30
0.0
11
3.600000
21
0.332971
31
0.0
0
LINE
8
FRONT
10
3.600000
20
0.332971
30
0.0
11
3.712500
21
0.332184
31
0.0
0
LINE
8
FRONT
10
3.712500
20
0.332184
30
0.0
11
3.825000
21
0.331396
31
0.0
0
LINE
8
FRONT
10
3.825000
20
0.331396
30
0.0
11
3.937500
21
0.330609
31
0.0
0
LINE
8
FRONT
10
3.937500
20
0.330609
30
0.0
11
4.050000
21
0.329821
31
0.0
0
LINE
8
FRONT
10
4.050000
20
0.329821
30
0.0
11
4.162500
21
0.329034
31
0.0
0
LINE
8
FRONT
10
4.162500
20
0.329034
30
0.0
11
4.275000
21
0.328246
31
0.0
0
LINE
8
FRONT
10
4.275000
20
0.328246
30
0.0
11
4.387500
21
0.327459
31
0.0
0
LINE
8
FRONT
10
4.387500
20
0.327459
30
0.0
11
4.500000
21
0.326671
31
0.0
0
LINE
8
FRONT
10
4.500000
20
0.326671
30
0.0
11
4.612500
21
0.327459
31
0.0
0
LINE
8
FRONT
10
4.612500
20
0.327459
30
0.0
11
4.725000
21
0.328246
31
0.0
0
LINE
8
FRONT
10
4.725000
20
0.328246
30
0.0
11
4.837500
21
0.329034
31
0.0
0
LINE
8
FRONT
10
4.837500
20
0.329034
30
0.0
11
4.950000
21
0.329821
31
0.0
0
LINE
8
FRONT
10
4.950000
20
0.329821
30
0.0
11
5.062500
21
0.330609
31
0.0
0
LINE
8
FRONT
10
5.062500
20
0.330609
30
0.0
11
5.175000
21
0.331396
31
0.0
0
LINE
8
FRONT
10
5.175000
20
0.331396
30
0.0
11
5.287500
21
0.332184
31
0.0
0
LINE
8
FRONT
10
5.287500
20
0.332184
30
0.0
11
5.400000
21
0.332971
31
0.0
0
LINE
8
FRONT
10
5.400000
20
0.332971
30
0.0
11
5.512500
21
0.333759
31
0.0
0
LINE
8
FRONT
10
5.512500
20
0.333759
30
0.0
11
5.625000
21
0.334546
31
0.0
0
LINE
8
FRONT
10
5.625000
20
0.334546
30
0.0
11
5.737500
21
0.335334
31
0.0
0
LINE
8
FRONT
10
5.737500
20
0.335334
30
0.0
11
5.850000
21
0.336121
31
0.0
0
LINE
8
FRONT
10
5.850000
20
0.336121
30
0.0
11
5.962500
21
0.336909
31
0.0
0
LINE
8
FRONT
10
5.962500
20
0.336909
30
0.0
11
6.075000
21
0.337696
31
0.0
0
LINE
8
FRONT
10
6.075000
20
0.337696
30
0.0
11
6.187500
21
0.338484
31
0.0
0
LINE
8
FRONT
10
6.187500
20
0.338484
30
0.0
11
6.300000
21
0.339271
31
0.0
0
LINE
8
FRONT
10
6.300000
20
0.339271
30
0.0
11
6.412500
21
0.340059
31
0.0
0
LINE
8
FRONT
10
6.412500
20
0.340059
30
0.0
11
6.525000
21
0.340846
31
0.0
0
LINE
8
FRONT
10
6.525000
20
0.340846
30
0.0
11
6.637500
21
0.341634
31
0.0
0
LINE
8
FRONT
10
6.637500
20
0.341634
30
0.0
11
6.750000
21
0.342421
31
0.0
0
LINE
8
FRONT
10
6.750000
20
0.342421
30
0.0
11
6.862500
21
0.343209
31
0.0
0
LINE
8
FRONT
10
6.862500
20
0.343209
30
0.0
11
6.975000
21
0.343996
31
0.0
0
LINE
8
FRONT
10
6.975000
20
0.343996
30
0.0
11
7.087500
21
0.344784
31
0.0
0
LINE
8
FRONT
10
7.087500
20
0.344784
30
0.0
11
7.200000
21
0.345571
31
0.0
0
LINE
8
FRONT
10
7.200000
20
0.345571
30
0.0
11
7.312500
21
0.346359
31
0.0
0
LINE
8
FRONT
10
7.312500
20
0.346359
30
0.0
11
7.425000
21
0.347146
31
0.0
0
LINE
8
FRONT
10
7.425000
20
0.347146
30
0.0
11
7.537500
21
0.347934
31
0.0
0
LINE
8
FRONT
10
7.537500
20
0.347934
30
0.0
11
7.650000
21
0.348721
31
0.0
0
LINE
8
FRONT
10
7.650000
20
0.348721
30
0.0
11
7.762500
21
0.349509
31
0.0
0
LINE
8
FRONT
10
7.762500
20
0.349509
30
0.0
11
7.875000
21
0.350296
31
0.0
0
LINE
8
FRONT
10
7.875000
20
0.350296
30
0.0
11
7.987500
21
0.351083
31
0.0
0
LINE
8
FRONT
10
7.987500
20
0.351083
30
0.0
11
8.100000
21
0.351871
31
0.0
0
LINE
8
FRONT
10
8.100000
20
0.351871
30
0.0
11
8.212500
21
0.352658
31
0.0
0
LINE
8
FRONT
10
8.212500
20
0.352658
30
0.0
11
8.325000
21
0.353446
31
0.0
0
LINE
8
FRONT
10
8.325000
20
0.353446
30
0.0
11
8.437500
21
0.354233
31
0.0
0
LINE
8
FRONT
10
8.437500
20
0.354233
30
0.0
11
8.500000
21
0.354671
31
0.0
0
LINE
8
FRONT
10
8.500000
20
0.354671
30
0.0
11
8.550000
21
0.355021
31
0.0
0
LINE
8
FRONT
10
8.550000
20
0.355021
30
0.0
11
8.662500
21
0.355808
31
0.0
0
LINE
8
FRONT
10
8.662500
20
0.355808
30
0.0
11
8.775000
21
0.356596
31
0.0
0
LINE
8
FRONT
10
8.775000
20
0.356596
30
0.0
11
8.887500
21
0.357383
31
0.0
0
LINE
8
FRONT
10
8.887500
20
0.357383
30
0.0
11
9.000000
21
0.358171
31
0.0
0
LINE
8
FRONT
10
0.000000
20
-0.358171
30
0.0
11
0.112500
21
-0.357383
31
0.0
0
LINE
8
FRONT
10
0.112500
20
-0.357383
30
0.0
11
0.225000
21
-0.356596
31
0.0
0
LINE
8
FRONT
10
0.225000
20
-0.356596
30
0.0
11
0.337500
21
-0.355808
31
0.0
0
LINE
8
FRONT
10
0.337500
20
-0.355808
30
0.0
11
0.450000
21
-0.355021
31
0.0
0
LINE
8
FRONT
10
0.450000
20
-0.355021
30
0.0
11
0.500000
21
-0.354671
31
0.0
0
LINE
8
FRONT
10
0.500000
20
-0.354671
30
0.0
11
0.562500
21
-0.354233
31
0.0
0
LINE
8
FRONT
10
0.562500
20
-0.354233
30
0.0
11
0.675000
21
-0.353446
31
0.0
0
LINE
8
FRONT
10
0.675000
20
-0.353446
30
0.0
11
0.787500
21
-0.352658
31
0.0
0
LINE
8
FRONT
10
0.787500
20
-0.352658
30
0.0
11
0.900000
21
-0.351871
31
0.0
0
LINE
8
FRONT
10
0.900000
20
-0.351871
30
0.0
11
1.012500
21
-0.351083
31
0.0
0
LINE
8
FRONT
10
1.012500
20
-0.351083
30
0.0
11
1.125000
21
-0.350296
31
0.0
0
LINE
8
FRONT
10
1.125000
20
-0.350296
30
0.0
11
1.237500
21
-0.349509
31
0.0
0
LINE
8
FRONT
10
1.237500
20
-0.349509
30
0.0
11
1.350000
21
-0.348721
31
0.0
0
LINE
8
FRONT
10
1.350000
20
-0.348721
30
0.0
11
1.462500
21
-0.347934
31
0.0
0
LINE
8
FRONT
10
1.462500
20
-0.347934
30
0.0
11
1.575000
21
-0.347146
31
0.0
0
LINE
8
FRONT
10
1.575000
20
-0.347146
30
0.0
11
1.687500
21
-0.346359
31
0.0
0
LINE
8
FRONT
10
1.687500
20
-0.346359
30
0.0
11
1.800000
21
-0.345571
31
0.0
0
LINE
8
FRONT
10
1.800000
20
-0.345571
30
0.0
11
1.912500
21
-0.344784
31
0.0
0
LINE
8
FRONT
10
1.912500
20
-0.344784
30
0.0
11
2.025000
21
-0.343996
31
0.0
0
LINE
8
FRONT
10
2.025000
20
-0.343996
30
0.0
11
2.137500
21
-0.343209
31
0.0
0
LINE
8
FRONT
10
2.137500
20
-0.343209
30
0.0
11
2.250000
21
-0.342421
31
0.0
0
LINE
8
FRONT
10
2.250000
20
-0.342421
30
0.0
11
2.362500
21
-0.341634
31
0.0
0
LINE
8
FRONT
10
2.362500
20
-0.341634
30
0.0
11
2.475000
21
-0.340846
31
0.0
0
LINE
8
FRONT
10
2.475000
20
-0.340846
30
0.0
11
2.587500
21
-0.340059
31
0.0
0
LINE
8
FRONT
10
2.587500
20
-0.340059
30
0.0
11
2.700000
21
-0.339271
31
0.0
0
LINE
8
FRONT
10
2.700000
20
-0.339271
30
0.0
11
2.812500
21
-0.338484
31
0.0
0
LINE
8
FRONT
10
2.812500
20
-0.338484
30
0.0
11
2.925000
21
-0.337696
31
0.0
0
LINE
8
FRONT
10
2.925000
20
-0.337696
30
0.0
11
3.037500
21
-0.336909
31
0.0
0
LINE
8
FRONT
10
3.037500
20
-0.336909
30
0.0
11
3.150000
21
-0.336121
31
0.0
0
LINE
8
FRONT
10
3.150000
20
-0.336121
30
0.0
11
3.262500
21
-0.335334
31
0.0
0
LINE
8
FRONT
10
3.262500
20
-0.335334
30
0.0
11
3.375000
21
-0.334546
31
0.0
0
LINE
8
FRONT
10
3.375000
20
-0.334546
30
0.0
11
3.487500
21
-0.333759
31
0.0
0
LINE
8
FRONT
10
3.487500
20
-0.333759
30
0.0
11
3.600000
21
-0.332971
31
0.0
0
LINE
8
FRONT
10
3.600000
20
-0.332971
30
0.0
11
3.712500
21
-0.332184
31
0.0
0
LINE
8
FRONT
10
3.712500
20
-0.332184
30
0.0
11
3.825000
21
-0.331396
31
0.0
0
LINE
8
FRONT
10
3.825000
20
-0.331396
30
0.0
11
3.937500
21
-0.330609
31
0.0
0
LINE
8
FRONT
10
3.937500
20
-0.330609
30
0.0
11
4.050000
21
-0.329821
31
0.0
0
LINE
8
FRONT
10
4.050000
20
-0.329821
30
0.0
11
4.162500
21
-0.329034
31
0.0
0
LINE
8
FRONT
10
4.162500
20
-0.329034
30
0.0
11
4.275000
21
-0.328246
31
0.0
0
LINE
8
FRONT
10
4.275000
20
-0.328246
30
0.0
11
4.387500
21
-0.327459
31
0.0
0
LINE
8
FRONT
10
4.387500
20
-0.327459
30
0.0
11
4.500000
21
-0.326671
31
0.0
0
LINE
8
FRONT
10
4.500000
20
-0.326671
30
0.0
11
4.612500
21
-0.327459
31
0.0
0
LINE
8
FRONT
10
4.612500
20
-0.327459
30
0.0
11
4.725000
21
-0.328246
31
0.0
0
LINE
8
FRONT
10
4.725000
20
-0.328246
30
0.0
11
4.837500
21
-0.329034
31
0.0
0
LINE
8
FRONT
10
4.837500
20
-0.329034
30
0.0
11
4.950000
21
-0.329821
31
0.0
0
LINE
8
FRONT
10
4.950000
20
-0.329821
30
0.0
11
5.062500
21
-0.330609
31
0.0
0
LINE
8
FRONT
10
5.062500
20
-0.330609
30
0.0
11
5.175000
21
-0.331396
31
0.0
0
LINE
8
FRONT
10
5.175000
20
-0.331396
30
0.0
11
5.287500
21
-0.332184
31
0.0
0
LINE
8
FRONT
10
5.287500
20
-0.332184
30
0.0
11
5.400000
21
-0.332971
31
0.0
0
LINE
8
FRONT
10
5.400000
20
-0.332971
30
0.0
11
5.512500
21
-0.333759
31
0.0
0
LINE
8
FRONT
10
5.512500
20
-0.333759
30
0.0
11
5.625000
21
-0.334546
31
0.0
0
LINE
8
FRONT
10
5.625000
20
-0.334546
30
0.0
11
5.737500
21
-0.335334
31
0.0
0
LINE
8
FRONT
10
5.737500
20
-0.335334
30
0.0
11
5.850000
21
-0.336121
31
0.0
0
LINE
8
FRONT
10
5.850000
20
-0.336121
30
0.0
11
5.962500
21
-0.336909
31
0.0
0
LINE
8
FRONT
10
5.962500
20
-0.336909
30
0.0
11
6.075000
21
-0.337696
31
0.0
0
LINE
8
FRONT
10
6.075000
20
-0.337696
30
0.0
11
6.187500
21
-0.338484
31
0.0
0
LINE
8
FRONT
10
6.187500
20
-0.338484
30
0.0
11
6.300000
21
-0.339271
31
0.0
0
LINE
8
FRONT
10
6.300000
20
-0.339271
30
0.0
11
6.412500
21
-0.340059
31
0.0
0
LINE
8
FRONT
10
6.412500
20
-0.340059
30
0.0
11
6.525000
21
-0.340846
31
0.0
0
LINE
8
FRONT
10
6.525000
20
-0.340846
30
0.0
11
6.637500
21
-0.341634
31
0.0
0
LINE
8
FRONT
10
6.637500
20
-0.341634
30
0.0
11
6.750000
21
-0.342421
31
0.0
0
LINE
8
FRONT
10
6.750000
20
-0.342421
30
0.0
11
6.862500
21
-0.343209
31
0.0
0
LINE
8
FRONT
10
6.862500
20
-0.343209
30
0.0
11
6.975000
21
-0.343996
31
0.0
0
LINE
8
FRONT
10
6.975000
20
-0.343996
30
0.0
11
7.087500
21
-0.344784
31
0.0
0
LINE
8
FRONT
10
7.087500
20
-0.344784
30
0.0
11
7.200000
21
-0.345571
31
0.0
0
LINE
8
FRONT
10
7.200000
20
-0.345571
30
0.0
11
7.312500
21
-0.346359
31
0.0
0
LINE
8
FRONT
10
7.312500
20
-0.346359
30
0.0
11
7.425000
21
-0.347146
31
0.0
0
LINE
8
FRONT
10
7.425000
20
-0.347146
30
0.0
11
7.537500
21
-0.347934
31
0.0
0
LINE
8
FRONT
10
7.537500
20
-0.347934
30
0.0
11
7.650000
21
-0.348721
31
0.0
0
LINE
8
FRONT
10
7.650000
20
-0.348721
30
0.0
11
7.762500
21
-0.349509
31
0.0
0
LINE
8
FRONT
10
7.762500
20
-0.349509
30
0.0
11
7.875000
21
-0.350296
31
0.0
0
LINE
8
FRONT
10
7.875000
20
-0.350296
30
0.0
11
7.987500
21
-0.351083
31
0.0
0
LINE
8
FRONT
10
7.987500
20
-0.351083
30
0.0
11
8.100000
21
-0.351871
31
0.0
0
LINE
8
FRONT
10
8.100000
20
-0.351871
30
0.0
11
8.212500
21
-0.352658
31
0.0
0
LINE
8
FRONT
10
8.212500
20
-0.352658
30
0.0
11
8.325000
21
-0.353446
31
0.0
0
LINE
8
FRONT
10
8.325000
20
-0.353446
30
0.0
11
8.437500
21
-0.354233
31
0.0
0
LINE
8
FRONT
10
8.437500
20
-0.354233
30
0.0
11
8.500000
21
-0.354671
31
0.0
0
LINE
8
FRONT
10
8.500000
20
-0.354671
30
0.0
11
8.550000
21
-0.355021
31
0.0
0
LINE
8
FRONT
10
8.550000
20
-0.355021
30
0.0
11
8.662500
21
-0.355808
31
0.0
0
LINE
8
FRONT
10
8.662500
20
-0.355808
30
0.0
11
8.775000
21
-0.356596
31
0.0
0
LINE
8
FRONT
10
8.775000
20
-0.356596
30
0.0
11
8.887500
21
-0.357383
31
0.0
0
LINE
8
FRONT
10
8.887500
20
-0.357383
30
0.0
11
9.000000
21
-0.358171
31
0.0
0
LINE
8
FRONT
10
0.000000
20
0.358171
30
0.0
11
0.000000
21
-0.358171
31
0.0
0
LINE
8
FRONT
10
9.000000
20
0.358171
30
0.0
11
9.000000
21
-0.358171
31
0.0
0
LINE
8
TOP
10
0.000000
20
1.976297
30
0.0
11
0.112500
21
1.978843
31
0.0
0
LINE
8
TOP
10
0.112500
20
1.978843
30
0.0
11
0.225000
21
1.981389
31
0.0
0
LINE
8
TOP
10
0.225000
20
1.981389
30
0.0
11
0.337500
21
1.983935
31
0.0
0
LINE
8
TOP
10
0.337500
20
1.983935
30
0.0
11
0.450000
21
1.986482
31
0.0
0
LINE
8
TOP
10
0.450000
20
1.986482
30
0.0
11
0.500000
21
1.987613
31
0.0
0
LINE
8
TOP
10
0.500000
20
1.987613
30
0.0
11
0.562500
21
1.989028
31
0.0
0
LINE
8
TOP
10
0.562500
20
1.989028
30
0.0
11
0.675000
21
1.991574
31
0.0
0
LINE
8
TOP
10
0.675000
20
1.991574
30
0.0
11
0.787500
21
1.994120
31
0.0
0
LINE
8
TOP
10
0.787500
20
1.994120
30
0.0
11
0.900000
21
1.996666
31
0.0
0
LINE
8
TOP
10
0.900000
20
1.996666
30
0.0
11
1.012500
21
1.999212
31
0.0
0
LINE
8
TOP
10
1.012500
20
1.999212
30
0.0
11
1.125000
21
2.001759
31
0.0
0
LINE
8
TOP
10
1.125000
20
2.001759
30
0.0
11
1.237500
21
2.004305
31
0.0
0
LINE
8
TOP
10
1.237500
20
2.004305
30
0.0
11
1.350000
21
2.006851
31
0.0
0
LINE
8
TOP
10
1.350000
20
2.006851
30
0.0
11
1.462500
21
2.009397
31
0.0
0
LINE
8
TOP
10
1.462500
20
2.009397
30
0.0
11
1.575000
21
2.011943
31
0.0
0
LINE
8
TOP
10
1.575000
20
2.011943
30
0.0
11
1.687500
21
2.014489
31
0.0
0
LINE
8
TOP
10
1.687500
20
2.014489
30
0.0
11
1.800000
21
2.017036
31
0.0
0
LINE
8
TOP
10
1.800000
20
2.017036
30
0.0
11
1.912500
21
2.019582
31
0.0
0
LINE
8
TOP
10
1.912500
20
2.019582
30
0.0
11
2.025000
21
2.022128
31
0.0
0
LINE
8
TOP
10
2.025000
20
2.022128
30
0.0
11
2.137500
21
2.024674
31
0.0
0
LINE
8
TOP
10
2.137500
20
2.024674
30
0.0
11
2.250000
21
2.027220
31
0.0
0
LINE
8
TOP
10
2.250000
20
2.027220
30
0.0
11
2.362500
21
2.029767
31
0.0
0
LINE
8
TOP
10
2.362500
20
2.029767
30
0.0
11
2.475000
21
2.032313
31
0.0
0
LINE
8
TOP
10
2.475000
20
2.032313
30
0.0
11
2.587500
21
2.034859
31
0.0
0
LINE
8
TOP
10
2.587500
20
2.034859
30
0.0
11
2.700000
21
2.037405
31
0.0
0
LINE
8
TOP
10
2.700000
20
2.037405
30
0.0
11
2.812500
21
2.039951
31
0.0
0
LINE
8
TOP
10
2.812500
20
2.039951
30
0.0
11
2.925000
21
2.042497
31
0.0
0
LINE
8
TOP
10
2.925000
20
2.042497
30
0.0
11
3.037500
21
2.045044
31
0.0
0
LINE
8
TOP
10
3.037500
20
2.045044
30
0.0
11
3.150000
21
2.047590
31
0.0
0
LINE
8
TOP
10
3.150000
20
2.047590
30
0.0
11
3.262500
21
2.050136
31
0.0
0
LINE
8
TOP
10
3.262500
20
2.050136
30
0.0
11
3.375000
21
2.052682
31
0.0
0
LINE
8
TOP
10
3.375000
20
2.052682
30
0.0
11
3.487500
21
2.055228
31
0.0
0
LINE
8
TOP
10
3.487500
20
2.055228
30
0.0
11
3.600000
21
2.057774
31
0.0
0
LINE
8
TOP
10
3.600000
20
2.057774
30
0.0
11
3.712500
21
2.060321
31
0.0
0
LINE
8
TOP
10
3.712500
20
2.060321
30
0.0
11
3.825000
21
2.062867
31
0.0
0
LINE
8
TOP
10
3.825000
20
2.062867
30
0.0
11
3.937500
21
2.065413
31
0.0
0
LINE
8
TOP
10
3.937500
20
2.065413
30
0.0
11
4.050000
21
2.067959
31
0.0
0
LINE
8
TOP
10
4.050000
20
2.067959
30
0.0
11
4.162500
21
2.070505
31
0.0
0
LINE
8
TOP
10
4.162500
20
2.070505
30
0.0
11
4.275000
21
2.073051
31
0.0
0
LINE
8
TOP
10
4.275000
20
2.073051
30
0.0
11
4.387500
21
2.075598
31
0.0
0
LINE
8
TOP
10
4.387500
20
2.075598
30
0.0
11
4.500000
21
2.078144
31
0.0
0
LINE
8
TOP
10
4.500000
20
2.078144
30
0.0
11
4.612500
21
2.075598
31
0.0
0
LINE
8
TOP
10
4.612500
20
2.075598
30
0.0
11
4.725000
21
2.073051
31
0.0
0
LINE
8
TOP
10
4.725000
20
2.073051
30
0.0
11
4.837500
21
2.070505
31
0.0
0
LINE
8
TOP
10
4.837500
20
2.070505
30
0.0
11
4.950000
21
2.067959
31
0.0
0
LINE
8
TOP
10
4.950000
20
2.067959
30
0.0
11
5.062500
21
2.065413
31
0.0
0
LINE
8
TOP
10
5.062500
20
2.065413
30
0.0
11
5.175000
21
2.062867
31
0.0
0
LINE
8
TOP
10
5.175000
20
2.062867
30
0.0
11
5.287500
21
2.060321
31
0.0
0
LINE
8
TOP
10
5.287500
20
2.060321
30
0.0
11
5.400000
21
2.057774
31
0.0
0
LINE
8
TOP
10
5.400000
20
2.057774
30
0.0
11
5.512500
21
2.055228
31
0.0
0
LINE
8
TOP
10
5.512500
20
2.055228
30
0.0
11
5.625000
21
2.052682
31
0.0
0
LINE
8
TOP
10
5.625000
20
2.052682
30
0.0
11
5.737500
21
2.050136
31
0.0
0
LINE
8
TOP
10
5.737500
20
2.050136
30
0.0
11
5.850000
21
2.047590
31
0.0
0
LINE
8
TOP
10
5.850000
20
2.047590
30
0.0
11
5.962500
21
2.045044
31
0.0
0
LINE
8
TOP
10
5.962500
20
2.045044
30
0.0
11
6.075000
21
2.042497
31
0.0
0
LINE
8
TOP
10
6.075000
20
2.042497
30
0.0
11
6.187500
21
2.039951
31
0.0
0
LINE
8
TOP
10
6.187500
20
2.039951
30
0.0
11
6.300000
21
2.037405
31
0.0
0
LINE
8
TOP
10
6.300000
20
2.037405
30
0.0
11
6.412500
21
2.034859
31
0.0
0
LINE
8
TOP
10
6.412500
20
2.034859
30
0.0
11
6.525000
21
2.032313
31
0.0
0
LINE
8
TOP
10
6.525000
20
2.032313
30
0.0
11
6.637500
21
2.029767
31
0.0
0
LINE
8
TOP
10
6.637500
20
2.029767
30
0.0
11
6.750000
21
2.027220
31
0.0
0
LINE
8
TOP
10
6.750000
20
2.027220
30
0.0
11
6.862500
21
2.024674
31
0.0
0
LINE
8
TOP
10
6.862500
20
2.024674
30
0.0
11
6.975000
21
2.022128
31
0.0
0
LINE
8
TOP
10
6.975000
20
2.022128
30
0.0
11
7.087500
21
2.019582
31
0.0
0
LINE
8
TOP
10
7.087500
20
2.019582
30
0.0
11
7.200000
21
2.017036
31
0.0
0
LINE
8
TOP
10
7.200000
20
2.017036
30
0.0
11
7.312500
21
2.014489
31
0.0
0
LINE
8
TOP
10
7.312500
20
2.014489
30
0.0
11
7.425000
21
2.011943
31
0.0
0
LINE
8
TOP
10
7.425000
20
2.011943
30
0.0
11
7.537500
21
2.009397
31
0.0
0
LINE
8
TOP
10
7.537500
20
2.009397
30
0.0
11
7.650000
21
2.006851
31
0.0
0
LINE
8
TOP
10
7.650000
20
2.006851
30
0.0
11
7.762500
21
2.004305
31
0.0
0
LINE
8
TOP
10
7.762500
20
2.004305
30
0.0
11
7.875000
21
2.001759
31
0.0
0
LINE
8
TOP
10
7.875000
20
2.001759
30
0.0
11
7.987500
21
1.999212
31
0.0
0
LINE
8
TOP
10
7.987500
20
1.999212
30
0.0
11
8.100000
21
1.996666
31
0.0
0
LINE
8
TOP
10
8.100000
20
1.996666
30
0.0
11
8.212500
21
1.994120
31
0.0
0
LINE
8
TOP
10
8.212500
20
1.994120
30
0.0
11
8.325000
21
1.991574
31
0.0
0
LINE
8
TOP
10
8.325000
20
1.991574
30
0.0
11
8.437500
21
1.989028
31
0.0
0
LINE
8
TOP
10
8.437500
20
1.989028
30
0.0
11
8.500000
21
1.987613
31
0.0
0
LINE
8
TOP
10
8.500000
20
1.987613
30
0.0
11
8.550000
21
1.986482
31
0.0
0
LINE
8
TOP
10
8.550000
20
1.986482
30
0.0
11
8.662500
21
1.983935
31
0.0
0
LINE
8
TOP
10
8.662500
20
1.983935
30
0.0
11
8.775000
21
1.981389
31
0.0
0
LINE
8
TOP
10
8.775000
20
1.981389
30
0.0
11
8.887500
21
1.978843
31
0.0
0
LINE
8
TOP
10
8.887500
20
1.978843
30
0.0
11
9.000000
21
1.976297
31
0.0
0
LINE
8
TOP
10
0.000000
20
1.672728
30
0.0
11
0.112500
21
1.670182
31
0.0
0
LINE
8
TOP
10
0.112500
20
1.670182
30
0.0
11
0.225000
21
1.667636
31
0.0
0
LINE
8
TOP
10
0.225000
20
1.667636
30
0.0
11
0.337500
21
1.665090
31
0.0
0
LINE
8
TOP
10
0.337500
20
1.665090
30
0.0
11
0.450000
21
1.662544
31
0.0
0
LINE
8
TOP
10
0.450000
20
1.662544
30
0.0
11
0.500000
21
1.661412
31
0.0
0
LINE
8
TOP
10
0.500000
20
1.661412
30
0.0
11
0.562500
21
1.659997
31
0.0
0
LINE
8
TOP
10
0.562500
20
1.659997
30
0.0
11
0.675000
21
1.657451
31
0.0
0
LINE
8
TOP
10
0.675000
20
1.657451
30
0.0
11
0.787500
21
1.654905
31
0.0
0
LINE
8
TOP
10
0.787500
20
1.654905
30
0.0
11
0.900000
21
1.652359
31
0.0
0
LINE
8
TOP
10
0.900000
20
1.652359
30
0.0
11
1.012500
21
1.649813
31
0.0
0
LINE
8
TOP
10
1.012500
20
1.649813
30
0.0
11
1.125000
21
1.647267
31
0.0
0
LINE
8
TOP
10
1.125000
20
1.647267
30
0.0
11
1.237500
21
1.644720
31
0.0
0
LINE
8
TOP
10
1.237500
20
1.644720
30
0.0
11
1.350000
21
1.642174
31
0.0
0
LINE
8
TOP
10
1.350000
20
1.642174
30
0.0
11
1.462500
21
1.639628
31
0.0
0
LINE
8
TOP
10
1.462500
20
1.639628
30
0.0
11
1.575000
21
1.637082
31
0.0
0
LINE
8
TOP
10
1.575000
20
1.637082
30
0.0
11
1.687500
21
1.634536
31
0.0
0
LINE
8
TOP
10
1.687500
20
1.634536
30
0.0
11
1.800000
21
1.631989
31
0.0
0
LINE
8
TOP
10
1.800000
20
1.631989
30
0.0
11
1.912500
21
1.629443
31
0.0
0
LINE
8
TOP
10
1.912500
20
1.629443
30
0.0
11
2.025000
21
1.626897
31
0.0
0
LINE
8
TOP
10
2.025000
20
1.626897
30
0.0
11
2.137500
21
1.624351
31
0.0
0
LINE
8
TOP
10
2.137500
20
1.624351
30
0.0
11
2.250000
21
1.621805
31
0.0
0
LINE
8
TOP
10
2.250000
20
1.621805
30
0.0
11
2.362500
21
1.619259
31
0.0
0
LINE
8
TOP
10
2.362500
20
1.619259
30
0.0
11
2.475000
21
1.616712
31
0.0
0
LINE
8
TOP
10
2.475000
20
1.616712
30
0.0
11
2.587500
21
1.614166
31
0.0
0
LINE
8
TOP
10
2.587500
20
1.614166
30
0.0
11
2.700000
21
1.611620
31
0.0
0
LINE
8
TOP
10
2.700000
20
1.611620
30
0.0
11
2.812500
21
1.609074
31
0.0
0
LINE
8
TOP
10
2.812500
20
1.609074
30
0.0
11
2.925000
21
1.606528
31
0.0
0
LINE
8
TOP
10
2.925000
20
1.606528
30
0.0
11
3.037500
21
1.603982
31
0.0
0
LINE
8
TOP
10
3.037500
20
1.603982
30
0.0
11
3.150000
21
1.601435
31
0.0
0
LINE
8
TOP
10
3.150000
20
1.601435
30
0.0
11
3.262500
21
1.598889
31
0.0
0
LINE
8
TOP
10
3.262500
20
1.598889
30
0.0
11
3.375000
21
1.596343
31
0.0
0
LINE
8
TOP
10
3.375000
20
1.596343
30
0.0
11
3.487500
21
1.593797
31
0.0
0
LINE
8
TOP
10
3.487500
20
1.593797
30
0.0
11
3.600000
21
1.591251
31
0.0
0
LINE
8
TOP
10
3.600000
20
1.591251
30
0.0
11
3.712500
21
1.588705
31
0.0
0
LINE
8
TOP
10
3.712500
20
1.588705
30
0.0
11
3.825000
21
1.586158
31
0.0
0
LINE
8
TOP
10
3.825000
20
1.586158
30
0.0
11
3.937500
21
1.583612
31
0.0
0
LINE
8
TOP
10
3.937500
20
1.583612
30
0.0
11
4.050000
21
1.581066
31
0.0
0
LINE
8
TOP
10
4.050000
20
1.581066
30
0.0
11
4.162500
21
1.578520
31
0.0
0
LINE
8
TOP
10
4.162500
20
1.578520
30
0.0
11
4.275000
21
1.575974
31
0.0
0
LINE
8
TOP
10
4.275000
20
1.575974
30
0.0
11
4.387500
21
1.573428
31
0.0
0
LINE
8
TOP
10
4.387500
20
1.573428
30
0.0
11
4.500000
21
1.570881
31
0.0
0
LINE
8
TOP
10
4.500000
20
1.570881
30
0.0
11
4.612500
21
1.573428
31
0.0
0
LINE
8
TOP
10
4.612500
20
1.573428
30
0.0
11
4.725000
21
1.575974
31
0.0
0
LINE
8
TOP
10
4.725000
20
1.575974
30
0.0
11
4.837500
21
1.578520
31
0.0
0
LINE
8
TOP
10
4.837500
20
1.578520
30
0.0
11
4.950000
21
1.581066
31
0.0
0
LINE
8
TOP
10
4.950000
20
1.581066
30
0.0
11
5.062500
21
1.583612
31
0.0
0
LINE
8
TOP
10
5.062500
20
1.583612
30
0.0
11
5.175000
21
1.586158
31
0.0
0
LINE
8
TOP
10
5.175000
20
1.586158
30
0.0
11
5.287500
21
1.588705
31
0.0
0
LINE
8
TOP
10
5.287500
20
1.588705
30
0.0
11
5.400000
21
1.591251
31
0.0
0
LINE
8
TOP
10
5.400000
20
1.591251
30
0.0
11
5.512500
21
1.593797
31
0.0
0
LINE
8
TOP
10
5.512500
20
1.593797
30
0.0
11
5.625000
21
1.596343
31
0.0
0
LINE
8
TOP
10
5.625000
20
1.596343
30
0.0
11
5.737500
21
1.598889
31
0.0
0
LINE
8
TOP
10
5.737500
20
1.598889
30
0.0
11
5.850000
21
1.601435
31
0.0
0
LINE
8
TOP
10
5.850000
20
1.601435
30
0.0
11
5.962500
21
1.603982
31
0.0
0
LINE
8
TOP
10
5.962500
20
1.603982
30
0.0
11
6.075000
21
1.606528
31
0.0
0
LINE
8
TOP
10
6.075000
20
1.606528
30
0.0
11
6.187500
21
1.609074
31
0.0
0
LINE
8
TOP
10
6.187500
20
1.609074
30
0.0
11
6.300000
21
1.611620
31
0.0
0
LINE
8
TOP
10
6.300000
20
1.611620
30
0.0
11
6.412500
21
1.614166
31
0.0
0
LINE
8
TOP
10
6.412500
20
1.614166
30
0.0
11
6.525000
21
1.616712
31
0.0
0
LINE
8
TOP
10
6.525000
20
1.616712
30
0.0
11
6.637500
21
1.619259
31
0.0
0
LINE
8
TOP
10
6.637500
20
1.619259
30
0.0
11
6.750000
21
1.621805
31
0.0
0
LINE
8
TOP
10
6.750000
20
1.621805
30
0.0
11
6.862500
21
1.624351
31
0.0
0
LINE
8
TOP
10
6.862500
20
1.624351
30
0.0
11
6.975000
21
1.626897
31
0.0
0
LINE
8
TOP
10
6.975000
20
1.626897
30
0.0
11
7.087500
21
1.629443
31
0.0
0
LINE
8
TOP
10
7.087500
20
1.629443
30
0.0
11
7.200000
21
1.631989
31
0.0
0
LINE
8
TOP
10
7.200000
20
1.631989
30
0.0
11
7.312500
21
1.634536
31
0.0
0
LINE
8
TOP
10
7.312500
20
1.634536
30
0.0
11
7.425000
21
1.637082
31
0.0
0
LINE
8
TOP
10
7.425000
20
1.637082
30
0.0
11
7.537500
21
1.639628
31
0.0
0
LINE
8
TOP
10
7.537500
20
1.639628
30
0.0
11
7.650000
21
1.642174
31
0.0
0
LINE
8
TOP
10
7.650000
20
1.642174
30
0.0
11
7.762500
21
1.644720
31
0.0
0
LINE
8
TOP
10
7.762500
20
1.644720
30
0.0
11
7.875000
21
1.647267
31
0.0
0
LINE
8
TOP
10
7.875000
20
1.647267
30
0.0
11
7.987500
21
1.649813
31
0.0
0
LINE
8
TOP
10
7.987500
20
1.649813
30
0.0
11
8.100000
21
1.652359
31
0.0
0
LINE
8
TOP
10
8.100000
20
1.652359
30
0.0
11
8.212500
21
1.654905
31
0.0
0
LINE
8
TOP
10
8.212500
20
1.654905
30
0.0
11
8.325000
21
1.657451
31
0.0
0
LINE
8
TOP
10
8.325000
20
1.657451
30
0.0
11
8.437500
21
1.659997
31
0.0
0
LINE
8
TOP
10
8.437500
20
1.659997
30
0.0
11
8.500000
21
1.661412
31
0.0
0
LINE
8
TOP
10
8.500000
20
1.661412
30
0.0
11
8.550000
21
1.662544
31
0.0
0
LINE
8
TOP
10
8.550000
20
1.662544
30
0.0
11
8.662500
21
1.665090
31
0.0
0
LINE
8
TOP
10
8.662500
20
1.665090
30
0.0
11
8.775000
21
1.667636
31
0.0
0
LINE
8
TOP
10
8.775000
20
1.667636
30
0.0
11
8.887500
21
1.670182
31
0.0
0
LINE
8
TOP
10
8.887500
20
1.670182
30
0.0
11
9.000000
21
1.672728
31
0.0
0
LINE
8
TOP
10
0.000000
20
1.976297
30
0.0
11
0.000000
21
1.672728
31
0.0
0
LINE
8
TOP
10
9.000000
20
1.976297
30
0.0
11
9.000000
21
1.672728
31
0.0
0
LINE
8
SECTION
10
10.246369
20
-0.326671
30
0.0
11
10.753631
21
-0.326671
31
0.0
0
LINE
8
SECTION
10
10.753631
20
-0.326671
30
0.0
11
10.753631
21
0.326671
31
0.0
0
LINE
8
SECTION
10
10.753631
20
0.326671
30
0.0
11
10.246369
21
0.326671
31
0.0
0
LINE
8
SECTION
10
10.246369
20
0.326671
30
0.0
11
10.246369
21
-0.326671
31
0.0
0
LINE
8
SECTION
10
10.286369
20
-0.286671
30
0.0
11
10.713631
21
-0.286671
31
0.0
0
LINE
8
SECTION
10
10.713631
20
-0.286671
30
0.0
11
10.713631
21
0.286671
31
0.0
0
LINE
8
SECTION
10
10.713631
20
0.286671
30
0.0
11
10.286369
21
0.286671
31
0.0
0
LINE
8
SECTION
10
10.286369
20
0.286671
30
0.0
11
10.286369
21
-0.286671
31
0.0
0
LINE
8
SECTION
10
10.286369
20
0.165863
30
0.0
11
10.326369
21
0.165863
31
0.0
0
LINE
8
SECTION
10
10.326369
20
0.165863
30
0.0
11
10.326369
21
0.286671
31
0.0
0
LINE
8
SECTION
10
10.326369
20
0.286671
30
0.0
11
10.286369
21
0.286671
31
0.0
0
LINE
8
SECTION
10
10.286369
20
0.286671
30
0.0
11
10.286369
21
0.165863
31
0.0
0
LINE
8
SECTION
10
10.286369
20
-0.286671
30
0.0
11
10.326369
21
-0.286671
31
0.0
0
LINE
8
SECTION
10
10.326369
20
-0.286671
30
0.0
11
10.326369
21
-0.165863
31
0.0
0
LINE
8
SECTION
10
10.326369
20
-0.165863
30
0.0
11
10.286369
21
-0.165863
31
0.0
0
LINE
8
SECTION
10
10.286369
20
-0.165863
30
0.0
11
10.286369
21
-0.286671
31
0.0
0
LINE
8
SECTION
10
10.673631
20
0.165863
30
0.0
11
10.713631
21
0.165863
31
0.0
0
LINE
8
SECTION
10
10.713631
20
0.165863
30
0.0
11
10.713631
21
0.286671
31
0.0
0
LINE
8
SECTION
10
10.713631
20
0.286671
30
0.0
11
10.673631
21
0.286671
31
0.0
0
LINE
8
SECTION
10
10.673631
20
0.286671
30
0.0
11
10.673631
21
0.165863
31
0.0
0
LINE
8
SECTION
10
10.673631
20
-0.286671
30
0.0
11
10.713631
21
-0.286671
31
0.0
0
LINE
8
SECTION
10
10.713631
20
-0.286671
30
0.0
11
10.713631
21
-0.165863
31
0.0
0
LINE
8
SECTION
10
10.713631
20
-0.165863
30
0.0
11
10.673631
21
-0.165863
31
0.0
0
LINE
8
SECTION
10
10.673631
20
-0.165863
30
0.0
11
10.673631
21
-0.286671
31
0.0
0
ENDSEC
0
EOF
