0
SECTION
2
HEADER
9
$INSUNITS
70
1
0
ENDSEC
0
SECTION
2
ENTITIES
0
LINE
8
FRONT
10
0.000000
20
0.303339
30
0.0
11
0.112500
21
0.301643
31
0.0
0
LINE
8
FRONT
10
0.112500
20
0.301643
30
0.0
11
0.225000
21
0.299947
31
0.0
0
LINE
8
FRONT
10
0.225000
20
0.299947
30
0.0
11
0.337500
21
0.298251
31
0.0
0
LINE
8
FRONT
10
0.337500
20
0.298251
30
0.0
11
0.450000
21
0.296555
31
0.0
0
LINE
8
FRONT
10
0.450000
20
0.296555
30
0.0
11
0.500000
21
0.295802
31
0.0
0
LINE
8
FRONT
10
0.500000
20
0.295802
30
0.0
11
0.562500
21
0.294860
31
0.0
0
LINE
8
FRONT
10
0.562500
20
0.294860
30
0.0
11
0.675000
21
0.293164
31
0.0
0
LINE
8
FRONT
10
0.675000
20
0.293164
30
0.0
11
0.787500
21
0.291468
31
0.0
0
LINE
8
FRONT
10
0.787500
20
0.291468
30
0.0
11
0.900000
21
0.289772
31
0.0
0
LINE
8
FRONT
10
0.900000
20
0.289772
30
0.0
11
1.012500
21
0.288077
31
0.0
0
LINE
8
FRONT
10
1.012500
20
0.288077
30
0.0
11
1.125000
21
0.286381
31
0.0
0
LINE
8
FRONT
10
1.125000
20
0.286381
30
0.0
11
1.237500
21
0.284685
31
0.0
0
LINE
8
FRONT
10
1.237500
20
0.284685
30
0.0
11
1.350000
21
0.282989
31
0.0
0
LINE
8
FRONT
10
1.350000
20
0.282989
30
0.0
11
1.462500
21
0.281293
31
0.0
0
LINE
8
FRONT
10
1.462500
20
0.281293
30
0.0
11
1.575000
21
0.279598
31
0.0
0
LINE
8
FRONT
10
1.575000
20
0.279598
30
0.0
11
1.687500
21
0.277902
31
0.0
0
LINE
8
FRONT
10
1.687500
20
0.277902
30
0.0
11
1.800000
21
0.276206
31
0.0
0
LINE
8
FRONT
10
1.800000
20
0.276206
30
0.0
11
1.912500
21
0.274510
31
0.0
0
LINE
8
FRONT
10
1.912500
20
0.274510
30
0.0
11
2.025000
21
0.272815
31
0.0
0
LINE
8
FRONT
10
2.025000
20
0.272815
30
0.0
11
2.137500
21
0.271119
31
0.0
0
LINE
8
FRONT
10
2.137500
20
0.271119
30
0.0
11
2.250000
21
0.269423
31
0.0
0
LINE
8
FRONT
10
2.250000
20
0.269423
30
0.0
11
2.362500
21
0.267727
31
0.0
0
LINE
8
FRONT
10
2.362500
20
0.267727
30
0.0
11
2.475000
21
0.266031
31
0.0
0
LINE
8
FRONT
10
2.475000
20
0.266031
30
0.0
11
2.587500
21
0.264336
31
0.0
0
LINE
8
FRONT
10
2.587500
20
0.264336
30
0.0
11
2.700000
21
0.262640
31
0.0
0
LINE
8
FRONT
10
2.700000
20
0.262640
30
0.0
11
2.812500
21
0.260944
31
0.0
0
LINE
8
FRONT
10
2.812500
20
0.260944
30
0.0
11
2.925000
21
0.259248
31
0.0
0
LINE
8
FRONT
10
2.925000
20
0.259248
30
0.0
11
3.037500
21
0.257553
31
0.0
0
LINE
8
FRONT
10
3.037500
20
0.257553
30
0.0
11
3.150000
21
0.255857
31
0.0
0
LINE
8
FRONT
10
3.150000
20
0.255857
30
0.0
11
3.262500
21
0.254161
31
0.0
0
LINE
8
FRONT
10
3.262500
20
0.254161
30
0.0
11
3.375000
21
0.252465
31
0.0
0
LINE
8
FRONT
10
3.375000
20
0.252465
30
0.0
11
3.487500
21
0.250769
31
0.0
0
LINE
8
FRONT
10
3.487500
20
0.250769
30
0.0
11
3.600000
21
0.249074
31
0.0
0
LINE
8
FRONT
10
3.600000
20
0.249074
30
0.0
11
3.712500
21
0.247378
31
0.0
0
LINE
8
FRONT
10
3.712500
20
0.247378
30
0.0
11
3.825000
21
0.245682
31
0.0
0
LINE
8
FRONT
10
3.825000
20
0.245682
30
0.0
11
3.937500
21
0.243986
31
0.0
0
LINE
8
FRONT
10
3.937500
20
0.243986
30
0.0
11
4.050000
21
0.242291
31
0.0
0
LINE
8
FRONT
10
4.050000
20
0.242291
30
0.0
11
4.162500
21
0.240595
31
0.0
0
LINE
8
FRONT
10
4.162500
20
0.240595
30
0.0
11
4.275000
21
0.238899
31
0.0
0
LINE
8
FRONT
10
4.275000
20
0.238899
30
0.0
11
4.387500
21
0.237203
31
0.0
0
LINE
8
FRONT
10
4.387500
20
0.237203
30
0.0
11
4.500000
21
0.235507
31
0.0
0
LINE
8
FRONT
10
4.500000
20
0.235507
30
0.0
11
4.612500
21
0.237203
31
0.0
0
LINE
8
FRONT
10
4.612500
20
0.237203
30
0.0
11
4.725000
21
0.238899
31
0.0
0
LINE
8
FRONT
10
4.725000
20
0.238899
30
0.0
11
4.837500
21
0.240595
31
0.0
0
LINE
8
FRONT
10
4.837500
20
0.240595
30
0.0
11
4.950000
21
0.242291
31
0.0
0
LINE
8
FRONT
10
4.950000
20
0.242291
30
0.0
11
5.062500
21
0.243986
31
0.0
0
LINE
8
FRONT
10
5.062500
20
0.243986
30
0.0
11
5.175000
21
0.245682
31
0.0
0
LINE
8
FRONT
10
5.175000
20
0.245682
30
0.0
11
5.287500
21
0.247378
31
0.0
0
LINE
8
FRONT
10
5.287500
20
0.247378
30
0.0
11
5.400000
21
0.249074
31
0.0
0
LINE
8
FRONT
10
5.400000
20
0.249074
30
0.0
11
5.512500
21
0.250769
31
0.0
0
LINE
8
FRONT
10
5.512500
20
0.250769
30
0.0
11
5.625000
21
0.252465
31
0.0
0
LINE
8
FRONT
10
5.625000
20
0.252465
30
0.0
11
5.737500
21
0.254161
31
0.0
0
LINE
8
FRONT
10
5.737500
20
0.254161
30
0.0
11
5.850000
21
0.255857
31
0.0
0
LINE
8
FRONT
10
5.850000
20
0.255857
30
0.0
11
5.962500
21
0.257553
31
0.0
0
LINE
8
FRONT
10
5.962500
20
0.257553
30
0.0
11
6.075000
21
0.259248
31
0.0
0
LINE
8
FRONT
10
6.075000
20
0.259248
30
0.0
11
6.187500
21
0.260944
31
0.0
0
LINE
8
FRONT
10
6.187500
20
0.260944
30
0.0
11
6.300000
21
0.262640
31
0.0
0
LINE
8
FRONT
10
6.300000
20
0.262640
30
0.0
11
6.412500
21
0.264336
31
0.0
0
LINE
8
FRONT
10
6.412500
20
0.264336
30
0.0
11
6.525000
21
0.266031
31
0.0
0
LINE
8
FRONT
10
6.525000
20
0.266031
30
0.0
11
6.637500
21
0.267727
31
0.0
0
LINE
8
FRONT
10
6.637500
20
0.267727
30
0.0
11
6.750000
21
0.269423
31
0.0
0
LINE
8
FRONT
10
6.750000
20
0.269423
30
0.0
11
6.862500
21
0.271119
31
0.0
0
LINE
8
FRONT
10
6.862500
20
0.271119
30
0.0
11
6.975000
21
0.272815
31
0.0
0
LINE
8
FRONT
10
6.975000
20
0.272815
30
0.0
11
7.087500
21
0.274510
31
0.0
0
LINE
8
FRONT
10
7.087500
20
0.274510
30
0.0
11
7.200000
21
0.276206
31
0.0
0
LINE
8
FRONT
10
7.200000
20
0.276206
30
0.0
11
7.312500
21
0.277902
31
0.0
0
LINE
8
FRONT
10
7.312500
20
0.277902
30
0.0
11
7.425000
21
0.279598
31
0.0
0
LINE
8
FRONT
10
7.425000
20
0.279598
30
0.0
11
7.537500
21
0.281293
31
0.0
0
LINE
8
FRONT
10
7.537500
20
0.281293
30
0.0
11
7.650000
21
0.282989
31
0.0
0
LINE
8
FRONT
10
7.650000
20
0.282989
30
0.0
11
7.762500
21
0.284685
31
0.0
0
LINE
8
FRONT
10
7.762500
20
0.284685
30
0.0
11
7.875000
21
0.286381
31
0.0
0
LINE
8
FRONT
10
7.875000
20
0.286381
30
0.0
11
7.987500
21
0.288077
31
0.0
0
LINE
8
FRONT
10
7.987500
20
0.288077
30
0.0
11
8.100000
21
0.289772
31
0.0
0
LINE
8
FRONT
10
8.100000
20
0.289772
30
0.0
11
8.212500
21
0.291468
31
0.0
0
LINE
8
FRONT
10
8.212500
20
0.291468
30
0.0
11
8.325000
21
0.293164
31
0.0
0
LINE
8
FRONT
10
8.325000
20
0.293164
30
0.0
11
8.437500
21
0.294860
31
0.0
0
LINE
8
FRONT
10
8.437500
20
0.294860
30
0.0
11
8.500000
21
0.295802
31
0.0
0
LINE
8
FRONT
10
8.500000
20
0.295802
30
0.0
11
8.550000
21
0.296555
31
0.0
0
LINE
8
FRONT
10
8.550000
20
0.296555
30
0.0
11
8.662500
21
0.298251
31
0.0
0
LINE
8
FRONT
10
8.662500
20
0.298251
30
0.0
11
8.775000
21
0.299947
31
0.0
0
LINE
8
FRONT
10
8.775000
20
0.299947
30
0.0
11
8.887500
21
0.301643
31
0.0
0
LINE
8
FRONT
10
8.887500
20
0.301643
30
0.0
11
9.000000
21
0.303339
31
0.0
0
LINE
8
FRONT
10
0.000000
20
-0.303339
30
0.0
11
0.112500
21
-0.301643
31
0.0
0
LINE
8
FRONT
10
0.112500
20
-0.301643
30
0.0
11
0.225000
21
-0.299947
31
0.0
0
LINE
8
FRONT
10
0.225000
20
-0.299947
30
0.0
11
0.337500
21
-0.298251
31
0.0
0
LINE
8
FRONT
10
0.337500
20
-0.298251
30
0.0
11
0.450000
21
-0.296555
31
0.0
0
LINE
8
FRONT
10
0.450000
20
-0.296555
30
0.0
11
0.500000
21
-0.295802
31
0.0
0
LINE
8
FRONT
10
0.500000
20
-0.295802
30
0.0
11
0.562500
21
-0.294860
31
0.0
0
LINE
8
FRONT
10
0.562500
20
-0.294860
30
0.0
11
0.675000
21
-0.293164
31
0.0
0
LINE
8
FRONT
10
0.675000
20
-0.293164
30
0.0
11
0.787500
21
-0.291468
31
0.0
0
LINE
8
FRONT
10
0.787500
20
-0.291468
30
0.0
11
0.900000
21
-0.289772
31
0.0
0
LINE
8
FRONT
10
0.900000
20
-0.289772
30
0.0
11
1.012500
21
-0.288077
31
0.0
0
LINE
8
FRONT
10
1.012500
20
-0.288077
30
0.0
11
1.125000
21
-0.286381
31
0.0
0
LINE
8
FRONT
10
1.125000
20
-0.286381
30
0.0
11
1.237500
21
-0.284685
31
0.0
0
LINE
8
FRONT
10
1.237500
20
-0.284685
30
0.0
11
1.350000
21
-0.282989
31
0.0
0
LINE
8
FRONT
10
1.350000
20
-0.282989
30
0.0
11
1.462500
21
-0.281293
31
0.0
0
LINE
8
FRONT
10
1.462500
20
-0.281293
30
0.0
11
1.575000
21
-0.279598
31
0.0
0
LINE
8
FRONT
10
1.575000
20
-0.279598
30
0.0
11
1.687500
21
-0.277902
31
0.0
0
LINE
8
FRONT
10
1.687500
20
-0.277902
30
0.0
11
1.800000
21
-0.276206
31
0.0
0
LINE
8
FRONT
10
1.800000
20
-0.276206
30
0.0
11
1.912500
21
-0.274510
31
0.0
0
LINE
8
FRONT
10
1.912500
20
-0.274510
30
0.0
11
2.025000
21
-0.272815
31
0.0
0
LINE
8
FRONT
10
2.025000
20
-0.272815
30
0.0
11
2.137500
21
-0.271119
31
0.0
0
LINE
8
FRONT
10
2.137500
20
-0.271119
30
0.0
11
2.250000
21
-0.269423
31
0.0
0
LINE
8
FRONT
10
2.250000
20
-0.269423
30
0.0
11
2.362500
21
-0.267727
31
0.0
0
LINE
8
FRONT
10
2.362500
20
-0.267727
30
0.0
11
2.475000
21
-0.266031
31
0.0
0
LINE
8
FRONT
10
2.475000
20
-0.266031
30
0.0
11
2.587500
21
-0.264336
31
0.0
0
LINE
8
FRONT
10
2.587500
20
-0.264336
30
0.0
11
2.700000
21
-0.262640
31
0.0
0
LINE
8
FRONT
10
2.700000
20
-0.262640
30
0.0
11
2.812500
21
-0.260944
31
0.0
0
LINE
8
FRONT
10
2.812500
20
-0.260944
30
0.0
11
2.925000
21
-0.259248
31
0.0
0
LINE
8
FRONT
10
2.925000
20
-0.259248
30
0.0
11
3.037500
21
-0.257553
31
0.0
0
LINE
8
FRONT
10
3.037500
20
-0.257553
30
0.0
11
3.150000
21
-0.255857
31
0.0
0
LINE
8
FRONT
10
3.150000
20
-0.255857
30
0.0
11
3.262500
21
-0.254161
31
0.0
0
LINE
8
FRONT
10
3.262500
20
-0.254161
30
0.0
11
3.375000
21
-0.252465
31
0.0
0
LINE
8
FRONT
10
3.375000
20
-0.252465
30
0.0
11
3.487500
21
-0.250769
31
0.0
0
LINE
8
FRONT
10
3.487500
20
-0.250769
30
0.0
11
3.600000
21
-0.249074
31
0.0
0
LINE
8
FRONT
10
3.600000
20
-0.249074
30
0.0
11
3.712500
21
-0.247378
31
0.0
0
LINE
8
FRONT
10
3.712500
20
-0.247378
30
0.0
11
3.825000
21
-0.245682
31
0.0
0
LINE
8
FRONT
10
3.825000
20
-0.245682
30
0.0
11
3.937500
21
-0.243986
31
0.0
0
LINE
8
FRONT
10
3.937500
20
-0.243986
30
0.0
11
4.050000
21
-0.242291
31
0.0
0
LINE
8
FRONT
10
4.050000
20
-0.242291
30
0.0
11
4.162500
21
-0.240595
31
0.0
0
LINE
8
FRONT
10
4.162500
20
-0.240595
30
0.0
11
4.275000
21
-0.238899
31
0.0
0
LINE
8
FRONT
10
4.275000
20
-0.238899
30
0.0
11
4.387500
21
-0.237203
31
0.0
0
LINE
8
FRONT
10
4.387500
20
-0.237203
30
0.0
11
4.500000
21
-0.235507
31
0.0
0
LINE
8
FRONT
10
4.500000
20
-0.235507
30
0.0
11
4.612500
21
-0.237203
31
0.0
0
LINE
8
FRONT
10
4.612500
20
-0.237203
30
0.0
11
4.725000
21
-0.238899
31
0.0
0
LINE
8
FRONT
10
4.725000
20
-0.238899
30
0.0
11
4.837500
21
-0.240595
31
0.0
0
LINE
8
FRONT
10
4.837500
20
-0.240595
30
0.0
11
4.950000
21
-0.242291
31
0.0
0
LINE
8
FRONT
10
4.950000
20
-0.242291
30
0.0
11
5.062500
21
-0.243986
31
0.0
0
LINE
8
FRONT
10
5.062500
20
-0.243986
30
0.0
11
5.175000
21
-0.245682
31
0.0
0
LINE
8
FRONT
10
5.175000
20
-0.245682
30
0.0
11
5.287500
21
-0.247378
31
0.0
0
LINE
8
FRONT
10
5.287500
20
-0.247378
30
0.0
11
5.400000
21
-0.249074
31
0.0
0
LINE
8
FRONT
10
5.400000
20
-0.249074
30
0.0
11
5.512500
21
-0.250769
31
0.0
0
LINE
8
FRONT
10
5.512500
20
-0.250769
30
0.0
11
5.625000
21
-0.252465
31
0.0
0
LINE
8
FRONT
10
5.625000
20
-0.252465
30
0.0
11
5.737500
21
-0.254161
31
0.0
0
LINE
8
FRONT
10
5.737500
20
-0.254161
30
0.0
11
5.850000
21
-0.255857
31
0.0
0
LINE
8
FRONT
10
5.850000
20
-0.255857
30
0.0
11
5.962500
21
-0.257553
31
0.0
0
LINE
8
FRONT
10
5.962500
20
-0.257553
30
0.0
11
6.075000
21
-0.259248
31
0.0
0
LINE
8
FRONT
10
6.075000
20
-0.259248
30
0.0
11
6.187500
21
-0.260944
31
0.0
0
LINE
8
FRONT
10
6.187500
20
-0.260944
30
0.0
11
6.300000
21
-0.262640
31
0.0
0
LINE
8
FRONT
10
6.300000
20
-0.262640
30
0.0
11
6.412500
21
-0.264336
31
0.0
0
LINE
8
FRONT
10
6.412500
20
-0.264336
30
0.0
11
6.525000
21
-0.266031
31
0.0
0
LINE
8
FRONT
10
6.525000
20
-0.266031
30
0.0
11
6.637500
21
-0.267727
31
0.0
0
LINE
8
FRONT
10
6.637500
20
-0.267727
30
0.0
11
6.750000
21
-0.269423
31
0.0
0
LINE
8
FRONT
10
6.750000
20
-0.269423
30
0.0
11
6.862500
21
-0.271119
31
0.0
0
LINE
8
FRONT
10
6.862500
20
-0.271119
30
0.0
11
6.975000
21
-0.272815
31
0.0
0
LINE
8
FRONT
10
6.975000
20
-0.272815
30
0.0
11
7.087500
21
-0.274510
31
0.0
0
LINE
8
FRONT
10
7.087500
20
-0.274510
30
0.0
11
7.200000
21
-0.276206
31
0.0
0
LINE
8
FRONT
10
7.200000
20
-0.276206
30
0.0
11
7.312500
21
-0.277902
31
0.0
0
LINE
8
FRONT
10
7.312500
20
-0.277902
30
0.0
11
7.425000
21
-0.279598
31
0.0
0
LINE
8
FRONT
10
7.425000
20
-0.279598
30
0.0
11
7.537500
21
-0.281293
31
0.0
0
LINE
8
FRONT
10
7.537500
20
-0.281293
30
0.0
11
7.650000
21
-0.282989
31
0.0
0
LINE
8
FRONT
10
7.650000
20
-0.282989
30
0.0
11
7.762500
21
-0.284685
31
0.0
0
LINE
8
FRONT
10
7.762500
20
-0.284685
30
0.0
11
7.875000
21
-0.286381
31
0.0
0
LINE
8
FRONT
10
7.875000
20
-0.286381
30
0.0
11
7.987500
21
-0.288077
31
0.0
0
LINE
8
FRONT
10
7.987500
20
-0.288077
30
0.0
11
8.100000
21
-0.289772
31
0.0
0
LINE
8
FRONT
10
8.100000
20
-0.289772
30
0.0
11
8.212500
21
-0.291468
31
0.0
0
LINE
8
FRONT
10
8.212500
20
-0.291468
30
0.0
11
8.325000
21
-0.293164
31
0.0
0
LINE
8
FRONT
10
8.325000
20
-0.293164
30
0.0
11
8.437500
21
-0.294860
31
0.0
0
LINE
8
FRONT
10
8.437500
20
-0.294860
30
0.0
11
8.500000
21
-0.295802
31
0.0
0
LINE
8
FRONT
10
8.500000
20
-0.295802
30
0.0
11
8.550000
21
-0.296555
31
0.0
0
LINE
8
FRONT
10
8.550000
20
-0.296555
30
0.0
11
8.662500
21
-0.298251
31
0.0
0
LINE
8
FRONT
10
8.662500
20
-0.298251
30
0.0
11
8.775000
21
-0.299947
31
0.0
0
LINE
8
FRONT
10
8.775000
20
-0.299947
30
0.0
11
8.887500
21
-0.301643
31
0.0
0
LINE
8
FRONT
10
8.887500
20
-0.301643
30
0.0
11
9.000000
21
-0.303339
31
0.0
0
LINE
8
FRONT
10
0.000000
20
0.303339
30
0.0
11
0.000000
21
-0.303339
31
0.0
0
LINE
8
FRONT
10
9.000000
20
0.303339
30
0.0
11
9.000000
21
-0.303339
31
0.0
0
LINE
8
TOP
10
0.000000
20
1.819190
30
0.0
11
0.112500
21
1.821040
31
0.0
0
LINE
8
TOP
10
0.112500
20
1.821040
30
0.0
11
0.225000
21
1.822891
31
0.0
0
LINE
8
TOP
10
0.225000
20
1.822891
30
0.0
11
0.337500
21
1.824741
31
0.0
0
LINE
8
TOP
10
0.337500
20
1.824741
30
0.0
11
0.450000
21
1.826591
31
0.0
0
LINE
8
TOP
10
0.450000
20
1.826591
30
0.0
11
0.500000
21
1.827414
31
0.0
0
LINE
8
TOP
10
0.500000
20
1.827414
30
0.0
11
0.562500
21
1.828442
31
0.0
0
LINE
8
TOP
10
0.562500
20
1.828442
30
0.0
11
0.675000
21
1.830292
31
0.0
0
LINE
8
TOP
10
0.675000
20
1.830292
30
0.0
11
0.787500
21
1.832143
31
0.0
0
LINE
8
TOP
10
0.787500
20
1.832143
30
0.0
11
0.900000
21
1.833993
31
0.0
0
LINE
8
TOP
10
0.900000
20
1.833993
30
0.0
11
1.012500
21
1.835844
31
0.0
0
LINE
8
TOP
10
1.012500
20
1.835844
30
0.0
11
1.125000
21
1.837694
31
0.0
0
LINE
8
TOP
10
1.125000
20
1.837694
30
0.0
11
1.237500
21
1.839545
31
0.0
0
LINE
8
TOP
10
1.237500
20
1.839545
30
0.0
11
1.350000
21
1.841395
31
0.0
0
LINE
8
TOP
10
1.350000
20
1.841395
30
0.0
11
1.462500
21
1.843245
31
0.0
0
LINE
8
TOP
10
1.462500
20
1.843245
30
0.0
11
1.575000
21
1.845096
31
0.0
0
LINE
8
TOP
10
1.575000
20
1.845096
30
0.0
11
1.687500
21
1.846946
31
0.0
0
LINE
8
TOP
10
1.687500
20
1.846946
30
0.0
11
1.800000
21
1.848797
31
0.0
0
LINE
8
TOP
10
1.800000
20
1.848797
30
0.0
11
1.912500
21
1.850647
31
0.0
0
LINE
8
TOP
10
1.912500
20
1.850647
30
0.0
11
2.025000
21
1.852498
31
0.0
0
LINE
8
TOP
10
2.025000
20
1.852498
30
0.0
11
2.137500
21
1.854348
31
0.0
0
LINE
8
TOP
10
2.137500
20
1.854348
30
0.0
11
2.250000
21
1.856199
31
0.0
0
LINE
8
TOP
10
2.250000
20
1.856199
30
0.0
11
2.362500
21
1.858049
31
0.0
0
LINE
8
TOP
10
2.362500
20
1.858049
30
0.0
11
2.475000
21
1.859899
31
0.0
0
LINE
8
TOP
10
2.475000
20
1.859899
30
0.0
11
2.587500
21
1.861750
31
0.0
0
LINE
8
TOP
10
2.587500
20
1.861750
30
0.0
11
2.700000
21
1.863600
31
0.0
0
LINE
8
TOP
10
2.700000
20
1.863600
30
0.0
11
2.812500
21
1.865451
31
0.0
0
LINE
8
TOP
10
2.812500
20
1.865451
30
0.0
11
2.925000
21
1.867301
31
0.0
0
LINE
8
TOP
10
2.925000
20
1.867301
30
0.0
11
3.037500
21
1.869152
31
0.0
0
LINE
8
TOP
10
3.037500
20
1.869152
30
0.0
11
3.150000
21
1.871002
31
0.0
0
LINE
8
TOP
10
3.150000
20
1.871002
30
0.0
11
3.262500
21
1.872853
31
0.0
0
LINE
8
TOP
10
3.262500
20
1.872853
30
0.0
11
3.375000
21
1.874703
31
0.0
0
LINE
8
TOP
10
3.375000
20
1.874703
30
0.0
11
3.487500
21
1.876553
31
0.0
0
LINE
8
TOP
10
3.487500
20
1.876553
30
0.0
11
3.600000
21
1.878404
31
0.0
0
LINE
8
TOP
10
3.600000
20
1.878404
30
0.0
11
3.712500
21
1.880254
31
0.0
0
LINE
8
TOP
10
3.712500
20
1.880254
30
0.0
11
3.825000
21
1.882105
31
0.0
0
LINE
8
TOP
10
3.825000
20
1.882105
30
0.0
11
3.937500
21
1.883955
31
0.0
0
LINE
8
TOP
10
3.937500
20
1.883955
30
0.0
11
4.050000
21
1.885806
31
0.0
0
LINE
8
TOP
10
4.050000
20
1.885806
30
0.0
11
4.162500
21
1.887656
31
0.0
0
LINE
8
TOP
10
4.162500
20
1.887656
30
0.0
11
4.275000
21
1.889507
31
0.0
0
LINE
8
TOP
10
4.275000
20
1.889507
30
0.0
11
4.387500
21
1.891357
31
0.0
0
LINE
8
TOP
10
4.387500
20
1.891357
30
0.0
11
4.500000
21
1.893207
31
0.0
0
LINE
8
TOP
10
4.500000
20
1.893207
30
0.0
11
4.612500
21
1.891357
31
0.0
0
LINE
8
TOP
10
4.612500
20
1.891357
30
0.0
11
4.725000
21
1.889507
31
0.0
0
LINE
8
TOP
10
4.725000
20
1.889507
30
0.0
11
4.837500
21
1.887656
31
0.0
0
LINE
8
TOP
10
4.837500
20
1.887656
30
0.0
11
4.950000
21
1.885806
31
0.0
0
LINE
8
TOP
10
4.950000
20
1.885806
30
0.0
11
5.062500
21
1.883955
31
0.0
0
LINE
8
TOP
10
5.062500
20
1.883955
30
0.0
11
5.175000
21
1.882105
31
0.0
0
LINE
8
TOP
10
5.175000
20
1.882105
30
0.0
11
5.287500
21
1.880254
31
0.0
0
LINE
8
TOP
10
5.287500
20
1.880254
30
0.0
11
5.400000
21
1.878404
31
0.0
0
LINE
8
TOP
10
5.400000
20
1.878404
30
0.0
11
5.512500
21
1.876553
31
0.0
0
LINE
8
TOP
10
5.512500
20
1.876553
30
0.0
11
5.625000
21
1.874703
31
0.0
0
LINE
8
TOP
10
5.625000
20
1.874703
30
0.0
11
5.737500
21
1.872853
31
0.0
0
LINE
8
TOP
10
5.737500
20
1.872853
30
0.0
11
5.850000
21
1.871002
31
0.0
0
LINE
8
TOP
10
5.850000
20
1.871002
30
0.0
11
5.962500
21
1.869152
31
0.0
0
LINE
8
TOP
10
5.962500
20
1.869152
30
0.0
11
6.075000
21
1.867301
31
0.0
0
LINE
8
TOP
10
6.075000
20
1.867301
30
0.0
11
6.187500
21
1.865451
31
0.0
0
LINE
8
TOP
10
6.187500
20
1.865451
30
0.0
11
6.300000
21
1.863600
31
0.0
0
LINE
8
TOP
10
6.300000
20
1.863600
30
0.0
11
6.412500
21
1.861750
31
0.0
0
LINE
8
TOP
10
6.412500
20
1.861750
30
0.0
11
6.525000
21
1.859899
31
0.0
0
LINE
8
TOP
10
6.525000
20
1.859899
30
0.0
11
6.637500
21
1.858049
31
0.0
0
LINE
8
TOP
10
6.637500
20
1.858049
30
0.0
11
6.750000
21
1.856199
31
0.0
0
LINE
8
TOP
10
6.750000
20
1.856199
30
0.0
11
6.862500
21
1.854348
31
0.0
0
LINE
8
TOP
10
6.862500
20
1.854348
30
0.0
11
6.975000
21
1.852498
31
0.0
0
LINE
8
TOP
10
6.975000
20
1.852498
30
0.0
11
7.087500
21
1.850647
31
0.0
0
LINE
8
TOP
10
7.087500
20
1.850647
30
0.0
11
7.200000
21
1.848797
31
0.0
0
LINE
8
TOP
10
7.200000
20
1.848797
30
0.0
11
7.312500
21
1.846946
31
0.0
0
LINE
8
TOP
10
7.312500
20
1.846946
30
0.0
11
7.425000
21
1.845096
31
0.0
0
LINE
8
TOP
10
7.425000
20
1.845096
30
0.0
11
7.537500
21
1.843245
31
0.0
0
LINE
8
TOP
10
7.537500
20
1.843245
30
0.0
11
7.650000
21
1.841395
31
0.0
0
LINE
8
TOP
10
7.650000
20
1.841395
30
0.0
11
7.762500
21
1.839545
31
0.0
0
LINE
8
TOP
10
7.762500
20
1.839545
30
0.0
11
7.875000
21
1.837694
31
0.0
0
LINE
8
TOP
10
7.875000
20
1.837694
30
0.0
11
7.987500
21
1.835844
31
0.0
0
LINE
8
TOP
10
7.987500
20
1.835844
30
0.0
11
8.100000
21
1.833993
31
0.0
0
LINE
8
TOP
10
8.100000
20
1.833993
30
0.0
11
8.212500
21
1.832143
31
0.0
0
LINE
8
TOP
10
8.212500
20
1.832143
30
0.0
11
8.325000
21
1.830292
31
0.0
0
LINE
8
TOP
10
8.325000
20
1.830292
30
0.0
11
8.437500
21
1.828442
31
0.0
0
LINE
8
TOP
10
8.437500
20
1.828442
30
0.0
11
8.500000
21
1.827414
31
0.0
0
LINE
8
TOP
10
8.500000
20
1.827414
30
0.0
11
8.550000
21
1.826591
31
0.0
0
LINE
8
TOP
10
8.550000
20
1.826591
30
0.0
11
8.662500
21
1.824741
31
0.0
0
LINE
8
TOP
10
8.662500
20
1.824741
30
0.0
11
8.775000
21
1.822891
31
0.0
0
LINE
8
TOP
10
8.775000
20
1.822891
30
0.0
11
8.887500
21
1.821040
31
0.0
0
LINE
8
TOP
10
8.887500
20
1.821040
30
0.0
11
9.000000
21
1.819190
31
0.0
0
LINE
8
TOP
10
0.000000
20
1.500842
30
0.0
11
0.112500
21
1.498991
31
0.0
0
LINE
8
TOP
10
0.112500
20
1.498991
30
0.0
11
0.225000
21
1.497141
31
0.0
0
LINE
8
TOP
10
0.225000
20
1.497141
30
0.0
11
0.337500
21
1.495290
31
0.0
0
LINE
8
TOP
10
0.337500
20
1.495290
30
0.0
11
0.450000
21
1.493440
31
0.0
0
LINE
8
TOP
10
0.450000
20
1.493440
30
0.0
11
0.500000
21
1.492617
31
0.0
0
LINE
8
TOP
10
0.500000
20
1.492617
30
0.0
11
0.562500
21
1.491589
31
0.0
0
LINE
8
TOP
10
0.562500
20
1.491589
30
0.0
11
0.675000
21
1.489739
31
0.0
0
LINE
8
TOP
10
0.675000
20
1.489739
30
0.0
11
0.787500
21
1.487889
31
0.0
0
LINE
8
TOP
10
0.787500
20
1.487889
30
0.0
11
0.900000
21
1.486038
31
0.0
0
LINE
8
TOP
10
0.900000
20
1.486038
30
0.0
11
1.012500
21
1.484188
31
0.0
0
LINE
8
TOP
10
1.012500
20
1.484188
30
0.0
11
1.125000
21
1.482337
31
0.0
0
LINE
8
TOP
10
1.125000
20
1.482337
30
0.0
11
1.237500
21
1.480487
31
0.0
0
LINE
8
TOP
10
1.237500
20
1.480487
30
0.0
11
1.350000
21
1.478636
31
0.0
0
LINE
8
TOP
10
1.350000
20
1.478636
30
0.0
11
1.462500
21
1.476786
31
0.0
0
LINE
8
TOP
10
1.462500
20
1.476786
30
0.0
11
1.575000
21
1.474935
31
0.0
0
LINE
8
TOP
10
1.575000
20
1.474935
30
0.0
11
1.687500
21
1.473085
31
0.0
0
LINE
8
TOP
10
1.687500
20
1.473085
30
0.0
11
1.800000
21
1.471235
31
0.0
0
LINE
8
TOP
10
1.800000
20
1.471235
30
0.0
11
1.912500
21
1.469384
31
0.0
0
LINE
8
TOP
10
1.912500
20
1.469384
30
0.0
11
2.025000
21
1.467534
31
0.0
0
LINE
8
TOP
10
2.025000
20
1.467534
30
0.0
11
2.137500
21
1.465683
31
0.0
0
LINE
8
TOP
10
2.137500
20
1.465683
30
0.0
11
2.250000
21
1.463833
31
0.0
0
LINE
8
TOP
10
2.250000
20
1.463833
30
0.0
11
2.362500
21
1.461982
31
0.0
0
LINE
8
TOP
10
2.362500
20
1.461982
30
0.0
11
2.475000
21
1.460132
31
0.0
0
LINE
8
TOP
10
2.475000
20
1.460132
30
0.0
11
2.587500
21
1.458281
31
0.0
0
LINE
8
TOP
10
2.587500
20
1.458281
30
0.0
11
2.700000
21
1.456431
31
0.0
0
LINE
8
TOP
10
2.700000
20
1.456431
30
0.0
11
2.812500
21
1.454581
31
0.0
0
LINE
8
TOP
10
2.812500
20
1.454581
30
0.0
11
2.925000
21
1.452730
31
0.0
0
LINE
8
TOP
10
2.925000
20
1.452730
30
0.0
11
3.037500
21
1.450880
31
0.0
0
LINE
8
TOP
10
3.037500
20
1.450880
30
0.0
11
3.150000
21
1.449029
31
0.0
0
LINE
8
TOP
10
3.150000
20
1.449029
30
0.0
11
3.262500
21
1.447179
31
0.0
0
LINE
8
TOP
10
3.262500
20
1.447179
30
0.0
11
3.375000
21
1.445328
31
0.0
0
LINE
8
TOP
10
3.375000
20
1.445328
30
0.0
11
3.487500
21
1.443478
31
0.0
0
LINE
8
TOP
10
3.487500
20
1.443478
30
0.0
11
3.600000
21
1.441627
31
0.0
0
LINE
8
TOP
10
3.600000
20
1.441627
30
0.0
11
3.712500
21
1.439777
31
0.0
0
LINE
8
TOP
10
3.712500
20
1.439777
30
0.0
11
3.825000
21
1.437927
31
0.0
0
LINE
8
TOP
10
3.825000
20
1.437927
30
0.0
11
3.937500
21
1.436076
31
0.0
0
LINE
8
TOP
10
3.937500
20
1.436076
30
0.0
11
4.050000
21
1.434226
31
0.0
0
LINE
8
TOP
10
4.050000
20
1.434226
30
0.0
11
4.162500
21
1.432375
31
0.0
0
LINE
8
TOP
10
4.162500
20
1.432375
30
0.0
11
4.275000
21
1.430525
31
0.0
0
LINE
8
TOP
10
4.275000
20
1.430525
30
0.0
11
4.387500
21
1.428674
31
0.0
0
LINE
8
TOP
10
4.387500
20
1.428674
30
0.0
11
4.500000
21
1.426824
31
0.0
0
LINE
8
TOP
10
4.500000
20
1.426824
30
0.0
11
4.612500
21
1.428674
31
0.0
0
LINE
8
TOP
10
4.612500
20
1.428674
30
0.0
11
4.725000
21
1.430525
31
0.0
0
LINE
8
TOP
10
4.725000
20
1.430525
30
0.0
11
4.837500
21
1.432375
31
0.0
0
LINE
8
TOP
10
4.837500
20
1.432375
30
0.0
11
4.950000
21
1.434226
31
0.0
0
LINE
8
TOP
10
4.950000
20
1.434226
30
0.0
11
5.062500
21
1.436076
31
0.0
0
LINE
8
TOP
10
5.062500
20
1.436076
30
0.0
11
5.175000
21
1.437927
31
0.0
0
LINE
8
TOP
10
5.175000
20
1.437927
30
0.0
11
5.287500
21
1.439777
31
0.0
0
LINE
8
TOP
10
5.287500
20
1.439777
30
0.0
11
5.400000
21
1.441627
31
0.0
0
LINE
8
TOP
10
5.400000
20
1.441627
30
0.0
11
5.512500
21
1.443478
31
0.0
0
LINE
8
TOP
10
5.512500
20
1.443478
30
0.0
11
5.625000
21
1.445328
31
0.0
0
LINE
8
TOP
10
5.625000
20
1.445328
30
0.0
11
5.737500
21
1.447179
31
0.0
0
LINE
8
TOP
10
5.737500
20
1.447179
30
0.0
11
5.850000
21
1.449029
31
0.0
0
LINE
8
TOP
10
5.850000
20
1.449029
30
0.0
11
5.962500
21
1.450880
31
0.0
0
LINE
8
TOP
10
5.962500
20
1.450880
30
0.0
11
6.075000
21
1.452730
31
0.0
0
LINE
8
TOP
10
6.075000
20
1.452730
30
0.0
11
6.187500
21
1.454581
31
0.0
0
LINE
8
TOP
10
6.187500
20
1.454581
30
0.0
11
6.300000
21
1.456431
31
0.0
0
LINE
8
TOP
10
6.300000
20
1.456431
30
0.0
11
6.412500
21
1.458281
31
0.0
0
LINE
8
TOP
10
6.412500
20
1.458281
30
0.0
11
6.525000
21
1.460132
31
0.0
0
LINE
8
TOP
10
6.525000
20
1.460132
30
0.0
11
6.637500
21
1.461982
31
0.0
0
LINE
8
TOP
10
6.637500
20
1.461982
30
0.0
11
6.750000
21
1.463833
31
0.0
0
LINE
8
TOP
10
6.750000
20
1.463833
30
0.0
11
6.862500
21
1.465683
31
0.0
0
LINE
8
TOP
10
6.862500
20
1.465683
30
0.0
11
6.975000
21
1.467534
31
0.0
0
LINE
8
TOP
10
6.975000
20
1.467534
30
0.0
11
7.087500
21
1.469384
31
0.0
0
LINE
8
TOP
10
7.087500
20
1.469384
30
0.0
11
7.200000
21
1.471235
31
0.0
0
LINE
8
TOP
10
7.200000
20
1.471235
30
0.0
11
7.312500
21
1.473085
31
0.0
0
LINE
8
TOP
10
7.312500
20
1.473085
30
0.0
11
7.425000
21
1.474935
31
0.0
0
LINE
8
TOP
10
7.425000
20
1.474935
30
0.0
11
7.537500
21
1.476786
31
0.0
0
LINE
8
TOP
10
7.537500
20
1.476786
30
0.0
11
7.650000
21
1.478636
31
0.0
0
LINE
8
TOP
10
7.650000
20
1.478636
30
0.0
11
7.762500
21
1.480487
31
0.0
0
LINE
8
TOP
10
7.762500
20
1.480487
30
0.0
11
7.875000
21
1.482337
31
0.0
0
LINE
8
TOP
10
7.875000
20
1.482337
30
0.0
11
7.987500
21
1.484188
31
0.0
0
LINE
8
TOP
10
7.987500
20
1.484188
30
0.0
11
8.100000
21
1.486038
31
0.0
0
LINE
8
TOP
10
8.100000
20
1.486038
30
0.0
11
8.212500
21
1.487889
31
0.0
0
LINE
8
TOP
10
8.212500
20
1.487889
30
0.0
11
8.325000
21
1.489739
31
0.0
0
LINE
8
TOP
10
8.325000
20
1.489739
30
0.0
11
8.437500
21
1.491589
31
0.0
0
LINE
8
TOP
10
8.437500
20
1.491589
30
0.0
11
8.500000
21
1.492617
31
0.0
0
LINE
8
TOP
10
8.500000
20
1.492617
30
0.0
11
8.550000
21
1.493440
31
0.0
0
LINE
8
TOP
10
8.550000
20
1.493440
30
0.0
11
8.662500
21
1.495290
31
0.0
0
LINE
8
TOP
10
8.662500
20
1.495290
30
0.0
11
8.775000
21
1.497141
31
0.0
0
LINE
8
TOP
10
8.775000
20
1.497141
30
0.0
11
8.887500
21
1.498991
31
0.0
0
LINE
8
TOP
10
8.887500
20
1.498991
30
0.0
11
9.000000
21
1.500842
31
0.0
0
LINE
8
TOP
10
0.000000
20
1.819190
30
0.0
11
0.000000
21
1.500842
31
0.0
0
LINE
8
TOP
10
9.000000
20
1.819190
30
0.0
11
9.000000
21
1.500842
31
0.0
0
LINE
8
SECTION
10
10.266808
20
-0.235507
30
0.0
11
10.733192
21
-0.235507
31
0.0
0
LINE
8
SECTION
10
10.733192
20
-0.235507
30
0.0
11
10.733192
21
0.235507
31
0.0
0
LINE
8
SECTION
10
10.733192
20
0.235507
30
0.0
11
10.266808
21
0.235507
31
0.0
0
LINE
8
SECTION
10
10.266808
20
0.235507
30
0.0
11
10.266808
21
-0.235507
31
0.0
0
LINE
8
SECTION
10
10.327530
20
-0.174786
30
0.0
11
10.672470
21
-0.174786
31
0.0
0
LINE
8
SECTION
10
10.672470
20
-0.174786
30
0.0
11
10.672470
21
0.174786
31
0.0
0
LINE
8
SECTION
10
10.672470
20
0.174786
30
0.0
11
10.327530
21
0.174786
31
0.0
0
LINE
8
SECTION
10
10.327530
20
0.174786
30
0.0
11
10.327530
21
-0.174786
31
0.0
0
LINE
8
SECTION
10
10.327530
20
0.000000
30
0.0
11
10.388252
21
0.000000
31
0.0
0
LINE
8
SECTION
10
10.388252
20
0.000000
30
0.0
11
10.388252
21
0.174786
31
0.0
0
LINE
8
SECTION
10
10.388252
20
0.174786
30
0.0
11
10.327530
21
0.174786
31
0.0
0
LINE
8
SECTION
10
10.327530
20
0.174786
30
0.0
11
10.327530
21
0.000000
31
0.0
0
LINE
8
SECTION
10
10.327530
20
-0.174786
30
0.0
11
10.388252
21
-0.174786
31
0.0
0
LINE
8
SECTION
10
10.388252
20
-0.174786
30
0.0
11
10.388252
21
0.000000
31
0.0
0
LINE
8
SECTION
10
10.388252
20
0.000000
30
0.0
11
10.327530
21
0.000000
31
0.0
0
LINE
8
SECTION
10
10.327530
20
0.000000
30
0.0
11
10.327530
21
-0.174786
31
0.0
0
LINE
8
SECTION
10
10.611748
20
0.000000
30
0.0
11
10.672470
21
0.000000
31
0.0
0
LINE
8
SECTION
10
10.672470
20
0.000000
30
0.0
11
10.672470
21
0.174786
31
0.0
0
LINE
8
SECTION
10
10.672470
20
0.174786
30
0.0
11
10.611748
21
0.174786
31
0.0
0
LINE
8
SECTION
10
10.611748
20
0.174786
30
0.0
11
10.611748
21
0.000000
31
0.0
0
LINE
8
SECTION
10
10.611748
20
-0.174786
30
0.0
11
10.672470
21
-0.174786
31
0.0
0
LINE
8
SECTION
10
10.672470
20
-0.174786
30
0.0
11
10.672470
21
0.000000
31
0.0
0
LINE
8
SECTION
10
10.672470
20
0.000000
30
0.0
11
10.611748
21
0.000000
31
0.0
0
LINE
8
SECTION
10
10.611748
20
0.000000
30
0.0
11
10.611748
21
-0.174786
31
0.0
0
ENDSEC
0
EOF
