0
SECTION
2
HEADER
9
$INSUNITS
70
1
0
ENDSEC
0
SECTION
2
ENTITIES
0
LINE
8
FRONT
10
0.000000
20
0.214002
30
0.0
11
0.112500
21
0.212364
31
0.0
0
LINE
8
FRONT
10
0.112500
20
0.212364
30
0.0
11
0.225000
21
0.210725
31
0.0
0
LINE
8
FRONT
10
0.225000
20
0.210725
30
0.0
11
0.337500
21
0.209087
31
0.0
0
LINE
8
FRONT
10
0.337500
20
0.209087
30
0.0
11
0.450000
21
0.207449
31
0.0
0
LINE
8
FRONT
10
0.450000
20
0.207449
30
0.0
11
0.500000
21
0.206721
31
0.0
0
LINE
8
FRONT
10
0.500000
20
0.206721
30
0.0
11
0.562500
21
0.205811
31
0.0
0
LINE
8
FRONT
10
0.562500
20
0.205811
30
0.0
11
0.675000
21
0.204173
31
0.0
0
LINE
8
FRONT
10
0.675000
20
0.204173
30
0.0
11
0.787500
21
0.202535
31
0.0
0
LINE
8
FRONT
10
0.787500
20
0.202535
30
0.0
11
0.900000
21
0.200897
31
0.0
0
LINE
8
FRONT
10
0.900000
20
0.200897
30
0.0
11
1.012500
21
0.199259
31
0.0
0
LINE
8
FRONT
10
1.012500
20
0.199259
30
0.0
11
1.125000
21
0.197621
31
0.0
0
LINE
8
FRONT
10
1.125000
20
0.197621
30
0.0
11
1.237500
21
0.195983
31
0.0
0
LINE
8
FRONT
10
1.237500
20
0.195983
30
0.0
11
1.350000
21
0.194345
31
0.0
0
LINE
8
FRONT
10
1.350000
20
0.194345
30
0.0
11
1.462500
21
0.192706
31
0.0
0
LINE
8
FRONT
10
1.462500
20
0.192706
30
0.0
11
1.575000
21
0.191068
31
0.0
0
LINE
8
FRONT
10
1.575000
20
0.191068
30
0.0
11
1.687500
21
0.189430
31
0.0
0
LINE
8
FRONT
10
1.687500
20
0.189430
30
0.0
11
1.800000
21
0.187792
31
0.0
0
LINE
8
FRONT
10
1.800000
20
0.187792
30
0.0
11
1.912500
21
0.186154
31
0.0
0
LINE
8
FRONT
10
1.912500
20
0.186154
30
0.0
11
2.025000
21
0.184516
31
0.0
0
LINE
8
FRONT
10
2.025000
20
0.184516
30
0.0
11
2.137500
21
0.182878
31
0.0
0
LINE
8
FRONT
10
2.137500
20
0.182878
30
0.0
11
2.250000
21
0.181240
31
0.0
0
LINE
8
FRONT
10
2.250000
20
0.181240
30
0.0
11
2.362500
21
0.179602
31
0.0
0
LINE
8
FRONT
10
2.362500
20
0.179602
30
0.0
11
2.475000
21
0.177964
31
0.0
0
LINE
8
FRONT
10
2.475000
20
0.177964
30
0.0
11
2.587500
21
0.176326
31
0.0
0
LINE
8
FRONT
10
2.587500
20
0.176326
30
0.0
11
2.700000
21
0.174687
31
0.0
0
LINE
8
FRONT
10
2.700000
20
0.174687
30
0.0
11
2.812500
21
0.173049
31
0.0
0
LINE
8
FRONT
10
2.812500
20
0.173049
30
0.0
11
2.925000
21
0.171411
31
0.0
0
LINE
8
FRONT
10
2.925000
20
0.171411
30
0.0
11
3.037500
21
0.169773
31
0.0
0
LINE
8
FRONT
10
3.037500
20
0.169773
30
0.0
11
3.150000
21
0.168135
31
0.0
0
LINE
8
FRONT
10
3.150000
20
0.168135
30
0.0
11
3.262500
21
0.166497
31
0.0
0
LINE
8
FRONT
10
3.262500
20
0.166497
30
0.0
11
3.375000
21
0.164859
31
0.0
0
LINE
8
FRONT
10
3.375000
20
0.164859
30
0.0
11
3.487500
21
0.163221
31
0.0
0
LINE
8
FRONT
10
3.487500
20
0.163221
30
0.0
11
3.600000
21
0.161583
31
0.0
0
LINE
8
FRONT
10
3.600000
20
0.161583
30
0.0
11
3.712500
21
0.159945
31
0.0
0
LINE
8
FRONT
10
3.712500
20
0.159945
30
0.0
11
3.825000
21
0.158307
31
0.0
0
LINE
8
FRONT
10
3.825000
20
0.158307
30
0.0
11
3.937500
21
0.156668
31
0.0
0
LINE
8
FRONT
10
3.937500
20
0.156668
30
0.0
11
4.050000
21
0.155030
31
0.0
0
LINE
8
FRONT
10
4.050000
20
0.155030
30
0.0
11
4.162500
21
0.153392
31
0.0
0
LINE
8
FRONT
10
4.162500
20
0.153392
30
0.0
11
4.275000
21
0.151754
31
0.0
0
LINE
8
FRONT
10
4.275000
20
0.151754
30
0.0
11
4.387500
21
0.150116
31
0.0
0
LINE
8
FRONT
10
4.387500
20
0.150116
30
0.0
11
4.500000
21
0.148478
31
0.0
0
LINE
8
FRONT
10
4.500000
20
0.148478
30
0.0
11
4.612500
21
0.150116
31
0.0
0
LINE
8
FRONT
10
4.612500
20
0.150116
30
0.0
11
4.725000
21
0.151754
31
0.0
0
LINE
8
FRONT
10
4.725000
20
0.151754
30
0.0
11
4.837500
21
0.153392
31
0.0
0
LINE
8
FRONT
10
4.837500
20
0.153392
30
0.0
11
4.950000
21
0.155030
31
0.0
0
LINE
8
FRONT
10
4.950000
20
0.155030
30
0.0
11
5.062500
21
0.156668
31
0.0
0
LINE
8
FRONT
10
5.062500
20
0.156668
30
0.0
11
5.175000
21
0.158307
31
0.0
0
LINE
8
FRONT
10
5.175000
20
0.158307
30
0.0
11
5.287500
21
0.159945
31
0.0
0
LINE
8
FRONT
10
5.287500
20
0.159945
30
0.0
11
5.400000
21
0.161583
31
0.0
0
LINE
8
FRONT
10
5.400000
20
0.161583
30
0.0
11
5.512500
21
0.163221
31
0.0
0
LINE
8
FRONT
10
5.512500
20
0.163221
30
0.0
11
5.625000
21
0.164859
31
0.0
0
LINE
8
FRONT
10
5.625000
20
0.164859
30
0.0
11
5.737500
21
0.166497
31
0.0
0
LINE
8
FRONT
10
5.737500
20
0.166497
30
0.0
11
5.850000
21
0.168135
31
0.0
0
LINE
8
FRONT
10
5.850000
20
0.168135
30
0.0
11
5.962500
21
0.169773
31
0.0
0
LINE
8
FRONT
10
5.962500
20
0.169773
30
0.0
11
6.075000
21
0.171411
31
0.0
0
LINE
8
FRONT
10
6.075000
20
0.171411
30
0.0
11
6.187500
21
0.173049
31
0.0
0
LINE
8
FRONT
10
6.187500
20
0.173049
30
0.0
11
6.300000
21
0.174687
31
0.0
0
LINE
8
FRONT
10
6.300000
20
0.174687
30
0.0
11
6.412500
21
0.176326
31
0.0
0
LINE
8
FRONT
10
6.412500
20
0.176326
30
0.0
11
6.525000
21
0.177964
31
0.0
0
LINE
8
FRONT
10
6.525000
20
0.177964
30
0.0
11
6.637500
21
0.179602
31
0.0
0
LINE
8
FRONT
10
6.637500
20
0.179602
30
0.0
11
6.750000
21
0.181240
31
0.0
0
LINE
8
FRONT
10
6.750000
20
0.181240
30
0.0
11
6.862500
21
0.182878
31
0.0
0
LINE
8
FRONT
10
6.862500
20
0.182878
30
0.0
11
6.975000
21
0.184516
31
0.0
0
LINE
8
FRONT
10
6.975000
20
0.184516
30
0.0
11
7.087500
21
0.186154
31
0.0
0
LINE
8
FRONT
10
7.087500
20
0.186154
30
0.0
11
7.200000
21
0.187792
31
0.0
0
LINE
8
FRONT
10
7.200000
20
0.187792
30
0.0
11
7.312500
21
0.189430
31
0.0
0
LINE
8
FRONT
10
7.312500
20
0.189430
30
0.0
11
7.425000
21
0.191068
31
0.0
0
LINE
8
FRONT
10
7.425000
20
0.191068
30
0.0
11
7.537500
21
0.192706
31
0.0
0
LINE
8
FRONT
10
7.537500
20
0.192706
30
0.0
11
7.650000
21
0.194345
31
0.0
0
LINE
8
FRONT
10
7.650000
20
0.194345
30
0.0
11
7.762500
21
0.195983
31
0.0
0
LINE
8
FRONT
10
7.762500
20
0.195983
30
0.0
11
7.875000
21
0.197621
31
0.0
0
LINE
8
FRONT
10
7.875000
20
0.197621
30
0.0
11
7.987500
21
0.199259
31
0.0
0
LINE
8
FRONT
10
7.987500
20
0.199259
30
0.0
11
8.100000
21
0.200897
31
0.0
0
LINE
8
FRONT
10
8.100000
20
0.200897
30
0.0
11
8.212500
21
0.202535
31
0.0
0
LINE
8
FRONT
10
8.212500
20
0.202535
30
0.0
11
8.325000
21
0.204173
31
0.0
0
LINE
8
FRONT
10
8.325000
20
0.204173
30
0.0
11
8.437500
21
0.205811
31
0.0
0
LINE
8
FRONT
10
8.437500
20
0.205811
30
0.0
11
8.500000
21
0.206721
31
0.0
0
LINE
8
FRONT
10
8.500000
20
0.206721
30
0.0
11
8.550000
21
0.207449
31
0.0
0
LINE
8
FRONT
10
8.550000
20
0.207449
30
0.0
11
8.662500
21
0.209087
31
0.0
0
LINE
8
FRONT
10
8.662500
20
0.209087
30
0.0
11
8.775000
21
0.210725
31
0.0
0
LINE
8
FRONT
10
8.775000
20
0.210725
30
0.0
11
8.887500
21
0.212364
31
0.0
0
LINE
8
FRONT
10
8.887500
20
0.212364
30
0.0
11
9.000000
21
0.214002
31
0.0
0
LINE
8
FRONT
10
0.000000
20
-0.214002
30
0.0
11
0.112500
21
-0.212364
31
0.0
0
LINE
8
FRONT
10
0.112500
20
-0.212364
30
0.0
11
0.225000
21
-0.210725
31
0.0
0
LINE
8
FRONT
10
0.225000
20
-0.210725
30
0.0
11
0.337500
21
-0.209087
31
0.0
0
LINE
8
FRONT
10
0.337500
20
-0.209087
30
0.0
11
0.450000
21
-0.207449
31
0.0
0
LINE
8
FRONT
10
0.450000
20
-0.207449
30
0.0
11
0.500000
21
-0.206721
31
0.0
0
LINE
8
FRONT
10
0.500000
20
-0.206721
30
0.0
11
0.562500
21
-0.205811
31
0.0
0
LINE
8
FRONT
10
0.562500
20
-0.205811
30
0.0
11
0.675000
21
-0.204173
31
0.0
0
LINE
8
FRONT
10
0.675000
20
-0.204173
30
0.0
11
0.787500
21
-0.202535
31
0.0
0
LINE
8
FRONT
10
0.787500
20
-0.202535
30
0.0
11
0.900000
21
-0.200897
31
0.0
0
LINE
8
FRONT
10
0.900000
20
-0.200897
30
0.0
11
1.012500
21
-0.199259
31
0.0
0
LINE
8
FRONT
10
1.012500
20
-0.199259
30
0.0
11
1.125000
21
-0.197621
31
0.0
0
LINE
8
FRONT
10
1.125000
20
-0.197621
30
0.0
11
1.237500
21
-0.195983
31
0.0
0
LINE
8
FRONT
10
1.237500
20
-0.195983
30
0.0
11
1.350000
21
-0.194345
31
0.0
0
LINE
8
FRONT
10
1.350000
20
-0.194345
30
0.0
11
1.462500
21
-0.192706
31
0.0
0
LINE
8
FRONT
10
1.462500
20
-0.192706
30
0.0
11
1.575000
21
-0.191068
31
0.0
0
LINE
8
FRONT
10
1.575000
20
-0.191068
30
0.0
11
1.687500
21
-0.189430
31
0.0
0
LINE
8
FRONT
10
1.687500
20
-0.189430
30
0.0
11
1.800000
21
-0.187792
31
0.0
0
LINE
8
FRONT
10
1.800000
20
-0.187792
30
0.0
11
1.912500
21
-0.186154
31
0.0
0
LINE
8
FRONT
10
1.912500
20
-0.186154
30
0.0
11
2.025000
21
-0.184516
31
0.0
0
LINE
8
FRONT
10
2.025000
20
-0.184516
30
0.0
11
2.137500
21
-0.182878
31
0.0
0
LINE
8
FRONT
10
2.137500
20
-0.182878
30
0.0
11
2.250000
21
-0.181240
31
0.0
0
LINE
8
FRONT
10
2.250000
20
-0.181240
30
0.0
11
2.362500
21
-0.179602
31
0.0
0
LINE
8
FRONT
10
2.362500
20
-0.179602
30
0.0
11
2.475000
21
-0.177964
31
0.0
0
LINE
8
FRONT
10
2.475000
20
-0.177964
30
0.0
11
2.587500
21
-0.176326
31
0.0
0
LINE
8
FRONT
10
2.587500
20
-0.176326
30
0.0
11
2.700000
21
-0.174687
31
0.0
0
LINE
8
FRONT
10
2.700000
20
-0.174687
30
0.0
11
2.812500
21
-0.173049
31
0.0
0
LINE
8
FRONT
10
2.812500
20
-0.173049
30
0.0
11
2.925000
21
-0.171411
31
0.0
0
LINE
8
FRONT
10
2.925000
20
-0.171411
30
0.0
11
3.037500
21
-0.169773
31
0.0
0
LINE
8
FRONT
10
3.037500
20
-0.169773
30
0.0
11
3.150000
21
-0.168135
31
0.0
0
LINE
8
FRONT
10
3.150000
20
-0.168135
30
0.0
11
3.262500
21
-0.166497
31
0.0
0
LINE
8
FRONT
10
3.262500
20
-0.166497
30
0.0
11
3.375000
21
-0.164859
31
0.0
0
LINE
8
FRONT
10
3.375000
20
-0.164859
30
0.0
11
3.487500
21
-0.163221
31
0.0
0
LINE
8
FRONT
10
3.487500
20
-0.163221
30
0.0
11
3.600000
21
-0.161583
31
0.0
0
LINE
8
FRONT
10
3.600000
20
-0.161583
30
0.0
11
3.712500
21
-0.159945
31
0.0
0
LINE
8
FRONT
10
3.712500
20
-0.159945
30
0.0
11
3.825000
21
-0.158307
31
0.0
0
LINE
8
FRONT
10
3.825000
20
-0.158307
30
0.0
11
3.937500
21
-0.156668
31
0.0
0
LINE
8
FRONT
10
3.937500
20
-0.156668
30
0.0
11
4.050000
21
-0.155030
31
0.0
0
LINE
8
FRONT
10
4.050000
20
-0.155030
30
0.0
11
4.162500
21
-0.153392
31
0.0
0
LINE
8
FRONT
10
4.162500
20
-0.153392
30
0.0
11
4.275000
21
-0.151754
31
0.0
0
LINE
8
FRONT
10
4.275000
20
-0.151754
30
0.0
11
4.387500
21
-0.150116
31
0.0
0
LINE
8
FRONT
10
4.387500
20
-0.150116
30
0.0
11
4.500000
21
-0.148478
31
0.0
0
LINE
8
FRONT
10
4.500000
20
-0.148478
30
0.0
11
4.612500
21
-0.150116
31
0.0
0
LINE
8
FRONT
10
4.612500
20
-0.150116
30
0.0
11
4.725000
21
-0.151754
31
0.0
0
LINE
8
FRONT
10
4.725000
20
-0.151754
30
0.0
11
4.837500
21
-0.153392
31
0.0
0
LINE
8
FRONT
10
4.837500
20
-0.153392
30
0.0
11
4.950000
21
-0.155030
31
0.0
0
LINE
8
FRONT
10
4.950000
20
-0.155030
30
0.0
11
5.062500
21
-0.156668
31
0.0
0
LINE
8
FRONT
10
5.062500
20
-0.156668
30
0.0
11
5.175000
21
-0.158307
31
0.0
0
LINE
8
FRONT
10
5.175000
20
-0.158307
30
0.0
11
5.287500
21
-0.159945
31
0.0
0
LINE
8
FRONT
10
5.287500
20
-0.159945
30
0.0
11
5.400000
21
-0.161583
31
0.0
0
LINE
8
FRONT
10
5.400000
20
-0.161583
30
0.0
11
5.512500
21
-0.163221
31
0.0
0
LINE
8
FRONT
10
5.512500
20
-0.163221
30
0.0
11
5.625000
21
-0.164859
31
0.0
0
LINE
8
FRONT
10
5.625000
20
-0.164859
30
0.0
11
5.737500
21
-0.166497
31
0.0
0
LINE
8
FRONT
10
5.737500
20
-0.166497
30
0.0
11
5.850000
21
-0.168135
31
0.0
0
LINE
8
FRONT
10
5.850000
20
-0.168135
30
0.0
11
5.962500
21
-0.169773
31
0.0
0
LINE
8
FRONT
10
5.962500
20
-0.169773
30
0.0
11
6.075000
21
-0.171411
31
0.0
0
LINE
8
FRONT
10
6.075000
20
-0.171411
30
0.0
11
6.187500
21
-0.173049
31
0.0
0
LINE
8
FRONT
10
6.187500
20
-0.173049
30
0.0
11
6.300000
21
-0.174687
31
0.0
0
LINE
8
FRONT
10
6.300000
20
-0.174687
30
0.0
11
6.412500
21
-0.176326
31
0.0
0
LINE
8
FRONT
10
6.412500
20
-0.176326
30
0.0
11
6.525000
21
-0.177964
31
0.0
0
LINE
8
FRONT
10
6.525000
20
-0.177964
30
0.0
11
6.637500
21
-0.179602
31
0.0
0
LINE
8
FRONT
10
6.637500
20
-0.179602
30
0.0
11
6.750000
21
-0.181240
31
0.0
0
LINE
8
FRONT
10
6.750000
20
-0.181240
30
0.0
11
6.862500
21
-0.182878
31
0.0
0
LINE
8
FRONT
10
6.862500
20
-0.182878
30
0.0
11
6.975000
21
-0.184516
31
0.0
0
LINE
8
FRONT
10
6.975000
20
-0.184516
30
0.0
11
7.087500
21
-0.186154
31
0.0
0
LINE
8
FRONT
10
7.087500
20
-0.186154
30
0.0
11
7.200000
21
-0.187792
31
0.0
0
LINE
8
FRONT
10
7.200000
20
-0.187792
30
0.0
11
7.312500
21
-0.189430
31
0.0
0
LINE
8
FRONT
10
7.312500
20
-0.189430
30
0.0
11
7.425000
21
-0.191068
31
0.0
0
LINE
8
FRONT
10
7.425000
20
-0.191068
30
0.0
11
7.537500
21
-0.192706
31
0.0
0
LINE
8
FRONT
10
7.537500
20
-0.192706
30
0.0
11
7.650000
21
-0.194345
31
0.0
0
LINE
8
FRONT
10
7.650000
20
-0.194345
30
0.0
11
7.762500
21
-0.195983
31
0.0
0
LINE
8
FRONT
10
7.762500
20
-0.195983
30
0.0
11
7.875000
21
-0.197621
31
0.0
0
LINE
8
FRONT
10
7.875000
20
-0.197621
30
0.0
11
7.987500
21
-0.199259
31
0.0
0
LINE
8
FRONT
10
7.987500
20
-0.199259
30
0.0
11
8.100000
21
-0.200897
31
0.0
0
LINE
8
FRONT
10
8.100000
20
-0.200897
30
0.0
11
8.212500
21
-0.202535
31
0.0
0
LINE
8
FRONT
10
8.212500
20
-0.202535
30
0.0
11
8.325000
21
-0.204173
31
0.0
0
LINE
8
FRONT
10
8.325000
20
-0.204173
30
0.0
11
8.437500
21
-0.205811
31
0.0
0
LINE
8
FRONT
10
8.437500
20
-0.205811
30
0.0
11
8.500000
21
-0.206721
31
0.0
0
LINE
8
FRONT
10
8.500000
20
-0.206721
30
0.0
11
8.550000
21
-0.207449
31
0.0
0
LINE
8
FRONT
10
8.550000
20
-0.207449
30
0.0
11
8.662500
21
-0.209087
31
0.0
0
LINE
8
FRONT
10
8.662500
20
-0.209087
30
0.0
11
8.775000
21
-0.210725
31
0.0
0
LINE
8
FRONT
10
8.775000
20
-0.210725
30
0.0
11
8.887500
21
-0.212364
31
0.0
0
LINE
8
FRONT
10
8.887500
20
-0.212364
30
0.0
11
9.000000
21
-0.214002
31
0.0
0
LINE
8
FRONT
10
0.000000
20
0.214002
30
0.0
11
0.000000
21
-0.214002
31
0.0
0
LINE
8
FRONT
10
9.000000
20
0.214002
30
0.0
11
9.000000
21
-0.214002
31
0.0
0
LINE
8
TOP
10
0.000000
20
1.900075
30
0.0
11
0.112500
21
1.903372
31
0.0
0
LINE
8
TOP
10
0.112500
20
1.903372
30
0.0
11
0.225000
21
1.906670
31
0.0
0
LINE
8
TOP
10
0.225000
20
1.906670
30
0.0
11
0.337500
21
1.909967
31
0.0
0
LINE
8
TOP
10
0.337500
20
1.909967
30
0.0
11
0.450000
21
1.913265
31
0.0
0
LINE
8
TOP
10
0.450000
20
1.913265
30
0.0
11
0.500000
21
1.914730
31
0.0
0
LINE
8
TOP
10
0.500000
20
1.914730
30
0.0
11
0.562500
21
1.916562
31
0.0
0
LINE
8
TOP
10
0.562500
20
1.916562
30
0.0
11
0.675000
21
1.919860
31
0.0
0
LINE
8
TOP
10
0.675000
20
1.919860
30
0.0
11
0.787500
21
1.923157
31
0.0
0
LINE
8
TOP
10
0.787500
20
1.923157
30
0.0
11
0.900000
21
1.926455
31
0.0
0
LINE
8
TOP
10
0.900000
20
1.926455
30
0.0
11
1.012500
21
1.929752
31
0.0
0
LINE
8
TOP
10
1.012500
20
1.929752
30
0.0
11
1.125000
21
1.933049
31
0.0
0
LINE
8
TOP
10
1.125000
20
1.933049
30
0.0
11
1.237500
21
1.936347
31
0.0
0
LINE
8
TOP
10
1.237500
20
1.936347
30
0.0
11
1.350000
21
1.939644
31
0.0
0
LINE
8
TOP
10
1.350000
20
1.939644
30
0.0
11
1.462500
21
1.942942
31
0.0
0
LINE
8
TOP
10
1.462500
20
1.942942
30
0.0
11
1.575000
21
1.946239
31
0.0
0
LINE
8
TOP
10
1.575000
20
1.946239
30
0.0
11
1.687500
21
1.949537
31
0.0
0
LINE
8
TOP
10
1.687500
20
1.949537
30
0.0
11
1.800000
21
1.952834
31
0.0
0
LINE
8
TOP
10
1.800000
20
1.952834
30
0.0
11
1.912500
21
1.956132
31
0.0
0
LINE
8
TOP
10
1.912500
20
1.956132
30
0.0
11
2.025000
21
1.959429
31
0.0
0
LINE
8
TOP
10
2.025000
20
1.959429
30
0.0
11
2.137500
21
1.962726
31
0.0
0
LINE
8
TOP
10
2.137500
20
1.962726
30
0.0
11
2.250000
21
1.966024
31
0.0
0
LINE
8
TOP
10
2.250000
20
1.966024
30
0.0
11
2.362500
21
1.969321
31
0.0
0
LINE
8
TOP
10
2.362500
20
1.969321
30
0.0
11
2.475000
21
1.972619
31
0.0
0
LINE
8
TOP
10
2.475000
20
1.972619
30
0.0
11
2.587500
21
1.975916
31
0.0
0
LINE
8
TOP
10
2.587500
20
1.975916
30
0.0
11
2.700000
21
1.979214
31
0.0
0
LINE
8
TOP
10
2.700000
20
1.979214
30
0.0
11
2.812500
21
1.982511
31
0.0
0
LINE
8
TOP
10
2.812500
20
1.982511
30
0.0
11
2.925000
21
1.985809
31
0.0
0
LINE
8
TOP
10
2.925000
20
1.985809
30
0.0
11
3.037500
21
1.989106
31
0.0
0
LINE
8
TOP
10
3.037500
20
1.989106
30
0.0
11
3.150000
21
1.992403
31
0.0
0
LINE
8
TOP
10
3.150000
20
1.992403
30
0.0
11
3.262500
21
1.995701
31
0.0
0
LINE
8
TOP
10
3.262500
20
1.995701
30
0.0
11
3.375000
21
1.998998
31
0.0
0
LINE
8
TOP
10
3.375000
20
1.998998
30
0.0
11
3.487500
21
2.002296
31
0.0
0
LINE
8
TOP
10
3.487500
20
2.002296
30
0.0
11
3.600000
21
2.005593
31
0.0
0
LINE
8
TOP
10
3.600000
20
2.005593
30
0.0
11
3.712500
21
2.008891
31
0.0
0
LINE
8
TOP
10
3.712500
20
2.008891
30
0.0
11
3.825000
21
2.012188
31
0.0
0
LINE
8
TOP
10
3.825000
20
2.012188
30
0.0
11
3.937500
21
2.015486
31
0.0
0
LINE
8
TOP
10
3.937500
20
2.015486
30
0.0
11
4.050000
21
2.018783
31
0.0
0
LINE
8
TOP
10
4.050000
20
2.018783
30
0.0
11
4.162500
21
2.022080
31
0.0
0
LINE
8
TOP
10
4.162500
20
2.022080
30
0.0
11
4.275000
21
2.025378
31
0.0
0
LINE
8
TOP
10
4.275000
20
2.025378
30
0.0
11
4.387500
21
2.028675
31
0.0
0
LINE
8
TOP
10
4.387500
20
2.028675
30
0.0
11
4.500000
21
2.031973
31
0.0
0
LINE
8
TOP
10
4.500000
20
2.031973
30
0.0
11
4.612500
21
2.028675
31
0.0
0
LINE
8
TOP
10
4.612500
20
2.028675
30
0.0
11
4.725000
21
2.025378
31
0.0
0
LINE
8
TOP
10
4.725000
20
2.025378
30
0.0
11
4.837500
21
2.022080
31
0.0
0
LINE
8
TOP
10
4.837500
20
2.022080
30
0.0
11
4.950000
21
2.018783
31
0.0
0
LINE
8
TOP
10
4.950000
20
2.018783
30
0.0
11
5.062500
21
2.015486
31
0.0
0
LINE
8
TOP
10
5.062500
20
2.015486
30
0.0
11
5.175000
21
2.012188
31
0.0
0
LINE
8
TOP
10
5.175000
20
2.012188
30
0.0
11
5.287500
21
2.008891
31
0.0
0
LINE
8
TOP
10
5.287500
20
2.008891
30
0.0
11
5.400000
21
2.005593
31
0.0
0
LINE
8
TOP
10
5.400000
20
2.005593
30
0.0
11
5.512500
21
2.002296
31
0.0
0
LINE
8
TOP
10
5.512500
20
2.002296
30
0.0
11
5.625000
21
1.998998
31
0.0
0
LINE
8
TOP
10
5.625000
20
1.998998
30
0.0
11
5.737500
21
1.995701
31
0.0
0
LINE
8
TOP
10
5.737500
20
1.995701
30
0.0
11
5.850000
21
1.992403
31
0.0
0
LINE
8
TOP
10
5.850000
20
1.992403
30
0.0
11
5.962500
21
1.989106
31
0.0
0
LINE
8
TOP
10
5.962500
20
1.989106
30
0.0
11
6.075000
21
1.985809
31
0.0
0
LINE
8
TOP
10
6.075000
20
1.985809
30
0.0
11
6.187500
21
1.982511
31
0.0
0
LINE
8
TOP
10
6.187500
20
1.982511
30
0.0
11
6.300000
21
1.979214
31
0.0
0
LINE
8
TOP
10
6.300000
20
1.979214
30
0.0
11
6.412500
21
1.975916
31
0.0
0
LINE
8
TOP
10
6.412500
20
1.975916
30
0.0
11
6.525000
21
1.972619
31
0.0
0
LINE
8
TOP
10
6.525000
20
1.972619
30
0.0
11
6.637500
21
1.969321
31
0.0
0
LINE
8
TOP
10
6.637500
20
1.969321
30
0.0
11
6.750000
21
1.966024
31
0.0
0
LINE
8
TOP
10
6.750000
20
1.966024
30
0.0
11
6.862500
21
1.962726
31
0.0
0
LINE
8
TOP
10
6.862500
20
1.962726
30
0.0
11
6.975000
21
1.959429
31
0.0
0
LINE
8
TOP
10
6.975000
20
1.959429
30
0.0
11
7.087500
21
1.956132
31
0.0
0
LINE
8
TOP
10
7.087500
20
1.956132
30
0.0
11
7.200000
21
1.952834
31
0.0
0
LINE
8
TOP
10
7.200000
20
1.952834
30
0.0
11
7.312500
21
1.949537
31
0.0
0
LINE
8
TOP
10
7.312500
20
1.949537
30
0.0
11
7.425000
21
1.946239
31
0.0
0
LINE
8
TOP
10
7.425000
20
1.946239
30
0.0
11
7.537500
21
1.942942
31
0.0
0
LINE
8
TOP
10
7.537500
20
1.942942
30
0.0
11
7.650000
21
1.939644
31
0.0
0
LINE
8
TOP
10
7.650000
20
1.939644
30
0.0
11
7.762500
21
1.936347
31
0.0
0
LINE
8
TOP
10
7.762500
20
1.936347
30
0.0
11
7.875000
21
1.933049
31
0.0
0
LINE
8
TOP
10
7.875000
20
1.933049
30
0.0
11
7.987500
21
1.929752
31
0.0
0
LINE
8
TOP
10
7.987500
20
1.929752
30
0.0
11
8.100000
21
1.926455
31
0.0
0
LINE
8
TOP
10
8.100000
20
1.926455
30
0.0
11
8.212500
21
1.923157
31
0.0
0
LINE
8
TOP
10
8.212500
20
1.923157
30
0.0
11
8.325000
21
1.919860
31
0.0
0
LINE
8
TOP
10
8.325000
20
1.919860
30
0.0
11
8.437500
21
1.916562
31
0.0
0
LINE
8
TOP
10
8.437500
20
1.916562
30
0.0
11
8.500000
21
1.914730
31
0.0
0
LINE
8
TOP
10
8.500000
20
1.914730
30
0.0
11
8.550000
21
1.913265
31
0.0
0
LINE
8
TOP
10
8.550000
20
1.913265
30
0.0
11
8.662500
21
1.909967
31
0.0
0
LINE
8
TOP
10
8.662500
20
1.909967
30
0.0
11
8.775000
21
1.906670
31
0.0
0
LINE
8
TOP
10
8.775000
20
1.906670
30
0.0
11
8.887500
21
1.903372
31
0.0
0
LINE
8
TOP
10
8.887500
20
1.903372
30
0.0
11
9.000000
21
1.900075
31
0.0
0
LINE
8
TOP
10
0.000000
20
1.522884
30
0.0
11
0.112500
21
1.519587
31
0.0
0
LINE
8
TOP
10
0.112500
20
1.519587
30
0.0
11
0.225000
21
1.516289
31
0.0
0
LINE
8
TOP
10
0.225000
20
1.516289
30
0.0
11
0.337500
21
1.512992
31
0.0
0
LINE
8
TOP
10
0.337500
20
1.512992
30
0.0
11
0.450000
21
1.509694
31
0.0
0
LINE
8
TOP
10
0.450000
20
1.509694
30
0.0
11
0.500000
21
1.508229
31
0.0
0
LINE
8
TOP
10
0.500000
20
1.508229
30
0.0
11
0.562500
21
1.506397
31
0.0
0
LINE
8
TOP
10
0.562500
20
1.506397
30
0.0
11
0.675000
21
1.503100
31
0.0
0
LINE
8
TOP
10
0.675000
20
1.503100
30
0.0
11
0.787500
21
1.499802
31
0.0
0
LINE
8
TOP
10
0.787500
20
1.499802
30
0.0
11
0.900000
21
1.496505
31
0.0
0
LINE
8
TOP
10
0.900000
20
1.496505
30
0.0
11
1.012500
21
1.493207
31
0.0
0
LINE
8
TOP
10
1.012500
20
1.493207
30
0.0
11
1.125000
21
1.489910
31
0.0
0
LINE
8
TOP
10
1.125000
20
1.489910
30
0.0
11
1.237500
21
1.486612
31
0.0
0
LINE
8
TOP
10
1.237500
20
1.486612
30
0.0
11
1.350000
21
1.483315
31
0.0
0
LINE
8
TOP
10
1.350000
20
1.483315
30
0.0
11
1.462500
21
1.480017
31
0.0
0
LINE
8
TOP
10
1.462500
20
1.480017
30
0.0
11
1.575000
21
1.476720
31
0.0
0
LINE
8
TOP
10
1.575000
20
1.476720
30
0.0
11
1.687500
21
1.473423
31
0.0
0
LINE
8
TOP
10
1.687500
20
1.473423
30
0.0
11
1.800000
21
1.470125
31
0.0
0
LINE
8
TOP
10
1.800000
20
1.470125
30
0.0
11
1.912500
21
1.466828
31
0.0
0
LINE
8
TOP
10
1.912500
20
1.466828
30
0.0
11
2.025000
21
1.463530
31
0.0
0
LINE
8
TOP
10
2.025000
20
1.463530
30
0.0
11
2.137500
21
1.460233
31
0.0
0
LINE
8
TOP
10
2.137500
20
1.460233
30
0.0
11
2.250000
21
1.456935
31
0.0
0
LINE
8
TOP
10
2.250000
20
1.456935
30
0.0
11
2.362500
21
1.453638
31
0.0
0
LINE
8
TOP
10
2.362500
20
1.453638
30
0.0
11
2.475000
21
1.450340
31
0.0
0
LINE
8
TOP
10
2.475000
20
1.450340
30
0.0
11
2.587500
21
1.447043
31
0.0
0
LINE
8
TOP
10
2.587500
20
1.447043
30
0.0
11
2.700000
21
1.443746
31
0.0
0
LINE
8
TOP
10
2.700000
20
1.443746
30
0.0
11
2.812500
21
1.440448
31
0.0
0
LINE
8
TOP
10
2.812500
20
1.440448
30
0.0
11
2.925000
21
1.437151
31
0.0
0
LINE
8
TOP
10
2.925000
20
1.437151
30
0.0
11
3.037500
21
1.433853
31
0.0
0
LINE
8
TOP
10
3.037500
20
1.433853
30
0.0
11
3.150000
21
1.430556
31
0.0
0
LINE
8
TOP
10
3.150000
20
1.430556
30
0.0
11
3.262500
21
1.427258
31
0.0
0
LINE
8
TOP
10
3.262500
20
1.427258
30
0.0
11
3.375000
21
1.423961
31
0.0
0
LINE
8
TOP
10
3.375000
20
1.423961
30
0.0
11
3.487500
21
1.420663
31
0.0
0
LINE
8
TOP
10
3.487500
20
1.420663
30
0.0
11
3.600000
21
1.417366
31
0.0
0
LINE
8
TOP
10
3.600000
20
1.417366
30
0.0
11
3.712500
21
1.414069
31
0.0
0
LINE
8
TOP
10
3.712500
20
1.414069
30
0.0
11
3.825000
21
1.410771
31
0.0
0
LINE
8
TOP
10
3.825000
20
1.410771
30
0.0
11
3.937500
21
1.407474
31
0.0
0
LINE
8
TOP
10
3.937500
20
1.407474
30
0.0
11
4.050000
21
1.404176
31
0.0
0
LINE
8
TOP
10
4.050000
20
1.404176
30
0.0
11
4.162500
21
1.400879
31
0.0
0
LINE
8
TOP
10
4.162500
20
1.400879
30
0.0
11
4.275000
21
1.397581
31
0.0
0
LINE
8
TOP
10
4.275000
20
1.397581
30
0.0
11
4.387500
21
1.394284
31
0.0
0
LINE
8
TOP
10
4.387500
20
1.394284
30
0.0
11
4.500000
21
1.390986
31
0.0
0
LINE
8
TOP
10
4.500000
20
1.390986
30
0.0
11
4.612500
21
1.394284
31
0.0
0
LINE
8
TOP
10
4.612500
20
1.394284
30
0.0
11
4.725000
21
1.397581
31
0.0
0
LINE
8
TOP
10
4.725000
20
1.397581
30
0.0
11
4.837500
21
1.400879
31
0.0
0
LINE
8
TOP
10
4.837500
20
1.400879
30
0.0
11
4.950000
21
1.404176
31
0.0
0
LINE
8
TOP
10
4.950000
20
1.404176
30
0.0
11
5.062500
21
1.407474
31
0.0
0
LINE
8
TOP
10
5.062500
20
1.407474
30
0.0
11
5.175000
21
1.410771
31
0.0
0
LINE
8
TOP
10
5.175000
20
1.410771
30
0.0
11
5.287500
21
1.414069
31
0.0
0
LINE
8
TOP
10
5.287500
20
1.414069
30
0.0
11
5.400000
21
1.417366
31
0.0
0
LINE
8
TOP
10
5.400000
20
1.417366
30
0.0
11
5.512500
21
1.420663
31
0.0
0
LINE
8
TOP
10
5.512500
20
1.420663
30
0.0
11
5.625000
21
1.423961
31
0.0
0
LINE
8
TOP
10
5.625000
20
1.423961
30
0.0
11
5.737500
21
1.427258
31
0.0
0
LINE
8
TOP
10
5.737500
20
1.427258
30
0.0
11
5.850000
21
1.430556
31
0.0
0
LINE
8
TOP
10
5.850000
20
1.430556
30
0.0
11
5.962500
21
1.433853
31
0.0
0
LINE
8
TOP
10
5.962500
20
1.433853
30
0.0
11
6.075000
21
1.437151
31
0.0
0
LINE
8
TOP
10
6.075000
20
1.437151
30
0.0
11
6.187500
21
1.440448
31
0.0
0
LINE
8
TOP
10
6.187500
20
1.440448
30
0.0
11
6.300000
21
1.443746
31
0.0
0
LINE
8
TOP
10
6.300000
20
1.443746
30
0.0
11
6.412500
21
1.447043
31
0.0
0
LINE
8
TOP
10
6.412500
20
1.447043
30
0.0
11
6.525000
21
1.450340
31
0.0
0
LINE
8
TOP
10
6.525000
20
1.450340
30
0.0
11
6.637500
21
1.453638
31
0.0
0
LINE
8
TOP
10
6.637500
20
1.453638
30
0.0
11
6.750000
21
1.456935
31
0.0
0
LINE
8
TOP
10
6.750000
20
1.456935
30
0.0
11
6.862500
21
1.460233
31
0.0
0
LINE
8
TOP
10
6.862500
20
1.460233
30
0.0
11
6.975000
21
1.463530
31
0.0
0
LINE
8
TOP
10
6.975000
20
1.463530
30
0.0
11
7.087500
21
1.466828
31
0.0
0
LINE
8
TOP
10
7.087500
20
1.466828
30
0.0
11
7.200000
21
1.470125
31
0.0
0
LINE
8
TOP
10
7.200000
20
1.470125
30
0.0
11
7.312500
21
1.473423
31
0.0
0
LINE
8
TOP
10
7.312500
20
1.473423
30
0.0
11
7.425000
21
1.476720
31
0.0
0
LINE
8
TOP
10
7.425000
20
1.476720
30
0.0
11
7.537500
21
1.480017
31
0.0
0
LINE
8
TOP
10
7.537500
20
1.480017
30
0.0
11
7.650000
21
1.483315
31
0.0
0
LINE
8
TOP
10
7.650000
20
1.483315
30
0.0
11
7.762500
21
1.486612
31
0.0
0
LINE
8
TOP
10
7.762500
20
1.486612
30
0.0
11
7.875000
21
1.489910
31
0.0
0
LINE
8
TOP
10
7.875000
20
1.489910
30
0.0
11
7.987500
21
1.493207
31
0.0
0
LINE
8
TOP
10
7.987500
20
1.493207
30
0.0
11
8.100000
21
1.496505
31
0.0
0
LINE
8
TOP
10
8.100000
20
1.496505
30
0.0
11
8.212500
21
1.499802
31
0.0
0
LINE
8
TOP
10
8.212500
20
1.499802
30
0.0
11
8.325000
21
1.503100
31
0.0
0
LINE
8
TOP
10
8.325000
20
1.503100
30
0.0
11
8.437500
21
1.506397
31
0.0
0
LINE
8
TOP
10
8.437500
20
1.506397
30
0.0
11
8.500000
21
1.508229
31
0.0
0
LINE
8
TOP
10
8.500000
20
1.508229
30
0.0
11
8.550000
21
1.509694
31
0.0
0
LINE
8
TOP
10
8.550000
20
1.509694
30
0.0
11
8.662500
21
1.512992
31
0.0
0
LINE
8
TOP
10
8.662500
20
1.512992
30
0.0
11
8.775000
21
1.516289
31
0.0
0
LINE
8
TOP
10
8.775000
20
1.516289
30
0.0
11
8.887500
21
1.519587
31
0.0
0
LINE
8
TOP
10
8.887500
20
1.519587
30
0.0
11
9.000000
21
1.522884
31
0.0
0
LINE
8
TOP
10
0.000000
20
1.900075
30
0.0
11
0.000000
21
1.522884
31
0.0
0
LINE
8
TOP
10
9.000000
20
1.900075
30
0.0
11
9.000000
21
1.522884
31
0.0
0
LINE
8
SECTION
10
10.179507
20
-0.148478
30
0.0
11
10.820493
21
-0.148478
31
0.0
0
LINE
8
SECTION
10
10.820493
20
-0.148478
30
0.0
11
10.820493
21
0.148478
31
0.0
0
LINE
8
SECTION
10
10.820493
20
0.148478
30
0.0
11
10.179507
21
0.148478
31
0.0
0
LINE
8
SECTION
10
10.179507
20
0.148478
30
0.0
11
10.179507
21
-0.148478
31
0.0
0
LINE
8
SECTION
10
10.231907
20
-0.096078
30
0.0
11
10.768093
21
-0.096078
31
0.0
0
LINE
8
SECTION
10
10.768093
20
-0.096078
30
0.0
11
10.768093
21
0.096078
31
0.0
0
LINE
8
SECTION
10
10.768093
20
0.096078
30
0.0
11
10.231907
21
0.096078
31
0.0
0
LINE
8
SECTION
10
10.231907
20
0.096078
30
0.0
11
10.231907
21
-0.096078
31
0.0
0
LINE
8
SECTION
10
10.231907
20
0.000000
30
0.0
11
10.284307
21
0.000000
31
0.0
0
LINE
8
SECTION
10
10.284307
20
0.000000
30
0.0
11
10.284307
21
0.096078
31
0.0
0
LINE
8
SECTION
10
10.284307
20
0.096078
30
0.0
11
10.231907
21
0.096078
31
0.0
0
LINE
8
SECTION
10
10.231907
20
0.096078
30
0.0
11
10.231907
21
0.000000
31
0.0
0
LINE
8
SECTION
10
10.231907
20
-0.096078
30
0.0
11
10.284307
21
-0.096078
31
0.0
0
LINE
8
SECTION
10
10.284307
20
-0.096078
30
0.0
11
10.284307
21
0.000000
31
0.0
0
LINE
8
SECTION
10
10.284307
20
0.000000
30
0.0
11
10.231907
21
0.000000
31
0.0
0
LINE
8
SECTION
10
10.231907
20
0.000000
30
0.0
11
10.231907
21
-0.096078
31
0.0
0
LINE
8
SECTION
10
10.715693
20
0.000000
30
0.0
11
10.768093
21
0.000000
31
0.0
0
LINE
8
SECTION
10
10.768093
20
0.000000
30
0.0
11
10.768093
21
0.096078
31
0.0
0
LINE
8
SECTION
10
10.768093
20
0.096078
30
0.0
11
10.715693
21
0.096078
31
0.0
0
LINE
8
SECTION
10
10.715693
20
0.096078
30
0.0
11
10.715693
21
0.000000
31
0.0
0
LINE
8
SECTION
10
10.715693
20
-0.096078
30
0.0
11
10.768093
21
-0.096078
31
0.0
0
LINE
8
SECTION
10
10.768093
20
-0.096078
30
0.0
11
10.768093
21
0.000000
31
0.0
0
LINE
8
SECTION
10
10.768093
20
0.000000
30
0.0
11
10.715693
21
0.000000
31
0.0
0
LINE
8
SECTION
10
10.715693
20
0.000000
30
0.0
11
10.715693
21
-0.096078
31
0.0
0
ENDSEC
0
EOF
