0
SECTION
2
HEADER
9
$INSUNITS
70
1
0
ENDSEC
0
SECTION
2
ENTITIES
0
LINE
8
FRONT
10
0.000000
20
0.272509
30
0.0
11
0.112500
21
0.273677
31
0.0
0
LINE
8
FRONT
10
0.112500
20
0.273677
30
0.0
11
0.225000
21
0.274844
31
0.0
0
LINE
8
FRONT
10
0.225000
20
0.274844
30
0.0
11
0.337500
21
0.276012
31
0.0
0
LINE
8
FRONT
10
0.337500
20
0.276012
30
0.0
11
0.450000
21
0.277180
31
0.0
0
LINE
8
FRONT
10
0.450000
20
0.277180
30
0.0
11
0.500000
21
0.277699
31
0.0
0
LINE
8
FRONT
10
0.500000
20
0.277699
30
0.0
11
0.562500
21
0.278347
31
0.0
0
LINE
8
FRONT
10
0.562500
20
0.278347
30
0.0
11
0.675000
21
0.279515
31
0.0
0
LINE
8
FRONT
10
0.675000
20
0.279515
30
0.0
11
0.787500
21
0.280683
31
0.0
0
LINE
8
FRONT
10
0.787500
20
0.280683
30
0.0
11
0.900000
21
0.281850
31
0.0
0
LINE
8
FRONT
10
0.900000
20
0.281850
30
0.0
11
1.012500
21
0.283018
31
0.0
0
LINE
8
FRONT
10
1.012500
20
0.283018
30
0.0
11
1.125000
21
0.284186
31
0.0
0
LINE
8
FRONT
10
1.125000
20
0.284186
30
0.0
11
1.237500
21
0.285353
31
0.0
0
LINE
8
FRONT
10
1.237500
20
0.285353
30
0.0
11
1.350000
21
0.286521
31
0.0
0
LINE
8
FRONT
10
1.350000
20
0.286521
30
0.0
11
1.462500
21
0.287689
31
0.0
0
LINE
8
FRONT
10
1.462500
20
0.287689
30
0.0
11
1.575000
21
0.288856
31
0.0
0
LINE
8
FRONT
10
1.575000
20
0.288856
30
0.0
11
1.687500
21
0.290024
31
0.0
0
LINE
8
FRONT
10
1.687500
20
0.290024
30
0.0
11
1.800000
21
0.291191
31
0.0
0
LINE
8
FRONT
10
1.800000
20
0.291191
30
0.0
11
1.912500
21
0.292359
31
0.0
0
LINE
8
FRONT
10
1.912500
20
0.292359
30
0.0
11
2.025000
21
0.293527
31
0.0
0
LINE
8
FRONT
10
2.025000
20
0.293527
30
0.0
11
2.137500
21
0.294694
31
0.0
0
LINE
8
FRONT
10
2.137500
20
0.294694
30
0.0
11
2.250000
21
0.295862
31
0.0
0
LINE
8
FRONT
10
2.250000
20
0.295862
30
0.0
11
2.362500
21
0.297030
31
0.0
0
LINE
8
FRONT
10
2.362500
20
0.297030
30
0.0
11
2.475000
21
0.298197
31
0.0
0
LINE
8
FRONT
10
2.475000
20
0.298197
30
0.0
11
2.587500
21
0.299365
31
0.0
0
LINE
8
FRONT
10
2.587500
20
0.299365
30
0.0
11
2.700000
21
0.300533
31
0.0
0
LINE
8
FRONT
10
2.700000
20
0.300533
30
0.0
11
2.812500
21
0.301700
31
0.0
0
LINE
8
FRONT
10
2.812500
20
0.301700
30
0.0
11
2.925000
21
0.302868
31
0.0
0
LINE
8
FRONT
10
2.925000
20
0.302868
30
0.0
11
3.037500
21
0.304036
31
0.0
0
LINE
8
FRONT
10
3.037500
20
0.304036
30
0.0
11
3.150000
21
0.305203
31
0.0
0
LINE
8
FRONT
10
3.150000
20
0.305203
30
0.0
11
3.262500
21
0.306371
31
0.0
0
LINE
8
FRONT
10
3.262500
20
0.306371
30
0.0
11
3.375000
21
0.307539
31
0.0
0
LINE
8
FRONT
10
3.375000
20
0.307539
30
0.0
11
3.487500
21
0.308706
31
0.0
0
LINE
8
FRONT
10
3.487500
20
0.308706
30
0.0
11
3.600000
21
0.309874
31
0.0
0
LINE
8
FRONT
10
3.600000
20
0.309874
30
0.0
11
3.712500
21
0.311041
31
0.0
0
LINE
8
FRONT
10
3.712500
20
0.311041
30
0.0
11
3.825000
21
0.312209
31
0.0
0
LINE
8
FRONT
10
3.825000
20
0.312209
30
0.0
11
3.937500
21
0.313377
31
0.0
0
LINE
8
FRONT
10
3.937500
20
0.313377
30
0.0
11
4.050000
21
0.314544
31
0.0
0
LINE
8
FRONT
10
4.050000
20
0.314544
30
0.0
11
4.162500
21
0.315712
31
0.0
0
LINE
8
FRONT
10
4.162500
20
0.315712
30
0.0
11
4.275000
21
0.316880
31
0.0
0
LINE
8
FRONT
10
4.275000
20
0.316880
30
0.0
11
4.387500
21
0.318047
31
0.0
0
LINE
8
FRONT
10
4.387500
20
0.318047
30
0.0
11
4.500000
21
0.319215
31
0.0
0
LINE
8
FRONT
10
4.500000
20
0.319215
30
0.0
11
4.612500
21
0.315654
31
0.0
0
LINE
8
FRONT
10
4.612500
20
0.315654
30
0.0
11
4.725000
21
0.312094
31
0.0
0
LINE
8
FRONT
10
4.725000
20
0.312094
30
0.0
11
4.837500
21
0.308533
31
0.0
0
LINE
8
FRONT
10
4.837500
20
0.308533
30
0.0
11
4.950000
21
0.304972
31
0.0
0
LINE
8
FRONT
10
4.950000
20
0.304972
30
0.0
11
5.062500
21
0.301412
31
0.0
0
LINE
8
FRONT
10
5.062500
20
0.301412
30
0.0
11
5.175000
21
0.297851
31
0.0
0
LINE
8
FRONT
10
5.175000
20
0.297851
30
0.0
11
5.287500
21
0.294290
31
0.0
0
LINE
8
FRONT
10
5.287500
20
0.294290
30
0.0
11
5.400000
21
0.290729
31
0.0
0
LINE
8
FRONT
10
5.400000
20
0.290729
30
0.0
11
5.512500
21
0.287169
31
0.0
0
LINE
8
FRONT
10
5.512500
20
0.287169
30
0.0
11
5.625000
21
0.283608
31
0.0
0
LINE
8
FRONT
10
5.625000
20
0.283608
30
0.0
11
5.737500
21
0.280047
31
0.0
0
LINE
8
FRONT
10
5.737500
20
0.280047
30
0.0
11
5.850000
21
0.276487
31
0.0
0
LINE
8
FRONT
10
5.850000
20
0.276487
30
0.0
11
5.962500
21
0.272926
31
0.0
0
LINE
8
FRONT
10
5.962500
20
0.272926
30
0.0
11
6.075000
21
0.269365
31
0.0
0
LINE
8
FRONT
10
6.075000
20
0.269365
30
0.0
11
6.187500
21
0.265805
31
0.0
0
LINE
8
FRONT
10
6.187500
20
0.265805
30
0.0
11
6.300000
21
0.262244
31
0.0
0
LINE
8
FRONT
10
6.300000
20
0.262244
30
0.0
11
6.412500
21
0.258683
31
0.0
0
LINE
8
FRONT
10
6.412500
20
0.258683
30
0.0
11
6.525000
21
0.255122
31
0.0
0
LINE
8
FRONT
10
6.525000
20
0.255122
30
0.0
11
6.637500
21
0.251562
31
0.0
0
LINE
8
FRONT
10
6.637500
20
0.251562
30
0.0
11
6.750000
21
0.248001
31
0.0
0
LINE
8
FRONT
10
6.750000
20
0.248001
30
0.0
11
6.862500
21
0.244440
31
0.0
0
LINE
8
FRONT
10
6.862500
20
0.244440
30
0.0
11
6.975000
21
0.240880
31
0.0
0
LINE
8
FRONT
10
6.975000
20
0.240880
30
0.0
11
7.087500
21
0.237319
31
0.0
0
LINE
8
FRONT
10
7.087500
20
0.237319
30
0.0
11
7.200000
21
0.233758
31
0.0
0
LINE
8
FRONT
10
7.200000
20
0.233758
30
0.0
11
7.312500
21
0.230198
31
0.0
0
LINE
8
FRONT
10
7.312500
20
0.230198
30
0.0
11
7.425000
21
0.226637
31
0.0
0
LINE
8
FRONT
10
7.425000
20
0.226637
30
0.0
11
7.537500
21
0.223076
31
0.0
0
LINE
8
FRONT
10
7.537500
20
0.223076
30
0.0
11
7.650000
21
0.219516
31
0.0
0
LINE
8
FRONT
10
7.650000
20
0.219516
30
0.0
11
7.762500
21
0.215955
31
0.0
0
LINE
8
FRONT
10
7.762500
20
0.215955
30
0.0
11
7.875000
21
0.212394
31
0.0
0
LINE
8
FRONT
10
7.875000
20
0.212394
30
0.0
11
7.987500
21
0.208833
31
0.0
0
LINE
8
FRONT
10
7.987500
20
0.208833
30
0.0
11
8.100000
21
0.205273
31
0.0
0
LINE
8
FRONT
10
8.100000
20
0.205273
30
0.0
11
8.212500
21
0.201712
31
0.0
0
LINE
8
FRONT
10
8.212500
20
0.201712
30
0.0
11
8.325000
21
0.198151
31
0.0
0
LINE
8
FRONT
10
8.325000
20
0.198151
30
0.0
11
8.437500
21
0.194591
31
0.0
0
LINE
8
FRONT
10
8.437500
20
0.194591
30
0.0
11
8.500000
21
0.192613
31
0.0
0
LINE
8
FRONT
10
8.500000
20
0.192613
30
0.0
11
8.550000
21
0.191030
31
0.0
0
LINE
8
FRONT
10
8.550000
20
0.191030
30
0.0
11
8.662500
21
0.187469
31
0.0
0
LINE
8
FRONT
10
8.662500
20
0.187469
30
0.0
11
8.775000
21
0.183909
31
0.0
0
LINE
8
FRONT
10
8.775000
20
0.183909
30
0.0
11
8.887500
21
0.180348
31
0.0
0
LINE
8
FRONT
10
8.887500
20
0.180348
30
0.0
11
9.000000
21
0.176787
31
0.0
0
LINE
8
FRONT
10
0.000000
20
-0.272509
30
0.0
11
0.112500
21
-0.273677
31
0.0
0
LINE
8
FRONT
10
0.112500
20
-0.273677
30
0.0
11
0.225000
21
-0.274844
31
0.0
0
LINE
8
FRONT
10
0.225000
20
-0.274844
30
0.0
11
0.337500
21
-0.276012
31
0.0
0
LINE
8
FRONT
10
0.337500
20
-0.276012
30
0.0
11
0.450000
21
-0.277180
31
0.0
0
LINE
8
FRONT
10
0.450000
20
-0.277180
30
0.0
11
0.500000
21
-0.277699
31
0.0
0
LINE
8
FRONT
10
0.500000
20
-0.277699
30
0.0
11
0.562500
21
-0.278347
31
0.0
0
LINE
8
FRONT
10
0.562500
20
-0.278347
30
0.0
11
0.675000
21
-0.279515
31
0.0
0
LINE
8
FRONT
10
0.675000
20
-0.279515
30
0.0
11
0.787500
21
-0.280683
31
0.0
0
LINE
8
FRONT
10
0.787500
20
-0.280683
30
0.0
11
0.900000
21
-0.281850
31
0.0
0
LINE
8
FRONT
10
0.900000
20
-0.281850
30
0.0
11
1.012500
21
-0.283018
31
0.0
0
LINE
8
FRONT
10
1.012500
20
-0.283018
30
0.0
11
1.125000
21
-0.284186
31
0.0
0
LINE
8
FRONT
10
1.125000
20
-0.284186
30
0.0
11
1.237500
21
-0.285353
31
0.0
0
LINE
8
FRONT
10
1.237500
20
-0.285353
30
0.0
11
1.350000
21
-0.286521
31
0.0
0
LINE
8
FRONT
10
1.350000
20
-0.286521
30
0.0
11
1.462500
21
-0.287689
31
0.0
0
LINE
8
FRONT
10
1.462500
20
-0.287689
30
0.0
11
1.575000
21
-0.288856
31
0.0
0
LINE
8
FRONT
10
1.575000
20
-0.288856
30
0.0
11
1.687500
21
-0.290024
31
0.0
0
LINE
8
FRONT
10
1.687500
20
-0.290024
30
0.0
11
1.800000
21
-0.291191
31
0.0
0
LINE
8
FRONT
10
1.800000
20
-0.291191
30
0.0
11
1.912500
21
-0.292359
31
0.0
0
LINE
8
FRONT
10
1.912500
20
-0.292359
30
0.0
11
2.025000
21
-0.293527
31
0.0
0
LINE
8
FRONT
10
2.025000
20
-0.293527
30
0.0
11
2.137500
21
-0.294694
31
0.0
0
LINE
8
FRONT
10
2.137500
20
-0.294694
30
0.0
11
2.250000
21
-0.295862
31
0.0
0
LINE
8
FRONT
10
2.250000
20
-0.295862
30
0.0
11
2.362500
21
-0.297030
31
0.0
0
LINE
8
FRONT
10
2.362500
20
-0.297030
30
0.0
11
2.475000
21
-0.298197
31
0.0
0
LINE
8
FRONT
10
2.475000
20
-0.298197
30
0.0
11
2.587500
21
-0.299365
31
0.0
0
LINE
8
FRONT
10
2.587500
20
-0.299365
30
0.0
11
2.700000
21
-0.300533
31
0.0
0
LINE
8
FRONT
10
2.700000
20
-0.300533
30
0.0
11
2.812500
21
-0.301700
31
0.0
0
LINE
8
FRONT
10
2.812500
20
-0.301700
30
0.0
11
2.925000
21
-0.302868
31
0.0
0
LINE
8
FRONT
10
2.925000
20
-0.302868
30
0.0
11
3.037500
21
-0.304036
31
0.0
0
LINE
8
FRONT
10
3.037500
20
-0.304036
30
0.0
11
3.150000
21
-0.305203
31
0.0
0
LINE
8
FRONT
10
3.150000
20
-0.305203
30
0.0
11
3.262500
21
-0.306371
31
0.0
0
LINE
8
FRONT
10
3.262500
20
-0.306371
30
0.0
11
3.375000
21
-0.307539
31
0.0
0
LINE
8
FRONT
10
3.375000
20
-0.307539
30
0.0
11
3.487500
21
-0.308706
31
0.0
0
LINE
8
FRONT
10
3.487500
20
-0.308706
30
0.0
11
3.600000
21
-0.309874
31
0.0
0
LINE
8
FRONT
10
3.600000
20
-0.309874
30
0.0
11
3.712500
21
-0.311041
31
0.0
0
LINE
8
FRONT
10
3.712500
20
-0.311041
30
0.0
11
3.825000
21
-0.312209
31
0.0
0
LINE
8
FRONT
10
3.825000
20
-0.312209
30
0.0
11
3.937500
21
-0.313377
31
0.0
0
LINE
8
FRONT
10
3.937500
20
-0.313377
30
0.0
11
4.050000
21
-0.314544
31
0.0
0
LINE
8
FRONT
10
4.050000
20
-0.314544
30
0.0
11
4.162500
21
-0.315712
31
0.0
0
LINE
8
FRONT
10
4.162500
20
-0.315712
30
0.0
11
4.275000
21
-0.316880
31
0.0
0
LINE
8
FRONT
10
4.275000
20
-0.316880
30
0.0
11
4.387500
21
-0.318047
31
0.0
0
LINE
8
FRONT
10
4.387500
20
-0.318047
30
0.0
11
4.500000
21
-0.319215
31
0.0
0
LINE
8
FRONT
10
4.500000
20
-0.319215
30
0.0
11
4.612500
21
-0.315654
31
0.0
0
LINE
8
FRONT
10
4.612500
20
-0.315654
30
0.0
11
4.725000
21
-0.312094
31
0.0
0
LINE
8
FRONT
10
4.725000
20
-0.312094
30
0.0
11
4.837500
21
-0.308533
31
0.0
0
LINE
8
FRONT
10
4.837500
20
-0.308533
30
0.0
11
4.950000
21
-0.304972
31
0.0
0
LINE
8
FRONT
10
4.950000
20
-0.304972
30
0.0
11
5.062500
21
-0.301412
31
0.0
0
LINE
8
FRONT
10
5.062500
20
-0.301412
30
0.0
11
5.175000
21
-0.297851
31
0.0
0
LINE
8
FRONT
10
5.175000
20
-0.297851
30
0.0
11
5.287500
21
-0.294290
31
0.0
0
LINE
8
FRONT
10
5.287500
20
-0.294290
30
0.0
11
5.400000
21
-0.290729
31
0.0
0
LINE
8
FRONT
10
5.400000
20
-0.290729
30
0.0
11
5.512500
21
-0.287169
31
0.0
0
LINE
8
FRONT
10
5.512500
20
-0.287169
30
0.0
11
5.625000
21
-0.283608
31
0.0
0
LINE
8
FRONT
10
5.625000
20
-0.283608
30
0.0
11
5.737500
21
-0.280047
31
0.0
0
LINE
8
FRONT
10
5.737500
20
-0.280047
30
0.0
11
5.850000
21
-0.276487
31
0.0
0
LINE
8
FRONT
10
5.850000
20
-0.276487
30
0.0
11
5.962500
21
-0.272926
31
0.0
0
LINE
8
FRONT
10
5.962500
20
-0.272926
30
0.0
11
6.075000
21
-0.269365
31
0.0
0
LINE
8
FRONT
10
6.075000
20
-0.269365
30
0.0
11
6.187500
21
-0.265805
31
0.0
0
LINE
8
FRONT
10
6.187500
20
-0.265805
30
0.0
11
6.300000
21
-0.262244
31
0.0
0
LINE
8
FRONT
10
6.300000
20
-0.262244
30
0.0
11
6.412500
21
-0.258683
31
0.0
0
LINE
8
FRONT
10
6.412500
20
-0.258683
30
0.0
11
6.525000
21
-0.255122
31
0.0
0
LINE
8
FRONT
10
6.525000
20
-0.255122
30
0.0
11
6.637500
21
-0.251562
31
0.0
0
LINE
8
FRONT
10
6.637500
20
-0.251562
30
0.0
11
6.750000
21
-0.248001
31
0.0
0
LINE
8
FRONT
10
6.750000
20
-0.248001
30
0.0
11
6.862500
21
-0.244440
31
0.0
0
LINE
8
FRONT
10
6.862500
20
-0.244440
30
0.0
11
6.975000
21
-0.240880
31
0.0
0
LINE
8
FRONT
10
6.975000
20
-0.240880
30
0.0
11
7.087500
21
-0.237319
31
0.0
0
LINE
8
FRONT
10
7.087500
20
-0.237319
30
0.0
11
7.200000
21
-0.233758
31
0.0
0
LINE
8
FRONT
10
7.200000
20
-0.233758
30
0.0
11
7.312500
21
-0.230198
31
0.0
0
LINE
8
FRONT
10
7.312500
20
-0.230198
30
0.0
11
7.425000
21
-0.226637
31
0.0
0
LINE
8
FRONT
10
7.425000
20
-0.226637
30
0.0
11
7.537500
21
-0.223076
31
0.0
0
LINE
8
FRONT
10
7.537500
20
-0.223076
30
0.0
11
7.650000
21
-0.219516
31
0.0
0
LINE
8
FRONT
10
7.650000
20
-0.219516
30
0.0
11
7.762500
21
-0.215955
31
0.0
0
LINE
8
FRONT
10
7.762500
20
-0.215955
30
0.0
11
7.875000
21
-0.212394
31
0.0
0
LINE
8
FRONT
10
7.875000
20
-0.212394
30
0.0
11
7.987500
21
-0.208833
31
0.0
0
LINE
8
FRONT
10
7.987500
20
-0.208833
30
0.0
11
8.100000
21
-0.205273
31
0.0
0
LINE
8
FRONT
10
8.100000
20
-0.205273
30
0.0
11
8.212500
21
-0.201712
31
0.0
0
LINE
8
FRONT
10
8.212500
20
-0.201712
30
0.0
11
8.325000
21
-0.198151
31
0.0
0
LINE
8
FRONT
10
8.325000
20
-0.198151
30
0.0
11
8.437500
21
-0.194591
31
0.0
0
LINE
8
FRONT
10
8.437500
20
-0.194591
30
0.0
11
8.500000
21
-0.192613
31
0.0
0
LINE
8
FRONT
10
8.500000
20
-0.192613
30
0.0
11
8.550000
21
-0.191030
31
0.0
0
LINE
8
FRONT
10
8.550000
20
-0.191030
30
0.0
11
8.662500
21
-0.187469
31
0.0
0
LINE
8
FRONT
10
8.662500
20
-0.187469
30
0.0
11
8.775000
21
-0.183909
31
0.0
0
LINE
8
FRONT
10
8.775000
20
-0.183909
30
0.0
11
8.887500
21
-0.180348
31
0.0
0
LINE
8
FRONT
10
8.887500
20
-0.180348
30
0.0
11
9.000000
21
-0.176787
31
0.0
0
LINE
8
FRONT
10
0.000000
20
0.272509
30
0.0
11
0.000000
21
-0.272509
31
0.0
0
LINE
8
FRONT
10
9.000000
20
0.176787
30
0.0
11
9.000000
21
-0.176787
31
0.0
0
LINE
8
TOP
10
0.000000
20
1.820972
30
0.0
11
0.112500
21
1.823924
31
0.0
0
LINE
8
TOP
10
0.112500
20
1.823924
30
0.0
11
0.225000
21
1.826877
31
0.0
0
LINE
8
TOP
10
0.225000
20
1.826877
30
0.0
11
0.337500
21
1.829830
31
0.0
0
LINE
8
TOP
10
0.337500
20
1.829830
30
0.0
11
0.450000
21
1.832782
31
0.0
0
LINE
8
TOP
10
0.450000
20
1.832782
30
0.0
11
0.500000
21
1.834095
31
0.0
0
LINE
8
TOP
10
0.500000
20
1.834095
30
0.0
11
0.562500
21
1.835735
31
0.0
0
LINE
8
TOP
10
0.562500
20
1.835735
30
0.0
11
0.675000
21
1.838687
31
0.0
0
LINE
8
TOP
10
0.675000
20
1.838687
30
0.0
11
0.787500
21
1.841640
31
0.0
0
LINE
8
TOP
10
0.787500
20
1.841640
30
0.0
11
0.900000
21
1.844593
31
0.0
0
LINE
8
TOP
10
0.900000
20
1.844593
30
0.0
11
1.012500
21
1.847545
31
0.0
0
LINE
8
TOP
10
1.012500
20
1.847545
30
0.0
11
1.125000
21
1.850498
31
0.0
0
LINE
8
TOP
10
1.125000
20
1.850498
30
0.0
11
1.237500
21
1.853450
31
0.0
0
LINE
8
TOP
10
1.237500
20
1.853450
30
0.0
11
1.350000
21
1.856403
31
0.0
0
LINE
8
TOP
10
1.350000
20
1.856403
30
0.0
11
1.462500
21
1.859356
31
0.0
0
LINE
8
TOP
10
1.462500
20
1.859356
30
0.0
11
1.575000
21
1.862308
31
0.0
0
LINE
8
TOP
10
1.575000
20
1.862308
30
0.0
11
1.687500
21
1.865261
31
0.0
0
LINE
8
TOP
10
1.687500
20
1.865261
30
0.0
11
1.800000
21
1.868213
31
0.0
0
LINE
8
TOP
10
1.800000
20
1.868213
30
0.0
11
1.912500
21
1.871166
31
0.0
0
LINE
8
TOP
10
1.912500
20
1.871166
30
0.0
11
2.025000
21
1.874119
31
0.0
0
LINE
8
TOP
10
2.025000
20
1.874119
30
0.0
11
2.137500
21
1.877071
31
0.0
0
LINE
8
TOP
10
2.137500
20
1.877071
30
0.0
11
2.250000
21
1.880024
31
0.0
0
LINE
8
TOP
10
2.250000
20
1.880024
30
0.0
11
2.362500
21
1.882976
31
0.0
0
LINE
8
TOP
10
2.362500
20
1.882976
30
0.0
11
2.475000
21
1.885929
31
0.0
0
LINE
8
TOP
10
2.475000
20
1.885929
30
0.0
11
2.587500
21
1.888882
31
0.0
0
LINE
8
TOP
10
2.587500
20
1.888882
30
0.0
11
2.700000
21
1.891834
31
0.0
0
LINE
8
TOP
10
2.700000
20
1.891834
30
0.0
11
2.812500
21
1.894787
31
0.0
0
LINE
8
TOP
10
2.812500
20
1.894787
30
0.0
11
2.925000
21
1.897739
31
0.0
0
LINE
8
TOP
10
2.925000
20
1.897739
30
0.0
11
3.037500
21
1.900692
31
0.0
0
LINE
8
TOP
10
3.037500
20
1.900692
30
0.0
11
3.150000
21
1.903645
31
0.0
0
LINE
8
TOP
10
3.150000
20
1.903645
30
0.0
11
3.262500
21
1.906597
31
0.0
0
LINE
8
TOP
10
3.262500
20
1.906597
30
0.0
11
3.375000
21
1.909550
31
0.0
0
LINE
8
TOP
10
3.375000
20
1.909550
30
0.0
11
3.487500
21
1.912502
31
0.0
0
LINE
8
TOP
10
3.487500
20
1.912502
30
0.0
11
3.600000
21
1.915455
31
0.0
0
LINE
8
TOP
10
3.600000
20
1.915455
30
0.0
11
3.712500
21
1.918408
31
0.0
0
LINE
8
TOP
10
3.712500
20
1.918408
30
0.0
11
3.825000
21
1.921360
31
0.0
0
LINE
8
TOP
10
3.825000
20
1.921360
30
0.0
11
3.937500
21
1.924313
31
0.0
0
LINE
8
TOP
10
3.937500
20
1.924313
30
0.0
11
4.050000
21
1.927265
31
0.0
0
LINE
8
TOP
10
4.050000
20
1.927265
30
0.0
11
4.162500
21
1.930218
31
0.0
0
LINE
8
TOP
10
4.162500
20
1.930218
30
0.0
11
4.275000
21
1.933171
31
0.0
0
LINE
8
TOP
10
4.275000
20
1.933171
30
0.0
11
4.387500
21
1.936123
31
0.0
0
LINE
8
TOP
10
4.387500
20
1.936123
30
0.0
11
4.500000
21
1.939076
31
0.0
0
LINE
8
TOP
10
4.500000
20
1.939076
30
0.0
11
4.612500
21
1.939524
31
0.0
0
LINE
8
TOP
10
4.612500
20
1.939524
30
0.0
11
4.725000
21
1.939972
31
0.0
0
LINE
8
TOP
10
4.725000
20
1.939972
30
0.0
11
4.837500
21
1.940420
31
0.0
0
LINE
8
TOP
10
4.837500
20
1.940420
30
0.0
11
4.950000
21
1.940869
31
0.0
0
LINE
8
TOP
10
4.950000
20
1.940869
30
0.0
11
5.062500
21
1.941317
31
0.0
0
LINE
8
TOP
10
5.062500
20
1.941317
30
0.0
11
5.175000
21
1.941765
31
0.0
0
LINE
8
TOP
10
5.175000
20
1.941765
30
0.0
11
5.287500
21
1.942213
31
0.0
0
LINE
8
TOP
10
5.287500
20
1.942213
30
0.0
11
5.400000
21
1.942661
31
0.0
0
LINE
8
TOP
10
5.400000
20
1.942661
30
0.0
11
5.512500
21
1.943109
31
0.0
0
LINE
8
TOP
10
5.512500
20
1.943109
30
0.0
11
5.625000
21
1.943558
31
0.0
0
LINE
8
TOP
10
5.625000
20
1.943558
30
0.0
11
5.737500
21
1.944006
31
0.0
0
LINE
8
TOP
10
5.737500
20
1.944006
30
0.0
11
5.850000
21
1.944454
31
0.0
0
LINE
8
TOP
10
5.850000
20
1.944454
30
0.0
11
5.962500
21
1.944902
31
0.0
0
LINE
8
TOP
10
5.962500
20
1.944902
30
0.0
11
6.075000
21
1.945350
31
0.0
0
LINE
8
TOP
10
6.075000
20
1.945350
30
0.0
11
6.187500
21
1.945799
31
0.0
0
LINE
8
TOP
10
6.187500
20
1.945799
30
0.0
11
6.300000
21
1.946247
31
0.0
0
LINE
8
TOP
10
6.300000
20
1.946247
30
0.0
11
6.412500
21
1.946695
31
0.0
0
LINE
8
TOP
10
6.412500
20
1.946695
30
0.0
11
6.525000
21
1.947143
31
0.0
0
LINE
8
TOP
10
6.525000
20
1.947143
30
0.0
11
6.637500
21
1.947591
31
0.0
0
LINE
8
TOP
10
6.637500
20
1.947591
30
0.0
11
6.750000
21
1.948040
31
0.0
0
LINE
8
TOP
10
6.750000
20
1.948040
30
0.0
11
6.862500
21
1.948488
31
0.0
0
LINE
8
TOP
10
6.862500
20
1.948488
30
0.0
11
6.975000
21
1.948936
31
0.0
0
LINE
8
TOP
10
6.975000
20
1.948936
30
0.0
11
7.087500
21
1.949384
31
0.0
0
LINE
8
TOP
10
7.087500
20
1.949384
30
0.0
11
7.200000
21
1.949832
31
0.0
0
LINE
8
TOP
10
7.200000
20
1.949832
30
0.0
11
7.312500
21
1.950280
31
0.0
0
LINE
8
TOP
10
7.312500
20
1.950280
30
0.0
11
7.425000
21
1.950729
31
0.0
0
LINE
8
TOP
10
7.425000
20
1.950729
30
0.0
11
7.537500
21
1.951177
31
0.0
0
LINE
8
TOP
10
7.537500
20
1.951177
30
0.0
11
7.650000
21
1.951625
31
0.0
0
LINE
8
TOP
10
7.650000
20
1.951625
30
0.0
11
7.762500
21
1.952073
31
0.0
0
LINE
8
TOP
10
7.762500
20
1.952073
30
0.0
11
7.875000
21
1.952521
31
0.0
0
LINE
8
TOP
10
7.875000
20
1.952521
30
0.0
11
7.987500
21
1.952970
31
0.0
0
LINE
8
TOP
10
7.987500
20
1.952970
30
0.0
11
8.100000
21
1.953418
31
0.0
0
LINE
8
TOP
10
8.100000
20
1.953418
30
0.0
11
8.212500
21
1.953866
31
0.0
0
LINE
8
TOP
10
8.212500
20
1.953866
30
0.0
11
8.325000
21
1.954314
31
0.0
0
LINE
8
TOP
10
8.325000
20
1.954314
30
0.0
11
8.437500
21
1.954762
31
0.0
0
LINE
8
TOP
10
8.437500
20
1.954762
30
0.0
11
8.500000
21
1.955011
31
0.0
0
LINE
8
TOP
10
8.500000
20
1.955011
30
0.0
11
8.550000
21
1.955210
31
0.0
0
LINE
8
TOP
10
8.550000
20
1.955210
30
0.0
11
8.662500
21
1.955659
31
0.0
0
LINE
8
TOP
10
8.662500
20
1.955659
30
0.0
11
8.775000
21
1.956107
31
0.0
0
LINE
8
TOP
10
8.775000
20
1.956107
30
0.0
11
8.887500
21
1.956555
31
0.0
0
LINE
8
TOP
10
8.887500
20
1.956555
30
0.0
11
9.000000
21
1.957003
31
0.0
0
LINE
8
TOP
10
0.000000
20
1.594318
30
0.0
11
0.112500
21
1.591366
31
0.0
0
LINE
8
TOP
10
0.112500
20
1.591366
30
0.0
11
0.225000
21
1.588413
31
0.0
0
LINE
8
TOP
10
0.225000
20
1.588413
30
0.0
11
0.337500
21
1.585460
31
0.0
0
LINE
8
TOP
10
0.337500
20
1.585460
30
0.0
11
0.450000
21
1.582508
31
0.0
0
LINE
8
TOP
10
0.450000
20
1.582508
30
0.0
11
0.500000
21
1.581195
31
0.0
0
LINE
8
TOP
10
0.500000
20
1.581195
30
0.0
11
0.562500
21
1.579555
31
0.0
0
LINE
8
TOP
10
0.562500
20
1.579555
30
0.0
11
0.675000
21
1.576603
31
0.0
0
LINE
8
TOP
10
0.675000
20
1.576603
30
0.0
11
0.787500
21
1.573650
31
0.0
0
LINE
8
TOP
10
0.787500
20
1.573650
30
0.0
11
0.900000
21
1.570697
31
0.0
0
LINE
8
TOP
10
0.900000
20
1.570697
30
0.0
11
1.012500
21
1.567745
31
0.0
0
LINE
8
TOP
10
1.012500
20
1.567745
30
0.0
11
1.125000
21
1.564792
31
0.0
0
LINE
8
TOP
10
1.125000
20
1.564792
30
0.0
11
1.237500
21
1.561840
31
0.0
0
LINE
8
TOP
10
1.237500
20
1.561840
30
0.0
11
1.350000
21
1.558887
31
0.0
0
LINE
8
TOP
10
1.350000
20
1.558887
30
0.0
11
1.462500
21
1.555934
31
0.0
0
LINE
8
TOP
10
1.462500
20
1.555934
30
0.0
11
1.575000
21
1.552982
31
0.0
0
LINE
8
TOP
10
1.575000
20
1.552982
30
0.0
11
1.687500
21
1.550029
31
0.0
0
LINE
8
TOP
10
1.687500
20
1.550029
30
0.0
11
1.800000
21
1.547077
31
0.0
0
LINE
8
TOP
10
1.800000
20
1.547077
30
0.0
11
1.912500
21
1.544124
31
0.0
0
LINE
8
TOP
10
1.912500
20
1.544124
30
0.0
11
2.025000
21
1.541171
31
0.0
0
LINE
8
TOP
10
2.025000
20
1.541171
30
0.0
11
2.137500
21
1.538219
31
0.0
0
LINE
8
TOP
10
2.137500
20
1.538219
30
0.0
11
2.250000
21
1.535266
31
0.0
0
LINE
8
TOP
10
2.250000
20
1.535266
30
0.0
11
2.362500
21
1.532314
31
0.0
0
LINE
8
TOP
10
2.362500
20
1.532314
30
0.0
11
2.475000
21
1.529361
31
0.0
0
LINE
8
TOP
10
2.475000
20
1.529361
30
0.0
11
2.587500
21
1.526408
31
0.0
0
LINE
8
TOP
10
2.587500
20
1.526408
30
0.0
11
2.700000
21
1.523456
31
0.0
0
LINE
8
TOP
10
2.700000
20
1.523456
30
0.0
11
2.812500
21
1.520503
31
0.0
0
LINE
8
TOP
10
2.812500
20
1.520503
30
0.0
11
2.925000
21
1.517551
31
0.0
0
LINE
8
TOP
10
2.925000
20
1.517551
30
0.0
11
3.037500
21
1.514598
31
0.0
0
LINE
8
TOP
10
3.037500
20
1.514598
30
0.0
11
3.150000
21
1.511645
31
0.0
0
LINE
8
TOP
10
3.150000
20
1.511645
30
0.0
11
3.262500
21
1.508693
31
0.0
0
LINE
8
TOP
10
3.262500
20
1.508693
30
0.0
11
3.375000
21
1.505740
31
0.0
0
LINE
8
TOP
10
3.375000
20
1.505740
30
0.0
11
3.487500
21
1.502788
31
0.0
0
LINE
8
TOP
10
3.487500
20
1.502788
30
0.0
11
3.600000
21
1.499835
31
0.0
0
LINE
8
TOP
10
3.600000
20
1.499835
30
0.0
11
3.712500
21
1.496882
31
0.0
0
LINE
8
TOP
10
3.712500
20
1.496882
30
0.0
11
3.825000
21
1.493930
31
0.0
0
LINE
8
TOP
10
3.825000
20
1.493930
30
0.0
11
3.937500
21
1.490977
31
0.0
0
LINE
8
TOP
10
3.937500
20
1.490977
30
0.0
11
4.050000
21
1.488025
31
0.0
0
LINE
8
TOP
10
4.050000
20
1.488025
30
0.0
11
4.162500
21
1.485072
31
0.0
0
LINE
8
TOP
10
4.162500
20
1.485072
30
0.0
11
4.275000
21
1.482119
31
0.0
0
LINE
8
TOP
10
4.275000
20
1.482119
30
0.0
11
4.387500
21
1.479167
31
0.0
0
LINE
8
TOP
10
4.387500
20
1.479167
30
0.0
11
4.500000
21
1.476214
31
0.0
0
LINE
8
TOP
10
4.500000
20
1.476214
30
0.0
11
4.612500
21
1.475766
31
0.0
0
LINE
8
TOP
10
4.612500
20
1.475766
30
0.0
11
4.725000
21
1.475318
31
0.0
0
LINE
8
TOP
10
4.725000
20
1.475318
30
0.0
11
4.837500
21
1.474870
31
0.0
0
LINE
8
TOP
10
4.837500
20
1.474870
30
0.0
11
4.950000
21
1.474421
31
0.0
0
LINE
8
TOP
10
4.950000
20
1.474421
30
0.0
11
5.062500
21
1.473973
31
0.0
0
LINE
8
TOP
10
5.062500
20
1.473973
30
0.0
11
5.175000
21
1.473525
31
0.0
0
LINE
8
TOP
10
5.175000
20
1.473525
30
0.0
11
5.287500
21
1.473077
31
0.0
0
LINE
8
TOP
10
5.287500
20
1.473077
30
0.0
11
5.400000
21
1.472629
31
0.0
0
LINE
8
TOP
10
5.400000
20
1.472629
30
0.0
11
5.512500
21
1.472181
31
0.0
0
LINE
8
TOP
10
5.512500
20
1.472181
30
0.0
11
5.625000
21
1.471732
31
0.0
0
LINE
8
TOP
10
5.625000
20
1.471732
30
0.0
11
5.737500
21
1.471284
31
0.0
0
LINE
8
TOP
10
5.737500
20
1.471284
30
0.0
11
5.850000
21
1.470836
31
0.0
0
LINE
8
TOP
10
5.850000
20
1.470836
30
0.0
11
5.962500
21
1.470388
31
0.0
0
LINE
8
TOP
10
5.962500
20
1.470388
30
0.0
11
6.075000
21
1.469940
31
0.0
0
LINE
8
TOP
10
6.075000
20
1.469940
30
0.0
11
6.187500
21
1.469491
31
0.0
0
LINE
8
TOP
10
6.187500
20
1.469491
30
0.0
11
6.300000
21
1.469043
31
0.0
0
LINE
8
TOP
10
6.300000
20
1.469043
30
0.0
11
6.412500
21
1.468595
31
0.0
0
LINE
8
TOP
10
6.412500
20
1.468595
30
0.0
11
6.525000
21
1.468147
31
0.0
0
LINE
8
TOP
10
6.525000
20
1.468147
30
0.0
11
6.637500
21
1.467699
31
0.0
0
LINE
8
TOP
10
6.637500
20
1.467699
30
0.0
11
6.750000
21
1.467251
31
0.0
0
LINE
8
TOP
10
6.750000
20
1.467251
30
0.0
11
6.862500
21
1.466802
31
0.0
0
LINE
8
TOP
10
6.862500
20
1.466802
30
0.0
11
6.975000
21
1.466354
31
0.0
0
LINE
8
TOP
10
6.975000
20
1.466354
30
0.0
11
7.087500
21
1.465906
31
0.0
0
LINE
8
TOP
10
7.087500
20
1.465906
30
0.0
11
7.200000
21
1.465458
31
0.0
0
LINE
8
TOP
10
7.200000
20
1.465458
30
0.0
11
7.312500
21
1.465010
31
0.0
0
LINE
8
TOP
10
7.312500
20
1.465010
30
0.0
11
7.425000
21
1.464561
31
0.0
0
LINE
8
TOP
10
7.425000
20
1.464561
30
0.0
11
7.537500
21
1.464113
31
0.0
0
LINE
8
TOP
10
7.537500
20
1.464113
30
0.0
11
7.650000
21
1.463665
31
0.0
0
LINE
8
TOP
10
7.650000
20
1.463665
30
0.0
11
7.762500
21
1.463217
31
0.0
0
LINE
8
TOP
10
7.762500
20
1.463217
30
0.0
11
7.875000
21
1.462769
31
0.0
0
LINE
8
TOP
10
7.875000
20
1.462769
30
0.0
11
7.987500
21
1.462320
31
0.0
0
LINE
8
TOP
10
7.987500
20
1.462320
30
0.0
11
8.100000
21
1.461872
31
0.0
0
LINE
8
TOP
10
8.100000
20
1.461872
30
0.0
11
8.212500
21
1.461424
31
0.0
0
LINE
8
TOP
10
8.212500
20
1.461424
30
0.0
11
8.325000
21
1.460976
31
0.0
0
LINE
8
TOP
10
8.325000
20
1.460976
30
0.0
11
8.437500
21
1.460528
31
0.0
0
LINE
8
TOP
10
8.437500
20
1.460528
30
0.0
11
8.500000
21
1.460279
31
0.0
0
LINE
8
TOP
10
8.500000
20
1.460279
30
0.0
11
8.550000
21
1.460080
31
0.0
0
LINE
8
TOP
10
8.550000
20
1.460080
30
0.0
11
8.662500
21
1.459631
31
0.0
0
LINE
8
TOP
10
8.662500
20
1.459631
30
0.0
11
8.775000
21
1.459183
31
0.0
0
LINE
8
TOP
10
8.775000
20
1.459183
30
0.0
11
8.887500
21
1.458735
31
0.0
0
LINE
8
TOP
10
8.887500
20
1.458735
30
0.0
11
9.000000
21
1.458287
31
0.0
0
LINE
8
TOP
10
0.000000
20
1.820972
30
0.0
11
0.000000
21
1.594318
31
0.0
0
LINE
8
TOP
10
9.000000
20
1.957003
30
0.0
11
9.000000
21
1.458287
31
0.0
0
LINE
8
SECTION
10
10.268569
20
-0.319215
30
0.0
11
10.731431
21
-0.319215
31
0.0
0
LINE
8
SECTION
10
10.731431
20
-0.319215
30
0.0
11
10.731431
21
0.319215
31
0.0
0
LINE
8
SECTION
10
10.731431
20
0.319215
30
0.0
11
10.268569
21
0.319215
31
0.0
0
LINE
8
SECTION
10
10.268569
20
0.319215
30
0.0
11
10.268569
21
-0.319215
31
0.0
0
LINE
8
SECTION
10
10.308569
20
-0.279215
30
0.0
11
10.691431
21
-0.279215
31
0.0
0
LINE
8
SECTION
10
10.691431
20
-0.279215
30
0.0
11
10.691431
21
0.279215
31
0.0
0
LINE
8
SECTION
10
10.691431
20
0.279215
30
0.0
11
10.308569
21
0.279215
31
0.0
0
LINE
8
SECTION
10
10.308569
20
0.279215
30
0.0
11
10.308569
21
-0.279215
31
0.0
0
LINE
8
SECTION
10
10.308569
20
0.168141
30
0.0
11
10.348569
21
0.168141
31
0.0
0
LINE
8
SECTION
10
10.348569
20
0.168141
30
0.0
11
10.348569
21
0.279215
31
0.0
0
LINE
8
SECTION
10
10.348569
20
0.279215
30
0.0
11
10.308569
21
0.279215
31
0.0
0
LINE
8
SECTION
10
10.308569
20
0.279215
30
0.0
11
10.308569
21
0.168141
31
0.0
0
LINE
8
SECTION
10
10.308569
20
-0.279215
30
0.0
11
10.348569
21
-0.279215
31
0.0
0
LINE
8
SECTION
10
10.348569
20
-0.279215
30
0.0
11
10.348569
21
-0.168141
31
0.0
0
LINE
8
SECTION
10
10.348569
20
-0.168141
30
0.0
11
10.308569
21
-0.168141
31
0.0
0
LINE
8
SECTION
10
10.308569
20
-0.168141
30
0.0
11
10.308569
21
-0.279215
31
0.0
0
LINE
8
SECTION
10
10.651431
20
0.168141
30
0.0
11
10.691431
21
0.168141
31
0.0
0
LINE
8
SECTION
10
10.691431
20
0.168141
30
0.0
11
10.691431
21
0.279215
31
0.0
0
LINE
8
SECTION
10
10.691431
20
0.279215
30
0.0
11
10.651431
21
0.279215
31
0.0
0
LINE
8
SECTION
10
10.651431
20
0.279215
30
0.0
11
10.651431
21
0.168141
31
0.0
0
LINE
8
SECTION
10
10.651431
20
-0.279215
30
0.0
11
10.691431
21
-0.279215
31
0.0
0
LINE
8
SECTION
10
10.691431
20
-0.279215
30
0.0
11
10.691431
21
-0.168141
31
0.0
0
LINE
8
SECTION
10
10.691431
20
-0.168141
30
0.0
11
10.651431
21
-0.168141
31
0.0
0
LINE
8
SECTION
10
10.651431
20
-0.168141
30
0.0
11
10.651431
21
-0.279215
31
0.0
0
ENDSEC
0
EOF
