0
SECTION
2
HEADER
9
$INSUNITS
70
1
0
ENDSEC
0
SECTION
2
ENTITIES
0
LINE
8
FRONT
10
0.000000
20
0.268330
30
0.0
11
0.112500
21
0.269054
31
0.0
0
LINE
8
FRONT
10
0.112500
20
0.269054
30
0.0
11
0.225000
21
0.269779
31
0.0
0
LINE
8
FRONT
10
0.225000
20
0.269779
30
0.0
11
0.337500
21
0.270504
31
0.0
0
LINE
8
FRONT
10
0.337500
20
0.270504
30
0.0
11
0.450000
21
0.271228
31
0.0
0
LINE
8
FRONT
10
0.450000
20
0.271228
30
0.0
11
0.500000
21
0.271550
31
0.0
0
LINE
8
FRONT
10
0.500000
20
0.271550
30
0.0
11
0.562500
21
0.271953
31
0.0
0
LINE
8
FRONT
10
0.562500
20
0.271953
30
0.0
11
0.675000
21
0.272678
31
0.0
0
LINE
8
FRONT
10
0.675000
20
0.272678
30
0.0
11
0.787500
21
0.273402
31
0.0
0
LINE
8
FRONT
10
0.787500
20
0.273402
30
0.0
11
0.900000
21
0.274127
31
0.0
0
LINE
8
FRONT
10
0.900000
20
0.274127
30
0.0
11
1.012500
21
0.274852
31
0.0
0
LINE
8
FRONT
10
1.012500
20
0.274852
30
0.0
11
1.125000
21
0.275576
31
0.0
0
LINE
8
FRONT
10
1.125000
20
0.275576
30
0.0
11
1.237500
21
0.276301
31
0.0
0
LINE
8
FRONT
10
1.237500
20
0.276301
30
0.0
11
1.350000
21
0.277026
31
0.0
0
LINE
8
FRONT
10
1.350000
20
0.277026
30
0.0
11
1.462500
21
0.277750
31
0.0
0
LINE
8
FRONT
10
1.462500
20
0.277750
30
0.0
11
1.575000
21
0.278475
31
0.0
0
LINE
8
FRONT
10
1.575000
20
0.278475
30
0.0
11
1.687500
21
0.279199
31
0.0
0
LINE
8
FRONT
10
1.687500
20
0.279199
30
0.0
11
1.800000
21
0.279924
31
0.0
0
LINE
8
FRONT
10
1.800000
20
0.279924
30
0.0
11
1.912500
21
0.280649
31
0.0
0
LINE
8
FRONT
10
1.912500
20
0.280649
30
0.0
11
2.025000
21
0.281373
31
0.0
0
LINE
8
FRONT
10
2.025000
20
0.281373
30
0.0
11
2.137500
21
0.282098
31
0.0
0
LINE
8
FRONT
10
2.137500
20
0.282098
30
0.0
11
2.250000
21
0.282823
31
0.0
0
LINE
8
FRONT
10
2.250000
20
0.282823
30
0.0
11
2.362500
21
0.283547
31
0.0
0
LINE
8
FRONT
10
2.362500
20
0.283547
30
0.0
11
2.475000
21
0.284272
31
0.0
0
LINE
8
FRONT
10
2.475000
20
0.284272
30
0.0
11
2.587500
21
0.284997
31
0.0
0
LINE
8
FRONT
10
2.587500
20
0.284997
30
0.0
11
2.700000
21
0.285721
31
0.0
0
LINE
8
FRONT
10
2.700000
20
0.285721
30
0.0
11
2.812500
21
0.286446
31
0.0
0
LINE
8
FRONT
10
2.812500
20
0.286446
30
0.0
11
2.925000
21
0.287171
31
0.0
0
LINE
8
FRONT
10
2.925000
20
0.287171
30
0.0
11
3.037500
21
0.287895
31
0.0
0
LINE
8
FRONT
10
3.037500
20
0.287895
30
0.0
11
3.150000
21
0.288620
31
0.0
0
LINE
8
FRONT
10
3.150000
20
0.288620
30
0.0
11
3.262500
21
0.289345
31
0.0
0
LINE
8
FRONT
10
3.262500
20
0.289345
30
0.0
11
3.375000
21
0.290069
31
0.0
0
LINE
8
FRONT
10
3.375000
20
0.290069
30
0.0
11
3.487500
21
0.290794
31
0.0
0
LINE
8
FRONT
10
3.487500
20
0.290794
30
0.0
11
3.600000
21
0.291519
31
0.0
0
LINE
8
FRONT
10
3.600000
20
0.291519
30
0.0
11
3.712500
21
0.292243
31
0.0
0
LINE
8
FRONT
10
3.712500
20
0.292243
30
0.0
11
3.825000
21
0.292968
31
0.0
0
LINE
8
FRONT
10
3.825000
20
0.292968
30
0.0
11
3.937500
21
0.293693
31
0.0
0
LINE
8
FRONT
10
3.937500
20
0.293693
30
0.0
11
4.050000
21
0.294417
31
0.0
0
LINE
8
FRONT
10
4.050000
20
0.294417
30
0.0
11
4.162500
21
0.295142
31
0.0
0
LINE
8
FRONT
10
4.162500
20
0.295142
30
0.0
11
4.275000
21
0.295867
31
0.0
0
LINE
8
FRONT
10
4.275000
20
0.295867
30
0.0
11
4.387500
21
0.296591
31
0.0
0
LINE
8
FRONT
10
4.387500
20
0.296591
30
0.0
11
4.500000
21
0.297316
31
0.0
0
LINE
8
FRONT
10
4.500000
20
0.297316
30
0.0
11
4.612500
21
0.298147
31
0.0
0
LINE
8
FRONT
10
4.612500
20
0.298147
30
0.0
11
4.725000
21
0.298978
31
0.0
0
LINE
8
FRONT
10
4.725000
20
0.298978
30
0.0
11
4.837500
21
0.299809
31
0.0
0
LINE
8
FRONT
10
4.837500
20
0.299809
30
0.0
11
4.950000
21
0.300640
31
0.0
0
LINE
8
FRONT
10
4.950000
20
0.300640
30
0.0
11
5.062500
21
0.301471
31
0.0
0
LINE
8
FRONT
10
5.062500
20
0.301471
30
0.0
11
5.175000
21
0.302303
31
0.0
0
LINE
8
FRONT
10
5.175000
20
0.302303
30
0.0
11
5.287500
21
0.303134
31
0.0
0
LINE
8
FRONT
10
5.287500
20
0.303134
30
0.0
11
5.400000
21
0.303965
31
0.0
0
LINE
8
FRONT
10
5.400000
20
0.303965
30
0.0
11
5.512500
21
0.304796
31
0.0
0
LINE
8
FRONT
10
5.512500
20
0.304796
30
0.0
11
5.625000
21
0.305627
31
0.0
0
LINE
8
FRONT
10
5.625000
20
0.305627
30
0.0
11
5.737500
21
0.306458
31
0.0
0
LINE
8
FRONT
10
5.737500
20
0.306458
30
0.0
11
5.850000
21
0.307289
31
0.0
0
LINE
8
FRONT
10
5.850000
20
0.307289
30
0.0
11
5.962500
21
0.308121
31
0.0
0
LINE
8
FRONT
10
5.962500
20
0.308121
30
0.0
11
6.075000
21
0.308952
31
0.0
0
LINE
8
FRONT
10
6.075000
20
0.308952
30
0.0
11
6.187500
21
0.309783
31
0.0
0
LINE
8
FRONT
10
6.187500
20
0.309783
30
0.0
11
6.300000
21
0.310614
31
0.0
0
LINE
8
FRONT
10
6.300000
20
0.310614
30
0.0
11
6.412500
21
0.311445
31
0.0
0
LINE
8
FRONT
10
6.412500
20
0.311445
30
0.0
11
6.525000
21
0.312276
31
0.0
0
LINE
8
FRONT
10
6.525000
20
0.312276
30
0.0
11
6.637500
21
0.313107
31
0.0
0
LINE
8
FRONT
10
6.637500
20
0.313107
30
0.0
11
6.750000
21
0.313938
31
0.0
0
LINE
8
FRONT
10
6.750000
20
0.313938
30
0.0
11
6.862500
21
0.314770
31
0.0
0
LINE
8
FRONT
10
6.862500
20
0.314770
30
0.0
11
6.975000
21
0.315601
31
0.0
0
LINE
8
FRONT
10
6.975000
20
0.315601
30
0.0
11
7.087500
21
0.316432
31
0.0
0
LINE
8
FRONT
10
7.087500
20
0.316432
30
0.0
11
7.200000
21
0.317263
31
0.0
0
LINE
8
FRONT
10
7.200000
20
0.317263
30
0.0
11
7.312500
21
0.318094
31
0.0
0
LINE
8
FRONT
10
7.312500
20
0.318094
30
0.0
11
7.425000
21
0.318925
31
0.0
0
LINE
8
FRONT
10
7.425000
20
0.318925
30
0.0
11
7.537500
21
0.319756
31
0.0
0
LINE
8
FRONT
10
7.537500
20
0.319756
30
0.0
11
7.650000
21
0.320587
31
0.0
0
LINE
8
FRONT
10
7.650000
20
0.320587
30
0.0
11
7.762500
21
0.321419
31
0.0
0
LINE
8
FRONT
10
7.762500
20
0.321419
30
0.0
11
7.875000
21
0.322250
31
0.0
0
LINE
8
FRONT
10
7.875000
20
0.322250
30
0.0
11
7.987500
21
0.323081
31
0.0
0
LINE
8
FRONT
10
7.987500
20
0.323081
30
0.0
11
8.100000
21
0.323912
31
0.0
0
LINE
8
FRONT
10
8.100000
20
0.323912
30
0.0
11
8.212500
21
0.324743
31
0.0
0
LINE
8
FRONT
10
8.212500
20
0.324743
30
0.0
11
8.325000
21
0.325574
31
0.0
0
LINE
8
FRONT
10
8.325000
20
0.325574
30
0.0
11
8.437500
21
0.326405
31
0.0
0
LINE
8
FRONT
10
8.437500
20
0.326405
30
0.0
11
8.500000
21
0.326867
31
0.0
0
LINE
8
FRONT
10
8.500000
20
0.326867
30
0.0
11
8.550000
21
0.327237
31
0.0
0
LINE
8
FRONT
10
8.550000
20
0.327237
30
0.0
11
8.662500
21
0.328068
31
0.0
0
LINE
8
FRONT
10
8.662500
20
0.328068
30
0.0
11
8.775000
21
0.328899
31
0.0
0
LINE
8
FRONT
10
8.775000
20
0.328899
30
0.0
11
8.887500
21
0.329730
31
0.0
0
LINE
8
FRONT
10
8.887500
20
0.329730
30
0.0
11
9.000000
21
0.330561
31
0.0
0
LINE
8
FRONT
10
0.000000
20
-0.268330
30
0.0
11
0.112500
21
-0.269054
31
0.0
0
LINE
8
FRONT
10
0.112500
20
-0.269054
30
0.0
11
0.225000
21
-0.269779
31
0.0
0
LINE
8
FRONT
10
0.225000
20
-0.269779
30
0.0
11
0.337500
21
-0.270504
31
0.0
0
LINE
8
FRONT
10
0.337500
20
-0.270504
30
0.0
11
0.450000
21
-0.271228
31
0.0
0
LINE
8
FRONT
10
0.450000
20
-0.271228
30
0.0
11
0.500000
21
-0.271550
31
0.0
0
LINE
8
FRONT
10
0.500000
20
-0.271550
30
0.0
11
0.562500
21
-0.271953
31
0.0
0
LINE
8
FRONT
10
0.562500
20
-0.271953
30
0.0
11
0.675000
21
-0.272678
31
0.0
0
LINE
8
FRONT
10
0.675000
20
-0.272678
30
0.0
11
0.787500
21
-0.273402
31
0.0
0
LINE
8
FRONT
10
0.787500
20
-0.273402
30
0.0
11
0.900000
21
-0.274127
31
0.0
0
LINE
8
FRONT
10
0.900000
20
-0.274127
30
0.0
11
1.012500
21
-0.274852
31
0.0
0
LINE
8
FRONT
10
1.012500
20
-0.274852
30
0.0
11
1.125000
21
-0.275576
31
0.0
0
LINE
8
FRONT
10
1.125000
20
-0.275576
30
0.0
11
1.237500
21
-0.276301
31
0.0
0
LINE
8
FRONT
10
1.237500
20
-0.276301
30
0.0
11
1.350000
21
-0.277026
31
0.0
0
LINE
8
FRONT
10
1.350000
20
-0.277026
30
0.0
11
1.462500
21
-0.277750
31
0.0
0
LINE
8
FRONT
10
1.462500
20
-0.277750
30
0.0
11
1.575000
21
-0.278475
31
0.0
0
LINE
8
FRONT
10
1.575000
20
-0.278475
30
0.0
11
1.687500
21
-0.279199
31
0.0
0
LINE
8
FRONT
10
1.687500
20
-0.279199
30
0.0
11
1.800000
21
-0.279924
31
0.0
0
LINE
8
FRONT
10
1.800000
20
-0.279924
30
0.0
11
1.912500
21
-0.280649
31
0.0
0
LINE
8
FRONT
10
1.912500
20
-0.280649
30
0.0
11
2.025000
21
-0.281373
31
0.0
0
LINE
8
FRONT
10
2.025000
20
-0.281373
30
0.0
11
2.137500
21
-0.282098
31
0.0
0
LINE
8
FRONT
10
2.137500
20
-0.282098
30
0.0
11
2.250000
21
-0.282823
31
0.0
0
LINE
8
FRONT
10
2.250000
20
-0.282823
30
0.0
11
2.362500
21
-0.283547
31
0.0
0
LINE
8
FRONT
10
2.362500
20
-0.283547
30
0.0
11
2.475000
21
-0.284272
31
0.0
0
LINE
8
FRONT
10
2.475000
20
-0.284272
30
0.0
11
2.587500
21
-0.284997
31
0.0
0
LINE
8
FRONT
10
2.587500
20
-0.284997
30
0.0
11
2.700000
21
-0.285721
31
0.0
0
LINE
8
FRONT
10
2.700000
20
-0.285721
30
0.0
11
2.812500
21
-0.286446
31
0.0
0
LINE
8
FRONT
10
2.812500
20
-0.286446
30
0.0
11
2.925000
21
-0.287171
31
0.0
0
LINE
8
FRONT
10
2.925000
20
-0.287171
30
0.0
11
3.037500
21
-0.287895
31
0.0
0
LINE
8
FRONT
10
3.037500
20
-0.287895
30
0.0
11
3.150000
21
-0.288620
31
0.0
0
LINE
8
FRONT
10
3.150000
20
-0.288620
30
0.0
11
3.262500
21
-0.289345
31
0.0
0
LINE
8
FRONT
10
3.262500
20
-0.289345
30
0.0
11
3.375000
21
-0.290069
31
0.0
0
LINE
8
FRONT
10
3.375000
20
-0.290069
30
0.0
11
3.487500
21
-0.290794
31
0.0
0
LINE
8
FRONT
10
3.487500
20
-0.290794
30
0.0
11
3.600000
21
-0.291519
31
0.0
0
LINE
8
FRONT
10
3.600000
20
-0.291519
30
0.0
11
3.712500
21
-0.292243
31
0.0
0
LINE
8
FRONT
10
3.712500
20
-0.292243
30
0.0
11
3.825000
21
-0.292968
31
0.0
0
LINE
8
FRONT
10
3.825000
20
-0.292968
30
0.0
11
3.937500
21
-0.293693
31
0.0
0
LINE
8
FRONT
10
3.937500
20
-0.293693
30
0.0
11
4.050000
21
-0.294417
31
0.0
0
LINE
8
FRONT
10
4.050000
20
-0.294417
30
0.0
11
4.162500
21
-0.295142
31
0.0
0
LINE
8
FRONT
10
4.162500
20
-0.295142
30
0.0
11
4.275000
21
-0.295867
31
0.0
0
LINE
8
FRONT
10
4.275000
20
-0.295867
30
0.0
11
4.387500
21
-0.296591
31
0.0
0
LINE
8
FRONT
10
4.387500
20
-0.296591
30
0.0
11
4.500000
21
-0.297316
31
0.0
0
LINE
8
FRONT
10
4.500000
20
-0.297316
30
0.0
11
4.612500
21
-0.298147
31
0.0
0
LINE
8
FRONT
10
4.612500
20
-0.298147
30
0.0
11
4.725000
21
-0.298978
31
0.0
0
LINE
8
FRONT
10
4.725000
20
-0.298978
30
0.0
11
4.837500
21
-0.299809
31
0.0
0
LINE
8
FRONT
10
4.837500
20
-0.299809
30
0.0
11
4.950000
21
-0.300640
31
0.0
0
LINE
8
FRONT
10
4.950000
20
-0.300640
30
0.0
11
5.062500
21
-0.301471
31
0.0
0
LINE
8
FRONT
10
5.062500
20
-0.301471
30
0.0
11
5.175000
21
-0.302303
31
0.0
0
LINE
8
FRONT
10
5.175000
20
-0.302303
30
0.0
11
5.287500
21
-0.303134
31
0.0
0
LINE
8
FRONT
10
5.287500
20
-0.303134
30
0.0
11
5.400000
21
-0.303965
31
0.0
0
LINE
8
FRONT
10
5.400000
20
-0.303965
30
0.0
11
5.512500
21
-0.304796
31
0.0
0
LINE
8
FRONT
10
5.512500
20
-0.304796
30
0.0
11
5.625000
21
-0.305627
31
0.0
0
LINE
8
FRONT
10
5.625000
20
-0.305627
30
0.0
11
5.737500
21
-0.306458
31
0.0
0
LINE
8
FRONT
10
5.737500
20
-0.306458
30
0.0
11
5.850000
21
-0.307289
31
0.0
0
LINE
8
FRONT
10
5.850000
20
-0.307289
30
0.0
11
5.962500
21
-0.308121
31
0.0
0
LINE
8
FRONT
10
5.962500
20
-0.308121
30
0.0
11
6.075000
21
-0.308952
31
0.0
0
LINE
8
FRONT
10
6.075000
20
-0.308952
30
0.0
11
6.187500
21
-0.309783
31
0.0
0
LINE
8
FRONT
10
6.187500
20
-0.309783
30
0.0
11
6.300000
21
-0.310614
31
0.0
0
LINE
8
FRONT
10
6.300000
20
-0.310614
30
0.0
11
6.412500
21
-0.311445
31
0.0
0
LINE
8
FRONT
10
6.412500
20
-0.311445
30
0.0
11
6.525000
21
-0.312276
31
0.0
0
LINE
8
FRONT
10
6.525000
20
-0.312276
30
0.0
11
6.637500
21
-0.313107
31
0.0
0
LINE
8
FRONT
10
6.637500
20
-0.313107
30
0.0
11
6.750000
21
-0.313938
31
0.0
0
LINE
8
FRONT
10
6.750000
20
-0.313938
30
0.0
11
6.862500
21
-0.314770
31
0.0
0
LINE
8
FRONT
10
6.862500
20
-0.314770
30
0.0
11
6.975000
21
-0.315601
31
0.0
0
LINE
8
FRONT
10
6.975000
20
-0.315601
30
0.0
11
7.087500
21
-0.316432
31
0.0
0
LINE
8
FRONT
10
7.087500
20
-0.316432
30
0.0
11
7.200000
21
-0.317263
31
0.0
0
LINE
8
FRONT
10
7.200000
20
-0.317263
30
0.0
11
7.312500
21
-0.318094
31
0.0
0
LINE
8
FRONT
10
7.312500
20
-0.318094
30
0.0
11
7.425000
21
-0.318925
31
0.0
0
LINE
8
FRONT
10
7.425000
20
-0.318925
30
0.0
11
7.537500
21
-0.319756
31
0.0
0
LINE
8
FRONT
10
7.537500
20
-0.319756
30
0.0
11
7.650000
21
-0.320587
31
0.0
0
LINE
8
FRONT
10
7.650000
20
-0.320587
30
0.0
11
7.762500
21
-0.321419
31
0.0
0
LINE
8
FRONT
10
7.762500
20
-0.321419
30
0.0
11
7.875000
21
-0.322250
31
0.0
0
LINE
8
FRONT
10
7.875000
20
-0.322250
30
0.0
11
7.987500
21
-0.323081
31
0.0
0
LINE
8
FRONT
10
7.987500
20
-0.323081
30
0.0
11
8.100000
21
-0.323912
31
0.0
0
LINE
8
FRONT
10
8.100000
20
-0.323912
30
0.0
11
8.212500
21
-0.324743
31
0.0
0
LINE
8
FRONT
10
8.212500
20
-0.324743
30
0.0
11
8.325000
21
-0.325574
31
0.0
0
LINE
8
FRONT
10
8.325000
20
-0.325574
30
0.0
11
8.437500
21
-0.326405
31
0.0
0
LINE
8
FRONT
10
8.437500
20
-0.326405
30
0.0
11
8.500000
21
-0.326867
31
0.0
0
LINE
8
FRONT
10
8.500000
20
-0.326867
30
0.0
11
8.550000
21
-0.327237
31
0.0
0
LINE
8
FRONT
10
8.550000
20
-0.327237
30
0.0
11
8.662500
21
-0.328068
31
0.0
0
LINE
8
FRONT
10
8.662500
20
-0.328068
30
0.0
11
8.775000
21
-0.328899
31
0.0
0
LINE
8
FRONT
10
8.775000
20
-0.328899
30
0.0
11
8.887500
21
-0.329730
31
0.0
0
LINE
8
FRONT
10
8.887500
20
-0.329730
30
0.0
11
9.000000
21
-0.330561
31
0.0
0
LINE
8
FRONT
10
0.000000
20
0.268330
30
0.0
11
0.000000
21
-0.268330
31
0.0
0
LINE
8
FRONT
10
9.000000
20
0.330561
30
0.0
11
9.000000
21
-0.330561
31
0.0
0
LINE
8
TOP
10
0.000000
20
1.957047
30
0.0
11
0.112500
21
1.956217
31
0.0
0
LINE
8
TOP
10
0.112500
20
1.956217
30
0.0
11
0.225000
21
1.955387
31
0.0
0
LINE
8
TOP
10
0.225000
20
1.955387
30
0.0
11
0.337500
21
1.954557
31
0.0
0
LINE
8
TOP
10
0.337500
20
1.954557
30
0.0
11
0.450000
21
1.953727
31
0.0
0
LINE
8
TOP
10
0.450000
20
1.953727
30
0.0
11
0.500000
21
1.953358
31
0.0
0
LINE
8
TOP
10
0.500000
20
1.953358
30
0.0
11
0.562500
21
1.952897
31
0.0
0
LINE
8
TOP
10
0.562500
20
1.952897
30
0.0
11
0.675000
21
1.952067
31
0.0
0
LINE
8
TOP
10
0.675000
20
1.952067
30
0.0
11
0.787500
21
1.951237
31
0.0
0
LINE
8
TOP
10
0.787500
20
1.951237
30
0.0
11
0.900000
21
1.950407
31
0.0
0
LINE
8
TOP
10
0.900000
20
1.950407
30
0.0
11
1.012500
21
1.949577
31
0.0
0
LINE
8
TOP
10
1.012500
20
1.949577
30
0.0
11
1.125000
21
1.948747
31
0.0
0
LINE
8
TOP
10
1.125000
20
1.948747
30
0.0
11
1.237500
21
1.947917
31
0.0
0
LINE
8
TOP
10
1.237500
20
1.947917
30
0.0
11
1.350000
21
1.947087
31
0.0
0
LINE
8
TOP
10
1.350000
20
1.947087
30
0.0
11
1.462500
21
1.946257
31
0.0
0
LINE
8
TOP
10
1.462500
20
1.946257
30
0.0
11
1.575000
21
1.945427
31
0.0
0
LINE
8
TOP
10
1.575000
20
1.945427
30
0.0
11
1.687500
21
1.944597
31
0.0
0
LINE
8
TOP
10
1.687500
20
1.944597
30
0.0
11
1.800000
21
1.943767
31
0.0
0
LINE
8
TOP
10
1.800000
20
1.943767
30
0.0
11
1.912500
21
1.942937
31
0.0
0
LINE
8
TOP
10
1.912500
20
1.942937
30
0.0
11
2.025000
21
1.942107
31
0.0
0
LINE
8
TOP
10
2.025000
20
1.942107
30
0.0
11
2.137500
21
1.941277
31
0.0
0
LINE
8
TOP
10
2.137500
20
1.941277
30
0.0
11
2.250000
21
1.940447
31
0.0
0
LINE
8
TOP
10
2.250000
20
1.940447
30
0.0
11
2.362500
21
1.939617
31
0.0
0
LINE
8
TOP
10
2.362500
20
1.939617
30
0.0
11
2.475000
21
1.938787
31
0.0
0
LINE
8
TOP
10
2.475000
20
1.938787
30
0.0
11
2.587500
21
1.937957
31
0.0
0
LINE
8
TOP
10
2.587500
20
1.937957
30
0.0
11
2.700000
21
1.937127
31
0.0
0
LINE
8
TOP
10
2.700000
20
1.937127
30
0.0
11
2.812500
21
1.936297
31
0.0
0
LINE
8
TOP
10
2.812500
20
1.936297
30
0.0
11
2.925000
21
1.935467
31
0.0
0
LINE
8
TOP
10
2.925000
20
1.935467
30
0.0
11
3.037500
21
1.934637
31
0.0
0
LINE
8
TOP
10
3.037500
20
1.934637
30
0.0
11
3.150000
21
1.933807
31
0.0
0
LINE
8
TOP
10
3.150000
20
1.933807
30
0.0
11
3.262500
21
1.932978
31
0.0
0
LINE
8
TOP
10
3.262500
20
1.932978
30
0.0
11
3.375000
21
1.932148
31
0.0
0
LINE
8
TOP
10
3.375000
20
1.932148
30
0.0
11
3.487500
21
1.931318
31
0.0
0
LINE
8
TOP
10
3.487500
20
1.931318
30
0.0
11
3.600000
21
1.930488
31
0.0
0
LINE
8
TOP
10
3.600000
20
1.930488
30
0.0
11
3.712500
21
1.929658
31
0.0
0
LINE
8
TOP
10
3.712500
20
1.929658
30
0.0
11
3.825000
21
1.928828
31
0.0
0
LINE
8
TOP
10
3.825000
20
1.928828
30
0.0
11
3.937500
21
1.927998
31
0.0
0
LINE
8
TOP
10
3.937500
20
1.927998
30
0.0
11
4.050000
21
1.927168
31
0.0
0
LINE
8
TOP
10
4.050000
20
1.927168
30
0.0
11
4.162500
21
1.926338
31
0.0
0
LINE
8
TOP
10
4.162500
20
1.926338
30
0.0
11
4.275000
21
1.925508
31
0.0
0
LINE
8
TOP
10
4.275000
20
1.925508
30
0.0
11
4.387500
21
1.924678
31
0.0
0
LINE
8
TOP
10
4.387500
20
1.924678
30
0.0
11
4.500000
21
1.923848
31
0.0
0
LINE
8
TOP
10
4.500000
20
1.923848
30
0.0
11
4.612500
21
1.923716
31
0.0
0
LINE
8
TOP
10
4.612500
20
1.923716
30
0.0
11
4.725000
21
1.923584
31
0.0
0
LINE
8
TOP
10
4.725000
20
1.923584
30
0.0
11
4.837500
21
1.923452
31
0.0
0
LINE
8
TOP
10
4.837500
20
1.923452
30
0.0
11
4.950000
21
1.923320
31
0.0
0
LINE
8
TOP
10
4.950000
20
1.923320
30
0.0
11
5.062500
21
1.923188
31
0.0
0
LINE
8
TOP
10
5.062500
20
1.923188
30
0.0
11
5.175000
21
1.923056
31
0.0
0
LINE
8
TOP
10
5.175000
20
1.923056
30
0.0
11
5.287500
21
1.922924
31
0.0
0
LINE
8
TOP
10
5.287500
20
1.922924
30
0.0
11
5.400000
21
1.922792
31
0.0
0
LINE
8
TOP
10
5.400000
20
1.922792
30
0.0
11
5.512500
21
1.922660
31
0.0
0
LINE
8
TOP
10
5.512500
20
1.922660
30
0.0
11
5.625000
21
1.922528
31
0.0
0
LINE
8
TOP
10
5.625000
20
1.922528
30
0.0
11
5.737500
21
1.922396
31
0.0
0
LINE
8
TOP
10
5.737500
20
1.922396
30
0.0
11
5.850000
21
1.922264
31
0.0
0
LINE
8
TOP
10
5.850000
20
1.922264
30
0.0
11
5.962500
21
1.922132
31
0.0
0
LINE
8
TOP
10
5.962500
20
1.922132
30
0.0
11
6.075000
21
1.922000
31
0.0
0
LINE
8
TOP
10
6.075000
20
1.922000
30
0.0
11
6.187500
21
1.921868
31
0.0
0
LINE
8
TOP
10
6.187500
20
1.921868
30
0.0
11
6.300000
21
1.921736
31
0.0
0
LINE
8
TOP
10
6.300000
20
1.921736
30
0.0
11
6.412500
21
1.921604
31
0.0
0
LINE
8
TOP
10
6.412500
20
1.921604
30
0.0
11
6.525000
21
1.921472
31
0.0
0
LINE
8
TOP
10
6.525000
20
1.921472
30
0.0
11
6.637500
21
1.921340
31
0.0
0
LINE
8
TOP
10
6.637500
20
1.921340
30
0.0
11
6.750000
21
1.921208
31
0.0
0
LINE
8
TOP
10
6.750000
20
1.921208
30
0.0
11
6.862500
21
1.921076
31
0.0
0
LINE
8
TOP
10
6.862500
20
1.921076
30
0.0
11
6.975000
21
1.920944
31
0.0
0
LINE
8
TOP
10
6.975000
20
1.920944
30
0.0
11
7.087500
21
1.920812
31
0.0
0
LINE
8
TOP
10
7.087500
20
1.920812
30
0.0
11
7.200000
21
1.920680
31
0.0
0
LINE
8
TOP
10
7.200000
20
1.920680
30
0.0
11
7.312500
21
1.920548
31
0.0
0
LINE
8
TOP
10
7.312500
20
1.920548
30
0.0
11
7.425000
21
1.920416
31
0.0
0
LINE
8
TOP
10
7.425000
20
1.920416
30
0.0
11
7.537500
21
1.920284
31
0.0
0
LINE
8
TOP
10
7.537500
20
1.920284
30
0.0
11
7.650000
21
1.920152
31
0.0
0
LINE
8
TOP
10
7.650000
20
1.920152
30
0.0
11
7.762500
21
1.920020
31
0.0
0
LINE
8
TOP
10
7.762500
20
1.920020
30
0.0
11
7.875000
21
1.919888
31
0.0
0
LINE
8
TOP
10
7.875000
20
1.919888
30
0.0
11
7.987500
21
1.919756
31
0.0
0
LINE
8
TOP
10
7.987500
20
1.919756
30
0.0
11
8.100000
21
1.919624
31
0.0
0
LINE
8
TOP
10
8.100000
20
1.919624
30
0.0
11
8.212500
21
1.919492
31
0.0
0
LINE
8
TOP
10
8.212500
20
1.919492
30
0.0
11
8.325000
21
1.919360
31
0.0
0
LINE
8
TOP
10
8.325000
20
1.919360
30
0.0
11
8.437500
21
1.919228
31
0.0
0
LINE
8
TOP
10
8.437500
20
1.919228
30
0.0
11
8.500000
21
1.919155
31
0.0
0
LINE
8
TOP
10
8.500000
20
1.919155
30
0.0
11
8.550000
21
1.919096
31
0.0
0
LINE
8
TOP
10
8.550000
20
1.919096
30
0.0
11
8.662500
21
1.918964
31
0.0
0
LINE
8
TOP
10
8.662500
20
1.918964
30
0.0
11
8.775000
21
1.918832
31
0.0
0
LINE
8
TOP
10
8.775000
20
1.918832
30
0.0
11
8.887500
21
1.918700
31
0.0
0
LINE
8
TOP
10
8.887500
20
1.918700
30
0.0
11
9.000000
21
1.918568
31
0.0
0
LINE
8
TOP
10
0.000000
20
1.526319
30
0.0
11
0.112500
21
1.527149
31
0.0
0
LINE
8
TOP
10
0.112500
20
1.527149
30
0.0
11
0.225000
21
1.527979
31
0.0
0
LINE
8
TOP
10
0.225000
20
1.527979
30
0.0
11
0.337500
21
1.528809
31
0.0
0
LINE
8
TOP
10
0.337500
20
1.528809
30
0.0
11
0.450000
21
1.529639
31
0.0
0
LINE
8
TOP
10
0.450000
20
1.529639
30
0.0
11
0.500000
21
1.530008
31
0.0
0
LINE
8
TOP
10
0.500000
20
1.530008
30
0.0
11
0.562500
21
1.530469
31
0.0
0
LINE
8
TOP
10
0.562500
20
1.530469
30
0.0
11
0.675000
21
1.531299
31
0.0
0
LINE
8
TOP
10
0.675000
20
1.531299
30
0.0
11
0.787500
21
1.532129
31
0.0
0
LINE
8
TOP
10
0.787500
20
1.532129
30
0.0
11
0.900000
21
1.532959
31
0.0
0
LINE
8
TOP
10
0.900000
20
1.532959
30
0.0
11
1.012500
21
1.533789
31
0.0
0
LINE
8
TOP
10
1.012500
20
1.533789
30
0.0
11
1.125000
21
1.534619
31
0.0
0
LINE
8
TOP
10
1.125000
20
1.534619
30
0.0
11
1.237500
21
1.535449
31
0.0
0
LINE
8
TOP
10
1.237500
20
1.535449
30
0.0
11
1.350000
21
1.536279
31
0.0
0
LINE
8
TOP
10
1.350000
20
1.536279
30
0.0
11
1.462500
21
1.537109
31
0.0
0
LINE
8
TOP
10
1.462500
20
1.537109
30
0.0
11
1.575000
21
1.537939
31
0.0
0
LINE
8
TOP
10
1.575000
20
1.537939
30
0.0
11
1.687500
21
1.538769
31
0.0
0
LINE
8
TOP
10
1.687500
20
1.538769
30
0.0
11
1.800000
21
1.539599
31
0.0
0
LINE
8
TOP
10
1.800000
20
1.539599
30
0.0
11
1.912500
21
1.540429
31
0.0
0
LINE
8
TOP
10
1.912500
20
1.540429
30
0.0
11
2.025000
21
1.541259
31
0.0
0
LINE
8
TOP
10
2.025000
20
1.541259
30
0.0
11
2.137500
21
1.542089
31
0.0
0
LINE
8
TOP
10
2.137500
20
1.542089
30
0.0
11
2.250000
21
1.542919
31
0.0
0
LINE
8
TOP
10
2.250000
20
1.542919
30
0.0
11
2.362500
21
1.543749
31
0.0
0
LINE
8
TOP
10
2.362500
20
1.543749
30
0.0
11
2.475000
21
1.544579
31
0.0
0
LINE
8
TOP
10
2.475000
20
1.544579
30
0.0
11
2.587500
21
1.545409
31
0.0
0
LINE
8
TOP
10
2.587500
20
1.545409
30
0.0
11
2.700000
21
1.546239
31
0.0
0
LINE
8
TOP
10
2.700000
20
1.546239
30
0.0
11
2.812500
21
1.547069
31
0.0
0
LINE
8
TOP
10
2.812500
20
1.547069
30
0.0
11
2.925000
21
1.547899
31
0.0
0
LINE
8
TOP
10
2.925000
20
1.547899
30
0.0
11
3.037500
21
1.548729
31
0.0
0
LINE
8
TOP
10
3.037500
20
1.548729
30
0.0
11
3.150000
21
1.549559
31
0.0
0
LINE
8
TOP
10
3.150000
20
1.549559
30
0.0
11
3.262500
21
1.550389
31
0.0
0
LINE
8
TOP
10
3.262500
20
1.550389
30
0.0
11
3.375000
21
1.551219
31
0.0
0
LINE
8
TOP
10
3.375000
20
1.551219
30
0.0
11
3.487500
21
1.552049
31
0.0
0
LINE
8
TOP
10
3.487500
20
1.552049
30
0.0
11
3.600000
21
1.552879
31
0.0
0
LINE
8
TOP
10
3.600000
20
1.552879
30
0.0
11
3.712500
21
1.553709
31
0.0
0
LINE
8
TOP
10
3.712500
20
1.553709
30
0.0
11
3.825000
21
1.554539
31
0.0
0
LINE
8
TOP
10
3.825000
20
1.554539
30
0.0
11
3.937500
21
1.555369
31
0.0
0
LINE
8
TOP
10
3.937500
20
1.555369
30
0.0
11
4.050000
21
1.556198
31
0.0
0
LINE
8
TOP
10
4.050000
20
1.556198
30
0.0
11
4.162500
21
1.557028
31
0.0
0
LINE
8
TOP
10
4.162500
20
1.557028
30
0.0
11
4.275000
21
1.557858
31
0.0
0
LINE
8
TOP
10
4.275000
20
1.557858
30
0.0
11
4.387500
21
1.558688
31
0.0
0
LINE
8
TOP
10
4.387500
20
1.558688
30
0.0
11
4.500000
21
1.559518
31
0.0
0
LINE
8
TOP
10
4.500000
20
1.559518
30
0.0
11
4.612500
21
1.559650
31
0.0
0
LINE
8
TOP
10
4.612500
20
1.559650
30
0.0
11
4.725000
21
1.559782
31
0.0
0
LINE
8
TOP
10
4.725000
20
1.559782
30
0.0
11
4.837500
21
1.559914
31
0.0
0
LINE
8
TOP
10
4.837500
20
1.559914
30
0.0
11
4.950000
21
1.560046
31
0.0
0
LINE
8
TOP
10
4.950000
20
1.560046
30
0.0
11
5.062500
21
1.560178
31
0.0
0
LINE
8
TOP
10
5.062500
20
1.560178
30
0.0
11
5.175000
21
1.560310
31
0.0
0
LINE
8
TOP
10
5.175000
20
1.560310
30
0.0
11
5.287500
21
1.560442
31
0.0
0
LINE
8
TOP
10
5.287500
20
1.560442
30
0.0
11
5.400000
21
1.560574
31
0.0
0
LINE
8
TOP
10
5.400000
20
1.560574
30
0.0
11
5.512500
21
1.560706
31
0.0
0
LINE
8
TOP
10
5.512500
20
1.560706
30
0.0
11
5.625000
21
1.560838
31
0.0
0
LINE
8
TOP
10
5.625000
20
1.560838
30
0.0
11
5.737500
21
1.560970
31
0.0
0
LINE
8
TOP
10
5.737500
20
1.560970
30
0.0
11
5.850000
21
1.561102
31
0.0
0
LINE
8
TOP
10
5.850000
20
1.561102
30
0.0
11
5.962500
21
1.561234
31
0.0
0
LINE
8
TOP
10
5.962500
20
1.561234
30
0.0
11
6.075000
21
1.561366
31
0.0
0
LINE
8
TOP
10
6.075000
20
1.561366
30
0.0
11
6.187500
21
1.561498
31
0.0
0
LINE
8
TOP
10
6.187500
20
1.561498
30
0.0
11
6.300000
21
1.561630
31
0.0
0
LINE
8
TOP
10
6.300000
20
1.561630
30
0.0
11
6.412500
21
1.561762
31
0.0
0
LINE
8
TOP
10
6.412500
20
1.561762
30
0.0
11
6.525000
21
1.561894
31
0.0
0
LINE
8
TOP
10
6.525000
20
1.561894
30
0.0
11
6.637500
21
1.562026
31
0.0
0
LINE
8
TOP
10
6.637500
20
1.562026
30
0.0
11
6.750000
21
1.562158
31
0.0
0
LINE
8
TOP
10
6.750000
20
1.562158
30
0.0
11
6.862500
21
1.562290
31
0.0
0
LINE
8
TOP
10
6.862500
20
1.562290
30
0.0
11
6.975000
21
1.562422
31
0.0
0
LINE
8
TOP
10
6.975000
20
1.562422
30
0.0
11
7.087500
21
1.562554
31
0.0
0
LINE
8
TOP
10
7.087500
20
1.562554
30
0.0
11
7.200000
21
1.562686
31
0.0
0
LINE
8
TOP
10
7.200000
20
1.562686
30
0.0
11
7.312500
21
1.562818
31
0.0
0
LINE
8
TOP
10
7.312500
20
1.562818
30
0.0
11
7.425000
21
1.562950
31
0.0
0
LINE
8
TOP
10
7.425000
20
1.562950
30
0.0
11
7.537500
21
1.563082
31
0.0
0
LINE
8
TOP
10
7.537500
20
1.563082
30
0.0
11
7.650000
21
1.563214
31
0.0
0
LINE
8
TOP
10
7.650000
20
1.563214
30
0.0
11
7.762500
21
1.563346
31
0.0
0
LINE
8
TOP
10
7.762500
20
1.563346
30
0.0
11
7.875000
21
1.563478
31
0.0
0
LINE
8
TOP
10
7.875000
20
1.563478
30
0.0
11
7.987500
21
1.563610
31
0.0
0
LINE
8
TOP
10
7.987500
20
1.563610
30
0.0
11
8.100000
21
1.563742
31
0.0
0
LINE
8
TOP
10
8.100000
20
1.563742
30
0.0
11
8.212500
21
1.563874
31
0.0
0
LINE
8
TOP
10
8.212500
20
1.563874
30
0.0
11
8.325000
21
1.564006
31
0.0
0
LINE
8
TOP
10
8.325000
20
1.564006
30
0.0
11
8.437500
21
1.564138
31
0.0
0
LINE
8
TOP
10
8.437500
20
1.564138
30
0.0
11
8.500000
21
1.564211
31
0.0
0
LINE
8
TOP
10
8.500000
20
1.564211
30
0.0
11
8.550000
21
1.564270
31
0.0
0
LINE
8
TOP
10
8.550000
20
1.564270
30
0.0
11
8.662500
21
1.564402
31
0.0
0
LINE
8
TOP
10
8.662500
20
1.564402
30
0.0
11
8.775000
21
1.564534
31
0.0
0
LINE
8
TOP
10
8.775000
20
1.564534
30
0.0
11
8.887500
21
1.564666
31
0.0
0
LINE
8
TOP
10
8.887500
20
1.564666
30
0.0
11
9.000000
21
1.564798
31
0.0
0
LINE
8
TOP
10
0.000000
20
1.957047
30
0.0
11
0.000000
21
1.526319
31
0.0
0
LINE
8
TOP
10
9.000000
20
1.918568
30
0.0
11
9.000000
21
1.564798
31
0.0
0
LINE
8
SECTION
10
10.317835
20
-0.297316
30
0.0
11
10.682165
21
-0.297316
31
0.0
0
LINE
8
SECTION
10
10.682165
20
-0.297316
30
0.0
11
10.682165
21
0.297316
31
0.0
0
LINE
8
SECTION
10
10.682165
20
0.297316
30
0.0
11
10.317835
21
0.297316
31
0.0
0
LINE
8
SECTION
10
10.317835
20
0.297316
30
0.0
11
10.317835
21
-0.297316
31
0.0
0
LINE
8
SECTION
10
10.381883
20
-0.233268
30
0.0
11
10.618117
21
-0.233268
31
0.0
0
LINE
8
SECTION
10
10.618117
20
-0.233268
30
0.0
11
10.618117
21
0.233268
31
0.0
0
LINE
8
SECTION
10
10.618117
20
0.233268
30
0.0
11
10.381883
21
0.233268
31
0.0
0
LINE
8
SECTION
10
10.381883
20
0.233268
30
0.0
11
10.381883
21
-0.233268
31
0.0
0
LINE
8
SECTION
10
10.381883
20
0.000000
30
0.0
11
10.445931
21
0.000000
31
0.0
0
LINE
8
SECTION
10
10.445931
20
0.000000
30
0.0
11
10.445931
21
0.233268
31
0.0
0
LINE
8
SECTION
10
10.445931
20
0.233268
30
0.0
11
10.381883
21
0.233268
31
0.0
0
LINE
8
SECTION
10
10.381883
20
0.233268
30
0.0
11
10.381883
21
0.000000
31
0.0
0
LINE
8
SECTION
10
10.381883
20
-0.233268
30
0.0
11
10.445931
21
-0.233268
31
0.0
0
LINE
8
SECTION
10
10.445931
20
-0.233268
30
0.0
11
10.445931
21
0.000000
31
0.0
0
LINE
8
SECTION
10
10.445931
20
0.000000
30
0.0
11
10.381883
21
0.000000
31
0.0
0
LINE
8
SECTION
10
10.381883
20
0.000000
30
0.0
11
10.381883
21
-0.233268
31
0.0
0
LINE
8
SECTION
10
10.554069
20
0.000000
30
0.0
11
10.618117
21
0.000000
31
0.0
0
LINE
8
SECTION
10
10.618117
20
0.000000
30
0.0
11
10.618117
21
0.233268
31
0.0
0
LINE
8
SECTION
10
10.618117
20
0.233268
30
0.0
11
10.554069
21
0.233268
31
0.0
0
LINE
8
SECTION
10
10.554069
20
0.233268
30
0.0
11
10.554069
21
0.000000
31
0.0
0
LINE
8
SECTION
10
10.554069
20
-0.233268
30
0.0
11
10.618117
21
-0.233268
31
0.0
0
LINE
8
SECTION
10
10.618117
20
-0.233268
30
0.0
11
10.618117
21
0.000000
31
0.0
0
LINE
8
SECTION
10
10.618117
20
0.000000
30
0.0
11
10.554069
21
0.000000
31
0.0
0
LINE
8
SECTION
10
10.554069
20
0.000000
30
0.0
11
10.554069
21
-0.233268
31
0.0
0
ENDSEC
0
EOF
