0
SECTION
2
HEADER
9
$INSUNITS
70
1
0
ENDSEC
0
SECTION
2
ENTITIES
0
LINE
8
FRONT
10
0.000000
20
0.166457
30
0.0
11
0.112500
21
0.167151
31
0.0
0
LINE
8
FRONT
10
0.112500
20
0.167151
30
0.0
11
0.225000
21
0.167845
31
0.0
0
LINE
8
FRONT
10
0.225000
20
0.167845
30
0.0
11
0.337500
21
0.168539
31
0.0
0
LINE
8
FRONT
10
0.337500
20
0.168539
30
0.0
11
0.450000
21
0.169233
31
0.0
0
LINE
8
FRONT
10
0.450000
20
0.169233
30
0.0
11
0.500000
21
0.169542
31
0.0
0
LINE
8
FRONT
10
0.500000
20
0.169542
30
0.0
11
0.562500
21
0.169928
31
0.0
0
LINE
8
FRONT
10
0.562500
20
0.169928
30
0.0
11
0.675000
21
0.170622
31
0.0
0
LINE
8
FRONT
10
0.675000
20
0.170622
30
0.0
11
0.787500
21
0.171316
31
0.0
0
LINE
8
FRONT
10
0.787500
20
0.171316
30
0.0
11
0.900000
21
0.172010
31
0.0
0
LINE
8
FRONT
10
0.900000
20
0.172010
30
0.0
11
1.012500
21
0.172704
31
0.0
0
LINE
8
FRONT
10
1.012500
20
0.172704
30
0.0
11
1.125000
21
0.173398
31
0.0
0
LINE
8
FRONT
10
1.125000
20
0.173398
30
0.0
11
1.237500
21
0.174092
31
0.0
0
LINE
8
FRONT
10
1.237500
20
0.174092
30
0.0
11
1.350000
21
0.174786
31
0.0
0
LINE
8
FRONT
10
1.350000
20
0.174786
30
0.0
11
1.462500
21
0.175480
31
0.0
0
LINE
8
FRONT
10
1.462500
20
0.175480
30
0.0
11
1.575000
21
0.176174
31
0.0
0
LINE
8
FRONT
10
1.575000
20
0.176174
30
0.0
11
1.687500
21
0.176868
31
0.0
0
LINE
8
FRONT
10
1.687500
20
0.176868
30
0.0
11
1.800000
21
0.177562
31
0.0
0
LINE
8
FRONT
10
1.800000
20
0.177562
30
0.0
11
1.912500
21
0.178257
31
0.0
0
LINE
8
FRONT
10
1.912500
20
0.178257
30
0.0
11
2.025000
21
0.178951
31
0.0
0
LINE
8
FRONT
10
2.025000
20
0.178951
30
0.0
11
2.137500
21
0.179645
31
0.0
0
LINE
8
FRONT
10
2.137500
20
0.179645
30
0.0
11
2.250000
21
0.180339
31
0.0
0
LINE
8
FRONT
10
2.250000
20
0.180339
30
0.0
11
2.362500
21
0.181033
31
0.0
0
LINE
8
FRONT
10
2.362500
20
0.181033
30
0.0
11
2.475000
21
0.181727
31
0.0
0
LINE
8
FRONT
10
2.475000
20
0.181727
30
0.0
11
2.587500
21
0.182421
31
0.0
0
LINE
8
FRONT
10
2.587500
20
0.182421
30
0.0
11
2.700000
21
0.183115
31
0.0
0
LINE
8
FRONT
10
2.700000
20
0.183115
30
0.0
11
2.812500
21
0.183809
31
0.0
0
LINE
8
FRONT
10
2.812500
20
0.183809
30
0.0
11
2.925000
21
0.184503
31
0.0
0
LINE
8
FRONT
10
2.925000
20
0.184503
30
0.0
11
3.037500
21
0.185197
31
0.0
0
LINE
8
FRONT
10
3.037500
20
0.185197
30
0.0
11
3.150000
21
0.185892
31
0.0
0
LINE
8
FRONT
10
3.150000
20
0.185892
30
0.0
11
3.262500
21
0.186586
31
0.0
0
LINE
8
FRONT
10
3.262500
20
0.186586
30
0.0
11
3.375000
21
0.187280
31
0.0
0
LINE
8
FRONT
10
3.375000
20
0.187280
30
0.0
11
3.487500
21
0.187974
31
0.0
0
LINE
8
FRONT
10
3.487500
20
0.187974
30
0.0
11
3.600000
21
0.188668
31
0.0
0
LINE
8
FRONT
10
3.600000
20
0.188668
30
0.0
11
3.712500
21
0.189362
31
0.0
0
LINE
8
FRONT
10
3.712500
20
0.189362
30
0.0
11
3.825000
21
0.190056
31
0.0
0
LINE
8
FRONT
10
3.825000
20
0.190056
30
0.0
11
3.937500
21
0.190750
31
0.0
0
LINE
8
FRONT
10
3.937500
20
0.190750
30
0.0
11
4.050000
21
0.191444
31
0.0
0
LINE
8
FRONT
10
4.050000
20
0.191444
30
0.0
11
4.162500
21
0.192138
31
0.0
0
LINE
8
FRONT
10
4.162500
20
0.192138
30
0.0
11
4.275000
21
0.192832
31
0.0
0
LINE
8
FRONT
10
4.275000
20
0.192832
30
0.0
11
4.387500
21
0.193526
31
0.0
0
LINE
8
FRONT
10
4.387500
20
0.193526
30
0.0
11
4.500000
21
0.194221
31
0.0
0
LINE
8
FRONT
10
4.500000
20
0.194221
30
0.0
11
4.612500
21
0.193526
31
0.0
0
LINE
8
FRONT
10
4.612500
20
0.193526
30
0.0
11
4.725000
21
0.192832
31
0.0
0
LINE
8
FRONT
10
4.725000
20
0.192832
30
0.0
11
4.837500
21
0.192138
31
0.0
0
LINE
8
FRONT
10
4.837500
20
0.192138
30
0.0
11
4.950000
21
0.191444
31
0.0
0
LINE
8
FRONT
10
4.950000
20
0.191444
30
0.0
11
5.062500
21
0.190750
31
0.0
0
LINE
8
FRONT
10
5.062500
20
0.190750
30
0.0
11
5.175000
21
0.190056
31
0.0
0
LINE
8
FRONT
10
5.175000
20
0.190056
30
0.0
11
5.287500
21
0.189362
31
0.0
0
LINE
8
FRONT
10
5.287500
20
0.189362
30
0.0
11
5.400000
21
0.188668
31
0.0
0
LINE
8
FRONT
10
5.400000
20
0.188668
30
0.0
11
5.512500
21
0.187974
31
0.0
0
LINE
8
FRONT
10
5.512500
20
0.187974
30
0.0
11
5.625000
21
0.187280
31
0.0
0
LINE
8
FRONT
10
5.625000
20
0.187280
30
0.0
11
5.737500
21
0.186586
31
0.0
0
LINE
8
FRONT
10
5.737500
20
0.186586
30
0.0
11
5.850000
21
0.185892
31
0.0
0
LINE
8
FRONT
10
5.850000
20
0.185892
30
0.0
11
5.962500
21
0.185197
31
0.0
0
LINE
8
FRONT
10
5.962500
20
0.185197
30
0.0
11
6.075000
21
0.184503
31
0.0
0
LINE
8
FRONT
10
6.075000
20
0.184503
30
0.0
11
6.187500
21
0.183809
31
0.0
0
LINE
8
FRONT
10
6.187500
20
0.183809
30
0.0
11
6.300000
21
0.183115
31
0.0
0
LINE
8
FRONT
10
6.300000
20
0.183115
30
0.0
11
6.412500
21
0.182421
31
0.0
0
LINE
8
FRONT
10
6.412500
20
0.182421
30
0.0
11
6.525000
21
0.181727
31
0.0
0
LINE
8
FRONT
10
6.525000
20
0.181727
30
0.0
11
6.637500
21
0.181033
31
0.0
0
LINE
8
FRONT
10
6.637500
20
0.181033
30
0.0
11
6.750000
21
0.180339
31
0.0
0
LINE
8
FRONT
10
6.750000
20
0.180339
30
0.0
11
6.862500
21
0.179645
31
0.0
0
LINE
8
FRONT
10
6.862500
20
0.179645
30
0.0
11
6.975000
21
0.178951
31
0.0
0
LINE
8
FRONT
10
6.975000
20
0.178951
30
0.0
11
7.087500
21
0.178257
31
0.0
0
LINE
8
FRONT
10
7.087500
20
0.178257
30
0.0
11
7.200000
21
0.177562
31
0.0
0
LINE
8
FRONT
10
7.200000
20
0.177562
30
0.0
11
7.312500
21
0.176868
31
0.0
0
LINE
8
FRONT
10
7.312500
20
0.176868
30
0.0
11
7.425000
21
0.176174
31
0.0
0
LINE
8
FRONT
10
7.425000
20
0.176174
30
0.0
11
7.537500
21
0.175480
31
0.0
0
LINE
8
FRONT
10
7.537500
20
0.175480
30
0.0
11
7.650000
21
0.174786
31
0.0
0
LINE
8
FRONT
10
7.650000
20
0.174786
30
0.0
11
7.762500
21
0.174092
31
0.0
0
LINE
8
FRONT
10
7.762500
20
0.174092
30
0.0
11
7.875000
21
0.173398
31
0.0
0
LINE
8
FRONT
10
7.875000
20
0.173398
30
0.0
11
7.987500
21
0.172704
31
0.0
0
LINE
8
FRONT
10
7.987500
20
0.172704
30
0.0
11
8.100000
21
0.172010
31
0.0
0
LINE
8
FRONT
10
8.100000
20
0.172010
30
0.0
11
8.212500
21
0.171316
31
0.0
0
LINE
8
FRONT
10
8.212500
20
0.171316
30
0.0
11
8.325000
21
0.170622
31
0.0
0
LINE
8
FRONT
10
8.325000
20
0.170622
30
0.0
11
8.437500
21
0.169928
31
0.0
0
LINE
8
FRONT
10
8.437500
20
0.169928
30
0.0
11
8.500000
21
0.169542
31
0.0
0
LINE
8
FRONT
10
8.500000
20
0.169542
30
0.0
11
8.550000
21
0.169233
31
0.0
0
LINE
8
FRONT
10
8.550000
20
0.169233
30
0.0
11
8.662500
21
0.168539
31
0.0
0
LINE
8
FRONT
10
8.662500
20
0.168539
30
0.0
11
8.775000
21
0.167845
31
0.0
0
LINE
8
FRONT
10
8.775000
20
0.167845
30
0.0
11
8.887500
21
0.167151
31
0.0
0
LINE
8
FRONT
10
8.887500
20
0.167151
30
0.0
11
9.000000
21
0.166457
31
0.0
0
LINE
8
FRONT
10
0.000000
20
-0.166457
30
0.0
11
0.112500
21
-0.167151
31
0.0
0
LINE
8
FRONT
10
0.112500
20
-0.167151
30
0.0
11
0.225000
21
-0.167845
31
0.0
0
LINE
8
FRONT
10
0.225000
20
-0.167845
30
0.0
11
0.337500
21
-0.168539
31
0.0
0
LINE
8
FRONT
10
0.337500
20
-0.168539
30
0.0
11
0.450000
21
-0.169233
31
0.0
0
LINE
8
FRONT
10
0.450000
20
-0.169233
30
0.0
11
0.500000
21
-0.169542
31
0.0
0
LINE
8
FRONT
10
0.500000
20
-0.169542
30
0.0
11
0.562500
21
-0.169928
31
0.0
0
LINE
8
FRONT
10
0.562500
20
-0.169928
30
0.0
11
0.675000
21
-0.170622
31
0.0
0
LINE
8
FRONT
10
0.675000
20
-0.170622
30
0.0
11
0.787500
21
-0.171316
31
0.0
0
LINE
8
FRONT
10
0.787500
20
-0.171316
30
0.0
11
0.900000
21
-0.172010
31
0.0
0
LINE
8
FRONT
10
0.900000
20
-0.172010
30
0.0
11
1.012500
21
-0.172704
31
0.0
0
LINE
8
FRONT
10
1.012500
20
-0.172704
30
0.0
11
1.125000
21
-0.173398
31
0.0
0
LINE
8
FRONT
10
1.125000
20
-0.173398
30
0.0
11
1.237500
21
-0.174092
31
0.0
0
LINE
8
FRONT
10
1.237500
20
-0.174092
30
0.0
11
1.350000
21
-0.174786
31
0.0
0
LINE
8
FRONT
10
1.350000
20
-0.174786
30
0.0
11
1.462500
21
-0.175480
31
0.0
0
LINE
8
FRONT
10
1.462500
20
-0.175480
30
0.0
11
1.575000
21
-0.176174
31
0.0
0
LINE
8
FRONT
10
1.575000
20
-0.176174
30
0.0
11
1.687500
21
-0.176868
31
0.0
0
LINE
8
FRONT
10
1.687500
20
-0.176868
30
0.0
11
1.800000
21
-0.177562
31
0.0
0
LINE
8
FRONT
10
1.800000
20
-0.177562
30
0.0
11
1.912500
21
-0.178257
31
0.0
0
LINE
8
FRONT
10
1.912500
20
-0.178257
30
0.0
11
2.025000
21
-0.178951
31
0.0
0
LINE
8
FRONT
10
2.025000
20
-0.178951
30
0.0
11
2.137500
21
-0.179645
31
0.0
0
LINE
8
FRONT
10
2.137500
20
-0.179645
30
0.0
11
2.250000
21
-0.180339
31
0.0
0
LINE
8
FRONT
10
2.250000
20
-0.180339
30
0.0
11
2.362500
21
-0.181033
31
0.0
0
LINE
8
FRONT
10
2.362500
20
-0.181033
30
0.0
11
2.475000
21
-0.181727
31
0.0
0
LINE
8
FRONT
10
2.475000
20
-0.181727
30
0.0
11
2.587500
21
-0.182421
31
0.0
0
LINE
8
FRONT
10
2.587500
20
-0.182421
30
0.0
11
2.700000
21
-0.183115
31
0.0
0
LINE
8
FRONT
10
2.700000
20
-0.183115
30
0.0
11
2.812500
21
-0.183809
31
0.0
0
LINE
8
FRONT
10
2.812500
20
-0.183809
30
0.0
11
2.925000
21
-0.184503
31
0.0
0
LINE
8
FRONT
10
2.925000
20
-0.184503
30
0.0
11
3.037500
21
-0.185197
31
0.0
0
LINE
8
FRONT
10
3.037500
20
-0.185197
30
0.0
11
3.150000
21
-0.185892
31
0.0
0
LINE
8
FRONT
10
3.150000
20
-0.185892
30
0.0
11
3.262500
21
-0.186586
31
0.0
0
LINE
8
FRONT
10
3.262500
20
-0.186586
30
0.0
11
3.375000
21
-0.187280
31
0.0
0
LINE
8
FRONT
10
3.375000
20
-0.187280
30
0.0
11
3.487500
21
-0.187974
31
0.0
0
LINE
8
FRONT
10
3.487500
20
-0.187974
30
0.0
11
3.600000
21
-0.188668
31
0.0
0
LINE
8
FRONT
10
3.600000
20
-0.188668
30
0.0
11
3.712500
21
-0.189362
31
0.0
0
LINE
8
FRONT
10
3.712500
20
-0.189362
30
0.0
11
3.825000
21
-0.190056
31
0.0
0
LINE
8
FRONT
10
3.825000
20
-0.190056
30
0.0
11
3.937500
21
-0.190750
31
0.0
0
LINE
8
FRONT
10
3.937500
20
-0.190750
30
0.0
11
4.050000
21
-0.191444
31
0.0
0
LINE
8
FRONT
10
4.050000
20
-0.191444
30
0.0
11
4.162500
21
-0.192138
31
0.0
0
LINE
8
FRONT
10
4.162500
20
-0.192138
30
0.0
11
4.275000
21
-0.192832
31
0.0
0
LINE
8
FRONT
10
4.275000
20
-0.192832
30
0.0
11
4.387500
21
-0.193526
31
0.0
0
LINE
8
FRONT
10
4.387500
20
-0.193526
30
0.0
11
4.500000
21
-0.194221
31
0.0
0
LINE
8
FRONT
10
4.500000
20
-0.194221
30
0.0
11
4.612500
21
-0.193526
31
0.0
0
LINE
8
FRONT
10
4.612500
20
-0.193526
30
0.0
11
4.725000
21
-0.192832
31
0.0
0
LINE
8
FRONT
10
4.725000
20
-0.192832
30
0.0
11
4.837500
21
-0.192138
31
0.0
0
LINE
8
FRONT
10
4.837500
20
-0.192138
30
0.0
11
4.950000
21
-0.191444
31
0.0
0
LINE
8
FRONT
10
4.950000
20
-0.191444
30
0.0
11
5.062500
21
-0.190750
31
0.0
0
LINE
8
FRONT
10
5.062500
20
-0.190750
30
0.0
11
5.175000
21
-0.190056
31
0.0
0
LINE
8
FRONT
10
5.175000
20
-0.190056
30
0.0
11
5.287500
21
-0.189362
31
0.0
0
LINE
8
FRONT
10
5.287500
20
-0.189362
30
0.0
11
5.400000
21
-0.188668
31
0.0
0
LINE
8
FRONT
10
5.400000
20
-0.188668
30
0.0
11
5.512500
21
-0.187974
31
0.0
0
LINE
8
FRONT
10
5.512500
20
-0.187974
30
0.0
11
5.625000
21
-0.187280
31
0.0
0
LINE
8
FRONT
10
5.625000
20
-0.187280
30
0.0
11
5.737500
21
-0.186586
31
0.0
0
LINE
8
FRONT
10
5.737500
20
-0.186586
30
0.0
11
5.850000
21
-0.185892
31
0.0
0
LINE
8
FRONT
10
5.850000
20
-0.185892
30
0.0
11
5.962500
21
-0.185197
31
0.0
0
LINE
8
FRONT
10
5.962500
20
-0.185197
30
0.0
11
6.075000
21
-0.184503
31
0.0
0
LINE
8
FRONT
10
6.075000
20
-0.184503
30
0.0
11
6.187500
21
-0.183809
31
0.0
0
LINE
8
FRONT
10
6.187500
20
-0.183809
30
0.0
11
6.300000
21
-0.183115
31
0.0
0
LINE
8
FRONT
10
6.300000
20
-0.183115
30
0.0
11
6.412500
21
-0.182421
31
0.0
0
LINE
8
FRONT
10
6.412500
20
-0.182421
30
0.0
11
6.525000
21
-0.181727
31
0.0
0
LINE
8
FRONT
10
6.525000
20
-0.181727
30
0.0
11
6.637500
21
-0.181033
31
0.0
0
LINE
8
FRONT
10
6.637500
20
-0.181033
30
0.0
11
6.750000
21
-0.180339
31
0.0
0
LINE
8
FRONT
10
6.750000
20
-0.180339
30
0.0
11
6.862500
21
-0.179645
31
0.0
0
LINE
8
FRONT
10
6.862500
20
-0.179645
30
0.0
11
6.975000
21
-0.178951
31
0.0
0
LINE
8
FRONT
10
6.975000
20
-0.178951
30
0.0
11
7.087500
21
-0.178257
31
0.0
0
LINE
8
FRONT
10
7.087500
20
-0.178257
30
0.0
11
7.200000
21
-0.177562
31
0.0
0
LINE
8
FRONT
10
7.200000
20
-0.177562
30
0.0
11
7.312500
21
-0.176868
31
0.0
0
LINE
8
FRONT
10
7.312500
20
-0.176868
30
0.0
11
7.425000
21
-0.176174
31
0.0
0
LINE
8
FRONT
10
7.425000
20
-0.176174
30
0.0
11
7.537500
21
-0.175480
31
0.0
0
LINE
8
FRONT
10
7.537500
20
-0.175480
30
0.0
11
7.650000
21
-0.174786
31
0.0
0
LINE
8
FRONT
10
7.650000
20
-0.174786
30
0.0
11
7.762500
21
-0.174092
31
0.0
0
LINE
8
FRONT
10
7.762500
20
-0.174092
30
0.0
11
7.875000
21
-0.173398
31
0.0
0
LINE
8
FRONT
10
7.875000
20
-0.173398
30
0.0
11
7.987500
21
-0.172704
31
0.0
0
LINE
8
FRONT
10
7.987500
20
-0.172704
30
0.0
11
8.100000
21
-0.172010
31
0.0
0
LINE
8
FRONT
10
8.100000
20
-0.172010
30
0.0
11
8.212500
21
-0.171316
31
0.0
0
LINE
8
FRONT
10
8.212500
20
-0.171316
30
0.0
11
8.325000
21
-0.170622
31
0.0
0
LINE
8
FRONT
10
8.325000
20
-0.170622
30
0.0
11
8.437500
21
-0.169928
31
0.0
0
LINE
8
FRONT
10
8.437500
20
-0.169928
30
0.0
11
8.500000
21
-0.169542
31
0.0
0
LINE
8
FRONT
10
8.500000
20
-0.169542
30
0.0
11
8.550000
21
-0.169233
31
0.0
0
LINE
8
FRONT
10
8.550000
20
-0.169233
30
0.0
11
8.662500
21
-0.168539
31
0.0
0
LINE
8
FRONT
10
8.662500
20
-0.168539
30
0.0
11
8.775000
21
-0.167845
31
0.0
0
LINE
8
FRONT
10
8.775000
20
-0.167845
30
0.0
11
8.887500
21
-0.167151
31
0.0
0
LINE
8
FRONT
10
8.887500
20
-0.167151
30
0.0
11
9.000000
21
-0.166457
31
0.0
0
LINE
8
FRONT
10
0.000000
20
0.166457
30
0.0
11
0.000000
21
-0.166457
31
0.0
0
LINE
8
FRONT
10
9.000000
20
0.166457
30
0.0
11
9.000000
21
-0.166457
31
0.0
0
LINE
8
TOP
10
0.000000
20
1.733360
30
0.0
11
0.112500
21
1.733336
31
0.0
0
LINE
8
TOP
10
0.112500
20
1.733336
30
0.0
11
0.225000
21
1.733312
31
0.0
0
LINE
8
TOP
10
0.225000
20
1.733312
30
0.0
11
0.337500
21
1.733287
31
0.0
0
LINE
8
TOP
10
0.337500
20
1.733287
30
0.0
11
0.450000
21
1.733263
31
0.0
0
LINE
8
TOP
10
0.450000
20
1.733263
30
0.0
11
0.500000
21
1.733252
31
0.0
0
LINE
8
TOP
10
0.500000
20
1.733252
30
0.0
11
0.562500
21
1.733239
31
0.0
0
LINE
8
TOP
10
0.562500
20
1.733239
30
0.0
11
0.675000
21
1.733214
31
0.0
0
LINE
8
TOP
10
0.675000
20
1.733214
30
0.0
11
0.787500
21
1.733190
31
0.0
0
LINE
8
TOP
10
0.787500
20
1.733190
30
0.0
11
0.900000
21
1.733166
31
0.0
0
LINE
8
TOP
10
0.900000
20
1.733166
30
0.0
11
1.012500
21
1.733141
31
0.0
0
LINE
8
TOP
10
1.012500
20
1.733141
30
0.0
11
1.125000
21
1.733117
31
0.0
0
LINE
8
TOP
10
1.125000
20
1.733117
30
0.0
11
1.237500
21
1.733093
31
0.0
0
LINE
8
TOP
10
1.237500
20
1.733093
30
0.0
11
1.350000
21
1.733069
31
0.0
0
LINE
8
TOP
10
1.350000
20
1.733069
30
0.0
11
1.462500
21
1.733044
31
0.0
0
LINE
8
TOP
10
1.462500
20
1.733044
30
0.0
11
1.575000
21
1.733020
31
0.0
0
LINE
8
TOP
10
1.575000
20
1.733020
30
0.0
11
1.687500
21
1.732996
31
0.0
0
LINE
8
TOP
10
1.687500
20
1.732996
30
0.0
11
1.800000
21
1.732971
31
0.0
0
LINE
8
TOP
10
1.800000
20
1.732971
30
0.0
11
1.912500
21
1.732947
31
0.0
0
LINE
8
TOP
10
1.912500
20
1.732947
30
0.0
11
2.025000
21
1.732923
31
0.0
0
LINE
8
TOP
10
2.025000
20
1.732923
30
0.0
11
2.137500
21
1.732898
31
0.0
0
LINE
8
TOP
10
2.137500
20
1.732898
30
0.0
11
2.250000
21
1.732874
31
0.0
0
LINE
8
TOP
10
2.250000
20
1.732874
30
0.0
11
2.362500
21
1.732850
31
0.0
0
LINE
8
TOP
10
2.362500
20
1.732850
30
0.0
11
2.475000
21
1.732826
31
0.0
0
LINE
8
TOP
10
2.475000
20
1.732826
30
0.0
11
2.587500
21
1.732801
31
0.0
0
LINE
8
TOP
10
2.587500
20
1.732801
30
0.0
11
2.700000
21
1.732777
31
0.0
0
LINE
8
TOP
10
2.700000
20
1.732777
30
0.0
11
2.812500
21
1.732753
31
0.0
0
LINE
8
TOP
10
2.812500
20
1.732753
30
0.0
11
2.925000
21
1.732728
31
0.0
0
LINE
8
TOP
10
2.925000
20
1.732728
30
0.0
11
3.037500
21
1.732704
31
0.0
0
LINE
8
TOP
10
3.037500
20
1.732704
30
0.0
11
3.150000
21
1.732680
31
0.0
0
LINE
8
TOP
10
3.150000
20
1.732680
30
0.0
11
3.262500
21
1.732655
31
0.0
0
LINE
8
TOP
10
3.262500
20
1.732655
30
0.0
11
3.375000
21
1.732631
31
0.0
0
LINE
8
TOP
10
3.375000
20
1.732631
30
0.0
11
3.487500
21
1.732607
31
0.0
0
LINE
8
TOP
10
3.487500
20
1.732607
30
0.0
11
3.600000
21
1.732582
31
0.0
0
LINE
8
TOP
10
3.600000
20
1.732582
30
0.0
11
3.712500
21
1.732558
31
0.0
0
LINE
8
TOP
10
3.712500
20
1.732558
30
0.0
11
3.825000
21
1.732534
31
0.0
0
LINE
8
TOP
10
3.825000
20
1.732534
30
0.0
11
3.937500
21
1.732510
31
0.0
0
LINE
8
TOP
10
3.937500
20
1.732510
30
0.0
11
4.050000
21
1.732485
31
0.0
0
LINE
8
TOP
10
4.050000
20
1.732485
30
0.0
11
4.162500
21
1.732461
31
0.0
0
LINE
8
TOP
10
4.162500
20
1.732461
30
0.0
11
4.275000
21
1.732437
31
0.0
0
LINE
8
TOP
10
4.275000
20
1.732437
30
0.0
11
4.387500
21
1.732412
31
0.0
0
LINE
8
TOP
10
4.387500
20
1.732412
30
0.0
11
4.500000
21
1.732388
31
0.0
0
LINE
8
TOP
10
4.500000
20
1.732388
30
0.0
11
4.612500
21
1.732412
31
0.0
0
LINE
8
TOP
10
4.612500
20
1.732412
30
0.0
11
4.725000
21
1.732437
31
0.0
0
LINE
8
TOP
10
4.725000
20
1.732437
30
0.0
11
4.837500
21
1.732461
31
0.0
0
LINE
8
TOP
10
4.837500
20
1.732461
30
0.0
11
4.950000
21
1.732485
31
0.0
0
LINE
8
TOP
10
4.950000
20
1.732485
30
0.0
11
5.062500
21
1.732510
31
0.0
0
LINE
8
TOP
10
5.062500
20
1.732510
30
0.0
11
5.175000
21
1.732534
31
0.0
0
LINE
8
TOP
10
5.175000
20
1.732534
30
0.0
11
5.287500
21
1.732558
31
0.0
0
LINE
8
TOP
10
5.287500
20
1.732558
30
0.0
11
5.400000
21
1.732582
31
0.0
0
LINE
8
TOP
10
5.400000
20
1.732582
30
0.0
11
5.512500
21
1.732607
31
0.0
0
LINE
8
TOP
10
5.512500
20
1.732607
30
0.0
11
5.625000
21
1.732631
31
0.0
0
LINE
8
TOP
10
5.625000
20
1.732631
30
0.0
11
5.737500
21
1.732655
31
0.0
0
LINE
8
TOP
10
5.737500
20
1.732655
30
0.0
11
5.850000
21
1.732680
31
0.0
0
LINE
8
TOP
10
5.850000
20
1.732680
30
0.0
11
5.962500
21
1.732704
31
0.0
0
LINE
8
TOP
10
5.962500
20
1.732704
30
0.0
11
6.075000
21
1.732728
31
0.0
0
LINE
8
TOP
10
6.075000
20
1.732728
30
0.0
11
6.187500
21
1.732753
31
0.0
0
LINE
8
TOP
10
6.187500
20
1.732753
30
0.0
11
6.300000
21
1.732777
31
0.0
0
LINE
8
TOP
10
6.300000
20
1.732777
30
0.0
11
6.412500
21
1.732801
31
0.0
0
LINE
8
TOP
10
6.412500
20
1.732801
30
0.0
11
6.525000
21
1.732826
31
0.0
0
LINE
8
TOP
10
6.525000
20
1.732826
30
0.0
11
6.637500
21
1.732850
31
0.0
0
LINE
8
TOP
10
6.637500
20
1.732850
30
0.0
11
6.750000
21
1.732874
31
0.0
0
LINE
8
TOP
10
6.750000
20
1.732874
30
0.0
11
6.862500
21
1.732898
31
0.0
0
LINE
8
TOP
10
6.862500
20
1.732898
30
0.0
11
6.975000
21
1.732923
31
0.0
0
LINE
8
TOP
10
6.975000
20
1.732923
30
0.0
11
7.087500
21
1.732947
31
0.0
0
LINE
8
TOP
10
7.087500
20
1.732947
30
0.0
11
7.200000
21
1.732971
31
0.0
0
LINE
8
TOP
10
7.200000
20
1.732971
30
0.0
11
7.312500
21
1.732996
31
0.0
0
LINE
8
TOP
10
7.312500
20
1.732996
30
0.0
11
7.425000
21
1.733020
31
0.0
0
LINE
8
TOP
10
7.425000
20
1.733020
30
0.0
11
7.537500
21
1.733044
31
0.0
0
LINE
8
TOP
10
7.537500
20
1.733044
30
0.0
11
7.650000
21
1.733069
31
0.0
0
LINE
8
TOP
10
7.650000
20
1.733069
30
0.0
11
7.762500
21
1.733093
31
0.0
0
LINE
8
TOP
10
7.762500
20
1.733093
30
0.0
11
7.875000
21
1.733117
31
0.0
0
LINE
8
TOP
10
7.875000
20
1.733117
30
0.0
11
7.987500
21
1.733141
31
0.0
0
LINE
8
TOP
10
7.987500
20
1.733141
30
0.0
11
8.100000
21
1.733166
31
0.0
0
LINE
8
TOP
10
8.100000
20
1.733166
30
0.0
11
8.212500
21
1.733190
31
0.0
0
LINE
8
TOP
10
8.212500
20
1.733190
30
0.0
11
8.325000
21
1.733214
31
0.0
0
LINE
8
TOP
10
8.325000
20
1.733214
30
0.0
11
8.437500
21
1.733239
31
0.0
0
LINE
8
TOP
10
8.437500
20
1.733239
30
0.0
11
8.500000
21
1.733252
31
0.0
0
LINE
8
TOP
10
8.500000
20
1.733252
30
0.0
11
8.550000
21
1.733263
31
0.0
0
LINE
8
TOP
10
8.550000
20
1.733263
30
0.0
11
8.662500
21
1.733287
31
0.0
0
LINE
8
TOP
10
8.662500
20
1.733287
30
0.0
11
8.775000
21
1.733312
31
0.0
0
LINE
8
TOP
10
8.775000
20
1.733312
30
0.0
11
8.887500
21
1.733336
31
0.0
0
LINE
8
TOP
10
8.887500
20
1.733336
30
0.0
11
9.000000
21
1.733360
31
0.0
0
LINE
8
TOP
10
0.000000
20
1.241680
30
0.0
11
0.112500
21
1.241704
31
0.0
0
LINE
8
TOP
10
0.112500
20
1.241704
30
0.0
11
0.225000
21
1.241729
31
0.0
0
LINE
8
TOP
10
0.225000
20
1.241729
30
0.0
11
0.337500
21
1.241753
31
0.0
0
LINE
8
TOP
10
0.337500
20
1.241753
30
0.0
11
0.450000
21
1.241777
31
0.0
0
LINE
8
TOP
10
0.450000
20
1.241777
30
0.0
11
0.500000
21
1.241788
31
0.0
0
LINE
8
TOP
10
0.500000
20
1.241788
30
0.0
11
0.562500
21
1.241802
31
0.0
0
LINE
8
TOP
10
0.562500
20
1.241802
30
0.0
11
0.675000
21
1.241826
31
0.0
0
LINE
8
TOP
10
0.675000
20
1.241826
30
0.0
11
0.787500
21
1.241850
31
0.0
0
LINE
8
TOP
10
0.787500
20
1.241850
30
0.0
11
0.900000
21
1.241875
31
0.0
0
LINE
8
TOP
10
0.900000
20
1.241875
30
0.0
11
1.012500
21
1.241899
31
0.0
0
LINE
8
TOP
10
1.012500
20
1.241899
30
0.0
11
1.125000
21
1.241923
31
0.0
0
LINE
8
TOP
10
1.125000
20
1.241923
30
0.0
11
1.237500
21
1.241947
31
0.0
0
LINE
8
TOP
10
1.237500
20
1.241947
30
0.0
11
1.350000
21
1.241972
31
0.0
0
LINE
8
TOP
10
1.350000
20
1.241972
30
0.0
11
1.462500
21
1.241996
31
0.0
0
LINE
8
TOP
10
1.462500
20
1.241996
30
0.0
11
1.575000
21
1.242020
31
0.0
0
LINE
8
TOP
10
1.575000
20
1.242020
30
0.0
11
1.687500
21
1.242045
31
0.0
0
LINE
8
TOP
10
1.687500
20
1.242045
30
0.0
11
1.800000
21
1.242069
31
0.0
0
LINE
8
TOP
10
1.800000
20
1.242069
30
0.0
11
1.912500
21
1.242093
31
0.0
0
LINE
8
TOP
10
1.912500
20
1.242093
30
0.0
11
2.025000
21
1.242118
31
0.0
0
LINE
8
TOP
10
2.025000
20
1.242118
30
0.0
11
2.137500
21
1.242142
31
0.0
0
LINE
8
TOP
10
2.137500
20
1.242142
30
0.0
11
2.250000
21
1.242166
31
0.0
0
LINE
8
TOP
10
2.250000
20
1.242166
30
0.0
11
2.362500
21
1.242190
31
0.0
0
LINE
8
TOP
10
2.362500
20
1.242190
30
0.0
11
2.475000
21
1.242215
31
0.0
0
LINE
8
TOP
10
2.475000
20
1.242215
30
0.0
11
2.587500
21
1.242239
31
0.0
0
LINE
8
TOP
10
2.587500
20
1.242239
30
0.0
11
2.700000
21
1.242263
31
0.0
0
LINE
8
TOP
10
2.700000
20
1.242263
30
0.0
11
2.812500
21
1.242288
31
0.0
0
LINE
8
TOP
10
2.812500
20
1.242288
30
0.0
11
2.925000
21
1.242312
31
0.0
0
LINE
8
TOP
10
2.925000
20
1.242312
30
0.0
11
3.037500
21
1.242336
31
0.0
0
LINE
8
TOP
10
3.037500
20
1.242336
30
0.0
11
3.150000
21
1.242361
31
0.0
0
LINE
8
TOP
10
3.150000
20
1.242361
30
0.0
11
3.262500
21
1.242385
31
0.0
0
LINE
8
TOP
10
3.262500
20
1.242385
30
0.0
11
3.375000
21
1.242409
31
0.0
0
LINE
8
TOP
10
3.375000
20
1.242409
30
0.0
11
3.487500
21
1.242434
31
0.0
0
LINE
8
TOP
10
3.487500
20
1.242434
30
0.0
11
3.600000
21
1.242458
31
0.0
0
LINE
8
TOP
10
3.600000
20
1.242458
30
0.0
11
3.712500
21
1.242482
31
0.0
0
LINE
8
TOP
10
3.712500
20
1.242482
30
0.0
11
3.825000
21
1.242506
31
0.0
0
LINE
8
TOP
10
3.825000
20
1.242506
30
0.0
11
3.937500
21
1.242531
31
0.0
0
LINE
8
TOP
10
3.937500
20
1.242531
30
0.0
11
4.050000
21
1.242555
31
0.0
0
LINE
8
TOP
10
4.050000
20
1.242555
30
0.0
11
4.162500
21
1.242579
31
0.0
0
LINE
8
TOP
10
4.162500
20
1.242579
30
0.0
11
4.275000
21
1.242604
31
0.0
0
LINE
8
TOP
10
4.275000
20
1.242604
30
0.0
11
4.387500
21
1.242628
31
0.0
0
LINE
8
TOP
10
4.387500
20
1.242628
30
0.0
11
4.500000
21
1.242652
31
0.0
0
LINE
8
TOP
10
4.500000
20
1.242652
30
0.0
11
4.612500
21
1.242628
31
0.0
0
LINE
8
TOP
10
4.612500
20
1.242628
30
0.0
11
4.725000
21
1.242604
31
0.0
0
LINE
8
TOP
10
4.725000
20
1.242604
30
0.0
11
4.837500
21
1.242579
31
0.0
0
LINE
8
TOP
10
4.837500
20
1.242579
30
0.0
11
4.950000
21
1.242555
31
0.0
0
LINE
8
TOP
10
4.950000
20
1.242555
30
0.0
11
5.062500
21
1.242531
31
0.0
0
LINE
8
TOP
10
5.062500
20
1.242531
30
0.0
11
5.175000
21
1.242506
31
0.0
0
LINE
8
TOP
10
5.175000
20
1.242506
30
0.0
11
5.287500
21
1.242482
31
0.0
0
LINE
8
TOP
10
5.287500
20
1.242482
30
0.0
11
5.400000
21
1.242458
31
0.0
0
LINE
8
TOP
10
5.400000
20
1.242458
30
0.0
11
5.512500
21
1.242434
31
0.0
0
LINE
8
TOP
10
5.512500
20
1.242434
30
0.0
11
5.625000
21
1.242409
31
0.0
0
LINE
8
TOP
10
5.625000
20
1.242409
30
0.0
11
5.737500
21
1.242385
31
0.0
0
LINE
8
TOP
10
5.737500
20
1.242385
30
0.0
11
5.850000
21
1.242361
31
0.0
0
LINE
8
TOP
10
5.850000
20
1.242361
30
0.0
11
5.962500
21
1.242336
31
0.0
0
LINE
8
TOP
10
5.962500
20
1.242336
30
0.0
11
6.075000
21
1.242312
31
0.0
0
LINE
8
TOP
10
6.075000
20
1.242312
30
0.0
11
6.187500
21
1.242288
31
0.0
0
LINE
8
TOP
10
6.187500
20
1.242288
30
0.0
11
6.300000
21
1.242263
31
0.0
0
LINE
8
TOP
10
6.300000
20
1.242263
30
0.0
11
6.412500
21
1.242239
31
0.0
0
LINE
8
TOP
10
6.412500
20
1.242239
30
0.0
11
6.525000
21
1.242215
31
0.0
0
LINE
8
TOP
10
6.525000
20
1.242215
30
0.0
11
6.637500
21
1.242190
31
0.0
0
LINE
8
TOP
10
6.637500
20
1.242190
30
0.0
11
6.750000
21
1.242166
31
0.0
0
LINE
8
TOP
10
6.750000
20
1.242166
30
0.0
11
6.862500
21
1.242142
31
0.0
0
LINE
8
TOP
10
6.862500
20
1.242142
30
0.0
11
6.975000
21
1.242118
31
0.0
0
LINE
8
TOP
10
6.975000
20
1.242118
30
0.0
11
7.087500
21
1.242093
31
0.0
0
LINE
8
TOP
10
7.087500
20
1.242093
30
0.0
11
7.200000
21
1.242069
31
0.0
0
LINE
8
TOP
10
7.200000
20
1.242069
30
0.0
11
7.312500
21
1.242045
31
0.0
0
LINE
8
TOP
10
7.312500
20
1.242045
30
0.0
11
7.425000
21
1.242020
31
0.0
0
LINE
8
TOP
10
7.425000
20
1.242020
30
0.0
11
7.537500
21
1.241996
31
0.0
0
LINE
8
TOP
10
7.537500
20
1.241996
30
0.0
11
7.650000
21
1.241972
31
0.0
0
LINE
8
TOP
10
7.650000
20
1.241972
30
0.0
11
7.762500
21
1.241947
31
0.0
0
LINE
8
TOP
10
7.762500
20
1.241947
30
0.0
11
7.875000
21
1.241923
31
0.0
0
LINE
8
TOP
10
7.875000
20
1.241923
30
0.0
11
7.987500
21
1.241899
31
0.0
0
LINE
8
TOP
10
7.987500
20
1.241899
30
0.0
11
8.100000
21
1.241875
31
0.0
0
LINE
8
TOP
10
8.100000
20
1.241875
30
0.0
11
8.212500
21
1.241850
31
0.0
0
LINE
8
TOP
10
8.212500
20
1.241850
30
0.0
11
8.325000
21
1.241826
31
0.0
0
LINE
8
TOP
10
8.325000
20
1.241826
30
0.0
11
8.437500
21
1.241802
31
0.0
0
LINE
8
TOP
10
8.437500
20
1.241802
30
0.0
11
8.500000
21
1.241788
31
0.0
0
LINE
8
TOP
10
8.500000
20
1.241788
30
0.0
11
8.550000
21
1.241777
31
0.0
0
LINE
8
TOP
10
8.550000
20
1.241777
30
0.0
11
8.662500
21
1.241753
31
0.0
0
LINE
8
TOP
10
8.662500
20
1.241753
30
0.0
11
8.775000
21
1.241729
31
0.0
0
LINE
8
TOP
10
8.775000
20
1.241729
30
0.0
11
8.887500
21
1.241704
31
0.0
0
LINE
8
TOP
10
8.887500
20
1.241704
30
0.0
11
9.000000
21
1.241680
31
0.0
0
LINE
8
TOP
10
0.000000
20
1.733360
30
0.0
11
0.000000
21
1.241680
31
0.0
0
LINE
8
TOP
10
9.000000
20
1.733360
30
0.0
11
9.000000
21
1.241680
31
0.0
0
LINE
8
SECTION
10
10.255132
20
-0.194221
30
0.0
11
10.744868
21
-0.194221
31
0.0
0
LINE
8
SECTION
10
10.744868
20
-0.194221
30
0.0
11
10.744868
21
0.194221
31
0.0
0
LINE
8
SECTION
10
10.744868
20
0.194221
30
0.0
11
10.255132
21
0.194221
31
0.0
0
LINE
8
SECTION
10
10.255132
20
0.194221
30
0.0
11
10.255132
21
-0.194221
31
0.0
0
LINE
8
SECTION
10
10.310642
20
-0.138711
30
0.0
11
10.689358
21
-0.138711
31
0.0
0
LINE
8
SECTION
10
10.689358
20
-0.138711
30
0.0
11
10.689358
21
0.138711
31
0.0
0
LINE
8
SECTION
10
10.689358
20
0.138711
30
0.0
11
10.310642
21
0.138711
31
0.0
0
LINE
8
SECTION
10
10.310642
20
0.138711
30
0.0
11
10.310642
21
-0.138711
31
0.0
0
LINE
8
SECTION
10
10.310642
20
0.000000
30
0.0
11
10.366152
21
0.000000
31
0.0
0
LINE
8
SECTION
10
10.366152
20
0.000000
30
0.0
11
10.366152
21
0.138711
31
0.0
0
LINE
8
SECTION
10
10.366152
20
0.138711
30
0.0
11
10.310642
21
0.138711
31
0.0
0
LINE
8
SECTION
10
10.310642
20
0.138711
30
0.0
11
10.310642
21
0.000000
31
0.0
0
LINE
8
SECTION
10
10.310642
20
-0.138711
30
0.0
11
10.366152
21
-0.138711
31
0.0
0
LINE
8
SECTION
10
10.366152
20
-0.138711
30
0.0
11
10.366152
21
0.000000
31
0.0
0
LINE
8
SECTION
10
10.366152
20
0.000000
30
0.0
11
10.310642
21
0.000000
31
0.0
0
LINE
8
SECTION
10
10.310642
20
0.000000
30
0.0
11
10.310642
21
-0.138711
31
0.0
0
LINE
8
SECTION
10
10.633848
20
0.000000
30
0.0
11
10.689358
21
0.000000
31
0.0
0
LINE
8
SECTION
10
10.689358
20
0.000000
30
0.0
11
10.689358
21
0.138711
31
0.0
0
LINE
8
SECTION
10
10.689358
20
0.138711
30
0.0
11
10.633848
21
0.138711
31
0.0
0
LINE
8
SECTION
10
10.633848
20
0.138711
30
0.0
11
10.633848
21
0.000000
31
0.0
0
LINE
8
SECTION
10
10.633848
20
-0.138711
30
0.0
11
10.689358
21
-0.138711
31
0.0
0
LINE
8
SECTION
10
10.689358
20
-0.138711
30
0.0
11
10.689358
21
0.000000
31
0.0
0
LINE
8
SECTION
10
10.689358
20
0.000000
30
0.0
11
10.633848
21
0.000000
31
0.0
0
LINE
8
SECTION
10
10.633848
20
0.000000
30
0.0
11
10.633848
21
-0.138711
31
0.0
0
ENDSEC
0
EOF
