0
SECTION
2
HEADER
9
$INSUNITS
70
1
0
ENDSEC
0
SECTION
2
ENTITIES
0
LINE
8
FRONT
10
0.000000
20
0.240000
30
0.0
11
0.112500
21
0.243186
31
0.0
0
LINE
8
FRONT
10
0.112500
20
0.243186
30
0.0
11
0.225000
21
0.246373
31
0.0
0
LINE
8
FRONT
10
0.225000
20
0.246373
30
0.0
11
0.337500
21
0.249559
31
0.0
0
LINE
8
FRONT
10
0.337500
20
0.249559
30
0.0
11
0.450000
21
0.252746
31
0.0
0
LINE
8
FRONT
10
0.450000
20
0.252746
30
0.0
11
0.500000
21
0.254162
31
0.0
0
LINE
8
FRONT
10
0.500000
20
0.254162
30
0.0
11
0.562500
21
0.255932
31
0.0
0
LINE
8
FRONT
10
0.562500
20
0.255932
30
0.0
11
0.675000
21
0.259119
31
0.0
0
LINE
8
FRONT
10
0.675000
20
0.259119
30
0.0
11
0.787500
21
0.262305
31
0.0
0
LINE
8
FRONT
10
0.787500
20
0.262305
30
0.0
11
0.900000
21
0.265492
31
0.0
0
LINE
8
FRONT
10
0.900000
20
0.265492
30
0.0
11
1.012500
21
0.268678
31
0.0
0
LINE
8
FRONT
10
1.012500
20
0.268678
30
0.0
11
1.125000
21
0.271865
31
0.0
0
LINE
8
FRONT
10
1.125000
20
0.271865
30
0.0
11
1.237500
21
0.275051
31
0.0
0
LINE
8
FRONT
10
1.237500
20
0.275051
30
0.0
11
1.350000
21
0.278238
31
0.0
0
LINE
8
FRONT
10
1.350000
20
0.278238
30
0.0
11
1.462500
21
0.281424
31
0.0
0
LINE
8
FRONT
10
1.462500
20
0.281424
30
0.0
11
1.575000
21
0.284610
31
0.0
0
LINE
8
FRONT
10
1.575000
20
0.284610
30
0.0
11
1.687500
21
0.287797
31
0.0
0
LINE
8
FRONT
10
1.687500
20
0.287797
30
0.0
11
1.800000
21
0.290983
31
0.0
0
LINE
8
FRONT
10
1.800000
20
0.290983
30
0.0
11
1.912500
21
0.294170
31
0.0
0
LINE
8
FRONT
10
1.912500
20
0.294170
30
0.0
11
2.025000
21
0.297356
31
0.0
0
LINE
8
FRONT
10
2.025000
20
0.297356
30
0.0
11
2.137500
21
0.300543
31
0.0
0
LINE
8
FRONT
10
2.137500
20
0.300543
30
0.0
11
2.250000
21
0.303729
31
0.0
0
LINE
8
FRONT
10
2.250000
20
0.303729
30
0.0
11
2.362500
21
0.306916
31
0.0
0
LINE
8
FRONT
10
2.362500
20
0.306916
30
0.0
11
2.475000
21
0.310102
31
0.0
0
LINE
8
FRONT
10
2.475000
20
0.310102
30
0.0
11
2.587500
21
0.313289
31
0.0
0
LINE
8
FRONT
10
2.587500
20
0.313289
30
0.0
11
2.700000
21
0.316475
31
0.0
0
LINE
8
FRONT
10
2.700000
20
0.316475
30
0.0
11
2.812500
21
0.319662
31
0.0
0
LINE
8
FRONT
10
2.812500
20
0.319662
30
0.0
11
2.925000
21
0.322848
31
0.0
0
LINE
8
FRONT
10
2.925000
20
0.322848
30
0.0
11
3.037500
21
0.326035
31
0.0
0
LINE
8
FRONT
10
3.037500
20
0.326035
30
0.0
11
3.150000
21
0.329221
31
0.0
0
LINE
8
FRONT
10
3.150000
20
0.329221
30
0.0
11
3.262500
21
0.332407
31
0.0
0
LINE
8
FRONT
10
3.262500
20
0.332407
30
0.0
11
3.375000
21
0.335594
31
0.0
0
LINE
8
FRONT
10
3.375000
20
0.335594
30
0.0
11
3.487500
21
0.338780
31
0.0
0
LINE
8
FRONT
10
3.487500
20
0.338780
30
0.0
11
3.600000
21
0.341967
31
0.0
0
LINE
8
FRONT
10
3.600000
20
0.341967
30
0.0
11
3.712500
21
0.345153
31
0.0
0
LINE
8
FRONT
10
3.712500
20
0.345153
30
0.0
11
3.825000
21
0.348340
31
0.0
0
LINE
8
FRONT
10
3.825000
20
0.348340
30
0.0
11
3.937500
21
0.351526
31
0.0
0
LINE
8
FRONT
10
3.937500
20
0.351526
30
0.0
11
4.050000
21
0.354713
31
0.0
0
LINE
8
FRONT
10
4.050000
20
0.354713
30
0.0
11
4.162500
21
0.357899
31
0.0
0
LINE
8
FRONT
10
4.162500
20
0.357899
30
0.0
11
4.275000
21
0.361086
31
0.0
0
LINE
8
FRONT
10
4.275000
20
0.361086
30
0.0
11
4.387500
21
0.364272
31
0.0
0
LINE
8
FRONT
10
4.387500
20
0.364272
30
0.0
11
4.500000
21
0.367459
31
0.0
0
LINE
8
FRONT
10
4.500000
20
0.367459
30
0.0
11
4.612500
21
0.367782
31
0.0
0
LINE
8
FRONT
10
4.612500
20
0.367782
30
0.0
11
4.725000
21
0.368106
31
0.0
0
LINE
8
FRONT
10
4.725000
20
0.368106
30
0.0
11
4.837500
21
0.368430
31
0.0
0
LINE
8
FRONT
10
4.837500
20
0.368430
30
0.0
11
4.950000
21
0.368754
31
0.0
0
LINE
8
FRONT
10
4.950000
20
0.368754
30
0.0
11
5.062500
21
0.369078
31
0.0
0
LINE
8
FRONT
10
5.062500
20
0.369078
30
0.0
11
5.175000
21
0.369402
31
0.0
0
LINE
8
FRONT
10
5.175000
20
0.369402
30
0.0
11
5.287500
21
0.369725
31
0.0
0
LINE
8
FRONT
10
5.287500
20
0.369725
30
0.0
11
5.400000
21
0.370049
31
0.0
0
LINE
8
FRONT
10
5.400000
20
0.370049
30
0.0
11
5.512500
21
0.370373
31
0.0
0
LINE
8
FRONT
10
5.512500
20
0.370373
30
0.0
11
5.625000
21
0.370697
31
0.0
0
LINE
8
FRONT
10
5.625000
20
0.370697
30
0.0
11
5.737500
21
0.371021
31
0.0
0
LINE
8
FRONT
10
5.737500
20
0.371021
30
0.0
11
5.850000
21
0.371345
31
0.0
0
LINE
8
FRONT
10
5.850000
20
0.371345
30
0.0
11
5.962500
21
0.371668
31
0.0
0
LINE
8
FRONT
10
5.962500
20
0.371668
30
0.0
11
6.075000
21
0.371992
31
0.0
0
LINE
8
FRONT
10
6.075000
20
0.371992
30
0.0
11
6.187500
21
0.372316
31
0.0
0
LINE
8
FRONT
10
6.187500
20
0.372316
30
0.0
11
6.300000
21
0.372640
31
0.0
0
LINE
8
FRONT
10
6.300000
20
0.372640
30
0.0
11
6.412500
21
0.372964
31
0.0
0
LINE
8
FRONT
10
6.412500
20
0.372964
30
0.0
11
6.525000
21
0.373287
31
0.0
0
LINE
8
FRONT
10
6.525000
20
0.373287
30
0.0
11
6.637500
21
0.373611
31
0.0
0
LINE
8
FRONT
10
6.637500
20
0.373611
30
0.0
11
6.750000
21
0.373935
31
0.0
0
LINE
8
FRONT
10
6.750000
20
0.373935
30
0.0
11
6.862500
21
0.374259
31
0.0
0
LINE
8
FRONT
10
6.862500
20
0.374259
30
0.0
11
6.975000
21
0.374583
31
0.0
0
LINE
8
FRONT
10
6.975000
20
0.374583
30
0.0
11
7.087500
21
0.374907
31
0.0
0
LINE
8
FRONT
10
7.087500
20
0.374907
30
0.0
11
7.200000
21
0.375230
31
0.0
0
LINE
8
FRONT
10
7.200000
20
0.375230
30
0.0
11
7.312500
21
0.375554
31
0.0
0
LINE
8
FRONT
10
7.312500
20
0.375554
30
0.0
11
7.425000
21
0.375878
31
0.0
0
LINE
8
FRONT
10
7.425000
20
0.375878
30
0.0
11
7.537500
21
0.376202
31
0.0
0
LINE
8
FRONT
10
7.537500
20
0.376202
30
0.0
11
7.650000
21
0.376526
31
0.0
0
LINE
8
FRONT
10
7.650000
20
0.376526
30
0.0
11
7.762500
21
0.376850
31
0.0
0
LINE
8
FRONT
10
7.762500
20
0.376850
30
0.0
11
7.875000
21
0.377173
31
0.0
0
LINE
8
FRONT
10
7.875000
20
0.377173
30
0.0
11
7.987500
21
0.377497
31
0.0
0
LINE
8
FRONT
10
7.987500
20
0.377497
30
0.0
11
8.100000
21
0.377821
31
0.0
0
LINE
8
FRONT
10
8.100000
20
0.377821
30
0.0
11
8.212500
21
0.378145
31
0.0
0
LINE
8
FRONT
10
8.212500
20
0.378145
30
0.0
11
8.325000
21
0.378469
31
0.0
0
LINE
8
FRONT
10
8.325000
20
0.378469
30
0.0
11
8.437500
21
0.378793
31
0.0
0
LINE
8
FRONT
10
8.437500
20
0.378793
30
0.0
11
8.500000
21
0.378973
31
0.0
0
LINE
8
FRONT
10
8.500000
20
0.378973
30
0.0
11
8.550000
21
0.379116
31
0.0
0
LINE
8
FRONT
10
8.550000
20
0.379116
30
0.0
11
8.662500
21
0.379440
31
0.0
0
LINE
8
FRONT
10
8.662500
20
0.379440
30
0.0
11
8.775000
21
0.379764
31
0.0
0
LINE
8
FRONT
10
8.775000
20
0.379764
30
0.0
11
8.887500
21
0.380088
31
0.0
0
LINE
8
FRONT
10
8.887500
20
0.380088
30
0.0
11
9.000000
21
0.380412
31
0.0
0
LINE
8
FRONT
10
0.000000
20
-0.240000
30
0.0
11
0.112500
21
-0.243186
31
0.0
0
LINE
8
FRONT
10
0.112500
20
-0.243186
30
0.0
11
0.225000
21
-0.246373
31
0.0
0
LINE
8
FRONT
10
0.225000
20
-0.246373
30
0.0
11
0.337500
21
-0.249559
31
0.0
0
LINE
8
FRONT
10
0.337500
20
-0.249559
30
0.0
11
0.450000
21
-0.252746
31
0.0
0
LINE
8
FRONT
10
0.450000
20
-0.252746
30
0.0
11
0.500000
21
-0.254162
31
0.0
0
LINE
8
FRONT
10
0.500000
20
-0.254162
30
0.0
11
0.562500
21
-0.255932
31
0.0
0
LINE
8
FRONT
10
0.562500
20
-0.255932
30
0.0
11
0.675000
21
-0.259119
31
0.0
0
LINE
8
FRONT
10
0.675000
20
-0.259119
30
0.0
11
0.787500
21
-0.262305
31
0.0
0
LINE
8
FRONT
10
0.787500
20
-0.262305
30
0.0
11
0.900000
21
-0.265492
31
0.0
0
LINE
8
FRONT
10
0.900000
20
-0.265492
30
0.0
11
1.012500
21
-0.268678
31
0.0
0
LINE
8
FRONT
10
1.012500
20
-0.268678
30
0.0
11
1.125000
21
-0.271865
31
0.0
0
LINE
8
FRONT
10
1.125000
20
-0.271865
30
0.0
11
1.237500
21
-0.275051
31
0.0
0
LINE
8
FRONT
10
1.237500
20
-0.275051
30
0.0
11
1.350000
21
-0.278238
31
0.0
0
LINE
8
FRONT
10
1.350000
20
-0.278238
30
0.0
11
1.462500
21
-0.281424
31
0.0
0
LINE
8
FRONT
10
1.462500
20
-0.281424
30
0.0
11
1.575000
21
-0.284610
31
0.0
0
LINE
8
FRONT
10
1.575000
20
-0.284610
30
0.0
11
1.687500
21
-0.287797
31
0.0
0
LINE
8
FRONT
10
1.687500
20
-0.287797
30
0.0
11
1.800000
21
-0.290983
31
0.0
0
LINE
8
FRONT
10
1.800000
20
-0.290983
30
0.0
11
1.912500
21
-0.294170
31
0.0
0
LINE
8
FRONT
10
1.912500
20
-0.294170
30
0.0
11
2.025000
21
-0.297356
31
0.0
0
LINE
8
FRONT
10
2.025000
20
-0.297356
30
0.0
11
2.137500
21
-0.300543
31
0.0
0
LINE
8
FRONT
10
2.137500
20
-0.300543
30
0.0
11
2.250000
21
-0.303729
31
0.0
0
LINE
8
FRONT
10
2.250000
20
-0.303729
30
0.0
11
2.362500
21
-0.306916
31
0.0
0
LINE
8
FRONT
10
2.362500
20
-0.306916
30
0.0
11
2.475000
21
-0.310102
31
0.0
0
LINE
8
FRONT
10
2.475000
20
-0.310102
30
0.0
11
2.587500
21
-0.313289
31
0.0
0
LINE
8
FRONT
10
2.587500
20
-0.313289
30
0.0
11
2.700000
21
-0.316475
31
0.0
0
LINE
8
FRONT
10
2.700000
20
-0.316475
30
0.0
11
2.812500
21
-0.319662
31
0.0
0
LINE
8
FRONT
10
2.812500
20
-0.319662
30
0.0
11
2.925000
21
-0.322848
31
0.0
0
LINE
8
FRONT
10
2.925000
20
-0.322848
30
0.0
11
3.037500
21
-0.326035
31
0.0
0
LINE
8
FRONT
10
3.037500
20
-0.326035
30
0.0
11
3.150000
21
-0.329221
31
0.0
0
LINE
8
FRONT
10
3.150000
20
-0.329221
30
0.0
11
3.262500
21
-0.332407
31
0.0
0
LINE
8
FRONT
10
3.262500
20
-0.332407
30
0.0
11
3.375000
21
-0.335594
31
0.0
0
LINE
8
FRONT
10
3.375000
20
-0.335594
30
0.0
11
3.487500
21
-0.338780
31
0.0
0
LINE
8
FRONT
10
3.487500
20
-0.338780
30
0.0
11
3.600000
21
-0.341967
31
0.0
0
LINE
8
FRONT
10
3.600000
20
-0.341967
30
0.0
11
3.712500
21
-0.345153
31
0.0
0
LINE
8
FRONT
10
3.712500
20
-0.345153
30
0.0
11
3.825000
21
-0.348340
31
0.0
0
LINE
8
FRONT
10
3.825000
20
-0.348340
30
0.0
11
3.937500
21
-0.351526
31
0.0
0
LINE
8
FRONT
10
3.937500
20
-0.351526
30
0.0
11
4.050000
21
-0.354713
31
0.0
0
LINE
8
FRONT
10
4.050000
20
-0.354713
30
0.0
11
4.162500
21
-0.357899
31
0.0
0
LINE
8
FRONT
10
4.162500
20
-0.357899
30
0.0
11
4.275000
21
-0.361086
31
0.0
0
LINE
8
FRONT
10
4.275000
20
-0.361086
30
0.0
11
4.387500
21
-0.364272
31
0.0
0
LINE
8
FRONT
10
4.387500
20
-0.364272
30
0.0
11
4.500000
21
-0.367459
31
0.0
0
LINE
8
FRONT
10
4.500000
20
-0.367459
30
0.0
11
4.612500
21
-0.367782
31
0.0
0
LINE
8
FRONT
10
4.612500
20
-0.367782
30
0.0
11
4.725000
21
-0.368106
31
0.0
0
LINE
8
FRONT
10
4.725000
20
-0.368106
30
0.0
11
4.837500
21
-0.368430
31
0.0
0
LINE
8
FRONT
10
4.837500
20
-0.368430
30
0.0
11
4.950000
21
-0.368754
31
0.0
0
LINE
8
FRONT
10
4.950000
20
-0.368754
30
0.0
11
5.062500
21
-0.369078
31
0.0
0
LINE
8
FRONT
10
5.062500
20
-0.369078
30
0.0
11
5.175000
21
-0.369402
31
0.0
0
LINE
8
FRONT
10
5.175000
20
-0.369402
30
0.0
11
5.287500
21
-0.369725
31
0.0
0
LINE
8
FRONT
10
5.287500
20
-0.369725
30
0.0
11
5.400000
21
-0.370049
31
0.0
0
LINE
8
FRONT
10
5.400000
20
-0.370049
30
0.0
11
5.512500
21
-0.370373
31
0.0
0
LINE
8
FRONT
10
5.512500
20
-0.370373
30
0.0
11
5.625000
21
-0.370697
31
0.0
0
LINE
8
FRONT
10
5.625000
20
-0.370697
30
0.0
11
5.737500
21
-0.371021
31
0.0
0
LINE
8
FRONT
10
5.737500
20
-0.371021
30
0.0
11
5.850000
21
-0.371345
31
0.0
0
LINE
8
FRONT
10
5.850000
20
-0.371345
30
0.0
11
5.962500
21
-0.371668
31
0.0
0
LINE
8
FRONT
10
5.962500
20
-0.371668
30
0.0
11
6.075000
21
-0.371992
31
0.0
0
LINE
8
FRONT
10
6.075000
20
-0.371992
30
0.0
11
6.187500
21
-0.372316
31
0.0
0
LINE
8
FRONT
10
6.187500
20
-0.372316
30
0.0
11
6.300000
21
-0.372640
31
0.0
0
LINE
8
FRONT
10
6.300000
20
-0.372640
30
0.0
11
6.412500
21
-0.372964
31
0.0
0
LINE
8
FRONT
10
6.412500
20
-0.372964
30
0.0
11
6.525000
21
-0.373287
31
0.0
0
LINE
8
FRONT
10
6.525000
20
-0.373287
30
0.0
11
6.637500
21
-0.373611
31
0.0
0
LINE
8
FRONT
10
6.637500
20
-0.373611
30
0.0
11
6.750000
21
-0.373935
31
0.0
0
LINE
8
FRONT
10
6.750000
20
-0.373935
30
0.0
11
6.862500
21
-0.374259
31
0.0
0
LINE
8
FRONT
10
6.862500
20
-0.374259
30
0.0
11
6.975000
21
-0.374583
31
0.0
0
LINE
8
FRONT
10
6.975000
20
-0.374583
30
0.0
11
7.087500
21
-0.374907
31
0.0
0
LINE
8
FRONT
10
7.087500
20
-0.374907
30
0.0
11
7.200000
21
-0.375230
31
0.0
0
LINE
8
FRONT
10
7.200000
20
-0.375230
30
0.0
11
7.312500
21
-0.375554
31
0.0
0
LINE
8
FRONT
10
7.312500
20
-0.375554
30
0.0
11
7.425000
21
-0.375878
31
0.0
0
LINE
8
FRONT
10
7.425000
20
-0.375878
30
0.0
11
7.537500
21
-0.376202
31
0.0
0
LINE
8
FRONT
10
7.537500
20
-0.376202
30
0.0
11
7.650000
21
-0.376526
31
0.0
0
LINE
8
FRONT
10
7.650000
20
-0.376526
30
0.0
11
7.762500
21
-0.376850
31
0.0
0
LINE
8
FRONT
10
7.762500
20
-0.376850
30
0.0
11
7.875000
21
-0.377173
31
0.0
0
LINE
8
FRONT
10
7.875000
20
-0.377173
30
0.0
11
7.987500
21
-0.377497
31
0.0
0
LINE
8
FRONT
10
7.987500
20
-0.377497
30
0.0
11
8.100000
21
-0.377821
31
0.0
0
LINE
8
FRONT
10
8.100000
20
-0.377821
30
0.0
11
8.212500
21
-0.378145
31
0.0
0
LINE
8
FRONT
10
8.212500
20
-0.378145
30
0.0
11
8.325000
21
-0.378469
31
0.0
0
LINE
8
FRONT
10
8.325000
20
-0.378469
30
0.0
11
8.437500
21
-0.378793
31
0.0
0
LINE
8
FRONT
10
8.437500
20
-0.378793
30
0.0
11
8.500000
21
-0.378973
31
0.0
0
LINE
8
FRONT
10
8.500000
20
-0.378973
30
0.0
11
8.550000
21
-0.379116
31
0.0
0
LINE
8
FRONT
10
8.550000
20
-0.379116
30
0.0
11
8.662500
21
-0.379440
31
0.0
0
LINE
8
FRONT
10
8.662500
20
-0.379440
30
0.0
11
8.775000
21
-0.379764
31
0.0
0
LINE
8
FRONT
10
8.775000
20
-0.379764
30
0.0
11
8.887500
21
-0.380088
31
0.0
0
LINE
8
FRONT
10
8.887500
20
-0.380088
30
0.0
11
9.000000
21
-0.380412
31
0.0
0
LINE
8
FRONT
10
0.000000
20
0.240000
30
0.0
11
0.000000
21
-0.240000
31
0.0
0
LINE
8
FRONT
10
9.000000
20
0.380412
30
0.0
11
9.000000
21
-0.380412
31
0.0
0
LINE
8
TOP
10
0.000000
20
2.046855
30
0.0
11
0.112500
21
2.048322
31
0.0
0
LINE
8
TOP
10
0.112500
20
2.048322
30
0.0
11
0.225000
21
2.049788
31
0.0
0
LINE
8
TOP
10
0.225000
20
2.049788
30
0.0
11
0.337500
21
2.051255
31
0.0
0
LINE
8
TOP
10
0.337500
20
2.051255
30
0.0
11
0.450000
21
2.052722
31
0.0
0
LINE
8
TOP
10
0.450000
20
2.052722
30
0.0
11
0.500000
21
2.053374
31
0.0
0
LINE
8
TOP
10
0.500000
20
2.053374
30
0.0
11
0.562500
21
2.054188
31
0.0
0
LINE
8
TOP
10
0.562500
20
2.054188
30
0.0
11
0.675000
21
2.055655
31
0.0
0
LINE
8
TOP
10
0.675000
20
2.055655
30
0.0
11
0.787500
21
2.057122
31
0.0
0
LINE
8
TOP
10
0.787500
20
2.057122
30
0.0
11
0.900000
21
2.058588
31
0.0
0
LINE
8
TOP
10
0.900000
20
2.058588
30
0.0
11
1.012500
21
2.060055
31
0.0
0
LINE
8
TOP
10
1.012500
20
2.060055
30
0.0
11
1.125000
21
2.061522
31
0.0
0
LINE
8
TOP
10
1.125000
20
2.061522
30
0.0
11
1.237500
21
2.062988
31
0.0
0
LINE
8
TOP
10
1.237500
20
2.062988
30
0.0
11
1.350000
21
2.064455
31
0.0
0
LINE
8
TOP
10
1.350000
20
2.064455
30
0.0
11
1.462500
21
2.065922
31
0.0
0
LINE
8
TOP
10
1.462500
20
2.065922
30
0.0
11
1.575000
21
2.067388
31
0.0
0
LINE
8
TOP
10
1.575000
20
2.067388
30
0.0
11
1.687500
21
2.068855
31
0.0
0
LINE
8
TOP
10
1.687500
20
2.068855
30
0.0
11
1.800000
21
2.070322
31
0.0
0
LINE
8
TOP
10
1.800000
20
2.070322
30
0.0
11
1.912500
21
2.071788
31
0.0
0
LINE
8
TOP
10
1.912500
20
2.071788
30
0.0
11
2.025000
21
2.073255
31
0.0
0
LINE
8
TOP
10
2.025000
20
2.073255
30
0.0
11
2.137500
21
2.074722
31
0.0
0
LINE
8
TOP
10
2.137500
20
2.074722
30
0.0
11
2.250000
21
2.076188
31
0.0
0
LINE
8
TOP
10
2.250000
20
2.076188
30
0.0
11
2.362500
21
2.077655
31
0.0
0
LINE
8
TOP
10
2.362500
20
2.077655
30
0.0
11
2.475000
21
2.079122
31
0.0
0
LINE
8
TOP
10
2.475000
20
2.079122
30
0.0
11
2.587500
21
2.080588
31
0.0
0
LINE
8
TOP
10
2.587500
20
2.080588
30
0.0
11
2.700000
21
2.082055
31
0.0
0
LINE
8
TOP
10
2.700000
20
2.082055
30
0.0
11
2.812500
21
2.083522
31
0.0
0
LINE
8
TOP
10
2.812500
20
2.083522
30
0.0
11
2.925000
21
2.084988
31
0.0
0
LINE
8
TOP
10
2.925000
20
2.084988
30
0.0
11
3.037500
21
2.086455
31
0.0
0
LINE
8
TOP
10
3.037500
20
2.086455
30
0.0
11
3.150000
21
2.087922
31
0.0
0
LINE
8
TOP
10
3.150000
20
2.087922
30
0.0
11
3.262500
21
2.089388
31
0.0
0
LINE
8
TOP
10
3.262500
20
2.089388
30
0.0
11
3.375000
21
2.090855
31
0.0
0
LINE
8
TOP
10
3.375000
20
2.090855
30
0.0
11
3.487500
21
2.092322
31
0.0
0
LINE
8
TOP
10
3.487500
20
2.092322
30
0.0
11
3.600000
21
2.093788
31
0.0
0
LINE
8
TOP
10
3.600000
20
2.093788
30
0.0
11
3.712500
21
2.095255
31
0.0
0
LINE
8
TOP
10
3.712500
20
2.095255
30
0.0
11
3.825000
21
2.096722
31
0.0
0
LINE
8
TOP
10
3.825000
20
2.096722
30
0.0
11
3.937500
21
2.098188
31
0.0
0
LINE
8
TOP
10
3.937500
20
2.098188
30
0.0
11
4.050000
21
2.099655
31
0.0
0
LINE
8
TOP
10
4.050000
20
2.099655
30
0.0
11
4.162500
21
2.101122
31
0.0
0
LINE
8
TOP
10
4.162500
20
2.101122
30
0.0
11
4.275000
21
2.102588
31
0.0
0
LINE
8
TOP
10
4.275000
20
2.102588
30
0.0
11
4.387500
21
2.104055
31
0.0
0
LINE
8
TOP
10
4.387500
20
2.104055
30
0.0
11
4.500000
21
2.105522
31
0.0
0
LINE
8
TOP
10
4.500000
20
2.105522
30
0.0
11
4.612500
21
2.103923
31
0.0
0
LINE
8
TOP
10
4.612500
20
2.103923
30
0.0
11
4.725000
21
2.102324
31
0.0
0
LINE
8
TOP
10
4.725000
20
2.102324
30
0.0
11
4.837500
21
2.100725
31
0.0
0
LINE
8
TOP
10
4.837500
20
2.100725
30
0.0
11
4.950000
21
2.099126
31
0.0
0
LINE
8
TOP
10
4.950000
20
2.099126
30
0.0
11
5.062500
21
2.097528
31
0.0
0
LINE
8
TOP
10
5.062500
20
2.097528
30
0.0
11
5.175000
21
2.095929
31
0.0
0
LINE
8
TOP
10
5.175000
20
2.095929
30
0.0
11
5.287500
21
2.094330
31
0.0
0
LINE
8
TOP
10
5.287500
20
2.094330
30
0.0
11
5.400000
21
2.092731
31
0.0
0
LINE
8
TOP
10
5.400000
20
2.092731
30
0.0
11
5.512500
21
2.091132
31
0.0
0
LINE
8
TOP
10
5.512500
20
2.091132
30
0.0
11
5.625000
21
2.089534
31
0.0
0
LINE
8
TOP
10
5.625000
20
2.089534
30
0.0
11
5.737500
21
2.087935
31
0.0
0
LINE
8
TOP
10
5.737500
20
2.087935
30
0.0
11
5.850000
21
2.086336
31
0.0
0
LINE
8
TOP
10
5.850000
20
2.086336
30
0.0
11
5.962500
21
2.084737
31
0.0
0
LINE
8
TOP
10
5.962500
20
2.084737
30
0.0
11
6.075000
21
2.083138
31
0.0
0
LINE
8
TOP
10
6.075000
20
2.083138
30
0.0
11
6.187500
21
2.081539
31
0.0
0
LINE
8
TOP
10
6.187500
20
2.081539
30
0.0
11
6.300000
21
2.079941
31
0.0
0
LINE
8
TOP
10
6.300000
20
2.079941
30
0.0
11
6.412500
21
2.078342
31
0.0
0
LINE
8
TOP
10
6.412500
20
2.078342
30
0.0
11
6.525000
21
2.076743
31
0.0
0
LINE
8
TOP
10
6.525000
20
2.076743
30
0.0
11
6.637500
21
2.075144
31
0.0
0
LINE
8
TOP
10
6.637500
20
2.075144
30
0.0
11
6.750000
21
2.073545
31
0.0
0
LINE
8
TOP
10
6.750000
20
2.073545
30
0.0
11
6.862500
21
2.071947
31
0.0
0
LINE
8
TOP
10
6.862500
20
2.071947
30
0.0
11
6.975000
21
2.070348
31
0.0
0
LINE
8
TOP
10
6.975000
20
2.070348
30
0.0
11
7.087500
21
2.068749
31
0.0
0
LINE
8
TOP
10
7.087500
20
2.068749
30
0.0
11
7.200000
21
2.067150
31
0.0
0
LINE
8
TOP
10
7.200000
20
2.067150
30
0.0
11
7.312500
21
2.065551
31
0.0
0
LINE
8
TOP
10
7.312500
20
2.065551
30
0.0
11
7.425000
21
2.063952
31
0.0
0
LINE
8
TOP
10
7.425000
20
2.063952
30
0.0
11
7.537500
21
2.062354
31
0.0
0
LINE
8
TOP
10
7.537500
20
2.062354
30
0.0
11
7.650000
21
2.060755
31
0.0
0
LINE
8
TOP
10
7.650000
20
2.060755
30
0.0
11
7.762500
21
2.059156
31
0.0
0
LINE
8
TOP
10
7.762500
20
2.059156
30
0.0
11
7.875000
21
2.057557
31
0.0
0
LINE
8
TOP
10
7.875000
20
2.057557
30
0.0
11
7.987500
21
2.055958
31
0.0
0
LINE
8
TOP
10
7.987500
20
2.055958
30
0.0
11
8.100000
21
2.054359
31
0.0
0
LINE
8
TOP
10
8.100000
20
2.054359
30
0.0
11
8.212500
21
2.052761
31
0.0
0
LINE
8
TOP
10
8.212500
20
2.052761
30
0.0
11
8.325000
21
2.051162
31
0.0
0
LINE
8
TOP
10
8.325000
20
2.051162
30
0.0
11
8.437500
21
2.049563
31
0.0
0
LINE
8
TOP
10
8.437500
20
2.049563
30
0.0
11
8.500000
21
2.048675
31
0.0
0
LINE
8
TOP
10
8.500000
20
2.048675
30
0.0
11
8.550000
21
2.047964
31
0.0
0
LINE
8
TOP
10
8.550000
20
2.047964
30
0.0
11
8.662500
21
2.046365
31
0.0
0
LINE
8
TOP
10
8.662500
20
2.046365
30
0.0
11
8.775000
21
2.044767
31
0.0
0
LINE
8
TOP
10
8.775000
20
2.044767
30
0.0
11
8.887500
21
2.043168
31
0.0
0
LINE
8
TOP
10
8.887500
20
2.043168
30
0.0
11
9.000000
21
2.041569
31
0.0
0
LINE
8
TOP
10
0.000000
20
1.735615
30
0.0
11
0.112500
21
1.734149
31
0.0
0
LINE
8
TOP
10
0.112500
20
1.734149
30
0.0
11
0.225000
21
1.732682
31
0.0
0
LINE
8
TOP
10
0.225000
20
1.732682
30
0.0
11
0.337500
21
1.731215
31
0.0
0
LINE
8
TOP
10
0.337500
20
1.731215
30
0.0
11
0.450000
21
1.729749
31
0.0
0
LINE
8
TOP
10
0.450000
20
1.729749
30
0.0
11
0.500000
21
1.729097
31
0.0
0
LINE
8
TOP
10
0.500000
20
1.729097
30
0.0
11
0.562500
21
1.728282
31
0.0
0
LINE
8
TOP
10
0.562500
20
1.728282
30
0.0
11
0.675000
21
1.726815
31
0.0
0
LINE
8
TOP
10
0.675000
20
1.726815
30
0.0
11
0.787500
21
1.725349
31
0.0
0
LINE
8
TOP
10
0.787500
20
1.725349
30
0.0
11
0.900000
21
1.723882
31
0.0
0
LINE
8
TOP
10
0.900000
20
1.723882
30
0.0
11
1.012500
21
1.722415
31
0.0
0
LINE
8
TOP
10
1.012500
20
1.722415
30
0.0
11
1.125000
21
1.720949
31
0.0
0
LINE
8
TOP
10
1.125000
20
1.720949
30
0.0
11
1.237500
21
1.719482
31
0.0
0
LINE
8
TOP
10
1.237500
20
1.719482
30
0.0
11
1.350000
21
1.718015
31
0.0
0
LINE
8
TOP
10
1.350000
20
1.718015
30
0.0
11
1.462500
21
1.716549
31
0.0
0
LINE
8
TOP
10
1.462500
20
1.716549
30
0.0
11
1.575000
21
1.715082
31
0.0
0
LINE
8
TOP
10
1.575000
20
1.715082
30
0.0
11
1.687500
21
1.713615
31
0.0
0
LINE
8
TOP
10
1.687500
20
1.713615
30
0.0
11
1.800000
21
1.712149
31
0.0
0
LINE
8
TOP
10
1.800000
20
1.712149
30
0.0
11
1.912500
21
1.710682
31
0.0
0
LINE
8
TOP
10
1.912500
20
1.710682
30
0.0
11
2.025000
21
1.709215
31
0.0
0
LINE
8
TOP
10
2.025000
20
1.709215
30
0.0
11
2.137500
21
1.707749
31
0.0
0
LINE
8
TOP
10
2.137500
20
1.707749
30
0.0
11
2.250000
21
1.706282
31
0.0
0
LINE
8
TOP
10
2.250000
20
1.706282
30
0.0
11
2.362500
21
1.704815
31
0.0
0
LINE
8
TOP
10
2.362500
20
1.704815
30
0.0
11
2.475000
21
1.703349
31
0.0
0
LINE
8
TOP
10
2.475000
20
1.703349
30
0.0
11
2.587500
21
1.701882
31
0.0
0
LINE
8
TOP
10
2.587500
20
1.701882
30
0.0
11
2.700000
21
1.700415
31
0.0
0
LINE
8
TOP
10
2.700000
20
1.700415
30
0.0
11
2.812500
21
1.698949
31
0.0
0
LINE
8
TOP
10
2.812500
20
1.698949
30
0.0
11
2.925000
21
1.697482
31
0.0
0
LINE
8
TOP
10
2.925000
20
1.697482
30
0.0
11
3.037500
21
1.696015
31
0.0
0
LINE
8
TOP
10
3.037500
20
1.696015
30
0.0
11
3.150000
21
1.694549
31
0.0
0
LINE
8
TOP
10
3.150000
20
1.694549
30
0.0
11
3.262500
21
1.693082
31
0.0
0
LINE
8
TOP
10
3.262500
20
1.693082
30
0.0
11
3.375000
21
1.691615
31
0.0
0
LINE
8
TOP
10
3.375000
20
1.691615
30
0.0
11
3.487500
21
1.690149
31
0.0
0
LINE
8
TOP
10
3.487500
20
1.690149
30
0.0
11
3.600000
21
1.688682
31
0.0
0
LINE
8
TOP
10
3.600000
20
1.688682
30
0.0
11
3.712500
21
1.687215
31
0.0
0
LINE
8
TOP
10
3.712500
20
1.687215
30
0.0
11
3.825000
21
1.685749
31
0.0
0
LINE
8
TOP
10
3.825000
20
1.685749
30
0.0
11
3.937500
21
1.684282
31
0.0
0
LINE
8
TOP
10
3.937500
20
1.684282
30
0.0
11
4.050000
21
1.682815
31
0.0
0
LINE
8
TOP
10
4.050000
20
1.682815
30
0.0
11
4.162500
21
1.681349
31
0.0
0
LINE
8
TOP
10
4.162500
20
1.681349
30
0.0
11
4.275000
21
1.679882
31
0.0
0
LINE
8
TOP
10
4.275000
20
1.679882
30
0.0
11
4.387500
21
1.678415
31
0.0
0
LINE
8
TOP
10
4.387500
20
1.678415
30
0.0
11
4.500000
21
1.676949
31
0.0
0
LINE
8
TOP
10
4.500000
20
1.676949
30
0.0
11
4.612500
21
1.678548
31
0.0
0
LINE
8
TOP
10
4.612500
20
1.678548
30
0.0
11
4.725000
21
1.680146
31
0.0
0
LINE
8
TOP
10
4.725000
20
1.680146
30
0.0
11
4.837500
21
1.681745
31
0.0
0
LINE
8
TOP
10
4.837500
20
1.681745
30
0.0
11
4.950000
21
1.683344
31
0.0
0
LINE
8
TOP
10
4.950000
20
1.683344
30
0.0
11
5.062500
21
1.684943
31
0.0
0
LINE
8
TOP
10
5.062500
20
1.684943
30
0.0
11
5.175000
21
1.686542
31
0.0
0
LINE
8
TOP
10
5.175000
20
1.686542
30
0.0
11
5.287500
21
1.688141
31
0.0
0
LINE
8
TOP
10
5.287500
20
1.688141
30
0.0
11
5.400000
21
1.689739
31
0.0
0
LINE
8
TOP
10
5.400000
20
1.689739
30
0.0
11
5.512500
21
1.691338
31
0.0
0
LINE
8
TOP
10
5.512500
20
1.691338
30
0.0
11
5.625000
21
1.692937
31
0.0
0
LINE
8
TOP
10
5.625000
20
1.692937
30
0.0
11
5.737500
21
1.694536
31
0.0
0
LINE
8
TOP
10
5.737500
20
1.694536
30
0.0
11
5.850000
21
1.696135
31
0.0
0
LINE
8
TOP
10
5.850000
20
1.696135
30
0.0
11
5.962500
21
1.697733
31
0.0
0
LINE
8
TOP
10
5.962500
20
1.697733
30
0.0
11
6.075000
21
1.699332
31
0.0
0
LINE
8
TOP
10
6.075000
20
1.699332
30
0.0
11
6.187500
21
1.700931
31
0.0
0
LINE
8
TOP
10
6.187500
20
1.700931
30
0.0
11
6.300000
21
1.702530
31
0.0
0
LINE
8
TOP
10
6.300000
20
1.702530
30
0.0
11
6.412500
21
1.704129
31
0.0
0
LINE
8
TOP
10
6.412500
20
1.704129
30
0.0
11
6.525000
21
1.705728
31
0.0
0
LINE
8
TOP
10
6.525000
20
1.705728
30
0.0
11
6.637500
21
1.707326
31
0.0
0
LINE
8
TOP
10
6.637500
20
1.707326
30
0.0
11
6.750000
21
1.708925
31
0.0
0
LINE
8
TOP
10
6.750000
20
1.708925
30
0.0
11
6.862500
21
1.710524
31
0.0
0
LINE
8
TOP
10
6.862500
20
1.710524
30
0.0
11
6.975000
21
1.712123
31
0.0
0
LINE
8
TOP
10
6.975000
20
1.712123
30
0.0
11
7.087500
21
1.713722
31
0.0
0
LINE
8
TOP
10
7.087500
20
1.713722
30
0.0
11
7.200000
21
1.715320
31
0.0
0
LINE
8
TOP
10
7.200000
20
1.715320
30
0.0
11
7.312500
21
1.716919
31
0.0
0
LINE
8
TOP
10
7.312500
20
1.716919
30
0.0
11
7.425000
21
1.718518
31
0.0
0
LINE
8
TOP
10
7.425000
20
1.718518
30
0.0
11
7.537500
21
1.720117
31
0.0
0
LINE
8
TOP
10
7.537500
20
1.720117
30
0.0
11
7.650000
21
1.721716
31
0.0
0
LINE
8
TOP
10
7.650000
20
1.721716
30
0.0
11
7.762500
21
1.723315
31
0.0
0
LINE
8
TOP
10
7.762500
20
1.723315
30
0.0
11
7.875000
21
1.724913
31
0.0
0
LINE
8
TOP
10
7.875000
20
1.724913
30
0.0
11
7.987500
21
1.726512
31
0.0
0
LINE
8
TOP
10
7.987500
20
1.726512
30
0.0
11
8.100000
21
1.728111
31
0.0
0
LINE
8
TOP
10
8.100000
20
1.728111
30
0.0
11
8.212500
21
1.729710
31
0.0
0
LINE
8
TOP
10
8.212500
20
1.729710
30
0.0
11
8.325000
21
1.731309
31
0.0
0
LINE
8
TOP
10
8.325000
20
1.731309
30
0.0
11
8.437500
21
1.732908
31
0.0
0
LINE
8
TOP
10
8.437500
20
1.732908
30
0.0
11
8.500000
21
1.733796
31
0.0
0
LINE
8
TOP
10
8.500000
20
1.733796
30
0.0
11
8.550000
21
1.734506
31
0.0
0
LINE
8
TOP
10
8.550000
20
1.734506
30
0.0
11
8.662500
21
1.736105
31
0.0
0
LINE
8
TOP
10
8.662500
20
1.736105
30
0.0
11
8.775000
21
1.737704
31
0.0
0
LINE
8
TOP
10
8.775000
20
1.737704
30
0.0
11
8.887500
21
1.739303
31
0.0
0
LINE
8
TOP
10
8.887500
20
1.739303
30
0.0
11
9.000000
21
1.740902
31
0.0
0
LINE
8
TOP
10
0.000000
20
2.046855
30
0.0
11
0.000000
21
1.735615
31
0.0
0
LINE
8
TOP
10
9.000000
20
2.041569
30
0.0
11
9.000000
21
1.740902
31
0.0
0
LINE
8
SECTION
10
10.285714
20
-0.367459
30
0.0
11
10.714286
21
-0.367459
31
0.0
0
LINE
8
SECTION
10
10.714286
20
-0.367459
30
0.0
11
10.714286
21
0.367459
31
0.0
0
LINE
8
SECTION
10
10.714286
20
0.367459
30
0.0
11
10.285714
21
0.367459
31
0.0
0
LINE
8
SECTION
10
10.285714
20
0.367459
30
0.0
11
10.285714
21
-0.367459
31
0.0
0
LINE
8
SECTION
10
10.345714
20
-0.307459
30
0.0
11
10.654286
21
-0.307459
31
0.0
0
LINE
8
SECTION
10
10.654286
20
-0.307459
30
0.0
11
10.654286
21
0.307459
31
0.0
0
LINE
8
SECTION
10
10.654286
20
0.307459
30
0.0
11
10.345714
21
0.307459
31
0.0
0
LINE
8
SECTION
10
10.345714
20
0.307459
30
0.0
11
10.345714
21
-0.307459
31
0.0
0
LINE
8
SECTION
10
10.345714
20
0.000000
30
0.0
11
10.405714
21
0.000000
31
0.0
0
LINE
8
SECTION
10
10.405714
20
0.000000
30
0.0
11
10.405714
21
0.307459
31
0.0
0
LINE
8
SECTION
10
10.405714
20
0.307459
30
0.0
11
10.345714
21
0.307459
31
0.0
0
LINE
8
SECTION
10
10.345714
20
0.307459
30
0.0
11
10.345714
21
0.000000
31
0.0
0
LINE
8
SECTION
10
10.345714
20
-0.307459
30
0.0
11
10.405714
21
-0.307459
31
0.0
0
LINE
8
SECTION
10
10.405714
20
-0.307459
30
0.0
11
10.405714
21
0.000000
31
0.0
0
LINE
8
SECTION
10
10.405714
20
0.000000
30
0.0
11
10.345714
21
0.000000
31
0.0
0
LINE
8
SECTION
10
10.345714
20
0.000000
30
0.0
11
10.345714
21
-0.307459
31
0.0
0
LINE
8
SECTION
10
10.594286
20
0.000000
30
0.0
11
10.654286
21
0.000000
31
0.0
0
LINE
8
SECTION
10
10.654286
20
0.000000
30
0.0
11
10.654286
21
0.307459
31
0.0
0
LINE
8
SECTION
10
10.654286
20
0.307459
30
0.0
11
10.594286
21
0.307459
31
0.0
0
LINE
8
SECTION
10
10.594286
20
0.307459
30
0.0
11
10.594286
21
0.000000
31
0.0
0
LINE
8
SECTION
10
10.594286
20
-0.307459
30
0.0
11
10.654286
21
-0.307459
31
0.0
0
LINE
8
SECTION
10
10.654286
20
-0.307459
30
0.0
11
10.654286
21
0.000000
31
0.0
0
LINE
8
SECTION
10
10.654286
20
0.000000
30
0.0
11
10.594286
21
0.000000
31
0.0
0
LINE
8
SECTION
10
10.594286
20
0.000000
30
0.0
11
10.594286
21
-0.307459
31
0.0
0
ENDSEC
0
EOF
