0
SECTION
2
HEADER
9
$INSUNITS
70
1
0
ENDSEC
0
SECTION
2
ENTITIES
0
LINE
8
FRONT
10
0.000000
20
0.263098
30
0.0
11
0.112500
21
0.265630
31
0.0
0
LINE
8
FRONT
10
0.112500
20
0.265630
30
0.0
11
0.225000
21
0.268162
31
0.0
0
LINE
8
FRONT
10
0.225000
20
0.268162
30
0.0
11
0.337500
21
0.270694
31
0.0
0
LINE
8
FRONT
10
0.337500
20
0.270694
30
0.0
11
0.450000
21
0.273226
31
0.0
0
LINE
8
FRONT
10
0.450000
20
0.273226
30
0.0
11
0.500000
21
0.274351
31
0.0
0
LINE
8
FRONT
10
0.500000
20
0.274351
30
0.0
11
0.562500
21
0.275758
31
0.0
0
LINE
8
FRONT
10
0.562500
20
0.275758
30
0.0
11
0.675000
21
0.278290
31
0.0
0
LINE
8
FRONT
10
0.675000
20
0.278290
30
0.0
11
0.787500
21
0.280822
31
0.0
0
LINE
8
FRONT
10
0.787500
20
0.280822
30
0.0
11
0.900000
21
0.283354
31
0.0
0
LINE
8
FRONT
10
0.900000
20
0.283354
30
0.0
11
1.012500
21
0.285886
31
0.0
0
LINE
8
FRONT
10
1.012500
20
0.285886
30
0.0
11
1.125000
21
0.288418
31
0.0
0
LINE
8
FRONT
10
1.125000
20
0.288418
30
0.0
11
1.237500
21
0.290950
31
0.0
0
LINE
8
FRONT
10
1.237500
20
0.290950
30
0.0
11
1.350000
21
0.293482
31
0.0
0
LINE
8
FRONT
10
1.350000
20
0.293482
30
0.0
11
1.462500
21
0.296014
31
0.0
0
LINE
8
FRONT
10
1.462500
20
0.296014
30
0.0
11
1.575000
21
0.298546
31
0.0
0
LINE
8
FRONT
10
1.575000
20
0.298546
30
0.0
11
1.687500
21
0.301078
31
0.0
0
LINE
8
FRONT
10
1.687500
20
0.301078
30
0.0
11
1.800000
21
0.303610
31
0.0
0
LINE
8
FRONT
10
1.800000
20
0.303610
30
0.0
11
1.912500
21
0.306142
31
0.0
0
LINE
8
FRONT
10
1.912500
20
0.306142
30
0.0
11
2.025000
21
0.308674
31
0.0
0
LINE
8
FRONT
10
2.025000
20
0.308674
30
0.0
11
2.137500
21
0.311206
31
0.0
0
LINE
8
FRONT
10
2.137500
20
0.311206
30
0.0
11
2.250000
21
0.313738
31
0.0
0
LINE
8
FRONT
10
2.250000
20
0.313738
30
0.0
11
2.362500
21
0.316270
31
0.0
0
LINE
8
FRONT
10
2.362500
20
0.316270
30
0.0
11
2.475000
21
0.318802
31
0.0
0
LINE
8
FRONT
10
2.475000
20
0.318802
30
0.0
11
2.587500
21
0.321334
31
0.0
0
LINE
8
FRONT
10
2.587500
20
0.321334
30
0.0
11
2.700000
21
0.323866
31
0.0
0
LINE
8
FRONT
10
2.700000
20
0.323866
30
0.0
11
2.812500
21
0.326398
31
0.0
0
LINE
8
FRONT
10
2.812500
20
0.326398
30
0.0
11
2.925000
21
0.328929
31
0.0
0
LINE
8
FRONT
10
2.925000
20
0.328929
30
0.0
11
3.037500
21
0.331461
31
0.0
0
LINE
8
FRONT
10
3.037500
20
0.331461
30
0.0
11
3.150000
21
0.333993
31
0.0
0
LINE
8
FRONT
10
3.150000
20
0.333993
30
0.0
11
3.262500
21
0.336525
31
0.0
0
LINE
8
FRONT
10
3.262500
20
0.336525
30
0.0
11
3.375000
21
0.339057
31
0.0
0
LINE
8
FRONT
10
3.375000
20
0.339057
30
0.0
11
3.487500
21
0.341589
31
0.0
0
LINE
8
FRONT
10
3.487500
20
0.341589
30
0.0
11
3.600000
21
0.344121
31
0.0
0
LINE
8
FRONT
10
3.600000
20
0.344121
30
0.0
11
3.712500
21
0.346653
31
0.0
0
LINE
8
FRONT
10
3.712500
20
0.346653
30
0.0
11
3.825000
21
0.349185
31
0.0
0
LINE
8
FRONT
10
3.825000
20
0.349185
30
0.0
11
3.937500
21
0.351717
31
0.0
0
LINE
8
FRONT
10
3.937500
20
0.351717
30
0.0
11
4.050000
21
0.354249
31
0.0
0
LINE
8
FRONT
10
4.050000
20
0.354249
30
0.0
11
4.162500
21
0.356781
31
0.0
0
LINE
8
FRONT
10
4.162500
20
0.356781
30
0.0
11
4.275000
21
0.359313
31
0.0
0
LINE
8
FRONT
10
4.275000
20
0.359313
30
0.0
11
4.387500
21
0.361845
31
0.0
0
LINE
8
FRONT
10
4.387500
20
0.361845
30
0.0
11
4.500000
21
0.364377
31
0.0
0
LINE
8
FRONT
10
4.500000
20
0.364377
30
0.0
11
4.612500
21
0.366018
31
0.0
0
LINE
8
FRONT
10
4.612500
20
0.366018
30
0.0
11
4.725000
21
0.367658
31
0.0
0
LINE
8
FRONT
10
4.725000
20
0.367658
30
0.0
11
4.837500
21
0.369298
31
0.0
0
LINE
8
FRONT
10
4.837500
20
0.369298
30
0.0
11
4.950000
21
0.370939
31
0.0
0
LINE
8
FRONT
10
4.950000
20
0.370939
30
0.0
11
5.062500
21
0.372579
31
0.0
0
LINE
8
FRONT
10
5.062500
20
0.372579
30
0.0
11
5.175000
21
0.374220
31
0.0
0
LINE
8
FRONT
10
5.175000
20
0.374220
30
0.0
11
5.287500
21
0.375860
31
0.0
0
LINE
8
FRONT
10
5.287500
20
0.375860
30
0.0
11
5.400000
21
0.377500
31
0.0
0
LINE
8
FRONT
10
5.400000
20
0.377500
30
0.0
11
5.512500
21
0.379141
31
0.0
0
LINE
8
FRONT
10
5.512500
20
0.379141
30
0.0
11
5.625000
21
0.380781
31
0.0
0
LINE
8
FRONT
10
5.625000
20
0.380781
30
0.0
11
5.737500
21
0.382421
31
0.0
0
LINE
8
FRONT
10
5.737500
20
0.382421
30
0.0
11
5.850000
21
0.384062
31
0.0
0
LINE
8
FRONT
10
5.850000
20
0.384062
30
0.0
11
5.962500
21
0.385702
31
0.0
0
LINE
8
FRONT
10
5.962500
20
0.385702
30
0.0
11
6.075000
21
0.387343
31
0.0
0
LINE
8
FRONT
10
6.075000
20
0.387343
30
0.0
11
6.187500
21
0.388983
31
0.0
0
LINE
8
FRONT
10
6.187500
20
0.388983
30
0.0
11
6.300000
21
0.390623
31
0.0
0
LINE
8
FRONT
10
6.300000
20
0.390623
30
0.0
11
6.412500
21
0.392264
31
0.0
0
LINE
8
FRONT
10
6.412500
20
0.392264
30
0.0
11
6.525000
21
0.393904
31
0.0
0
LINE
8
FRONT
10
6.525000
20
0.393904
30
0.0
11
6.637500
21
0.395545
31
0.0
0
LINE
8
FRONT
10
6.637500
20
0.395545
30
0.0
11
6.750000
21
0.397185
31
0.0
0
LINE
8
FRONT
10
6.750000
20
0.397185
30
0.0
11
6.862500
21
0.398825
31
0.0
0
LINE
8
FRONT
10
6.862500
20
0.398825
30
0.0
11
6.975000
21
0.400466
31
0.0
0
LINE
8
FRONT
10
6.975000
20
0.400466
30
0.0
11
7.087500
21
0.402106
31
0.0
0
LINE
8
FRONT
10
7.087500
20
0.402106
30
0.0
11
7.200000
21
0.403747
31
0.0
0
LINE
8
FRONT
10
7.200000
20
0.403747
30
0.0
11
7.312500
21
0.405387
31
0.0
0
LINE
8
FRONT
10
7.312500
20
0.405387
30
0.0
11
7.425000
21
0.407027
31
0.0
0
LINE
8
FRONT
10
7.425000
20
0.407027
30
0.0
11
7.537500
21
0.408668
31
0.0
0
LINE
8
FRONT
10
7.537500
20
0.408668
30
0.0
11
7.650000
21
0.410308
31
0.0
0
LINE
8
FRONT
10
7.650000
20
0.410308
30
0.0
11
7.762500
21
0.411948
31
0.0
0
LINE
8
FRONT
10
7.762500
20
0.411948
30
0.0
11
7.875000
21
0.413589
31
0.0
0
LINE
8
FRONT
10
7.875000
20
0.413589
30
0.0
11
7.987500
21
0.415229
31
0.0
0
LINE
8
FRONT
10
7.987500
20
0.415229
30
0.0
11
8.100000
21
0.416870
31
0.0
0
LINE
8
FRONT
10
8.100000
20
0.416870
30
0.0
11
8.212500
21
0.418510
31
0.0
0
LINE
8
FRONT
10
8.212500
20
0.418510
30
0.0
11
8.325000
21
0.420150
31
0.0
0
LINE
8
FRONT
10
8.325000
20
0.420150
30
0.0
11
8.437500
21
0.421791
31
0.0
0
LINE
8
FRONT
10
8.437500
20
0.421791
30
0.0
11
8.500000
21
0.422702
31
0.0
0
LINE
8
FRONT
10
8.500000
20
0.422702
30
0.0
11
8.550000
21
0.423431
31
0.0
0
LINE
8
FRONT
10
8.550000
20
0.423431
30
0.0
11
8.662500
21
0.425072
31
0.0
0
LINE
8
FRONT
10
8.662500
20
0.425072
30
0.0
11
8.775000
21
0.426712
31
0.0
0
LINE
8
FRONT
10
8.775000
20
0.426712
30
0.0
11
8.887500
21
0.428352
31
0.0
0
LINE
8
FRONT
10
8.887500
20
0.428352
30
0.0
11
9.000000
21
0.429993
31
0.0
0
LINE
8
FRONT
10
0.000000
20
-0.263098
30
0.0
11
0.112500
21
-0.265630
31
0.0
0
LINE
8
FRONT
10
0.112500
20
-0.265630
30
0.0
11
0.225000
21
-0.268162
31
0.0
0
LINE
8
FRONT
10
0.225000
20
-0.268162
30
0.0
11
0.337500
21
-0.270694
31
0.0
0
LINE
8
FRONT
10
0.337500
20
-0.270694
30
0.0
11
0.450000
21
-0.273226
31
0.0
0
LINE
8
FRONT
10
0.450000
20
-0.273226
30
0.0
11
0.500000
21
-0.274351
31
0.0
0
LINE
8
FRONT
10
0.500000
20
-0.274351
30
0.0
11
0.562500
21
-0.275758
31
0.0
0
LINE
8
FRONT
10
0.562500
20
-0.275758
30
0.0
11
0.675000
21
-0.278290
31
0.0
0
LINE
8
FRONT
10
0.675000
20
-0.278290
30
0.0
11
0.787500
21
-0.280822
31
0.0
0
LINE
8
FRONT
10
0.787500
20
-0.280822
30
0.0
11
0.900000
21
-0.283354
31
0.0
0
LINE
8
FRONT
10
0.900000
20
-0.283354
30
0.0
11
1.012500
21
-0.285886
31
0.0
0
LINE
8
FRONT
10
1.012500
20
-0.285886
30
0.0
11
1.125000
21
-0.288418
31
0.0
0
LINE
8
FRONT
10
1.125000
20
-0.288418
30
0.0
11
1.237500
21
-0.290950
31
0.0
0
LINE
8
FRONT
10
1.237500
20
-0.290950
30
0.0
11
1.350000
21
-0.293482
31
0.0
0
LINE
8
FRONT
10
1.350000
20
-0.293482
30
0.0
11
1.462500
21
-0.296014
31
0.0
0
LINE
8
FRONT
10
1.462500
20
-0.296014
30
0.0
11
1.575000
21
-0.298546
31
0.0
0
LINE
8
FRONT
10
1.575000
20
-0.298546
30
0.0
11
1.687500
21
-0.301078
31
0.0
0
LINE
8
FRONT
10
1.687500
20
-0.301078
30
0.0
11
1.800000
21
-0.303610
31
0.0
0
LINE
8
FRONT
10
1.800000
20
-0.303610
30
0.0
11
1.912500
21
-0.306142
31
0.0
0
LINE
8
FRONT
10
1.912500
20
-0.306142
30
0.0
11
2.025000
21
-0.308674
31
0.0
0
LINE
8
FRONT
10
2.025000
20
-0.308674
30
0.0
11
2.137500
21
-0.311206
31
0.0
0
LINE
8
FRONT
10
2.137500
20
-0.311206
30
0.0
11
2.250000
21
-0.313738
31
0.0
0
LINE
8
FRONT
10
2.250000
20
-0.313738
30
0.0
11
2.362500
21
-0.316270
31
0.0
0
LINE
8
FRONT
10
2.362500
20
-0.316270
30
0.0
11
2.475000
21
-0.318802
31
0.0
0
LINE
8
FRONT
10
2.475000
20
-0.318802
30
0.0
11
2.587500
21
-0.321334
31
0.0
0
LINE
8
FRONT
10
2.587500
20
-0.321334
30
0.0
11
2.700000
21
-0.323866
31
0.0
0
LINE
8
FRONT
10
2.700000
20
-0.323866
30
0.0
11
2.812500
21
-0.326398
31
0.0
0
LINE
8
FRONT
10
2.812500
20
-0.326398
30
0.0
11
2.925000
21
-0.328929
31
0.0
0
LINE
8
FRONT
10
2.925000
20
-0.328929
30
0.0
11
3.037500
21
-0.331461
31
0.0
0
LINE
8
FRONT
10
3.037500
20
-0.331461
30
0.0
11
3.150000
21
-0.333993
31
0.0
0
LINE
8
FRONT
10
3.150000
20
-0.333993
30
0.0
11
3.262500
21
-0.336525
31
0.0
0
LINE
8
FRONT
10
3.262500
20
-0.336525
30
0.0
11
3.375000
21
-0.339057
31
0.0
0
LINE
8
FRONT
10
3.375000
20
-0.339057
30
0.0
11
3.487500
21
-0.341589
31
0.0
0
LINE
8
FRONT
10
3.487500
20
-0.341589
30
0.0
11
3.600000
21
-0.344121
31
0.0
0
LINE
8
FRONT
10
3.600000
20
-0.344121
30
0.0
11
3.712500
21
-0.346653
31
0.0
0
LINE
8
FRONT
10
3.712500
20
-0.346653
30
0.0
11
3.825000
21
-0.349185
31
0.0
0
LINE
8
FRONT
10
3.825000
20
-0.349185
30
0.0
11
3.937500
21
-0.351717
31
0.0
0
LINE
8
FRONT
10
3.937500
20
-0.351717
30
0.0
11
4.050000
21
-0.354249
31
0.0
0
LINE
8
FRONT
10
4.050000
20
-0.354249
30
0.0
11
4.162500
21
-0.356781
31
0.0
0
LINE
8
FRONT
10
4.162500
20
-0.356781
30
0.0
11
4.275000
21
-0.359313
31
0.0
0
LINE
8
FRONT
10
4.275000
20
-0.359313
30
0.0
11
4.387500
21
-0.361845
31
0.0
0
LINE
8
FRONT
10
4.387500
20
-0.361845
30
0.0
11
4.500000
21
-0.364377
31
0.0
0
LINE
8
FRONT
10
4.500000
20
-0.364377
30
0.0
11
4.612500
21
-0.366018
31
0.0
0
LINE
8
FRONT
10
4.612500
20
-0.366018
30
0.0
11
4.725000
21
-0.367658
31
0.0
0
LINE
8
FRONT
10
4.725000
20
-0.367658
30
0.0
11
4.837500
21
-0.369298
31
0.0
0
LINE
8
FRONT
10
4.837500
20
-0.369298
30
0.0
11
4.950000
21
-0.370939
31
0.0
0
LINE
8
FRONT
10
4.950000
20
-0.370939
30
0.0
11
5.062500
21
-0.372579
31
0.0
0
LINE
8
FRONT
10
5.062500
20
-0.372579
30
0.0
11
5.175000
21
-0.374220
31
0.0
0
LINE
8
FRONT
10
5.175000
20
-0.374220
30
0.0
11
5.287500
21
-0.375860
31
0.0
0
LINE
8
FRONT
10
5.287500
20
-0.375860
30
0.0
11
5.400000
21
-0.377500
31
0.0
0
LINE
8
FRONT
10
5.400000
20
-0.377500
30
0.0
11
5.512500
21
-0.379141
31
0.0
0
LINE
8
FRONT
10
5.512500
20
-0.379141
30
0.0
11
5.625000
21
-0.380781
31
0.0
0
LINE
8
FRONT
10
5.625000
20
-0.380781
30
0.0
11
5.737500
21
-0.382421
31
0.0
0
LINE
8
FRONT
10
5.737500
20
-0.382421
30
0.0
11
5.850000
21
-0.384062
31
0.0
0
LINE
8
FRONT
10
5.850000
20
-0.384062
30
0.0
11
5.962500
21
-0.385702
31
0.0
0
LINE
8
FRONT
10
5.962500
20
-0.385702
30
0.0
11
6.075000
21
-0.387343
31
0.0
0
LINE
8
FRONT
10
6.075000
20
-0.387343
30
0.0
11
6.187500
21
-0.388983
31
0.0
0
LINE
8
FRONT
10
6.187500
20
-0.388983
30
0.0
11
6.300000
21
-0.390623
31
0.0
0
LINE
8
FRONT
10
6.300000
20
-0.390623
30
0.0
11
6.412500
21
-0.392264
31
0.0
0
LINE
8
FRONT
10
6.412500
20
-0.392264
30
0.0
11
6.525000
21
-0.393904
31
0.0
0
LINE
8
FRONT
10
6.525000
20
-0.393904
30
0.0
11
6.637500
21
-0.395545
31
0.0
0
LINE
8
FRONT
10
6.637500
20
-0.395545
30
0.0
11
6.750000
21
-0.397185
31
0.0
0
LINE
8
FRONT
10
6.750000
20
-0.397185
30
0.0
11
6.862500
21
-0.398825
31
0.0
0
LINE
8
FRONT
10
6.862500
20
-0.398825
30
0.0
11
6.975000
21
-0.400466
31
0.0
0
LINE
8
FRONT
10
6.975000
20
-0.400466
30
0.0
11
7.087500
21
-0.402106
31
0.0
0
LINE
8
FRONT
10
7.087500
20
-0.402106
30
0.0
11
7.200000
21
-0.403747
31
0.0
0
LINE
8
FRONT
10
7.200000
20
-0.403747
30
0.0
11
7.312500
21
-0.405387
31
0.0
0
LINE
8
FRONT
10
7.312500
20
-0.405387
30
0.0
11
7.425000
21
-0.407027
31
0.0
0
LINE
8
FRONT
10
7.425000
20
-0.407027
30
0.0
11
7.537500
21
-0.408668
31
0.0
0
LINE
8
FRONT
10
7.537500
20
-0.408668
30
0.0
11
7.650000
21
-0.410308
31
0.0
0
LINE
8
FRONT
10
7.650000
20
-0.410308
30
0.0
11
7.762500
21
-0.411948
31
0.0
0
LINE
8
FRONT
10
7.762500
20
-0.411948
30
0.0
11
7.875000
21
-0.413589
31
0.0
0
LINE
8
FRONT
10
7.875000
20
-0.413589
30
0.0
11
7.987500
21
-0.415229
31
0.0
0
LINE
8
FRONT
10
7.987500
20
-0.415229
30
0.0
11
8.100000
21
-0.416870
31
0.0
0
LINE
8
FRONT
10
8.100000
20
-0.416870
30
0.0
11
8.212500
21
-0.418510
31
0.0
0
LINE
8
FRONT
10
8.212500
20
-0.418510
30
0.0
11
8.325000
21
-0.420150
31
0.0
0
LINE
8
FRONT
10
8.325000
20
-0.420150
30
0.0
11
8.437500
21
-0.421791
31
0.0
0
LINE
8
FRONT
10
8.437500
20
-0.421791
30
0.0
11
8.500000
21
-0.422702
31
0.0
0
LINE
8
FRONT
10
8.500000
20
-0.422702
30
0.0
11
8.550000
21
-0.423431
31
0.0
0
LINE
8
FRONT
10
8.550000
20
-0.423431
30
0.0
11
8.662500
21
-0.425072
31
0.0
0
LINE
8
FRONT
10
8.662500
20
-0.425072
30
0.0
11
8.775000
21
-0.426712
31
0.0
0
LINE
8
FRONT
10
8.775000
20
-0.426712
30
0.0
11
8.887500
21
-0.428352
31
0.0
0
LINE
8
FRONT
10
8.887500
20
-0.428352
30
0.0
11
9.000000
21
-0.429993
31
0.0
0
LINE
8
FRONT
10
0.000000
20
0.263098
30
0.0
11
0.000000
21
-0.263098
31
0.0
0
LINE
8
FRONT
10
9.000000
20
0.429993
30
0.0
11
9.000000
21
-0.429993
31
0.0
0
LINE
8
TOP
10
0.000000
20
2.223861
30
0.0
11
0.112500
21
2.223471
31
0.0
0
LINE
8
TOP
10
0.112500
20
2.223471
30
0.0
11
0.225000
21
2.223080
31
0.0
0
LINE
8
TOP
10
0.225000
20
2.223080
30
0.0
11
0.337500
21
2.222690
31
0.0
0
LINE
8
TOP
10
0.337500
20
2.222690
30
0.0
11
0.450000
21
2.222300
31
0.0
0
LINE
8
TOP
10
0.450000
20
2.222300
30
0.0
11
0.500000
21
2.222126
31
0.0
0
LINE
8
TOP
10
0.500000
20
2.222126
30
0.0
11
0.562500
21
2.221910
31
0.0
0
LINE
8
TOP
10
0.562500
20
2.221910
30
0.0
11
0.675000
21
2.221520
31
0.0
0
LINE
8
TOP
10
0.675000
20
2.221520
30
0.0
11
0.787500
21
2.221129
31
0.0
0
LINE
8
TOP
10
0.787500
20
2.221129
30
0.0
11
0.900000
21
2.220739
31
0.0
0
LINE
8
TOP
10
0.900000
20
2.220739
30
0.0
11
1.012500
21
2.220349
31
0.0
0
LINE
8
TOP
10
1.012500
20
2.220349
30
0.0
11
1.125000
21
2.219959
31
0.0
0
LINE
8
TOP
10
1.125000
20
2.219959
30
0.0
11
1.237500
21
2.219569
31
0.0
0
LINE
8
TOP
10
1.237500
20
2.219569
30
0.0
11
1.350000
21
2.219178
31
0.0
0
LINE
8
TOP
10
1.350000
20
2.219178
30
0.0
11
1.462500
21
2.218788
31
0.0
0
LINE
8
TOP
10
1.462500
20
2.218788
30
0.0
11
1.575000
21
2.218398
31
0.0
0
LINE
8
TOP
10
1.575000
20
2.218398
30
0.0
11
1.687500
21
2.218008
31
0.0
0
LINE
8
TOP
10
1.687500
20
2.218008
30
0.0
11
1.800000
21
2.217618
31
0.0
0
LINE
8
TOP
10
1.800000
20
2.217618
30
0.0
11
1.912500
21
2.217227
31
0.0
0
LINE
8
TOP
10
1.912500
20
2.217227
30
0.0
11
2.025000
21
2.216837
31
0.0
0
LINE
8
TOP
10
2.025000
20
2.216837
30
0.0
11
2.137500
21
2.216447
31
0.0
0
LINE
8
TOP
10
2.137500
20
2.216447
30
0.0
11
2.250000
21
2.216057
31
0.0
0
LINE
8
TOP
10
2.250000
20
2.216057
30
0.0
11
2.362500
21
2.215667
31
0.0
0
LINE
8
TOP
10
2.362500
20
2.215667
30
0.0
11
2.475000
21
2.215276
31
0.0
0
LINE
8
TOP
10
2.475000
20
2.215276
30
0.0
11
2.587500
21
2.214886
31
0.0
0
LINE
8
TOP
10
2.587500
20
2.214886
30
0.0
11
2.700000
21
2.214496
31
0.0
0
LINE
8
TOP
10
2.700000
20
2.214496
30
0.0
11
2.812500
21
2.214106
31
0.0
0
LINE
8
TOP
10
2.812500
20
2.214106
30
0.0
11
2.925000
21
2.213716
31
0.0
0
LINE
8
TOP
10
2.925000
20
2.213716
30
0.0
11
3.037500
21
2.213325
31
0.0
0
LINE
8
TOP
10
3.037500
20
2.213325
30
0.0
11
3.150000
21
2.212935
31
0.0
0
LINE
8
TOP
10
3.150000
20
2.212935
30
0.0
11
3.262500
21
2.212545
31
0.0
0
LINE
8
TOP
10
3.262500
20
2.212545
30
0.0
11
3.375000
21
2.212155
31
0.0
0
LINE
8
TOP
10
3.375000
20
2.212155
30
0.0
11
3.487500
21
2.211765
31
0.0
0
LINE
8
TOP
10
3.487500
20
2.211765
30
0.0
11
3.600000
21
2.211374
31
0.0
0
LINE
8
TOP
10
3.600000
20
2.211374
30
0.0
11
3.712500
21
2.210984
31
0.0
0
LINE
8
TOP
10
3.712500
20
2.210984
30
0.0
11
3.825000
21
2.210594
31
0.0
0
LINE
8
TOP
10
3.825000
20
2.210594
30
0.0
11
3.937500
21
2.210204
31
0.0
0
LINE
8
TOP
10
3.937500
20
2.210204
30
0.0
11
4.050000
21
2.209814
31
0.0
0
LINE
8
TOP
10
4.050000
20
2.209814
30
0.0
11
4.162500
21
2.209423
31
0.0
0
LINE
8
TOP
10
4.162500
20
2.209423
30
0.0
11
4.275000
21
2.209033
31
0.0
0
LINE
8
TOP
10
4.275000
20
2.209033
30
0.0
11
4.387500
21
2.208643
31
0.0
0
LINE
8
TOP
10
4.387500
20
2.208643
30
0.0
11
4.500000
21
2.208253
31
0.0
0
LINE
8
TOP
10
4.500000
20
2.208253
30
0.0
11
4.612500
21
2.207046
31
0.0
0
LINE
8
TOP
10
4.612500
20
2.207046
30
0.0
11
4.725000
21
2.205839
31
0.0
0
LINE
8
TOP
10
4.725000
20
2.205839
30
0.0
11
4.837500
21
2.204632
31
0.0
0
LINE
8
TOP
10
4.837500
20
2.204632
30
0.0
11
4.950000
21
2.203425
31
0.0
0
LINE
8
TOP
10
4.950000
20
2.203425
30
0.0
11
5.062500
21
2.202219
31
0.0
0
LINE
8
TOP
10
5.062500
20
2.202219
30
0.0
11
5.175000
21
2.201012
31
0.0
0
LINE
8
TOP
10
5.175000
20
2.201012
30
0.0
11
5.287500
21
2.199805
31
0.0
0
LINE
8
TOP
10
5.287500
20
2.199805
30
0.0
11
5.400000
21
2.198598
31
0.0
0
LINE
8
TOP
10
5.400000
20
2.198598
30
0.0
11
5.512500
21
2.197391
31
0.0
0
LINE
8
TOP
10
5.512500
20
2.197391
30
0.0
11
5.625000
21
2.196184
31
0.0
0
LINE
8
TOP
10
5.625000
20
2.196184
30
0.0
11
5.737500
21
2.194977
31
0.0
0
LINE
8
TOP
10
5.737500
20
2.194977
30
0.0
11
5.850000
21
2.193770
31
0.0
0
LINE
8
TOP
10
5.850000
20
2.193770
30
0.0
11
5.962500
21
2.192564
31
0.0
0
LINE
8
TOP
10
5.962500
20
2.192564
30
0.0
11
6.075000
21
2.191357
31
0.0
0
LINE
8
TOP
10
6.075000
20
2.191357
30
0.0
11
6.187500
21
2.190150
31
0.0
0
LINE
8
TOP
10
6.187500
20
2.190150
30
0.0
11
6.300000
21
2.188943
31
0.0
0
LINE
8
TOP
10
6.300000
20
2.188943
30
0.0
11
6.412500
21
2.187736
31
0.0
0
LINE
8
TOP
10
6.412500
20
2.187736
30
0.0
11
6.525000
21
2.186529
31
0.0
0
LINE
8
TOP
10
6.525000
20
2.186529
30
0.0
11
6.637500
21
2.185322
31
0.0
0
LINE
8
TOP
10
6.637500
20
2.185322
30
0.0
11
6.750000
21
2.184115
31
0.0
0
LINE
8
TOP
10
6.750000
20
2.184115
30
0.0
11
6.862500
21
2.182909
31
0.0
0
LINE
8
TOP
10
6.862500
20
2.182909
30
0.0
11
6.975000
21
2.181702
31
0.0
0
LINE
8
TOP
10
6.975000
20
2.181702
30
0.0
11
7.087500
21
2.180495
31
0.0
0
LINE
8
TOP
10
7.087500
20
2.180495
30
0.0
11
7.200000
21
2.179288
31
0.0
0
LINE
8
TOP
10
7.200000
20
2.179288
30
0.0
11
7.312500
21
2.178081
31
0.0
0
LINE
8
TOP
10
7.312500
20
2.178081
30
0.0
11
7.425000
21
2.176874
31
0.0
0
LINE
8
TOP
10
7.425000
20
2.176874
30
0.0
11
7.537500
21
2.175667
31
0.0
0
LINE
8
TOP
10
7.537500
20
2.175667
30
0.0
11
7.650000
21
2.174461
31
0.0
0
LINE
8
TOP
10
7.650000
20
2.174461
30
0.0
11
7.762500
21
2.173254
31
0.0
0
LINE
8
TOP
10
7.762500
20
2.173254
30
0.0
11
7.875000
21
2.172047
31
0.0
0
LINE
8
TOP
10
7.875000
20
2.172047
30
0.0
11
7.987500
21
2.170840
31
0.0
0
LINE
8
TOP
10
7.987500
20
2.170840
30
0.0
11
8.100000
21
2.169633
31
0.0
0
LINE
8
TOP
10
8.100000
20
2.169633
30
0.0
11
8.212500
21
2.168426
31
0.0
0
LINE
8
TOP
10
8.212500
20
2.168426
30
0.0
11
8.325000
21
2.167219
31
0.0
0
LINE
8
TOP
10
8.325000
20
2.167219
30
0.0
11
8.437500
21
2.166012
31
0.0
0
LINE
8
TOP
10
8.437500
20
2.166012
30
0.0
11
8.500000
21
2.165342
31
0.0
0
LINE
8
TOP
10
8.500000
20
2.165342
30
0.0
11
8.550000
21
2.164806
31
0.0
0
LINE
8
TOP
10
8.550000
20
2.164806
30
0.0
11
8.662500
21
2.163599
31
0.0
0
LINE
8
TOP
10
8.662500
20
2.163599
30
0.0
11
8.775000
21
2.162392
31
0.0
0
LINE
8
TOP
10
8.775000
20
2.162392
30
0.0
11
8.887500
21
2.161185
31
0.0
0
LINE
8
TOP
10
8.887500
20
2.161185
30
0.0
11
9.000000
21
2.159978
31
0.0
0
LINE
8
TOP
10
0.000000
20
1.856095
30
0.0
11
0.112500
21
1.856486
31
0.0
0
LINE
8
TOP
10
0.112500
20
1.856486
30
0.0
11
0.225000
21
1.856876
31
0.0
0
LINE
8
TOP
10
0.225000
20
1.856876
30
0.0
11
0.337500
21
1.857266
31
0.0
0
LINE
8
TOP
10
0.337500
20
1.857266
30
0.0
11
0.450000
21
1.857656
31
0.0
0
LINE
8
TOP
10
0.450000
20
1.857656
30
0.0
11
0.500000
21
1.857830
31
0.0
0
LINE
8
TOP
10
0.500000
20
1.857830
30
0.0
11
0.562500
21
1.858046
31
0.0
0
LINE
8
TOP
10
0.562500
20
1.858046
30
0.0
11
0.675000
21
1.858437
31
0.0
0
LINE
8
TOP
10
0.675000
20
1.858437
30
0.0
11
0.787500
21
1.858827
31
0.0
0
LINE
8
TOP
10
0.787500
20
1.858827
30
0.0
11
0.900000
21
1.859217
31
0.0
0
LINE
8
TOP
10
0.900000
20
1.859217
30
0.0
11
1.012500
21
1.859607
31
0.0
0
LINE
8
TOP
10
1.012500
20
1.859607
30
0.0
11
1.125000
21
1.859997
31
0.0
0
LINE
8
TOP
10
1.125000
20
1.859997
30
0.0
11
1.237500
21
1.860388
31
0.0
0
LINE
8
TOP
10
1.237500
20
1.860388
30
0.0
11
1.350000
21
1.860778
31
0.0
0
LINE
8
TOP
10
1.350000
20
1.860778
30
0.0
11
1.462500
21
1.861168
31
0.0
0
LINE
8
TOP
10
1.462500
20
1.861168
30
0.0
11
1.575000
21
1.861558
31
0.0
0
LINE
8
TOP
10
1.575000
20
1.861558
30
0.0
11
1.687500
21
1.861948
31
0.0
0
LINE
8
TOP
10
1.687500
20
1.861948
30
0.0
11
1.800000
21
1.862339
31
0.0
0
LINE
8
TOP
10
1.800000
20
1.862339
30
0.0
11
1.912500
21
1.862729
31
0.0
0
LINE
8
TOP
10
1.912500
20
1.862729
30
0.0
11
2.025000
21
1.863119
31
0.0
0
LINE
8
TOP
10
2.025000
20
1.863119
30
0.0
11
2.137500
21
1.863509
31
0.0
0
LINE
8
TOP
10
2.137500
20
1.863509
30
0.0
11
2.250000
21
1.863899
31
0.0
0
LINE
8
TOP
10
2.250000
20
1.863899
30
0.0
11
2.362500
21
1.864290
31
0.0
0
LINE
8
TOP
10
2.362500
20
1.864290
30
0.0
11
2.475000
21
1.864680
31
0.0
0
LINE
8
TOP
10
2.475000
20
1.864680
30
0.0
11
2.587500
21
1.865070
31
0.0
0
LINE
8
TOP
10
2.587500
20
1.865070
30
0.0
11
2.700000
21
1.865460
31
0.0
0
LINE
8
TOP
10
2.700000
20
1.865460
30
0.0
11
2.812500
21
1.865850
31
0.0
0
LINE
8
TOP
10
2.812500
20
1.865850
30
0.0
11
2.925000
21
1.866241
31
0.0
0
LINE
8
TOP
10
2.925000
20
1.866241
30
0.0
11
3.037500
21
1.866631
31
0.0
0
LINE
8
TOP
10
3.037500
20
1.866631
30
0.0
11
3.150000
21
1.867021
31
0.0
0
LINE
8
TOP
10
3.150000
20
1.867021
30
0.0
11
3.262500
21
1.867411
31
0.0
0
LINE
8
TOP
10
3.262500
20
1.867411
30
0.0
11
3.375000
21
1.867801
31
0.0
0
LINE
8
TOP
10
3.375000
20
1.867801
30
0.0
11
3.487500
21
1.868192
31
0.0
0
LINE
8
TOP
10
3.487500
20
1.868192
30
0.0
11
3.600000
21
1.868582
31
0.0
0
LINE
8
TOP
10
3.600000
20
1.868582
30
0.0
11
3.712500
21
1.868972
31
0.0
0
LINE
8
TOP
10
3.712500
20
1.868972
30
0.0
11
3.825000
21
1.869362
31
0.0
0
LINE
8
TOP
10
3.825000
20
1.869362
30
0.0
11
3.937500
21
1.869752
31
0.0
0
LINE
8
TOP
10
3.937500
20
1.869752
30
0.0
11
4.050000
21
1.870143
31
0.0
0
LINE
8
TOP
10
4.050000
20
1.870143
30
0.0
11
4.162500
21
1.870533
31
0.0
0
LINE
8
TOP
10
4.162500
20
1.870533
30
0.0
11
4.275000
21
1.870923
31
0.0
0
LINE
8
TOP
10
4.275000
20
1.870923
30
0.0
11
4.387500
21
1.871313
31
0.0
0
LINE
8
TOP
10
4.387500
20
1.871313
30
0.0
11
4.500000
21
1.871703
31
0.0
0
LINE
8
TOP
10
4.500000
20
1.871703
30
0.0
11
4.612500
21
1.872910
31
0.0
0
LINE
8
TOP
10
4.612500
20
1.872910
30
0.0
11
4.725000
21
1.874117
31
0.0
0
LINE
8
TOP
10
4.725000
20
1.874117
30
0.0
11
4.837500
21
1.875324
31
0.0
0
LINE
8
TOP
10
4.837500
20
1.875324
30
0.0
11
4.950000
21
1.876531
31
0.0
0
LINE
8
TOP
10
4.950000
20
1.876531
30
0.0
11
5.062500
21
1.877738
31
0.0
0
LINE
8
TOP
10
5.062500
20
1.877738
30
0.0
11
5.175000
21
1.878945
31
0.0
0
LINE
8
TOP
10
5.175000
20
1.878945
30
0.0
11
5.287500
21
1.880151
31
0.0
0
LINE
8
TOP
10
5.287500
20
1.880151
30
0.0
11
5.400000
21
1.881358
31
0.0
0
LINE
8
TOP
10
5.400000
20
1.881358
30
0.0
11
5.512500
21
1.882565
31
0.0
0
LINE
8
TOP
10
5.512500
20
1.882565
30
0.0
11
5.625000
21
1.883772
31
0.0
0
LINE
8
TOP
10
5.625000
20
1.883772
30
0.0
11
5.737500
21
1.884979
31
0.0
0
LINE
8
TOP
10
5.737500
20
1.884979
30
0.0
11
5.850000
21
1.886186
31
0.0
0
LINE
8
TOP
10
5.850000
20
1.886186
30
0.0
11
5.962500
21
1.887393
31
0.0
0
LINE
8
TOP
10
5.962500
20
1.887393
30
0.0
11
6.075000
21
1.888599
31
0.0
0
LINE
8
TOP
10
6.075000
20
1.888599
30
0.0
11
6.187500
21
1.889806
31
0.0
0
LINE
8
TOP
10
6.187500
20
1.889806
30
0.0
11
6.300000
21
1.891013
31
0.0
0
LINE
8
TOP
10
6.300000
20
1.891013
30
0.0
11
6.412500
21
1.892220
31
0.0
0
LINE
8
TOP
10
6.412500
20
1.892220
30
0.0
11
6.525000
21
1.893427
31
0.0
0
LINE
8
TOP
10
6.525000
20
1.893427
30
0.0
11
6.637500
21
1.894634
31
0.0
0
LINE
8
TOP
10
6.637500
20
1.894634
30
0.0
11
6.750000
21
1.895841
31
0.0
0
LINE
8
TOP
10
6.750000
20
1.895841
30
0.0
11
6.862500
21
1.897048
31
0.0
0
LINE
8
TOP
10
6.862500
20
1.897048
30
0.0
11
6.975000
21
1.898254
31
0.0
0
LINE
8
TOP
10
6.975000
20
1.898254
30
0.0
11
7.087500
21
1.899461
31
0.0
0
LINE
8
TOP
10
7.087500
20
1.899461
30
0.0
11
7.200000
21
1.900668
31
0.0
0
LINE
8
TOP
10
7.200000
20
1.900668
30
0.0
11
7.312500
21
1.901875
31
0.0
0
LINE
8
TOP
10
7.312500
20
1.901875
30
0.0
11
7.425000
21
1.903082
31
0.0
0
LINE
8
TOP
10
7.425000
20
1.903082
30
0.0
11
7.537500
21
1.904289
31
0.0
0
LINE
8
TOP
10
7.537500
20
1.904289
30
0.0
11
7.650000
21
1.905496
31
0.0
0
LINE
8
TOP
10
7.650000
20
1.905496
30
0.0
11
7.762500
21
1.906703
31
0.0
0
LINE
8
TOP
10
7.762500
20
1.906703
30
0.0
11
7.875000
21
1.907909
31
0.0
0
LINE
8
TOP
10
7.875000
20
1.907909
30
0.0
11
7.987500
21
1.909116
31
0.0
0
LINE
8
TOP
10
7.987500
20
1.909116
30
0.0
11
8.100000
21
1.910323
31
0.0
0
LINE
8
TOP
10
8.100000
20
1.910323
30
0.0
11
8.212500
21
1.911530
31
0.0
0
LINE
8
TOP
10
8.212500
20
1.911530
30
0.0
11
8.325000
21
1.912737
31
0.0
0
LINE
8
TOP
10
8.325000
20
1.912737
30
0.0
11
8.437500
21
1.913944
31
0.0
0
LINE
8
TOP
10
8.437500
20
1.913944
30
0.0
11
8.500000
21
1.914614
31
0.0
0
LINE
8
TOP
10
8.500000
20
1.914614
30
0.0
11
8.550000
21
1.915151
31
0.0
0
LINE
8
TOP
10
8.550000
20
1.915151
30
0.0
11
8.662500
21
1.916357
31
0.0
0
LINE
8
TOP
10
8.662500
20
1.916357
30
0.0
11
8.775000
21
1.917564
31
0.0
0
LINE
8
TOP
10
8.775000
20
1.917564
30
0.0
11
8.887500
21
1.918771
31
0.0
0
LINE
8
TOP
10
8.887500
20
1.918771
30
0.0
11
9.000000
21
1.919978
31
0.0
0
LINE
8
TOP
10
0.000000
20
2.223861
30
0.0
11
0.000000
21
1.856095
31
0.0
0
LINE
8
TOP
10
9.000000
20
2.159978
30
0.0
11
9.000000
21
1.919978
31
0.0
0
LINE
8
SECTION
10
10.331725
20
-0.364377
30
0.0
11
10.668275
21
-0.364377
31
0.0
0
LINE
8
SECTION
10
10.668275
20
-0.364377
30
0.0
11
10.668275
21
0.364377
31
0.0
0
LINE
8
SECTION
10
10.668275
20
0.364377
30
0.0
11
10.331725
21
0.364377
31
0.0
0
LINE
8
SECTION
10
10.331725
20
0.364377
30
0.0
11
10.331725
21
-0.364377
31
0.0
0
LINE
8
SECTION
10
10.399350
20
-0.296752
30
0.0
11
10.600650
21
-0.296752
31
0.0
0
LINE
8
SECTION
10
10.600650
20
-0.296752
30
0.0
11
10.600650
21
0.296752
31
0.0
0
LINE
8
SECTION
10
10.600650
20
0.296752
30
0.0
11
10.399350
21
0.296752
31
0.0
0
LINE
8
SECTION
10
10.399350
20
0.296752
30
0.0
11
10.399350
21
-0.296752
31
0.0
0
LINE
8
SECTION
10
10.399350
20
0.000000
30
0.0
11
10.466976
21
0.000000
31
0.0
0
LINE
8
SECTION
10
10.466976
20
0.000000
30
0.0
11
10.466976
21
0.296752
31
0.0
0
LINE
8
SECTION
10
10.466976
20
0.296752
30
0.0
11
10.399350
21
0.296752
31
0.0
0
LINE
8
SECTION
10
10.399350
20
0.296752
30
0.0
11
10.399350
21
0.000000
31
0.0
0
LINE
8
SECTION
10
10.399350
20
-0.296752
30
0.0
11
10.466976
21
-0.296752
31
0.0
0
LINE
8
SECTION
10
10.466976
20
-0.296752
30
0.0
11
10.466976
21
0.000000
31
0.0
0
LINE
8
SECTION
10
10.466976
20
0.000000
30
0.0
11
10.399350
21
0.000000
31
0.0
0
LINE
8
SECTION
10
10.399350
20
0.000000
30
0.0
11
10.399350
21
-0.296752
31
0.0
0
LINE
8
SECTION
10
10.533024
20
0.000000
30
0.0
11
10.600650
21
0.000000
31
0.0
0
LINE
8
SECTION
10
10.600650
20
0.000000
30
0.0
11
10.600650
21
0.296752
31
0.0
0
LINE
8
SECTION
10
10.600650
20
0.296752
30
0.0
11
10.533024
21
0.296752
31
0.0
0
LINE
8
SECTION
10
10.533024
20
0.296752
30
0.0
11
10.533024
21
0.000000
31
0.0
0
LINE
8
SECTION
10
10.533024
20
-0.296752
30
0.0
11
10.600650
21
-0.296752
31
0.0
0
LINE
8
SECTION
10
10.600650
20
-0.296752
30
0.0
11
10.600650
21
0.000000
31
0.0
0
LINE
8
SECTION
10
10.600650
20
0.000000
30
0.0
11
10.533024
21
0.000000
31
0.0
0
LINE
8
SECTION
10
10.533024
20
0.000000
30
0.0
11
10.533024
21
-0.296752
31
0.0
0
ENDSEC
0
EOF
