0
SECTION
2
HEADER
9
$INSUNITS
70
1
0
ENDSEC
0
SECTION
2
ENTITIES
0
LINE
8
FRONT
10
0.000000
20
0.322729
30
0.0
11
0.112500
21
0.321561
31
0.0
0
LINE
8
FRONT
10
0.112500
20
0.321561
30
0.0
11
0.225000
21
0.320394
31
0.0
0
LINE
8
FRONT
10
0.225000
20
0.320394
30
0.0
11
0.337500
21
0.319226
31
0.0
0
LINE
8
FRONT
10
0.337500
20
0.319226
30
0.0
11
0.450000
21
0.318058
31
0.0
0
LINE
8
FRONT
10
0.450000
20
0.318058
30
0.0
11
0.500000
21
0.317539
31
0.0
0
LINE
8
FRONT
10
0.500000
20
0.317539
30
0.0
11
0.562500
21
0.316891
31
0.0
0
LINE
8
FRONT
10
0.562500
20
0.316891
30
0.0
11
0.675000
21
0.315723
31
0.0
0
LINE
8
FRONT
10
0.675000
20
0.315723
30
0.0
11
0.787500
21
0.314555
31
0.0
0
LINE
8
FRONT
10
0.787500
20
0.314555
30
0.0
11
0.900000
21
0.313388
31
0.0
0
LINE
8
FRONT
10
0.900000
20
0.313388
30
0.0
11
1.012500
21
0.312220
31
0.0
0
LINE
8
FRONT
10
1.012500
20
0.312220
30
0.0
11
1.125000
21
0.311052
31
0.0
0
LINE
8
FRONT
10
1.125000
20
0.311052
30
0.0
11
1.237500
21
0.309885
31
0.0
0
LINE
8
FRONT
10
1.237500
20
0.309885
30
0.0
11
1.350000
21
0.308717
31
0.0
0
LINE
8
FRONT
10
1.350000
20
0.308717
30
0.0
11
1.462500
21
0.307549
31
0.0
0
LINE
8
FRONT
10
1.462500
20
0.307549
30
0.0
11
1.575000
21
0.306382
31
0.0
0
LINE
8
FRONT
10
1.575000
20
0.306382
30
0.0
11
1.687500
21
0.305214
31
0.0
0
LINE
8
FRONT
10
1.687500
20
0.305214
30
0.0
11
1.800000
21
0.304047
31
0.0
0
LINE
8
FRONT
10
1.800000
20
0.304047
30
0.0
11
1.912500
21
0.302879
31
0.0
0
LINE
8
FRONT
10
1.912500
20
0.302879
30
0.0
11
2.025000
21
0.301711
31
0.0
0
LINE
8
FRONT
10
2.025000
20
0.301711
30
0.0
11
2.137500
21
0.300544
31
0.0
0
LINE
8
FRONT
10
2.137500
20
0.300544
30
0.0
11
2.250000
21
0.299376
31
0.0
0
LINE
8
FRONT
10
2.250000
20
0.299376
30
0.0
11
2.362500
21
0.298208
31
0.0
0
LINE
8
FRONT
10
2.362500
20
0.298208
30
0.0
11
2.475000
21
0.297041
31
0.0
0
LINE
8
FRONT
10
2.475000
20
0.297041
30
0.0
11
2.587500
21
0.295873
31
0.0
0
LINE
8
FRONT
10
2.587500
20
0.295873
30
0.0
11
2.700000
21
0.294705
31
0.0
0
LINE
8
FRONT
10
2.700000
20
0.294705
30
0.0
11
2.812500
21
0.293538
31
0.0
0
LINE
8
FRONT
10
2.812500
20
0.293538
30
0.0
11
2.925000
21
0.292370
31
0.0
0
LINE
8
FRONT
10
2.925000
20
0.292370
30
0.0
11
3.037500
21
0.291202
31
0.0
0
LINE
8
FRONT
10
3.037500
20
0.291202
30
0.0
11
3.150000
21
0.290035
31
0.0
0
LINE
8
FRONT
10
3.150000
20
0.290035
30
0.0
11
3.262500
21
0.288867
31
0.0
0
LINE
8
FRONT
10
3.262500
20
0.288867
30
0.0
11
3.375000
21
0.287700
31
0.0
0
LINE
8
FRONT
10
3.375000
20
0.287700
30
0.0
11
3.487500
21
0.286532
31
0.0
0
LINE
8
FRONT
10
3.487500
20
0.286532
30
0.0
11
3.600000
21
0.285364
31
0.0
0
LINE
8
FRONT
10
3.600000
20
0.285364
30
0.0
11
3.712500
21
0.284197
31
0.0
0
LINE
8
FRONT
10
3.712500
20
0.284197
30
0.0
11
3.825000
21
0.283029
31
0.0
0
LINE
8
FRONT
10
3.825000
20
0.283029
30
0.0
11
3.937500
21
0.281861
31
0.0
0
LINE
8
FRONT
10
3.937500
20
0.281861
30
0.0
11
4.050000
21
0.280694
31
0.0
0
LINE
8
FRONT
10
4.050000
20
0.280694
30
0.0
11
4.162500
21
0.279526
31
0.0
0
LINE
8
FRONT
10
4.162500
20
0.279526
30
0.0
11
4.275000
21
0.278358
31
0.0
0
LINE
8
FRONT
10
4.275000
20
0.278358
30
0.0
11
4.387500
21
0.277191
31
0.0
0
LINE
8
FRONT
10
4.387500
20
0.277191
30
0.0
11
4.500000
21
0.276023
31
0.0
0
LINE
8
FRONT
10
4.500000
20
0.276023
30
0.0
11
4.612500
21
0.275237
31
0.0
0
LINE
8
FRONT
10
4.612500
20
0.275237
30
0.0
11
4.725000
21
0.274451
31
0.0
0
LINE
8
FRONT
10
4.725000
20
0.274451
30
0.0
11
4.837500
21
0.273664
31
0.0
0
LINE
8
FRONT
10
4.837500
20
0.273664
30
0.0
11
4.950000
21
0.272878
31
0.0
0
LINE
8
FRONT
10
4.950000
20
0.272878
30
0.0
11
5.062500
21
0.272092
31
0.0
0
LINE
8
FRONT
10
5.062500
20
0.272092
30
0.0
11
5.175000
21
0.271305
31
0.0
0
LINE
8
FRONT
10
5.175000
20
0.271305
30
0.0
11
5.287500
21
0.270519
31
0.0
0
LINE
8
FRONT
10
5.287500
20
0.270519
30
0.0
11
5.400000
21
0.269733
31
0.0
0
LINE
8
FRONT
10
5.400000
20
0.269733
30
0.0
11
5.512500
21
0.268947
31
0.0
0
LINE
8
FRONT
10
5.512500
20
0.268947
30
0.0
11
5.625000
21
0.268160
31
0.0
0
LINE
8
FRONT
10
5.625000
20
0.268160
30
0.0
11
5.737500
21
0.267374
31
0.0
0
LINE
8
FRONT
10
5.737500
20
0.267374
30
0.0
11
5.850000
21
0.266588
31
0.0
0
LINE
8
FRONT
10
5.850000
20
0.266588
30
0.0
11
5.962500
21
0.265802
31
0.0
0
LINE
8
FRONT
10
5.962500
20
0.265802
30
0.0
11
6.075000
21
0.265015
31
0.0
0
LINE
8
FRONT
10
6.075000
20
0.265015
30
0.0
11
6.187500
21
0.264229
31
0.0
0
LINE
8
FRONT
10
6.187500
20
0.264229
30
0.0
11
6.300000
21
0.263443
31
0.0
0
LINE
8
FRONT
10
6.300000
20
0.263443
30
0.0
11
6.412500
21
0.262657
31
0.0
0
LINE
8
FRONT
10
6.412500
20
0.262657
30
0.0
11
6.525000
21
0.261870
31
0.0
0
LINE
8
FRONT
10
6.525000
20
0.261870
30
0.0
11
6.637500
21
0.261084
31
0.0
0
LINE
8
FRONT
10
6.637500
20
0.261084
30
0.0
11
6.750000
21
0.260298
31
0.0
0
LINE
8
FRONT
10
6.750000
20
0.260298
30
0.0
11
6.862500
21
0.259512
31
0.0
0
LINE
8
FRONT
10
6.862500
20
0.259512
30
0.0
11
6.975000
21
0.258725
31
0.0
0
LINE
8
FRONT
10
6.975000
20
0.258725
30
0.0
11
7.087500
21
0.257939
31
0.0
0
LINE
8
FRONT
10
7.087500
20
0.257939
30
0.0
11
7.200000
21
0.257153
31
0.0
0
LINE
8
FRONT
10
7.200000
20
0.257153
30
0.0
11
7.312500
21
0.256366
31
0.0
0
LINE
8
FRONT
10
7.312500
20
0.256366
30
0.0
11
7.425000
21
0.255580
31
0.0
0
LINE
8
FRONT
10
7.425000
20
0.255580
30
0.0
11
7.537500
21
0.254794
31
0.0
0
LINE
8
FRONT
10
7.537500
20
0.254794
30
0.0
11
7.650000
21
0.254008
31
0.0
0
LINE
8
FRONT
10
7.650000
20
0.254008
30
0.0
11
7.762500
21
0.253221
31
0.0
0
LINE
8
FRONT
10
7.762500
20
0.253221
30
0.0
11
7.875000
21
0.252435
31
0.0
0
LINE
8
FRONT
10
7.875000
20
0.252435
30
0.0
11
7.987500
21
0.251649
31
0.0
0
LINE
8
FRONT
10
7.987500
20
0.251649
30
0.0
11
8.100000
21
0.250863
31
0.0
0
LINE
8
FRONT
10
8.100000
20
0.250863
30
0.0
11
8.212500
21
0.250076
31
0.0
0
LINE
8
FRONT
10
8.212500
20
0.250076
30
0.0
11
8.325000
21
0.249290
31
0.0
0
LINE
8
FRONT
10
8.325000
20
0.249290
30
0.0
11
8.437500
21
0.248504
31
0.0
0
LINE
8
FRONT
10
8.437500
20
0.248504
30
0.0
11
8.500000
21
0.248067
31
0.0
0
LINE
8
FRONT
10
8.500000
20
0.248067
30
0.0
11
8.550000
21
0.247718
31
0.0
0
LINE
8
FRONT
10
8.550000
20
0.247718
30
0.0
11
8.662500
21
0.246931
31
0.0
0
LINE
8
FRONT
10
8.662500
20
0.246931
30
0.0
11
8.775000
21
0.246145
31
0.0
0
LINE
8
FRONT
10
8.775000
20
0.246145
30
0.0
11
8.887500
21
0.245359
31
0.0
0
LINE
8
FRONT
10
8.887500
20
0.245359
30
0.0
11
9.000000
21
0.244573
31
0.0
0
LINE
8
FRONT
10
0.000000
20
-0.322729
30
0.0
11
0.112500
21
-0.321561
31
0.0
0
LINE
8
FRONT
10
0.112500
20
-0.321561
30
0.0
11
0.225000
21
-0.320394
31
0.0
0
LINE
8
FRONT
10
0.225000
20
-0.320394
30
0.0
11
0.337500
21
-0.319226
31
0.0
0
LINE
8
FRONT
10
0.337500
20
-0.319226
30
0.0
11
0.450000
21
-0.318058
31
0.0
0
LINE
8
FRONT
10
0.450000
20
-0.318058
30
0.0
11
0.500000
21
-0.317539
31
0.0
0
LINE
8
FRONT
10
0.500000
20
-0.317539
30
0.0
11
0.562500
21
-0.316891
31
0.0
0
LINE
8
FRONT
10
0.562500
20
-0.316891
30
0.0
11
0.675000
21
-0.315723
31
0.0
0
LINE
8
FRONT
10
0.675000
20
-0.315723
30
0.0
11
0.787500
21
-0.314555
31
0.0
0
LINE
8
FRONT
10
0.787500
20
-0.314555
30
0.0
11
0.900000
21
-0.313388
31
0.0
0
LINE
8
FRONT
10
0.900000
20
-0.313388
30
0.0
11
1.012500
21
-0.312220
31
0.0
0
LINE
8
FRONT
10
1.012500
20
-0.312220
30
0.0
11
1.125000
21
-0.311052
31
0.0
0
LINE
8
FRONT
10
1.125000
20
-0.311052
30
0.0
11
1.237500
21
-0.309885
31
0.0
0
LINE
8
FRONT
10
1.237500
20
-0.309885
30
0.0
11
1.350000
21
-0.308717
31
0.0
0
LINE
8
FRONT
10
1.350000
20
-0.308717
30
0.0
11
1.462500
21
-0.307549
31
0.0
0
LINE
8
FRONT
10
1.462500
20
-0.307549
30
0.0
11
1.575000
21
-0.306382
31
0.0
0
LINE
8
FRONT
10
1.575000
20
-0.306382
30
0.0
11
1.687500
21
-0.305214
31
0.0
0
LINE
8
FRONT
10
1.687500
20
-0.305214
30
0.0
11
1.800000
21
-0.304047
31
0.0
0
LINE
8
FRONT
10
1.800000
20
-0.304047
30
0.0
11
1.912500
21
-0.302879
31
0.0
0
LINE
8
FRONT
10
1.912500
20
-0.302879
30
0.0
11
2.025000
21
-0.301711
31
0.0
0
LINE
8
FRONT
10
2.025000
20
-0.301711
30
0.0
11
2.137500
21
-0.300544
31
0.0
0
LINE
8
FRONT
10
2.137500
20
-0.300544
30
0.0
11
2.250000
21
-0.299376
31
0.0
0
LINE
8
FRONT
10
2.250000
20
-0.299376
30
0.0
11
2.362500
21
-0.298208
31
0.0
0
LINE
8
FRONT
10
2.362500
20
-0.298208
30
0.0
11
2.475000
21
-0.297041
31
0.0
0
LINE
8
FRONT
10
2.475000
20
-0.297041
30
0.0
11
2.587500
21
-0.295873
31
0.0
0
LINE
8
FRONT
10
2.587500
20
-0.295873
30
0.0
11
2.700000
21
-0.294705
31
0.0
0
LINE
8
FRONT
10
2.700000
20
-0.294705
30
0.0
11
2.812500
21
-0.293538
31
0.0
0
LINE
8
FRONT
10
2.812500
20
-0.293538
30
0.0
11
2.925000
21
-0.292370
31
0.0
0
LINE
8
FRONT
10
2.925000
20
-0.292370
30
0.0
11
3.037500
21
-0.291202
31
0.0
0
LINE
8
FRONT
10
3.037500
20
-0.291202
30
0.0
11
3.150000
21
-0.290035
31
0.0
0
LINE
8
FRONT
10
3.150000
20
-0.290035
30
0.0
11
3.262500
21
-0.288867
31
0.0
0
LINE
8
FRONT
10
3.262500
20
-0.288867
30
0.0
11
3.375000
21
-0.287700
31
0.0
0
LINE
8
FRONT
10
3.375000
20
-0.287700
30
0.0
11
3.487500
21
-0.286532
31
0.0
0
LINE
8
FRONT
10
3.487500
20
-0.286532
30
0.0
11
3.600000
21
-0.285364
31
0.0
0
LINE
8
FRONT
10
3.600000
20
-0.285364
30
0.0
11
3.712500
21
-0.284197
31
0.0
0
LINE
8
FRONT
10
3.712500
20
-0.284197
30
0.0
11
3.825000
21
-0.283029
31
0.0
0
LINE
8
FRONT
10
3.825000
20
-0.283029
30
0.0
11
3.937500
21
-0.281861
31
0.0
0
LINE
8
FRONT
10
3.937500
20
-0.281861
30
0.0
11
4.050000
21
-0.280694
31
0.0
0
LINE
8
FRONT
10
4.050000
20
-0.280694
30
0.0
11
4.162500
21
-0.279526
31
0.0
0
LINE
8
FRONT
10
4.162500
20
-0.279526
30
0.0
11
4.275000
21
-0.278358
31
0.0
0
LINE
8
FRONT
10
4.275000
20
-0.278358
30
0.0
11
4.387500
21
-0.277191
31
0.0
0
LINE
8
FRONT
10
4.387500
20
-0.277191
30
0.0
11
4.500000
21
-0.276023
31
0.0
0
LINE
8
FRONT
10
4.500000
20
-0.276023
30
0.0
11
4.612500
21
-0.275237
31
0.0
0
LINE
8
FRONT
10
4.612500
20
-0.275237
30
0.0
11
4.725000
21
-0.274451
31
0.0
0
LINE
8
FRONT
10
4.725000
20
-0.274451
30
0.0
11
4.837500
21
-0.273664
31
0.0
0
LINE
8
FRONT
10
4.837500
20
-0.273664
30
0.0
11
4.950000
21
-0.272878
31
0.0
0
LINE
8
FRONT
10
4.950000
20
-0.272878
30
0.0
11
5.062500
21
-0.272092
31
0.0
0
LINE
8
FRONT
10
5.062500
20
-0.272092
30
0.0
11
5.175000
21
-0.271305
31
0.0
0
LINE
8
FRONT
10
5.175000
20
-0.271305
30
0.0
11
5.287500
21
-0.270519
31
0.0
0
LINE
8
FRONT
10
5.287500
20
-0.270519
30
0.0
11
5.400000
21
-0.269733
31
0.0
0
LINE
8
FRONT
10
5.400000
20
-0.269733
30
0.0
11
5.512500
21
-0.268947
31
0.0
0
LINE
8
FRONT
10
5.512500
20
-0.268947
30
0.0
11
5.625000
21
-0.268160
31
0.0
0
LINE
8
FRONT
10
5.625000
20
-0.268160
30
0.0
11
5.737500
21
-0.267374
31
0.0
0
LINE
8
FRONT
10
5.737500
20
-0.267374
30
0.0
11
5.850000
21
-0.266588
31
0.0
0
LINE
8
FRONT
10
5.850000
20
-0.266588
30
0.0
11
5.962500
21
-0.265802
31
0.0
0
LINE
8
FRONT
10
5.962500
20
-0.265802
30
0.0
11
6.075000
21
-0.265015
31
0.0
0
LINE
8
FRONT
10
6.075000
20
-0.265015
30
0.0
11
6.187500
21
-0.264229
31
0.0
0
LINE
8
FRONT
10
6.187500
20
-0.264229
30
0.0
11
6.300000
21
-0.263443
31
0.0
0
LINE
8
FRONT
10
6.300000
20
-0.263443
30
0.0
11
6.412500
21
-0.262657
31
0.0
0
LINE
8
FRONT
10
6.412500
20
-0.262657
30
0.0
11
6.525000
21
-0.261870
31
0.0
0
LINE
8
FRONT
10
6.525000
20
-0.261870
30
0.0
11
6.637500
21
-0.261084
31
0.0
0
LINE
8
FRONT
10
6.637500
20
-0.261084
30
0.0
11
6.750000
21
-0.260298
31
0.0
0
LINE
8
FRONT
10
6.750000
20
-0.260298
30
0.0
11
6.862500
21
-0.259512
31
0.0
0
LINE
8
FRONT
10
6.862500
20
-0.259512
30
0.0
11
6.975000
21
-0.258725
31
0.0
0
LINE
8
FRONT
10
6.975000
20
-0.258725
30
0.0
11
7.087500
21
-0.257939
31
0.0
0
LINE
8
FRONT
10
7.087500
20
-0.257939
30
0.0
11
7.200000
21
-0.257153
31
0.0
0
LINE
8
FRONT
10
7.200000
20
-0.257153
30
0.0
11
7.312500
21
-0.256366
31
0.0
0
LINE
8
FRONT
10
7.312500
20
-0.256366
30
0.0
11
7.425000
21
-0.255580
31
0.0
0
LINE
8
FRONT
10
7.425000
20
-0.255580
30
0.0
11
7.537500
21
-0.254794
31
0.0
0
LINE
8
FRONT
10
7.537500
20
-0.254794
30
0.0
11
7.650000
21
-0.254008
31
0.0
0
LINE
8
FRONT
10
7.650000
20
-0.254008
30
0.0
11
7.762500
21
-0.253221
31
0.0
0
LINE
8
FRONT
10
7.762500
20
-0.253221
30
0.0
11
7.875000
21
-0.252435
31
0.0
0
LINE
8
FRONT
10
7.875000
20
-0.252435
30
0.0
11
7.987500
21
-0.251649
31
0.0
0
LINE
8
FRONT
10
7.987500
20
-0.251649
30
0.0
11
8.100000
21
-0.250863
31
0.0
0
LINE
8
FRONT
10
8.100000
20
-0.250863
30
0.0
11
8.212500
21
-0.250076
31
0.0
0
LINE
8
FRONT
10
8.212500
20
-0.250076
30
0.0
11
8.325000
21
-0.249290
31
0.0
0
LINE
8
FRONT
10
8.325000
20
-0.249290
30
0.0
11
8.437500
21
-0.248504
31
0.0
0
LINE
8
FRONT
10
8.437500
20
-0.248504
30
0.0
11
8.500000
21
-0.248067
31
0.0
0
LINE
8
FRONT
10
8.500000
20
-0.248067
30
0.0
11
8.550000
21
-0.247718
31
0.0
0
LINE
8
FRONT
10
8.550000
20
-0.247718
30
0.0
11
8.662500
21
-0.246931
31
0.0
0
LINE
8
FRONT
10
8.662500
20
-0.246931
30
0.0
11
8.775000
21
-0.246145
31
0.0
0
LINE
8
FRONT
10
8.775000
20
-0.246145
30
0.0
11
8.887500
21
-0.245359
31
0.0
0
LINE
8
FRONT
10
8.887500
20
-0.245359
30
0.0
11
9.000000
21
-0.244573
31
0.0
0
LINE
8
FRONT
10
0.000000
20
0.322729
30
0.0
11
0.000000
21
-0.322729
31
0.0
0
LINE
8
FRONT
10
9.000000
20
0.244573
30
0.0
11
9.000000
21
-0.244573
31
0.0
0
LINE
8
TOP
10
0.000000
20
1.844933
30
0.0
11
0.112500
21
1.846805
31
0.0
0
LINE
8
TOP
10
0.112500
20
1.846805
30
0.0
11
0.225000
21
1.848677
31
0.0
0
LINE
8
TOP
10
0.225000
20
1.848677
30
0.0
11
0.337500
21
1.850549
31
0.0
0
LINE
8
TOP
10
0.337500
20
1.850549
30
0.0
11
0.450000
21
1.852421
31
0.0
0
LINE
8
TOP
10
0.450000
20
1.852421
30
0.0
11
0.500000
21
1.853253
31
0.0
0
LINE
8
TOP
10
0.500000
20
1.853253
30
0.0
11
0.562500
21
1.854293
31
0.0
0
LINE
8
TOP
10
0.562500
20
1.854293
30
0.0
11
0.675000
21
1.856165
31
0.0
0
LINE
8
TOP
10
0.675000
20
1.856165
30
0.0
11
0.787500
21
1.858037
31
0.0
0
LINE
8
TOP
10
0.787500
20
1.858037
30
0.0
11
0.900000
21
1.859909
31
0.0
0
LINE
8
TOP
10
0.900000
20
1.859909
30
0.0
11
1.012500
21
1.861781
31
0.0
0
LINE
8
TOP
10
1.012500
20
1.861781
30
0.0
11
1.125000
21
1.863653
31
0.0
0
LINE
8
TOP
10
1.125000
20
1.863653
30
0.0
11
1.237500
21
1.865525
31
0.0
0
LINE
8
TOP
10
1.237500
20
1.865525
30
0.0
11
1.350000
21
1.867397
31
0.0
0
LINE
8
TOP
10
1.350000
20
1.867397
30
0.0
11
1.462500
21
1.869269
31
0.0
0
LINE
8
TOP
10
1.462500
20
1.869269
30
0.0
11
1.575000
21
1.871141
31
0.0
0
LINE
8
TOP
10
1.575000
20
1.871141
30
0.0
11
1.687500
21
1.873013
31
0.0
0
LINE
8
TOP
10
1.687500
20
1.873013
30
0.0
11
1.800000
21
1.874885
31
0.0
0
LINE
8
TOP
10
1.800000
20
1.874885
30
0.0
11
1.912500
21
1.876757
31
0.0
0
LINE
8
TOP
10
1.912500
20
1.876757
30
0.0
11
2.025000
21
1.878629
31
0.0
0
LINE
8
TOP
10
2.025000
20
1.878629
30
0.0
11
2.137500
21
1.880501
31
0.0
0
LINE
8
TOP
10
2.137500
20
1.880501
30
0.0
11
2.250000
21
1.882373
31
0.0
0
LINE
8
TOP
10
2.250000
20
1.882373
30
0.0
11
2.362500
21
1.884245
31
0.0
0
LINE
8
TOP
10
2.362500
20
1.884245
30
0.0
11
2.475000
21
1.886117
31
0.0
0
LINE
8
TOP
10
2.475000
20
1.886117
30
0.0
11
2.587500
21
1.887989
31
0.0
0
LINE
8
TOP
10
2.587500
20
1.887989
30
0.0
11
2.700000
21
1.889861
31
0.0
0
LINE
8
TOP
10
2.700000
20
1.889861
30
0.0
11
2.812500
21
1.891733
31
0.0
0
LINE
8
TOP
10
2.812500
20
1.891733
30
0.0
11
2.925000
21
1.893605
31
0.0
0
LINE
8
TOP
10
2.925000
20
1.893605
30
0.0
11
3.037500
21
1.895477
31
0.0
0
LINE
8
TOP
10
3.037500
20
1.895477
30
0.0
11
3.150000
21
1.897349
31
0.0
0
LINE
8
TOP
10
3.150000
20
1.897349
30
0.0
11
3.262500
21
1.899221
31
0.0
0
LINE
8
TOP
10
3.262500
20
1.899221
30
0.0
11
3.375000
21
1.901093
31
0.0
0
LINE
8
TOP
10
3.375000
20
1.901093
30
0.0
11
3.487500
21
1.902965
31
0.0
0
LINE
8
TOP
10
3.487500
20
1.902965
30
0.0
11
3.600000
21
1.904837
31
0.0
0
LINE
8
TOP
10
3.600000
20
1.904837
30
0.0
11
3.712500
21
1.906709
31
0.0
0
LINE
8
TOP
10
3.712500
20
1.906709
30
0.0
11
3.825000
21
1.908581
31
0.0
0
LINE
8
TOP
10
3.825000
20
1.908581
30
0.0
11
3.937500
21
1.910453
31
0.0
0
LINE
8
TOP
10
3.937500
20
1.910453
30
0.0
11
4.050000
21
1.912325
31
0.0
0
LINE
8
TOP
10
4.050000
20
1.912325
30
0.0
11
4.162500
21
1.914197
31
0.0
0
LINE
8
TOP
10
4.162500
20
1.914197
30
0.0
11
4.275000
21
1.916069
31
0.0
0
LINE
8
TOP
10
4.275000
20
1.916069
30
0.0
11
4.387500
21
1.917941
31
0.0
0
LINE
8
TOP
10
4.387500
20
1.917941
30
0.0
11
4.500000
21
1.919813
31
0.0
0
LINE
8
TOP
10
4.500000
20
1.919813
30
0.0
11
4.612500
21
1.919639
31
0.0
0
LINE
8
TOP
10
4.612500
20
1.919639
30
0.0
11
4.725000
21
1.919465
31
0.0
0
LINE
8
TOP
10
4.725000
20
1.919465
30
0.0
11
4.837500
21
1.919292
31
0.0
0
LINE
8
TOP
10
4.837500
20
1.919292
30
0.0
11
4.950000
21
1.919118
31
0.0
0
LINE
8
TOP
10
4.950000
20
1.919118
30
0.0
11
5.062500
21
1.918944
31
0.0
0
LINE
8
TOP
10
5.062500
20
1.918944
30
0.0
11
5.175000
21
1.918770
31
0.0
0
LINE
8
TOP
10
5.175000
20
1.918770
30
0.0
11
5.287500
21
1.918596
31
0.0
0
LINE
8
TOP
10
5.287500
20
1.918596
30
0.0
11
5.400000
21
1.918422
31
0.0
0
LINE
8
TOP
10
5.400000
20
1.918422
30
0.0
11
5.512500
21
1.918248
31
0.0
0
LINE
8
TOP
10
5.512500
20
1.918248
30
0.0
11
5.625000
21
1.918075
31
0.0
0
LINE
8
TOP
10
5.625000
20
1.918075
30
0.0
11
5.737500
21
1.917901
31
0.0
0
LINE
8
TOP
10
5.737500
20
1.917901
30
0.0
11
5.850000
21
1.917727
31
0.0
0
LINE
8
TOP
10
5.850000
20
1.917727
30
0.0
11
5.962500
21
1.917553
31
0.0
0
LINE
8
TOP
10
5.962500
20
1.917553
30
0.0
11
6.075000
21
1.917379
31
0.0
0
LINE
8
TOP
10
6.075000
20
1.917379
30
0.0
11
6.187500
21
1.917205
31
0.0
0
LINE
8
TOP
10
6.187500
20
1.917205
30
0.0
11
6.300000
21
1.917032
31
0.0
0
LINE
8
TOP
10
6.300000
20
1.917032
30
0.0
11
6.412500
21
1.916858
31
0.0
0
LINE
8
TOP
10
6.412500
20
1.916858
30
0.0
11
6.525000
21
1.916684
31
0.0
0
LINE
8
TOP
10
6.525000
20
1.916684
30
0.0
11
6.637500
21
1.916510
31
0.0
0
LINE
8
TOP
10
6.637500
20
1.916510
30
0.0
11
6.750000
21
1.916336
31
0.0
0
LINE
8
TOP
10
6.750000
20
1.916336
30
0.0
11
6.862500
21
1.916162
31
0.0
0
LINE
8
TOP
10
6.862500
20
1.916162
30
0.0
11
6.975000
21
1.915989
31
0.0
0
LINE
8
TOP
10
6.975000
20
1.915989
30
0.0
11
7.087500
21
1.915815
31
0.0
0
LINE
8
TOP
10
7.087500
20
1.915815
30
0.0
11
7.200000
21
1.915641
31
0.0
0
LINE
8
TOP
10
7.200000
20
1.915641
30
0.0
11
7.312500
21
1.915467
31
0.0
0
LINE
8
TOP
10
7.312500
20
1.915467
30
0.0
11
7.425000
21
1.915293
31
0.0
0
LINE
8
TOP
10
7.425000
20
1.915293
30
0.0
11
7.537500
21
1.915119
31
0.0
0
LINE
8
TOP
10
7.537500
20
1.915119
30
0.0
11
7.650000
21
1.914946
31
0.0
0
LINE
8
TOP
10
7.650000
20
1.914946
30
0.0
11
7.762500
21
1.914772
31
0.0
0
LINE
8
TOP
10
7.762500
20
1.914772
30
0.0
11
7.875000
21
1.914598
31
0.0
0
LINE
8
TOP
10
7.875000
20
1.914598
30
0.0
11
7.987500
21
1.914424
31
0.0
0
LINE
8
TOP
10
7.987500
20
1.914424
30
0.0
11
8.100000
21
1.914250
31
0.0
0
LINE
8
TOP
10
8.100000
20
1.914250
30
0.0
11
8.212500
21
1.914076
31
0.0
0
LINE
8
TOP
10
8.212500
20
1.914076
30
0.0
11
8.325000
21
1.913902
31
0.0
0
LINE
8
TOP
10
8.325000
20
1.913902
30
0.0
11
8.437500
21
1.913729
31
0.0
0
LINE
8
TOP
10
8.437500
20
1.913729
30
0.0
11
8.500000
21
1.913632
31
0.0
0
LINE
8
TOP
10
8.500000
20
1.913632
30
0.0
11
8.550000
21
1.913555
31
0.0
0
LINE
8
TOP
10
8.550000
20
1.913555
30
0.0
11
8.662500
21
1.913381
31
0.0
0
LINE
8
TOP
10
8.662500
20
1.913381
30
0.0
11
8.775000
21
1.913207
31
0.0
0
LINE
8
TOP
10
8.775000
20
1.913207
30
0.0
11
8.887500
21
1.913033
31
0.0
0
LINE
8
TOP
10
8.887500
20
1.913033
30
0.0
11
9.000000
21
1.912859
31
0.0
0
LINE
8
TOP
10
0.000000
20
1.591440
30
0.0
11
0.112500
21
1.589568
31
0.0
0
LINE
8
TOP
10
0.112500
20
1.589568
30
0.0
11
0.225000
21
1.587696
31
0.0
0
LINE
8
TOP
10
0.225000
20
1.587696
30
0.0
11
0.337500
21
1.585824
31
0.0
0
LINE
8
TOP
10
0.337500
20
1.585824
30
0.0
11
0.450000
21
1.583952
31
0.0
0
LINE
8
TOP
10
0.450000
20
1.583952
30
0.0
11
0.500000
21
1.583120
31
0.0
0
LINE
8
TOP
10
0.500000
20
1.583120
30
0.0
11
0.562500
21
1.582080
31
0.0
0
LINE
8
TOP
10
0.562500
20
1.582080
30
0.0
11
0.675000
21
1.580208
31
0.0
0
LINE
8
TOP
10
0.675000
20
1.580208
30
0.0
11
0.787500
21
1.578336
31
0.0
0
LINE
8
TOP
10
0.787500
20
1.578336
30
0.0
11
0.900000
21
1.576464
31
0.0
0
LINE
8
TOP
10
0.900000
20
1.576464
30
0.0
11
1.012500
21
1.574592
31
0.0
0
LINE
8
TOP
10
1.012500
20
1.574592
30
0.0
11
1.125000
21
1.572720
31
0.0
0
LINE
8
TOP
10
1.125000
20
1.572720
30
0.0
11
1.237500
21
1.570848
31
0.0
0
LINE
8
TOP
10
1.237500
20
1.570848
30
0.0
11
1.350000
21
1.568976
31
0.0
0
LINE
8
TOP
10
1.350000
20
1.568976
30
0.0
11
1.462500
21
1.567104
31
0.0
0
LINE
8
TOP
10
1.462500
20
1.567104
30
0.0
11
1.575000
21
1.565232
31
0.0
0
LINE
8
TOP
10
1.575000
20
1.565232
30
0.0
11
1.687500
21
1.563360
31
0.0
0
LINE
8
TOP
10
1.687500
20
1.563360
30
0.0
11
1.800000
21
1.561488
31
0.0
0
LINE
8
TOP
10
1.800000
20
1.561488
30
0.0
11
1.912500
21
1.559616
31
0.0
0
LINE
8
TOP
10
1.912500
20
1.559616
30
0.0
11
2.025000
21
1.557744
31
0.0
0
LINE
8
TOP
10
2.025000
20
1.557744
30
0.0
11
2.137500
21
1.555872
31
0.0
0
LINE
8
TOP
10
2.137500
20
1.555872
30
0.0
11
2.250000
21
1.554000
31
0.0
0
LINE
8
TOP
10
2.250000
20
1.554000
30
0.0
11
2.362500
21
1.552128
31
0.0
0
LINE
8
TOP
10
2.362500
20
1.552128
30
0.0
11
2.475000
21
1.550256
31
0.0
0
LINE
8
TOP
10
2.475000
20
1.550256
30
0.0
11
2.587500
21
1.548384
31
0.0
0
LINE
8
TOP
10
2.587500
20
1.548384
30
0.0
11
2.700000
21
1.546512
31
0.0
0
LINE
8
TOP
10
2.700000
20
1.546512
30
0.0
11
2.812500
21
1.544640
31
0.0
0
LINE
8
TOP
10
2.812500
20
1.544640
30
0.0
11
2.925000
21
1.542768
31
0.0
0
LINE
8
TOP
10
2.925000
20
1.542768
30
0.0
11
3.037500
21
1.540896
31
0.0
0
LINE
8
TOP
10
3.037500
20
1.540896
30
0.0
11
3.150000
21
1.539024
31
0.0
0
LINE
8
TOP
10
3.150000
20
1.539024
30
0.0
11
3.262500
21
1.537152
31
0.0
0
LINE
8
TOP
10
3.262500
20
1.537152
30
0.0
11
3.375000
21
1.535280
31
0.0
0
LINE
8
TOP
10
3.375000
20
1.535280
30
0.0
11
3.487500
21
1.533408
31
0.0
0
LINE
8
TOP
10
3.487500
20
1.533408
30
0.0
11
3.600000
21
1.531536
31
0.0
0
LINE
8
TOP
10
3.600000
20
1.531536
30
0.0
11
3.712500
21
1.529664
31
0.0
0
LINE
8
TOP
10
3.712500
20
1.529664
30
0.0
11
3.825000
21
1.527792
31
0.0
0
LINE
8
TOP
10
3.825000
20
1.527792
30
0.0
11
3.937500
21
1.525920
31
0.0
0
LINE
8
TOP
10
3.937500
20
1.525920
30
0.0
11
4.050000
21
1.524048
31
0.0
0
LINE
8
TOP
10
4.050000
20
1.524048
30
0.0
11
4.162500
21
1.522176
31
0.0
0
LINE
8
TOP
10
4.162500
20
1.522176
30
0.0
11
4.275000
21
1.520304
31
0.0
0
LINE
8
TOP
10
4.275000
20
1.520304
30
0.0
11
4.387500
21
1.518432
31
0.0
0
LINE
8
TOP
10
4.387500
20
1.518432
30
0.0
11
4.500000
21
1.516560
31
0.0
0
LINE
8
TOP
10
4.500000
20
1.516560
30
0.0
11
4.612500
21
1.516734
31
0.0
0
LINE
8
TOP
10
4.612500
20
1.516734
30
0.0
11
4.725000
21
1.516907
31
0.0
0
LINE
8
TOP
10
4.725000
20
1.516907
30
0.0
11
4.837500
21
1.517081
31
0.0
0
LINE
8
TOP
10
4.837500
20
1.517081
30
0.0
11
4.950000
21
1.517255
31
0.0
0
LINE
8
TOP
10
4.950000
20
1.517255
30
0.0
11
5.062500
21
1.517429
31
0.0
0
LINE
8
TOP
10
5.062500
20
1.517429
30
0.0
11
5.175000
21
1.517603
31
0.0
0
LINE
8
TOP
10
5.175000
20
1.517603
30
0.0
11
5.287500
21
1.517777
31
0.0
0
LINE
8
TOP
10
5.287500
20
1.517777
30
0.0
11
5.400000
21
1.517950
31
0.0
0
LINE
8
TOP
10
5.400000
20
1.517950
30
0.0
11
5.512500
21
1.518124
31
0.0
0
LINE
8
TOP
10
5.512500
20
1.518124
30
0.0
11
5.625000
21
1.518298
31
0.0
0
LINE
8
TOP
10
5.625000
20
1.518298
30
0.0
11
5.737500
21
1.518472
31
0.0
0
LINE
8
TOP
10
5.737500
20
1.518472
30
0.0
11
5.850000
21
1.518646
31
0.0
0
LINE
8
TOP
10
5.850000
20
1.518646
30
0.0
11
5.962500
21
1.518820
31
0.0
0
LINE
8
TOP
10
5.962500
20
1.518820
30
0.0
11
6.075000
21
1.518994
31
0.0
0
LINE
8
TOP
10
6.075000
20
1.518994
30
0.0
11
6.187500
21
1.519167
31
0.0
0
LINE
8
TOP
10
6.187500
20
1.519167
30
0.0
11
6.300000
21
1.519341
31
0.0
0
LINE
8
TOP
10
6.300000
20
1.519341
30
0.0
11
6.412500
21
1.519515
31
0.0
0
LINE
8
TOP
10
6.412500
20
1.519515
30
0.0
11
6.525000
21
1.519689
31
0.0
0
LINE
8
TOP
10
6.525000
20
1.519689
30
0.0
11
6.637500
21
1.519863
31
0.0
0
LINE
8
TOP
10
6.637500
20
1.519863
30
0.0
11
6.750000
21
1.520037
31
0.0
0
LINE
8
TOP
10
6.750000
20
1.520037
30
0.0
11
6.862500
21
1.520210
31
0.0
0
LINE
8
TOP
10
6.862500
20
1.520210
30
0.0
11
6.975000
21
1.520384
31
0.0
0
LINE
8
TOP
10
6.975000
20
1.520384
30
0.0
11
7.087500
21
1.520558
31
0.0
0
LINE
8
TOP
10
7.087500
20
1.520558
30
0.0
11
7.200000
21
1.520732
31
0.0
0
LINE
8
TOP
10
7.200000
20
1.520732
30
0.0
11
7.312500
21
1.520906
31
0.0
0
LINE
8
TOP
10
7.312500
20
1.520906
30
0.0
11
7.425000
21
1.521080
31
0.0
0
LINE
8
TOP
10
7.425000
20
1.521080
30
0.0
11
7.537500
21
1.521253
31
0.0
0
LINE
8
TOP
10
7.537500
20
1.521253
30
0.0
11
7.650000
21
1.521427
31
0.0
0
LINE
8
TOP
10
7.650000
20
1.521427
30
0.0
11
7.762500
21
1.521601
31
0.0
0
LINE
8
TOP
10
7.762500
20
1.521601
30
0.0
11
7.875000
21
1.521775
31
0.0
0
LINE
8
TOP
10
7.875000
20
1.521775
30
0.0
11
7.987500
21
1.521949
31
0.0
0
LINE
8
TOP
10
7.987500
20
1.521949
30
0.0
11
8.100000
21
1.522123
31
0.0
0
LINE
8
TOP
10
8.100000
20
1.522123
30
0.0
11
8.212500
21
1.522297
31
0.0
0
LINE
8
TOP
10
8.212500
20
1.522297
30
0.0
11
8.325000
21
1.522470
31
0.0
0
LINE
8
TOP
10
8.325000
20
1.522470
30
0.0
11
8.437500
21
1.522644
31
0.0
0
LINE
8
TOP
10
8.437500
20
1.522644
30
0.0
11
8.500000
21
1.522741
31
0.0
0
LINE
8
TOP
10
8.500000
20
1.522741
30
0.0
11
8.550000
21
1.522818
31
0.0
0
LINE
8
TOP
10
8.550000
20
1.522818
30
0.0
11
8.662500
21
1.522992
31
0.0
0
LINE
8
TOP
10
8.662500
20
1.522992
30
0.0
11
8.775000
21
1.523166
31
0.0
0
LINE
8
TOP
10
8.775000
20
1.523166
30
0.0
11
8.887500
21
1.523340
31
0.0
0
LINE
8
TOP
10
8.887500
20
1.523340
30
0.0
11
9.000000
21
1.523513
31
0.0
0
LINE
8
TOP
10
0.000000
20
1.844933
30
0.0
11
0.000000
21
1.591440
31
0.0
0
LINE
8
TOP
10
9.000000
20
1.912859
30
0.0
11
9.000000
21
1.523513
31
0.0
0
LINE
8
SECTION
10
10.298373
20
-0.276023
30
0.0
11
10.701627
21
-0.276023
31
0.0
0
LINE
8
SECTION
10
10.701627
20
-0.276023
30
0.0
11
10.701627
21
0.276023
31
0.0
0
LINE
8
SECTION
10
10.701627
20
0.276023
30
0.0
11
10.298373
21
0.276023
31
0.0
0
LINE
8
SECTION
10
10.298373
20
0.276023
30
0.0
11
10.298373
21
-0.276023
31
0.0
0
LINE
8
SECTION
10
10.372786
20
-0.201610
30
0.0
11
10.627214
21
-0.201610
31
0.0
0
LINE
8
SECTION
10
10.627214
20
-0.201610
30
0.0
11
10.627214
21
0.201610
31
0.0
0
LINE
8
SECTION
10
10.627214
20
0.201610
30
0.0
11
10.372786
21
0.201610
31
0.0
0
LINE
8
SECTION
10
10.372786
20
0.201610
30
0.0
11
10.372786
21
-0.201610
31
0.0
0
LINE
8
SECTION
10
10.372786
20
0.000000
30
0.0
11
10.447200
21
0.000000
31
0.0
0
LINE
8
SECTION
10
10.447200
20
0.000000
30
0.0
11
10.447200
21
0.201610
31
0.0
0
LINE
8
SECTION
10
10.447200
20
0.201610
30
0.0
11
10.372786
21
0.201610
31
0.0
0
LINE
8
SECTION
10
10.372786
20
0.201610
30
0.0
11
10.372786
21
0.000000
31
0.0
0
LINE
8
SECTION
10
10.372786
20
-0.201610
30
0.0
11
10.447200
21
-0.201610
31
0.0
0
LINE
8
SECTION
10
10.447200
20
-0.201610
30
0.0
11
10.447200
21
0.000000
31
0.0
0
LINE
8
SECTION
10
10.447200
20
0.000000
30
0.0
11
10.372786
21
0.000000
31
0.0
0
LINE
8
SECTION
10
10.372786
20
0.000000
30
0.0
11
10.372786
21
-0.201610
31
0.0
0
LINE
8
SECTION
10
10.552800
20
0.000000
30
0.0
11
10.627214
21
0.000000
31
0.0
0
LINE
8
SECTION
10
10.627214
20
0.000000
30
0.0
11
10.627214
21
0.201610
31
0.0
0
LINE
8
SECTION
10
10.627214
20
0.201610
30
0.0
11
10.552800
21
0.201610
31
0.0
0
LINE
8
SECTION
10
10.552800
20
0.201610
30
0.0
11
10.552800
21
0.000000
31
0.0
0
LINE
8
SECTION
10
10.552800
20
-0.201610
30
0.0
11
10.627214
21
-0.201610
31
0.0
0
LINE
8
SECTION
10
10.627214
20
-0.201610
30
0.0
11
10.627214
21
0.000000
31
0.0
0
LINE
8
SECTION
10
10.627214
20
0.000000
30
0.0
11
10.552800
21
0.000000
31
0.0
0
LINE
8
SECTION
10
10.552800
20
0.000000
30
0.0
11
10.552800
21
-0.201610
31
0.0
0
ENDSEC
0
EOF
