0
SECTION
2
HEADER
9
$INSUNITS
70
1
0
ENDSEC
0
SECTION
2
ENTITIES
0
LINE
8
FRONT
10
0.000000
20
0.359947
30
0.0
11
0.112500
21
0.357042
31
0.0
0
LINE
8
FRONT
10
0.112500
20
0.357042
30
0.0
11
0.225000
21
0.354138
31
0.0
0
LINE
8
FRONT
10
0.225000
20
0.354138
30
0.0
11
0.337500
21
0.351233
31
0.0
0
LINE
8
FRONT
10
0.337500
20
0.351233
30
0.0
11
0.450000
21
0.348329
31
0.0
0
LINE
8
FRONT
10
0.450000
20
0.348329
30
0.0
11
0.500000
21
0.347038
31
0.0
0
LINE
8
FRONT
10
0.500000
20
0.347038
30
0.0
11
0.562500
21
0.345425
31
0.0
0
LINE
8
FRONT
10
0.562500
20
0.345425
30
0.0
11
0.675000
21
0.342520
31
0.0
0
LINE
8
FRONT
10
0.675000
20
0.342520
30
0.0
11
0.787500
21
0.339616
31
0.0
0
LINE
8
FRONT
10
0.787500
20
0.339616
30
0.0
11
0.900000
21
0.336711
31
0.0
0
LINE
8
FRONT
10
0.900000
20
0.336711
30
0.0
11
1.012500
21
0.333807
31
0.0
0
LINE
8
FRONT
10
1.012500
20
0.333807
30
0.0
11
1.125000
21
0.330903
31
0.0
0
LINE
8
FRONT
10
1.125000
20
0.330903
30
0.0
11
1.237500
21
0.327998
31
0.0
0
LINE
8
FRONT
10
1.237500
20
0.327998
30
0.0
11
1.350000
21
0.325094
31
0.0
0
LINE
8
FRONT
10
1.350000
20
0.325094
30
0.0
11
1.462500
21
0.322189
31
0.0
0
LINE
8
FRONT
10
1.462500
20
0.322189
30
0.0
11
1.575000
21
0.319285
31
0.0
0
LINE
8
FRONT
10
1.575000
20
0.319285
30
0.0
11
1.687500
21
0.316380
31
0.0
0
LINE
8
FRONT
10
1.687500
20
0.316380
30
0.0
11
1.800000
21
0.313476
31
0.0
0
LINE
8
FRONT
10
1.800000
20
0.313476
30
0.0
11
1.912500
21
0.310572
31
0.0
0
LINE
8
FRONT
10
1.912500
20
0.310572
30
0.0
11
2.025000
21
0.307667
31
0.0
0
LINE
8
FRONT
10
2.025000
20
0.307667
30
0.0
11
2.137500
21
0.304763
31
0.0
0
LINE
8
FRONT
10
2.137500
20
0.304763
30
0.0
11
2.250000
21
0.301858
31
0.0
0
LINE
8
FRONT
10
2.250000
20
0.301858
30
0.0
11
2.362500
21
0.298954
31
0.0
0
LINE
8
FRONT
10
2.362500
20
0.298954
30
0.0
11
2.475000
21
0.296049
31
0.0
0
LINE
8
FRONT
10
2.475000
20
0.296049
30
0.0
11
2.587500
21
0.293145
31
0.0
0
LINE
8
FRONT
10
2.587500
20
0.293145
30
0.0
11
2.700000
21
0.290241
31
0.0
0
LINE
8
FRONT
10
2.700000
20
0.290241
30
0.0
11
2.812500
21
0.287336
31
0.0
0
LINE
8
FRONT
10
2.812500
20
0.287336
30
0.0
11
2.925000
21
0.284432
31
0.0
0
LINE
8
FRONT
10
2.925000
20
0.284432
30
0.0
11
3.037500
21
0.281527
31
0.0
0
LINE
8
FRONT
10
3.037500
20
0.281527
30
0.0
11
3.150000
21
0.278623
31
0.0
0
LINE
8
FRONT
10
3.150000
20
0.278623
30
0.0
11
3.262500
21
0.275718
31
0.0
0
LINE
8
FRONT
10
3.262500
20
0.275718
30
0.0
11
3.375000
21
0.272814
31
0.0
0
LINE
8
FRONT
10
3.375000
20
0.272814
30
0.0
11
3.487500
21
0.269910
31
0.0
0
LINE
8
FRONT
10
3.487500
20
0.269910
30
0.0
11
3.600000
21
0.267005
31
0.0
0
LINE
8
FRONT
10
3.600000
20
0.267005
30
0.0
11
3.712500
21
0.264101
31
0.0
0
LINE
8
FRONT
10
3.712500
20
0.264101
30
0.0
11
3.825000
21
0.261196
31
0.0
0
LINE
8
FRONT
10
3.825000
20
0.261196
30
0.0
11
3.937500
21
0.258292
31
0.0
0
LINE
8
FRONT
10
3.937500
20
0.258292
30
0.0
11
4.050000
21
0.255388
31
0.0
0
LINE
8
FRONT
10
4.050000
20
0.255388
30
0.0
11
4.162500
21
0.252483
31
0.0
0
LINE
8
FRONT
10
4.162500
20
0.252483
30
0.0
11
4.275000
21
0.249579
31
0.0
0
LINE
8
FRONT
10
4.275000
20
0.249579
30
0.0
11
4.387500
21
0.246674
31
0.0
0
LINE
8
FRONT
10
4.387500
20
0.246674
30
0.0
11
4.500000
21
0.243770
31
0.0
0
LINE
8
FRONT
10
4.500000
20
0.243770
30
0.0
11
4.612500
21
0.244056
31
0.0
0
LINE
8
FRONT
10
4.612500
20
0.244056
30
0.0
11
4.725000
21
0.244343
31
0.0
0
LINE
8
FRONT
10
4.725000
20
0.244343
30
0.0
11
4.837500
21
0.244629
31
0.0
0
LINE
8
FRONT
10
4.837500
20
0.244629
30
0.0
11
4.950000
21
0.244916
31
0.0
0
LINE
8
FRONT
10
4.950000
20
0.244916
30
0.0
11
5.062500
21
0.245203
31
0.0
0
LINE
8
FRONT
10
5.062500
20
0.245203
30
0.0
11
5.175000
21
0.245489
31
0.0
0
LINE
8
FRONT
10
5.175000
20
0.245489
30
0.0
11
5.287500
21
0.245776
31
0.0
0
LINE
8
FRONT
10
5.287500
20
0.245776
30
0.0
11
5.400000
21
0.246062
31
0.0
0
LINE
8
FRONT
10
5.400000
20
0.246062
30
0.0
11
5.512500
21
0.246349
31
0.0
0
LINE
8
FRONT
10
5.512500
20
0.246349
30
0.0
11
5.625000
21
0.246635
31
0.0
0
LINE
8
FRONT
10
5.625000
20
0.246635
30
0.0
11
5.737500
21
0.246922
31
0.0
0
LINE
8
FRONT
10
5.737500
20
0.246922
30
0.0
11
5.850000
21
0.247208
31
0.0
0
LINE
8
FRONT
10
5.850000
20
0.247208
30
0.0
11
5.962500
21
0.247495
31
0.0
0
LINE
8
FRONT
10
5.962500
20
0.247495
30
0.0
11
6.075000
21
0.247781
31
0.0
0
LINE
8
FRONT
10
6.075000
20
0.247781
30
0.0
11
6.187500
21
0.248068
31
0.0
0
LINE
8
FRONT
10
6.187500
20
0.248068
30
0.0
11
6.300000
21
0.248354
31
0.0
0
LINE
8
FRONT
10
6.300000
20
0.248354
30
0.0
11
6.412500
21
0.248641
31
0.0
0
LINE
8
FRONT
10
6.412500
20
0.248641
30
0.0
11
6.525000
21
0.248928
31
0.0
0
LINE
8
FRONT
10
6.525000
20
0.248928
30
0.0
11
6.637500
21
0.249214
31
0.0
0
LINE
8
FRONT
10
6.637500
20
0.249214
30
0.0
11
6.750000
21
0.249501
31
0.0
0
LINE
8
FRONT
10
6.750000
20
0.249501
30
0.0
11
6.862500
21
0.249787
31
0.0
0
LINE
8
FRONT
10
6.862500
20
0.249787
30
0.0
11
6.975000
21
0.250074
31
0.0
0
LINE
8
FRONT
10
6.975000
20
0.250074
30
0.0
11
7.087500
21
0.250360
31
0.0
0
LINE
8
FRONT
10
7.087500
20
0.250360
30
0.0
11
7.200000
21
0.250647
31
0.0
0
LINE
8
FRONT
10
7.200000
20
0.250647
30
0.0
11
7.312500
21
0.250933
31
0.0
0
LINE
8
FRONT
10
7.312500
20
0.250933
30
0.0
11
7.425000
21
0.251220
31
0.0
0
LINE
8
FRONT
10
7.425000
20
0.251220
30
0.0
11
7.537500
21
0.251506
31
0.0
0
LINE
8
FRONT
10
7.537500
20
0.251506
30
0.0
11
7.650000
21
0.251793
31
0.0
0
LINE
8
FRONT
10
7.650000
20
0.251793
30
0.0
11
7.762500
21
0.252080
31
0.0
0
LINE
8
FRONT
10
7.762500
20
0.252080
30
0.0
11
7.875000
21
0.252366
31
0.0
0
LINE
8
FRONT
10
7.875000
20
0.252366
30
0.0
11
7.987500
21
0.252653
31
0.0
0
LINE
8
FRONT
10
7.987500
20
0.252653
30
0.0
11
8.100000
21
0.252939
31
0.0
0
LINE
8
FRONT
10
8.100000
20
0.252939
30
0.0
11
8.212500
21
0.253226
31
0.0
0
LINE
8
FRONT
10
8.212500
20
0.253226
30
0.0
11
8.325000
21
0.253512
31
0.0
0
LINE
8
FRONT
10
8.325000
20
0.253512
30
0.0
11
8.437500
21
0.253799
31
0.0
0
LINE
8
FRONT
10
8.437500
20
0.253799
30
0.0
11
8.500000
21
0.253958
31
0.0
0
LINE
8
FRONT
10
8.500000
20
0.253958
30
0.0
11
8.550000
21
0.254085
31
0.0
0
LINE
8
FRONT
10
8.550000
20
0.254085
30
0.0
11
8.662500
21
0.254372
31
0.0
0
LINE
8
FRONT
10
8.662500
20
0.254372
30
0.0
11
8.775000
21
0.254658
31
0.0
0
LINE
8
FRONT
10
8.775000
20
0.254658
30
0.0
11
8.887500
21
0.254945
31
0.0
0
LINE
8
FRONT
10
8.887500
20
0.254945
30
0.0
11
9.000000
21
0.255232
31
0.0
0
LINE
8
FRONT
10
0.000000
20
-0.359947
30
0.0
11
0.112500
21
-0.357042
31
0.0
0
LINE
8
FRONT
10
0.112500
20
-0.357042
30
0.0
11
0.225000
21
-0.354138
31
0.0
0
LINE
8
FRONT
10
0.225000
20
-0.354138
30
0.0
11
0.337500
21
-0.351233
31
0.0
0
LINE
8
FRONT
10
0.337500
20
-0.351233
30
0.0
11
0.450000
21
-0.348329
31
0.0
0
LINE
8
FRONT
10
0.450000
20
-0.348329
30
0.0
11
0.500000
21
-0.347038
31
0.0
0
LINE
8
FRONT
10
0.500000
20
-0.347038
30
0.0
11
0.562500
21
-0.345425
31
0.0
0
LINE
8
FRONT
10
0.562500
20
-0.345425
30
0.0
11
0.675000
21
-0.342520
31
0.0
0
LINE
8
FRONT
10
0.675000
20
-0.342520
30
0.0
11
0.787500
21
-0.339616
31
0.0
0
LINE
8
FRONT
10
0.787500
20
-0.339616
30
0.0
11
0.900000
21
-0.336711
31
0.0
0
LINE
8
FRONT
10
0.900000
20
-0.336711
30
0.0
11
1.012500
21
-0.333807
31
0.0
0
LINE
8
FRONT
10
1.012500
20
-0.333807
30
0.0
11
1.125000
21
-0.330903
31
0.0
0
LINE
8
FRONT
10
1.125000
20
-0.330903
30
0.0
11
1.237500
21
-0.327998
31
0.0
0
LINE
8
FRONT
10
1.237500
20
-0.327998
30
0.0
11
1.350000
21
-0.325094
31
0.0
0
LINE
8
FRONT
10
1.350000
20
-0.325094
30
0.0
11
1.462500
21
-0.322189
31
0.0
0
LINE
8
FRONT
10
1.462500
20
-0.322189
30
0.0
11
1.575000
21
-0.319285
31
0.0
0
LINE
8
FRONT
10
1.575000
20
-0.319285
30
0.0
11
1.687500
21
-0.316380
31
0.0
0
LINE
8
FRONT
10
1.687500
20
-0.316380
30
0.0
11
1.800000
21
-0.313476
31
0.0
0
LINE
8
FRONT
10
1.800000
20
-0.313476
30
0.0
11
1.912500
21
-0.310572
31
0.0
0
LINE
8
FRONT
10
1.912500
20
-0.310572
30
0.0
11
2.025000
21
-0.307667
31
0.0
0
LINE
8
FRONT
10
2.025000
20
-0.307667
30
0.0
11
2.137500
21
-0.304763
31
0.0
0
LINE
8
FRONT
10
2.137500
20
-0.304763
30
0.0
11
2.250000
21
-0.301858
31
0.0
0
LINE
8
FRONT
10
2.250000
20
-0.301858
30
0.0
11
2.362500
21
-0.298954
31
0.0
0
LINE
8
FRONT
10
2.362500
20
-0.298954
30
0.0
11
2.475000
21
-0.296049
31
0.0
0
LINE
8
FRONT
10
2.475000
20
-0.296049
30
0.0
11
2.587500
21
-0.293145
31
0.0
0
LINE
8
FRONT
10
2.587500
20
-0.293145
30
0.0
11
2.700000
21
-0.290241
31
0.0
0
LINE
8
FRONT
10
2.700000
20
-0.290241
30
0.0
11
2.812500
21
-0.287336
31
0.0
0
LINE
8
FRONT
10
2.812500
20
-0.287336
30
0.0
11
2.925000
21
-0.284432
31
0.0
0
LINE
8
FRONT
10
2.925000
20
-0.284432
30
0.0
11
3.037500
21
-0.281527
31
0.0
0
LINE
8
FRONT
10
3.037500
20
-0.281527
30
0.0
11
3.150000
21
-0.278623
31
0.0
0
LINE
8
FRONT
10
3.150000
20
-0.278623
30
0.0
11
3.262500
21
-0.275718
31
0.0
0
LINE
8
FRONT
10
3.262500
20
-0.275718
30
0.0
11
3.375000
21
-0.272814
31
0.0
0
LINE
8
FRONT
10
3.375000
20
-0.272814
30
0.0
11
3.487500
21
-0.269910
31
0.0
0
LINE
8
FRONT
10
3.487500
20
-0.269910
30
0.0
11
3.600000
21
-0.267005
31
0.0
0
LINE
8
FRONT
10
3.600000
20
-0.267005
30
0.0
11
3.712500
21
-0.264101
31
0.0
0
LINE
8
FRONT
10
3.712500
20
-0.264101
30
0.0
11
3.825000
21
-0.261196
31
0.0
0
LINE
8
FRONT
10
3.825000
20
-0.261196
30
0.0
11
3.937500
21
-0.258292
31
0.0
0
LINE
8
FRONT
10
3.937500
20
-0.258292
30
0.0
11
4.050000
21
-0.255388
31
0.0
0
LINE
8
FRONT
10
4.050000
20
-0.255388
30
0.0
11
4.162500
21
-0.252483
31
0.0
0
LINE
8
FRONT
10
4.162500
20
-0.252483
30
0.0
11
4.275000
21
-0.249579
31
0.0
0
LINE
8
FRONT
10
4.275000
20
-0.249579
30
0.0
11
4.387500
21
-0.246674
31
0.0
0
LINE
8
FRONT
10
4.387500
20
-0.246674
30
0.0
11
4.500000
21
-0.243770
31
0.0
0
LINE
8
FRONT
10
4.500000
20
-0.243770
30
0.0
11
4.612500
21
-0.244056
31
0.0
0
LINE
8
FRONT
10
4.612500
20
-0.244056
30
0.0
11
4.725000
21
-0.244343
31
0.0
0
LINE
8
FRONT
10
4.725000
20
-0.244343
30
0.0
11
4.837500
21
-0.244629
31
0.0
0
LINE
8
FRONT
10
4.837500
20
-0.244629
30
0.0
11
4.950000
21
-0.244916
31
0.0
0
LINE
8
FRONT
10
4.950000
20
-0.244916
30
0.0
11
5.062500
21
-0.245203
31
0.0
0
LINE
8
FRONT
10
5.062500
20
-0.245203
30
0.0
11
5.175000
21
-0.245489
31
0.0
0
LINE
8
FRONT
10
5.175000
20
-0.245489
30
0.0
11
5.287500
21
-0.245776
31
0.0
0
LINE
8
FRONT
10
5.287500
20
-0.245776
30
0.0
11
5.400000
21
-0.246062
31
0.0
0
LINE
8
FRONT
10
5.400000
20
-0.246062
30
0.0
11
5.512500
21
-0.246349
31
0.0
0
LINE
8
FRONT
10
5.512500
20
-0.246349
30
0.0
11
5.625000
21
-0.246635
31
0.0
0
LINE
8
FRONT
10
5.625000
20
-0.246635
30
0.0
11
5.737500
21
-0.246922
31
0.0
0
LINE
8
FRONT
10
5.737500
20
-0.246922
30
0.0
11
5.850000
21
-0.247208
31
0.0
0
LINE
8
FRONT
10
5.850000
20
-0.247208
30
0.0
11
5.962500
21
-0.247495
31
0.0
0
LINE
8
FRONT
10
5.962500
20
-0.247495
30
0.0
11
6.075000
21
-0.247781
31
0.0
0
LINE
8
FRONT
10
6.075000
20
-0.247781
30
0.0
11
6.187500
21
-0.248068
31
0.0
0
LINE
8
FRONT
10
6.187500
20
-0.248068
30
0.0
11
6.300000
21
-0.248354
31
0.0
0
LINE
8
FRONT
10
6.300000
20
-0.248354
30
0.0
11
6.412500
21
-0.248641
31
0.0
0
LINE
8
FRONT
10
6.412500
20
-0.248641
30
0.0
11
6.525000
21
-0.248928
31
0.0
0
LINE
8
FRONT
10
6.525000
20
-0.248928
30
0.0
11
6.637500
21
-0.249214
31
0.0
0
LINE
8
FRONT
10
6.637500
20
-0.249214
30
0.0
11
6.750000
21
-0.249501
31
0.0
0
LINE
8
FRONT
10
6.750000
20
-0.249501
30
0.0
11
6.862500
21
-0.249787
31
0.0
0
LINE
8
FRONT
10
6.862500
20
-0.249787
30
0.0
11
6.975000
21
-0.250074
31
0.0
0
LINE
8
FRONT
10
6.975000
20
-0.250074
30
0.0
11
7.087500
21
-0.250360
31
0.0
0
LINE
8
FRONT
10
7.087500
20
-0.250360
30
0.0
11
7.200000
21
-0.250647
31
0.0
0
LINE
8
FRONT
10
7.200000
20
-0.250647
30
0.0
11
7.312500
21
-0.250933
31
0.0
0
LINE
8
FRONT
10
7.312500
20
-0.250933
30
0.0
11
7.425000
21
-0.251220
31
0.0
0
LINE
8
FRONT
10
7.425000
20
-0.251220
30
0.0
11
7.537500
21
-0.251506
31
0.0
0
LINE
8
FRONT
10
7.537500
20
-0.251506
30
0.0
11
7.650000
21
-0.251793
31
0.0
0
LINE
8
FRONT
10
7.650000
20
-0.251793
30
0.0
11
7.762500
21
-0.252080
31
0.0
0
LINE
8
FRONT
10
7.762500
20
-0.252080
30
0.0
11
7.875000
21
-0.252366
31
0.0
0
LINE
8
FRONT
10
7.875000
20
-0.252366
30
0.0
11
7.987500
21
-0.252653
31
0.0
0
LINE
8
FRONT
10
7.987500
20
-0.252653
30
0.0
11
8.100000
21
-0.252939
31
0.0
0
LINE
8
FRONT
10
8.100000
20
-0.252939
30
0.0
11
8.212500
21
-0.253226
31
0.0
0
LINE
8
FRONT
10
8.212500
20
-0.253226
30
0.0
11
8.325000
21
-0.253512
31
0.0
0
LINE
8
FRONT
10
8.325000
20
-0.253512
30
0.0
11
8.437500
21
-0.253799
31
0.0
0
LINE
8
FRONT
10
8.437500
20
-0.253799
30
0.0
11
8.500000
21
-0.253958
31
0.0
0
LINE
8
FRONT
10
8.500000
20
-0.253958
30
0.0
11
8.550000
21
-0.254085
31
0.0
0
LINE
8
FRONT
10
8.550000
20
-0.254085
30
0.0
11
8.662500
21
-0.254372
31
0.0
0
LINE
8
FRONT
10
8.662500
20
-0.254372
30
0.0
11
8.775000
21
-0.254658
31
0.0
0
LINE
8
FRONT
10
8.775000
20
-0.254658
30
0.0
11
8.887500
21
-0.254945
31
0.0
0
LINE
8
FRONT
10
8.887500
20
-0.254945
30
0.0
11
9.000000
21
-0.255232
31
0.0
0
LINE
8
FRONT
10
0.000000
20
0.359947
30
0.0
11
0.000000
21
-0.359947
31
0.0
0
LINE
8
FRONT
10
9.000000
20
0.255232
30
0.0
11
9.000000
21
-0.255232
31
0.0
0
LINE
8
TOP
10
0.000000
20
2.140377
30
0.0
11
0.112500
21
2.138290
31
0.0
0
LINE
8
TOP
10
0.112500
20
2.138290
30
0.0
11
0.225000
21
2.136203
31
0.0
0
LINE
8
TOP
10
0.225000
20
2.136203
30
0.0
11
0.337500
21
2.134116
31
0.0
0
LINE
8
TOP
10
0.337500
20
2.134116
30
0.0
11
0.450000
21
2.132029
31
0.0
0
LINE
8
TOP
10
0.450000
20
2.132029
30
0.0
11
0.500000
21
2.131101
31
0.0
0
LINE
8
TOP
10
0.500000
20
2.131101
30
0.0
11
0.562500
21
2.129942
31
0.0
0
LINE
8
TOP
10
0.562500
20
2.129942
30
0.0
11
0.675000
21
2.127855
31
0.0
0
LINE
8
TOP
10
0.675000
20
2.127855
30
0.0
11
0.787500
21
2.125767
31
0.0
0
LINE
8
TOP
10
0.787500
20
2.125767
30
0.0
11
0.900000
21
2.123680
31
0.0
0
LINE
8
TOP
10
0.900000
20
2.123680
30
0.0
11
1.012500
21
2.121593
31
0.0
0
LINE
8
TOP
10
1.012500
20
2.121593
30
0.0
11
1.125000
21
2.119506
31
0.0
0
LINE
8
TOP
10
1.125000
20
2.119506
30
0.0
11
1.237500
21
2.117419
31
0.0
0
LINE
8
TOP
10
1.237500
20
2.117419
30
0.0
11
1.350000
21
2.115332
31
0.0
0
LINE
8
TOP
10
1.350000
20
2.115332
30
0.0
11
1.462500
21
2.113245
31
0.0
0
LINE
8
TOP
10
1.462500
20
2.113245
30
0.0
11
1.575000
21
2.111158
31
0.0
0
LINE
8
TOP
10
1.575000
20
2.111158
30
0.0
11
1.687500
21
2.109070
31
0.0
0
LINE
8
TOP
10
1.687500
20
2.109070
30
0.0
11
1.800000
21
2.106983
31
0.0
0
LINE
8
TOP
10
1.800000
20
2.106983
30
0.0
11
1.912500
21
2.104896
31
0.0
0
LINE
8
TOP
10
1.912500
20
2.104896
30
0.0
11
2.025000
21
2.102809
31
0.0
0
LINE
8
TOP
10
2.025000
20
2.102809
30
0.0
11
2.137500
21
2.100722
31
0.0
0
LINE
8
TOP
10
2.137500
20
2.100722
30
0.0
11
2.250000
21
2.098635
31
0.0
0
LINE
8
TOP
10
2.250000
20
2.098635
30
0.0
11
2.362500
21
2.096548
31
0.0
0
LINE
8
TOP
10
2.362500
20
2.096548
30
0.0
11
2.475000
21
2.094460
31
0.0
0
LINE
8
TOP
10
2.475000
20
2.094460
30
0.0
11
2.587500
21
2.092373
31
0.0
0
LINE
8
TOP
10
2.587500
20
2.092373
30
0.0
11
2.700000
21
2.090286
31
0.0
0
LINE
8
TOP
10
2.700000
20
2.090286
30
0.0
11
2.812500
21
2.088199
31
0.0
0
LINE
8
TOP
10
2.812500
20
2.088199
30
0.0
11
2.925000
21
2.086112
31
0.0
0
LINE
8
TOP
10
2.925000
20
2.086112
30
0.0
11
3.037500
21
2.084025
31
0.0
0
LINE
8
TOP
10
3.037500
20
2.084025
30
0.0
11
3.150000
21
2.081938
31
0.0
0
LINE
8
TOP
10
3.150000
20
2.081938
30
0.0
11
3.262500
21
2.079851
31
0.0
0
LINE
8
TOP
10
3.262500
20
2.079851
30
0.0
11
3.375000
21
2.077763
31
0.0
0
LINE
8
TOP
10
3.375000
20
2.077763
30
0.0
11
3.487500
21
2.075676
31
0.0
0
LINE
8
TOP
10
3.487500
20
2.075676
30
0.0
11
3.600000
21
2.073589
31
0.0
0
LINE
8
TOP
10
3.600000
20
2.073589
30
0.0
11
3.712500
21
2.071502
31
0.0
0
LINE
8
TOP
10
3.712500
20
2.071502
30
0.0
11
3.825000
21
2.069415
31
0.0
0
LINE
8
TOP
10
3.825000
20
2.069415
30
0.0
11
3.937500
21
2.067328
31
0.0
0
LINE
8
TOP
10
3.937500
20
2.067328
30
0.0
11
4.050000
21
2.065241
31
0.0
0
LINE
8
TOP
10
4.050000
20
2.065241
30
0.0
11
4.162500
21
2.063154
31
0.0
0
LINE
8
TOP
10
4.162500
20
2.063154
30
0.0
11
4.275000
21
2.061066
31
0.0
0
LINE
8
TOP
10
4.275000
20
2.061066
30
0.0
11
4.387500
21
2.058979
31
0.0
0
LINE
8
TOP
10
4.387500
20
2.058979
30
0.0
11
4.500000
21
2.056892
31
0.0
0
LINE
8
TOP
10
4.500000
20
2.056892
30
0.0
11
4.612500
21
2.056349
31
0.0
0
LINE
8
TOP
10
4.612500
20
2.056349
30
0.0
11
4.725000
21
2.055805
31
0.0
0
LINE
8
TOP
10
4.725000
20
2.055805
30
0.0
11
4.837500
21
2.055261
31
0.0
0
LINE
8
TOP
10
4.837500
20
2.055261
30
0.0
11
4.950000
21
2.054718
31
0.0
0
LINE
8
TOP
10
4.950000
20
2.054718
30
0.0
11
5.062500
21
2.054174
31
0.0
0
LINE
8
TOP
10
5.062500
20
2.054174
30
0.0
11
5.175000
21
2.053631
31
0.0
0
LINE
8
TOP
10
5.175000
20
2.053631
30
0.0
11
5.287500
21
2.053087
31
0.0
0
LINE
8
TOP
10
5.287500
20
2.053087
30
0.0
11
5.400000
21
2.052543
31
0.0
0
LINE
8
TOP
10
5.400000
20
2.052543
30
0.0
11
5.512500
21
2.052000
31
0.0
0
LINE
8
TOP
10
5.512500
20
2.052000
30
0.0
11
5.625000
21
2.051456
31
0.0
0
LINE
8
TOP
10
5.625000
20
2.051456
30
0.0
11
5.737500
21
2.050912
31
0.0
0
LINE
8
TOP
10
5.737500
20
2.050912
30
0.0
11
5.850000
21
2.050369
31
0.0
0
LINE
8
TOP
10
5.850000
20
2.050369
30
0.0
11
5.962500
21
2.049825
31
0.0
0
LINE
8
TOP
10
5.962500
20
2.049825
30
0.0
11
6.075000
21
2.049282
31
0.0
0
LINE
8
TOP
10
6.075000
20
2.049282
30
0.0
11
6.187500
21
2.048738
31
0.0
0
LINE
8
TOP
10
6.187500
20
2.048738
30
0.0
11
6.300000
21
2.048194
31
0.0
0
LINE
8
TOP
10
6.300000
20
2.048194
30
0.0
11
6.412500
21
2.047651
31
0.0
0
LINE
8
TOP
10
6.412500
20
2.047651
30
0.0
11
6.525000
21
2.047107
31
0.0
0
LINE
8
TOP
10
6.525000
20
2.047107
30
0.0
11
6.637500
21
2.046564
31
0.0
0
LINE
8
TOP
10
6.637500
20
2.046564
30
0.0
11
6.750000
21
2.046020
31
0.0
0
LINE
8
TOP
10
6.750000
20
2.046020
30
0.0
11
6.862500
21
2.045476
31
0.0
0
LINE
8
TOP
10
6.862500
20
2.045476
30
0.0
11
6.975000
21
2.044933
31
0.0
0
LINE
8
TOP
10
6.975000
20
2.044933
30
0.0
11
7.087500
21
2.044389
31
0.0
0
LINE
8
TOP
10
7.087500
20
2.044389
30
0.0
11
7.200000
21
2.043846
31
0.0
0
LINE
8
TOP
10
7.200000
20
2.043846
30
0.0
11
7.312500
21
2.043302
31
0.0
0
LINE
8
TOP
10
7.312500
20
2.043302
30
0.0
11
7.425000
21
2.042758
31
0.0
0
LINE
8
TOP
10
7.425000
20
2.042758
30
0.0
11
7.537500
21
2.042215
31
0.0
0
LINE
8
TOP
10
7.537500
20
2.042215
30
0.0
11
7.650000
21
2.041671
31
0.0
0
LINE
8
TOP
10
7.650000
20
2.041671
30
0.0
11
7.762500
21
2.041128
31
0.0
0
LINE
8
TOP
10
7.762500
20
2.041128
30
0.0
11
7.875000
21
2.040584
31
0.0
0
LINE
8
TOP
10
7.875000
20
2.040584
30
0.0
11
7.987500
21
2.040040
31
0.0
0
LINE
8
TOP
10
7.987500
20
2.040040
30
0.0
11
8.100000
21
2.039497
31
0.0
0
LINE
8
TOP
10
8.100000
20
2.039497
30
0.0
11
8.212500
21
2.038953
31
0.0
0
LINE
8
TOP
10
8.212500
20
2.038953
30
0.0
11
8.325000
21
2.038410
31
0.0
0
LINE
8
TOP
10
8.325000
20
2.038410
30
0.0
11
8.437500
21
2.037866
31
0.0
0
LINE
8
TOP
10
8.437500
20
2.037866
30
0.0
11
8.500000
21
2.037564
31
0.0
0
LINE
8
TOP
10
8.500000
20
2.037564
30
0.0
11
8.550000
21
2.037322
31
0.0
0
LINE
8
TOP
10
8.550000
20
2.037322
30
0.0
11
8.662500
21
2.036779
31
0.0
0
LINE
8
TOP
10
8.662500
20
2.036779
30
0.0
11
8.775000
21
2.036235
31
0.0
0
LINE
8
TOP
10
8.775000
20
2.036235
30
0.0
11
8.887500
21
2.035691
31
0.0
0
LINE
8
TOP
10
8.887500
20
2.035691
30
0.0
11
9.000000
21
2.035148
31
0.0
0
LINE
8
TOP
10
0.000000
20
1.519303
30
0.0
11
0.112500
21
1.521390
31
0.0
0
LINE
8
TOP
10
0.112500
20
1.521390
30
0.0
11
0.225000
21
1.523477
31
0.0
0
LINE
8
TOP
10
0.225000
20
1.523477
30
0.0
11
0.337500
21
1.525564
31
0.0
0
LINE
8
TOP
10
0.337500
20
1.525564
30
0.0
11
0.450000
21
1.527652
31
0.0
0
LINE
8
TOP
10
0.450000
20
1.527652
30
0.0
11
0.500000
21
1.528579
31
0.0
0
LINE
8
TOP
10
0.500000
20
1.528579
30
0.0
11
0.562500
21
1.529739
31
0.0
0
LINE
8
TOP
10
0.562500
20
1.529739
30
0.0
11
0.675000
21
1.531826
31
0.0
0
LINE
8
TOP
10
0.675000
20
1.531826
30
0.0
11
0.787500
21
1.533913
31
0.0
0
LINE
8
TOP
10
0.787500
20
1.533913
30
0.0
11
0.900000
21
1.536000
31
0.0
0
LINE
8
TOP
10
0.900000
20
1.536000
30
0.0
11
1.012500
21
1.538087
31
0.0
0
LINE
8
TOP
10
1.012500
20
1.538087
30
0.0
11
1.125000
21
1.540174
31
0.0
0
LINE
8
TOP
10
1.125000
20
1.540174
30
0.0
11
1.237500
21
1.542261
31
0.0
0
LINE
8
TOP
10
1.237500
20
1.542261
30
0.0
11
1.350000
21
1.544349
31
0.0
0
LINE
8
TOP
10
1.350000
20
1.544349
30
0.0
11
1.462500
21
1.546436
31
0.0
0
LINE
8
TOP
10
1.462500
20
1.546436
30
0.0
11
1.575000
21
1.548523
31
0.0
0
LINE
8
TOP
10
1.575000
20
1.548523
30
0.0
11
1.687500
21
1.550610
31
0.0
0
LINE
8
TOP
10
1.687500
20
1.550610
30
0.0
11
1.800000
21
1.552697
31
0.0
0
LINE
8
TOP
10
1.800000
20
1.552697
30
0.0
11
1.912500
21
1.554784
31
0.0
0
LINE
8
TOP
10
1.912500
20
1.554784
30
0.0
11
2.025000
21
1.556871
31
0.0
0
LINE
8
TOP
10
2.025000
20
1.556871
30
0.0
11
2.137500
21
1.558959
31
0.0
0
LINE
8
TOP
10
2.137500
20
1.558959
30
0.0
11
2.250000
21
1.561046
31
0.0
0
LINE
8
TOP
10
2.250000
20
1.561046
30
0.0
11
2.362500
21
1.563133
31
0.0
0
LINE
8
TOP
10
2.362500
20
1.563133
30
0.0
11
2.475000
21
1.565220
31
0.0
0
LINE
8
TOP
10
2.475000
20
1.565220
30
0.0
11
2.587500
21
1.567307
31
0.0
0
LINE
8
TOP
10
2.587500
20
1.567307
30
0.0
11
2.700000
21
1.569394
31
0.0
0
LINE
8
TOP
10
2.700000
20
1.569394
30
0.0
11
2.812500
21
1.571481
31
0.0
0
LINE
8
TOP
10
2.812500
20
1.571481
30
0.0
11
2.925000
21
1.573568
31
0.0
0
LINE
8
TOP
10
2.925000
20
1.573568
30
0.0
11
3.037500
21
1.575656
31
0.0
0
LINE
8
TOP
10
3.037500
20
1.575656
30
0.0
11
3.150000
21
1.577743
31
0.0
0
LINE
8
TOP
10
3.150000
20
1.577743
30
0.0
11
3.262500
21
1.579830
31
0.0
0
LINE
8
TOP
10
3.262500
20
1.579830
30
0.0
11
3.375000
21
1.581917
31
0.0
0
LINE
8
TOP
10
3.375000
20
1.581917
30
0.0
11
3.487500
21
1.584004
31
0.0
0
LINE
8
TOP
10
3.487500
20
1.584004
30
0.0
11
3.600000
21
1.586091
31
0.0
0
LINE
8
TOP
10
3.600000
20
1.586091
30
0.0
11
3.712500
21
1.588178
31
0.0
0
LINE
8
TOP
10
3.712500
20
1.588178
30
0.0
11
3.825000
21
1.590265
31
0.0
0
LINE
8
TOP
10
3.825000
20
1.590265
30
0.0
11
3.937500
21
1.592353
31
0.0
0
LINE
8
TOP
10
3.937500
20
1.592353
30
0.0
11
4.050000
21
1.594440
31
0.0
0
LINE
8
TOP
10
4.050000
20
1.594440
30
0.0
11
4.162500
21
1.596527
31
0.0
0
LINE
8
TOP
10
4.162500
20
1.596527
30
0.0
11
4.275000
21
1.598614
31
0.0
0
LINE
8
TOP
10
4.275000
20
1.598614
30
0.0
11
4.387500
21
1.600701
31
0.0
0
LINE
8
TOP
10
4.387500
20
1.600701
30
0.0
11
4.500000
21
1.602788
31
0.0
0
LINE
8
TOP
10
4.500000
20
1.602788
30
0.0
11
4.612500
21
1.603332
31
0.0
0
LINE
8
TOP
10
4.612500
20
1.603332
30
0.0
11
4.725000
21
1.603875
31
0.0
0
LINE
8
TOP
10
4.725000
20
1.603875
30
0.0
11
4.837500
21
1.604419
31
0.0
0
LINE
8
TOP
10
4.837500
20
1.604419
30
0.0
11
4.950000
21
1.604963
31
0.0
0
LINE
8
TOP
10
4.950000
20
1.604963
30
0.0
11
5.062500
21
1.605506
31
0.0
0
LINE
8
TOP
10
5.062500
20
1.605506
30
0.0
11
5.175000
21
1.606050
31
0.0
0
LINE
8
TOP
10
5.175000
20
1.606050
30
0.0
11
5.287500
21
1.606593
31
0.0
0
LINE
8
TOP
10
5.287500
20
1.606593
30
0.0
11
5.400000
21
1.607137
31
0.0
0
LINE
8
TOP
10
5.400000
20
1.607137
30
0.0
11
5.512500
21
1.607681
31
0.0
0
LINE
8
TOP
10
5.512500
20
1.607681
30
0.0
11
5.625000
21
1.608224
31
0.0
0
LINE
8
TOP
10
5.625000
20
1.608224
30
0.0
11
5.737500
21
1.608768
31
0.0
0
LINE
8
TOP
10
5.737500
20
1.608768
30
0.0
11
5.850000
21
1.609312
31
0.0
0
LINE
8
TOP
10
5.850000
20
1.609312
30
0.0
11
5.962500
21
1.609855
31
0.0
0
LINE
8
TOP
10
5.962500
20
1.609855
30
0.0
11
6.075000
21
1.610399
31
0.0
0
LINE
8
TOP
10
6.075000
20
1.610399
30
0.0
11
6.187500
21
1.610942
31
0.0
0
LINE
8
TOP
10
6.187500
20
1.610942
30
0.0
11
6.300000
21
1.611486
31
0.0
0
LINE
8
TOP
10
6.300000
20
1.611486
30
0.0
11
6.412500
21
1.612030
31
0.0
0
LINE
8
TOP
10
6.412500
20
1.612030
30
0.0
11
6.525000
21
1.612573
31
0.0
0
LINE
8
TOP
10
6.525000
20
1.612573
30
0.0
11
6.637500
21
1.613117
31
0.0
0
LINE
8
TOP
10
6.637500
20
1.613117
30
0.0
11
6.750000
21
1.613660
31
0.0
0
LINE
8
TOP
10
6.750000
20
1.613660
30
0.0
11
6.862500
21
1.614204
31
0.0
0
LINE
8
TOP
10
6.862500
20
1.614204
30
0.0
11
6.975000
21
1.614748
31
0.0
0
LINE
8
TOP
10
6.975000
20
1.614748
30
0.0
11
7.087500
21
1.615291
31
0.0
0
LINE
8
TOP
10
7.087500
20
1.615291
30
0.0
11
7.200000
21
1.615835
31
0.0
0
LINE
8
TOP
10
7.200000
20
1.615835
30
0.0
11
7.312500
21
1.616378
31
0.0
0
LINE
8
TOP
10
7.312500
20
1.616378
30
0.0
11
7.425000
21
1.616922
31
0.0
0
LINE
8
TOP
10
7.425000
20
1.616922
30
0.0
11
7.537500
21
1.617466
31
0.0
0
LINE
8
TOP
10
7.537500
20
1.617466
30
0.0
11
7.650000
21
1.618009
31
0.0
0
LINE
8
TOP
10
7.650000
20
1.618009
30
0.0
11
7.762500
21
1.618553
31
0.0
0
LINE
8
TOP
10
7.762500
20
1.618553
30
0.0
11
7.875000
21
1.619096
31
0.0
0
LINE
8
TOP
10
7.875000
20
1.619096
30
0.0
11
7.987500
21
1.619640
31
0.0
0
LINE
8
TOP
10
7.987500
20
1.619640
30
0.0
11
8.100000
21
1.620184
31
0.0
0
LINE
8
TOP
10
8.100000
20
1.620184
30
0.0
11
8.212500
21
1.620727
31
0.0
0
LINE
8
TOP
10
8.212500
20
1.620727
30
0.0
11
8.325000
21
1.621271
31
0.0
0
LINE
8
TOP
10
8.325000
20
1.621271
30
0.0
11
8.437500
21
1.621814
31
0.0
0
LINE
8
TOP
10
8.437500
20
1.621814
30
0.0
11
8.500000
21
1.622116
31
0.0
0
LINE
8
TOP
10
8.500000
20
1.622116
30
0.0
11
8.550000
21
1.622358
31
0.0
0
LINE
8
TOP
10
8.550000
20
1.622358
30
0.0
11
8.662500
21
1.622902
31
0.0
0
LINE
8
TOP
10
8.662500
20
1.622902
30
0.0
11
8.775000
21
1.623445
31
0.0
0
LINE
8
TOP
10
8.775000
20
1.623445
30
0.0
11
8.887500
21
1.623989
31
0.0
0
LINE
8
TOP
10
8.887500
20
1.623989
30
0.0
11
9.000000
21
1.624533
31
0.0
0
LINE
8
TOP
10
0.000000
20
2.140377
30
0.0
11
0.000000
21
1.519303
31
0.0
0
LINE
8
TOP
10
9.000000
20
2.035148
30
0.0
11
9.000000
21
1.624533
31
0.0
0
LINE
8
SECTION
10
10.272948
20
-0.243770
30
0.0
11
10.727052
21
-0.243770
31
0.0
0
LINE
8
SECTION
10
10.727052
20
-0.243770
30
0.0
11
10.727052
21
0.243770
31
0.0
0
LINE
8
SECTION
10
10.727052
20
0.243770
30
0.0
11
10.272948
21
0.243770
31
0.0
0
LINE
8
SECTION
10
10.272948
20
0.243770
30
0.0
11
10.272948
21
-0.243770
31
0.0
0
LINE
8
SECTION
10
10.333697
20
-0.183021
30
0.0
11
10.666303
21
-0.183021
31
0.0
0
LINE
8
SECTION
10
10.666303
20
-0.183021
30
0.0
11
10.666303
21
0.183021
31
0.0
0
LINE
8
SECTION
10
10.666303
20
0.183021
30
0.0
11
10.333697
21
0.183021
31
0.0
0
LINE
8
SECTION
10
10.333697
20
0.183021
30
0.0
11
10.333697
21
-0.183021
31
0.0
0
LINE
8
SECTION
10
10.333697
20
0.000000
30
0.0
11
10.394445
21
0.000000
31
0.0
0
LINE
8
SECTION
10
10.394445
20
0.000000
30
0.0
11
10.394445
21
0.183021
31
0.0
0
LINE
8
SECTION
10
10.394445
20
0.183021
30
0.0
11
10.333697
21
0.183021
31
0.0
0
LINE
8
SECTION
10
10.333697
20
0.183021
30
0.0
11
10.333697
21
0.000000
31
0.0
0
LINE
8
SECTION
10
10.333697
20
-0.183021
30
0.0
11
10.394445
21
-0.183021
31
0.0
0
LINE
8
SECTION
10
10.394445
20
-0.183021
30
0.0
11
10.394445
21
0.000000
31
0.0
0
LINE
8
SECTION
10
10.394445
20
0.000000
30
0.0
11
10.333697
21
0.000000
31
0.0
0
LINE
8
SECTION
10
10.333697
20
0.000000
30
0.0
11
10.333697
21
-0.183021
31
0.0
0
LINE
8
SECTION
10
10.605555
20
0.000000
30
0.0
11
10.666303
21
0.000000
31
0.0
0
LINE
8
SECTION
10
10.666303
20
0.000000
30
0.0
11
10.666303
21
0.183021
31
0.0
0
LINE
8
SECTION
10
10.666303
20
0.183021
30
0.0
11
10.605555
21
0.183021
31
0.0
0
LINE
8
SECTION
10
10.605555
20
0.183021
30
0.0
11
10.605555
21
0.000000
31
0.0
0
LINE
8
SECTION
10
10.605555
20
-0.183021
30
0.0
11
10.666303
21
-0.183021
31
0.0
0
LINE
8
SECTION
10
10.666303
20
-0.183021
30
0.0
11
10.666303
21
0.000000
31
0.0
0
LINE
8
SECTION
10
10.666303
20
0.000000
30
0.0
11
10.605555
21
0.000000
31
0.0
0
LINE
8
SECTION
10
10.605555
20
0.000000
30
0.0
11
10.605555
21
-0.183021
31
0.0
0
ENDSEC
0
EOF
