0
SECTION
2
HEADER
9
$INSUNITS
70
1
0
ENDSEC
0
SECTION
2
ENTITIES
0
LINE
8
FRONT
10
0.000000
20
0.298697
30
0.0
11
0.112500
21
0.297915
31
0.0
0
LINE
8
FRONT
10
0.112500
20
0.297915
30
0.0
11
0.225000
21
0.297133
31
0.0
0
LINE
8
FRONT
10
0.225000
20
0.297133
30
0.0
11
0.337500
21
0.296351
31
0.0
0
LINE
8
FRONT
10
0.337500
20
0.296351
30
0.0
11
0.450000
21
0.295569
31
0.0
0
LINE
8
FRONT
10
0.450000
20
0.295569
30
0.0
11
0.500000
21
0.295222
31
0.0
0
LINE
8
FRONT
10
0.500000
20
0.295222
30
0.0
11
0.562500
21
0.294787
31
0.0
0
LINE
8
FRONT
10
0.562500
20
0.294787
30
0.0
11
0.675000
21
0.294005
31
0.0
0
LINE
8
FRONT
10
0.675000
20
0.294005
30
0.0
11
0.787500
21
0.293223
31
0.0
0
LINE
8
FRONT
10
0.787500
20
0.293223
30
0.0
11
0.900000
21
0.292442
31
0.0
0
LINE
8
FRONT
10
0.900000
20
0.292442
30
0.0
11
1.012500
21
0.291660
31
0.0
0
LINE
8
FRONT
10
1.012500
20
0.291660
30
0.0
11
1.125000
21
0.290878
31
0.0
0
LINE
8
FRONT
10
1.125000
20
0.290878
30
0.0
11
1.237500
21
0.290096
31
0.0
0
LINE
8
FRONT
10
1.237500
20
0.290096
30
0.0
11
1.350000
21
0.289314
31
0.0
0
LINE
8
FRONT
10
1.350000
20
0.289314
30
0.0
11
1.462500
21
0.288532
31
0.0
0
LINE
8
FRONT
10
1.462500
20
0.288532
30
0.0
11
1.575000
21
0.287750
31
0.0
0
LINE
8
FRONT
10
1.575000
20
0.287750
30
0.0
11
1.687500
21
0.286968
31
0.0
0
LINE
8
FRONT
10
1.687500
20
0.286968
30
0.0
11
1.800000
21
0.286186
31
0.0
0
LINE
8
FRONT
10
1.800000
20
0.286186
30
0.0
11
1.912500
21
0.285404
31
0.0
0
LINE
8
FRONT
10
1.912500
20
0.285404
30
0.0
11
2.025000
21
0.284622
31
0.0
0
LINE
8
FRONT
10
2.025000
20
0.284622
30
0.0
11
2.137500
21
0.283841
31
0.0
0
LINE
8
FRONT
10
2.137500
20
0.283841
30
0.0
11
2.250000
21
0.283059
31
0.0
0
LINE
8
FRONT
10
2.250000
20
0.283059
30
0.0
11
2.362500
21
0.282277
31
0.0
0
LINE
8
FRONT
10
2.362500
20
0.282277
30
0.0
11
2.475000
21
0.281495
31
0.0
0
LINE
8
FRONT
10
2.475000
20
0.281495
30
0.0
11
2.587500
21
0.280713
31
0.0
0
LINE
8
FRONT
10
2.587500
20
0.280713
30
0.0
11
2.700000
21
0.279931
31
0.0
0
LINE
8
FRONT
10
2.700000
20
0.279931
30
0.0
11
2.812500
21
0.279149
31
0.0
0
LINE
8
FRONT
10
2.812500
20
0.279149
30
0.0
11
2.925000
21
0.278367
31
0.0
0
LINE
8
FRONT
10
2.925000
20
0.278367
30
0.0
11
3.037500
21
0.277585
31
0.0
0
LINE
8
FRONT
10
3.037500
20
0.277585
30
0.0
11
3.150000
21
0.276803
31
0.0
0
LINE
8
FRONT
10
3.150000
20
0.276803
30
0.0
11
3.262500
21
0.276021
31
0.0
0
LINE
8
FRONT
10
3.262500
20
0.276021
30
0.0
11
3.375000
21
0.275240
31
0.0
0
LINE
8
FRONT
10
3.375000
20
0.275240
30
0.0
11
3.487500
21
0.274458
31
0.0
0
LINE
8
FRONT
10
3.487500
20
0.274458
30
0.0
11
3.600000
21
0.273676
31
0.0
0
LINE
8
FRONT
10
3.600000
20
0.273676
30
0.0
11
3.712500
21
0.272894
31
0.0
0
LINE
8
FRONT
10
3.712500
20
0.272894
30
0.0
11
3.825000
21
0.272112
31
0.0
0
LINE
8
FRONT
10
3.825000
20
0.272112
30
0.0
11
3.937500
21
0.271330
31
0.0
0
LINE
8
FRONT
10
3.937500
20
0.271330
30
0.0
11
4.050000
21
0.270548
31
0.0
0
LINE
8
FRONT
10
4.050000
20
0.270548
30
0.0
11
4.162500
21
0.269766
31
0.0
0
LINE
8
FRONT
10
4.162500
20
0.269766
30
0.0
11
4.275000
21
0.268984
31
0.0
0
LINE
8
FRONT
10
4.275000
20
0.268984
30
0.0
11
4.387500
21
0.268202
31
0.0
0
LINE
8
FRONT
10
4.387500
20
0.268202
30
0.0
11
4.500000
21
0.267420
31
0.0
0
LINE
8
FRONT
10
4.500000
20
0.267420
30
0.0
11
4.612500
21
0.268202
31
0.0
0
LINE
8
FRONT
10
4.612500
20
0.268202
30
0.0
11
4.725000
21
0.268984
31
0.0
0
LINE
8
FRONT
10
4.725000
20
0.268984
30
0.0
11
4.837500
21
0.269766
31
0.0
0
LINE
8
FRONT
10
4.837500
20
0.269766
30
0.0
11
4.950000
21
0.270548
31
0.0
0
LINE
8
FRONT
10
4.950000
20
0.270548
30
0.0
11
5.062500
21
0.271330
31
0.0
0
LINE
8
FRONT
10
5.062500
20
0.271330
30
0.0
11
5.175000
21
0.272112
31
0.0
0
LINE
8
FRONT
10
5.175000
20
0.272112
30
0.0
11
5.287500
21
0.272894
31
0.0
0
LINE
8
FRONT
10
5.287500
20
0.272894
30
0.0
11
5.400000
21
0.273676
31
0.0
0
LINE
8
FRONT
10
5.400000
20
0.273676
30
0.0
11
5.512500
21
0.274458
31
0.0
0
LINE
8
FRONT
10
5.512500
20
0.274458
30
0.0
11
5.625000
21
0.275240
31
0.0
0
LINE
8
FRONT
10
5.625000
20
0.275240
30
0.0
11
5.737500
21
0.276021
31
0.0
0
LINE
8
FRONT
10
5.737500
20
0.276021
30
0.0
11
5.850000
21
0.276803
31
0.0
0
LINE
8
FRONT
10
5.850000
20
0.276803
30
0.0
11
5.962500
21
0.277585
31
0.0
0
LINE
8
FRONT
10
5.962500
20
0.277585
30
0.0
11
6.075000
21
0.278367
31
0.0
0
LINE
8
FRONT
10
6.075000
20
0.278367
30
0.0
11
6.187500
21
0.279149
31
0.0
0
LINE
8
FRONT
10
6.187500
20
0.279149
30
0.0
11
6.300000
21
0.279931
31
0.0
0
LINE
8
FRONT
10
6.300000
20
0.279931
30
0.0
11
6.412500
21
0.280713
31
0.0
0
LINE
8
FRONT
10
6.412500
20
0.280713
30
0.0
11
6.525000
21
0.281495
31
0.0
0
LINE
8
FRONT
10
6.525000
20
0.281495
30
0.0
11
6.637500
21
0.282277
31
0.0
0
LINE
8
FRONT
10
6.637500
20
0.282277
30
0.0
11
6.750000
21
0.283059
31
0.0
0
LINE
8
FRONT
10
6.750000
20
0.283059
30
0.0
11
6.862500
21
0.283841
31
0.0
0
LINE
8
FRONT
10
6.862500
20
0.283841
30
0.0
11
6.975000
21
0.284622
31
0.0
0
LINE
8
FRONT
10
6.975000
20
0.284622
30
0.0
11
7.087500
21
0.285404
31
0.0
0
LINE
8
FRONT
10
7.087500
20
0.285404
30
0.0
11
7.200000
21
0.286186
31
0.0
0
LINE
8
FRONT
10
7.200000
20
0.286186
30
0.0
11
7.312500
21
0.286968
31
0.0
0
LINE
8
FRONT
10
7.312500
20
0.286968
30
0.0
11
7.425000
21
0.287750
31
0.0
0
LINE
8
FRONT
10
7.425000
20
0.287750
30
0.0
11
7.537500
21
0.288532
31
0.0
0
LINE
8
FRONT
10
7.537500
20
0.288532
30
0.0
11
7.650000
21
0.289314
31
0.0
0
LINE
8
FRONT
10
7.650000
20
0.289314
30
0.0
11
7.762500
21
0.290096
31
0.0
0
LINE
8
FRONT
10
7.762500
20
0.290096
30
0.0
11
7.875000
21
0.290878
31
0.0
0
LINE
8
FRONT
10
7.875000
20
0.290878
30
0.0
11
7.987500
21
0.291660
31
0.0
0
LINE
8
FRONT
10
7.987500
20
0.291660
30
0.0
11
8.100000
21
0.292442
31
0.0
0
LINE
8
FRONT
10
8.100000
20
0.292442
30
0.0
11
8.212500
21
0.293223
31
0.0
0
LINE
8
FRONT
10
8.212500
20
0.293223
30
0.0
11
8.325000
21
0.294005
31
0.0
0
LINE
8
FRONT
10
8.325000
20
0.294005
30
0.0
11
8.437500
21
0.294787
31
0.0
0
LINE
8
FRONT
10
8.437500
20
0.294787
30
0.0
11
8.500000
21
0.295222
31
0.0
0
LINE
8
FRONT
10
8.500000
20
0.295222
30
0.0
11
8.550000
21
0.295569
31
0.0
0
LINE
8
FRONT
10
8.550000
20
0.295569
30
0.0
11
8.662500
21
0.296351
31
0.0
0
LINE
8
FRONT
10
8.662500
20
0.296351
30
0.0
11
8.775000
21
0.297133
31
0.0
0
LINE
8
FRONT
10
8.775000
20
0.297133
30
0.0
11
8.887500
21
0.297915
31
0.0
0
LINE
8
FRONT
10
8.887500
20
0.297915
30
0.0
11
9.000000
21
0.298697
31
0.0
0
LINE
8
FRONT
10
0.000000
20
-0.298697
30
0.0
11
0.112500
21
-0.297915
31
0.0
0
LINE
8
FRONT
10
0.112500
20
-0.297915
30
0.0
11
0.225000
21
-0.297133
31
0.0
0
LINE
8
FRONT
10
0.225000
20
-0.297133
30
0.0
11
0.337500
21
-0.296351
31
0.0
0
LINE
8
FRONT
10
0.337500
20
-0.296351
30
0.0
11
0.450000
21
-0.295569
31
0.0
0
LINE
8
FRONT
10
0.450000
20
-0.295569
30
0.0
11
0.500000
21
-0.295222
31
0.0
0
LINE
8
FRONT
10
0.500000
20
-0.295222
30
0.0
11
0.562500
21
-0.294787
31
0.0
0
LINE
8
FRONT
10
0.562500
20
-0.294787
30
0.0
11
0.675000
21
-0.294005
31
0.0
0
LINE
8
FRONT
10
0.675000
20
-0.294005
30
0.0
11
0.787500
21
-0.293223
31
0.0
0
LINE
8
FRONT
10
0.787500
20
-0.293223
30
0.0
11
0.900000
21
-0.292442
31
0.0
0
LINE
8
FRONT
10
0.900000
20
-0.292442
30
0.0
11
1.012500
21
-0.291660
31
0.0
0
LINE
8
FRONT
10
1.012500
20
-0.291660
30
0.0
11
1.125000
21
-0.290878
31
0.0
0
LINE
8
FRONT
10
1.125000
20
-0.290878
30
0.0
11
1.237500
21
-0.290096
31
0.0
0
LINE
8
FRONT
10
1.237500
20
-0.290096
30
0.0
11
1.350000
21
-0.289314
31
0.0
0
LINE
8
FRONT
10
1.350000
20
-0.289314
30
0.0
11
1.462500
21
-0.288532
31
0.0
0
LINE
8
FRONT
10
1.462500
20
-0.288532
30
0.0
11
1.575000
21
-0.287750
31
0.0
0
LINE
8
FRONT
10
1.575000
20
-0.287750
30
0.0
11
1.687500
21
-0.286968
31
0.0
0
LINE
8
FRONT
10
1.687500
20
-0.286968
30
0.0
11
1.800000
21
-0.286186
31
0.0
0
LINE
8
FRONT
10
1.800000
20
-0.286186
30
0.0
11
1.912500
21
-0.285404
31
0.0
0
LINE
8
FRONT
10
1.912500
20
-0.285404
30
0.0
11
2.025000
21
-0.284622
31
0.0
0
LINE
8
FRONT
10
2.025000
20
-0.284622
30
0.0
11
2.137500
21
-0.283841
31
0.0
0
LINE
8
FRONT
10
2.137500
20
-0.283841
30
0.0
11
2.250000
21
-0.283059
31
0.0
0
LINE
8
FRONT
10
2.250000
20
-0.283059
30
0.0
11
2.362500
21
-0.282277
31
0.0
0
LINE
8
FRONT
10
2.362500
20
-0.282277
30
0.0
11
2.475000
21
-0.281495
31
0.0
0
LINE
8
FRONT
10
2.475000
20
-0.281495
30
0.0
11
2.587500
21
-0.280713
31
0.0
0
LINE
8
FRONT
10
2.587500
20
-0.280713
30
0.0
11
2.700000
21
-0.279931
31
0.0
0
LINE
8
FRONT
10
2.700000
20
-0.279931
30
0.0
11
2.812500
21
-0.279149
31
0.0
0
LINE
8
FRONT
10
2.812500
20
-0.279149
30
0.0
11
2.925000
21
-0.278367
31
0.0
0
LINE
8
FRONT
10
2.925000
20
-0.278367
30
0.0
11
3.037500
21
-0.277585
31
0.0
0
LINE
8
FRONT
10
3.037500
20
-0.277585
30
0.0
11
3.150000
21
-0.276803
31
0.0
0
LINE
8
FRONT
10
3.150000
20
-0.276803
30
0.0
11
3.262500
21
-0.276021
31
0.0
0
LINE
8
FRONT
10
3.262500
20
-0.276021
30
0.0
11
3.375000
21
-0.275240
31
0.0
0
LINE
8
FRONT
10
3.375000
20
-0.275240
30
0.0
11
3.487500
21
-0.274458
31
0.0
0
LINE
8
FRONT
10
3.487500
20
-0.274458
30
0.0
11
3.600000
21
-0.273676
31
0.0
0
LINE
8
FRONT
10
3.600000
20
-0.273676
30
0.0
11
3.712500
21
-0.272894
31
0.0
0
LINE
8
FRONT
10
3.712500
20
-0.272894
30
0.0
11
3.825000
21
-0.272112
31
0.0
0
LINE
8
FRONT
10
3.825000
20
-0.272112
30
0.0
11
3.937500
21
-0.271330
31
0.0
0
LINE
8
FRONT
10
3.937500
20
-0.271330
30
0.0
11
4.050000
21
-0.270548
31
0.0
0
LINE
8
FRONT
10
4.050000
20
-0.270548
30
0.0
11
4.162500
21
-0.269766
31
0.0
0
LINE
8
FRONT
10
4.162500
20
-0.269766
30
0.0
11
4.275000
21
-0.268984
31
0.0
0
LINE
8
FRONT
10
4.275000
20
-0.268984
30
0.0
11
4.387500
21
-0.268202
31
0.0
0
LINE
8
FRONT
10
4.387500
20
-0.268202
30
0.0
11
4.500000
21
-0.267420
31
0.0
0
LINE
8
FRONT
10
4.500000
20
-0.267420
30
0.0
11
4.612500
21
-0.268202
31
0.0
0
LINE
8
FRONT
10
4.612500
20
-0.268202
30
0.0
11
4.725000
21
-0.268984
31
0.0
0
LINE
8
FRONT
10
4.725000
20
-0.268984
30
0.0
11
4.837500
21
-0.269766
31
0.0
0
LINE
8
FRONT
10
4.837500
20
-0.269766
30
0.0
11
4.950000
21
-0.270548
31
0.0
0
LINE
8
FRONT
10
4.950000
20
-0.270548
30
0.0
11
5.062500
21
-0.271330
31
0.0
0
LINE
8
FRONT
10
5.062500
20
-0.271330
30
0.0
11
5.175000
21
-0.272112
31
0.0
0
LINE
8
FRONT
10
5.175000
20
-0.272112
30
0.0
11
5.287500
21
-0.272894
31
0.0
0
LINE
8
FRONT
10
5.287500
20
-0.272894
30
0.0
11
5.400000
21
-0.273676
31
0.0
0
LINE
8
FRONT
10
5.400000
20
-0.273676
30
0.0
11
5.512500
21
-0.274458
31
0.0
0
LINE
8
FRONT
10
5.512500
20
-0.274458
30
0.0
11
5.625000
21
-0.275240
31
0.0
0
LINE
8
FRONT
10
5.625000
20
-0.275240
30
0.0
11
5.737500
21
-0.276021
31
0.0
0
LINE
8
FRONT
10
5.737500
20
-0.276021
30
0.0
11
5.850000
21
-0.276803
31
0.0
0
LINE
8
FRONT
10
5.850000
20
-0.276803
30
0.0
11
5.962500
21
-0.277585
31
0.0
0
LINE
8
FRONT
10
5.962500
20
-0.277585
30
0.0
11
6.075000
21
-0.278367
31
0.0
0
LINE
8
FRONT
10
6.075000
20
-0.278367
30
0.0
11
6.187500
21
-0.279149
31
0.0
0
LINE
8
FRONT
10
6.187500
20
-0.279149
30
0.0
11
6.300000
21
-0.279931
31
0.0
0
LINE
8
FRONT
10
6.300000
20
-0.279931
30
0.0
11
6.412500
21
-0.280713
31
0.0
0
LINE
8
FRONT
10
6.412500
20
-0.280713
30
0.0
11
6.525000
21
-0.281495
31
0.0
0
LINE
8
FRONT
10
6.525000
20
-0.281495
30
0.0
11
6.637500
21
-0.282277
31
0.0
0
LINE
8
FRONT
10
6.637500
20
-0.282277
30
0.0
11
6.750000
21
-0.283059
31
0.0
0
LINE
8
FRONT
10
6.750000
20
-0.283059
30
0.0
11
6.862500
21
-0.283841
31
0.0
0
LINE
8
FRONT
10
6.862500
20
-0.283841
30
0.0
11
6.975000
21
-0.284622
31
0.0
0
LINE
8
FRONT
10
6.975000
20
-0.284622
30
0.0
11
7.087500
21
-0.285404
31
0.0
0
LINE
8
FRONT
10
7.087500
20
-0.285404
30
0.0
11
7.200000
21
-0.286186
31
0.0
0
LINE
8
FRONT
10
7.200000
20
-0.286186
30
0.0
11
7.312500
21
-0.286968
31
0.0
0
LINE
8
FRONT
10
7.312500
20
-0.286968
30
0.0
11
7.425000
21
-0.287750
31
0.0
0
LINE
8
FRONT
10
7.425000
20
-0.287750
30
0.0
11
7.537500
21
-0.288532
31
0.0
0
LINE
8
FRONT
10
7.537500
20
-0.288532
30
0.0
11
7.650000
21
-0.289314
31
0.0
0
LINE
8
FRONT
10
7.650000
20
-0.289314
30
0.0
11
7.762500
21
-0.290096
31
0.0
0
LINE
8
FRONT
10
7.762500
20
-0.290096
30
0.0
11
7.875000
21
-0.290878
31
0.0
0
LINE
8
FRONT
10
7.875000
20
-0.290878
30
0.0
11
7.987500
21
-0.291660
31
0.0
0
LINE
8
FRONT
10
7.987500
20
-0.291660
30
0.0
11
8.100000
21
-0.292442
31
0.0
0
LINE
8
FRONT
10
8.100000
20
-0.292442
30
0.0
11
8.212500
21
-0.293223
31
0.0
0
LINE
8
FRONT
10
8.212500
20
-0.293223
30
0.0
11
8.325000
21
-0.294005
31
0.0
0
LINE
8
FRONT
10
8.325000
20
-0.294005
30
0.0
11
8.437500
21
-0.294787
31
0.0
0
LINE
8
FRONT
10
8.437500
20
-0.294787
30
0.0
11
8.500000
21
-0.295222
31
0.0
0
LINE
8
FRONT
10
8.500000
20
-0.295222
30
0.0
11
8.550000
21
-0.295569
31
0.0
0
LINE
8
FRONT
10
8.550000
20
-0.295569
30
0.0
11
8.662500
21
-0.296351
31
0.0
0
LINE
8
FRONT
10
8.662500
20
-0.296351
30
0.0
11
8.775000
21
-0.297133
31
0.0
0
LINE
8
FRONT
10
8.775000
20
-0.297133
30
0.0
11
8.887500
21
-0.297915
31
0.0
0
LINE
8
FRONT
10
8.887500
20
-0.297915
30
0.0
11
9.000000
21
-0.298697
31
0.0
0
LINE
8
FRONT
10
0.000000
20
0.298697
30
0.0
11
0.000000
21
-0.298697
31
0.0
0
LINE
8
FRONT
10
9.000000
20
0.298697
30
0.0
11
9.000000
21
-0.298697
31
0.0
0
LINE
8
TOP
10
0.000000
20
1.780334
30
0.0
11
0.112500
21
1.784733
31
0.0
0
LINE
8
TOP
10
0.112500
20
1.784733
30
0.0
11
0.225000
21
1.789132
31
0.0
0
LINE
8
TOP
10
0.225000
20
1.789132
30
0.0
11
0.337500
21
1.793531
31
0.0
0
LINE
8
TOP
10
0.337500
20
1.793531
30
0.0
11
0.450000
21
1.797929
31
0.0
0
LINE
8
TOP
10
0.450000
20
1.797929
30
0.0
11
0.500000
21
1.799884
31
0.0
0
LINE
8
TOP
10
0.500000
20
1.799884
30
0.0
11
0.562500
21
1.802328
31
0.0
0
LINE
8
TOP
10
0.562500
20
1.802328
30
0.0
11
0.675000
21
1.806727
31
0.0
0
LINE
8
TOP
10
0.675000
20
1.806727
30
0.0
11
0.787500
21
1.811125
31
0.0
0
LINE
8
TOP
10
0.787500
20
1.811125
30
0.0
11
0.900000
21
1.815524
31
0.0
0
LINE
8
TOP
10
0.900000
20
1.815524
30
0.0
11
1.012500
21
1.819923
31
0.0
0
LINE
8
TOP
10
1.012500
20
1.819923
30
0.0
11
1.125000
21
1.824321
31
0.0
0
LINE
8
TOP
10
1.125000
20
1.824321
30
0.0
11
1.237500
21
1.828720
31
0.0
0
LINE
8
TOP
10
1.237500
20
1.828720
30
0.0
11
1.350000
21
1.833119
31
0.0
0
LINE
8
TOP
10
1.350000
20
1.833119
30
0.0
11
1.462500
21
1.837518
31
0.0
0
LINE
8
TOP
10
1.462500
20
1.837518
30
0.0
11
1.575000
21
1.841916
31
0.0
0
LINE
8
TOP
10
1.575000
20
1.841916
30
0.0
11
1.687500
21
1.846315
31
0.0
0
LINE
8
TOP
10
1.687500
20
1.846315
30
0.0
11
1.800000
21
1.850714
31
0.0
0
LINE
8
TOP
10
1.800000
20
1.850714
30
0.0
11
1.912500
21
1.855112
31
0.0
0
LINE
8
TOP
10
1.912500
20
1.855112
30
0.0
11
2.025000
21
1.859511
31
0.0
0
LINE
8
TOP
10
2.025000
20
1.859511
30
0.0
11
2.137500
21
1.863910
31
0.0
0
LINE
8
TOP
10
2.137500
20
1.863910
30
0.0
11
2.250000
21
1.868308
31
0.0
0
LINE
8
TOP
10
2.250000
20
1.868308
30
0.0
11
2.362500
21
1.872707
31
0.0
0
LINE
8
TOP
10
2.362500
20
1.872707
30
0.0
11
2.475000
21
1.877106
31
0.0
0
LINE
8
TOP
10
2.475000
20
1.877106
30
0.0
11
2.587500
21
1.881505
31
0.0
0
LINE
8
TOP
10
2.587500
20
1.881505
30
0.0
11
2.700000
21
1.885903
31
0.0
0
LINE
8
TOP
10
2.700000
20
1.885903
30
0.0
11
2.812500
21
1.890302
31
0.0
0
LINE
8
TOP
10
2.812500
20
1.890302
30
0.0
11
2.925000
21
1.894701
31
0.0
0
LINE
8
TOP
10
2.925000
20
1.894701
30
0.0
11
3.037500
21
1.899099
31
0.0
0
LINE
8
TOP
10
3.037500
20
1.899099
30
0.0
11
3.150000
21
1.903498
31
0.0
0
LINE
8
TOP
10
3.150000
20
1.903498
30
0.0
11
3.262500
21
1.907897
31
0.0
0
LINE
8
TOP
10
3.262500
20
1.907897
30
0.0
11
3.375000
21
1.912295
31
0.0
0
LINE
8
TOP
10
3.375000
20
1.912295
30
0.0
11
3.487500
21
1.916694
31
0.0
0
LINE
8
TOP
10
3.487500
20
1.916694
30
0.0
11
3.600000
21
1.921093
31
0.0
0
LINE
8
TOP
10
3.600000
20
1.921093
30
0.0
11
3.712500
21
1.925492
31
0.0
0
LINE
8
TOP
10
3.712500
20
1.925492
30
0.0
11
3.825000
21
1.929890
31
0.0
0
LINE
8
TOP
10
3.825000
20
1.929890
30
0.0
11
3.937500
21
1.934289
31
0.0
0
LINE
8
TOP
10
3.937500
20
1.934289
30
0.0
11
4.050000
21
1.938688
31
0.0
0
LINE
8
TOP
10
4.050000
20
1.938688
30
0.0
11
4.162500
21
1.943086
31
0.0
0
LINE
8
TOP
10
4.162500
20
1.943086
30
0.0
11
4.275000
21
1.947485
31
0.0
0
LINE
8
TOP
10
4.275000
20
1.947485
30
0.0
11
4.387500
21
1.951884
31
0.0
0
LINE
8
TOP
10
4.387500
20
1.951884
30
0.0
11
4.500000
21
1.956282
31
0.0
0
LINE
8
TOP
10
4.500000
20
1.956282
30
0.0
11
4.612500
21
1.951884
31
0.0
0
LINE
8
TOP
10
4.612500
20
1.951884
30
0.0
11
4.725000
21
1.947485
31
0.0
0
LINE
8
TOP
10
4.725000
20
1.947485
30
0.0
11
4.837500
21
1.943086
31
0.0
0
LINE
8
TOP
10
4.837500
20
1.943086
30
0.0
11
4.950000
21
1.938688
31
0.0
0
LINE
8
TOP
10
4.950000
20
1.938688
30
0.0
11
5.062500
21
1.934289
31
0.0
0
LINE
8
TOP
10
5.062500
20
1.934289
30
0.0
11
5.175000
21
1.929890
31
0.0
0
LINE
8
TOP
10
5.175000
20
1.929890
30
0.0
11
5.287500
21
1.925492
31
0.0
0
LINE
8
TOP
10
5.287500
20
1.925492
30
0.0
11
5.400000
21
1.921093
31
0.0
0
LINE
8
TOP
10
5.400000
20
1.921093
30
0.0
11
5.512500
21
1.916694
31
0.0
0
LINE
8
TOP
10
5.512500
20
1.916694
30
0.0
11
5.625000
21
1.912295
31
0.0
0
LINE
8
TOP
10
5.625000
20
1.912295
30
0.0
11
5.737500
21
1.907897
31
0.0
0
LINE
8
TOP
10
5.737500
20
1.907897
30
0.0
11
5.850000
21
1.903498
31
0.0
0
LINE
8
TOP
10
5.850000
20
1.903498
30
0.0
11
5.962500
21
1.899099
31
0.0
0
LINE
8
TOP
10
5.962500
20
1.899099
30
0.0
11
6.075000
21
1.894701
31
0.0
0
LINE
8
TOP
10
6.075000
20
1.894701
30
0.0
11
6.187500
21
1.890302
31
0.0
0
LINE
8
TOP
10
6.187500
20
1.890302
30
0.0
11
6.300000
21
1.885903
31
0.0
0
LINE
8
TOP
10
6.300000
20
1.885903
30
0.0
11
6.412500
21
1.881505
31
0.0
0
LINE
8
TOP
10
6.412500
20
1.881505
30
0.0
11
6.525000
21
1.877106
31
0.0
0
LINE
8
TOP
10
6.525000
20
1.877106
30
0.0
11
6.637500
21
1.872707
31
0.0
0
LINE
8
TOP
10
6.637500
20
1.872707
30
0.0
11
6.750000
21
1.868308
31
0.0
0
LINE
8
TOP
10
6.750000
20
1.868308
30
0.0
11
6.862500
21
1.863910
31
0.0
0
LINE
8
TOP
10
6.862500
20
1.863910
30
0.0
11
6.975000
21
1.859511
31
0.0
0
LINE
8
TOP
10
6.975000
20
1.859511
30
0.0
11
7.087500
21
1.855112
31
0.0
0
LINE
8
TOP
10
7.087500
20
1.855112
30
0.0
11
7.200000
21
1.850714
31
0.0
0
LINE
8
TOP
10
7.200000
20
1.850714
30
0.0
11
7.312500
21
1.846315
31
0.0
0
LINE
8
TOP
10
7.312500
20
1.846315
30
0.0
11
7.425000
21
1.841916
31
0.0
0
LINE
8
TOP
10
7.425000
20
1.841916
30
0.0
11
7.537500
21
1.837518
31
0.0
0
LINE
8
TOP
10
7.537500
20
1.837518
30
0.0
11
7.650000
21
1.833119
31
0.0
0
LINE
8
TOP
10
7.650000
20
1.833119
30
0.0
11
7.762500
21
1.828720
31
0.0
0
LINE
8
TOP
10
7.762500
20
1.828720
30
0.0
11
7.875000
21
1.824321
31
0.0
0
LINE
8
TOP
10
7.875000
20
1.824321
30
0.0
11
7.987500
21
1.819923
31
0.0
0
LINE
8
TOP
10
7.987500
20
1.819923
30
0.0
11
8.100000
21
1.815524
31
0.0
0
LINE
8
TOP
10
8.100000
20
1.815524
30
0.0
11
8.212500
21
1.811125
31
0.0
0
LINE
8
TOP
10
8.212500
20
1.811125
30
0.0
11
8.325000
21
1.806727
31
0.0
0
LINE
8
TOP
10
8.325000
20
1.806727
30
0.0
11
8.437500
21
1.802328
31
0.0
0
LINE
8
TOP
10
8.437500
20
1.802328
30
0.0
11
8.500000
21
1.799884
31
0.0
0
LINE
8
TOP
10
8.500000
20
1.799884
30
0.0
11
8.550000
21
1.797929
31
0.0
0
LINE
8
TOP
10
8.550000
20
1.797929
30
0.0
11
8.662500
21
1.793531
31
0.0
0
LINE
8
TOP
10
8.662500
20
1.793531
30
0.0
11
8.775000
21
1.789132
31
0.0
0
LINE
8
TOP
10
8.775000
20
1.789132
30
0.0
11
8.887500
21
1.784733
31
0.0
0
LINE
8
TOP
10
8.887500
20
1.784733
30
0.0
11
9.000000
21
1.780334
31
0.0
0
LINE
8
TOP
10
0.000000
20
1.529089
30
0.0
11
0.112500
21
1.524690
31
0.0
0
LINE
8
TOP
10
0.112500
20
1.524690
30
0.0
11
0.225000
21
1.520292
31
0.0
0
LINE
8
TOP
10
0.225000
20
1.520292
30
0.0
11
0.337500
21
1.515893
31
0.0
0
LINE
8
TOP
10
0.337500
20
1.515893
30
0.0
11
0.450000
21
1.511494
31
0.0
0
LINE
8
TOP
10
0.450000
20
1.511494
30
0.0
11
0.500000
21
1.509539
31
0.0
0
LINE
8
TOP
10
0.500000
20
1.509539
30
0.0
11
0.562500
21
1.507096
31
0.0
0
LINE
8
TOP
10
0.562500
20
1.507096
30
0.0
11
0.675000
21
1.502697
31
0.0
0
LINE
8
TOP
10
0.675000
20
1.502697
30
0.0
11
0.787500
21
1.498298
31
0.0
0
LINE
8
TOP
10
0.787500
20
1.498298
30
0.0
11
0.900000
21
1.493900
31
0.0
0
LINE
8
TOP
10
0.900000
20
1.493900
30
0.0
11
1.012500
21
1.489501
31
0.0
0
LINE
8
TOP
10
1.012500
20
1.489501
30
0.0
11
1.125000
21
1.485102
31
0.0
0
LINE
8
TOP
10
1.125000
20
1.485102
30
0.0
11
1.237500
21
1.480703
31
0.0
0
LINE
8
TOP
10
1.237500
20
1.480703
30
0.0
11
1.350000
21
1.476305
31
0.0
0
LINE
8
TOP
10
1.350000
20
1.476305
30
0.0
11
1.462500
21
1.471906
31
0.0
0
LINE
8
TOP
10
1.462500
20
1.471906
30
0.0
11
1.575000
21
1.467507
31
0.0
0
LINE
8
TOP
10
1.575000
20
1.467507
30
0.0
11
1.687500
21
1.463109
31
0.0
0
LINE
8
TOP
10
1.687500
20
1.463109
30
0.0
11
1.800000
21
1.458710
31
0.0
0
LINE
8
TOP
10
1.800000
20
1.458710
30
0.0
11
1.912500
21
1.454311
31
0.0
0
LINE
8
TOP
10
1.912500
20
1.454311
30
0.0
11
2.025000
21
1.449913
31
0.0
0
LINE
8
TOP
10
2.025000
20
1.449913
30
0.0
11
2.137500
21
1.445514
31
0.0
0
LINE
8
TOP
10
2.137500
20
1.445514
30
0.0
11
2.250000
21
1.441115
31
0.0
0
LINE
8
TOP
10
2.250000
20
1.441115
30
0.0
11
2.362500
21
1.436716
31
0.0
0
LINE
8
TOP
10
2.362500
20
1.436716
30
0.0
11
2.475000
21
1.432318
31
0.0
0
LINE
8
TOP
10
2.475000
20
1.432318
30
0.0
11
2.587500
21
1.427919
31
0.0
0
LINE
8
TOP
10
2.587500
20
1.427919
30
0.0
11
2.700000
21
1.423520
31
0.0
0
LINE
8
TOP
10
2.700000
20
1.423520
30
0.0
11
2.812500
21
1.419122
31
0.0
0
LINE
8
TOP
10
2.812500
20
1.419122
30
0.0
11
2.925000
21
1.414723
31
0.0
0
LINE
8
TOP
10
2.925000
20
1.414723
30
0.0
11
3.037500
21
1.410324
31
0.0
0
LINE
8
TOP
10
3.037500
20
1.410324
30
0.0
11
3.150000
21
1.405926
31
0.0
0
LINE
8
TOP
10
3.150000
20
1.405926
30
0.0
11
3.262500
21
1.401527
31
0.0
0
LINE
8
TOP
10
3.262500
20
1.401527
30
0.0
11
3.375000
21
1.397128
31
0.0
0
LINE
8
TOP
10
3.375000
20
1.397128
30
0.0
11
3.487500
21
1.392729
31
0.0
0
LINE
8
TOP
10
3.487500
20
1.392729
30
0.0
11
3.600000
21
1.388331
31
0.0
0
LINE
8
TOP
10
3.600000
20
1.388331
30
0.0
11
3.712500
21
1.383932
31
0.0
0
LINE
8
TOP
10
3.712500
20
1.383932
30
0.0
11
3.825000
21
1.379533
31
0.0
0
LINE
8
TOP
10
3.825000
20
1.379533
30
0.0
11
3.937500
21
1.375135
31
0.0
0
LINE
8
TOP
10
3.937500
20
1.375135
30
0.0
11
4.050000
21
1.370736
31
0.0
0
LINE
8
TOP
10
4.050000
20
1.370736
30
0.0
11
4.162500
21
1.366337
31
0.0
0
LINE
8
TOP
10
4.162500
20
1.366337
30
0.0
11
4.275000
21
1.361939
31
0.0
0
LINE
8
TOP
10
4.275000
20
1.361939
30
0.0
11
4.387500
21
1.357540
31
0.0
0
LINE
8
TOP
10
4.387500
20
1.357540
30
0.0
11
4.500000
21
1.353141
31
0.0
0
LINE
8
TOP
10
4.500000
20
1.353141
30
0.0
11
4.612500
21
1.357540
31
0.0
0
LINE
8
TOP
10
4.612500
20
1.357540
30
0.0
11
4.725000
21
1.361939
31
0.0
0
LINE
8
TOP
10
4.725000
20
1.361939
30
0.0
11
4.837500
21
1.366337
31
0.0
0
LINE
8
TOP
10
4.837500
20
1.366337
30
0.0
11
4.950000
21
1.370736
31
0.0
0
LINE
8
TOP
10
4.950000
20
1.370736
30
0.0
11
5.062500
21
1.375135
31
0.0
0
LINE
8
TOP
10
5.062500
20
1.375135
30
0.0
11
5.175000
21
1.379533
31
0.0
0
LINE
8
TOP
10
5.175000
20
1.379533
30
0.0
11
5.287500
21
1.383932
31
0.0
0
LINE
8
TOP
10
5.287500
20
1.383932
30
0.0
11
5.400000
21
1.388331
31
0.0
0
LINE
8
TOP
10
5.400000
20
1.388331
30
0.0
11
5.512500
21
1.392729
31
0.0
0
LINE
8
TOP
10
5.512500
20
1.392729
30
0.0
11
5.625000
21
1.397128
31
0.0
0
LINE
8
TOP
10
5.625000
20
1.397128
30
0.0
11
5.737500
21
1.401527
31
0.0
0
LINE
8
TOP
10
5.737500
20
1.401527
30
0.0
11
5.850000
21
1.405926
31
0.0
0
LINE
8
TOP
10
5.850000
20
1.405926
30
0.0
11
5.962500
21
1.410324
31
0.0
0
LINE
8
TOP
10
5.962500
20
1.410324
30
0.0
11
6.075000
21
1.414723
31
0.0
0
LINE
8
TOP
10
6.075000
20
1.414723
30
0.0
11
6.187500
21
1.419122
31
0.0
0
LINE
8
TOP
10
6.187500
20
1.419122
30
0.0
11
6.300000
21
1.423520
31
0.0
0
LINE
8
TOP
10
6.300000
20
1.423520
30
0.0
11
6.412500
21
1.427919
31
0.0
0
LINE
8
TOP
10
6.412500
20
1.427919
30
0.0
11
6.525000
21
1.432318
31
0.0
0
LINE
8
TOP
10
6.525000
20
1.432318
30
0.0
11
6.637500
21
1.436716
31
0.0
0
LINE
8
TOP
10
6.637500
20
1.436716
30
0.0
11
6.750000
21
1.441115
31
0.0
0
LINE
8
TOP
10
6.750000
20
1.441115
30
0.0
11
6.862500
21
1.445514
31
0.0
0
LINE
8
TOP
10
6.862500
20
1.445514
30
0.0
11
6.975000
21
1.449913
31
0.0
0
LINE
8
TOP
10
6.975000
20
1.449913
30
0.0
11
7.087500
21
1.454311
31
0.0
0
LINE
8
TOP
10
7.087500
20
1.454311
30
0.0
11
7.200000
21
1.458710
31
0.0
0
LINE
8
TOP
10
7.200000
20
1.458710
30
0.0
11
7.312500
21
1.463109
31
0.0
0
LINE
8
TOP
10
7.312500
20
1.463109
30
0.0
11
7.425000
21
1.467507
31
0.0
0
LINE
8
TOP
10
7.425000
20
1.467507
30
0.0
11
7.537500
21
1.471906
31
0.0
0
LINE
8
TOP
10
7.537500
20
1.471906
30
0.0
11
7.650000
21
1.476305
31
0.0
0
LINE
8
TOP
10
7.650000
20
1.476305
30
0.0
11
7.762500
21
1.480703
31
0.0
0
LINE
8
TOP
10
7.762500
20
1.480703
30
0.0
11
7.875000
21
1.485102
31
0.0
0
LINE
8
TOP
10
7.875000
20
1.485102
30
0.0
11
7.987500
21
1.489501
31
0.0
0
LINE
8
TOP
10
7.987500
20
1.489501
30
0.0
11
8.100000
21
1.493900
31
0.0
0
LINE
8
TOP
10
8.100000
20
1.493900
30
0.0
11
8.212500
21
1.498298
31
0.0
0
LINE
8
TOP
10
8.212500
20
1.498298
30
0.0
11
8.325000
21
1.502697
31
0.0
0
LINE
8
TOP
10
8.325000
20
1.502697
30
0.0
11
8.437500
21
1.507096
31
0.0
0
LINE
8
TOP
10
8.437500
20
1.507096
30
0.0
11
8.500000
21
1.509539
31
0.0
0
LINE
8
TOP
10
8.500000
20
1.509539
30
0.0
11
8.550000
21
1.511494
31
0.0
0
LINE
8
TOP
10
8.550000
20
1.511494
30
0.0
11
8.662500
21
1.515893
31
0.0
0
LINE
8
TOP
10
8.662500
20
1.515893
30
0.0
11
8.775000
21
1.520292
31
0.0
0
LINE
8
TOP
10
8.775000
20
1.520292
30
0.0
11
8.887500
21
1.524690
31
0.0
0
LINE
8
TOP
10
8.887500
20
1.524690
30
0.0
11
9.000000
21
1.529089
31
0.0
0
LINE
8
TOP
10
0.000000
20
1.780334
30
0.0
11
0.000000
21
1.529089
31
0.0
0
LINE
8
TOP
10
9.000000
20
1.780334
30
0.0
11
9.000000
21
1.529089
31
0.0
0
LINE
8
SECTION
10
10.198429
20
-0.267420
30
0.0
11
10.801571
21
-0.267420
31
0.0
0
LINE
8
SECTION
10
10.801571
20
-0.267420
30
0.0
11
10.801571
21
0.267420
31
0.0
0
LINE
8
SECTION
10
10.801571
20
0.267420
30
0.0
11
10.198429
21
0.267420
31
0.0
0
LINE
8
SECTION
10
10.198429
20
0.267420
30
0.0
11
10.198429
21
-0.267420
31
0.0
0
LINE
8
SECTION
10
10.240262
20
-0.225588
30
0.0
11
10.759738
21
-0.225588
31
0.0
0
LINE
8
SECTION
10
10.759738
20
-0.225588
30
0.0
11
10.759738
21
0.225588
31
0.0
0
LINE
8
SECTION
10
10.759738
20
0.225588
30
0.0
11
10.240262
21
0.225588
31
0.0
0
LINE
8
SECTION
10
10.240262
20
0.225588
30
0.0
11
10.240262
21
-0.225588
31
0.0
0
LINE
8
SECTION
10
10.240262
20
0.152754
30
0.0
11
10.282094
21
0.152754
31
0.0
0
LINE
8
SECTION
10
10.282094
20
0.152754
30
0.0
11
10.282094
21
0.225588
31
0.0
0
LINE
8
SECTION
10
10.282094
20
0.225588
30
0.0
11
10.240262
21
0.225588
31
0.0
0
LINE
8
SECTION
10
10.240262
20
0.225588
30
0.0
11
10.240262
21
0.152754
31
0.0
0
LINE
8
SECTION
10
10.240262
20
-0.225588
30
0.0
11
10.282094
21
-0.225588
31
0.0
0
LINE
8
SECTION
10
10.282094
20
-0.225588
30
0.0
11
10.282094
21
-0.152754
31
0.0
0
LINE
8
SECTION
10
10.282094
20
-0.152754
30
0.0
11
10.240262
21
-0.152754
31
0.0
0
LINE
8
SECTION
10
10.240262
20
-0.152754
30
0.0
11
10.240262
21
-0.225588
31
0.0
0
LINE
8
SECTION
10
10.717906
20
0.152754
30
0.0
11
10.759738
21
0.152754
31
0.0
0
LINE
8
SECTION
10
10.759738
20
0.152754
30
0.0
11
10.759738
21
0.225588
31
0.0
0
LINE
8
SECTION
10
10.759738
20
0.225588
30
0.0
11
10.717906
21
0.225588
31
0.0
0
LINE
8
SECTION
10
10.717906
20
0.225588
30
0.0
11
10.717906
21
0.152754
31
0.0
0
LINE
8
SECTION
10
10.717906
20
-0.225588
30
0.0
11
10.759738
21
-0.225588
31
0.0
0
LINE
8
SECTION
10
10.759738
20
-0.225588
30
0.0
11
10.759738
21
-0.152754
31
0.0
0
LINE
8
SECTION
10
10.759738
20
-0.152754
30
0.0
11
10.717906
21
-0.152754
31
0.0
0
LINE
8
SECTION
10
10.717906
20
-0.152754
30
0.0
11
10.717906
21
-0.225588
31
0.0
0
ENDSEC
0
EOF
