0
SECTION
2
HEADER
9
$INSUNITS
70
1
0
ENDSEC
0
SECTION
2
ENTITIES
0
LINE
8
FRONT
10
0.000000
20
0.550000
30
0.0
11
0.112500
21
0.545118
31
0.0
0
LINE
8
FRONT
10
0.112500
20
0.545118
30
0.0
11
0.225000
21
0.540236
31
0.0
0
LINE
8
FRONT
10
0.225000
20
0.540236
30
0.0
11
0.337500
21
0.535353
31
0.0
0
LINE
8
FRONT
10
0.337500
20
0.535353
30
0.0
11
0.450000
21
0.530471
31
0.0
0
LINE
8
FRONT
10
0.450000
20
0.530471
30
0.0
11
0.500000
21
0.528301
31
0.0
0
LINE
8
FRONT
10
0.500000
20
0.528301
30
0.0
11
0.562500
21
0.525589
31
0.0
0
LINE
8
FRONT
10
0.562500
20
0.525589
30
0.0
11
0.675000
21
0.520707
31
0.0
0
LINE
8
FRONT
10
0.675000
20
0.520707
30
0.0
11
0.787500
21
0.515824
31
0.0
0
LINE
8
FRONT
10
0.787500
20
0.515824
30
0.0
11
0.900000
21
0.510942
31
0.0
0
LINE
8
FRONT
10
0.900000
20
0.510942
30
0.0
11
1.012500
21
0.506060
31
0.0
0
LINE
8
FRONT
10
1.012500
20
0.506060
30
0.0
11
1.125000
21
0.501178
31
0.0
0
LINE
8
FRONT
10
1.125000
20
0.501178
30
0.0
11
1.237500
21
0.496295
31
0.0
0
LINE
8
FRONT
10
1.237500
20
0.496295
30
0.0
11
1.350000
21
0.491413
31
0.0
0
LINE
8
FRONT
10
1.350000
20
0.491413
30
0.0
11
1.462500
21
0.486531
31
0.0
0
LINE
8
FRONT
10
1.462500
20
0.486531
30
0.0
11
1.575000
21
0.481649
31
0.0
0
LINE
8
FRONT
10
1.575000
20
0.481649
30
0.0
11
1.687500
21
0.476767
31
0.0
0
LINE
8
FRONT
10
1.687500
20
0.476767
30
0.0
11
1.800000
21
0.471884
31
0.0
0
LINE
8
FRONT
10
1.800000
20
0.471884
30
0.0
11
1.912500
21
0.467002
31
0.0
0
LINE
8
FRONT
10
1.912500
20
0.467002
30
0.0
11
2.025000
21
0.462120
31
0.0
0
LINE
8
FRONT
10
2.025000
20
0.462120
30
0.0
11
2.137500
21
0.457238
31
0.0
0
LINE
8
FRONT
10
2.137500
20
0.457238
30
0.0
11
2.250000
21
0.452355
31
0.0
0
LINE
8
FRONT
10
2.250000
20
0.452355
30
0.0
11
2.362500
21
0.447473
31
0.0
0
LINE
8
FRONT
10
2.362500
20
0.447473
30
0.0
11
2.475000
21
0.442591
31
0.0
0
LINE
8
FRONT
10
2.475000
20
0.442591
30
0.0
11
2.587500
21
0.437709
31
0.0
0
LINE
8
FRONT
10
2.587500
20
0.437709
30
0.0
11
2.700000
21
0.432826
31
0.0
0
LINE
8
FRONT
10
2.700000
20
0.432826
30
0.0
11
2.812500
21
0.427944
31
0.0
0
LINE
8
FRONT
10
2.812500
20
0.427944
30
0.0
11
2.925000
21
0.423062
31
0.0
0
LINE
8
FRONT
10
2.925000
20
0.423062
30
0.0
11
3.037500
21
0.418180
31
0.0
0
LINE
8
FRONT
10
3.037500
20
0.418180
30
0.0
11
3.150000
21
0.413298
31
0.0
0
LINE
8
FRONT
10
3.150000
20
0.413298
30
0.0
11
3.262500
21
0.408415
31
0.0
0
LINE
8
FRONT
10
3.262500
20
0.408415
30
0.0
11
3.375000
21
0.403533
31
0.0
0
LINE
8
FRONT
10
3.375000
20
0.403533
30
0.0
11
3.487500
21
0.398651
31
0.0
0
LINE
8
FRONT
10
3.487500
20
0.398651
30
0.0
11
3.600000
21
0.393769
31
0.0
0
LINE
8
FRONT
10
3.600000
20
0.393769
30
0.0
11
3.712500
21
0.388886
31
0.0
0
LINE
8
FRONT
10
3.712500
20
0.388886
30
0.0
11
3.825000
21
0.384004
31
0.0
0
LINE
8
FRONT
10
3.825000
20
0.384004
30
0.0
11
3.937500
21
0.379122
31
0.0
0
LINE
8
FRONT
10
3.937500
20
0.379122
30
0.0
11
4.050000
21
0.374240
31
0.0
0
LINE
8
FRONT
10
4.050000
20
0.374240
30
0.0
11
4.162500
21
0.369357
31
0.0
0
LINE
8
FRONT
10
4.162500
20
0.369357
30
0.0
11
4.275000
21
0.364475
31
0.0
0
LINE
8
FRONT
10
4.275000
20
0.364475
30
0.0
11
4.387500
21
0.359593
31
0.0
0
LINE
8
FRONT
10
4.387500
20
0.359593
30
0.0
11
4.500000
21
0.354711
31
0.0
0
LINE
8
FRONT
10
4.500000
20
0.354711
30
0.0
11
4.612500
21
0.352004
31
0.0
0
LINE
8
FRONT
10
4.612500
20
0.352004
30
0.0
11
4.725000
21
0.349297
31
0.0
0
LINE
8
FRONT
10
4.725000
20
0.349297
30
0.0
11
4.837500
21
0.346589
31
0.0
0
LINE
8
FRONT
10
4.837500
20
0.346589
30
0.0
11
4.950000
21
0.343882
31
0.0
0
LINE
8
FRONT
10
4.950000
20
0.343882
30
0.0
11
5.062500
21
0.341175
31
0.0
0
LINE
8
FRONT
10
5.062500
20
0.341175
30
0.0
11
5.175000
21
0.338468
31
0.0
0
LINE
8
FRONT
10
5.175000
20
0.338468
30
0.0
11
5.287500
21
0.335761
31
0.0
0
LINE
8
FRONT
10
5.287500
20
0.335761
30
0.0
11
5.400000
21
0.333054
31
0.0
0
LINE
8
FRONT
10
5.400000
20
0.333054
30
0.0
11
5.512500
21
0.330347
31
0.0
0
LINE
8
FRONT
10
5.512500
20
0.330347
30
0.0
11
5.625000
21
0.327640
31
0.0
0
LINE
8
FRONT
10
5.625000
20
0.327640
30
0.0
11
5.737500
21
0.324933
31
0.0
0
LINE
8
FRONT
10
5.737500
20
0.324933
30
0.0
11
5.850000
21
0.322226
31
0.0
0
LINE
8
FRONT
10
5.850000
20
0.322226
30
0.0
11
5.962500
21
0.319518
31
0.0
0
LINE
8
FRONT
10
5.962500
20
0.319518
30
0.0
11
6.075000
21
0.316811
31
0.0
0
LINE
8
FRONT
10
6.075000
20
0.316811
30
0.0
11
6.187500
21
0.314104
31
0.0
0
LINE
8
FRONT
10
6.187500
20
0.314104
30
0.0
11
6.300000
21
0.311397
31
0.0
0
LINE
8
FRONT
10
6.300000
20
0.311397
30
0.0
11
6.412500
21
0.308690
31
0.0
0
LINE
8
FRONT
10
6.412500
20
0.308690
30
0.0
11
6.525000
21
0.305983
31
0.0
0
LINE
8
FRONT
10
6.525000
20
0.305983
30
0.0
11
6.637500
21
0.303276
31
0.0
0
LINE
8
FRONT
10
6.637500
20
0.303276
30
0.0
11
6.750000
21
0.300569
31
0.0
0
LINE
8
FRONT
10
6.750000
20
0.300569
30
0.0
11
6.862500
21
0.297862
31
0.0
0
LINE
8
FRONT
10
6.862500
20
0.297862
30
0.0
11
6.975000
21
0.295154
31
0.0
0
LINE
8
FRONT
10
6.975000
20
0.295154
30
0.0
11
7.087500
21
0.292447
31
0.0
0
LINE
8
FRONT
10
7.087500
20
0.292447
30
0.0
11
7.200000
21
0.289740
31
0.0
0
LINE
8
FRONT
10
7.200000
20
0.289740
30
0.0
11
7.312500
21
0.287033
31
0.0
0
LINE
8
FRONT
10
7.312500
20
0.287033
30
0.0
11
7.425000
21
0.284326
31
0.0
0
LINE
8
FRONT
10
7.425000
20
0.284326
30
0.0
11
7.537500
21
0.281619
31
0.0
0
LINE
8
FRONT
10
7.537500
20
0.281619
30
0.0
11
7.650000
21
0.278912
31
0.0
0
LINE
8
FRONT
10
7.650000
20
0.278912
30
0.0
11
7.762500
21
0.276205
31
0.0
0
LINE
8
FRONT
10
7.762500
20
0.276205
30
0.0
11
7.875000
21
0.273498
31
0.0
0
LINE
8
FRONT
10
7.875000
20
0.273498
30
0.0
11
7.987500
21
0.270791
31
0.0
0
LINE
8
FRONT
10
7.987500
20
0.270791
30
0.0
11
8.100000
21
0.268083
31
0.0
0
LINE
8
FRONT
10
8.100000
20
0.268083
30
0.0
11
8.212500
21
0.265376
31
0.0
0
LINE
8
FRONT
10
8.212500
20
0.265376
30
0.0
11
8.325000
21
0.262669
31
0.0
0
LINE
8
FRONT
10
8.325000
20
0.262669
30
0.0
11
8.437500
21
0.259962
31
0.0
0
LINE
8
FRONT
10
8.437500
20
0.259962
30
0.0
11
8.500000
21
0.258458
31
0.0
0
LINE
8
FRONT
10
8.500000
20
0.258458
30
0.0
11
8.550000
21
0.257255
31
0.0
0
LINE
8
FRONT
10
8.550000
20
0.257255
30
0.0
11
8.662500
21
0.254548
31
0.0
0
LINE
8
FRONT
10
8.662500
20
0.254548
30
0.0
11
8.775000
21
0.251841
31
0.0
0
LINE
8
FRONT
10
8.775000
20
0.251841
30
0.0
11
8.887500
21
0.249134
31
0.0
0
LINE
8
FRONT
10
8.887500
20
0.249134
30
0.0
11
9.000000
21
0.246427
31
0.0
0
LINE
8
FRONT
10
0.000000
20
-0.550000
30
0.0
11
0.112500
21
-0.545118
31
0.0
0
LINE
8
FRONT
10
0.112500
20
-0.545118
30
0.0
11
0.225000
21
-0.540236
31
0.0
0
LINE
8
FRONT
10
0.225000
20
-0.540236
30
0.0
11
0.337500
21
-0.535353
31
0.0
0
LINE
8
FRONT
10
0.337500
20
-0.535353
30
0.0
11
0.450000
21
-0.530471
31
0.0
0
LINE
8
FRONT
10
0.450000
20
-0.530471
30
0.0
11
0.500000
21
-0.528301
31
0.0
0
LINE
8
FRONT
10
0.500000
20
-0.528301
30
0.0
11
0.562500
21
-0.525589
31
0.0
0
LINE
8
FRONT
10
0.562500
20
-0.525589
30
0.0
11
0.675000
21
-0.520707
31
0.0
0
LINE
8
FRONT
10
0.675000
20
-0.520707
30
0.0
11
0.787500
21
-0.515824
31
0.0
0
LINE
8
FRONT
10
0.787500
20
-0.515824
30
0.0
11
0.900000
21
-0.510942
31
0.0
0
LINE
8
FRONT
10
0.900000
20
-0.510942
30
0.0
11
1.012500
21
-0.506060
31
0.0
0
LINE
8
FRONT
10
1.012500
20
-0.506060
30
0.0
11
1.125000
21
-0.501178
31
0.0
0
LINE
8
FRONT
10
1.125000
20
-0.501178
30
0.0
11
1.237500
21
-0.496295
31
0.0
0
LINE
8
FRONT
10
1.237500
20
-0.496295
30
0.0
11
1.350000
21
-0.491413
31
0.0
0
LINE
8
FRONT
10
1.350000
20
-0.491413
30
0.0
11
1.462500
21
-0.486531
31
0.0
0
LINE
8
FRONT
10
1.462500
20
-0.486531
30
0.0
11
1.575000
21
-0.481649
31
0.0
0
LINE
8
FRONT
10
1.575000
20
-0.481649
30
0.0
11
1.687500
21
-0.476767
31
0.0
0
LINE
8
FRONT
10
1.687500
20
-0.476767
30
0.0
11
1.800000
21
-0.471884
31
0.0
0
LINE
8
FRONT
10
1.800000
20
-0.471884
30
0.0
11
1.912500
21
-0.467002
31
0.0
0
LINE
8
FRONT
10
1.912500
20
-0.467002
30
0.0
11
2.025000
21
-0.462120
31
0.0
0
LINE
8
FRONT
10
2.025000
20
-0.462120
30
0.0
11
2.137500
21
-0.457238
31
0.0
0
LINE
8
FRONT
10
2.137500
20
-0.457238
30
0.0
11
2.250000
21
-0.452355
31
0.0
0
LINE
8
FRONT
10
2.250000
20
-0.452355
30
0.0
11
2.362500
21
-0.447473
31
0.0
0
LINE
8
FRONT
10
2.362500
20
-0.447473
30
0.0
11
2.475000
21
-0.442591
31
0.0
0
LINE
8
FRONT
10
2.475000
20
-0.442591
30
0.0
11
2.587500
21
-0.437709
31
0.0
0
LINE
8
FRONT
10
2.587500
20
-0.437709
30
0.0
11
2.700000
21
-0.432826
31
0.0
0
LINE
8
FRONT
10
2.700000
20
-0.432826
30
0.0
11
2.812500
21
-0.427944
31
0.0
0
LINE
8
FRONT
10
2.812500
20
-0.427944
30
0.0
11
2.925000
21
-0.423062
31
0.0
0
LINE
8
FRONT
10
2.925000
20
-0.423062
30
0.0
11
3.037500
21
-0.418180
31
0.0
0
LINE
8
FRONT
10
3.037500
20
-0.418180
30
0.0
11
3.150000
21
-0.413298
31
0.0
0
LINE
8
FRONT
10
3.150000
20
-0.413298
30
0.0
11
3.262500
21
-0.408415
31
0.0
0
LINE
8
FRONT
10
3.262500
20
-0.408415
30
0.0
11
3.375000
21
-0.403533
31
0.0
0
LINE
8
FRONT
10
3.375000
20
-0.403533
30
0.0
11
3.487500
21
-0.398651
31
0.0
0
LINE
8
FRONT
10
3.487500
20
-0.398651
30
0.0
11
3.600000
21
-0.393769
31
0.0
0
LINE
8
FRONT
10
3.600000
20
-0.393769
30
0.0
11
3.712500
21
-0.388886
31
0.0
0
LINE
8
FRONT
10
3.712500
20
-0.388886
30
0.0
11
3.825000
21
-0.384004
31
0.0
0
LINE
8
FRONT
10
3.825000
20
-0.384004
30
0.0
11
3.937500
21
-0.379122
31
0.0
0
LINE
8
FRONT
10
3.937500
20
-0.379122
30
0.0
11
4.050000
21
-0.374240
31
0.0
0
LINE
8
FRONT
10
4.050000
20
-0.374240
30
0.0
11
4.162500
21
-0.369357
31
0.0
0
LINE
8
FRONT
10
4.162500
20
-0.369357
30
0.0
11
4.275000
21
-0.364475
31
0.0
0
LINE
8
FRONT
10
4.275000
20
-0.364475
30
0.0
11
4.387500
21
-0.359593
31
0.0
0
LINE
8
FRONT
10
4.387500
20
-0.359593
30
0.0
11
4.500000
21
-0.354711
31
0.0
0
LINE
8
FRONT
10
4.500000
20
-0.354711
30
0.0
11
4.612500
21
-0.352004
31
0.0
0
LINE
8
FRONT
10
4.612500
20
-0.352004
30
0.0
11
4.725000
21
-0.349297
31
0.0
0
LINE
8
FRONT
10
4.725000
20
-0.349297
30
0.0
11
4.837500
21
-0.346589
31
0.0
0
LINE
8
FRONT
10
4.837500
20
-0.346589
30
0.0
11
4.950000
21
-0.343882
31
0.0
0
LINE
8
FRONT
10
4.950000
20
-0.343882
30
0.0
11
5.062500
21
-0.341175
31
0.0
0
LINE
8
FRONT
10
5.062500
20
-0.341175
30
0.0
11
5.175000
21
-0.338468
31
0.0
0
LINE
8
FRONT
10
5.175000
20
-0.338468
30
0.0
11
5.287500
21
-0.335761
31
0.0
0
LINE
8
FRONT
10
5.287500
20
-0.335761
30
0.0
11
5.400000
21
-0.333054
31
0.0
0
LINE
8
FRONT
10
5.400000
20
-0.333054
30
0.0
11
5.512500
21
-0.330347
31
0.0
0
LINE
8
FRONT
10
5.512500
20
-0.330347
30
0.0
11
5.625000
21
-0.327640
31
0.0
0
LINE
8
FRONT
10
5.625000
20
-0.327640
30
0.0
11
5.737500
21
-0.324933
31
0.0
0
LINE
8
FRONT
10
5.737500
20
-0.324933
30
0.0
11
5.850000
21
-0.322226
31
0.0
0
LINE
8
FRONT
10
5.850000
20
-0.322226
30
0.0
11
5.962500
21
-0.319518
31
0.0
0
LINE
8
FRONT
10
5.962500
20
-0.319518
30
0.0
11
6.075000
21
-0.316811
31
0.0
0
LINE
8
FRONT
10
6.075000
20
-0.316811
30
0.0
11
6.187500
21
-0.314104
31
0.0
0
LINE
8
FRONT
10
6.187500
20
-0.314104
30
0.0
11
6.300000
21
-0.311397
31
0.0
0
LINE
8
FRONT
10
6.300000
20
-0.311397
30
0.0
11
6.412500
21
-0.308690
31
0.0
0
LINE
8
FRONT
10
6.412500
20
-0.308690
30
0.0
11
6.525000
21
-0.305983
31
0.0
0
LINE
8
FRONT
10
6.525000
20
-0.305983
30
0.0
11
6.637500
21
-0.303276
31
0.0
0
LINE
8
FRONT
10
6.637500
20
-0.303276
30
0.0
11
6.750000
21
-0.300569
31
0.0
0
LINE
8
FRONT
10
6.750000
20
-0.300569
30
0.0
11
6.862500
21
-0.297862
31
0.0
0
LINE
8
FRONT
10
6.862500
20
-0.297862
30
0.0
11
6.975000
21
-0.295154
31
0.0
0
LINE
8
FRONT
10
6.975000
20
-0.295154
30
0.0
11
7.087500
21
-0.292447
31
0.0
0
LINE
8
FRONT
10
7.087500
20
-0.292447
30
0.0
11
7.200000
21
-0.289740
31
0.0
0
LINE
8
FRONT
10
7.200000
20
-0.289740
30
0.0
11
7.312500
21
-0.287033
31
0.0
0
LINE
8
FRONT
10
7.312500
20
-0.287033
30
0.0
11
7.425000
21
-0.284326
31
0.0
0
LINE
8
FRONT
10
7.425000
20
-0.284326
30
0.0
11
7.537500
21
-0.281619
31
0.0
0
LINE
8
FRONT
10
7.537500
20
-0.281619
30
0.0
11
7.650000
21
-0.278912
31
0.0
0
LINE
8
FRONT
10
7.650000
20
-0.278912
30
0.0
11
7.762500
21
-0.276205
31
0.0
0
LINE
8
FRONT
10
7.762500
20
-0.276205
30
0.0
11
7.875000
21
-0.273498
31
0.0
0
LINE
8
FRONT
10
7.875000
20
-0.273498
30
0.0
11
7.987500
21
-0.270791
31
0.0
0
LINE
8
FRONT
10
7.987500
20
-0.270791
30
0.0
11
8.100000
21
-0.268083
31
0.0
0
LINE
8
FRONT
10
8.100000
20
-0.268083
30
0.0
11
8.212500
21
-0.265376
31
0.0
0
LINE
8
FRONT
10
8.212500
20
-0.265376
30
0.0
11
8.325000
21
-0.262669
31
0.0
0
LINE
8
FRONT
10
8.325000
20
-0.262669
30
0.0
11
8.437500
21
-0.259962
31
0.0
0
LINE
8
FRONT
10
8.437500
20
-0.259962
30
0.0
11
8.500000
21
-0.258458
31
0.0
0
LINE
8
FRONT
10
8.500000
20
-0.258458
30
0.0
11
8.550000
21
-0.257255
31
0.0
0
LINE
8
FRONT
10
8.550000
20
-0.257255
30
0.0
11
8.662500
21
-0.254548
31
0.0
0
LINE
8
FRONT
10
8.662500
20
-0.254548
30
0.0
11
8.775000
21
-0.251841
31
0.0
0
LINE
8
FRONT
10
8.775000
20
-0.251841
30
0.0
11
8.887500
21
-0.249134
31
0.0
0
LINE
8
FRONT
10
8.887500
20
-0.249134
30
0.0
11
9.000000
21
-0.246427
31
0.0
0
LINE
8
FRONT
10
0.000000
20
0.550000
30
0.0
11
0.000000
21
-0.550000
31
0.0
0
LINE
8
FRONT
10
9.000000
20
0.246427
30
0.0
11
9.000000
21
-0.246427
31
0.0
0
LINE
8
TOP
10
0.000000
20
2.540152
30
0.0
11
0.112500
21
2.540736
31
0.0
0
LINE
8
TOP
10
0.112500
20
2.540736
30
0.0
11
0.225000
21
2.541321
31
0.0
0
LINE
8
TOP
10
0.225000
20
2.541321
30
0.0
11
0.337500
21
2.541905
31
0.0
0
LINE
8
TOP
10
0.337500
20
2.541905
30
0.0
11
0.450000
21
2.542489
31
0.0
0
LINE
8
TOP
10
0.450000
20
2.542489
30
0.0
11
0.500000
21
2.542749
31
0.0
0
LINE
8
TOP
10
0.500000
20
2.542749
30
0.0
11
0.562500
21
2.543073
31
0.0
0
LINE
8
TOP
10
0.562500
20
2.543073
30
0.0
11
0.675000
21
2.543657
31
0.0
0
LINE
8
TOP
10
0.675000
20
2.543657
30
0.0
11
0.787500
21
2.544242
31
0.0
0
LINE
8
TOP
10
0.787500
20
2.544242
30
0.0
11
0.900000
21
2.544826
31
0.0
0
LINE
8
TOP
10
0.900000
20
2.544826
30
0.0
11
1.012500
21
2.545410
31
0.0
0
LINE
8
TOP
10
1.012500
20
2.545410
30
0.0
11
1.125000
21
2.545994
31
0.0
0
LINE
8
TOP
10
1.125000
20
2.545994
30
0.0
11
1.237500
21
2.546578
31
0.0
0
LINE
8
TOP
10
1.237500
20
2.546578
30
0.0
11
1.350000
21
2.547163
31
0.0
0
LINE
8
TOP
10
1.350000
20
2.547163
30
0.0
11
1.462500
21
2.547747
31
0.0
0
LINE
8
TOP
10
1.462500
20
2.547747
30
0.0
11
1.575000
21
2.548331
31
0.0
0
LINE
8
TOP
10
1.575000
20
2.548331
30
0.0
11
1.687500
21
2.548915
31
0.0
0
LINE
8
TOP
10
1.687500
20
2.548915
30
0.0
11
1.800000
21
2.549499
31
0.0
0
LINE
8
TOP
10
1.800000
20
2.549499
30
0.0
11
1.912500
21
2.550084
31
0.0
0
LINE
8
TOP
10
1.912500
20
2.550084
30
0.0
11
2.025000
21
2.550668
31
0.0
0
LINE
8
TOP
10
2.025000
20
2.550668
30
0.0
11
2.137500
21
2.551252
31
0.0
0
LINE
8
TOP
10
2.137500
20
2.551252
30
0.0
11
2.250000
21
2.551836
31
0.0
0
LINE
8
TOP
10
2.250000
20
2.551836
30
0.0
11
2.362500
21
2.552420
31
0.0
0
LINE
8
TOP
10
2.362500
20
2.552420
30
0.0
11
2.475000
21
2.553004
31
0.0
0
LINE
8
TOP
10
2.475000
20
2.553004
30
0.0
11
2.587500
21
2.553589
31
0.0
0
LINE
8
TOP
10
2.587500
20
2.553589
30
0.0
11
2.700000
21
2.554173
31
0.0
0
LINE
8
TOP
10
2.700000
20
2.554173
30
0.0
11
2.812500
21
2.554757
31
0.0
0
LINE
8
TOP
10
2.812500
20
2.554757
30
0.0
11
2.925000
21
2.555341
31
0.0
0
LINE
8
TOP
10
2.925000
20
2.555341
30
0.0
11
3.037500
21
2.555925
31
0.0
0
LINE
8
TOP
10
3.037500
20
2.555925
30
0.0
11
3.150000
21
2.556510
31
0.0
0
LINE
8
TOP
10
3.150000
20
2.556510
30
0.0
11
3.262500
21
2.557094
31
0.0
0
LINE
8
TOP
10
3.262500
20
2.557094
30
0.0
11
3.375000
21
2.557678
31
0.0
0
LINE
8
TOP
10
3.375000
20
2.557678
30
0.0
11
3.487500
21
2.558262
31
0.0
0
LINE
8
TOP
10
3.487500
20
2.558262
30
0.0
11
3.600000
21
2.558846
31
0.0
0
LINE
8
TOP
10
3.600000
20
2.558846
30
0.0
11
3.712500
21
2.559431
31
0.0
0
LINE
8
TOP
10
3.712500
20
2.559431
30
0.0
11
3.825000
21
2.560015
31
0.0
0
LINE
8
TOP
10
3.825000
20
2.560015
30
0.0
11
3.937500
21
2.560599
31
0.0
0
LINE
8
TOP
10
3.937500
20
2.560599
30
0.0
11
4.050000
21
2.561183
31
0.0
0
LINE
8
TOP
10
4.050000
20
2.561183
30
0.0
11
4.162500
21
2.561767
31
0.0
0
LINE
8
TOP
10
4.162500
20
2.561767
30
0.0
11
4.275000
21
2.562351
31
0.0
0
LINE
8
TOP
10
4.275000
20
2.562351
30
0.0
11
4.387500
21
2.562936
31
0.0
0
LINE
8
TOP
10
4.387500
20
2.562936
30
0.0
11
4.500000
21
2.563520
31
0.0
0
LINE
8
TOP
10
4.500000
20
2.563520
30
0.0
11
4.612500
21
2.564422
31
0.0
0
LINE
8
TOP
10
4.612500
20
2.564422
30
0.0
11
4.725000
21
2.565325
31
0.0
0
LINE
8
TOP
10
4.725000
20
2.565325
30
0.0
11
4.837500
21
2.566227
31
0.0
0
LINE
8
TOP
10
4.837500
20
2.566227
30
0.0
11
4.950000
21
2.567129
31
0.0
0
LINE
8
TOP
10
4.950000
20
2.567129
30
0.0
11
5.062500
21
2.568032
31
0.0
0
LINE
8
TOP
10
5.062500
20
2.568032
30
0.0
11
5.175000
21
2.568934
31
0.0
0
LINE
8
TOP
10
5.175000
20
2.568934
30
0.0
11
5.287500
21
2.569836
31
0.0
0
LINE
8
TOP
10
5.287500
20
2.569836
30
0.0
11
5.400000
21
2.570739
31
0.0
0
LINE
8
TOP
10
5.400000
20
2.570739
30
0.0
11
5.512500
21
2.571641
31
0.0
0
LINE
8
TOP
10
5.512500
20
2.571641
30
0.0
11
5.625000
21
2.572543
31
0.0
0
LINE
8
TOP
10
5.625000
20
2.572543
30
0.0
11
5.737500
21
2.573446
31
0.0
0
LINE
8
TOP
10
5.737500
20
2.573446
30
0.0
11
5.850000
21
2.574348
31
0.0
0
LINE
8
TOP
10
5.850000
20
2.574348
30
0.0
11
5.962500
21
2.575250
31
0.0
0
LINE
8
TOP
10
5.962500
20
2.575250
30
0.0
11
6.075000
21
2.576153
31
0.0
0
LINE
8
TOP
10
6.075000
20
2.576153
30
0.0
11
6.187500
21
2.577055
31
0.0
0
LINE
8
TOP
10
6.187500
20
2.577055
30
0.0
11
6.300000
21
2.577958
31
0.0
0
LINE
8
TOP
10
6.300000
20
2.577958
30
0.0
11
6.412500
21
2.578860
31
0.0
0
LINE
8
TOP
10
6.412500
20
2.578860
30
0.0
11
6.525000
21
2.579762
31
0.0
0
LINE
8
TOP
10
6.525000
20
2.579762
30
0.0
11
6.637500
21
2.580665
31
0.0
0
LINE
8
TOP
10
6.637500
20
2.580665
30
0.0
11
6.750000
21
2.581567
31
0.0
0
LINE
8
TOP
10
6.750000
20
2.581567
30
0.0
11
6.862500
21
2.582469
31
0.0
0
LINE
8
TOP
10
6.862500
20
2.582469
30
0.0
11
6.975000
21
2.583372
31
0.0
0
LINE
8
TOP
10
6.975000
20
2.583372
30
0.0
11
7.087500
21
2.584274
31
0.0
0
LINE
8
TOP
10
7.087500
20
2.584274
30
0.0
11
7.200000
21
2.585176
31
0.0
0
LINE
8
TOP
10
7.200000
20
2.585176
30
0.0
11
7.312500
21
2.586079
31
0.0
0
LINE
8
TOP
10
7.312500
20
2.586079
30
0.0
11
7.425000
21
2.586981
31
0.0
0
LINE
8
TOP
10
7.425000
20
2.586981
30
0.0
11
7.537500
21
2.587883
31
0.0
0
LINE
8
TOP
10
7.537500
20
2.587883
30
0.0
11
7.650000
21
2.588786
31
0.0
0
LINE
8
TOP
10
7.650000
20
2.588786
30
0.0
11
7.762500
21
2.589688
31
0.0
0
LINE
8
TOP
10
7.762500
20
2.589688
30
0.0
11
7.875000
21
2.590591
31
0.0
0
LINE
8
TOP
10
7.875000
20
2.590591
30
0.0
11
7.987500
21
2.591493
31
0.0
0
LINE
8
TOP
10
7.987500
20
2.591493
30
0.0
11
8.100000
21
2.592395
31
0.0
0
LINE
8
TOP
10
8.100000
20
2.592395
30
0.0
11
8.212500
21
2.593298
31
0.0
0
LINE
8
TOP
10
8.212500
20
2.593298
30
0.0
11
8.325000
21
2.594200
31
0.0
0
LINE
8
TOP
10
8.325000
20
2.594200
30
0.0
11
8.437500
21
2.595102
31
0.0
0
LINE
8
TOP
10
8.437500
20
2.595102
30
0.0
11
8.500000
21
2.595604
31
0.0
0
LINE
8
TOP
10
8.500000
20
2.595604
30
0.0
11
8.550000
21
2.596005
31
0.0
0
LINE
8
TOP
10
8.550000
20
2.596005
30
0.0
11
8.662500
21
2.596907
31
0.0
0
LINE
8
TOP
10
8.662500
20
2.596907
30
0.0
11
8.775000
21
2.597809
31
0.0
0
LINE
8
TOP
10
8.775000
20
2.597809
30
0.0
11
8.887500
21
2.598712
31
0.0
0
LINE
8
TOP
10
8.887500
20
2.598712
30
0.0
11
9.000000
21
2.599614
31
0.0
0
LINE
8
TOP
10
0.000000
20
2.259848
30
0.0
11
0.112500
21
2.259264
31
0.0
0
LINE
8
TOP
10
0.112500
20
2.259264
30
0.0
11
0.225000
21
2.258679
31
0.0
0
LINE
8
TOP
10
0.225000
20
2.258679
30
0.0
11
0.337500
21
2.258095
31
0.0
0
LINE
8
TOP
10
0.337500
20
2.258095
30
0.0
11
0.450000
21
2.257511
31
0.0
0
LINE
8
TOP
10
0.450000
20
2.257511
30
0.0
11
0.500000
21
2.257251
31
0.0
0
LINE
8
TOP
10
0.500000
20
2.257251
30
0.0
11
0.562500
21
2.256927
31
0.0
0
LINE
8
TOP
10
0.562500
20
2.256927
30
0.0
11
0.675000
21
2.256343
31
0.0
0
LINE
8
TOP
10
0.675000
20
2.256343
30
0.0
11
0.787500
21
2.255758
31
0.0
0
LINE
8
TOP
10
0.787500
20
2.255758
30
0.0
11
0.900000
21
2.255174
31
0.0
0
LINE
8
TOP
10
0.900000
20
2.255174
30
0.0
11
1.012500
21
2.254590
31
0.0
0
LINE
8
TOP
10
1.012500
20
2.254590
30
0.0
11
1.125000
21
2.254006
31
0.0
0
LINE
8
TOP
10
1.125000
20
2.254006
30
0.0
11
1.237500
21
2.253422
31
0.0
0
LINE
8
TOP
10
1.237500
20
2.253422
30
0.0
11
1.350000
21
2.252837
31
0.0
0
LINE
8
TOP
10
1.350000
20
2.252837
30
0.0
11
1.462500
21
2.252253
31
0.0
0
LINE
8
TOP
10
1.462500
20
2.252253
30
0.0
11
1.575000
21
2.251669
31
0.0
0
LINE
8
TOP
10
1.575000
20
2.251669
30
0.0
11
1.687500
21
2.251085
31
0.0
0
LINE
8
TOP
10
1.687500
20
2.251085
30
0.0
11
1.800000
21
2.250501
31
0.0
0
LINE
8
TOP
10
1.800000
20
2.250501
30
0.0
11
1.912500
21
2.249916
31
0.0
0
LINE
8
TOP
10
1.912500
20
2.249916
30
0.0
11
2.025000
21
2.249332
31
0.0
0
LINE
8
TOP
10
2.025000
20
2.249332
30
0.0
11
2.137500
21
2.248748
31
0.0
0
LINE
8
TOP
10
2.137500
20
2.248748
30
0.0
11
2.250000
21
2.248164
31
0.0
0
LINE
8
TOP
10
2.250000
20
2.248164
30
0.0
11
2.362500
21
2.247580
31
0.0
0
LINE
8
TOP
10
2.362500
20
2.247580
30
0.0
11
2.475000
21
2.246996
31
0.0
0
LINE
8
TOP
10
2.475000
20
2.246996
30
0.0
11
2.587500
21
2.246411
31
0.0
0
LINE
8
TOP
10
2.587500
20
2.246411
30
0.0
11
2.700000
21
2.245827
31
0.0
0
LINE
8
TOP
10
2.700000
20
2.245827
30
0.0
11
2.812500
21
2.245243
31
0.0
0
LINE
8
TOP
10
2.812500
20
2.245243
30
0.0
11
2.925000
21
2.244659
31
0.0
0
LINE
8
TOP
10
2.925000
20
2.244659
30
0.0
11
3.037500
21
2.244075
31
0.0
0
LINE
8
TOP
10
3.037500
20
2.244075
30
0.0
11
3.150000
21
2.243490
31
0.0
0
LINE
8
TOP
10
3.150000
20
2.243490
30
0.0
11
3.262500
21
2.242906
31
0.0
0
LINE
8
TOP
10
3.262500
20
2.242906
30
0.0
11
3.375000
21
2.242322
31
0.0
0
LINE
8
TOP
10
3.375000
20
2.242322
30
0.0
11
3.487500
21
2.241738
31
0.0
0
LINE
8
TOP
10
3.487500
20
2.241738
30
0.0
11
3.600000
21
2.241154
31
0.0
0
LINE
8
TOP
10
3.600000
20
2.241154
30
0.0
11
3.712500
21
2.240569
31
0.0
0
LINE
8
TOP
10
3.712500
20
2.240569
30
0.0
11
3.825000
21
2.239985
31
0.0
0
LINE
8
TOP
10
3.825000
20
2.239985
30
0.0
11
3.937500
21
2.239401
31
0.0
0
LINE
8
TOP
10
3.937500
20
2.239401
30
0.0
11
4.050000
21
2.238817
31
0.0
0
LINE
8
TOP
10
4.050000
20
2.238817
30
0.0
11
4.162500
21
2.238233
31
0.0
0
LINE
8
TOP
10
4.162500
20
2.238233
30
0.0
11
4.275000
21
2.237649
31
0.0
0
LINE
8
TOP
10
4.275000
20
2.237649
30
0.0
11
4.387500
21
2.237064
31
0.0
0
LINE
8
TOP
10
4.387500
20
2.237064
30
0.0
11
4.500000
21
2.236480
31
0.0
0
LINE
8
TOP
10
4.500000
20
2.236480
30
0.0
11
4.612500
21
2.235578
31
0.0
0
LINE
8
TOP
10
4.612500
20
2.235578
30
0.0
11
4.725000
21
2.234675
31
0.0
0
LINE
8
TOP
10
4.725000
20
2.234675
30
0.0
11
4.837500
21
2.233773
31
0.0
0
LINE
8
TOP
10
4.837500
20
2.233773
30
0.0
11
4.950000
21
2.232871
31
0.0
0
LINE
8
TOP
10
4.950000
20
2.232871
30
0.0
11
5.062500
21
2.231968
31
0.0
0
LINE
8
TOP
10
5.062500
20
2.231968
30
0.0
11
5.175000
21
2.231066
31
0.0
0
LINE
8
TOP
10
5.175000
20
2.231066
30
0.0
11
5.287500
21
2.230164
31
0.0
0
LINE
8
TOP
10
5.287500
20
2.230164
30
0.0
11
5.400000
21
2.229261
31
0.0
0
LINE
8
TOP
10
5.400000
20
2.229261
30
0.0
11
5.512500
21
2.228359
31
0.0
0
LINE
8
TOP
10
5.512500
20
2.228359
30
0.0
11
5.625000
21
2.227457
31
0.0
0
LINE
8
TOP
10
5.625000
20
2.227457
30
0.0
11
5.737500
21
2.226554
31
0.0
0
LINE
8
TOP
10
5.737500
20
2.226554
30
0.0
11
5.850000
21
2.225652
31
0.0
0
LINE
8
TOP
10
5.850000
20
2.225652
30
0.0
11
5.962500
21
2.224750
31
0.0
0
LINE
8
TOP
10
5.962500
20
2.224750
30
0.0
11
6.075000
21
2.223847
31
0.0
0
LINE
8
TOP
10
6.075000
20
2.223847
30
0.0
11
6.187500
21
2.222945
31
0.0
0
LINE
8
TOP
10
6.187500
20
2.222945
30
0.0
11
6.300000
21
2.222042
31
0.0
0
LINE
8
TOP
10
6.300000
20
2.222042
30
0.0
11
6.412500
21
2.221140
31
0.0
0
LINE
8
TOP
10
6.412500
20
2.221140
30
0.0
11
6.525000
21
2.220238
31
0.0
0
LINE
8
TOP
10
6.525000
20
2.220238
30
0.0
11
6.637500
21
2.219335
31
0.0
0
LINE
8
TOP
10
6.637500
20
2.219335
30
0.0
11
6.750000
21
2.218433
31
0.0
0
LINE
8
TOP
10
6.750000
20
2.218433
30
0.0
11
6.862500
21
2.217531
31
0.0
0
LINE
8
TOP
10
6.862500
20
2.217531
30
0.0
11
6.975000
21
2.216628
31
0.0
0
LINE
8
TOP
10
6.975000
20
2.216628
30
0.0
11
7.087500
21
2.215726
31
0.0
0
LINE
8
TOP
10
7.087500
20
2.215726
30
0.0
11
7.200000
21
2.214824
31
0.0
0
LINE
8
TOP
10
7.200000
20
2.214824
30
0.0
11
7.312500
21
2.213921
31
0.0
0
LINE
8
TOP
10
7.312500
20
2.213921
30
0.0
11
7.425000
21
2.213019
31
0.0
0
LINE
8
TOP
10
7.425000
20
2.213019
30
0.0
11
7.537500
21
2.212117
31
0.0
0
LINE
8
TOP
10
7.537500
20
2.212117
30
0.0
11
7.650000
21
2.211214
31
0.0
0
LINE
8
TOP
10
7.650000
20
2.211214
30
0.0
11
7.762500
21
2.210312
31
0.0
0
LINE
8
TOP
10
7.762500
20
2.210312
30
0.0
11
7.875000
21
2.209409
31
0.0
0
LINE
8
TOP
10
7.875000
20
2.209409
30
0.0
11
7.987500
21
2.208507
31
0.0
0
LINE
8
TOP
10
7.987500
20
2.208507
30
0.0
11
8.100000
21
2.207605
31
0.0
0
LINE
8
TOP
10
8.100000
20
2.207605
30
0.0
11
8.212500
21
2.206702
31
0.0
0
LINE
8
TOP
10
8.212500
20
2.206702
30
0.0
11
8.325000
21
2.205800
31
0.0
0
LINE
8
TOP
10
8.325000
20
2.205800
30
0.0
11
8.437500
21
2.204898
31
0.0
0
LINE
8
TOP
10
8.437500
20
2.204898
30
0.0
11
8.500000
21
2.204396
31
0.0
0
LINE
8
TOP
10
8.500000
20
2.204396
30
0.0
11
8.550000
21
2.203995
31
0.0
0
LINE
8
TOP
10
8.550000
20
2.203995
30
0.0
11
8.662500
21
2.203093
31
0.0
0
LINE
8
TOP
10
8.662500
20
2.203093
30
0.0
11
8.775000
21
2.202191
31
0.0
0
LINE
8
TOP
10
8.775000
20
2.202191
30
0.0
11
8.887500
21
2.201288
31
0.0
0
LINE
8
TOP
10
8.887500
20
2.201288
30
0.0
11
9.000000
21
2.200386
31
0.0
0
LINE
8
TOP
10
0.000000
20
2.540152
30
0.0
11
0.000000
21
2.259848
31
0.0
0
LINE
8
TOP
10
9.000000
20
2.599614
30
0.0
11
9.000000
21
2.200386
31
0.0
0
LINE
8
SECTION
10
10.336480
20
-0.354711
30
0.0
11
10.663520
21
-0.354711
31
0.0
0
LINE
8
SECTION
10
10.663520
20
-0.354711
30
0.0
11
10.663520
21
0.354711
31
0.0
0
LINE
8
SECTION
10
10.663520
20
0.354711
30
0.0
11
10.336480
21
0.354711
31
0.0
0
LINE
8
SECTION
10
10.336480
20
0.354711
30
0.0
11
10.336480
21
-0.354711
31
0.0
0
LINE
8
SECTION
10
10.401926
20
-0.289265
30
0.0
11
10.598074
21
-0.289265
31
0.0
0
LINE
8
SECTION
10
10.598074
20
-0.289265
30
0.0
11
10.598074
21
0.289265
31
0.0
0
LINE
8
SECTION
10
10.598074
20
0.289265
30
0.0
11
10.401926
21
0.289265
31
0.0
0
LINE
8
SECTION
10
10.401926
20
0.289265
30
0.0
11
10.401926
21
-0.289265
31
0.0
0
LINE
8
SECTION
10
10.401926
20
0.000000
30
0.0
11
10.467372
21
0.000000
31
0.0
0
LINE
8
SECTION
10
10.467372
20
0.000000
30
0.0
11
10.467372
21
0.289265
31
0.0
0
LINE
8
SECTION
10
10.467372
20
0.289265
30
0.0
11
10.401926
21
0.289265
31
0.0
0
LINE
8
SECTION
10
10.401926
20
0.289265
30
0.0
11
10.401926
21
0.000000
31
0.0
0
LINE
8
SECTION
10
10.401926
20
-0.289265
30
0.0
11
10.467372
21
-0.289265
31
0.0
0
LINE
8
SECTION
10
10.467372
20
-0.289265
30
0.0
11
10.467372
21
0.000000
31
0.0
0
LINE
8
SECTION
10
10.467372
20
0.000000
30
0.0
11
10.401926
21
0.000000
31
0.0
0
LINE
8
SECTION
10
10.401926
20
0.000000
30
0.0
11
10.401926
21
-0.289265
31
0.0
0
LINE
8
SECTION
10
10.532628
20
0.000000
30
0.0
11
10.598074
21
0.000000
31
0.0
0
LINE
8
SECTION
10
10.598074
20
0.000000
30
0.0
11
10.598074
21
0.289265
31
0.0
0
LINE
8
SECTION
10
10.598074
20
0.289265
30
0.0
11
10.532628
21
0.289265
31
0.0
0
LINE
8
SECTION
10
10.532628
20
0.289265
30
0.0
11
10.532628
21
0.000000
31
0.0
0
LINE
8
SECTION
10
10.532628
20
-0.289265
30
0.0
11
10.598074
21
-0.289265
31
0.0
0
LINE
8
SECTION
10
10.598074
20
-0.289265
30
0.0
11
10.598074
21
0.000000
31
0.0
0
LINE
8
SECTION
10
10.598074
20
0.000000
30
0.0
11
10.532628
21
0.000000
31
0.0
0
LINE
8
SECTION
10
10.532628
20
0.000000
30
0.0
11
10.532628
21
-0.289265
31
0.0
0
ENDSEC
0
EOF
