0
SECTION
2
HEADER
9
$INSUNITS
70
1
0
ENDSEC
0
SECTION
2
ENTITIES
0
LINE
8
FRONT
10
0.000000
20
0.314834
30
0.0
11
0.112500
21
0.313629
31
0.0
0
LINE
8
FRONT
10
0.112500
20
0.313629
30
0.0
11
0.225000
21
0.312425
31
0.0
0
LINE
8
FRONT
10
0.225000
20
0.312425
30
0.0
11
0.337500
21
0.311221
31
0.0
0
LINE
8
FRONT
10
0.337500
20
0.311221
30
0.0
11
0.450000
21
0.310016
31
0.0
0
LINE
8
FRONT
10
0.450000
20
0.310016
30
0.0
11
0.500000
21
0.309481
31
0.0
0
LINE
8
FRONT
10
0.500000
20
0.309481
30
0.0
11
0.562500
21
0.308812
31
0.0
0
LINE
8
FRONT
10
0.562500
20
0.308812
30
0.0
11
0.675000
21
0.307607
31
0.0
0
LINE
8
FRONT
10
0.675000
20
0.307607
30
0.0
11
0.787500
21
0.306403
31
0.0
0
LINE
8
FRONT
10
0.787500
20
0.306403
30
0.0
11
0.900000
21
0.305198
31
0.0
0
LINE
8
FRONT
10
0.900000
20
0.305198
30
0.0
11
1.012500
21
0.303994
31
0.0
0
LINE
8
FRONT
10
1.012500
20
0.303994
30
0.0
11
1.125000
21
0.302789
31
0.0
0
LINE
8
FRONT
10
1.125000
20
0.302789
30
0.0
11
1.237500
21
0.301585
31
0.0
0
LINE
8
FRONT
10
1.237500
20
0.301585
30
0.0
11
1.350000
21
0.300381
31
0.0
0
LINE
8
FRONT
10
1.350000
20
0.300381
30
0.0
11
1.462500
21
0.299176
31
0.0
0
LINE
8
FRONT
10
1.462500
20
0.299176
30
0.0
11
1.575000
21
0.297972
31
0.0
0
LINE
8
FRONT
10
1.575000
20
0.297972
30
0.0
11
1.687500
21
0.296767
31
0.0
0
LINE
8
FRONT
10
1.687500
20
0.296767
30
0.0
11
1.800000
21
0.295563
31
0.0
0
LINE
8
FRONT
10
1.800000
20
0.295563
30
0.0
11
1.912500
21
0.294358
31
0.0
0
LINE
8
FRONT
10
1.912500
20
0.294358
30
0.0
11
2.025000
21
0.293154
31
0.0
0
LINE
8
FRONT
10
2.025000
20
0.293154
30
0.0
11
2.137500
21
0.291949
31
0.0
0
LINE
8
FRONT
10
2.137500
20
0.291949
30
0.0
11
2.250000
21
0.290745
31
0.0
0
LINE
8
FRONT
10
2.250000
20
0.290745
30
0.0
11
2.362500
21
0.289541
31
0.0
0
LINE
8
FRONT
10
2.362500
20
0.289541
30
0.0
11
2.475000
21
0.288336
31
0.0
0
LINE
8
FRONT
10
2.475000
20
0.288336
30
0.0
11
2.587500
21
0.287132
31
0.0
0
LINE
8
FRONT
10
2.587500
20
0.287132
30
0.0
11
2.700000
21
0.285927
31
0.0
0
LINE
8
FRONT
10
2.700000
20
0.285927
30
0.0
11
2.812500
21
0.284723
31
0.0
0
LINE
8
FRONT
10
2.812500
20
0.284723
30
0.0
11
2.925000
21
0.283518
31
0.0
0
LINE
8
FRONT
10
2.925000
20
0.283518
30
0.0
11
3.037500
21
0.282314
31
0.0
0
LINE
8
FRONT
10
3.037500
20
0.282314
30
0.0
11
3.150000
21
0.281109
31
0.0
0
LINE
8
FRONT
10
3.150000
20
0.281109
30
0.0
11
3.262500
21
0.279905
31
0.0
0
LINE
8
FRONT
10
3.262500
20
0.279905
30
0.0
11
3.375000
21
0.278700
31
0.0
0
LINE
8
FRONT
10
3.375000
20
0.278700
30
0.0
11
3.487500
21
0.277496
31
0.0
0
LINE
8
FRONT
10
3.487500
20
0.277496
30
0.0
11
3.600000
21
0.276292
31
0.0
0
LINE
8
FRONT
10
3.600000
20
0.276292
30
0.0
11
3.712500
21
0.275087
31
0.0
0
LINE
8
FRONT
10
3.712500
20
0.275087
30
0.0
11
3.825000
21
0.273883
31
0.0
0
LINE
8
FRONT
10
3.825000
20
0.273883
30
0.0
11
3.937500
21
0.272678
31
0.0
0
LINE
8
FRONT
10
3.937500
20
0.272678
30
0.0
11
4.050000
21
0.271474
31
0.0
0
LINE
8
FRONT
10
4.050000
20
0.271474
30
0.0
11
4.162500
21
0.270269
31
0.0
0
LINE
8
FRONT
10
4.162500
20
0.270269
30
0.0
11
4.275000
21
0.269065
31
0.0
0
LINE
8
FRONT
10
4.275000
20
0.269065
30
0.0
11
4.387500
21
0.267860
31
0.0
0
LINE
8
FRONT
10
4.387500
20
0.267860
30
0.0
11
4.500000
21
0.266656
31
0.0
0
LINE
8
FRONT
10
4.500000
20
0.266656
30
0.0
11
4.612500
21
0.268740
31
0.0
0
LINE
8
FRONT
10
4.612500
20
0.268740
30
0.0
11
4.725000
21
0.270823
31
0.0
0
LINE
8
FRONT
10
4.725000
20
0.270823
30
0.0
11
4.837500
21
0.272907
31
0.0
0
LINE
8
FRONT
10
4.837500
20
0.272907
30
0.0
11
4.950000
21
0.274990
31
0.0
0
LINE
8
FRONT
10
4.950000
20
0.274990
30
0.0
11
5.062500
21
0.277074
31
0.0
0
LINE
8
FRONT
10
5.062500
20
0.277074
30
0.0
11
5.175000
21
0.279158
31
0.0
0
LINE
8
FRONT
10
5.175000
20
0.279158
30
0.0
11
5.287500
21
0.281241
31
0.0
0
LINE
8
FRONT
10
5.287500
20
0.281241
30
0.0
11
5.400000
21
0.283325
31
0.0
0
LINE
8
FRONT
10
5.400000
20
0.283325
30
0.0
11
5.512500
21
0.285408
31
0.0
0
LINE
8
FRONT
10
5.512500
20
0.285408
30
0.0
11
5.625000
21
0.287492
31
0.0
0
LINE
8
FRONT
10
5.625000
20
0.287492
30
0.0
11
5.737500
21
0.289576
31
0.0
0
LINE
8
FRONT
10
5.737500
20
0.289576
30
0.0
11
5.850000
21
0.291659
31
0.0
0
LINE
8
FRONT
10
5.850000
20
0.291659
30
0.0
11
5.962500
21
0.293743
31
0.0
0
LINE
8
FRONT
10
5.962500
20
0.293743
30
0.0
11
6.075000
21
0.295826
31
0.0
0
LINE
8
FRONT
10
6.075000
20
0.295826
30
0.0
11
6.187500
21
0.297910
31
0.0
0
LINE
8
FRONT
10
6.187500
20
0.297910
30
0.0
11
6.300000
21
0.299994
31
0.0
0
LINE
8
FRONT
10
6.300000
20
0.299994
30
0.0
11
6.412500
21
0.302077
31
0.0
0
LINE
8
FRONT
10
6.412500
20
0.302077
30
0.0
11
6.525000
21
0.304161
31
0.0
0
LINE
8
FRONT
10
6.525000
20
0.304161
30
0.0
11
6.637500
21
0.306244
31
0.0
0
LINE
8
FRONT
10
6.637500
20
0.306244
30
0.0
11
6.750000
21
0.308328
31
0.0
0
LINE
8
FRONT
10
6.750000
20
0.308328
30
0.0
11
6.862500
21
0.310412
31
0.0
0
LINE
8
FRONT
10
6.862500
20
0.310412
30
0.0
11
6.975000
21
0.312495
31
0.0
0
LINE
8
FRONT
10
6.975000
20
0.312495
30
0.0
11
7.087500
21
0.314579
31
0.0
0
LINE
8
FRONT
10
7.087500
20
0.314579
30
0.0
11
7.200000
21
0.316662
31
0.0
0
LINE
8
FRONT
10
7.200000
20
0.316662
30
0.0
11
7.312500
21
0.318746
31
0.0
0
LINE
8
FRONT
10
7.312500
20
0.318746
30
0.0
11
7.425000
21
0.320830
31
0.0
0
LINE
8
FRONT
10
7.425000
20
0.320830
30
0.0
11
7.537500
21
0.322913
31
0.0
0
LINE
8
FRONT
10
7.537500
20
0.322913
30
0.0
11
7.650000
21
0.324997
31
0.0
0
LINE
8
FRONT
10
7.650000
20
0.324997
30
0.0
11
7.762500
21
0.327080
31
0.0
0
LINE
8
FRONT
10
7.762500
20
0.327080
30
0.0
11
7.875000
21
0.329164
31
0.0
0
LINE
8
FRONT
10
7.875000
20
0.329164
30
0.0
11
7.987500
21
0.331248
31
0.0
0
LINE
8
FRONT
10
7.987500
20
0.331248
30
0.0
11
8.100000
21
0.333331
31
0.0
0
LINE
8
FRONT
10
8.100000
20
0.333331
30
0.0
11
8.212500
21
0.335415
31
0.0
0
LINE
8
FRONT
10
8.212500
20
0.335415
30
0.0
11
8.325000
21
0.337498
31
0.0
0
LINE
8
FRONT
10
8.325000
20
0.337498
30
0.0
11
8.437500
21
0.339582
31
0.0
0
LINE
8
FRONT
10
8.437500
20
0.339582
30
0.0
11
8.500000
21
0.340740
31
0.0
0
LINE
8
FRONT
10
8.500000
20
0.340740
30
0.0
11
8.550000
21
0.341666
31
0.0
0
LINE
8
FRONT
10
8.550000
20
0.341666
30
0.0
11
8.662500
21
0.343749
31
0.0
0
LINE
8
FRONT
10
8.662500
20
0.343749
30
0.0
11
8.775000
21
0.345833
31
0.0
0
LINE
8
FRONT
10
8.775000
20
0.345833
30
0.0
11
8.887500
21
0.347916
31
0.0
0
LINE
8
FRONT
10
8.887500
20
0.347916
30
0.0
11
9.000000
21
0.350000
31
0.0
0
LINE
8
FRONT
10
0.000000
20
-0.314834
30
0.0
11
0.112500
21
-0.313629
31
0.0
0
LINE
8
FRONT
10
0.112500
20
-0.313629
30
0.0
11
0.225000
21
-0.312425
31
0.0
0
LINE
8
FRONT
10
0.225000
20
-0.312425
30
0.0
11
0.337500
21
-0.311221
31
0.0
0
LINE
8
FRONT
10
0.337500
20
-0.311221
30
0.0
11
0.450000
21
-0.310016
31
0.0
0
LINE
8
FRONT
10
0.450000
20
-0.310016
30
0.0
11
0.500000
21
-0.309481
31
0.0
0
LINE
8
FRONT
10
0.500000
20
-0.309481
30
0.0
11
0.562500
21
-0.308812
31
0.0
0
LINE
8
FRONT
10
0.562500
20
-0.308812
30
0.0
11
0.675000
21
-0.307607
31
0.0
0
LINE
8
FRONT
10
0.675000
20
-0.307607
30
0.0
11
0.787500
21
-0.306403
31
0.0
0
LINE
8
FRONT
10
0.787500
20
-0.306403
30
0.0
11
0.900000
21
-0.305198
31
0.0
0
LINE
8
FRONT
10
0.900000
20
-0.305198
30
0.0
11
1.012500
21
-0.303994
31
0.0
0
LINE
8
FRONT
10
1.012500
20
-0.303994
30
0.0
11
1.125000
21
-0.302789
31
0.0
0
LINE
8
FRONT
10
1.125000
20
-0.302789
30
0.0
11
1.237500
21
-0.301585
31
0.0
0
LINE
8
FRONT
10
1.237500
20
-0.301585
30
0.0
11
1.350000
21
-0.300381
31
0.0
0
LINE
8
FRONT
10
1.350000
20
-0.300381
30
0.0
11
1.462500
21
-0.299176
31
0.0
0
LINE
8
FRONT
10
1.462500
20
-0.299176
30
0.0
11
1.575000
21
-0.297972
31
0.0
0
LINE
8
FRONT
10
1.575000
20
-0.297972
30
0.0
11
1.687500
21
-0.296767
31
0.0
0
LINE
8
FRONT
10
1.687500
20
-0.296767
30
0.0
11
1.800000
21
-0.295563
31
0.0
0
LINE
8
FRONT
10
1.800000
20
-0.295563
30
0.0
11
1.912500
21
-0.294358
31
0.0
0
LINE
8
FRONT
10
1.912500
20
-0.294358
30
0.0
11
2.025000
21
-0.293154
31
0.0
0
LINE
8
FRONT
10
2.025000
20
-0.293154
30
0.0
11
2.137500
21
-0.291949
31
0.0
0
LINE
8
FRONT
10
2.137500
20
-0.291949
30
0.0
11
2.250000
21
-0.290745
31
0.0
0
LINE
8
FRONT
10
2.250000
20
-0.290745
30
0.0
11
2.362500
21
-0.289541
31
0.0
0
LINE
8
FRONT
10
2.362500
20
-0.289541
30
0.0
11
2.475000
21
-0.288336
31
0.0
0
LINE
8
FRONT
10
2.475000
20
-0.288336
30
0.0
11
2.587500
21
-0.287132
31
0.0
0
LINE
8
FRONT
10
2.587500
20
-0.287132
30
0.0
11
2.700000
21
-0.285927
31
0.0
0
LINE
8
FRONT
10
2.700000
20
-0.285927
30
0.0
11
2.812500
21
-0.284723
31
0.0
0
LINE
8
FRONT
10
2.812500
20
-0.284723
30
0.0
11
2.925000
21
-0.283518
31
0.0
0
LINE
8
FRONT
10
2.925000
20
-0.283518
30
0.0
11
3.037500
21
-0.282314
31
0.0
0
LINE
8
FRONT
10
3.037500
20
-0.282314
30
0.0
11
3.150000
21
-0.281109
31
0.0
0
LINE
8
FRONT
10
3.150000
20
-0.281109
30
0.0
11
3.262500
21
-0.279905
31
0.0
0
LINE
8
FRONT
10
3.262500
20
-0.279905
30
0.0
11
3.375000
21
-0.278700
31
0.0
0
LINE
8
FRONT
10
3.375000
20
-0.278700
30
0.0
11
3.487500
21
-0.277496
31
0.0
0
LINE
8
FRONT
10
3.487500
20
-0.277496
30
0.0
11
3.600000
21
-0.276292
31
0.0
0
LINE
8
FRONT
10
3.600000
20
-0.276292
30
0.0
11
3.712500
21
-0.275087
31
0.0
0
LINE
8
FRONT
10
3.712500
20
-0.275087
30
0.0
11
3.825000
21
-0.273883
31
0.0
0
LINE
8
FRONT
10
3.825000
20
-0.273883
30
0.0
11
3.937500
21
-0.272678
31
0.0
0
LINE
8
FRONT
10
3.937500
20
-0.272678
30
0.0
11
4.050000
21
-0.271474
31
0.0
0
LINE
8
FRONT
10
4.050000
20
-0.271474
30
0.0
11
4.162500
21
-0.270269
31
0.0
0
LINE
8
FRONT
10
4.162500
20
-0.270269
30
0.0
11
4.275000
21
-0.269065
31
0.0
0
LINE
8
FRONT
10
4.275000
20
-0.269065
30
0.0
11
4.387500
21
-0.267860
31
0.0
0
LINE
8
FRONT
10
4.387500
20
-0.267860
30
0.0
11
4.500000
21
-0.266656
31
0.0
0
LINE
8
FRONT
10
4.500000
20
-0.266656
30
0.0
11
4.612500
21
-0.268740
31
0.0
0
LINE
8
FRONT
10
4.612500
20
-0.268740
30
0.0
11
4.725000
21
-0.270823
31
0.0
0
LINE
8
FRONT
10
4.725000
20
-0.270823
30
0.0
11
4.837500
21
-0.272907
31
0.0
0
LINE
8
FRONT
10
4.837500
20
-0.272907
30
0.0
11
4.950000
21
-0.274990
31
0.0
0
LINE
8
FRONT
10
4.950000
20
-0.274990
30
0.0
11
5.062500
21
-0.277074
31
0.0
0
LINE
8
FRONT
10
5.062500
20
-0.277074
30
0.0
11
5.175000
21
-0.279158
31
0.0
0
LINE
8
FRONT
10
5.175000
20
-0.279158
30
0.0
11
5.287500
21
-0.281241
31
0.0
0
LINE
8
FRONT
10
5.287500
20
-0.281241
30
0.0
11
5.400000
21
-0.283325
31
0.0
0
LINE
8
FRONT
10
5.400000
20
-0.283325
30
0.0
11
5.512500
21
-0.285408
31
0.0
0
LINE
8
FRONT
10
5.512500
20
-0.285408
30
0.0
11
5.625000
21
-0.287492
31
0.0
0
LINE
8
FRONT
10
5.625000
20
-0.287492
30
0.0
11
5.737500
21
-0.289576
31
0.0
0
LINE
8
FRONT
10
5.737500
20
-0.289576
30
0.0
11
5.850000
21
-0.291659
31
0.0
0
LINE
8
FRONT
10
5.850000
20
-0.291659
30
0.0
11
5.962500
21
-0.293743
31
0.0
0
LINE
8
FRONT
10
5.962500
20
-0.293743
30
0.0
11
6.075000
21
-0.295826
31
0.0
0
LINE
8
FRONT
10
6.075000
20
-0.295826
30
0.0
11
6.187500
21
-0.297910
31
0.0
0
LINE
8
FRONT
10
6.187500
20
-0.297910
30
0.0
11
6.300000
21
-0.299994
31
0.0
0
LINE
8
FRONT
10
6.300000
20
-0.299994
30
0.0
11
6.412500
21
-0.302077
31
0.0
0
LINE
8
FRONT
10
6.412500
20
-0.302077
30
0.0
11
6.525000
21
-0.304161
31
0.0
0
LINE
8
FRONT
10
6.525000
20
-0.304161
30
0.0
11
6.637500
21
-0.306244
31
0.0
0
LINE
8
FRONT
10
6.637500
20
-0.306244
30
0.0
11
6.750000
21
-0.308328
31
0.0
0
LINE
8
FRONT
10
6.750000
20
-0.308328
30
0.0
11
6.862500
21
-0.310412
31
0.0
0
LINE
8
FRONT
10
6.862500
20
-0.310412
30
0.0
11
6.975000
21
-0.312495
31
0.0
0
LINE
8
FRONT
10
6.975000
20
-0.312495
30
0.0
11
7.087500
21
-0.314579
31
0.0
0
LINE
8
FRONT
10
7.087500
20
-0.314579
30
0.0
11
7.200000
21
-0.316662
31
0.0
0
LINE
8
FRONT
10
7.200000
20
-0.316662
30
0.0
11
7.312500
21
-0.318746
31
0.0
0
LINE
8
FRONT
10
7.312500
20
-0.318746
30
0.0
11
7.425000
21
-0.320830
31
0.0
0
LINE
8
FRONT
10
7.425000
20
-0.320830
30
0.0
11
7.537500
21
-0.322913
31
0.0
0
LINE
8
FRONT
10
7.537500
20
-0.322913
30
0.0
11
7.650000
21
-0.324997
31
0.0
0
LINE
8
FRONT
10
7.650000
20
-0.324997
30
0.0
11
7.762500
21
-0.327080
31
0.0
0
LINE
8
FRONT
10
7.762500
20
-0.327080
30
0.0
11
7.875000
21
-0.329164
31
0.0
0
LINE
8
FRONT
10
7.875000
20
-0.329164
30
0.0
11
7.987500
21
-0.331248
31
0.0
0
LINE
8
FRONT
10
7.987500
20
-0.331248
30
0.0
11
8.100000
21
-0.333331
31
0.0
0
LINE
8
FRONT
10
8.100000
20
-0.333331
30
0.0
11
8.212500
21
-0.335415
31
0.0
0
LINE
8
FRONT
10
8.212500
20
-0.335415
30
0.0
11
8.325000
21
-0.337498
31
0.0
0
LINE
8
FRONT
10
8.325000
20
-0.337498
30
0.0
11
8.437500
21
-0.339582
31
0.0
0
LINE
8
FRONT
10
8.437500
20
-0.339582
30
0.0
11
8.500000
21
-0.340740
31
0.0
0
LINE
8
FRONT
10
8.500000
20
-0.340740
30
0.0
11
8.550000
21
-0.341666
31
0.0
0
LINE
8
FRONT
10
8.550000
20
-0.341666
30
0.0
11
8.662500
21
-0.343749
31
0.0
0
LINE
8
FRONT
10
8.662500
20
-0.343749
30
0.0
11
8.775000
21
-0.345833
31
0.0
0
LINE
8
FRONT
10
8.775000
20
-0.345833
30
0.0
11
8.887500
21
-0.347916
31
0.0
0
LINE
8
FRONT
10
8.887500
20
-0.347916
30
0.0
11
9.000000
21
-0.350000
31
0.0
0
LINE
8
FRONT
10
0.000000
20
0.314834
30
0.0
11
0.000000
21
-0.314834
31
0.0
0
LINE
8
FRONT
10
9.000000
20
0.350000
30
0.0
11
9.000000
21
-0.350000
31
0.0
0
LINE
8
TOP
10
0.000000
20
1.913170
30
0.0
11
0.112500
21
1.917302
31
0.0
0
LINE
8
TOP
10
0.112500
20
1.917302
30
0.0
11
0.225000
21
1.921434
31
0.0
0
LINE
8
TOP
10
0.225000
20
1.921434
30
0.0
11
0.337500
21
1.925566
31
0.0
0
LINE
8
TOP
10
0.337500
20
1.925566
30
0.0
11
0.450000
21
1.929698
31
0.0
0
LINE
8
TOP
10
0.450000
20
1.929698
30
0.0
11
0.500000
21
1.931534
31
0.0
0
LINE
8
TOP
10
0.500000
20
1.931534
30
0.0
11
0.562500
21
1.933829
31
0.0
0
LINE
8
TOP
10
0.562500
20
1.933829
30
0.0
11
0.675000
21
1.937961
31
0.0
0
LINE
8
TOP
10
0.675000
20
1.937961
30
0.0
11
0.787500
21
1.942093
31
0.0
0
LINE
8
TOP
10
0.787500
20
1.942093
30
0.0
11
0.900000
21
1.946225
31
0.0
0
LINE
8
TOP
10
0.900000
20
1.946225
30
0.0
11
1.012500
21
1.950357
31
0.0
0
LINE
8
TOP
10
1.012500
20
1.950357
30
0.0
11
1.125000
21
1.954489
31
0.0
0
LINE
8
TOP
10
1.125000
20
1.954489
30
0.0
11
1.237500
21
1.958620
31
0.0
0
LINE
8
TOP
10
1.237500
20
1.958620
30
0.0
11
1.350000
21
1.962752
31
0.0
0
LINE
8
TOP
10
1.350000
20
1.962752
30
0.0
11
1.462500
21
1.966884
31
0.0
0
LINE
8
TOP
10
1.462500
20
1.966884
30
0.0
11
1.575000
21
1.971016
31
0.0
0
LINE
8
TOP
10
1.575000
20
1.971016
30
0.0
11
1.687500
21
1.975148
31
0.0
0
LINE
8
TOP
10
1.687500
20
1.975148
30
0.0
11
1.800000
21
1.979280
31
0.0
0
LINE
8
TOP
10
1.800000
20
1.979280
30
0.0
11
1.912500
21
1.983411
31
0.0
0
LINE
8
TOP
10
1.912500
20
1.983411
30
0.0
11
2.025000
21
1.987543
31
0.0
0
LINE
8
TOP
10
2.025000
20
1.987543
30
0.0
11
2.137500
21
1.991675
31
0.0
0
LINE
8
TOP
10
2.137500
20
1.991675
30
0.0
11
2.250000
21
1.995807
31
0.0
0
LINE
8
TOP
10
2.250000
20
1.995807
30
0.0
11
2.362500
21
1.999939
31
0.0
0
LINE
8
TOP
10
2.362500
20
1.999939
30
0.0
11
2.475000
21
2.004071
31
0.0
0
LINE
8
TOP
10
2.475000
20
2.004071
30
0.0
11
2.587500
21
2.008202
31
0.0
0
LINE
8
TOP
10
2.587500
20
2.008202
30
0.0
11
2.700000
21
2.012334
31
0.0
0
LINE
8
TOP
10
2.700000
20
2.012334
30
0.0
11
2.812500
21
2.016466
31
0.0
0
LINE
8
TOP
10
2.812500
20
2.016466
30
0.0
11
2.925000
21
2.020598
31
0.0
0
LINE
8
TOP
10
2.925000
20
2.020598
30
0.0
11
3.037500
21
2.024730
31
0.0
0
LINE
8
TOP
10
3.037500
20
2.024730
30
0.0
11
3.150000
21
2.028861
31
0.0
0
LINE
8
TOP
10
3.150000
20
2.028861
30
0.0
11
3.262500
21
2.032993
31
0.0
0
LINE
8
TOP
10
3.262500
20
2.032993
30
0.0
11
3.375000
21
2.037125
31
0.0
0
LINE
8
TOP
10
3.375000
20
2.037125
30
0.0
11
3.487500
21
2.041257
31
0.0
0
LINE
8
TOP
10
3.487500
20
2.041257
30
0.0
11
3.600000
21
2.045389
31
0.0
0
LINE
8
TOP
10
3.600000
20
2.045389
30
0.0
11
3.712500
21
2.049521
31
0.0
0
LINE
8
TOP
10
3.712500
20
2.049521
30
0.0
11
3.825000
21
2.053652
31
0.0
0
LINE
8
TOP
10
3.825000
20
2.053652
30
0.0
11
3.937500
21
2.057784
31
0.0
0
LINE
8
TOP
10
3.937500
20
2.057784
30
0.0
11
4.050000
21
2.061916
31
0.0
0
LINE
8
TOP
10
4.050000
20
2.061916
30
0.0
11
4.162500
21
2.066048
31
0.0
0
LINE
8
TOP
10
4.162500
20
2.066048
30
0.0
11
4.275000
21
2.070180
31
0.0
0
LINE
8
TOP
10
4.275000
20
2.070180
30
0.0
11
4.387500
21
2.074312
31
0.0
0
LINE
8
TOP
10
4.387500
20
2.074312
30
0.0
11
4.500000
21
2.078443
31
0.0
0
LINE
8
TOP
10
4.500000
20
2.078443
30
0.0
11
4.612500
21
2.075673
31
0.0
0
LINE
8
TOP
10
4.612500
20
2.075673
30
0.0
11
4.725000
21
2.072903
31
0.0
0
LINE
8
TOP
10
4.725000
20
2.072903
30
0.0
11
4.837500
21
2.070133
31
0.0
0
LINE
8
TOP
10
4.837500
20
2.070133
30
0.0
11
4.950000
21
2.067363
31
0.0
0
LINE
8
TOP
10
4.950000
20
2.067363
30
0.0
11
5.062500
21
2.064593
31
0.0
0
LINE
8
TOP
10
5.062500
20
2.064593
30
0.0
11
5.175000
21
2.061823
31
0.0
0
LINE
8
TOP
10
5.175000
20
2.061823
30
0.0
11
5.287500
21
2.059053
31
0.0
0
LINE
8
TOP
10
5.287500
20
2.059053
30
0.0
11
5.400000
21
2.056283
31
0.0
0
LINE
8
TOP
10
5.400000
20
2.056283
30
0.0
11
5.512500
21
2.053512
31
0.0
0
LINE
8
TOP
10
5.512500
20
2.053512
30
0.0
11
5.625000
21
2.050742
31
0.0
0
LINE
8
TOP
10
5.625000
20
2.050742
30
0.0
11
5.737500
21
2.047972
31
0.0
0
LINE
8
TOP
10
5.737500
20
2.047972
30
0.0
11
5.850000
21
2.045202
31
0.0
0
LINE
8
TOP
10
5.850000
20
2.045202
30
0.0
11
5.962500
21
2.042432
31
0.0
0
LINE
8
TOP
10
5.962500
20
2.042432
30
0.0
11
6.075000
21
2.039662
31
0.0
0
LINE
8
TOP
10
6.075000
20
2.039662
30
0.0
11
6.187500
21
2.036892
31
0.0
0
LINE
8
TOP
10
6.187500
20
2.036892
30
0.0
11
6.300000
21
2.034122
31
0.0
0
LINE
8
TOP
10
6.300000
20
2.034122
30
0.0
11
6.412500
21
2.031352
31
0.0
0
LINE
8
TOP
10
6.412500
20
2.031352
30
0.0
11
6.525000
21
2.028581
31
0.0
0
LINE
8
TOP
10
6.525000
20
2.028581
30
0.0
11
6.637500
21
2.025811
31
0.0
0
LINE
8
TOP
10
6.637500
20
2.025811
30
0.0
11
6.750000
21
2.023041
31
0.0
0
LINE
8
TOP
10
6.750000
20
2.023041
30
0.0
11
6.862500
21
2.020271
31
0.0
0
LINE
8
TOP
10
6.862500
20
2.020271
30
0.0
11
6.975000
21
2.017501
31
0.0
0
LINE
8
TOP
10
6.975000
20
2.017501
30
0.0
11
7.087500
21
2.014731
31
0.0
0
LINE
8
TOP
10
7.087500
20
2.014731
30
0.0
11
7.200000
21
2.011961
31
0.0
0
LINE
8
TOP
10
7.200000
20
2.011961
30
0.0
11
7.312500
21
2.009191
31
0.0
0
LINE
8
TOP
10
7.312500
20
2.009191
30
0.0
11
7.425000
21
2.006421
31
0.0
0
LINE
8
TOP
10
7.425000
20
2.006421
30
0.0
11
7.537500
21
2.003650
31
0.0
0
LINE
8
TOP
10
7.537500
20
2.003650
30
0.0
11
7.650000
21
2.000880
31
0.0
0
LINE
8
TOP
10
7.650000
20
2.000880
30
0.0
11
7.762500
21
1.998110
31
0.0
0
LINE
8
TOP
10
7.762500
20
1.998110
30
0.0
11
7.875000
21
1.995340
31
0.0
0
LINE
8
TOP
10
7.875000
20
1.995340
30
0.0
11
7.987500
21
1.992570
31
0.0
0
LINE
8
TOP
10
7.987500
20
1.992570
30
0.0
11
8.100000
21
1.989800
31
0.0
0
LINE
8
TOP
10
8.100000
20
1.989800
30
0.0
11
8.212500
21
1.987030
31
0.0
0
LINE
8
TOP
10
8.212500
20
1.987030
30
0.0
11
8.325000
21
1.984260
31
0.0
0
LINE
8
TOP
10
8.325000
20
1.984260
30
0.0
11
8.437500
21
1.981489
31
0.0
0
LINE
8
TOP
10
8.437500
20
1.981489
30
0.0
11
8.500000
21
1.979951
31
0.0
0
LINE
8
TOP
10
8.500000
20
1.979951
30
0.0
11
8.550000
21
1.978719
31
0.0
0
LINE
8
TOP
10
8.550000
20
1.978719
30
0.0
11
8.662500
21
1.975949
31
0.0
0
LINE
8
TOP
10
8.662500
20
1.975949
30
0.0
11
8.775000
21
1.973179
31
0.0
0
LINE
8
TOP
10
8.775000
20
1.973179
30
0.0
11
8.887500
21
1.970409
31
0.0
0
LINE
8
TOP
10
8.887500
20
1.970409
30
0.0
11
9.000000
21
1.967639
31
0.0
0
LINE
8
TOP
10
0.000000
20
1.686830
30
0.0
11
0.112500
21
1.682698
31
0.0
0
LINE
8
TOP
10
0.112500
20
1.682698
30
0.0
11
0.225000
21
1.678566
31
0.0
0
LINE
8
TOP
10
0.225000
20
1.678566
30
0.0
11
0.337500
21
1.674434
31
0.0
0
LINE
8
TOP
10
0.337500
20
1.674434
30
0.0
11
0.450000
21
1.670302
31
0.0
0
LINE
8
TOP
10
0.450000
20
1.670302
30
0.0
11
0.500000
21
1.668466
31
0.0
0
LINE
8
TOP
10
0.500000
20
1.668466
30
0.0
11
0.562500
21
1.666171
31
0.0
0
LINE
8
TOP
10
0.562500
20
1.666171
30
0.0
11
0.675000
21
1.662039
31
0.0
0
LINE
8
TOP
10
0.675000
20
1.662039
30
0.0
11
0.787500
21
1.657907
31
0.0
0
LINE
8
TOP
10
0.787500
20
1.657907
30
0.0
11
0.900000
21
1.653775
31
0.0
0
LINE
8
TOP
10
0.900000
20
1.653775
30
0.0
11
1.012500
21
1.649643
31
0.0
0
LINE
8
TOP
10
1.012500
20
1.649643
30
0.0
11
1.125000
21
1.645511
31
0.0
0
LINE
8
TOP
10
1.125000
20
1.645511
30
0.0
11
1.237500
21
1.641380
31
0.0
0
LINE
8
TOP
10
1.237500
20
1.641380
30
0.0
11
1.350000
21
1.637248
31
0.0
0
LINE
8
TOP
10
1.350000
20
1.637248
30
0.0
11
1.462500
21
1.633116
31
0.0
0
LINE
8
TOP
10
1.462500
20
1.633116
30
0.0
11
1.575000
21
1.628984
31
0.0
0
LINE
8
TOP
10
1.575000
20
1.628984
30
0.0
11
1.687500
21
1.624852
31
0.0
0
LINE
8
TOP
10
1.687500
20
1.624852
30
0.0
11
1.800000
21
1.620720
31
0.0
0
LINE
8
TOP
10
1.800000
20
1.620720
30
0.0
11
1.912500
21
1.616589
31
0.0
0
LINE
8
TOP
10
1.912500
20
1.616589
30
0.0
11
2.025000
21
1.612457
31
0.0
0
LINE
8
TOP
10
2.025000
20
1.612457
30
0.0
11
2.137500
21
1.608325
31
0.0
0
LINE
8
TOP
10
2.137500
20
1.608325
30
0.0
11
2.250000
21
1.604193
31
0.0
0
LINE
8
TOP
10
2.250000
20
1.604193
30
0.0
11
2.362500
21
1.600061
31
0.0
0
LINE
8
TOP
10
2.362500
20
1.600061
30
0.0
11
2.475000
21
1.595929
31
0.0
0
LINE
8
TOP
10
2.475000
20
1.595929
30
0.0
11
2.587500
21
1.591798
31
0.0
0
LINE
8
TOP
10
2.587500
20
1.591798
30
0.0
11
2.700000
21
1.587666
31
0.0
0
LINE
8
TOP
10
2.700000
20
1.587666
30
0.0
11
2.812500
21
1.583534
31
0.0
0
LINE
8
TOP
10
2.812500
20
1.583534
30
0.0
11
2.925000
21
1.579402
31
0.0
0
LINE
8
TOP
10
2.925000
20
1.579402
30
0.0
11
3.037500
21
1.575270
31
0.0
0
LINE
8
TOP
10
3.037500
20
1.575270
30
0.0
11
3.150000
21
1.571139
31
0.0
0
LINE
8
TOP
10
3.150000
20
1.571139
30
0.0
11
3.262500
21
1.567007
31
0.0
0
LINE
8
TOP
10
3.262500
20
1.567007
30
0.0
11
3.375000
21
1.562875
31
0.0
0
LINE
8
TOP
10
3.375000
20
1.562875
30
0.0
11
3.487500
21
1.558743
31
0.0
0
LINE
8
TOP
10
3.487500
20
1.558743
30
0.0
11
3.600000
21
1.554611
31
0.0
0
LINE
8
TOP
10
3.600000
20
1.554611
30
0.0
11
3.712500
21
1.550479
31
0.0
0
LINE
8
TOP
10
3.712500
20
1.550479
30
0.0
11
3.825000
21
1.546348
31
0.0
0
LINE
8
TOP
10
3.825000
20
1.546348
30
0.0
11
3.937500
21
1.542216
31
0.0
0
LINE
8
TOP
10
3.937500
20
1.542216
30
0.0
11
4.050000
21
1.538084
31
0.0
0
LINE
8
TOP
10
4.050000
20
1.538084
30
0.0
11
4.162500
21
1.533952
31
0.0
0
LINE
8
TOP
10
4.162500
20
1.533952
30
0.0
11
4.275000
21
1.529820
31
0.0
0
LINE
8
TOP
10
4.275000
20
1.529820
30
0.0
11
4.387500
21
1.525688
31
0.0
0
LINE
8
TOP
10
4.387500
20
1.525688
30
0.0
11
4.500000
21
1.521557
31
0.0
0
LINE
8
TOP
10
4.500000
20
1.521557
30
0.0
11
4.612500
21
1.524327
31
0.0
0
LINE
8
TOP
10
4.612500
20
1.524327
30
0.0
11
4.725000
21
1.527097
31
0.0
0
LINE
8
TOP
10
4.725000
20
1.527097
30
0.0
11
4.837500
21
1.529867
31
0.0
0
LINE
8
TOP
10
4.837500
20
1.529867
30
0.0
11
4.950000
21
1.532637
31
0.0
0
LINE
8
TOP
10
4.950000
20
1.532637
30
0.0
11
5.062500
21
1.535407
31
0.0
0
LINE
8
TOP
10
5.062500
20
1.535407
30
0.0
11
5.175000
21
1.538177
31
0.0
0
LINE
8
TOP
10
5.175000
20
1.538177
30
0.0
11
5.287500
21
1.540947
31
0.0
0
LINE
8
TOP
10
5.287500
20
1.540947
30
0.0
11
5.400000
21
1.543717
31
0.0
0
LINE
8
TOP
10
5.400000
20
1.543717
30
0.0
11
5.512500
21
1.546488
31
0.0
0
LINE
8
TOP
10
5.512500
20
1.546488
30
0.0
11
5.625000
21
1.549258
31
0.0
0
LINE
8
TOP
10
5.625000
20
1.549258
30
0.0
11
5.737500
21
1.552028
31
0.0
0
LINE
8
TOP
10
5.737500
20
1.552028
30
0.0
11
5.850000
21
1.554798
31
0.0
0
LINE
8
TOP
10
5.850000
20
1.554798
30
0.0
11
5.962500
21
1.557568
31
0.0
0
LINE
8
TOP
10
5.962500
20
1.557568
30
0.0
11
6.075000
21
1.560338
31
0.0
0
LINE
8
TOP
10
6.075000
20
1.560338
30
0.0
11
6.187500
21
1.563108
31
0.0
0
LINE
8
TOP
10
6.187500
20
1.563108
30
0.0
11
6.300000
21
1.565878
31
0.0
0
LINE
8
TOP
10
6.300000
20
1.565878
30
0.0
11
6.412500
21
1.568648
31
0.0
0
LINE
8
TOP
10
6.412500
20
1.568648
30
0.0
11
6.525000
21
1.571419
31
0.0
0
LINE
8
TOP
10
6.525000
20
1.571419
30
0.0
11
6.637500
21
1.574189
31
0.0
0
LINE
8
TOP
10
6.637500
20
1.574189
30
0.0
11
6.750000
21
1.576959
31
0.0
0
LINE
8
TOP
10
6.750000
20
1.576959
30
0.0
11
6.862500
21
1.579729
31
0.0
0
LINE
8
TOP
10
6.862500
20
1.579729
30
0.0
11
6.975000
21
1.582499
31
0.0
0
LINE
8
TOP
10
6.975000
20
1.582499
30
0.0
11
7.087500
21
1.585269
31
0.0
0
LINE
8
TOP
10
7.087500
20
1.585269
30
0.0
11
7.200000
21
1.588039
31
0.0
0
LINE
8
TOP
10
7.200000
20
1.588039
30
0.0
11
7.312500
21
1.590809
31
0.0
0
LINE
8
TOP
10
7.312500
20
1.590809
30
0.0
11
7.425000
21
1.593579
31
0.0
0
LINE
8
TOP
10
7.425000
20
1.593579
30
0.0
11
7.537500
21
1.596350
31
0.0
0
LINE
8
TOP
10
7.537500
20
1.596350
30
0.0
11
7.650000
21
1.599120
31
0.0
0
LINE
8
TOP
10
7.650000
20
1.599120
30
0.0
11
7.762500
21
1.601890
31
0.0
0
LINE
8
TOP
10
7.762500
20
1.601890
30
0.0
11
7.875000
21
1.604660
31
0.0
0
LINE
8
TOP
10
7.875000
20
1.604660
30
0.0
11
7.987500
21
1.607430
31
0.0
0
LINE
8
TOP
10
7.987500
20
1.607430
30
0.0
11
8.100000
21
1.610200
31
0.0
0
LINE
8
TOP
10
8.100000
20
1.610200
30
0.0
11
8.212500
21
1.612970
31
0.0
0
LINE
8
TOP
10
8.212500
20
1.612970
30
0.0
11
8.325000
21
1.615740
31
0.0
0
LINE
8
TOP
10
8.325000
20
1.615740
30
0.0
11
8.437500
21
1.618511
31
0.0
0
LINE
8
TOP
10
8.437500
20
1.618511
30
0.0
11
8.500000
21
1.620049
31
0.0
0
LINE
8
TOP
10
8.500000
20
1.620049
30
0.0
11
8.550000
21
1.621281
31
0.0
0
LINE
8
TOP
10
8.550000
20
1.621281
30
0.0
11
8.662500
21
1.624051
31
0.0
0
LINE
8
TOP
10
8.662500
20
1.624051
30
0.0
11
8.775000
21
1.626821
31
0.0
0
LINE
8
TOP
10
8.775000
20
1.626821
30
0.0
11
8.887500
21
1.629591
31
0.0
0
LINE
8
TOP
10
8.887500
20
1.629591
30
0.0
11
9.000000
21
1.632361
31
0.0
0
LINE
8
TOP
10
0.000000
20
1.913170
30
0.0
11
0.000000
21
1.686830
31
0.0
0
LINE
8
TOP
10
9.000000
20
1.967639
30
0.0
11
9.000000
21
1.632361
31
0.0
0
LINE
8
SECTION
10
10.221557
20
-0.266656
30
0.0
11
10.778443
21
-0.266656
31
0.0
0
LINE
8
SECTION
10
10.778443
20
-0.266656
30
0.0
11
10.778443
21
0.266656
31
0.0
0
LINE
8
SECTION
10
10.778443
20
0.266656
30
0.0
11
10.221557
21
0.266656
31
0.0
0
LINE
8
SECTION
10
10.221557
20
0.266656
30
0.0
11
10.221557
21
-0.266656
31
0.0
0
LINE
8
SECTION
10
10.270574
20
-0.217638
30
0.0
11
10.729426
21
-0.217638
31
0.0
0
LINE
8
SECTION
10
10.729426
20
-0.217638
30
0.0
11
10.729426
21
0.217638
31
0.0
0
LINE
8
SECTION
10
10.729426
20
0.217638
30
0.0
11
10.270574
21
0.217638
31
0.0
0
LINE
8
SECTION
10
10.270574
20
0.217638
30
0.0
11
10.270574
21
-0.217638
31
0.0
0
LINE
8
SECTION
10
10.270574
20
0.000000
30
0.0
11
10.319592
21
0.000000
31
0.0
0
LINE
8
SECTION
10
10.319592
20
0.000000
30
0.0
11
10.319592
21
0.217638
31
0.0
0
LINE
8
SECTION
10
10.319592
20
0.217638
30
0.0
11
10.270574
21
0.217638
31
0.0
0
LINE
8
SECTION
10
10.270574
20
0.217638
30
0.0
11
10.270574
21
0.000000
31
0.0
0
LINE
8
SECTION
10
10.270574
20
-0.217638
30
0.0
11
10.319592
21
-0.217638
31
0.0
0
LINE
8
SECTION
10
10.319592
20
-0.217638
30
0.0
11
10.319592
21
0.000000
31
0.0
0
LINE
8
SECTION
10
10.319592
20
0.000000
30
0.0
11
10.270574
21
0.000000
31
0.0
0
LINE
8
SECTION
10
10.270574
20
0.000000
30
0.0
11
10.270574
21
-0.217638
31
0.0
0
LINE
8
SECTION
10
10.680408
20
0.000000
30
0.0
11
10.729426
21
0.000000
31
0.0
0
LINE
8
SECTION
10
10.729426
20
0.000000
30
0.0
11
10.729426
21
0.217638
31
0.0
0
LINE
8
SECTION
10
10.729426
20
0.217638
30
0.0
11
10.680408
21
0.217638
31
0.0
0
LINE
8
SECTION
10
10.680408
20
0.217638
30
0.0
11
10.680408
21
0.000000
31
0.0
0
LINE
8
SECTION
10
10.680408
20
-0.217638
30
0.0
11
10.729426
21
-0.217638
31
0.0
0
LINE
8
SECTION
10
10.729426
20
-0.217638
30
0.0
11
10.729426
21
0.000000
31
0.0
0
LINE
8
SECTION
10
10.729426
20
0.000000
30
0.0
11
10.680408
21
0.000000
31
0.0
0
LINE
8
SECTION
10
10.680408
20
0.000000
30
0.0
11
10.680408
21
-0.217638
31
0.0
0
ENDSEC
0
EOF
