0
SECTION
2
HEADER
9
$INSUNITS
70
1
0
ENDSEC
0
SECTION
2
ENTITIES
0
LINE
8
FRONT
10
0.000000
20
0.274690
30
0.0
11
0.112500
21
0.275245
31
0.0
0
LINE
8
FRONT
10
0.112500
20
0.275245
30
0.0
11
0.225000
21
0.275800
31
0.0
0
LINE
8
FRONT
10
0.225000
20
0.275800
30
0.0
11
0.337500
21
0.276355
31
0.0
0
LINE
8
FRONT
10
0.337500
20
0.276355
30
0.0
11
0.450000
21
0.276910
31
0.0
0
LINE
8
FRONT
10
0.450000
20
0.276910
30
0.0
11
0.500000
21
0.277157
31
0.0
0
LINE
8
FRONT
10
0.500000
20
0.277157
30
0.0
11
0.562500
21
0.277465
31
0.0
0
LINE
8
FRONT
10
0.562500
20
0.277465
30
0.0
11
0.675000
21
0.278021
31
0.0
0
LINE
8
FRONT
10
0.675000
20
0.278021
30
0.0
11
0.787500
21
0.278576
31
0.0
0
LINE
8
FRONT
10
0.787500
20
0.278576
30
0.0
11
0.900000
21
0.279131
31
0.0
0
LINE
8
FRONT
10
0.900000
20
0.279131
30
0.0
11
1.012500
21
0.279686
31
0.0
0
LINE
8
FRONT
10
1.012500
20
0.279686
30
0.0
11
1.125000
21
0.280241
31
0.0
0
LINE
8
FRONT
10
1.125000
20
0.280241
30
0.0
11
1.237500
21
0.280796
31
0.0
0
LINE
8
FRONT
10
1.237500
20
0.280796
30
0.0
11
1.350000
21
0.281351
31
0.0
0
LINE
8
FRONT
10
1.350000
20
0.281351
30
0.0
11
1.462500
21
0.281906
31
0.0
0
LINE
8
FRONT
10
1.462500
20
0.281906
30
0.0
11
1.575000
21
0.282461
31
0.0
0
LINE
8
FRONT
10
1.575000
20
0.282461
30
0.0
11
1.687500
21
0.283016
31
0.0
0
LINE
8
FRONT
10
1.687500
20
0.283016
30
0.0
11
1.800000
21
0.283572
31
0.0
0
LINE
8
FRONT
10
1.800000
20
0.283572
30
0.0
11
1.912500
21
0.284127
31
0.0
0
LINE
8
FRONT
10
1.912500
20
0.284127
30
0.0
11
2.025000
21
0.284682
31
0.0
0
LINE
8
FRONT
10
2.025000
20
0.284682
30
0.0
11
2.137500
21
0.285237
31
0.0
0
LINE
8
FRONT
10
2.137500
20
0.285237
30
0.0
11
2.250000
21
0.285792
31
0.0
0
LINE
8
FRONT
10
2.250000
20
0.285792
30
0.0
11
2.362500
21
0.286347
31
0.0
0
LINE
8
FRONT
10
2.362500
20
0.286347
30
0.0
11
2.475000
21
0.286902
31
0.0
0
LINE
8
FRONT
10
2.475000
20
0.286902
30
0.0
11
2.587500
21
0.287457
31
0.0
0
LINE
8
FRONT
10
2.587500
20
0.287457
30
0.0
11
2.700000
21
0.288012
31
0.0
0
LINE
8
FRONT
10
2.700000
20
0.288012
30
0.0
11
2.812500
21
0.288567
31
0.0
0
LINE
8
FRONT
10
2.812500
20
0.288567
30
0.0
11
2.925000
21
0.289123
31
0.0
0
LINE
8
FRONT
10
2.925000
20
0.289123
30
0.0
11
3.037500
21
0.289678
31
0.0
0
LINE
8
FRONT
10
3.037500
20
0.289678
30
0.0
11
3.150000
21
0.290233
31
0.0
0
LINE
8
FRONT
10
3.150000
20
0.290233
30
0.0
11
3.262500
21
0.290788
31
0.0
0
LINE
8
FRONT
10
3.262500
20
0.290788
30
0.0
11
3.375000
21
0.291343
31
0.0
0
LINE
8
FRONT
10
3.375000
20
0.291343
30
0.0
11
3.487500
21
0.291898
31
0.0
0
LINE
8
FRONT
10
3.487500
20
0.291898
30
0.0
11
3.600000
21
0.292453
31
0.0
0
LINE
8
FRONT
10
3.600000
20
0.292453
30
0.0
11
3.712500
21
0.293008
31
0.0
0
LINE
8
FRONT
10
3.712500
20
0.293008
30
0.0
11
3.825000
21
0.293563
31
0.0
0
LINE
8
FRONT
10
3.825000
20
0.293563
30
0.0
11
3.937500
21
0.294118
31
0.0
0
LINE
8
FRONT
10
3.937500
20
0.294118
30
0.0
11
4.050000
21
0.294674
31
0.0
0
LINE
8
FRONT
10
4.050000
20
0.294674
30
0.0
11
4.162500
21
0.295229
31
0.0
0
LINE
8
FRONT
10
4.162500
20
0.295229
30
0.0
11
4.275000
21
0.295784
31
0.0
0
LINE
8
FRONT
10
4.275000
20
0.295784
30
0.0
11
4.387500
21
0.296339
31
0.0
0
LINE
8
FRONT
10
4.387500
20
0.296339
30
0.0
11
4.500000
21
0.296894
31
0.0
0
LINE
8
FRONT
10
4.500000
20
0.296894
30
0.0
11
4.612500
21
0.296339
31
0.0
0
LINE
8
FRONT
10
4.612500
20
0.296339
30
0.0
11
4.725000
21
0.295784
31
0.0
0
LINE
8
FRONT
10
4.725000
20
0.295784
30
0.0
11
4.837500
21
0.295229
31
0.0
0
LINE
8
FRONT
10
4.837500
20
0.295229
30
0.0
11
4.950000
21
0.294674
31
0.0
0
LINE
8
FRONT
10
4.950000
20
0.294674
30
0.0
11
5.062500
21
0.294118
31
0.0
0
LINE
8
FRONT
10
5.062500
20
0.294118
30
0.0
11
5.175000
21
0.293563
31
0.0
0
LINE
8
FRONT
10
5.175000
20
0.293563
30
0.0
11
5.287500
21
0.293008
31
0.0
0
LINE
8
FRONT
10
5.287500
20
0.293008
30
0.0
11
5.400000
21
0.292453
31
0.0
0
LINE
8
FRONT
10
5.400000
20
0.292453
30
0.0
11
5.512500
21
0.291898
31
0.0
0
LINE
8
FRONT
10
5.512500
20
0.291898
30
0.0
11
5.625000
21
0.291343
31
0.0
0
LINE
8
FRONT
10
5.625000
20
0.291343
30
0.0
11
5.737500
21
0.290788
31
0.0
0
LINE
8
FRONT
10
5.737500
20
0.290788
30
0.0
11
5.850000
21
0.290233
31
0.0
0
LINE
8
FRONT
10
5.850000
20
0.290233
30
0.0
11
5.962500
21
0.289678
31
0.0
0
LINE
8
FRONT
10
5.962500
20
0.289678
30
0.0
11
6.075000
21
0.289123
31
0.0
0
LINE
8
FRONT
10
6.075000
20
0.289123
30
0.0
11
6.187500
21
0.288567
31
0.0
0
LINE
8
FRONT
10
6.187500
20
0.288567
30
0.0
11
6.300000
21
0.288012
31
0.0
0
LINE
8
FRONT
10
6.300000
20
0.288012
30
0.0
11
6.412500
21
0.287457
31
0.0
0
LINE
8
FRONT
10
6.412500
20
0.287457
30
0.0
11
6.525000
21
0.286902
31
0.0
0
LINE
8
FRONT
10
6.525000
20
0.286902
30
0.0
11
6.637500
21
0.286347
31
0.0
0
LINE
8
FRONT
10
6.637500
20
0.286347
30
0.0
11
6.750000
21
0.285792
31
0.0
0
LINE
8
FRONT
10
6.750000
20
0.285792
30
0.0
11
6.862500
21
0.285237
31
0.0
0
LINE
8
FRONT
10
6.862500
20
0.285237
30
0.0
11
6.975000
21
0.284682
31
0.0
0
LINE
8
FRONT
10
6.975000
20
0.284682
30
0.0
11
7.087500
21
0.284127
31
0.0
0
LINE
8
FRONT
10
7.087500
20
0.284127
30
0.0
11
7.200000
21
0.283572
31
0.0
0
LINE
8
FRONT
10
7.200000
20
0.283572
30
0.0
11
7.312500
21
0.283016
31
0.0
0
LINE
8
FRONT
10
7.312500
20
0.283016
30
0.0
11
7.425000
21
0.282461
31
0.0
0
LINE
8
FRONT
10
7.425000
20
0.282461
30
0.0
11
7.537500
21
0.281906
31
0.0
0
LINE
8
FRONT
10
7.537500
20
0.281906
30
0.0
11
7.650000
21
0.281351
31
0.0
0
LINE
8
FRONT
10
7.650000
20
0.281351
30
0.0
11
7.762500
21
0.280796
31
0.0
0
LINE
8
FRONT
10
7.762500
20
0.280796
30
0.0
11
7.875000
21
0.280241
31
0.0
0
LINE
8
FRONT
10
7.875000
20
0.280241
30
0.0
11
7.987500
21
0.279686
31
0.0
0
LINE
8
FRONT
10
7.987500
20
0.279686
30
0.0
11
8.100000
21
0.279131
31
0.0
0
LINE
8
FRONT
10
8.100000
20
0.279131
30
0.0
11
8.212500
21
0.278576
31
0.0
0
LINE
8
FRONT
10
8.212500
20
0.278576
30
0.0
11
8.325000
21
0.278021
31
0.0
0
LINE
8
FRONT
10
8.325000
20
0.278021
30
0.0
11
8.437500
21
0.277465
31
0.0
0
LINE
8
FRONT
10
8.437500
20
0.277465
30
0.0
11
8.500000
21
0.277157
31
0.0
0
LINE
8
FRONT
10
8.500000
20
0.277157
30
0.0
11
8.550000
21
0.276910
31
0.0
0
LINE
8
FRONT
10
8.550000
20
0.276910
30
0.0
11
8.662500
21
0.276355
31
0.0
0
LINE
8
FRONT
10
8.662500
20
0.276355
30
0.0
11
8.775000
21
0.275800
31
0.0
0
LINE
8
FRONT
10
8.775000
20
0.275800
30
0.0
11
8.887500
21
0.275245
31
0.0
0
LINE
8
FRONT
10
8.887500
20
0.275245
30
0.0
11
9.000000
21
0.274690
31
0.0
0
LINE
8
FRONT
10
0.000000
20
-0.274690
30
0.0
11
0.112500
21
-0.275245
31
0.0
0
LINE
8
FRONT
10
0.112500
20
-0.275245
30
0.0
11
0.225000
21
-0.275800
31
0.0
0
LINE
8
FRONT
10
0.225000
20
-0.275800
30
0.0
11
0.337500
21
-0.276355
31
0.0
0
LINE
8
FRONT
10
0.337500
20
-0.276355
30
0.0
11
0.450000
21
-0.276910
31
0.0
0
LINE
8
FRONT
10
0.450000
20
-0.276910
30
0.0
11
0.500000
21
-0.277157
31
0.0
0
LINE
8
FRONT
10
0.500000
20
-0.277157
30
0.0
11
0.562500
21
-0.277465
31
0.0
0
LINE
8
FRONT
10
0.562500
20
-0.277465
30
0.0
11
0.675000
21
-0.278021
31
0.0
0
LINE
8
FRONT
10
0.675000
20
-0.278021
30
0.0
11
0.787500
21
-0.278576
31
0.0
0
LINE
8
FRONT
10
0.787500
20
-0.278576
30
0.0
11
0.900000
21
-0.279131
31
0.0
0
LINE
8
FRONT
10
0.900000
20
-0.279131
30
0.0
11
1.012500
21
-0.279686
31
0.0
0
LINE
8
FRONT
10
1.012500
20
-0.279686
30
0.0
11
1.125000
21
-0.280241
31
0.0
0
LINE
8
FRONT
10
1.125000
20
-0.280241
30
0.0
11
1.237500
21
-0.280796
31
0.0
0
LINE
8
FRONT
10
1.237500
20
-0.280796
30
0.0
11
1.350000
21
-0.281351
31
0.0
0
LINE
8
FRONT
10
1.350000
20
-0.281351
30
0.0
11
1.462500
21
-0.281906
31
0.0
0
LINE
8
FRONT
10
1.462500
20
-0.281906
30
0.0
11
1.575000
21
-0.282461
31
0.0
0
LINE
8
FRONT
10
1.575000
20
-0.282461
30
0.0
11
1.687500
21
-0.283016
31
0.0
0
LINE
8
FRONT
10
1.687500
20
-0.283016
30
0.0
11
1.800000
21
-0.283572
31
0.0
0
LINE
8
FRONT
10
1.800000
20
-0.283572
30
0.0
11
1.912500
21
-0.284127
31
0.0
0
LINE
8
FRONT
10
1.912500
20
-0.284127
30
0.0
11
2.025000
21
-0.284682
31
0.0
0
LINE
8
FRONT
10
2.025000
20
-0.284682
30
0.0
11
2.137500
21
-0.285237
31
0.0
0
LINE
8
FRONT
10
2.137500
20
-0.285237
30
0.0
11
2.250000
21
-0.285792
31
0.0
0
LINE
8
FRONT
10
2.250000
20
-0.285792
30
0.0
11
2.362500
21
-0.286347
31
0.0
0
LINE
8
FRONT
10
2.362500
20
-0.286347
30
0.0
11
2.475000
21
-0.286902
31
0.0
0
LINE
8
FRONT
10
2.475000
20
-0.286902
30
0.0
11
2.587500
21
-0.287457
31
0.0
0
LINE
8
FRONT
10
2.587500
20
-0.287457
30
0.0
11
2.700000
21
-0.288012
31
0.0
0
LINE
8
FRONT
10
2.700000
20
-0.288012
30
0.0
11
2.812500
21
-0.288567
31
0.0
0
LINE
8
FRONT
10
2.812500
20
-0.288567
30
0.0
11
2.925000
21
-0.289123
31
0.0
0
LINE
8
FRONT
10
2.925000
20
-0.289123
30
0.0
11
3.037500
21
-0.289678
31
0.0
0
LINE
8
FRONT
10
3.037500
20
-0.289678
30
0.0
11
3.150000
21
-0.290233
31
0.0
0
LINE
8
FRONT
10
3.150000
20
-0.290233
30
0.0
11
3.262500
21
-0.290788
31
0.0
0
LINE
8
FRONT
10
3.262500
20
-0.290788
30
0.0
11
3.375000
21
-0.291343
31
0.0
0
LINE
8
FRONT
10
3.375000
20
-0.291343
30
0.0
11
3.487500
21
-0.291898
31
0.0
0
LINE
8
FRONT
10
3.487500
20
-0.291898
30
0.0
11
3.600000
21
-0.292453
31
0.0
0
LINE
8
FRONT
10
3.600000
20
-0.292453
30
0.0
11
3.712500
21
-0.293008
31
0.0
0
LINE
8
FRONT
10
3.712500
20
-0.293008
30
0.0
11
3.825000
21
-0.293563
31
0.0
0
LINE
8
FRONT
10
3.825000
20
-0.293563
30
0.0
11
3.937500
21
-0.294118
31
0.0
0
LINE
8
FRONT
10
3.937500
20
-0.294118
30
0.0
11
4.050000
21
-0.294674
31
0.0
0
LINE
8
FRONT
10
4.050000
20
-0.294674
30
0.0
11
4.162500
21
-0.295229
31
0.0
0
LINE
8
FRONT
10
4.162500
20
-0.295229
30
0.0
11
4.275000
21
-0.295784
31
0.0
0
LINE
8
FRONT
10
4.275000
20
-0.295784
30
0.0
11
4.387500
21
-0.296339
31
0.0
0
LINE
8
FRONT
10
4.387500
20
-0.296339
30
0.0
11
4.500000
21
-0.296894
31
0.0
0
LINE
8
FRONT
10
4.500000
20
-0.296894
30
0.0
11
4.612500
21
-0.296339
31
0.0
0
LINE
8
FRONT
10
4.612500
20
-0.296339
30
0.0
11
4.725000
21
-0.295784
31
0.0
0
LINE
8
FRONT
10
4.725000
20
-0.295784
30
0.0
11
4.837500
21
-0.295229
31
0.0
0
LINE
8
FRONT
10
4.837500
20
-0.295229
30
0.0
11
4.950000
21
-0.294674
31
0.0
0
LINE
8
FRONT
10
4.950000
20
-0.294674
30
0.0
11
5.062500
21
-0.294118
31
0.0
0
LINE
8
FRONT
10
5.062500
20
-0.294118
30
0.0
11
5.175000
21
-0.293563
31
0.0
0
LINE
8
FRONT
10
5.175000
20
-0.293563
30
0.0
11
5.287500
21
-0.293008
31
0.0
0
LINE
8
FRONT
10
5.287500
20
-0.293008
30
0.0
11
5.400000
21
-0.292453
31
0.0
0
LINE
8
FRONT
10
5.400000
20
-0.292453
30
0.0
11
5.512500
21
-0.291898
31
0.0
0
LINE
8
FRONT
10
5.512500
20
-0.291898
30
0.0
11
5.625000
21
-0.291343
31
0.0
0
LINE
8
FRONT
10
5.625000
20
-0.291343
30
0.0
11
5.737500
21
-0.290788
31
0.0
0
LINE
8
FRONT
10
5.737500
20
-0.290788
30
0.0
11
5.850000
21
-0.290233
31
0.0
0
LINE
8
FRONT
10
5.850000
20
-0.290233
30
0.0
11
5.962500
21
-0.289678
31
0.0
0
LINE
8
FRONT
10
5.962500
20
-0.289678
30
0.0
11
6.075000
21
-0.289123
31
0.0
0
LINE
8
FRONT
10
6.075000
20
-0.289123
30
0.0
11
6.187500
21
-0.288567
31
0.0
0
LINE
8
FRONT
10
6.187500
20
-0.288567
30
0.0
11
6.300000
21
-0.288012
31
0.0
0
LINE
8
FRONT
10
6.300000
20
-0.288012
30
0.0
11
6.412500
21
-0.287457
31
0.0
0
LINE
8
FRONT
10
6.412500
20
-0.287457
30
0.0
11
6.525000
21
-0.286902
31
0.0
0
LINE
8
FRONT
10
6.525000
20
-0.286902
30
0.0
11
6.637500
21
-0.286347
31
0.0
0
LINE
8
FRONT
10
6.637500
20
-0.286347
30
0.0
11
6.750000
21
-0.285792
31
0.0
0
LINE
8
FRONT
10
6.750000
20
-0.285792
30
0.0
11
6.862500
21
-0.285237
31
0.0
0
LINE
8
FRONT
10
6.862500
20
-0.285237
30
0.0
11
6.975000
21
-0.284682
31
0.0
0
LINE
8
FRONT
10
6.975000
20
-0.284682
30
0.0
11
7.087500
21
-0.284127
31
0.0
0
LINE
8
FRONT
10
7.087500
20
-0.284127
30
0.0
11
7.200000
21
-0.283572
31
0.0
0
LINE
8
FRONT
10
7.200000
20
-0.283572
30
0.0
11
7.312500
21
-0.283016
31
0.0
0
LINE
8
FRONT
10
7.312500
20
-0.283016
30
0.0
11
7.425000
21
-0.282461
31
0.0
0
LINE
8
FRONT
10
7.425000
20
-0.282461
30
0.0
11
7.537500
21
-0.281906
31
0.0
0
LINE
8
FRONT
10
7.537500
20
-0.281906
30
0.0
11
7.650000
21
-0.281351
31
0.0
0
LINE
8
FRONT
10
7.650000
20
-0.281351
30
0.0
11
7.762500
21
-0.280796
31
0.0
0
LINE
8
FRONT
10
7.762500
20
-0.280796
30
0.0
11
7.875000
21
-0.280241
31
0.0
0
LINE
8
FRONT
10
7.875000
20
-0.280241
30
0.0
11
7.987500
21
-0.279686
31
0.0
0
LINE
8
FRONT
10
7.987500
20
-0.279686
30
0.0
11
8.100000
21
-0.279131
31
0.0
0
LINE
8
FRONT
10
8.100000
20
-0.279131
30
0.0
11
8.212500
21
-0.278576
31
0.0
0
LINE
8
FRONT
10
8.212500
20
-0.278576
30
0.0
11
8.325000
21
-0.278021
31
0.0
0
LINE
8
FRONT
10
8.325000
20
-0.278021
30
0.0
11
8.437500
21
-0.277465
31
0.0
0
LINE
8
FRONT
10
8.437500
20
-0.277465
30
0.0
11
8.500000
21
-0.277157
31
0.0
0
LINE
8
FRONT
10
8.500000
20
-0.277157
30
0.0
11
8.550000
21
-0.276910
31
0.0
0
LINE
8
FRONT
10
8.550000
20
-0.276910
30
0.0
11
8.662500
21
-0.276355
31
0.0
0
LINE
8
FRONT
10
8.662500
20
-0.276355
30
0.0
11
8.775000
21
-0.275800
31
0.0
0
LINE
8
FRONT
10
8.775000
20
-0.275800
30
0.0
11
8.887500
21
-0.275245
31
0.0
0
LINE
8
FRONT
10
8.887500
20
-0.275245
30
0.0
11
9.000000
21
-0.274690
31
0.0
0
LINE
8
FRONT
10
0.000000
20
0.274690
30
0.0
11
0.000000
21
-0.274690
31
0.0
0
LINE
8
FRONT
10
9.000000
20
0.274690
30
0.0
11
9.000000
21
-0.274690
31
0.0
0
LINE
8
TOP
10
0.000000
20
1.840257
30
0.0
11
0.112500
21
1.841677
31
0.0
0
LINE
8
TOP
10
0.112500
20
1.841677
30
0.0
11
0.225000
21
1.843096
31
0.0
0
LINE
8
TOP
10
0.225000
20
1.843096
30
0.0
11
0.337500
21
1.844516
31
0.0
0
LINE
8
TOP
10
0.337500
20
1.844516
30
0.0
11
0.450000
21
1.845935
31
0.0
0
LINE
8
TOP
10
0.450000
20
1.845935
30
0.0
11
0.500000
21
1.846566
31
0.0
0
LINE
8
TOP
10
0.500000
20
1.846566
30
0.0
11
0.562500
21
1.847355
31
0.0
0
LINE
8
TOP
10
0.562500
20
1.847355
30
0.0
11
0.675000
21
1.848774
31
0.0
0
LINE
8
TOP
10
0.675000
20
1.848774
30
0.0
11
0.787500
21
1.850194
31
0.0
0
LINE
8
TOP
10
0.787500
20
1.850194
30
0.0
11
0.900000
21
1.851613
31
0.0
0
LINE
8
TOP
10
0.900000
20
1.851613
30
0.0
11
1.012500
21
1.853032
31
0.0
0
LINE
8
TOP
10
1.012500
20
1.853032
30
0.0
11
1.125000
21
1.854452
31
0.0
0
LINE
8
TOP
10
1.125000
20
1.854452
30
0.0
11
1.237500
21
1.855871
31
0.0
0
LINE
8
TOP
10
1.237500
20
1.855871
30
0.0
11
1.350000
21
1.857291
31
0.0
0
LINE
8
TOP
10
1.350000
20
1.857291
30
0.0
11
1.462500
21
1.858710
31
0.0
0
LINE
8
TOP
10
1.462500
20
1.858710
30
0.0
11
1.575000
21
1.860130
31
0.0
0
LINE
8
TOP
10
1.575000
20
1.860130
30
0.0
11
1.687500
21
1.861549
31
0.0
0
LINE
8
TOP
10
1.687500
20
1.861549
30
0.0
11
1.800000
21
1.862969
31
0.0
0
LINE
8
TOP
10
1.800000
20
1.862969
30
0.0
11
1.912500
21
1.864388
31
0.0
0
LINE
8
TOP
10
1.912500
20
1.864388
30
0.0
11
2.025000
21
1.865808
31
0.0
0
LINE
8
TOP
10
2.025000
20
1.865808
30
0.0
11
2.137500
21
1.867227
31
0.0
0
LINE
8
TOP
10
2.137500
20
1.867227
30
0.0
11
2.250000
21
1.868647
31
0.0
0
LINE
8
TOP
10
2.250000
20
1.868647
30
0.0
11
2.362500
21
1.870066
31
0.0
0
LINE
8
TOP
10
2.362500
20
1.870066
30
0.0
11
2.475000
21
1.871485
31
0.0
0
LINE
8
TOP
10
2.475000
20
1.871485
30
0.0
11
2.587500
21
1.872905
31
0.0
0
LINE
8
TOP
10
2.587500
20
1.872905
30
0.0
11
2.700000
21
1.874324
31
0.0
0
LINE
8
TOP
10
2.700000
20
1.874324
30
0.0
11
2.812500
21
1.875744
31
0.0
0
LINE
8
TOP
10
2.812500
20
1.875744
30
0.0
11
2.925000
21
1.877163
31
0.0
0
LINE
8
TOP
10
2.925000
20
1.877163
30
0.0
11
3.037500
21
1.878583
31
0.0
0
LINE
8
TOP
10
3.037500
20
1.878583
30
0.0
11
3.150000
21
1.880002
31
0.0
0
LINE
8
TOP
10
3.150000
20
1.880002
30
0.0
11
3.262500
21
1.881422
31
0.0
0
LINE
8
TOP
10
3.262500
20
1.881422
30
0.0
11
3.375000
21
1.882841
31
0.0
0
LINE
8
TOP
10
3.375000
20
1.882841
30
0.0
11
3.487500
21
1.884261
31
0.0
0
LINE
8
TOP
10
3.487500
20
1.884261
30
0.0
11
3.600000
21
1.885680
31
0.0
0
LINE
8
TOP
10
3.600000
20
1.885680
30
0.0
11
3.712500
21
1.887099
31
0.0
0
LINE
8
TOP
10
3.712500
20
1.887099
30
0.0
11
3.825000
21
1.888519
31
0.0
0
LINE
8
TOP
10
3.825000
20
1.888519
30
0.0
11
3.937500
21
1.889938
31
0.0
0
LINE
8
TOP
10
3.937500
20
1.889938
30
0.0
11
4.050000
21
1.891358
31
0.0
0
LINE
8
TOP
10
4.050000
20
1.891358
30
0.0
11
4.162500
21
1.892777
31
0.0
0
LINE
8
TOP
10
4.162500
20
1.892777
30
0.0
11
4.275000
21
1.894197
31
0.0
0
LINE
8
TOP
10
4.275000
20
1.894197
30
0.0
11
4.387500
21
1.895616
31
0.0
0
LINE
8
TOP
10
4.387500
20
1.895616
30
0.0
11
4.500000
21
1.897036
31
0.0
0
LINE
8
TOP
10
4.500000
20
1.897036
30
0.0
11
4.612500
21
1.895616
31
0.0
0
LINE
8
TOP
10
4.612500
20
1.895616
30
0.0
11
4.725000
21
1.894197
31
0.0
0
LINE
8
TOP
10
4.725000
20
1.894197
30
0.0
11
4.837500
21
1.892777
31
0.0
0
LINE
8
TOP
10
4.837500
20
1.892777
30
0.0
11
4.950000
21
1.891358
31
0.0
0
LINE
8
TOP
10
4.950000
20
1.891358
30
0.0
11
5.062500
21
1.889938
31
0.0
0
LINE
8
TOP
10
5.062500
20
1.889938
30
0.0
11
5.175000
21
1.888519
31
0.0
0
LINE
8
TOP
10
5.175000
20
1.888519
30
0.0
11
5.287500
21
1.887099
31
0.0
0
LINE
8
TOP
10
5.287500
20
1.887099
30
0.0
11
5.400000
21
1.885680
31
0.0
0
LINE
8
TOP
10
5.400000
20
1.885680
30
0.0
11
5.512500
21
1.884261
31
0.0
0
LINE
8
TOP
10
5.512500
20
1.884261
30
0.0
11
5.625000
21
1.882841
31
0.0
0
LINE
8
TOP
10
5.625000
20
1.882841
30
0.0
11
5.737500
21
1.881422
31
0.0
0
LINE
8
TOP
10
5.737500
20
1.881422
30
0.0
11
5.850000
21
1.880002
31
0.0
0
LINE
8
TOP
10
5.850000
20
1.880002
30
0.0
11
5.962500
21
1.878583
31
0.0
0
LINE
8
TOP
10
5.962500
20
1.878583
30
0.0
11
6.075000
21
1.877163
31
0.0
0
LINE
8
TOP
10
6.075000
20
1.877163
30
0.0
11
6.187500
21
1.875744
31
0.0
0
LINE
8
TOP
10
6.187500
20
1.875744
30
0.0
11
6.300000
21
1.874324
31
0.0
0
LINE
8
TOP
10
6.300000
20
1.874324
30
0.0
11
6.412500
21
1.872905
31
0.0
0
LINE
8
TOP
10
6.412500
20
1.872905
30
0.0
11
6.525000
21
1.871485
31
0.0
0
LINE
8
TOP
10
6.525000
20
1.871485
30
0.0
11
6.637500
21
1.870066
31
0.0
0
LINE
8
TOP
10
6.637500
20
1.870066
30
0.0
11
6.750000
21
1.868647
31
0.0
0
LINE
8
TOP
10
6.750000
20
1.868647
30
0.0
11
6.862500
21
1.867227
31
0.0
0
LINE
8
TOP
10
6.862500
20
1.867227
30
0.0
11
6.975000
21
1.865808
31
0.0
0
LINE
8
TOP
10
6.975000
20
1.865808
30
0.0
11
7.087500
21
1.864388
31
0.0
0
LINE
8
TOP
10
7.087500
20
1.864388
30
0.0
11
7.200000
21
1.862969
31
0.0
0
LINE
8
TOP
10
7.200000
20
1.862969
30
0.0
11
7.312500
21
1.861549
31
0.0
0
LINE
8
TOP
10
7.312500
20
1.861549
30
0.0
11
7.425000
21
1.860130
31
0.0
0
LINE
8
TOP
10
7.425000
20
1.860130
30
0.0
11
7.537500
21
1.858710
31
0.0
0
LINE
8
TOP
10
7.537500
20
1.858710
30
0.0
11
7.650000
21
1.857291
31
0.0
0
LINE
8
TOP
10
7.650000
20
1.857291
30
0.0
11
7.762500
21
1.855871
31
0.0
0
LINE
8
TOP
10
7.762500
20
1.855871
30
0.0
11
7.875000
21
1.854452
31
0.0
0
LINE
8
TOP
10
7.875000
20
1.854452
30
0.0
11
7.987500
21
1.853032
31
0.0
0
LINE
8
TOP
10
7.987500
20
1.853032
30
0.0
11
8.100000
21
1.851613
31
0.0
0
LINE
8
TOP
10
8.100000
20
1.851613
30
0.0
11
8.212500
21
1.850194
31
0.0
0
LINE
8
TOP
10
8.212500
20
1.850194
30
0.0
11
8.325000
21
1.848774
31
0.0
0
LINE
8
TOP
10
8.325000
20
1.848774
30
0.0
11
8.437500
21
1.847355
31
0.0
0
LINE
8
TOP
10
8.437500
20
1.847355
30
0.0
11
8.500000
21
1.846566
31
0.0
0
LINE
8
TOP
10
8.500000
20
1.846566
30
0.0
11
8.550000
21
1.845935
31
0.0
0
LINE
8
TOP
10
8.550000
20
1.845935
30
0.0
11
8.662500
21
1.844516
31
0.0
0
LINE
8
TOP
10
8.662500
20
1.844516
30
0.0
11
8.775000
21
1.843096
31
0.0
0
LINE
8
TOP
10
8.775000
20
1.843096
30
0.0
11
8.887500
21
1.841677
31
0.0
0
LINE
8
TOP
10
8.887500
20
1.841677
30
0.0
11
9.000000
21
1.840257
31
0.0
0
LINE
8
TOP
10
0.000000
20
1.441107
30
0.0
11
0.112500
21
1.439687
31
0.0
0
LINE
8
TOP
10
0.112500
20
1.439687
30
0.0
11
0.225000
21
1.438268
31
0.0
0
LINE
8
TOP
10
0.225000
20
1.438268
30
0.0
11
0.337500
21
1.436848
31
0.0
0
LINE
8
TOP
10
0.337500
20
1.436848
30
0.0
11
0.450000
21
1.435429
31
0.0
0
LINE
8
TOP
10
0.450000
20
1.435429
30
0.0
11
0.500000
21
1.434798
31
0.0
0
LINE
8
TOP
10
0.500000
20
1.434798
30
0.0
11
0.562500
21
1.434009
31
0.0
0
LINE
8
TOP
10
0.562500
20
1.434009
30
0.0
11
0.675000
21
1.432590
31
0.0
0
LINE
8
TOP
10
0.675000
20
1.432590
30
0.0
11
0.787500
21
1.431170
31
0.0
0
LINE
8
TOP
10
0.787500
20
1.431170
30
0.0
11
0.900000
21
1.429751
31
0.0
0
LINE
8
TOP
10
0.900000
20
1.429751
30
0.0
11
1.012500
21
1.428332
31
0.0
0
LINE
8
TOP
10
1.012500
20
1.428332
30
0.0
11
1.125000
21
1.426912
31
0.0
0
LINE
8
TOP
10
1.125000
20
1.426912
30
0.0
11
1.237500
21
1.425493
31
0.0
0
LINE
8
TOP
10
1.237500
20
1.425493
30
0.0
11
1.350000
21
1.424073
31
0.0
0
LINE
8
TOP
10
1.350000
20
1.424073
30
0.0
11
1.462500
21
1.422654
31
0.0
0
LINE
8
TOP
10
1.462500
20
1.422654
30
0.0
11
1.575000
21
1.421234
31
0.0
0
LINE
8
TOP
10
1.575000
20
1.421234
30
0.0
11
1.687500
21
1.419815
31
0.0
0
LINE
8
TOP
10
1.687500
20
1.419815
30
0.0
11
1.800000
21
1.418395
31
0.0
0
LINE
8
TOP
10
1.800000
20
1.418395
30
0.0
11
1.912500
21
1.416976
31
0.0
0
LINE
8
TOP
10
1.912500
20
1.416976
30
0.0
11
2.025000
21
1.415556
31
0.0
0
LINE
8
TOP
10
2.025000
20
1.415556
30
0.0
11
2.137500
21
1.414137
31
0.0
0
LINE
8
TOP
10
2.137500
20
1.414137
30
0.0
11
2.250000
21
1.412718
31
0.0
0
LINE
8
TOP
10
2.250000
20
1.412718
30
0.0
11
2.362500
21
1.411298
31
0.0
0
LINE
8
TOP
10
2.362500
20
1.411298
30
0.0
11
2.475000
21
1.409879
31
0.0
0
LINE
8
TOP
10
2.475000
20
1.409879
30
0.0
11
2.587500
21
1.408459
31
0.0
0
LINE
8
TOP
10
2.587500
20
1.408459
30
0.0
11
2.700000
21
1.407040
31
0.0
0
LINE
8
TOP
10
2.700000
20
1.407040
30
0.0
11
2.812500
21
1.405620
31
0.0
0
LINE
8
TOP
10
2.812500
20
1.405620
30
0.0
11
2.925000
21
1.404201
31
0.0
0
LINE
8
TOP
10
2.925000
20
1.404201
30
0.0
11
3.037500
21
1.402781
31
0.0
0
LINE
8
TOP
10
3.037500
20
1.402781
30
0.0
11
3.150000
21
1.401362
31
0.0
0
LINE
8
TOP
10
3.150000
20
1.401362
30
0.0
11
3.262500
21
1.399942
31
0.0
0
LINE
8
TOP
10
3.262500
20
1.399942
30
0.0
11
3.375000
21
1.398523
31
0.0
0
LINE
8
TOP
10
3.375000
20
1.398523
30
0.0
11
3.487500
21
1.397104
31
0.0
0
LINE
8
TOP
10
3.487500
20
1.397104
30
0.0
11
3.600000
21
1.395684
31
0.0
0
LINE
8
TOP
10
3.600000
20
1.395684
30
0.0
11
3.712500
21
1.394265
31
0.0
0
LINE
8
TOP
10
3.712500
20
1.394265
30
0.0
11
3.825000
21
1.392845
31
0.0
0
LINE
8
TOP
10
3.825000
20
1.392845
30
0.0
11
3.937500
21
1.391426
31
0.0
0
LINE
8
TOP
10
3.937500
20
1.391426
30
0.0
11
4.050000
21
1.390006
31
0.0
0
LINE
8
TOP
10
4.050000
20
1.390006
30
0.0
11
4.162500
21
1.388587
31
0.0
0
LINE
8
TOP
10
4.162500
20
1.388587
30
0.0
11
4.275000
21
1.387167
31
0.0
0
LINE
8
TOP
10
4.275000
20
1.387167
30
0.0
11
4.387500
21
1.385748
31
0.0
0
LINE
8
TOP
10
4.387500
20
1.385748
30
0.0
11
4.500000
21
1.384328
31
0.0
0
LINE
8
TOP
10
4.500000
20
1.384328
30
0.0
11
4.612500
21
1.385748
31
0.0
0
LINE
8
TOP
10
4.612500
20
1.385748
30
0.0
11
4.725000
21
1.387167
31
0.0
0
LINE
8
TOP
10
4.725000
20
1.387167
30
0.0
11
4.837500
21
1.388587
31
0.0
0
LINE
8
TOP
10
4.837500
20
1.388587
30
0.0
11
4.950000
21
1.390006
31
0.0
0
LINE
8
TOP
10
4.950000
20
1.390006
30
0.0
11
5.062500
21
1.391426
31
0.0
0
LINE
8
TOP
10
5.062500
20
1.391426
30
0.0
11
5.175000
21
1.392845
31
0.0
0
LINE
8
TOP
10
5.175000
20
1.392845
30
0.0
11
5.287500
21
1.394265
31
0.0
0
LINE
8
TOP
10
5.287500
20
1.394265
30
0.0
11
5.400000
21
1.395684
31
0.0
0
LINE
8
TOP
10
5.400000
20
1.395684
30
0.0
11
5.512500
21
1.397104
31
0.0
0
LINE
8
TOP
10
5.512500
20
1.397104
30
0.0
11
5.625000
21
1.398523
31
0.0
0
LINE
8
TOP
10
5.625000
20
1.398523
30
0.0
11
5.737500
21
1.399942
31
0.0
0
LINE
8
TOP
10
5.737500
20
1.399942
30
0.0
11
5.850000
21
1.401362
31
0.0
0
LINE
8
TOP
10
5.850000
20
1.401362
30
0.0
11
5.962500
21
1.402781
31
0.0
0
LINE
8
TOP
10
5.962500
20
1.402781
30
0.0
11
6.075000
21
1.404201
31
0.0
0
LINE
8
TOP
10
6.075000
20
1.404201
30
0.0
11
6.187500
21
1.405620
31
0.0
0
LINE
8
TOP
10
6.187500
20
1.405620
30
0.0
11
6.300000
21
1.407040
31
0.0
0
LINE
8
TOP
10
6.300000
20
1.407040
30
0.0
11
6.412500
21
1.408459
31
0.0
0
LINE
8
TOP
10
6.412500
20
1.408459
30
0.0
11
6.525000
21
1.409879
31
0.0
0
LINE
8
TOP
10
6.525000
20
1.409879
30
0.0
11
6.637500
21
1.411298
31
0.0
0
LINE
8
TOP
10
6.637500
20
1.411298
30
0.0
11
6.750000
21
1.412718
31
0.0
0
LINE
8
TOP
10
6.750000
20
1.412718
30
0.0
11
6.862500
21
1.414137
31
0.0
0
LINE
8
TOP
10
6.862500
20
1.414137
30
0.0
11
6.975000
21
1.415556
31
0.0
0
LINE
8
TOP
10
6.975000
20
1.415556
30
0.0
11
7.087500
21
1.416976
31
0.0
0
LINE
8
TOP
10
7.087500
20
1.416976
30
0.0
11
7.200000
21
1.418395
31
0.0
0
LINE
8
TOP
10
7.200000
20
1.418395
30
0.0
11
7.312500
21
1.419815
31
0.0
0
LINE
8
TOP
10
7.312500
20
1.419815
30
0.0
11
7.425000
21
1.421234
31
0.0
0
LINE
8
TOP
10
7.425000
20
1.421234
30
0.0
11
7.537500
21
1.422654
31
0.0
0
LINE
8
TOP
10
7.537500
20
1.422654
30
0.0
11
7.650000
21
1.424073
31
0.0
0
LINE
8
TOP
10
7.650000
20
1.424073
30
0.0
11
7.762500
21
1.425493
31
0.0
0
LINE
8
TOP
10
7.762500
20
1.425493
30
0.0
11
7.875000
21
1.426912
31
0.0
0
LINE
8
TOP
10
7.875000
20
1.426912
30
0.0
11
7.987500
21
1.428332
31
0.0
0
LINE
8
TOP
10
7.987500
20
1.428332
30
0.0
11
8.100000
21
1.429751
31
0.0
0
LINE
8
TOP
10
8.100000
20
1.429751
30
0.0
11
8.212500
21
1.431170
31
0.0
0
LINE
8
TOP
10
8.212500
20
1.431170
30
0.0
11
8.325000
21
1.432590
31
0.0
0
LINE
8
TOP
10
8.325000
20
1.432590
30
0.0
11
8.437500
21
1.434009
31
0.0
0
LINE
8
TOP
10
8.437500
20
1.434009
30
0.0
11
8.500000
21
1.434798
31
0.0
0
LINE
8
TOP
10
8.500000
20
1.434798
30
0.0
11
8.550000
21
1.435429
31
0.0
0
LINE
8
TOP
10
8.550000
20
1.435429
30
0.0
11
8.662500
21
1.436848
31
0.0
0
LINE
8
TOP
10
8.662500
20
1.436848
30
0.0
11
8.775000
21
1.438268
31
0.0
0
LINE
8
TOP
10
8.775000
20
1.438268
30
0.0
11
8.887500
21
1.439687
31
0.0
0
LINE
8
TOP
10
8.887500
20
1.439687
30
0.0
11
9.000000
21
1.441107
31
0.0
0
LINE
8
TOP
10
0.000000
20
1.840257
30
0.0
11
0.000000
21
1.441107
31
0.0
0
LINE
8
TOP
10
9.000000
20
1.840257
30
0.0
11
9.000000
21
1.441107
31
0.0
0
LINE
8
SECTION
10
10.243646
20
-0.296894
30
0.0
11
10.756354
21
-0.296894
31
0.0
0
LINE
8
SECTION
10
10.756354
20
-0.296894
30
0.0
11
10.756354
21
0.296894
31
0.0
0
LINE
8
SECTION
10
10.756354
20
0.296894
30
0.0
11
10.243646
21
0.296894
31
0.0
0
LINE
8
SECTION
10
10.243646
20
0.296894
30
0.0
11
10.243646
21
-0.296894
31
0.0
0
LINE
8
SECTION
10
10.283646
20
-0.256894
30
0.0
11
10.716354
21
-0.256894
31
0.0
0
LINE
8
SECTION
10
10.716354
20
-0.256894
30
0.0
11
10.716354
21
0.256894
31
0.0
0
LINE
8
SECTION
10
10.716354
20
0.256894
30
0.0
11
10.283646
21
0.256894
31
0.0
0
LINE
8
SECTION
10
10.283646
20
0.256894
30
0.0
11
10.283646
21
-0.256894
31
0.0
0
LINE
8
SECTION
10
10.283646
20
0.161888
30
0.0
11
10.323646
21
0.161888
31
0.0
0
LINE
8
SECTION
10
10.323646
20
0.161888
30
0.0
11
10.323646
21
0.256894
31
0.0
0
LINE
8
SECTION
10
10.323646
20
0.256894
30
0.0
11
10.283646
21
0.256894
31
0.0
0
LINE
8
SECTION
10
10.283646
20
0.256894
30
0.0
11
10.283646
21
0.161888
31
0.0
0
LINE
8
SECTION
10
10.283646
20
-0.256894
30
0.0
11
10.323646
21
-0.256894
31
0.0
0
LINE
8
SECTION
10
10.323646
20
-0.256894
30
0.0
11
10.323646
21
-0.161888
31
0.0
0
LINE
8
SECTION
10
10.323646
20
-0.161888
30
0.0
11
10.283646
21
-0.161888
31
0.0
0
LINE
8
SECTION
10
10.283646
20
-0.161888
30
0.0
11
10.283646
21
-0.256894
31
0.0
0
LINE
8
SECTION
10
10.676354
20
0.161888
30
0.0
11
10.716354
21
0.161888
31
0.0
0
LINE
8
SECTION
10
10.716354
20
0.161888
30
0.0
11
10.716354
21
0.256894
31
0.0
0
LINE
8
SECTION
10
10.716354
20
0.256894
30
0.0
11
10.676354
21
0.256894
31
0.0
0
LINE
8
SECTION
10
10.676354
20
0.256894
30
0.0
11
10.676354
21
0.161888
31
0.0
0
LINE
8
SECTION
10
10.676354
20
-0.256894
30
0.0
11
10.716354
21
-0.256894
31
0.0
0
LINE
8
SECTION
10
10.716354
20
-0.256894
30
0.0
11
10.716354
21
-0.161888
31
0.0
0
LINE
8
SECTION
10
10.716354
20
-0.161888
30
0.0
11
10.676354
21
-0.161888
31
0.0
0
LINE
8
SECTION
10
10.676354
20
-0.161888
30
0.0
11
10.676354
21
-0.256894
31
0.0
0
ENDSEC
0
EOF
