0
SECTION
2
HEADER
9
$INSUNITS
70
1
0
ENDSEC
0
SECTION
2
ENTITIES
0
LINE
8
FRONT
10
0.000000
20
0.298169
30
0.0
11
0.112500
21
0.298901
31
0.0
0
LINE
8
FRONT
10
0.112500
20
0.298901
30
0.0
11
0.225000
21
0.299634
31
0.0
0
LINE
8
FRONT
10
0.225000
20
0.299634
30
0.0
11
0.337500
21
0.300366
31
0.0
0
LINE
8
FRONT
10
0.337500
20
0.300366
30
0.0
11
0.450000
21
0.301099
31
0.0
0
LINE
8
FRONT
10
0.450000
20
0.301099
30
0.0
11
0.500000
21
0.301424
31
0.0
0
LINE
8
FRONT
10
0.500000
20
0.301424
30
0.0
11
0.562500
21
0.301831
31
0.0
0
LINE
8
FRONT
10
0.562500
20
0.301831
30
0.0
11
0.675000
21
0.302564
31
0.0
0
LINE
8
FRONT
10
0.675000
20
0.302564
30
0.0
11
0.787500
21
0.303296
31
0.0
0
LINE
8
FRONT
10
0.787500
20
0.303296
30
0.0
11
0.900000
21
0.304029
31
0.0
0
LINE
8
FRONT
10
0.900000
20
0.304029
30
0.0
11
1.012500
21
0.304761
31
0.0
0
LINE
8
FRONT
10
1.012500
20
0.304761
30
0.0
11
1.125000
21
0.305494
31
0.0
0
LINE
8
FRONT
10
1.125000
20
0.305494
30
0.0
11
1.237500
21
0.306226
31
0.0
0
LINE
8
FRONT
10
1.237500
20
0.306226
30
0.0
11
1.350000
21
0.306959
31
0.0
0
LINE
8
FRONT
10
1.350000
20
0.306959
30
0.0
11
1.462500
21
0.307691
31
0.0
0
LINE
8
FRONT
10
1.462500
20
0.307691
30
0.0
11
1.575000
21
0.308424
31
0.0
0
LINE
8
FRONT
10
1.575000
20
0.308424
30
0.0
11
1.687500
21
0.309156
31
0.0
0
LINE
8
FRONT
10
1.687500
20
0.309156
30
0.0
11
1.800000
21
0.309889
31
0.0
0
LINE
8
FRONT
10
1.800000
20
0.309889
30
0.0
11
1.912500
21
0.310621
31
0.0
0
LINE
8
FRONT
10
1.912500
20
0.310621
30
0.0
11
2.025000
21
0.311353
31
0.0
0
LINE
8
FRONT
10
2.025000
20
0.311353
30
0.0
11
2.137500
21
0.312086
31
0.0
0
LINE
8
FRONT
10
2.137500
20
0.312086
30
0.0
11
2.250000
21
0.312818
31
0.0
0
LINE
8
FRONT
10
2.250000
20
0.312818
30
0.0
11
2.362500
21
0.313551
31
0.0
0
LINE
8
FRONT
10
2.362500
20
0.313551
30
0.0
11
2.475000
21
0.314283
31
0.0
0
LINE
8
FRONT
10
2.475000
20
0.314283
30
0.0
11
2.587500
21
0.315016
31
0.0
0
LINE
8
FRONT
10
2.587500
20
0.315016
30
0.0
11
2.700000
21
0.315748
31
0.0
0
LINE
8
FRONT
10
2.700000
20
0.315748
30
0.0
11
2.812500
21
0.316481
31
0.0
0
LINE
8
FRONT
10
2.812500
20
0.316481
30
0.0
11
2.925000
21
0.317213
31
0.0
0
LINE
8
FRONT
10
2.925000
20
0.317213
30
0.0
11
3.037500
21
0.317946
31
0.0
0
LINE
8
FRONT
10
3.037500
20
0.317946
30
0.0
11
3.150000
21
0.318678
31
0.0
0
LINE
8
FRONT
10
3.150000
20
0.318678
30
0.0
11
3.262500
21
0.319411
31
0.0
0
LINE
8
FRONT
10
3.262500
20
0.319411
30
0.0
11
3.375000
21
0.320143
31
0.0
0
LINE
8
FRONT
10
3.375000
20
0.320143
30
0.0
11
3.487500
21
0.320876
31
0.0
0
LINE
8
FRONT
10
3.487500
20
0.320876
30
0.0
11
3.600000
21
0.321608
31
0.0
0
LINE
8
FRONT
10
3.600000
20
0.321608
30
0.0
11
3.712500
21
0.322341
31
0.0
0
LINE
8
FRONT
10
3.712500
20
0.322341
30
0.0
11
3.825000
21
0.323073
31
0.0
0
LINE
8
FRONT
10
3.825000
20
0.323073
30
0.0
11
3.937500
21
0.323806
31
0.0
0
LINE
8
FRONT
10
3.937500
20
0.323806
30
0.0
11
4.050000
21
0.324538
31
0.0
0
LINE
8
FRONT
10
4.050000
20
0.324538
30
0.0
11
4.162500
21
0.325271
31
0.0
0
LINE
8
FRONT
10
4.162500
20
0.325271
30
0.0
11
4.275000
21
0.326003
31
0.0
0
LINE
8
FRONT
10
4.275000
20
0.326003
30
0.0
11
4.387500
21
0.326736
31
0.0
0
LINE
8
FRONT
10
4.387500
20
0.326736
30
0.0
11
4.500000
21
0.327468
31
0.0
0
LINE
8
FRONT
10
4.500000
20
0.327468
30
0.0
11
4.612500
21
0.327734
31
0.0
0
LINE
8
FRONT
10
4.612500
20
0.327734
30
0.0
11
4.725000
21
0.327999
31
0.0
0
LINE
8
FRONT
10
4.725000
20
0.327999
30
0.0
11
4.837500
21
0.328265
31
0.0
0
LINE
8
FRONT
10
4.837500
20
0.328265
30
0.0
11
4.950000
21
0.328530
31
0.0
0
LINE
8
FRONT
10
4.950000
20
0.328530
30
0.0
11
5.062500
21
0.328796
31
0.0
0
LINE
8
FRONT
10
5.062500
20
0.328796
30
0.0
11
5.175000
21
0.329062
31
0.0
0
LINE
8
FRONT
10
5.175000
20
0.329062
30
0.0
11
5.287500
21
0.329327
31
0.0
0
LINE
8
FRONT
10
5.287500
20
0.329327
30
0.0
11
5.400000
21
0.329593
31
0.0
0
LINE
8
FRONT
10
5.400000
20
0.329593
30
0.0
11
5.512500
21
0.329858
31
0.0
0
LINE
8
FRONT
10
5.512500
20
0.329858
30
0.0
11
5.625000
21
0.330124
31
0.0
0
LINE
8
FRONT
10
5.625000
20
0.330124
30
0.0
11
5.737500
21
0.330390
31
0.0
0
LINE
8
FRONT
10
5.737500
20
0.330390
30
0.0
11
5.850000
21
0.330655
31
0.0
0
LINE
8
FRONT
10
5.850000
20
0.330655
30
0.0
11
5.962500
21
0.330921
31
0.0
0
LINE
8
FRONT
10
5.962500
20
0.330921
30
0.0
11
6.075000
21
0.331186
31
0.0
0
LINE
8
FRONT
10
6.075000
20
0.331186
30
0.0
11
6.187500
21
0.331452
31
0.0
0
LINE
8
FRONT
10
6.187500
20
0.331452
30
0.0
11
6.300000
21
0.331718
31
0.0
0
LINE
8
FRONT
10
6.300000
20
0.331718
30
0.0
11
6.412500
21
0.331983
31
0.0
0
LINE
8
FRONT
10
6.412500
20
0.331983
30
0.0
11
6.525000
21
0.332249
31
0.0
0
LINE
8
FRONT
10
6.525000
20
0.332249
30
0.0
11
6.637500
21
0.332514
31
0.0
0
LINE
8
FRONT
10
6.637500
20
0.332514
30
0.0
11
6.750000
21
0.332780
31
0.0
0
LINE
8
FRONT
10
6.750000
20
0.332780
30
0.0
11
6.862500
21
0.333045
31
0.0
0
LINE
8
FRONT
10
6.862500
20
0.333045
30
0.0
11
6.975000
21
0.333311
31
0.0
0
LINE
8
FRONT
10
6.975000
20
0.333311
30
0.0
11
7.087500
21
0.333577
31
0.0
0
LINE
8
FRONT
10
7.087500
20
0.333577
30
0.0
11
7.200000
21
0.333842
31
0.0
0
LINE
8
FRONT
10
7.200000
20
0.333842
30
0.0
11
7.312500
21
0.334108
31
0.0
0
LINE
8
FRONT
10
7.312500
20
0.334108
30
0.0
11
7.425000
21
0.334373
31
0.0
0
LINE
8
FRONT
10
7.425000
20
0.334373
30
0.0
11
7.537500
21
0.334639
31
0.0
0
LINE
8
FRONT
10
7.537500
20
0.334639
30
0.0
11
7.650000
21
0.334905
31
0.0
0
LINE
8
FRONT
10
7.650000
20
0.334905
30
0.0
11
7.762500
21
0.335170
31
0.0
0
LINE
8
FRONT
10
7.762500
20
0.335170
30
0.0
11
7.875000
21
0.335436
31
0.0
0
LINE
8
FRONT
10
7.875000
20
0.335436
30
0.0
11
7.987500
21
0.335701
31
0.0
0
LINE
8
FRONT
10
7.987500
20
0.335701
30
0.0
11
8.100000
21
0.335967
31
0.0
0
LINE
8
FRONT
10
8.100000
20
0.335967
30
0.0
11
8.212500
21
0.336233
31
0.0
0
LINE
8
FRONT
10
8.212500
20
0.336233
30
0.0
11
8.325000
21
0.336498
31
0.0
0
LINE
8
FRONT
10
8.325000
20
0.336498
30
0.0
11
8.437500
21
0.336764
31
0.0
0
LINE
8
FRONT
10
8.437500
20
0.336764
30
0.0
11
8.500000
21
0.336911
31
0.0
0
LINE
8
FRONT
10
8.500000
20
0.336911
30
0.0
11
8.550000
21
0.337029
31
0.0
0
LINE
8
FRONT
10
8.550000
20
0.337029
30
0.0
11
8.662500
21
0.337295
31
0.0
0
LINE
8
FRONT
10
8.662500
20
0.337295
30
0.0
11
8.775000
21
0.337560
31
0.0
0
LINE
8
FRONT
10
8.775000
20
0.337560
30
0.0
11
8.887500
21
0.337826
31
0.0
0
LINE
8
FRONT
10
8.887500
20
0.337826
30
0.0
11
9.000000
21
0.338092
31
0.0
0
LINE
8
FRONT
10
0.000000
20
-0.298169
30
0.0
11
0.112500
21
-0.298901
31
0.0
0
LINE
8
FRONT
10
0.112500
20
-0.298901
30
0.0
11
0.225000
21
-0.299634
31
0.0
0
LINE
8
FRONT
10
0.225000
20
-0.299634
30
0.0
11
0.337500
21
-0.300366
31
0.0
0
LINE
8
FRONT
10
0.337500
20
-0.300366
30
0.0
11
0.450000
21
-0.301099
31
0.0
0
LINE
8
FRONT
10
0.450000
20
-0.301099
30
0.0
11
0.500000
21
-0.301424
31
0.0
0
LINE
8
FRONT
10
0.500000
20
-0.301424
30
0.0
11
0.562500
21
-0.301831
31
0.0
0
LINE
8
FRONT
10
0.562500
20
-0.301831
30
0.0
11
0.675000
21
-0.302564
31
0.0
0
LINE
8
FRONT
10
0.675000
20
-0.302564
30
0.0
11
0.787500
21
-0.303296
31
0.0
0
LINE
8
FRONT
10
0.787500
20
-0.303296
30
0.0
11
0.900000
21
-0.304029
31
0.0
0
LINE
8
FRONT
10
0.900000
20
-0.304029
30
0.0
11
1.012500
21
-0.304761
31
0.0
0
LINE
8
FRONT
10
1.012500
20
-0.304761
30
0.0
11
1.125000
21
-0.305494
31
0.0
0
LINE
8
FRONT
10
1.125000
20
-0.305494
30
0.0
11
1.237500
21
-0.306226
31
0.0
0
LINE
8
FRONT
10
1.237500
20
-0.306226
30
0.0
11
1.350000
21
-0.306959
31
0.0
0
LINE
8
FRONT
10
1.350000
20
-0.306959
30
0.0
11
1.462500
21
-0.307691
31
0.0
0
LINE
8
FRONT
10
1.462500
20
-0.307691
30
0.0
11
1.575000
21
-0.308424
31
0.0
0
LINE
8
FRONT
10
1.575000
20
-0.308424
30
0.0
11
1.687500
21
-0.309156
31
0.0
0
LINE
8
FRONT
10
1.687500
20
-0.309156
30
0.0
11
1.800000
21
-0.309889
31
0.0
0
LINE
8
FRONT
10
1.800000
20
-0.309889
30
0.0
11
1.912500
21
-0.310621
31
0.0
0
LINE
8
FRONT
10
1.912500
20
-0.310621
30
0.0
11
2.025000
21
-0.311353
31
0.0
0
LINE
8
FRONT
10
2.025000
20
-0.311353
30
0.0
11
2.137500
21
-0.312086
31
0.0
0
LINE
8
FRONT
10
2.137500
20
-0.312086
30
0.0
11
2.250000
21
-0.312818
31
0.0
0
LINE
8
FRONT
10
2.250000
20
-0.312818
30
0.0
11
2.362500
21
-0.313551
31
0.0
0
LINE
8
FRONT
10
2.362500
20
-0.313551
30
0.0
11
2.475000
21
-0.314283
31
0.0
0
LINE
8
FRONT
10
2.475000
20
-0.314283
30
0.0
11
2.587500
21
-0.315016
31
0.0
0
LINE
8
FRONT
10
2.587500
20
-0.315016
30
0.0
11
2.700000
21
-0.315748
31
0.0
0
LINE
8
FRONT
10
2.700000
20
-0.315748
30
0.0
11
2.812500
21
-0.316481
31
0.0
0
LINE
8
FRONT
10
2.812500
20
-0.316481
30
0.0
11
2.925000
21
-0.317213
31
0.0
0
LINE
8
FRONT
10
2.925000
20
-0.317213
30
0.0
11
3.037500
21
-0.317946
31
0.0
0
LINE
8
FRONT
10
3.037500
20
-0.317946
30
0.0
11
3.150000
21
-0.318678
31
0.0
0
LINE
8
FRONT
10
3.150000
20
-0.318678
30
0.0
11
3.262500
21
-0.319411
31
0.0
0
LINE
8
FRONT
10
3.262500
20
-0.319411
30
0.0
11
3.375000
21
-0.320143
31
0.0
0
LINE
8
FRONT
10
3.375000
20
-0.320143
30
0.0
11
3.487500
21
-0.320876
31
0.0
0
LINE
8
FRONT
10
3.487500
20
-0.320876
30
0.0
11
3.600000
21
-0.321608
31
0.0
0
LINE
8
FRONT
10
3.600000
20
-0.321608
30
0.0
11
3.712500
21
-0.322341
31
0.0
0
LINE
8
FRONT
10
3.712500
20
-0.322341
30
0.0
11
3.825000
21
-0.323073
31
0.0
0
LINE
8
FRONT
10
3.825000
20
-0.323073
30
0.0
11
3.937500
21
-0.323806
31
0.0
0
LINE
8
FRONT
10
3.937500
20
-0.323806
30
0.0
11
4.050000
21
-0.324538
31
0.0
0
LINE
8
FRONT
10
4.050000
20
-0.324538
30
0.0
11
4.162500
21
-0.325271
31
0.0
0
LINE
8
FRONT
10
4.162500
20
-0.325271
30
0.0
11
4.275000
21
-0.326003
31
0.0
0
LINE
8
FRONT
10
4.275000
20
-0.326003
30
0.0
11
4.387500
21
-0.326736
31
0.0
0
LINE
8
FRONT
10
4.387500
20
-0.326736
30
0.0
11
4.500000
21
-0.327468
31
0.0
0
LINE
8
FRONT
10
4.500000
20
-0.327468
30
0.0
11
4.612500
21
-0.327734
31
0.0
0
LINE
8
FRONT
10
4.612500
20
-0.327734
30
0.0
11
4.725000
21
-0.327999
31
0.0
0
LINE
8
FRONT
10
4.725000
20
-0.327999
30
0.0
11
4.837500
21
-0.328265
31
0.0
0
LINE
8
FRONT
10
4.837500
20
-0.328265
30
0.0
11
4.950000
21
-0.328530
31
0.0
0
LINE
8
FRONT
10
4.950000
20
-0.328530
30
0.0
11
5.062500
21
-0.328796
31
0.0
0
LINE
8
FRONT
10
5.062500
20
-0.328796
30
0.0
11
5.175000
21
-0.329062
31
0.0
0
LINE
8
FRONT
10
5.175000
20
-0.329062
30
0.0
11
5.287500
21
-0.329327
31
0.0
0
LINE
8
FRONT
10
5.287500
20
-0.329327
30
0.0
11
5.400000
21
-0.329593
31
0.0
0
LINE
8
FRONT
10
5.400000
20
-0.329593
30
0.0
11
5.512500
21
-0.329858
31
0.0
0
LINE
8
FRONT
10
5.512500
20
-0.329858
30
0.0
11
5.625000
21
-0.330124
31
0.0
0
LINE
8
FRONT
10
5.625000
20
-0.330124
30
0.0
11
5.737500
21
-0.330390
31
0.0
0
LINE
8
FRONT
10
5.737500
20
-0.330390
30
0.0
11
5.850000
21
-0.330655
31
0.0
0
LINE
8
FRONT
10
5.850000
20
-0.330655
30
0.0
11
5.962500
21
-0.330921
31
0.0
0
LINE
8
FRONT
10
5.962500
20
-0.330921
30
0.0
11
6.075000
21
-0.331186
31
0.0
0
LINE
8
FRONT
10
6.075000
20
-0.331186
30
0.0
11
6.187500
21
-0.331452
31
0.0
0
LINE
8
FRONT
10
6.187500
20
-0.331452
30
0.0
11
6.300000
21
-0.331718
31
0.0
0
LINE
8
FRONT
10
6.300000
20
-0.331718
30
0.0
11
6.412500
21
-0.331983
31
0.0
0
LINE
8
FRONT
10
6.412500
20
-0.331983
30
0.0
11
6.525000
21
-0.332249
31
0.0
0
LINE
8
FRONT
10
6.525000
20
-0.332249
30
0.0
11
6.637500
21
-0.332514
31
0.0
0
LINE
8
FRONT
10
6.637500
20
-0.332514
30
0.0
11
6.750000
21
-0.332780
31
0.0
0
LINE
8
FRONT
10
6.750000
20
-0.332780
30
0.0
11
6.862500
21
-0.333045
31
0.0
0
LINE
8
FRONT
10
6.862500
20
-0.333045
30
0.0
11
6.975000
21
-0.333311
31
0.0
0
LINE
8
FRONT
10
6.975000
20
-0.333311
30
0.0
11
7.087500
21
-0.333577
31
0.0
0
LINE
8
FRONT
10
7.087500
20
-0.333577
30
0.0
11
7.200000
21
-0.333842
31
0.0
0
LINE
8
FRONT
10
7.200000
20
-0.333842
30
0.0
11
7.312500
21
-0.334108
31
0.0
0
LINE
8
FRONT
10
7.312500
20
-0.334108
30
0.0
11
7.425000
21
-0.334373
31
0.0
0
LINE
8
FRONT
10
7.425000
20
-0.334373
30
0.0
11
7.537500
21
-0.334639
31
0.0
0
LINE
8
FRONT
10
7.537500
20
-0.334639
30
0.0
11
7.650000
21
-0.334905
31
0.0
0
LINE
8
FRONT
10
7.650000
20
-0.334905
30
0.0
11
7.762500
21
-0.335170
31
0.0
0
LINE
8
FRONT
10
7.762500
20
-0.335170
30
0.0
11
7.875000
21
-0.335436
31
0.0
0
LINE
8
FRONT
10
7.875000
20
-0.335436
30
0.0
11
7.987500
21
-0.335701
31
0.0
0
LINE
8
FRONT
10
7.987500
20
-0.335701
30
0.0
11
8.100000
21
-0.335967
31
0.0
0
LINE
8
FRONT
10
8.100000
20
-0.335967
30
0.0
11
8.212500
21
-0.336233
31
0.0
0
LINE
8
FRONT
10
8.212500
20
-0.336233
30
0.0
11
8.325000
21
-0.336498
31
0.0
0
LINE
8
FRONT
10
8.325000
20
-0.336498
30
0.0
11
8.437500
21
-0.336764
31
0.0
0
LINE
8
FRONT
10
8.437500
20
-0.336764
30
0.0
11
8.500000
21
-0.336911
31
0.0
0
LINE
8
FRONT
10
8.500000
20
-0.336911
30
0.0
11
8.550000
21
-0.337029
31
0.0
0
LINE
8
FRONT
10
8.550000
20
-0.337029
30
0.0
11
8.662500
21
-0.337295
31
0.0
0
LINE
8
FRONT
10
8.662500
20
-0.337295
30
0.0
11
8.775000
21
-0.337560
31
0.0
0
LINE
8
FRONT
10
8.775000
20
-0.337560
30
0.0
11
8.887500
21
-0.337826
31
0.0
0
LINE
8
FRONT
10
8.887500
20
-0.337826
30
0.0
11
9.000000
21
-0.338092
31
0.0
0
LINE
8
FRONT
10
0.000000
20
0.298169
30
0.0
11
0.000000
21
-0.298169
31
0.0
0
LINE
8
FRONT
10
9.000000
20
0.338092
30
0.0
11
9.000000
21
-0.338092
31
0.0
0
LINE
8
TOP
10
0.000000
20
1.930736
30
0.0
11
0.112500
21
1.931475
31
0.0
0
LINE
8
TOP
10
0.112500
20
1.931475
30
0.0
11
0.225000
21
1.932215
31
0.0
0
LINE
8
TOP
10
0.225000
20
1.932215
30
0.0
11
0.337500
21
1.932954
31
0.0
0
LINE
8
TOP
10
0.337500
20
1.932954
30
0.0
11
0.450000
21
1.933694
31
0.0
0
LINE
8
TOP
10
0.450000
20
1.933694
30
0.0
11
0.500000
21
1.934023
31
0.0
0
LINE
8
TOP
10
0.500000
20
1.934023
30
0.0
11
0.562500
21
1.934434
31
0.0
0
LINE
8
TOP
10
0.562500
20
1.934434
30
0.0
11
0.675000
21
1.935173
31
0.0
0
LINE
8
TOP
10
0.675000
20
1.935173
30
0.0
11
0.787500
21
1.935913
31
0.0
0
LINE
8
TOP
10
0.787500
20
1.935913
30
0.0
11
0.900000
21
1.936652
31
0.0
0
LINE
8
TOP
10
0.900000
20
1.936652
30
0.0
11
1.012500
21
1.937392
31
0.0
0
LINE
8
TOP
10
1.012500
20
1.937392
30
0.0
11
1.125000
21
1.938131
31
0.0
0
LINE
8
TOP
10
1.125000
20
1.938131
30
0.0
11
1.237500
21
1.938871
31
0.0
0
LINE
8
TOP
10
1.237500
20
1.938871
30
0.0
11
1.350000
21
1.939611
31
0.0
0
LINE
8
TOP
10
1.350000
20
1.939611
30
0.0
11
1.462500
21
1.940350
31
0.0
0
LINE
8
TOP
10
1.462500
20
1.940350
30
0.0
11
1.575000
21
1.941090
31
0.0
0
LINE
8
TOP
10
1.575000
20
1.941090
30
0.0
11
1.687500
21
1.941829
31
0.0
0
LINE
8
TOP
10
1.687500
20
1.941829
30
0.0
11
1.800000
21
1.942569
31
0.0
0
LINE
8
TOP
10
1.800000
20
1.942569
30
0.0
11
1.912500
21
1.943309
31
0.0
0
LINE
8
TOP
10
1.912500
20
1.943309
30
0.0
11
2.025000
21
1.944048
31
0.0
0
LINE
8
TOP
10
2.025000
20
1.944048
30
0.0
11
2.137500
21
1.944788
31
0.0
0
LINE
8
TOP
10
2.137500
20
1.944788
30
0.0
11
2.250000
21
1.945527
31
0.0
0
LINE
8
TOP
10
2.250000
20
1.945527
30
0.0
11
2.362500
21
1.946267
31
0.0
0
LINE
8
TOP
10
2.362500
20
1.946267
30
0.0
11
2.475000
21
1.947007
31
0.0
0
LINE
8
TOP
10
2.475000
20
1.947007
30
0.0
11
2.587500
21
1.947746
31
0.0
0
LINE
8
TOP
10
2.587500
20
1.947746
30
0.0
11
2.700000
21
1.948486
31
0.0
0
LINE
8
TOP
10
2.700000
20
1.948486
30
0.0
11
2.812500
21
1.949225
31
0.0
0
LINE
8
TOP
10
2.812500
20
1.949225
30
0.0
11
2.925000
21
1.949965
31
0.0
0
LINE
8
TOP
10
2.925000
20
1.949965
30
0.0
11
3.037500
21
1.950704
31
0.0
0
LINE
8
TOP
10
3.037500
20
1.950704
30
0.0
11
3.150000
21
1.951444
31
0.0
0
LINE
8
TOP
10
3.150000
20
1.951444
30
0.0
11
3.262500
21
1.952184
31
0.0
0
LINE
8
TOP
10
3.262500
20
1.952184
30
0.0
11
3.375000
21
1.952923
31
0.0
0
LINE
8
TOP
10
3.375000
20
1.952923
30
0.0
11
3.487500
21
1.953663
31
0.0
0
LINE
8
TOP
10
3.487500
20
1.953663
30
0.0
11
3.600000
21
1.954402
31
0.0
0
LINE
8
TOP
10
3.600000
20
1.954402
30
0.0
11
3.712500
21
1.955142
31
0.0
0
LINE
8
TOP
10
3.712500
20
1.955142
30
0.0
11
3.825000
21
1.955882
31
0.0
0
LINE
8
TOP
10
3.825000
20
1.955882
30
0.0
11
3.937500
21
1.956621
31
0.0
0
LINE
8
TOP
10
3.937500
20
1.956621
30
0.0
11
4.050000
21
1.957361
31
0.0
0
LINE
8
TOP
10
4.050000
20
1.957361
30
0.0
11
4.162500
21
1.958100
31
0.0
0
LINE
8
TOP
10
4.162500
20
1.958100
30
0.0
11
4.275000
21
1.958840
31
0.0
0
LINE
8
TOP
10
4.275000
20
1.958840
30
0.0
11
4.387500
21
1.959579
31
0.0
0
LINE
8
TOP
10
4.387500
20
1.959579
30
0.0
11
4.500000
21
1.960319
31
0.0
0
LINE
8
TOP
10
4.500000
20
1.960319
30
0.0
11
4.612500
21
1.962080
31
0.0
0
LINE
8
TOP
10
4.612500
20
1.962080
30
0.0
11
4.725000
21
1.963841
31
0.0
0
LINE
8
TOP
10
4.725000
20
1.963841
30
0.0
11
4.837500
21
1.965601
31
0.0
0
LINE
8
TOP
10
4.837500
20
1.965601
30
0.0
11
4.950000
21
1.967362
31
0.0
0
LINE
8
TOP
10
4.950000
20
1.967362
30
0.0
11
5.062500
21
1.969123
31
0.0
0
LINE
8
TOP
10
5.062500
20
1.969123
30
0.0
11
5.175000
21
1.970884
31
0.0
0
LINE
8
TOP
10
5.175000
20
1.970884
30
0.0
11
5.287500
21
1.972645
31
0.0
0
LINE
8
TOP
10
5.287500
20
1.972645
30
0.0
11
5.400000
21
1.974405
31
0.0
0
LINE
8
TOP
10
5.400000
20
1.974405
30
0.0
11
5.512500
21
1.976166
31
0.0
0
LINE
8
TOP
10
5.512500
20
1.976166
30
0.0
11
5.625000
21
1.977927
31
0.0
0
LINE
8
TOP
10
5.625000
20
1.977927
30
0.0
11
5.737500
21
1.979688
31
0.0
0
LINE
8
TOP
10
5.737500
20
1.979688
30
0.0
11
5.850000
21
1.981449
31
0.0
0
LINE
8
TOP
10
5.850000
20
1.981449
30
0.0
11
5.962500
21
1.983210
31
0.0
0
LINE
8
TOP
10
5.962500
20
1.983210
30
0.0
11
6.075000
21
1.984970
31
0.0
0
LINE
8
TOP
10
6.075000
20
1.984970
30
0.0
11
6.187500
21
1.986731
31
0.0
0
LINE
8
TOP
10
6.187500
20
1.986731
30
0.0
11
6.300000
21
1.988492
31
0.0
0
LINE
8
TOP
10
6.300000
20
1.988492
30
0.0
11
6.412500
21
1.990253
31
0.0
0
LINE
8
TOP
10
6.412500
20
1.990253
30
0.0
11
6.525000
21
1.992014
31
0.0
0
LINE
8
TOP
10
6.525000
20
1.992014
30
0.0
11
6.637500
21
1.993774
31
0.0
0
LINE
8
TOP
10
6.637500
20
1.993774
30
0.0
11
6.750000
21
1.995535
31
0.0
0
LINE
8
TOP
10
6.750000
20
1.995535
30
0.0
11
6.862500
21
1.997296
31
0.0
0
LINE
8
TOP
10
6.862500
20
1.997296
30
0.0
11
6.975000
21
1.999057
31
0.0
0
LINE
8
TOP
10
6.975000
20
1.999057
30
0.0
11
7.087500
21
2.000818
31
0.0
0
LINE
8
TOP
10
7.087500
20
2.000818
30
0.0
11
7.200000
21
2.002578
31
0.0
0
LINE
8
TOP
10
7.200000
20
2.002578
30
0.0
11
7.312500
21
2.004339
31
0.0
0
LINE
8
TOP
10
7.312500
20
2.004339
30
0.0
11
7.425000
21
2.006100
31
0.0
0
LINE
8
TOP
10
7.425000
20
2.006100
30
0.0
11
7.537500
21
2.007861
31
0.0
0
LINE
8
TOP
10
7.537500
20
2.007861
30
0.0
11
7.650000
21
2.009622
31
0.0
0
LINE
8
TOP
10
7.650000
20
2.009622
30
0.0
11
7.762500
21
2.011382
31
0.0
0
LINE
8
TOP
10
7.762500
20
2.011382
30
0.0
11
7.875000
21
2.013143
31
0.0
0
LINE
8
TOP
10
7.875000
20
2.013143
30
0.0
11
7.987500
21
2.014904
31
0.0
0
LINE
8
TOP
10
7.987500
20
2.014904
30
0.0
11
8.100000
21
2.016665
31
0.0
0
LINE
8
TOP
10
8.100000
20
2.016665
30
0.0
11
8.212500
21
2.018426
31
0.0
0
LINE
8
TOP
10
8.212500
20
2.018426
30
0.0
11
8.325000
21
2.020186
31
0.0
0
LINE
8
TOP
10
8.325000
20
2.020186
30
0.0
11
8.437500
21
2.021947
31
0.0
0
LINE
8
TOP
10
8.437500
20
2.021947
30
0.0
11
8.500000
21
2.022926
31
0.0
0
LINE
8
TOP
10
8.500000
20
2.022926
30
0.0
11
8.550000
21
2.023708
31
0.0
0
LINE
8
TOP
10
8.550000
20
2.023708
30
0.0
11
8.662500
21
2.025469
31
0.0
0
LINE
8
TOP
10
8.662500
20
2.025469
30
0.0
11
8.775000
21
2.027230
31
0.0
0
LINE
8
TOP
10
8.775000
20
2.027230
30
0.0
11
8.887500
21
2.028991
31
0.0
0
LINE
8
TOP
10
8.887500
20
2.028991
30
0.0
11
9.000000
21
2.030751
31
0.0
0
LINE
8
TOP
10
0.000000
20
1.597814
30
0.0
11
0.112500
21
1.597075
31
0.0
0
LINE
8
TOP
10
0.112500
20
1.597075
30
0.0
11
0.225000
21
1.596335
31
0.0
0
LINE
8
TOP
10
0.225000
20
1.596335
30
0.0
11
0.337500
21
1.595596
31
0.0
0
LINE
8
TOP
10
0.337500
20
1.595596
30
0.0
11
0.450000
21
1.594856
31
0.0
0
LINE
8
TOP
10
0.450000
20
1.594856
30
0.0
11
0.500000
21
1.594527
31
0.0
0
LINE
8
TOP
10
0.500000
20
1.594527
30
0.0
11
0.562500
21
1.594116
31
0.0
0
LINE
8
TOP
10
0.562500
20
1.594116
30
0.0
11
0.675000
21
1.593377
31
0.0
0
LINE
8
TOP
10
0.675000
20
1.593377
30
0.0
11
0.787500
21
1.592637
31
0.0
0
LINE
8
TOP
10
0.787500
20
1.592637
30
0.0
11
0.900000
21
1.591898
31
0.0
0
LINE
8
TOP
10
0.900000
20
1.591898
30
0.0
11
1.012500
21
1.591158
31
0.0
0
LINE
8
TOP
10
1.012500
20
1.591158
30
0.0
11
1.125000
21
1.590419
31
0.0
0
LINE
8
TOP
10
1.125000
20
1.590419
30
0.0
11
1.237500
21
1.589679
31
0.0
0
LINE
8
TOP
10
1.237500
20
1.589679
30
0.0
11
1.350000
21
1.588939
31
0.0
0
LINE
8
TOP
10
1.350000
20
1.588939
30
0.0
11
1.462500
21
1.588200
31
0.0
0
LINE
8
TOP
10
1.462500
20
1.588200
30
0.0
11
1.575000
21
1.587460
31
0.0
0
LINE
8
TOP
10
1.575000
20
1.587460
30
0.0
11
1.687500
21
1.586721
31
0.0
0
LINE
8
TOP
10
1.687500
20
1.586721
30
0.0
11
1.800000
21
1.585981
31
0.0
0
LINE
8
TOP
10
1.800000
20
1.585981
30
0.0
11
1.912500
21
1.585241
31
0.0
0
LINE
8
TOP
10
1.912500
20
1.585241
30
0.0
11
2.025000
21
1.584502
31
0.0
0
LINE
8
TOP
10
2.025000
20
1.584502
30
0.0
11
2.137500
21
1.583762
31
0.0
0
LINE
8
TOP
10
2.137500
20
1.583762
30
0.0
11
2.250000
21
1.583023
31
0.0
0
LINE
8
TOP
10
2.250000
20
1.583023
30
0.0
11
2.362500
21
1.582283
31
0.0
0
LINE
8
TOP
10
2.362500
20
1.582283
30
0.0
11
2.475000
21
1.581544
31
0.0
0
LINE
8
TOP
10
2.475000
20
1.581544
30
0.0
11
2.587500
21
1.580804
31
0.0
0
LINE
8
TOP
10
2.587500
20
1.580804
30
0.0
11
2.700000
21
1.580064
31
0.0
0
LINE
8
TOP
10
2.700000
20
1.580064
30
0.0
11
2.812500
21
1.579325
31
0.0
0
LINE
8
TOP
10
2.812500
20
1.579325
30
0.0
11
2.925000
21
1.578585
31
0.0
0
LINE
8
TOP
10
2.925000
20
1.578585
30
0.0
11
3.037500
21
1.577846
31
0.0
0
LINE
8
TOP
10
3.037500
20
1.577846
30
0.0
11
3.150000
21
1.577106
31
0.0
0
LINE
8
TOP
10
3.150000
20
1.577106
30
0.0
11
3.262500
21
1.576366
31
0.0
0
LINE
8
TOP
10
3.262500
20
1.576366
30
0.0
11
3.375000
21
1.575627
31
0.0
0
LINE
8
TOP
10
3.375000
20
1.575627
30
0.0
11
3.487500
21
1.574887
31
0.0
0
LINE
8
TOP
10
3.487500
20
1.574887
30
0.0
11
3.600000
21
1.574148
31
0.0
0
LINE
8
TOP
10
3.600000
20
1.574148
30
0.0
11
3.712500
21
1.573408
31
0.0
0
LINE
8
TOP
10
3.712500
20
1.573408
30
0.0
11
3.825000
21
1.572669
31
0.0
0
LINE
8
TOP
10
3.825000
20
1.572669
30
0.0
11
3.937500
21
1.571929
31
0.0
0
LINE
8
TOP
10
3.937500
20
1.571929
30
0.0
11
4.050000
21
1.571189
31
0.0
0
LINE
8
TOP
10
4.050000
20
1.571189
30
0.0
11
4.162500
21
1.570450
31
0.0
0
LINE
8
TOP
10
4.162500
20
1.570450
30
0.0
11
4.275000
21
1.569710
31
0.0
0
LINE
8
TOP
10
4.275000
20
1.569710
30
0.0
11
4.387500
21
1.568971
31
0.0
0
LINE
8
TOP
10
4.387500
20
1.568971
30
0.0
11
4.500000
21
1.568231
31
0.0
0
LINE
8
TOP
10
4.500000
20
1.568231
30
0.0
11
4.612500
21
1.566470
31
0.0
0
LINE
8
TOP
10
4.612500
20
1.566470
30
0.0
11
4.725000
21
1.564709
31
0.0
0
LINE
8
TOP
10
4.725000
20
1.564709
30
0.0
11
4.837500
21
1.562949
31
0.0
0
LINE
8
TOP
10
4.837500
20
1.562949
30
0.0
11
4.950000
21
1.561188
31
0.0
0
LINE
8
TOP
10
4.950000
20
1.561188
30
0.0
11
5.062500
21
1.559427
31
0.0
0
LINE
8
TOP
10
5.062500
20
1.559427
30
0.0
11
5.175000
21
1.557666
31
0.0
0
LINE
8
TOP
10
5.175000
20
1.557666
30
0.0
11
5.287500
21
1.555905
31
0.0
0
LINE
8
TOP
10
5.287500
20
1.555905
30
0.0
11
5.400000
21
1.554145
31
0.0
0
LINE
8
TOP
10
5.400000
20
1.554145
30
0.0
11
5.512500
21
1.552384
31
0.0
0
LINE
8
TOP
10
5.512500
20
1.552384
30
0.0
11
5.625000
21
1.550623
31
0.0
0
LINE
8
TOP
10
5.625000
20
1.550623
30
0.0
11
5.737500
21
1.548862
31
0.0
0
LINE
8
TOP
10
5.737500
20
1.548862
30
0.0
11
5.850000
21
1.547101
31
0.0
0
LINE
8
TOP
10
5.850000
20
1.547101
30
0.0
11
5.962500
21
1.545341
31
0.0
0
LINE
8
TOP
10
5.962500
20
1.545341
30
0.0
11
6.075000
21
1.543580
31
0.0
0
LINE
8
TOP
10
6.075000
20
1.543580
30
0.0
11
6.187500
21
1.541819
31
0.0
0
LINE
8
TOP
10
6.187500
20
1.541819
30
0.0
11
6.300000
21
1.540058
31
0.0
0
LINE
8
TOP
10
6.300000
20
1.540058
30
0.0
11
6.412500
21
1.538297
31
0.0
0
LINE
8
TOP
10
6.412500
20
1.538297
30
0.0
11
6.525000
21
1.536537
31
0.0
0
LINE
8
TOP
10
6.525000
20
1.536537
30
0.0
11
6.637500
21
1.534776
31
0.0
0
LINE
8
TOP
10
6.637500
20
1.534776
30
0.0
11
6.750000
21
1.533015
31
0.0
0
LINE
8
TOP
10
6.750000
20
1.533015
30
0.0
11
6.862500
21
1.531254
31
0.0
0
LINE
8
TOP
10
6.862500
20
1.531254
30
0.0
11
6.975000
21
1.529493
31
0.0
0
LINE
8
TOP
10
6.975000
20
1.529493
30
0.0
11
7.087500
21
1.527732
31
0.0
0
LINE
8
TOP
10
7.087500
20
1.527732
30
0.0
11
7.200000
21
1.525972
31
0.0
0
LINE
8
TOP
10
7.200000
20
1.525972
30
0.0
11
7.312500
21
1.524211
31
0.0
0
LINE
8
TOP
10
7.312500
20
1.524211
30
0.0
11
7.425000
21
1.522450
31
0.0
0
LINE
8
TOP
10
7.425000
20
1.522450
30
0.0
11
7.537500
21
1.520689
31
0.0
0
LINE
8
TOP
10
7.537500
20
1.520689
30
0.0
11
7.650000
21
1.518928
31
0.0
0
LINE
8
TOP
10
7.650000
20
1.518928
30
0.0
11
7.762500
21
1.517168
31
0.0
0
LINE
8
TOP
10
7.762500
20
1.517168
30
0.0
11
7.875000
21
1.515407
31
0.0
0
LINE
8
TOP
10
7.875000
20
1.515407
30
0.0
11
7.987500
21
1.513646
31
0.0
0
LINE
8
TOP
10
7.987500
20
1.513646
30
0.0
11
8.100000
21
1.511885
31
0.0
0
LINE
8
TOP
10
8.100000
20
1.511885
30
0.0
11
8.212500
21
1.510124
31
0.0
0
LINE
8
TOP
10
8.212500
20
1.510124
30
0.0
11
8.325000
21
1.508364
31
0.0
0
LINE
8
TOP
10
8.325000
20
1.508364
30
0.0
11
8.437500
21
1.506603
31
0.0
0
LINE
8
TOP
10
8.437500
20
1.506603
30
0.0
11
8.500000
21
1.505625
31
0.0
0
LINE
8
TOP
10
8.500000
20
1.505625
30
0.0
11
8.550000
21
1.504842
31
0.0
0
LINE
8
TOP
10
8.550000
20
1.504842
30
0.0
11
8.662500
21
1.503081
31
0.0
0
LINE
8
TOP
10
8.662500
20
1.503081
30
0.0
11
8.775000
21
1.501320
31
0.0
0
LINE
8
TOP
10
8.775000
20
1.501320
30
0.0
11
8.887500
21
1.499560
31
0.0
0
LINE
8
TOP
10
8.887500
20
1.499560
30
0.0
11
9.000000
21
1.497799
31
0.0
0
LINE
8
TOP
10
0.000000
20
1.930736
30
0.0
11
0.000000
21
1.597814
31
0.0
0
LINE
8
TOP
10
9.000000
20
2.030751
30
0.0
11
9.000000
21
1.497799
31
0.0
0
LINE
8
SECTION
10
10.303956
20
-0.327468
30
0.0
11
10.696044
21
-0.327468
31
0.0
0
LINE
8
SECTION
10
10.696044
20
-0.327468
30
0.0
11
10.696044
21
0.327468
31
0.0
0
LINE
8
SECTION
10
10.696044
20
0.327468
30
0.0
11
10.303956
21
0.327468
31
0.0
0
LINE
8
SECTION
10
10.303956
20
0.327468
30
0.0
11
10.303956
21
-0.327468
31
0.0
0
LINE
8
SECTION
10
10.363956
20
-0.267468
30
0.0
11
10.636044
21
-0.267468
31
0.0
0
LINE
8
SECTION
10
10.636044
20
-0.267468
30
0.0
11
10.636044
21
0.267468
31
0.0
0
LINE
8
SECTION
10
10.636044
20
0.267468
30
0.0
11
10.363956
21
0.267468
31
0.0
0
LINE
8
SECTION
10
10.363956
20
0.267468
30
0.0
11
10.363956
21
-0.267468
31
0.0
0
LINE
8
SECTION
10
10.363956
20
0.000000
30
0.0
11
10.423956
21
0.000000
31
0.0
0
LINE
8
SECTION
10
10.423956
20
0.000000
30
0.0
11
10.423956
21
0.267468
31
0.0
0
LINE
8
SECTION
10
10.423956
20
0.267468
30
0.0
11
10.363956
21
0.267468
31
0.0
0
LINE
8
SECTION
10
10.363956
20
0.267468
30
0.0
11
10.363956
21
0.000000
31
0.0
0
LINE
8
SECTION
10
10.363956
20
-0.267468
30
0.0
11
10.423956
21
-0.267468
31
0.0
0
LINE
8
SECTION
10
10.423956
20
-0.267468
30
0.0
11
10.423956
21
0.000000
31
0.0
0
LINE
8
SECTION
10
10.423956
20
0.000000
30
0.0
11
10.363956
21
0.000000
31
0.0
0
LINE
8
SECTION
10
10.363956
20
0.000000
30
0.0
11
10.363956
21
-0.267468
31
0.0
0
LINE
8
SECTION
10
10.576044
20
0.000000
30
0.0
11
10.636044
21
0.000000
31
0.0
0
LINE
8
SECTION
10
10.636044
20
0.000000
30
0.0
11
10.636044
21
0.267468
31
0.0
0
LINE
8
SECTION
10
10.636044
20
0.267468
30
0.0
11
10.576044
21
0.267468
31
0.0
0
LINE
8
SECTION
10
10.576044
20
0.267468
30
0.0
11
10.576044
21
0.000000
31
0.0
0
LINE
8
SECTION
10
10.576044
20
-0.267468
30
0.0
11
10.636044
21
-0.267468
31
0.0
0
LINE
8
SECTION
10
10.636044
20
-0.267468
30
0.0
11
10.636044
21
0.000000
31
0.0
0
LINE
8
SECTION
10
10.636044
20
0.000000
30
0.0
11
10.576044
21
0.000000
31
0.0
0
LINE
8
SECTION
10
10.576044
20
0.000000
30
0.0
11
10.576044
21
-0.267468
31
0.0
0
ENDSEC
0
EOF
