0
SECTION
2
HEADER
9
$INSUNITS
70
1
0
ENDSEC
0
SECTION
2
ENTITIES
0
LINE
8
FRONT
10
0.000000
20
0.219049
30
0.0
11
0.112500
21
0.222845
31
0.0
0
LINE
8
FRONT
10
0.112500
20
0.222845
30
0.0
11
0.225000
21
0.226641
31
0.0
0
LINE
8
FRONT
10
0.225000
20
0.226641
30
0.0
11
0.337500
21
0.230436
31
0.0
0
LINE
8
FRONT
10
0.337500
20
0.230436
30
0.0
11
0.450000
21
0.234232
31
0.0
0
LINE
8
FRONT
10
0.450000
20
0.234232
30
0.0
11
0.500000
21
0.235919
31
0.0
0
LINE
8
FRONT
10
0.500000
20
0.235919
30
0.0
11
0.562500
21
0.238028
31
0.0
0
LINE
8
FRONT
10
0.562500
20
0.238028
30
0.0
11
0.675000
21
0.241824
31
0.0
0
LINE
8
FRONT
10
0.675000
20
0.241824
30
0.0
11
0.787500
21
0.245620
31
0.0
0
LINE
8
FRONT
10
0.787500
20
0.245620
30
0.0
11
0.900000
21
0.249415
31
0.0
0
LINE
8
FRONT
10
0.900000
20
0.249415
30
0.0
11
1.012500
21
0.253211
31
0.0
0
LINE
8
FRONT
10
1.012500
20
0.253211
30
0.0
11
1.125000
21
0.257007
31
0.0
0
LINE
8
FRONT
10
1.125000
20
0.257007
30
0.0
11
1.237500
21
0.260803
31
0.0
0
LINE
8
FRONT
10
1.237500
20
0.260803
30
0.0
11
1.350000
21
0.264598
31
0.0
0
LINE
8
FRONT
10
1.350000
20
0.264598
30
0.0
11
1.462500
21
0.268394
31
0.0
0
LINE
8
FRONT
10
1.462500
20
0.268394
30
0.0
11
1.575000
21
0.272190
31
0.0
0
LINE
8
FRONT
10
1.575000
20
0.272190
30
0.0
11
1.687500
21
0.275986
31
0.0
0
LINE
8
FRONT
10
1.687500
20
0.275986
30
0.0
11
1.800000
21
0.279782
31
0.0
0
LINE
8
FRONT
10
1.800000
20
0.279782
30
0.0
11
1.912500
21
0.283577
31
0.0
0
LINE
8
FRONT
10
1.912500
20
0.283577
30
0.0
11
2.025000
21
0.287373
31
0.0
0
LINE
8
FRONT
10
2.025000
20
0.287373
30
0.0
11
2.137500
21
0.291169
31
0.0
0
LINE
8
FRONT
10
2.137500
20
0.291169
30
0.0
11
2.250000
21
0.294965
31
0.0
0
LINE
8
FRONT
10
2.250000
20
0.294965
30
0.0
11
2.362500
21
0.298760
31
0.0
0
LINE
8
FRONT
10
2.362500
20
0.298760
30
0.0
11
2.475000
21
0.302556
31
0.0
0
LINE
8
FRONT
10
2.475000
20
0.302556
30
0.0
11
2.587500
21
0.306352
31
0.0
0
LINE
8
FRONT
10
2.587500
20
0.306352
30
0.0
11
2.700000
21
0.310148
31
0.0
0
LINE
8
FRONT
10
2.700000
20
0.310148
30
0.0
11
2.812500
21
0.313944
31
0.0
0
LINE
8
FRONT
10
2.812500
20
0.313944
30
0.0
11
2.925000
21
0.317739
31
0.0
0
LINE
8
FRONT
10
2.925000
20
0.317739
30
0.0
11
3.037500
21
0.321535
31
0.0
0
LINE
8
FRONT
10
3.037500
20
0.321535
30
0.0
11
3.150000
21
0.325331
31
0.0
0
LINE
8
FRONT
10
3.150000
20
0.325331
30
0.0
11
3.262500
21
0.329127
31
0.0
0
LINE
8
FRONT
10
3.262500
20
0.329127
30
0.0
11
3.375000
21
0.332923
31
0.0
0
LINE
8
FRONT
10
3.375000
20
0.332923
30
0.0
11
3.487500
21
0.336718
31
0.0
0
LINE
8
FRONT
10
3.487500
20
0.336718
30
0.0
11
3.600000
21
0.340514
31
0.0
0
LINE
8
FRONT
10
3.600000
20
0.340514
30
0.0
11
3.712500
21
0.344310
31
0.0
0
LINE
8
FRONT
10
3.712500
20
0.344310
30
0.0
11
3.825000
21
0.348106
31
0.0
0
LINE
8
FRONT
10
3.825000
20
0.348106
30
0.0
11
3.937500
21
0.351901
31
0.0
0
LINE
8
FRONT
10
3.937500
20
0.351901
30
0.0
11
4.050000
21
0.355697
31
0.0
0
LINE
8
FRONT
10
4.050000
20
0.355697
30
0.0
11
4.162500
21
0.359493
31
0.0
0
LINE
8
FRONT
10
4.162500
20
0.359493
30
0.0
11
4.275000
21
0.363289
31
0.0
0
LINE
8
FRONT
10
4.275000
20
0.363289
30
0.0
11
4.387500
21
0.367085
31
0.0
0
LINE
8
FRONT
10
4.387500
20
0.367085
30
0.0
11
4.500000
21
0.370880
31
0.0
0
LINE
8
FRONT
10
4.500000
20
0.370880
30
0.0
11
4.612500
21
0.367085
31
0.0
0
LINE
8
FRONT
10
4.612500
20
0.367085
30
0.0
11
4.725000
21
0.363289
31
0.0
0
LINE
8
FRONT
10
4.725000
20
0.363289
30
0.0
11
4.837500
21
0.359493
31
0.0
0
LINE
8
FRONT
10
4.837500
20
0.359493
30
0.0
11
4.950000
21
0.355697
31
0.0
0
LINE
8
FRONT
10
4.950000
20
0.355697
30
0.0
11
5.062500
21
0.351901
31
0.0
0
LINE
8
FRONT
10
5.062500
20
0.351901
30
0.0
11
5.175000
21
0.348106
31
0.0
0
LINE
8
FRONT
10
5.175000
20
0.348106
30
0.0
11
5.287500
21
0.344310
31
0.0
0
LINE
8
FRONT
10
5.287500
20
0.344310
30
0.0
11
5.400000
21
0.340514
31
0.0
0
LINE
8
FRONT
10
5.400000
20
0.340514
30
0.0
11
5.512500
21
0.336718
31
0.0
0
LINE
8
FRONT
10
5.512500
20
0.336718
30
0.0
11
5.625000
21
0.332923
31
0.0
0
LINE
8
FRONT
10
5.625000
20
0.332923
30
0.0
11
5.737500
21
0.329127
31
0.0
0
LINE
8
FRONT
10
5.737500
20
0.329127
30
0.0
11
5.850000
21
0.325331
31
0.0
0
LINE
8
FRONT
10
5.850000
20
0.325331
30
0.0
11
5.962500
21
0.321535
31
0.0
0
LINE
8
FRONT
10
5.962500
20
0.321535
30
0.0
11
6.075000
21
0.317739
31
0.0
0
LINE
8
FRONT
10
6.075000
20
0.317739
30
0.0
11
6.187500
21
0.313944
31
0.0
0
LINE
8
FRONT
10
6.187500
20
0.313944
30
0.0
11
6.300000
21
0.310148
31
0.0
0
LINE
8
FRONT
10
6.300000
20
0.310148
30
0.0
11
6.412500
21
0.306352
31
0.0
0
LINE
8
FRONT
10
6.412500
20
0.306352
30
0.0
11
6.525000
21
0.302556
31
0.0
0
LINE
8
FRONT
10
6.525000
20
0.302556
30
0.0
11
6.637500
21
0.298760
31
0.0
0
LINE
8
FRONT
10
6.637500
20
0.298760
30
0.0
11
6.750000
21
0.294965
31
0.0
0
LINE
8
FRONT
10
6.750000
20
0.294965
30
0.0
11
6.862500
21
0.291169
31
0.0
0
LINE
8
FRONT
10
6.862500
20
0.291169
30
0.0
11
6.975000
21
0.287373
31
0.0
0
LINE
8
FRONT
10
6.975000
20
0.287373
30
0.0
11
7.087500
21
0.283577
31
0.0
0
LINE
8
FRONT
10
7.087500
20
0.283577
30
0.0
11
7.200000
21
0.279782
31
0.0
0
LINE
8
FRONT
10
7.200000
20
0.279782
30
0.0
11
7.312500
21
0.275986
31
0.0
0
LINE
8
FRONT
10
7.312500
20
0.275986
30
0.0
11
7.425000
21
0.272190
31
0.0
0
LINE
8
FRONT
10
7.425000
20
0.272190
30
0.0
11
7.537500
21
0.268394
31
0.0
0
LINE
8
FRONT
10
7.537500
20
0.268394
30
0.0
11
7.650000
21
0.264598
31
0.0
0
LINE
8
FRONT
10
7.650000
20
0.264598
30
0.0
11
7.762500
21
0.260803
31
0.0
0
LINE
8
FRONT
10
7.762500
20
0.260803
30
0.0
11
7.875000
21
0.257007
31
0.0
0
LINE
8
FRONT
10
7.875000
20
0.257007
30
0.0
11
7.987500
21
0.253211
31
0.0
0
LINE
8
FRONT
10
7.987500
20
0.253211
30
0.0
11
8.100000
21
0.249415
31
0.0
0
LINE
8
FRONT
10
8.100000
20
0.249415
30
0.0
11
8.212500
21
0.245620
31
0.0
0
LINE
8
FRONT
10
8.212500
20
0.245620
30
0.0
11
8.325000
21
0.241824
31
0.0
0
LINE
8
FRONT
10
8.325000
20
0.241824
30
0.0
11
8.437500
21
0.238028
31
0.0
0
LINE
8
FRONT
10
8.437500
20
0.238028
30
0.0
11
8.500000
21
0.235919
31
0.0
0
LINE
8
FRONT
10
8.500000
20
0.235919
30
0.0
11
8.550000
21
0.234232
31
0.0
0
LINE
8
FRONT
10
8.550000
20
0.234232
30
0.0
11
8.662500
21
0.230436
31
0.0
0
LINE
8
FRONT
10
8.662500
20
0.230436
30
0.0
11
8.775000
21
0.226641
31
0.0
0
LINE
8
FRONT
10
8.775000
20
0.226641
30
0.0
11
8.887500
21
0.222845
31
0.0
0
LINE
8
FRONT
10
8.887500
20
0.222845
30
0.0
11
9.000000
21
0.219049
31
0.0
0
LINE
8
FRONT
10
0.000000
20
-0.219049
30
0.0
11
0.112500
21
-0.222845
31
0.0
0
LINE
8
FRONT
10
0.112500
20
-0.222845
30
0.0
11
0.225000
21
-0.226641
31
0.0
0
LINE
8
FRONT
10
0.225000
20
-0.226641
30
0.0
11
0.337500
21
-0.230436
31
0.0
0
LINE
8
FRONT
10
0.337500
20
-0.230436
30
0.0
11
0.450000
21
-0.234232
31
0.0
0
LINE
8
FRONT
10
0.450000
20
-0.234232
30
0.0
11
0.500000
21
-0.235919
31
0.0
0
LINE
8
FRONT
10
0.500000
20
-0.235919
30
0.0
11
0.562500
21
-0.238028
31
0.0
0
LINE
8
FRONT
10
0.562500
20
-0.238028
30
0.0
11
0.675000
21
-0.241824
31
0.0
0
LINE
8
FRONT
10
0.675000
20
-0.241824
30
0.0
11
0.787500
21
-0.245620
31
0.0
0
LINE
8
FRONT
10
0.787500
20
-0.245620
30
0.0
11
0.900000
21
-0.249415
31
0.0
0
LINE
8
FRONT
10
0.900000
20
-0.249415
30
0.0
11
1.012500
21
-0.253211
31
0.0
0
LINE
8
FRONT
10
1.012500
20
-0.253211
30
0.0
11
1.125000
21
-0.257007
31
0.0
0
LINE
8
FRONT
10
1.125000
20
-0.257007
30
0.0
11
1.237500
21
-0.260803
31
0.0
0
LINE
8
FRONT
10
1.237500
20
-0.260803
30
0.0
11
1.350000
21
-0.264598
31
0.0
0
LINE
8
FRONT
10
1.350000
20
-0.264598
30
0.0
11
1.462500
21
-0.268394
31
0.0
0
LINE
8
FRONT
10
1.462500
20
-0.268394
30
0.0
11
1.575000
21
-0.272190
31
0.0
0
LINE
8
FRONT
10
1.575000
20
-0.272190
30
0.0
11
1.687500
21
-0.275986
31
0.0
0
LINE
8
FRONT
10
1.687500
20
-0.275986
30
0.0
11
1.800000
21
-0.279782
31
0.0
0
LINE
8
FRONT
10
1.800000
20
-0.279782
30
0.0
11
1.912500
21
-0.283577
31
0.0
0
LINE
8
FRONT
10
1.912500
20
-0.283577
30
0.0
11
2.025000
21
-0.287373
31
0.0
0
LINE
8
FRONT
10
2.025000
20
-0.287373
30
0.0
11
2.137500
21
-0.291169
31
0.0
0
LINE
8
FRONT
10
2.137500
20
-0.291169
30
0.0
11
2.250000
21
-0.294965
31
0.0
0
LINE
8
FRONT
10
2.250000
20
-0.294965
30
0.0
11
2.362500
21
-0.298760
31
0.0
0
LINE
8
FRONT
10
2.362500
20
-0.298760
30
0.0
11
2.475000
21
-0.302556
31
0.0
0
LINE
8
FRONT
10
2.475000
20
-0.302556
30
0.0
11
2.587500
21
-0.306352
31
0.0
0
LINE
8
FRONT
10
2.587500
20
-0.306352
30
0.0
11
2.700000
21
-0.310148
31
0.0
0
LINE
8
FRONT
10
2.700000
20
-0.310148
30
0.0
11
2.812500
21
-0.313944
31
0.0
0
LINE
8
FRONT
10
2.812500
20
-0.313944
30
0.0
11
2.925000
21
-0.317739
31
0.0
0
LINE
8
FRONT
10
2.925000
20
-0.317739
30
0.0
11
3.037500
21
-0.321535
31
0.0
0
LINE
8
FRONT
10
3.037500
20
-0.321535
30
0.0
11
3.150000
21
-0.325331
31
0.0
0
LINE
8
FRONT
10
3.150000
20
-0.325331
30
0.0
11
3.262500
21
-0.329127
31
0.0
0
LINE
8
FRONT
10
3.262500
20
-0.329127
30
0.0
11
3.375000
21
-0.332923
31
0.0
0
LINE
8
FRONT
10
3.375000
20
-0.332923
30
0.0
11
3.487500
21
-0.336718
31
0.0
0
LINE
8
FRONT
10
3.487500
20
-0.336718
30
0.0
11
3.600000
21
-0.340514
31
0.0
0
LINE
8
FRONT
10
3.600000
20
-0.340514
30
0.0
11
3.712500
21
-0.344310
31
0.0
0
LINE
8
FRONT
10
3.712500
20
-0.344310
30
0.0
11
3.825000
21
-0.348106
31
0.0
0
LINE
8
FRONT
10
3.825000
20
-0.348106
30
0.0
11
3.937500
21
-0.351901
31
0.0
0
LINE
8
FRONT
10
3.937500
20
-0.351901
30
0.0
11
4.050000
21
-0.355697
31
0.0
0
LINE
8
FRONT
10
4.050000
20
-0.355697
30
0.0
11
4.162500
21
-0.359493
31
0.0
0
LINE
8
FRONT
10
4.162500
20
-0.359493
30
0.0
11
4.275000
21
-0.363289
31
0.0
0
LINE
8
FRONT
10
4.275000
20
-0.363289
30
0.0
11
4.387500
21
-0.367085
31
0.0
0
LINE
8
FRONT
10
4.387500
20
-0.367085
30
0.0
11
4.500000
21
-0.370880
31
0.0
0
LINE
8
FRONT
10
4.500000
20
-0.370880
30
0.0
11
4.612500
21
-0.367085
31
0.0
0
LINE
8
FRONT
10
4.612500
20
-0.367085
30
0.0
11
4.725000
21
-0.363289
31
0.0
0
LINE
8
FRONT
10
4.725000
20
-0.363289
30
0.0
11
4.837500
21
-0.359493
31
0.0
0
LINE
8
FRONT
10
4.837500
20
-0.359493
30
0.0
11
4.950000
21
-0.355697
31
0.0
0
LINE
8
FRONT
10
4.950000
20
-0.355697
30
0.0
11
5.062500
21
-0.351901
31
0.0
0
LINE
8
FRONT
10
5.062500
20
-0.351901
30
0.0
11
5.175000
21
-0.348106
31
0.0
0
LINE
8
FRONT
10
5.175000
20
-0.348106
30
0.0
11
5.287500
21
-0.344310
31
0.0
0
LINE
8
FRONT
10
5.287500
20
-0.344310
30
0.0
11
5.400000
21
-0.340514
31
0.0
0
LINE
8
FRONT
10
5.400000
20
-0.340514
30
0.0
11
5.512500
21
-0.336718
31
0.0
0
LINE
8
FRONT
10
5.512500
20
-0.336718
30
0.0
11
5.625000
21
-0.332923
31
0.0
0
LINE
8
FRONT
10
5.625000
20
-0.332923
30
0.0
11
5.737500
21
-0.329127
31
0.0
0
LINE
8
FRONT
10
5.737500
20
-0.329127
30
0.0
11
5.850000
21
-0.325331
31
0.0
0
LINE
8
FRONT
10
5.850000
20
-0.325331
30
0.0
11
5.962500
21
-0.321535
31
0.0
0
LINE
8
FRONT
10
5.962500
20
-0.321535
30
0.0
11
6.075000
21
-0.317739
31
0.0
0
LINE
8
FRONT
10
6.075000
20
-0.317739
30
0.0
11
6.187500
21
-0.313944
31
0.0
0
LINE
8
FRONT
10
6.187500
20
-0.313944
30
0.0
11
6.300000
21
-0.310148
31
0.0
0
LINE
8
FRONT
10
6.300000
20
-0.310148
30
0.0
11
6.412500
21
-0.306352
31
0.0
0
LINE
8
FRONT
10
6.412500
20
-0.306352
30
0.0
11
6.525000
21
-0.302556
31
0.0
0
LINE
8
FRONT
10
6.525000
20
-0.302556
30
0.0
11
6.637500
21
-0.298760
31
0.0
0
LINE
8
FRONT
10
6.637500
20
-0.298760
30
0.0
11
6.750000
21
-0.294965
31
0.0
0
LINE
8
FRONT
10
6.750000
20
-0.294965
30
0.0
11
6.862500
21
-0.291169
31
0.0
0
LINE
8
FRONT
10
6.862500
20
-0.291169
30
0.0
11
6.975000
21
-0.287373
31
0.0
0
LINE
8
FRONT
10
6.975000
20
-0.287373
30
0.0
11
7.087500
21
-0.283577
31
0.0
0
LINE
8
FRONT
10
7.087500
20
-0.283577
30
0.0
11
7.200000
21
-0.279782
31
0.0
0
LINE
8
FRONT
10
7.200000
20
-0.279782
30
0.0
11
7.312500
21
-0.275986
31
0.0
0
LINE
8
FRONT
10
7.312500
20
-0.275986
30
0.0
11
7.425000
21
-0.272190
31
0.0
0
LINE
8
FRONT
10
7.425000
20
-0.272190
30
0.0
11
7.537500
21
-0.268394
31
0.0
0
LINE
8
FRONT
10
7.537500
20
-0.268394
30
0.0
11
7.650000
21
-0.264598
31
0.0
0
LINE
8
FRONT
10
7.650000
20
-0.264598
30
0.0
11
7.762500
21
-0.260803
31
0.0
0
LINE
8
FRONT
10
7.762500
20
-0.260803
30
0.0
11
7.875000
21
-0.257007
31
0.0
0
LINE
8
FRONT
10
7.875000
20
-0.257007
30
0.0
11
7.987500
21
-0.253211
31
0.0
0
LINE
8
FRONT
10
7.987500
20
-0.253211
30
0.0
11
8.100000
21
-0.249415
31
0.0
0
LINE
8
FRONT
10
8.100000
20
-0.249415
30
0.0
11
8.212500
21
-0.245620
31
0.0
0
LINE
8
FRONT
10
8.212500
20
-0.245620
30
0.0
11
8.325000
21
-0.241824
31
0.0
0
LINE
8
FRONT
10
8.325000
20
-0.241824
30
0.0
11
8.437500
21
-0.238028
31
0.0
0
LINE
8
FRONT
10
8.437500
20
-0.238028
30
0.0
11
8.500000
21
-0.235919
31
0.0
0
LINE
8
FRONT
10
8.500000
20
-0.235919
30
0.0
11
8.550000
21
-0.234232
31
0.0
0
LINE
8
FRONT
10
8.550000
20
-0.234232
30
0.0
11
8.662500
21
-0.230436
31
0.0
0
LINE
8
FRONT
10
8.662500
20
-0.230436
30
0.0
11
8.775000
21
-0.226641
31
0.0
0
LINE
8
FRONT
10
8.775000
20
-0.226641
30
0.0
11
8.887500
21
-0.222845
31
0.0
0
LINE
8
FRONT
10
8.887500
20
-0.222845
30
0.0
11
9.000000
21
-0.219049
31
0.0
0
LINE
8
FRONT
10
0.000000
20
0.219049
30
0.0
11
0.000000
21
-0.219049
31
0.0
0
LINE
8
FRONT
10
9.000000
20
0.219049
30
0.0
11
9.000000
21
-0.219049
31
0.0
0
LINE
8
TOP
10
0.000000
20
2.008366
30
0.0
11
0.112500
21
2.010504
31
0.0
0
LINE
8
TOP
10
0.112500
20
2.010504
30
0.0
11
0.225000
21
2.012643
31
0.0
0
LINE
8
TOP
10
0.225000
20
2.012643
30
0.0
11
0.337500
21
2.014782
31
0.0
0
LINE
8
TOP
10
0.337500
20
2.014782
30
0.0
11
0.450000
21
2.016920
31
0.0
0
LINE
8
TOP
10
0.450000
20
2.016920
30
0.0
11
0.500000
21
2.017871
31
0.0
0
LINE
8
TOP
10
0.500000
20
2.017871
30
0.0
11
0.562500
21
2.019059
31
0.0
0
LINE
8
TOP
10
0.562500
20
2.019059
30
0.0
11
0.675000
21
2.021198
31
0.0
0
LINE
8
TOP
10
0.675000
20
2.021198
30
0.0
11
0.787500
21
2.023336
31
0.0
0
LINE
8
TOP
10
0.787500
20
2.023336
30
0.0
11
0.900000
21
2.025475
31
0.0
0
LINE
8
TOP
10
0.900000
20
2.025475
30
0.0
11
1.012500
21
2.027614
31
0.0
0
LINE
8
TOP
10
1.012500
20
2.027614
30
0.0
11
1.125000
21
2.029752
31
0.0
0
LINE
8
TOP
10
1.125000
20
2.029752
30
0.0
11
1.237500
21
2.031891
31
0.0
0
LINE
8
TOP
10
1.237500
20
2.031891
30
0.0
11
1.350000
21
2.034030
31
0.0
0
LINE
8
TOP
10
1.350000
20
2.034030
30
0.0
11
1.462500
21
2.036168
31
0.0
0
LINE
8
TOP
10
1.462500
20
2.036168
30
0.0
11
1.575000
21
2.038307
31
0.0
0
LINE
8
TOP
10
1.575000
20
2.038307
30
0.0
11
1.687500
21
2.040446
31
0.0
0
LINE
8
TOP
10
1.687500
20
2.040446
30
0.0
11
1.800000
21
2.042584
31
0.0
0
LINE
8
TOP
10
1.800000
20
2.042584
30
0.0
11
1.912500
21
2.044723
31
0.0
0
LINE
8
TOP
10
1.912500
20
2.044723
30
0.0
11
2.025000
21
2.046862
31
0.0
0
LINE
8
TOP
10
2.025000
20
2.046862
30
0.0
11
2.137500
21
2.049000
31
0.0
0
LINE
8
TOP
10
2.137500
20
2.049000
30
0.0
11
2.250000
21
2.051139
31
0.0
0
LINE
8
TOP
10
2.250000
20
2.051139
30
0.0
11
2.362500
21
2.053278
31
0.0
0
LINE
8
TOP
10
2.362500
20
2.053278
30
0.0
11
2.475000
21
2.055416
31
0.0
0
LINE
8
TOP
10
2.475000
20
2.055416
30
0.0
11
2.587500
21
2.057555
31
0.0
0
LINE
8
TOP
10
2.587500
20
2.057555
30
0.0
11
2.700000
21
2.059694
31
0.0
0
LINE
8
TOP
10
2.700000
20
2.059694
30
0.0
11
2.812500
21
2.061833
31
0.0
0
LINE
8
TOP
10
2.812500
20
2.061833
30
0.0
11
2.925000
21
2.063971
31
0.0
0
LINE
8
TOP
10
2.925000
20
2.063971
30
0.0
11
3.037500
21
2.066110
31
0.0
0
LINE
8
TOP
10
3.037500
20
2.066110
30
0.0
11
3.150000
21
2.068249
31
0.0
0
LINE
8
TOP
10
3.150000
20
2.068249
30
0.0
11
3.262500
21
2.070387
31
0.0
0
LINE
8
TOP
10
3.262500
20
2.070387
30
0.0
11
3.375000
21
2.072526
31
0.0
0
LINE
8
TOP
10
3.375000
20
2.072526
30
0.0
11
3.487500
21
2.074665
31
0.0
0
LINE
8
TOP
10
3.487500
20
2.074665
30
0.0
11
3.600000
21
2.076803
31
0.0
0
LINE
8
TOP
10
3.600000
20
2.076803
30
0.0
11
3.712500
21
2.078942
31
0.0
0
LINE
8
TOP
10
3.712500
20
2.078942
30
0.0
11
3.825000
21
2.081081
31
0.0
0
LINE
8
TOP
10
3.825000
20
2.081081
30
0.0
11
3.937500
21
2.083219
31
0.0
0
LINE
8
TOP
10
3.937500
20
2.083219
30
0.0
11
4.050000
21
2.085358
31
0.0
0
LINE
8
TOP
10
4.050000
20
2.085358
30
0.0
11
4.162500
21
2.087497
31
0.0
0
LINE
8
TOP
10
4.162500
20
2.087497
30
0.0
11
4.275000
21
2.089635
31
0.0
0
LINE
8
TOP
10
4.275000
20
2.089635
30
0.0
11
4.387500
21
2.091774
31
0.0
0
LINE
8
TOP
10
4.387500
20
2.091774
30
0.0
11
4.500000
21
2.093913
31
0.0
0
LINE
8
TOP
10
4.500000
20
2.093913
30
0.0
11
4.612500
21
2.091774
31
0.0
0
LINE
8
TOP
10
4.612500
20
2.091774
30
0.0
11
4.725000
21
2.089635
31
0.0
0
LINE
8
TOP
10
4.725000
20
2.089635
30
0.0
11
4.837500
21
2.087497
31
0.0
0
LINE
8
TOP
10
4.837500
20
2.087497
30
0.0
11
4.950000
21
2.085358
31
0.0
0
LINE
8
TOP
10
4.950000
20
2.085358
30
0.0
11
5.062500
21
2.083219
31
0.0
0
LINE
8
TOP
10
5.062500
20
2.083219
30
0.0
11
5.175000
21
2.081081
31
0.0
0
LINE
8
TOP
10
5.175000
20
2.081081
30
0.0
11
5.287500
21
2.078942
31
0.0
0
LINE
8
TOP
10
5.287500
20
2.078942
30
0.0
11
5.400000
21
2.076803
31
0.0
0
LINE
8
TOP
10
5.400000
20
2.076803
30
0.0
11
5.512500
21
2.074665
31
0.0
0
LINE
8
TOP
10
5.512500
20
2.074665
30
0.0
11
5.625000
21
2.072526
31
0.0
0
LINE
8
TOP
10
5.625000
20
2.072526
30
0.0
11
5.737500
21
2.070387
31
0.0
0
LINE
8
TOP
10
5.737500
20
2.070387
30
0.0
11
5.850000
21
2.068249
31
0.0
0
LINE
8
TOP
10
5.850000
20
2.068249
30
0.0
11
5.962500
21
2.066110
31
0.0
0
LINE
8
TOP
10
5.962500
20
2.066110
30
0.0
11
6.075000
21
2.063971
31
0.0
0
LINE
8
TOP
10
6.075000
20
2.063971
30
0.0
11
6.187500
21
2.061833
31
0.0
0
LINE
8
TOP
10
6.187500
20
2.061833
30
0.0
11
6.300000
21
2.059694
31
0.0
0
LINE
8
TOP
10
6.300000
20
2.059694
30
0.0
11
6.412500
21
2.057555
31
0.0
0
LINE
8
TOP
10
6.412500
20
2.057555
30
0.0
11
6.525000
21
2.055416
31
0.0
0
LINE
8
TOP
10
6.525000
20
2.055416
30
0.0
11
6.637500
21
2.053278
31
0.0
0
LINE
8
TOP
10
6.637500
20
2.053278
30
0.0
11
6.750000
21
2.051139
31
0.0
0
LINE
8
TOP
10
6.750000
20
2.051139
30
0.0
11
6.862500
21
2.049000
31
0.0
0
LINE
8
TOP
10
6.862500
20
2.049000
30
0.0
11
6.975000
21
2.046862
31
0.0
0
LINE
8
TOP
10
6.975000
20
2.046862
30
0.0
11
7.087500
21
2.044723
31
0.0
0
LINE
8
TOP
10
7.087500
20
2.044723
30
0.0
11
7.200000
21
2.042584
31
0.0
0
LINE
8
TOP
10
7.200000
20
2.042584
30
0.0
11
7.312500
21
2.040446
31
0.0
0
LINE
8
TOP
10
7.312500
20
2.040446
30
0.0
11
7.425000
21
2.038307
31
0.0
0
LINE
8
TOP
10
7.425000
20
2.038307
30
0.0
11
7.537500
21
2.036168
31
0.0
0
LINE
8
TOP
10
7.537500
20
2.036168
30
0.0
11
7.650000
21
2.034030
31
0.0
0
LINE
8
TOP
10
7.650000
20
2.034030
30
0.0
11
7.762500
21
2.031891
31
0.0
0
LINE
8
TOP
10
7.762500
20
2.031891
30
0.0
11
7.875000
21
2.029752
31
0.0
0
LINE
8
TOP
10
7.875000
20
2.029752
30
0.0
11
7.987500
21
2.027614
31
0.0
0
LINE
8
TOP
10
7.987500
20
2.027614
30
0.0
11
8.100000
21
2.025475
31
0.0
0
LINE
8
TOP
10
8.100000
20
2.025475
30
0.0
11
8.212500
21
2.023336
31
0.0
0
LINE
8
TOP
10
8.212500
20
2.023336
30
0.0
11
8.325000
21
2.021198
31
0.0
0
LINE
8
TOP
10
8.325000
20
2.021198
30
0.0
11
8.437500
21
2.019059
31
0.0
0
LINE
8
TOP
10
8.437500
20
2.019059
30
0.0
11
8.500000
21
2.017871
31
0.0
0
LINE
8
TOP
10
8.500000
20
2.017871
30
0.0
11
8.550000
21
2.016920
31
0.0
0
LINE
8
TOP
10
8.550000
20
2.016920
30
0.0
11
8.662500
21
2.014782
31
0.0
0
LINE
8
TOP
10
8.662500
20
2.014782
30
0.0
11
8.775000
21
2.012643
31
0.0
0
LINE
8
TOP
10
8.775000
20
2.012643
30
0.0
11
8.887500
21
2.010504
31
0.0
0
LINE
8
TOP
10
8.887500
20
2.010504
30
0.0
11
9.000000
21
2.008366
31
0.0
0
LINE
8
TOP
10
0.000000
20
1.716916
30
0.0
11
0.112500
21
1.714778
31
0.0
0
LINE
8
TOP
10
0.112500
20
1.714778
30
0.0
11
0.225000
21
1.712639
31
0.0
0
LINE
8
TOP
10
0.225000
20
1.712639
30
0.0
11
0.337500
21
1.710500
31
0.0
0
LINE
8
TOP
10
0.337500
20
1.710500
30
0.0
11
0.450000
21
1.708362
31
0.0
0
LINE
8
TOP
10
0.450000
20
1.708362
30
0.0
11
0.500000
21
1.707411
31
0.0
0
LINE
8
TOP
10
0.500000
20
1.707411
30
0.0
11
0.562500
21
1.706223
31
0.0
0
LINE
8
TOP
10
0.562500
20
1.706223
30
0.0
11
0.675000
21
1.704084
31
0.0
0
LINE
8
TOP
10
0.675000
20
1.704084
30
0.0
11
0.787500
21
1.701946
31
0.0
0
LINE
8
TOP
10
0.787500
20
1.701946
30
0.0
11
0.900000
21
1.699807
31
0.0
0
LINE
8
TOP
10
0.900000
20
1.699807
30
0.0
11
1.012500
21
1.697668
31
0.0
0
LINE
8
TOP
10
1.012500
20
1.697668
30
0.0
11
1.125000
21
1.695530
31
0.0
0
LINE
8
TOP
10
1.125000
20
1.695530
30
0.0
11
1.237500
21
1.693391
31
0.0
0
LINE
8
TOP
10
1.237500
20
1.693391
30
0.0
11
1.350000
21
1.691252
31
0.0
0
LINE
8
TOP
10
1.350000
20
1.691252
30
0.0
11
1.462500
21
1.689114
31
0.0
0
LINE
8
TOP
10
1.462500
20
1.689114
30
0.0
11
1.575000
21
1.686975
31
0.0
0
LINE
8
TOP
10
1.575000
20
1.686975
30
0.0
11
1.687500
21
1.684836
31
0.0
0
LINE
8
TOP
10
1.687500
20
1.684836
30
0.0
11
1.800000
21
1.682698
31
0.0
0
LINE
8
TOP
10
1.800000
20
1.682698
30
0.0
11
1.912500
21
1.680559
31
0.0
0
LINE
8
TOP
10
1.912500
20
1.680559
30
0.0
11
2.025000
21
1.678420
31
0.0
0
LINE
8
TOP
10
2.025000
20
1.678420
30
0.0
11
2.137500
21
1.676282
31
0.0
0
LINE
8
TOP
10
2.137500
20
1.676282
30
0.0
11
2.250000
21
1.674143
31
0.0
0
LINE
8
TOP
10
2.250000
20
1.674143
30
0.0
11
2.362500
21
1.672004
31
0.0
0
LINE
8
TOP
10
2.362500
20
1.672004
30
0.0
11
2.475000
21
1.669866
31
0.0
0
LINE
8
TOP
10
2.475000
20
1.669866
30
0.0
11
2.587500
21
1.667727
31
0.0
0
LINE
8
TOP
10
2.587500
20
1.667727
30
0.0
11
2.700000
21
1.665588
31
0.0
0
LINE
8
TOP
10
2.700000
20
1.665588
30
0.0
11
2.812500
21
1.663450
31
0.0
0
LINE
8
TOP
10
2.812500
20
1.663450
30
0.0
11
2.925000
21
1.661311
31
0.0
0
LINE
8
TOP
10
2.925000
20
1.661311
30
0.0
11
3.037500
21
1.659172
31
0.0
0
LINE
8
TOP
10
3.037500
20
1.659172
30
0.0
11
3.150000
21
1.657034
31
0.0
0
LINE
8
TOP
10
3.150000
20
1.657034
30
0.0
11
3.262500
21
1.654895
31
0.0
0
LINE
8
TOP
10
3.262500
20
1.654895
30
0.0
11
3.375000
21
1.652756
31
0.0
0
LINE
8
TOP
10
3.375000
20
1.652756
30
0.0
11
3.487500
21
1.650618
31
0.0
0
LINE
8
TOP
10
3.487500
20
1.650618
30
0.0
11
3.600000
21
1.648479
31
0.0
0
LINE
8
TOP
10
3.600000
20
1.648479
30
0.0
11
3.712500
21
1.646340
31
0.0
0
LINE
8
TOP
10
3.712500
20
1.646340
30
0.0
11
3.825000
21
1.644202
31
0.0
0
LINE
8
TOP
10
3.825000
20
1.644202
30
0.0
11
3.937500
21
1.642063
31
0.0
0
LINE
8
TOP
10
3.937500
20
1.642063
30
0.0
11
4.050000
21
1.639924
31
0.0
0
LINE
8
TOP
10
4.050000
20
1.639924
30
0.0
11
4.162500
21
1.637786
31
0.0
0
LINE
8
TOP
10
4.162500
20
1.637786
30
0.0
11
4.275000
21
1.635647
31
0.0
0
LINE
8
TOP
10
4.275000
20
1.635647
30
0.0
11
4.387500
21
1.633508
31
0.0
0
LINE
8
TOP
10
4.387500
20
1.633508
30
0.0
11
4.500000
21
1.631370
31
0.0
0
LINE
8
TOP
10
4.500000
20
1.631370
30
0.0
11
4.612500
21
1.633508
31
0.0
0
LINE
8
TOP
10
4.612500
20
1.633508
30
0.0
11
4.725000
21
1.635647
31
0.0
0
LINE
8
TOP
10
4.725000
20
1.635647
30
0.0
11
4.837500
21
1.637786
31
0.0
0
LINE
8
TOP
10
4.837500
20
1.637786
30
0.0
11
4.950000
21
1.639924
31
0.0
0
LINE
8
TOP
10
4.950000
20
1.639924
30
0.0
11
5.062500
21
1.642063
31
0.0
0
LINE
8
TOP
10
5.062500
20
1.642063
30
0.0
11
5.175000
21
1.644202
31
0.0
0
LINE
8
TOP
10
5.175000
20
1.644202
30
0.0
11
5.287500
21
1.646340
31
0.0
0
LINE
8
TOP
10
5.287500
20
1.646340
30
0.0
11
5.400000
21
1.648479
31
0.0
0
LINE
8
TOP
10
5.400000
20
1.648479
30
0.0
11
5.512500
21
1.650618
31
0.0
0
LINE
8
TOP
10
5.512500
20
1.650618
30
0.0
11
5.625000
21
1.652756
31
0.0
0
LINE
8
TOP
10
5.625000
20
1.652756
30
0.0
11
5.737500
21
1.654895
31
0.0
0
LINE
8
TOP
10
5.737500
20
1.654895
30
0.0
11
5.850000
21
1.657034
31
0.0
0
LINE
8
TOP
10
5.850000
20
1.657034
30
0.0
11
5.962500
21
1.659172
31
0.0
0
LINE
8
TOP
10
5.962500
20
1.659172
30
0.0
11
6.075000
21
1.661311
31
0.0
0
LINE
8
TOP
10
6.075000
20
1.661311
30
0.0
11
6.187500
21
1.663450
31
0.0
0
LINE
8
TOP
10
6.187500
20
1.663450
30
0.0
11
6.300000
21
1.665588
31
0.0
0
LINE
8
TOP
10
6.300000
20
1.665588
30
0.0
11
6.412500
21
1.667727
31
0.0
0
LINE
8
TOP
10
6.412500
20
1.667727
30
0.0
11
6.525000
21
1.669866
31
0.0
0
LINE
8
TOP
10
6.525000
20
1.669866
30
0.0
11
6.637500
21
1.672004
31
0.0
0
LINE
8
TOP
10
6.637500
20
1.672004
30
0.0
11
6.750000
21
1.674143
31
0.0
0
LINE
8
TOP
10
6.750000
20
1.674143
30
0.0
11
6.862500
21
1.676282
31
0.0
0
LINE
8
TOP
10
6.862500
20
1.676282
30
0.0
11
6.975000
21
1.678420
31
0.0
0
LINE
8
TOP
10
6.975000
20
1.678420
30
0.0
11
7.087500
21
1.680559
31
0.0
0
LINE
8
TOP
10
7.087500
20
1.680559
30
0.0
11
7.200000
21
1.682698
31
0.0
0
LINE
8
TOP
10
7.200000
20
1.682698
30
0.0
11
7.312500
21
1.684836
31
0.0
0
LINE
8
TOP
10
7.312500
20
1.684836
30
0.0
11
7.425000
21
1.686975
31
0.0
0
LINE
8
TOP
10
7.425000
20
1.686975
30
0.0
11
7.537500
21
1.689114
31
0.0
0
LINE
8
TOP
10
7.537500
20
1.689114
30
0.0
11
7.650000
21
1.691252
31
0.0
0
LINE
8
TOP
10
7.650000
20
1.691252
30
0.0
11
7.762500
21
1.693391
31
0.0
0
LINE
8
TOP
10
7.762500
20
1.693391
30
0.0
11
7.875000
21
1.695530
31
0.0
0
LINE
8
TOP
10
7.875000
20
1.695530
30
0.0
11
7.987500
21
1.697668
31
0.0
0
LINE
8
TOP
10
7.987500
20
1.697668
30
0.0
11
8.100000
21
1.699807
31
0.0
0
LINE
8
TOP
10
8.100000
20
1.699807
30
0.0
11
8.212500
21
1.701946
31
0.0
0
LINE
8
TOP
10
8.212500
20
1.701946
30
0.0
11
8.325000
21
1.704084
31
0.0
0
LINE
8
TOP
10
8.325000
20
1.704084
30
0.0
11
8.437500
21
1.706223
31
0.0
0
LINE
8
TOP
10
8.437500
20
1.706223
30
0.0
11
8.500000
21
1.707411
31
0.0
0
LINE
8
TOP
10
8.500000
20
1.707411
30
0.0
11
8.550000
21
1.708362
31
0.0
0
LINE
8
TOP
10
8.550000
20
1.708362
30
0.0
11
8.662500
21
1.710500
31
0.0
0
LINE
8
TOP
10
8.662500
20
1.710500
30
0.0
11
8.775000
21
1.712639
31
0.0
0
LINE
8
TOP
10
8.775000
20
1.712639
30
0.0
11
8.887500
21
1.714778
31
0.0
0
LINE
8
TOP
10
8.887500
20
1.714778
30
0.0
11
9.000000
21
1.716916
31
0.0
0
LINE
8
TOP
10
0.000000
20
2.008366
30
0.0
11
0.000000
21
1.716916
31
0.0
0
LINE
8
TOP
10
9.000000
20
2.008366
30
0.0
11
9.000000
21
1.716916
31
0.0
0
LINE
8
SECTION
10
10.268729
20
-0.370880
30
0.0
11
10.731271
21
-0.370880
31
0.0
0
LINE
8
SECTION
10
10.731271
20
-0.370880
30
0.0
11
10.731271
21
0.370880
31
0.0
0
LINE
8
SECTION
10
10.731271
20
0.370880
30
0.0
11
10.268729
21
0.370880
31
0.0
0
LINE
8
SECTION
10
10.268729
20
0.370880
30
0.0
11
10.268729
21
-0.370880
31
0.0
0
LINE
8
SECTION
10
10.308729
20
-0.330880
30
0.0
11
10.691271
21
-0.330880
31
0.0
0
LINE
8
SECTION
10
10.691271
20
-0.330880
30
0.0
11
10.691271
21
0.330880
31
0.0
0
LINE
8
SECTION
10
10.691271
20
0.330880
30
0.0
11
10.308729
21
0.330880
31
0.0
0
LINE
8
SECTION
10
10.308729
20
0.330880
30
0.0
11
10.308729
21
-0.330880
31
0.0
0
LINE
8
SECTION
10
10.308729
20
0.153632
30
0.0
11
10.348729
21
0.153632
31
0.0
0
LINE
8
SECTION
10
10.348729
20
0.153632
30
0.0
11
10.348729
21
0.330880
31
0.0
0
LINE
8
SECTION
10
10.348729
20
0.330880
30
0.0
11
10.308729
21
0.330880
31
0.0
0
LINE
8
SECTION
10
10.308729
20
0.330880
30
0.0
11
10.308729
21
0.153632
31
0.0
0
LINE
8
SECTION
10
10.308729
20
-0.330880
30
0.0
11
10.348729
21
-0.330880
31
0.0
0
LINE
8
SECTION
10
10.348729
20
-0.330880
30
0.0
11
10.348729
21
-0.153632
31
0.0
0
LINE
8
SECTION
10
10.348729
20
-0.153632
30
0.0
11
10.308729
21
-0.153632
31
0.0
0
LINE
8
SECTION
10
10.308729
20
-0.153632
30
0.0
11
10.308729
21
-0.330880
31
0.0
0
LINE
8
SECTION
10
10.651271
20
0.153632
30
0.0
11
10.691271
21
0.153632
31
0.0
0
LINE
8
SECTION
10
10.691271
20
0.153632
30
0.0
11
10.691271
21
0.330880
31
0.0
0
LINE
8
SECTION
10
10.691271
20
0.330880
30
0.0
11
10.651271
21
0.330880
31
0.0
0
LINE
8
SECTION
10
10.651271
20
0.330880
30
0.0
11
10.651271
21
0.153632
31
0.0
0
LINE
8
SECTION
10
10.651271
20
-0.330880
30
0.0
11
10.691271
21
-0.330880
31
0.0
0
LINE
8
SECTION
10
10.691271
20
-0.330880
30
0.0
11
10.691271
21
-0.153632
31
0.0
0
LINE
8
SECTION
10
10.691271
20
-0.153632
30
0.0
11
10.651271
21
-0.153632
31
0.0
0
LINE
8
SECTION
10
10.651271
20
-0.153632
30
0.0
11
10.651271
21
-0.330880
31
0.0
0
ENDSEC
0
EOF
