0
SECTION
2
HEADER
9
$INSUNITS
70
1
0
ENDSEC
0
SECTION
2
ENTITIES
0
LINE
8
FRONT
10
0.000000
20
0.302850
30
0.0
11
0.112500
21
0.308071
31
0.0
0
LINE
8
FRONT
10
0.112500
20
0.308071
30
0.0
11
0.225000
21
0.313292
31
0.0
0
LINE
8
FRONT
10
0.225000
20
0.313292
30
0.0
11
0.337500
21
0.318513
31
0.0
0
LINE
8
FRONT
10
0.337500
20
0.318513
30
0.0
11
0.450000
21
0.323735
31
0.0
0
LINE
8
FRONT
10
0.450000
20
0.323735
30
0.0
11
0.500000
21
0.326055
31
0.0
0
LINE
8
FRONT
10
0.500000
20
0.326055
30
0.0
11
0.562500
21
0.328956
31
0.0
0
LINE
8
FRONT
10
0.562500
20
0.328956
30
0.0
11
0.675000
21
0.334177
31
0.0
0
LINE
8
FRONT
10
0.675000
20
0.334177
30
0.0
11
0.787500
21
0.339398
31
0.0
0
LINE
8
FRONT
10
0.787500
20
0.339398
30
0.0
11
0.900000
21
0.344620
31
0.0
0
LINE
8
FRONT
10
0.900000
20
0.344620
30
0.0
11
1.012500
21
0.349841
31
0.0
0
LINE
8
FRONT
10
1.012500
20
0.349841
30
0.0
11
1.125000
21
0.355062
31
0.0
0
LINE
8
FRONT
10
1.125000
20
0.355062
30
0.0
11
1.237500
21
0.360283
31
0.0
0
LINE
8
FRONT
10
1.237500
20
0.360283
30
0.0
11
1.350000
21
0.365505
31
0.0
0
LINE
8
FRONT
10
1.350000
20
0.365505
30
0.0
11
1.462500
21
0.370726
31
0.0
0
LINE
8
FRONT
10
1.462500
20
0.370726
30
0.0
11
1.575000
21
0.375947
31
0.0
0
LINE
8
FRONT
10
1.575000
20
0.375947
30
0.0
11
1.687500
21
0.381169
31
0.0
0
LINE
8
FRONT
10
1.687500
20
0.381169
30
0.0
11
1.800000
21
0.386390
31
0.0
0
LINE
8
FRONT
10
1.800000
20
0.386390
30
0.0
11
1.912500
21
0.391611
31
0.0
0
LINE
8
FRONT
10
1.912500
20
0.391611
30
0.0
11
2.025000
21
0.396832
31
0.0
0
LINE
8
FRONT
10
2.025000
20
0.396832
30
0.0
11
2.137500
21
0.402054
31
0.0
0
LINE
8
FRONT
10
2.137500
20
0.402054
30
0.0
11
2.250000
21
0.407275
31
0.0
0
LINE
8
FRONT
10
2.250000
20
0.407275
30
0.0
11
2.362500
21
0.412496
31
0.0
0
LINE
8
FRONT
10
2.362500
20
0.412496
30
0.0
11
2.475000
21
0.417717
31
0.0
0
LINE
8
FRONT
10
2.475000
20
0.417717
30
0.0
11
2.587500
21
0.422939
31
0.0
0
LINE
8
FRONT
10
2.587500
20
0.422939
30
0.0
11
2.700000
21
0.428160
31
0.0
0
LINE
8
FRONT
10
2.700000
20
0.428160
30
0.0
11
2.812500
21
0.433381
31
0.0
0
LINE
8
FRONT
10
2.812500
20
0.433381
30
0.0
11
2.925000
21
0.438603
31
0.0
0
LINE
8
FRONT
10
2.925000
20
0.438603
30
0.0
11
3.037500
21
0.443824
31
0.0
0
LINE
8
FRONT
10
3.037500
20
0.443824
30
0.0
11
3.150000
21
0.449045
31
0.0
0
LINE
8
FRONT
10
3.150000
20
0.449045
30
0.0
11
3.262500
21
0.454266
31
0.0
0
LINE
8
FRONT
10
3.262500
20
0.454266
30
0.0
11
3.375000
21
0.459488
31
0.0
0
LINE
8
FRONT
10
3.375000
20
0.459488
30
0.0
11
3.487500
21
0.464709
31
0.0
0
LINE
8
FRONT
10
3.487500
20
0.464709
30
0.0
11
3.600000
21
0.469930
31
0.0
0
LINE
8
FRONT
10
3.600000
20
0.469930
30
0.0
11
3.712500
21
0.475151
31
0.0
0
LINE
8
FRONT
10
3.712500
20
0.475151
30
0.0
11
3.825000
21
0.480373
31
0.0
0
LINE
8
FRONT
10
3.825000
20
0.480373
30
0.0
11
3.937500
21
0.485594
31
0.0
0
LINE
8
FRONT
10
3.937500
20
0.485594
30
0.0
11
4.050000
21
0.490815
31
0.0
0
LINE
8
FRONT
10
4.050000
20
0.490815
30
0.0
11
4.162500
21
0.496037
31
0.0
0
LINE
8
FRONT
10
4.162500
20
0.496037
30
0.0
11
4.275000
21
0.501258
31
0.0
0
LINE
8
FRONT
10
4.275000
20
0.501258
30
0.0
11
4.387500
21
0.506479
31
0.0
0
LINE
8
FRONT
10
4.387500
20
0.506479
30
0.0
11
4.500000
21
0.511700
31
0.0
0
LINE
8
FRONT
10
4.500000
20
0.511700
30
0.0
11
4.612500
21
0.506479
31
0.0
0
LINE
8
FRONT
10
4.612500
20
0.506479
30
0.0
11
4.725000
21
0.501258
31
0.0
0
LINE
8
FRONT
10
4.725000
20
0.501258
30
0.0
11
4.837500
21
0.496037
31
0.0
0
LINE
8
FRONT
10
4.837500
20
0.496037
30
0.0
11
4.950000
21
0.490815
31
0.0
0
LINE
8
FRONT
10
4.950000
20
0.490815
30
0.0
11
5.062500
21
0.485594
31
0.0
0
LINE
8
FRONT
10
5.062500
20
0.485594
30
0.0
11
5.175000
21
0.480373
31
0.0
0
LINE
8
FRONT
10
5.175000
20
0.480373
30
0.0
11
5.287500
21
0.475151
31
0.0
0
LINE
8
FRONT
10
5.287500
20
0.475151
30
0.0
11
5.400000
21
0.469930
31
0.0
0
LINE
8
FRONT
10
5.400000
20
0.469930
30
0.0
11
5.512500
21
0.464709
31
0.0
0
LINE
8
FRONT
10
5.512500
20
0.464709
30
0.0
11
5.625000
21
0.459488
31
0.0
0
LINE
8
FRONT
10
5.625000
20
0.459488
30
0.0
11
5.737500
21
0.454266
31
0.0
0
LINE
8
FRONT
10
5.737500
20
0.454266
30
0.0
11
5.850000
21
0.449045
31
0.0
0
LINE
8
FRONT
10
5.850000
20
0.449045
30
0.0
11
5.962500
21
0.443824
31
0.0
0
LINE
8
FRONT
10
5.962500
20
0.443824
30
0.0
11
6.075000
21
0.438603
31
0.0
0
LINE
8
FRONT
10
6.075000
20
0.438603
30
0.0
11
6.187500
21
0.433381
31
0.0
0
LINE
8
FRONT
10
6.187500
20
0.433381
30
0.0
11
6.300000
21
0.428160
31
0.0
0
LINE
8
FRONT
10
6.300000
20
0.428160
30
0.0
11
6.412500
21
0.422939
31
0.0
0
LINE
8
FRONT
10
6.412500
20
0.422939
30
0.0
11
6.525000
21
0.417717
31
0.0
0
LINE
8
FRONT
10
6.525000
20
0.417717
30
0.0
11
6.637500
21
0.412496
31
0.0
0
LINE
8
FRONT
10
6.637500
20
0.412496
30
0.0
11
6.750000
21
0.407275
31
0.0
0
LINE
8
FRONT
10
6.750000
20
0.407275
30
0.0
11
6.862500
21
0.402054
31
0.0
0
LINE
8
FRONT
10
6.862500
20
0.402054
30
0.0
11
6.975000
21
0.396832
31
0.0
0
LINE
8
FRONT
10
6.975000
20
0.396832
30
0.0
11
7.087500
21
0.391611
31
0.0
0
LINE
8
FRONT
10
7.087500
20
0.391611
30
0.0
11
7.200000
21
0.386390
31
0.0
0
LINE
8
FRONT
10
7.200000
20
0.386390
30
0.0
11
7.312500
21
0.381169
31
0.0
0
LINE
8
FRONT
10
7.312500
20
0.381169
30
0.0
11
7.425000
21
0.375947
31
0.0
0
LINE
8
FRONT
10
7.425000
20
0.375947
30
0.0
11
7.537500
21
0.370726
31
0.0
0
LINE
8
FRONT
10
7.537500
20
0.370726
30
0.0
11
7.650000
21
0.365505
31
0.0
0
LINE
8
FRONT
10
7.650000
20
0.365505
30
0.0
11
7.762500
21
0.360283
31
0.0
0
LINE
8
FRONT
10
7.762500
20
0.360283
30
0.0
11
7.875000
21
0.355062
31
0.0
0
LINE
8
FRONT
10
7.875000
20
0.355062
30
0.0
11
7.987500
21
0.349841
31
0.0
0
LINE
8
FRONT
10
7.987500
20
0.349841
30
0.0
11
8.100000
21
0.344620
31
0.0
0
LINE
8
FRONT
10
8.100000
20
0.344620
30
0.0
11
8.212500
21
0.339398
31
0.0
0
LINE
8
FRONT
10
8.212500
20
0.339398
30
0.0
11
8.325000
21
0.334177
31
0.0
0
LINE
8
FRONT
10
8.325000
20
0.334177
30
0.0
11
8.437500
21
0.328956
31
0.0
0
LINE
8
FRONT
10
8.437500
20
0.328956
30
0.0
11
8.500000
21
0.326055
31
0.0
0
LINE
8
FRONT
10
8.500000
20
0.326055
30
0.0
11
8.550000
21
0.323735
31
0.0
0
LINE
8
FRONT
10
8.550000
20
0.323735
30
0.0
11
8.662500
21
0.318513
31
0.0
0
LINE
8
FRONT
10
8.662500
20
0.318513
30
0.0
11
8.775000
21
0.313292
31
0.0
0
LINE
8
FRONT
10
8.775000
20
0.313292
30
0.0
11
8.887500
21
0.308071
31
0.0
0
LINE
8
FRONT
10
8.887500
20
0.308071
30
0.0
11
9.000000
21
0.302850
31
0.0
0
LINE
8
FRONT
10
0.000000
20
-0.302850
30
0.0
11
0.112500
21
-0.308071
31
0.0
0
LINE
8
FRONT
10
0.112500
20
-0.308071
30
0.0
11
0.225000
21
-0.313292
31
0.0
0
LINE
8
FRONT
10
0.225000
20
-0.313292
30
0.0
11
0.337500
21
-0.318513
31
0.0
0
LINE
8
FRONT
10
0.337500
20
-0.318513
30
0.0
11
0.450000
21
-0.323735
31
0.0
0
LINE
8
FRONT
10
0.450000
20
-0.323735
30
0.0
11
0.500000
21
-0.326055
31
0.0
0
LINE
8
FRONT
10
0.500000
20
-0.326055
30
0.0
11
0.562500
21
-0.328956
31
0.0
0
LINE
8
FRONT
10
0.562500
20
-0.328956
30
0.0
11
0.675000
21
-0.334177
31
0.0
0
LINE
8
FRONT
10
0.675000
20
-0.334177
30
0.0
11
0.787500
21
-0.339398
31
0.0
0
LINE
8
FRONT
10
0.787500
20
-0.339398
30
0.0
11
0.900000
21
-0.344620
31
0.0
0
LINE
8
FRONT
10
0.900000
20
-0.344620
30
0.0
11
1.012500
21
-0.349841
31
0.0
0
LINE
8
FRONT
10
1.012500
20
-0.349841
30
0.0
11
1.125000
21
-0.355062
31
0.0
0
LINE
8
FRONT
10
1.125000
20
-0.355062
30
0.0
11
1.237500
21
-0.360283
31
0.0
0
LINE
8
FRONT
10
1.237500
20
-0.360283
30
0.0
11
1.350000
21
-0.365505
31
0.0
0
LINE
8
FRONT
10
1.350000
20
-0.365505
30
0.0
11
1.462500
21
-0.370726
31
0.0
0
LINE
8
FRONT
10
1.462500
20
-0.370726
30
0.0
11
1.575000
21
-0.375947
31
0.0
0
LINE
8
FRONT
10
1.575000
20
-0.375947
30
0.0
11
1.687500
21
-0.381169
31
0.0
0
LINE
8
FRONT
10
1.687500
20
-0.381169
30
0.0
11
1.800000
21
-0.386390
31
0.0
0
LINE
8
FRONT
10
1.800000
20
-0.386390
30
0.0
11
1.912500
21
-0.391611
31
0.0
0
LINE
8
FRONT
10
1.912500
20
-0.391611
30
0.0
11
2.025000
21
-0.396832
31
0.0
0
LINE
8
FRONT
10
2.025000
20
-0.396832
30
0.0
11
2.137500
21
-0.402054
31
0.0
0
LINE
8
FRONT
10
2.137500
20
-0.402054
30
0.0
11
2.250000
21
-0.407275
31
0.0
0
LINE
8
FRONT
10
2.250000
20
-0.407275
30
0.0
11
2.362500
21
-0.412496
31
0.0
0
LINE
8
FRONT
10
2.362500
20
-0.412496
30
0.0
11
2.475000
21
-0.417717
31
0.0
0
LINE
8
FRONT
10
2.475000
20
-0.417717
30
0.0
11
2.587500
21
-0.422939
31
0.0
0
LINE
8
FRONT
10
2.587500
20
-0.422939
30
0.0
11
2.700000
21
-0.428160
31
0.0
0
LINE
8
FRONT
10
2.700000
20
-0.428160
30
0.0
11
2.812500
21
-0.433381
31
0.0
0
LINE
8
FRONT
10
2.812500
20
-0.433381
30
0.0
11
2.925000
21
-0.438603
31
0.0
0
LINE
8
FRONT
10
2.925000
20
-0.438603
30
0.0
11
3.037500
21
-0.443824
31
0.0
0
LINE
8
FRONT
10
3.037500
20
-0.443824
30
0.0
11
3.150000
21
-0.449045
31
0.0
0
LINE
8
FRONT
10
3.150000
20
-0.449045
30
0.0
11
3.262500
21
-0.454266
31
0.0
0
LINE
8
FRONT
10
3.262500
20
-0.454266
30
0.0
11
3.375000
21
-0.459488
31
0.0
0
LINE
8
FRONT
10
3.375000
20
-0.459488
30
0.0
11
3.487500
21
-0.464709
31
0.0
0
LINE
8
FRONT
10
3.487500
20
-0.464709
30
0.0
11
3.600000
21
-0.469930
31
0.0
0
LINE
8
FRONT
10
3.600000
20
-0.469930
30
0.0
11
3.712500
21
-0.475151
31
0.0
0
LINE
8
FRONT
10
3.712500
20
-0.475151
30
0.0
11
3.825000
21
-0.480373
31
0.0
0
LINE
8
FRONT
10
3.825000
20
-0.480373
30
0.0
11
3.937500
21
-0.485594
31
0.0
0
LINE
8
FRONT
10
3.937500
20
-0.485594
30
0.0
11
4.050000
21
-0.490815
31
0.0
0
LINE
8
FRONT
10
4.050000
20
-0.490815
30
0.0
11
4.162500
21
-0.496037
31
0.0
0
LINE
8
FRONT
10
4.162500
20
-0.496037
30
0.0
11
4.275000
21
-0.501258
31
0.0
0
LINE
8
FRONT
10
4.275000
20
-0.501258
30
0.0
11
4.387500
21
-0.506479
31
0.0
0
LINE
8
FRONT
10
4.387500
20
-0.506479
30
0.0
11
4.500000
21
-0.511700
31
0.0
0
LINE
8
FRONT
10
4.500000
20
-0.511700
30
0.0
11
4.612500
21
-0.506479
31
0.0
0
LINE
8
FRONT
10
4.612500
20
-0.506479
30
0.0
11
4.725000
21
-0.501258
31
0.0
0
LINE
8
FRONT
10
4.725000
20
-0.501258
30
0.0
11
4.837500
21
-0.496037
31
0.0
0
LINE
8
FRONT
10
4.837500
20
-0.496037
30
0.0
11
4.950000
21
-0.490815
31
0.0
0
LINE
8
FRONT
10
4.950000
20
-0.490815
30
0.0
11
5.062500
21
-0.485594
31
0.0
0
LINE
8
FRONT
10
5.062500
20
-0.485594
30
0.0
11
5.175000
21
-0.480373
31
0.0
0
LINE
8
FRONT
10
5.175000
20
-0.480373
30
0.0
11
5.287500
21
-0.475151
31
0.0
0
LINE
8
FRONT
10
5.287500
20
-0.475151
30
0.0
11
5.400000
21
-0.469930
31
0.0
0
LINE
8
FRONT
10
5.400000
20
-0.469930
30
0.0
11
5.512500
21
-0.464709
31
0.0
0
LINE
8
FRONT
10
5.512500
20
-0.464709
30
0.0
11
5.625000
21
-0.459488
31
0.0
0
LINE
8
FRONT
10
5.625000
20
-0.459488
30
0.0
11
5.737500
21
-0.454266
31
0.0
0
LINE
8
FRONT
10
5.737500
20
-0.454266
30
0.0
11
5.850000
21
-0.449045
31
0.0
0
LINE
8
FRONT
10
5.850000
20
-0.449045
30
0.0
11
5.962500
21
-0.443824
31
0.0
0
LINE
8
FRONT
10
5.962500
20
-0.443824
30
0.0
11
6.075000
21
-0.438603
31
0.0
0
LINE
8
FRONT
10
6.075000
20
-0.438603
30
0.0
11
6.187500
21
-0.433381
31
0.0
0
LINE
8
FRONT
10
6.187500
20
-0.433381
30
0.0
11
6.300000
21
-0.428160
31
0.0
0
LINE
8
FRONT
10
6.300000
20
-0.428160
30
0.0
11
6.412500
21
-0.422939
31
0.0
0
LINE
8
FRONT
10
6.412500
20
-0.422939
30
0.0
11
6.525000
21
-0.417717
31
0.0
0
LINE
8
FRONT
10
6.525000
20
-0.417717
30
0.0
11
6.637500
21
-0.412496
31
0.0
0
LINE
8
FRONT
10
6.637500
20
-0.412496
30
0.0
11
6.750000
21
-0.407275
31
0.0
0
LINE
8
FRONT
10
6.750000
20
-0.407275
30
0.0
11
6.862500
21
-0.402054
31
0.0
0
LINE
8
FRONT
10
6.862500
20
-0.402054
30
0.0
11
6.975000
21
-0.396832
31
0.0
0
LINE
8
FRONT
10
6.975000
20
-0.396832
30
0.0
11
7.087500
21
-0.391611
31
0.0
0
LINE
8
FRONT
10
7.087500
20
-0.391611
30
0.0
11
7.200000
21
-0.386390
31
0.0
0
LINE
8
FRONT
10
7.200000
20
-0.386390
30
0.0
11
7.312500
21
-0.381169
31
0.0
0
LINE
8
FRONT
10
7.312500
20
-0.381169
30
0.0
11
7.425000
21
-0.375947
31
0.0
0
LINE
8
FRONT
10
7.425000
20
-0.375947
30
0.0
11
7.537500
21
-0.370726
31
0.0
0
LINE
8
FRONT
10
7.537500
20
-0.370726
30
0.0
11
7.650000
21
-0.365505
31
0.0
0
LINE
8
FRONT
10
7.650000
20
-0.365505
30
0.0
11
7.762500
21
-0.360283
31
0.0
0
LINE
8
FRONT
10
7.762500
20
-0.360283
30
0.0
11
7.875000
21
-0.355062
31
0.0
0
LINE
8
FRONT
10
7.875000
20
-0.355062
30
0.0
11
7.987500
21
-0.349841
31
0.0
0
LINE
8
FRONT
10
7.987500
20
-0.349841
30
0.0
11
8.100000
21
-0.344620
31
0.0
0
LINE
8
FRONT
10
8.100000
20
-0.344620
30
0.0
11
8.212500
21
-0.339398
31
0.0
0
LINE
8
FRONT
10
8.212500
20
-0.339398
30
0.0
11
8.325000
21
-0.334177
31
0.0
0
LINE
8
FRONT
10
8.325000
20
-0.334177
30
0.0
11
8.437500
21
-0.328956
31
0.0
0
LINE
8
FRONT
10
8.437500
20
-0.328956
30
0.0
11
8.500000
21
-0.326055
31
0.0
0
LINE
8
FRONT
10
8.500000
20
-0.326055
30
0.0
11
8.550000
21
-0.323735
31
0.0
0
LINE
8
FRONT
10
8.550000
20
-0.323735
30
0.0
11
8.662500
21
-0.318513
31
0.0
0
LINE
8
FRONT
10
8.662500
20
-0.318513
30
0.0
11
8.775000
21
-0.313292
31
0.0
0
LINE
8
FRONT
10
8.775000
20
-0.313292
30
0.0
11
8.887500
21
-0.308071
31
0.0
0
LINE
8
FRONT
10
8.887500
20
-0.308071
30
0.0
11
9.000000
21
-0.302850
31
0.0
0
LINE
8
FRONT
10
0.000000
20
0.302850
30
0.0
11
0.000000
21
-0.302850
31
0.0
0
LINE
8
FRONT
10
9.000000
20
0.302850
30
0.0
11
9.000000
21
-0.302850
31
0.0
0
LINE
8
TOP
10
0.000000
20
2.529199
30
0.0
11
0.112500
21
2.527816
31
0.0
0
LINE
8
TOP
10
0.112500
20
2.527816
30
0.0
11
0.225000
21
2.526433
31
0.0
0
LINE
8
TOP
10
0.225000
20
2.526433
30
0.0
11
0.337500
21
2.525050
31
0.0
0
LINE
8
TOP
10
0.337500
20
2.525050
30
0.0
11
0.450000
21
2.523667
31
0.0
0
LINE
8
TOP
10
0.450000
20
2.523667
30
0.0
11
0.500000
21
2.523052
31
0.0
0
LINE
8
TOP
10
0.500000
20
2.523052
30
0.0
11
0.562500
21
2.522284
31
0.0
0
LINE
8
TOP
10
0.562500
20
2.522284
30
0.0
11
0.675000
21
2.520901
31
0.0
0
LINE
8
TOP
10
0.675000
20
2.520901
30
0.0
11
0.787500
21
2.519518
31
0.0
0
LINE
8
TOP
10
0.787500
20
2.519518
30
0.0
11
0.900000
21
2.518135
31
0.0
0
LINE
8
TOP
10
0.900000
20
2.518135
30
0.0
11
1.012500
21
2.516752
31
0.0
0
LINE
8
TOP
10
1.012500
20
2.516752
30
0.0
11
1.125000
21
2.515369
31
0.0
0
LINE
8
TOP
10
1.125000
20
2.515369
30
0.0
11
1.237500
21
2.513986
31
0.0
0
LINE
8
TOP
10
1.237500
20
2.513986
30
0.0
11
1.350000
21
2.512604
31
0.0
0
LINE
8
TOP
10
1.350000
20
2.512604
30
0.0
11
1.462500
21
2.511221
31
0.0
0
LINE
8
TOP
10
1.462500
20
2.511221
30
0.0
11
1.575000
21
2.509838
31
0.0
0
LINE
8
TOP
10
1.575000
20
2.509838
30
0.0
11
1.687500
21
2.508455
31
0.0
0
LINE
8
TOP
10
1.687500
20
2.508455
30
0.0
11
1.800000
21
2.507072
31
0.0
0
LINE
8
TOP
10
1.800000
20
2.507072
30
0.0
11
1.912500
21
2.505689
31
0.0
0
LINE
8
TOP
10
1.912500
20
2.505689
30
0.0
11
2.025000
21
2.504306
31
0.0
0
LINE
8
TOP
10
2.025000
20
2.504306
30
0.0
11
2.137500
21
2.502923
31
0.0
0
LINE
8
TOP
10
2.137500
20
2.502923
30
0.0
11
2.250000
21
2.501540
31
0.0
0
LINE
8
TOP
10
2.250000
20
2.501540
30
0.0
11
2.362500
21
2.500157
31
0.0
0
LINE
8
TOP
10
2.362500
20
2.500157
30
0.0
11
2.475000
21
2.498774
31
0.0
0
LINE
8
TOP
10
2.475000
20
2.498774
30
0.0
11
2.587500
21
2.497391
31
0.0
0
LINE
8
TOP
10
2.587500
20
2.497391
30
0.0
11
2.700000
21
2.496008
31
0.0
0
LINE
8
TOP
10
2.700000
20
2.496008
30
0.0
11
2.812500
21
2.494626
31
0.0
0
LINE
8
TOP
10
2.812500
20
2.494626
30
0.0
11
2.925000
21
2.493243
31
0.0
0
LINE
8
TOP
10
2.925000
20
2.493243
30
0.0
11
3.037500
21
2.491860
31
0.0
0
LINE
8
TOP
10
3.037500
20
2.491860
30
0.0
11
3.150000
21
2.490477
31
0.0
0
LINE
8
TOP
10
3.150000
20
2.490477
30
0.0
11
3.262500
21
2.489094
31
0.0
0
LINE
8
TOP
10
3.262500
20
2.489094
30
0.0
11
3.375000
21
2.487711
31
0.0
0
LINE
8
TOP
10
3.375000
20
2.487711
30
0.0
11
3.487500
21
2.486328
31
0.0
0
LINE
8
TOP
10
3.487500
20
2.486328
30
0.0
11
3.600000
21
2.484945
31
0.0
0
LINE
8
TOP
10
3.600000
20
2.484945
30
0.0
11
3.712500
21
2.483562
31
0.0
0
LINE
8
TOP
10
3.712500
20
2.483562
30
0.0
11
3.825000
21
2.482179
31
0.0
0
LINE
8
TOP
10
3.825000
20
2.482179
30
0.0
11
3.937500
21
2.480796
31
0.0
0
LINE
8
TOP
10
3.937500
20
2.480796
30
0.0
11
4.050000
21
2.479413
31
0.0
0
LINE
8
TOP
10
4.050000
20
2.479413
30
0.0
11
4.162500
21
2.478030
31
0.0
0
LINE
8
TOP
10
4.162500
20
2.478030
30
0.0
11
4.275000
21
2.476648
31
0.0
0
LINE
8
TOP
10
4.275000
20
2.476648
30
0.0
11
4.387500
21
2.475265
31
0.0
0
LINE
8
TOP
10
4.387500
20
2.475265
30
0.0
11
4.500000
21
2.473882
31
0.0
0
LINE
8
TOP
10
4.500000
20
2.473882
30
0.0
11
4.612500
21
2.475265
31
0.0
0
LINE
8
TOP
10
4.612500
20
2.475265
30
0.0
11
4.725000
21
2.476648
31
0.0
0
LINE
8
TOP
10
4.725000
20
2.476648
30
0.0
11
4.837500
21
2.478030
31
0.0
0
LINE
8
TOP
10
4.837500
20
2.478030
30
0.0
11
4.950000
21
2.479413
31
0.0
0
LINE
8
TOP
10
4.950000
20
2.479413
30
0.0
11
5.062500
21
2.480796
31
0.0
0
LINE
8
TOP
10
5.062500
20
2.480796
30
0.0
11
5.175000
21
2.482179
31
0.0
0
LINE
8
TOP
10
5.175000
20
2.482179
30
0.0
11
5.287500
21
2.483562
31
0.0
0
LINE
8
TOP
10
5.287500
20
2.483562
30
0.0
11
5.400000
21
2.484945
31
0.0
0
LINE
8
TOP
10
5.400000
20
2.484945
30
0.0
11
5.512500
21
2.486328
31
0.0
0
LINE
8
TOP
10
5.512500
20
2.486328
30
0.0
11
5.625000
21
2.487711
31
0.0
0
LINE
8
TOP
10
5.625000
20
2.487711
30
0.0
11
5.737500
21
2.489094
31
0.0
0
LINE
8
TOP
10
5.737500
20
2.489094
30
0.0
11
5.850000
21
2.490477
31
0.0
0
LINE
8
TOP
10
5.850000
20
2.490477
30
0.0
11
5.962500
21
2.491860
31
0.0
0
LINE
8
TOP
10
5.962500
20
2.491860
30
0.0
11
6.075000
21
2.493243
31
0.0
0
LINE
8
TOP
10
6.075000
20
2.493243
30
0.0
11
6.187500
21
2.494626
31
0.0
0
LINE
8
TOP
10
6.187500
20
2.494626
30
0.0
11
6.300000
21
2.496008
31
0.0
0
LINE
8
TOP
10
6.300000
20
2.496008
30
0.0
11
6.412500
21
2.497391
31
0.0
0
LINE
8
TOP
10
6.412500
20
2.497391
30
0.0
11
6.525000
21
2.498774
31
0.0
0
LINE
8
TOP
10
6.525000
20
2.498774
30
0.0
11
6.637500
21
2.500157
31
0.0
0
LINE
8
TOP
10
6.637500
20
2.500157
30
0.0
11
6.750000
21
2.501540
31
0.0
0
LINE
8
TOP
10
6.750000
20
2.501540
30
0.0
11
6.862500
21
2.502923
31
0.0
0
LINE
8
TOP
10
6.862500
20
2.502923
30
0.0
11
6.975000
21
2.504306
31
0.0
0
LINE
8
TOP
10
6.975000
20
2.504306
30
0.0
11
7.087500
21
2.505689
31
0.0
0
LINE
8
TOP
10
7.087500
20
2.505689
30
0.0
11
7.200000
21
2.507072
31
0.0
0
LINE
8
TOP
10
7.200000
20
2.507072
30
0.0
11
7.312500
21
2.508455
31
0.0
0
LINE
8
TOP
10
7.312500
20
2.508455
30
0.0
11
7.425000
21
2.509838
31
0.0
0
LINE
8
TOP
10
7.425000
20
2.509838
30
0.0
11
7.537500
21
2.511221
31
0.0
0
LINE
8
TOP
10
7.537500
20
2.511221
30
0.0
11
7.650000
21
2.512604
31
0.0
0
LINE
8
TOP
10
7.650000
20
2.512604
30
0.0
11
7.762500
21
2.513986
31
0.0
0
LINE
8
TOP
10
7.762500
20
2.513986
30
0.0
11
7.875000
21
2.515369
31
0.0
0
LINE
8
TOP
10
7.875000
20
2.515369
30
0.0
11
7.987500
21
2.516752
31
0.0
0
LINE
8
TOP
10
7.987500
20
2.516752
30
0.0
11
8.100000
21
2.518135
31
0.0
0
LINE
8
TOP
10
8.100000
20
2.518135
30
0.0
11
8.212500
21
2.519518
31
0.0
0
LINE
8
TOP
10
8.212500
20
2.519518
30
0.0
11
8.325000
21
2.520901
31
0.0
0
LINE
8
TOP
10
8.325000
20
2.520901
30
0.0
11
8.437500
21
2.522284
31
0.0
0
LINE
8
TOP
10
8.437500
20
2.522284
30
0.0
11
8.500000
21
2.523052
31
0.0
0
LINE
8
TOP
10
8.500000
20
2.523052
30
0.0
11
8.550000
21
2.523667
31
0.0
0
LINE
8
TOP
10
8.550000
20
2.523667
30
0.0
11
8.662500
21
2.525050
31
0.0
0
LINE
8
TOP
10
8.662500
20
2.525050
30
0.0
11
8.775000
21
2.526433
31
0.0
0
LINE
8
TOP
10
8.775000
20
2.526433
30
0.0
11
8.887500
21
2.527816
31
0.0
0
LINE
8
TOP
10
8.887500
20
2.527816
30
0.0
11
9.000000
21
2.529199
31
0.0
0
LINE
8
TOP
10
0.000000
20
2.041003
30
0.0
11
0.112500
21
2.042386
31
0.0
0
LINE
8
TOP
10
0.112500
20
2.042386
30
0.0
11
0.225000
21
2.043769
31
0.0
0
LINE
8
TOP
10
0.225000
20
2.043769
30
0.0
11
0.337500
21
2.045152
31
0.0
0
LINE
8
TOP
10
0.337500
20
2.045152
30
0.0
11
0.450000
21
2.046535
31
0.0
0
LINE
8
TOP
10
0.450000
20
2.046535
30
0.0
11
0.500000
21
2.047150
31
0.0
0
LINE
8
TOP
10
0.500000
20
2.047150
30
0.0
11
0.562500
21
2.047918
31
0.0
0
LINE
8
TOP
10
0.562500
20
2.047918
30
0.0
11
0.675000
21
2.049301
31
0.0
0
LINE
8
TOP
10
0.675000
20
2.049301
30
0.0
11
0.787500
21
2.050684
31
0.0
0
LINE
8
TOP
10
0.787500
20
2.050684
30
0.0
11
0.900000
21
2.052067
31
0.0
0
LINE
8
TOP
10
0.900000
20
2.052067
30
0.0
11
1.012500
21
2.053450
31
0.0
0
LINE
8
TOP
10
1.012500
20
2.053450
30
0.0
11
1.125000
21
2.054833
31
0.0
0
LINE
8
TOP
10
1.125000
20
2.054833
30
0.0
11
1.237500
21
2.056216
31
0.0
0
LINE
8
TOP
10
1.237500
20
2.056216
30
0.0
11
1.350000
21
2.057598
31
0.0
0
LINE
8
TOP
10
1.350000
20
2.057598
30
0.0
11
1.462500
21
2.058981
31
0.0
0
LINE
8
TOP
10
1.462500
20
2.058981
30
0.0
11
1.575000
21
2.060364
31
0.0
0
LINE
8
TOP
10
1.575000
20
2.060364
30
0.0
11
1.687500
21
2.061747
31
0.0
0
LINE
8
TOP
10
1.687500
20
2.061747
30
0.0
11
1.800000
21
2.063130
31
0.0
0
LINE
8
TOP
10
1.800000
20
2.063130
30
0.0
11
1.912500
21
2.064513
31
0.0
0
LINE
8
TOP
10
1.912500
20
2.064513
30
0.0
11
2.025000
21
2.065896
31
0.0
0
LINE
8
TOP
10
2.025000
20
2.065896
30
0.0
11
2.137500
21
2.067279
31
0.0
0
LINE
8
TOP
10
2.137500
20
2.067279
30
0.0
11
2.250000
21
2.068662
31
0.0
0
LINE
8
TOP
10
2.250000
20
2.068662
30
0.0
11
2.362500
21
2.070045
31
0.0
0
LINE
8
TOP
10
2.362500
20
2.070045
30
0.0
11
2.475000
21
2.071428
31
0.0
0
LINE
8
TOP
10
2.475000
20
2.071428
30
0.0
11
2.587500
21
2.072811
31
0.0
0
LINE
8
TOP
10
2.587500
20
2.072811
30
0.0
11
2.700000
21
2.074194
31
0.0
0
LINE
8
TOP
10
2.700000
20
2.074194
30
0.0
11
2.812500
21
2.075576
31
0.0
0
LINE
8
TOP
10
2.812500
20
2.075576
30
0.0
11
2.925000
21
2.076959
31
0.0
0
LINE
8
TOP
10
2.925000
20
2.076959
30
0.0
11
3.037500
21
2.078342
31
0.0
0
LINE
8
TOP
10
3.037500
20
2.078342
30
0.0
11
3.150000
21
2.079725
31
0.0
0
LINE
8
TOP
10
3.150000
20
2.079725
30
0.0
11
3.262500
21
2.081108
31
0.0
0
LINE
8
TOP
10
3.262500
20
2.081108
30
0.0
11
3.375000
21
2.082491
31
0.0
0
LINE
8
TOP
10
3.375000
20
2.082491
30
0.0
11
3.487500
21
2.083874
31
0.0
0
LINE
8
TOP
10
3.487500
20
2.083874
30
0.0
11
3.600000
21
2.085257
31
0.0
0
LINE
8
TOP
10
3.600000
20
2.085257
30
0.0
11
3.712500
21
2.086640
31
0.0
0
LINE
8
TOP
10
3.712500
20
2.086640
30
0.0
11
3.825000
21
2.088023
31
0.0
0
LINE
8
TOP
10
3.825000
20
2.088023
30
0.0
11
3.937500
21
2.089406
31
0.0
0
LINE
8
TOP
10
3.937500
20
2.089406
30
0.0
11
4.050000
21
2.090789
31
0.0
0
LINE
8
TOP
10
4.050000
20
2.090789
30
0.0
11
4.162500
21
2.092172
31
0.0
0
LINE
8
TOP
10
4.162500
20
2.092172
30
0.0
11
4.275000
21
2.093554
31
0.0
0
LINE
8
TOP
10
4.275000
20
2.093554
30
0.0
11
4.387500
21
2.094937
31
0.0
0
LINE
8
TOP
10
4.387500
20
2.094937
30
0.0
11
4.500000
21
2.096320
31
0.0
0
LINE
8
TOP
10
4.500000
20
2.096320
30
0.0
11
4.612500
21
2.094937
31
0.0
0
LINE
8
TOP
10
4.612500
20
2.094937
30
0.0
11
4.725000
21
2.093554
31
0.0
0
LINE
8
TOP
10
4.725000
20
2.093554
30
0.0
11
4.837500
21
2.092172
31
0.0
0
LINE
8
TOP
10
4.837500
20
2.092172
30
0.0
11
4.950000
21
2.090789
31
0.0
0
LINE
8
TOP
10
4.950000
20
2.090789
30
0.0
11
5.062500
21
2.089406
31
0.0
0
LINE
8
TOP
10
5.062500
20
2.089406
30
0.0
11
5.175000
21
2.088023
31
0.0
0
LINE
8
TOP
10
5.175000
20
2.088023
30
0.0
11
5.287500
21
2.086640
31
0.0
0
LINE
8
TOP
10
5.287500
20
2.086640
30
0.0
11
5.400000
21
2.085257
31
0.0
0
LINE
8
TOP
10
5.400000
20
2.085257
30
0.0
11
5.512500
21
2.083874
31
0.0
0
LINE
8
TOP
10
5.512500
20
2.083874
30
0.0
11
5.625000
21
2.082491
31
0.0
0
LINE
8
TOP
10
5.625000
20
2.082491
30
0.0
11
5.737500
21
2.081108
31
0.0
0
LINE
8
TOP
10
5.737500
20
2.081108
30
0.0
11
5.850000
21
2.079725
31
0.0
0
LINE
8
TOP
10
5.850000
20
2.079725
30
0.0
11
5.962500
21
2.078342
31
0.0
0
LINE
8
TOP
10
5.962500
20
2.078342
30
0.0
11
6.075000
21
2.076959
31
0.0
0
LINE
8
TOP
10
6.075000
20
2.076959
30
0.0
11
6.187500
21
2.075576
31
0.0
0
LINE
8
TOP
10
6.187500
20
2.075576
30
0.0
11
6.300000
21
2.074194
31
0.0
0
LINE
8
TOP
10
6.300000
20
2.074194
30
0.0
11
6.412500
21
2.072811
31
0.0
0
LINE
8
TOP
10
6.412500
20
2.072811
30
0.0
11
6.525000
21
2.071428
31
0.0
0
LINE
8
TOP
10
6.525000
20
2.071428
30
0.0
11
6.637500
21
2.070045
31
0.0
0
LINE
8
TOP
10
6.637500
20
2.070045
30
0.0
11
6.750000
21
2.068662
31
0.0
0
LINE
8
TOP
10
6.750000
20
2.068662
30
0.0
11
6.862500
21
2.067279
31
0.0
0
LINE
8
TOP
10
6.862500
20
2.067279
30
0.0
11
6.975000
21
2.065896
31
0.0
0
LINE
8
TOP
10
6.975000
20
2.065896
30
0.0
11
7.087500
21
2.064513
31
0.0
0
LINE
8
TOP
10
7.087500
20
2.064513
30
0.0
11
7.200000
21
2.063130
31
0.0
0
LINE
8
TOP
10
7.200000
20
2.063130
30
0.0
11
7.312500
21
2.061747
31
0.0
0
LINE
8
TOP
10
7.312500
20
2.061747
30
0.0
11
7.425000
21
2.060364
31
0.0
0
LINE
8
TOP
10
7.425000
20
2.060364
30
0.0
11
7.537500
21
2.058981
31
0.0
0
LINE
8
TOP
10
7.537500
20
2.058981
30
0.0
11
7.650000
21
2.057598
31
0.0
0
LINE
8
TOP
10
7.650000
20
2.057598
30
0.0
11
7.762500
21
2.056216
31
0.0
0
LINE
8
TOP
10
7.762500
20
2.056216
30
0.0
11
7.875000
21
2.054833
31
0.0
0
LINE
8
TOP
10
7.875000
20
2.054833
30
0.0
11
7.987500
21
2.053450
31
0.0
0
LINE
8
TOP
10
7.987500
20
2.053450
30
0.0
11
8.100000
21
2.052067
31
0.0
0
LINE
8
TOP
10
8.100000
20
2.052067
30
0.0
11
8.212500
21
2.050684
31
0.0
0
LINE
8
TOP
10
8.212500
20
2.050684
30
0.0
11
8.325000
21
2.049301
31
0.0
0
LINE
8
TOP
10
8.325000
20
2.049301
30
0.0
11
8.437500
21
2.047918
31
0.0
0
LINE
8
TOP
10
8.437500
20
2.047918
30
0.0
11
8.500000
21
2.047150
31
0.0
0
LINE
8
TOP
10
8.500000
20
2.047150
30
0.0
11
8.550000
21
2.046535
31
0.0
0
LINE
8
TOP
10
8.550000
20
2.046535
30
0.0
11
8.662500
21
2.045152
31
0.0
0
LINE
8
TOP
10
8.662500
20
2.045152
30
0.0
11
8.775000
21
2.043769
31
0.0
0
LINE
8
TOP
10
8.775000
20
2.043769
30
0.0
11
8.887500
21
2.042386
31
0.0
0
LINE
8
TOP
10
8.887500
20
2.042386
30
0.0
11
9.000000
21
2.041003
31
0.0
0
LINE
8
TOP
10
0.000000
20
2.529199
30
0.0
11
0.000000
21
2.041003
31
0.0
0
LINE
8
TOP
10
9.000000
20
2.529199
30
0.0
11
9.000000
21
2.041003
31
0.0
0
LINE
8
SECTION
10
10.311219
20
-0.511700
30
0.0
11
10.688781
21
-0.511700
31
0.0
0
LINE
8
SECTION
10
10.688781
20
-0.511700
30
0.0
11
10.688781
21
0.511700
31
0.0
0
LINE
8
SECTION
10
10.688781
20
0.511700
30
0.0
11
10.311219
21
0.511700
31
0.0
0
LINE
8
SECTION
10
10.311219
20
0.511700
30
0.0
11
10.311219
21
-0.511700
31
0.0
0
LINE
8
SECTION
10
10.351219
20
-0.471700
30
0.0
11
10.648781
21
-0.471700
31
0.0
0
LINE
8
SECTION
10
10.648781
20
-0.471700
30
0.0
11
10.648781
21
0.471700
31
0.0
0
LINE
8
SECTION
10
10.648781
20
0.471700
30
0.0
11
10.351219
21
0.471700
31
0.0
0
LINE
8
SECTION
10
10.351219
20
0.471700
30
0.0
11
10.351219
21
-0.471700
31
0.0
0
LINE
8
SECTION
10
10.351219
20
0.000000
30
0.0
11
10.391219
21
0.000000
31
0.0
0
LINE
8
SECTION
10
10.391219
20
0.000000
30
0.0
11
10.391219
21
0.471700
31
0.0
0
LINE
8
SECTION
10
10.391219
20
0.471700
30
0.0
11
10.351219
21
0.471700
31
0.0
0
LINE
8
SECTION
10
10.351219
20
0.471700
30
0.0
11
10.351219
21
0.000000
31
0.0
0
LINE
8
SECTION
10
10.351219
20
-0.471700
30
0.0
11
10.391219
21
-0.471700
31
0.0
0
LINE
8
SECTION
10
10.391219
20
-0.471700
30
0.0
11
10.391219
21
0.000000
31
0.0
0
LINE
8
SECTION
10
10.391219
20
0.000000
30
0.0
11
10.351219
21
0.000000
31
0.0
0
LINE
8
SECTION
10
10.351219
20
0.000000
30
0.0
11
10.351219
21
-0.471700
31
0.0
0
LINE
8
SECTION
10
10.608781
20
0.000000
30
0.0
11
10.648781
21
0.000000
31
0.0
0
LINE
8
SECTION
10
10.648781
20
0.000000
30
0.0
11
10.648781
21
0.471700
31
0.0
0
LINE
8
SECTION
10
10.648781
20
0.471700
30
0.0
11
10.608781
21
0.471700
31
0.0
0
LINE
8
SECTION
10
10.608781
20
0.471700
30
0.0
11
10.608781
21
0.000000
31
0.0
0
LINE
8
SECTION
10
10.608781
20
-0.471700
30
0.0
11
10.648781
21
-0.471700
31
0.0
0
LINE
8
SECTION
10
10.648781
20
-0.471700
30
0.0
11
10.648781
21
0.000000
31
0.0
0
LINE
8
SECTION
10
10.648781
20
0.000000
30
0.0
11
10.608781
21
0.000000
31
0.0
0
LINE
8
SECTION
10
10.608781
20
0.000000
30
0.0
11
10.608781
21
-0.471700
31
0.0
0
ENDSEC
0
EOF
