0
SECTION
2
HEADER
9
$INSUNITS
70
1
0
ENDSEC
0
SECTION
2
ENTITIES
0
LINE
8
FRONT
10
0.000000
20
0.314164
30
0.0
11
0.112500
21
0.315173
31
0.0
0
LINE
8
FRONT
10
0.112500
20
0.315173
30
0.0
11
0.225000
21
0.316182
31
0.0
0
LINE
8
FRONT
10
0.225000
20
0.316182
30
0.0
11
0.337500
21
0.317191
31
0.0
0
LINE
8
FRONT
10
0.337500
20
0.317191
30
0.0
11
0.450000
21
0.318200
31
0.0
0
LINE
8
FRONT
10
0.450000
20
0.318200
30
0.0
11
0.500000
21
0.318648
31
0.0
0
LINE
8
FRONT
10
0.500000
20
0.318648
30
0.0
11
0.562500
21
0.319209
31
0.0
0
LINE
8
FRONT
10
0.562500
20
0.319209
30
0.0
11
0.675000
21
0.320218
31
0.0
0
LINE
8
FRONT
10
0.675000
20
0.320218
30
0.0
11
0.787500
21
0.321227
31
0.0
0
LINE
8
FRONT
10
0.787500
20
0.321227
30
0.0
11
0.900000
21
0.322236
31
0.0
0
LINE
8
FRONT
10
0.900000
20
0.322236
30
0.0
11
1.012500
21
0.323245
31
0.0
0
LINE
8
FRONT
10
1.012500
20
0.323245
30
0.0
11
1.125000
21
0.324254
31
0.0
0
LINE
8
FRONT
10
1.125000
20
0.324254
30
0.0
11
1.237500
21
0.325263
31
0.0
0
LINE
8
FRONT
10
1.237500
20
0.325263
30
0.0
11
1.350000
21
0.326271
31
0.0
0
LINE
8
FRONT
10
1.350000
20
0.326271
30
0.0
11
1.462500
21
0.327280
31
0.0
0
LINE
8
FRONT
10
1.462500
20
0.327280
30
0.0
11
1.575000
21
0.328289
31
0.0
0
LINE
8
FRONT
10
1.575000
20
0.328289
30
0.0
11
1.687500
21
0.329298
31
0.0
0
LINE
8
FRONT
10
1.687500
20
0.329298
30
0.0
11
1.800000
21
0.330307
31
0.0
0
LINE
8
FRONT
10
1.800000
20
0.330307
30
0.0
11
1.912500
21
0.331316
31
0.0
0
LINE
8
FRONT
10
1.912500
20
0.331316
30
0.0
11
2.025000
21
0.332325
31
0.0
0
LINE
8
FRONT
10
2.025000
20
0.332325
30
0.0
11
2.137500
21
0.333334
31
0.0
0
LINE
8
FRONT
10
2.137500
20
0.333334
30
0.0
11
2.250000
21
0.334343
31
0.0
0
LINE
8
FRONT
10
2.250000
20
0.334343
30
0.0
11
2.362500
21
0.335352
31
0.0
0
LINE
8
FRONT
10
2.362500
20
0.335352
30
0.0
11
2.475000
21
0.336361
31
0.0
0
LINE
8
FRONT
10
2.475000
20
0.336361
30
0.0
11
2.587500
21
0.337370
31
0.0
0
LINE
8
FRONT
10
2.587500
20
0.337370
30
0.0
11
2.700000
21
0.338379
31
0.0
0
LINE
8
FRONT
10
2.700000
20
0.338379
30
0.0
11
2.812500
21
0.339387
31
0.0
0
LINE
8
FRONT
10
2.812500
20
0.339387
30
0.0
11
2.925000
21
0.340396
31
0.0
0
LINE
8
FRONT
10
2.925000
20
0.340396
30
0.0
11
3.037500
21
0.341405
31
0.0
0
LINE
8
FRONT
10
3.037500
20
0.341405
30
0.0
11
3.150000
21
0.342414
31
0.0
0
LINE
8
FRONT
10
3.150000
20
0.342414
30
0.0
11
3.262500
21
0.343423
31
0.0
0
LINE
8
FRONT
10
3.262500
20
0.343423
30
0.0
11
3.375000
21
0.344432
31
0.0
0
LINE
8
FRONT
10
3.375000
20
0.344432
30
0.0
11
3.487500
21
0.345441
31
0.0
0
LINE
8
FRONT
10
3.487500
20
0.345441
30
0.0
11
3.600000
21
0.346450
31
0.0
0
LINE
8
FRONT
10
3.600000
20
0.346450
30
0.0
11
3.712500
21
0.347459
31
0.0
0
LINE
8
FRONT
10
3.712500
20
0.347459
30
0.0
11
3.825000
21
0.348468
31
0.0
0
LINE
8
FRONT
10
3.825000
20
0.348468
30
0.0
11
3.937500
21
0.349477
31
0.0
0
LINE
8
FRONT
10
3.937500
20
0.349477
30
0.0
11
4.050000
21
0.350486
31
0.0
0
LINE
8
FRONT
10
4.050000
20
0.350486
30
0.0
11
4.162500
21
0.351494
31
0.0
0
LINE
8
FRONT
10
4.162500
20
0.351494
30
0.0
11
4.275000
21
0.352503
31
0.0
0
LINE
8
FRONT
10
4.275000
20
0.352503
30
0.0
11
4.387500
21
0.353512
31
0.0
0
LINE
8
FRONT
10
4.387500
20
0.353512
30
0.0
11
4.500000
21
0.354521
31
0.0
0
LINE
8
FRONT
10
4.500000
20
0.354521
30
0.0
11
4.612500
21
0.359342
31
0.0
0
LINE
8
FRONT
10
4.612500
20
0.359342
30
0.0
11
4.725000
21
0.364162
31
0.0
0
LINE
8
FRONT
10
4.725000
20
0.364162
30
0.0
11
4.837500
21
0.368983
31
0.0
0
LINE
8
FRONT
10
4.837500
20
0.368983
30
0.0
11
4.950000
21
0.373804
31
0.0
0
LINE
8
FRONT
10
4.950000
20
0.373804
30
0.0
11
5.062500
21
0.378624
31
0.0
0
LINE
8
FRONT
10
5.062500
20
0.378624
30
0.0
11
5.175000
21
0.383445
31
0.0
0
LINE
8
FRONT
10
5.175000
20
0.383445
30
0.0
11
5.287500
21
0.388266
31
0.0
0
LINE
8
FRONT
10
5.287500
20
0.388266
30
0.0
11
5.400000
21
0.393086
31
0.0
0
LINE
8
FRONT
10
5.400000
20
0.393086
30
0.0
11
5.512500
21
0.397907
31
0.0
0
LINE
8
FRONT
10
5.512500
20
0.397907
30
0.0
11
5.625000
21
0.402727
31
0.0
0
LINE
8
FRONT
10
5.625000
20
0.402727
30
0.0
11
5.737500
21
0.407548
31
0.0
0
LINE
8
FRONT
10
5.737500
20
0.407548
30
0.0
11
5.850000
21
0.412369
31
0.0
0
LINE
8
FRONT
10
5.850000
20
0.412369
30
0.0
11
5.962500
21
0.417189
31
0.0
0
LINE
8
FRONT
10
5.962500
20
0.417189
30
0.0
11
6.075000
21
0.422010
31
0.0
0
LINE
8
FRONT
10
6.075000
20
0.422010
30
0.0
11
6.187500
21
0.426830
31
0.0
0
LINE
8
FRONT
10
6.187500
20
0.426830
30
0.0
11
6.300000
21
0.431651
31
0.0
0
LINE
8
FRONT
10
6.300000
20
0.431651
30
0.0
11
6.412500
21
0.436472
31
0.0
0
LINE
8
FRONT
10
6.412500
20
0.436472
30
0.0
11
6.525000
21
0.441292
31
0.0
0
LINE
8
FRONT
10
6.525000
20
0.441292
30
0.0
11
6.637500
21
0.446113
31
0.0
0
LINE
8
FRONT
10
6.637500
20
0.446113
30
0.0
11
6.750000
21
0.450934
31
0.0
0
LINE
8
FRONT
10
6.750000
20
0.450934
30
0.0
11
6.862500
21
0.455754
31
0.0
0
LINE
8
FRONT
10
6.862500
20
0.455754
30
0.0
11
6.975000
21
0.460575
31
0.0
0
LINE
8
FRONT
10
6.975000
20
0.460575
30
0.0
11
7.087500
21
0.465395
31
0.0
0
LINE
8
FRONT
10
7.087500
20
0.465395
30
0.0
11
7.200000
21
0.470216
31
0.0
0
LINE
8
FRONT
10
7.200000
20
0.470216
30
0.0
11
7.312500
21
0.475037
31
0.0
0
LINE
8
FRONT
10
7.312500
20
0.475037
30
0.0
11
7.425000
21
0.479857
31
0.0
0
LINE
8
FRONT
10
7.425000
20
0.479857
30
0.0
11
7.537500
21
0.484678
31
0.0
0
LINE
8
FRONT
10
7.537500
20
0.484678
30
0.0
11
7.650000
21
0.489498
31
0.0
0
LINE
8
FRONT
10
7.650000
20
0.489498
30
0.0
11
7.762500
21
0.494319
31
0.0
0
LINE
8
FRONT
10
7.762500
20
0.494319
30
0.0
11
7.875000
21
0.499140
31
0.0
0
LINE
8
FRONT
10
7.875000
20
0.499140
30
0.0
11
7.987500
21
0.503960
31
0.0
0
LINE
8
FRONT
10
7.987500
20
0.503960
30
0.0
11
8.100000
21
0.508781
31
0.0
0
LINE
8
FRONT
10
8.100000
20
0.508781
30
0.0
11
8.212500
21
0.513602
31
0.0
0
LINE
8
FRONT
10
8.212500
20
0.513602
30
0.0
11
8.325000
21
0.518422
31
0.0
0
LINE
8
FRONT
10
8.325000
20
0.518422
30
0.0
11
8.437500
21
0.523243
31
0.0
0
LINE
8
FRONT
10
8.437500
20
0.523243
30
0.0
11
8.500000
21
0.525921
31
0.0
0
LINE
8
FRONT
10
8.500000
20
0.525921
30
0.0
11
8.550000
21
0.528063
31
0.0
0
LINE
8
FRONT
10
8.550000
20
0.528063
30
0.0
11
8.662500
21
0.532884
31
0.0
0
LINE
8
FRONT
10
8.662500
20
0.532884
30
0.0
11
8.775000
21
0.537705
31
0.0
0
LINE
8
FRONT
10
8.775000
20
0.537705
30
0.0
11
8.887500
21
0.542525
31
0.0
0
LINE
8
FRONT
10
8.887500
20
0.542525
30
0.0
11
9.000000
21
0.547346
31
0.0
0
LINE
8
FRONT
10
0.000000
20
-0.314164
30
0.0
11
0.112500
21
-0.315173
31
0.0
0
LINE
8
FRONT
10
0.112500
20
-0.315173
30
0.0
11
0.225000
21
-0.316182
31
0.0
0
LINE
8
FRONT
10
0.225000
20
-0.316182
30
0.0
11
0.337500
21
-0.317191
31
0.0
0
LINE
8
FRONT
10
0.337500
20
-0.317191
30
0.0
11
0.450000
21
-0.318200
31
0.0
0
LINE
8
FRONT
10
0.450000
20
-0.318200
30
0.0
11
0.500000
21
-0.318648
31
0.0
0
LINE
8
FRONT
10
0.500000
20
-0.318648
30
0.0
11
0.562500
21
-0.319209
31
0.0
0
LINE
8
FRONT
10
0.562500
20
-0.319209
30
0.0
11
0.675000
21
-0.320218
31
0.0
0
LINE
8
FRONT
10
0.675000
20
-0.320218
30
0.0
11
0.787500
21
-0.321227
31
0.0
0
LINE
8
FRONT
10
0.787500
20
-0.321227
30
0.0
11
0.900000
21
-0.322236
31
0.0
0
LINE
8
FRONT
10
0.900000
20
-0.322236
30
0.0
11
1.012500
21
-0.323245
31
0.0
0
LINE
8
FRONT
10
1.012500
20
-0.323245
30
0.0
11
1.125000
21
-0.324254
31
0.0
0
LINE
8
FRONT
10
1.125000
20
-0.324254
30
0.0
11
1.237500
21
-0.325263
31
0.0
0
LINE
8
FRONT
10
1.237500
20
-0.325263
30
0.0
11
1.350000
21
-0.326271
31
0.0
0
LINE
8
FRONT
10
1.350000
20
-0.326271
30
0.0
11
1.462500
21
-0.327280
31
0.0
0
LINE
8
FRONT
10
1.462500
20
-0.327280
30
0.0
11
1.575000
21
-0.328289
31
0.0
0
LINE
8
FRONT
10
1.575000
20
-0.328289
30
0.0
11
1.687500
21
-0.329298
31
0.0
0
LINE
8
FRONT
10
1.687500
20
-0.329298
30
0.0
11
1.800000
21
-0.330307
31
0.0
0
LINE
8
FRONT
10
1.800000
20
-0.330307
30
0.0
11
1.912500
21
-0.331316
31
0.0
0
LINE
8
FRONT
10
1.912500
20
-0.331316
30
0.0
11
2.025000
21
-0.332325
31
0.0
0
LINE
8
FRONT
10
2.025000
20
-0.332325
30
0.0
11
2.137500
21
-0.333334
31
0.0
0
LINE
8
FRONT
10
2.137500
20
-0.333334
30
0.0
11
2.250000
21
-0.334343
31
0.0
0
LINE
8
FRONT
10
2.250000
20
-0.334343
30
0.0
11
2.362500
21
-0.335352
31
0.0
0
LINE
8
FRONT
10
2.362500
20
-0.335352
30
0.0
11
2.475000
21
-0.336361
31
0.0
0
LINE
8
FRONT
10
2.475000
20
-0.336361
30
0.0
11
2.587500
21
-0.337370
31
0.0
0
LINE
8
FRONT
10
2.587500
20
-0.337370
30
0.0
11
2.700000
21
-0.338379
31
0.0
0
LINE
8
FRONT
10
2.700000
20
-0.338379
30
0.0
11
2.812500
21
-0.339387
31
0.0
0
LINE
8
FRONT
10
2.812500
20
-0.339387
30
0.0
11
2.925000
21
-0.340396
31
0.0
0
LINE
8
FRONT
10
2.925000
20
-0.340396
30
0.0
11
3.037500
21
-0.341405
31
0.0
0
LINE
8
FRONT
10
3.037500
20
-0.341405
30
0.0
11
3.150000
21
-0.342414
31
0.0
0
LINE
8
FRONT
10
3.150000
20
-0.342414
30
0.0
11
3.262500
21
-0.343423
31
0.0
0
LINE
8
FRONT
10
3.262500
20
-0.343423
30
0.0
11
3.375000
21
-0.344432
31
0.0
0
LINE
8
FRONT
10
3.375000
20
-0.344432
30
0.0
11
3.487500
21
-0.345441
31
0.0
0
LINE
8
FRONT
10
3.487500
20
-0.345441
30
0.0
11
3.600000
21
-0.346450
31
0.0
0
LINE
8
FRONT
10
3.600000
20
-0.346450
30
0.0
11
3.712500
21
-0.347459
31
0.0
0
LINE
8
FRONT
10
3.712500
20
-0.347459
30
0.0
11
3.825000
21
-0.348468
31
0.0
0
LINE
8
FRONT
10
3.825000
20
-0.348468
30
0.0
11
3.937500
21
-0.349477
31
0.0
0
LINE
8
FRONT
10
3.937500
20
-0.349477
30
0.0
11
4.050000
21
-0.350486
31
0.0
0
LINE
8
FRONT
10
4.050000
20
-0.350486
30
0.0
11
4.162500
21
-0.351494
31
0.0
0
LINE
8
FRONT
10
4.162500
20
-0.351494
30
0.0
11
4.275000
21
-0.352503
31
0.0
0
LINE
8
FRONT
10
4.275000
20
-0.352503
30
0.0
11
4.387500
21
-0.353512
31
0.0
0
LINE
8
FRONT
10
4.387500
20
-0.353512
30
0.0
11
4.500000
21
-0.354521
31
0.0
0
LINE
8
FRONT
10
4.500000
20
-0.354521
30
0.0
11
4.612500
21
-0.359342
31
0.0
0
LINE
8
FRONT
10
4.612500
20
-0.359342
30
0.0
11
4.725000
21
-0.364162
31
0.0
0
LINE
8
FRONT
10
4.725000
20
-0.364162
30
0.0
11
4.837500
21
-0.368983
31
0.0
0
LINE
8
FRONT
10
4.837500
20
-0.368983
30
0.0
11
4.950000
21
-0.373804
31
0.0
0
LINE
8
FRONT
10
4.950000
20
-0.373804
30
0.0
11
5.062500
21
-0.378624
31
0.0
0
LINE
8
FRONT
10
5.062500
20
-0.378624
30
0.0
11
5.175000
21
-0.383445
31
0.0
0
LINE
8
FRONT
10
5.175000
20
-0.383445
30
0.0
11
5.287500
21
-0.388266
31
0.0
0
LINE
8
FRONT
10
5.287500
20
-0.388266
30
0.0
11
5.400000
21
-0.393086
31
0.0
0
LINE
8
FRONT
10
5.400000
20
-0.393086
30
0.0
11
5.512500
21
-0.397907
31
0.0
0
LINE
8
FRONT
10
5.512500
20
-0.397907
30
0.0
11
5.625000
21
-0.402727
31
0.0
0
LINE
8
FRONT
10
5.625000
20
-0.402727
30
0.0
11
5.737500
21
-0.407548
31
0.0
0
LINE
8
FRONT
10
5.737500
20
-0.407548
30
0.0
11
5.850000
21
-0.412369
31
0.0
0
LINE
8
FRONT
10
5.850000
20
-0.412369
30
0.0
11
5.962500
21
-0.417189
31
0.0
0
LINE
8
FRONT
10
5.962500
20
-0.417189
30
0.0
11
6.075000
21
-0.422010
31
0.0
0
LINE
8
FRONT
10
6.075000
20
-0.422010
30
0.0
11
6.187500
21
-0.426830
31
0.0
0
LINE
8
FRONT
10
6.187500
20
-0.426830
30
0.0
11
6.300000
21
-0.431651
31
0.0
0
LINE
8
FRONT
10
6.300000
20
-0.431651
30
0.0
11
6.412500
21
-0.436472
31
0.0
0
LINE
8
FRONT
10
6.412500
20
-0.436472
30
0.0
11
6.525000
21
-0.441292
31
0.0
0
LINE
8
FRONT
10
6.525000
20
-0.441292
30
0.0
11
6.637500
21
-0.446113
31
0.0
0
LINE
8
FRONT
10
6.637500
20
-0.446113
30
0.0
11
6.750000
21
-0.450934
31
0.0
0
LINE
8
FRONT
10
6.750000
20
-0.450934
30
0.0
11
6.862500
21
-0.455754
31
0.0
0
LINE
8
FRONT
10
6.862500
20
-0.455754
30
0.0
11
6.975000
21
-0.460575
31
0.0
0
LINE
8
FRONT
10
6.975000
20
-0.460575
30
0.0
11
7.087500
21
-0.465395
31
0.0
0
LINE
8
FRONT
10
7.087500
20
-0.465395
30
0.0
11
7.200000
21
-0.470216
31
0.0
0
LINE
8
FRONT
10
7.200000
20
-0.470216
30
0.0
11
7.312500
21
-0.475037
31
0.0
0
LINE
8
FRONT
10
7.312500
20
-0.475037
30
0.0
11
7.425000
21
-0.479857
31
0.0
0
LINE
8
FRONT
10
7.425000
20
-0.479857
30
0.0
11
7.537500
21
-0.484678
31
0.0
0
LINE
8
FRONT
10
7.537500
20
-0.484678
30
0.0
11
7.650000
21
-0.489498
31
0.0
0
LINE
8
FRONT
10
7.650000
20
-0.489498
30
0.0
11
7.762500
21
-0.494319
31
0.0
0
LINE
8
FRONT
10
7.762500
20
-0.494319
30
0.0
11
7.875000
21
-0.499140
31
0.0
0
LINE
8
FRONT
10
7.875000
20
-0.499140
30
0.0
11
7.987500
21
-0.503960
31
0.0
0
LINE
8
FRONT
10
7.987500
20
-0.503960
30
0.0
11
8.100000
21
-0.508781
31
0.0
0
LINE
8
FRONT
10
8.100000
20
-0.508781
30
0.0
11
8.212500
21
-0.513602
31
0.0
0
LINE
8
FRONT
10
8.212500
20
-0.513602
30
0.0
11
8.325000
21
-0.518422
31
0.0
0
LINE
8
FRONT
10
8.325000
20
-0.518422
30
0.0
11
8.437500
21
-0.523243
31
0.0
0
LINE
8
FRONT
10
8.437500
20
-0.523243
30
0.0
11
8.500000
21
-0.525921
31
0.0
0
LINE
8
FRONT
10
8.500000
20
-0.525921
30
0.0
11
8.550000
21
-0.528063
31
0.0
0
LINE
8
FRONT
10
8.550000
20
-0.528063
30
0.0
11
8.662500
21
-0.532884
31
0.0
0
LINE
8
FRONT
10
8.662500
20
-0.532884
30
0.0
11
8.775000
21
-0.537705
31
0.0
0
LINE
8
FRONT
10
8.775000
20
-0.537705
30
0.0
11
8.887500
21
-0.542525
31
0.0
0
LINE
8
FRONT
10
8.887500
20
-0.542525
30
0.0
11
9.000000
21
-0.547346
31
0.0
0
LINE
8
FRONT
10
0.000000
20
0.314164
30
0.0
11
0.000000
21
-0.314164
31
0.0
0
LINE
8
FRONT
10
9.000000
20
0.547346
30
0.0
11
9.000000
21
-0.547346
31
0.0
0
LINE
8
TOP
10
0.000000
20
2.573127
30
0.0
11
0.112500
21
2.572480
31
0.0
0
LINE
8
TOP
10
0.112500
20
2.572480
30
0.0
11
0.225000
21
2.571832
31
0.0
0
LINE
8
TOP
10
0.225000
20
2.571832
30
0.0
11
0.337500
21
2.571185
31
0.0
0
LINE
8
TOP
10
0.337500
20
2.571185
30
0.0
11
0.450000
21
2.570537
31
0.0
0
LINE
8
TOP
10
0.450000
20
2.570537
30
0.0
11
0.500000
21
2.570250
31
0.0
0
LINE
8
TOP
10
0.500000
20
2.570250
30
0.0
11
0.562500
21
2.569890
31
0.0
0
LINE
8
TOP
10
0.562500
20
2.569890
30
0.0
11
0.675000
21
2.569243
31
0.0
0
LINE
8
TOP
10
0.675000
20
2.569243
30
0.0
11
0.787500
21
2.568595
31
0.0
0
LINE
8
TOP
10
0.787500
20
2.568595
30
0.0
11
0.900000
21
2.567948
31
0.0
0
LINE
8
TOP
10
0.900000
20
2.567948
30
0.0
11
1.012500
21
2.567301
31
0.0
0
LINE
8
TOP
10
1.012500
20
2.567301
30
0.0
11
1.125000
21
2.566653
31
0.0
0
LINE
8
TOP
10
1.125000
20
2.566653
30
0.0
11
1.237500
21
2.566006
31
0.0
0
LINE
8
TOP
10
1.237500
20
2.566006
30
0.0
11
1.350000
21
2.565359
31
0.0
0
LINE
8
TOP
10
1.350000
20
2.565359
30
0.0
11
1.462500
21
2.564711
31
0.0
0
LINE
8
TOP
10
1.462500
20
2.564711
30
0.0
11
1.575000
21
2.564064
31
0.0
0
LINE
8
TOP
10
1.575000
20
2.564064
30
0.0
11
1.687500
21
2.563417
31
0.0
0
LINE
8
TOP
10
1.687500
20
2.563417
30
0.0
11
1.800000
21
2.562769
31
0.0
0
LINE
8
TOP
10
1.800000
20
2.562769
30
0.0
11
1.912500
21
2.562122
31
0.0
0
LINE
8
TOP
10
1.912500
20
2.562122
30
0.0
11
2.025000
21
2.561474
31
0.0
0
LINE
8
TOP
10
2.025000
20
2.561474
30
0.0
11
2.137500
21
2.560827
31
0.0
0
LINE
8
TOP
10
2.137500
20
2.560827
30
0.0
11
2.250000
21
2.560180
31
0.0
0
LINE
8
TOP
10
2.250000
20
2.560180
30
0.0
11
2.362500
21
2.559532
31
0.0
0
LINE
8
TOP
10
2.362500
20
2.559532
30
0.0
11
2.475000
21
2.558885
31
0.0
0
LINE
8
TOP
10
2.475000
20
2.558885
30
0.0
11
2.587500
21
2.558238
31
0.0
0
LINE
8
TOP
10
2.587500
20
2.558238
30
0.0
11
2.700000
21
2.557590
31
0.0
0
LINE
8
TOP
10
2.700000
20
2.557590
30
0.0
11
2.812500
21
2.556943
31
0.0
0
LINE
8
TOP
10
2.812500
20
2.556943
30
0.0
11
2.925000
21
2.556296
31
0.0
0
LINE
8
TOP
10
2.925000
20
2.556296
30
0.0
11
3.037500
21
2.555648
31
0.0
0
LINE
8
TOP
10
3.037500
20
2.555648
30
0.0
11
3.150000
21
2.555001
31
0.0
0
LINE
8
TOP
10
3.150000
20
2.555001
30
0.0
11
3.262500
21
2.554354
31
0.0
0
LINE
8
TOP
10
3.262500
20
2.554354
30
0.0
11
3.375000
21
2.553706
31
0.0
0
LINE
8
TOP
10
3.375000
20
2.553706
30
0.0
11
3.487500
21
2.553059
31
0.0
0
LINE
8
TOP
10
3.487500
20
2.553059
30
0.0
11
3.600000
21
2.552411
31
0.0
0
LINE
8
TOP
10
3.600000
20
2.552411
30
0.0
11
3.712500
21
2.551764
31
0.0
0
LINE
8
TOP
10
3.712500
20
2.551764
30
0.0
11
3.825000
21
2.551117
31
0.0
0
LINE
8
TOP
10
3.825000
20
2.551117
30
0.0
11
3.937500
21
2.550469
31
0.0
0
LINE
8
TOP
10
3.937500
20
2.550469
30
0.0
11
4.050000
21
2.549822
31
0.0
0
LINE
8
TOP
10
4.050000
20
2.549822
30
0.0
11
4.162500
21
2.549175
31
0.0
0
LINE
8
TOP
10
4.162500
20
2.549175
30
0.0
11
4.275000
21
2.548527
31
0.0
0
LINE
8
TOP
10
4.275000
20
2.548527
30
0.0
11
4.387500
21
2.547880
31
0.0
0
LINE
8
TOP
10
4.387500
20
2.547880
30
0.0
11
4.500000
21
2.547233
31
0.0
0
LINE
8
TOP
10
4.500000
20
2.547233
30
0.0
11
4.612500
21
2.547080
31
0.0
0
LINE
8
TOP
10
4.612500
20
2.547080
30
0.0
11
4.725000
21
2.546927
31
0.0
0
LINE
8
TOP
10
4.725000
20
2.546927
30
0.0
11
4.837500
21
2.546773
31
0.0
0
LINE
8
TOP
10
4.837500
20
2.546773
30
0.0
11
4.950000
21
2.546620
31
0.0
0
LINE
8
TOP
10
4.950000
20
2.546620
30
0.0
11
5.062500
21
2.546467
31
0.0
0
LINE
8
TOP
10
5.062500
20
2.546467
30
0.0
11
5.175000
21
2.546314
31
0.0
0
LINE
8
TOP
10
5.175000
20
2.546314
30
0.0
11
5.287500
21
2.546161
31
0.0
0
LINE
8
TOP
10
5.287500
20
2.546161
30
0.0
11
5.400000
21
2.546008
31
0.0
0
LINE
8
TOP
10
5.400000
20
2.546008
30
0.0
11
5.512500
21
2.545855
31
0.0
0
LINE
8
TOP
10
5.512500
20
2.545855
30
0.0
11
5.625000
21
2.545702
31
0.0
0
LINE
8
TOP
10
5.625000
20
2.545702
30
0.0
11
5.737500
21
2.545549
31
0.0
0
LINE
8
TOP
10
5.737500
20
2.545549
30
0.0
11
5.850000
21
2.545396
31
0.0
0
LINE
8
TOP
10
5.850000
20
2.545396
30
0.0
11
5.962500
21
2.545243
31
0.0
0
LINE
8
TOP
10
5.962500
20
2.545243
30
0.0
11
6.075000
21
2.545090
31
0.0
0
LINE
8
TOP
10
6.075000
20
2.545090
30
0.0
11
6.187500
21
2.544937
31
0.0
0
LINE
8
TOP
10
6.187500
20
2.544937
30
0.0
11
6.300000
21
2.544784
31
0.0
0
LINE
8
TOP
10
6.300000
20
2.544784
30
0.0
11
6.412500
21
2.544631
31
0.0
0
LINE
8
TOP
10
6.412500
20
2.544631
30
0.0
11
6.525000
21
2.544478
31
0.0
0
LINE
8
TOP
10
6.525000
20
2.544478
30
0.0
11
6.637500
21
2.544325
31
0.0
0
LINE
8
TOP
10
6.637500
20
2.544325
30
0.0
11
6.750000
21
2.544172
31
0.0
0
LINE
8
TOP
10
6.750000
20
2.544172
30
0.0
11
6.862500
21
2.544019
31
0.0
0
LINE
8
TOP
10
6.862500
20
2.544019
30
0.0
11
6.975000
21
2.543866
31
0.0
0
LINE
8
TOP
10
6.975000
20
2.543866
30
0.0
11
7.087500
21
2.543713
31
0.0
0
LINE
8
TOP
10
7.087500
20
2.543713
30
0.0
11
7.200000
21
2.543559
31
0.0
0
LINE
8
TOP
10
7.200000
20
2.543559
30
0.0
11
7.312500
21
2.543406
31
0.0
0
LINE
8
TOP
10
7.312500
20
2.543406
30
0.0
11
7.425000
21
2.543253
31
0.0
0
LINE
8
TOP
10
7.425000
20
2.543253
30
0.0
11
7.537500
21
2.543100
31
0.0
0
LINE
8
TOP
10
7.537500
20
2.543100
30
0.0
11
7.650000
21
2.542947
31
0.0
0
LINE
8
TOP
10
7.650000
20
2.542947
30
0.0
11
7.762500
21
2.542794
31
0.0
0
LINE
8
TOP
10
7.762500
20
2.542794
30
0.0
11
7.875000
21
2.542641
31
0.0
0
LINE
8
TOP
10
7.875000
20
2.542641
30
0.0
11
7.987500
21
2.542488
31
0.0
0
LINE
8
TOP
10
7.987500
20
2.542488
30
0.0
11
8.100000
21
2.542335
31
0.0
0
LINE
8
TOP
10
8.100000
20
2.542335
30
0.0
11
8.212500
21
2.542182
31
0.0
0
LINE
8
TOP
10
8.212500
20
2.542182
30
0.0
11
8.325000
21
2.542029
31
0.0
0
LINE
8
TOP
10
8.325000
20
2.542029
30
0.0
11
8.437500
21
2.541876
31
0.0
0
LINE
8
TOP
10
8.437500
20
2.541876
30
0.0
11
8.500000
21
2.541791
31
0.0
0
LINE
8
TOP
10
8.500000
20
2.541791
30
0.0
11
8.550000
21
2.541723
31
0.0
0
LINE
8
TOP
10
8.550000
20
2.541723
30
0.0
11
8.662500
21
2.541570
31
0.0
0
LINE
8
TOP
10
8.662500
20
2.541570
30
0.0
11
8.775000
21
2.541417
31
0.0
0
LINE
8
TOP
10
8.775000
20
2.541417
30
0.0
11
8.887500
21
2.541264
31
0.0
0
LINE
8
TOP
10
8.887500
20
2.541264
30
0.0
11
9.000000
21
2.541111
31
0.0
0
LINE
8
TOP
10
0.000000
20
2.210948
30
0.0
11
0.112500
21
2.211596
31
0.0
0
LINE
8
TOP
10
0.112500
20
2.211596
30
0.0
11
0.225000
21
2.212243
31
0.0
0
LINE
8
TOP
10
0.225000
20
2.212243
30
0.0
11
0.337500
21
2.212890
31
0.0
0
LINE
8
TOP
10
0.337500
20
2.212890
30
0.0
11
0.450000
21
2.213538
31
0.0
0
LINE
8
TOP
10
0.450000
20
2.213538
30
0.0
11
0.500000
21
2.213825
31
0.0
0
LINE
8
TOP
10
0.500000
20
2.213825
30
0.0
11
0.562500
21
2.214185
31
0.0
0
LINE
8
TOP
10
0.562500
20
2.214185
30
0.0
11
0.675000
21
2.214832
31
0.0
0
LINE
8
TOP
10
0.675000
20
2.214832
30
0.0
11
0.787500
21
2.215480
31
0.0
0
LINE
8
TOP
10
0.787500
20
2.215480
30
0.0
11
0.900000
21
2.216127
31
0.0
0
LINE
8
TOP
10
0.900000
20
2.216127
30
0.0
11
1.012500
21
2.216774
31
0.0
0
LINE
8
TOP
10
1.012500
20
2.216774
30
0.0
11
1.125000
21
2.217422
31
0.0
0
LINE
8
TOP
10
1.125000
20
2.217422
30
0.0
11
1.237500
21
2.218069
31
0.0
0
LINE
8
TOP
10
1.237500
20
2.218069
30
0.0
11
1.350000
21
2.218716
31
0.0
0
LINE
8
TOP
10
1.350000
20
2.218716
30
0.0
11
1.462500
21
2.219364
31
0.0
0
LINE
8
TOP
10
1.462500
20
2.219364
30
0.0
11
1.575000
21
2.220011
31
0.0
0
LINE
8
TOP
10
1.575000
20
2.220011
30
0.0
11
1.687500
21
2.220659
31
0.0
0
LINE
8
TOP
10
1.687500
20
2.220659
30
0.0
11
1.800000
21
2.221306
31
0.0
0
LINE
8
TOP
10
1.800000
20
2.221306
30
0.0
11
1.912500
21
2.221953
31
0.0
0
LINE
8
TOP
10
1.912500
20
2.221953
30
0.0
11
2.025000
21
2.222601
31
0.0
0
LINE
8
TOP
10
2.025000
20
2.222601
30
0.0
11
2.137500
21
2.223248
31
0.0
0
LINE
8
TOP
10
2.137500
20
2.223248
30
0.0
11
2.250000
21
2.223895
31
0.0
0
LINE
8
TOP
10
2.250000
20
2.223895
30
0.0
11
2.362500
21
2.224543
31
0.0
0
LINE
8
TOP
10
2.362500
20
2.224543
30
0.0
11
2.475000
21
2.225190
31
0.0
0
LINE
8
TOP
10
2.475000
20
2.225190
30
0.0
11
2.587500
21
2.225837
31
0.0
0
LINE
8
TOP
10
2.587500
20
2.225837
30
0.0
11
2.700000
21
2.226485
31
0.0
0
LINE
8
TOP
10
2.700000
20
2.226485
30
0.0
11
2.812500
21
2.227132
31
0.0
0
LINE
8
TOP
10
2.812500
20
2.227132
30
0.0
11
2.925000
21
2.227779
31
0.0
0
LINE
8
TOP
10
2.925000
20
2.227779
30
0.0
11
3.037500
21
2.228427
31
0.0
0
LINE
8
TOP
10
3.037500
20
2.228427
30
0.0
11
3.150000
21
2.229074
31
0.0
0
LINE
8
TOP
10
3.150000
20
2.229074
30
0.0
11
3.262500
21
2.229721
31
0.0
0
LINE
8
TOP
10
3.262500
20
2.229721
30
0.0
11
3.375000
21
2.230369
31
0.0
0
LINE
8
TOP
10
3.375000
20
2.230369
30
0.0
11
3.487500
21
2.231016
31
0.0
0
LINE
8
TOP
10
3.487500
20
2.231016
30
0.0
11
3.600000
21
2.231664
31
0.0
0
LINE
8
TOP
10
3.600000
20
2.231664
30
0.0
11
3.712500
21
2.232311
31
0.0
0
LINE
8
TOP
10
3.712500
20
2.232311
30
0.0
11
3.825000
21
2.232958
31
0.0
0
LINE
8
TOP
10
3.825000
20
2.232958
30
0.0
11
3.937500
21
2.233606
31
0.0
0
LINE
8
TOP
10
3.937500
20
2.233606
30
0.0
11
4.050000
21
2.234253
31
0.0
0
LINE
8
TOP
10
4.050000
20
2.234253
30
0.0
11
4.162500
21
2.234900
31
0.0
0
LINE
8
TOP
10
4.162500
20
2.234900
30
0.0
11
4.275000
21
2.235548
31
0.0
0
LINE
8
TOP
10
4.275000
20
2.235548
30
0.0
11
4.387500
21
2.236195
31
0.0
0
LINE
8
TOP
10
4.387500
20
2.236195
30
0.0
11
4.500000
21
2.236842
31
0.0
0
LINE
8
TOP
10
4.500000
20
2.236842
30
0.0
11
4.612500
21
2.236995
31
0.0
0
LINE
8
TOP
10
4.612500
20
2.236995
30
0.0
11
4.725000
21
2.237148
31
0.0
0
LINE
8
TOP
10
4.725000
20
2.237148
30
0.0
11
4.837500
21
2.237302
31
0.0
0
LINE
8
TOP
10
4.837500
20
2.237302
30
0.0
11
4.950000
21
2.237455
31
0.0
0
LINE
8
TOP
10
4.950000
20
2.237455
30
0.0
11
5.062500
21
2.237608
31
0.0
0
LINE
8
TOP
10
5.062500
20
2.237608
30
0.0
11
5.175000
21
2.237761
31
0.0
0
LINE
8
TOP
10
5.175000
20
2.237761
30
0.0
11
5.287500
21
2.237914
31
0.0
0
LINE
8
TOP
10
5.287500
20
2.237914
30
0.0
11
5.400000
21
2.238067
31
0.0
0
LINE
8
TOP
10
5.400000
20
2.238067
30
0.0
11
5.512500
21
2.238220
31
0.0
0
LINE
8
TOP
10
5.512500
20
2.238220
30
0.0
11
5.625000
21
2.238373
31
0.0
0
LINE
8
TOP
10
5.625000
20
2.238373
30
0.0
11
5.737500
21
2.238526
31
0.0
0
LINE
8
TOP
10
5.737500
20
2.238526
30
0.0
11
5.850000
21
2.238679
31
0.0
0
LINE
8
TOP
10
5.850000
20
2.238679
30
0.0
11
5.962500
21
2.238832
31
0.0
0
LINE
8
TOP
10
5.962500
20
2.238832
30
0.0
11
6.075000
21
2.238985
31
0.0
0
LINE
8
TOP
10
6.075000
20
2.238985
30
0.0
11
6.187500
21
2.239138
31
0.0
0
LINE
8
TOP
10
6.187500
20
2.239138
30
0.0
11
6.300000
21
2.239291
31
0.0
0
LINE
8
TOP
10
6.300000
20
2.239291
30
0.0
11
6.412500
21
2.239444
31
0.0
0
LINE
8
TOP
10
6.412500
20
2.239444
30
0.0
11
6.525000
21
2.239597
31
0.0
0
LINE
8
TOP
10
6.525000
20
2.239597
30
0.0
11
6.637500
21
2.239750
31
0.0
0
LINE
8
TOP
10
6.637500
20
2.239750
30
0.0
11
6.750000
21
2.239903
31
0.0
0
LINE
8
TOP
10
6.750000
20
2.239903
30
0.0
11
6.862500
21
2.240056
31
0.0
0
LINE
8
TOP
10
6.862500
20
2.240056
30
0.0
11
6.975000
21
2.240209
31
0.0
0
LINE
8
TOP
10
6.975000
20
2.240209
30
0.0
11
7.087500
21
2.240363
31
0.0
0
LINE
8
TOP
10
7.087500
20
2.240363
30
0.0
11
7.200000
21
2.240516
31
0.0
0
LINE
8
TOP
10
7.200000
20
2.240516
30
0.0
11
7.312500
21
2.240669
31
0.0
0
LINE
8
TOP
10
7.312500
20
2.240669
30
0.0
11
7.425000
21
2.240822
31
0.0
0
LINE
8
TOP
10
7.425000
20
2.240822
30
0.0
11
7.537500
21
2.240975
31
0.0
0
LINE
8
TOP
10
7.537500
20
2.240975
30
0.0
11
7.650000
21
2.241128
31
0.0
0
LINE
8
TOP
10
7.650000
20
2.241128
30
0.0
11
7.762500
21
2.241281
31
0.0
0
LINE
8
TOP
10
7.762500
20
2.241281
30
0.0
11
7.875000
21
2.241434
31
0.0
0
LINE
8
TOP
10
7.875000
20
2.241434
30
0.0
11
7.987500
21
2.241587
31
0.0
0
LINE
8
TOP
10
7.987500
20
2.241587
30
0.0
11
8.100000
21
2.241740
31
0.0
0
LINE
8
TOP
10
8.100000
20
2.241740
30
0.0
11
8.212500
21
2.241893
31
0.0
0
LINE
8
TOP
10
8.212500
20
2.241893
30
0.0
11
8.325000
21
2.242046
31
0.0
0
LINE
8
TOP
10
8.325000
20
2.242046
30
0.0
11
8.437500
21
2.242199
31
0.0
0
LINE
8
TOP
10
8.437500
20
2.242199
30
0.0
11
8.500000
21
2.242284
31
0.0
0
LINE
8
TOP
10
8.500000
20
2.242284
30
0.0
11
8.550000
21
2.242352
31
0.0
0
LINE
8
TOP
10
8.550000
20
2.242352
30
0.0
11
8.662500
21
2.242505
31
0.0
0
LINE
8
TOP
10
8.662500
20
2.242505
30
0.0
11
8.775000
21
2.242658
31
0.0
0
LINE
8
TOP
10
8.775000
20
2.242658
30
0.0
11
8.887500
21
2.242811
31
0.0
0
LINE
8
TOP
10
8.887500
20
2.242811
30
0.0
11
9.000000
21
2.242964
31
0.0
0
LINE
8
TOP
10
0.000000
20
2.573127
30
0.0
11
0.000000
21
2.210948
31
0.0
0
LINE
8
TOP
10
9.000000
20
2.541111
30
0.0
11
9.000000
21
2.242964
31
0.0
0
LINE
8
SECTION
10
10.344805
20
-0.354521
30
0.0
11
10.655195
21
-0.354521
31
0.0
0
LINE
8
SECTION
10
10.655195
20
-0.354521
30
0.0
11
10.655195
21
0.354521
31
0.0
0
LINE
8
SECTION
10
10.655195
20
0.354521
30
0.0
11
10.344805
21
0.354521
31
0.0
0
LINE
8
SECTION
10
10.344805
20
0.354521
30
0.0
11
10.344805
21
-0.354521
31
0.0
0
LINE
8
SECTION
10
10.414105
20
-0.285221
30
0.0
11
10.585895
21
-0.285221
31
0.0
0
LINE
8
SECTION
10
10.585895
20
-0.285221
30
0.0
11
10.585895
21
0.285221
31
0.0
0
LINE
8
SECTION
10
10.585895
20
0.285221
30
0.0
11
10.414105
21
0.285221
31
0.0
0
LINE
8
SECTION
10
10.414105
20
0.285221
30
0.0
11
10.414105
21
-0.285221
31
0.0
0
LINE
8
SECTION
10
10.414105
20
0.000000
30
0.0
11
10.483405
21
0.000000
31
0.0
0
LINE
8
SECTION
10
10.483405
20
0.000000
30
0.0
11
10.483405
21
0.285221
31
0.0
0
LINE
8
SECTION
10
10.483405
20
0.285221
30
0.0
11
10.414105
21
0.285221
31
0.0
0
LINE
8
SECTION
10
10.414105
20
0.285221
30
0.0
11
10.414105
21
0.000000
31
0.0
0
LINE
8
SECTION
10
10.414105
20
-0.285221
30
0.0
11
10.483405
21
-0.285221
31
0.0
0
LINE
8
SECTION
10
10.483405
20
-0.285221
30
0.0
11
10.483405
21
0.000000
31
0.0
0
LINE
8
SECTION
10
10.483405
20
0.000000
30
0.0
11
10.414105
21
0.000000
31
0.0
0
LINE
8
SECTION
10
10.414105
20
0.000000
30
0.0
11
10.414105
21
-0.285221
31
0.0
0
LINE
8
SECTION
10
10.516595
20
0.000000
30
0.0
11
10.585895
21
0.000000
31
0.0
0
LINE
8
SECTION
10
10.585895
20
0.000000
30
0.0
11
10.585895
21
0.285221
31
0.0
0
LINE
8
SECTION
10
10.585895
20
0.285221
30
0.0
11
10.516595
21
0.285221
31
0.0
0
LINE
8
SECTION
10
10.516595
20
0.285221
30
0.0
11
10.516595
21
0.000000
31
0.0
0
LINE
8
SECTION
10
10.516595
20
-0.285221
30
0.0
11
10.585895
21
-0.285221
31
0.0
0
LINE
8
SECTION
10
10.585895
20
-0.285221
30
0.0
11
10.585895
21
0.000000
31
0.0
0
LINE
8
SECTION
10
10.585895
20
0.000000
30
0.0
11
10.516595
21
0.000000
31
0.0
0
LINE
8
SECTION
10
10.516595
20
0.000000
30
0.0
11
10.516595
21
-0.285221
31
0.0
0
ENDSEC
0
EOF
