0
SECTION
2
HEADER
9
$INSUNITS
70
1
0
ENDSEC
0
SECTION
2
ENTITIES
0
LINE
8
FRONT
10
0.000000
20
0.239381
30
0.0
11
0.112500
21
0.244889
31
0.0
0
LINE
8
FRONT
10
0.112500
20
0.244889
30
0.0
11
0.225000
21
0.250398
31
0.0
0
LINE
8
FRONT
10
0.225000
20
0.250398
30
0.0
11
0.337500
21
0.255906
31
0.0
0
LINE
8
FRONT
10
0.337500
20
0.255906
30
0.0
11
0.450000
21
0.261415
31
0.0
0
LINE
8
FRONT
10
0.450000
20
0.261415
30
0.0
11
0.500000
21
0.263863
31
0.0
0
LINE
8
FRONT
10
0.500000
20
0.263863
30
0.0
11
0.562500
21
0.266923
31
0.0
0
LINE
8
FRONT
10
0.562500
20
0.266923
30
0.0
11
0.675000
21
0.272431
31
0.0
0
LINE
8
FRONT
10
0.675000
20
0.272431
30
0.0
11
0.787500
21
0.277940
31
0.0
0
LINE
8
FRONT
10
0.787500
20
0.277940
30
0.0
11
0.900000
21
0.283448
31
0.0
0
LINE
8
FRONT
10
0.900000
20
0.283448
30
0.0
11
1.012500
21
0.288957
31
0.0
0
LINE
8
FRONT
10
1.012500
20
0.288957
30
0.0
11
1.125000
21
0.294465
31
0.0
0
LINE
8
FRONT
10
1.125000
20
0.294465
30
0.0
11
1.237500
21
0.299974
31
0.0
0
LINE
8
FRONT
10
1.237500
20
0.299974
30
0.0
11
1.350000
21
0.305482
31
0.0
0
LINE
8
FRONT
10
1.350000
20
0.305482
30
0.0
11
1.462500
21
0.310991
31
0.0
0
LINE
8
FRONT
10
1.462500
20
0.310991
30
0.0
11
1.575000
21
0.316499
31
0.0
0
LINE
8
FRONT
10
1.575000
20
0.316499
30
0.0
11
1.687500
21
0.322008
31
0.0
0
LINE
8
FRONT
10
1.687500
20
0.322008
30
0.0
11
1.800000
21
0.327516
31
0.0
0
LINE
8
FRONT
10
1.800000
20
0.327516
30
0.0
11
1.912500
21
0.333024
31
0.0
0
LINE
8
FRONT
10
1.912500
20
0.333024
30
0.0
11
2.025000
21
0.338533
31
0.0
0
LINE
8
FRONT
10
2.025000
20
0.338533
30
0.0
11
2.137500
21
0.344041
31
0.0
0
LINE
8
FRONT
10
2.137500
20
0.344041
30
0.0
11
2.250000
21
0.349550
31
0.0
0
LINE
8
FRONT
10
2.250000
20
0.349550
30
0.0
11
2.362500
21
0.355058
31
0.0
0
LINE
8
FRONT
10
2.362500
20
0.355058
30
0.0
11
2.475000
21
0.360567
31
0.0
0
LINE
8
FRONT
10
2.475000
20
0.360567
30
0.0
11
2.587500
21
0.366075
31
0.0
0
LINE
8
FRONT
10
2.587500
20
0.366075
30
0.0
11
2.700000
21
0.371584
31
0.0
0
LINE
8
FRONT
10
2.700000
20
0.371584
30
0.0
11
2.812500
21
0.377092
31
0.0
0
LINE
8
FRONT
10
2.812500
20
0.377092
30
0.0
11
2.925000
21
0.382600
31
0.0
0
LINE
8
FRONT
10
2.925000
20
0.382600
30
0.0
11
3.037500
21
0.388109
31
0.0
0
LINE
8
FRONT
10
3.037500
20
0.388109
30
0.0
11
3.150000
21
0.393617
31
0.0
0
LINE
8
FRONT
10
3.150000
20
0.393617
30
0.0
11
3.262500
21
0.399126
31
0.0
0
LINE
8
FRONT
10
3.262500
20
0.399126
30
0.0
11
3.375000
21
0.404634
31
0.0
0
LINE
8
FRONT
10
3.375000
20
0.404634
30
0.0
11
3.487500
21
0.410143
31
0.0
0
LINE
8
FRONT
10
3.487500
20
0.410143
30
0.0
11
3.600000
21
0.415651
31
0.0
0
LINE
8
FRONT
10
3.600000
20
0.415651
30
0.0
11
3.712500
21
0.421160
31
0.0
0
LINE
8
FRONT
10
3.712500
20
0.421160
30
0.0
11
3.825000
21
0.426668
31
0.0
0
LINE
8
FRONT
10
3.825000
20
0.426668
30
0.0
11
3.937500
21
0.432177
31
0.0
0
LINE
8
FRONT
10
3.937500
20
0.432177
30
0.0
11
4.050000
21
0.437685
31
0.0
0
LINE
8
FRONT
10
4.050000
20
0.437685
30
0.0
11
4.162500
21
0.443193
31
0.0
0
LINE
8
FRONT
10
4.162500
20
0.443193
30
0.0
11
4.275000
21
0.448702
31
0.0
0
LINE
8
FRONT
10
4.275000
20
0.448702
30
0.0
11
4.387500
21
0.454210
31
0.0
0
LINE
8
FRONT
10
4.387500
20
0.454210
30
0.0
11
4.500000
21
0.459719
31
0.0
0
LINE
8
FRONT
10
4.500000
20
0.459719
30
0.0
11
4.612500
21
0.454210
31
0.0
0
LINE
8
FRONT
10
4.612500
20
0.454210
30
0.0
11
4.725000
21
0.448702
31
0.0
0
LINE
8
FRONT
10
4.725000
20
0.448702
30
0.0
11
4.837500
21
0.443193
31
0.0
0
LINE
8
FRONT
10
4.837500
20
0.443193
30
0.0
11
4.950000
21
0.437685
31
0.0
0
LINE
8
FRONT
10
4.950000
20
0.437685
30
0.0
11
5.062500
21
0.432177
31
0.0
0
LINE
8
FRONT
10
5.062500
20
0.432177
30
0.0
11
5.175000
21
0.426668
31
0.0
0
LINE
8
FRONT
10
5.175000
20
0.426668
30
0.0
11
5.287500
21
0.421160
31
0.0
0
LINE
8
FRONT
10
5.287500
20
0.421160
30
0.0
11
5.400000
21
0.415651
31
0.0
0
LINE
8
FRONT
10
5.400000
20
0.415651
30
0.0
11
5.512500
21
0.410143
31
0.0
0
LINE
8
FRONT
10
5.512500
20
0.410143
30
0.0
11
5.625000
21
0.404634
31
0.0
0
LINE
8
FRONT
10
5.625000
20
0.404634
30
0.0
11
5.737500
21
0.399126
31
0.0
0
LINE
8
FRONT
10
5.737500
20
0.399126
30
0.0
11
5.850000
21
0.393617
31
0.0
0
LINE
8
FRONT
10
5.850000
20
0.393617
30
0.0
11
5.962500
21
0.388109
31
0.0
0
LINE
8
FRONT
10
5.962500
20
0.388109
30
0.0
11
6.075000
21
0.382600
31
0.0
0
LINE
8
FRONT
10
6.075000
20
0.382600
30
0.0
11
6.187500
21
0.377092
31
0.0
0
LINE
8
FRONT
10
6.187500
20
0.377092
30
0.0
11
6.300000
21
0.371584
31
0.0
0
LINE
8
FRONT
10
6.300000
20
0.371584
30
0.0
11
6.412500
21
0.366075
31
0.0
0
LINE
8
FRONT
10
6.412500
20
0.366075
30
0.0
11
6.525000
21
0.360567
31
0.0
0
LINE
8
FRONT
10
6.525000
20
0.360567
30
0.0
11
6.637500
21
0.355058
31
0.0
0
LINE
8
FRONT
10
6.637500
20
0.355058
30
0.0
11
6.750000
21
0.349550
31
0.0
0
LINE
8
FRONT
10
6.750000
20
0.349550
30
0.0
11
6.862500
21
0.344041
31
0.0
0
LINE
8
FRONT
10
6.862500
20
0.344041
30
0.0
11
6.975000
21
0.338533
31
0.0
0
LINE
8
FRONT
10
6.975000
20
0.338533
30
0.0
11
7.087500
21
0.333024
31
0.0
0
LINE
8
FRONT
10
7.087500
20
0.333024
30
0.0
11
7.200000
21
0.327516
31
0.0
0
LINE
8
FRONT
10
7.200000
20
0.327516
30
0.0
11
7.312500
21
0.322008
31
0.0
0
LINE
8
FRONT
10
7.312500
20
0.322008
30
0.0
11
7.425000
21
0.316499
31
0.0
0
LINE
8
FRONT
10
7.425000
20
0.316499
30
0.0
11
7.537500
21
0.310991
31
0.0
0
LINE
8
FRONT
10
7.537500
20
0.310991
30
0.0
11
7.650000
21
0.305482
31
0.0
0
LINE
8
FRONT
10
7.650000
20
0.305482
30
0.0
11
7.762500
21
0.299974
31
0.0
0
LINE
8
FRONT
10
7.762500
20
0.299974
30
0.0
11
7.875000
21
0.294465
31
0.0
0
LINE
8
FRONT
10
7.875000
20
0.294465
30
0.0
11
7.987500
21
0.288957
31
0.0
0
LINE
8
FRONT
10
7.987500
20
0.288957
30
0.0
11
8.100000
21
0.283448
31
0.0
0
LINE
8
FRONT
10
8.100000
20
0.283448
30
0.0
11
8.212500
21
0.277940
31
0.0
0
LINE
8
FRONT
10
8.212500
20
0.277940
30
0.0
11
8.325000
21
0.272431
31
0.0
0
LINE
8
FRONT
10
8.325000
20
0.272431
30
0.0
11
8.437500
21
0.266923
31
0.0
0
LINE
8
FRONT
10
8.437500
20
0.266923
30
0.0
11
8.500000
21
0.263863
31
0.0
0
LINE
8
FRONT
10
8.500000
20
0.263863
30
0.0
11
8.550000
21
0.261415
31
0.0
0
LINE
8
FRONT
10
8.550000
20
0.261415
30
0.0
11
8.662500
21
0.255906
31
0.0
0
LINE
8
FRONT
10
8.662500
20
0.255906
30
0.0
11
8.775000
21
0.250398
31
0.0
0
LINE
8
FRONT
10
8.775000
20
0.250398
30
0.0
11
8.887500
21
0.244889
31
0.0
0
LINE
8
FRONT
10
8.887500
20
0.244889
30
0.0
11
9.000000
21
0.239381
31
0.0
0
LINE
8
FRONT
10
0.000000
20
-0.239381
30
0.0
11
0.112500
21
-0.244889
31
0.0
0
LINE
8
FRONT
10
0.112500
20
-0.244889
30
0.0
11
0.225000
21
-0.250398
31
0.0
0
LINE
8
FRONT
10
0.225000
20
-0.250398
30
0.0
11
0.337500
21
-0.255906
31
0.0
0
LINE
8
FRONT
10
0.337500
20
-0.255906
30
0.0
11
0.450000
21
-0.261415
31
0.0
0
LINE
8
FRONT
10
0.450000
20
-0.261415
30
0.0
11
0.500000
21
-0.263863
31
0.0
0
LINE
8
FRONT
10
0.500000
20
-0.263863
30
0.0
11
0.562500
21
-0.266923
31
0.0
0
LINE
8
FRONT
10
0.562500
20
-0.266923
30
0.0
11
0.675000
21
-0.272431
31
0.0
0
LINE
8
FRONT
10
0.675000
20
-0.272431
30
0.0
11
0.787500
21
-0.277940
31
0.0
0
LINE
8
FRONT
10
0.787500
20
-0.277940
30
0.0
11
0.900000
21
-0.283448
31
0.0
0
LINE
8
FRONT
10
0.900000
20
-0.283448
30
0.0
11
1.012500
21
-0.288957
31
0.0
0
LINE
8
FRONT
10
1.012500
20
-0.288957
30
0.0
11
1.125000
21
-0.294465
31
0.0
0
LINE
8
FRONT
10
1.125000
20
-0.294465
30
0.0
11
1.237500
21
-0.299974
31
0.0
0
LINE
8
FRONT
10
1.237500
20
-0.299974
30
0.0
11
1.350000
21
-0.305482
31
0.0
0
LINE
8
FRONT
10
1.350000
20
-0.305482
30
0.0
11
1.462500
21
-0.310991
31
0.0
0
LINE
8
FRONT
10
1.462500
20
-0.310991
30
0.0
11
1.575000
21
-0.316499
31
0.0
0
LINE
8
FRONT
10
1.575000
20
-0.316499
30
0.0
11
1.687500
21
-0.322008
31
0.0
0
LINE
8
FRONT
10
1.687500
20
-0.322008
30
0.0
11
1.800000
21
-0.327516
31
0.0
0
LINE
8
FRONT
10
1.800000
20
-0.327516
30
0.0
11
1.912500
21
-0.333024
31
0.0
0
LINE
8
FRONT
10
1.912500
20
-0.333024
30
0.0
11
2.025000
21
-0.338533
31
0.0
0
LINE
8
FRONT
10
2.025000
20
-0.338533
30
0.0
11
2.137500
21
-0.344041
31
0.0
0
LINE
8
FRONT
10
2.137500
20
-0.344041
30
0.0
11
2.250000
21
-0.349550
31
0.0
0
LINE
8
FRONT
10
2.250000
20
-0.349550
30
0.0
11
2.362500
21
-0.355058
31
0.0
0
LINE
8
FRONT
10
2.362500
20
-0.355058
30
0.0
11
2.475000
21
-0.360567
31
0.0
0
LINE
8
FRONT
10
2.475000
20
-0.360567
30
0.0
11
2.587500
21
-0.366075
31
0.0
0
LINE
8
FRONT
10
2.587500
20
-0.366075
30
0.0
11
2.700000
21
-0.371584
31
0.0
0
LINE
8
FRONT
10
2.700000
20
-0.371584
30
0.0
11
2.812500
21
-0.377092
31
0.0
0
LINE
8
FRONT
10
2.812500
20
-0.377092
30
0.0
11
2.925000
21
-0.382600
31
0.0
0
LINE
8
FRONT
10
2.925000
20
-0.382600
30
0.0
11
3.037500
21
-0.388109
31
0.0
0
LINE
8
FRONT
10
3.037500
20
-0.388109
30
0.0
11
3.150000
21
-0.393617
31
0.0
0
LINE
8
FRONT
10
3.150000
20
-0.393617
30
0.0
11
3.262500
21
-0.399126
31
0.0
0
LINE
8
FRONT
10
3.262500
20
-0.399126
30
0.0
11
3.375000
21
-0.404634
31
0.0
0
LINE
8
FRONT
10
3.375000
20
-0.404634
30
0.0
11
3.487500
21
-0.410143
31
0.0
0
LINE
8
FRONT
10
3.487500
20
-0.410143
30
0.0
11
3.600000
21
-0.415651
31
0.0
0
LINE
8
FRONT
10
3.600000
20
-0.415651
30
0.0
11
3.712500
21
-0.421160
31
0.0
0
LINE
8
FRONT
10
3.712500
20
-0.421160
30
0.0
11
3.825000
21
-0.426668
31
0.0
0
LINE
8
FRONT
10
3.825000
20
-0.426668
30
0.0
11
3.937500
21
-0.432177
31
0.0
0
LINE
8
FRONT
10
3.937500
20
-0.432177
30
0.0
11
4.050000
21
-0.437685
31
0.0
0
LINE
8
FRONT
10
4.050000
20
-0.437685
30
0.0
11
4.162500
21
-0.443193
31
0.0
0
LINE
8
FRONT
10
4.162500
20
-0.443193
30
0.0
11
4.275000
21
-0.448702
31
0.0
0
LINE
8
FRONT
10
4.275000
20
-0.448702
30
0.0
11
4.387500
21
-0.454210
31
0.0
0
LINE
8
FRONT
10
4.387500
20
-0.454210
30
0.0
11
4.500000
21
-0.459719
31
0.0
0
LINE
8
FRONT
10
4.500000
20
-0.459719
30
0.0
11
4.612500
21
-0.454210
31
0.0
0
LINE
8
FRONT
10
4.612500
20
-0.454210
30
0.0
11
4.725000
21
-0.448702
31
0.0
0
LINE
8
FRONT
10
4.725000
20
-0.448702
30
0.0
11
4.837500
21
-0.443193
31
0.0
0
LINE
8
FRONT
10
4.837500
20
-0.443193
30
0.0
11
4.950000
21
-0.437685
31
0.0
0
LINE
8
FRONT
10
4.950000
20
-0.437685
30
0.0
11
5.062500
21
-0.432177
31
0.0
0
LINE
8
FRONT
10
5.062500
20
-0.432177
30
0.0
11
5.175000
21
-0.426668
31
0.0
0
LINE
8
FRONT
10
5.175000
20
-0.426668
30
0.0
11
5.287500
21
-0.421160
31
0.0
0
LINE
8
FRONT
10
5.287500
20
-0.421160
30
0.0
11
5.400000
21
-0.415651
31
0.0
0
LINE
8
FRONT
10
5.400000
20
-0.415651
30
0.0
11
5.512500
21
-0.410143
31
0.0
0
LINE
8
FRONT
10
5.512500
20
-0.410143
30
0.0
11
5.625000
21
-0.404634
31
0.0
0
LINE
8
FRONT
10
5.625000
20
-0.404634
30
0.0
11
5.737500
21
-0.399126
31
0.0
0
LINE
8
FRONT
10
5.737500
20
-0.399126
30
0.0
11
5.850000
21
-0.393617
31
0.0
0
LINE
8
FRONT
10
5.850000
20
-0.393617
30
0.0
11
5.962500
21
-0.388109
31
0.0
0
LINE
8
FRONT
10
5.962500
20
-0.388109
30
0.0
11
6.075000
21
-0.382600
31
0.0
0
LINE
8
FRONT
10
6.075000
20
-0.382600
30
0.0
11
6.187500
21
-0.377092
31
0.0
0
LINE
8
FRONT
10
6.187500
20
-0.377092
30
0.0
11
6.300000
21
-0.371584
31
0.0
0
LINE
8
FRONT
10
6.300000
20
-0.371584
30
0.0
11
6.412500
21
-0.366075
31
0.0
0
LINE
8
FRONT
10
6.412500
20
-0.366075
30
0.0
11
6.525000
21
-0.360567
31
0.0
0
LINE
8
FRONT
10
6.525000
20
-0.360567
30
0.0
11
6.637500
21
-0.355058
31
0.0
0
LINE
8
FRONT
10
6.637500
20
-0.355058
30
0.0
11
6.750000
21
-0.349550
31
0.0
0
LINE
8
FRONT
10
6.750000
20
-0.349550
30
0.0
11
6.862500
21
-0.344041
31
0.0
0
LINE
8
FRONT
10
6.862500
20
-0.344041
30
0.0
11
6.975000
21
-0.338533
31
0.0
0
LINE
8
FRONT
10
6.975000
20
-0.338533
30
0.0
11
7.087500
21
-0.333024
31
0.0
0
LINE
8
FRONT
10
7.087500
20
-0.333024
30
0.0
11
7.200000
21
-0.327516
31
0.0
0
LINE
8
FRONT
10
7.200000
20
-0.327516
30
0.0
11
7.312500
21
-0.322008
31
0.0
0
LINE
8
FRONT
10
7.312500
20
-0.322008
30
0.0
11
7.425000
21
-0.316499
31
0.0
0
LINE
8
FRONT
10
7.425000
20
-0.316499
30
0.0
11
7.537500
21
-0.310991
31
0.0
0
LINE
8
FRONT
10
7.537500
20
-0.310991
30
0.0
11
7.650000
21
-0.305482
31
0.0
0
LINE
8
FRONT
10
7.650000
20
-0.305482
30
0.0
11
7.762500
21
-0.299974
31
0.0
0
LINE
8
FRONT
10
7.762500
20
-0.299974
30
0.0
11
7.875000
21
-0.294465
31
0.0
0
LINE
8
FRONT
10
7.875000
20
-0.294465
30
0.0
11
7.987500
21
-0.288957
31
0.0
0
LINE
8
FRONT
10
7.987500
20
-0.288957
30
0.0
11
8.100000
21
-0.283448
31
0.0
0
LINE
8
FRONT
10
8.100000
20
-0.283448
30
0.0
11
8.212500
21
-0.277940
31
0.0
0
LINE
8
FRONT
10
8.212500
20
-0.277940
30
0.0
11
8.325000
21
-0.272431
31
0.0
0
LINE
8
FRONT
10
8.325000
20
-0.272431
30
0.0
11
8.437500
21
-0.266923
31
0.0
0
LINE
8
FRONT
10
8.437500
20
-0.266923
30
0.0
11
8.500000
21
-0.263863
31
0.0
0
LINE
8
FRONT
10
8.500000
20
-0.263863
30
0.0
11
8.550000
21
-0.261415
31
0.0
0
LINE
8
FRONT
10
8.550000
20
-0.261415
30
0.0
11
8.662500
21
-0.255906
31
0.0
0
LINE
8
FRONT
10
8.662500
20
-0.255906
30
0.0
11
8.775000
21
-0.250398
31
0.0
0
LINE
8
FRONT
10
8.775000
20
-0.250398
30
0.0
11
8.887500
21
-0.244889
31
0.0
0
LINE
8
FRONT
10
8.887500
20
-0.244889
30
0.0
11
9.000000
21
-0.239381
31
0.0
0
LINE
8
FRONT
10
0.000000
20
0.239381
30
0.0
11
0.000000
21
-0.239381
31
0.0
0
LINE
8
FRONT
10
9.000000
20
0.239381
30
0.0
11
9.000000
21
-0.239381
31
0.0
0
LINE
8
TOP
10
0.000000
20
2.239156
30
0.0
11
0.112500
21
2.243749
31
0.0
0
LINE
8
TOP
10
0.112500
20
2.243749
30
0.0
11
0.225000
21
2.248342
31
0.0
0
LINE
8
TOP
10
0.225000
20
2.248342
30
0.0
11
0.337500
21
2.252935
31
0.0
0
LINE
8
TOP
10
0.337500
20
2.252935
30
0.0
11
0.450000
21
2.257528
31
0.0
0
LINE
8
TOP
10
0.450000
20
2.257528
30
0.0
11
0.500000
21
2.259570
31
0.0
0
LINE
8
TOP
10
0.500000
20
2.259570
30
0.0
11
0.562500
21
2.262121
31
0.0
0
LINE
8
TOP
10
0.562500
20
2.262121
30
0.0
11
0.675000
21
2.266714
31
0.0
0
LINE
8
TOP
10
0.675000
20
2.266714
30
0.0
11
0.787500
21
2.271307
31
0.0
0
LINE
8
TOP
10
0.787500
20
2.271307
30
0.0
11
0.900000
21
2.275900
31
0.0
0
LINE
8
TOP
10
0.900000
20
2.275900
30
0.0
11
1.012500
21
2.280493
31
0.0
0
LINE
8
TOP
10
1.012500
20
2.280493
30
0.0
11
1.125000
21
2.285086
31
0.0
0
LINE
8
TOP
10
1.125000
20
2.285086
30
0.0
11
1.237500
21
2.289679
31
0.0
0
LINE
8
TOP
10
1.237500
20
2.289679
30
0.0
11
1.350000
21
2.294272
31
0.0
0
LINE
8
TOP
10
1.350000
20
2.294272
30
0.0
11
1.462500
21
2.298865
31
0.0
0
LINE
8
TOP
10
1.462500
20
2.298865
30
0.0
11
1.575000
21
2.303458
31
0.0
0
LINE
8
TOP
10
1.575000
20
2.303458
30
0.0
11
1.687500
21
2.308051
31
0.0
0
LINE
8
TOP
10
1.687500
20
2.308051
30
0.0
11
1.800000
21
2.312644
31
0.0
0
LINE
8
TOP
10
1.800000
20
2.312644
30
0.0
11
1.912500
21
2.317237
31
0.0
0
LINE
8
TOP
10
1.912500
20
2.317237
30
0.0
11
2.025000
21
2.321830
31
0.0
0
LINE
8
TOP
10
2.025000
20
2.321830
30
0.0
11
2.137500
21
2.326423
31
0.0
0
LINE
8
TOP
10
2.137500
20
2.326423
30
0.0
11
2.250000
21
2.331016
31
0.0
0
LINE
8
TOP
10
2.250000
20
2.331016
30
0.0
11
2.362500
21
2.335609
31
0.0
0
LINE
8
TOP
10
2.362500
20
2.335609
30
0.0
11
2.475000
21
2.340202
31
0.0
0
LINE
8
TOP
10
2.475000
20
2.340202
30
0.0
11
2.587500
21
2.344795
31
0.0
0
LINE
8
TOP
10
2.587500
20
2.344795
30
0.0
11
2.700000
21
2.349388
31
0.0
0
LINE
8
TOP
10
2.700000
20
2.349388
30
0.0
11
2.812500
21
2.353981
31
0.0
0
LINE
8
TOP
10
2.812500
20
2.353981
30
0.0
11
2.925000
21
2.358574
31
0.0
0
LINE
8
TOP
10
2.925000
20
2.358574
30
0.0
11
3.037500
21
2.363167
31
0.0
0
LINE
8
TOP
10
3.037500
20
2.363167
30
0.0
11
3.150000
21
2.367760
31
0.0
0
LINE
8
TOP
10
3.150000
20
2.367760
30
0.0
11
3.262500
21
2.372353
31
0.0
0
LINE
8
TOP
10
3.262500
20
2.372353
30
0.0
11
3.375000
21
2.376946
31
0.0
0
LINE
8
TOP
10
3.375000
20
2.376946
30
0.0
11
3.487500
21
2.381539
31
0.0
0
LINE
8
TOP
10
3.487500
20
2.381539
30
0.0
11
3.600000
21
2.386132
31
0.0
0
LINE
8
TOP
10
3.600000
20
2.386132
30
0.0
11
3.712500
21
2.390725
31
0.0
0
LINE
8
TOP
10
3.712500
20
2.390725
30
0.0
11
3.825000
21
2.395318
31
0.0
0
LINE
8
TOP
10
3.825000
20
2.395318
30
0.0
11
3.937500
21
2.399911
31
0.0
0
LINE
8
TOP
10
3.937500
20
2.399911
30
0.0
11
4.050000
21
2.404503
31
0.0
0
LINE
8
TOP
10
4.050000
20
2.404503
30
0.0
11
4.162500
21
2.409096
31
0.0
0
LINE
8
TOP
10
4.162500
20
2.409096
30
0.0
11
4.275000
21
2.413689
31
0.0
0
LINE
8
TOP
10
4.275000
20
2.413689
30
0.0
11
4.387500
21
2.418282
31
0.0
0
LINE
8
TOP
10
4.387500
20
2.418282
30
0.0
11
4.500000
21
2.422875
31
0.0
0
LINE
8
TOP
10
4.500000
20
2.422875
30
0.0
11
4.612500
21
2.418282
31
0.0
0
LINE
8
TOP
10
4.612500
20
2.418282
30
0.0
11
4.725000
21
2.413689
31
0.0
0
LINE
8
TOP
10
4.725000
20
2.413689
30
0.0
11
4.837500
21
2.409096
31
0.0
0
LINE
8
TOP
10
4.837500
20
2.409096
30
0.0
11
4.950000
21
2.404503
31
0.0
0
LINE
8
TOP
10
4.950000
20
2.404503
30
0.0
11
5.062500
21
2.399911
31
0.0
0
LINE
8
TOP
10
5.062500
20
2.399911
30
0.0
11
5.175000
21
2.395318
31
0.0
0
LINE
8
TOP
10
5.175000
20
2.395318
30
0.0
11
5.287500
21
2.390725
31
0.0
0
LINE
8
TOP
10
5.287500
20
2.390725
30
0.0
11
5.400000
21
2.386132
31
0.0
0
LINE
8
TOP
10
5.400000
20
2.386132
30
0.0
11
5.512500
21
2.381539
31
0.0
0
LINE
8
TOP
10
5.512500
20
2.381539
30
0.0
11
5.625000
21
2.376946
31
0.0
0
LINE
8
TOP
10
5.625000
20
2.376946
30
0.0
11
5.737500
21
2.372353
31
0.0
0
LINE
8
TOP
10
5.737500
20
2.372353
30
0.0
11
5.850000
21
2.367760
31
0.0
0
LINE
8
TOP
10
5.850000
20
2.367760
30
0.0
11
5.962500
21
2.363167
31
0.0
0
LINE
8
TOP
10
5.962500
20
2.363167
30
0.0
11
6.075000
21
2.358574
31
0.0
0
LINE
8
TOP
10
6.075000
20
2.358574
30
0.0
11
6.187500
21
2.353981
31
0.0
0
LINE
8
TOP
10
6.187500
20
2.353981
30
0.0
11
6.300000
21
2.349388
31
0.0
0
LINE
8
TOP
10
6.300000
20
2.349388
30
0.0
11
6.412500
21
2.344795
31
0.0
0
LINE
8
TOP
10
6.412500
20
2.344795
30
0.0
11
6.525000
21
2.340202
31
0.0
0
LINE
8
TOP
10
6.525000
20
2.340202
30
0.0
11
6.637500
21
2.335609
31
0.0
0
LINE
8
TOP
10
6.637500
20
2.335609
30
0.0
11
6.750000
21
2.331016
31
0.0
0
LINE
8
TOP
10
6.750000
20
2.331016
30
0.0
11
6.862500
21
2.326423
31
0.0
0
LINE
8
TOP
10
6.862500
20
2.326423
30
0.0
11
6.975000
21
2.321830
31
0.0
0
LINE
8
TOP
10
6.975000
20
2.321830
30
0.0
11
7.087500
21
2.317237
31
0.0
0
LINE
8
TOP
10
7.087500
20
2.317237
30
0.0
11
7.200000
21
2.312644
31
0.0
0
LINE
8
TOP
10
7.200000
20
2.312644
30
0.0
11
7.312500
21
2.308051
31
0.0
0
LINE
8
TOP
10
7.312500
20
2.308051
30
0.0
11
7.425000
21
2.303458
31
0.0
0
LINE
8
TOP
10
7.425000
20
2.303458
30
0.0
11
7.537500
21
2.298865
31
0.0
0
LINE
8
TOP
10
7.537500
20
2.298865
30
0.0
11
7.650000
21
2.294272
31
0.0
0
LINE
8
TOP
10
7.650000
20
2.294272
30
0.0
11
7.762500
21
2.289679
31
0.0
0
LINE
8
TOP
10
7.762500
20
2.289679
30
0.0
11
7.875000
21
2.285086
31
0.0
0
LINE
8
TOP
10
7.875000
20
2.285086
30
0.0
11
7.987500
21
2.280493
31
0.0
0
LINE
8
TOP
10
7.987500
20
2.280493
30
0.0
11
8.100000
21
2.275900
31
0.0
0
LINE
8
TOP
10
8.100000
20
2.275900
30
0.0
11
8.212500
21
2.271307
31
0.0
0
LINE
8
TOP
10
8.212500
20
2.271307
30
0.0
11
8.325000
21
2.266714
31
0.0
0
LINE
8
TOP
10
8.325000
20
2.266714
30
0.0
11
8.437500
21
2.262121
31
0.0
0
LINE
8
TOP
10
8.437500
20
2.262121
30
0.0
11
8.500000
21
2.259570
31
0.0
0
LINE
8
TOP
10
8.500000
20
2.259570
30
0.0
11
8.550000
21
2.257528
31
0.0
0
LINE
8
TOP
10
8.550000
20
2.257528
30
0.0
11
8.662500
21
2.252935
31
0.0
0
LINE
8
TOP
10
8.662500
20
2.252935
30
0.0
11
8.775000
21
2.248342
31
0.0
0
LINE
8
TOP
10
8.775000
20
2.248342
30
0.0
11
8.887500
21
2.243749
31
0.0
0
LINE
8
TOP
10
8.887500
20
2.243749
30
0.0
11
9.000000
21
2.239156
31
0.0
0
LINE
8
TOP
10
0.000000
20
2.019156
30
0.0
11
0.112500
21
2.014563
31
0.0
0
LINE
8
TOP
10
0.112500
20
2.014563
30
0.0
11
0.225000
21
2.009970
31
0.0
0
LINE
8
TOP
10
0.225000
20
2.009970
30
0.0
11
0.337500
21
2.005377
31
0.0
0
LINE
8
TOP
10
0.337500
20
2.005377
30
0.0
11
0.450000
21
2.000784
31
0.0
0
LINE
8
TOP
10
0.450000
20
2.000784
30
0.0
11
0.500000
21
1.998743
31
0.0
0
LINE
8
TOP
10
0.500000
20
1.998743
30
0.0
11
0.562500
21
1.996191
31
0.0
0
LINE
8
TOP
10
0.562500
20
1.996191
30
0.0
11
0.675000
21
1.991598
31
0.0
0
LINE
8
TOP
10
0.675000
20
1.991598
30
0.0
11
0.787500
21
1.987005
31
0.0
0
LINE
8
TOP
10
0.787500
20
1.987005
30
0.0
11
0.900000
21
1.982413
31
0.0
0
LINE
8
TOP
10
0.900000
20
1.982413
30
0.0
11
1.012500
21
1.977820
31
0.0
0
LINE
8
TOP
10
1.012500
20
1.977820
30
0.0
11
1.125000
21
1.973227
31
0.0
0
LINE
8
TOP
10
1.125000
20
1.973227
30
0.0
11
1.237500
21
1.968634
31
0.0
0
LINE
8
TOP
10
1.237500
20
1.968634
30
0.0
11
1.350000
21
1.964041
31
0.0
0
LINE
8
TOP
10
1.350000
20
1.964041
30
0.0
11
1.462500
21
1.959448
31
0.0
0
LINE
8
TOP
10
1.462500
20
1.959448
30
0.0
11
1.575000
21
1.954855
31
0.0
0
LINE
8
TOP
10
1.575000
20
1.954855
30
0.0
11
1.687500
21
1.950262
31
0.0
0
LINE
8
TOP
10
1.687500
20
1.950262
30
0.0
11
1.800000
21
1.945669
31
0.0
0
LINE
8
TOP
10
1.800000
20
1.945669
30
0.0
11
1.912500
21
1.941076
31
0.0
0
LINE
8
TOP
10
1.912500
20
1.941076
30
0.0
11
2.025000
21
1.936483
31
0.0
0
LINE
8
TOP
10
2.025000
20
1.936483
30
0.0
11
2.137500
21
1.931890
31
0.0
0
LINE
8
TOP
10
2.137500
20
1.931890
30
0.0
11
2.250000
21
1.927297
31
0.0
0
LINE
8
TOP
10
2.250000
20
1.927297
30
0.0
11
2.362500
21
1.922704
31
0.0
0
LINE
8
TOP
10
2.362500
20
1.922704
30
0.0
11
2.475000
21
1.918111
31
0.0
0
LINE
8
TOP
10
2.475000
20
1.918111
30
0.0
11
2.587500
21
1.913518
31
0.0
0
LINE
8
TOP
10
2.587500
20
1.913518
30
0.0
11
2.700000
21
1.908925
31
0.0
0
LINE
8
TOP
10
2.700000
20
1.908925
30
0.0
11
2.812500
21
1.904332
31
0.0
0
LINE
8
TOP
10
2.812500
20
1.904332
30
0.0
11
2.925000
21
1.899739
31
0.0
0
LINE
8
TOP
10
2.925000
20
1.899739
30
0.0
11
3.037500
21
1.895146
31
0.0
0
LINE
8
TOP
10
3.037500
20
1.895146
30
0.0
11
3.150000
21
1.890553
31
0.0
0
LINE
8
TOP
10
3.150000
20
1.890553
30
0.0
11
3.262500
21
1.885960
31
0.0
0
LINE
8
TOP
10
3.262500
20
1.885960
30
0.0
11
3.375000
21
1.881367
31
0.0
0
LINE
8
TOP
10
3.375000
20
1.881367
30
0.0
11
3.487500
21
1.876774
31
0.0
0
LINE
8
TOP
10
3.487500
20
1.876774
30
0.0
11
3.600000
21
1.872181
31
0.0
0
LINE
8
TOP
10
3.600000
20
1.872181
30
0.0
11
3.712500
21
1.867588
31
0.0
0
LINE
8
TOP
10
3.712500
20
1.867588
30
0.0
11
3.825000
21
1.862995
31
0.0
0
LINE
8
TOP
10
3.825000
20
1.862995
30
0.0
11
3.937500
21
1.858402
31
0.0
0
LINE
8
TOP
10
3.937500
20
1.858402
30
0.0
11
4.050000
21
1.853809
31
0.0
0
LINE
8
TOP
10
4.050000
20
1.853809
30
0.0
11
4.162500
21
1.849216
31
0.0
0
LINE
8
TOP
10
4.162500
20
1.849216
30
0.0
11
4.275000
21
1.844623
31
0.0
0
LINE
8
TOP
10
4.275000
20
1.844623
30
0.0
11
4.387500
21
1.840030
31
0.0
0
LINE
8
TOP
10
4.387500
20
1.840030
30
0.0
11
4.500000
21
1.835437
31
0.0
0
LINE
8
TOP
10
4.500000
20
1.835437
30
0.0
11
4.612500
21
1.840030
31
0.0
0
LINE
8
TOP
10
4.612500
20
1.840030
30
0.0
11
4.725000
21
1.844623
31
0.0
0
LINE
8
TOP
10
4.725000
20
1.844623
30
0.0
11
4.837500
21
1.849216
31
0.0
0
LINE
8
TOP
10
4.837500
20
1.849216
30
0.0
11
4.950000
21
1.853809
31
0.0
0
LINE
8
TOP
10
4.950000
20
1.853809
30
0.0
11
5.062500
21
1.858402
31
0.0
0
LINE
8
TOP
10
5.062500
20
1.858402
30
0.0
11
5.175000
21
1.862995
31
0.0
0
LINE
8
TOP
10
5.175000
20
1.862995
30
0.0
11
5.287500
21
1.867588
31
0.0
0
LINE
8
TOP
10
5.287500
20
1.867588
30
0.0
11
5.400000
21
1.872181
31
0.0
0
LINE
8
TOP
10
5.400000
20
1.872181
30
0.0
11
5.512500
21
1.876774
31
0.0
0
LINE
8
TOP
10
5.512500
20
1.876774
30
0.0
11
5.625000
21
1.881367
31
0.0
0
LINE
8
TOP
10
5.625000
20
1.881367
30
0.0
11
5.737500
21
1.885960
31
0.0
0
LINE
8
TOP
10
5.737500
20
1.885960
30
0.0
11
5.850000
21
1.890553
31
0.0
0
LINE
8
TOP
10
5.850000
20
1.890553
30
0.0
11
5.962500
21
1.895146
31
0.0
0
LINE
8
TOP
10
5.962500
20
1.895146
30
0.0
11
6.075000
21
1.899739
31
0.0
0
LINE
8
TOP
10
6.075000
20
1.899739
30
0.0
11
6.187500
21
1.904332
31
0.0
0
LINE
8
TOP
10
6.187500
20
1.904332
30
0.0
11
6.300000
21
1.908925
31
0.0
0
LINE
8
TOP
10
6.300000
20
1.908925
30
0.0
11
6.412500
21
1.913518
31
0.0
0
LINE
8
TOP
10
6.412500
20
1.913518
30
0.0
11
6.525000
21
1.918111
31
0.0
0
LINE
8
TOP
10
6.525000
20
1.918111
30
0.0
11
6.637500
21
1.922704
31
0.0
0
LINE
8
TOP
10
6.637500
20
1.922704
30
0.0
11
6.750000
21
1.927297
31
0.0
0
LINE
8
TOP
10
6.750000
20
1.927297
30
0.0
11
6.862500
21
1.931890
31
0.0
0
LINE
8
TOP
10
6.862500
20
1.931890
30
0.0
11
6.975000
21
1.936483
31
0.0
0
LINE
8
TOP
10
6.975000
20
1.936483
30
0.0
11
7.087500
21
1.941076
31
0.0
0
LINE
8
TOP
10
7.087500
20
1.941076
30
0.0
11
7.200000
21
1.945669
31
0.0
0
LINE
8
TOP
10
7.200000
20
1.945669
30
0.0
11
7.312500
21
1.950262
31
0.0
0
LINE
8
TOP
10
7.312500
20
1.950262
30
0.0
11
7.425000
21
1.954855
31
0.0
0
LINE
8
TOP
10
7.425000
20
1.954855
30
0.0
11
7.537500
21
1.959448
31
0.0
0
LINE
8
TOP
10
7.537500
20
1.959448
30
0.0
11
7.650000
21
1.964041
31
0.0
0
LINE
8
TOP
10
7.650000
20
1.964041
30
0.0
11
7.762500
21
1.968634
31
0.0
0
LINE
8
TOP
10
7.762500
20
1.968634
30
0.0
11
7.875000
21
1.973227
31
0.0
0
LINE
8
TOP
10
7.875000
20
1.973227
30
0.0
11
7.987500
21
1.977820
31
0.0
0
LINE
8
TOP
10
7.987500
20
1.977820
30
0.0
11
8.100000
21
1.982413
31
0.0
0
LINE
8
TOP
10
8.100000
20
1.982413
30
0.0
11
8.212500
21
1.987005
31
0.0
0
LINE
8
TOP
10
8.212500
20
1.987005
30
0.0
11
8.325000
21
1.991598
31
0.0
0
LINE
8
TOP
10
8.325000
20
1.991598
30
0.0
11
8.437500
21
1.996191
31
0.0
0
LINE
8
TOP
10
8.437500
20
1.996191
30
0.0
11
8.500000
21
1.998743
31
0.0
0
LINE
8
TOP
10
8.500000
20
1.998743
30
0.0
11
8.550000
21
2.000784
31
0.0
0
LINE
8
TOP
10
8.550000
20
2.000784
30
0.0
11
8.662500
21
2.005377
31
0.0
0
LINE
8
TOP
10
8.662500
20
2.005377
30
0.0
11
8.775000
21
2.009970
31
0.0
0
LINE
8
TOP
10
8.775000
20
2.009970
30
0.0
11
8.887500
21
2.014563
31
0.0
0
LINE
8
TOP
10
8.887500
20
2.014563
30
0.0
11
9.000000
21
2.019156
31
0.0
0
LINE
8
TOP
10
0.000000
20
2.239156
30
0.0
11
0.000000
21
2.019156
31
0.0
0
LINE
8
TOP
10
9.000000
20
2.239156
30
0.0
11
9.000000
21
2.019156
31
0.0
0
LINE
8
SECTION
10
10.206281
20
-0.459719
30
0.0
11
10.793719
21
-0.459719
31
0.0
0
LINE
8
SECTION
10
10.793719
20
-0.459719
30
0.0
11
10.793719
21
0.459719
31
0.0
0
LINE
8
SECTION
10
10.793719
20
0.459719
30
0.0
11
10.206281
21
0.459719
31
0.0
0
LINE
8
SECTION
10
10.206281
20
0.459719
30
0.0
11
10.206281
21
-0.459719
31
0.0
0
LINE
8
SECTION
10
10.246281
20
-0.419719
30
0.0
11
10.753719
21
-0.419719
31
0.0
0
LINE
8
SECTION
10
10.753719
20
-0.419719
30
0.0
11
10.753719
21
0.419719
31
0.0
0
LINE
8
SECTION
10
10.753719
20
0.419719
30
0.0
11
10.246281
21
0.419719
31
0.0
0
LINE
8
SECTION
10
10.246281
20
0.419719
30
0.0
11
10.246281
21
-0.419719
31
0.0
0
LINE
8
SECTION
10
10.246281
20
0.327337
30
0.0
11
10.286281
21
0.327337
31
0.0
0
LINE
8
SECTION
10
10.286281
20
0.327337
30
0.0
11
10.286281
21
0.419719
31
0.0
0
LINE
8
SECTION
10
10.286281
20
0.419719
30
0.0
11
10.246281
21
0.419719
31
0.0
0
LINE
8
SECTION
10
10.246281
20
0.419719
30
0.0
11
10.246281
21
0.327337
31
0.0
0
LINE
8
SECTION
10
10.246281
20
-0.419719
30
0.0
11
10.286281
21
-0.419719
31
0.0
0
LINE
8
SECTION
10
10.286281
20
-0.419719
30
0.0
11
10.286281
21
-0.327337
31
0.0
0
LINE
8
SECTION
10
10.286281
20
-0.327337
30
0.0
11
10.246281
21
-0.327337
31
0.0
0
LINE
8
SECTION
10
10.246281
20
-0.327337
30
0.0
11
10.246281
21
-0.419719
31
0.0
0
LINE
8
SECTION
10
10.713719
20
0.327337
30
0.0
11
10.753719
21
0.327337
31
0.0
0
LINE
8
SECTION
10
10.753719
20
0.327337
30
0.0
11
10.753719
21
0.419719
31
0.0
0
LINE
8
SECTION
10
10.753719
20
0.419719
30
0.0
11
10.713719
21
0.419719
31
0.0
0
LINE
8
SECTION
10
10.713719
20
0.419719
30
0.0
11
10.713719
21
0.327337
31
0.0
0
LINE
8
SECTION
10
10.713719
20
-0.419719
30
0.0
11
10.753719
21
-0.419719
31
0.0
0
LINE
8
SECTION
10
10.753719
20
-0.419719
30
0.0
11
10.753719
21
-0.327337
31
0.0
0
LINE
8
SECTION
10
10.753719
20
-0.327337
30
0.0
11
10.713719
21
-0.327337
31
0.0
0
LINE
8
SECTION
10
10.713719
20
-0.327337
30
0.0
11
10.713719
21
-0.419719
31
0.0
0
ENDSEC
0
EOF
