0
SECTION
2
HEADER
9
$INSUNITS
70
1
0
ENDSEC
0
SECTION
2
ENTITIES
0
LINE
8
FRONT
10
0.000000
20
0.260418
30
0.0
11
0.112500
21
0.262312
31
0.0
0
LINE
8
FRONT
10
0.112500
20
0.262312
30
0.0
11
0.225000
21
0.264206
31
0.0
0
LINE
8
FRONT
10
0.225000
20
0.264206
30
0.0
11
0.337500
21
0.266100
31
0.0
0
LINE
8
FRONT
10
0.337500
20
0.266100
30
0.0
11
0.450000
21
0.267993
31
0.0
0
LINE
8
FRONT
10
0.450000
20
0.267993
30
0.0
11
0.500000
21
0.268835
31
0.0
0
LINE
8
FRONT
10
0.500000
20
0.268835
30
0.0
11
0.562500
21
0.269887
31
0.0
0
LINE
8
FRONT
10
0.562500
20
0.269887
30
0.0
11
0.675000
21
0.271781
31
0.0
0
LINE
8
FRONT
10
0.675000
20
0.271781
30
0.0
11
0.787500
21
0.273675
31
0.0
0
LINE
8
FRONT
10
0.787500
20
0.273675
30
0.0
11
0.900000
21
0.275568
31
0.0
0
LINE
8
FRONT
10
0.900000
20
0.275568
30
0.0
11
1.012500
21
0.277462
31
0.0
0
LINE
8
FRONT
10
1.012500
20
0.277462
30
0.0
11
1.125000
21
0.279356
31
0.0
0
LINE
8
FRONT
10
1.125000
20
0.279356
30
0.0
11
1.237500
21
0.281250
31
0.0
0
LINE
8
FRONT
10
1.237500
20
0.281250
30
0.0
11
1.350000
21
0.283143
31
0.0
0
LINE
8
FRONT
10
1.350000
20
0.283143
30
0.0
11
1.462500
21
0.285037
31
0.0
0
LINE
8
FRONT
10
1.462500
20
0.285037
30
0.0
11
1.575000
21
0.286931
31
0.0
0
LINE
8
FRONT
10
1.575000
20
0.286931
30
0.0
11
1.687500
21
0.288825
31
0.0
0
LINE
8
FRONT
10
1.687500
20
0.288825
30
0.0
11
1.800000
21
0.290718
31
0.0
0
LINE
8
FRONT
10
1.800000
20
0.290718
30
0.0
11
1.912500
21
0.292612
31
0.0
0
LINE
8
FRONT
10
1.912500
20
0.292612
30
0.0
11
2.025000
21
0.294506
31
0.0
0
LINE
8
FRONT
10
2.025000
20
0.294506
30
0.0
11
2.137500
21
0.296400
31
0.0
0
LINE
8
FRONT
10
2.137500
20
0.296400
30
0.0
11
2.250000
21
0.298294
31
0.0
0
LINE
8
FRONT
10
2.250000
20
0.298294
30
0.0
11
2.362500
21
0.300187
31
0.0
0
LINE
8
FRONT
10
2.362500
20
0.300187
30
0.0
11
2.475000
21
0.302081
31
0.0
0
LINE
8
FRONT
10
2.475000
20
0.302081
30
0.0
11
2.587500
21
0.303975
31
0.0
0
LINE
8
FRONT
10
2.587500
20
0.303975
30
0.0
11
2.700000
21
0.305869
31
0.0
0
LINE
8
FRONT
10
2.700000
20
0.305869
30
0.0
11
2.812500
21
0.307762
31
0.0
0
LINE
8
FRONT
10
2.812500
20
0.307762
30
0.0
11
2.925000
21
0.309656
31
0.0
0
LINE
8
FRONT
10
2.925000
20
0.309656
30
0.0
11
3.037500
21
0.311550
31
0.0
0
LINE
8
FRONT
10
3.037500
20
0.311550
30
0.0
11
3.150000
21
0.313444
31
0.0
0
LINE
8
FRONT
10
3.150000
20
0.313444
30
0.0
11
3.262500
21
0.315337
31
0.0
0
LINE
8
FRONT
10
3.262500
20
0.315337
30
0.0
11
3.375000
21
0.317231
31
0.0
0
LINE
8
FRONT
10
3.375000
20
0.317231
30
0.0
11
3.487500
21
0.319125
31
0.0
0
LINE
8
FRONT
10
3.487500
20
0.319125
30
0.0
11
3.600000
21
0.321019
31
0.0
0
LINE
8
FRONT
10
3.600000
20
0.321019
30
0.0
11
3.712500
21
0.322912
31
0.0
0
LINE
8
FRONT
10
3.712500
20
0.322912
30
0.0
11
3.825000
21
0.324806
31
0.0
0
LINE
8
FRONT
10
3.825000
20
0.324806
30
0.0
11
3.937500
21
0.326700
31
0.0
0
LINE
8
FRONT
10
3.937500
20
0.326700
30
0.0
11
4.050000
21
0.328594
31
0.0
0
LINE
8
FRONT
10
4.050000
20
0.328594
30
0.0
11
4.162500
21
0.330487
31
0.0
0
LINE
8
FRONT
10
4.162500
20
0.330487
30
0.0
11
4.275000
21
0.332381
31
0.0
0
LINE
8
FRONT
10
4.275000
20
0.332381
30
0.0
11
4.387500
21
0.334275
31
0.0
0
LINE
8
FRONT
10
4.387500
20
0.334275
30
0.0
11
4.500000
21
0.336169
31
0.0
0
LINE
8
FRONT
10
4.500000
20
0.336169
30
0.0
11
4.612500
21
0.337257
31
0.0
0
LINE
8
FRONT
10
4.612500
20
0.337257
30
0.0
11
4.725000
21
0.338346
31
0.0
0
LINE
8
FRONT
10
4.725000
20
0.338346
30
0.0
11
4.837500
21
0.339435
31
0.0
0
LINE
8
FRONT
10
4.837500
20
0.339435
30
0.0
11
4.950000
21
0.340523
31
0.0
0
LINE
8
FRONT
10
4.950000
20
0.340523
30
0.0
11
5.062500
21
0.341612
31
0.0
0
LINE
8
FRONT
10
5.062500
20
0.341612
30
0.0
11
5.175000
21
0.342701
31
0.0
0
LINE
8
FRONT
10
5.175000
20
0.342701
30
0.0
11
5.287500
21
0.343789
31
0.0
0
LINE
8
FRONT
10
5.287500
20
0.343789
30
0.0
11
5.400000
21
0.344878
31
0.0
0
LINE
8
FRONT
10
5.400000
20
0.344878
30
0.0
11
5.512500
21
0.345966
31
0.0
0
LINE
8
FRONT
10
5.512500
20
0.345966
30
0.0
11
5.625000
21
0.347055
31
0.0
0
LINE
8
FRONT
10
5.625000
20
0.347055
30
0.0
11
5.737500
21
0.348144
31
0.0
0
LINE
8
FRONT
10
5.737500
20
0.348144
30
0.0
11
5.850000
21
0.349232
31
0.0
0
LINE
8
FRONT
10
5.850000
20
0.349232
30
0.0
11
5.962500
21
0.350321
31
0.0
0
LINE
8
FRONT
10
5.962500
20
0.350321
30
0.0
11
6.075000
21
0.351410
31
0.0
0
LINE
8
FRONT
10
6.075000
20
0.351410
30
0.0
11
6.187500
21
0.352498
31
0.0
0
LINE
8
FRONT
10
6.187500
20
0.352498
30
0.0
11
6.300000
21
0.353587
31
0.0
0
LINE
8
FRONT
10
6.300000
20
0.353587
30
0.0
11
6.412500
21
0.354675
31
0.0
0
LINE
8
FRONT
10
6.412500
20
0.354675
30
0.0
11
6.525000
21
0.355764
31
0.0
0
LINE
8
FRONT
10
6.525000
20
0.355764
30
0.0
11
6.637500
21
0.356853
31
0.0
0
LINE
8
FRONT
10
6.637500
20
0.356853
30
0.0
11
6.750000
21
0.357941
31
0.0
0
LINE
8
FRONT
10
6.750000
20
0.357941
30
0.0
11
6.862500
21
0.359030
31
0.0
0
LINE
8
FRONT
10
6.862500
20
0.359030
30
0.0
11
6.975000
21
0.360119
31
0.0
0
LINE
8
FRONT
10
6.975000
20
0.360119
30
0.0
11
7.087500
21
0.361207
31
0.0
0
LINE
8
FRONT
10
7.087500
20
0.361207
30
0.0
11
7.200000
21
0.362296
31
0.0
0
LINE
8
FRONT
10
7.200000
20
0.362296
30
0.0
11
7.312500
21
0.363384
31
0.0
0
LINE
8
FRONT
10
7.312500
20
0.363384
30
0.0
11
7.425000
21
0.364473
31
0.0
0
LINE
8
FRONT
10
7.425000
20
0.364473
30
0.0
11
7.537500
21
0.365562
31
0.0
0
LINE
8
FRONT
10
7.537500
20
0.365562
30
0.0
11
7.650000
21
0.366650
31
0.0
0
LINE
8
FRONT
10
7.650000
20
0.366650
30
0.0
11
7.762500
21
0.367739
31
0.0
0
LINE
8
FRONT
10
7.762500
20
0.367739
30
0.0
11
7.875000
21
0.368828
31
0.0
0
LINE
8
FRONT
10
7.875000
20
0.368828
30
0.0
11
7.987500
21
0.369916
31
0.0
0
LINE
8
FRONT
10
7.987500
20
0.369916
30
0.0
11
8.100000
21
0.371005
31
0.0
0
LINE
8
FRONT
10
8.100000
20
0.371005
30
0.0
11
8.212500
21
0.372093
31
0.0
0
LINE
8
FRONT
10
8.212500
20
0.372093
30
0.0
11
8.325000
21
0.373182
31
0.0
0
LINE
8
FRONT
10
8.325000
20
0.373182
30
0.0
11
8.437500
21
0.374271
31
0.0
0
LINE
8
FRONT
10
8.437500
20
0.374271
30
0.0
11
8.500000
21
0.374876
31
0.0
0
LINE
8
FRONT
10
8.500000
20
0.374876
30
0.0
11
8.550000
21
0.375359
31
0.0
0
LINE
8
FRONT
10
8.550000
20
0.375359
30
0.0
11
8.662500
21
0.376448
31
0.0
0
LINE
8
FRONT
10
8.662500
20
0.376448
30
0.0
11
8.775000
21
0.377537
31
0.0
0
LINE
8
FRONT
10
8.775000
20
0.377537
30
0.0
11
8.887500
21
0.378625
31
0.0
0
LINE
8
FRONT
10
8.887500
20
0.378625
30
0.0
11
9.000000
21
0.379714
31
0.0
0
LINE
8
FRONT
10
0.000000
20
-0.260418
30
0.0
11
0.112500
21
-0.262312
31
0.0
0
LINE
8
FRONT
10
0.112500
20
-0.262312
30
0.0
11
0.225000
21
-0.264206
31
0.0
0
LINE
8
FRONT
10
0.225000
20
-0.264206
30
0.0
11
0.337500
21
-0.266100
31
0.0
0
LINE
8
FRONT
10
0.337500
20
-0.266100
30
0.0
11
0.450000
21
-0.267993
31
0.0
0
LINE
8
FRONT
10
0.450000
20
-0.267993
30
0.0
11
0.500000
21
-0.268835
31
0.0
0
LINE
8
FRONT
10
0.500000
20
-0.268835
30
0.0
11
0.562500
21
-0.269887
31
0.0
0
LINE
8
FRONT
10
0.562500
20
-0.269887
30
0.0
11
0.675000
21
-0.271781
31
0.0
0
LINE
8
FRONT
10
0.675000
20
-0.271781
30
0.0
11
0.787500
21
-0.273675
31
0.0
0
LINE
8
FRONT
10
0.787500
20
-0.273675
30
0.0
11
0.900000
21
-0.275568
31
0.0
0
LINE
8
FRONT
10
0.900000
20
-0.275568
30
0.0
11
1.012500
21
-0.277462
31
0.0
0
LINE
8
FRONT
10
1.012500
20
-0.277462
30
0.0
11
1.125000
21
-0.279356
31
0.0
0
LINE
8
FRONT
10
1.125000
20
-0.279356
30
0.0
11
1.237500
21
-0.281250
31
0.0
0
LINE
8
FRONT
10
1.237500
20
-0.281250
30
0.0
11
1.350000
21
-0.283143
31
0.0
0
LINE
8
FRONT
10
1.350000
20
-0.283143
30
0.0
11
1.462500
21
-0.285037
31
0.0
0
LINE
8
FRONT
10
1.462500
20
-0.285037
30
0.0
11
1.575000
21
-0.286931
31
0.0
0
LINE
8
FRONT
10
1.575000
20
-0.286931
30
0.0
11
1.687500
21
-0.288825
31
0.0
0
LINE
8
FRONT
10
1.687500
20
-0.288825
30
0.0
11
1.800000
21
-0.290718
31
0.0
0
LINE
8
FRONT
10
1.800000
20
-0.290718
30
0.0
11
1.912500
21
-0.292612
31
0.0
0
LINE
8
FRONT
10
1.912500
20
-0.292612
30
0.0
11
2.025000
21
-0.294506
31
0.0
0
LINE
8
FRONT
10
2.025000
20
-0.294506
30
0.0
11
2.137500
21
-0.296400
31
0.0
0
LINE
8
FRONT
10
2.137500
20
-0.296400
30
0.0
11
2.250000
21
-0.298294
31
0.0
0
LINE
8
FRONT
10
2.250000
20
-0.298294
30
0.0
11
2.362500
21
-0.300187
31
0.0
0
LINE
8
FRONT
10
2.362500
20
-0.300187
30
0.0
11
2.475000
21
-0.302081
31
0.0
0
LINE
8
FRONT
10
2.475000
20
-0.302081
30
0.0
11
2.587500
21
-0.303975
31
0.0
0
LINE
8
FRONT
10
2.587500
20
-0.303975
30
0.0
11
2.700000
21
-0.305869
31
0.0
0
LINE
8
FRONT
10
2.700000
20
-0.305869
30
0.0
11
2.812500
21
-0.307762
31
0.0
0
LINE
8
FRONT
10
2.812500
20
-0.307762
30
0.0
11
2.925000
21
-0.309656
31
0.0
0
LINE
8
FRONT
10
2.925000
20
-0.309656
30
0.0
11
3.037500
21
-0.311550
31
0.0
0
LINE
8
FRONT
10
3.037500
20
-0.311550
30
0.0
11
3.150000
21
-0.313444
31
0.0
0
LINE
8
FRONT
10
3.150000
20
-0.313444
30
0.0
11
3.262500
21
-0.315337
31
0.0
0
LINE
8
FRONT
10
3.262500
20
-0.315337
30
0.0
11
3.375000
21
-0.317231
31
0.0
0
LINE
8
FRONT
10
3.375000
20
-0.317231
30
0.0
11
3.487500
21
-0.319125
31
0.0
0
LINE
8
FRONT
10
3.487500
20
-0.319125
30
0.0
11
3.600000
21
-0.321019
31
0.0
0
LINE
8
FRONT
10
3.600000
20
-0.321019
30
0.0
11
3.712500
21
-0.322912
31
0.0
0
LINE
8
FRONT
10
3.712500
20
-0.322912
30
0.0
11
3.825000
21
-0.324806
31
0.0
0
LINE
8
FRONT
10
3.825000
20
-0.324806
30
0.0
11
3.937500
21
-0.326700
31
0.0
0
LINE
8
FRONT
10
3.937500
20
-0.326700
30
0.0
11
4.050000
21
-0.328594
31
0.0
0
LINE
8
FRONT
10
4.050000
20
-0.328594
30
0.0
11
4.162500
21
-0.330487
31
0.0
0
LINE
8
FRONT
10
4.162500
20
-0.330487
30
0.0
11
4.275000
21
-0.332381
31
0.0
0
LINE
8
FRONT
10
4.275000
20
-0.332381
30
0.0
11
4.387500
21
-0.334275
31
0.0
0
LINE
8
FRONT
10
4.387500
20
-0.334275
30
0.0
11
4.500000
21
-0.336169
31
0.0
0
LINE
8
FRONT
10
4.500000
20
-0.336169
30
0.0
11
4.612500
21
-0.337257
31
0.0
0
LINE
8
FRONT
10
4.612500
20
-0.337257
30
0.0
11
4.725000
21
-0.338346
31
0.0
0
LINE
8
FRONT
10
4.725000
20
-0.338346
30
0.0
11
4.837500
21
-0.339435
31
0.0
0
LINE
8
FRONT
10
4.837500
20
-0.339435
30
0.0
11
4.950000
21
-0.340523
31
0.0
0
LINE
8
FRONT
10
4.950000
20
-0.340523
30
0.0
11
5.062500
21
-0.341612
31
0.0
0
LINE
8
FRONT
10
5.062500
20
-0.341612
30
0.0
11
5.175000
21
-0.342701
31
0.0
0
LINE
8
FRONT
10
5.175000
20
-0.342701
30
0.0
11
5.287500
21
-0.343789
31
0.0
0
LINE
8
FRONT
10
5.287500
20
-0.343789
30
0.0
11
5.400000
21
-0.344878
31
0.0
0
LINE
8
FRONT
10
5.400000
20
-0.344878
30
0.0
11
5.512500
21
-0.345966
31
0.0
0
LINE
8
FRONT
10
5.512500
20
-0.345966
30
0.0
11
5.625000
21
-0.347055
31
0.0
0
LINE
8
FRONT
10
5.625000
20
-0.347055
30
0.0
11
5.737500
21
-0.348144
31
0.0
0
LINE
8
FRONT
10
5.737500
20
-0.348144
30
0.0
11
5.850000
21
-0.349232
31
0.0
0
LINE
8
FRONT
10
5.850000
20
-0.349232
30
0.0
11
5.962500
21
-0.350321
31
0.0
0
LINE
8
FRONT
10
5.962500
20
-0.350321
30
0.0
11
6.075000
21
-0.351410
31
0.0
0
LINE
8
FRONT
10
6.075000
20
-0.351410
30
0.0
11
6.187500
21
-0.352498
31
0.0
0
LINE
8
FRONT
10
6.187500
20
-0.352498
30
0.0
11
6.300000
21
-0.353587
31
0.0
0
LINE
8
FRONT
10
6.300000
20
-0.353587
30
0.0
11
6.412500
21
-0.354675
31
0.0
0
LINE
8
FRONT
10
6.412500
20
-0.354675
30
0.0
11
6.525000
21
-0.355764
31
0.0
0
LINE
8
FRONT
10
6.525000
20
-0.355764
30
0.0
11
6.637500
21
-0.356853
31
0.0
0
LINE
8
FRONT
10
6.637500
20
-0.356853
30
0.0
11
6.750000
21
-0.357941
31
0.0
0
LINE
8
FRONT
10
6.750000
20
-0.357941
30
0.0
11
6.862500
21
-0.359030
31
0.0
0
LINE
8
FRONT
10
6.862500
20
-0.359030
30
0.0
11
6.975000
21
-0.360119
31
0.0
0
LINE
8
FRONT
10
6.975000
20
-0.360119
30
0.0
11
7.087500
21
-0.361207
31
0.0
0
LINE
8
FRONT
10
7.087500
20
-0.361207
30
0.0
11
7.200000
21
-0.362296
31
0.0
0
LINE
8
FRONT
10
7.200000
20
-0.362296
30
0.0
11
7.312500
21
-0.363384
31
0.0
0
LINE
8
FRONT
10
7.312500
20
-0.363384
30
0.0
11
7.425000
21
-0.364473
31
0.0
0
LINE
8
FRONT
10
7.425000
20
-0.364473
30
0.0
11
7.537500
21
-0.365562
31
0.0
0
LINE
8
FRONT
10
7.537500
20
-0.365562
30
0.0
11
7.650000
21
-0.366650
31
0.0
0
LINE
8
FRONT
10
7.650000
20
-0.366650
30
0.0
11
7.762500
21
-0.367739
31
0.0
0
LINE
8
FRONT
10
7.762500
20
-0.367739
30
0.0
11
7.875000
21
-0.368828
31
0.0
0
LINE
8
FRONT
10
7.875000
20
-0.368828
30
0.0
11
7.987500
21
-0.369916
31
0.0
0
LINE
8
FRONT
10
7.987500
20
-0.369916
30
0.0
11
8.100000
21
-0.371005
31
0.0
0
LINE
8
FRONT
10
8.100000
20
-0.371005
30
0.0
11
8.212500
21
-0.372093
31
0.0
0
LINE
8
FRONT
10
8.212500
20
-0.372093
30
0.0
11
8.325000
21
-0.373182
31
0.0
0
LINE
8
FRONT
10
8.325000
20
-0.373182
30
0.0
11
8.437500
21
-0.374271
31
0.0
0
LINE
8
FRONT
10
8.437500
20
-0.374271
30
0.0
11
8.500000
21
-0.374876
31
0.0
0
LINE
8
FRONT
10
8.500000
20
-0.374876
30
0.0
11
8.550000
21
-0.375359
31
0.0
0
LINE
8
FRONT
10
8.550000
20
-0.375359
30
0.0
11
8.662500
21
-0.376448
31
0.0
0
LINE
8
FRONT
10
8.662500
20
-0.376448
30
0.0
11
8.775000
21
-0.377537
31
0.0
0
LINE
8
FRONT
10
8.775000
20
-0.377537
30
0.0
11
8.887500
21
-0.378625
31
0.0
0
LINE
8
FRONT
10
8.887500
20
-0.378625
30
0.0
11
9.000000
21
-0.379714
31
0.0
0
LINE
8
FRONT
10
0.000000
20
0.260418
30
0.0
11
0.000000
21
-0.260418
31
0.0
0
LINE
8
FRONT
10
9.000000
20
0.379714
30
0.0
11
9.000000
21
-0.379714
31
0.0
0
LINE
8
TOP
10
0.000000
20
2.071273
30
0.0
11
0.112500
21
2.071952
31
0.0
0
LINE
8
TOP
10
0.112500
20
2.071952
30
0.0
11
0.225000
21
2.072632
31
0.0
0
LINE
8
TOP
10
0.225000
20
2.072632
30
0.0
11
0.337500
21
2.073312
31
0.0
0
LINE
8
TOP
10
0.337500
20
2.073312
30
0.0
11
0.450000
21
2.073992
31
0.0
0
LINE
8
TOP
10
0.450000
20
2.073992
30
0.0
11
0.500000
21
2.074294
31
0.0
0
LINE
8
TOP
10
0.500000
20
2.074294
30
0.0
11
0.562500
21
2.074672
31
0.0
0
LINE
8
TOP
10
0.562500
20
2.074672
30
0.0
11
0.675000
21
2.075352
31
0.0
0
LINE
8
TOP
10
0.675000
20
2.075352
30
0.0
11
0.787500
21
2.076032
31
0.0
0
LINE
8
TOP
10
0.787500
20
2.076032
30
0.0
11
0.900000
21
2.076712
31
0.0
0
LINE
8
TOP
10
0.900000
20
2.076712
30
0.0
11
1.012500
21
2.077391
31
0.0
0
LINE
8
TOP
10
1.012500
20
2.077391
30
0.0
11
1.125000
21
2.078071
31
0.0
0
LINE
8
TOP
10
1.125000
20
2.078071
30
0.0
11
1.237500
21
2.078751
31
0.0
0
LINE
8
TOP
10
1.237500
20
2.078751
30
0.0
11
1.350000
21
2.079431
31
0.0
0
LINE
8
TOP
10
1.350000
20
2.079431
30
0.0
11
1.462500
21
2.080111
31
0.0
0
LINE
8
TOP
10
1.462500
20
2.080111
30
0.0
11
1.575000
21
2.080791
31
0.0
0
LINE
8
TOP
10
1.575000
20
2.080791
30
0.0
11
1.687500
21
2.081471
31
0.0
0
LINE
8
TOP
10
1.687500
20
2.081471
30
0.0
11
1.800000
21
2.082151
31
0.0
0
LINE
8
TOP
10
1.800000
20
2.082151
30
0.0
11
1.912500
21
2.082830
31
0.0
0
LINE
8
TOP
10
1.912500
20
2.082830
30
0.0
11
2.025000
21
2.083510
31
0.0
0
LINE
8
TOP
10
2.025000
20
2.083510
30
0.0
11
2.137500
21
2.084190
31
0.0
0
LINE
8
TOP
10
2.137500
20
2.084190
30
0.0
11
2.250000
21
2.084870
31
0.0
0
LINE
8
TOP
10
2.250000
20
2.084870
30
0.0
11
2.362500
21
2.085550
31
0.0
0
LINE
8
TOP
10
2.362500
20
2.085550
30
0.0
11
2.475000
21
2.086230
31
0.0
0
LINE
8
TOP
10
2.475000
20
2.086230
30
0.0
11
2.587500
21
2.086910
31
0.0
0
LINE
8
TOP
10
2.587500
20
2.086910
30
0.0
11
2.700000
21
2.087589
31
0.0
0
LINE
8
TOP
10
2.700000
20
2.087589
30
0.0
11
2.812500
21
2.088269
31
0.0
0
LINE
8
TOP
10
2.812500
20
2.088269
30
0.0
11
2.925000
21
2.088949
31
0.0
0
LINE
8
TOP
10
2.925000
20
2.088949
30
0.0
11
3.037500
21
2.089629
31
0.0
0
LINE
8
TOP
10
3.037500
20
2.089629
30
0.0
11
3.150000
21
2.090309
31
0.0
0
LINE
8
TOP
10
3.150000
20
2.090309
30
0.0
11
3.262500
21
2.090989
31
0.0
0
LINE
8
TOP
10
3.262500
20
2.090989
30
0.0
11
3.375000
21
2.091669
31
0.0
0
LINE
8
TOP
10
3.375000
20
2.091669
30
0.0
11
3.487500
21
2.092349
31
0.0
0
LINE
8
TOP
10
3.487500
20
2.092349
30
0.0
11
3.600000
21
2.093028
31
0.0
0
LINE
8
TOP
10
3.600000
20
2.093028
30
0.0
11
3.712500
21
2.093708
31
0.0
0
LINE
8
TOP
10
3.712500
20
2.093708
30
0.0
11
3.825000
21
2.094388
31
0.0
0
LINE
8
TOP
10
3.825000
20
2.094388
30
0.0
11
3.937500
21
2.095068
31
0.0
0
LINE
8
TOP
10
3.937500
20
2.095068
30
0.0
11
4.050000
21
2.095748
31
0.0
0
LINE
8
TOP
10
4.050000
20
2.095748
30
0.0
11
4.162500
21
2.096428
31
0.0
0
LINE
8
TOP
10
4.162500
20
2.096428
30
0.0
11
4.275000
21
2.097108
31
0.0
0
LINE
8
TOP
10
4.275000
20
2.097108
30
0.0
11
4.387500
21
2.097788
31
0.0
0
LINE
8
TOP
10
4.387500
20
2.097788
30
0.0
11
4.500000
21
2.098467
31
0.0
0
LINE
8
TOP
10
4.500000
20
2.098467
30
0.0
11
4.612500
21
2.098280
31
0.0
0
LINE
8
TOP
10
4.612500
20
2.098280
30
0.0
11
4.725000
21
2.098094
31
0.0
0
LINE
8
TOP
10
4.725000
20
2.098094
30
0.0
11
4.837500
21
2.097907
31
0.0
0
LINE
8
TOP
10
4.837500
20
2.097907
30
0.0
11
4.950000
21
2.097720
31
0.0
0
LINE
8
TOP
10
4.950000
20
2.097720
30
0.0
11
5.062500
21
2.097533
31
0.0
0
LINE
8
TOP
10
5.062500
20
2.097533
30
0.0
11
5.175000
21
2.097346
31
0.0
0
LINE
8
TOP
10
5.175000
20
2.097346
30
0.0
11
5.287500
21
2.097159
31
0.0
0
LINE
8
TOP
10
5.287500
20
2.097159
30
0.0
11
5.400000
21
2.096972
31
0.0
0
LINE
8
TOP
10
5.400000
20
2.096972
30
0.0
11
5.512500
21
2.096785
31
0.0
0
LINE
8
TOP
10
5.512500
20
2.096785
30
0.0
11
5.625000
21
2.096598
31
0.0
0
LINE
8
TOP
10
5.625000
20
2.096598
30
0.0
11
5.737500
21
2.096412
31
0.0
0
LINE
8
TOP
10
5.737500
20
2.096412
30
0.0
11
5.850000
21
2.096225
31
0.0
0
LINE
8
TOP
10
5.850000
20
2.096225
30
0.0
11
5.962500
21
2.096038
31
0.0
0
LINE
8
TOP
10
5.962500
20
2.096038
30
0.0
11
6.075000
21
2.095851
31
0.0
0
LINE
8
TOP
10
6.075000
20
2.095851
30
0.0
11
6.187500
21
2.095664
31
0.0
0
LINE
8
TOP
10
6.187500
20
2.095664
30
0.0
11
6.300000
21
2.095477
31
0.0
0
LINE
8
TOP
10
6.300000
20
2.095477
30
0.0
11
6.412500
21
2.095290
31
0.0
0
LINE
8
TOP
10
6.412500
20
2.095290
30
0.0
11
6.525000
21
2.095103
31
0.0
0
LINE
8
TOP
10
6.525000
20
2.095103
30
0.0
11
6.637500
21
2.094916
31
0.0
0
LINE
8
TOP
10
6.637500
20
2.094916
30
0.0
11
6.750000
21
2.094730
31
0.0
0
LINE
8
TOP
10
6.750000
20
2.094730
30
0.0
11
6.862500
21
2.094543
31
0.0
0
LINE
8
TOP
10
6.862500
20
2.094543
30
0.0
11
6.975000
21
2.094356
31
0.0
0
LINE
8
TOP
10
6.975000
20
2.094356
30
0.0
11
7.087500
21
2.094169
31
0.0
0
LINE
8
TOP
10
7.087500
20
2.094169
30
0.0
11
7.200000
21
2.093982
31
0.0
0
LINE
8
TOP
10
7.200000
20
2.093982
30
0.0
11
7.312500
21
2.093795
31
0.0
0
LINE
8
TOP
10
7.312500
20
2.093795
30
0.0
11
7.425000
21
2.093608
31
0.0
0
LINE
8
TOP
10
7.425000
20
2.093608
30
0.0
11
7.537500
21
2.093421
31
0.0
0
LINE
8
TOP
10
7.537500
20
2.093421
30
0.0
11
7.650000
21
2.093234
31
0.0
0
LINE
8
TOP
10
7.650000
20
2.093234
30
0.0
11
7.762500
21
2.093048
31
0.0
0
LINE
8
TOP
10
7.762500
20
2.093048
30
0.0
11
7.875000
21
2.092861
31
0.0
0
LINE
8
TOP
10
7.875000
20
2.092861
30
0.0
11
7.987500
21
2.092674
31
0.0
0
LINE
8
TOP
10
7.987500
20
2.092674
30
0.0
11
8.100000
21
2.092487
31
0.0
0
LINE
8
TOP
10
8.100000
20
2.092487
30
0.0
11
8.212500
21
2.092300
31
0.0
0
LINE
8
TOP
10
8.212500
20
2.092300
30
0.0
11
8.325000
21
2.092113
31
0.0
0
LINE
8
TOP
10
8.325000
20
2.092113
30
0.0
11
8.437500
21
2.091926
31
0.0
0
LINE
8
TOP
10
8.437500
20
2.091926
30
0.0
11
8.500000
21
2.091822
31
0.0
0
LINE
8
TOP
10
8.500000
20
2.091822
30
0.0
11
8.550000
21
2.091739
31
0.0
0
LINE
8
TOP
10
8.550000
20
2.091739
30
0.0
11
8.662500
21
2.091552
31
0.0
0
LINE
8
TOP
10
8.662500
20
2.091552
30
0.0
11
8.775000
21
2.091366
31
0.0
0
LINE
8
TOP
10
8.775000
20
2.091366
30
0.0
11
8.887500
21
2.091179
31
0.0
0
LINE
8
TOP
10
8.887500
20
2.091179
30
0.0
11
9.000000
21
2.090992
31
0.0
0
LINE
8
TOP
10
0.000000
20
1.707011
30
0.0
11
0.112500
21
1.706331
31
0.0
0
LINE
8
TOP
10
0.112500
20
1.706331
30
0.0
11
0.225000
21
1.705651
31
0.0
0
LINE
8
TOP
10
0.225000
20
1.705651
30
0.0
11
0.337500
21
1.704971
31
0.0
0
LINE
8
TOP
10
0.337500
20
1.704971
30
0.0
11
0.450000
21
1.704291
31
0.0
0
LINE
8
TOP
10
0.450000
20
1.704291
30
0.0
11
0.500000
21
1.703989
31
0.0
0
LINE
8
TOP
10
0.500000
20
1.703989
30
0.0
11
0.562500
21
1.703611
31
0.0
0
LINE
8
TOP
10
0.562500
20
1.703611
30
0.0
11
0.675000
21
1.702932
31
0.0
0
LINE
8
TOP
10
0.675000
20
1.702932
30
0.0
11
0.787500
21
1.702252
31
0.0
0
LINE
8
TOP
10
0.787500
20
1.702252
30
0.0
11
0.900000
21
1.701572
31
0.0
0
LINE
8
TOP
10
0.900000
20
1.701572
30
0.0
11
1.012500
21
1.700892
31
0.0
0
LINE
8
TOP
10
1.012500
20
1.700892
30
0.0
11
1.125000
21
1.700212
31
0.0
0
LINE
8
TOP
10
1.125000
20
1.700212
30
0.0
11
1.237500
21
1.699532
31
0.0
0
LINE
8
TOP
10
1.237500
20
1.699532
30
0.0
11
1.350000
21
1.698852
31
0.0
0
LINE
8
TOP
10
1.350000
20
1.698852
30
0.0
11
1.462500
21
1.698172
31
0.0
0
LINE
8
TOP
10
1.462500
20
1.698172
30
0.0
11
1.575000
21
1.697493
31
0.0
0
LINE
8
TOP
10
1.575000
20
1.697493
30
0.0
11
1.687500
21
1.696813
31
0.0
0
LINE
8
TOP
10
1.687500
20
1.696813
30
0.0
11
1.800000
21
1.696133
31
0.0
0
LINE
8
TOP
10
1.800000
20
1.696133
30
0.0
11
1.912500
21
1.695453
31
0.0
0
LINE
8
TOP
10
1.912500
20
1.695453
30
0.0
11
2.025000
21
1.694773
31
0.0
0
LINE
8
TOP
10
2.025000
20
1.694773
30
0.0
11
2.137500
21
1.694093
31
0.0
0
LINE
8
TOP
10
2.137500
20
1.694093
30
0.0
11
2.250000
21
1.693413
31
0.0
0
LINE
8
TOP
10
2.250000
20
1.693413
30
0.0
11
2.362500
21
1.692734
31
0.0
0
LINE
8
TOP
10
2.362500
20
1.692734
30
0.0
11
2.475000
21
1.692054
31
0.0
0
LINE
8
TOP
10
2.475000
20
1.692054
30
0.0
11
2.587500
21
1.691374
31
0.0
0
LINE
8
TOP
10
2.587500
20
1.691374
30
0.0
11
2.700000
21
1.690694
31
0.0
0
LINE
8
TOP
10
2.700000
20
1.690694
30
0.0
11
2.812500
21
1.690014
31
0.0
0
LINE
8
TOP
10
2.812500
20
1.690014
30
0.0
11
2.925000
21
1.689334
31
0.0
0
LINE
8
TOP
10
2.925000
20
1.689334
30
0.0
11
3.037500
21
1.688654
31
0.0
0
LINE
8
TOP
10
3.037500
20
1.688654
30
0.0
11
3.150000
21
1.687974
31
0.0
0
LINE
8
TOP
10
3.150000
20
1.687974
30
0.0
11
3.262500
21
1.687295
31
0.0
0
LINE
8
TOP
10
3.262500
20
1.687295
30
0.0
11
3.375000
21
1.686615
31
0.0
0
LINE
8
TOP
10
3.375000
20
1.686615
30
0.0
11
3.487500
21
1.685935
31
0.0
0
LINE
8
TOP
10
3.487500
20
1.685935
30
0.0
11
3.600000
21
1.685255
31
0.0
0
LINE
8
TOP
10
3.600000
20
1.685255
30
0.0
11
3.712500
21
1.684575
31
0.0
0
LINE
8
TOP
10
3.712500
20
1.684575
30
0.0
11
3.825000
21
1.683895
31
0.0
0
LINE
8
TOP
10
3.825000
20
1.683895
30
0.0
11
3.937500
21
1.683215
31
0.0
0
LINE
8
TOP
10
3.937500
20
1.683215
30
0.0
11
4.050000
21
1.682535
31
0.0
0
LINE
8
TOP
10
4.050000
20
1.682535
30
0.0
11
4.162500
21
1.681856
31
0.0
0
LINE
8
TOP
10
4.162500
20
1.681856
30
0.0
11
4.275000
21
1.681176
31
0.0
0
LINE
8
TOP
10
4.275000
20
1.681176
30
0.0
11
4.387500
21
1.680496
31
0.0
0
LINE
8
TOP
10
4.387500
20
1.680496
30
0.0
11
4.500000
21
1.679816
31
0.0
0
LINE
8
TOP
10
4.500000
20
1.679816
30
0.0
11
4.612500
21
1.680003
31
0.0
0
LINE
8
TOP
10
4.612500
20
1.680003
30
0.0
11
4.725000
21
1.680190
31
0.0
0
LINE
8
TOP
10
4.725000
20
1.680190
30
0.0
11
4.837500
21
1.680377
31
0.0
0
LINE
8
TOP
10
4.837500
20
1.680377
30
0.0
11
4.950000
21
1.680564
31
0.0
0
LINE
8
TOP
10
4.950000
20
1.680564
30
0.0
11
5.062500
21
1.680750
31
0.0
0
LINE
8
TOP
10
5.062500
20
1.680750
30
0.0
11
5.175000
21
1.680937
31
0.0
0
LINE
8
TOP
10
5.175000
20
1.680937
30
0.0
11
5.287500
21
1.681124
31
0.0
0
LINE
8
TOP
10
5.287500
20
1.681124
30
0.0
11
5.400000
21
1.681311
31
0.0
0
LINE
8
TOP
10
5.400000
20
1.681311
30
0.0
11
5.512500
21
1.681498
31
0.0
0
LINE
8
TOP
10
5.512500
20
1.681498
30
0.0
11
5.625000
21
1.681685
31
0.0
0
LINE
8
TOP
10
5.625000
20
1.681685
30
0.0
11
5.737500
21
1.681872
31
0.0
0
LINE
8
TOP
10
5.737500
20
1.681872
30
0.0
11
5.850000
21
1.682059
31
0.0
0
LINE
8
TOP
10
5.850000
20
1.682059
30
0.0
11
5.962500
21
1.682246
31
0.0
0
LINE
8
TOP
10
5.962500
20
1.682246
30
0.0
11
6.075000
21
1.682432
31
0.0
0
LINE
8
TOP
10
6.075000
20
1.682432
30
0.0
11
6.187500
21
1.682619
31
0.0
0
LINE
8
TOP
10
6.187500
20
1.682619
30
0.0
11
6.300000
21
1.682806
31
0.0
0
LINE
8
TOP
10
6.300000
20
1.682806
30
0.0
11
6.412500
21
1.682993
31
0.0
0
LINE
8
TOP
10
6.412500
20
1.682993
30
0.0
11
6.525000
21
1.683180
31
0.0
0
LINE
8
TOP
10
6.525000
20
1.683180
30
0.0
11
6.637500
21
1.683367
31
0.0
0
LINE
8
TOP
10
6.637500
20
1.683367
30
0.0
11
6.750000
21
1.683554
31
0.0
0
LINE
8
TOP
10
6.750000
20
1.683554
30
0.0
11
6.862500
21
1.683741
31
0.0
0
LINE
8
TOP
10
6.862500
20
1.683741
30
0.0
11
6.975000
21
1.683928
31
0.0
0
LINE
8
TOP
10
6.975000
20
1.683928
30
0.0
11
7.087500
21
1.684114
31
0.0
0
LINE
8
TOP
10
7.087500
20
1.684114
30
0.0
11
7.200000
21
1.684301
31
0.0
0
LINE
8
TOP
10
7.200000
20
1.684301
30
0.0
11
7.312500
21
1.684488
31
0.0
0
LINE
8
TOP
10
7.312500
20
1.684488
30
0.0
11
7.425000
21
1.684675
31
0.0
0
LINE
8
TOP
10
7.425000
20
1.684675
30
0.0
11
7.537500
21
1.684862
31
0.0
0
LINE
8
TOP
10
7.537500
20
1.684862
30
0.0
11
7.650000
21
1.685049
31
0.0
0
LINE
8
TOP
10
7.650000
20
1.685049
30
0.0
11
7.762500
21
1.685236
31
0.0
0
LINE
8
TOP
10
7.762500
20
1.685236
30
0.0
11
7.875000
21
1.685423
31
0.0
0
LINE
8
TOP
10
7.875000
20
1.685423
30
0.0
11
7.987500
21
1.685610
31
0.0
0
LINE
8
TOP
10
7.987500
20
1.685610
30
0.0
11
8.100000
21
1.685796
31
0.0
0
LINE
8
TOP
10
8.100000
20
1.685796
30
0.0
11
8.212500
21
1.685983
31
0.0
0
LINE
8
TOP
10
8.212500
20
1.685983
30
0.0
11
8.325000
21
1.686170
31
0.0
0
LINE
8
TOP
10
8.325000
20
1.686170
30
0.0
11
8.437500
21
1.686357
31
0.0
0
LINE
8
TOP
10
8.437500
20
1.686357
30
0.0
11
8.500000
21
1.686461
31
0.0
0
LINE
8
TOP
10
8.500000
20
1.686461
30
0.0
11
8.550000
21
1.686544
31
0.0
0
LINE
8
TOP
10
8.550000
20
1.686544
30
0.0
11
8.662500
21
1.686731
31
0.0
0
LINE
8
TOP
10
8.662500
20
1.686731
30
0.0
11
8.775000
21
1.686918
31
0.0
0
LINE
8
TOP
10
8.775000
20
1.686918
30
0.0
11
8.887500
21
1.687105
31
0.0
0
LINE
8
TOP
10
8.887500
20
1.687105
30
0.0
11
9.000000
21
1.687292
31
0.0
0
LINE
8
TOP
10
0.000000
20
2.071273
30
0.0
11
0.000000
21
1.707011
31
0.0
0
LINE
8
TOP
10
9.000000
20
2.090992
30
0.0
11
9.000000
21
1.687292
31
0.0
0
LINE
8
SECTION
10
10.290674
20
-0.336169
30
0.0
11
10.709326
21
-0.336169
31
0.0
0
LINE
8
SECTION
10
10.709326
20
-0.336169
30
0.0
11
10.709326
21
0.336169
31
0.0
0
LINE
8
SECTION
10
10.709326
20
0.336169
30
0.0
11
10.290674
21
0.336169
31
0.0
0
LINE
8
SECTION
10
10.290674
20
0.336169
30
0.0
11
10.290674
21
-0.336169
31
0.0
0
LINE
8
SECTION
10
10.350946
20
-0.275898
30
0.0
11
10.649054
21
-0.275898
31
0.0
0
LINE
8
SECTION
10
10.649054
20
-0.275898
30
0.0
11
10.649054
21
0.275898
31
0.0
0
LINE
8
SECTION
10
10.649054
20
0.275898
30
0.0
11
10.350946
21
0.275898
31
0.0
0
LINE
8
SECTION
10
10.350946
20
0.275898
30
0.0
11
10.350946
21
-0.275898
31
0.0
0
LINE
8
SECTION
10
10.350946
20
0.000000
30
0.0
11
10.411217
21
0.000000
31
0.0
0
LINE
8
SECTION
10
10.411217
20
0.000000
30
0.0
11
10.411217
21
0.275898
31
0.0
0
LINE
8
SECTION
10
10.411217
20
0.275898
30
0.0
11
10.350946
21
0.275898
31
0.0
0
LINE
8
SECTION
10
10.350946
20
0.275898
30
0.0
11
10.350946
21
0.000000
31
0.0
0
LINE
8
SECTION
10
10.350946
20
-0.275898
30
0.0
11
10.411217
21
-0.275898
31
0.0
0
LINE
8
SECTION
10
10.411217
20
-0.275898
30
0.0
11
10.411217
21
0.000000
31
0.0
0
LINE
8
SECTION
10
10.411217
20
0.000000
30
0.0
11
10.350946
21
0.000000
31
0.0
0
LINE
8
SECTION
10
10.350946
20
0.000000
30
0.0
11
10.350946
21
-0.275898
31
0.0
0
LINE
8
SECTION
10
10.588783
20
0.000000
30
0.0
11
10.649054
21
0.000000
31
0.0
0
LINE
8
SECTION
10
10.649054
20
0.000000
30
0.0
11
10.649054
21
0.275898
31
0.0
0
LINE
8
SECTION
10
10.649054
20
0.275898
30
0.0
11
10.588783
21
0.275898
31
0.0
0
LINE
8
SECTION
10
10.588783
20
0.275898
30
0.0
11
10.588783
21
0.000000
31
0.0
0
LINE
8
SECTION
10
10.588783
20
-0.275898
30
0.0
11
10.649054
21
-0.275898
31
0.0
0
LINE
8
SECTION
10
10.649054
20
-0.275898
30
0.0
11
10.649054
21
0.000000
31
0.0
0
LINE
8
SECTION
10
10.649054
20
0.000000
30
0.0
11
10.588783
21
0.000000
31
0.0
0
LINE
8
SECTION
10
10.588783
20
0.000000
30
0.0
11
10.588783
21
-0.275898
31
0.0
0
ENDSEC
0
EOF
