0
SECTION
2
HEADER
9
$INSUNITS
70
1
0
ENDSEC
0
SECTION
2
ENTITIES
0
LINE
8
FRONT
10
0.000000
20
0.302123
30
0.0
11
0.112500
21
0.298800
31
0.0
0
LINE
8
FRONT
10
0.112500
20
0.298800
30
0.0
11
0.225000
21
0.295477
31
0.0
0
LINE
8
FRONT
10
0.225000
20
0.295477
30
0.0
11
0.337500
21
0.292154
31
0.0
0
LINE
8
FRONT
10
0.337500
20
0.292154
30
0.0
11
0.450000
21
0.288832
31
0.0
0
LINE
8
FRONT
10
0.450000
20
0.288832
30
0.0
11
0.500000
21
0.287355
31
0.0
0
LINE
8
FRONT
10
0.500000
20
0.287355
30
0.0
11
0.562500
21
0.285509
31
0.0
0
LINE
8
FRONT
10
0.562500
20
0.285509
30
0.0
11
0.675000
21
0.282186
31
0.0
0
LINE
8
FRONT
10
0.675000
20
0.282186
30
0.0
11
0.787500
21
0.278863
31
0.0
0
LINE
8
FRONT
10
0.787500
20
0.278863
30
0.0
11
0.900000
21
0.275541
31
0.0
0
LINE
8
FRONT
10
0.900000
20
0.275541
30
0.0
11
1.012500
21
0.272218
31
0.0
0
LINE
8
FRONT
10
1.012500
20
0.272218
30
0.0
11
1.125000
21
0.268895
31
0.0
0
LINE
8
FRONT
10
1.125000
20
0.268895
30
0.0
11
1.237500
21
0.265572
31
0.0
0
LINE
8
FRONT
10
1.237500
20
0.265572
30
0.0
11
1.350000
21
0.262250
31
0.0
0
LINE
8
FRONT
10
1.350000
20
0.262250
30
0.0
11
1.462500
21
0.258927
31
0.0
0
LINE
8
FRONT
10
1.462500
20
0.258927
30
0.0
11
1.575000
21
0.255604
31
0.0
0
LINE
8
FRONT
10
1.575000
20
0.255604
30
0.0
11
1.687500
21
0.252281
31
0.0
0
LINE
8
FRONT
10
1.687500
20
0.252281
30
0.0
11
1.800000
21
0.248959
31
0.0
0
LINE
8
FRONT
10
1.800000
20
0.248959
30
0.0
11
1.912500
21
0.245636
31
0.0
0
LINE
8
FRONT
10
1.912500
20
0.245636
30
0.0
11
2.025000
21
0.242313
31
0.0
0
LINE
8
FRONT
10
2.025000
20
0.242313
30
0.0
11
2.137500
21
0.238990
31
0.0
0
LINE
8
FRONT
10
2.137500
20
0.238990
30
0.0
11
2.250000
21
0.235668
31
0.0
0
LINE
8
FRONT
10
2.250000
20
0.235668
30
0.0
11
2.362500
21
0.232345
31
0.0
0
LINE
8
FRONT
10
2.362500
20
0.232345
30
0.0
11
2.475000
21
0.229022
31
0.0
0
LINE
8
FRONT
10
2.475000
20
0.229022
30
0.0
11
2.587500
21
0.225699
31
0.0
0
LINE
8
FRONT
10
2.587500
20
0.225699
30
0.0
11
2.700000
21
0.222377
31
0.0
0
LINE
8
FRONT
10
2.700000
20
0.222377
30
0.0
11
2.812500
21
0.219054
31
0.0
0
LINE
8
FRONT
10
2.812500
20
0.219054
30
0.0
11
2.925000
21
0.215731
31
0.0
0
LINE
8
FRONT
10
2.925000
20
0.215731
30
0.0
11
3.037500
21
0.212408
31
0.0
0
LINE
8
FRONT
10
3.037500
20
0.212408
30
0.0
11
3.150000
21
0.209086
31
0.0
0
LINE
8
FRONT
10
3.150000
20
0.209086
30
0.0
11
3.262500
21
0.205763
31
0.0
0
LINE
8
FRONT
10
3.262500
20
0.205763
30
0.0
11
3.375000
21
0.202440
31
0.0
0
LINE
8
FRONT
10
3.375000
20
0.202440
30
0.0
11
3.487500
21
0.199117
31
0.0
0
LINE
8
FRONT
10
3.487500
20
0.199117
30
0.0
11
3.600000
21
0.195795
31
0.0
0
LINE
8
FRONT
10
3.600000
20
0.195795
30
0.0
11
3.712500
21
0.192472
31
0.0
0
LINE
8
FRONT
10
3.712500
20
0.192472
30
0.0
11
3.825000
21
0.189149
31
0.0
0
LINE
8
FRONT
10
3.825000
20
0.189149
30
0.0
11
3.937500
21
0.185826
31
0.0
0
LINE
8
FRONT
10
3.937500
20
0.185826
30
0.0
11
4.050000
21
0.182504
31
0.0
0
LINE
8
FRONT
10
4.050000
20
0.182504
30
0.0
11
4.162500
21
0.179181
31
0.0
0
LINE
8
FRONT
10
4.162500
20
0.179181
30
0.0
11
4.275000
21
0.175858
31
0.0
0
LINE
8
FRONT
10
4.275000
20
0.175858
30
0.0
11
4.387500
21
0.172535
31
0.0
0
LINE
8
FRONT
10
4.387500
20
0.172535
30
0.0
11
4.500000
21
0.169213
31
0.0
0
LINE
8
FRONT
10
4.500000
20
0.169213
30
0.0
11
4.612500
21
0.172535
31
0.0
0
LINE
8
FRONT
10
4.612500
20
0.172535
30
0.0
11
4.725000
21
0.175858
31
0.0
0
LINE
8
FRONT
10
4.725000
20
0.175858
30
0.0
11
4.837500
21
0.179181
31
0.0
0
LINE
8
FRONT
10
4.837500
20
0.179181
30
0.0
11
4.950000
21
0.182504
31
0.0
0
LINE
8
FRONT
10
4.950000
20
0.182504
30
0.0
11
5.062500
21
0.185826
31
0.0
0
LINE
8
FRONT
10
5.062500
20
0.185826
30
0.0
11
5.175000
21
0.189149
31
0.0
0
LINE
8
FRONT
10
5.175000
20
0.189149
30
0.0
11
5.287500
21
0.192472
31
0.0
0
LINE
8
FRONT
10
5.287500
20
0.192472
30
0.0
11
5.400000
21
0.195795
31
0.0
0
LINE
8
FRONT
10
5.400000
20
0.195795
30
0.0
11
5.512500
21
0.199117
31
0.0
0
LINE
8
FRONT
10
5.512500
20
0.199117
30
0.0
11
5.625000
21
0.202440
31
0.0
0
LINE
8
FRONT
10
5.625000
20
0.202440
30
0.0
11
5.737500
21
0.205763
31
0.0
0
LINE
8
FRONT
10
5.737500
20
0.205763
30
0.0
11
5.850000
21
0.209086
31
0.0
0
LINE
8
FRONT
10
5.850000
20
0.209086
30
0.0
11
5.962500
21
0.212408
31
0.0
0
LINE
8
FRONT
10
5.962500
20
0.212408
30
0.0
11
6.075000
21
0.215731
31
0.0
0
LINE
8
FRONT
10
6.075000
20
0.215731
30
0.0
11
6.187500
21
0.219054
31
0.0
0
LINE
8
FRONT
10
6.187500
20
0.219054
30
0.0
11
6.300000
21
0.222377
31
0.0
0
LINE
8
FRONT
10
6.300000
20
0.222377
30
0.0
11
6.412500
21
0.225699
31
0.0
0
LINE
8
FRONT
10
6.412500
20
0.225699
30
0.0
11
6.525000
21
0.229022
31
0.0
0
LINE
8
FRONT
10
6.525000
20
0.229022
30
0.0
11
6.637500
21
0.232345
31
0.0
0
LINE
8
FRONT
10
6.637500
20
0.232345
30
0.0
11
6.750000
21
0.235668
31
0.0
0
LINE
8
FRONT
10
6.750000
20
0.235668
30
0.0
11
6.862500
21
0.238990
31
0.0
0
LINE
8
FRONT
10
6.862500
20
0.238990
30
0.0
11
6.975000
21
0.242313
31
0.0
0
LINE
8
FRONT
10
6.975000
20
0.242313
30
0.0
11
7.087500
21
0.245636
31
0.0
0
LINE
8
FRONT
10
7.087500
20
0.245636
30
0.0
11
7.200000
21
0.248959
31
0.0
0
LINE
8
FRONT
10
7.200000
20
0.248959
30
0.0
11
7.312500
21
0.252281
31
0.0
0
LINE
8
FRONT
10
7.312500
20
0.252281
30
0.0
11
7.425000
21
0.255604
31
0.0
0
LINE
8
FRONT
10
7.425000
20
0.255604
30
0.0
11
7.537500
21
0.258927
31
0.0
0
LINE
8
FRONT
10
7.537500
20
0.258927
30
0.0
11
7.650000
21
0.262250
31
0.0
0
LINE
8
FRONT
10
7.650000
20
0.262250
30
0.0
11
7.762500
21
0.265572
31
0.0
0
LINE
8
FRONT
10
7.762500
20
0.265572
30
0.0
11
7.875000
21
0.268895
31
0.0
0
LINE
8
FRONT
10
7.875000
20
0.268895
30
0.0
11
7.987500
21
0.272218
31
0.0
0
LINE
8
FRONT
10
7.987500
20
0.272218
30
0.0
11
8.100000
21
0.275541
31
0.0
0
LINE
8
FRONT
10
8.100000
20
0.275541
30
0.0
11
8.212500
21
0.278863
31
0.0
0
LINE
8
FRONT
10
8.212500
20
0.278863
30
0.0
11
8.325000
21
0.282186
31
0.0
0
LINE
8
FRONT
10
8.325000
20
0.282186
30
0.0
11
8.437500
21
0.285509
31
0.0
0
LINE
8
FRONT
10
8.437500
20
0.285509
30
0.0
11
8.500000
21
0.287355
31
0.0
0
LINE
8
FRONT
10
8.500000
20
0.287355
30
0.0
11
8.550000
21
0.288832
31
0.0
0
LINE
8
FRONT
10
8.550000
20
0.288832
30
0.0
11
8.662500
21
0.292154
31
0.0
0
LINE
8
FRONT
10
8.662500
20
0.292154
30
0.0
11
8.775000
21
0.295477
31
0.0
0
LINE
8
FRONT
10
8.775000
20
0.295477
30
0.0
11
8.887500
21
0.298800
31
0.0
0
LINE
8
FRONT
10
8.887500
20
0.298800
30
0.0
11
9.000000
21
0.302123
31
0.0
0
LINE
8
FRONT
10
0.000000
20
-0.302123
30
0.0
11
0.112500
21
-0.298800
31
0.0
0
LINE
8
FRONT
10
0.112500
20
-0.298800
30
0.0
11
0.225000
21
-0.295477
31
0.0
0
LINE
8
FRONT
10
0.225000
20
-0.295477
30
0.0
11
0.337500
21
-0.292154
31
0.0
0
LINE
8
FRONT
10
0.337500
20
-0.292154
30
0.0
11
0.450000
21
-0.288832
31
0.0
0
LINE
8
FRONT
10
0.450000
20
-0.288832
30
0.0
11
0.500000
21
-0.287355
31
0.0
0
LINE
8
FRONT
10
0.500000
20
-0.287355
30
0.0
11
0.562500
21
-0.285509
31
0.0
0
LINE
8
FRONT
10
0.562500
20
-0.285509
30
0.0
11
0.675000
21
-0.282186
31
0.0
0
LINE
8
FRONT
10
0.675000
20
-0.282186
30
0.0
11
0.787500
21
-0.278863
31
0.0
0
LINE
8
FRONT
10
0.787500
20
-0.278863
30
0.0
11
0.900000
21
-0.275541
31
0.0
0
LINE
8
FRONT
10
0.900000
20
-0.275541
30
0.0
11
1.012500
21
-0.272218
31
0.0
0
LINE
8
FRONT
10
1.012500
20
-0.272218
30
0.0
11
1.125000
21
-0.268895
31
0.0
0
LINE
8
FRONT
10
1.125000
20
-0.268895
30
0.0
11
1.237500
21
-0.265572
31
0.0
0
LINE
8
FRONT
10
1.237500
20
-0.265572
30
0.0
11
1.350000
21
-0.262250
31
0.0
0
LINE
8
FRONT
10
1.350000
20
-0.262250
30
0.0
11
1.462500
21
-0.258927
31
0.0
0
LINE
8
FRONT
10
1.462500
20
-0.258927
30
0.0
11
1.575000
21
-0.255604
31
0.0
0
LINE
8
FRONT
10
1.575000
20
-0.255604
30
0.0
11
1.687500
21
-0.252281
31
0.0
0
LINE
8
FRONT
10
1.687500
20
-0.252281
30
0.0
11
1.800000
21
-0.248959
31
0.0
0
LINE
8
FRONT
10
1.800000
20
-0.248959
30
0.0
11
1.912500
21
-0.245636
31
0.0
0
LINE
8
FRONT
10
1.912500
20
-0.245636
30
0.0
11
2.025000
21
-0.242313
31
0.0
0
LINE
8
FRONT
10
2.025000
20
-0.242313
30
0.0
11
2.137500
21
-0.238990
31
0.0
0
LINE
8
FRONT
10
2.137500
20
-0.238990
30
0.0
11
2.250000
21
-0.235668
31
0.0
0
LINE
8
FRONT
10
2.250000
20
-0.235668
30
0.0
11
2.362500
21
-0.232345
31
0.0
0
LINE
8
FRONT
10
2.362500
20
-0.232345
30
0.0
11
2.475000
21
-0.229022
31
0.0
0
LINE
8
FRONT
10
2.475000
20
-0.229022
30
0.0
11
2.587500
21
-0.225699
31
0.0
0
LINE
8
FRONT
10
2.587500
20
-0.225699
30
0.0
11
2.700000
21
-0.222377
31
0.0
0
LINE
8
FRONT
10
2.700000
20
-0.222377
30
0.0
11
2.812500
21
-0.219054
31
0.0
0
LINE
8
FRONT
10
2.812500
20
-0.219054
30
0.0
11
2.925000
21
-0.215731
31
0.0
0
LINE
8
FRONT
10
2.925000
20
-0.215731
30
0.0
11
3.037500
21
-0.212408
31
0.0
0
LINE
8
FRONT
10
3.037500
20
-0.212408
30
0.0
11
3.150000
21
-0.209086
31
0.0
0
LINE
8
FRONT
10
3.150000
20
-0.209086
30
0.0
11
3.262500
21
-0.205763
31
0.0
0
LINE
8
FRONT
10
3.262500
20
-0.205763
30
0.0
11
3.375000
21
-0.202440
31
0.0
0
LINE
8
FRONT
10
3.375000
20
-0.202440
30
0.0
11
3.487500
21
-0.199117
31
0.0
0
LINE
8
FRONT
10
3.487500
20
-0.199117
30
0.0
11
3.600000
21
-0.195795
31
0.0
0
LINE
8
FRONT
10
3.600000
20
-0.195795
30
0.0
11
3.712500
21
-0.192472
31
0.0
0
LINE
8
FRONT
10
3.712500
20
-0.192472
30
0.0
11
3.825000
21
-0.189149
31
0.0
0
LINE
8
FRONT
10
3.825000
20
-0.189149
30
0.0
11
3.937500
21
-0.185826
31
0.0
0
LINE
8
FRONT
10
3.937500
20
-0.185826
30
0.0
11
4.050000
21
-0.182504
31
0.0
0
LINE
8
FRONT
10
4.050000
20
-0.182504
30
0.0
11
4.162500
21
-0.179181
31
0.0
0
LINE
8
FRONT
10
4.162500
20
-0.179181
30
0.0
11
4.275000
21
-0.175858
31
0.0
0
LINE
8
FRONT
10
4.275000
20
-0.175858
30
0.0
11
4.387500
21
-0.172535
31
0.0
0
LINE
8
FRONT
10
4.387500
20
-0.172535
30
0.0
11
4.500000
21
-0.169213
31
0.0
0
LINE
8
FRONT
10
4.500000
20
-0.169213
30
0.0
11
4.612500
21
-0.172535
31
0.0
0
LINE
8
FRONT
10
4.612500
20
-0.172535
30
0.0
11
4.725000
21
-0.175858
31
0.0
0
LINE
8
FRONT
10
4.725000
20
-0.175858
30
0.0
11
4.837500
21
-0.179181
31
0.0
0
LINE
8
FRONT
10
4.837500
20
-0.179181
30
0.0
11
4.950000
21
-0.182504
31
0.0
0
LINE
8
FRONT
10
4.950000
20
-0.182504
30
0.0
11
5.062500
21
-0.185826
31
0.0
0
LINE
8
FRONT
10
5.062500
20
-0.185826
30
0.0
11
5.175000
21
-0.189149
31
0.0
0
LINE
8
FRONT
10
5.175000
20
-0.189149
30
0.0
11
5.287500
21
-0.192472
31
0.0
0
LINE
8
FRONT
10
5.287500
20
-0.192472
30
0.0
11
5.400000
21
-0.195795
31
0.0
0
LINE
8
FRONT
10
5.400000
20
-0.195795
30
0.0
11
5.512500
21
-0.199117
31
0.0
0
LINE
8
FRONT
10
5.512500
20
-0.199117
30
0.0
11
5.625000
21
-0.202440
31
0.0
0
LINE
8
FRONT
10
5.625000
20
-0.202440
30
0.0
11
5.737500
21
-0.205763
31
0.0
0
LINE
8
FRONT
10
5.737500
20
-0.205763
30
0.0
11
5.850000
21
-0.209086
31
0.0
0
LINE
8
FRONT
10
5.850000
20
-0.209086
30
0.0
11
5.962500
21
-0.212408
31
0.0
0
LINE
8
FRONT
10
5.962500
20
-0.212408
30
0.0
11
6.075000
21
-0.215731
31
0.0
0
LINE
8
FRONT
10
6.075000
20
-0.215731
30
0.0
11
6.187500
21
-0.219054
31
0.0
0
LINE
8
FRONT
10
6.187500
20
-0.219054
30
0.0
11
6.300000
21
-0.222377
31
0.0
0
LINE
8
FRONT
10
6.300000
20
-0.222377
30
0.0
11
6.412500
21
-0.225699
31
0.0
0
LINE
8
FRONT
10
6.412500
20
-0.225699
30
0.0
11
6.525000
21
-0.229022
31
0.0
0
LINE
8
FRONT
10
6.525000
20
-0.229022
30
0.0
11
6.637500
21
-0.232345
31
0.0
0
LINE
8
FRONT
10
6.637500
20
-0.232345
30
0.0
11
6.750000
21
-0.235668
31
0.0
0
LINE
8
FRONT
10
6.750000
20
-0.235668
30
0.0
11
6.862500
21
-0.238990
31
0.0
0
LINE
8
FRONT
10
6.862500
20
-0.238990
30
0.0
11
6.975000
21
-0.242313
31
0.0
0
LINE
8
FRONT
10
6.975000
20
-0.242313
30
0.0
11
7.087500
21
-0.245636
31
0.0
0
LINE
8
FRONT
10
7.087500
20
-0.245636
30
0.0
11
7.200000
21
-0.248959
31
0.0
0
LINE
8
FRONT
10
7.200000
20
-0.248959
30
0.0
11
7.312500
21
-0.252281
31
0.0
0
LINE
8
FRONT
10
7.312500
20
-0.252281
30
0.0
11
7.425000
21
-0.255604
31
0.0
0
LINE
8
FRONT
10
7.425000
20
-0.255604
30
0.0
11
7.537500
21
-0.258927
31
0.0
0
LINE
8
FRONT
10
7.537500
20
-0.258927
30
0.0
11
7.650000
21
-0.262250
31
0.0
0
LINE
8
FRONT
10
7.650000
20
-0.262250
30
0.0
11
7.762500
21
-0.265572
31
0.0
0
LINE
8
FRONT
10
7.762500
20
-0.265572
30
0.0
11
7.875000
21
-0.268895
31
0.0
0
LINE
8
FRONT
10
7.875000
20
-0.268895
30
0.0
11
7.987500
21
-0.272218
31
0.0
0
LINE
8
FRONT
10
7.987500
20
-0.272218
30
0.0
11
8.100000
21
-0.275541
31
0.0
0
LINE
8
FRONT
10
8.100000
20
-0.275541
30
0.0
11
8.212500
21
-0.278863
31
0.0
0
LINE
8
FRONT
10
8.212500
20
-0.278863
30
0.0
11
8.325000
21
-0.282186
31
0.0
0
LINE
8
FRONT
10
8.325000
20
-0.282186
30
0.0
11
8.437500
21
-0.285509
31
0.0
0
LINE
8
FRONT
10
8.437500
20
-0.285509
30
0.0
11
8.500000
21
-0.287355
31
0.0
0
LINE
8
FRONT
10
8.500000
20
-0.287355
30
0.0
11
8.550000
21
-0.288832
31
0.0
0
LINE
8
FRONT
10
8.550000
20
-0.288832
30
0.0
11
8.662500
21
-0.292154
31
0.0
0
LINE
8
FRONT
10
8.662500
20
-0.292154
30
0.0
11
8.775000
21
-0.295477
31
0.0
0
LINE
8
FRONT
10
8.775000
20
-0.295477
30
0.0
11
8.887500
21
-0.298800
31
0.0
0
LINE
8
FRONT
10
8.887500
20
-0.298800
30
0.0
11
9.000000
21
-0.302123
31
0.0
0
LINE
8
FRONT
10
0.000000
20
0.302123
30
0.0
11
0.000000
21
-0.302123
31
0.0
0
LINE
8
FRONT
10
9.000000
20
0.302123
30
0.0
11
9.000000
21
-0.302123
31
0.0
0
LINE
8
TOP
10
0.000000
20
1.843714
30
0.0
11
0.112500
21
1.845290
31
0.0
0
LINE
8
TOP
10
0.112500
20
1.845290
30
0.0
11
0.225000
21
1.846866
31
0.0
0
LINE
8
TOP
10
0.225000
20
1.846866
30
0.0
11
0.337500
21
1.848442
31
0.0
0
LINE
8
TOP
10
0.337500
20
1.848442
30
0.0
11
0.450000
21
1.850018
31
0.0
0
LINE
8
TOP
10
0.450000
20
1.850018
30
0.0
11
0.500000
21
1.850718
31
0.0
0
LINE
8
TOP
10
0.500000
20
1.850718
30
0.0
11
0.562500
21
1.851594
31
0.0
0
LINE
8
TOP
10
0.562500
20
1.851594
30
0.0
11
0.675000
21
1.853170
31
0.0
0
LINE
8
TOP
10
0.675000
20
1.853170
30
0.0
11
0.787500
21
1.854746
31
0.0
0
LINE
8
TOP
10
0.787500
20
1.854746
30
0.0
11
0.900000
21
1.856322
31
0.0
0
LINE
8
TOP
10
0.900000
20
1.856322
30
0.0
11
1.012500
21
1.857898
31
0.0
0
LINE
8
TOP
10
1.012500
20
1.857898
30
0.0
11
1.125000
21
1.859474
31
0.0
0
LINE
8
TOP
10
1.125000
20
1.859474
30
0.0
11
1.237500
21
1.861049
31
0.0
0
LINE
8
TOP
10
1.237500
20
1.861049
30
0.0
11
1.350000
21
1.862625
31
0.0
0
LINE
8
TOP
10
1.350000
20
1.862625
30
0.0
11
1.462500
21
1.864201
31
0.0
0
LINE
8
TOP
10
1.462500
20
1.864201
30
0.0
11
1.575000
21
1.865777
31
0.0
0
LINE
8
TOP
10
1.575000
20
1.865777
30
0.0
11
1.687500
21
1.867353
31
0.0
0
LINE
8
TOP
10
1.687500
20
1.867353
30
0.0
11
1.800000
21
1.868929
31
0.0
0
LINE
8
TOP
10
1.800000
20
1.868929
30
0.0
11
1.912500
21
1.870505
31
0.0
0
LINE
8
TOP
10
1.912500
20
1.870505
30
0.0
11
2.025000
21
1.872081
31
0.0
0
LINE
8
TOP
10
2.025000
20
1.872081
30
0.0
11
2.137500
21
1.873657
31
0.0
0
LINE
8
TOP
10
2.137500
20
1.873657
30
0.0
11
2.250000
21
1.875233
31
0.0
0
LINE
8
TOP
10
2.250000
20
1.875233
30
0.0
11
2.362500
21
1.876809
31
0.0
0
LINE
8
TOP
10
2.362500
20
1.876809
30
0.0
11
2.475000
21
1.878385
31
0.0
0
LINE
8
TOP
10
2.475000
20
1.878385
30
0.0
11
2.587500
21
1.879961
31
0.0
0
LINE
8
TOP
10
2.587500
20
1.879961
30
0.0
11
2.700000
21
1.881537
31
0.0
0
LINE
8
TOP
10
2.700000
20
1.881537
30
0.0
11
2.812500
21
1.883113
31
0.0
0
LINE
8
TOP
10
2.812500
20
1.883113
30
0.0
11
2.925000
21
1.884689
31
0.0
0
LINE
8
TOP
10
2.925000
20
1.884689
30
0.0
11
3.037500
21
1.886265
31
0.0
0
LINE
8
TOP
10
3.037500
20
1.886265
30
0.0
11
3.150000
21
1.887841
31
0.0
0
LINE
8
TOP
10
3.150000
20
1.887841
30
0.0
11
3.262500
21
1.889417
31
0.0
0
LINE
8
TOP
10
3.262500
20
1.889417
30
0.0
11
3.375000
21
1.890993
31
0.0
0
LINE
8
TOP
10
3.375000
20
1.890993
30
0.0
11
3.487500
21
1.892569
31
0.0
0
LINE
8
TOP
10
3.487500
20
1.892569
30
0.0
11
3.600000
21
1.894145
31
0.0
0
LINE
8
TOP
10
3.600000
20
1.894145
30
0.0
11
3.712500
21
1.895721
31
0.0
0
LINE
8
TOP
10
3.712500
20
1.895721
30
0.0
11
3.825000
21
1.897297
31
0.0
0
LINE
8
TOP
10
3.825000
20
1.897297
30
0.0
11
3.937500
21
1.898873
31
0.0
0
LINE
8
TOP
10
3.937500
20
1.898873
30
0.0
11
4.050000
21
1.900449
31
0.0
0
LINE
8
TOP
10
4.050000
20
1.900449
30
0.0
11
4.162500
21
1.902025
31
0.0
0
LINE
8
TOP
10
4.162500
20
1.902025
30
0.0
11
4.275000
21
1.903601
31
0.0
0
LINE
8
TOP
10
4.275000
20
1.903601
30
0.0
11
4.387500
21
1.905177
31
0.0
0
LINE
8
TOP
10
4.387500
20
1.905177
30
0.0
11
4.500000
21
1.906753
31
0.0
0
LINE
8
TOP
10
4.500000
20
1.906753
30
0.0
11
4.612500
21
1.905177
31
0.0
0
LINE
8
TOP
10
4.612500
20
1.905177
30
0.0
11
4.725000
21
1.903601
31
0.0
0
LINE
8
TOP
10
4.725000
20
1.903601
30
0.0
11
4.837500
21
1.902025
31
0.0
0
LINE
8
TOP
10
4.837500
20
1.902025
30
0.0
11
4.950000
21
1.900449
31
0.0
0
LINE
8
TOP
10
4.950000
20
1.900449
30
0.0
11
5.062500
21
1.898873
31
0.0
0
LINE
8
TOP
10
5.062500
20
1.898873
30
0.0
11
5.175000
21
1.897297
31
0.0
0
LINE
8
TOP
10
5.175000
20
1.897297
30
0.0
11
5.287500
21
1.895721
31
0.0
0
LINE
8
TOP
10
5.287500
20
1.895721
30
0.0
11
5.400000
21
1.894145
31
0.0
0
LINE
8
TOP
10
5.400000
20
1.894145
30
0.0
11
5.512500
21
1.892569
31
0.0
0
LINE
8
TOP
10
5.512500
20
1.892569
30
0.0
11
5.625000
21
1.890993
31
0.0
0
LINE
8
TOP
10
5.625000
20
1.890993
30
0.0
11
5.737500
21
1.889417
31
0.0
0
LINE
8
TOP
10
5.737500
20
1.889417
30
0.0
11
5.850000
21
1.887841
31
0.0
0
LINE
8
TOP
10
5.850000
20
1.887841
30
0.0
11
5.962500
21
1.886265
31
0.0
0
LINE
8
TOP
10
5.962500
20
1.886265
30
0.0
11
6.075000
21
1.884689
31
0.0
0
LINE
8
TOP
10
6.075000
20
1.884689
30
0.0
11
6.187500
21
1.883113
31
0.0
0
LINE
8
TOP
10
6.187500
20
1.883113
30
0.0
11
6.300000
21
1.881537
31
0.0
0
LINE
8
TOP
10
6.300000
20
1.881537
30
0.0
11
6.412500
21
1.879961
31
0.0
0
LINE
8
TOP
10
6.412500
20
1.879961
30
0.0
11
6.525000
21
1.878385
31
0.0
0
LINE
8
TOP
10
6.525000
20
1.878385
30
0.0
11
6.637500
21
1.876809
31
0.0
0
LINE
8
TOP
10
6.637500
20
1.876809
30
0.0
11
6.750000
21
1.875233
31
0.0
0
LINE
8
TOP
10
6.750000
20
1.875233
30
0.0
11
6.862500
21
1.873657
31
0.0
0
LINE
8
TOP
10
6.862500
20
1.873657
30
0.0
11
6.975000
21
1.872081
31
0.0
0
LINE
8
TOP
10
6.975000
20
1.872081
30
0.0
11
7.087500
21
1.870505
31
0.0
0
LINE
8
TOP
10
7.087500
20
1.870505
30
0.0
11
7.200000
21
1.868929
31
0.0
0
LINE
8
TOP
10
7.200000
20
1.868929
30
0.0
11
7.312500
21
1.867353
31
0.0
0
LINE
8
TOP
10
7.312500
20
1.867353
30
0.0
11
7.425000
21
1.865777
31
0.0
0
LINE
8
TOP
10
7.425000
20
1.865777
30
0.0
11
7.537500
21
1.864201
31
0.0
0
LINE
8
TOP
10
7.537500
20
1.864201
30
0.0
11
7.650000
21
1.862625
31
0.0
0
LINE
8
TOP
10
7.650000
20
1.862625
30
0.0
11
7.762500
21
1.861049
31
0.0
0
LINE
8
TOP
10
7.762500
20
1.861049
30
0.0
11
7.875000
21
1.859474
31
0.0
0
LINE
8
TOP
10
7.875000
20
1.859474
30
0.0
11
7.987500
21
1.857898
31
0.0
0
LINE
8
TOP
10
7.987500
20
1.857898
30
0.0
11
8.100000
21
1.856322
31
0.0
0
LINE
8
TOP
10
8.100000
20
1.856322
30
0.0
11
8.212500
21
1.854746
31
0.0
0
LINE
8
TOP
10
8.212500
20
1.854746
30
0.0
11
8.325000
21
1.853170
31
0.0
0
LINE
8
TOP
10
8.325000
20
1.853170
30
0.0
11
8.437500
21
1.851594
31
0.0
0
LINE
8
TOP
10
8.437500
20
1.851594
30
0.0
11
8.500000
21
1.850718
31
0.0
0
LINE
8
TOP
10
8.500000
20
1.850718
30
0.0
11
8.550000
21
1.850018
31
0.0
0
LINE
8
TOP
10
8.550000
20
1.850018
30
0.0
11
8.662500
21
1.848442
31
0.0
0
LINE
8
TOP
10
8.662500
20
1.848442
30
0.0
11
8.775000
21
1.846866
31
0.0
0
LINE
8
TOP
10
8.775000
20
1.846866
30
0.0
11
8.887500
21
1.845290
31
0.0
0
LINE
8
TOP
10
8.887500
20
1.845290
30
0.0
11
9.000000
21
1.843714
31
0.0
0
LINE
8
TOP
10
0.000000
20
1.469022
30
0.0
11
0.112500
21
1.467446
31
0.0
0
LINE
8
TOP
10
0.112500
20
1.467446
30
0.0
11
0.225000
21
1.465870
31
0.0
0
LINE
8
TOP
10
0.225000
20
1.465870
30
0.0
11
0.337500
21
1.464294
31
0.0
0
LINE
8
TOP
10
0.337500
20
1.464294
30
0.0
11
0.450000
21
1.462718
31
0.0
0
LINE
8
TOP
10
0.450000
20
1.462718
30
0.0
11
0.500000
21
1.462018
31
0.0
0
LINE
8
TOP
10
0.500000
20
1.462018
30
0.0
11
0.562500
21
1.461142
31
0.0
0
LINE
8
TOP
10
0.562500
20
1.461142
30
0.0
11
0.675000
21
1.459566
31
0.0
0
LINE
8
TOP
10
0.675000
20
1.459566
30
0.0
11
0.787500
21
1.457990
31
0.0
0
LINE
8
TOP
10
0.787500
20
1.457990
30
0.0
11
0.900000
21
1.456414
31
0.0
0
LINE
8
TOP
10
0.900000
20
1.456414
30
0.0
11
1.012500
21
1.454838
31
0.0
0
LINE
8
TOP
10
1.012500
20
1.454838
30
0.0
11
1.125000
21
1.453262
31
0.0
0
LINE
8
TOP
10
1.125000
20
1.453262
30
0.0
11
1.237500
21
1.451686
31
0.0
0
LINE
8
TOP
10
1.237500
20
1.451686
30
0.0
11
1.350000
21
1.450110
31
0.0
0
LINE
8
TOP
10
1.350000
20
1.450110
30
0.0
11
1.462500
21
1.448534
31
0.0
0
LINE
8
TOP
10
1.462500
20
1.448534
30
0.0
11
1.575000
21
1.446958
31
0.0
0
LINE
8
TOP
10
1.575000
20
1.446958
30
0.0
11
1.687500
21
1.445382
31
0.0
0
LINE
8
TOP
10
1.687500
20
1.445382
30
0.0
11
1.800000
21
1.443806
31
0.0
0
LINE
8
TOP
10
1.800000
20
1.443806
30
0.0
11
1.912500
21
1.442230
31
0.0
0
LINE
8
TOP
10
1.912500
20
1.442230
30
0.0
11
2.025000
21
1.440654
31
0.0
0
LINE
8
TOP
10
2.025000
20
1.440654
30
0.0
11
2.137500
21
1.439078
31
0.0
0
LINE
8
TOP
10
2.137500
20
1.439078
30
0.0
11
2.250000
21
1.437502
31
0.0
0
LINE
8
TOP
10
2.250000
20
1.437502
30
0.0
11
2.362500
21
1.435926
31
0.0
0
LINE
8
TOP
10
2.362500
20
1.435926
30
0.0
11
2.475000
21
1.434350
31
0.0
0
LINE
8
TOP
10
2.475000
20
1.434350
30
0.0
11
2.587500
21
1.432774
31
0.0
0
LINE
8
TOP
10
2.587500
20
1.432774
30
0.0
11
2.700000
21
1.431198
31
0.0
0
LINE
8
TOP
10
2.700000
20
1.431198
30
0.0
11
2.812500
21
1.429622
31
0.0
0
LINE
8
TOP
10
2.812500
20
1.429622
30
0.0
11
2.925000
21
1.428046
31
0.0
0
LINE
8
TOP
10
2.925000
20
1.428046
30
0.0
11
3.037500
21
1.426470
31
0.0
0
LINE
8
TOP
10
3.037500
20
1.426470
30
0.0
11
3.150000
21
1.424894
31
0.0
0
LINE
8
TOP
10
3.150000
20
1.424894
30
0.0
11
3.262500
21
1.423318
31
0.0
0
LINE
8
TOP
10
3.262500
20
1.423318
30
0.0
11
3.375000
21
1.421742
31
0.0
0
LINE
8
TOP
10
3.375000
20
1.421742
30
0.0
11
3.487500
21
1.420166
31
0.0
0
LINE
8
TOP
10
3.487500
20
1.420166
30
0.0
11
3.600000
21
1.418590
31
0.0
0
LINE
8
TOP
10
3.600000
20
1.418590
30
0.0
11
3.712500
21
1.417014
31
0.0
0
LINE
8
TOP
10
3.712500
20
1.417014
30
0.0
11
3.825000
21
1.415438
31
0.0
0
LINE
8
TOP
10
3.825000
20
1.415438
30
0.0
11
3.937500
21
1.413862
31
0.0
0
LINE
8
TOP
10
3.937500
20
1.413862
30
0.0
11
4.050000
21
1.412286
31
0.0
0
LINE
8
TOP
10
4.050000
20
1.412286
30
0.0
11
4.162500
21
1.410710
31
0.0
0
LINE
8
TOP
10
4.162500
20
1.410710
30
0.0
11
4.275000
21
1.409134
31
0.0
0
LINE
8
TOP
10
4.275000
20
1.409134
30
0.0
11
4.387500
21
1.407558
31
0.0
0
LINE
8
TOP
10
4.387500
20
1.407558
30
0.0
11
4.500000
21
1.405982
31
0.0
0
LINE
8
TOP
10
4.500000
20
1.405982
30
0.0
11
4.612500
21
1.407558
31
0.0
0
LINE
8
TOP
10
4.612500
20
1.407558
30
0.0
11
4.725000
21
1.409134
31
0.0
0
LINE
8
TOP
10
4.725000
20
1.409134
30
0.0
11
4.837500
21
1.410710
31
0.0
0
LINE
8
TOP
10
4.837500
20
1.410710
30
0.0
11
4.950000
21
1.412286
31
0.0
0
LINE
8
TOP
10
4.950000
20
1.412286
30
0.0
11
5.062500
21
1.413862
31
0.0
0
LINE
8
TOP
10
5.062500
20
1.413862
30
0.0
11
5.175000
21
1.415438
31
0.0
0
LINE
8
TOP
10
5.175000
20
1.415438
30
0.0
11
5.287500
21
1.417014
31
0.0
0
LINE
8
TOP
10
5.287500
20
1.417014
30
0.0
11
5.400000
21
1.418590
31
0.0
0
LINE
8
TOP
10
5.400000
20
1.418590
30
0.0
11
5.512500
21
1.420166
31
0.0
0
LINE
8
TOP
10
5.512500
20
1.420166
30
0.0
11
5.625000
21
1.421742
31
0.0
0
LINE
8
TOP
10
5.625000
20
1.421742
30
0.0
11
5.737500
21
1.423318
31
0.0
0
LINE
8
TOP
10
5.737500
20
1.423318
30
0.0
11
5.850000
21
1.424894
31
0.0
0
LINE
8
TOP
10
5.850000
20
1.424894
30
0.0
11
5.962500
21
1.426470
31
0.0
0
LINE
8
TOP
10
5.962500
20
1.426470
30
0.0
11
6.075000
21
1.428046
31
0.0
0
LINE
8
TOP
10
6.075000
20
1.428046
30
0.0
11
6.187500
21
1.429622
31
0.0
0
LINE
8
TOP
10
6.187500
20
1.429622
30
0.0
11
6.300000
21
1.431198
31
0.0
0
LINE
8
TOP
10
6.300000
20
1.431198
30
0.0
11
6.412500
21
1.432774
31
0.0
0
LINE
8
TOP
10
6.412500
20
1.432774
30
0.0
11
6.525000
21
1.434350
31
0.0
0
LINE
8
TOP
10
6.525000
20
1.434350
30
0.0
11
6.637500
21
1.435926
31
0.0
0
LINE
8
TOP
10
6.637500
20
1.435926
30
0.0
11
6.750000
21
1.437502
31
0.0
0
LINE
8
TOP
10
6.750000
20
1.437502
30
0.0
11
6.862500
21
1.439078
31
0.0
0
LINE
8
TOP
10
6.862500
20
1.439078
30
0.0
11
6.975000
21
1.440654
31
0.0
0
LINE
8
TOP
10
6.975000
20
1.440654
30
0.0
11
7.087500
21
1.442230
31
0.0
0
LINE
8
TOP
10
7.087500
20
1.442230
30
0.0
11
7.200000
21
1.443806
31
0.0
0
LINE
8
TOP
10
7.200000
20
1.443806
30
0.0
11
7.312500
21
1.445382
31
0.0
0
LINE
8
TOP
10
7.312500
20
1.445382
30
0.0
11
7.425000
21
1.446958
31
0.0
0
LINE
8
TOP
10
7.425000
20
1.446958
30
0.0
11
7.537500
21
1.448534
31
0.0
0
LINE
8
TOP
10
7.537500
20
1.448534
30
0.0
11
7.650000
21
1.450110
31
0.0
0
LINE
8
TOP
10
7.650000
20
1.450110
30
0.0
11
7.762500
21
1.451686
31
0.0
0
LINE
8
TOP
10
7.762500
20
1.451686
30
0.0
11
7.875000
21
1.453262
31
0.0
0
LINE
8
TOP
10
7.875000
20
1.453262
30
0.0
11
7.987500
21
1.454838
31
0.0
0
LINE
8
TOP
10
7.987500
20
1.454838
30
0.0
11
8.100000
21
1.456414
31
0.0
0
LINE
8
TOP
10
8.100000
20
1.456414
30
0.0
11
8.212500
21
1.457990
31
0.0
0
LINE
8
TOP
10
8.212500
20
1.457990
30
0.0
11
8.325000
21
1.459566
31
0.0
0
LINE
8
TOP
10
8.325000
20
1.459566
30
0.0
11
8.437500
21
1.461142
31
0.0
0
LINE
8
TOP
10
8.437500
20
1.461142
30
0.0
11
8.500000
21
1.462018
31
0.0
0
LINE
8
TOP
10
8.500000
20
1.462018
30
0.0
11
8.550000
21
1.462718
31
0.0
0
LINE
8
TOP
10
8.550000
20
1.462718
30
0.0
11
8.662500
21
1.464294
31
0.0
0
LINE
8
TOP
10
8.662500
20
1.464294
30
0.0
11
8.775000
21
1.465870
31
0.0
0
LINE
8
TOP
10
8.775000
20
1.465870
30
0.0
11
8.887500
21
1.467446
31
0.0
0
LINE
8
TOP
10
8.887500
20
1.467446
30
0.0
11
9.000000
21
1.469022
31
0.0
0
LINE
8
TOP
10
0.000000
20
1.843714
30
0.0
11
0.000000
21
1.469022
31
0.0
0
LINE
8
TOP
10
9.000000
20
1.843714
30
0.0
11
9.000000
21
1.469022
31
0.0
0
LINE
8
SECTION
10
10.249615
20
-0.169213
30
0.0
11
10.750385
21
-0.169213
31
0.0
0
LINE
8
SECTION
10
10.750385
20
-0.169213
30
0.0
11
10.750385
21
0.169213
31
0.0
0
LINE
8
SECTION
10
10.750385
20
0.169213
30
0.0
11
10.249615
21
0.169213
31
0.0
0
LINE
8
SECTION
10
10.249615
20
0.169213
30
0.0
11
10.249615
21
-0.169213
31
0.0
0
LINE
8
SECTION
10
10.312367
20
-0.106461
30
0.0
11
10.687633
21
-0.106461
31
0.0
0
LINE
8
SECTION
10
10.687633
20
-0.106461
30
0.0
11
10.687633
21
0.106461
31
0.0
0
LINE
8
SECTION
10
10.687633
20
0.106461
30
0.0
11
10.312367
21
0.106461
31
0.0
0
LINE
8
SECTION
10
10.312367
20
0.106461
30
0.0
11
10.312367
21
-0.106461
31
0.0
0
LINE
8
SECTION
10
10.312367
20
0.000000
30
0.0
11
10.375119
21
0.000000
31
0.0
0
LINE
8
SECTION
10
10.375119
20
0.000000
30
0.0
11
10.375119
21
0.106461
31
0.0
0
LINE
8
SECTION
10
10.375119
20
0.106461
30
0.0
11
10.312367
21
0.106461
31
0.0
0
LINE
8
SECTION
10
10.312367
20
0.106461
30
0.0
11
10.312367
21
0.000000
31
0.0
0
LINE
8
SECTION
10
10.312367
20
-0.106461
30
0.0
11
10.375119
21
-0.106461
31
0.0
0
LINE
8
SECTION
10
10.375119
20
-0.106461
30
0.0
11
10.375119
21
0.000000
31
0.0
0
LINE
8
SECTION
10
10.375119
20
0.000000
30
0.0
11
10.312367
21
0.000000
31
0.0
0
LINE
8
SECTION
10
10.312367
20
0.000000
30
0.0
11
10.312367
21
-0.106461
31
0.0
0
LINE
8
SECTION
10
10.624881
20
0.000000
30
0.0
11
10.687633
21
0.000000
31
0.0
0
LINE
8
SECTION
10
10.687633
20
0.000000
30
0.0
11
10.687633
21
0.106461
31
0.0
0
LINE
8
SECTION
10
10.687633
20
0.106461
30
0.0
11
10.624881
21
0.106461
31
0.0
0
LINE
8
SECTION
10
10.624881
20
0.106461
30
0.0
11
10.624881
21
0.000000
31
0.0
0
LINE
8
SECTION
10
10.624881
20
-0.106461
30
0.0
11
10.687633
21
-0.106461
31
0.0
0
LINE
8
SECTION
10
10.687633
20
-0.106461
30
0.0
11
10.687633
21
0.000000
31
0.0
0
LINE
8
SECTION
10
10.687633
20
0.000000
30
0.0
11
10.624881
21
0.000000
31
0.0
0
LINE
8
SECTION
10
10.624881
20
0.000000
30
0.0
11
10.624881
21
-0.106461
31
0.0
0
ENDSEC
0
EOF
