0
SECTION
2
HEADER
9
$INSUNITS
70
1
0
ENDSEC
0
SECTION
2
ENTITIES
0
LINE
8
FRONT
10
0.000000
20
0.300535
30
0.0
11
0.112500
21
0.300419
31
0.0
0
LINE
8
FRONT
10
0.112500
20
0.300419
30
0.0
11
0.225000
21
0.300303
31
0.0
0
LINE
8
FRONT
10
0.225000
20
0.300303
30
0.0
11
0.337500
21
0.300188
31
0.0
0
LINE
8
FRONT
10
0.337500
20
0.300188
30
0.0
11
0.450000
21
0.300072
31
0.0
0
LINE
8
FRONT
10
0.450000
20
0.300072
30
0.0
11
0.500000
21
0.300021
31
0.0
0
LINE
8
FRONT
10
0.500000
20
0.300021
30
0.0
11
0.562500
21
0.299957
31
0.0
0
LINE
8
FRONT
10
0.562500
20
0.299957
30
0.0
11
0.675000
21
0.299841
31
0.0
0
LINE
8
FRONT
10
0.675000
20
0.299841
30
0.0
11
0.787500
21
0.299725
31
0.0
0
LINE
8
FRONT
10
0.787500
20
0.299725
30
0.0
11
0.900000
21
0.299610
31
0.0
0
LINE
8
FRONT
10
0.900000
20
0.299610
30
0.0
11
1.012500
21
0.299494
31
0.0
0
LINE
8
FRONT
10
1.012500
20
0.299494
30
0.0
11
1.125000
21
0.299379
31
0.0
0
LINE
8
FRONT
10
1.125000
20
0.299379
30
0.0
11
1.237500
21
0.299263
31
0.0
0
LINE
8
FRONT
10
1.237500
20
0.299263
30
0.0
11
1.350000
21
0.299147
31
0.0
0
LINE
8
FRONT
10
1.350000
20
0.299147
30
0.0
11
1.462500
21
0.299032
31
0.0
0
LINE
8
FRONT
10
1.462500
20
0.299032
30
0.0
11
1.575000
21
0.298916
31
0.0
0
LINE
8
FRONT
10
1.575000
20
0.298916
30
0.0
11
1.687500
21
0.298801
31
0.0
0
LINE
8
FRONT
10
1.687500
20
0.298801
30
0.0
11
1.800000
21
0.298685
31
0.0
0
LINE
8
FRONT
10
1.800000
20
0.298685
30
0.0
11
1.912500
21
0.298569
31
0.0
0
LINE
8
FRONT
10
1.912500
20
0.298569
30
0.0
11
2.025000
21
0.298454
31
0.0
0
LINE
8
FRONT
10
2.025000
20
0.298454
30
0.0
11
2.137500
21
0.298338
31
0.0
0
LINE
8
FRONT
10
2.137500
20
0.298338
30
0.0
11
2.250000
21
0.298223
31
0.0
0
LINE
8
FRONT
10
2.250000
20
0.298223
30
0.0
11
2.362500
21
0.298107
31
0.0
0
LINE
8
FRONT
10
2.362500
20
0.298107
30
0.0
11
2.475000
21
0.297991
31
0.0
0
LINE
8
FRONT
10
2.475000
20
0.297991
30
0.0
11
2.587500
21
0.297876
31
0.0
0
LINE
8
FRONT
10
2.587500
20
0.297876
30
0.0
11
2.700000
21
0.297760
31
0.0
0
LINE
8
FRONT
10
2.700000
20
0.297760
30
0.0
11
2.812500
21
0.297645
31
0.0
0
LINE
8
FRONT
10
2.812500
20
0.297645
30
0.0
11
2.925000
21
0.297529
31
0.0
0
LINE
8
FRONT
10
2.925000
20
0.297529
30
0.0
11
3.037500
21
0.297413
31
0.0
0
LINE
8
FRONT
10
3.037500
20
0.297413
30
0.0
11
3.150000
21
0.297298
31
0.0
0
LINE
8
FRONT
10
3.150000
20
0.297298
30
0.0
11
3.262500
21
0.297182
31
0.0
0
LINE
8
FRONT
10
3.262500
20
0.297182
30
0.0
11
3.375000
21
0.297067
31
0.0
0
LINE
8
FRONT
10
3.375000
20
0.297067
30
0.0
11
3.487500
21
0.296951
31
0.0
0
LINE
8
FRONT
10
3.487500
20
0.296951
30
0.0
11
3.600000
21
0.296835
31
0.0
0
LINE
8
FRONT
10
3.600000
20
0.296835
30
0.0
11
3.712500
21
0.296720
31
0.0
0
LINE
8
FRONT
10
3.712500
20
0.296720
30
0.0
11
3.825000
21
0.296604
31
0.0
0
LINE
8
FRONT
10
3.825000
20
0.296604
30
0.0
11
3.937500
21
0.296489
31
0.0
0
LINE
8
FRONT
10
3.937500
20
0.296489
30
0.0
11
4.050000
21
0.296373
31
0.0
0
LINE
8
FRONT
10
4.050000
20
0.296373
30
0.0
11
4.162500
21
0.296257
31
0.0
0
LINE
8
FRONT
10
4.162500
20
0.296257
30
0.0
11
4.275000
21
0.296142
31
0.0
0
LINE
8
FRONT
10
4.275000
20
0.296142
30
0.0
11
4.387500
21
0.296026
31
0.0
0
LINE
8
FRONT
10
4.387500
20
0.296026
30
0.0
11
4.500000
21
0.295911
31
0.0
0
LINE
8
FRONT
10
4.500000
20
0.295911
30
0.0
11
4.612500
21
0.296026
31
0.0
0
LINE
8
FRONT
10
4.612500
20
0.296026
30
0.0
11
4.725000
21
0.296142
31
0.0
0
LINE
8
FRONT
10
4.725000
20
0.296142
30
0.0
11
4.837500
21
0.296257
31
0.0
0
LINE
8
FRONT
10
4.837500
20
0.296257
30
0.0
11
4.950000
21
0.296373
31
0.0
0
LINE
8
FRONT
10
4.950000
20
0.296373
30
0.0
11
5.062500
21
0.296489
31
0.0
0
LINE
8
FRONT
10
5.062500
20
0.296489
30
0.0
11
5.175000
21
0.296604
31
0.0
0
LINE
8
FRONT
10
5.175000
20
0.296604
30
0.0
11
5.287500
21
0.296720
31
0.0
0
LINE
8
FRONT
10
5.287500
20
0.296720
30
0.0
11
5.400000
21
0.296835
31
0.0
0
LINE
8
FRONT
10
5.400000
20
0.296835
30
0.0
11
5.512500
21
0.296951
31
0.0
0
LINE
8
FRONT
10
5.512500
20
0.296951
30
0.0
11
5.625000
21
0.297067
31
0.0
0
LINE
8
FRONT
10
5.625000
20
0.297067
30
0.0
11
5.737500
21
0.297182
31
0.0
0
LINE
8
FRONT
10
5.737500
20
0.297182
30
0.0
11
5.850000
21
0.297298
31
0.0
0
LINE
8
FRONT
10
5.850000
20
0.297298
30
0.0
11
5.962500
21
0.297413
31
0.0
0
LINE
8
FRONT
10
5.962500
20
0.297413
30
0.0
11
6.075000
21
0.297529
31
0.0
0
LINE
8
FRONT
10
6.075000
20
0.297529
30
0.0
11
6.187500
21
0.297645
31
0.0
0
LINE
8
FRONT
10
6.187500
20
0.297645
30
0.0
11
6.300000
21
0.297760
31
0.0
0
LINE
8
FRONT
10
6.300000
20
0.297760
30
0.0
11
6.412500
21
0.297876
31
0.0
0
LINE
8
FRONT
10
6.412500
20
0.297876
30
0.0
11
6.525000
21
0.297991
31
0.0
0
LINE
8
FRONT
10
6.525000
20
0.297991
30
0.0
11
6.637500
21
0.298107
31
0.0
0
LINE
8
FRONT
10
6.637500
20
0.298107
30
0.0
11
6.750000
21
0.298223
31
0.0
0
LINE
8
FRONT
10
6.750000
20
0.298223
30
0.0
11
6.862500
21
0.298338
31
0.0
0
LINE
8
FRONT
10
6.862500
20
0.298338
30
0.0
11
6.975000
21
0.298454
31
0.0
0
LINE
8
FRONT
10
6.975000
20
0.298454
30
0.0
11
7.087500
21
0.298569
31
0.0
0
LINE
8
FRONT
10
7.087500
20
0.298569
30
0.0
11
7.200000
21
0.298685
31
0.0
0
LINE
8
FRONT
10
7.200000
20
0.298685
30
0.0
11
7.312500
21
0.298801
31
0.0
0
LINE
8
FRONT
10
7.312500
20
0.298801
30
0.0
11
7.425000
21
0.298916
31
0.0
0
LINE
8
FRONT
10
7.425000
20
0.298916
30
0.0
11
7.537500
21
0.299032
31
0.0
0
LINE
8
FRONT
10
7.537500
20
0.299032
30
0.0
11
7.650000
21
0.299147
31
0.0
0
LINE
8
FRONT
10
7.650000
20
0.299147
30
0.0
11
7.762500
21
0.299263
31
0.0
0
LINE
8
FRONT
10
7.762500
20
0.299263
30
0.0
11
7.875000
21
0.299379
31
0.0
0
LINE
8
FRONT
10
7.875000
20
0.299379
30
0.0
11
7.987500
21
0.299494
31
0.0
0
LINE
8
FRONT
10
7.987500
20
0.299494
30
0.0
11
8.100000
21
0.299610
31
0.0
0
LINE
8
FRONT
10
8.100000
20
0.299610
30
0.0
11
8.212500
21
0.299725
31
0.0
0
LINE
8
FRONT
10
8.212500
20
0.299725
30
0.0
11
8.325000
21
0.299841
31
0.0
0
LINE
8
FRONT
10
8.325000
20
0.299841
30
0.0
11
8.437500
21
0.299957
31
0.0
0
LINE
8
FRONT
10
8.437500
20
0.299957
30
0.0
11
8.500000
21
0.300021
31
0.0
0
LINE
8
FRONT
10
8.500000
20
0.300021
30
0.0
11
8.550000
21
0.300072
31
0.0
0
LINE
8
FRONT
10
8.550000
20
0.300072
30
0.0
11
8.662500
21
0.300188
31
0.0
0
LINE
8
FRONT
10
8.662500
20
0.300188
30
0.0
11
8.775000
21
0.300303
31
0.0
0
LINE
8
FRONT
10
8.775000
20
0.300303
30
0.0
11
8.887500
21
0.300419
31
0.0
0
LINE
8
FRONT
10
8.887500
20
0.300419
30
0.0
11
9.000000
21
0.300535
31
0.0
0
LINE
8
FRONT
10
0.000000
20
-0.300535
30
0.0
11
0.112500
21
-0.300419
31
0.0
0
LINE
8
FRONT
10
0.112500
20
-0.300419
30
0.0
11
0.225000
21
-0.300303
31
0.0
0
LINE
8
FRONT
10
0.225000
20
-0.300303
30
0.0
11
0.337500
21
-0.300188
31
0.0
0
LINE
8
FRONT
10
0.337500
20
-0.300188
30
0.0
11
0.450000
21
-0.300072
31
0.0
0
LINE
8
FRONT
10
0.450000
20
-0.300072
30
0.0
11
0.500000
21
-0.300021
31
0.0
0
LINE
8
FRONT
10
0.500000
20
-0.300021
30
0.0
11
0.562500
21
-0.299957
31
0.0
0
LINE
8
FRONT
10
0.562500
20
-0.299957
30
0.0
11
0.675000
21
-0.299841
31
0.0
0
LINE
8
FRONT
10
0.675000
20
-0.299841
30
0.0
11
0.787500
21
-0.299725
31
0.0
0
LINE
8
FRONT
10
0.787500
20
-0.299725
30
0.0
11
0.900000
21
-0.299610
31
0.0
0
LINE
8
FRONT
10
0.900000
20
-0.299610
30
0.0
11
1.012500
21
-0.299494
31
0.0
0
LINE
8
FRONT
10
1.012500
20
-0.299494
30
0.0
11
1.125000
21
-0.299379
31
0.0
0
LINE
8
FRONT
10
1.125000
20
-0.299379
30
0.0
11
1.237500
21
-0.299263
31
0.0
0
LINE
8
FRONT
10
1.237500
20
-0.299263
30
0.0
11
1.350000
21
-0.299147
31
0.0
0
LINE
8
FRONT
10
1.350000
20
-0.299147
30
0.0
11
1.462500
21
-0.299032
31
0.0
0
LINE
8
FRONT
10
1.462500
20
-0.299032
30
0.0
11
1.575000
21
-0.298916
31
0.0
0
LINE
8
FRONT
10
1.575000
20
-0.298916
30
0.0
11
1.687500
21
-0.298801
31
0.0
0
LINE
8
FRONT
10
1.687500
20
-0.298801
30
0.0
11
1.800000
21
-0.298685
31
0.0
0
LINE
8
FRONT
10
1.800000
20
-0.298685
30
0.0
11
1.912500
21
-0.298569
31
0.0
0
LINE
8
FRONT
10
1.912500
20
-0.298569
30
0.0
11
2.025000
21
-0.298454
31
0.0
0
LINE
8
FRONT
10
2.025000
20
-0.298454
30
0.0
11
2.137500
21
-0.298338
31
0.0
0
LINE
8
FRONT
10
2.137500
20
-0.298338
30
0.0
11
2.250000
21
-0.298223
31
0.0
0
LINE
8
FRONT
10
2.250000
20
-0.298223
30
0.0
11
2.362500
21
-0.298107
31
0.0
0
LINE
8
FRONT
10
2.362500
20
-0.298107
30
0.0
11
2.475000
21
-0.297991
31
0.0
0
LINE
8
FRONT
10
2.475000
20
-0.297991
30
0.0
11
2.587500
21
-0.297876
31
0.0
0
LINE
8
FRONT
10
2.587500
20
-0.297876
30
0.0
11
2.700000
21
-0.297760
31
0.0
0
LINE
8
FRONT
10
2.700000
20
-0.297760
30
0.0
11
2.812500
21
-0.297645
31
0.0
0
LINE
8
FRONT
10
2.812500
20
-0.297645
30
0.0
11
2.925000
21
-0.297529
31
0.0
0
LINE
8
FRONT
10
2.925000
20
-0.297529
30
0.0
11
3.037500
21
-0.297413
31
0.0
0
LINE
8
FRONT
10
3.037500
20
-0.297413
30
0.0
11
3.150000
21
-0.297298
31
0.0
0
LINE
8
FRONT
10
3.150000
20
-0.297298
30
0.0
11
3.262500
21
-0.297182
31
0.0
0
LINE
8
FRONT
10
3.262500
20
-0.297182
30
0.0
11
3.375000
21
-0.297067
31
0.0
0
LINE
8
FRONT
10
3.375000
20
-0.297067
30
0.0
11
3.487500
21
-0.296951
31
0.0
0
LINE
8
FRONT
10
3.487500
20
-0.296951
30
0.0
11
3.600000
21
-0.296835
31
0.0
0
LINE
8
FRONT
10
3.600000
20
-0.296835
30
0.0
11
3.712500
21
-0.296720
31
0.0
0
LINE
8
FRONT
10
3.712500
20
-0.296720
30
0.0
11
3.825000
21
-0.296604
31
0.0
0
LINE
8
FRONT
10
3.825000
20
-0.296604
30
0.0
11
3.937500
21
-0.296489
31
0.0
0
LINE
8
FRONT
10
3.937500
20
-0.296489
30
0.0
11
4.050000
21
-0.296373
31
0.0
0
LINE
8
FRONT
10
4.050000
20
-0.296373
30
0.0
11
4.162500
21
-0.296257
31
0.0
0
LINE
8
FRONT
10
4.162500
20
-0.296257
30
0.0
11
4.275000
21
-0.296142
31
0.0
0
LINE
8
FRONT
10
4.275000
20
-0.296142
30
0.0
11
4.387500
21
-0.296026
31
0.0
0
LINE
8
FRONT
10
4.387500
20
-0.296026
30
0.0
11
4.500000
21
-0.295911
31
0.0
0
LINE
8
FRONT
10
4.500000
20
-0.295911
30
0.0
11
4.612500
21
-0.296026
31
0.0
0
LINE
8
FRONT
10
4.612500
20
-0.296026
30
0.0
11
4.725000
21
-0.296142
31
0.0
0
LINE
8
FRONT
10
4.725000
20
-0.296142
30
0.0
11
4.837500
21
-0.296257
31
0.0
0
LINE
8
FRONT
10
4.837500
20
-0.296257
30
0.0
11
4.950000
21
-0.296373
31
0.0
0
LINE
8
FRONT
10
4.950000
20
-0.296373
30
0.0
11
5.062500
21
-0.296489
31
0.0
0
LINE
8
FRONT
10
5.062500
20
-0.296489
30
0.0
11
5.175000
21
-0.296604
31
0.0
0
LINE
8
FRONT
10
5.175000
20
-0.296604
30
0.0
11
5.287500
21
-0.296720
31
0.0
0
LINE
8
FRONT
10
5.287500
20
-0.296720
30
0.0
11
5.400000
21
-0.296835
31
0.0
0
LINE
8
FRONT
10
5.400000
20
-0.296835
30
0.0
11
5.512500
21
-0.296951
31
0.0
0
LINE
8
FRONT
10
5.512500
20
-0.296951
30
0.0
11
5.625000
21
-0.297067
31
0.0
0
LINE
8
FRONT
10
5.625000
20
-0.297067
30
0.0
11
5.737500
21
-0.297182
31
0.0
0
LINE
8
FRONT
10
5.737500
20
-0.297182
30
0.0
11
5.850000
21
-0.297298
31
0.0
0
LINE
8
FRONT
10
5.850000
20
-0.297298
30
0.0
11
5.962500
21
-0.297413
31
0.0
0
LINE
8
FRONT
10
5.962500
20
-0.297413
30
0.0
11
6.075000
21
-0.297529
31
0.0
0
LINE
8
FRONT
10
6.075000
20
-0.297529
30
0.0
11
6.187500
21
-0.297645
31
0.0
0
LINE
8
FRONT
10
6.187500
20
-0.297645
30
0.0
11
6.300000
21
-0.297760
31
0.0
0
LINE
8
FRONT
10
6.300000
20
-0.297760
30
0.0
11
6.412500
21
-0.297876
31
0.0
0
LINE
8
FRONT
10
6.412500
20
-0.297876
30
0.0
11
6.525000
21
-0.297991
31
0.0
0
LINE
8
FRONT
10
6.525000
20
-0.297991
30
0.0
11
6.637500
21
-0.298107
31
0.0
0
LINE
8
FRONT
10
6.637500
20
-0.298107
30
0.0
11
6.750000
21
-0.298223
31
0.0
0
LINE
8
FRONT
10
6.750000
20
-0.298223
30
0.0
11
6.862500
21
-0.298338
31
0.0
0
LINE
8
FRONT
10
6.862500
20
-0.298338
30
0.0
11
6.975000
21
-0.298454
31
0.0
0
LINE
8
FRONT
10
6.975000
20
-0.298454
30
0.0
11
7.087500
21
-0.298569
31
0.0
0
LINE
8
FRONT
10
7.087500
20
-0.298569
30
0.0
11
7.200000
21
-0.298685
31
0.0
0
LINE
8
FRONT
10
7.200000
20
-0.298685
30
0.0
11
7.312500
21
-0.298801
31
0.0
0
LINE
8
FRONT
10
7.312500
20
-0.298801
30
0.0
11
7.425000
21
-0.298916
31
0.0
0
LINE
8
FRONT
10
7.425000
20
-0.298916
30
0.0
11
7.537500
21
-0.299032
31
0.0
0
LINE
8
FRONT
10
7.537500
20
-0.299032
30
0.0
11
7.650000
21
-0.299147
31
0.0
0
LINE
8
FRONT
10
7.650000
20
-0.299147
30
0.0
11
7.762500
21
-0.299263
31
0.0
0
LINE
8
FRONT
10
7.762500
20
-0.299263
30
0.0
11
7.875000
21
-0.299379
31
0.0
0
LINE
8
FRONT
10
7.875000
20
-0.299379
30
0.0
11
7.987500
21
-0.299494
31
0.0
0
LINE
8
FRONT
10
7.987500
20
-0.299494
30
0.0
11
8.100000
21
-0.299610
31
0.0
0
LINE
8
FRONT
10
8.100000
20
-0.299610
30
0.0
11
8.212500
21
-0.299725
31
0.0
0
LINE
8
FRONT
10
8.212500
20
-0.299725
30
0.0
11
8.325000
21
-0.299841
31
0.0
0
LINE
8
FRONT
10
8.325000
20
-0.299841
30
0.0
11
8.437500
21
-0.299957
31
0.0
0
LINE
8
FRONT
10
8.437500
20
-0.299957
30
0.0
11
8.500000
21
-0.300021
31
0.0
0
LINE
8
FRONT
10
8.500000
20
-0.300021
30
0.0
11
8.550000
21
-0.300072
31
0.0
0
LINE
8
FRONT
10
8.550000
20
-0.300072
30
0.0
11
8.662500
21
-0.300188
31
0.0
0
LINE
8
FRONT
10
8.662500
20
-0.300188
30
0.0
11
8.775000
21
-0.300303
31
0.0
0
LINE
8
FRONT
10
8.775000
20
-0.300303
30
0.0
11
8.887500
21
-0.300419
31
0.0
0
LINE
8
FRONT
10
8.887500
20
-0.300419
30
0.0
11
9.000000
21
-0.300535
31
0.0
0
LINE
8
FRONT
10
0.000000
20
0.300535
30
0.0
11
0.000000
21
-0.300535
31
0.0
0
LINE
8
FRONT
10
9.000000
20
0.300535
30
0.0
11
9.000000
21
-0.300535
31
0.0
0
LINE
8
TOP
10
0.000000
20
1.817888
30
0.0
11
0.112500
21
1.819952
31
0.0
0
LINE
8
TOP
10
0.112500
20
1.819952
30
0.0
11
0.225000
21
1.822017
31
0.0
0
LINE
8
TOP
10
0.225000
20
1.822017
30
0.0
11
0.337500
21
1.824081
31
0.0
0
LINE
8
TOP
10
0.337500
20
1.824081
30
0.0
11
0.450000
21
1.826145
31
0.0
0
LINE
8
TOP
10
0.450000
20
1.826145
30
0.0
11
0.500000
21
1.827062
31
0.0
0
LINE
8
TOP
10
0.500000
20
1.827062
30
0.0
11
0.562500
21
1.828209
31
0.0
0
LINE
8
TOP
10
0.562500
20
1.828209
30
0.0
11
0.675000
21
1.830273
31
0.0
0
LINE
8
TOP
10
0.675000
20
1.830273
30
0.0
11
0.787500
21
1.832338
31
0.0
0
LINE
8
TOP
10
0.787500
20
1.832338
30
0.0
11
0.900000
21
1.834402
31
0.0
0
LINE
8
TOP
10
0.900000
20
1.834402
30
0.0
11
1.012500
21
1.836466
31
0.0
0
LINE
8
TOP
10
1.012500
20
1.836466
30
0.0
11
1.125000
21
1.838530
31
0.0
0
LINE
8
TOP
10
1.125000
20
1.838530
30
0.0
11
1.237500
21
1.840594
31
0.0
0
LINE
8
TOP
10
1.237500
20
1.840594
30
0.0
11
1.350000
21
1.842659
31
0.0
0
LINE
8
TOP
10
1.350000
20
1.842659
30
0.0
11
1.462500
21
1.844723
31
0.0
0
LINE
8
TOP
10
1.462500
20
1.844723
30
0.0
11
1.575000
21
1.846787
31
0.0
0
LINE
8
TOP
10
1.575000
20
1.846787
30
0.0
11
1.687500
21
1.848851
31
0.0
0
LINE
8
TOP
10
1.687500
20
1.848851
30
0.0
11
1.800000
21
1.850915
31
0.0
0
LINE
8
TOP
10
1.800000
20
1.850915
30
0.0
11
1.912500
21
1.852980
31
0.0
0
LINE
8
TOP
10
1.912500
20
1.852980
30
0.0
11
2.025000
21
1.855044
31
0.0
0
LINE
8
TOP
10
2.025000
20
1.855044
30
0.0
11
2.137500
21
1.857108
31
0.0
0
LINE
8
TOP
10
2.137500
20
1.857108
30
0.0
11
2.250000
21
1.859172
31
0.0
0
LINE
8
TOP
10
2.250000
20
1.859172
30
0.0
11
2.362500
21
1.861236
31
0.0
0
LINE
8
TOP
10
2.362500
20
1.861236
30
0.0
11
2.475000
21
1.863301
31
0.0
0
LINE
8
TOP
10
2.475000
20
1.863301
30
0.0
11
2.587500
21
1.865365
31
0.0
0
LINE
8
TOP
10
2.587500
20
1.865365
30
0.0
11
2.700000
21
1.867429
31
0.0
0
LINE
8
TOP
10
2.700000
20
1.867429
30
0.0
11
2.812500
21
1.869493
31
0.0
0
LINE
8
TOP
10
2.812500
20
1.869493
30
0.0
11
2.925000
21
1.871557
31
0.0
0
LINE
8
TOP
10
2.925000
20
1.871557
30
0.0
11
3.037500
21
1.873622
31
0.0
0
LINE
8
TOP
10
3.037500
20
1.873622
30
0.0
11
3.150000
21
1.875686
31
0.0
0
LINE
8
TOP
10
3.150000
20
1.875686
30
0.0
11
3.262500
21
1.877750
31
0.0
0
LINE
8
TOP
10
3.262500
20
1.877750
30
0.0
11
3.375000
21
1.879814
31
0.0
0
LINE
8
TOP
10
3.375000
20
1.879814
30
0.0
11
3.487500
21
1.881878
31
0.0
0
LINE
8
TOP
10
3.487500
20
1.881878
30
0.0
11
3.600000
21
1.883943
31
0.0
0
LINE
8
TOP
10
3.600000
20
1.883943
30
0.0
11
3.712500
21
1.886007
31
0.0
0
LINE
8
TOP
10
3.712500
20
1.886007
30
0.0
11
3.825000
21
1.888071
31
0.0
0
LINE
8
TOP
10
3.825000
20
1.888071
30
0.0
11
3.937500
21
1.890135
31
0.0
0
LINE
8
TOP
10
3.937500
20
1.890135
30
0.0
11
4.050000
21
1.892199
31
0.0
0
LINE
8
TOP
10
4.050000
20
1.892199
30
0.0
11
4.162500
21
1.894264
31
0.0
0
LINE
8
TOP
10
4.162500
20
1.894264
30
0.0
11
4.275000
21
1.896328
31
0.0
0
LINE
8
TOP
10
4.275000
20
1.896328
30
0.0
11
4.387500
21
1.898392
31
0.0
0
LINE
8
TOP
10
4.387500
20
1.898392
30
0.0
11
4.500000
21
1.900456
31
0.0
0
LINE
8
TOP
10
4.500000
20
1.900456
30
0.0
11
4.612500
21
1.898392
31
0.0
0
LINE
8
TOP
10
4.612500
20
1.898392
30
0.0
11
4.725000
21
1.896328
31
0.0
0
LINE
8
TOP
10
4.725000
20
1.896328
30
0.0
11
4.837500
21
1.894264
31
0.0
0
LINE
8
TOP
10
4.837500
20
1.894264
30
0.0
11
4.950000
21
1.892199
31
0.0
0
LINE
8
TOP
10
4.950000
20
1.892199
30
0.0
11
5.062500
21
1.890135
31
0.0
0
LINE
8
TOP
10
5.062500
20
1.890135
30
0.0
11
5.175000
21
1.888071
31
0.0
0
LINE
8
TOP
10
5.175000
20
1.888071
30
0.0
11
5.287500
21
1.886007
31
0.0
0
LINE
8
TOP
10
5.287500
20
1.886007
30
0.0
11
5.400000
21
1.883943
31
0.0
0
LINE
8
TOP
10
5.400000
20
1.883943
30
0.0
11
5.512500
21
1.881878
31
0.0
0
LINE
8
TOP
10
5.512500
20
1.881878
30
0.0
11
5.625000
21
1.879814
31
0.0
0
LINE
8
TOP
10
5.625000
20
1.879814
30
0.0
11
5.737500
21
1.877750
31
0.0
0
LINE
8
TOP
10
5.737500
20
1.877750
30
0.0
11
5.850000
21
1.875686
31
0.0
0
LINE
8
TOP
10
5.850000
20
1.875686
30
0.0
11
5.962500
21
1.873622
31
0.0
0
LINE
8
TOP
10
5.962500
20
1.873622
30
0.0
11
6.075000
21
1.871557
31
0.0
0
LINE
8
TOP
10
6.075000
20
1.871557
30
0.0
11
6.187500
21
1.869493
31
0.0
0
LINE
8
TOP
10
6.187500
20
1.869493
30
0.0
11
6.300000
21
1.867429
31
0.0
0
LINE
8
TOP
10
6.300000
20
1.867429
30
0.0
11
6.412500
21
1.865365
31
0.0
0
LINE
8
TOP
10
6.412500
20
1.865365
30
0.0
11
6.525000
21
1.863301
31
0.0
0
LINE
8
TOP
10
6.525000
20
1.863301
30
0.0
11
6.637500
21
1.861236
31
0.0
0
LINE
8
TOP
10
6.637500
20
1.861236
30
0.0
11
6.750000
21
1.859172
31
0.0
0
LINE
8
TOP
10
6.750000
20
1.859172
30
0.0
11
6.862500
21
1.857108
31
0.0
0
LINE
8
TOP
10
6.862500
20
1.857108
30
0.0
11
6.975000
21
1.855044
31
0.0
0
LINE
8
TOP
10
6.975000
20
1.855044
30
0.0
11
7.087500
21
1.852980
31
0.0
0
LINE
8
TOP
10
7.087500
20
1.852980
30
0.0
11
7.200000
21
1.850915
31
0.0
0
LINE
8
TOP
10
7.200000
20
1.850915
30
0.0
11
7.312500
21
1.848851
31
0.0
0
LINE
8
TOP
10
7.312500
20
1.848851
30
0.0
11
7.425000
21
1.846787
31
0.0
0
LINE
8
TOP
10
7.425000
20
1.846787
30
0.0
11
7.537500
21
1.844723
31
0.0
0
LINE
8
TOP
10
7.537500
20
1.844723
30
0.0
11
7.650000
21
1.842659
31
0.0
0
LINE
8
TOP
10
7.650000
20
1.842659
30
0.0
11
7.762500
21
1.840594
31
0.0
0
LINE
8
TOP
10
7.762500
20
1.840594
30
0.0
11
7.875000
21
1.838530
31
0.0
0
LINE
8
TOP
10
7.875000
20
1.838530
30
0.0
11
7.987500
21
1.836466
31
0.0
0
LINE
8
TOP
10
7.987500
20
1.836466
30
0.0
11
8.100000
21
1.834402
31
0.0
0
LINE
8
TOP
10
8.100000
20
1.834402
30
0.0
11
8.212500
21
1.832338
31
0.0
0
LINE
8
TOP
10
8.212500
20
1.832338
30
0.0
11
8.325000
21
1.830273
31
0.0
0
LINE
8
TOP
10
8.325000
20
1.830273
30
0.0
11
8.437500
21
1.828209
31
0.0
0
LINE
8
TOP
10
8.437500
20
1.828209
30
0.0
11
8.500000
21
1.827062
31
0.0
0
LINE
8
TOP
10
8.500000
20
1.827062
30
0.0
11
8.550000
21
1.826145
31
0.0
0
LINE
8
TOP
10
8.550000
20
1.826145
30
0.0
11
8.662500
21
1.824081
31
0.0
0
LINE
8
TOP
10
8.662500
20
1.824081
30
0.0
11
8.775000
21
1.822017
31
0.0
0
LINE
8
TOP
10
8.775000
20
1.822017
30
0.0
11
8.887500
21
1.819952
31
0.0
0
LINE
8
TOP
10
8.887500
20
1.819952
30
0.0
11
9.000000
21
1.817888
31
0.0
0
LINE
8
TOP
10
0.000000
20
1.485320
30
0.0
11
0.112500
21
1.483256
31
0.0
0
LINE
8
TOP
10
0.112500
20
1.483256
30
0.0
11
0.225000
21
1.481192
31
0.0
0
LINE
8
TOP
10
0.225000
20
1.481192
30
0.0
11
0.337500
21
1.479127
31
0.0
0
LINE
8
TOP
10
0.337500
20
1.479127
30
0.0
11
0.450000
21
1.477063
31
0.0
0
LINE
8
TOP
10
0.450000
20
1.477063
30
0.0
11
0.500000
21
1.476146
31
0.0
0
LINE
8
TOP
10
0.500000
20
1.476146
30
0.0
11
0.562500
21
1.474999
31
0.0
0
LINE
8
TOP
10
0.562500
20
1.474999
30
0.0
11
0.675000
21
1.472935
31
0.0
0
LINE
8
TOP
10
0.675000
20
1.472935
30
0.0
11
0.787500
21
1.470871
31
0.0
0
LINE
8
TOP
10
0.787500
20
1.470871
30
0.0
11
0.900000
21
1.468806
31
0.0
0
LINE
8
TOP
10
0.900000
20
1.468806
30
0.0
11
1.012500
21
1.466742
31
0.0
0
LINE
8
TOP
10
1.012500
20
1.466742
30
0.0
11
1.125000
21
1.464678
31
0.0
0
LINE
8
TOP
10
1.125000
20
1.464678
30
0.0
11
1.237500
21
1.462614
31
0.0
0
LINE
8
TOP
10
1.237500
20
1.462614
30
0.0
11
1.350000
21
1.460550
31
0.0
0
LINE
8
TOP
10
1.350000
20
1.460550
30
0.0
11
1.462500
21
1.458485
31
0.0
0
LINE
8
TOP
10
1.462500
20
1.458485
30
0.0
11
1.575000
21
1.456421
31
0.0
0
LINE
8
TOP
10
1.575000
20
1.456421
30
0.0
11
1.687500
21
1.454357
31
0.0
0
LINE
8
TOP
10
1.687500
20
1.454357
30
0.0
11
1.800000
21
1.452293
31
0.0
0
LINE
8
TOP
10
1.800000
20
1.452293
30
0.0
11
1.912500
21
1.450229
31
0.0
0
LINE
8
TOP
10
1.912500
20
1.450229
30
0.0
11
2.025000
21
1.448164
31
0.0
0
LINE
8
TOP
10
2.025000
20
1.448164
30
0.0
11
2.137500
21
1.446100
31
0.0
0
LINE
8
TOP
10
2.137500
20
1.446100
30
0.0
11
2.250000
21
1.444036
31
0.0
0
LINE
8
TOP
10
2.250000
20
1.444036
30
0.0
11
2.362500
21
1.441972
31
0.0
0
LINE
8
TOP
10
2.362500
20
1.441972
30
0.0
11
2.475000
21
1.439908
31
0.0
0
LINE
8
TOP
10
2.475000
20
1.439908
30
0.0
11
2.587500
21
1.437843
31
0.0
0
LINE
8
TOP
10
2.587500
20
1.437843
30
0.0
11
2.700000
21
1.435779
31
0.0
0
LINE
8
TOP
10
2.700000
20
1.435779
30
0.0
11
2.812500
21
1.433715
31
0.0
0
LINE
8
TOP
10
2.812500
20
1.433715
30
0.0
11
2.925000
21
1.431651
31
0.0
0
LINE
8
TOP
10
2.925000
20
1.431651
30
0.0
11
3.037500
21
1.429587
31
0.0
0
LINE
8
TOP
10
3.037500
20
1.429587
30
0.0
11
3.150000
21
1.427522
31
0.0
0
LINE
8
TOP
10
3.150000
20
1.427522
30
0.0
11
3.262500
21
1.425458
31
0.0
0
LINE
8
TOP
10
3.262500
20
1.425458
30
0.0
11
3.375000
21
1.423394
31
0.0
0
LINE
8
TOP
10
3.375000
20
1.423394
30
0.0
11
3.487500
21
1.421330
31
0.0
0
LINE
8
TOP
10
3.487500
20
1.421330
30
0.0
11
3.600000
21
1.419266
31
0.0
0
LINE
8
TOP
10
3.600000
20
1.419266
30
0.0
11
3.712500
21
1.417201
31
0.0
0
LINE
8
TOP
10
3.712500
20
1.417201
30
0.0
11
3.825000
21
1.415137
31
0.0
0
LINE
8
TOP
10
3.825000
20
1.415137
30
0.0
11
3.937500
21
1.413073
31
0.0
0
LINE
8
TOP
10
3.937500
20
1.413073
30
0.0
11
4.050000
21
1.411009
31
0.0
0
LINE
8
TOP
10
4.050000
20
1.411009
30
0.0
11
4.162500
21
1.408945
31
0.0
0
LINE
8
TOP
10
4.162500
20
1.408945
30
0.0
11
4.275000
21
1.406880
31
0.0
0
LINE
8
TOP
10
4.275000
20
1.406880
30
0.0
11
4.387500
21
1.404816
31
0.0
0
LINE
8
TOP
10
4.387500
20
1.404816
30
0.0
11
4.500000
21
1.402752
31
0.0
0
LINE
8
TOP
10
4.500000
20
1.402752
30
0.0
11
4.612500
21
1.404816
31
0.0
0
LINE
8
TOP
10
4.612500
20
1.404816
30
0.0
11
4.725000
21
1.406880
31
0.0
0
LINE
8
TOP
10
4.725000
20
1.406880
30
0.0
11
4.837500
21
1.408945
31
0.0
0
LINE
8
TOP
10
4.837500
20
1.408945
30
0.0
11
4.950000
21
1.411009
31
0.0
0
LINE
8
TOP
10
4.950000
20
1.411009
30
0.0
11
5.062500
21
1.413073
31
0.0
0
LINE
8
TOP
10
5.062500
20
1.413073
30
0.0
11
5.175000
21
1.415137
31
0.0
0
LINE
8
TOP
10
5.175000
20
1.415137
30
0.0
11
5.287500
21
1.417201
31
0.0
0
LINE
8
TOP
10
5.287500
20
1.417201
30
0.0
11
5.400000
21
1.419266
31
0.0
0
LINE
8
TOP
10
5.400000
20
1.419266
30
0.0
11
5.512500
21
1.421330
31
0.0
0
LINE
8
TOP
10
5.512500
20
1.421330
30
0.0
11
5.625000
21
1.423394
31
0.0
0
LINE
8
TOP
10
5.625000
20
1.423394
30
0.0
11
5.737500
21
1.425458
31
0.0
0
LINE
8
TOP
10
5.737500
20
1.425458
30
0.0
11
5.850000
21
1.427522
31
0.0
0
LINE
8
TOP
10
5.850000
20
1.427522
30
0.0
11
5.962500
21
1.429587
31
0.0
0
LINE
8
TOP
10
5.962500
20
1.429587
30
0.0
11
6.075000
21
1.431651
31
0.0
0
LINE
8
TOP
10
6.075000
20
1.431651
30
0.0
11
6.187500
21
1.433715
31
0.0
0
LINE
8
TOP
10
6.187500
20
1.433715
30
0.0
11
6.300000
21
1.435779
31
0.0
0
LINE
8
TOP
10
6.300000
20
1.435779
30
0.0
11
6.412500
21
1.437843
31
0.0
0
LINE
8
TOP
10
6.412500
20
1.437843
30
0.0
11
6.525000
21
1.439908
31
0.0
0
LINE
8
TOP
10
6.525000
20
1.439908
30
0.0
11
6.637500
21
1.441972
31
0.0
0
LINE
8
TOP
10
6.637500
20
1.441972
30
0.0
11
6.750000
21
1.444036
31
0.0
0
LINE
8
TOP
10
6.750000
20
1.444036
30
0.0
11
6.862500
21
1.446100
31
0.0
0
LINE
8
TOP
10
6.862500
20
1.446100
30
0.0
11
6.975000
21
1.448164
31
0.0
0
LINE
8
TOP
10
6.975000
20
1.448164
30
0.0
11
7.087500
21
1.450229
31
0.0
0
LINE
8
TOP
10
7.087500
20
1.450229
30
0.0
11
7.200000
21
1.452293
31
0.0
0
LINE
8
TOP
10
7.200000
20
1.452293
30
0.0
11
7.312500
21
1.454357
31
0.0
0
LINE
8
TOP
10
7.312500
20
1.454357
30
0.0
11
7.425000
21
1.456421
31
0.0
0
LINE
8
TOP
10
7.425000
20
1.456421
30
0.0
11
7.537500
21
1.458485
31
0.0
0
LINE
8
TOP
10
7.537500
20
1.458485
30
0.0
11
7.650000
21
1.460550
31
0.0
0
LINE
8
TOP
10
7.650000
20
1.460550
30
0.0
11
7.762500
21
1.462614
31
0.0
0
LINE
8
TOP
10
7.762500
20
1.462614
30
0.0
11
7.875000
21
1.464678
31
0.0
0
LINE
8
TOP
10
7.875000
20
1.464678
30
0.0
11
7.987500
21
1.466742
31
0.0
0
LINE
8
TOP
10
7.987500
20
1.466742
30
0.0
11
8.100000
21
1.468806
31
0.0
0
LINE
8
TOP
10
8.100000
20
1.468806
30
0.0
11
8.212500
21
1.470871
31
0.0
0
LINE
8
TOP
10
8.212500
20
1.470871
30
0.0
11
8.325000
21
1.472935
31
0.0
0
LINE
8
TOP
10
8.325000
20
1.472935
30
0.0
11
8.437500
21
1.474999
31
0.0
0
LINE
8
TOP
10
8.437500
20
1.474999
30
0.0
11
8.500000
21
1.476146
31
0.0
0
LINE
8
TOP
10
8.500000
20
1.476146
30
0.0
11
8.550000
21
1.477063
31
0.0
0
LINE
8
TOP
10
8.550000
20
1.477063
30
0.0
11
8.662500
21
1.479127
31
0.0
0
LINE
8
TOP
10
8.662500
20
1.479127
30
0.0
11
8.775000
21
1.481192
31
0.0
0
LINE
8
TOP
10
8.775000
20
1.481192
30
0.0
11
8.887500
21
1.483256
31
0.0
0
LINE
8
TOP
10
8.887500
20
1.483256
30
0.0
11
9.000000
21
1.485320
31
0.0
0
LINE
8
TOP
10
0.000000
20
1.817888
30
0.0
11
0.000000
21
1.485320
31
0.0
0
LINE
8
TOP
10
9.000000
20
1.817888
30
0.0
11
9.000000
21
1.485320
31
0.0
0
LINE
8
SECTION
10
10.251148
20
-0.295911
30
0.0
11
10.748852
21
-0.295911
31
0.0
0
LINE
8
SECTION
10
10.748852
20
-0.295911
30
0.0
11
10.748852
21
0.295911
31
0.0
0
LINE
8
SECTION
10
10.748852
20
0.295911
30
0.0
11
10.251148
21
0.295911
31
0.0
0
LINE
8
SECTION
10
10.251148
20
0.295911
30
0.0
11
10.251148
21
-0.295911
31
0.0
0
LINE
8
SECTION
10
10.291148
20
-0.255911
30
0.0
11
10.708852
21
-0.255911
31
0.0
0
LINE
8
SECTION
10
10.708852
20
-0.255911
30
0.0
11
10.708852
21
0.255911
31
0.0
0
LINE
8
SECTION
10
10.708852
20
0.255911
30
0.0
11
10.291148
21
0.255911
31
0.0
0
LINE
8
SECTION
10
10.291148
20
0.255911
30
0.0
11
10.291148
21
-0.255911
31
0.0
0
LINE
8
SECTION
10
10.291148
20
0.128853
30
0.0
11
10.331148
21
0.128853
31
0.0
0
LINE
8
SECTION
10
10.331148
20
0.128853
30
0.0
11
10.331148
21
0.255911
31
0.0
0
LINE
8
SECTION
10
10.331148
20
0.255911
30
0.0
11
10.291148
21
0.255911
31
0.0
0
LINE
8
SECTION
10
10.291148
20
0.255911
30
0.0
11
10.291148
21
0.128853
31
0.0
0
LINE
8
SECTION
10
10.291148
20
-0.255911
30
0.0
11
10.331148
21
-0.255911
31
0.0
0
LINE
8
SECTION
10
10.331148
20
-0.255911
30
0.0
11
10.331148
21
-0.128853
31
0.0
0
LINE
8
SECTION
10
10.331148
20
-0.128853
30
0.0
11
10.291148
21
-0.128853
31
0.0
0
LINE
8
SECTION
10
10.291148
20
-0.128853
30
0.0
11
10.291148
21
-0.255911
31
0.0
0
LINE
8
SECTION
10
10.668852
20
0.128853
30
0.0
11
10.708852
21
0.128853
31
0.0
0
LINE
8
SECTION
10
10.708852
20
0.128853
30
0.0
11
10.708852
21
0.255911
31
0.0
0
LINE
8
SECTION
10
10.708852
20
0.255911
30
0.0
11
10.668852
21
0.255911
31
0.0
0
LINE
8
SECTION
10
10.668852
20
0.255911
30
0.0
11
10.668852
21
0.128853
31
0.0
0
LINE
8
SECTION
10
10.668852
20
-0.255911
30
0.0
11
10.708852
21
-0.255911
31
0.0
0
LINE
8
SECTION
10
10.708852
20
-0.255911
30
0.0
11
10.708852
21
-0.128853
31
0.0
0
LINE
8
SECTION
10
10.708852
20
-0.128853
30
0.0
11
10.668852
21
-0.128853
31
0.0
0
LINE
8
SECTION
10
10.668852
20
-0.128853
30
0.0
11
10.668852
21
-0.255911
31
0.0
0
ENDSEC
0
EOF
