0
SECTION
2
HEADER
9
$INSUNITS
70
1
0
ENDSEC
0
SECTION
2
ENTITIES
0
LINE
8
FRONT
10
0.000000
20
0.448779
30
0.0
11
0.112500
21
0.446058
31
0.0
0
LINE
8
FRONT
10
0.112500
20
0.446058
30
0.0
11
0.225000
21
0.443338
31
0.0
0
LINE
8
FRONT
10
0.225000
20
0.443338
30
0.0
11
0.337500
21
0.440617
31
0.0
0
LINE
8
FRONT
10
0.337500
20
0.440617
30
0.0
11
0.450000
21
0.437897
31
0.0
0
LINE
8
FRONT
10
0.450000
20
0.437897
30
0.0
11
0.500000
21
0.436687
31
0.0
0
LINE
8
FRONT
10
0.500000
20
0.436687
30
0.0
11
0.562500
21
0.435176
31
0.0
0
LINE
8
FRONT
10
0.562500
20
0.435176
30
0.0
11
0.675000
21
0.432455
31
0.0
0
LINE
8
FRONT
10
0.675000
20
0.432455
30
0.0
11
0.787500
21
0.429735
31
0.0
0
LINE
8
FRONT
10
0.787500
20
0.429735
30
0.0
11
0.900000
21
0.427014
31
0.0
0
LINE
8
FRONT
10
0.900000
20
0.427014
30
0.0
11
1.012500
21
0.424294
31
0.0
0
LINE
8
FRONT
10
1.012500
20
0.424294
30
0.0
11
1.125000
21
0.421573
31
0.0
0
LINE
8
FRONT
10
1.125000
20
0.421573
30
0.0
11
1.237500
21
0.418852
31
0.0
0
LINE
8
FRONT
10
1.237500
20
0.418852
30
0.0
11
1.350000
21
0.416132
31
0.0
0
LINE
8
FRONT
10
1.350000
20
0.416132
30
0.0
11
1.462500
21
0.413411
31
0.0
0
LINE
8
FRONT
10
1.462500
20
0.413411
30
0.0
11
1.575000
21
0.410691
31
0.0
0
LINE
8
FRONT
10
1.575000
20
0.410691
30
0.0
11
1.687500
21
0.407970
31
0.0
0
LINE
8
FRONT
10
1.687500
20
0.407970
30
0.0
11
1.800000
21
0.405249
31
0.0
0
LINE
8
FRONT
10
1.800000
20
0.405249
30
0.0
11
1.912500
21
0.402529
31
0.0
0
LINE
8
FRONT
10
1.912500
20
0.402529
30
0.0
11
2.025000
21
0.399808
31
0.0
0
LINE
8
FRONT
10
2.025000
20
0.399808
30
0.0
11
2.137500
21
0.397088
31
0.0
0
LINE
8
FRONT
10
2.137500
20
0.397088
30
0.0
11
2.250000
21
0.394367
31
0.0
0
LINE
8
FRONT
10
2.250000
20
0.394367
30
0.0
11
2.362500
21
0.391646
31
0.0
0
LINE
8
FRONT
10
2.362500
20
0.391646
30
0.0
11
2.475000
21
0.388926
31
0.0
0
LINE
8
FRONT
10
2.475000
20
0.388926
30
0.0
11
2.587500
21
0.386205
31
0.0
0
LINE
8
FRONT
10
2.587500
20
0.386205
30
0.0
11
2.700000
21
0.383484
31
0.0
0
LINE
8
FRONT
10
2.700000
20
0.383484
30
0.0
11
2.812500
21
0.380764
31
0.0
0
LINE
8
FRONT
10
2.812500
20
0.380764
30
0.0
11
2.925000
21
0.378043
31
0.0
0
LINE
8
FRONT
10
2.925000
20
0.378043
30
0.0
11
3.037500
21
0.375323
31
0.0
0
LINE
8
FRONT
10
3.037500
20
0.375323
30
0.0
11
3.150000
21
0.372602
31
0.0
0
LINE
8
FRONT
10
3.150000
20
0.372602
30
0.0
11
3.262500
21
0.369881
31
0.0
0
LINE
8
FRONT
10
3.262500
20
0.369881
30
0.0
11
3.375000
21
0.367161
31
0.0
0
LINE
8
FRONT
10
3.375000
20
0.367161
30
0.0
11
3.487500
21
0.364440
31
0.0
0
LINE
8
FRONT
10
3.487500
20
0.364440
30
0.0
11
3.600000
21
0.361720
31
0.0
0
LINE
8
FRONT
10
3.600000
20
0.361720
30
0.0
11
3.712500
21
0.358999
31
0.0
0
LINE
8
FRONT
10
3.712500
20
0.358999
30
0.0
11
3.825000
21
0.356278
31
0.0
0
LINE
8
FRONT
10
3.825000
20
0.356278
30
0.0
11
3.937500
21
0.353558
31
0.0
0
LINE
8
FRONT
10
3.937500
20
0.353558
30
0.0
11
4.050000
21
0.350837
31
0.0
0
LINE
8
FRONT
10
4.050000
20
0.350837
30
0.0
11
4.162500
21
0.348117
31
0.0
0
LINE
8
FRONT
10
4.162500
20
0.348117
30
0.0
11
4.275000
21
0.345396
31
0.0
0
LINE
8
FRONT
10
4.275000
20
0.345396
30
0.0
11
4.387500
21
0.342675
31
0.0
0
LINE
8
FRONT
10
4.387500
20
0.342675
30
0.0
11
4.500000
21
0.339955
31
0.0
0
LINE
8
FRONT
10
4.500000
20
0.339955
30
0.0
11
4.612500
21
0.337492
31
0.0
0
LINE
8
FRONT
10
4.612500
20
0.337492
30
0.0
11
4.725000
21
0.335029
31
0.0
0
LINE
8
FRONT
10
4.725000
20
0.335029
30
0.0
11
4.837500
21
0.332566
31
0.0
0
LINE
8
FRONT
10
4.837500
20
0.332566
30
0.0
11
4.950000
21
0.330104
31
0.0
0
LINE
8
FRONT
10
4.950000
20
0.330104
30
0.0
11
5.062500
21
0.327641
31
0.0
0
LINE
8
FRONT
10
5.062500
20
0.327641
30
0.0
11
5.175000
21
0.325178
31
0.0
0
LINE
8
FRONT
10
5.175000
20
0.325178
30
0.0
11
5.287500
21
0.322715
31
0.0
0
LINE
8
FRONT
10
5.287500
20
0.322715
30
0.0
11
5.400000
21
0.320252
31
0.0
0
LINE
8
FRONT
10
5.400000
20
0.320252
30
0.0
11
5.512500
21
0.317789
31
0.0
0
LINE
8
FRONT
10
5.512500
20
0.317789
30
0.0
11
5.625000
21
0.315327
31
0.0
0
LINE
8
FRONT
10
5.625000
20
0.315327
30
0.0
11
5.737500
21
0.312864
31
0.0
0
LINE
8
FRONT
10
5.737500
20
0.312864
30
0.0
11
5.850000
21
0.310401
31
0.0
0
LINE
8
FRONT
10
5.850000
20
0.310401
30
0.0
11
5.962500
21
0.307938
31
0.0
0
LINE
8
FRONT
10
5.962500
20
0.307938
30
0.0
11
6.075000
21
0.305475
31
0.0
0
LINE
8
FRONT
10
6.075000
20
0.305475
30
0.0
11
6.187500
21
0.303013
31
0.0
0
LINE
8
FRONT
10
6.187500
20
0.303013
30
0.0
11
6.300000
21
0.300550
31
0.0
0
LINE
8
FRONT
10
6.300000
20
0.300550
30
0.0
11
6.412500
21
0.298087
31
0.0
0
LINE
8
FRONT
10
6.412500
20
0.298087
30
0.0
11
6.525000
21
0.295624
31
0.0
0
LINE
8
FRONT
10
6.525000
20
0.295624
30
0.0
11
6.637500
21
0.293161
31
0.0
0
LINE
8
FRONT
10
6.637500
20
0.293161
30
0.0
11
6.750000
21
0.290699
31
0.0
0
LINE
8
FRONT
10
6.750000
20
0.290699
30
0.0
11
6.862500
21
0.288236
31
0.0
0
LINE
8
FRONT
10
6.862500
20
0.288236
30
0.0
11
6.975000
21
0.285773
31
0.0
0
LINE
8
FRONT
10
6.975000
20
0.285773
30
0.0
11
7.087500
21
0.283310
31
0.0
0
LINE
8
FRONT
10
7.087500
20
0.283310
30
0.0
11
7.200000
21
0.280847
31
0.0
0
LINE
8
FRONT
10
7.200000
20
0.280847
30
0.0
11
7.312500
21
0.278385
31
0.0
0
LINE
8
FRONT
10
7.312500
20
0.278385
30
0.0
11
7.425000
21
0.275922
31
0.0
0
LINE
8
FRONT
10
7.425000
20
0.275922
30
0.0
11
7.537500
21
0.273459
31
0.0
0
LINE
8
FRONT
10
7.537500
20
0.273459
30
0.0
11
7.650000
21
0.270996
31
0.0
0
LINE
8
FRONT
10
7.650000
20
0.270996
30
0.0
11
7.762500
21
0.268533
31
0.0
0
LINE
8
FRONT
10
7.762500
20
0.268533
30
0.0
11
7.875000
21
0.266071
31
0.0
0
LINE
8
FRONT
10
7.875000
20
0.266071
30
0.0
11
7.987500
21
0.263608
31
0.0
0
LINE
8
FRONT
10
7.987500
20
0.263608
30
0.0
11
8.100000
21
0.261145
31
0.0
0
LINE
8
FRONT
10
8.100000
20
0.261145
30
0.0
11
8.212500
21
0.258682
31
0.0
0
LINE
8
FRONT
10
8.212500
20
0.258682
30
0.0
11
8.325000
21
0.256219
31
0.0
0
LINE
8
FRONT
10
8.325000
20
0.256219
30
0.0
11
8.437500
21
0.253757
31
0.0
0
LINE
8
FRONT
10
8.437500
20
0.253757
30
0.0
11
8.500000
21
0.252388
31
0.0
0
LINE
8
FRONT
10
8.500000
20
0.252388
30
0.0
11
8.550000
21
0.251294
31
0.0
0
LINE
8
FRONT
10
8.550000
20
0.251294
30
0.0
11
8.662500
21
0.248831
31
0.0
0
LINE
8
FRONT
10
8.662500
20
0.248831
30
0.0
11
8.775000
21
0.246368
31
0.0
0
LINE
8
FRONT
10
8.775000
20
0.246368
30
0.0
11
8.887500
21
0.243905
31
0.0
0
LINE
8
FRONT
10
8.887500
20
0.243905
30
0.0
11
9.000000
21
0.241442
31
0.0
0
LINE
8
FRONT
10
0.000000
20
-0.448779
30
0.0
11
0.112500
21
-0.446058
31
0.0
0
LINE
8
FRONT
10
0.112500
20
-0.446058
30
0.0
11
0.225000
21
-0.443338
31
0.0
0
LINE
8
FRONT
10
0.225000
20
-0.443338
30
0.0
11
0.337500
21
-0.440617
31
0.0
0
LINE
8
FRONT
10
0.337500
20
-0.440617
30
0.0
11
0.450000
21
-0.437897
31
0.0
0
LINE
8
FRONT
10
0.450000
20
-0.437897
30
0.0
11
0.500000
21
-0.436687
31
0.0
0
LINE
8
FRONT
10
0.500000
20
-0.436687
30
0.0
11
0.562500
21
-0.435176
31
0.0
0
LINE
8
FRONT
10
0.562500
20
-0.435176
30
0.0
11
0.675000
21
-0.432455
31
0.0
0
LINE
8
FRONT
10
0.675000
20
-0.432455
30
0.0
11
0.787500
21
-0.429735
31
0.0
0
LINE
8
FRONT
10
0.787500
20
-0.429735
30
0.0
11
0.900000
21
-0.427014
31
0.0
0
LINE
8
FRONT
10
0.900000
20
-0.427014
30
0.0
11
1.012500
21
-0.424294
31
0.0
0
LINE
8
FRONT
10
1.012500
20
-0.424294
30
0.0
11
1.125000
21
-0.421573
31
0.0
0
LINE
8
FRONT
10
1.125000
20
-0.421573
30
0.0
11
1.237500
21
-0.418852
31
0.0
0
LINE
8
FRONT
10
1.237500
20
-0.418852
30
0.0
11
1.350000
21
-0.416132
31
0.0
0
LINE
8
FRONT
10
1.350000
20
-0.416132
30
0.0
11
1.462500
21
-0.413411
31
0.0
0
LINE
8
FRONT
10
1.462500
20
-0.413411
30
0.0
11
1.575000
21
-0.410691
31
0.0
0
LINE
8
FRONT
10
1.575000
20
-0.410691
30
0.0
11
1.687500
21
-0.407970
31
0.0
0
LINE
8
FRONT
10
1.687500
20
-0.407970
30
0.0
11
1.800000
21
-0.405249
31
0.0
0
LINE
8
FRONT
10
1.800000
20
-0.405249
30
0.0
11
1.912500
21
-0.402529
31
0.0
0
LINE
8
FRONT
10
1.912500
20
-0.402529
30
0.0
11
2.025000
21
-0.399808
31
0.0
0
LINE
8
FRONT
10
2.025000
20
-0.399808
30
0.0
11
2.137500
21
-0.397088
31
0.0
0
LINE
8
FRONT
10
2.137500
20
-0.397088
30
0.0
11
2.250000
21
-0.394367
31
0.0
0
LINE
8
FRONT
10
2.250000
20
-0.394367
30
0.0
11
2.362500
21
-0.391646
31
0.0
0
LINE
8
FRONT
10
2.362500
20
-0.391646
30
0.0
11
2.475000
21
-0.388926
31
0.0
0
LINE
8
FRONT
10
2.475000
20
-0.388926
30
0.0
11
2.587500
21
-0.386205
31
0.0
0
LINE
8
FRONT
10
2.587500
20
-0.386205
30
0.0
11
2.700000
21
-0.383484
31
0.0
0
LINE
8
FRONT
10
2.700000
20
-0.383484
30
0.0
11
2.812500
21
-0.380764
31
0.0
0
LINE
8
FRONT
10
2.812500
20
-0.380764
30
0.0
11
2.925000
21
-0.378043
31
0.0
0
LINE
8
FRONT
10
2.925000
20
-0.378043
30
0.0
11
3.037500
21
-0.375323
31
0.0
0
LINE
8
FRONT
10
3.037500
20
-0.375323
30
0.0
11
3.150000
21
-0.372602
31
0.0
0
LINE
8
FRONT
10
3.150000
20
-0.372602
30
0.0
11
3.262500
21
-0.369881
31
0.0
0
LINE
8
FRONT
10
3.262500
20
-0.369881
30
0.0
11
3.375000
21
-0.367161
31
0.0
0
LINE
8
FRONT
10
3.375000
20
-0.367161
30
0.0
11
3.487500
21
-0.364440
31
0.0
0
LINE
8
FRONT
10
3.487500
20
-0.364440
30
0.0
11
3.600000
21
-0.361720
31
0.0
0
LINE
8
FRONT
10
3.600000
20
-0.361720
30
0.0
11
3.712500
21
-0.358999
31
0.0
0
LINE
8
FRONT
10
3.712500
20
-0.358999
30
0.0
11
3.825000
21
-0.356278
31
0.0
0
LINE
8
FRONT
10
3.825000
20
-0.356278
30
0.0
11
3.937500
21
-0.353558
31
0.0
0
LINE
8
FRONT
10
3.937500
20
-0.353558
30
0.0
11
4.050000
21
-0.350837
31
0.0
0
LINE
8
FRONT
10
4.050000
20
-0.350837
30
0.0
11
4.162500
21
-0.348117
31
0.0
0
LINE
8
FRONT
10
4.162500
20
-0.348117
30
0.0
11
4.275000
21
-0.345396
31
0.0
0
LINE
8
FRONT
10
4.275000
20
-0.345396
30
0.0
11
4.387500
21
-0.342675
31
0.0
0
LINE
8
FRONT
10
4.387500
20
-0.342675
30
0.0
11
4.500000
21
-0.339955
31
0.0
0
LINE
8
FRONT
10
4.500000
20
-0.339955
30
0.0
11
4.612500
21
-0.337492
31
0.0
0
LINE
8
FRONT
10
4.612500
20
-0.337492
30
0.0
11
4.725000
21
-0.335029
31
0.0
0
LINE
8
FRONT
10
4.725000
20
-0.335029
30
0.0
11
4.837500
21
-0.332566
31
0.0
0
LINE
8
FRONT
10
4.837500
20
-0.332566
30
0.0
11
4.950000
21
-0.330104
31
0.0
0
LINE
8
FRONT
10
4.950000
20
-0.330104
30
0.0
11
5.062500
21
-0.327641
31
0.0
0
LINE
8
FRONT
10
5.062500
20
-0.327641
30
0.0
11
5.175000
21
-0.325178
31
0.0
0
LINE
8
FRONT
10
5.175000
20
-0.325178
30
0.0
11
5.287500
21
-0.322715
31
0.0
0
LINE
8
FRONT
10
5.287500
20
-0.322715
30
0.0
11
5.400000
21
-0.320252
31
0.0
0
LINE
8
FRONT
10
5.400000
20
-0.320252
30
0.0
11
5.512500
21
-0.317789
31
0.0
0
LINE
8
FRONT
10
5.512500
20
-0.317789
30
0.0
11
5.625000
21
-0.315327
31
0.0
0
LINE
8
FRONT
10
5.625000
20
-0.315327
30
0.0
11
5.737500
21
-0.312864
31
0.0
0
LINE
8
FRONT
10
5.737500
20
-0.312864
30
0.0
11
5.850000
21
-0.310401
31
0.0
0
LINE
8
FRONT
10
5.850000
20
-0.310401
30
0.0
11
5.962500
21
-0.307938
31
0.0
0
LINE
8
FRONT
10
5.962500
20
-0.307938
30
0.0
11
6.075000
21
-0.305475
31
0.0
0
LINE
8
FRONT
10
6.075000
20
-0.305475
30
0.0
11
6.187500
21
-0.303013
31
0.0
0
LINE
8
FRONT
10
6.187500
20
-0.303013
30
0.0
11
6.300000
21
-0.300550
31
0.0
0
LINE
8
FRONT
10
6.300000
20
-0.300550
30
0.0
11
6.412500
21
-0.298087
31
0.0
0
LINE
8
FRONT
10
6.412500
20
-0.298087
30
0.0
11
6.525000
21
-0.295624
31
0.0
0
LINE
8
FRONT
10
6.525000
20
-0.295624
30
0.0
11
6.637500
21
-0.293161
31
0.0
0
LINE
8
FRONT
10
6.637500
20
-0.293161
30
0.0
11
6.750000
21
-0.290699
31
0.0
0
LINE
8
FRONT
10
6.750000
20
-0.290699
30
0.0
11
6.862500
21
-0.288236
31
0.0
0
LINE
8
FRONT
10
6.862500
20
-0.288236
30
0.0
11
6.975000
21
-0.285773
31
0.0
0
LINE
8
FRONT
10
6.975000
20
-0.285773
30
0.0
11
7.087500
21
-0.283310
31
0.0
0
LINE
8
FRONT
10
7.087500
20
-0.283310
30
0.0
11
7.200000
21
-0.280847
31
0.0
0
LINE
8
FRONT
10
7.200000
20
-0.280847
30
0.0
11
7.312500
21
-0.278385
31
0.0
0
LINE
8
FRONT
10
7.312500
20
-0.278385
30
0.0
11
7.425000
21
-0.275922
31
0.0
0
LINE
8
FRONT
10
7.425000
20
-0.275922
30
0.0
11
7.537500
21
-0.273459
31
0.0
0
LINE
8
FRONT
10
7.537500
20
-0.273459
30
0.0
11
7.650000
21
-0.270996
31
0.0
0
LINE
8
FRONT
10
7.650000
20
-0.270996
30
0.0
11
7.762500
21
-0.268533
31
0.0
0
LINE
8
FRONT
10
7.762500
20
-0.268533
30
0.0
11
7.875000
21
-0.266071
31
0.0
0
LINE
8
FRONT
10
7.875000
20
-0.266071
30
0.0
11
7.987500
21
-0.263608
31
0.0
0
LINE
8
FRONT
10
7.987500
20
-0.263608
30
0.0
11
8.100000
21
-0.261145
31
0.0
0
LINE
8
FRONT
10
8.100000
20
-0.261145
30
0.0
11
8.212500
21
-0.258682
31
0.0
0
LINE
8
FRONT
10
8.212500
20
-0.258682
30
0.0
11
8.325000
21
-0.256219
31
0.0
0
LINE
8
FRONT
10
8.325000
20
-0.256219
30
0.0
11
8.437500
21
-0.253757
31
0.0
0
LINE
8
FRONT
10
8.437500
20
-0.253757
30
0.0
11
8.500000
21
-0.252388
31
0.0
0
LINE
8
FRONT
10
8.500000
20
-0.252388
30
0.0
11
8.550000
21
-0.251294
31
0.0
0
LINE
8
FRONT
10
8.550000
20
-0.251294
30
0.0
11
8.662500
21
-0.248831
31
0.0
0
LINE
8
FRONT
10
8.662500
20
-0.248831
30
0.0
11
8.775000
21
-0.246368
31
0.0
0
LINE
8
FRONT
10
8.775000
20
-0.246368
30
0.0
11
8.887500
21
-0.243905
31
0.0
0
LINE
8
FRONT
10
8.887500
20
-0.243905
30
0.0
11
9.000000
21
-0.241442
31
0.0
0
LINE
8
FRONT
10
0.000000
20
0.448779
30
0.0
11
0.000000
21
-0.448779
31
0.0
0
LINE
8
FRONT
10
9.000000
20
0.241442
30
0.0
11
9.000000
21
-0.241442
31
0.0
0
LINE
8
TOP
10
0.000000
20
2.281633
30
0.0
11
0.112500
21
2.282484
31
0.0
0
LINE
8
TOP
10
0.112500
20
2.282484
30
0.0
11
0.225000
21
2.283335
31
0.0
0
LINE
8
TOP
10
0.225000
20
2.283335
30
0.0
11
0.337500
21
2.284187
31
0.0
0
LINE
8
TOP
10
0.337500
20
2.284187
30
0.0
11
0.450000
21
2.285038
31
0.0
0
LINE
8
TOP
10
0.450000
20
2.285038
30
0.0
11
0.500000
21
2.285416
31
0.0
0
LINE
8
TOP
10
0.500000
20
2.285416
30
0.0
11
0.562500
21
2.285889
31
0.0
0
LINE
8
TOP
10
0.562500
20
2.285889
30
0.0
11
0.675000
21
2.286740
31
0.0
0
LINE
8
TOP
10
0.675000
20
2.286740
30
0.0
11
0.787500
21
2.287592
31
0.0
0
LINE
8
TOP
10
0.787500
20
2.287592
30
0.0
11
0.900000
21
2.288443
31
0.0
0
LINE
8
TOP
10
0.900000
20
2.288443
30
0.0
11
1.012500
21
2.289294
31
0.0
0
LINE
8
TOP
10
1.012500
20
2.289294
30
0.0
11
1.125000
21
2.290146
31
0.0
0
LINE
8
TOP
10
1.125000
20
2.290146
30
0.0
11
1.237500
21
2.290997
31
0.0
0
LINE
8
TOP
10
1.237500
20
2.290997
30
0.0
11
1.350000
21
2.291848
31
0.0
0
LINE
8
TOP
10
1.350000
20
2.291848
30
0.0
11
1.462500
21
2.292699
31
0.0
0
LINE
8
TOP
10
1.462500
20
2.292699
30
0.0
11
1.575000
21
2.293551
31
0.0
0
LINE
8
TOP
10
1.575000
20
2.293551
30
0.0
11
1.687500
21
2.294402
31
0.0
0
LINE
8
TOP
10
1.687500
20
2.294402
30
0.0
11
1.800000
21
2.295253
31
0.0
0
LINE
8
TOP
10
1.800000
20
2.295253
30
0.0
11
1.912500
21
2.296105
31
0.0
0
LINE
8
TOP
10
1.912500
20
2.296105
30
0.0
11
2.025000
21
2.296956
31
0.0
0
LINE
8
TOP
10
2.025000
20
2.296956
30
0.0
11
2.137500
21
2.297807
31
0.0
0
LINE
8
TOP
10
2.137500
20
2.297807
30
0.0
11
2.250000
21
2.298659
31
0.0
0
LINE
8
TOP
10
2.250000
20
2.298659
30
0.0
11
2.362500
21
2.299510
31
0.0
0
LINE
8
TOP
10
2.362500
20
2.299510
30
0.0
11
2.475000
21
2.300361
31
0.0
0
LINE
8
TOP
10
2.475000
20
2.300361
30
0.0
11
2.587500
21
2.301212
31
0.0
0
LINE
8
TOP
10
2.587500
20
2.301212
30
0.0
11
2.700000
21
2.302064
31
0.0
0
LINE
8
TOP
10
2.700000
20
2.302064
30
0.0
11
2.812500
21
2.302915
31
0.0
0
LINE
8
TOP
10
2.812500
20
2.302915
30
0.0
11
2.925000
21
2.303766
31
0.0
0
LINE
8
TOP
10
2.925000
20
2.303766
30
0.0
11
3.037500
21
2.304618
31
0.0
0
LINE
8
TOP
10
3.037500
20
2.304618
30
0.0
11
3.150000
21
2.305469
31
0.0
0
LINE
8
TOP
10
3.150000
20
2.305469
30
0.0
11
3.262500
21
2.306320
31
0.0
0
LINE
8
TOP
10
3.262500
20
2.306320
30
0.0
11
3.375000
21
2.307171
31
0.0
0
LINE
8
TOP
10
3.375000
20
2.307171
30
0.0
11
3.487500
21
2.308023
31
0.0
0
LINE
8
TOP
10
3.487500
20
2.308023
30
0.0
11
3.600000
21
2.308874
31
0.0
0
LINE
8
TOP
10
3.600000
20
2.308874
30
0.0
11
3.712500
21
2.309725
31
0.0
0
LINE
8
TOP
10
3.712500
20
2.309725
30
0.0
11
3.825000
21
2.310577
31
0.0
0
LINE
8
TOP
10
3.825000
20
2.310577
30
0.0
11
3.937500
21
2.311428
31
0.0
0
LINE
8
TOP
10
3.937500
20
2.311428
30
0.0
11
4.050000
21
2.312279
31
0.0
0
LINE
8
TOP
10
4.050000
20
2.312279
30
0.0
11
4.162500
21
2.313130
31
0.0
0
LINE
8
TOP
10
4.162500
20
2.313130
30
0.0
11
4.275000
21
2.313982
31
0.0
0
LINE
8
TOP
10
4.275000
20
2.313982
30
0.0
11
4.387500
21
2.314833
31
0.0
0
LINE
8
TOP
10
4.387500
20
2.314833
30
0.0
11
4.500000
21
2.315684
31
0.0
0
LINE
8
TOP
10
4.500000
20
2.315684
30
0.0
11
4.612500
21
2.313429
31
0.0
0
LINE
8
TOP
10
4.612500
20
2.313429
30
0.0
11
4.725000
21
2.311173
31
0.0
0
LINE
8
TOP
10
4.725000
20
2.311173
30
0.0
11
4.837500
21
2.308917
31
0.0
0
LINE
8
TOP
10
4.837500
20
2.308917
30
0.0
11
4.950000
21
2.306661
31
0.0
0
LINE
8
TOP
10
4.950000
20
2.306661
30
0.0
11
5.062500
21
2.304406
31
0.0
0
LINE
8
TOP
10
5.062500
20
2.304406
30
0.0
11
5.175000
21
2.302150
31
0.0
0
LINE
8
TOP
10
5.175000
20
2.302150
30
0.0
11
5.287500
21
2.299894
31
0.0
0
LINE
8
TOP
10
5.287500
20
2.299894
30
0.0
11
5.400000
21
2.297639
31
0.0
0
LINE
8
TOP
10
5.400000
20
2.297639
30
0.0
11
5.512500
21
2.295383
31
0.0
0
LINE
8
TOP
10
5.512500
20
2.295383
30
0.0
11
5.625000
21
2.293127
31
0.0
0
LINE
8
TOP
10
5.625000
20
2.293127
30
0.0
11
5.737500
21
2.290871
31
0.0
0
LINE
8
TOP
10
5.737500
20
2.290871
30
0.0
11
5.850000
21
2.288616
31
0.0
0
LINE
8
TOP
10
5.850000
20
2.288616
30
0.0
11
5.962500
21
2.286360
31
0.0
0
LINE
8
TOP
10
5.962500
20
2.286360
30
0.0
11
6.075000
21
2.284104
31
0.0
0
LINE
8
TOP
10
6.075000
20
2.284104
30
0.0
11
6.187500
21
2.281848
31
0.0
0
LINE
8
TOP
10
6.187500
20
2.281848
30
0.0
11
6.300000
21
2.279593
31
0.0
0
LINE
8
TOP
10
6.300000
20
2.279593
30
0.0
11
6.412500
21
2.277337
31
0.0
0
LINE
8
TOP
10
6.412500
20
2.277337
30
0.0
11
6.525000
21
2.275081
31
0.0
0
LINE
8
TOP
10
6.525000
20
2.275081
30
0.0
11
6.637500
21
2.272825
31
0.0
0
LINE
8
TOP
10
6.637500
20
2.272825
30
0.0
11
6.750000
21
2.270570
31
0.0
0
LINE
8
TOP
10
6.750000
20
2.270570
30
0.0
11
6.862500
21
2.268314
31
0.0
0
LINE
8
TOP
10
6.862500
20
2.268314
30
0.0
11
6.975000
21
2.266058
31
0.0
0
LINE
8
TOP
10
6.975000
20
2.266058
30
0.0
11
7.087500
21
2.263803
31
0.0
0
LINE
8
TOP
10
7.087500
20
2.263803
30
0.0
11
7.200000
21
2.261547
31
0.0
0
LINE
8
TOP
10
7.200000
20
2.261547
30
0.0
11
7.312500
21
2.259291
31
0.0
0
LINE
8
TOP
10
7.312500
20
2.259291
30
0.0
11
7.425000
21
2.257035
31
0.0
0
LINE
8
TOP
10
7.425000
20
2.257035
30
0.0
11
7.537500
21
2.254780
31
0.0
0
LINE
8
TOP
10
7.537500
20
2.254780
30
0.0
11
7.650000
21
2.252524
31
0.0
0
LINE
8
TOP
10
7.650000
20
2.252524
30
0.0
11
7.762500
21
2.250268
31
0.0
0
LINE
8
TOP
10
7.762500
20
2.250268
30
0.0
11
7.875000
21
2.248012
31
0.0
0
LINE
8
TOP
10
7.875000
20
2.248012
30
0.0
11
7.987500
21
2.245757
31
0.0
0
LINE
8
TOP
10
7.987500
20
2.245757
30
0.0
11
8.100000
21
2.243501
31
0.0
0
LINE
8
TOP
10
8.100000
20
2.243501
30
0.0
11
8.212500
21
2.241245
31
0.0
0
LINE
8
TOP
10
8.212500
20
2.241245
30
0.0
11
8.325000
21
2.238990
31
0.0
0
LINE
8
TOP
10
8.325000
20
2.238990
30
0.0
11
8.437500
21
2.236734
31
0.0
0
LINE
8
TOP
10
8.437500
20
2.236734
30
0.0
11
8.500000
21
2.235481
31
0.0
0
LINE
8
TOP
10
8.500000
20
2.235481
30
0.0
11
8.550000
21
2.234478
31
0.0
0
LINE
8
TOP
10
8.550000
20
2.234478
30
0.0
11
8.662500
21
2.232222
31
0.0
0
LINE
8
TOP
10
8.662500
20
2.232222
30
0.0
11
8.775000
21
2.229967
31
0.0
0
LINE
8
TOP
10
8.775000
20
2.229967
30
0.0
11
8.887500
21
2.227711
31
0.0
0
LINE
8
TOP
10
8.887500
20
2.227711
30
0.0
11
9.000000
21
2.225455
31
0.0
0
LINE
8
TOP
10
0.000000
20
1.911042
30
0.0
11
0.112500
21
1.910190
31
0.0
0
LINE
8
TOP
10
0.112500
20
1.910190
30
0.0
11
0.225000
21
1.909339
31
0.0
0
LINE
8
TOP
10
0.225000
20
1.909339
30
0.0
11
0.337500
21
1.908488
31
0.0
0
LINE
8
TOP
10
0.337500
20
1.908488
30
0.0
11
0.450000
21
1.907637
31
0.0
0
LINE
8
TOP
10
0.450000
20
1.907637
30
0.0
11
0.500000
21
1.907258
31
0.0
0
LINE
8
TOP
10
0.500000
20
1.907258
30
0.0
11
0.562500
21
1.906785
31
0.0
0
LINE
8
TOP
10
0.562500
20
1.906785
30
0.0
11
0.675000
21
1.905934
31
0.0
0
LINE
8
TOP
10
0.675000
20
1.905934
30
0.0
11
0.787500
21
1.905083
31
0.0
0
LINE
8
TOP
10
0.787500
20
1.905083
30
0.0
11
0.900000
21
1.904231
31
0.0
0
LINE
8
TOP
10
0.900000
20
1.904231
30
0.0
11
1.012500
21
1.903380
31
0.0
0
LINE
8
TOP
10
1.012500
20
1.903380
30
0.0
11
1.125000
21
1.902529
31
0.0
0
LINE
8
TOP
10
1.125000
20
1.902529
30
0.0
11
1.237500
21
1.901678
31
0.0
0
LINE
8
TOP
10
1.237500
20
1.901678
30
0.0
11
1.350000
21
1.900826
31
0.0
0
LINE
8
TOP
10
1.350000
20
1.900826
30
0.0
11
1.462500
21
1.899975
31
0.0
0
LINE
8
TOP
10
1.462500
20
1.899975
30
0.0
11
1.575000
21
1.899124
31
0.0
0
LINE
8
TOP
10
1.575000
20
1.899124
30
0.0
11
1.687500
21
1.898272
31
0.0
0
LINE
8
TOP
10
1.687500
20
1.898272
30
0.0
11
1.800000
21
1.897421
31
0.0
0
LINE
8
TOP
10
1.800000
20
1.897421
30
0.0
11
1.912500
21
1.896570
31
0.0
0
LINE
8
TOP
10
1.912500
20
1.896570
30
0.0
11
2.025000
21
1.895718
31
0.0
0
LINE
8
TOP
10
2.025000
20
1.895718
30
0.0
11
2.137500
21
1.894867
31
0.0
0
LINE
8
TOP
10
2.137500
20
1.894867
30
0.0
11
2.250000
21
1.894016
31
0.0
0
LINE
8
TOP
10
2.250000
20
1.894016
30
0.0
11
2.362500
21
1.893165
31
0.0
0
LINE
8
TOP
10
2.362500
20
1.893165
30
0.0
11
2.475000
21
1.892313
31
0.0
0
LINE
8
TOP
10
2.475000
20
1.892313
30
0.0
11
2.587500
21
1.891462
31
0.0
0
LINE
8
TOP
10
2.587500
20
1.891462
30
0.0
11
2.700000
21
1.890611
31
0.0
0
LINE
8
TOP
10
2.700000
20
1.890611
30
0.0
11
2.812500
21
1.889759
31
0.0
0
LINE
8
TOP
10
2.812500
20
1.889759
30
0.0
11
2.925000
21
1.888908
31
0.0
0
LINE
8
TOP
10
2.925000
20
1.888908
30
0.0
11
3.037500
21
1.888057
31
0.0
0
LINE
8
TOP
10
3.037500
20
1.888057
30
0.0
11
3.150000
21
1.887206
31
0.0
0
LINE
8
TOP
10
3.150000
20
1.887206
30
0.0
11
3.262500
21
1.886354
31
0.0
0
LINE
8
TOP
10
3.262500
20
1.886354
30
0.0
11
3.375000
21
1.885503
31
0.0
0
LINE
8
TOP
10
3.375000
20
1.885503
30
0.0
11
3.487500
21
1.884652
31
0.0
0
LINE
8
TOP
10
3.487500
20
1.884652
30
0.0
11
3.600000
21
1.883800
31
0.0
0
LINE
8
TOP
10
3.600000
20
1.883800
30
0.0
11
3.712500
21
1.882949
31
0.0
0
LINE
8
TOP
10
3.712500
20
1.882949
30
0.0
11
3.825000
21
1.882098
31
0.0
0
LINE
8
TOP
10
3.825000
20
1.882098
30
0.0
11
3.937500
21
1.881246
31
0.0
0
LINE
8
TOP
10
3.937500
20
1.881246
30
0.0
11
4.050000
21
1.880395
31
0.0
0
LINE
8
TOP
10
4.050000
20
1.880395
30
0.0
11
4.162500
21
1.879544
31
0.0
0
LINE
8
TOP
10
4.162500
20
1.879544
30
0.0
11
4.275000
21
1.878693
31
0.0
0
LINE
8
TOP
10
4.275000
20
1.878693
30
0.0
11
4.387500
21
1.877841
31
0.0
0
LINE
8
TOP
10
4.387500
20
1.877841
30
0.0
11
4.500000
21
1.876990
31
0.0
0
LINE
8
TOP
10
4.500000
20
1.876990
30
0.0
11
4.612500
21
1.879246
31
0.0
0
LINE
8
TOP
10
4.612500
20
1.879246
30
0.0
11
4.725000
21
1.881501
31
0.0
0
LINE
8
TOP
10
4.725000
20
1.881501
30
0.0
11
4.837500
21
1.883757
31
0.0
0
LINE
8
TOP
10
4.837500
20
1.883757
30
0.0
11
4.950000
21
1.886013
31
0.0
0
LINE
8
TOP
10
4.950000
20
1.886013
30
0.0
11
5.062500
21
1.888269
31
0.0
0
LINE
8
TOP
10
5.062500
20
1.888269
30
0.0
11
5.175000
21
1.890524
31
0.0
0
LINE
8
TOP
10
5.175000
20
1.890524
30
0.0
11
5.287500
21
1.892780
31
0.0
0
LINE
8
TOP
10
5.287500
20
1.892780
30
0.0
11
5.400000
21
1.895036
31
0.0
0
LINE
8
TOP
10
5.400000
20
1.895036
30
0.0
11
5.512500
21
1.897292
31
0.0
0
LINE
8
TOP
10
5.512500
20
1.897292
30
0.0
11
5.625000
21
1.899547
31
0.0
0
LINE
8
TOP
10
5.625000
20
1.899547
30
0.0
11
5.737500
21
1.901803
31
0.0
0
LINE
8
TOP
10
5.737500
20
1.901803
30
0.0
11
5.850000
21
1.904059
31
0.0
0
LINE
8
TOP
10
5.850000
20
1.904059
30
0.0
11
5.962500
21
1.906315
31
0.0
0
LINE
8
TOP
10
5.962500
20
1.906315
30
0.0
11
6.075000
21
1.908570
31
0.0
0
LINE
8
TOP
10
6.075000
20
1.908570
30
0.0
11
6.187500
21
1.910826
31
0.0
0
LINE
8
TOP
10
6.187500
20
1.910826
30
0.0
11
6.300000
21
1.913082
31
0.0
0
LINE
8
TOP
10
6.300000
20
1.913082
30
0.0
11
6.412500
21
1.915337
31
0.0
0
LINE
8
TOP
10
6.412500
20
1.915337
30
0.0
11
6.525000
21
1.917593
31
0.0
0
LINE
8
TOP
10
6.525000
20
1.917593
30
0.0
11
6.637500
21
1.919849
31
0.0
0
LINE
8
TOP
10
6.637500
20
1.919849
30
0.0
11
6.750000
21
1.922105
31
0.0
0
LINE
8
TOP
10
6.750000
20
1.922105
30
0.0
11
6.862500
21
1.924360
31
0.0
0
LINE
8
TOP
10
6.862500
20
1.924360
30
0.0
11
6.975000
21
1.926616
31
0.0
0
LINE
8
TOP
10
6.975000
20
1.926616
30
0.0
11
7.087500
21
1.928872
31
0.0
0
LINE
8
TOP
10
7.087500
20
1.928872
30
0.0
11
7.200000
21
1.931128
31
0.0
0
LINE
8
TOP
10
7.200000
20
1.931128
30
0.0
11
7.312500
21
1.933383
31
0.0
0
LINE
8
TOP
10
7.312500
20
1.933383
30
0.0
11
7.425000
21
1.935639
31
0.0
0
LINE
8
TOP
10
7.425000
20
1.935639
30
0.0
11
7.537500
21
1.937895
31
0.0
0
LINE
8
TOP
10
7.537500
20
1.937895
30
0.0
11
7.650000
21
1.940151
31
0.0
0
LINE
8
TOP
10
7.650000
20
1.940151
30
0.0
11
7.762500
21
1.942406
31
0.0
0
LINE
8
TOP
10
7.762500
20
1.942406
30
0.0
11
7.875000
21
1.944662
31
0.0
0
LINE
8
TOP
10
7.875000
20
1.944662
30
0.0
11
7.987500
21
1.946918
31
0.0
0
LINE
8
TOP
10
7.987500
20
1.946918
30
0.0
11
8.100000
21
1.949173
31
0.0
0
LINE
8
TOP
10
8.100000
20
1.949173
30
0.0
11
8.212500
21
1.951429
31
0.0
0
LINE
8
TOP
10
8.212500
20
1.951429
30
0.0
11
8.325000
21
1.953685
31
0.0
0
LINE
8
TOP
10
8.325000
20
1.953685
30
0.0
11
8.437500
21
1.955941
31
0.0
0
LINE
8
TOP
10
8.437500
20
1.955941
30
0.0
11
8.500000
21
1.957194
31
0.0
0
LINE
8
TOP
10
8.500000
20
1.957194
30
0.0
11
8.550000
21
1.958196
31
0.0
0
LINE
8
TOP
10
8.550000
20
1.958196
30
0.0
11
8.662500
21
1.960452
31
0.0
0
LINE
8
TOP
10
8.662500
20
1.960452
30
0.0
11
8.775000
21
1.962708
31
0.0
0
LINE
8
TOP
10
8.775000
20
1.962708
30
0.0
11
8.887500
21
1.964964
31
0.0
0
LINE
8
TOP
10
8.887500
20
1.964964
30
0.0
11
9.000000
21
1.967219
31
0.0
0
LINE
8
TOP
10
0.000000
20
2.281633
30
0.0
11
0.000000
21
1.911042
31
0.0
0
LINE
8
TOP
10
9.000000
20
2.225455
30
0.0
11
9.000000
21
1.967219
31
0.0
0
LINE
8
SECTION
10
10.280653
20
-0.339955
30
0.0
11
10.719347
21
-0.339955
31
0.0
0
LINE
8
SECTION
10
10.719347
20
-0.339955
30
0.0
11
10.719347
21
0.339955
31
0.0
0
LINE
8
SECTION
10
10.719347
20
0.339955
30
0.0
11
10.280653
21
0.339955
31
0.0
0
LINE
8
SECTION
10
10.280653
20
0.339955
30
0.0
11
10.280653
21
-0.339955
31
0.0
0
LINE
8
SECTION
10
10.341029
20
-0.279578
30
0.0
11
10.658971
21
-0.279578
31
0.0
0
LINE
8
SECTION
10
10.658971
20
-0.279578
30
0.0
11
10.658971
21
0.279578
31
0.0
0
LINE
8
SECTION
10
10.658971
20
0.279578
30
0.0
11
10.341029
21
0.279578
31
0.0
0
LINE
8
SECTION
10
10.341029
20
0.279578
30
0.0
11
10.341029
21
-0.279578
31
0.0
0
LINE
8
SECTION
10
10.341029
20
0.000000
30
0.0
11
10.401405
21
0.000000
31
0.0
0
LINE
8
SECTION
10
10.401405
20
0.000000
30
0.0
11
10.401405
21
0.279578
31
0.0
0
LINE
8
SECTION
10
10.401405
20
0.279578
30
0.0
11
10.341029
21
0.279578
31
0.0
0
LINE
8
SECTION
10
10.341029
20
0.279578
30
0.0
11
10.341029
21
0.000000
31
0.0
0
LINE
8
SECTION
10
10.341029
20
-0.279578
30
0.0
11
10.401405
21
-0.279578
31
0.0
0
LINE
8
SECTION
10
10.401405
20
-0.279578
30
0.0
11
10.401405
21
0.000000
31
0.0
0
LINE
8
SECTION
10
10.401405
20
0.000000
30
0.0
11
10.341029
21
0.000000
31
0.0
0
LINE
8
SECTION
10
10.341029
20
0.000000
30
0.0
11
10.341029
21
-0.279578
31
0.0
0
LINE
8
SECTION
10
10.598595
20
0.000000
30
0.0
11
10.658971
21
0.000000
31
0.0
0
LINE
8
SECTION
10
10.658971
20
0.000000
30
0.0
11
10.658971
21
0.279578
31
0.0
0
LINE
8
SECTION
10
10.658971
20
0.279578
30
0.0
11
10.598595
21
0.279578
31
0.0
0
LINE
8
SECTION
10
10.598595
20
0.279578
30
0.0
11
10.598595
21
0.000000
31
0.0
0
LINE
8
SECTION
10
10.598595
20
-0.279578
30
0.0
11
10.658971
21
-0.279578
31
0.0
0
LINE
8
SECTION
10
10.658971
20
-0.279578
30
0.0
11
10.658971
21
0.000000
31
0.0
0
LINE
8
SECTION
10
10.658971
20
0.000000
30
0.0
11
10.598595
21
0.000000
31
0.0
0
LINE
8
SECTION
10
10.598595
20
0.000000
30
0.0
11
10.598595
21
-0.279578
31
0.0
0
ENDSEC
0
EOF
