0
SECTION
2
HEADER
9
$INSUNITS
70
1
0
ENDSEC
0
SECTION
2
ENTITIES
0
LINE
8
FRONT
10
0.000000
20
0.275856
30
0.0
11
0.112500
21
0.277831
31
0.0
0
LINE
8
FRONT
10
0.112500
20
0.277831
30
0.0
11
0.225000
21
0.279806
31
0.0
0
LINE
8
FRONT
10
0.225000
20
0.279806
30
0.0
11
0.337500
21
0.281781
31
0.0
0
LINE
8
FRONT
10
0.337500
20
0.281781
30
0.0
11
0.450000
21
0.283755
31
0.0
0
LINE
8
FRONT
10
0.450000
20
0.283755
30
0.0
11
0.500000
21
0.284633
31
0.0
0
LINE
8
FRONT
10
0.500000
20
0.284633
30
0.0
11
0.562500
21
0.285730
31
0.0
0
LINE
8
FRONT
10
0.562500
20
0.285730
30
0.0
11
0.675000
21
0.287705
31
0.0
0
LINE
8
FRONT
10
0.675000
20
0.287705
30
0.0
11
0.787500
21
0.289679
31
0.0
0
LINE
8
FRONT
10
0.787500
20
0.289679
30
0.0
11
0.900000
21
0.291654
31
0.0
0
LINE
8
FRONT
10
0.900000
20
0.291654
30
0.0
11
1.012500
21
0.293629
31
0.0
0
LINE
8
FRONT
10
1.012500
20
0.293629
30
0.0
11
1.125000
21
0.295604
31
0.0
0
LINE
8
FRONT
10
1.125000
20
0.295604
30
0.0
11
1.237500
21
0.297578
31
0.0
0
LINE
8
FRONT
10
1.237500
20
0.297578
30
0.0
11
1.350000
21
0.299553
31
0.0
0
LINE
8
FRONT
10
1.350000
20
0.299553
30
0.0
11
1.462500
21
0.301528
31
0.0
0
LINE
8
FRONT
10
1.462500
20
0.301528
30
0.0
11
1.575000
21
0.303502
31
0.0
0
LINE
8
FRONT
10
1.575000
20
0.303502
30
0.0
11
1.687500
21
0.305477
31
0.0
0
LINE
8
FRONT
10
1.687500
20
0.305477
30
0.0
11
1.800000
21
0.307452
31
0.0
0
LINE
8
FRONT
10
1.800000
20
0.307452
30
0.0
11
1.912500
21
0.309426
31
0.0
0
LINE
8
FRONT
10
1.912500
20
0.309426
30
0.0
11
2.025000
21
0.311401
31
0.0
0
LINE
8
FRONT
10
2.025000
20
0.311401
30
0.0
11
2.137500
21
0.313376
31
0.0
0
LINE
8
FRONT
10
2.137500
20
0.313376
30
0.0
11
2.250000
21
0.315351
31
0.0
0
LINE
8
FRONT
10
2.250000
20
0.315351
30
0.0
11
2.362500
21
0.317325
31
0.0
0
LINE
8
FRONT
10
2.362500
20
0.317325
30
0.0
11
2.475000
21
0.319300
31
0.0
0
LINE
8
FRONT
10
2.475000
20
0.319300
30
0.0
11
2.587500
21
0.321275
31
0.0
0
LINE
8
FRONT
10
2.587500
20
0.321275
30
0.0
11
2.700000
21
0.323249
31
0.0
0
LINE
8
FRONT
10
2.700000
20
0.323249
30
0.0
11
2.812500
21
0.325224
31
0.0
0
LINE
8
FRONT
10
2.812500
20
0.325224
30
0.0
11
2.925000
21
0.327199
31
0.0
0
LINE
8
FRONT
10
2.925000
20
0.327199
30
0.0
11
3.037500
21
0.329174
31
0.0
0
LINE
8
FRONT
10
3.037500
20
0.329174
30
0.0
11
3.150000
21
0.331148
31
0.0
0
LINE
8
FRONT
10
3.150000
20
0.331148
30
0.0
11
3.262500
21
0.333123
31
0.0
0
LINE
8
FRONT
10
3.262500
20
0.333123
30
0.0
11
3.375000
21
0.335098
31
0.0
0
LINE
8
FRONT
10
3.375000
20
0.335098
30
0.0
11
3.487500
21
0.337072
31
0.0
0
LINE
8
FRONT
10
3.487500
20
0.337072
30
0.0
11
3.600000
21
0.339047
31
0.0
0
LINE
8
FRONT
10
3.600000
20
0.339047
30
0.0
11
3.712500
21
0.341022
31
0.0
0
LINE
8
FRONT
10
3.712500
20
0.341022
30
0.0
11
3.825000
21
0.342997
31
0.0
0
LINE
8
FRONT
10
3.825000
20
0.342997
30
0.0
11
3.937500
21
0.344971
31
0.0
0
LINE
8
FRONT
10
3.937500
20
0.344971
30
0.0
11
4.050000
21
0.346946
31
0.0
0
LINE
8
FRONT
10
4.050000
20
0.346946
30
0.0
11
4.162500
21
0.348921
31
0.0
0
LINE
8
FRONT
10
4.162500
20
0.348921
30
0.0
11
4.275000
21
0.350895
31
0.0
0
LINE
8
FRONT
10
4.275000
20
0.350895
30
0.0
11
4.387500
21
0.352870
31
0.0
0
LINE
8
FRONT
10
4.387500
20
0.352870
30
0.0
11
4.500000
21
0.354845
31
0.0
0
LINE
8
FRONT
10
4.500000
20
0.354845
30
0.0
11
4.612500
21
0.358054
31
0.0
0
LINE
8
FRONT
10
4.612500
20
0.358054
30
0.0
11
4.725000
21
0.361263
31
0.0
0
LINE
8
FRONT
10
4.725000
20
0.361263
30
0.0
11
4.837500
21
0.364472
31
0.0
0
LINE
8
FRONT
10
4.837500
20
0.364472
30
0.0
11
4.950000
21
0.367680
31
0.0
0
LINE
8
FRONT
10
4.950000
20
0.367680
30
0.0
11
5.062500
21
0.370889
31
0.0
0
LINE
8
FRONT
10
5.062500
20
0.370889
30
0.0
11
5.175000
21
0.374098
31
0.0
0
LINE
8
FRONT
10
5.175000
20
0.374098
30
0.0
11
5.287500
21
0.377307
31
0.0
0
LINE
8
FRONT
10
5.287500
20
0.377307
30
0.0
11
5.400000
21
0.380516
31
0.0
0
LINE
8
FRONT
10
5.400000
20
0.380516
30
0.0
11
5.512500
21
0.383725
31
0.0
0
LINE
8
FRONT
10
5.512500
20
0.383725
30
0.0
11
5.625000
21
0.386934
31
0.0
0
LINE
8
FRONT
10
5.625000
20
0.386934
30
0.0
11
5.737500
21
0.390143
31
0.0
0
LINE
8
FRONT
10
5.737500
20
0.390143
30
0.0
11
5.850000
21
0.393352
31
0.0
0
LINE
8
FRONT
10
5.850000
20
0.393352
30
0.0
11
5.962500
21
0.396561
31
0.0
0
LINE
8
FRONT
10
5.962500
20
0.396561
30
0.0
11
6.075000
21
0.399770
31
0.0
0
LINE
8
FRONT
10
6.075000
20
0.399770
30
0.0
11
6.187500
21
0.402979
31
0.0
0
LINE
8
FRONT
10
6.187500
20
0.402979
30
0.0
11
6.300000
21
0.406187
31
0.0
0
LINE
8
FRONT
10
6.300000
20
0.406187
30
0.0
11
6.412500
21
0.409396
31
0.0
0
LINE
8
FRONT
10
6.412500
20
0.409396
30
0.0
11
6.525000
21
0.412605
31
0.0
0
LINE
8
FRONT
10
6.525000
20
0.412605
30
0.0
11
6.637500
21
0.415814
31
0.0
0
LINE
8
FRONT
10
6.637500
20
0.415814
30
0.0
11
6.750000
21
0.419023
31
0.0
0
LINE
8
FRONT
10
6.750000
20
0.419023
30
0.0
11
6.862500
21
0.422232
31
0.0
0
LINE
8
FRONT
10
6.862500
20
0.422232
30
0.0
11
6.975000
21
0.425441
31
0.0
0
LINE
8
FRONT
10
6.975000
20
0.425441
30
0.0
11
7.087500
21
0.428650
31
0.0
0
LINE
8
FRONT
10
7.087500
20
0.428650
30
0.0
11
7.200000
21
0.431859
31
0.0
0
LINE
8
FRONT
10
7.200000
20
0.431859
30
0.0
11
7.312500
21
0.435068
31
0.0
0
LINE
8
FRONT
10
7.312500
20
0.435068
30
0.0
11
7.425000
21
0.438277
31
0.0
0
LINE
8
FRONT
10
7.425000
20
0.438277
30
0.0
11
7.537500
21
0.441486
31
0.0
0
LINE
8
FRONT
10
7.537500
20
0.441486
30
0.0
11
7.650000
21
0.444694
31
0.0
0
LINE
8
FRONT
10
7.650000
20
0.444694
30
0.0
11
7.762500
21
0.447903
31
0.0
0
LINE
8
FRONT
10
7.762500
20
0.447903
30
0.0
11
7.875000
21
0.451112
31
0.0
0
LINE
8
FRONT
10
7.875000
20
0.451112
30
0.0
11
7.987500
21
0.454321
31
0.0
0
LINE
8
FRONT
10
7.987500
20
0.454321
30
0.0
11
8.100000
21
0.457530
31
0.0
0
LINE
8
FRONT
10
8.100000
20
0.457530
30
0.0
11
8.212500
21
0.460739
31
0.0
0
LINE
8
FRONT
10
8.212500
20
0.460739
30
0.0
11
8.325000
21
0.463948
31
0.0
0
LINE
8
FRONT
10
8.325000
20
0.463948
30
0.0
11
8.437500
21
0.467157
31
0.0
0
LINE
8
FRONT
10
8.437500
20
0.467157
30
0.0
11
8.500000
21
0.468940
31
0.0
0
LINE
8
FRONT
10
8.500000
20
0.468940
30
0.0
11
8.550000
21
0.470366
31
0.0
0
LINE
8
FRONT
10
8.550000
20
0.470366
30
0.0
11
8.662500
21
0.473575
31
0.0
0
LINE
8
FRONT
10
8.662500
20
0.473575
30
0.0
11
8.775000
21
0.476784
31
0.0
0
LINE
8
FRONT
10
8.775000
20
0.476784
30
0.0
11
8.887500
21
0.479993
31
0.0
0
LINE
8
FRONT
10
8.887500
20
0.479993
30
0.0
11
9.000000
21
0.483201
31
0.0
0
LINE
8
FRONT
10
0.000000
20
-0.275856
30
0.0
11
0.112500
21
-0.277831
31
0.0
0
LINE
8
FRONT
10
0.112500
20
-0.277831
30
0.0
11
0.225000
21
-0.279806
31
0.0
0
LINE
8
FRONT
10
0.225000
20
-0.279806
30
0.0
11
0.337500
21
-0.281781
31
0.0
0
LINE
8
FRONT
10
0.337500
20
-0.281781
30
0.0
11
0.450000
21
-0.283755
31
0.0
0
LINE
8
FRONT
10
0.450000
20
-0.283755
30
0.0
11
0.500000
21
-0.284633
31
0.0
0
LINE
8
FRONT
10
0.500000
20
-0.284633
30
0.0
11
0.562500
21
-0.285730
31
0.0
0
LINE
8
FRONT
10
0.562500
20
-0.285730
30
0.0
11
0.675000
21
-0.287705
31
0.0
0
LINE
8
FRONT
10
0.675000
20
-0.287705
30
0.0
11
0.787500
21
-0.289679
31
0.0
0
LINE
8
FRONT
10
0.787500
20
-0.289679
30
0.0
11
0.900000
21
-0.291654
31
0.0
0
LINE
8
FRONT
10
0.900000
20
-0.291654
30
0.0
11
1.012500
21
-0.293629
31
0.0
0
LINE
8
FRONT
10
1.012500
20
-0.293629
30
0.0
11
1.125000
21
-0.295604
31
0.0
0
LINE
8
FRONT
10
1.125000
20
-0.295604
30
0.0
11
1.237500
21
-0.297578
31
0.0
0
LINE
8
FRONT
10
1.237500
20
-0.297578
30
0.0
11
1.350000
21
-0.299553
31
0.0
0
LINE
8
FRONT
10
1.350000
20
-0.299553
30
0.0
11
1.462500
21
-0.301528
31
0.0
0
LINE
8
FRONT
10
1.462500
20
-0.301528
30
0.0
11
1.575000
21
-0.303502
31
0.0
0
LINE
8
FRONT
10
1.575000
20
-0.303502
30
0.0
11
1.687500
21
-0.305477
31
0.0
0
LINE
8
FRONT
10
1.687500
20
-0.305477
30
0.0
11
1.800000
21
-0.307452
31
0.0
0
LINE
8
FRONT
10
1.800000
20
-0.307452
30
0.0
11
1.912500
21
-0.309426
31
0.0
0
LINE
8
FRONT
10
1.912500
20
-0.309426
30
0.0
11
2.025000
21
-0.311401
31
0.0
0
LINE
8
FRONT
10
2.025000
20
-0.311401
30
0.0
11
2.137500
21
-0.313376
31
0.0
0
LINE
8
FRONT
10
2.137500
20
-0.313376
30
0.0
11
2.250000
21
-0.315351
31
0.0
0
LINE
8
FRONT
10
2.250000
20
-0.315351
30
0.0
11
2.362500
21
-0.317325
31
0.0
0
LINE
8
FRONT
10
2.362500
20
-0.317325
30
0.0
11
2.475000
21
-0.319300
31
0.0
0
LINE
8
FRONT
10
2.475000
20
-0.319300
30
0.0
11
2.587500
21
-0.321275
31
0.0
0
LINE
8
FRONT
10
2.587500
20
-0.321275
30
0.0
11
2.700000
21
-0.323249
31
0.0
0
LINE
8
FRONT
10
2.700000
20
-0.323249
30
0.0
11
2.812500
21
-0.325224
31
0.0
0
LINE
8
FRONT
10
2.812500
20
-0.325224
30
0.0
11
2.925000
21
-0.327199
31
0.0
0
LINE
8
FRONT
10
2.925000
20
-0.327199
30
0.0
11
3.037500
21
-0.329174
31
0.0
0
LINE
8
FRONT
10
3.037500
20
-0.329174
30
0.0
11
3.150000
21
-0.331148
31
0.0
0
LINE
8
FRONT
10
3.150000
20
-0.331148
30
0.0
11
3.262500
21
-0.333123
31
0.0
0
LINE
8
FRONT
10
3.262500
20
-0.333123
30
0.0
11
3.375000
21
-0.335098
31
0.0
0
LINE
8
FRONT
10
3.375000
20
-0.335098
30
0.0
11
3.487500
21
-0.337072
31
0.0
0
LINE
8
FRONT
10
3.487500
20
-0.337072
30
0.0
11
3.600000
21
-0.339047
31
0.0
0
LINE
8
FRONT
10
3.600000
20
-0.339047
30
0.0
11
3.712500
21
-0.341022
31
0.0
0
LINE
8
FRONT
10
3.712500
20
-0.341022
30
0.0
11
3.825000
21
-0.342997
31
0.0
0
LINE
8
FRONT
10
3.825000
20
-0.342997
30
0.0
11
3.937500
21
-0.344971
31
0.0
0
LINE
8
FRONT
10
3.937500
20
-0.344971
30
0.0
11
4.050000
21
-0.346946
31
0.0
0
LINE
8
FRONT
10
4.050000
20
-0.346946
30
0.0
11
4.162500
21
-0.348921
31
0.0
0
LINE
8
FRONT
10
4.162500
20
-0.348921
30
0.0
11
4.275000
21
-0.350895
31
0.0
0
LINE
8
FRONT
10
4.275000
20
-0.350895
30
0.0
11
4.387500
21
-0.352870
31
0.0
0
LINE
8
FRONT
10
4.387500
20
-0.352870
30
0.0
11
4.500000
21
-0.354845
31
0.0
0
LINE
8
FRONT
10
4.500000
20
-0.354845
30
0.0
11
4.612500
21
-0.358054
31
0.0
0
LINE
8
FRONT
10
4.612500
20
-0.358054
30
0.0
11
4.725000
21
-0.361263
31
0.0
0
LINE
8
FRONT
10
4.725000
20
-0.361263
30
0.0
11
4.837500
21
-0.364472
31
0.0
0
LINE
8
FRONT
10
4.837500
20
-0.364472
30
0.0
11
4.950000
21
-0.367680
31
0.0
0
LINE
8
FRONT
10
4.950000
20
-0.367680
30
0.0
11
5.062500
21
-0.370889
31
0.0
0
LINE
8
FRONT
10
5.062500
20
-0.370889
30
0.0
11
5.175000
21
-0.374098
31
0.0
0
LINE
8
FRONT
10
5.175000
20
-0.374098
30
0.0
11
5.287500
21
-0.377307
31
0.0
0
LINE
8
FRONT
10
5.287500
20
-0.377307
30
0.0
11
5.400000
21
-0.380516
31
0.0
0
LINE
8
FRONT
10
5.400000
20
-0.380516
30
0.0
11
5.512500
21
-0.383725
31
0.0
0
LINE
8
FRONT
10
5.512500
20
-0.383725
30
0.0
11
5.625000
21
-0.386934
31
0.0
0
LINE
8
FRONT
10
5.625000
20
-0.386934
30
0.0
11
5.737500
21
-0.390143
31
0.0
0
LINE
8
FRONT
10
5.737500
20
-0.390143
30
0.0
11
5.850000
21
-0.393352
31
0.0
0
LINE
8
FRONT
10
5.850000
20
-0.393352
30
0.0
11
5.962500
21
-0.396561
31
0.0
0
LINE
8
FRONT
10
5.962500
20
-0.396561
30
0.0
11
6.075000
21
-0.399770
31
0.0
0
LINE
8
FRONT
10
6.075000
20
-0.399770
30
0.0
11
6.187500
21
-0.402979
31
0.0
0
LINE
8
FRONT
10
6.187500
20
-0.402979
30
0.0
11
6.300000
21
-0.406187
31
0.0
0
LINE
8
FRONT
10
6.300000
20
-0.406187
30
0.0
11
6.412500
21
-0.409396
31
0.0
0
LINE
8
FRONT
10
6.412500
20
-0.409396
30
0.0
11
6.525000
21
-0.412605
31
0.0
0
LINE
8
FRONT
10
6.525000
20
-0.412605
30
0.0
11
6.637500
21
-0.415814
31
0.0
0
LINE
8
FRONT
10
6.637500
20
-0.415814
30
0.0
11
6.750000
21
-0.419023
31
0.0
0
LINE
8
FRONT
10
6.750000
20
-0.419023
30
0.0
11
6.862500
21
-0.422232
31
0.0
0
LINE
8
FRONT
10
6.862500
20
-0.422232
30
0.0
11
6.975000
21
-0.425441
31
0.0
0
LINE
8
FRONT
10
6.975000
20
-0.425441
30
0.0
11
7.087500
21
-0.428650
31
0.0
0
LINE
8
FRONT
10
7.087500
20
-0.428650
30
0.0
11
7.200000
21
-0.431859
31
0.0
0
LINE
8
FRONT
10
7.200000
20
-0.431859
30
0.0
11
7.312500
21
-0.435068
31
0.0
0
LINE
8
FRONT
10
7.312500
20
-0.435068
30
0.0
11
7.425000
21
-0.438277
31
0.0
0
LINE
8
FRONT
10
7.425000
20
-0.438277
30
0.0
11
7.537500
21
-0.441486
31
0.0
0
LINE
8
FRONT
10
7.537500
20
-0.441486
30
0.0
11
7.650000
21
-0.444694
31
0.0
0
LINE
8
FRONT
10
7.650000
20
-0.444694
30
0.0
11
7.762500
21
-0.447903
31
0.0
0
LINE
8
FRONT
10
7.762500
20
-0.447903
30
0.0
11
7.875000
21
-0.451112
31
0.0
0
LINE
8
FRONT
10
7.875000
20
-0.451112
30
0.0
11
7.987500
21
-0.454321
31
0.0
0
LINE
8
FRONT
10
7.987500
20
-0.454321
30
0.0
11
8.100000
21
-0.457530
31
0.0
0
LINE
8
FRONT
10
8.100000
20
-0.457530
30
0.0
11
8.212500
21
-0.460739
31
0.0
0
LINE
8
FRONT
10
8.212500
20
-0.460739
30
0.0
11
8.325000
21
-0.463948
31
0.0
0
LINE
8
FRONT
10
8.325000
20
-0.463948
30
0.0
11
8.437500
21
-0.467157
31
0.0
0
LINE
8
FRONT
10
8.437500
20
-0.467157
30
0.0
11
8.500000
21
-0.468940
31
0.0
0
LINE
8
FRONT
10
8.500000
20
-0.468940
30
0.0
11
8.550000
21
-0.470366
31
0.0
0
LINE
8
FRONT
10
8.550000
20
-0.470366
30
0.0
11
8.662500
21
-0.473575
31
0.0
0
LINE
8
FRONT
10
8.662500
20
-0.473575
30
0.0
11
8.775000
21
-0.476784
31
0.0
0
LINE
8
FRONT
10
8.775000
20
-0.476784
30
0.0
11
8.887500
21
-0.479993
31
0.0
0
LINE
8
FRONT
10
8.887500
20
-0.479993
30
0.0
11
9.000000
21
-0.483201
31
0.0
0
LINE
8
FRONT
10
0.000000
20
0.275856
30
0.0
11
0.000000
21
-0.275856
31
0.0
0
LINE
8
FRONT
10
9.000000
20
0.483201
30
0.0
11
9.000000
21
-0.483201
31
0.0
0
LINE
8
TOP
10
0.000000
20
2.381714
30
0.0
11
0.112500
21
2.381396
31
0.0
0
LINE
8
TOP
10
0.112500
20
2.381396
30
0.0
11
0.225000
21
2.381078
31
0.0
0
LINE
8
TOP
10
0.225000
20
2.381078
30
0.0
11
0.337500
21
2.380761
31
0.0
0
LINE
8
TOP
10
0.337500
20
2.380761
30
0.0
11
0.450000
21
2.380443
31
0.0
0
LINE
8
TOP
10
0.450000
20
2.380443
30
0.0
11
0.500000
21
2.380302
31
0.0
0
LINE
8
TOP
10
0.500000
20
2.380302
30
0.0
11
0.562500
21
2.380125
31
0.0
0
LINE
8
TOP
10
0.562500
20
2.380125
30
0.0
11
0.675000
21
2.379808
31
0.0
0
LINE
8
TOP
10
0.675000
20
2.379808
30
0.0
11
0.787500
21
2.379490
31
0.0
0
LINE
8
TOP
10
0.787500
20
2.379490
30
0.0
11
0.900000
21
2.379172
31
0.0
0
LINE
8
TOP
10
0.900000
20
2.379172
30
0.0
11
1.012500
21
2.378854
31
0.0
0
LINE
8
TOP
10
1.012500
20
2.378854
30
0.0
11
1.125000
21
2.378537
31
0.0
0
LINE
8
TOP
10
1.125000
20
2.378537
30
0.0
11
1.237500
21
2.378219
31
0.0
0
LINE
8
TOP
10
1.237500
20
2.378219
30
0.0
11
1.350000
21
2.377901
31
0.0
0
LINE
8
TOP
10
1.350000
20
2.377901
30
0.0
11
1.462500
21
2.377584
31
0.0
0
LINE
8
TOP
10
1.462500
20
2.377584
30
0.0
11
1.575000
21
2.377266
31
0.0
0
LINE
8
TOP
10
1.575000
20
2.377266
30
0.0
11
1.687500
21
2.376948
31
0.0
0
LINE
8
TOP
10
1.687500
20
2.376948
30
0.0
11
1.800000
21
2.376630
31
0.0
0
LINE
8
TOP
10
1.800000
20
2.376630
30
0.0
11
1.912500
21
2.376313
31
0.0
0
LINE
8
TOP
10
1.912500
20
2.376313
30
0.0
11
2.025000
21
2.375995
31
0.0
0
LINE
8
TOP
10
2.025000
20
2.375995
30
0.0
11
2.137500
21
2.375677
31
0.0
0
LINE
8
TOP
10
2.137500
20
2.375677
30
0.0
11
2.250000
21
2.375360
31
0.0
0
LINE
8
TOP
10
2.250000
20
2.375360
30
0.0
11
2.362500
21
2.375042
31
0.0
0
LINE
8
TOP
10
2.362500
20
2.375042
30
0.0
11
2.475000
21
2.374724
31
0.0
0
LINE
8
TOP
10
2.475000
20
2.374724
30
0.0
11
2.587500
21
2.374407
31
0.0
0
LINE
8
TOP
10
2.587500
20
2.374407
30
0.0
11
2.700000
21
2.374089
31
0.0
0
LINE
8
TOP
10
2.700000
20
2.374089
30
0.0
11
2.812500
21
2.373771
31
0.0
0
LINE
8
TOP
10
2.812500
20
2.373771
30
0.0
11
2.925000
21
2.373453
31
0.0
0
LINE
8
TOP
10
2.925000
20
2.373453
30
0.0
11
3.037500
21
2.373136
31
0.0
0
LINE
8
TOP
10
3.037500
20
2.373136
30
0.0
11
3.150000
21
2.372818
31
0.0
0
LINE
8
TOP
10
3.150000
20
2.372818
30
0.0
11
3.262500
21
2.372500
31
0.0
0
LINE
8
TOP
10
3.262500
20
2.372500
30
0.0
11
3.375000
21
2.372183
31
0.0
0
LINE
8
TOP
10
3.375000
20
2.372183
30
0.0
11
3.487500
21
2.371865
31
0.0
0
LINE
8
TOP
10
3.487500
20
2.371865
30
0.0
11
3.600000
21
2.371547
31
0.0
0
LINE
8
TOP
10
3.600000
20
2.371547
30
0.0
11
3.712500
21
2.371229
31
0.0
0
LINE
8
TOP
10
3.712500
20
2.371229
30
0.0
11
3.825000
21
2.370912
31
0.0
0
LINE
8
TOP
10
3.825000
20
2.370912
30
0.0
11
3.937500
21
2.370594
31
0.0
0
LINE
8
TOP
10
3.937500
20
2.370594
30
0.0
11
4.050000
21
2.370276
31
0.0
0
LINE
8
TOP
10
4.050000
20
2.370276
30
0.0
11
4.162500
21
2.369959
31
0.0
0
LINE
8
TOP
10
4.162500
20
2.369959
30
0.0
11
4.275000
21
2.369641
31
0.0
0
LINE
8
TOP
10
4.275000
20
2.369641
30
0.0
11
4.387500
21
2.369323
31
0.0
0
LINE
8
TOP
10
4.387500
20
2.369323
30
0.0
11
4.500000
21
2.369005
31
0.0
0
LINE
8
TOP
10
4.500000
20
2.369005
30
0.0
11
4.612500
21
2.368100
31
0.0
0
LINE
8
TOP
10
4.612500
20
2.368100
30
0.0
11
4.725000
21
2.367194
31
0.0
0
LINE
8
TOP
10
4.725000
20
2.367194
30
0.0
11
4.837500
21
2.366288
31
0.0
0
LINE
8
TOP
10
4.837500
20
2.366288
30
0.0
11
4.950000
21
2.365382
31
0.0
0
LINE
8
TOP
10
4.950000
20
2.365382
30
0.0
11
5.062500
21
2.364476
31
0.0
0
LINE
8
TOP
10
5.062500
20
2.364476
30
0.0
11
5.175000
21
2.363570
31
0.0
0
LINE
8
TOP
10
5.175000
20
2.363570
30
0.0
11
5.287500
21
2.362664
31
0.0
0
LINE
8
TOP
10
5.287500
20
2.362664
30
0.0
11
5.400000
21
2.361758
31
0.0
0
LINE
8
TOP
10
5.400000
20
2.361758
30
0.0
11
5.512500
21
2.360852
31
0.0
0
LINE
8
TOP
10
5.512500
20
2.360852
30
0.0
11
5.625000
21
2.359947
31
0.0
0
LINE
8
TOP
10
5.625000
20
2.359947
30
0.0
11
5.737500
21
2.359041
31
0.0
0
LINE
8
TOP
10
5.737500
20
2.359041
30
0.0
11
5.850000
21
2.358135
31
0.0
0
LINE
8
TOP
10
5.850000
20
2.358135
30
0.0
11
5.962500
21
2.357229
31
0.0
0
LINE
8
TOP
10
5.962500
20
2.357229
30
0.0
11
6.075000
21
2.356323
31
0.0
0
LINE
8
TOP
10
6.075000
20
2.356323
30
0.0
11
6.187500
21
2.355417
31
0.0
0
LINE
8
TOP
10
6.187500
20
2.355417
30
0.0
11
6.300000
21
2.354511
31
0.0
0
LINE
8
TOP
10
6.300000
20
2.354511
30
0.0
11
6.412500
21
2.353605
31
0.0
0
LINE
8
TOP
10
6.412500
20
2.353605
30
0.0
11
6.525000
21
2.352699
31
0.0
0
LINE
8
TOP
10
6.525000
20
2.352699
30
0.0
11
6.637500
21
2.351794
31
0.0
0
LINE
8
TOP
10
6.637500
20
2.351794
30
0.0
11
6.750000
21
2.350888
31
0.0
0
LINE
8
TOP
10
6.750000
20
2.350888
30
0.0
11
6.862500
21
2.349982
31
0.0
0
LINE
8
TOP
10
6.862500
20
2.349982
30
0.0
11
6.975000
21
2.349076
31
0.0
0
LINE
8
TOP
10
6.975000
20
2.349076
30
0.0
11
7.087500
21
2.348170
31
0.0
0
LINE
8
TOP
10
7.087500
20
2.348170
30
0.0
11
7.200000
21
2.347264
31
0.0
0
LINE
8
TOP
10
7.200000
20
2.347264
30
0.0
11
7.312500
21
2.346358
31
0.0
0
LINE
8
TOP
10
7.312500
20
2.346358
30
0.0
11
7.425000
21
2.345452
31
0.0
0
LINE
8
TOP
10
7.425000
20
2.345452
30
0.0
11
7.537500
21
2.344546
31
0.0
0
LINE
8
TOP
10
7.537500
20
2.344546
30
0.0
11
7.650000
21
2.343641
31
0.0
0
LINE
8
TOP
10
7.650000
20
2.343641
30
0.0
11
7.762500
21
2.342735
31
0.0
0
LINE
8
TOP
10
7.762500
20
2.342735
30
0.0
11
7.875000
21
2.341829
31
0.0
0
LINE
8
TOP
10
7.875000
20
2.341829
30
0.0
11
7.987500
21
2.340923
31
0.0
0
LINE
8
TOP
10
7.987500
20
2.340923
30
0.0
11
8.100000
21
2.340017
31
0.0
0
LINE
8
TOP
10
8.100000
20
2.340017
30
0.0
11
8.212500
21
2.339111
31
0.0
0
LINE
8
TOP
10
8.212500
20
2.339111
30
0.0
11
8.325000
21
2.338205
31
0.0
0
LINE
8
TOP
10
8.325000
20
2.338205
30
0.0
11
8.437500
21
2.337299
31
0.0
0
LINE
8
TOP
10
8.437500
20
2.337299
30
0.0
11
8.500000
21
2.336796
31
0.0
0
LINE
8
TOP
10
8.500000
20
2.336796
30
0.0
11
8.550000
21
2.336394
31
0.0
0
LINE
8
TOP
10
8.550000
20
2.336394
30
0.0
11
8.662500
21
2.335488
31
0.0
0
LINE
8
TOP
10
8.662500
20
2.335488
30
0.0
11
8.775000
21
2.334582
31
0.0
0
LINE
8
TOP
10
8.775000
20
2.334582
30
0.0
11
8.887500
21
2.333676
31
0.0
0
LINE
8
TOP
10
8.887500
20
2.333676
30
0.0
11
9.000000
21
2.332770
31
0.0
0
LINE
8
TOP
10
0.000000
20
2.017495
30
0.0
11
0.112500
21
2.017813
31
0.0
0
LINE
8
TOP
10
0.112500
20
2.017813
30
0.0
11
0.225000
21
2.018130
31
0.0
0
LINE
8
TOP
10
0.225000
20
2.018130
30
0.0
11
0.337500
21
2.018448
31
0.0
0
LINE
8
TOP
10
0.337500
20
2.018448
30
0.0
11
0.450000
21
2.018766
31
0.0
0
LINE
8
TOP
10
0.450000
20
2.018766
30
0.0
11
0.500000
21
2.018907
31
0.0
0
LINE
8
TOP
10
0.500000
20
2.018907
30
0.0
11
0.562500
21
2.019084
31
0.0
0
LINE
8
TOP
10
0.562500
20
2.019084
30
0.0
11
0.675000
21
2.019401
31
0.0
0
LINE
8
TOP
10
0.675000
20
2.019401
30
0.0
11
0.787500
21
2.019719
31
0.0
0
LINE
8
TOP
10
0.787500
20
2.019719
30
0.0
11
0.900000
21
2.020037
31
0.0
0
LINE
8
TOP
10
0.900000
20
2.020037
30
0.0
11
1.012500
21
2.020354
31
0.0
0
LINE
8
TOP
10
1.012500
20
2.020354
30
0.0
11
1.125000
21
2.020672
31
0.0
0
LINE
8
TOP
10
1.125000
20
2.020672
30
0.0
11
1.237500
21
2.020990
31
0.0
0
LINE
8
TOP
10
1.237500
20
2.020990
30
0.0
11
1.350000
21
2.021308
31
0.0
0
LINE
8
TOP
10
1.350000
20
2.021308
30
0.0
11
1.462500
21
2.021625
31
0.0
0
LINE
8
TOP
10
1.462500
20
2.021625
30
0.0
11
1.575000
21
2.021943
31
0.0
0
LINE
8
TOP
10
1.575000
20
2.021943
30
0.0
11
1.687500
21
2.022261
31
0.0
0
LINE
8
TOP
10
1.687500
20
2.022261
30
0.0
11
1.800000
21
2.022578
31
0.0
0
LINE
8
TOP
10
1.800000
20
2.022578
30
0.0
11
1.912500
21
2.022896
31
0.0
0
LINE
8
TOP
10
1.912500
20
2.022896
30
0.0
11
2.025000
21
2.023214
31
0.0
0
LINE
8
TOP
10
2.025000
20
2.023214
30
0.0
11
2.137500
21
2.023532
31
0.0
0
LINE
8
TOP
10
2.137500
20
2.023532
30
0.0
11
2.250000
21
2.023849
31
0.0
0
LINE
8
TOP
10
2.250000
20
2.023849
30
0.0
11
2.362500
21
2.024167
31
0.0
0
LINE
8
TOP
10
2.362500
20
2.024167
30
0.0
11
2.475000
21
2.024485
31
0.0
0
LINE
8
TOP
10
2.475000
20
2.024485
30
0.0
11
2.587500
21
2.024802
31
0.0
0
LINE
8
TOP
10
2.587500
20
2.024802
30
0.0
11
2.700000
21
2.025120
31
0.0
0
LINE
8
TOP
10
2.700000
20
2.025120
30
0.0
11
2.812500
21
2.025438
31
0.0
0
LINE
8
TOP
10
2.812500
20
2.025438
30
0.0
11
2.925000
21
2.025756
31
0.0
0
LINE
8
TOP
10
2.925000
20
2.025756
30
0.0
11
3.037500
21
2.026073
31
0.0
0
LINE
8
TOP
10
3.037500
20
2.026073
30
0.0
11
3.150000
21
2.026391
31
0.0
0
LINE
8
TOP
10
3.150000
20
2.026391
30
0.0
11
3.262500
21
2.026709
31
0.0
0
LINE
8
TOP
10
3.262500
20
2.026709
30
0.0
11
3.375000
21
2.027026
31
0.0
0
LINE
8
TOP
10
3.375000
20
2.027026
30
0.0
11
3.487500
21
2.027344
31
0.0
0
LINE
8
TOP
10
3.487500
20
2.027344
30
0.0
11
3.600000
21
2.027662
31
0.0
0
LINE
8
TOP
10
3.600000
20
2.027662
30
0.0
11
3.712500
21
2.027980
31
0.0
0
LINE
8
TOP
10
3.712500
20
2.027980
30
0.0
11
3.825000
21
2.028297
31
0.0
0
LINE
8
TOP
10
3.825000
20
2.028297
30
0.0
11
3.937500
21
2.028615
31
0.0
0
LINE
8
TOP
10
3.937500
20
2.028615
30
0.0
11
4.050000
21
2.028933
31
0.0
0
LINE
8
TOP
10
4.050000
20
2.028933
30
0.0
11
4.162500
21
2.029250
31
0.0
0
LINE
8
TOP
10
4.162500
20
2.029250
30
0.0
11
4.275000
21
2.029568
31
0.0
0
LINE
8
TOP
10
4.275000
20
2.029568
30
0.0
11
4.387500
21
2.029886
31
0.0
0
LINE
8
TOP
10
4.387500
20
2.029886
30
0.0
11
4.500000
21
2.030204
31
0.0
0
LINE
8
TOP
10
4.500000
20
2.030204
30
0.0
11
4.612500
21
2.031109
31
0.0
0
LINE
8
TOP
10
4.612500
20
2.031109
30
0.0
11
4.725000
21
2.032015
31
0.0
0
LINE
8
TOP
10
4.725000
20
2.032015
30
0.0
11
4.837500
21
2.032921
31
0.0
0
LINE
8
TOP
10
4.837500
20
2.032921
30
0.0
11
4.950000
21
2.033827
31
0.0
0
LINE
8
TOP
10
4.950000
20
2.033827
30
0.0
11
5.062500
21
2.034733
31
0.0
0
LINE
8
TOP
10
5.062500
20
2.034733
30
0.0
11
5.175000
21
2.035639
31
0.0
0
LINE
8
TOP
10
5.175000
20
2.035639
30
0.0
11
5.287500
21
2.036545
31
0.0
0
LINE
8
TOP
10
5.287500
20
2.036545
30
0.0
11
5.400000
21
2.037451
31
0.0
0
LINE
8
TOP
10
5.400000
20
2.037451
30
0.0
11
5.512500
21
2.038357
31
0.0
0
LINE
8
TOP
10
5.512500
20
2.038357
30
0.0
11
5.625000
21
2.039262
31
0.0
0
LINE
8
TOP
10
5.625000
20
2.039262
30
0.0
11
5.737500
21
2.040168
31
0.0
0
LINE
8
TOP
10
5.737500
20
2.040168
30
0.0
11
5.850000
21
2.041074
31
0.0
0
LINE
8
TOP
10
5.850000
20
2.041074
30
0.0
11
5.962500
21
2.041980
31
0.0
0
LINE
8
TOP
10
5.962500
20
2.041980
30
0.0
11
6.075000
21
2.042886
31
0.0
0
LINE
8
TOP
10
6.075000
20
2.042886
30
0.0
11
6.187500
21
2.043792
31
0.0
0
LINE
8
TOP
10
6.187500
20
2.043792
30
0.0
11
6.300000
21
2.044698
31
0.0
0
LINE
8
TOP
10
6.300000
20
2.044698
30
0.0
11
6.412500
21
2.045604
31
0.0
0
LINE
8
TOP
10
6.412500
20
2.045604
30
0.0
11
6.525000
21
2.046509
31
0.0
0
LINE
8
TOP
10
6.525000
20
2.046509
30
0.0
11
6.637500
21
2.047415
31
0.0
0
LINE
8
TOP
10
6.637500
20
2.047415
30
0.0
11
6.750000
21
2.048321
31
0.0
0
LINE
8
TOP
10
6.750000
20
2.048321
30
0.0
11
6.862500
21
2.049227
31
0.0
0
LINE
8
TOP
10
6.862500
20
2.049227
30
0.0
11
6.975000
21
2.050133
31
0.0
0
LINE
8
TOP
10
6.975000
20
2.050133
30
0.0
11
7.087500
21
2.051039
31
0.0
0
LINE
8
TOP
10
7.087500
20
2.051039
30
0.0
11
7.200000
21
2.051945
31
0.0
0
LINE
8
TOP
10
7.200000
20
2.051945
30
0.0
11
7.312500
21
2.052851
31
0.0
0
LINE
8
TOP
10
7.312500
20
2.052851
30
0.0
11
7.425000
21
2.053757
31
0.0
0
LINE
8
TOP
10
7.425000
20
2.053757
30
0.0
11
7.537500
21
2.054662
31
0.0
0
LINE
8
TOP
10
7.537500
20
2.054662
30
0.0
11
7.650000
21
2.055568
31
0.0
0
LINE
8
TOP
10
7.650000
20
2.055568
30
0.0
11
7.762500
21
2.056474
31
0.0
0
LINE
8
TOP
10
7.762500
20
2.056474
30
0.0
11
7.875000
21
2.057380
31
0.0
0
LINE
8
TOP
10
7.875000
20
2.057380
30
0.0
11
7.987500
21
2.058286
31
0.0
0
LINE
8
TOP
10
7.987500
20
2.058286
30
0.0
11
8.100000
21
2.059192
31
0.0
0
LINE
8
TOP
10
8.100000
20
2.059192
30
0.0
11
8.212500
21
2.060098
31
0.0
0
LINE
8
TOP
10
8.212500
20
2.060098
30
0.0
11
8.325000
21
2.061004
31
0.0
0
LINE
8
TOP
10
8.325000
20
2.061004
30
0.0
11
8.437500
21
2.061910
31
0.0
0
LINE
8
TOP
10
8.437500
20
2.061910
30
0.0
11
8.500000
21
2.062413
31
0.0
0
LINE
8
TOP
10
8.500000
20
2.062413
30
0.0
11
8.550000
21
2.062815
31
0.0
0
LINE
8
TOP
10
8.550000
20
2.062815
30
0.0
11
8.662500
21
2.063721
31
0.0
0
LINE
8
TOP
10
8.662500
20
2.063721
30
0.0
11
8.775000
21
2.064627
31
0.0
0
LINE
8
TOP
10
8.775000
20
2.064627
30
0.0
11
8.887500
21
2.065533
31
0.0
0
LINE
8
TOP
10
8.887500
20
2.065533
30
0.0
11
9.000000
21
2.066439
31
0.0
0
LINE
8
TOP
10
0.000000
20
2.381714
30
0.0
11
0.000000
21
2.017495
31
0.0
0
LINE
8
TOP
10
9.000000
20
2.332770
30
0.0
11
9.000000
21
2.066439
31
0.0
0
LINE
8
SECTION
10
10.330599
20
-0.354845
30
0.0
11
10.669401
21
-0.354845
31
0.0
0
LINE
8
SECTION
10
10.669401
20
-0.354845
30
0.0
11
10.669401
21
0.354845
31
0.0
0
LINE
8
SECTION
10
10.669401
20
0.354845
30
0.0
11
10.330599
21
0.354845
31
0.0
0
LINE
8
SECTION
10
10.330599
20
0.354845
30
0.0
11
10.330599
21
-0.354845
31
0.0
0
LINE
8
SECTION
10
10.403173
20
-0.282271
30
0.0
11
10.596827
21
-0.282271
31
0.0
0
LINE
8
SECTION
10
10.596827
20
-0.282271
30
0.0
11
10.596827
21
0.282271
31
0.0
0
LINE
8
SECTION
10
10.596827
20
0.282271
30
0.0
11
10.403173
21
0.282271
31
0.0
0
LINE
8
SECTION
10
10.403173
20
0.282271
30
0.0
11
10.403173
21
-0.282271
31
0.0
0
LINE
8
SECTION
10
10.403173
20
0.000000
30
0.0
11
10.475747
21
0.000000
31
0.0
0
LINE
8
SECTION
10
10.475747
20
0.000000
30
0.0
11
10.475747
21
0.282271
31
0.0
0
LINE
8
SECTION
10
10.475747
20
0.282271
30
0.0
11
10.403173
21
0.282271
31
0.0
0
LINE
8
SECTION
10
10.403173
20
0.282271
30
0.0
11
10.403173
21
0.000000
31
0.0
0
LINE
8
SECTION
10
10.403173
20
-0.282271
30
0.0
11
10.475747
21
-0.282271
31
0.0
0
LINE
8
SECTION
10
10.475747
20
-0.282271
30
0.0
11
10.475747
21
0.000000
31
0.0
0
LINE
8
SECTION
10
10.475747
20
0.000000
30
0.0
11
10.403173
21
0.000000
31
0.0
0
LINE
8
SECTION
10
10.403173
20
0.000000
30
0.0
11
10.403173
21
-0.282271
31
0.0
0
LINE
8
SECTION
10
10.524253
20
0.000000
30
0.0
11
10.596827
21
0.000000
31
0.0
0
LINE
8
SECTION
10
10.596827
20
0.000000
30
0.0
11
10.596827
21
0.282271
31
0.0
0
LINE
8
SECTION
10
10.596827
20
0.282271
30
0.0
11
10.524253
21
0.282271
31
0.0
0
LINE
8
SECTION
10
10.524253
20
0.282271
30
0.0
11
10.524253
21
0.000000
31
0.0
0
LINE
8
SECTION
10
10.524253
20
-0.282271
30
0.0
11
10.596827
21
-0.282271
31
0.0
0
LINE
8
SECTION
10
10.596827
20
-0.282271
30
0.0
11
10.596827
21
0.000000
31
0.0
0
LINE
8
SECTION
10
10.596827
20
0.000000
30
0.0
11
10.524253
21
0.000000
31
0.0
0
LINE
8
SECTION
10
10.524253
20
0.000000
30
0.0
11
10.524253
21
-0.282271
31
0.0
0
ENDSEC
0
EOF
