0
SECTION
2
HEADER
9
$INSUNITS
70
1
0
ENDSEC
0
SECTION
2
ENTITIES
0
LINE
8
FRONT
10
0.000000
20
0.288954
30
0.0
11
0.112500
21
0.290727
31
0.0
0
LINE
8
FRONT
10
0.112500
20
0.290727
30
0.0
11
0.225000
21
0.292500
31
0.0
0
LINE
8
FRONT
10
0.225000
20
0.292500
30
0.0
11
0.337500
21
0.294272
31
0.0
0
LINE
8
FRONT
10
0.337500
20
0.294272
30
0.0
11
0.450000
21
0.296045
31
0.0
0
LINE
8
FRONT
10
0.450000
20
0.296045
30
0.0
11
0.500000
21
0.296833
31
0.0
0
LINE
8
FRONT
10
0.500000
20
0.296833
30
0.0
11
0.562500
21
0.297818
31
0.0
0
LINE
8
FRONT
10
0.562500
20
0.297818
30
0.0
11
0.675000
21
0.299591
31
0.0
0
LINE
8
FRONT
10
0.675000
20
0.299591
30
0.0
11
0.787500
21
0.301363
31
0.0
0
LINE
8
FRONT
10
0.787500
20
0.301363
30
0.0
11
0.900000
21
0.303136
31
0.0
0
LINE
8
FRONT
10
0.900000
20
0.303136
30
0.0
11
1.012500
21
0.304909
31
0.0
0
LINE
8
FRONT
10
1.012500
20
0.304909
30
0.0
11
1.125000
21
0.306682
31
0.0
0
LINE
8
FRONT
10
1.125000
20
0.306682
30
0.0
11
1.237500
21
0.308454
31
0.0
0
LINE
8
FRONT
10
1.237500
20
0.308454
30
0.0
11
1.350000
21
0.310227
31
0.0
0
LINE
8
FRONT
10
1.350000
20
0.310227
30
0.0
11
1.462500
21
0.312000
31
0.0
0
LINE
8
FRONT
10
1.462500
20
0.312000
30
0.0
11
1.575000
21
0.313773
31
0.0
0
LINE
8
FRONT
10
1.575000
20
0.313773
30
0.0
11
1.687500
21
0.315545
31
0.0
0
LINE
8
FRONT
10
1.687500
20
0.315545
30
0.0
11
1.800000
21
0.317318
31
0.0
0
LINE
8
FRONT
10
1.800000
20
0.317318
30
0.0
11
1.912500
21
0.319091
31
0.0
0
LINE
8
FRONT
10
1.912500
20
0.319091
30
0.0
11
2.025000
21
0.320864
31
0.0
0
LINE
8
FRONT
10
2.025000
20
0.320864
30
0.0
11
2.137500
21
0.322636
31
0.0
0
LINE
8
FRONT
10
2.137500
20
0.322636
30
0.0
11
2.250000
21
0.324409
31
0.0
0
LINE
8
FRONT
10
2.250000
20
0.324409
30
0.0
11
2.362500
21
0.326182
31
0.0
0
LINE
8
FRONT
10
2.362500
20
0.326182
30
0.0
11
2.475000
21
0.327955
31
0.0
0
LINE
8
FRONT
10
2.475000
20
0.327955
30
0.0
11
2.587500
21
0.329727
31
0.0
0
LINE
8
FRONT
10
2.587500
20
0.329727
30
0.0
11
2.700000
21
0.331500
31
0.0
0
LINE
8
FRONT
10
2.700000
20
0.331500
30
0.0
11
2.812500
21
0.333273
31
0.0
0
LINE
8
FRONT
10
2.812500
20
0.333273
30
0.0
11
2.925000
21
0.335045
31
0.0
0
LINE
8
FRONT
10
2.925000
20
0.335045
30
0.0
11
3.037500
21
0.336818
31
0.0
0
LINE
8
FRONT
10
3.037500
20
0.336818
30
0.0
11
3.150000
21
0.338591
31
0.0
0
LINE
8
FRONT
10
3.150000
20
0.338591
30
0.0
11
3.262500
21
0.340364
31
0.0
0
LINE
8
FRONT
10
3.262500
20
0.340364
30
0.0
11
3.375000
21
0.342136
31
0.0
0
LINE
8
FRONT
10
3.375000
20
0.342136
30
0.0
11
3.487500
21
0.343909
31
0.0
0
LINE
8
FRONT
10
3.487500
20
0.343909
30
0.0
11
3.600000
21
0.345682
31
0.0
0
LINE
8
FRONT
10
3.600000
20
0.345682
30
0.0
11
3.712500
21
0.347455
31
0.0
0
LINE
8
FRONT
10
3.712500
20
0.347455
30
0.0
11
3.825000
21
0.349227
31
0.0
0
LINE
8
FRONT
10
3.825000
20
0.349227
30
0.0
11
3.937500
21
0.351000
31
0.0
0
LINE
8
FRONT
10
3.937500
20
0.351000
30
0.0
11
4.050000
21
0.352773
31
0.0
0
LINE
8
FRONT
10
4.050000
20
0.352773
30
0.0
11
4.162500
21
0.354546
31
0.0
0
LINE
8
FRONT
10
4.162500
20
0.354546
30
0.0
11
4.275000
21
0.356318
31
0.0
0
LINE
8
FRONT
10
4.275000
20
0.356318
30
0.0
11
4.387500
21
0.358091
31
0.0
0
LINE
8
FRONT
10
4.387500
20
0.358091
30
0.0
11
4.500000
21
0.359864
31
0.0
0
LINE
8
FRONT
10
4.500000
20
0.359864
30
0.0
11
4.612500
21
0.356867
31
0.0
0
LINE
8
FRONT
10
4.612500
20
0.356867
30
0.0
11
4.725000
21
0.353871
31
0.0
0
LINE
8
FRONT
10
4.725000
20
0.353871
30
0.0
11
4.837500
21
0.350874
31
0.0
0
LINE
8
FRONT
10
4.837500
20
0.350874
30
0.0
11
4.950000
21
0.347877
31
0.0
0
LINE
8
FRONT
10
4.950000
20
0.347877
30
0.0
11
5.062500
21
0.344881
31
0.0
0
LINE
8
FRONT
10
5.062500
20
0.344881
30
0.0
11
5.175000
21
0.341884
31
0.0
0
LINE
8
FRONT
10
5.175000
20
0.341884
30
0.0
11
5.287500
21
0.338888
31
0.0
0
LINE
8
FRONT
10
5.287500
20
0.338888
30
0.0
11
5.400000
21
0.335891
31
0.0
0
LINE
8
FRONT
10
5.400000
20
0.335891
30
0.0
11
5.512500
21
0.332894
31
0.0
0
LINE
8
FRONT
10
5.512500
20
0.332894
30
0.0
11
5.625000
21
0.329898
31
0.0
0
LINE
8
FRONT
10
5.625000
20
0.329898
30
0.0
11
5.737500
21
0.326901
31
0.0
0
LINE
8
FRONT
10
5.737500
20
0.326901
30
0.0
11
5.850000
21
0.323905
31
0.0
0
LINE
8
FRONT
10
5.850000
20
0.323905
30
0.0
11
5.962500
21
0.320908
31
0.0
0
LINE
8
FRONT
10
5.962500
20
0.320908
30
0.0
11
6.075000
21
0.317911
31
0.0
0
LINE
8
FRONT
10
6.075000
20
0.317911
30
0.0
11
6.187500
21
0.314915
31
0.0
0
LINE
8
FRONT
10
6.187500
20
0.314915
30
0.0
11
6.300000
21
0.311918
31
0.0
0
LINE
8
FRONT
10
6.300000
20
0.311918
30
0.0
11
6.412500
21
0.308922
31
0.0
0
LINE
8
FRONT
10
6.412500
20
0.308922
30
0.0
11
6.525000
21
0.305925
31
0.0
0
LINE
8
FRONT
10
6.525000
20
0.305925
30
0.0
11
6.637500
21
0.302929
31
0.0
0
LINE
8
FRONT
10
6.637500
20
0.302929
30
0.0
11
6.750000
21
0.299932
31
0.0
0
LINE
8
FRONT
10
6.750000
20
0.299932
30
0.0
11
6.862500
21
0.296935
31
0.0
0
LINE
8
FRONT
10
6.862500
20
0.296935
30
0.0
11
6.975000
21
0.293939
31
0.0
0
LINE
8
FRONT
10
6.975000
20
0.293939
30
0.0
11
7.087500
21
0.290942
31
0.0
0
LINE
8
FRONT
10
7.087500
20
0.290942
30
0.0
11
7.200000
21
0.287946
31
0.0
0
LINE
8
FRONT
10
7.200000
20
0.287946
30
0.0
11
7.312500
21
0.284949
31
0.0
0
LINE
8
FRONT
10
7.312500
20
0.284949
30
0.0
11
7.425000
21
0.281952
31
0.0
0
LINE
8
FRONT
10
7.425000
20
0.281952
30
0.0
11
7.537500
21
0.278956
31
0.0
0
LINE
8
FRONT
10
7.537500
20
0.278956
30
0.0
11
7.650000
21
0.275959
31
0.0
0
LINE
8
FRONT
10
7.650000
20
0.275959
30
0.0
11
7.762500
21
0.272963
31
0.0
0
LINE
8
FRONT
10
7.762500
20
0.272963
30
0.0
11
7.875000
21
0.269966
31
0.0
0
LINE
8
FRONT
10
7.875000
20
0.269966
30
0.0
11
7.987500
21
0.266969
31
0.0
0
LINE
8
FRONT
10
7.987500
20
0.266969
30
0.0
11
8.100000
21
0.263973
31
0.0
0
LINE
8
FRONT
10
8.100000
20
0.263973
30
0.0
11
8.212500
21
0.260976
31
0.0
0
LINE
8
FRONT
10
8.212500
20
0.260976
30
0.0
11
8.325000
21
0.257980
31
0.0
0
LINE
8
FRONT
10
8.325000
20
0.257980
30
0.0
11
8.437500
21
0.254983
31
0.0
0
LINE
8
FRONT
10
8.437500
20
0.254983
30
0.0
11
8.500000
21
0.253318
31
0.0
0
LINE
8
FRONT
10
8.500000
20
0.253318
30
0.0
11
8.550000
21
0.251986
31
0.0
0
LINE
8
FRONT
10
8.550000
20
0.251986
30
0.0
11
8.662500
21
0.248990
31
0.0
0
LINE
8
FRONT
10
8.662500
20
0.248990
30
0.0
11
8.775000
21
0.245993
31
0.0
0
LINE
8
FRONT
10
8.775000
20
0.245993
30
0.0
11
8.887500
21
0.242997
31
0.0
0
LINE
8
FRONT
10
8.887500
20
0.242997
30
0.0
11
9.000000
21
0.240000
31
0.0
0
LINE
8
FRONT
10
0.000000
20
-0.288954
30
0.0
11
0.112500
21
-0.290727
31
0.0
0
LINE
8
FRONT
10
0.112500
20
-0.290727
30
0.0
11
0.225000
21
-0.292500
31
0.0
0
LINE
8
FRONT
10
0.225000
20
-0.292500
30
0.0
11
0.337500
21
-0.294272
31
0.0
0
LINE
8
FRONT
10
0.337500
20
-0.294272
30
0.0
11
0.450000
21
-0.296045
31
0.0
0
LINE
8
FRONT
10
0.450000
20
-0.296045
30
0.0
11
0.500000
21
-0.296833
31
0.0
0
LINE
8
FRONT
10
0.500000
20
-0.296833
30
0.0
11
0.562500
21
-0.297818
31
0.0
0
LINE
8
FRONT
10
0.562500
20
-0.297818
30
0.0
11
0.675000
21
-0.299591
31
0.0
0
LINE
8
FRONT
10
0.675000
20
-0.299591
30
0.0
11
0.787500
21
-0.301363
31
0.0
0
LINE
8
FRONT
10
0.787500
20
-0.301363
30
0.0
11
0.900000
21
-0.303136
31
0.0
0
LINE
8
FRONT
10
0.900000
20
-0.303136
30
0.0
11
1.012500
21
-0.304909
31
0.0
0
LINE
8
FRONT
10
1.012500
20
-0.304909
30
0.0
11
1.125000
21
-0.306682
31
0.0
0
LINE
8
FRONT
10
1.125000
20
-0.306682
30
0.0
11
1.237500
21
-0.308454
31
0.0
0
LINE
8
FRONT
10
1.237500
20
-0.308454
30
0.0
11
1.350000
21
-0.310227
31
0.0
0
LINE
8
FRONT
10
1.350000
20
-0.310227
30
0.0
11
1.462500
21
-0.312000
31
0.0
0
LINE
8
FRONT
10
1.462500
20
-0.312000
30
0.0
11
1.575000
21
-0.313773
31
0.0
0
LINE
8
FRONT
10
1.575000
20
-0.313773
30
0.0
11
1.687500
21
-0.315545
31
0.0
0
LINE
8
FRONT
10
1.687500
20
-0.315545
30
0.0
11
1.800000
21
-0.317318
31
0.0
0
LINE
8
FRONT
10
1.800000
20
-0.317318
30
0.0
11
1.912500
21
-0.319091
31
0.0
0
LINE
8
FRONT
10
1.912500
20
-0.319091
30
0.0
11
2.025000
21
-0.320864
31
0.0
0
LINE
8
FRONT
10
2.025000
20
-0.320864
30
0.0
11
2.137500
21
-0.322636
31
0.0
0
LINE
8
FRONT
10
2.137500
20
-0.322636
30
0.0
11
2.250000
21
-0.324409
31
0.0
0
LINE
8
FRONT
10
2.250000
20
-0.324409
30
0.0
11
2.362500
21
-0.326182
31
0.0
0
LINE
8
FRONT
10
2.362500
20
-0.326182
30
0.0
11
2.475000
21
-0.327955
31
0.0
0
LINE
8
FRONT
10
2.475000
20
-0.327955
30
0.0
11
2.587500
21
-0.329727
31
0.0
0
LINE
8
FRONT
10
2.587500
20
-0.329727
30
0.0
11
2.700000
21
-0.331500
31
0.0
0
LINE
8
FRONT
10
2.700000
20
-0.331500
30
0.0
11
2.812500
21
-0.333273
31
0.0
0
LINE
8
FRONT
10
2.812500
20
-0.333273
30
0.0
11
2.925000
21
-0.335045
31
0.0
0
LINE
8
FRONT
10
2.925000
20
-0.335045
30
0.0
11
3.037500
21
-0.336818
31
0.0
0
LINE
8
FRONT
10
3.037500
20
-0.336818
30
0.0
11
3.150000
21
-0.338591
31
0.0
0
LINE
8
FRONT
10
3.150000
20
-0.338591
30
0.0
11
3.262500
21
-0.340364
31
0.0
0
LINE
8
FRONT
10
3.262500
20
-0.340364
30
0.0
11
3.375000
21
-0.342136
31
0.0
0
LINE
8
FRONT
10
3.375000
20
-0.342136
30
0.0
11
3.487500
21
-0.343909
31
0.0
0
LINE
8
FRONT
10
3.487500
20
-0.343909
30
0.0
11
3.600000
21
-0.345682
31
0.0
0
LINE
8
FRONT
10
3.600000
20
-0.345682
30
0.0
11
3.712500
21
-0.347455
31
0.0
0
LINE
8
FRONT
10
3.712500
20
-0.347455
30
0.0
11
3.825000
21
-0.349227
31
0.0
0
LINE
8
FRONT
10
3.825000
20
-0.349227
30
0.0
11
3.937500
21
-0.351000
31
0.0
0
LINE
8
FRONT
10
3.937500
20
-0.351000
30
0.0
11
4.050000
21
-0.352773
31
0.0
0
LINE
8
FRONT
10
4.050000
20
-0.352773
30
0.0
11
4.162500
21
-0.354546
31
0.0
0
LINE
8
FRONT
10
4.162500
20
-0.354546
30
0.0
11
4.275000
21
-0.356318
31
0.0
0
LINE
8
FRONT
10
4.275000
20
-0.356318
30
0.0
11
4.387500
21
-0.358091
31
0.0
0
LINE
8
FRONT
10
4.387500
20
-0.358091
30
0.0
11
4.500000
21
-0.359864
31
0.0
0
LINE
8
FRONT
10
4.500000
20
-0.359864
30
0.0
11
4.612500
21
-0.356867
31
0.0
0
LINE
8
FRONT
10
4.612500
20
-0.356867
30
0.0
11
4.725000
21
-0.353871
31
0.0
0
LINE
8
FRONT
10
4.725000
20
-0.353871
30
0.0
11
4.837500
21
-0.350874
31
0.0
0
LINE
8
FRONT
10
4.837500
20
-0.350874
30
0.0
11
4.950000
21
-0.347877
31
0.0
0
LINE
8
FRONT
10
4.950000
20
-0.347877
30
0.0
11
5.062500
21
-0.344881
31
0.0
0
LINE
8
FRONT
10
5.062500
20
-0.344881
30
0.0
11
5.175000
21
-0.341884
31
0.0
0
LINE
8
FRONT
10
5.175000
20
-0.341884
30
0.0
11
5.287500
21
-0.338888
31
0.0
0
LINE
8
FRONT
10
5.287500
20
-0.338888
30
0.0
11
5.400000
21
-0.335891
31
0.0
0
LINE
8
FRONT
10
5.400000
20
-0.335891
30
0.0
11
5.512500
21
-0.332894
31
0.0
0
LINE
8
FRONT
10
5.512500
20
-0.332894
30
0.0
11
5.625000
21
-0.329898
31
0.0
0
LINE
8
FRONT
10
5.625000
20
-0.329898
30
0.0
11
5.737500
21
-0.326901
31
0.0
0
LINE
8
FRONT
10
5.737500
20
-0.326901
30
0.0
11
5.850000
21
-0.323905
31
0.0
0
LINE
8
FRONT
10
5.850000
20
-0.323905
30
0.0
11
5.962500
21
-0.320908
31
0.0
0
LINE
8
FRONT
10
5.962500
20
-0.320908
30
0.0
11
6.075000
21
-0.317911
31
0.0
0
LINE
8
FRONT
10
6.075000
20
-0.317911
30
0.0
11
6.187500
21
-0.314915
31
0.0
0
LINE
8
FRONT
10
6.187500
20
-0.314915
30
0.0
11
6.300000
21
-0.311918
31
0.0
0
LINE
8
FRONT
10
6.300000
20
-0.311918
30
0.0
11
6.412500
21
-0.308922
31
0.0
0
LINE
8
FRONT
10
6.412500
20
-0.308922
30
0.0
11
6.525000
21
-0.305925
31
0.0
0
LINE
8
FRONT
10
6.525000
20
-0.305925
30
0.0
11
6.637500
21
-0.302929
31
0.0
0
LINE
8
FRONT
10
6.637500
20
-0.302929
30
0.0
11
6.750000
21
-0.299932
31
0.0
0
LINE
8
FRONT
10
6.750000
20
-0.299932
30
0.0
11
6.862500
21
-0.296935
31
0.0
0
LINE
8
FRONT
10
6.862500
20
-0.296935
30
0.0
11
6.975000
21
-0.293939
31
0.0
0
LINE
8
FRONT
10
6.975000
20
-0.293939
30
0.0
11
7.087500
21
-0.290942
31
0.0
0
LINE
8
FRONT
10
7.087500
20
-0.290942
30
0.0
11
7.200000
21
-0.287946
31
0.0
0
LINE
8
FRONT
10
7.200000
20
-0.287946
30
0.0
11
7.312500
21
-0.284949
31
0.0
0
LINE
8
FRONT
10
7.312500
20
-0.284949
30
0.0
11
7.425000
21
-0.281952
31
0.0
0
LINE
8
FRONT
10
7.425000
20
-0.281952
30
0.0
11
7.537500
21
-0.278956
31
0.0
0
LINE
8
FRONT
10
7.537500
20
-0.278956
30
0.0
11
7.650000
21
-0.275959
31
0.0
0
LINE
8
FRONT
10
7.650000
20
-0.275959
30
0.0
11
7.762500
21
-0.272963
31
0.0
0
LINE
8
FRONT
10
7.762500
20
-0.272963
30
0.0
11
7.875000
21
-0.269966
31
0.0
0
LINE
8
FRONT
10
7.875000
20
-0.269966
30
0.0
11
7.987500
21
-0.266969
31
0.0
0
LINE
8
FRONT
10
7.987500
20
-0.266969
30
0.0
11
8.100000
21
-0.263973
31
0.0
0
LINE
8
FRONT
10
8.100000
20
-0.263973
30
0.0
11
8.212500
21
-0.260976
31
0.0
0
LINE
8
FRONT
10
8.212500
20
-0.260976
30
0.0
11
8.325000
21
-0.257980
31
0.0
0
LINE
8
FRONT
10
8.325000
20
-0.257980
30
0.0
11
8.437500
21
-0.254983
31
0.0
0
LINE
8
FRONT
10
8.437500
20
-0.254983
30
0.0
11
8.500000
21
-0.253318
31
0.0
0
LINE
8
FRONT
10
8.500000
20
-0.253318
30
0.0
11
8.550000
21
-0.251986
31
0.0
0
LINE
8
FRONT
10
8.550000
20
-0.251986
30
0.0
11
8.662500
21
-0.248990
31
0.0
0
LINE
8
FRONT
10
8.662500
20
-0.248990
30
0.0
11
8.775000
21
-0.245993
31
0.0
0
LINE
8
FRONT
10
8.775000
20
-0.245993
30
0.0
11
8.887500
21
-0.242997
31
0.0
0
LINE
8
FRONT
10
8.887500
20
-0.242997
30
0.0
11
9.000000
21
-0.240000
31
0.0
0
LINE
8
FRONT
10
0.000000
20
0.288954
30
0.0
11
0.000000
21
-0.288954
31
0.0
0
LINE
8
FRONT
10
9.000000
20
0.240000
30
0.0
11
9.000000
21
-0.240000
31
0.0
0
LINE
8
TOP
10
0.000000
20
2.059764
30
0.0
11
0.112500
21
2.058369
31
0.0
0
LINE
8
TOP
10
0.112500
20
2.058369
30
0.0
11
0.225000
21
2.056975
31
0.0
0
LINE
8
TOP
10
0.225000
20
2.056975
30
0.0
11
0.337500
21
2.055580
31
0.0
0
LINE
8
TOP
10
0.337500
20
2.055580
30
0.0
11
0.450000
21
2.054186
31
0.0
0
LINE
8
TOP
10
0.450000
20
2.054186
30
0.0
11
0.500000
21
2.053566
31
0.0
0
LINE
8
TOP
10
0.500000
20
2.053566
30
0.0
11
0.562500
21
2.052791
31
0.0
0
LINE
8
TOP
10
0.562500
20
2.052791
30
0.0
11
0.675000
21
2.051397
31
0.0
0
LINE
8
TOP
10
0.675000
20
2.051397
30
0.0
11
0.787500
21
2.050002
31
0.0
0
LINE
8
TOP
10
0.787500
20
2.050002
30
0.0
11
0.900000
21
2.048608
31
0.0
0
LINE
8
TOP
10
0.900000
20
2.048608
30
0.0
11
1.012500
21
2.047213
31
0.0
0
LINE
8
TOP
10
1.012500
20
2.047213
30
0.0
11
1.125000
21
2.045819
31
0.0
0
LINE
8
TOP
10
1.125000
20
2.045819
30
0.0
11
1.237500
21
2.044424
31
0.0
0
LINE
8
TOP
10
1.237500
20
2.044424
30
0.0
11
1.350000
21
2.043030
31
0.0
0
LINE
8
TOP
10
1.350000
20
2.043030
30
0.0
11
1.462500
21
2.041635
31
0.0
0
LINE
8
TOP
10
1.462500
20
2.041635
30
0.0
11
1.575000
21
2.040241
31
0.0
0
LINE
8
TOP
10
1.575000
20
2.040241
30
0.0
11
1.687500
21
2.038846
31
0.0
0
LINE
8
TOP
10
1.687500
20
2.038846
30
0.0
11
1.800000
21
2.037452
31
0.0
0
LINE
8
TOP
10
1.800000
20
2.037452
30
0.0
11
1.912500
21
2.036057
31
0.0
0
LINE
8
TOP
10
1.912500
20
2.036057
30
0.0
11
2.025000
21
2.034663
31
0.0
0
LINE
8
TOP
10
2.025000
20
2.034663
30
0.0
11
2.137500
21
2.033268
31
0.0
0
LINE
8
TOP
10
2.137500
20
2.033268
30
0.0
11
2.250000
21
2.031874
31
0.0
0
LINE
8
TOP
10
2.250000
20
2.031874
30
0.0
11
2.362500
21
2.030479
31
0.0
0
LINE
8
TOP
10
2.362500
20
2.030479
30
0.0
11
2.475000
21
2.029085
31
0.0
0
LINE
8
TOP
10
2.475000
20
2.029085
30
0.0
11
2.587500
21
2.027690
31
0.0
0
LINE
8
TOP
10
2.587500
20
2.027690
30
0.0
11
2.700000
21
2.026296
31
0.0
0
LINE
8
TOP
10
2.700000
20
2.026296
30
0.0
11
2.812500
21
2.024901
31
0.0
0
LINE
8
TOP
10
2.812500
20
2.024901
30
0.0
11
2.925000
21
2.023507
31
0.0
0
LINE
8
TOP
10
2.925000
20
2.023507
30
0.0
11
3.037500
21
2.022112
31
0.0
0
LINE
8
TOP
10
3.037500
20
2.022112
30
0.0
11
3.150000
21
2.020718
31
0.0
0
LINE
8
TOP
10
3.150000
20
2.020718
30
0.0
11
3.262500
21
2.019323
31
0.0
0
LINE
8
TOP
10
3.262500
20
2.019323
30
0.0
11
3.375000
21
2.017929
31
0.0
0
LINE
8
TOP
10
3.375000
20
2.017929
30
0.0
11
3.487500
21
2.016534
31
0.0
0
LINE
8
TOP
10
3.487500
20
2.016534
30
0.0
11
3.600000
21
2.015140
31
0.0
0
LINE
8
TOP
10
3.600000
20
2.015140
30
0.0
11
3.712500
21
2.013745
31
0.0
0
LINE
8
TOP
10
3.712500
20
2.013745
30
0.0
11
3.825000
21
2.012351
31
0.0
0
LINE
8
TOP
10
3.825000
20
2.012351
30
0.0
11
3.937500
21
2.010956
31
0.0
0
LINE
8
TOP
10
3.937500
20
2.010956
30
0.0
11
4.050000
21
2.009562
31
0.0
0
LINE
8
TOP
10
4.050000
20
2.009562
30
0.0
11
4.162500
21
2.008167
31
0.0
0
LINE
8
TOP
10
4.162500
20
2.008167
30
0.0
11
4.275000
21
2.006773
31
0.0
0
LINE
8
TOP
10
4.275000
20
2.006773
30
0.0
11
4.387500
21
2.005378
31
0.0
0
LINE
8
TOP
10
4.387500
20
2.005378
30
0.0
11
4.500000
21
2.003984
31
0.0
0
LINE
8
TOP
10
4.500000
20
2.003984
30
0.0
11
4.612500
21
2.002624
31
0.0
0
LINE
8
TOP
10
4.612500
20
2.002624
30
0.0
11
4.725000
21
2.001264
31
0.0
0
LINE
8
TOP
10
4.725000
20
2.001264
30
0.0
11
4.837500
21
1.999904
31
0.0
0
LINE
8
TOP
10
4.837500
20
1.999904
30
0.0
11
4.950000
21
1.998544
31
0.0
0
LINE
8
TOP
10
4.950000
20
1.998544
30
0.0
11
5.062500
21
1.997185
31
0.0
0
LINE
8
TOP
10
5.062500
20
1.997185
30
0.0
11
5.175000
21
1.995825
31
0.0
0
LINE
8
TOP
10
5.175000
20
1.995825
30
0.0
11
5.287500
21
1.994465
31
0.0
0
LINE
8
TOP
10
5.287500
20
1.994465
30
0.0
11
5.400000
21
1.993105
31
0.0
0
LINE
8
TOP
10
5.400000
20
1.993105
30
0.0
11
5.512500
21
1.991745
31
0.0
0
LINE
8
TOP
10
5.512500
20
1.991745
30
0.0
11
5.625000
21
1.990386
31
0.0
0
LINE
8
TOP
10
5.625000
20
1.990386
30
0.0
11
5.737500
21
1.989026
31
0.0
0
LINE
8
TOP
10
5.737500
20
1.989026
30
0.0
11
5.850000
21
1.987666
31
0.0
0
LINE
8
TOP
10
5.850000
20
1.987666
30
0.0
11
5.962500
21
1.986306
31
0.0
0
LINE
8
TOP
10
5.962500
20
1.986306
30
0.0
11
6.075000
21
1.984946
31
0.0
0
LINE
8
TOP
10
6.075000
20
1.984946
30
0.0
11
6.187500
21
1.983587
31
0.0
0
LINE
8
TOP
10
6.187500
20
1.983587
30
0.0
11
6.300000
21
1.982227
31
0.0
0
LINE
8
TOP
10
6.300000
20
1.982227
30
0.0
11
6.412500
21
1.980867
31
0.0
0
LINE
8
TOP
10
6.412500
20
1.980867
30
0.0
11
6.525000
21
1.979507
31
0.0
0
LINE
8
TOP
10
6.525000
20
1.979507
30
0.0
11
6.637500
21
1.978147
31
0.0
0
LINE
8
TOP
10
6.637500
20
1.978147
30
0.0
11
6.750000
21
1.976788
31
0.0
0
LINE
8
TOP
10
6.750000
20
1.976788
30
0.0
11
6.862500
21
1.975428
31
0.0
0
LINE
8
TOP
10
6.862500
20
1.975428
30
0.0
11
6.975000
21
1.974068
31
0.0
0
LINE
8
TOP
10
6.975000
20
1.974068
30
0.0
11
7.087500
21
1.972708
31
0.0
0
LINE
8
TOP
10
7.087500
20
1.972708
30
0.0
11
7.200000
21
1.971348
31
0.0
0
LINE
8
TOP
10
7.200000
20
1.971348
30
0.0
11
7.312500
21
1.969989
31
0.0
0
LINE
8
TOP
10
7.312500
20
1.969989
30
0.0
11
7.425000
21
1.968629
31
0.0
0
LINE
8
TOP
10
7.425000
20
1.968629
30
0.0
11
7.537500
21
1.967269
31
0.0
0
LINE
8
TOP
10
7.537500
20
1.967269
30
0.0
11
7.650000
21
1.965909
31
0.0
0
LINE
8
TOP
10
7.650000
20
1.965909
30
0.0
11
7.762500
21
1.964549
31
0.0
0
LINE
8
TOP
10
7.762500
20
1.964549
30
0.0
11
7.875000
21
1.963190
31
0.0
0
LINE
8
TOP
10
7.875000
20
1.963190
30
0.0
11
7.987500
21
1.961830
31
0.0
0
LINE
8
TOP
10
7.987500
20
1.961830
30
0.0
11
8.100000
21
1.960470
31
0.0
0
LINE
8
TOP
10
8.100000
20
1.960470
30
0.0
11
8.212500
21
1.959110
31
0.0
0
LINE
8
TOP
10
8.212500
20
1.959110
30
0.0
11
8.325000
21
1.957750
31
0.0
0
LINE
8
TOP
10
8.325000
20
1.957750
30
0.0
11
8.437500
21
1.956391
31
0.0
0
LINE
8
TOP
10
8.437500
20
1.956391
30
0.0
11
8.500000
21
1.955635
31
0.0
0
LINE
8
TOP
10
8.500000
20
1.955635
30
0.0
11
8.550000
21
1.955031
31
0.0
0
LINE
8
TOP
10
8.550000
20
1.955031
30
0.0
11
8.662500
21
1.953671
31
0.0
0
LINE
8
TOP
10
8.662500
20
1.953671
30
0.0
11
8.775000
21
1.952311
31
0.0
0
LINE
8
TOP
10
8.775000
20
1.952311
30
0.0
11
8.887500
21
1.950951
31
0.0
0
LINE
8
TOP
10
8.887500
20
1.950951
30
0.0
11
9.000000
21
1.949591
31
0.0
0
LINE
8
TOP
10
0.000000
20
1.599419
30
0.0
11
0.112500
21
1.600814
31
0.0
0
LINE
8
TOP
10
0.112500
20
1.600814
30
0.0
11
0.225000
21
1.602208
31
0.0
0
LINE
8
TOP
10
0.225000
20
1.602208
30
0.0
11
0.337500
21
1.603603
31
0.0
0
LINE
8
TOP
10
0.337500
20
1.603603
30
0.0
11
0.450000
21
1.604997
31
0.0
0
LINE
8
TOP
10
0.450000
20
1.604997
30
0.0
11
0.500000
21
1.605617
31
0.0
0
LINE
8
TOP
10
0.500000
20
1.605617
30
0.0
11
0.562500
21
1.606392
31
0.0
0
LINE
8
TOP
10
0.562500
20
1.606392
30
0.0
11
0.675000
21
1.607786
31
0.0
0
LINE
8
TOP
10
0.675000
20
1.607786
30
0.0
11
0.787500
21
1.609181
31
0.0
0
LINE
8
TOP
10
0.787500
20
1.609181
30
0.0
11
0.900000
21
1.610575
31
0.0
0
LINE
8
TOP
10
0.900000
20
1.610575
30
0.0
11
1.012500
21
1.611970
31
0.0
0
LINE
8
TOP
10
1.012500
20
1.611970
30
0.0
11
1.125000
21
1.613364
31
0.0
0
LINE
8
TOP
10
1.125000
20
1.613364
30
0.0
11
1.237500
21
1.614759
31
0.0
0
LINE
8
TOP
10
1.237500
20
1.614759
30
0.0
11
1.350000
21
1.616153
31
0.0
0
LINE
8
TOP
10
1.350000
20
1.616153
30
0.0
11
1.462500
21
1.617548
31
0.0
0
LINE
8
TOP
10
1.462500
20
1.617548
30
0.0
11
1.575000
21
1.618942
31
0.0
0
LINE
8
TOP
10
1.575000
20
1.618942
30
0.0
11
1.687500
21
1.620337
31
0.0
0
LINE
8
TOP
10
1.687500
20
1.620337
30
0.0
11
1.800000
21
1.621731
31
0.0
0
LINE
8
TOP
10
1.800000
20
1.621731
30
0.0
11
1.912500
21
1.623126
31
0.0
0
LINE
8
TOP
10
1.912500
20
1.623126
30
0.0
11
2.025000
21
1.624520
31
0.0
0
LINE
8
TOP
10
2.025000
20
1.624520
30
0.0
11
2.137500
21
1.625915
31
0.0
0
LINE
8
TOP
10
2.137500
20
1.625915
30
0.0
11
2.250000
21
1.627309
31
0.0
0
LINE
8
TOP
10
2.250000
20
1.627309
30
0.0
11
2.362500
21
1.628704
31
0.0
0
LINE
8
TOP
10
2.362500
20
1.628704
30
0.0
11
2.475000
21
1.630098
31
0.0
0
LINE
8
TOP
10
2.475000
20
1.630098
30
0.0
11
2.587500
21
1.631493
31
0.0
0
LINE
8
TOP
10
2.587500
20
1.631493
30
0.0
11
2.700000
21
1.632887
31
0.0
0
LINE
8
TOP
10
2.700000
20
1.632887
30
0.0
11
2.812500
21
1.634282
31
0.0
0
LINE
8
TOP
10
2.812500
20
1.634282
30
0.0
11
2.925000
21
1.635676
31
0.0
0
LINE
8
TOP
10
2.925000
20
1.635676
30
0.0
11
3.037500
21
1.637071
31
0.0
0
LINE
8
TOP
10
3.037500
20
1.637071
30
0.0
11
3.150000
21
1.638465
31
0.0
0
LINE
8
TOP
10
3.150000
20
1.638465
30
0.0
11
3.262500
21
1.639860
31
0.0
0
LINE
8
TOP
10
3.262500
20
1.639860
30
0.0
11
3.375000
21
1.641254
31
0.0
0
LINE
8
TOP
10
3.375000
20
1.641254
30
0.0
11
3.487500
21
1.642649
31
0.0
0
LINE
8
TOP
10
3.487500
20
1.642649
30
0.0
11
3.600000
21
1.644043
31
0.0
0
LINE
8
TOP
10
3.600000
20
1.644043
30
0.0
11
3.712500
21
1.645438
31
0.0
0
LINE
8
TOP
10
3.712500
20
1.645438
30
0.0
11
3.825000
21
1.646832
31
0.0
0
LINE
8
TOP
10
3.825000
20
1.646832
30
0.0
11
3.937500
21
1.648227
31
0.0
0
LINE
8
TOP
10
3.937500
20
1.648227
30
0.0
11
4.050000
21
1.649621
31
0.0
0
LINE
8
TOP
10
4.050000
20
1.649621
30
0.0
11
4.162500
21
1.651016
31
0.0
0
LINE
8
TOP
10
4.162500
20
1.651016
30
0.0
11
4.275000
21
1.652410
31
0.0
0
LINE
8
TOP
10
4.275000
20
1.652410
30
0.0
11
4.387500
21
1.653805
31
0.0
0
LINE
8
TOP
10
4.387500
20
1.653805
30
0.0
11
4.500000
21
1.655199
31
0.0
0
LINE
8
TOP
10
4.500000
20
1.655199
30
0.0
11
4.612500
21
1.656559
31
0.0
0
LINE
8
TOP
10
4.612500
20
1.656559
30
0.0
11
4.725000
21
1.657919
31
0.0
0
LINE
8
TOP
10
4.725000
20
1.657919
30
0.0
11
4.837500
21
1.659279
31
0.0
0
LINE
8
TOP
10
4.837500
20
1.659279
30
0.0
11
4.950000
21
1.660638
31
0.0
0
LINE
8
TOP
10
4.950000
20
1.660638
30
0.0
11
5.062500
21
1.661998
31
0.0
0
LINE
8
TOP
10
5.062500
20
1.661998
30
0.0
11
5.175000
21
1.663358
31
0.0
0
LINE
8
TOP
10
5.175000
20
1.663358
30
0.0
11
5.287500
21
1.664718
31
0.0
0
LINE
8
TOP
10
5.287500
20
1.664718
30
0.0
11
5.400000
21
1.666078
31
0.0
0
LINE
8
TOP
10
5.400000
20
1.666078
30
0.0
11
5.512500
21
1.667438
31
0.0
0
LINE
8
TOP
10
5.512500
20
1.667438
30
0.0
11
5.625000
21
1.668797
31
0.0
0
LINE
8
TOP
10
5.625000
20
1.668797
30
0.0
11
5.737500
21
1.670157
31
0.0
0
LINE
8
TOP
10
5.737500
20
1.670157
30
0.0
11
5.850000
21
1.671517
31
0.0
0
LINE
8
TOP
10
5.850000
20
1.671517
30
0.0
11
5.962500
21
1.672877
31
0.0
0
LINE
8
TOP
10
5.962500
20
1.672877
30
0.0
11
6.075000
21
1.674237
31
0.0
0
LINE
8
TOP
10
6.075000
20
1.674237
30
0.0
11
6.187500
21
1.675596
31
0.0
0
LINE
8
TOP
10
6.187500
20
1.675596
30
0.0
11
6.300000
21
1.676956
31
0.0
0
LINE
8
TOP
10
6.300000
20
1.676956
30
0.0
11
6.412500
21
1.678316
31
0.0
0
LINE
8
TOP
10
6.412500
20
1.678316
30
0.0
11
6.525000
21
1.679676
31
0.0
0
LINE
8
TOP
10
6.525000
20
1.679676
30
0.0
11
6.637500
21
1.681036
31
0.0
0
LINE
8
TOP
10
6.637500
20
1.681036
30
0.0
11
6.750000
21
1.682395
31
0.0
0
LINE
8
TOP
10
6.750000
20
1.682395
30
0.0
11
6.862500
21
1.683755
31
0.0
0
LINE
8
TOP
10
6.862500
20
1.683755
30
0.0
11
6.975000
21
1.685115
31
0.0
0
LINE
8
TOP
10
6.975000
20
1.685115
30
0.0
11
7.087500
21
1.686475
31
0.0
0
LINE
8
TOP
10
7.087500
20
1.686475
30
0.0
11
7.200000
21
1.687835
31
0.0
0
LINE
8
TOP
10
7.200000
20
1.687835
30
0.0
11
7.312500
21
1.689194
31
0.0
0
LINE
8
TOP
10
7.312500
20
1.689194
30
0.0
11
7.425000
21
1.690554
31
0.0
0
LINE
8
TOP
10
7.425000
20
1.690554
30
0.0
11
7.537500
21
1.691914
31
0.0
0
LINE
8
TOP
10
7.537500
20
1.691914
30
0.0
11
7.650000
21
1.693274
31
0.0
0
LINE
8
TOP
10
7.650000
20
1.693274
30
0.0
11
7.762500
21
1.694634
31
0.0
0
LINE
8
TOP
10
7.762500
20
1.694634
30
0.0
11
7.875000
21
1.695993
31
0.0
0
LINE
8
TOP
10
7.875000
20
1.695993
30
0.0
11
7.987500
21
1.697353
31
0.0
0
LINE
8
TOP
10
7.987500
20
1.697353
30
0.0
11
8.100000
21
1.698713
31
0.0
0
LINE
8
TOP
10
8.100000
20
1.698713
30
0.0
11
8.212500
21
1.700073
31
0.0
0
LINE
8
TOP
10
8.212500
20
1.700073
30
0.0
11
8.325000
21
1.701433
31
0.0
0
LINE
8
TOP
10
8.325000
20
1.701433
30
0.0
11
8.437500
21
1.702792
31
0.0
0
LINE
8
TOP
10
8.437500
20
1.702792
30
0.0
11
8.500000
21
1.703548
31
0.0
0
LINE
8
TOP
10
8.500000
20
1.703548
30
0.0
11
8.550000
21
1.704152
31
0.0
0
LINE
8
TOP
10
8.550000
20
1.704152
30
0.0
11
8.662500
21
1.705512
31
0.0
0
LINE
8
TOP
10
8.662500
20
1.705512
30
0.0
11
8.775000
21
1.706872
31
0.0
0
LINE
8
TOP
10
8.775000
20
1.706872
30
0.0
11
8.887500
21
1.708232
31
0.0
0
LINE
8
TOP
10
8.887500
20
1.708232
30
0.0
11
9.000000
21
1.709591
31
0.0
0
LINE
8
TOP
10
0.000000
20
2.059764
30
0.0
11
0.000000
21
1.599419
31
0.0
0
LINE
8
TOP
10
9.000000
20
1.949591
30
0.0
11
9.000000
21
1.709591
31
0.0
0
LINE
8
SECTION
10
10.325608
20
-0.359864
30
0.0
11
10.674392
21
-0.359864
31
0.0
0
LINE
8
SECTION
10
10.674392
20
-0.359864
30
0.0
11
10.674392
21
0.359864
31
0.0
0
LINE
8
SECTION
10
10.674392
20
0.359864
30
0.0
11
10.325608
21
0.359864
31
0.0
0
LINE
8
SECTION
10
10.325608
20
0.359864
30
0.0
11
10.325608
21
-0.359864
31
0.0
0
LINE
8
SECTION
10
10.394158
20
-0.291314
30
0.0
11
10.605842
21
-0.291314
31
0.0
0
LINE
8
SECTION
10
10.605842
20
-0.291314
30
0.0
11
10.605842
21
0.291314
31
0.0
0
LINE
8
SECTION
10
10.605842
20
0.291314
30
0.0
11
10.394158
21
0.291314
31
0.0
0
LINE
8
SECTION
10
10.394158
20
0.291314
30
0.0
11
10.394158
21
-0.291314
31
0.0
0
LINE
8
SECTION
10
10.394158
20
0.000000
30
0.0
11
10.462707
21
0.000000
31
0.0
0
LINE
8
SECTION
10
10.462707
20
0.000000
30
0.0
11
10.462707
21
0.291314
31
0.0
0
LINE
8
SECTION
10
10.462707
20
0.291314
30
0.0
11
10.394158
21
0.291314
31
0.0
0
LINE
8
SECTION
10
10.394158
20
0.291314
30
0.0
11
10.394158
21
0.000000
31
0.0
0
LINE
8
SECTION
10
10.394158
20
-0.291314
30
0.0
11
10.462707
21
-0.291314
31
0.0
0
LINE
8
SECTION
10
10.462707
20
-0.291314
30
0.0
11
10.462707
21
0.000000
31
0.0
0
LINE
8
SECTION
10
10.462707
20
0.000000
30
0.0
11
10.394158
21
0.000000
31
0.0
0
LINE
8
SECTION
10
10.394158
20
0.000000
30
0.0
11
10.394158
21
-0.291314
31
0.0
0
LINE
8
SECTION
10
10.537293
20
0.000000
30
0.0
11
10.605842
21
0.000000
31
0.0
0
LINE
8
SECTION
10
10.605842
20
0.000000
30
0.0
11
10.605842
21
0.291314
31
0.0
0
LINE
8
SECTION
10
10.605842
20
0.291314
30
0.0
11
10.537293
21
0.291314
31
0.0
0
LINE
8
SECTION
10
10.537293
20
0.291314
30
0.0
11
10.537293
21
0.000000
31
0.0
0
LINE
8
SECTION
10
10.537293
20
-0.291314
30
0.0
11
10.605842
21
-0.291314
31
0.0
0
LINE
8
SECTION
10
10.605842
20
-0.291314
30
0.0
11
10.605842
21
0.000000
31
0.0
0
LINE
8
SECTION
10
10.605842
20
0.000000
30
0.0
11
10.537293
21
0.000000
31
0.0
0
LINE
8
SECTION
10
10.537293
20
0.000000
30
0.0
11
10.537293
21
-0.291314
31
0.0
0
ENDSEC
0
EOF
