0
SECTION
2
HEADER
9
$INSUNITS
70
1
0
ENDSEC
0
SECTION
2
ENTITIES
0
LINE
8
FRONT
10
0.000000
20
0.150000
30
0.0
11
0.112500
21
0.154696
31
0.0
0
LINE
8
FRONT
10
0.112500
20
0.154696
30
0.0
11
0.225000
21
0.159391
31
0.0
0
LINE
8
FRONT
10
0.225000
20
0.159391
30
0.0
11
0.337500
21
0.164087
31
0.0
0
LINE
8
FRONT
10
0.337500
20
0.164087
30
0.0
11
0.450000
21
0.168782
31
0.0
0
LINE
8
FRONT
10
0.450000
20
0.168782
30
0.0
11
0.500000
21
0.170869
31
0.0
0
LINE
8
FRONT
10
0.500000
20
0.170869
30
0.0
11
0.562500
21
0.173478
31
0.0
0
LINE
8
FRONT
10
0.562500
20
0.173478
30
0.0
11
0.675000
21
0.178174
31
0.0
0
LINE
8
FRONT
10
0.675000
20
0.178174
30
0.0
11
0.787500
21
0.182869
31
0.0
0
LINE
8
FRONT
10
0.787500
20
0.182869
30
0.0
11
0.900000
21
0.187565
31
0.0
0
LINE
8
FRONT
10
0.900000
20
0.187565
30
0.0
11
1.012500
21
0.192260
31
0.0
0
LINE
8
FRONT
10
1.012500
20
0.192260
30
0.0
11
1.125000
21
0.196956
31
0.0
0
LINE
8
FRONT
10
1.125000
20
0.196956
30
0.0
11
1.237500
21
0.201652
31
0.0
0
LINE
8
FRONT
10
1.237500
20
0.201652
30
0.0
11
1.350000
21
0.206347
31
0.0
0
LINE
8
FRONT
10
1.350000
20
0.206347
30
0.0
11
1.462500
21
0.211043
31
0.0
0
LINE
8
FRONT
10
1.462500
20
0.211043
30
0.0
11
1.575000
21
0.215738
31
0.0
0
LINE
8
FRONT
10
1.575000
20
0.215738
30
0.0
11
1.687500
21
0.220434
31
0.0
0
LINE
8
FRONT
10
1.687500
20
0.220434
30
0.0
11
1.800000
21
0.225129
31
0.0
0
LINE
8
FRONT
10
1.800000
20
0.225129
30
0.0
11
1.912500
21
0.229825
31
0.0
0
LINE
8
FRONT
10
1.912500
20
0.229825
30
0.0
11
2.025000
21
0.234521
31
0.0
0
LINE
8
FRONT
10
2.025000
20
0.234521
30
0.0
11
2.137500
21
0.239216
31
0.0
0
LINE
8
FRONT
10
2.137500
20
0.239216
30
0.0
11
2.250000
21
0.243912
31
0.0
0
LINE
8
FRONT
10
2.250000
20
0.243912
30
0.0
11
2.362500
21
0.248607
31
0.0
0
LINE
8
FRONT
10
2.362500
20
0.248607
30
0.0
11
2.475000
21
0.253303
31
0.0
0
LINE
8
FRONT
10
2.475000
20
0.253303
30
0.0
11
2.587500
21
0.257999
31
0.0
0
LINE
8
FRONT
10
2.587500
20
0.257999
30
0.0
11
2.700000
21
0.262694
31
0.0
0
LINE
8
FRONT
10
2.700000
20
0.262694
30
0.0
11
2.812500
21
0.267390
31
0.0
0
LINE
8
FRONT
10
2.812500
20
0.267390
30
0.0
11
2.925000
21
0.272085
31
0.0
0
LINE
8
FRONT
10
2.925000
20
0.272085
30
0.0
11
3.037500
21
0.276781
31
0.0
0
LINE
8
FRONT
10
3.037500
20
0.276781
30
0.0
11
3.150000
21
0.281477
31
0.0
0
LINE
8
FRONT
10
3.150000
20
0.281477
30
0.0
11
3.262500
21
0.286172
31
0.0
0
LINE
8
FRONT
10
3.262500
20
0.286172
30
0.0
11
3.375000
21
0.290868
31
0.0
0
LINE
8
FRONT
10
3.375000
20
0.290868
30
0.0
11
3.487500
21
0.295563
31
0.0
0
LINE
8
FRONT
10
3.487500
20
0.295563
30
0.0
11
3.600000
21
0.300259
31
0.0
0
LINE
8
FRONT
10
3.600000
20
0.300259
30
0.0
11
3.712500
21
0.304955
31
0.0
0
LINE
8
FRONT
10
3.712500
20
0.304955
30
0.0
11
3.825000
21
0.309650
31
0.0
0
LINE
8
FRONT
10
3.825000
20
0.309650
30
0.0
11
3.937500
21
0.314346
31
0.0
0
LINE
8
FRONT
10
3.937500
20
0.314346
30
0.0
11
4.050000
21
0.319041
31
0.0
0
LINE
8
FRONT
10
4.050000
20
0.319041
30
0.0
11
4.162500
21
0.323737
31
0.0
0
LINE
8
FRONT
10
4.162500
20
0.323737
30
0.0
11
4.275000
21
0.328433
31
0.0
0
LINE
8
FRONT
10
4.275000
20
0.328433
30
0.0
11
4.387500
21
0.333128
31
0.0
0
LINE
8
FRONT
10
4.387500
20
0.333128
30
0.0
11
4.500000
21
0.337824
31
0.0
0
LINE
8
FRONT
10
4.500000
20
0.337824
30
0.0
11
4.612500
21
0.333128
31
0.0
0
LINE
8
FRONT
10
4.612500
20
0.333128
30
0.0
11
4.725000
21
0.328433
31
0.0
0
LINE
8
FRONT
10
4.725000
20
0.328433
30
0.0
11
4.837500
21
0.323737
31
0.0
0
LINE
8
FRONT
10
4.837500
20
0.323737
30
0.0
11
4.950000
21
0.319041
31
0.0
0
LINE
8
FRONT
10
4.950000
20
0.319041
30
0.0
11
5.062500
21
0.314346
31
0.0
0
LINE
8
FRONT
10
5.062500
20
0.314346
30
0.0
11
5.175000
21
0.309650
31
0.0
0
LINE
8
FRONT
10
5.175000
20
0.309650
30
0.0
11
5.287500
21
0.304955
31
0.0
0
LINE
8
FRONT
10
5.287500
20
0.304955
30
0.0
11
5.400000
21
0.300259
31
0.0
0
LINE
8
FRONT
10
5.400000
20
0.300259
30
0.0
11
5.512500
21
0.295563
31
0.0
0
LINE
8
FRONT
10
5.512500
20
0.295563
30
0.0
11
5.625000
21
0.290868
31
0.0
0
LINE
8
FRONT
10
5.625000
20
0.290868
30
0.0
11
5.737500
21
0.286172
31
0.0
0
LINE
8
FRONT
10
5.737500
20
0.286172
30
0.0
11
5.850000
21
0.281477
31
0.0
0
LINE
8
FRONT
10
5.850000
20
0.281477
30
0.0
11
5.962500
21
0.276781
31
0.0
0
LINE
8
FRONT
10
5.962500
20
0.276781
30
0.0
11
6.075000
21
0.272085
31
0.0
0
LINE
8
FRONT
10
6.075000
20
0.272085
30
0.0
11
6.187500
21
0.267390
31
0.0
0
LINE
8
FRONT
10
6.187500
20
0.267390
30
0.0
11
6.300000
21
0.262694
31
0.0
0
LINE
8
FRONT
10
6.300000
20
0.262694
30
0.0
11
6.412500
21
0.257999
31
0.0
0
LINE
8
FRONT
10
6.412500
20
0.257999
30
0.0
11
6.525000
21
0.253303
31
0.0
0
LINE
8
FRONT
10
6.525000
20
0.253303
30
0.0
11
6.637500
21
0.248607
31
0.0
0
LINE
8
FRONT
10
6.637500
20
0.248607
30
0.0
11
6.750000
21
0.243912
31
0.0
0
LINE
8
FRONT
10
6.750000
20
0.243912
30
0.0
11
6.862500
21
0.239216
31
0.0
0
LINE
8
FRONT
10
6.862500
20
0.239216
30
0.0
11
6.975000
21
0.234521
31
0.0
0
LINE
8
FRONT
10
6.975000
20
0.234521
30
0.0
11
7.087500
21
0.229825
31
0.0
0
LINE
8
FRONT
10
7.087500
20
0.229825
30
0.0
11
7.200000
21
0.225129
31
0.0
0
LINE
8
FRONT
10
7.200000
20
0.225129
30
0.0
11
7.312500
21
0.220434
31
0.0
0
LINE
8
FRONT
10
7.312500
20
0.220434
30
0.0
11
7.425000
21
0.215738
31
0.0
0
LINE
8
FRONT
10
7.425000
20
0.215738
30
0.0
11
7.537500
21
0.211043
31
0.0
0
LINE
8
FRONT
10
7.537500
20
0.211043
30
0.0
11
7.650000
21
0.206347
31
0.0
0
LINE
8
FRONT
10
7.650000
20
0.206347
30
0.0
11
7.762500
21
0.201652
31
0.0
0
LINE
8
FRONT
10
7.762500
20
0.201652
30
0.0
11
7.875000
21
0.196956
31
0.0
0
LINE
8
FRONT
10
7.875000
20
0.196956
30
0.0
11
7.987500
21
0.192260
31
0.0
0
LINE
8
FRONT
10
7.987500
20
0.192260
30
0.0
11
8.100000
21
0.187565
31
0.0
0
LINE
8
FRONT
10
8.100000
20
0.187565
30
0.0
11
8.212500
21
0.182869
31
0.0
0
LINE
8
FRONT
10
8.212500
20
0.182869
30
0.0
11
8.325000
21
0.178174
31
0.0
0
LINE
8
FRONT
10
8.325000
20
0.178174
30
0.0
11
8.437500
21
0.173478
31
0.0
0
LINE
8
FRONT
10
8.437500
20
0.173478
30
0.0
11
8.500000
21
0.170869
31
0.0
0
LINE
8
FRONT
10
8.500000
20
0.170869
30
0.0
11
8.550000
21
0.168782
31
0.0
0
LINE
8
FRONT
10
8.550000
20
0.168782
30
0.0
11
8.662500
21
0.164087
31
0.0
0
LINE
8
FRONT
10
8.662500
20
0.164087
30
0.0
11
8.775000
21
0.159391
31
0.0
0
LINE
8
FRONT
10
8.775000
20
0.159391
30
0.0
11
8.887500
21
0.154696
31
0.0
0
LINE
8
FRONT
10
8.887500
20
0.154696
30
0.0
11
9.000000
21
0.150000
31
0.0
0
LINE
8
FRONT
10
0.000000
20
-0.150000
30
0.0
11
0.112500
21
-0.154696
31
0.0
0
LINE
8
FRONT
10
0.112500
20
-0.154696
30
0.0
11
0.225000
21
-0.159391
31
0.0
0
LINE
8
FRONT
10
0.225000
20
-0.159391
30
0.0
11
0.337500
21
-0.164087
31
0.0
0
LINE
8
FRONT
10
0.337500
20
-0.164087
30
0.0
11
0.450000
21
-0.168782
31
0.0
0
LINE
8
FRONT
10
0.450000
20
-0.168782
30
0.0
11
0.500000
21
-0.170869
31
0.0
0
LINE
8
FRONT
10
0.500000
20
-0.170869
30
0.0
11
0.562500
21
-0.173478
31
0.0
0
LINE
8
FRONT
10
0.562500
20
-0.173478
30
0.0
11
0.675000
21
-0.178174
31
0.0
0
LINE
8
FRONT
10
0.675000
20
-0.178174
30
0.0
11
0.787500
21
-0.182869
31
0.0
0
LINE
8
FRONT
10
0.787500
20
-0.182869
30
0.0
11
0.900000
21
-0.187565
31
0.0
0
LINE
8
FRONT
10
0.900000
20
-0.187565
30
0.0
11
1.012500
21
-0.192260
31
0.0
0
LINE
8
FRONT
10
1.012500
20
-0.192260
30
0.0
11
1.125000
21
-0.196956
31
0.0
0
LINE
8
FRONT
10
1.125000
20
-0.196956
30
0.0
11
1.237500
21
-0.201652
31
0.0
0
LINE
8
FRONT
10
1.237500
20
-0.201652
30
0.0
11
1.350000
21
-0.206347
31
0.0
0
LINE
8
FRONT
10
1.350000
20
-0.206347
30
0.0
11
1.462500
21
-0.211043
31
0.0
0
LINE
8
FRONT
10
1.462500
20
-0.211043
30
0.0
11
1.575000
21
-0.215738
31
0.0
0
LINE
8
FRONT
10
1.575000
20
-0.215738
30
0.0
11
1.687500
21
-0.220434
31
0.0
0
LINE
8
FRONT
10
1.687500
20
-0.220434
30
0.0
11
1.800000
21
-0.225129
31
0.0
0
LINE
8
FRONT
10
1.800000
20
-0.225129
30
0.0
11
1.912500
21
-0.229825
31
0.0
0
LINE
8
FRONT
10
1.912500
20
-0.229825
30
0.0
11
2.025000
21
-0.234521
31
0.0
0
LINE
8
FRONT
10
2.025000
20
-0.234521
30
0.0
11
2.137500
21
-0.239216
31
0.0
0
LINE
8
FRONT
10
2.137500
20
-0.239216
30
0.0
11
2.250000
21
-0.243912
31
0.0
0
LINE
8
FRONT
10
2.250000
20
-0.243912
30
0.0
11
2.362500
21
-0.248607
31
0.0
0
LINE
8
FRONT
10
2.362500
20
-0.248607
30
0.0
11
2.475000
21
-0.253303
31
0.0
0
LINE
8
FRONT
10
2.475000
20
-0.253303
30
0.0
11
2.587500
21
-0.257999
31
0.0
0
LINE
8
FRONT
10
2.587500
20
-0.257999
30
0.0
11
2.700000
21
-0.262694
31
0.0
0
LINE
8
FRONT
10
2.700000
20
-0.262694
30
0.0
11
2.812500
21
-0.267390
31
0.0
0
LINE
8
FRONT
10
2.812500
20
-0.267390
30
0.0
11
2.925000
21
-0.272085
31
0.0
0
LINE
8
FRONT
10
2.925000
20
-0.272085
30
0.0
11
3.037500
21
-0.276781
31
0.0
0
LINE
8
FRONT
10
3.037500
20
-0.276781
30
0.0
11
3.150000
21
-0.281477
31
0.0
0
LINE
8
FRONT
10
3.150000
20
-0.281477
30
0.0
11
3.262500
21
-0.286172
31
0.0
0
LINE
8
FRONT
10
3.262500
20
-0.286172
30
0.0
11
3.375000
21
-0.290868
31
0.0
0
LINE
8
FRONT
10
3.375000
20
-0.290868
30
0.0
11
3.487500
21
-0.295563
31
0.0
0
LINE
8
FRONT
10
3.487500
20
-0.295563
30
0.0
11
3.600000
21
-0.300259
31
0.0
0
LINE
8
FRONT
10
3.600000
20
-0.300259
30
0.0
11
3.712500
21
-0.304955
31
0.0
0
LINE
8
FRONT
10
3.712500
20
-0.304955
30
0.0
11
3.825000
21
-0.309650
31
0.0
0
LINE
8
FRONT
10
3.825000
20
-0.309650
30
0.0
11
3.937500
21
-0.314346
31
0.0
0
LINE
8
FRONT
10
3.937500
20
-0.314346
30
0.0
11
4.050000
21
-0.319041
31
0.0
0
LINE
8
FRONT
10
4.050000
20
-0.319041
30
0.0
11
4.162500
21
-0.323737
31
0.0
0
LINE
8
FRONT
10
4.162500
20
-0.323737
30
0.0
11
4.275000
21
-0.328433
31
0.0
0
LINE
8
FRONT
10
4.275000
20
-0.328433
30
0.0
11
4.387500
21
-0.333128
31
0.0
0
LINE
8
FRONT
10
4.387500
20
-0.333128
30
0.0
11
4.500000
21
-0.337824
31
0.0
0
LINE
8
FRONT
10
4.500000
20
-0.337824
30
0.0
11
4.612500
21
-0.333128
31
0.0
0
LINE
8
FRONT
10
4.612500
20
-0.333128
30
0.0
11
4.725000
21
-0.328433
31
0.0
0
LINE
8
FRONT
10
4.725000
20
-0.328433
30
0.0
11
4.837500
21
-0.323737
31
0.0
0
LINE
8
FRONT
10
4.837500
20
-0.323737
30
0.0
11
4.950000
21
-0.319041
31
0.0
0
LINE
8
FRONT
10
4.950000
20
-0.319041
30
0.0
11
5.062500
21
-0.314346
31
0.0
0
LINE
8
FRONT
10
5.062500
20
-0.314346
30
0.0
11
5.175000
21
-0.309650
31
0.0
0
LINE
8
FRONT
10
5.175000
20
-0.309650
30
0.0
11
5.287500
21
-0.304955
31
0.0
0
LINE
8
FRONT
10
5.287500
20
-0.304955
30
0.0
11
5.400000
21
-0.300259
31
0.0
0
LINE
8
FRONT
10
5.400000
20
-0.300259
30
0.0
11
5.512500
21
-0.295563
31
0.0
0
LINE
8
FRONT
10
5.512500
20
-0.295563
30
0.0
11
5.625000
21
-0.290868
31
0.0
0
LINE
8
FRONT
10
5.625000
20
-0.290868
30
0.0
11
5.737500
21
-0.286172
31
0.0
0
LINE
8
FRONT
10
5.737500
20
-0.286172
30
0.0
11
5.850000
21
-0.281477
31
0.0
0
LINE
8
FRONT
10
5.850000
20
-0.281477
30
0.0
11
5.962500
21
-0.276781
31
0.0
0
LINE
8
FRONT
10
5.962500
20
-0.276781
30
0.0
11
6.075000
21
-0.272085
31
0.0
0
LINE
8
FRONT
10
6.075000
20
-0.272085
30
0.0
11
6.187500
21
-0.267390
31
0.0
0
LINE
8
FRONT
10
6.187500
20
-0.267390
30
0.0
11
6.300000
21
-0.262694
31
0.0
0
LINE
8
FRONT
10
6.300000
20
-0.262694
30
0.0
11
6.412500
21
-0.257999
31
0.0
0
LINE
8
FRONT
10
6.412500
20
-0.257999
30
0.0
11
6.525000
21
-0.253303
31
0.0
0
LINE
8
FRONT
10
6.525000
20
-0.253303
30
0.0
11
6.637500
21
-0.248607
31
0.0
0
LINE
8
FRONT
10
6.637500
20
-0.248607
30
0.0
11
6.750000
21
-0.243912
31
0.0
0
LINE
8
FRONT
10
6.750000
20
-0.243912
30
0.0
11
6.862500
21
-0.239216
31
0.0
0
LINE
8
FRONT
10
6.862500
20
-0.239216
30
0.0
11
6.975000
21
-0.234521
31
0.0
0
LINE
8
FRONT
10
6.975000
20
-0.234521
30
0.0
11
7.087500
21
-0.229825
31
0.0
0
LINE
8
FRONT
10
7.087500
20
-0.229825
30
0.0
11
7.200000
21
-0.225129
31
0.0
0
LINE
8
FRONT
10
7.200000
20
-0.225129
30
0.0
11
7.312500
21
-0.220434
31
0.0
0
LINE
8
FRONT
10
7.312500
20
-0.220434
30
0.0
11
7.425000
21
-0.215738
31
0.0
0
LINE
8
FRONT
10
7.425000
20
-0.215738
30
0.0
11
7.537500
21
-0.211043
31
0.0
0
LINE
8
FRONT
10
7.537500
20
-0.211043
30
0.0
11
7.650000
21
-0.206347
31
0.0
0
LINE
8
FRONT
10
7.650000
20
-0.206347
30
0.0
11
7.762500
21
-0.201652
31
0.0
0
LINE
8
FRONT
10
7.762500
20
-0.201652
30
0.0
11
7.875000
21
-0.196956
31
0.0
0
LINE
8
FRONT
10
7.875000
20
-0.196956
30
0.0
11
7.987500
21
-0.192260
31
0.0
0
LINE
8
FRONT
10
7.987500
20
-0.192260
30
0.0
11
8.100000
21
-0.187565
31
0.0
0
LINE
8
FRONT
10
8.100000
20
-0.187565
30
0.0
11
8.212500
21
-0.182869
31
0.0
0
LINE
8
FRONT
10
8.212500
20
-0.182869
30
0.0
11
8.325000
21
-0.178174
31
0.0
0
LINE
8
FRONT
10
8.325000
20
-0.178174
30
0.0
11
8.437500
21
-0.173478
31
0.0
0
LINE
8
FRONT
10
8.437500
20
-0.173478
30
0.0
11
8.500000
21
-0.170869
31
0.0
0
LINE
8
FRONT
10
8.500000
20
-0.170869
30
0.0
11
8.550000
21
-0.168782
31
0.0
0
LINE
8
FRONT
10
8.550000
20
-0.168782
30
0.0
11
8.662500
21
-0.164087
31
0.0
0
LINE
8
FRONT
10
8.662500
20
-0.164087
30
0.0
11
8.775000
21
-0.159391
31
0.0
0
LINE
8
FRONT
10
8.775000
20
-0.159391
30
0.0
11
8.887500
21
-0.154696
31
0.0
0
LINE
8
FRONT
10
8.887500
20
-0.154696
30
0.0
11
9.000000
21
-0.150000
31
0.0
0
LINE
8
FRONT
10
0.000000
20
0.150000
30
0.0
11
0.000000
21
-0.150000
31
0.0
0
LINE
8
FRONT
10
9.000000
20
0.150000
30
0.0
11
9.000000
21
-0.150000
31
0.0
0
LINE
8
TOP
10
0.000000
20
1.873471
30
0.0
11
0.112500
21
1.878055
31
0.0
0
LINE
8
TOP
10
0.112500
20
1.878055
30
0.0
11
0.225000
21
1.882640
31
0.0
0
LINE
8
TOP
10
0.225000
20
1.882640
30
0.0
11
0.337500
21
1.887224
31
0.0
0
LINE
8
TOP
10
0.337500
20
1.887224
30
0.0
11
0.450000
21
1.891808
31
0.0
0
LINE
8
TOP
10
0.450000
20
1.891808
30
0.0
11
0.500000
21
1.893846
31
0.0
0
LINE
8
TOP
10
0.500000
20
1.893846
30
0.0
11
0.562500
21
1.896393
31
0.0
0
LINE
8
TOP
10
0.562500
20
1.896393
30
0.0
11
0.675000
21
1.900977
31
0.0
0
LINE
8
TOP
10
0.675000
20
1.900977
30
0.0
11
0.787500
21
1.905561
31
0.0
0
LINE
8
TOP
10
0.787500
20
1.905561
30
0.0
11
0.900000
21
1.910145
31
0.0
0
LINE
8
TOP
10
0.900000
20
1.910145
30
0.0
11
1.012500
21
1.914730
31
0.0
0
LINE
8
TOP
10
1.012500
20
1.914730
30
0.0
11
1.125000
21
1.919314
31
0.0
0
LINE
8
TOP
10
1.125000
20
1.919314
30
0.0
11
1.237500
21
1.923898
31
0.0
0
LINE
8
TOP
10
1.237500
20
1.923898
30
0.0
11
1.350000
21
1.928483
31
0.0
0
LINE
8
TOP
10
1.350000
20
1.928483
30
0.0
11
1.462500
21
1.933067
31
0.0
0
LINE
8
TOP
10
1.462500
20
1.933067
30
0.0
11
1.575000
21
1.937651
31
0.0
0
LINE
8
TOP
10
1.575000
20
1.937651
30
0.0
11
1.687500
21
1.942236
31
0.0
0
LINE
8
TOP
10
1.687500
20
1.942236
30
0.0
11
1.800000
21
1.946820
31
0.0
0
LINE
8
TOP
10
1.800000
20
1.946820
30
0.0
11
1.912500
21
1.951404
31
0.0
0
LINE
8
TOP
10
1.912500
20
1.951404
30
0.0
11
2.025000
21
1.955988
31
0.0
0
LINE
8
TOP
10
2.025000
20
1.955988
30
0.0
11
2.137500
21
1.960573
31
0.0
0
LINE
8
TOP
10
2.137500
20
1.960573
30
0.0
11
2.250000
21
1.965157
31
0.0
0
LINE
8
TOP
10
2.250000
20
1.965157
30
0.0
11
2.362500
21
1.969741
31
0.0
0
LINE
8
TOP
10
2.362500
20
1.969741
30
0.0
11
2.475000
21
1.974326
31
0.0
0
LINE
8
TOP
10
2.475000
20
1.974326
30
0.0
11
2.587500
21
1.978910
31
0.0
0
LINE
8
TOP
10
2.587500
20
1.978910
30
0.0
11
2.700000
21
1.983494
31
0.0
0
LINE
8
TOP
10
2.700000
20
1.983494
30
0.0
11
2.812500
21
1.988078
31
0.0
0
LINE
8
TOP
10
2.812500
20
1.988078
30
0.0
11
2.925000
21
1.992663
31
0.0
0
LINE
8
TOP
10
2.925000
20
1.992663
30
0.0
11
3.037500
21
1.997247
31
0.0
0
LINE
8
TOP
10
3.037500
20
1.997247
30
0.0
11
3.150000
21
2.001831
31
0.0
0
LINE
8
TOP
10
3.150000
20
2.001831
30
0.0
11
3.262500
21
2.006416
31
0.0
0
LINE
8
TOP
10
3.262500
20
2.006416
30
0.0
11
3.375000
21
2.011000
31
0.0
0
LINE
8
TOP
10
3.375000
20
2.011000
30
0.0
11
3.487500
21
2.015584
31
0.0
0
LINE
8
TOP
10
3.487500
20
2.015584
30
0.0
11
3.600000
21
2.020168
31
0.0
0
LINE
8
TOP
10
3.600000
20
2.020168
30
0.0
11
3.712500
21
2.024753
31
0.0
0
LINE
8
TOP
10
3.712500
20
2.024753
30
0.0
11
3.825000
21
2.029337
31
0.0
0
LINE
8
TOP
10
3.825000
20
2.029337
30
0.0
11
3.937500
21
2.033921
31
0.0
0
LINE
8
TOP
10
3.937500
20
2.033921
30
0.0
11
4.050000
21
2.038506
31
0.0
0
LINE
8
TOP
10
4.050000
20
2.038506
30
0.0
11
4.162500
21
2.043090
31
0.0
0
LINE
8
TOP
10
4.162500
20
2.043090
30
0.0
11
4.275000
21
2.047674
31
0.0
0
LINE
8
TOP
10
4.275000
20
2.047674
30
0.0
11
4.387500
21
2.052258
31
0.0
0
LINE
8
TOP
10
4.387500
20
2.052258
30
0.0
11
4.500000
21
2.056843
31
0.0
0
LINE
8
TOP
10
4.500000
20
2.056843
30
0.0
11
4.612500
21
2.052258
31
0.0
0
LINE
8
TOP
10
4.612500
20
2.052258
30
0.0
11
4.725000
21
2.047674
31
0.0
0
LINE
8
TOP
10
4.725000
20
2.047674
30
0.0
11
4.837500
21
2.043090
31
0.0
0
LINE
8
TOP
10
4.837500
20
2.043090
30
0.0
11
4.950000
21
2.038506
31
0.0
0
LINE
8
TOP
10
4.950000
20
2.038506
30
0.0
11
5.062500
21
2.033921
31
0.0
0
LINE
8
TOP
10
5.062500
20
2.033921
30
0.0
11
5.175000
21
2.029337
31
0.0
0
LINE
8
TOP
10
5.175000
20
2.029337
30
0.0
11
5.287500
21
2.024753
31
0.0
0
LINE
8
TOP
10
5.287500
20
2.024753
30
0.0
11
5.400000
21
2.020168
31
0.0
0
LINE
8
TOP
10
5.400000
20
2.020168
30
0.0
11
5.512500
21
2.015584
31
0.0
0
LINE
8
TOP
10
5.512500
20
2.015584
30
0.0
11
5.625000
21
2.011000
31
0.0
0
LINE
8
TOP
10
5.625000
20
2.011000
30
0.0
11
5.737500
21
2.006416
31
0.0
0
LINE
8
TOP
10
5.737500
20
2.006416
30
0.0
11
5.850000
21
2.001831
31
0.0
0
LINE
8
TOP
10
5.850000
20
2.001831
30
0.0
11
5.962500
21
1.997247
31
0.0
0
LINE
8
TOP
10
5.962500
20
1.997247
30
0.0
11
6.075000
21
1.992663
31
0.0
0
LINE
8
TOP
10
6.075000
20
1.992663
30
0.0
11
6.187500
21
1.988078
31
0.0
0
LINE
8
TOP
10
6.187500
20
1.988078
30
0.0
11
6.300000
21
1.983494
31
0.0
0
LINE
8
TOP
10
6.300000
20
1.983494
30
0.0
11
6.412500
21
1.978910
31
0.0
0
LINE
8
TOP
10
6.412500
20
1.978910
30
0.0
11
6.525000
21
1.974326
31
0.0
0
LINE
8
TOP
10
6.525000
20
1.974326
30
0.0
11
6.637500
21
1.969741
31
0.0
0
LINE
8
TOP
10
6.637500
20
1.969741
30
0.0
11
6.750000
21
1.965157
31
0.0
0
LINE
8
TOP
10
6.750000
20
1.965157
30
0.0
11
6.862500
21
1.960573
31
0.0
0
LINE
8
TOP
10
6.862500
20
1.960573
30
0.0
11
6.975000
21
1.955988
31
0.0
0
LINE
8
TOP
10
6.975000
20
1.955988
30
0.0
11
7.087500
21
1.951404
31
0.0
0
LINE
8
TOP
10
7.087500
20
1.951404
30
0.0
11
7.200000
21
1.946820
31
0.0
0
LINE
8
TOP
10
7.200000
20
1.946820
30
0.0
11
7.312500
21
1.942236
31
0.0
0
LINE
8
TOP
10
7.312500
20
1.942236
30
0.0
11
7.425000
21
1.937651
31
0.0
0
LINE
8
TOP
10
7.425000
20
1.937651
30
0.0
11
7.537500
21
1.933067
31
0.0
0
LINE
8
TOP
10
7.537500
20
1.933067
30
0.0
11
7.650000
21
1.928483
31
0.0
0
LINE
8
TOP
10
7.650000
20
1.928483
30
0.0
11
7.762500
21
1.923898
31
0.0
0
LINE
8
TOP
10
7.762500
20
1.923898
30
0.0
11
7.875000
21
1.919314
31
0.0
0
LINE
8
TOP
10
7.875000
20
1.919314
30
0.0
11
7.987500
21
1.914730
31
0.0
0
LINE
8
TOP
10
7.987500
20
1.914730
30
0.0
11
8.100000
21
1.910145
31
0.0
0
LINE
8
TOP
10
8.100000
20
1.910145
30
0.0
11
8.212500
21
1.905561
31
0.0
0
LINE
8
TOP
10
8.212500
20
1.905561
30
0.0
11
8.325000
21
1.900977
31
0.0
0
LINE
8
TOP
10
8.325000
20
1.900977
30
0.0
11
8.437500
21
1.896393
31
0.0
0
LINE
8
TOP
10
8.437500
20
1.896393
30
0.0
11
8.500000
21
1.893846
31
0.0
0
LINE
8
TOP
10
8.500000
20
1.893846
30
0.0
11
8.550000
21
1.891808
31
0.0
0
LINE
8
TOP
10
8.550000
20
1.891808
30
0.0
11
8.662500
21
1.887224
31
0.0
0
LINE
8
TOP
10
8.662500
20
1.887224
30
0.0
11
8.775000
21
1.882640
31
0.0
0
LINE
8
TOP
10
8.775000
20
1.882640
30
0.0
11
8.887500
21
1.878055
31
0.0
0
LINE
8
TOP
10
8.887500
20
1.878055
30
0.0
11
9.000000
21
1.873471
31
0.0
0
LINE
8
TOP
10
0.000000
20
1.653471
30
0.0
11
0.112500
21
1.648887
31
0.0
0
LINE
8
TOP
10
0.112500
20
1.648887
30
0.0
11
0.225000
21
1.644303
31
0.0
0
LINE
8
TOP
10
0.225000
20
1.644303
30
0.0
11
0.337500
21
1.639718
31
0.0
0
LINE
8
TOP
10
0.337500
20
1.639718
30
0.0
11
0.450000
21
1.635134
31
0.0
0
LINE
8
TOP
10
0.450000
20
1.635134
30
0.0
11
0.500000
21
1.633097
31
0.0
0
LINE
8
TOP
10
0.500000
20
1.633097
30
0.0
11
0.562500
21
1.630550
31
0.0
0
LINE
8
TOP
10
0.562500
20
1.630550
30
0.0
11
0.675000
21
1.625965
31
0.0
0
LINE
8
TOP
10
0.675000
20
1.625965
30
0.0
11
0.787500
21
1.621381
31
0.0
0
LINE
8
TOP
10
0.787500
20
1.621381
30
0.0
11
0.900000
21
1.616797
31
0.0
0
LINE
8
TOP
10
0.900000
20
1.616797
30
0.0
11
1.012500
21
1.612213
31
0.0
0
LINE
8
TOP
10
1.012500
20
1.612213
30
0.0
11
1.125000
21
1.607628
31
0.0
0
LINE
8
TOP
10
1.125000
20
1.607628
30
0.0
11
1.237500
21
1.603044
31
0.0
0
LINE
8
TOP
10
1.237500
20
1.603044
30
0.0
11
1.350000
21
1.598460
31
0.0
0
LINE
8
TOP
10
1.350000
20
1.598460
30
0.0
11
1.462500
21
1.593875
31
0.0
0
LINE
8
TOP
10
1.462500
20
1.593875
30
0.0
11
1.575000
21
1.589291
31
0.0
0
LINE
8
TOP
10
1.575000
20
1.589291
30
0.0
11
1.687500
21
1.584707
31
0.0
0
LINE
8
TOP
10
1.687500
20
1.584707
30
0.0
11
1.800000
21
1.580123
31
0.0
0
LINE
8
TOP
10
1.800000
20
1.580123
30
0.0
11
1.912500
21
1.575538
31
0.0
0
LINE
8
TOP
10
1.912500
20
1.575538
30
0.0
11
2.025000
21
1.570954
31
0.0
0
LINE
8
TOP
10
2.025000
20
1.570954
30
0.0
11
2.137500
21
1.566370
31
0.0
0
LINE
8
TOP
10
2.137500
20
1.566370
30
0.0
11
2.250000
21
1.561785
31
0.0
0
LINE
8
TOP
10
2.250000
20
1.561785
30
0.0
11
2.362500
21
1.557201
31
0.0
0
LINE
8
TOP
10
2.362500
20
1.557201
30
0.0
11
2.475000
21
1.552617
31
0.0
0
LINE
8
TOP
10
2.475000
20
1.552617
30
0.0
11
2.587500
21
1.548032
31
0.0
0
LINE
8
TOP
10
2.587500
20
1.548032
30
0.0
11
2.700000
21
1.543448
31
0.0
0
LINE
8
TOP
10
2.700000
20
1.543448
30
0.0
11
2.812500
21
1.538864
31
0.0
0
LINE
8
TOP
10
2.812500
20
1.538864
30
0.0
11
2.925000
21
1.534280
31
0.0
0
LINE
8
TOP
10
2.925000
20
1.534280
30
0.0
11
3.037500
21
1.529695
31
0.0
0
LINE
8
TOP
10
3.037500
20
1.529695
30
0.0
11
3.150000
21
1.525111
31
0.0
0
LINE
8
TOP
10
3.150000
20
1.525111
30
0.0
11
3.262500
21
1.520527
31
0.0
0
LINE
8
TOP
10
3.262500
20
1.520527
30
0.0
11
3.375000
21
1.515942
31
0.0
0
LINE
8
TOP
10
3.375000
20
1.515942
30
0.0
11
3.487500
21
1.511358
31
0.0
0
LINE
8
TOP
10
3.487500
20
1.511358
30
0.0
11
3.600000
21
1.506774
31
0.0
0
LINE
8
TOP
10
3.600000
20
1.506774
30
0.0
11
3.712500
21
1.502190
31
0.0
0
LINE
8
TOP
10
3.712500
20
1.502190
30
0.0
11
3.825000
21
1.497605
31
0.0
0
LINE
8
TOP
10
3.825000
20
1.497605
30
0.0
11
3.937500
21
1.493021
31
0.0
0
LINE
8
TOP
10
3.937500
20
1.493021
30
0.0
11
4.050000
21
1.488437
31
0.0
0
LINE
8
TOP
10
4.050000
20
1.488437
30
0.0
11
4.162500
21
1.483852
31
0.0
0
LINE
8
TOP
10
4.162500
20
1.483852
30
0.0
11
4.275000
21
1.479268
31
0.0
0
LINE
8
TOP
10
4.275000
20
1.479268
30
0.0
11
4.387500
21
1.474684
31
0.0
0
LINE
8
TOP
10
4.387500
20
1.474684
30
0.0
11
4.500000
21
1.470100
31
0.0
0
LINE
8
TOP
10
4.500000
20
1.470100
30
0.0
11
4.612500
21
1.474684
31
0.0
0
LINE
8
TOP
10
4.612500
20
1.474684
30
0.0
11
4.725000
21
1.479268
31
0.0
0
LINE
8
TOP
10
4.725000
20
1.479268
30
0.0
11
4.837500
21
1.483852
31
0.0
0
LINE
8
TOP
10
4.837500
20
1.483852
30
0.0
11
4.950000
21
1.488437
31
0.0
0
LINE
8
TOP
10
4.950000
20
1.488437
30
0.0
11
5.062500
21
1.493021
31
0.0
0
LINE
8
TOP
10
5.062500
20
1.493021
30
0.0
11
5.175000
21
1.497605
31
0.0
0
LINE
8
TOP
10
5.175000
20
1.497605
30
0.0
11
5.287500
21
1.502190
31
0.0
0
LINE
8
TOP
10
5.287500
20
1.502190
30
0.0
11
5.400000
21
1.506774
31
0.0
0
LINE
8
TOP
10
5.400000
20
1.506774
30
0.0
11
5.512500
21
1.511358
31
0.0
0
LINE
8
TOP
10
5.512500
20
1.511358
30
0.0
11
5.625000
21
1.515942
31
0.0
0
LINE
8
TOP
10
5.625000
20
1.515942
30
0.0
11
5.737500
21
1.520527
31
0.0
0
LINE
8
TOP
10
5.737500
20
1.520527
30
0.0
11
5.850000
21
1.525111
31
0.0
0
LINE
8
TOP
10
5.850000
20
1.525111
30
0.0
11
5.962500
21
1.529695
31
0.0
0
LINE
8
TOP
10
5.962500
20
1.529695
30
0.0
11
6.075000
21
1.534280
31
0.0
0
LINE
8
TOP
10
6.075000
20
1.534280
30
0.0
11
6.187500
21
1.538864
31
0.0
0
LINE
8
TOP
10
6.187500
20
1.538864
30
0.0
11
6.300000
21
1.543448
31
0.0
0
LINE
8
TOP
10
6.300000
20
1.543448
30
0.0
11
6.412500
21
1.548032
31
0.0
0
LINE
8
TOP
10
6.412500
20
1.548032
30
0.0
11
6.525000
21
1.552617
31
0.0
0
LINE
8
TOP
10
6.525000
20
1.552617
30
0.0
11
6.637500
21
1.557201
31
0.0
0
LINE
8
TOP
10
6.637500
20
1.557201
30
0.0
11
6.750000
21
1.561785
31
0.0
0
LINE
8
TOP
10
6.750000
20
1.561785
30
0.0
11
6.862500
21
1.566370
31
0.0
0
LINE
8
TOP
10
6.862500
20
1.566370
30
0.0
11
6.975000
21
1.570954
31
0.0
0
LINE
8
TOP
10
6.975000
20
1.570954
30
0.0
11
7.087500
21
1.575538
31
0.0
0
LINE
8
TOP
10
7.087500
20
1.575538
30
0.0
11
7.200000
21
1.580123
31
0.0
0
LINE
8
TOP
10
7.200000
20
1.580123
30
0.0
11
7.312500
21
1.584707
31
0.0
0
LINE
8
TOP
10
7.312500
20
1.584707
30
0.0
11
7.425000
21
1.589291
31
0.0
0
LINE
8
TOP
10
7.425000
20
1.589291
30
0.0
11
7.537500
21
1.593875
31
0.0
0
LINE
8
TOP
10
7.537500
20
1.593875
30
0.0
11
7.650000
21
1.598460
31
0.0
0
LINE
8
TOP
10
7.650000
20
1.598460
30
0.0
11
7.762500
21
1.603044
31
0.0
0
LINE
8
TOP
10
7.762500
20
1.603044
30
0.0
11
7.875000
21
1.607628
31
0.0
0
LINE
8
TOP
10
7.875000
20
1.607628
30
0.0
11
7.987500
21
1.612213
31
0.0
0
LINE
8
TOP
10
7.987500
20
1.612213
30
0.0
11
8.100000
21
1.616797
31
0.0
0
LINE
8
TOP
10
8.100000
20
1.616797
30
0.0
11
8.212500
21
1.621381
31
0.0
0
LINE
8
TOP
10
8.212500
20
1.621381
30
0.0
11
8.325000
21
1.625965
31
0.0
0
LINE
8
TOP
10
8.325000
20
1.625965
30
0.0
11
8.437500
21
1.630550
31
0.0
0
LINE
8
TOP
10
8.437500
20
1.630550
30
0.0
11
8.500000
21
1.633097
31
0.0
0
LINE
8
TOP
10
8.500000
20
1.633097
30
0.0
11
8.550000
21
1.635134
31
0.0
0
LINE
8
TOP
10
8.550000
20
1.635134
30
0.0
11
8.662500
21
1.639718
31
0.0
0
LINE
8
TOP
10
8.662500
20
1.639718
30
0.0
11
8.775000
21
1.644303
31
0.0
0
LINE
8
TOP
10
8.775000
20
1.644303
30
0.0
11
8.887500
21
1.648887
31
0.0
0
LINE
8
TOP
10
8.887500
20
1.648887
30
0.0
11
9.000000
21
1.653471
31
0.0
0
LINE
8
TOP
10
0.000000
20
1.873471
30
0.0
11
0.000000
21
1.653471
31
0.0
0
LINE
8
TOP
10
9.000000
20
1.873471
30
0.0
11
9.000000
21
1.653471
31
0.0
0
LINE
8
SECTION
10
10.206628
20
-0.337824
30
0.0
11
10.793372
21
-0.337824
31
0.0
0
LINE
8
SECTION
10
10.793372
20
-0.337824
30
0.0
11
10.793372
21
0.337824
31
0.0
0
LINE
8
SECTION
10
10.793372
20
0.337824
30
0.0
11
10.206628
21
0.337824
31
0.0
0
LINE
8
SECTION
10
10.206628
20
0.337824
30
0.0
11
10.206628
21
-0.337824
31
0.0
0
LINE
8
SECTION
10
10.249399
20
-0.295053
30
0.0
11
10.750601
21
-0.295053
31
0.0
0
LINE
8
SECTION
10
10.750601
20
-0.295053
30
0.0
11
10.750601
21
0.295053
31
0.0
0
LINE
8
SECTION
10
10.750601
20
0.295053
30
0.0
11
10.249399
21
0.295053
31
0.0
0
LINE
8
SECTION
10
10.249399
20
0.295053
30
0.0
11
10.249399
21
-0.295053
31
0.0
0
LINE
8
SECTION
10
10.249399
20
0.183128
30
0.0
11
10.292170
21
0.183128
31
0.0
0
LINE
8
SECTION
10
10.292170
20
0.183128
30
0.0
11
10.292170
21
0.295053
31
0.0
0
LINE
8
SECTION
10
10.292170
20
0.295053
30
0.0
11
10.249399
21
0.295053
31
0.0
0
LINE
8
SECTION
10
10.249399
20
0.295053
30
0.0
11
10.249399
21
0.183128
31
0.0
0
LINE
8
SECTION
10
10.249399
20
-0.295053
30
0.0
11
10.292170
21
-0.295053
31
0.0
0
LINE
8
SECTION
10
10.292170
20
-0.295053
30
0.0
11
10.292170
21
-0.183128
31
0.0
0
LINE
8
SECTION
10
10.292170
20
-0.183128
30
0.0
11
10.249399
21
-0.183128
31
0.0
0
LINE
8
SECTION
10
10.249399
20
-0.183128
30
0.0
11
10.249399
21
-0.295053
31
0.0
0
LINE
8
SECTION
10
10.707830
20
0.183128
30
0.0
11
10.750601
21
0.183128
31
0.0
0
LINE
8
SECTION
10
10.750601
20
0.183128
30
0.0
11
10.750601
21
0.295053
31
0.0
0
LINE
8
SECTION
10
10.750601
20
0.295053
30
0.0
11
10.707830
21
0.295053
31
0.0
0
LINE
8
SECTION
10
10.707830
20
0.295053
30
0.0
11
10.707830
21
0.183128
31
0.0
0
LINE
8
SECTION
10
10.707830
20
-0.295053
30
0.0
11
10.750601
21
-0.295053
31
0.0
0
LINE
8
SECTION
10
10.750601
20
-0.295053
30
0.0
11
10.750601
21
-0.183128
31
0.0
0
LINE
8
SECTION
10
10.750601
20
-0.183128
30
0.0
11
10.707830
21
-0.183128
31
0.0
0
LINE
8
SECTION
10
10.707830
20
-0.183128
30
0.0
11
10.707830
21
-0.295053
31
0.0
0
ENDSEC
0
EOF
