0
SECTION
2
HEADER
9
$INSUNITS
70
1
0
ENDSEC
0
SECTION
2
ENTITIES
0
LINE
8
FRONT
10
0.000000
20
0.395829
30
0.0
11
0.112500
21
0.394487
31
0.0
0
LINE
8
FRONT
10
0.112500
20
0.394487
30
0.0
11
0.225000
21
0.393144
31
0.0
0
LINE
8
FRONT
10
0.225000
20
0.393144
30
0.0
11
0.337500
21
0.391802
31
0.0
0
LINE
8
FRONT
10
0.337500
20
0.391802
30
0.0
11
0.450000
21
0.390460
31
0.0
0
LINE
8
FRONT
10
0.450000
20
0.390460
30
0.0
11
0.500000
21
0.389863
31
0.0
0
LINE
8
FRONT
10
0.500000
20
0.389863
30
0.0
11
0.562500
21
0.389118
31
0.0
0
LINE
8
FRONT
10
0.562500
20
0.389118
30
0.0
11
0.675000
21
0.387775
31
0.0
0
LINE
8
FRONT
10
0.675000
20
0.387775
30
0.0
11
0.787500
21
0.386433
31
0.0
0
LINE
8
FRONT
10
0.787500
20
0.386433
30
0.0
11
0.900000
21
0.385091
31
0.0
0
LINE
8
FRONT
10
0.900000
20
0.385091
30
0.0
11
1.012500
21
0.383748
31
0.0
0
LINE
8
FRONT
10
1.012500
20
0.383748
30
0.0
11
1.125000
21
0.382406
31
0.0
0
LINE
8
FRONT
10
1.125000
20
0.382406
30
0.0
11
1.237500
21
0.381064
31
0.0
0
LINE
8
FRONT
10
1.237500
20
0.381064
30
0.0
11
1.350000
21
0.379722
31
0.0
0
LINE
8
FRONT
10
1.350000
20
0.379722
30
0.0
11
1.462500
21
0.378379
31
0.0
0
LINE
8
FRONT
10
1.462500
20
0.378379
30
0.0
11
1.575000
21
0.377037
31
0.0
0
LINE
8
FRONT
10
1.575000
20
0.377037
30
0.0
11
1.687500
21
0.375695
31
0.0
0
LINE
8
FRONT
10
1.687500
20
0.375695
30
0.0
11
1.800000
21
0.374353
31
0.0
0
LINE
8
FRONT
10
1.800000
20
0.374353
30
0.0
11
1.912500
21
0.373010
31
0.0
0
LINE
8
FRONT
10
1.912500
20
0.373010
30
0.0
11
2.025000
21
0.371668
31
0.0
0
LINE
8
FRONT
10
2.025000
20
0.371668
30
0.0
11
2.137500
21
0.370326
31
0.0
0
LINE
8
FRONT
10
2.137500
20
0.370326
30
0.0
11
2.250000
21
0.368984
31
0.0
0
LINE
8
FRONT
10
2.250000
20
0.368984
30
0.0
11
2.362500
21
0.367641
31
0.0
0
LINE
8
FRONT
10
2.362500
20
0.367641
30
0.0
11
2.475000
21
0.366299
31
0.0
0
LINE
8
FRONT
10
2.475000
20
0.366299
30
0.0
11
2.587500
21
0.364957
31
0.0
0
LINE
8
FRONT
10
2.587500
20
0.364957
30
0.0
11
2.700000
21
0.363614
31
0.0
0
LINE
8
FRONT
10
2.700000
20
0.363614
30
0.0
11
2.812500
21
0.362272
31
0.0
0
LINE
8
FRONT
10
2.812500
20
0.362272
30
0.0
11
2.925000
21
0.360930
31
0.0
0
LINE
8
FRONT
10
2.925000
20
0.360930
30
0.0
11
3.037500
21
0.359588
31
0.0
0
LINE
8
FRONT
10
3.037500
20
0.359588
30
0.0
11
3.150000
21
0.358245
31
0.0
0
LINE
8
FRONT
10
3.150000
20
0.358245
30
0.0
11
3.262500
21
0.356903
31
0.0
0
LINE
8
FRONT
10
3.262500
20
0.356903
30
0.0
11
3.375000
21
0.355561
31
0.0
0
LINE
8
FRONT
10
3.375000
20
0.355561
30
0.0
11
3.487500
21
0.354219
31
0.0
0
LINE
8
FRONT
10
3.487500
20
0.354219
30
0.0
11
3.600000
21
0.352876
31
0.0
0
LINE
8
FRONT
10
3.600000
20
0.352876
30
0.0
11
3.712500
21
0.351534
31
0.0
0
LINE
8
FRONT
10
3.712500
20
0.351534
30
0.0
11
3.825000
21
0.350192
31
0.0
0
LINE
8
FRONT
10
3.825000
20
0.350192
30
0.0
11
3.937500
21
0.348849
31
0.0
0
LINE
8
FRONT
10
3.937500
20
0.348849
30
0.0
11
4.050000
21
0.347507
31
0.0
0
LINE
8
FRONT
10
4.050000
20
0.347507
30
0.0
11
4.162500
21
0.346165
31
0.0
0
LINE
8
FRONT
10
4.162500
20
0.346165
30
0.0
11
4.275000
21
0.344823
31
0.0
0
LINE
8
FRONT
10
4.275000
20
0.344823
30
0.0
11
4.387500
21
0.343480
31
0.0
0
LINE
8
FRONT
10
4.387500
20
0.343480
30
0.0
11
4.500000
21
0.342138
31
0.0
0
LINE
8
FRONT
10
4.500000
20
0.342138
30
0.0
11
4.612500
21
0.343480
31
0.0
0
LINE
8
FRONT
10
4.612500
20
0.343480
30
0.0
11
4.725000
21
0.344823
31
0.0
0
LINE
8
FRONT
10
4.725000
20
0.344823
30
0.0
11
4.837500
21
0.346165
31
0.0
0
LINE
8
FRONT
10
4.837500
20
0.346165
30
0.0
11
4.950000
21
0.347507
31
0.0
0
LINE
8
FRONT
10
4.950000
20
0.347507
30
0.0
11
5.062500
21
0.348849
31
0.0
0
LINE
8
FRONT
10
5.062500
20
0.348849
30
0.0
11
5.175000
21
0.350192
31
0.0
0
LINE
8
FRONT
10
5.175000
20
0.350192
30
0.0
11
5.287500
21
0.351534
31
0.0
0
LINE
8
FRONT
10
5.287500
20
0.351534
30
0.0
11
5.400000
21
0.352876
31
0.0
0
LINE
8
FRONT
10
5.400000
20
0.352876
30
0.0
11
5.512500
21
0.354219
31
0.0
0
LINE
8
FRONT
10
5.512500
20
0.354219
30
0.0
11
5.625000
21
0.355561
31
0.0
0
LINE
8
FRONT
10
5.625000
20
0.355561
30
0.0
11
5.737500
21
0.356903
31
0.0
0
LINE
8
FRONT
10
5.737500
20
0.356903
30
0.0
11
5.850000
21
0.358245
31
0.0
0
LINE
8
FRONT
10
5.850000
20
0.358245
30
0.0
11
5.962500
21
0.359588
31
0.0
0
LINE
8
FRONT
10
5.962500
20
0.359588
30
0.0
11
6.075000
21
0.360930
31
0.0
0
LINE
8
FRONT
10
6.075000
20
0.360930
30
0.0
11
6.187500
21
0.362272
31
0.0
0
LINE
8
FRONT
10
6.187500
20
0.362272
30
0.0
11
6.300000
21
0.363614
31
0.0
0
LINE
8
FRONT
10
6.300000
20
0.363614
30
0.0
11
6.412500
21
0.364957
31
0.0
0
LINE
8
FRONT
10
6.412500
20
0.364957
30
0.0
11
6.525000
21
0.366299
31
0.0
0
LINE
8
FRONT
10
6.525000
20
0.366299
30
0.0
11
6.637500
21
0.367641
31
0.0
0
LINE
8
FRONT
10
6.637500
20
0.367641
30
0.0
11
6.750000
21
0.368984
31
0.0
0
LINE
8
FRONT
10
6.750000
20
0.368984
30
0.0
11
6.862500
21
0.370326
31
0.0
0
LINE
8
FRONT
10
6.862500
20
0.370326
30
0.0
11
6.975000
21
0.371668
31
0.0
0
LINE
8
FRONT
10
6.975000
20
0.371668
30
0.0
11
7.087500
21
0.373010
31
0.0
0
LINE
8
FRONT
10
7.087500
20
0.373010
30
0.0
11
7.200000
21
0.374353
31
0.0
0
LINE
8
FRONT
10
7.200000
20
0.374353
30
0.0
11
7.312500
21
0.375695
31
0.0
0
LINE
8
FRONT
10
7.312500
20
0.375695
30
0.0
11
7.425000
21
0.377037
31
0.0
0
LINE
8
FRONT
10
7.425000
20
0.377037
30
0.0
11
7.537500
21
0.378379
31
0.0
0
LINE
8
FRONT
10
7.537500
20
0.378379
30
0.0
11
7.650000
21
0.379722
31
0.0
0
LINE
8
FRONT
10
7.650000
20
0.379722
30
0.0
11
7.762500
21
0.381064
31
0.0
0
LINE
8
FRONT
10
7.762500
20
0.381064
30
0.0
11
7.875000
21
0.382406
31
0.0
0
LINE
8
FRONT
10
7.875000
20
0.382406
30
0.0
11
7.987500
21
0.383748
31
0.0
0
LINE
8
FRONT
10
7.987500
20
0.383748
30
0.0
11
8.100000
21
0.385091
31
0.0
0
LINE
8
FRONT
10
8.100000
20
0.385091
30
0.0
11
8.212500
21
0.386433
31
0.0
0
LINE
8
FRONT
10
8.212500
20
0.386433
30
0.0
11
8.325000
21
0.387775
31
0.0
0
LINE
8
FRONT
10
8.325000
20
0.387775
30
0.0
11
8.437500
21
0.389118
31
0.0
0
LINE
8
FRONT
10
8.437500
20
0.389118
30
0.0
11
8.500000
21
0.389863
31
0.0
0
LINE
8
FRONT
10
8.500000
20
0.389863
30
0.0
11
8.550000
21
0.390460
31
0.0
0
LINE
8
FRONT
10
8.550000
20
0.390460
30
0.0
11
8.662500
21
0.391802
31
0.0
0
LINE
8
FRONT
10
8.662500
20
0.391802
30
0.0
11
8.775000
21
0.393144
31
0.0
0
LINE
8
FRONT
10
8.775000
20
0.393144
30
0.0
11
8.887500
21
0.394487
31
0.0
0
LINE
8
FRONT
10
8.887500
20
0.394487
30
0.0
11
9.000000
21
0.395829
31
0.0
0
LINE
8
FRONT
10
0.000000
20
-0.395829
30
0.0
11
0.112500
21
-0.394487
31
0.0
0
LINE
8
FRONT
10
0.112500
20
-0.394487
30
0.0
11
0.225000
21
-0.393144
31
0.0
0
LINE
8
FRONT
10
0.225000
20
-0.393144
30
0.0
11
0.337500
21
-0.391802
31
0.0
0
LINE
8
FRONT
10
0.337500
20
-0.391802
30
0.0
11
0.450000
21
-0.390460
31
0.0
0
LINE
8
FRONT
10
0.450000
20
-0.390460
30
0.0
11
0.500000
21
-0.389863
31
0.0
0
LINE
8
FRONT
10
0.500000
20
-0.389863
30
0.0
11
0.562500
21
-0.389118
31
0.0
0
LINE
8
FRONT
10
0.562500
20
-0.389118
30
0.0
11
0.675000
21
-0.387775
31
0.0
0
LINE
8
FRONT
10
0.675000
20
-0.387775
30
0.0
11
0.787500
21
-0.386433
31
0.0
0
LINE
8
FRONT
10
0.787500
20
-0.386433
30
0.0
11
0.900000
21
-0.385091
31
0.0
0
LINE
8
FRONT
10
0.900000
20
-0.385091
30
0.0
11
1.012500
21
-0.383748
31
0.0
0
LINE
8
FRONT
10
1.012500
20
-0.383748
30
0.0
11
1.125000
21
-0.382406
31
0.0
0
LINE
8
FRONT
10
1.125000
20
-0.382406
30
0.0
11
1.237500
21
-0.381064
31
0.0
0
LINE
8
FRONT
10
1.237500
20
-0.381064
30
0.0
11
1.350000
21
-0.379722
31
0.0
0
LINE
8
FRONT
10
1.350000
20
-0.379722
30
0.0
11
1.462500
21
-0.378379
31
0.0
0
LINE
8
FRONT
10
1.462500
20
-0.378379
30
0.0
11
1.575000
21
-0.377037
31
0.0
0
LINE
8
FRONT
10
1.575000
20
-0.377037
30
0.0
11
1.687500
21
-0.375695
31
0.0
0
LINE
8
FRONT
10
1.687500
20
-0.375695
30
0.0
11
1.800000
21
-0.374353
31
0.0
0
LINE
8
FRONT
10
1.800000
20
-0.374353
30
0.0
11
1.912500
21
-0.373010
31
0.0
0
LINE
8
FRONT
10
1.912500
20
-0.373010
30
0.0
11
2.025000
21
-0.371668
31
0.0
0
LINE
8
FRONT
10
2.025000
20
-0.371668
30
0.0
11
2.137500
21
-0.370326
31
0.0
0
LINE
8
FRONT
10
2.137500
20
-0.370326
30
0.0
11
2.250000
21
-0.368984
31
0.0
0
LINE
8
FRONT
10
2.250000
20
-0.368984
30
0.0
11
2.362500
21
-0.367641
31
0.0
0
LINE
8
FRONT
10
2.362500
20
-0.367641
30
0.0
11
2.475000
21
-0.366299
31
0.0
0
LINE
8
FRONT
10
2.475000
20
-0.366299
30
0.0
11
2.587500
21
-0.364957
31
0.0
0
LINE
8
FRONT
10
2.587500
20
-0.364957
30
0.0
11
2.700000
21
-0.363614
31
0.0
0
LINE
8
FRONT
10
2.700000
20
-0.363614
30
0.0
11
2.812500
21
-0.362272
31
0.0
0
LINE
8
FRONT
10
2.812500
20
-0.362272
30
0.0
11
2.925000
21
-0.360930
31
0.0
0
LINE
8
FRONT
10
2.925000
20
-0.360930
30
0.0
11
3.037500
21
-0.359588
31
0.0
0
LINE
8
FRONT
10
3.037500
20
-0.359588
30
0.0
11
3.150000
21
-0.358245
31
0.0
0
LINE
8
FRONT
10
3.150000
20
-0.358245
30
0.0
11
3.262500
21
-0.356903
31
0.0
0
LINE
8
FRONT
10
3.262500
20
-0.356903
30
0.0
11
3.375000
21
-0.355561
31
0.0
0
LINE
8
FRONT
10
3.375000
20
-0.355561
30
0.0
11
3.487500
21
-0.354219
31
0.0
0
LINE
8
FRONT
10
3.487500
20
-0.354219
30
0.0
11
3.600000
21
-0.352876
31
0.0
0
LINE
8
FRONT
10
3.600000
20
-0.352876
30
0.0
11
3.712500
21
-0.351534
31
0.0
0
LINE
8
FRONT
10
3.712500
20
-0.351534
30
0.0
11
3.825000
21
-0.350192
31
0.0
0
LINE
8
FRONT
10
3.825000
20
-0.350192
30
0.0
11
3.937500
21
-0.348849
31
0.0
0
LINE
8
FRONT
10
3.937500
20
-0.348849
30
0.0
11
4.050000
21
-0.347507
31
0.0
0
LINE
8
FRONT
10
4.050000
20
-0.347507
30
0.0
11
4.162500
21
-0.346165
31
0.0
0
LINE
8
FRONT
10
4.162500
20
-0.346165
30
0.0
11
4.275000
21
-0.344823
31
0.0
0
LINE
8
FRONT
10
4.275000
20
-0.344823
30
0.0
11
4.387500
21
-0.343480
31
0.0
0
LINE
8
FRONT
10
4.387500
20
-0.343480
30
0.0
11
4.500000
21
-0.342138
31
0.0
0
LINE
8
FRONT
10
4.500000
20
-0.342138
30
0.0
11
4.612500
21
-0.343480
31
0.0
0
LINE
8
FRONT
10
4.612500
20
-0.343480
30
0.0
11
4.725000
21
-0.344823
31
0.0
0
LINE
8
FRONT
10
4.725000
20
-0.344823
30
0.0
11
4.837500
21
-0.346165
31
0.0
0
LINE
8
FRONT
10
4.837500
20
-0.346165
30
0.0
11
4.950000
21
-0.347507
31
0.0
0
LINE
8
FRONT
10
4.950000
20
-0.347507
30
0.0
11
5.062500
21
-0.348849
31
0.0
0
LINE
8
FRONT
10
5.062500
20
-0.348849
30
0.0
11
5.175000
21
-0.350192
31
0.0
0
LINE
8
FRONT
10
5.175000
20
-0.350192
30
0.0
11
5.287500
21
-0.351534
31
0.0
0
LINE
8
FRONT
10
5.287500
20
-0.351534
30
0.0
11
5.400000
21
-0.352876
31
0.0
0
LINE
8
FRONT
10
5.400000
20
-0.352876
30
0.0
11
5.512500
21
-0.354219
31
0.0
0
LINE
8
FRONT
10
5.512500
20
-0.354219
30
0.0
11
5.625000
21
-0.355561
31
0.0
0
LINE
8
FRONT
10
5.625000
20
-0.355561
30
0.0
11
5.737500
21
-0.356903
31
0.0
0
LINE
8
FRONT
10
5.737500
20
-0.356903
30
0.0
11
5.850000
21
-0.358245
31
0.0
0
LINE
8
FRONT
10
5.850000
20
-0.358245
30
0.0
11
5.962500
21
-0.359588
31
0.0
0
LINE
8
FRONT
10
5.962500
20
-0.359588
30
0.0
11
6.075000
21
-0.360930
31
0.0
0
LINE
8
FRONT
10
6.075000
20
-0.360930
30
0.0
11
6.187500
21
-0.362272
31
0.0
0
LINE
8
FRONT
10
6.187500
20
-0.362272
30
0.0
11
6.300000
21
-0.363614
31
0.0
0
LINE
8
FRONT
10
6.300000
20
-0.363614
30
0.0
11
6.412500
21
-0.364957
31
0.0
0
LINE
8
FRONT
10
6.412500
20
-0.364957
30
0.0
11
6.525000
21
-0.366299
31
0.0
0
LINE
8
FRONT
10
6.525000
20
-0.366299
30
0.0
11
6.637500
21
-0.367641
31
0.0
0
LINE
8
FRONT
10
6.637500
20
-0.367641
30
0.0
11
6.750000
21
-0.368984
31
0.0
0
LINE
8
FRONT
10
6.750000
20
-0.368984
30
0.0
11
6.862500
21
-0.370326
31
0.0
0
LINE
8
FRONT
10
6.862500
20
-0.370326
30
0.0
11
6.975000
21
-0.371668
31
0.0
0
LINE
8
FRONT
10
6.975000
20
-0.371668
30
0.0
11
7.087500
21
-0.373010
31
0.0
0
LINE
8
FRONT
10
7.087500
20
-0.373010
30
0.0
11
7.200000
21
-0.374353
31
0.0
0
LINE
8
FRONT
10
7.200000
20
-0.374353
30
0.0
11
7.312500
21
-0.375695
31
0.0
0
LINE
8
FRONT
10
7.312500
20
-0.375695
30
0.0
11
7.425000
21
-0.377037
31
0.0
0
LINE
8
FRONT
10
7.425000
20
-0.377037
30
0.0
11
7.537500
21
-0.378379
31
0.0
0
LINE
8
FRONT
10
7.537500
20
-0.378379
30
0.0
11
7.650000
21
-0.379722
31
0.0
0
LINE
8
FRONT
10
7.650000
20
-0.379722
30
0.0
11
7.762500
21
-0.381064
31
0.0
0
LINE
8
FRONT
10
7.762500
20
-0.381064
30
0.0
11
7.875000
21
-0.382406
31
0.0
0
LINE
8
FRONT
10
7.875000
20
-0.382406
30
0.0
11
7.987500
21
-0.383748
31
0.0
0
LINE
8
FRONT
10
7.987500
20
-0.383748
30
0.0
11
8.100000
21
-0.385091
31
0.0
0
LINE
8
FRONT
10
8.100000
20
-0.385091
30
0.0
11
8.212500
21
-0.386433
31
0.0
0
LINE
8
FRONT
10
8.212500
20
-0.386433
30
0.0
11
8.325000
21
-0.387775
31
0.0
0
LINE
8
FRONT
10
8.325000
20
-0.387775
30
0.0
11
8.437500
21
-0.389118
31
0.0
0
LINE
8
FRONT
10
8.437500
20
-0.389118
30
0.0
11
8.500000
21
-0.389863
31
0.0
0
LINE
8
FRONT
10
8.500000
20
-0.389863
30
0.0
11
8.550000
21
-0.390460
31
0.0
0
LINE
8
FRONT
10
8.550000
20
-0.390460
30
0.0
11
8.662500
21
-0.391802
31
0.0
0
LINE
8
FRONT
10
8.662500
20
-0.391802
30
0.0
11
8.775000
21
-0.393144
31
0.0
0
LINE
8
FRONT
10
8.775000
20
-0.393144
30
0.0
11
8.887500
21
-0.394487
31
0.0
0
LINE
8
FRONT
10
8.887500
20
-0.394487
30
0.0
11
9.000000
21
-0.395829
31
0.0
0
LINE
8
FRONT
10
0.000000
20
0.395829
30
0.0
11
0.000000
21
-0.395829
31
0.0
0
LINE
8
FRONT
10
9.000000
20
0.395829
30
0.0
11
9.000000
21
-0.395829
31
0.0
0
LINE
8
TOP
10
0.000000
20
2.051481
30
0.0
11
0.112500
21
2.053195
31
0.0
0
LINE
8
TOP
10
0.112500
20
2.053195
30
0.0
11
0.225000
21
2.054910
31
0.0
0
LINE
8
TOP
10
0.225000
20
2.054910
30
0.0
11
0.337500
21
2.056625
31
0.0
0
LINE
8
TOP
10
0.337500
20
2.056625
30
0.0
11
0.450000
21
2.058340
31
0.0
0
LINE
8
TOP
10
0.450000
20
2.058340
30
0.0
11
0.500000
21
2.059102
31
0.0
0
LINE
8
TOP
10
0.500000
20
2.059102
30
0.0
11
0.562500
21
2.060055
31
0.0
0
LINE
8
TOP
10
0.562500
20
2.060055
30
0.0
11
0.675000
21
2.061769
31
0.0
0
LINE
8
TOP
10
0.675000
20
2.061769
30
0.0
11
0.787500
21
2.063484
31
0.0
0
LINE
8
TOP
10
0.787500
20
2.063484
30
0.0
11
0.900000
21
2.065199
31
0.0
0
LINE
8
TOP
10
0.900000
20
2.065199
30
0.0
11
1.012500
21
2.066914
31
0.0
0
LINE
8
TOP
10
1.012500
20
2.066914
30
0.0
11
1.125000
21
2.068629
31
0.0
0
LINE
8
TOP
10
1.125000
20
2.068629
30
0.0
11
1.237500
21
2.070343
31
0.0
0
LINE
8
TOP
10
1.237500
20
2.070343
30
0.0
11
1.350000
21
2.072058
31
0.0
0
LINE
8
TOP
10
1.350000
20
2.072058
30
0.0
11
1.462500
21
2.073773
31
0.0
0
LINE
8
TOP
10
1.462500
20
2.073773
30
0.0
11
1.575000
21
2.075488
31
0.0
0
LINE
8
TOP
10
1.575000
20
2.075488
30
0.0
11
1.687500
21
2.077202
31
0.0
0
LINE
8
TOP
10
1.687500
20
2.077202
30
0.0
11
1.800000
21
2.078917
31
0.0
0
LINE
8
TOP
10
1.800000
20
2.078917
30
0.0
11
1.912500
21
2.080632
31
0.0
0
LINE
8
TOP
10
1.912500
20
2.080632
30
0.0
11
2.025000
21
2.082347
31
0.0
0
LINE
8
TOP
10
2.025000
20
2.082347
30
0.0
11
2.137500
21
2.084062
31
0.0
0
LINE
8
TOP
10
2.137500
20
2.084062
30
0.0
11
2.250000
21
2.085776
31
0.0
0
LINE
8
TOP
10
2.250000
20
2.085776
30
0.0
11
2.362500
21
2.087491
31
0.0
0
LINE
8
TOP
10
2.362500
20
2.087491
30
0.0
11
2.475000
21
2.089206
31
0.0
0
LINE
8
TOP
10
2.475000
20
2.089206
30
0.0
11
2.587500
21
2.090921
31
0.0
0
LINE
8
TOP
10
2.587500
20
2.090921
30
0.0
11
2.700000
21
2.092636
31
0.0
0
LINE
8
TOP
10
2.700000
20
2.092636
30
0.0
11
2.812500
21
2.094350
31
0.0
0
LINE
8
TOP
10
2.812500
20
2.094350
30
0.0
11
2.925000
21
2.096065
31
0.0
0
LINE
8
TOP
10
2.925000
20
2.096065
30
0.0
11
3.037500
21
2.097780
31
0.0
0
LINE
8
TOP
10
3.037500
20
2.097780
30
0.0
11
3.150000
21
2.099495
31
0.0
0
LINE
8
TOP
10
3.150000
20
2.099495
30
0.0
11
3.262500
21
2.101210
31
0.0
0
LINE
8
TOP
10
3.262500
20
2.101210
30
0.0
11
3.375000
21
2.102924
31
0.0
0
LINE
8
TOP
10
3.375000
20
2.102924
30
0.0
11
3.487500
21
2.104639
31
0.0
0
LINE
8
TOP
10
3.487500
20
2.104639
30
0.0
11
3.600000
21
2.106354
31
0.0
0
LINE
8
TOP
10
3.600000
20
2.106354
30
0.0
11
3.712500
21
2.108069
31
0.0
0
LINE
8
TOP
10
3.712500
20
2.108069
30
0.0
11
3.825000
21
2.109784
31
0.0
0
LINE
8
TOP
10
3.825000
20
2.109784
30
0.0
11
3.937500
21
2.111498
31
0.0
0
LINE
8
TOP
10
3.937500
20
2.111498
30
0.0
11
4.050000
21
2.113213
31
0.0
0
LINE
8
TOP
10
4.050000
20
2.113213
30
0.0
11
4.162500
21
2.114928
31
0.0
0
LINE
8
TOP
10
4.162500
20
2.114928
30
0.0
11
4.275000
21
2.116643
31
0.0
0
LINE
8
TOP
10
4.275000
20
2.116643
30
0.0
11
4.387500
21
2.118358
31
0.0
0
LINE
8
TOP
10
4.387500
20
2.118358
30
0.0
11
4.500000
21
2.120072
31
0.0
0
LINE
8
TOP
10
4.500000
20
2.120072
30
0.0
11
4.612500
21
2.118358
31
0.0
0
LINE
8
TOP
10
4.612500
20
2.118358
30
0.0
11
4.725000
21
2.116643
31
0.0
0
LINE
8
TOP
10
4.725000
20
2.116643
30
0.0
11
4.837500
21
2.114928
31
0.0
0
LINE
8
TOP
10
4.837500
20
2.114928
30
0.0
11
4.950000
21
2.113213
31
0.0
0
LINE
8
TOP
10
4.950000
20
2.113213
30
0.0
11
5.062500
21
2.111498
31
0.0
0
LINE
8
TOP
10
5.062500
20
2.111498
30
0.0
11
5.175000
21
2.109784
31
0.0
0
LINE
8
TOP
10
5.175000
20
2.109784
30
0.0
11
5.287500
21
2.108069
31
0.0
0
LINE
8
TOP
10
5.287500
20
2.108069
30
0.0
11
5.400000
21
2.106354
31
0.0
0
LINE
8
TOP
10
5.400000
20
2.106354
30
0.0
11
5.512500
21
2.104639
31
0.0
0
LINE
8
TOP
10
5.512500
20
2.104639
30
0.0
11
5.625000
21
2.102924
31
0.0
0
LINE
8
TOP
10
5.625000
20
2.102924
30
0.0
11
5.737500
21
2.101210
31
0.0
0
LINE
8
TOP
10
5.737500
20
2.101210
30
0.0
11
5.850000
21
2.099495
31
0.0
0
LINE
8
TOP
10
5.850000
20
2.099495
30
0.0
11
5.962500
21
2.097780
31
0.0
0
LINE
8
TOP
10
5.962500
20
2.097780
30
0.0
11
6.075000
21
2.096065
31
0.0
0
LINE
8
TOP
10
6.075000
20
2.096065
30
0.0
11
6.187500
21
2.094350
31
0.0
0
LINE
8
TOP
10
6.187500
20
2.094350
30
0.0
11
6.300000
21
2.092636
31
0.0
0
LINE
8
TOP
10
6.300000
20
2.092636
30
0.0
11
6.412500
21
2.090921
31
0.0
0
LINE
8
TOP
10
6.412500
20
2.090921
30
0.0
11
6.525000
21
2.089206
31
0.0
0
LINE
8
TOP
10
6.525000
20
2.089206
30
0.0
11
6.637500
21
2.087491
31
0.0
0
LINE
8
TOP
10
6.637500
20
2.087491
30
0.0
11
6.750000
21
2.085776
31
0.0
0
LINE
8
TOP
10
6.750000
20
2.085776
30
0.0
11
6.862500
21
2.084062
31
0.0
0
LINE
8
TOP
10
6.862500
20
2.084062
30
0.0
11
6.975000
21
2.082347
31
0.0
0
LINE
8
TOP
10
6.975000
20
2.082347
30
0.0
11
7.087500
21
2.080632
31
0.0
0
LINE
8
TOP
10
7.087500
20
2.080632
30
0.0
11
7.200000
21
2.078917
31
0.0
0
LINE
8
TOP
10
7.200000
20
2.078917
30
0.0
11
7.312500
21
2.077202
31
0.0
0
LINE
8
TOP
10
7.312500
20
2.077202
30
0.0
11
7.425000
21
2.075488
31
0.0
0
LINE
8
TOP
10
7.425000
20
2.075488
30
0.0
11
7.537500
21
2.073773
31
0.0
0
LINE
8
TOP
10
7.537500
20
2.073773
30
0.0
11
7.650000
21
2.072058
31
0.0
0
LINE
8
TOP
10
7.650000
20
2.072058
30
0.0
11
7.762500
21
2.070343
31
0.0
0
LINE
8
TOP
10
7.762500
20
2.070343
30
0.0
11
7.875000
21
2.068629
31
0.0
0
LINE
8
TOP
10
7.875000
20
2.068629
30
0.0
11
7.987500
21
2.066914
31
0.0
0
LINE
8
TOP
10
7.987500
20
2.066914
30
0.0
11
8.100000
21
2.065199
31
0.0
0
LINE
8
TOP
10
8.100000
20
2.065199
30
0.0
11
8.212500
21
2.063484
31
0.0
0
LINE
8
TOP
10
8.212500
20
2.063484
30
0.0
11
8.325000
21
2.061769
31
0.0
0
LINE
8
TOP
10
8.325000
20
2.061769
30
0.0
11
8.437500
21
2.060055
31
0.0
0
LINE
8
TOP
10
8.437500
20
2.060055
30
0.0
11
8.500000
21
2.059102
31
0.0
0
LINE
8
TOP
10
8.500000
20
2.059102
30
0.0
11
8.550000
21
2.058340
31
0.0
0
LINE
8
TOP
10
8.550000
20
2.058340
30
0.0
11
8.662500
21
2.056625
31
0.0
0
LINE
8
TOP
10
8.662500
20
2.056625
30
0.0
11
8.775000
21
2.054910
31
0.0
0
LINE
8
TOP
10
8.775000
20
2.054910
30
0.0
11
8.887500
21
2.053195
31
0.0
0
LINE
8
TOP
10
8.887500
20
2.053195
30
0.0
11
9.000000
21
2.051481
31
0.0
0
LINE
8
TOP
10
0.000000
20
1.823493
30
0.0
11
0.112500
21
1.821778
31
0.0
0
LINE
8
TOP
10
0.112500
20
1.821778
30
0.0
11
0.225000
21
1.820063
31
0.0
0
LINE
8
TOP
10
0.225000
20
1.820063
30
0.0
11
0.337500
21
1.818349
31
0.0
0
LINE
8
TOP
10
0.337500
20
1.818349
30
0.0
11
0.450000
21
1.816634
31
0.0
0
LINE
8
TOP
10
0.450000
20
1.816634
30
0.0
11
0.500000
21
1.815872
31
0.0
0
LINE
8
TOP
10
0.500000
20
1.815872
30
0.0
11
0.562500
21
1.814919
31
0.0
0
LINE
8
TOP
10
0.562500
20
1.814919
30
0.0
11
0.675000
21
1.813204
31
0.0
0
LINE
8
TOP
10
0.675000
20
1.813204
30
0.0
11
0.787500
21
1.811489
31
0.0
0
LINE
8
TOP
10
0.787500
20
1.811489
30
0.0
11
0.900000
21
1.809775
31
0.0
0
LINE
8
TOP
10
0.900000
20
1.809775
30
0.0
11
1.012500
21
1.808060
31
0.0
0
LINE
8
TOP
10
1.012500
20
1.808060
30
0.0
11
1.125000
21
1.806345
31
0.0
0
LINE
8
TOP
10
1.125000
20
1.806345
30
0.0
11
1.237500
21
1.804630
31
0.0
0
LINE
8
TOP
10
1.237500
20
1.804630
30
0.0
11
1.350000
21
1.802915
31
0.0
0
LINE
8
TOP
10
1.350000
20
1.802915
30
0.0
11
1.462500
21
1.801201
31
0.0
0
LINE
8
TOP
10
1.462500
20
1.801201
30
0.0
11
1.575000
21
1.799486
31
0.0
0
LINE
8
TOP
10
1.575000
20
1.799486
30
0.0
11
1.687500
21
1.797771
31
0.0
0
LINE
8
TOP
10
1.687500
20
1.797771
30
0.0
11
1.800000
21
1.796056
31
0.0
0
LINE
8
TOP
10
1.800000
20
1.796056
30
0.0
11
1.912500
21
1.794341
31
0.0
0
LINE
8
TOP
10
1.912500
20
1.794341
30
0.0
11
2.025000
21
1.792627
31
0.0
0
LINE
8
TOP
10
2.025000
20
1.792627
30
0.0
11
2.137500
21
1.790912
31
0.0
0
LINE
8
TOP
10
2.137500
20
1.790912
30
0.0
11
2.250000
21
1.789197
31
0.0
0
LINE
8
TOP
10
2.250000
20
1.789197
30
0.0
11
2.362500
21
1.787482
31
0.0
0
LINE
8
TOP
10
2.362500
20
1.787482
30
0.0
11
2.475000
21
1.785767
31
0.0
0
LINE
8
TOP
10
2.475000
20
1.785767
30
0.0
11
2.587500
21
1.784053
31
0.0
0
LINE
8
TOP
10
2.587500
20
1.784053
30
0.0
11
2.700000
21
1.782338
31
0.0
0
LINE
8
TOP
10
2.700000
20
1.782338
30
0.0
11
2.812500
21
1.780623
31
0.0
0
LINE
8
TOP
10
2.812500
20
1.780623
30
0.0
11
2.925000
21
1.778908
31
0.0
0
LINE
8
TOP
10
2.925000
20
1.778908
30
0.0
11
3.037500
21
1.777193
31
0.0
0
LINE
8
TOP
10
3.037500
20
1.777193
30
0.0
11
3.150000
21
1.775479
31
0.0
0
LINE
8
TOP
10
3.150000
20
1.775479
30
0.0
11
3.262500
21
1.773764
31
0.0
0
LINE
8
TOP
10
3.262500
20
1.773764
30
0.0
11
3.375000
21
1.772049
31
0.0
0
LINE
8
TOP
10
3.375000
20
1.772049
30
0.0
11
3.487500
21
1.770334
31
0.0
0
LINE
8
TOP
10
3.487500
20
1.770334
30
0.0
11
3.600000
21
1.768619
31
0.0
0
LINE
8
TOP
10
3.600000
20
1.768619
30
0.0
11
3.712500
21
1.766905
31
0.0
0
LINE
8
TOP
10
3.712500
20
1.766905
30
0.0
11
3.825000
21
1.765190
31
0.0
0
LINE
8
TOP
10
3.825000
20
1.765190
30
0.0
11
3.937500
21
1.763475
31
0.0
0
LINE
8
TOP
10
3.937500
20
1.763475
30
0.0
11
4.050000
21
1.761760
31
0.0
0
LINE
8
TOP
10
4.050000
20
1.761760
30
0.0
11
4.162500
21
1.760045
31
0.0
0
LINE
8
TOP
10
4.162500
20
1.760045
30
0.0
11
4.275000
21
1.758331
31
0.0
0
LINE
8
TOP
10
4.275000
20
1.758331
30
0.0
11
4.387500
21
1.756616
31
0.0
0
LINE
8
TOP
10
4.387500
20
1.756616
30
0.0
11
4.500000
21
1.754901
31
0.0
0
LINE
8
TOP
10
4.500000
20
1.754901
30
0.0
11
4.612500
21
1.756616
31
0.0
0
LINE
8
TOP
10
4.612500
20
1.756616
30
0.0
11
4.725000
21
1.758331
31
0.0
0
LINE
8
TOP
10
4.725000
20
1.758331
30
0.0
11
4.837500
21
1.760045
31
0.0
0
LINE
8
TOP
10
4.837500
20
1.760045
30
0.0
11
4.950000
21
1.761760
31
0.0
0
LINE
8
TOP
10
4.950000
20
1.761760
30
0.0
11
5.062500
21
1.763475
31
0.0
0
LINE
8
TOP
10
5.062500
20
1.763475
30
0.0
11
5.175000
21
1.765190
31
0.0
0
LINE
8
TOP
10
5.175000
20
1.765190
30
0.0
11
5.287500
21
1.766905
31
0.0
0
LINE
8
TOP
10
5.287500
20
1.766905
30
0.0
11
5.400000
21
1.768619
31
0.0
0
LINE
8
TOP
10
5.400000
20
1.768619
30
0.0
11
5.512500
21
1.770334
31
0.0
0
LINE
8
TOP
10
5.512500
20
1.770334
30
0.0
11
5.625000
21
1.772049
31
0.0
0
LINE
8
TOP
10
5.625000
20
1.772049
30
0.0
11
5.737500
21
1.773764
31
0.0
0
LINE
8
TOP
10
5.737500
20
1.773764
30
0.0
11
5.850000
21
1.775479
31
0.0
0
LINE
8
TOP
10
5.850000
20
1.775479
30
0.0
11
5.962500
21
1.777193
31
0.0
0
LINE
8
TOP
10
5.962500
20
1.777193
30
0.0
11
6.075000
21
1.778908
31
0.0
0
LINE
8
TOP
10
6.075000
20
1.778908
30
0.0
11
6.187500
21
1.780623
31
0.0
0
LINE
8
TOP
10
6.187500
20
1.780623
30
0.0
11
6.300000
21
1.782338
31
0.0
0
LINE
8
TOP
10
6.300000
20
1.782338
30
0.0
11
6.412500
21
1.784053
31
0.0
0
LINE
8
TOP
10
6.412500
20
1.784053
30
0.0
11
6.525000
21
1.785767
31
0.0
0
LINE
8
TOP
10
6.525000
20
1.785767
30
0.0
11
6.637500
21
1.787482
31
0.0
0
LINE
8
TOP
10
6.637500
20
1.787482
30
0.0
11
6.750000
21
1.789197
31
0.0
0
LINE
8
TOP
10
6.750000
20
1.789197
30
0.0
11
6.862500
21
1.790912
31
0.0
0
LINE
8
TOP
10
6.862500
20
1.790912
30
0.0
11
6.975000
21
1.792627
31
0.0
0
LINE
8
TOP
10
6.975000
20
1.792627
30
0.0
11
7.087500
21
1.794341
31
0.0
0
LINE
8
TOP
10
7.087500
20
1.794341
30
0.0
11
7.200000
21
1.796056
31
0.0
0
LINE
8
TOP
10
7.200000
20
1.796056
30
0.0
11
7.312500
21
1.797771
31
0.0
0
LINE
8
TOP
10
7.312500
20
1.797771
30
0.0
11
7.425000
21
1.799486
31
0.0
0
LINE
8
TOP
10
7.425000
20
1.799486
30
0.0
11
7.537500
21
1.801201
31
0.0
0
LINE
8
TOP
10
7.537500
20
1.801201
30
0.0
11
7.650000
21
1.802915
31
0.0
0
LINE
8
TOP
10
7.650000
20
1.802915
30
0.0
11
7.762500
21
1.804630
31
0.0
0
LINE
8
TOP
10
7.762500
20
1.804630
30
0.0
11
7.875000
21
1.806345
31
0.0
0
LINE
8
TOP
10
7.875000
20
1.806345
30
0.0
11
7.987500
21
1.808060
31
0.0
0
LINE
8
TOP
10
7.987500
20
1.808060
30
0.0
11
8.100000
21
1.809775
31
0.0
0
LINE
8
TOP
10
8.100000
20
1.809775
30
0.0
11
8.212500
21
1.811489
31
0.0
0
LINE
8
TOP
10
8.212500
20
1.811489
30
0.0
11
8.325000
21
1.813204
31
0.0
0
LINE
8
TOP
10
8.325000
20
1.813204
30
0.0
11
8.437500
21
1.814919
31
0.0
0
LINE
8
TOP
10
8.437500
20
1.814919
30
0.0
11
8.500000
21
1.815872
31
0.0
0
LINE
8
TOP
10
8.500000
20
1.815872
30
0.0
11
8.550000
21
1.816634
31
0.0
0
LINE
8
TOP
10
8.550000
20
1.816634
30
0.0
11
8.662500
21
1.818349
31
0.0
0
LINE
8
TOP
10
8.662500
20
1.818349
30
0.0
11
8.775000
21
1.820063
31
0.0
0
LINE
8
TOP
10
8.775000
20
1.820063
30
0.0
11
8.887500
21
1.821778
31
0.0
0
LINE
8
TOP
10
8.887500
20
1.821778
30
0.0
11
9.000000
21
1.823493
31
0.0
0
LINE
8
TOP
10
0.000000
20
2.051481
30
0.0
11
0.000000
21
1.823493
31
0.0
0
LINE
8
TOP
10
9.000000
20
2.051481
30
0.0
11
9.000000
21
1.823493
31
0.0
0
LINE
8
SECTION
10
10.317414
20
-0.342138
30
0.0
11
10.682586
21
-0.342138
31
0.0
0
LINE
8
SECTION
10
10.682586
20
-0.342138
30
0.0
11
10.682586
21
0.342138
31
0.0
0
LINE
8
SECTION
10
10.682586
20
0.342138
30
0.0
11
10.317414
21
0.342138
31
0.0
0
LINE
8
SECTION
10
10.317414
20
0.342138
30
0.0
11
10.317414
21
-0.342138
31
0.0
0
LINE
8
SECTION
10
10.381202
20
-0.278350
30
0.0
11
10.618798
21
-0.278350
31
0.0
0
LINE
8
SECTION
10
10.618798
20
-0.278350
30
0.0
11
10.618798
21
0.278350
31
0.0
0
LINE
8
SECTION
10
10.618798
20
0.278350
30
0.0
11
10.381202
21
0.278350
31
0.0
0
LINE
8
SECTION
10
10.381202
20
0.278350
30
0.0
11
10.381202
21
-0.278350
31
0.0
0
LINE
8
SECTION
10
10.381202
20
0.000000
30
0.0
11
10.444990
21
0.000000
31
0.0
0
LINE
8
SECTION
10
10.444990
20
0.000000
30
0.0
11
10.444990
21
0.278350
31
0.0
0
LINE
8
SECTION
10
10.444990
20
0.278350
30
0.0
11
10.381202
21
0.278350
31
0.0
0
LINE
8
SECTION
10
10.381202
20
0.278350
30
0.0
11
10.381202
21
0.000000
31
0.0
0
LINE
8
SECTION
10
10.381202
20
-0.278350
30
0.0
11
10.444990
21
-0.278350
31
0.0
0
LINE
8
SECTION
10
10.444990
20
-0.278350
30
0.0
11
10.444990
21
0.000000
31
0.0
0
LINE
8
SECTION
10
10.444990
20
0.000000
30
0.0
11
10.381202
21
0.000000
31
0.0
0
LINE
8
SECTION
10
10.381202
20
0.000000
30
0.0
11
10.381202
21
-0.278350
31
0.0
0
LINE
8
SECTION
10
10.555010
20
0.000000
30
0.0
11
10.618798
21
0.000000
31
0.0
0
LINE
8
SECTION
10
10.618798
20
0.000000
30
0.0
11
10.618798
21
0.278350
31
0.0
0
LINE
8
SECTION
10
10.618798
20
0.278350
30
0.0
11
10.555010
21
0.278350
31
0.0
0
LINE
8
SECTION
10
10.555010
20
0.278350
30
0.0
11
10.555010
21
0.000000
31
0.0
0
LINE
8
SECTION
10
10.555010
20
-0.278350
30
0.0
11
10.618798
21
-0.278350
31
0.0
0
LINE
8
SECTION
10
10.618798
20
-0.278350
30
0.0
11
10.618798
21
0.000000
31
0.0
0
LINE
8
SECTION
10
10.618798
20
0.000000
30
0.0
11
10.555010
21
0.000000
31
0.0
0
LINE
8
SECTION
10
10.555010
20
0.000000
30
0.0
11
10.555010
21
-0.278350
31
0.0
0
ENDSEC
0
EOF
