0
SECTION
2
HEADER
9
$INSUNITS
70
1
0
ENDSEC
0
SECTION
2
ENTITIES
0
LINE
8
FRONT
10
0.000000
20
0.240000
30
0.0
11
0.112500
21
0.243572
31
0.0
0
LINE
8
FRONT
10
0.112500
20
0.243572
30
0.0
11
0.225000
21
0.247144
31
0.0
0
LINE
8
FRONT
10
0.225000
20
0.247144
30
0.0
11
0.337500
21
0.250716
31
0.0
0
LINE
8
FRONT
10
0.337500
20
0.250716
30
0.0
11
0.450000
21
0.254288
31
0.0
0
LINE
8
FRONT
10
0.450000
20
0.254288
30
0.0
11
0.500000
21
0.255875
31
0.0
0
LINE
8
FRONT
10
0.500000
20
0.255875
30
0.0
11
0.562500
21
0.257860
31
0.0
0
LINE
8
FRONT
10
0.562500
20
0.257860
30
0.0
11
0.675000
21
0.261432
31
0.0
0
LINE
8
FRONT
10
0.675000
20
0.261432
30
0.0
11
0.787500
21
0.265003
31
0.0
0
LINE
8
FRONT
10
0.787500
20
0.265003
30
0.0
11
0.900000
21
0.268575
31
0.0
0
LINE
8
FRONT
10
0.900000
20
0.268575
30
0.0
11
1.012500
21
0.272147
31
0.0
0
LINE
8
FRONT
10
1.012500
20
0.272147
30
0.0
11
1.125000
21
0.275719
31
0.0
0
LINE
8
FRONT
10
1.125000
20
0.275719
30
0.0
11
1.237500
21
0.279291
31
0.0
0
LINE
8
FRONT
10
1.237500
20
0.279291
30
0.0
11
1.350000
21
0.282863
31
0.0
0
LINE
8
FRONT
10
1.350000
20
0.282863
30
0.0
11
1.462500
21
0.286435
31
0.0
0
LINE
8
FRONT
10
1.462500
20
0.286435
30
0.0
11
1.575000
21
0.290007
31
0.0
0
LINE
8
FRONT
10
1.575000
20
0.290007
30
0.0
11
1.687500
21
0.293579
31
0.0
0
LINE
8
FRONT
10
1.687500
20
0.293579
30
0.0
11
1.800000
21
0.297151
31
0.0
0
LINE
8
FRONT
10
1.800000
20
0.297151
30
0.0
11
1.912500
21
0.300723
31
0.0
0
LINE
8
FRONT
10
1.912500
20
0.300723
30
0.0
11
2.025000
21
0.304295
31
0.0
0
LINE
8
FRONT
10
2.025000
20
0.304295
30
0.0
11
2.137500
21
0.307866
31
0.0
0
LINE
8
FRONT
10
2.137500
20
0.307866
30
0.0
11
2.250000
21
0.311438
31
0.0
0
LINE
8
FRONT
10
2.250000
20
0.311438
30
0.0
11
2.362500
21
0.315010
31
0.0
0
LINE
8
FRONT
10
2.362500
20
0.315010
30
0.0
11
2.475000
21
0.318582
31
0.0
0
LINE
8
FRONT
10
2.475000
20
0.318582
30
0.0
11
2.587500
21
0.322154
31
0.0
0
LINE
8
FRONT
10
2.587500
20
0.322154
30
0.0
11
2.700000
21
0.325726
31
0.0
0
LINE
8
FRONT
10
2.700000
20
0.325726
30
0.0
11
2.812500
21
0.329298
31
0.0
0
LINE
8
FRONT
10
2.812500
20
0.329298
30
0.0
11
2.925000
21
0.332870
31
0.0
0
LINE
8
FRONT
10
2.925000
20
0.332870
30
0.0
11
3.037500
21
0.336442
31
0.0
0
LINE
8
FRONT
10
3.037500
20
0.336442
30
0.0
11
3.150000
21
0.340014
31
0.0
0
LINE
8
FRONT
10
3.150000
20
0.340014
30
0.0
11
3.262500
21
0.343586
31
0.0
0
LINE
8
FRONT
10
3.262500
20
0.343586
30
0.0
11
3.375000
21
0.347158
31
0.0
0
LINE
8
FRONT
10
3.375000
20
0.347158
30
0.0
11
3.487500
21
0.350729
31
0.0
0
LINE
8
FRONT
10
3.487500
20
0.350729
30
0.0
11
3.600000
21
0.354301
31
0.0
0
LINE
8
FRONT
10
3.600000
20
0.354301
30
0.0
11
3.712500
21
0.357873
31
0.0
0
LINE
8
FRONT
10
3.712500
20
0.357873
30
0.0
11
3.825000
21
0.361445
31
0.0
0
LINE
8
FRONT
10
3.825000
20
0.361445
30
0.0
11
3.937500
21
0.365017
31
0.0
0
LINE
8
FRONT
10
3.937500
20
0.365017
30
0.0
11
4.050000
21
0.368589
31
0.0
0
LINE
8
FRONT
10
4.050000
20
0.368589
30
0.0
11
4.162500
21
0.372161
31
0.0
0
LINE
8
FRONT
10
4.162500
20
0.372161
30
0.0
11
4.275000
21
0.375733
31
0.0
0
LINE
8
FRONT
10
4.275000
20
0.375733
30
0.0
11
4.387500
21
0.379305
31
0.0
0
LINE
8
FRONT
10
4.387500
20
0.379305
30
0.0
11
4.500000
21
0.382877
31
0.0
0
LINE
8
FRONT
10
4.500000
20
0.382877
30
0.0
11
4.612500
21
0.384227
31
0.0
0
LINE
8
FRONT
10
4.612500
20
0.384227
30
0.0
11
4.725000
21
0.385578
31
0.0
0
LINE
8
FRONT
10
4.725000
20
0.385578
30
0.0
11
4.837500
21
0.386928
31
0.0
0
LINE
8
FRONT
10
4.837500
20
0.386928
30
0.0
11
4.950000
21
0.388279
31
0.0
0
LINE
8
FRONT
10
4.950000
20
0.388279
30
0.0
11
5.062500
21
0.389629
31
0.0
0
LINE
8
FRONT
10
5.062500
20
0.389629
30
0.0
11
5.175000
21
0.390980
31
0.0
0
LINE
8
FRONT
10
5.175000
20
0.390980
30
0.0
11
5.287500
21
0.392331
31
0.0
0
LINE
8
FRONT
10
5.287500
20
0.392331
30
0.0
11
5.400000
21
0.393681
31
0.0
0
LINE
8
FRONT
10
5.400000
20
0.393681
30
0.0
11
5.512500
21
0.395032
31
0.0
0
LINE
8
FRONT
10
5.512500
20
0.395032
30
0.0
11
5.625000
21
0.396382
31
0.0
0
LINE
8
FRONT
10
5.625000
20
0.396382
30
0.0
11
5.737500
21
0.397733
31
0.0
0
LINE
8
FRONT
10
5.737500
20
0.397733
30
0.0
11
5.850000
21
0.399083
31
0.0
0
LINE
8
FRONT
10
5.850000
20
0.399083
30
0.0
11
5.962500
21
0.400434
31
0.0
0
LINE
8
FRONT
10
5.962500
20
0.400434
30
0.0
11
6.075000
21
0.401784
31
0.0
0
LINE
8
FRONT
10
6.075000
20
0.401784
30
0.0
11
6.187500
21
0.403135
31
0.0
0
LINE
8
FRONT
10
6.187500
20
0.403135
30
0.0
11
6.300000
21
0.404486
31
0.0
0
LINE
8
FRONT
10
6.300000
20
0.404486
30
0.0
11
6.412500
21
0.405836
31
0.0
0
LINE
8
FRONT
10
6.412500
20
0.405836
30
0.0
11
6.525000
21
0.407187
31
0.0
0
LINE
8
FRONT
10
6.525000
20
0.407187
30
0.0
11
6.637500
21
0.408537
31
0.0
0
LINE
8
FRONT
10
6.637500
20
0.408537
30
0.0
11
6.750000
21
0.409888
31
0.0
0
LINE
8
FRONT
10
6.750000
20
0.409888
30
0.0
11
6.862500
21
0.411238
31
0.0
0
LINE
8
FRONT
10
6.862500
20
0.411238
30
0.0
11
6.975000
21
0.412589
31
0.0
0
LINE
8
FRONT
10
6.975000
20
0.412589
30
0.0
11
7.087500
21
0.413939
31
0.0
0
LINE
8
FRONT
10
7.087500
20
0.413939
30
0.0
11
7.200000
21
0.415290
31
0.0
0
LINE
8
FRONT
10
7.200000
20
0.415290
30
0.0
11
7.312500
21
0.416641
31
0.0
0
LINE
8
FRONT
10
7.312500
20
0.416641
30
0.0
11
7.425000
21
0.417991
31
0.0
0
LINE
8
FRONT
10
7.425000
20
0.417991
30
0.0
11
7.537500
21
0.419342
31
0.0
0
LINE
8
FRONT
10
7.537500
20
0.419342
30
0.0
11
7.650000
21
0.420692
31
0.0
0
LINE
8
FRONT
10
7.650000
20
0.420692
30
0.0
11
7.762500
21
0.422043
31
0.0
0
LINE
8
FRONT
10
7.762500
20
0.422043
30
0.0
11
7.875000
21
0.423393
31
0.0
0
LINE
8
FRONT
10
7.875000
20
0.423393
30
0.0
11
7.987500
21
0.424744
31
0.0
0
LINE
8
FRONT
10
7.987500
20
0.424744
30
0.0
11
8.100000
21
0.426094
31
0.0
0
LINE
8
FRONT
10
8.100000
20
0.426094
30
0.0
11
8.212500
21
0.427445
31
0.0
0
LINE
8
FRONT
10
8.212500
20
0.427445
30
0.0
11
8.325000
21
0.428796
31
0.0
0
LINE
8
FRONT
10
8.325000
20
0.428796
30
0.0
11
8.437500
21
0.430146
31
0.0
0
LINE
8
FRONT
10
8.437500
20
0.430146
30
0.0
11
8.500000
21
0.430896
31
0.0
0
LINE
8
FRONT
10
8.500000
20
0.430896
30
0.0
11
8.550000
21
0.431497
31
0.0
0
LINE
8
FRONT
10
8.550000
20
0.431497
30
0.0
11
8.662500
21
0.432847
31
0.0
0
LINE
8
FRONT
10
8.662500
20
0.432847
30
0.0
11
8.775000
21
0.434198
31
0.0
0
LINE
8
FRONT
10
8.775000
20
0.434198
30
0.0
11
8.887500
21
0.435548
31
0.0
0
LINE
8
FRONT
10
8.887500
20
0.435548
30
0.0
11
9.000000
21
0.436899
31
0.0
0
LINE
8
FRONT
10
0.000000
20
-0.240000
30
0.0
11
0.112500
21
-0.243572
31
0.0
0
LINE
8
FRONT
10
0.112500
20
-0.243572
30
0.0
11
0.225000
21
-0.247144
31
0.0
0
LINE
8
FRONT
10
0.225000
20
-0.247144
30
0.0
11
0.337500
21
-0.250716
31
0.0
0
LINE
8
FRONT
10
0.337500
20
-0.250716
30
0.0
11
0.450000
21
-0.254288
31
0.0
0
LINE
8
FRONT
10
0.450000
20
-0.254288
30
0.0
11
0.500000
21
-0.255875
31
0.0
0
LINE
8
FRONT
10
0.500000
20
-0.255875
30
0.0
11
0.562500
21
-0.257860
31
0.0
0
LINE
8
FRONT
10
0.562500
20
-0.257860
30
0.0
11
0.675000
21
-0.261432
31
0.0
0
LINE
8
FRONT
10
0.675000
20
-0.261432
30
0.0
11
0.787500
21
-0.265003
31
0.0
0
LINE
8
FRONT
10
0.787500
20
-0.265003
30
0.0
11
0.900000
21
-0.268575
31
0.0
0
LINE
8
FRONT
10
0.900000
20
-0.268575
30
0.0
11
1.012500
21
-0.272147
31
0.0
0
LINE
8
FRONT
10
1.012500
20
-0.272147
30
0.0
11
1.125000
21
-0.275719
31
0.0
0
LINE
8
FRONT
10
1.125000
20
-0.275719
30
0.0
11
1.237500
21
-0.279291
31
0.0
0
LINE
8
FRONT
10
1.237500
20
-0.279291
30
0.0
11
1.350000
21
-0.282863
31
0.0
0
LINE
8
FRONT
10
1.350000
20
-0.282863
30
0.0
11
1.462500
21
-0.286435
31
0.0
0
LINE
8
FRONT
10
1.462500
20
-0.286435
30
0.0
11
1.575000
21
-0.290007
31
0.0
0
LINE
8
FRONT
10
1.575000
20
-0.290007
30
0.0
11
1.687500
21
-0.293579
31
0.0
0
LINE
8
FRONT
10
1.687500
20
-0.293579
30
0.0
11
1.800000
21
-0.297151
31
0.0
0
LINE
8
FRONT
10
1.800000
20
-0.297151
30
0.0
11
1.912500
21
-0.300723
31
0.0
0
LINE
8
FRONT
10
1.912500
20
-0.300723
30
0.0
11
2.025000
21
-0.304295
31
0.0
0
LINE
8
FRONT
10
2.025000
20
-0.304295
30
0.0
11
2.137500
21
-0.307866
31
0.0
0
LINE
8
FRONT
10
2.137500
20
-0.307866
30
0.0
11
2.250000
21
-0.311438
31
0.0
0
LINE
8
FRONT
10
2.250000
20
-0.311438
30
0.0
11
2.362500
21
-0.315010
31
0.0
0
LINE
8
FRONT
10
2.362500
20
-0.315010
30
0.0
11
2.475000
21
-0.318582
31
0.0
0
LINE
8
FRONT
10
2.475000
20
-0.318582
30
0.0
11
2.587500
21
-0.322154
31
0.0
0
LINE
8
FRONT
10
2.587500
20
-0.322154
30
0.0
11
2.700000
21
-0.325726
31
0.0
0
LINE
8
FRONT
10
2.700000
20
-0.325726
30
0.0
11
2.812500
21
-0.329298
31
0.0
0
LINE
8
FRONT
10
2.812500
20
-0.329298
30
0.0
11
2.925000
21
-0.332870
31
0.0
0
LINE
8
FRONT
10
2.925000
20
-0.332870
30
0.0
11
3.037500
21
-0.336442
31
0.0
0
LINE
8
FRONT
10
3.037500
20
-0.336442
30
0.0
11
3.150000
21
-0.340014
31
0.0
0
LINE
8
FRONT
10
3.150000
20
-0.340014
30
0.0
11
3.262500
21
-0.343586
31
0.0
0
LINE
8
FRONT
10
3.262500
20
-0.343586
30
0.0
11
3.375000
21
-0.347158
31
0.0
0
LINE
8
FRONT
10
3.375000
20
-0.347158
30
0.0
11
3.487500
21
-0.350729
31
0.0
0
LINE
8
FRONT
10
3.487500
20
-0.350729
30
0.0
11
3.600000
21
-0.354301
31
0.0
0
LINE
8
FRONT
10
3.600000
20
-0.354301
30
0.0
11
3.712500
21
-0.357873
31
0.0
0
LINE
8
FRONT
10
3.712500
20
-0.357873
30
0.0
11
3.825000
21
-0.361445
31
0.0
0
LINE
8
FRONT
10
3.825000
20
-0.361445
30
0.0
11
3.937500
21
-0.365017
31
0.0
0
LINE
8
FRONT
10
3.937500
20
-0.365017
30
0.0
11
4.050000
21
-0.368589
31
0.0
0
LINE
8
FRONT
10
4.050000
20
-0.368589
30
0.0
11
4.162500
21
-0.372161
31
0.0
0
LINE
8
FRONT
10
4.162500
20
-0.372161
30
0.0
11
4.275000
21
-0.375733
31
0.0
0
LINE
8
FRONT
10
4.275000
20
-0.375733
30
0.0
11
4.387500
21
-0.379305
31
0.0
0
LINE
8
FRONT
10
4.387500
20
-0.379305
30
0.0
11
4.500000
21
-0.382877
31
0.0
0
LINE
8
FRONT
10
4.500000
20
-0.382877
30
0.0
11
4.612500
21
-0.384227
31
0.0
0
LINE
8
FRONT
10
4.612500
20
-0.384227
30
0.0
11
4.725000
21
-0.385578
31
0.0
0
LINE
8
FRONT
10
4.725000
20
-0.385578
30
0.0
11
4.837500
21
-0.386928
31
0.0
0
LINE
8
FRONT
10
4.837500
20
-0.386928
30
0.0
11
4.950000
21
-0.388279
31
0.0
0
LINE
8
FRONT
10
4.950000
20
-0.388279
30
0.0
11
5.062500
21
-0.389629
31
0.0
0
LINE
8
FRONT
10
5.062500
20
-0.389629
30
0.0
11
5.175000
21
-0.390980
31
0.0
0
LINE
8
FRONT
10
5.175000
20
-0.390980
30
0.0
11
5.287500
21
-0.392331
31
0.0
0
LINE
8
FRONT
10
5.287500
20
-0.392331
30
0.0
11
5.400000
21
-0.393681
31
0.0
0
LINE
8
FRONT
10
5.400000
20
-0.393681
30
0.0
11
5.512500
21
-0.395032
31
0.0
0
LINE
8
FRONT
10
5.512500
20
-0.395032
30
0.0
11
5.625000
21
-0.396382
31
0.0
0
LINE
8
FRONT
10
5.625000
20
-0.396382
30
0.0
11
5.737500
21
-0.397733
31
0.0
0
LINE
8
FRONT
10
5.737500
20
-0.397733
30
0.0
11
5.850000
21
-0.399083
31
0.0
0
LINE
8
FRONT
10
5.850000
20
-0.399083
30
0.0
11
5.962500
21
-0.400434
31
0.0
0
LINE
8
FRONT
10
5.962500
20
-0.400434
30
0.0
11
6.075000
21
-0.401784
31
0.0
0
LINE
8
FRONT
10
6.075000
20
-0.401784
30
0.0
11
6.187500
21
-0.403135
31
0.0
0
LINE
8
FRONT
10
6.187500
20
-0.403135
30
0.0
11
6.300000
21
-0.404486
31
0.0
0
LINE
8
FRONT
10
6.300000
20
-0.404486
30
0.0
11
6.412500
21
-0.405836
31
0.0
0
LINE
8
FRONT
10
6.412500
20
-0.405836
30
0.0
11
6.525000
21
-0.407187
31
0.0
0
LINE
8
FRONT
10
6.525000
20
-0.407187
30
0.0
11
6.637500
21
-0.408537
31
0.0
0
LINE
8
FRONT
10
6.637500
20
-0.408537
30
0.0
11
6.750000
21
-0.409888
31
0.0
0
LINE
8
FRONT
10
6.750000
20
-0.409888
30
0.0
11
6.862500
21
-0.411238
31
0.0
0
LINE
8
FRONT
10
6.862500
20
-0.411238
30
0.0
11
6.975000
21
-0.412589
31
0.0
0
LINE
8
FRONT
10
6.975000
20
-0.412589
30
0.0
11
7.087500
21
-0.413939
31
0.0
0
LINE
8
FRONT
10
7.087500
20
-0.413939
30
0.0
11
7.200000
21
-0.415290
31
0.0
0
LINE
8
FRONT
10
7.200000
20
-0.415290
30
0.0
11
7.312500
21
-0.416641
31
0.0
0
LINE
8
FRONT
10
7.312500
20
-0.416641
30
0.0
11
7.425000
21
-0.417991
31
0.0
0
LINE
8
FRONT
10
7.425000
20
-0.417991
30
0.0
11
7.537500
21
-0.419342
31
0.0
0
LINE
8
FRONT
10
7.537500
20
-0.419342
30
0.0
11
7.650000
21
-0.420692
31
0.0
0
LINE
8
FRONT
10
7.650000
20
-0.420692
30
0.0
11
7.762500
21
-0.422043
31
0.0
0
LINE
8
FRONT
10
7.762500
20
-0.422043
30
0.0
11
7.875000
21
-0.423393
31
0.0
0
LINE
8
FRONT
10
7.875000
20
-0.423393
30
0.0
11
7.987500
21
-0.424744
31
0.0
0
LINE
8
FRONT
10
7.987500
20
-0.424744
30
0.0
11
8.100000
21
-0.426094
31
0.0
0
LINE
8
FRONT
10
8.100000
20
-0.426094
30
0.0
11
8.212500
21
-0.427445
31
0.0
0
LINE
8
FRONT
10
8.212500
20
-0.427445
30
0.0
11
8.325000
21
-0.428796
31
0.0
0
LINE
8
FRONT
10
8.325000
20
-0.428796
30
0.0
11
8.437500
21
-0.430146
31
0.0
0
LINE
8
FRONT
10
8.437500
20
-0.430146
30
0.0
11
8.500000
21
-0.430896
31
0.0
0
LINE
8
FRONT
10
8.500000
20
-0.430896
30
0.0
11
8.550000
21
-0.431497
31
0.0
0
LINE
8
FRONT
10
8.550000
20
-0.431497
30
0.0
11
8.662500
21
-0.432847
31
0.0
0
LINE
8
FRONT
10
8.662500
20
-0.432847
30
0.0
11
8.775000
21
-0.434198
31
0.0
0
LINE
8
FRONT
10
8.775000
20
-0.434198
30
0.0
11
8.887500
21
-0.435548
31
0.0
0
LINE
8
FRONT
10
8.887500
20
-0.435548
30
0.0
11
9.000000
21
-0.436899
31
0.0
0
LINE
8
FRONT
10
0.000000
20
0.240000
30
0.0
11
0.000000
21
-0.240000
31
0.0
0
LINE
8
FRONT
10
9.000000
20
0.436899
30
0.0
11
9.000000
21
-0.436899
31
0.0
0
LINE
8
TOP
10
0.000000
20
2.230004
30
0.0
11
0.112500
21
2.230226
31
0.0
0
LINE
8
TOP
10
0.112500
20
2.230226
30
0.0
11
0.225000
21
2.230447
31
0.0
0
LINE
8
TOP
10
0.225000
20
2.230447
30
0.0
11
0.337500
21
2.230668
31
0.0
0
LINE
8
TOP
10
0.337500
20
2.230668
30
0.0
11
0.450000
21
2.230890
31
0.0
0
LINE
8
TOP
10
0.450000
20
2.230890
30
0.0
11
0.500000
21
2.230988
31
0.0
0
LINE
8
TOP
10
0.500000
20
2.230988
30
0.0
11
0.562500
21
2.231111
31
0.0
0
LINE
8
TOP
10
0.562500
20
2.231111
30
0.0
11
0.675000
21
2.231332
31
0.0
0
LINE
8
TOP
10
0.675000
20
2.231332
30
0.0
11
0.787500
21
2.231554
31
0.0
0
LINE
8
TOP
10
0.787500
20
2.231554
30
0.0
11
0.900000
21
2.231775
31
0.0
0
LINE
8
TOP
10
0.900000
20
2.231775
30
0.0
11
1.012500
21
2.231996
31
0.0
0
LINE
8
TOP
10
1.012500
20
2.231996
30
0.0
11
1.125000
21
2.232218
31
0.0
0
LINE
8
TOP
10
1.125000
20
2.232218
30
0.0
11
1.237500
21
2.232439
31
0.0
0
LINE
8
TOP
10
1.237500
20
2.232439
30
0.0
11
1.350000
21
2.232660
31
0.0
0
LINE
8
TOP
10
1.350000
20
2.232660
30
0.0
11
1.462500
21
2.232882
31
0.0
0
LINE
8
TOP
10
1.462500
20
2.232882
30
0.0
11
1.575000
21
2.233103
31
0.0
0
LINE
8
TOP
10
1.575000
20
2.233103
30
0.0
11
1.687500
21
2.233324
31
0.0
0
LINE
8
TOP
10
1.687500
20
2.233324
30
0.0
11
1.800000
21
2.233546
31
0.0
0
LINE
8
TOP
10
1.800000
20
2.233546
30
0.0
11
1.912500
21
2.233767
31
0.0
0
LINE
8
TOP
10
1.912500
20
2.233767
30
0.0
11
2.025000
21
2.233988
31
0.0
0
LINE
8
TOP
10
2.025000
20
2.233988
30
0.0
11
2.137500
21
2.234210
31
0.0
0
LINE
8
TOP
10
2.137500
20
2.234210
30
0.0
11
2.250000
21
2.234431
31
0.0
0
LINE
8
TOP
10
2.250000
20
2.234431
30
0.0
11
2.362500
21
2.234652
31
0.0
0
LINE
8
TOP
10
2.362500
20
2.234652
30
0.0
11
2.475000
21
2.234874
31
0.0
0
LINE
8
TOP
10
2.475000
20
2.234874
30
0.0
11
2.587500
21
2.235095
31
0.0
0
LINE
8
TOP
10
2.587500
20
2.235095
30
0.0
11
2.700000
21
2.235316
31
0.0
0
LINE
8
TOP
10
2.700000
20
2.235316
30
0.0
11
2.812500
21
2.235538
31
0.0
0
LINE
8
TOP
10
2.812500
20
2.235538
30
0.0
11
2.925000
21
2.235759
31
0.0
0
LINE
8
TOP
10
2.925000
20
2.235759
30
0.0
11
3.037500
21
2.235980
31
0.0
0
LINE
8
TOP
10
3.037500
20
2.235980
30
0.0
11
3.150000
21
2.236201
31
0.0
0
LINE
8
TOP
10
3.150000
20
2.236201
30
0.0
11
3.262500
21
2.236423
31
0.0
0
LINE
8
TOP
10
3.262500
20
2.236423
30
0.0
11
3.375000
21
2.236644
31
0.0
0
LINE
8
TOP
10
3.375000
20
2.236644
30
0.0
11
3.487500
21
2.236865
31
0.0
0
LINE
8
TOP
10
3.487500
20
2.236865
30
0.0
11
3.600000
21
2.237087
31
0.0
0
LINE
8
TOP
10
3.600000
20
2.237087
30
0.0
11
3.712500
21
2.237308
31
0.0
0
LINE
8
TOP
10
3.712500
20
2.237308
30
0.0
11
3.825000
21
2.237529
31
0.0
0
LINE
8
TOP
10
3.825000
20
2.237529
30
0.0
11
3.937500
21
2.237751
31
0.0
0
LINE
8
TOP
10
3.937500
20
2.237751
30
0.0
11
4.050000
21
2.237972
31
0.0
0
LINE
8
TOP
10
4.050000
20
2.237972
30
0.0
11
4.162500
21
2.238193
31
0.0
0
LINE
8
TOP
10
4.162500
20
2.238193
30
0.0
11
4.275000
21
2.238415
31
0.0
0
LINE
8
TOP
10
4.275000
20
2.238415
30
0.0
11
4.387500
21
2.238636
31
0.0
0
LINE
8
TOP
10
4.387500
20
2.238636
30
0.0
11
4.500000
21
2.238857
31
0.0
0
LINE
8
TOP
10
4.500000
20
2.238857
30
0.0
11
4.612500
21
2.237403
31
0.0
0
LINE
8
TOP
10
4.612500
20
2.237403
30
0.0
11
4.725000
21
2.235949
31
0.0
0
LINE
8
TOP
10
4.725000
20
2.235949
30
0.0
11
4.837500
21
2.234495
31
0.0
0
LINE
8
TOP
10
4.837500
20
2.234495
30
0.0
11
4.950000
21
2.233041
31
0.0
0
LINE
8
TOP
10
4.950000
20
2.233041
30
0.0
11
5.062500
21
2.231587
31
0.0
0
LINE
8
TOP
10
5.062500
20
2.231587
30
0.0
11
5.175000
21
2.230133
31
0.0
0
LINE
8
TOP
10
5.175000
20
2.230133
30
0.0
11
5.287500
21
2.228679
31
0.0
0
LINE
8
TOP
10
5.287500
20
2.228679
30
0.0
11
5.400000
21
2.227225
31
0.0
0
LINE
8
TOP
10
5.400000
20
2.227225
30
0.0
11
5.512500
21
2.225771
31
0.0
0
LINE
8
TOP
10
5.512500
20
2.225771
30
0.0
11
5.625000
21
2.224317
31
0.0
0
LINE
8
TOP
10
5.625000
20
2.224317
30
0.0
11
5.737500
21
2.222863
31
0.0
0
LINE
8
TOP
10
5.737500
20
2.222863
30
0.0
11
5.850000
21
2.221409
31
0.0
0
LINE
8
TOP
10
5.850000
20
2.221409
30
0.0
11
5.962500
21
2.219955
31
0.0
0
LINE
8
TOP
10
5.962500
20
2.219955
30
0.0
11
6.075000
21
2.218501
31
0.0
0
LINE
8
TOP
10
6.075000
20
2.218501
30
0.0
11
6.187500
21
2.217047
31
0.0
0
LINE
8
TOP
10
6.187500
20
2.217047
30
0.0
11
6.300000
21
2.215593
31
0.0
0
LINE
8
TOP
10
6.300000
20
2.215593
30
0.0
11
6.412500
21
2.214139
31
0.0
0
LINE
8
TOP
10
6.412500
20
2.214139
30
0.0
11
6.525000
21
2.212685
31
0.0
0
LINE
8
TOP
10
6.525000
20
2.212685
30
0.0
11
6.637500
21
2.211231
31
0.0
0
LINE
8
TOP
10
6.637500
20
2.211231
30
0.0
11
6.750000
21
2.209777
31
0.0
0
LINE
8
TOP
10
6.750000
20
2.209777
30
0.0
11
6.862500
21
2.208323
31
0.0
0
LINE
8
TOP
10
6.862500
20
2.208323
30
0.0
11
6.975000
21
2.206869
31
0.0
0
LINE
8
TOP
10
6.975000
20
2.206869
30
0.0
11
7.087500
21
2.205415
31
0.0
0
LINE
8
TOP
10
7.087500
20
2.205415
30
0.0
11
7.200000
21
2.203961
31
0.0
0
LINE
8
TOP
10
7.200000
20
2.203961
30
0.0
11
7.312500
21
2.202507
31
0.0
0
LINE
8
TOP
10
7.312500
20
2.202507
30
0.0
11
7.425000
21
2.201053
31
0.0
0
LINE
8
TOP
10
7.425000
20
2.201053
30
0.0
11
7.537500
21
2.199599
31
0.0
0
LINE
8
TOP
10
7.537500
20
2.199599
30
0.0
11
7.650000
21
2.198145
31
0.0
0
LINE
8
TOP
10
7.650000
20
2.198145
30
0.0
11
7.762500
21
2.196691
31
0.0
0
LINE
8
TOP
10
7.762500
20
2.196691
30
0.0
11
7.875000
21
2.195237
31
0.0
0
LINE
8
TOP
10
7.875000
20
2.195237
30
0.0
11
7.987500
21
2.193783
31
0.0
0
LINE
8
TOP
10
7.987500
20
2.193783
30
0.0
11
8.100000
21
2.192329
31
0.0
0
LINE
8
TOP
10
8.100000
20
2.192329
30
0.0
11
8.212500
21
2.190875
31
0.0
0
LINE
8
TOP
10
8.212500
20
2.190875
30
0.0
11
8.325000
21
2.189421
31
0.0
0
LINE
8
TOP
10
8.325000
20
2.189421
30
0.0
11
8.437500
21
2.187967
31
0.0
0
LINE
8
TOP
10
8.437500
20
2.187967
30
0.0
11
8.500000
21
2.187159
31
0.0
0
LINE
8
TOP
10
8.500000
20
2.187159
30
0.0
11
8.550000
21
2.186513
31
0.0
0
LINE
8
TOP
10
8.550000
20
2.186513
30
0.0
11
8.662500
21
2.185059
31
0.0
0
LINE
8
TOP
10
8.662500
20
2.185059
30
0.0
11
8.775000
21
2.183605
31
0.0
0
LINE
8
TOP
10
8.775000
20
2.183605
30
0.0
11
8.887500
21
2.182151
31
0.0
0
LINE
8
TOP
10
8.887500
20
2.182151
30
0.0
11
9.000000
21
2.180697
31
0.0
0
LINE
8
TOP
10
0.000000
20
1.891389
30
0.0
11
0.112500
21
1.891167
31
0.0
0
LINE
8
TOP
10
0.112500
20
1.891167
30
0.0
11
0.225000
21
1.890946
31
0.0
0
LINE
8
TOP
10
0.225000
20
1.890946
30
0.0
11
0.337500
21
1.890725
31
0.0
0
LINE
8
TOP
10
0.337500
20
1.890725
30
0.0
11
0.450000
21
1.890503
31
0.0
0
LINE
8
TOP
10
0.450000
20
1.890503
30
0.0
11
0.500000
21
1.890405
31
0.0
0
LINE
8
TOP
10
0.500000
20
1.890405
30
0.0
11
0.562500
21
1.890282
31
0.0
0
LINE
8
TOP
10
0.562500
20
1.890282
30
0.0
11
0.675000
21
1.890061
31
0.0
0
LINE
8
TOP
10
0.675000
20
1.890061
30
0.0
11
0.787500
21
1.889839
31
0.0
0
LINE
8
TOP
10
0.787500
20
1.889839
30
0.0
11
0.900000
21
1.889618
31
0.0
0
LINE
8
TOP
10
0.900000
20
1.889618
30
0.0
11
1.012500
21
1.889397
31
0.0
0
LINE
8
TOP
10
1.012500
20
1.889397
30
0.0
11
1.125000
21
1.889176
31
0.0
0
LINE
8
TOP
10
1.125000
20
1.889176
30
0.0
11
1.237500
21
1.888954
31
0.0
0
LINE
8
TOP
10
1.237500
20
1.888954
30
0.0
11
1.350000
21
1.888733
31
0.0
0
LINE
8
TOP
10
1.350000
20
1.888733
30
0.0
11
1.462500
21
1.888512
31
0.0
0
LINE
8
TOP
10
1.462500
20
1.888512
30
0.0
11
1.575000
21
1.888290
31
0.0
0
LINE
8
TOP
10
1.575000
20
1.888290
30
0.0
11
1.687500
21
1.888069
31
0.0
0
LINE
8
TOP
10
1.687500
20
1.888069
30
0.0
11
1.800000
21
1.887848
31
0.0
0
LINE
8
TOP
10
1.800000
20
1.887848
30
0.0
11
1.912500
21
1.887626
31
0.0
0
LINE
8
TOP
10
1.912500
20
1.887626
30
0.0
11
2.025000
21
1.887405
31
0.0
0
LINE
8
TOP
10
2.025000
20
1.887405
30
0.0
11
2.137500
21
1.887184
31
0.0
0
LINE
8
TOP
10
2.137500
20
1.887184
30
0.0
11
2.250000
21
1.886962
31
0.0
0
LINE
8
TOP
10
2.250000
20
1.886962
30
0.0
11
2.362500
21
1.886741
31
0.0
0
LINE
8
TOP
10
2.362500
20
1.886741
30
0.0
11
2.475000
21
1.886520
31
0.0
0
LINE
8
TOP
10
2.475000
20
1.886520
30
0.0
11
2.587500
21
1.886298
31
0.0
0
LINE
8
TOP
10
2.587500
20
1.886298
30
0.0
11
2.700000
21
1.886077
31
0.0
0
LINE
8
TOP
10
2.700000
20
1.886077
30
0.0
11
2.812500
21
1.885856
31
0.0
0
LINE
8
TOP
10
2.812500
20
1.885856
30
0.0
11
2.925000
21
1.885634
31
0.0
0
LINE
8
TOP
10
2.925000
20
1.885634
30
0.0
11
3.037500
21
1.885413
31
0.0
0
LINE
8
TOP
10
3.037500
20
1.885413
30
0.0
11
3.150000
21
1.885192
31
0.0
0
LINE
8
TOP
10
3.150000
20
1.885192
30
0.0
11
3.262500
21
1.884970
31
0.0
0
LINE
8
TOP
10
3.262500
20
1.884970
30
0.0
11
3.375000
21
1.884749
31
0.0
0
LINE
8
TOP
10
3.375000
20
1.884749
30
0.0
11
3.487500
21
1.884528
31
0.0
0
LINE
8
TOP
10
3.487500
20
1.884528
30
0.0
11
3.600000
21
1.884306
31
0.0
0
LINE
8
TOP
10
3.600000
20
1.884306
30
0.0
11
3.712500
21
1.884085
31
0.0
0
LINE
8
TOP
10
3.712500
20
1.884085
30
0.0
11
3.825000
21
1.883864
31
0.0
0
LINE
8
TOP
10
3.825000
20
1.883864
30
0.0
11
3.937500
21
1.883642
31
0.0
0
LINE
8
TOP
10
3.937500
20
1.883642
30
0.0
11
4.050000
21
1.883421
31
0.0
0
LINE
8
TOP
10
4.050000
20
1.883421
30
0.0
11
4.162500
21
1.883200
31
0.0
0
LINE
8
TOP
10
4.162500
20
1.883200
30
0.0
11
4.275000
21
1.882978
31
0.0
0
LINE
8
TOP
10
4.275000
20
1.882978
30
0.0
11
4.387500
21
1.882757
31
0.0
0
LINE
8
TOP
10
4.387500
20
1.882757
30
0.0
11
4.500000
21
1.882536
31
0.0
0
LINE
8
TOP
10
4.500000
20
1.882536
30
0.0
11
4.612500
21
1.883990
31
0.0
0
LINE
8
TOP
10
4.612500
20
1.883990
30
0.0
11
4.725000
21
1.885444
31
0.0
0
LINE
8
TOP
10
4.725000
20
1.885444
30
0.0
11
4.837500
21
1.886898
31
0.0
0
LINE
8
TOP
10
4.837500
20
1.886898
30
0.0
11
4.950000
21
1.888352
31
0.0
0
LINE
8
TOP
10
4.950000
20
1.888352
30
0.0
11
5.062500
21
1.889806
31
0.0
0
LINE
8
TOP
10
5.062500
20
1.889806
30
0.0
11
5.175000
21
1.891260
31
0.0
0
LINE
8
TOP
10
5.175000
20
1.891260
30
0.0
11
5.287500
21
1.892714
31
0.0
0
LINE
8
TOP
10
5.287500
20
1.892714
30
0.0
11
5.400000
21
1.894168
31
0.0
0
LINE
8
TOP
10
5.400000
20
1.894168
30
0.0
11
5.512500
21
1.895622
31
0.0
0
LINE
8
TOP
10
5.512500
20
1.895622
30
0.0
11
5.625000
21
1.897076
31
0.0
0
LINE
8
TOP
10
5.625000
20
1.897076
30
0.0
11
5.737500
21
1.898530
31
0.0
0
LINE
8
TOP
10
5.737500
20
1.898530
30
0.0
11
5.850000
21
1.899984
31
0.0
0
LINE
8
TOP
10
5.850000
20
1.899984
30
0.0
11
5.962500
21
1.901438
31
0.0
0
LINE
8
TOP
10
5.962500
20
1.901438
30
0.0
11
6.075000
21
1.902892
31
0.0
0
LINE
8
TOP
10
6.075000
20
1.902892
30
0.0
11
6.187500
21
1.904346
31
0.0
0
LINE
8
TOP
10
6.187500
20
1.904346
30
0.0
11
6.300000
21
1.905800
31
0.0
0
LINE
8
TOP
10
6.300000
20
1.905800
30
0.0
11
6.412500
21
1.907254
31
0.0
0
LINE
8
TOP
10
6.412500
20
1.907254
30
0.0
11
6.525000
21
1.908708
31
0.0
0
LINE
8
TOP
10
6.525000
20
1.908708
30
0.0
11
6.637500
21
1.910162
31
0.0
0
LINE
8
TOP
10
6.637500
20
1.910162
30
0.0
11
6.750000
21
1.911616
31
0.0
0
LINE
8
TOP
10
6.750000
20
1.911616
30
0.0
11
6.862500
21
1.913070
31
0.0
0
LINE
8
TOP
10
6.862500
20
1.913070
30
0.0
11
6.975000
21
1.914524
31
0.0
0
LINE
8
TOP
10
6.975000
20
1.914524
30
0.0
11
7.087500
21
1.915978
31
0.0
0
LINE
8
TOP
10
7.087500
20
1.915978
30
0.0
11
7.200000
21
1.917432
31
0.0
0
LINE
8
TOP
10
7.200000
20
1.917432
30
0.0
11
7.312500
21
1.918886
31
0.0
0
LINE
8
TOP
10
7.312500
20
1.918886
30
0.0
11
7.425000
21
1.920340
31
0.0
0
LINE
8
TOP
10
7.425000
20
1.920340
30
0.0
11
7.537500
21
1.921794
31
0.0
0
LINE
8
TOP
10
7.537500
20
1.921794
30
0.0
11
7.650000
21
1.923248
31
0.0
0
LINE
8
TOP
10
7.650000
20
1.923248
30
0.0
11
7.762500
21
1.924702
31
0.0
0
LINE
8
TOP
10
7.762500
20
1.924702
30
0.0
11
7.875000
21
1.926156
31
0.0
0
LINE
8
TOP
10
7.875000
20
1.926156
30
0.0
11
7.987500
21
1.927610
31
0.0
0
LINE
8
TOP
10
7.987500
20
1.927610
30
0.0
11
8.100000
21
1.929064
31
0.0
0
LINE
8
TOP
10
8.100000
20
1.929064
30
0.0
11
8.212500
21
1.930518
31
0.0
0
LINE
8
TOP
10
8.212500
20
1.930518
30
0.0
11
8.325000
21
1.931972
31
0.0
0
LINE
8
TOP
10
8.325000
20
1.931972
30
0.0
11
8.437500
21
1.933426
31
0.0
0
LINE
8
TOP
10
8.437500
20
1.933426
30
0.0
11
8.500000
21
1.934234
31
0.0
0
LINE
8
TOP
10
8.500000
20
1.934234
30
0.0
11
8.550000
21
1.934881
31
0.0
0
LINE
8
TOP
10
8.550000
20
1.934881
30
0.0
11
8.662500
21
1.936335
31
0.0
0
LINE
8
TOP
10
8.662500
20
1.936335
30
0.0
11
8.775000
21
1.937789
31
0.0
0
LINE
8
TOP
10
8.775000
20
1.937789
30
0.0
11
8.887500
21
1.939243
31
0.0
0
LINE
8
TOP
10
8.887500
20
1.939243
30
0.0
11
9.000000
21
1.940697
31
0.0
0
LINE
8
TOP
10
0.000000
20
2.230004
30
0.0
11
0.000000
21
1.891389
31
0.0
0
LINE
8
TOP
10
9.000000
20
2.180697
30
0.0
11
9.000000
21
1.940697
31
0.0
0
LINE
8
SECTION
10
10.321839
20
-0.382877
30
0.0
11
10.678161
21
-0.382877
31
0.0
0
LINE
8
SECTION
10
10.678161
20
-0.382877
30
0.0
11
10.678161
21
0.382877
31
0.0
0
LINE
8
SECTION
10
10.678161
20
0.382877
30
0.0
11
10.321839
21
0.382877
31
0.0
0
LINE
8
SECTION
10
10.321839
20
0.382877
30
0.0
11
10.321839
21
-0.382877
31
0.0
0
LINE
8
SECTION
10
10.390745
20
-0.313971
30
0.0
11
10.609255
21
-0.313971
31
0.0
0
LINE
8
SECTION
10
10.609255
20
-0.313971
30
0.0
11
10.609255
21
0.313971
31
0.0
0
LINE
8
SECTION
10
10.609255
20
0.313971
30
0.0
11
10.390745
21
0.313971
31
0.0
0
LINE
8
SECTION
10
10.390745
20
0.313971
30
0.0
11
10.390745
21
-0.313971
31
0.0
0
LINE
8
SECTION
10
10.390745
20
0.000000
30
0.0
11
10.459652
21
0.000000
31
0.0
0
LINE
8
SECTION
10
10.459652
20
0.000000
30
0.0
11
10.459652
21
0.313971
31
0.0
0
LINE
8
SECTION
10
10.459652
20
0.313971
30
0.0
11
10.390745
21
0.313971
31
0.0
0
LINE
8
SECTION
10
10.390745
20
0.313971
30
0.0
11
10.390745
21
0.000000
31
0.0
0
LINE
8
SECTION
10
10.390745
20
-0.313971
30
0.0
11
10.459652
21
-0.313971
31
0.0
0
LINE
8
SECTION
10
10.459652
20
-0.313971
30
0.0
11
10.459652
21
0.000000
31
0.0
0
LINE
8
SECTION
10
10.459652
20
0.000000
30
0.0
11
10.390745
21
0.000000
31
0.0
0
LINE
8
SECTION
10
10.390745
20
0.000000
30
0.0
11
10.390745
21
-0.313971
31
0.0
0
LINE
8
SECTION
10
10.540348
20
0.000000
30
0.0
11
10.609255
21
0.000000
31
0.0
0
LINE
8
SECTION
10
10.609255
20
0.000000
30
0.0
11
10.609255
21
0.313971
31
0.0
0
LINE
8
SECTION
10
10.609255
20
0.313971
30
0.0
11
10.540348
21
0.313971
31
0.0
0
LINE
8
SECTION
10
10.540348
20
0.313971
30
0.0
11
10.540348
21
0.000000
31
0.0
0
LINE
8
SECTION
10
10.540348
20
-0.313971
30
0.0
11
10.609255
21
-0.313971
31
0.0
0
LINE
8
SECTION
10
10.609255
20
-0.313971
30
0.0
11
10.609255
21
0.000000
31
0.0
0
LINE
8
SECTION
10
10.609255
20
0.000000
30
0.0
11
10.540348
21
0.000000
31
0.0
0
LINE
8
SECTION
10
10.540348
20
0.000000
30
0.0
11
10.540348
21
-0.313971
31
0.0
0
ENDSEC
0
EOF
