0
SECTION
2
HEADER
9
$INSUNITS
70
1
0
ENDSEC
0
SECTION
2
ENTITIES
0
LINE
8
FRONT
10
0.000000
20
0.367030
30
0.0
11
0.112500
21
0.371980
31
0.0
0
LINE
8
FRONT
10
0.112500
20
0.371980
30
0.0
11
0.225000
21
0.376930
31
0.0
0
LINE
8
FRONT
10
0.225000
20
0.376930
30
0.0
11
0.337500
21
0.381880
31
0.0
0
LINE
8
FRONT
10
0.337500
20
0.381880
30
0.0
11
0.450000
21
0.386830
31
0.0
0
LINE
8
FRONT
10
0.450000
20
0.386830
30
0.0
11
0.500000
21
0.389031
31
0.0
0
LINE
8
FRONT
10
0.500000
20
0.389031
30
0.0
11
0.562500
21
0.391781
31
0.0
0
LINE
8
FRONT
10
0.562500
20
0.391781
30
0.0
11
0.675000
21
0.396731
31
0.0
0
LINE
8
FRONT
10
0.675000
20
0.396731
30
0.0
11
0.787500
21
0.401681
31
0.0
0
LINE
8
FRONT
10
0.787500
20
0.401681
30
0.0
11
0.900000
21
0.406631
31
0.0
0
LINE
8
FRONT
10
0.900000
20
0.406631
30
0.0
11
1.012500
21
0.411581
31
0.0
0
LINE
8
FRONT
10
1.012500
20
0.411581
30
0.0
11
1.125000
21
0.416531
31
0.0
0
LINE
8
FRONT
10
1.125000
20
0.416531
30
0.0
11
1.237500
21
0.421481
31
0.0
0
LINE
8
FRONT
10
1.237500
20
0.421481
30
0.0
11
1.350000
21
0.426431
31
0.0
0
LINE
8
FRONT
10
1.350000
20
0.426431
30
0.0
11
1.462500
21
0.431381
31
0.0
0
LINE
8
FRONT
10
1.462500
20
0.431381
30
0.0
11
1.575000
21
0.436332
31
0.0
0
LINE
8
FRONT
10
1.575000
20
0.436332
30
0.0
11
1.687500
21
0.441282
31
0.0
0
LINE
8
FRONT
10
1.687500
20
0.441282
30
0.0
11
1.800000
21
0.446232
31
0.0
0
LINE
8
FRONT
10
1.800000
20
0.446232
30
0.0
11
1.912500
21
0.451182
31
0.0
0
LINE
8
FRONT
10
1.912500
20
0.451182
30
0.0
11
2.025000
21
0.456132
31
0.0
0
LINE
8
FRONT
10
2.025000
20
0.456132
30
0.0
11
2.137500
21
0.461082
31
0.0
0
LINE
8
FRONT
10
2.137500
20
0.461082
30
0.0
11
2.250000
21
0.466032
31
0.0
0
LINE
8
FRONT
10
2.250000
20
0.466032
30
0.0
11
2.362500
21
0.470982
31
0.0
0
LINE
8
FRONT
10
2.362500
20
0.470982
30
0.0
11
2.475000
21
0.475932
31
0.0
0
LINE
8
FRONT
10
2.475000
20
0.475932
30
0.0
11
2.587500
21
0.480882
31
0.0
0
LINE
8
FRONT
10
2.587500
20
0.480882
30
0.0
11
2.700000
21
0.485833
31
0.0
0
LINE
8
FRONT
10
2.700000
20
0.485833
30
0.0
11
2.812500
21
0.490783
31
0.0
0
LINE
8
FRONT
10
2.812500
20
0.490783
30
0.0
11
2.925000
21
0.495733
31
0.0
0
LINE
8
FRONT
10
2.925000
20
0.495733
30
0.0
11
3.037500
21
0.500683
31
0.0
0
LINE
8
FRONT
10
3.037500
20
0.500683
30
0.0
11
3.150000
21
0.505633
31
0.0
0
LINE
8
FRONT
10
3.150000
20
0.505633
30
0.0
11
3.262500
21
0.510583
31
0.0
0
LINE
8
FRONT
10
3.262500
20
0.510583
30
0.0
11
3.375000
21
0.515533
31
0.0
0
LINE
8
FRONT
10
3.375000
20
0.515533
30
0.0
11
3.487500
21
0.520483
31
0.0
0
LINE
8
FRONT
10
3.487500
20
0.520483
30
0.0
11
3.600000
21
0.525433
31
0.0
0
LINE
8
FRONT
10
3.600000
20
0.525433
30
0.0
11
3.712500
21
0.530383
31
0.0
0
LINE
8
FRONT
10
3.712500
20
0.530383
30
0.0
11
3.825000
21
0.535334
31
0.0
0
LINE
8
FRONT
10
3.825000
20
0.535334
30
0.0
11
3.937500
21
0.540284
31
0.0
0
LINE
8
FRONT
10
3.937500
20
0.540284
30
0.0
11
4.050000
21
0.545234
31
0.0
0
LINE
8
FRONT
10
4.050000
20
0.545234
30
0.0
11
4.162500
21
0.550184
31
0.0
0
LINE
8
FRONT
10
4.162500
20
0.550184
30
0.0
11
4.275000
21
0.555134
31
0.0
0
LINE
8
FRONT
10
4.275000
20
0.555134
30
0.0
11
4.387500
21
0.560084
31
0.0
0
LINE
8
FRONT
10
4.387500
20
0.560084
30
0.0
11
4.500000
21
0.565034
31
0.0
0
LINE
8
FRONT
10
4.500000
20
0.565034
30
0.0
11
4.612500
21
0.560084
31
0.0
0
LINE
8
FRONT
10
4.612500
20
0.560084
30
0.0
11
4.725000
21
0.555134
31
0.0
0
LINE
8
FRONT
10
4.725000
20
0.555134
30
0.0
11
4.837500
21
0.550184
31
0.0
0
LINE
8
FRONT
10
4.837500
20
0.550184
30
0.0
11
4.950000
21
0.545234
31
0.0
0
LINE
8
FRONT
10
4.950000
20
0.545234
30
0.0
11
5.062500
21
0.540284
31
0.0
0
LINE
8
FRONT
10
5.062500
20
0.540284
30
0.0
11
5.175000
21
0.535334
31
0.0
0
LINE
8
FRONT
10
5.175000
20
0.535334
30
0.0
11
5.287500
21
0.530383
31
0.0
0
LINE
8
FRONT
10
5.287500
20
0.530383
30
0.0
11
5.400000
21
0.525433
31
0.0
0
LINE
8
FRONT
10
5.400000
20
0.525433
30
0.0
11
5.512500
21
0.520483
31
0.0
0
LINE
8
FRONT
10
5.512500
20
0.520483
30
0.0
11
5.625000
21
0.515533
31
0.0
0
LINE
8
FRONT
10
5.625000
20
0.515533
30
0.0
11
5.737500
21
0.510583
31
0.0
0
LINE
8
FRONT
10
5.737500
20
0.510583
30
0.0
11
5.850000
21
0.505633
31
0.0
0
LINE
8
FRONT
10
5.850000
20
0.505633
30
0.0
11
5.962500
21
0.500683
31
0.0
0
LINE
8
FRONT
10
5.962500
20
0.500683
30
0.0
11
6.075000
21
0.495733
31
0.0
0
LINE
8
FRONT
10
6.075000
20
0.495733
30
0.0
11
6.187500
21
0.490783
31
0.0
0
LINE
8
FRONT
10
6.187500
20
0.490783
30
0.0
11
6.300000
21
0.485833
31
0.0
0
LINE
8
FRONT
10
6.300000
20
0.485833
30
0.0
11
6.412500
21
0.480882
31
0.0
0
LINE
8
FRONT
10
6.412500
20
0.480882
30
0.0
11
6.525000
21
0.475932
31
0.0
0
LINE
8
FRONT
10
6.525000
20
0.475932
30
0.0
11
6.637500
21
0.470982
31
0.0
0
LINE
8
FRONT
10
6.637500
20
0.470982
30
0.0
11
6.750000
21
0.466032
31
0.0
0
LINE
8
FRONT
10
6.750000
20
0.466032
30
0.0
11
6.862500
21
0.461082
31
0.0
0
LINE
8
FRONT
10
6.862500
20
0.461082
30
0.0
11
6.975000
21
0.456132
31
0.0
0
LINE
8
FRONT
10
6.975000
20
0.456132
30
0.0
11
7.087500
21
0.451182
31
0.0
0
LINE
8
FRONT
10
7.087500
20
0.451182
30
0.0
11
7.200000
21
0.446232
31
0.0
0
LINE
8
FRONT
10
7.200000
20
0.446232
30
0.0
11
7.312500
21
0.441282
31
0.0
0
LINE
8
FRONT
10
7.312500
20
0.441282
30
0.0
11
7.425000
21
0.436332
31
0.0
0
LINE
8
FRONT
10
7.425000
20
0.436332
30
0.0
11
7.537500
21
0.431381
31
0.0
0
LINE
8
FRONT
10
7.537500
20
0.431381
30
0.0
11
7.650000
21
0.426431
31
0.0
0
LINE
8
FRONT
10
7.650000
20
0.426431
30
0.0
11
7.762500
21
0.421481
31
0.0
0
LINE
8
FRONT
10
7.762500
20
0.421481
30
0.0
11
7.875000
21
0.416531
31
0.0
0
LINE
8
FRONT
10
7.875000
20
0.416531
30
0.0
11
7.987500
21
0.411581
31
0.0
0
LINE
8
FRONT
10
7.987500
20
0.411581
30
0.0
11
8.100000
21
0.406631
31
0.0
0
LINE
8
FRONT
10
8.100000
20
0.406631
30
0.0
11
8.212500
21
0.401681
31
0.0
0
LINE
8
FRONT
10
8.212500
20
0.401681
30
0.0
11
8.325000
21
0.396731
31
0.0
0
LINE
8
FRONT
10
8.325000
20
0.396731
30
0.0
11
8.437500
21
0.391781
31
0.0
0
LINE
8
FRONT
10
8.437500
20
0.391781
30
0.0
11
8.500000
21
0.389031
31
0.0
0
LINE
8
FRONT
10
8.500000
20
0.389031
30
0.0
11
8.550000
21
0.386830
31
0.0
0
LINE
8
FRONT
10
8.550000
20
0.386830
30
0.0
11
8.662500
21
0.381880
31
0.0
0
LINE
8
FRONT
10
8.662500
20
0.381880
30
0.0
11
8.775000
21
0.376930
31
0.0
0
LINE
8
FRONT
10
8.775000
20
0.376930
30
0.0
11
8.887500
21
0.371980
31
0.0
0
LINE
8
FRONT
10
8.887500
20
0.371980
30
0.0
11
9.000000
21
0.367030
31
0.0
0
LINE
8
FRONT
10
0.000000
20
-0.367030
30
0.0
11
0.112500
21
-0.371980
31
0.0
0
LINE
8
FRONT
10
0.112500
20
-0.371980
30
0.0
11
0.225000
21
-0.376930
31
0.0
0
LINE
8
FRONT
10
0.225000
20
-0.376930
30
0.0
11
0.337500
21
-0.381880
31
0.0
0
LINE
8
FRONT
10
0.337500
20
-0.381880
30
0.0
11
0.450000
21
-0.386830
31
0.0
0
LINE
8
FRONT
10
0.450000
20
-0.386830
30
0.0
11
0.500000
21
-0.389031
31
0.0
0
LINE
8
FRONT
10
0.500000
20
-0.389031
30
0.0
11
0.562500
21
-0.391781
31
0.0
0
LINE
8
FRONT
10
0.562500
20
-0.391781
30
0.0
11
0.675000
21
-0.396731
31
0.0
0
LINE
8
FRONT
10
0.675000
20
-0.396731
30
0.0
11
0.787500
21
-0.401681
31
0.0
0
LINE
8
FRONT
10
0.787500
20
-0.401681
30
0.0
11
0.900000
21
-0.406631
31
0.0
0
LINE
8
FRONT
10
0.900000
20
-0.406631
30
0.0
11
1.012500
21
-0.411581
31
0.0
0
LINE
8
FRONT
10
1.012500
20
-0.411581
30
0.0
11
1.125000
21
-0.416531
31
0.0
0
LINE
8
FRONT
10
1.125000
20
-0.416531
30
0.0
11
1.237500
21
-0.421481
31
0.0
0
LINE
8
FRONT
10
1.237500
20
-0.421481
30
0.0
11
1.350000
21
-0.426431
31
0.0
0
LINE
8
FRONT
10
1.350000
20
-0.426431
30
0.0
11
1.462500
21
-0.431381
31
0.0
0
LINE
8
FRONT
10
1.462500
20
-0.431381
30
0.0
11
1.575000
21
-0.436332
31
0.0
0
LINE
8
FRONT
10
1.575000
20
-0.436332
30
0.0
11
1.687500
21
-0.441282
31
0.0
0
LINE
8
FRONT
10
1.687500
20
-0.441282
30
0.0
11
1.800000
21
-0.446232
31
0.0
0
LINE
8
FRONT
10
1.800000
20
-0.446232
30
0.0
11
1.912500
21
-0.451182
31
0.0
0
LINE
8
FRONT
10
1.912500
20
-0.451182
30
0.0
11
2.025000
21
-0.456132
31
0.0
0
LINE
8
FRONT
10
2.025000
20
-0.456132
30
0.0
11
2.137500
21
-0.461082
31
0.0
0
LINE
8
FRONT
10
2.137500
20
-0.461082
30
0.0
11
2.250000
21
-0.466032
31
0.0
0
LINE
8
FRONT
10
2.250000
20
-0.466032
30
0.0
11
2.362500
21
-0.470982
31
0.0
0
LINE
8
FRONT
10
2.362500
20
-0.470982
30
0.0
11
2.475000
21
-0.475932
31
0.0
0
LINE
8
FRONT
10
2.475000
20
-0.475932
30
0.0
11
2.587500
21
-0.480882
31
0.0
0
LINE
8
FRONT
10
2.587500
20
-0.480882
30
0.0
11
2.700000
21
-0.485833
31
0.0
0
LINE
8
FRONT
10
2.700000
20
-0.485833
30
0.0
11
2.812500
21
-0.490783
31
0.0
0
LINE
8
FRONT
10
2.812500
20
-0.490783
30
0.0
11
2.925000
21
-0.495733
31
0.0
0
LINE
8
FRONT
10
2.925000
20
-0.495733
30
0.0
11
3.037500
21
-0.500683
31
0.0
0
LINE
8
FRONT
10
3.037500
20
-0.500683
30
0.0
11
3.150000
21
-0.505633
31
0.0
0
LINE
8
FRONT
10
3.150000
20
-0.505633
30
0.0
11
3.262500
21
-0.510583
31
0.0
0
LINE
8
FRONT
10
3.262500
20
-0.510583
30
0.0
11
3.375000
21
-0.515533
31
0.0
0
LINE
8
FRONT
10
3.375000
20
-0.515533
30
0.0
11
3.487500
21
-0.520483
31
0.0
0
LINE
8
FRONT
10
3.487500
20
-0.520483
30
0.0
11
3.600000
21
-0.525433
31
0.0
0
LINE
8
FRONT
10
3.600000
20
-0.525433
30
0.0
11
3.712500
21
-0.530383
31
0.0
0
LINE
8
FRONT
10
3.712500
20
-0.530383
30
0.0
11
3.825000
21
-0.535334
31
0.0
0
LINE
8
FRONT
10
3.825000
20
-0.535334
30
0.0
11
3.937500
21
-0.540284
31
0.0
0
LINE
8
FRONT
10
3.937500
20
-0.540284
30
0.0
11
4.050000
21
-0.545234
31
0.0
0
LINE
8
FRONT
10
4.050000
20
-0.545234
30
0.0
11
4.162500
21
-0.550184
31
0.0
0
LINE
8
FRONT
10
4.162500
20
-0.550184
30
0.0
11
4.275000
21
-0.555134
31
0.0
0
LINE
8
FRONT
10
4.275000
20
-0.555134
30
0.0
11
4.387500
21
-0.560084
31
0.0
0
LINE
8
FRONT
10
4.387500
20
-0.560084
30
0.0
11
4.500000
21
-0.565034
31
0.0
0
LINE
8
FRONT
10
4.500000
20
-0.565034
30
0.0
11
4.612500
21
-0.560084
31
0.0
0
LINE
8
FRONT
10
4.612500
20
-0.560084
30
0.0
11
4.725000
21
-0.555134
31
0.0
0
LINE
8
FRONT
10
4.725000
20
-0.555134
30
0.0
11
4.837500
21
-0.550184
31
0.0
0
LINE
8
FRONT
10
4.837500
20
-0.550184
30
0.0
11
4.950000
21
-0.545234
31
0.0
0
LINE
8
FRONT
10
4.950000
20
-0.545234
30
0.0
11
5.062500
21
-0.540284
31
0.0
0
LINE
8
FRONT
10
5.062500
20
-0.540284
30
0.0
11
5.175000
21
-0.535334
31
0.0
0
LINE
8
FRONT
10
5.175000
20
-0.535334
30
0.0
11
5.287500
21
-0.530383
31
0.0
0
LINE
8
FRONT
10
5.287500
20
-0.530383
30
0.0
11
5.400000
21
-0.525433
31
0.0
0
LINE
8
FRONT
10
5.400000
20
-0.525433
30
0.0
11
5.512500
21
-0.520483
31
0.0
0
LINE
8
FRONT
10
5.512500
20
-0.520483
30
0.0
11
5.625000
21
-0.515533
31
0.0
0
LINE
8
FRONT
10
5.625000
20
-0.515533
30
0.0
11
5.737500
21
-0.510583
31
0.0
0
LINE
8
FRONT
10
5.737500
20
-0.510583
30
0.0
11
5.850000
21
-0.505633
31
0.0
0
LINE
8
FRONT
10
5.850000
20
-0.505633
30
0.0
11
5.962500
21
-0.500683
31
0.0
0
LINE
8
FRONT
10
5.962500
20
-0.500683
30
0.0
11
6.075000
21
-0.495733
31
0.0
0
LINE
8
FRONT
10
6.075000
20
-0.495733
30
0.0
11
6.187500
21
-0.490783
31
0.0
0
LINE
8
FRONT
10
6.187500
20
-0.490783
30
0.0
11
6.300000
21
-0.485833
31
0.0
0
LINE
8
FRONT
10
6.300000
20
-0.485833
30
0.0
11
6.412500
21
-0.480882
31
0.0
0
LINE
8
FRONT
10
6.412500
20
-0.480882
30
0.0
11
6.525000
21
-0.475932
31
0.0
0
LINE
8
FRONT
10
6.525000
20
-0.475932
30
0.0
11
6.637500
21
-0.470982
31
0.0
0
LINE
8
FRONT
10
6.637500
20
-0.470982
30
0.0
11
6.750000
21
-0.466032
31
0.0
0
LINE
8
FRONT
10
6.750000
20
-0.466032
30
0.0
11
6.862500
21
-0.461082
31
0.0
0
LINE
8
FRONT
10
6.862500
20
-0.461082
30
0.0
11
6.975000
21
-0.456132
31
0.0
0
LINE
8
FRONT
10
6.975000
20
-0.456132
30
0.0
11
7.087500
21
-0.451182
31
0.0
0
LINE
8
FRONT
10
7.087500
20
-0.451182
30
0.0
11
7.200000
21
-0.446232
31
0.0
0
LINE
8
FRONT
10
7.200000
20
-0.446232
30
0.0
11
7.312500
21
-0.441282
31
0.0
0
LINE
8
FRONT
10
7.312500
20
-0.441282
30
0.0
11
7.425000
21
-0.436332
31
0.0
0
LINE
8
FRONT
10
7.425000
20
-0.436332
30
0.0
11
7.537500
21
-0.431381
31
0.0
0
LINE
8
FRONT
10
7.537500
20
-0.431381
30
0.0
11
7.650000
21
-0.426431
31
0.0
0
LINE
8
FRONT
10
7.650000
20
-0.426431
30
0.0
11
7.762500
21
-0.421481
31
0.0
0
LINE
8
FRONT
10
7.762500
20
-0.421481
30
0.0
11
7.875000
21
-0.416531
31
0.0
0
LINE
8
FRONT
10
7.875000
20
-0.416531
30
0.0
11
7.987500
21
-0.411581
31
0.0
0
LINE
8
FRONT
10
7.987500
20
-0.411581
30
0.0
11
8.100000
21
-0.406631
31
0.0
0
LINE
8
FRONT
10
8.100000
20
-0.406631
30
0.0
11
8.212500
21
-0.401681
31
0.0
0
LINE
8
FRONT
10
8.212500
20
-0.401681
30
0.0
11
8.325000
21
-0.396731
31
0.0
0
LINE
8
FRONT
10
8.325000
20
-0.396731
30
0.0
11
8.437500
21
-0.391781
31
0.0
0
LINE
8
FRONT
10
8.437500
20
-0.391781
30
0.0
11
8.500000
21
-0.389031
31
0.0
0
LINE
8
FRONT
10
8.500000
20
-0.389031
30
0.0
11
8.550000
21
-0.386830
31
0.0
0
LINE
8
FRONT
10
8.550000
20
-0.386830
30
0.0
11
8.662500
21
-0.381880
31
0.0
0
LINE
8
FRONT
10
8.662500
20
-0.381880
30
0.0
11
8.775000
21
-0.376930
31
0.0
0
LINE
8
FRONT
10
8.775000
20
-0.376930
30
0.0
11
8.887500
21
-0.371980
31
0.0
0
LINE
8
FRONT
10
8.887500
20
-0.371980
30
0.0
11
9.000000
21
-0.367030
31
0.0
0
LINE
8
FRONT
10
0.000000
20
0.367030
30
0.0
11
0.000000
21
-0.367030
31
0.0
0
LINE
8
FRONT
10
9.000000
20
0.367030
30
0.0
11
9.000000
21
-0.367030
31
0.0
0
LINE
8
TOP
10
0.000000
20
2.555102
30
0.0
11
0.112500
21
2.558385
31
0.0
0
LINE
8
TOP
10
0.112500
20
2.558385
30
0.0
11
0.225000
21
2.561668
31
0.0
0
LINE
8
TOP
10
0.225000
20
2.561668
30
0.0
11
0.337500
21
2.564951
31
0.0
0
LINE
8
TOP
10
0.337500
20
2.564951
30
0.0
11
0.450000
21
2.568234
31
0.0
0
LINE
8
TOP
10
0.450000
20
2.568234
30
0.0
11
0.500000
21
2.569693
31
0.0
0
LINE
8
TOP
10
0.500000
20
2.569693
30
0.0
11
0.562500
21
2.571517
31
0.0
0
LINE
8
TOP
10
0.562500
20
2.571517
30
0.0
11
0.675000
21
2.574800
31
0.0
0
LINE
8
TOP
10
0.675000
20
2.574800
30
0.0
11
0.787500
21
2.578082
31
0.0
0
LINE
8
TOP
10
0.787500
20
2.578082
30
0.0
11
0.900000
21
2.581365
31
0.0
0
LINE
8
TOP
10
0.900000
20
2.581365
30
0.0
11
1.012500
21
2.584648
31
0.0
0
LINE
8
TOP
10
1.012500
20
2.584648
30
0.0
11
1.125000
21
2.587931
31
0.0
0
LINE
8
TOP
10
1.125000
20
2.587931
30
0.0
11
1.237500
21
2.591214
31
0.0
0
LINE
8
TOP
10
1.237500
20
2.591214
30
0.0
11
1.350000
21
2.594497
31
0.0
0
LINE
8
TOP
10
1.350000
20
2.594497
30
0.0
11
1.462500
21
2.597780
31
0.0
0
LINE
8
TOP
10
1.462500
20
2.597780
30
0.0
11
1.575000
21
2.601062
31
0.0
0
LINE
8
TOP
10
1.575000
20
2.601062
30
0.0
11
1.687500
21
2.604345
31
0.0
0
LINE
8
TOP
10
1.687500
20
2.604345
30
0.0
11
1.800000
21
2.607628
31
0.0
0
LINE
8
TOP
10
1.800000
20
2.607628
30
0.0
11
1.912500
21
2.610911
31
0.0
0
LINE
8
TOP
10
1.912500
20
2.610911
30
0.0
11
2.025000
21
2.614194
31
0.0
0
LINE
8
TOP
10
2.025000
20
2.614194
30
0.0
11
2.137500
21
2.617477
31
0.0
0
LINE
8
TOP
10
2.137500
20
2.617477
30
0.0
11
2.250000
21
2.620759
31
0.0
0
LINE
8
TOP
10
2.250000
20
2.620759
30
0.0
11
2.362500
21
2.624042
31
0.0
0
LINE
8
TOP
10
2.362500
20
2.624042
30
0.0
11
2.475000
21
2.627325
31
0.0
0
LINE
8
TOP
10
2.475000
20
2.627325
30
0.0
11
2.587500
21
2.630608
31
0.0
0
LINE
8
TOP
10
2.587500
20
2.630608
30
0.0
11
2.700000
21
2.633891
31
0.0
0
LINE
8
TOP
10
2.700000
20
2.633891
30
0.0
11
2.812500
21
2.637174
31
0.0
0
LINE
8
TOP
10
2.812500
20
2.637174
30
0.0
11
2.925000
21
2.640457
31
0.0
0
LINE
8
TOP
10
2.925000
20
2.640457
30
0.0
11
3.037500
21
2.643739
31
0.0
0
LINE
8
TOP
10
3.037500
20
2.643739
30
0.0
11
3.150000
21
2.647022
31
0.0
0
LINE
8
TOP
10
3.150000
20
2.647022
30
0.0
11
3.262500
21
2.650305
31
0.0
0
LINE
8
TOP
10
3.262500
20
2.650305
30
0.0
11
3.375000
21
2.653588
31
0.0
0
LINE
8
TOP
10
3.375000
20
2.653588
30
0.0
11
3.487500
21
2.656871
31
0.0
0
LINE
8
TOP
10
3.487500
20
2.656871
30
0.0
11
3.600000
21
2.660154
31
0.0
0
LINE
8
TOP
10
3.600000
20
2.660154
30
0.0
11
3.712500
21
2.663437
31
0.0
0
LINE
8
TOP
10
3.712500
20
2.663437
30
0.0
11
3.825000
21
2.666719
31
0.0
0
LINE
8
TOP
10
3.825000
20
2.666719
30
0.0
11
3.937500
21
2.670002
31
0.0
0
LINE
8
TOP
10
3.937500
20
2.670002
30
0.0
11
4.050000
21
2.673285
31
0.0
0
LINE
8
TOP
10
4.050000
20
2.673285
30
0.0
11
4.162500
21
2.676568
31
0.0
0
LINE
8
TOP
10
4.162500
20
2.676568
30
0.0
11
4.275000
21
2.679851
31
0.0
0
LINE
8
TOP
10
4.275000
20
2.679851
30
0.0
11
4.387500
21
2.683134
31
0.0
0
LINE
8
TOP
10
4.387500
20
2.683134
30
0.0
11
4.500000
21
2.686416
31
0.0
0
LINE
8
TOP
10
4.500000
20
2.686416
30
0.0
11
4.612500
21
2.683134
31
0.0
0
LINE
8
TOP
10
4.612500
20
2.683134
30
0.0
11
4.725000
21
2.679851
31
0.0
0
LINE
8
TOP
10
4.725000
20
2.679851
30
0.0
11
4.837500
21
2.676568
31
0.0
0
LINE
8
TOP
10
4.837500
20
2.676568
30
0.0
11
4.950000
21
2.673285
31
0.0
0
LINE
8
TOP
10
4.950000
20
2.673285
30
0.0
11
5.062500
21
2.670002
31
0.0
0
LINE
8
TOP
10
5.062500
20
2.670002
30
0.0
11
5.175000
21
2.666719
31
0.0
0
LINE
8
TOP
10
5.175000
20
2.666719
30
0.0
11
5.287500
21
2.663437
31
0.0
0
LINE
8
TOP
10
5.287500
20
2.663437
30
0.0
11
5.400000
21
2.660154
31
0.0
0
LINE
8
TOP
10
5.400000
20
2.660154
30
0.0
11
5.512500
21
2.656871
31
0.0
0
LINE
8
TOP
10
5.512500
20
2.656871
30
0.0
11
5.625000
21
2.653588
31
0.0
0
LINE
8
TOP
10
5.625000
20
2.653588
30
0.0
11
5.737500
21
2.650305
31
0.0
0
LINE
8
TOP
10
5.737500
20
2.650305
30
0.0
11
5.850000
21
2.647022
31
0.0
0
LINE
8
TOP
10
5.850000
20
2.647022
30
0.0
11
5.962500
21
2.643739
31
0.0
0
LINE
8
TOP
10
5.962500
20
2.643739
30
0.0
11
6.075000
21
2.640457
31
0.0
0
LINE
8
TOP
10
6.075000
20
2.640457
30
0.0
11
6.187500
21
2.637174
31
0.0
0
LINE
8
TOP
10
6.187500
20
2.637174
30
0.0
11
6.300000
21
2.633891
31
0.0
0
LINE
8
TOP
10
6.300000
20
2.633891
30
0.0
11
6.412500
21
2.630608
31
0.0
0
LINE
8
TOP
10
6.412500
20
2.630608
30
0.0
11
6.525000
21
2.627325
31
0.0
0
LINE
8
TOP
10
6.525000
20
2.627325
30
0.0
11
6.637500
21
2.624042
31
0.0
0
LINE
8
TOP
10
6.637500
20
2.624042
30
0.0
11
6.750000
21
2.620759
31
0.0
0
LINE
8
TOP
10
6.750000
20
2.620759
30
0.0
11
6.862500
21
2.617477
31
0.0
0
LINE
8
TOP
10
6.862500
20
2.617477
30
0.0
11
6.975000
21
2.614194
31
0.0
0
LINE
8
TOP
10
6.975000
20
2.614194
30
0.0
11
7.087500
21
2.610911
31
0.0
0
LINE
8
TOP
10
7.087500
20
2.610911
30
0.0
11
7.200000
21
2.607628
31
0.0
0
LINE
8
TOP
10
7.200000
20
2.607628
30
0.0
11
7.312500
21
2.604345
31
0.0
0
LINE
8
TOP
10
7.312500
20
2.604345
30
0.0
11
7.425000
21
2.601062
31
0.0
0
LINE
8
TOP
10
7.425000
20
2.601062
30
0.0
11
7.537500
21
2.597780
31
0.0
0
LINE
8
TOP
10
7.537500
20
2.597780
30
0.0
11
7.650000
21
2.594497
31
0.0
0
LINE
8
TOP
10
7.650000
20
2.594497
30
0.0
11
7.762500
21
2.591214
31
0.0
0
LINE
8
TOP
10
7.762500
20
2.591214
30
0.0
11
7.875000
21
2.587931
31
0.0
0
LINE
8
TOP
10
7.875000
20
2.587931
30
0.0
11
7.987500
21
2.584648
31
0.0
0
LINE
8
TOP
10
7.987500
20
2.584648
30
0.0
11
8.100000
21
2.581365
31
0.0
0
LINE
8
TOP
10
8.100000
20
2.581365
30
0.0
11
8.212500
21
2.578082
31
0.0
0
LINE
8
TOP
10
8.212500
20
2.578082
30
0.0
11
8.325000
21
2.574800
31
0.0
0
LINE
8
TOP
10
8.325000
20
2.574800
30
0.0
11
8.437500
21
2.571517
31
0.0
0
LINE
8
TOP
10
8.437500
20
2.571517
30
0.0
11
8.500000
21
2.569693
31
0.0
0
LINE
8
TOP
10
8.500000
20
2.569693
30
0.0
11
8.550000
21
2.568234
31
0.0
0
LINE
8
TOP
10
8.550000
20
2.568234
30
0.0
11
8.662500
21
2.564951
31
0.0
0
LINE
8
TOP
10
8.662500
20
2.564951
30
0.0
11
8.775000
21
2.561668
31
0.0
0
LINE
8
TOP
10
8.775000
20
2.561668
30
0.0
11
8.887500
21
2.558385
31
0.0
0
LINE
8
TOP
10
8.887500
20
2.558385
30
0.0
11
9.000000
21
2.555102
31
0.0
0
LINE
8
TOP
10
0.000000
20
2.335102
30
0.0
11
0.112500
21
2.331820
31
0.0
0
LINE
8
TOP
10
0.112500
20
2.331820
30
0.0
11
0.225000
21
2.328537
31
0.0
0
LINE
8
TOP
10
0.225000
20
2.328537
30
0.0
11
0.337500
21
2.325254
31
0.0
0
LINE
8
TOP
10
0.337500
20
2.325254
30
0.0
11
0.450000
21
2.321971
31
0.0
0
LINE
8
TOP
10
0.450000
20
2.321971
30
0.0
11
0.500000
21
2.320512
31
0.0
0
LINE
8
TOP
10
0.500000
20
2.320512
30
0.0
11
0.562500
21
2.318688
31
0.0
0
LINE
8
TOP
10
0.562500
20
2.318688
30
0.0
11
0.675000
21
2.315405
31
0.0
0
LINE
8
TOP
10
0.675000
20
2.315405
30
0.0
11
0.787500
21
2.312123
31
0.0
0
LINE
8
TOP
10
0.787500
20
2.312123
30
0.0
11
0.900000
21
2.308840
31
0.0
0
LINE
8
TOP
10
0.900000
20
2.308840
30
0.0
11
1.012500
21
2.305557
31
0.0
0
LINE
8
TOP
10
1.012500
20
2.305557
30
0.0
11
1.125000
21
2.302274
31
0.0
0
LINE
8
TOP
10
1.125000
20
2.302274
30
0.0
11
1.237500
21
2.298991
31
0.0
0
LINE
8
TOP
10
1.237500
20
2.298991
30
0.0
11
1.350000
21
2.295708
31
0.0
0
LINE
8
TOP
10
1.350000
20
2.295708
30
0.0
11
1.462500
21
2.292425
31
0.0
0
LINE
8
TOP
10
1.462500
20
2.292425
30
0.0
11
1.575000
21
2.289143
31
0.0
0
LINE
8
TOP
10
1.575000
20
2.289143
30
0.0
11
1.687500
21
2.285860
31
0.0
0
LINE
8
TOP
10
1.687500
20
2.285860
30
0.0
11
1.800000
21
2.282577
31
0.0
0
LINE
8
TOP
10
1.800000
20
2.282577
30
0.0
11
1.912500
21
2.279294
31
0.0
0
LINE
8
TOP
10
1.912500
20
2.279294
30
0.0
11
2.025000
21
2.276011
31
0.0
0
LINE
8
TOP
10
2.025000
20
2.276011
30
0.0
11
2.137500
21
2.272728
31
0.0
0
LINE
8
TOP
10
2.137500
20
2.272728
30
0.0
11
2.250000
21
2.269446
31
0.0
0
LINE
8
TOP
10
2.250000
20
2.269446
30
0.0
11
2.362500
21
2.266163
31
0.0
0
LINE
8
TOP
10
2.362500
20
2.266163
30
0.0
11
2.475000
21
2.262880
31
0.0
0
LINE
8
TOP
10
2.475000
20
2.262880
30
0.0
11
2.587500
21
2.259597
31
0.0
0
LINE
8
TOP
10
2.587500
20
2.259597
30
0.0
11
2.700000
21
2.256314
31
0.0
0
LINE
8
TOP
10
2.700000
20
2.256314
30
0.0
11
2.812500
21
2.253031
31
0.0
0
LINE
8
TOP
10
2.812500
20
2.253031
30
0.0
11
2.925000
21
2.249748
31
0.0
0
LINE
8
TOP
10
2.925000
20
2.249748
30
0.0
11
3.037500
21
2.246466
31
0.0
0
LINE
8
TOP
10
3.037500
20
2.246466
30
0.0
11
3.150000
21
2.243183
31
0.0
0
LINE
8
TOP
10
3.150000
20
2.243183
30
0.0
11
3.262500
21
2.239900
31
0.0
0
LINE
8
TOP
10
3.262500
20
2.239900
30
0.0
11
3.375000
21
2.236617
31
0.0
0
LINE
8
TOP
10
3.375000
20
2.236617
30
0.0
11
3.487500
21
2.233334
31
0.0
0
LINE
8
TOP
10
3.487500
20
2.233334
30
0.0
11
3.600000
21
2.230051
31
0.0
0
LINE
8
TOP
10
3.600000
20
2.230051
30
0.0
11
3.712500
21
2.226768
31
0.0
0
LINE
8
TOP
10
3.712500
20
2.226768
30
0.0
11
3.825000
21
2.223486
31
0.0
0
LINE
8
TOP
10
3.825000
20
2.223486
30
0.0
11
3.937500
21
2.220203
31
0.0
0
LINE
8
TOP
10
3.937500
20
2.220203
30
0.0
11
4.050000
21
2.216920
31
0.0
0
LINE
8
TOP
10
4.050000
20
2.216920
30
0.0
11
4.162500
21
2.213637
31
0.0
0
LINE
8
TOP
10
4.162500
20
2.213637
30
0.0
11
4.275000
21
2.210354
31
0.0
0
LINE
8
TOP
10
4.275000
20
2.210354
30
0.0
11
4.387500
21
2.207071
31
0.0
0
LINE
8
TOP
10
4.387500
20
2.207071
30
0.0
11
4.500000
21
2.203789
31
0.0
0
LINE
8
TOP
10
4.500000
20
2.203789
30
0.0
11
4.612500
21
2.207071
31
0.0
0
LINE
8
TOP
10
4.612500
20
2.207071
30
0.0
11
4.725000
21
2.210354
31
0.0
0
LINE
8
TOP
10
4.725000
20
2.210354
30
0.0
11
4.837500
21
2.213637
31
0.0
0
LINE
8
TOP
10
4.837500
20
2.213637
30
0.0
11
4.950000
21
2.216920
31
0.0
0
LINE
8
TOP
10
4.950000
20
2.216920
30
0.0
11
5.062500
21
2.220203
31
0.0
0
LINE
8
TOP
10
5.062500
20
2.220203
30
0.0
11
5.175000
21
2.223486
31
0.0
0
LINE
8
TOP
10
5.175000
20
2.223486
30
0.0
11
5.287500
21
2.226768
31
0.0
0
LINE
8
TOP
10
5.287500
20
2.226768
30
0.0
11
5.400000
21
2.230051
31
0.0
0
LINE
8
TOP
10
5.400000
20
2.230051
30
0.0
11
5.512500
21
2.233334
31
0.0
0
LINE
8
TOP
10
5.512500
20
2.233334
30
0.0
11
5.625000
21
2.236617
31
0.0
0
LINE
8
TOP
10
5.625000
20
2.236617
30
0.0
11
5.737500
21
2.239900
31
0.0
0
LINE
8
TOP
10
5.737500
20
2.239900
30
0.0
11
5.850000
21
2.243183
31
0.0
0
LINE
8
TOP
10
5.850000
20
2.243183
30
0.0
11
5.962500
21
2.246466
31
0.0
0
LINE
8
TOP
10
5.962500
20
2.246466
30
0.0
11
6.075000
21
2.249748
31
0.0
0
LINE
8
TOP
10
6.075000
20
2.249748
30
0.0
11
6.187500
21
2.253031
31
0.0
0
LINE
8
TOP
10
6.187500
20
2.253031
30
0.0
11
6.300000
21
2.256314
31
0.0
0
LINE
8
TOP
10
6.300000
20
2.256314
30
0.0
11
6.412500
21
2.259597
31
0.0
0
LINE
8
TOP
10
6.412500
20
2.259597
30
0.0
11
6.525000
21
2.262880
31
0.0
0
LINE
8
TOP
10
6.525000
20
2.262880
30
0.0
11
6.637500
21
2.266163
31
0.0
0
LINE
8
TOP
10
6.637500
20
2.266163
30
0.0
11
6.750000
21
2.269446
31
0.0
0
LINE
8
TOP
10
6.750000
20
2.269446
30
0.0
11
6.862500
21
2.272728
31
0.0
0
LINE
8
TOP
10
6.862500
20
2.272728
30
0.0
11
6.975000
21
2.276011
31
0.0
0
LINE
8
TOP
10
6.975000
20
2.276011
30
0.0
11
7.087500
21
2.279294
31
0.0
0
LINE
8
TOP
10
7.087500
20
2.279294
30
0.0
11
7.200000
21
2.282577
31
0.0
0
LINE
8
TOP
10
7.200000
20
2.282577
30
0.0
11
7.312500
21
2.285860
31
0.0
0
LINE
8
TOP
10
7.312500
20
2.285860
30
0.0
11
7.425000
21
2.289143
31
0.0
0
LINE
8
TOP
10
7.425000
20
2.289143
30
0.0
11
7.537500
21
2.292425
31
0.0
0
LINE
8
TOP
10
7.537500
20
2.292425
30
0.0
11
7.650000
21
2.295708
31
0.0
0
LINE
8
TOP
10
7.650000
20
2.295708
30
0.0
11
7.762500
21
2.298991
31
0.0
0
LINE
8
TOP
10
7.762500
20
2.298991
30
0.0
11
7.875000
21
2.302274
31
0.0
0
LINE
8
TOP
10
7.875000
20
2.302274
30
0.0
11
7.987500
21
2.305557
31
0.0
0
LINE
8
TOP
10
7.987500
20
2.305557
30
0.0
11
8.100000
21
2.308840
31
0.0
0
LINE
8
TOP
10
8.100000
20
2.308840
30
0.0
11
8.212500
21
2.312123
31
0.0
0
LINE
8
TOP
10
8.212500
20
2.312123
30
0.0
11
8.325000
21
2.315405
31
0.0
0
LINE
8
TOP
10
8.325000
20
2.315405
30
0.0
11
8.437500
21
2.318688
31
0.0
0
LINE
8
TOP
10
8.437500
20
2.318688
30
0.0
11
8.500000
21
2.320512
31
0.0
0
LINE
8
TOP
10
8.500000
20
2.320512
30
0.0
11
8.550000
21
2.321971
31
0.0
0
LINE
8
TOP
10
8.550000
20
2.321971
30
0.0
11
8.662500
21
2.325254
31
0.0
0
LINE
8
TOP
10
8.662500
20
2.325254
30
0.0
11
8.775000
21
2.328537
31
0.0
0
LINE
8
TOP
10
8.775000
20
2.328537
30
0.0
11
8.887500
21
2.331820
31
0.0
0
LINE
8
TOP
10
8.887500
20
2.331820
30
0.0
11
9.000000
21
2.335102
31
0.0
0
LINE
8
TOP
10
0.000000
20
2.555102
30
0.0
11
0.000000
21
2.335102
31
0.0
0
LINE
8
TOP
10
9.000000
20
2.555102
30
0.0
11
9.000000
21
2.335102
31
0.0
0
LINE
8
SECTION
10
10.258686
20
-0.565034
30
0.0
11
10.741314
21
-0.565034
31
0.0
0
LINE
8
SECTION
10
10.741314
20
-0.565034
30
0.0
11
10.741314
21
0.565034
31
0.0
0
LINE
8
SECTION
10
10.741314
20
0.565034
30
0.0
11
10.258686
21
0.565034
31
0.0
0
LINE
8
SECTION
10
10.258686
20
0.565034
30
0.0
11
10.258686
21
-0.565034
31
0.0
0
LINE
8
SECTION
10
10.300307
20
-0.523413
30
0.0
11
10.699693
21
-0.523413
31
0.0
0
LINE
8
SECTION
10
10.699693
20
-0.523413
30
0.0
11
10.699693
21
0.523413
31
0.0
0
LINE
8
SECTION
10
10.699693
20
0.523413
30
0.0
11
10.300307
21
0.523413
31
0.0
0
LINE
8
SECTION
10
10.300307
20
0.523413
30
0.0
11
10.300307
21
-0.523413
31
0.0
0
LINE
8
SECTION
10
10.300307
20
0.420257
30
0.0
11
10.341929
21
0.420257
31
0.0
0
LINE
8
SECTION
10
10.341929
20
0.420257
30
0.0
11
10.341929
21
0.523413
31
0.0
0
LINE
8
SECTION
10
10.341929
20
0.523413
30
0.0
11
10.300307
21
0.523413
31
0.0
0
LINE
8
SECTION
10
10.300307
20
0.523413
30
0.0
11
10.300307
21
0.420257
31
0.0
0
LINE
8
SECTION
10
10.300307
20
-0.523413
30
0.0
11
10.341929
21
-0.523413
31
0.0
0
LINE
8
SECTION
10
10.341929
20
-0.523413
30
0.0
11
10.341929
21
-0.420257
31
0.0
0
LINE
8
SECTION
10
10.341929
20
-0.420257
30
0.0
11
10.300307
21
-0.420257
31
0.0
0
LINE
8
SECTION
10
10.300307
20
-0.420257
30
0.0
11
10.300307
21
-0.523413
31
0.0
0
LINE
8
SECTION
10
10.658071
20
0.420257
30
0.0
11
10.699693
21
0.420257
31
0.0
0
LINE
8
SECTION
10
10.699693
20
0.420257
30
0.0
11
10.699693
21
0.523413
31
0.0
0
LINE
8
SECTION
10
10.699693
20
0.523413
30
0.0
11
10.658071
21
0.523413
31
0.0
0
LINE
8
SECTION
10
10.658071
20
0.523413
30
0.0
11
10.658071
21
0.420257
31
0.0
0
LINE
8
SECTION
10
10.658071
20
-0.523413
30
0.0
11
10.699693
21
-0.523413
31
0.0
0
LINE
8
SECTION
10
10.699693
20
-0.523413
30
0.0
11
10.699693
21
-0.420257
31
0.0
0
LINE
8
SECTION
10
10.699693
20
-0.420257
30
0.0
11
10.658071
21
-0.420257
31
0.0
0
LINE
8
SECTION
10
10.658071
20
-0.420257
30
0.0
11
10.658071
21
-0.523413
31
0.0
0
ENDSEC
0
EOF
