0
SECTION
2
HEADER
9
$INSUNITS
70
1
0
ENDSEC
0
SECTION
2
ENTITIES
0
LINE
8
FRONT
10
0.000000
20
0.197738
30
0.0
11
0.112500
21
0.199319
31
0.0
0
LINE
8
FRONT
10
0.112500
20
0.199319
30
0.0
11
0.225000
21
0.200900
31
0.0
0
LINE
8
FRONT
10
0.225000
20
0.200900
30
0.0
11
0.337500
21
0.202480
31
0.0
0
LINE
8
FRONT
10
0.337500
20
0.202480
30
0.0
11
0.450000
21
0.204061
31
0.0
0
LINE
8
FRONT
10
0.450000
20
0.204061
30
0.0
11
0.500000
21
0.204764
31
0.0
0
LINE
8
FRONT
10
0.500000
20
0.204764
30
0.0
11
0.562500
21
0.205642
31
0.0
0
LINE
8
FRONT
10
0.562500
20
0.205642
30
0.0
11
0.675000
21
0.207222
31
0.0
0
LINE
8
FRONT
10
0.675000
20
0.207222
30
0.0
11
0.787500
21
0.208803
31
0.0
0
LINE
8
FRONT
10
0.787500
20
0.208803
30
0.0
11
0.900000
21
0.210384
31
0.0
0
LINE
8
FRONT
10
0.900000
20
0.210384
30
0.0
11
1.012500
21
0.211964
31
0.0
0
LINE
8
FRONT
10
1.012500
20
0.211964
30
0.0
11
1.125000
21
0.213545
31
0.0
0
LINE
8
FRONT
10
1.125000
20
0.213545
30
0.0
11
1.237500
21
0.215126
31
0.0
0
LINE
8
FRONT
10
1.237500
20
0.215126
30
0.0
11
1.350000
21
0.216707
31
0.0
0
LINE
8
FRONT
10
1.350000
20
0.216707
30
0.0
11
1.462500
21
0.218287
31
0.0
0
LINE
8
FRONT
10
1.462500
20
0.218287
30
0.0
11
1.575000
21
0.219868
31
0.0
0
LINE
8
FRONT
10
1.575000
20
0.219868
30
0.0
11
1.687500
21
0.221449
31
0.0
0
LINE
8
FRONT
10
1.687500
20
0.221449
30
0.0
11
1.800000
21
0.223029
31
0.0
0
LINE
8
FRONT
10
1.800000
20
0.223029
30
0.0
11
1.912500
21
0.224610
31
0.0
0
LINE
8
FRONT
10
1.912500
20
0.224610
30
0.0
11
2.025000
21
0.226191
31
0.0
0
LINE
8
FRONT
10
2.025000
20
0.226191
30
0.0
11
2.137500
21
0.227771
31
0.0
0
LINE
8
FRONT
10
2.137500
20
0.227771
30
0.0
11
2.250000
21
0.229352
31
0.0
0
LINE
8
FRONT
10
2.250000
20
0.229352
30
0.0
11
2.362500
21
0.230933
31
0.0
0
LINE
8
FRONT
10
2.362500
20
0.230933
30
0.0
11
2.475000
21
0.232513
31
0.0
0
LINE
8
FRONT
10
2.475000
20
0.232513
30
0.0
11
2.587500
21
0.234094
31
0.0
0
LINE
8
FRONT
10
2.587500
20
0.234094
30
0.0
11
2.700000
21
0.235675
31
0.0
0
LINE
8
FRONT
10
2.700000
20
0.235675
30
0.0
11
2.812500
21
0.237255
31
0.0
0
LINE
8
FRONT
10
2.812500
20
0.237255
30
0.0
11
2.925000
21
0.238836
31
0.0
0
LINE
8
FRONT
10
2.925000
20
0.238836
30
0.0
11
3.037500
21
0.240417
31
0.0
0
LINE
8
FRONT
10
3.037500
20
0.240417
30
0.0
11
3.150000
21
0.241998
31
0.0
0
LINE
8
FRONT
10
3.150000
20
0.241998
30
0.0
11
3.262500
21
0.243578
31
0.0
0
LINE
8
FRONT
10
3.262500
20
0.243578
30
0.0
11
3.375000
21
0.245159
31
0.0
0
LINE
8
FRONT
10
3.375000
20
0.245159
30
0.0
11
3.487500
21
0.246740
31
0.0
0
LINE
8
FRONT
10
3.487500
20
0.246740
30
0.0
11
3.600000
21
0.248320
31
0.0
0
LINE
8
FRONT
10
3.600000
20
0.248320
30
0.0
11
3.712500
21
0.249901
31
0.0
0
LINE
8
FRONT
10
3.712500
20
0.249901
30
0.0
11
3.825000
21
0.251482
31
0.0
0
LINE
8
FRONT
10
3.825000
20
0.251482
30
0.0
11
3.937500
21
0.253062
31
0.0
0
LINE
8
FRONT
10
3.937500
20
0.253062
30
0.0
11
4.050000
21
0.254643
31
0.0
0
LINE
8
FRONT
10
4.050000
20
0.254643
30
0.0
11
4.162500
21
0.256224
31
0.0
0
LINE
8
FRONT
10
4.162500
20
0.256224
30
0.0
11
4.275000
21
0.257804
31
0.0
0
LINE
8
FRONT
10
4.275000
20
0.257804
30
0.0
11
4.387500
21
0.259385
31
0.0
0
LINE
8
FRONT
10
4.387500
20
0.259385
30
0.0
11
4.500000
21
0.260966
31
0.0
0
LINE
8
FRONT
10
4.500000
20
0.260966
30
0.0
11
4.612500
21
0.259385
31
0.0
0
LINE
8
FRONT
10
4.612500
20
0.259385
30
0.0
11
4.725000
21
0.257804
31
0.0
0
LINE
8
FRONT
10
4.725000
20
0.257804
30
0.0
11
4.837500
21
0.256224
31
0.0
0
LINE
8
FRONT
10
4.837500
20
0.256224
30
0.0
11
4.950000
21
0.254643
31
0.0
0
LINE
8
FRONT
10
4.950000
20
0.254643
30
0.0
11
5.062500
21
0.253062
31
0.0
0
LINE
8
FRONT
10
5.062500
20
0.253062
30
0.0
11
5.175000
21
0.251482
31
0.0
0
LINE
8
FRONT
10
5.175000
20
0.251482
30
0.0
11
5.287500
21
0.249901
31
0.0
0
LINE
8
FRONT
10
5.287500
20
0.249901
30
0.0
11
5.400000
21
0.248320
31
0.0
0
LINE
8
FRONT
10
5.400000
20
0.248320
30
0.0
11
5.512500
21
0.246740
31
0.0
0
LINE
8
FRONT
10
5.512500
20
0.246740
30
0.0
11
5.625000
21
0.245159
31
0.0
0
LINE
8
FRONT
10
5.625000
20
0.245159
30
0.0
11
5.737500
21
0.243578
31
0.0
0
LINE
8
FRONT
10
5.737500
20
0.243578
30
0.0
11
5.850000
21
0.241998
31
0.0
0
LINE
8
FRONT
10
5.850000
20
0.241998
30
0.0
11
5.962500
21
0.240417
31
0.0
0
LINE
8
FRONT
10
5.962500
20
0.240417
30
0.0
11
6.075000
21
0.238836
31
0.0
0
LINE
8
FRONT
10
6.075000
20
0.238836
30
0.0
11
6.187500
21
0.237255
31
0.0
0
LINE
8
FRONT
10
6.187500
20
0.237255
30
0.0
11
6.300000
21
0.235675
31
0.0
0
LINE
8
FRONT
10
6.300000
20
0.235675
30
0.0
11
6.412500
21
0.234094
31
0.0
0
LINE
8
FRONT
10
6.412500
20
0.234094
30
0.0
11
6.525000
21
0.232513
31
0.0
0
LINE
8
FRONT
10
6.525000
20
0.232513
30
0.0
11
6.637500
21
0.230933
31
0.0
0
LINE
8
FRONT
10
6.637500
20
0.230933
30
0.0
11
6.750000
21
0.229352
31
0.0
0
LINE
8
FRONT
10
6.750000
20
0.229352
30
0.0
11
6.862500
21
0.227771
31
0.0
0
LINE
8
FRONT
10
6.862500
20
0.227771
30
0.0
11
6.975000
21
0.226191
31
0.0
0
LINE
8
FRONT
10
6.975000
20
0.226191
30
0.0
11
7.087500
21
0.224610
31
0.0
0
LINE
8
FRONT
10
7.087500
20
0.224610
30
0.0
11
7.200000
21
0.223029
31
0.0
0
LINE
8
FRONT
10
7.200000
20
0.223029
30
0.0
11
7.312500
21
0.221449
31
0.0
0
LINE
8
FRONT
10
7.312500
20
0.221449
30
0.0
11
7.425000
21
0.219868
31
0.0
0
LINE
8
FRONT
10
7.425000
20
0.219868
30
0.0
11
7.537500
21
0.218287
31
0.0
0
LINE
8
FRONT
10
7.537500
20
0.218287
30
0.0
11
7.650000
21
0.216707
31
0.0
0
LINE
8
FRONT
10
7.650000
20
0.216707
30
0.0
11
7.762500
21
0.215126
31
0.0
0
LINE
8
FRONT
10
7.762500
20
0.215126
30
0.0
11
7.875000
21
0.213545
31
0.0
0
LINE
8
FRONT
10
7.875000
20
0.213545
30
0.0
11
7.987500
21
0.211964
31
0.0
0
LINE
8
FRONT
10
7.987500
20
0.211964
30
0.0
11
8.100000
21
0.210384
31
0.0
0
LINE
8
FRONT
10
8.100000
20
0.210384
30
0.0
11
8.212500
21
0.208803
31
0.0
0
LINE
8
FRONT
10
8.212500
20
0.208803
30
0.0
11
8.325000
21
0.207222
31
0.0
0
LINE
8
FRONT
10
8.325000
20
0.207222
30
0.0
11
8.437500
21
0.205642
31
0.0
0
LINE
8
FRONT
10
8.437500
20
0.205642
30
0.0
11
8.500000
21
0.204764
31
0.0
0
LINE
8
FRONT
10
8.500000
20
0.204764
30
0.0
11
8.550000
21
0.204061
31
0.0
0
LINE
8
FRONT
10
8.550000
20
0.204061
30
0.0
11
8.662500
21
0.202480
31
0.0
0
LINE
8
FRONT
10
8.662500
20
0.202480
30
0.0
11
8.775000
21
0.200900
31
0.0
0
LINE
8
FRONT
10
8.775000
20
0.200900
30
0.0
11
8.887500
21
0.199319
31
0.0
0
LINE
8
FRONT
10
8.887500
20
0.199319
30
0.0
11
9.000000
21
0.197738
31
0.0
0
LINE
8
FRONT
10
0.000000
20
-0.197738
30
0.0
11
0.112500
21
-0.199319
31
0.0
0
LINE
8
FRONT
10
0.112500
20
-0.199319
30
0.0
11
0.225000
21
-0.200900
31
0.0
0
LINE
8
FRONT
10
0.225000
20
-0.200900
30
0.0
11
0.337500
21
-0.202480
31
0.0
0
LINE
8
FRONT
10
0.337500
20
-0.202480
30
0.0
11
0.450000
21
-0.204061
31
0.0
0
LINE
8
FRONT
10
0.450000
20
-0.204061
30
0.0
11
0.500000
21
-0.204764
31
0.0
0
LINE
8
FRONT
10
0.500000
20
-0.204764
30
0.0
11
0.562500
21
-0.205642
31
0.0
0
LINE
8
FRONT
10
0.562500
20
-0.205642
30
0.0
11
0.675000
21
-0.207222
31
0.0
0
LINE
8
FRONT
10
0.675000
20
-0.207222
30
0.0
11
0.787500
21
-0.208803
31
0.0
0
LINE
8
FRONT
10
0.787500
20
-0.208803
30
0.0
11
0.900000
21
-0.210384
31
0.0
0
LINE
8
FRONT
10
0.900000
20
-0.210384
30
0.0
11
1.012500
21
-0.211964
31
0.0
0
LINE
8
FRONT
10
1.012500
20
-0.211964
30
0.0
11
1.125000
21
-0.213545
31
0.0
0
LINE
8
FRONT
10
1.125000
20
-0.213545
30
0.0
11
1.237500
21
-0.215126
31
0.0
0
LINE
8
FRONT
10
1.237500
20
-0.215126
30
0.0
11
1.350000
21
-0.216707
31
0.0
0
LINE
8
FRONT
10
1.350000
20
-0.216707
30
0.0
11
1.462500
21
-0.218287
31
0.0
0
LINE
8
FRONT
10
1.462500
20
-0.218287
30
0.0
11
1.575000
21
-0.219868
31
0.0
0
LINE
8
FRONT
10
1.575000
20
-0.219868
30
0.0
11
1.687500
21
-0.221449
31
0.0
0
LINE
8
FRONT
10
1.687500
20
-0.221449
30
0.0
11
1.800000
21
-0.223029
31
0.0
0
LINE
8
FRONT
10
1.800000
20
-0.223029
30
0.0
11
1.912500
21
-0.224610
31
0.0
0
LINE
8
FRONT
10
1.912500
20
-0.224610
30
0.0
11
2.025000
21
-0.226191
31
0.0
0
LINE
8
FRONT
10
2.025000
20
-0.226191
30
0.0
11
2.137500
21
-0.227771
31
0.0
0
LINE
8
FRONT
10
2.137500
20
-0.227771
30
0.0
11
2.250000
21
-0.229352
31
0.0
0
LINE
8
FRONT
10
2.250000
20
-0.229352
30
0.0
11
2.362500
21
-0.230933
31
0.0
0
LINE
8
FRONT
10
2.362500
20
-0.230933
30
0.0
11
2.475000
21
-0.232513
31
0.0
0
LINE
8
FRONT
10
2.475000
20
-0.232513
30
0.0
11
2.587500
21
-0.234094
31
0.0
0
LINE
8
FRONT
10
2.587500
20
-0.234094
30
0.0
11
2.700000
21
-0.235675
31
0.0
0
LINE
8
FRONT
10
2.700000
20
-0.235675
30
0.0
11
2.812500
21
-0.237255
31
0.0
0
LINE
8
FRONT
10
2.812500
20
-0.237255
30
0.0
11
2.925000
21
-0.238836
31
0.0
0
LINE
8
FRONT
10
2.925000
20
-0.238836
30
0.0
11
3.037500
21
-0.240417
31
0.0
0
LINE
8
FRONT
10
3.037500
20
-0.240417
30
0.0
11
3.150000
21
-0.241998
31
0.0
0
LINE
8
FRONT
10
3.150000
20
-0.241998
30
0.0
11
3.262500
21
-0.243578
31
0.0
0
LINE
8
FRONT
10
3.262500
20
-0.243578
30
0.0
11
3.375000
21
-0.245159
31
0.0
0
LINE
8
FRONT
10
3.375000
20
-0.245159
30
0.0
11
3.487500
21
-0.246740
31
0.0
0
LINE
8
FRONT
10
3.487500
20
-0.246740
30
0.0
11
3.600000
21
-0.248320
31
0.0
0
LINE
8
FRONT
10
3.600000
20
-0.248320
30
0.0
11
3.712500
21
-0.249901
31
0.0
0
LINE
8
FRONT
10
3.712500
20
-0.249901
30
0.0
11
3.825000
21
-0.251482
31
0.0
0
LINE
8
FRONT
10
3.825000
20
-0.251482
30
0.0
11
3.937500
21
-0.253062
31
0.0
0
LINE
8
FRONT
10
3.937500
20
-0.253062
30
0.0
11
4.050000
21
-0.254643
31
0.0
0
LINE
8
FRONT
10
4.050000
20
-0.254643
30
0.0
11
4.162500
21
-0.256224
31
0.0
0
LINE
8
FRONT
10
4.162500
20
-0.256224
30
0.0
11
4.275000
21
-0.257804
31
0.0
0
LINE
8
FRONT
10
4.275000
20
-0.257804
30
0.0
11
4.387500
21
-0.259385
31
0.0
0
LINE
8
FRONT
10
4.387500
20
-0.259385
30
0.0
11
4.500000
21
-0.260966
31
0.0
0
LINE
8
FRONT
10
4.500000
20
-0.260966
30
0.0
11
4.612500
21
-0.259385
31
0.0
0
LINE
8
FRONT
10
4.612500
20
-0.259385
30
0.0
11
4.725000
21
-0.257804
31
0.0
0
LINE
8
FRONT
10
4.725000
20
-0.257804
30
0.0
11
4.837500
21
-0.256224
31
0.0
0
LINE
8
FRONT
10
4.837500
20
-0.256224
30
0.0
11
4.950000
21
-0.254643
31
0.0
0
LINE
8
FRONT
10
4.950000
20
-0.254643
30
0.0
11
5.062500
21
-0.253062
31
0.0
0
LINE
8
FRONT
10
5.062500
20
-0.253062
30
0.0
11
5.175000
21
-0.251482
31
0.0
0
LINE
8
FRONT
10
5.175000
20
-0.251482
30
0.0
11
5.287500
21
-0.249901
31
0.0
0
LINE
8
FRONT
10
5.287500
20
-0.249901
30
0.0
11
5.400000
21
-0.248320
31
0.0
0
LINE
8
FRONT
10
5.400000
20
-0.248320
30
0.0
11
5.512500
21
-0.246740
31
0.0
0
LINE
8
FRONT
10
5.512500
20
-0.246740
30
0.0
11
5.625000
21
-0.245159
31
0.0
0
LINE
8
FRONT
10
5.625000
20
-0.245159
30
0.0
11
5.737500
21
-0.243578
31
0.0
0
LINE
8
FRONT
10
5.737500
20
-0.243578
30
0.0
11
5.850000
21
-0.241998
31
0.0
0
LINE
8
FRONT
10
5.850000
20
-0.241998
30
0.0
11
5.962500
21
-0.240417
31
0.0
0
LINE
8
FRONT
10
5.962500
20
-0.240417
30
0.0
11
6.075000
21
-0.238836
31
0.0
0
LINE
8
FRONT
10
6.075000
20
-0.238836
30
0.0
11
6.187500
21
-0.237255
31
0.0
0
LINE
8
FRONT
10
6.187500
20
-0.237255
30
0.0
11
6.300000
21
-0.235675
31
0.0
0
LINE
8
FRONT
10
6.300000
20
-0.235675
30
0.0
11
6.412500
21
-0.234094
31
0.0
0
LINE
8
FRONT
10
6.412500
20
-0.234094
30
0.0
11
6.525000
21
-0.232513
31
0.0
0
LINE
8
FRONT
10
6.525000
20
-0.232513
30
0.0
11
6.637500
21
-0.230933
31
0.0
0
LINE
8
FRONT
10
6.637500
20
-0.230933
30
0.0
11
6.750000
21
-0.229352
31
0.0
0
LINE
8
FRONT
10
6.750000
20
-0.229352
30
0.0
11
6.862500
21
-0.227771
31
0.0
0
LINE
8
FRONT
10
6.862500
20
-0.227771
30
0.0
11
6.975000
21
-0.226191
31
0.0
0
LINE
8
FRONT
10
6.975000
20
-0.226191
30
0.0
11
7.087500
21
-0.224610
31
0.0
0
LINE
8
FRONT
10
7.087500
20
-0.224610
30
0.0
11
7.200000
21
-0.223029
31
0.0
0
LINE
8
FRONT
10
7.200000
20
-0.223029
30
0.0
11
7.312500
21
-0.221449
31
0.0
0
LINE
8
FRONT
10
7.312500
20
-0.221449
30
0.0
11
7.425000
21
-0.219868
31
0.0
0
LINE
8
FRONT
10
7.425000
20
-0.219868
30
0.0
11
7.537500
21
-0.218287
31
0.0
0
LINE
8
FRONT
10
7.537500
20
-0.218287
30
0.0
11
7.650000
21
-0.216707
31
0.0
0
LINE
8
FRONT
10
7.650000
20
-0.216707
30
0.0
11
7.762500
21
-0.215126
31
0.0
0
LINE
8
FRONT
10
7.762500
20
-0.215126
30
0.0
11
7.875000
21
-0.213545
31
0.0
0
LINE
8
FRONT
10
7.875000
20
-0.213545
30
0.0
11
7.987500
21
-0.211964
31
0.0
0
LINE
8
FRONT
10
7.987500
20
-0.211964
30
0.0
11
8.100000
21
-0.210384
31
0.0
0
LINE
8
FRONT
10
8.100000
20
-0.210384
30
0.0
11
8.212500
21
-0.208803
31
0.0
0
LINE
8
FRONT
10
8.212500
20
-0.208803
30
0.0
11
8.325000
21
-0.207222
31
0.0
0
LINE
8
FRONT
10
8.325000
20
-0.207222
30
0.0
11
8.437500
21
-0.205642
31
0.0
0
LINE
8
FRONT
10
8.437500
20
-0.205642
30
0.0
11
8.500000
21
-0.204764
31
0.0
0
LINE
8
FRONT
10
8.500000
20
-0.204764
30
0.0
11
8.550000
21
-0.204061
31
0.0
0
LINE
8
FRONT
10
8.550000
20
-0.204061
30
0.0
11
8.662500
21
-0.202480
31
0.0
0
LINE
8
FRONT
10
8.662500
20
-0.202480
30
0.0
11
8.775000
21
-0.200900
31
0.0
0
LINE
8
FRONT
10
8.775000
20
-0.200900
30
0.0
11
8.887500
21
-0.199319
31
0.0
0
LINE
8
FRONT
10
8.887500
20
-0.199319
30
0.0
11
9.000000
21
-0.197738
31
0.0
0
LINE
8
FRONT
10
0.000000
20
0.197738
30
0.0
11
0.000000
21
-0.197738
31
0.0
0
LINE
8
FRONT
10
9.000000
20
0.197738
30
0.0
11
9.000000
21
-0.197738
31
0.0
0
LINE
8
TOP
10
0.000000
20
2.243866
30
0.0
11
0.112500
21
2.245431
31
0.0
0
LINE
8
TOP
10
0.112500
20
2.245431
30
0.0
11
0.225000
21
2.246997
31
0.0
0
LINE
8
TOP
10
0.225000
20
2.246997
30
0.0
11
0.337500
21
2.248562
31
0.0
0
LINE
8
TOP
10
0.337500
20
2.248562
30
0.0
11
0.450000
21
2.250127
31
0.0
0
LINE
8
TOP
10
0.450000
20
2.250127
30
0.0
11
0.500000
21
2.250823
31
0.0
0
LINE
8
TOP
10
0.500000
20
2.250823
30
0.0
11
0.562500
21
2.251693
31
0.0
0
LINE
8
TOP
10
0.562500
20
2.251693
30
0.0
11
0.675000
21
2.253258
31
0.0
0
LINE
8
TOP
10
0.675000
20
2.253258
30
0.0
11
0.787500
21
2.254824
31
0.0
0
LINE
8
TOP
10
0.787500
20
2.254824
30
0.0
11
0.900000
21
2.256389
31
0.0
0
LINE
8
TOP
10
0.900000
20
2.256389
30
0.0
11
1.012500
21
2.257954
31
0.0
0
LINE
8
TOP
10
1.012500
20
2.257954
30
0.0
11
1.125000
21
2.259520
31
0.0
0
LINE
8
TOP
10
1.125000
20
2.259520
30
0.0
11
1.237500
21
2.261085
31
0.0
0
LINE
8
TOP
10
1.237500
20
2.261085
30
0.0
11
1.350000
21
2.262651
31
0.0
0
LINE
8
TOP
10
1.350000
20
2.262651
30
0.0
11
1.462500
21
2.264216
31
0.0
0
LINE
8
TOP
10
1.462500
20
2.264216
30
0.0
11
1.575000
21
2.265781
31
0.0
0
LINE
8
TOP
10
1.575000
20
2.265781
30
0.0
11
1.687500
21
2.267347
31
0.0
0
LINE
8
TOP
10
1.687500
20
2.267347
30
0.0
11
1.800000
21
2.268912
31
0.0
0
LINE
8
TOP
10
1.800000
20
2.268912
30
0.0
11
1.912500
21
2.270478
31
0.0
0
LINE
8
TOP
10
1.912500
20
2.270478
30
0.0
11
2.025000
21
2.272043
31
0.0
0
LINE
8
TOP
10
2.025000
20
2.272043
30
0.0
11
2.137500
21
2.273609
31
0.0
0
LINE
8
TOP
10
2.137500
20
2.273609
30
0.0
11
2.250000
21
2.275174
31
0.0
0
LINE
8
TOP
10
2.250000
20
2.275174
30
0.0
11
2.362500
21
2.276739
31
0.0
0
LINE
8
TOP
10
2.362500
20
2.276739
30
0.0
11
2.475000
21
2.278305
31
0.0
0
LINE
8
TOP
10
2.475000
20
2.278305
30
0.0
11
2.587500
21
2.279870
31
0.0
0
LINE
8
TOP
10
2.587500
20
2.279870
30
0.0
11
2.700000
21
2.281436
31
0.0
0
LINE
8
TOP
10
2.700000
20
2.281436
30
0.0
11
2.812500
21
2.283001
31
0.0
0
LINE
8
TOP
10
2.812500
20
2.283001
30
0.0
11
2.925000
21
2.284566
31
0.0
0
LINE
8
TOP
10
2.925000
20
2.284566
30
0.0
11
3.037500
21
2.286132
31
0.0
0
LINE
8
TOP
10
3.037500
20
2.286132
30
0.0
11
3.150000
21
2.287697
31
0.0
0
LINE
8
TOP
10
3.150000
20
2.287697
30
0.0
11
3.262500
21
2.289263
31
0.0
0
LINE
8
TOP
10
3.262500
20
2.289263
30
0.0
11
3.375000
21
2.290828
31
0.0
0
LINE
8
TOP
10
3.375000
20
2.290828
30
0.0
11
3.487500
21
2.292394
31
0.0
0
LINE
8
TOP
10
3.487500
20
2.292394
30
0.0
11
3.600000
21
2.293959
31
0.0
0
LINE
8
TOP
10
3.600000
20
2.293959
30
0.0
11
3.712500
21
2.295524
31
0.0
0
LINE
8
TOP
10
3.712500
20
2.295524
30
0.0
11
3.825000
21
2.297090
31
0.0
0
LINE
8
TOP
10
3.825000
20
2.297090
30
0.0
11
3.937500
21
2.298655
31
0.0
0
LINE
8
TOP
10
3.937500
20
2.298655
30
0.0
11
4.050000
21
2.300221
31
0.0
0
LINE
8
TOP
10
4.050000
20
2.300221
30
0.0
11
4.162500
21
2.301786
31
0.0
0
LINE
8
TOP
10
4.162500
20
2.301786
30
0.0
11
4.275000
21
2.303351
31
0.0
0
LINE
8
TOP
10
4.275000
20
2.303351
30
0.0
11
4.387500
21
2.304917
31
0.0
0
LINE
8
TOP
10
4.387500
20
2.304917
30
0.0
11
4.500000
21
2.306482
31
0.0
0
LINE
8
TOP
10
4.500000
20
2.306482
30
0.0
11
4.612500
21
2.304917
31
0.0
0
LINE
8
TOP
10
4.612500
20
2.304917
30
0.0
11
4.725000
21
2.303351
31
0.0
0
LINE
8
TOP
10
4.725000
20
2.303351
30
0.0
11
4.837500
21
2.301786
31
0.0
0
LINE
8
TOP
10
4.837500
20
2.301786
30
0.0
11
4.950000
21
2.300221
31
0.0
0
LINE
8
TOP
10
4.950000
20
2.300221
30
0.0
11
5.062500
21
2.298655
31
0.0
0
LINE
8
TOP
10
5.062500
20
2.298655
30
0.0
11
5.175000
21
2.297090
31
0.0
0
LINE
8
TOP
10
5.175000
20
2.297090
30
0.0
11
5.287500
21
2.295524
31
0.0
0
LINE
8
TOP
10
5.287500
20
2.295524
30
0.0
11
5.400000
21
2.293959
31
0.0
0
LINE
8
TOP
10
5.400000
20
2.293959
30
0.0
11
5.512500
21
2.292394
31
0.0
0
LINE
8
TOP
10
5.512500
20
2.292394
30
0.0
11
5.625000
21
2.290828
31
0.0
0
LINE
8
TOP
10
5.625000
20
2.290828
30
0.0
11
5.737500
21
2.289263
31
0.0
0
LINE
8
TOP
10
5.737500
20
2.289263
30
0.0
11
5.850000
21
2.287697
31
0.0
0
LINE
8
TOP
10
5.850000
20
2.287697
30
0.0
11
5.962500
21
2.286132
31
0.0
0
LINE
8
TOP
10
5.962500
20
2.286132
30
0.0
11
6.075000
21
2.284566
31
0.0
0
LINE
8
TOP
10
6.075000
20
2.284566
30
0.0
11
6.187500
21
2.283001
31
0.0
0
LINE
8
TOP
10
6.187500
20
2.283001
30
0.0
11
6.300000
21
2.281436
31
0.0
0
LINE
8
TOP
10
6.300000
20
2.281436
30
0.0
11
6.412500
21
2.279870
31
0.0
0
LINE
8
TOP
10
6.412500
20
2.279870
30
0.0
11
6.525000
21
2.278305
31
0.0
0
LINE
8
TOP
10
6.525000
20
2.278305
30
0.0
11
6.637500
21
2.276739
31
0.0
0
LINE
8
TOP
10
6.637500
20
2.276739
30
0.0
11
6.750000
21
2.275174
31
0.0
0
LINE
8
TOP
10
6.750000
20
2.275174
30
0.0
11
6.862500
21
2.273609
31
0.0
0
LINE
8
TOP
10
6.862500
20
2.273609
30
0.0
11
6.975000
21
2.272043
31
0.0
0
LINE
8
TOP
10
6.975000
20
2.272043
30
0.0
11
7.087500
21
2.270478
31
0.0
0
LINE
8
TOP
10
7.087500
20
2.270478
30
0.0
11
7.200000
21
2.268912
31
0.0
0
LINE
8
TOP
10
7.200000
20
2.268912
30
0.0
11
7.312500
21
2.267347
31
0.0
0
LINE
8
TOP
10
7.312500
20
2.267347
30
0.0
11
7.425000
21
2.265781
31
0.0
0
LINE
8
TOP
10
7.425000
20
2.265781
30
0.0
11
7.537500
21
2.264216
31
0.0
0
LINE
8
TOP
10
7.537500
20
2.264216
30
0.0
11
7.650000
21
2.262651
31
0.0
0
LINE
8
TOP
10
7.650000
20
2.262651
30
0.0
11
7.762500
21
2.261085
31
0.0
0
LINE
8
TOP
10
7.762500
20
2.261085
30
0.0
11
7.875000
21
2.259520
31
0.0
0
LINE
8
TOP
10
7.875000
20
2.259520
30
0.0
11
7.987500
21
2.257954
31
0.0
0
LINE
8
TOP
10
7.987500
20
2.257954
30
0.0
11
8.100000
21
2.256389
31
0.0
0
LINE
8
TOP
10
8.100000
20
2.256389
30
0.0
11
8.212500
21
2.254824
31
0.0
0
LINE
8
TOP
10
8.212500
20
2.254824
30
0.0
11
8.325000
21
2.253258
31
0.0
0
LINE
8
TOP
10
8.325000
20
2.253258
30
0.0
11
8.437500
21
2.251693
31
0.0
0
LINE
8
TOP
10
8.437500
20
2.251693
30
0.0
11
8.500000
21
2.250823
31
0.0
0
LINE
8
TOP
10
8.500000
20
2.250823
30
0.0
11
8.550000
21
2.250127
31
0.0
0
LINE
8
TOP
10
8.550000
20
2.250127
30
0.0
11
8.662500
21
2.248562
31
0.0
0
LINE
8
TOP
10
8.662500
20
2.248562
30
0.0
11
8.775000
21
2.246997
31
0.0
0
LINE
8
TOP
10
8.775000
20
2.246997
30
0.0
11
8.887500
21
2.245431
31
0.0
0
LINE
8
TOP
10
8.887500
20
2.245431
30
0.0
11
9.000000
21
2.243866
31
0.0
0
LINE
8
TOP
10
0.000000
20
1.590858
30
0.0
11
0.112500
21
1.589292
31
0.0
0
LINE
8
TOP
10
0.112500
20
1.589292
30
0.0
11
0.225000
21
1.587727
31
0.0
0
LINE
8
TOP
10
0.225000
20
1.587727
30
0.0
11
0.337500
21
1.586161
31
0.0
0
LINE
8
TOP
10
0.337500
20
1.586161
30
0.0
11
0.450000
21
1.584596
31
0.0
0
LINE
8
TOP
10
0.450000
20
1.584596
30
0.0
11
0.500000
21
1.583900
31
0.0
0
LINE
8
TOP
10
0.500000
20
1.583900
30
0.0
11
0.562500
21
1.583031
31
0.0
0
LINE
8
TOP
10
0.562500
20
1.583031
30
0.0
11
0.675000
21
1.581465
31
0.0
0
LINE
8
TOP
10
0.675000
20
1.581465
30
0.0
11
0.787500
21
1.579900
31
0.0
0
LINE
8
TOP
10
0.787500
20
1.579900
30
0.0
11
0.900000
21
1.578334
31
0.0
0
LINE
8
TOP
10
0.900000
20
1.578334
30
0.0
11
1.012500
21
1.576769
31
0.0
0
LINE
8
TOP
10
1.012500
20
1.576769
30
0.0
11
1.125000
21
1.575204
31
0.0
0
LINE
8
TOP
10
1.125000
20
1.575204
30
0.0
11
1.237500
21
1.573638
31
0.0
0
LINE
8
TOP
10
1.237500
20
1.573638
30
0.0
11
1.350000
21
1.572073
31
0.0
0
LINE
8
TOP
10
1.350000
20
1.572073
30
0.0
11
1.462500
21
1.570507
31
0.0
0
LINE
8
TOP
10
1.462500
20
1.570507
30
0.0
11
1.575000
21
1.568942
31
0.0
0
LINE
8
TOP
10
1.575000
20
1.568942
30
0.0
11
1.687500
21
1.567376
31
0.0
0
LINE
8
TOP
10
1.687500
20
1.567376
30
0.0
11
1.800000
21
1.565811
31
0.0
0
LINE
8
TOP
10
1.800000
20
1.565811
30
0.0
11
1.912500
21
1.564246
31
0.0
0
LINE
8
TOP
10
1.912500
20
1.564246
30
0.0
11
2.025000
21
1.562680
31
0.0
0
LINE
8
TOP
10
2.025000
20
1.562680
30
0.0
11
2.137500
21
1.561115
31
0.0
0
LINE
8
TOP
10
2.137500
20
1.561115
30
0.0
11
2.250000
21
1.559549
31
0.0
0
LINE
8
TOP
10
2.250000
20
1.559549
30
0.0
11
2.362500
21
1.557984
31
0.0
0
LINE
8
TOP
10
2.362500
20
1.557984
30
0.0
11
2.475000
21
1.556419
31
0.0
0
LINE
8
TOP
10
2.475000
20
1.556419
30
0.0
11
2.587500
21
1.554853
31
0.0
0
LINE
8
TOP
10
2.587500
20
1.554853
30
0.0
11
2.700000
21
1.553288
31
0.0
0
LINE
8
TOP
10
2.700000
20
1.553288
30
0.0
11
2.812500
21
1.551722
31
0.0
0
LINE
8
TOP
10
2.812500
20
1.551722
30
0.0
11
2.925000
21
1.550157
31
0.0
0
LINE
8
TOP
10
2.925000
20
1.550157
30
0.0
11
3.037500
21
1.548591
31
0.0
0
LINE
8
TOP
10
3.037500
20
1.548591
30
0.0
11
3.150000
21
1.547026
31
0.0
0
LINE
8
TOP
10
3.150000
20
1.547026
30
0.0
11
3.262500
21
1.545461
31
0.0
0
LINE
8
TOP
10
3.262500
20
1.545461
30
0.0
11
3.375000
21
1.543895
31
0.0
0
LINE
8
TOP
10
3.375000
20
1.543895
30
0.0
11
3.487500
21
1.542330
31
0.0
0
LINE
8
TOP
10
3.487500
20
1.542330
30
0.0
11
3.600000
21
1.540764
31
0.0
0
LINE
8
TOP
10
3.600000
20
1.540764
30
0.0
11
3.712500
21
1.539199
31
0.0
0
LINE
8
TOP
10
3.712500
20
1.539199
30
0.0
11
3.825000
21
1.537634
31
0.0
0
LINE
8
TOP
10
3.825000
20
1.537634
30
0.0
11
3.937500
21
1.536068
31
0.0
0
LINE
8
TOP
10
3.937500
20
1.536068
30
0.0
11
4.050000
21
1.534503
31
0.0
0
LINE
8
TOP
10
4.050000
20
1.534503
30
0.0
11
4.162500
21
1.532937
31
0.0
0
LINE
8
TOP
10
4.162500
20
1.532937
30
0.0
11
4.275000
21
1.531372
31
0.0
0
LINE
8
TOP
10
4.275000
20
1.531372
30
0.0
11
4.387500
21
1.529807
31
0.0
0
LINE
8
TOP
10
4.387500
20
1.529807
30
0.0
11
4.500000
21
1.528241
31
0.0
0
LINE
8
TOP
10
4.500000
20
1.528241
30
0.0
11
4.612500
21
1.529807
31
0.0
0
LINE
8
TOP
10
4.612500
20
1.529807
30
0.0
11
4.725000
21
1.531372
31
0.0
0
LINE
8
TOP
10
4.725000
20
1.531372
30
0.0
11
4.837500
21
1.532937
31
0.0
0
LINE
8
TOP
10
4.837500
20
1.532937
30
0.0
11
4.950000
21
1.534503
31
0.0
0
LINE
8
TOP
10
4.950000
20
1.534503
30
0.0
11
5.062500
21
1.536068
31
0.0
0
LINE
8
TOP
10
5.062500
20
1.536068
30
0.0
11
5.175000
21
1.537634
31
0.0
0
LINE
8
TOP
10
5.175000
20
1.537634
30
0.0
11
5.287500
21
1.539199
31
0.0
0
LINE
8
TOP
10
5.287500
20
1.539199
30
0.0
11
5.400000
21
1.540764
31
0.0
0
LINE
8
TOP
10
5.400000
20
1.540764
30
0.0
11
5.512500
21
1.542330
31
0.0
0
LINE
8
TOP
10
5.512500
20
1.542330
30
0.0
11
5.625000
21
1.543895
31
0.0
0
LINE
8
TOP
10
5.625000
20
1.543895
30
0.0
11
5.737500
21
1.545461
31
0.0
0
LINE
8
TOP
10
5.737500
20
1.545461
30
0.0
11
5.850000
21
1.547026
31
0.0
0
LINE
8
TOP
10
5.850000
20
1.547026
30
0.0
11
5.962500
21
1.548591
31
0.0
0
LINE
8
TOP
10
5.962500
20
1.548591
30
0.0
11
6.075000
21
1.550157
31
0.0
0
LINE
8
TOP
10
6.075000
20
1.550157
30
0.0
11
6.187500
21
1.551722
31
0.0
0
LINE
8
TOP
10
6.187500
20
1.551722
30
0.0
11
6.300000
21
1.553288
31
0.0
0
LINE
8
TOP
10
6.300000
20
1.553288
30
0.0
11
6.412500
21
1.554853
31
0.0
0
LINE
8
TOP
10
6.412500
20
1.554853
30
0.0
11
6.525000
21
1.556419
31
0.0
0
LINE
8
TOP
10
6.525000
20
1.556419
30
0.0
11
6.637500
21
1.557984
31
0.0
0
LINE
8
TOP
10
6.637500
20
1.557984
30
0.0
11
6.750000
21
1.559549
31
0.0
0
LINE
8
TOP
10
6.750000
20
1.559549
30
0.0
11
6.862500
21
1.561115
31
0.0
0
LINE
8
TOP
10
6.862500
20
1.561115
30
0.0
11
6.975000
21
1.562680
31
0.0
0
LINE
8
TOP
10
6.975000
20
1.562680
30
0.0
11
7.087500
21
1.564246
31
0.0
0
LINE
8
TOP
10
7.087500
20
1.564246
30
0.0
11
7.200000
21
1.565811
31
0.0
0
LINE
8
TOP
10
7.200000
20
1.565811
30
0.0
11
7.312500
21
1.567376
31
0.0
0
LINE
8
TOP
10
7.312500
20
1.567376
30
0.0
11
7.425000
21
1.568942
31
0.0
0
LINE
8
TOP
10
7.425000
20
1.568942
30
0.0
11
7.537500
21
1.570507
31
0.0
0
LINE
8
TOP
10
7.537500
20
1.570507
30
0.0
11
7.650000
21
1.572073
31
0.0
0
LINE
8
TOP
10
7.650000
20
1.572073
30
0.0
11
7.762500
21
1.573638
31
0.0
0
LINE
8
TOP
10
7.762500
20
1.573638
30
0.0
11
7.875000
21
1.575204
31
0.0
0
LINE
8
TOP
10
7.875000
20
1.575204
30
0.0
11
7.987500
21
1.576769
31
0.0
0
LINE
8
TOP
10
7.987500
20
1.576769
30
0.0
11
8.100000
21
1.578334
31
0.0
0
LINE
8
TOP
10
8.100000
20
1.578334
30
0.0
11
8.212500
21
1.579900
31
0.0
0
LINE
8
TOP
10
8.212500
20
1.579900
30
0.0
11
8.325000
21
1.581465
31
0.0
0
LINE
8
TOP
10
8.325000
20
1.581465
30
0.0
11
8.437500
21
1.583031
31
0.0
0
LINE
8
TOP
10
8.437500
20
1.583031
30
0.0
11
8.500000
21
1.583900
31
0.0
0
LINE
8
TOP
10
8.500000
20
1.583900
30
0.0
11
8.550000
21
1.584596
31
0.0
0
LINE
8
TOP
10
8.550000
20
1.584596
30
0.0
11
8.662500
21
1.586161
31
0.0
0
LINE
8
TOP
10
8.662500
20
1.586161
30
0.0
11
8.775000
21
1.587727
31
0.0
0
LINE
8
TOP
10
8.775000
20
1.587727
30
0.0
11
8.887500
21
1.589292
31
0.0
0
LINE
8
TOP
10
8.887500
20
1.589292
30
0.0
11
9.000000
21
1.590858
31
0.0
0
LINE
8
TOP
10
0.000000
20
2.243866
30
0.0
11
0.000000
21
1.590858
31
0.0
0
LINE
8
TOP
10
9.000000
20
2.243866
30
0.0
11
9.000000
21
1.590858
31
0.0
0
LINE
8
SECTION
10
10.110879
20
-0.260966
30
0.0
11
10.889121
21
-0.260966
31
0.0
0
LINE
8
SECTION
10
10.889121
20
-0.260966
30
0.0
11
10.889121
21
0.260966
31
0.0
0
LINE
8
SECTION
10
10.889121
20
0.260966
30
0.0
11
10.110879
21
0.260966
31
0.0
0
LINE
8
SECTION
10
10.110879
20
0.260966
30
0.0
11
10.110879
21
-0.260966
31
0.0
0
LINE
8
SECTION
10
10.150879
20
-0.220966
30
0.0
11
10.849121
21
-0.220966
31
0.0
0
LINE
8
SECTION
10
10.849121
20
-0.220966
30
0.0
11
10.849121
21
0.220966
31
0.0
0
LINE
8
SECTION
10
10.849121
20
0.220966
30
0.0
11
10.150879
21
0.220966
31
0.0
0
LINE
8
SECTION
10
10.150879
20
0.220966
30
0.0
11
10.150879
21
-0.220966
31
0.0
0
LINE
8
SECTION
10
10.150879
20
0.000000
30
0.0
11
10.190879
21
0.000000
31
0.0
0
LINE
8
SECTION
10
10.190879
20
0.000000
30
0.0
11
10.190879
21
0.220966
31
0.0
0
LINE
8
SECTION
10
10.190879
20
0.220966
30
0.0
11
10.150879
21
0.220966
31
0.0
0
LINE
8
SECTION
10
10.150879
20
0.220966
30
0.0
11
10.150879
21
0.000000
31
0.0
0
LINE
8
SECTION
10
10.150879
20
-0.220966
30
0.0
11
10.190879
21
-0.220966
31
0.0
0
LINE
8
SECTION
10
10.190879
20
-0.220966
30
0.0
11
10.190879
21
0.000000
31
0.0
0
LINE
8
SECTION
10
10.190879
20
0.000000
30
0.0
11
10.150879
21
0.000000
31
0.0
0
LINE
8
SECTION
10
10.150879
20
0.000000
30
0.0
11
10.150879
21
-0.220966
31
0.0
0
LINE
8
SECTION
10
10.809121
20
0.000000
30
0.0
11
10.849121
21
0.000000
31
0.0
0
LINE
8
SECTION
10
10.849121
20
0.000000
30
0.0
11
10.849121
21
0.220966
31
0.0
0
LINE
8
SECTION
10
10.849121
20
0.220966
30
0.0
11
10.809121
21
0.220966
31
0.0
0
LINE
8
SECTION
10
10.809121
20
0.220966
30
0.0
11
10.809121
21
0.000000
31
0.0
0
LINE
8
SECTION
10
10.809121
20
-0.220966
30
0.0
11
10.849121
21
-0.220966
31
0.0
0
LINE
8
SECTION
10
10.849121
20
-0.220966
30
0.0
11
10.849121
21
0.000000
31
0.0
0
LINE
8
SECTION
10
10.849121
20
0.000000
30
0.0
11
10.809121
21
0.000000
31
0.0
0
LINE
8
SECTION
10
10.809121
20
0.000000
30
0.0
11
10.809121
21
-0.220966
31
0.0
0
ENDSEC
0
EOF
