0
SECTION
2
HEADER
9
$INSUNITS
70
1
0
ENDSEC
0
SECTION
2
ENTITIES
0
LINE
8
FRONT
10
0.000000
20
0.464267
30
0.0
11
0.112500
21
0.459692
31
0.0
0
LINE
8
FRONT
10
0.112500
20
0.459692
30
0.0
11
0.225000
21
0.455118
31
0.0
0
LINE
8
FRONT
10
0.225000
20
0.455118
30
0.0
11
0.337500
21
0.450543
31
0.0
0
LINE
8
FRONT
10
0.337500
20
0.450543
30
0.0
11
0.450000
21
0.445968
31
0.0
0
LINE
8
FRONT
10
0.450000
20
0.445968
30
0.0
11
0.500000
21
0.443935
31
0.0
0
LINE
8
FRONT
10
0.500000
20
0.443935
30
0.0
11
0.562500
21
0.441393
31
0.0
0
LINE
8
FRONT
10
0.562500
20
0.441393
30
0.0
11
0.675000
21
0.436818
31
0.0
0
LINE
8
FRONT
10
0.675000
20
0.436818
30
0.0
11
0.787500
21
0.432244
31
0.0
0
LINE
8
FRONT
10
0.787500
20
0.432244
30
0.0
11
0.900000
21
0.427669
31
0.0
0
LINE
8
FRONT
10
0.900000
20
0.427669
30
0.0
11
1.012500
21
0.423094
31
0.0
0
LINE
8
FRONT
10
1.012500
20
0.423094
30
0.0
11
1.125000
21
0.418519
31
0.0
0
LINE
8
FRONT
10
1.125000
20
0.418519
30
0.0
11
1.237500
21
0.413944
31
0.0
0
LINE
8
FRONT
10
1.237500
20
0.413944
30
0.0
11
1.350000
21
0.409370
31
0.0
0
LINE
8
FRONT
10
1.350000
20
0.409370
30
0.0
11
1.462500
21
0.404795
31
0.0
0
LINE
8
FRONT
10
1.462500
20
0.404795
30
0.0
11
1.575000
21
0.400220
31
0.0
0
LINE
8
FRONT
10
1.575000
20
0.400220
30
0.0
11
1.687500
21
0.395645
31
0.0
0
LINE
8
FRONT
10
1.687500
20
0.395645
30
0.0
11
1.800000
21
0.391070
31
0.0
0
LINE
8
FRONT
10
1.800000
20
0.391070
30
0.0
11
1.912500
21
0.386495
31
0.0
0
LINE
8
FRONT
10
1.912500
20
0.386495
30
0.0
11
2.025000
21
0.381921
31
0.0
0
LINE
8
FRONT
10
2.025000
20
0.381921
30
0.0
11
2.137500
21
0.377346
31
0.0
0
LINE
8
FRONT
10
2.137500
20
0.377346
30
0.0
11
2.250000
21
0.372771
31
0.0
0
LINE
8
FRONT
10
2.250000
20
0.372771
30
0.0
11
2.362500
21
0.368196
31
0.0
0
LINE
8
FRONT
10
2.362500
20
0.368196
30
0.0
11
2.475000
21
0.363621
31
0.0
0
LINE
8
FRONT
10
2.475000
20
0.363621
30
0.0
11
2.587500
21
0.359047
31
0.0
0
LINE
8
FRONT
10
2.587500
20
0.359047
30
0.0
11
2.700000
21
0.354472
31
0.0
0
LINE
8
FRONT
10
2.700000
20
0.354472
30
0.0
11
2.812500
21
0.349897
31
0.0
0
LINE
8
FRONT
10
2.812500
20
0.349897
30
0.0
11
2.925000
21
0.345322
31
0.0
0
LINE
8
FRONT
10
2.925000
20
0.345322
30
0.0
11
3.037500
21
0.340747
31
0.0
0
LINE
8
FRONT
10
3.037500
20
0.340747
30
0.0
11
3.150000
21
0.336173
31
0.0
0
LINE
8
FRONT
10
3.150000
20
0.336173
30
0.0
11
3.262500
21
0.331598
31
0.0
0
LINE
8
FRONT
10
3.262500
20
0.331598
30
0.0
11
3.375000
21
0.327023
31
0.0
0
LINE
8
FRONT
10
3.375000
20
0.327023
30
0.0
11
3.487500
21
0.322448
31
0.0
0
LINE
8
FRONT
10
3.487500
20
0.322448
30
0.0
11
3.600000
21
0.317873
31
0.0
0
LINE
8
FRONT
10
3.600000
20
0.317873
30
0.0
11
3.712500
21
0.313298
31
0.0
0
LINE
8
FRONT
10
3.712500
20
0.313298
30
0.0
11
3.825000
21
0.308724
31
0.0
0
LINE
8
FRONT
10
3.825000
20
0.308724
30
0.0
11
3.937500
21
0.304149
31
0.0
0
LINE
8
FRONT
10
3.937500
20
0.304149
30
0.0
11
4.050000
21
0.299574
31
0.0
0
LINE
8
FRONT
10
4.050000
20
0.299574
30
0.0
11
4.162500
21
0.294999
31
0.0
0
LINE
8
FRONT
10
4.162500
20
0.294999
30
0.0
11
4.275000
21
0.290424
31
0.0
0
LINE
8
FRONT
10
4.275000
20
0.290424
30
0.0
11
4.387500
21
0.285850
31
0.0
0
LINE
8
FRONT
10
4.387500
20
0.285850
30
0.0
11
4.500000
21
0.281275
31
0.0
0
LINE
8
FRONT
10
4.500000
20
0.281275
30
0.0
11
4.612500
21
0.280243
31
0.0
0
LINE
8
FRONT
10
4.612500
20
0.280243
30
0.0
11
4.725000
21
0.279211
31
0.0
0
LINE
8
FRONT
10
4.725000
20
0.279211
30
0.0
11
4.837500
21
0.278179
31
0.0
0
LINE
8
FRONT
10
4.837500
20
0.278179
30
0.0
11
4.950000
21
0.277147
31
0.0
0
LINE
8
FRONT
10
4.950000
20
0.277147
30
0.0
11
5.062500
21
0.276115
31
0.0
0
LINE
8
FRONT
10
5.062500
20
0.276115
30
0.0
11
5.175000
21
0.275084
31
0.0
0
LINE
8
FRONT
10
5.175000
20
0.275084
30
0.0
11
5.287500
21
0.274052
31
0.0
0
LINE
8
FRONT
10
5.287500
20
0.274052
30
0.0
11
5.400000
21
0.273020
31
0.0
0
LINE
8
FRONT
10
5.400000
20
0.273020
30
0.0
11
5.512500
21
0.271988
31
0.0
0
LINE
8
FRONT
10
5.512500
20
0.271988
30
0.0
11
5.625000
21
0.270956
31
0.0
0
LINE
8
FRONT
10
5.625000
20
0.270956
30
0.0
11
5.737500
21
0.269924
31
0.0
0
LINE
8
FRONT
10
5.737500
20
0.269924
30
0.0
11
5.850000
21
0.268892
31
0.0
0
LINE
8
FRONT
10
5.850000
20
0.268892
30
0.0
11
5.962500
21
0.267860
31
0.0
0
LINE
8
FRONT
10
5.962500
20
0.267860
30
0.0
11
6.075000
21
0.266829
31
0.0
0
LINE
8
FRONT
10
6.075000
20
0.266829
30
0.0
11
6.187500
21
0.265797
31
0.0
0
LINE
8
FRONT
10
6.187500
20
0.265797
30
0.0
11
6.300000
21
0.264765
31
0.0
0
LINE
8
FRONT
10
6.300000
20
0.264765
30
0.0
11
6.412500
21
0.263733
31
0.0
0
LINE
8
FRONT
10
6.412500
20
0.263733
30
0.0
11
6.525000
21
0.262701
31
0.0
0
LINE
8
FRONT
10
6.525000
20
0.262701
30
0.0
11
6.637500
21
0.261669
31
0.0
0
LINE
8
FRONT
10
6.637500
20
0.261669
30
0.0
11
6.750000
21
0.260637
31
0.0
0
LINE
8
FRONT
10
6.750000
20
0.260637
30
0.0
11
6.862500
21
0.259606
31
0.0
0
LINE
8
FRONT
10
6.862500
20
0.259606
30
0.0
11
6.975000
21
0.258574
31
0.0
0
LINE
8
FRONT
10
6.975000
20
0.258574
30
0.0
11
7.087500
21
0.257542
31
0.0
0
LINE
8
FRONT
10
7.087500
20
0.257542
30
0.0
11
7.200000
21
0.256510
31
0.0
0
LINE
8
FRONT
10
7.200000
20
0.256510
30
0.0
11
7.312500
21
0.255478
31
0.0
0
LINE
8
FRONT
10
7.312500
20
0.255478
30
0.0
11
7.425000
21
0.254446
31
0.0
0
LINE
8
FRONT
10
7.425000
20
0.254446
30
0.0
11
7.537500
21
0.253414
31
0.0
0
LINE
8
FRONT
10
7.537500
20
0.253414
30
0.0
11
7.650000
21
0.252382
31
0.0
0
LINE
8
FRONT
10
7.650000
20
0.252382
30
0.0
11
7.762500
21
0.251351
31
0.0
0
LINE
8
FRONT
10
7.762500
20
0.251351
30
0.0
11
7.875000
21
0.250319
31
0.0
0
LINE
8
FRONT
10
7.875000
20
0.250319
30
0.0
11
7.987500
21
0.249287
31
0.0
0
LINE
8
FRONT
10
7.987500
20
0.249287
30
0.0
11
8.100000
21
0.248255
31
0.0
0
LINE
8
FRONT
10
8.100000
20
0.248255
30
0.0
11
8.212500
21
0.247223
31
0.0
0
LINE
8
FRONT
10
8.212500
20
0.247223
30
0.0
11
8.325000
21
0.246191
31
0.0
0
LINE
8
FRONT
10
8.325000
20
0.246191
30
0.0
11
8.437500
21
0.245159
31
0.0
0
LINE
8
FRONT
10
8.437500
20
0.245159
30
0.0
11
8.500000
21
0.244586
31
0.0
0
LINE
8
FRONT
10
8.500000
20
0.244586
30
0.0
11
8.550000
21
0.244127
31
0.0
0
LINE
8
FRONT
10
8.550000
20
0.244127
30
0.0
11
8.662500
21
0.243096
31
0.0
0
LINE
8
FRONT
10
8.662500
20
0.243096
30
0.0
11
8.775000
21
0.242064
31
0.0
0
LINE
8
FRONT
10
8.775000
20
0.242064
30
0.0
11
8.887500
21
0.241032
31
0.0
0
LINE
8
FRONT
10
8.887500
20
0.241032
30
0.0
11
9.000000
21
0.240000
31
0.0
0
LINE
8
FRONT
10
0.000000
20
-0.464267
30
0.0
11
0.112500
21
-0.459692
31
0.0
0
LINE
8
FRONT
10
0.112500
20
-0.459692
30
0.0
11
0.225000
21
-0.455118
31
0.0
0
LINE
8
FRONT
10
0.225000
20
-0.455118
30
0.0
11
0.337500
21
-0.450543
31
0.0
0
LINE
8
FRONT
10
0.337500
20
-0.450543
30
0.0
11
0.450000
21
-0.445968
31
0.0
0
LINE
8
FRONT
10
0.450000
20
-0.445968
30
0.0
11
0.500000
21
-0.443935
31
0.0
0
LINE
8
FRONT
10
0.500000
20
-0.443935
30
0.0
11
0.562500
21
-0.441393
31
0.0
0
LINE
8
FRONT
10
0.562500
20
-0.441393
30
0.0
11
0.675000
21
-0.436818
31
0.0
0
LINE
8
FRONT
10
0.675000
20
-0.436818
30
0.0
11
0.787500
21
-0.432244
31
0.0
0
LINE
8
FRONT
10
0.787500
20
-0.432244
30
0.0
11
0.900000
21
-0.427669
31
0.0
0
LINE
8
FRONT
10
0.900000
20
-0.427669
30
0.0
11
1.012500
21
-0.423094
31
0.0
0
LINE
8
FRONT
10
1.012500
20
-0.423094
30
0.0
11
1.125000
21
-0.418519
31
0.0
0
LINE
8
FRONT
10
1.125000
20
-0.418519
30
0.0
11
1.237500
21
-0.413944
31
0.0
0
LINE
8
FRONT
10
1.237500
20
-0.413944
30
0.0
11
1.350000
21
-0.409370
31
0.0
0
LINE
8
FRONT
10
1.350000
20
-0.409370
30
0.0
11
1.462500
21
-0.404795
31
0.0
0
LINE
8
FRONT
10
1.462500
20
-0.404795
30
0.0
11
1.575000
21
-0.400220
31
0.0
0
LINE
8
FRONT
10
1.575000
20
-0.400220
30
0.0
11
1.687500
21
-0.395645
31
0.0
0
LINE
8
FRONT
10
1.687500
20
-0.395645
30
0.0
11
1.800000
21
-0.391070
31
0.0
0
LINE
8
FRONT
10
1.800000
20
-0.391070
30
0.0
11
1.912500
21
-0.386495
31
0.0
0
LINE
8
FRONT
10
1.912500
20
-0.386495
30
0.0
11
2.025000
21
-0.381921
31
0.0
0
LINE
8
FRONT
10
2.025000
20
-0.381921
30
0.0
11
2.137500
21
-0.377346
31
0.0
0
LINE
8
FRONT
10
2.137500
20
-0.377346
30
0.0
11
2.250000
21
-0.372771
31
0.0
0
LINE
8
FRONT
10
2.250000
20
-0.372771
30
0.0
11
2.362500
21
-0.368196
31
0.0
0
LINE
8
FRONT
10
2.362500
20
-0.368196
30
0.0
11
2.475000
21
-0.363621
31
0.0
0
LINE
8
FRONT
10
2.475000
20
-0.363621
30
0.0
11
2.587500
21
-0.359047
31
0.0
0
LINE
8
FRONT
10
2.587500
20
-0.359047
30
0.0
11
2.700000
21
-0.354472
31
0.0
0
LINE
8
FRONT
10
2.700000
20
-0.354472
30
0.0
11
2.812500
21
-0.349897
31
0.0
0
LINE
8
FRONT
10
2.812500
20
-0.349897
30
0.0
11
2.925000
21
-0.345322
31
0.0
0
LINE
8
FRONT
10
2.925000
20
-0.345322
30
0.0
11
3.037500
21
-0.340747
31
0.0
0
LINE
8
FRONT
10
3.037500
20
-0.340747
30
0.0
11
3.150000
21
-0.336173
31
0.0
0
LINE
8
FRONT
10
3.150000
20
-0.336173
30
0.0
11
3.262500
21
-0.331598
31
0.0
0
LINE
8
FRONT
10
3.262500
20
-0.331598
30
0.0
11
3.375000
21
-0.327023
31
0.0
0
LINE
8
FRONT
10
3.375000
20
-0.327023
30
0.0
11
3.487500
21
-0.322448
31
0.0
0
LINE
8
FRONT
10
3.487500
20
-0.322448
30
0.0
11
3.600000
21
-0.317873
31
0.0
0
LINE
8
FRONT
10
3.600000
20
-0.317873
30
0.0
11
3.712500
21
-0.313298
31
0.0
0
LINE
8
FRONT
10
3.712500
20
-0.313298
30
0.0
11
3.825000
21
-0.308724
31
0.0
0
LINE
8
FRONT
10
3.825000
20
-0.308724
30
0.0
11
3.937500
21
-0.304149
31
0.0
0
LINE
8
FRONT
10
3.937500
20
-0.304149
30
0.0
11
4.050000
21
-0.299574
31
0.0
0
LINE
8
FRONT
10
4.050000
20
-0.299574
30
0.0
11
4.162500
21
-0.294999
31
0.0
0
LINE
8
FRONT
10
4.162500
20
-0.294999
30
0.0
11
4.275000
21
-0.290424
31
0.0
0
LINE
8
FRONT
10
4.275000
20
-0.290424
30
0.0
11
4.387500
21
-0.285850
31
0.0
0
LINE
8
FRONT
10
4.387500
20
-0.285850
30
0.0
11
4.500000
21
-0.281275
31
0.0
0
LINE
8
FRONT
10
4.500000
20
-0.281275
30
0.0
11
4.612500
21
-0.280243
31
0.0
0
LINE
8
FRONT
10
4.612500
20
-0.280243
30
0.0
11
4.725000
21
-0.279211
31
0.0
0
LINE
8
FRONT
10
4.725000
20
-0.279211
30
0.0
11
4.837500
21
-0.278179
31
0.0
0
LINE
8
FRONT
10
4.837500
20
-0.278179
30
0.0
11
4.950000
21
-0.277147
31
0.0
0
LINE
8
FRONT
10
4.950000
20
-0.277147
30
0.0
11
5.062500
21
-0.276115
31
0.0
0
LINE
8
FRONT
10
5.062500
20
-0.276115
30
0.0
11
5.175000
21
-0.275084
31
0.0
0
LINE
8
FRONT
10
5.175000
20
-0.275084
30
0.0
11
5.287500
21
-0.274052
31
0.0
0
LINE
8
FRONT
10
5.287500
20
-0.274052
30
0.0
11
5.400000
21
-0.273020
31
0.0
0
LINE
8
FRONT
10
5.400000
20
-0.273020
30
0.0
11
5.512500
21
-0.271988
31
0.0
0
LINE
8
FRONT
10
5.512500
20
-0.271988
30
0.0
11
5.625000
21
-0.270956
31
0.0
0
LINE
8
FRONT
10
5.625000
20
-0.270956
30
0.0
11
5.737500
21
-0.269924
31
0.0
0
LINE
8
FRONT
10
5.737500
20
-0.269924
30
0.0
11
5.850000
21
-0.268892
31
0.0
0
LINE
8
FRONT
10
5.850000
20
-0.268892
30
0.0
11
5.962500
21
-0.267860
31
0.0
0
LINE
8
FRONT
10
5.962500
20
-0.267860
30
0.0
11
6.075000
21
-0.266829
31
0.0
0
LINE
8
FRONT
10
6.075000
20
-0.266829
30
0.0
11
6.187500
21
-0.265797
31
0.0
0
LINE
8
FRONT
10
6.187500
20
-0.265797
30
0.0
11
6.300000
21
-0.264765
31
0.0
0
LINE
8
FRONT
10
6.300000
20
-0.264765
30
0.0
11
6.412500
21
-0.263733
31
0.0
0
LINE
8
FRONT
10
6.412500
20
-0.263733
30
0.0
11
6.525000
21
-0.262701
31
0.0
0
LINE
8
FRONT
10
6.525000
20
-0.262701
30
0.0
11
6.637500
21
-0.261669
31
0.0
0
LINE
8
FRONT
10
6.637500
20
-0.261669
30
0.0
11
6.750000
21
-0.260637
31
0.0
0
LINE
8
FRONT
10
6.750000
20
-0.260637
30
0.0
11
6.862500
21
-0.259606
31
0.0
0
LINE
8
FRONT
10
6.862500
20
-0.259606
30
0.0
11
6.975000
21
-0.258574
31
0.0
0
LINE
8
FRONT
10
6.975000
20
-0.258574
30
0.0
11
7.087500
21
-0.257542
31
0.0
0
LINE
8
FRONT
10
7.087500
20
-0.257542
30
0.0
11
7.200000
21
-0.256510
31
0.0
0
LINE
8
FRONT
10
7.200000
20
-0.256510
30
0.0
11
7.312500
21
-0.255478
31
0.0
0
LINE
8
FRONT
10
7.312500
20
-0.255478
30
0.0
11
7.425000
21
-0.254446
31
0.0
0
LINE
8
FRONT
10
7.425000
20
-0.254446
30
0.0
11
7.537500
21
-0.253414
31
0.0
0
LINE
8
FRONT
10
7.537500
20
-0.253414
30
0.0
11
7.650000
21
-0.252382
31
0.0
0
LINE
8
FRONT
10
7.650000
20
-0.252382
30
0.0
11
7.762500
21
-0.251351
31
0.0
0
LINE
8
FRONT
10
7.762500
20
-0.251351
30
0.0
11
7.875000
21
-0.250319
31
0.0
0
LINE
8
FRONT
10
7.875000
20
-0.250319
30
0.0
11
7.987500
21
-0.249287
31
0.0
0
LINE
8
FRONT
10
7.987500
20
-0.249287
30
0.0
11
8.100000
21
-0.248255
31
0.0
0
LINE
8
FRONT
10
8.100000
20
-0.248255
30
0.0
11
8.212500
21
-0.247223
31
0.0
0
LINE
8
FRONT
10
8.212500
20
-0.247223
30
0.0
11
8.325000
21
-0.246191
31
0.0
0
LINE
8
FRONT
10
8.325000
20
-0.246191
30
0.0
11
8.437500
21
-0.245159
31
0.0
0
LINE
8
FRONT
10
8.437500
20
-0.245159
30
0.0
11
8.500000
21
-0.244586
31
0.0
0
LINE
8
FRONT
10
8.500000
20
-0.244586
30
0.0
11
8.550000
21
-0.244127
31
0.0
0
LINE
8
FRONT
10
8.550000
20
-0.244127
30
0.0
11
8.662500
21
-0.243096
31
0.0
0
LINE
8
FRONT
10
8.662500
20
-0.243096
30
0.0
11
8.775000
21
-0.242064
31
0.0
0
LINE
8
FRONT
10
8.775000
20
-0.242064
30
0.0
11
8.887500
21
-0.241032
31
0.0
0
LINE
8
FRONT
10
8.887500
20
-0.241032
30
0.0
11
9.000000
21
-0.240000
31
0.0
0
LINE
8
FRONT
10
0.000000
20
0.464267
30
0.0
11
0.000000
21
-0.464267
31
0.0
0
LINE
8
FRONT
10
9.000000
20
0.240000
30
0.0
11
9.000000
21
-0.240000
31
0.0
0
LINE
8
TOP
10
0.000000
20
2.262802
30
0.0
11
0.112500
21
2.264174
31
0.0
0
LINE
8
TOP
10
0.112500
20
2.264174
30
0.0
11
0.225000
21
2.265546
31
0.0
0
LINE
8
TOP
10
0.225000
20
2.265546
30
0.0
11
0.337500
21
2.266918
31
0.0
0
LINE
8
TOP
10
0.337500
20
2.266918
30
0.0
11
0.450000
21
2.268291
31
0.0
0
LINE
8
TOP
10
0.450000
20
2.268291
30
0.0
11
0.500000
21
2.268901
31
0.0
0
LINE
8
TOP
10
0.500000
20
2.268901
30
0.0
11
0.562500
21
2.269663
31
0.0
0
LINE
8
TOP
10
0.562500
20
2.269663
30
0.0
11
0.675000
21
2.271035
31
0.0
0
LINE
8
TOP
10
0.675000
20
2.271035
30
0.0
11
0.787500
21
2.272407
31
0.0
0
LINE
8
TOP
10
0.787500
20
2.272407
30
0.0
11
0.900000
21
2.273779
31
0.0
0
LINE
8
TOP
10
0.900000
20
2.273779
30
0.0
11
1.012500
21
2.275152
31
0.0
0
LINE
8
TOP
10
1.012500
20
2.275152
30
0.0
11
1.125000
21
2.276524
31
0.0
0
LINE
8
TOP
10
1.125000
20
2.276524
30
0.0
11
1.237500
21
2.277896
31
0.0
0
LINE
8
TOP
10
1.237500
20
2.277896
30
0.0
11
1.350000
21
2.279268
31
0.0
0
LINE
8
TOP
10
1.350000
20
2.279268
30
0.0
11
1.462500
21
2.280640
31
0.0
0
LINE
8
TOP
10
1.462500
20
2.280640
30
0.0
11
1.575000
21
2.282013
31
0.0
0
LINE
8
TOP
10
1.575000
20
2.282013
30
0.0
11
1.687500
21
2.283385
31
0.0
0
LINE
8
TOP
10
1.687500
20
2.283385
30
0.0
11
1.800000
21
2.284757
31
0.0
0
LINE
8
TOP
10
1.800000
20
2.284757
30
0.0
11
1.912500
21
2.286129
31
0.0
0
LINE
8
TOP
10
1.912500
20
2.286129
30
0.0
11
2.025000
21
2.287501
31
0.0
0
LINE
8
TOP
10
2.025000
20
2.287501
30
0.0
11
2.137500
21
2.288874
31
0.0
0
LINE
8
TOP
10
2.137500
20
2.288874
30
0.0
11
2.250000
21
2.290246
31
0.0
0
LINE
8
TOP
10
2.250000
20
2.290246
30
0.0
11
2.362500
21
2.291618
31
0.0
0
LINE
8
TOP
10
2.362500
20
2.291618
30
0.0
11
2.475000
21
2.292990
31
0.0
0
LINE
8
TOP
10
2.475000
20
2.292990
30
0.0
11
2.587500
21
2.294362
31
0.0
0
LINE
8
TOP
10
2.587500
20
2.294362
30
0.0
11
2.700000
21
2.295734
31
0.0
0
LINE
8
TOP
10
2.700000
20
2.295734
30
0.0
11
2.812500
21
2.297107
31
0.0
0
LINE
8
TOP
10
2.812500
20
2.297107
30
0.0
11
2.925000
21
2.298479
31
0.0
0
LINE
8
TOP
10
2.925000
20
2.298479
30
0.0
11
3.037500
21
2.299851
31
0.0
0
LINE
8
TOP
10
3.037500
20
2.299851
30
0.0
11
3.150000
21
2.301223
31
0.0
0
LINE
8
TOP
10
3.150000
20
2.301223
30
0.0
11
3.262500
21
2.302595
31
0.0
0
LINE
8
TOP
10
3.262500
20
2.302595
30
0.0
11
3.375000
21
2.303968
31
0.0
0
LINE
8
TOP
10
3.375000
20
2.303968
30
0.0
11
3.487500
21
2.305340
31
0.0
0
LINE
8
TOP
10
3.487500
20
2.305340
30
0.0
11
3.600000
21
2.306712
31
0.0
0
LINE
8
TOP
10
3.600000
20
2.306712
30
0.0
11
3.712500
21
2.308084
31
0.0
0
LINE
8
TOP
10
3.712500
20
2.308084
30
0.0
11
3.825000
21
2.309456
31
0.0
0
LINE
8
TOP
10
3.825000
20
2.309456
30
0.0
11
3.937500
21
2.310829
31
0.0
0
LINE
8
TOP
10
3.937500
20
2.310829
30
0.0
11
4.050000
21
2.312201
31
0.0
0
LINE
8
TOP
10
4.050000
20
2.312201
30
0.0
11
4.162500
21
2.313573
31
0.0
0
LINE
8
TOP
10
4.162500
20
2.313573
30
0.0
11
4.275000
21
2.314945
31
0.0
0
LINE
8
TOP
10
4.275000
20
2.314945
30
0.0
11
4.387500
21
2.316317
31
0.0
0
LINE
8
TOP
10
4.387500
20
2.316317
30
0.0
11
4.500000
21
2.317690
31
0.0
0
LINE
8
TOP
10
4.500000
20
2.317690
30
0.0
11
4.612500
21
2.317680
31
0.0
0
LINE
8
TOP
10
4.612500
20
2.317680
30
0.0
11
4.725000
21
2.317671
31
0.0
0
LINE
8
TOP
10
4.725000
20
2.317671
30
0.0
11
4.837500
21
2.317662
31
0.0
0
LINE
8
TOP
10
4.837500
20
2.317662
30
0.0
11
4.950000
21
2.317653
31
0.0
0
LINE
8
TOP
10
4.950000
20
2.317653
30
0.0
11
5.062500
21
2.317643
31
0.0
0
LINE
8
TOP
10
5.062500
20
2.317643
30
0.0
11
5.175000
21
2.317634
31
0.0
0
LINE
8
TOP
10
5.175000
20
2.317634
30
0.0
11
5.287500
21
2.317625
31
0.0
0
LINE
8
TOP
10
5.287500
20
2.317625
30
0.0
11
5.400000
21
2.317616
31
0.0
0
LINE
8
TOP
10
5.400000
20
2.317616
30
0.0
11
5.512500
21
2.317606
31
0.0
0
LINE
8
TOP
10
5.512500
20
2.317606
30
0.0
11
5.625000
21
2.317597
31
0.0
0
LINE
8
TOP
10
5.625000
20
2.317597
30
0.0
11
5.737500
21
2.317588
31
0.0
0
LINE
8
TOP
10
5.737500
20
2.317588
30
0.0
11
5.850000
21
2.317579
31
0.0
0
LINE
8
TOP
10
5.850000
20
2.317579
30
0.0
11
5.962500
21
2.317569
31
0.0
0
LINE
8
TOP
10
5.962500
20
2.317569
30
0.0
11
6.075000
21
2.317560
31
0.0
0
LINE
8
TOP
10
6.075000
20
2.317560
30
0.0
11
6.187500
21
2.317551
31
0.0
0
LINE
8
TOP
10
6.187500
20
2.317551
30
0.0
11
6.300000
21
2.317542
31
0.0
0
LINE
8
TOP
10
6.300000
20
2.317542
30
0.0
11
6.412500
21
2.317532
31
0.0
0
LINE
8
TOP
10
6.412500
20
2.317532
30
0.0
11
6.525000
21
2.317523
31
0.0
0
LINE
8
TOP
10
6.525000
20
2.317523
30
0.0
11
6.637500
21
2.317514
31
0.0
0
LINE
8
TOP
10
6.637500
20
2.317514
30
0.0
11
6.750000
21
2.317505
31
0.0
0
LINE
8
TOP
10
6.750000
20
2.317505
30
0.0
11
6.862500
21
2.317495
31
0.0
0
LINE
8
TOP
10
6.862500
20
2.317495
30
0.0
11
6.975000
21
2.317486
31
0.0
0
LINE
8
TOP
10
6.975000
20
2.317486
30
0.0
11
7.087500
21
2.317477
31
0.0
0
LINE
8
TOP
10
7.087500
20
2.317477
30
0.0
11
7.200000
21
2.317467
31
0.0
0
LINE
8
TOP
10
7.200000
20
2.317467
30
0.0
11
7.312500
21
2.317458
31
0.0
0
LINE
8
TOP
10
7.312500
20
2.317458
30
0.0
11
7.425000
21
2.317449
31
0.0
0
LINE
8
TOP
10
7.425000
20
2.317449
30
0.0
11
7.537500
21
2.317440
31
0.0
0
LINE
8
TOP
10
7.537500
20
2.317440
30
0.0
11
7.650000
21
2.317430
31
0.0
0
LINE
8
TOP
10
7.650000
20
2.317430
30
0.0
11
7.762500
21
2.317421
31
0.0
0
LINE
8
TOP
10
7.762500
20
2.317421
30
0.0
11
7.875000
21
2.317412
31
0.0
0
LINE
8
TOP
10
7.875000
20
2.317412
30
0.0
11
7.987500
21
2.317403
31
0.0
0
LINE
8
TOP
10
7.987500
20
2.317403
30
0.0
11
8.100000
21
2.317393
31
0.0
0
LINE
8
TOP
10
8.100000
20
2.317393
30
0.0
11
8.212500
21
2.317384
31
0.0
0
LINE
8
TOP
10
8.212500
20
2.317384
30
0.0
11
8.325000
21
2.317375
31
0.0
0
LINE
8
TOP
10
8.325000
20
2.317375
30
0.0
11
8.437500
21
2.317366
31
0.0
0
LINE
8
TOP
10
8.437500
20
2.317366
30
0.0
11
8.500000
21
2.317361
31
0.0
0
LINE
8
TOP
10
8.500000
20
2.317361
30
0.0
11
8.550000
21
2.317356
31
0.0
0
LINE
8
TOP
10
8.550000
20
2.317356
30
0.0
11
8.662500
21
2.317347
31
0.0
0
LINE
8
TOP
10
8.662500
20
2.317347
30
0.0
11
8.775000
21
2.317338
31
0.0
0
LINE
8
TOP
10
8.775000
20
2.317338
30
0.0
11
8.887500
21
2.317329
31
0.0
0
LINE
8
TOP
10
8.887500
20
2.317329
30
0.0
11
9.000000
21
2.317319
31
0.0
0
LINE
8
TOP
10
0.000000
20
2.022802
30
0.0
11
0.112500
21
2.021430
31
0.0
0
LINE
8
TOP
10
0.112500
20
2.021430
30
0.0
11
0.225000
21
2.020057
31
0.0
0
LINE
8
TOP
10
0.225000
20
2.020057
30
0.0
11
0.337500
21
2.018685
31
0.0
0
LINE
8
TOP
10
0.337500
20
2.018685
30
0.0
11
0.450000
21
2.017313
31
0.0
0
LINE
8
TOP
10
0.450000
20
2.017313
30
0.0
11
0.500000
21
2.016703
31
0.0
0
LINE
8
TOP
10
0.500000
20
2.016703
30
0.0
11
0.562500
21
2.015941
31
0.0
0
LINE
8
TOP
10
0.562500
20
2.015941
30
0.0
11
0.675000
21
2.014569
31
0.0
0
LINE
8
TOP
10
0.675000
20
2.014569
30
0.0
11
0.787500
21
2.013197
31
0.0
0
LINE
8
TOP
10
0.787500
20
2.013197
30
0.0
11
0.900000
21
2.011824
31
0.0
0
LINE
8
TOP
10
0.900000
20
2.011824
30
0.0
11
1.012500
21
2.010452
31
0.0
0
LINE
8
TOP
10
1.012500
20
2.010452
30
0.0
11
1.125000
21
2.009080
31
0.0
0
LINE
8
TOP
10
1.125000
20
2.009080
30
0.0
11
1.237500
21
2.007708
31
0.0
0
LINE
8
TOP
10
1.237500
20
2.007708
30
0.0
11
1.350000
21
2.006336
31
0.0
0
LINE
8
TOP
10
1.350000
20
2.006336
30
0.0
11
1.462500
21
2.004963
31
0.0
0
LINE
8
TOP
10
1.462500
20
2.004963
30
0.0
11
1.575000
21
2.003591
31
0.0
0
LINE
8
TOP
10
1.575000
20
2.003591
30
0.0
11
1.687500
21
2.002219
31
0.0
0
LINE
8
TOP
10
1.687500
20
2.002219
30
0.0
11
1.800000
21
2.000847
31
0.0
0
LINE
8
TOP
10
1.800000
20
2.000847
30
0.0
11
1.912500
21
1.999475
31
0.0
0
LINE
8
TOP
10
1.912500
20
1.999475
30
0.0
11
2.025000
21
1.998102
31
0.0
0
LINE
8
TOP
10
2.025000
20
1.998102
30
0.0
11
2.137500
21
1.996730
31
0.0
0
LINE
8
TOP
10
2.137500
20
1.996730
30
0.0
11
2.250000
21
1.995358
31
0.0
0
LINE
8
TOP
10
2.250000
20
1.995358
30
0.0
11
2.362500
21
1.993986
31
0.0
0
LINE
8
TOP
10
2.362500
20
1.993986
30
0.0
11
2.475000
21
1.992614
31
0.0
0
LINE
8
TOP
10
2.475000
20
1.992614
30
0.0
11
2.587500
21
1.991241
31
0.0
0
LINE
8
TOP
10
2.587500
20
1.991241
30
0.0
11
2.700000
21
1.989869
31
0.0
0
LINE
8
TOP
10
2.700000
20
1.989869
30
0.0
11
2.812500
21
1.988497
31
0.0
0
LINE
8
TOP
10
2.812500
20
1.988497
30
0.0
11
2.925000
21
1.987125
31
0.0
0
LINE
8
TOP
10
2.925000
20
1.987125
30
0.0
11
3.037500
21
1.985753
31
0.0
0
LINE
8
TOP
10
3.037500
20
1.985753
30
0.0
11
3.150000
21
1.984381
31
0.0
0
LINE
8
TOP
10
3.150000
20
1.984381
30
0.0
11
3.262500
21
1.983008
31
0.0
0
LINE
8
TOP
10
3.262500
20
1.983008
30
0.0
11
3.375000
21
1.981636
31
0.0
0
LINE
8
TOP
10
3.375000
20
1.981636
30
0.0
11
3.487500
21
1.980264
31
0.0
0
LINE
8
TOP
10
3.487500
20
1.980264
30
0.0
11
3.600000
21
1.978892
31
0.0
0
LINE
8
TOP
10
3.600000
20
1.978892
30
0.0
11
3.712500
21
1.977520
31
0.0
0
LINE
8
TOP
10
3.712500
20
1.977520
30
0.0
11
3.825000
21
1.976147
31
0.0
0
LINE
8
TOP
10
3.825000
20
1.976147
30
0.0
11
3.937500
21
1.974775
31
0.0
0
LINE
8
TOP
10
3.937500
20
1.974775
30
0.0
11
4.050000
21
1.973403
31
0.0
0
LINE
8
TOP
10
4.050000
20
1.973403
30
0.0
11
4.162500
21
1.972031
31
0.0
0
LINE
8
TOP
10
4.162500
20
1.972031
30
0.0
11
4.275000
21
1.970659
31
0.0
0
LINE
8
TOP
10
4.275000
20
1.970659
30
0.0
11
4.387500
21
1.969286
31
0.0
0
LINE
8
TOP
10
4.387500
20
1.969286
30
0.0
11
4.500000
21
1.967914
31
0.0
0
LINE
8
TOP
10
4.500000
20
1.967914
30
0.0
11
4.612500
21
1.967923
31
0.0
0
LINE
8
TOP
10
4.612500
20
1.967923
30
0.0
11
4.725000
21
1.967933
31
0.0
0
LINE
8
TOP
10
4.725000
20
1.967933
30
0.0
11
4.837500
21
1.967942
31
0.0
0
LINE
8
TOP
10
4.837500
20
1.967942
30
0.0
11
4.950000
21
1.967951
31
0.0
0
LINE
8
TOP
10
4.950000
20
1.967951
30
0.0
11
5.062500
21
1.967960
31
0.0
0
LINE
8
TOP
10
5.062500
20
1.967960
30
0.0
11
5.175000
21
1.967970
31
0.0
0
LINE
8
TOP
10
5.175000
20
1.967970
30
0.0
11
5.287500
21
1.967979
31
0.0
0
LINE
8
TOP
10
5.287500
20
1.967979
30
0.0
11
5.400000
21
1.967988
31
0.0
0
LINE
8
TOP
10
5.400000
20
1.967988
30
0.0
11
5.512500
21
1.967998
31
0.0
0
LINE
8
TOP
10
5.512500
20
1.967998
30
0.0
11
5.625000
21
1.968007
31
0.0
0
LINE
8
TOP
10
5.625000
20
1.968007
30
0.0
11
5.737500
21
1.968016
31
0.0
0
LINE
8
TOP
10
5.737500
20
1.968016
30
0.0
11
5.850000
21
1.968025
31
0.0
0
LINE
8
TOP
10
5.850000
20
1.968025
30
0.0
11
5.962500
21
1.968035
31
0.0
0
LINE
8
TOP
10
5.962500
20
1.968035
30
0.0
11
6.075000
21
1.968044
31
0.0
0
LINE
8
TOP
10
6.075000
20
1.968044
30
0.0
11
6.187500
21
1.968053
31
0.0
0
LINE
8
TOP
10
6.187500
20
1.968053
30
0.0
11
6.300000
21
1.968062
31
0.0
0
LINE
8
TOP
10
6.300000
20
1.968062
30
0.0
11
6.412500
21
1.968072
31
0.0
0
LINE
8
TOP
10
6.412500
20
1.968072
30
0.0
11
6.525000
21
1.968081
31
0.0
0
LINE
8
TOP
10
6.525000
20
1.968081
30
0.0
11
6.637500
21
1.968090
31
0.0
0
LINE
8
TOP
10
6.637500
20
1.968090
30
0.0
11
6.750000
21
1.968099
31
0.0
0
LINE
8
TOP
10
6.750000
20
1.968099
30
0.0
11
6.862500
21
1.968109
31
0.0
0
LINE
8
TOP
10
6.862500
20
1.968109
30
0.0
11
6.975000
21
1.968118
31
0.0
0
LINE
8
TOP
10
6.975000
20
1.968118
30
0.0
11
7.087500
21
1.968127
31
0.0
0
LINE
8
TOP
10
7.087500
20
1.968127
30
0.0
11
7.200000
21
1.968136
31
0.0
0
LINE
8
TOP
10
7.200000
20
1.968136
30
0.0
11
7.312500
21
1.968146
31
0.0
0
LINE
8
TOP
10
7.312500
20
1.968146
30
0.0
11
7.425000
21
1.968155
31
0.0
0
LINE
8
TOP
10
7.425000
20
1.968155
30
0.0
11
7.537500
21
1.968164
31
0.0
0
LINE
8
TOP
10
7.537500
20
1.968164
30
0.0
11
7.650000
21
1.968173
31
0.0
0
LINE
8
TOP
10
7.650000
20
1.968173
30
0.0
11
7.762500
21
1.968183
31
0.0
0
LINE
8
TOP
10
7.762500
20
1.968183
30
0.0
11
7.875000
21
1.968192
31
0.0
0
LINE
8
TOP
10
7.875000
20
1.968192
30
0.0
11
7.987500
21
1.968201
31
0.0
0
LINE
8
TOP
10
7.987500
20
1.968201
30
0.0
11
8.100000
21
1.968210
31
0.0
0
LINE
8
TOP
10
8.100000
20
1.968210
30
0.0
11
8.212500
21
1.968220
31
0.0
0
LINE
8
TOP
10
8.212500
20
1.968220
30
0.0
11
8.325000
21
1.968229
31
0.0
0
LINE
8
TOP
10
8.325000
20
1.968229
30
0.0
11
8.437500
21
1.968238
31
0.0
0
LINE
8
TOP
10
8.437500
20
1.968238
30
0.0
11
8.500000
21
1.968243
31
0.0
0
LINE
8
TOP
10
8.500000
20
1.968243
30
0.0
11
8.550000
21
1.968247
31
0.0
0
LINE
8
TOP
10
8.550000
20
1.968247
30
0.0
11
8.662500
21
1.968257
31
0.0
0
LINE
8
TOP
10
8.662500
20
1.968257
30
0.0
11
8.775000
21
1.968266
31
0.0
0
LINE
8
TOP
10
8.775000
20
1.968266
30
0.0
11
8.887500
21
1.968275
31
0.0
0
LINE
8
TOP
10
8.887500
20
1.968275
30
0.0
11
9.000000
21
1.968284
31
0.0
0
LINE
8
TOP
10
0.000000
20
2.262802
30
0.0
11
0.000000
21
2.022802
31
0.0
0
LINE
8
TOP
10
9.000000
20
2.317319
30
0.0
11
9.000000
21
1.968284
31
0.0
0
LINE
8
SECTION
10
10.325112
20
-0.281275
30
0.0
11
10.674888
21
-0.281275
31
0.0
0
LINE
8
SECTION
10
10.674888
20
-0.281275
30
0.0
11
10.674888
21
0.281275
31
0.0
0
LINE
8
SECTION
10
10.674888
20
0.281275
30
0.0
11
10.325112
21
0.281275
31
0.0
0
LINE
8
SECTION
10
10.325112
20
0.281275
30
0.0
11
10.325112
21
-0.281275
31
0.0
0
LINE
8
SECTION
10
10.409594
20
-0.196793
30
0.0
11
10.590406
21
-0.196793
31
0.0
0
LINE
8
SECTION
10
10.590406
20
-0.196793
30
0.0
11
10.590406
21
0.196793
31
0.0
0
LINE
8
SECTION
10
10.590406
20
0.196793
30
0.0
11
10.409594
21
0.196793
31
0.0
0
LINE
8
SECTION
10
10.409594
20
0.196793
30
0.0
11
10.409594
21
-0.196793
31
0.0
0
LINE
8
SECTION
10
10.409594
20
0.000000
30
0.0
11
10.494076
21
0.000000
31
0.0
0
LINE
8
SECTION
10
10.494076
20
0.000000
30
0.0
11
10.494076
21
0.196793
31
0.0
0
LINE
8
SECTION
10
10.494076
20
0.196793
30
0.0
11
10.409594
21
0.196793
31
0.0
0
LINE
8
SECTION
10
10.409594
20
0.196793
30
0.0
11
10.409594
21
0.000000
31
0.0
0
LINE
8
SECTION
10
10.409594
20
-0.196793
30
0.0
11
10.494076
21
-0.196793
31
0.0
0
LINE
8
SECTION
10
10.494076
20
-0.196793
30
0.0
11
10.494076
21
0.000000
31
0.0
0
LINE
8
SECTION
10
10.494076
20
0.000000
30
0.0
11
10.409594
21
0.000000
31
0.0
0
LINE
8
SECTION
10
10.409594
20
0.000000
30
0.0
11
10.409594
21
-0.196793
31
0.0
0
LINE
8
SECTION
10
10.505924
20
0.000000
30
0.0
11
10.590406
21
0.000000
31
0.0
0
LINE
8
SECTION
10
10.590406
20
0.000000
30
0.0
11
10.590406
21
0.196793
31
0.0
0
LINE
8
SECTION
10
10.590406
20
0.196793
30
0.0
11
10.505924
21
0.196793
31
0.0
0
LINE
8
SECTION
10
10.505924
20
0.196793
30
0.0
11
10.505924
21
0.000000
31
0.0
0
LINE
8
SECTION
10
10.505924
20
-0.196793
30
0.0
11
10.590406
21
-0.196793
31
0.0
0
LINE
8
SECTION
10
10.590406
20
-0.196793
30
0.0
11
10.590406
21
0.000000
31
0.0
0
LINE
8
SECTION
10
10.590406
20
0.000000
30
0.0
11
10.505924
21
0.000000
31
0.0
0
LINE
8
SECTION
10
10.505924
20
0.000000
30
0.0
11
10.505924
21
-0.196793
31
0.0
0
ENDSEC
0
EOF
