0
SECTION
2
HEADER
9
$INSUNITS
70
1
0
ENDSEC
0
SECTION
2
ENTITIES
0
LINE
8
FRONT
10
0.000000
20
0.289457
30
0.0
11
0.112500
21
0.288199
31
0.0
0
LINE
8
FRONT
10
0.112500
20
0.288199
30
0.0
11
0.225000
21
0.286941
31
0.0
0
LINE
8
FRONT
10
0.225000
20
0.286941
30
0.0
11
0.337500
21
0.285683
31
0.0
0
LINE
8
FRONT
10
0.337500
20
0.285683
30
0.0
11
0.450000
21
0.284425
31
0.0
0
LINE
8
FRONT
10
0.450000
20
0.284425
30
0.0
11
0.500000
21
0.283865
31
0.0
0
LINE
8
FRONT
10
0.500000
20
0.283865
30
0.0
11
0.562500
21
0.283167
31
0.0
0
LINE
8
FRONT
10
0.562500
20
0.283167
30
0.0
11
0.675000
21
0.281909
31
0.0
0
LINE
8
FRONT
10
0.675000
20
0.281909
30
0.0
11
0.787500
21
0.280650
31
0.0
0
LINE
8
FRONT
10
0.787500
20
0.280650
30
0.0
11
0.900000
21
0.279392
31
0.0
0
LINE
8
FRONT
10
0.900000
20
0.279392
30
0.0
11
1.012500
21
0.278134
31
0.0
0
LINE
8
FRONT
10
1.012500
20
0.278134
30
0.0
11
1.125000
21
0.276876
31
0.0
0
LINE
8
FRONT
10
1.125000
20
0.276876
30
0.0
11
1.237500
21
0.275618
31
0.0
0
LINE
8
FRONT
10
1.237500
20
0.275618
30
0.0
11
1.350000
21
0.274360
31
0.0
0
LINE
8
FRONT
10
1.350000
20
0.274360
30
0.0
11
1.462500
21
0.273102
31
0.0
0
LINE
8
FRONT
10
1.462500
20
0.273102
30
0.0
11
1.575000
21
0.271844
31
0.0
0
LINE
8
FRONT
10
1.575000
20
0.271844
30
0.0
11
1.687500
21
0.270586
31
0.0
0
LINE
8
FRONT
10
1.687500
20
0.270586
30
0.0
11
1.800000
21
0.269328
31
0.0
0
LINE
8
FRONT
10
1.800000
20
0.269328
30
0.0
11
1.912500
21
0.268070
31
0.0
0
LINE
8
FRONT
10
1.912500
20
0.268070
30
0.0
11
2.025000
21
0.266812
31
0.0
0
LINE
8
FRONT
10
2.025000
20
0.266812
30
0.0
11
2.137500
21
0.265554
31
0.0
0
LINE
8
FRONT
10
2.137500
20
0.265554
30
0.0
11
2.250000
21
0.264296
31
0.0
0
LINE
8
FRONT
10
2.250000
20
0.264296
30
0.0
11
2.362500
21
0.263038
31
0.0
0
LINE
8
FRONT
10
2.362500
20
0.263038
30
0.0
11
2.475000
21
0.261780
31
0.0
0
LINE
8
FRONT
10
2.475000
20
0.261780
30
0.0
11
2.587500
21
0.260522
31
0.0
0
LINE
8
FRONT
10
2.587500
20
0.260522
30
0.0
11
2.700000
21
0.259264
31
0.0
0
LINE
8
FRONT
10
2.700000
20
0.259264
30
0.0
11
2.812500
21
0.258006
31
0.0
0
LINE
8
FRONT
10
2.812500
20
0.258006
30
0.0
11
2.925000
21
0.256748
31
0.0
0
LINE
8
FRONT
10
2.925000
20
0.256748
30
0.0
11
3.037500
21
0.255490
31
0.0
0
LINE
8
FRONT
10
3.037500
20
0.255490
30
0.0
11
3.150000
21
0.254232
31
0.0
0
LINE
8
FRONT
10
3.150000
20
0.254232
30
0.0
11
3.262500
21
0.252974
31
0.0
0
LINE
8
FRONT
10
3.262500
20
0.252974
30
0.0
11
3.375000
21
0.251716
31
0.0
0
LINE
8
FRONT
10
3.375000
20
0.251716
30
0.0
11
3.487500
21
0.250458
31
0.0
0
LINE
8
FRONT
10
3.487500
20
0.250458
30
0.0
11
3.600000
21
0.249200
31
0.0
0
LINE
8
FRONT
10
3.600000
20
0.249200
30
0.0
11
3.712500
21
0.247942
31
0.0
0
LINE
8
FRONT
10
3.712500
20
0.247942
30
0.0
11
3.825000
21
0.246684
31
0.0
0
LINE
8
FRONT
10
3.825000
20
0.246684
30
0.0
11
3.937500
21
0.245426
31
0.0
0
LINE
8
FRONT
10
3.937500
20
0.245426
30
0.0
11
4.050000
21
0.244168
31
0.0
0
LINE
8
FRONT
10
4.050000
20
0.244168
30
0.0
11
4.162500
21
0.242910
31
0.0
0
LINE
8
FRONT
10
4.162500
20
0.242910
30
0.0
11
4.275000
21
0.241651
31
0.0
0
LINE
8
FRONT
10
4.275000
20
0.241651
30
0.0
11
4.387500
21
0.240393
31
0.0
0
LINE
8
FRONT
10
4.387500
20
0.240393
30
0.0
11
4.500000
21
0.239135
31
0.0
0
LINE
8
FRONT
10
4.500000
20
0.239135
30
0.0
11
4.612500
21
0.240393
31
0.0
0
LINE
8
FRONT
10
4.612500
20
0.240393
30
0.0
11
4.725000
21
0.241651
31
0.0
0
LINE
8
FRONT
10
4.725000
20
0.241651
30
0.0
11
4.837500
21
0.242910
31
0.0
0
LINE
8
FRONT
10
4.837500
20
0.242910
30
0.0
11
4.950000
21
0.244168
31
0.0
0
LINE
8
FRONT
10
4.950000
20
0.244168
30
0.0
11
5.062500
21
0.245426
31
0.0
0
LINE
8
FRONT
10
5.062500
20
0.245426
30
0.0
11
5.175000
21
0.246684
31
0.0
0
LINE
8
FRONT
10
5.175000
20
0.246684
30
0.0
11
5.287500
21
0.247942
31
0.0
0
LINE
8
FRONT
10
5.287500
20
0.247942
30
0.0
11
5.400000
21
0.249200
31
0.0
0
LINE
8
FRONT
10
5.400000
20
0.249200
30
0.0
11
5.512500
21
0.250458
31
0.0
0
LINE
8
FRONT
10
5.512500
20
0.250458
30
0.0
11
5.625000
21
0.251716
31
0.0
0
LINE
8
FRONT
10
5.625000
20
0.251716
30
0.0
11
5.737500
21
0.252974
31
0.0
0
LINE
8
FRONT
10
5.737500
20
0.252974
30
0.0
11
5.850000
21
0.254232
31
0.0
0
LINE
8
FRONT
10
5.850000
20
0.254232
30
0.0
11
5.962500
21
0.255490
31
0.0
0
LINE
8
FRONT
10
5.962500
20
0.255490
30
0.0
11
6.075000
21
0.256748
31
0.0
0
LINE
8
FRONT
10
6.075000
20
0.256748
30
0.0
11
6.187500
21
0.258006
31
0.0
0
LINE
8
FRONT
10
6.187500
20
0.258006
30
0.0
11
6.300000
21
0.259264
31
0.0
0
LINE
8
FRONT
10
6.300000
20
0.259264
30
0.0
11
6.412500
21
0.260522
31
0.0
0
LINE
8
FRONT
10
6.412500
20
0.260522
30
0.0
11
6.525000
21
0.261780
31
0.0
0
LINE
8
FRONT
10
6.525000
20
0.261780
30
0.0
11
6.637500
21
0.263038
31
0.0
0
LINE
8
FRONT
10
6.637500
20
0.263038
30
0.0
11
6.750000
21
0.264296
31
0.0
0
LINE
8
FRONT
10
6.750000
20
0.264296
30
0.0
11
6.862500
21
0.265554
31
0.0
0
LINE
8
FRONT
10
6.862500
20
0.265554
30
0.0
11
6.975000
21
0.266812
31
0.0
0
LINE
8
FRONT
10
6.975000
20
0.266812
30
0.0
11
7.087500
21
0.268070
31
0.0
0
LINE
8
FRONT
10
7.087500
20
0.268070
30
0.0
11
7.200000
21
0.269328
31
0.0
0
LINE
8
FRONT
10
7.200000
20
0.269328
30
0.0
11
7.312500
21
0.270586
31
0.0
0
LINE
8
FRONT
10
7.312500
20
0.270586
30
0.0
11
7.425000
21
0.271844
31
0.0
0
LINE
8
FRONT
10
7.425000
20
0.271844
30
0.0
11
7.537500
21
0.273102
31
0.0
0
LINE
8
FRONT
10
7.537500
20
0.273102
30
0.0
11
7.650000
21
0.274360
31
0.0
0
LINE
8
FRONT
10
7.650000
20
0.274360
30
0.0
11
7.762500
21
0.275618
31
0.0
0
LINE
8
FRONT
10
7.762500
20
0.275618
30
0.0
11
7.875000
21
0.276876
31
0.0
0
LINE
8
FRONT
10
7.875000
20
0.276876
30
0.0
11
7.987500
21
0.278134
31
0.0
0
LINE
8
FRONT
10
7.987500
20
0.278134
30
0.0
11
8.100000
21
0.279392
31
0.0
0
LINE
8
FRONT
10
8.100000
20
0.279392
30
0.0
11
8.212500
21
0.280650
31
0.0
0
LINE
8
FRONT
10
8.212500
20
0.280650
30
0.0
11
8.325000
21
0.281909
31
0.0
0
LINE
8
FRONT
10
8.325000
20
0.281909
30
0.0
11
8.437500
21
0.283167
31
0.0
0
LINE
8
FRONT
10
8.437500
20
0.283167
30
0.0
11
8.500000
21
0.283865
31
0.0
0
LINE
8
FRONT
10
8.500000
20
0.283865
30
0.0
11
8.550000
21
0.284425
31
0.0
0
LINE
8
FRONT
10
8.550000
20
0.284425
30
0.0
11
8.662500
21
0.285683
31
0.0
0
LINE
8
FRONT
10
8.662500
20
0.285683
30
0.0
11
8.775000
21
0.286941
31
0.0
0
LINE
8
FRONT
10
8.775000
20
0.286941
30
0.0
11
8.887500
21
0.288199
31
0.0
0
LINE
8
FRONT
10
8.887500
20
0.288199
30
0.0
11
9.000000
21
0.289457
31
0.0
0
LINE
8
FRONT
10
0.000000
20
-0.289457
30
0.0
11
0.112500
21
-0.288199
31
0.0
0
LINE
8
FRONT
10
0.112500
20
-0.288199
30
0.0
11
0.225000
21
-0.286941
31
0.0
0
LINE
8
FRONT
10
0.225000
20
-0.286941
30
0.0
11
0.337500
21
-0.285683
31
0.0
0
LINE
8
FRONT
10
0.337500
20
-0.285683
30
0.0
11
0.450000
21
-0.284425
31
0.0
0
LINE
8
FRONT
10
0.450000
20
-0.284425
30
0.0
11
0.500000
21
-0.283865
31
0.0
0
LINE
8
FRONT
10
0.500000
20
-0.283865
30
0.0
11
0.562500
21
-0.283167
31
0.0
0
LINE
8
FRONT
10
0.562500
20
-0.283167
30
0.0
11
0.675000
21
-0.281909
31
0.0
0
LINE
8
FRONT
10
0.675000
20
-0.281909
30
0.0
11
0.787500
21
-0.280650
31
0.0
0
LINE
8
FRONT
10
0.787500
20
-0.280650
30
0.0
11
0.900000
21
-0.279392
31
0.0
0
LINE
8
FRONT
10
0.900000
20
-0.279392
30
0.0
11
1.012500
21
-0.278134
31
0.0
0
LINE
8
FRONT
10
1.012500
20
-0.278134
30
0.0
11
1.125000
21
-0.276876
31
0.0
0
LINE
8
FRONT
10
1.125000
20
-0.276876
30
0.0
11
1.237500
21
-0.275618
31
0.0
0
LINE
8
FRONT
10
1.237500
20
-0.275618
30
0.0
11
1.350000
21
-0.274360
31
0.0
0
LINE
8
FRONT
10
1.350000
20
-0.274360
30
0.0
11
1.462500
21
-0.273102
31
0.0
0
LINE
8
FRONT
10
1.462500
20
-0.273102
30
0.0
11
1.575000
21
-0.271844
31
0.0
0
LINE
8
FRONT
10
1.575000
20
-0.271844
30
0.0
11
1.687500
21
-0.270586
31
0.0
0
LINE
8
FRONT
10
1.687500
20
-0.270586
30
0.0
11
1.800000
21
-0.269328
31
0.0
0
LINE
8
FRONT
10
1.800000
20
-0.269328
30
0.0
11
1.912500
21
-0.268070
31
0.0
0
LINE
8
FRONT
10
1.912500
20
-0.268070
30
0.0
11
2.025000
21
-0.266812
31
0.0
0
LINE
8
FRONT
10
2.025000
20
-0.266812
30
0.0
11
2.137500
21
-0.265554
31
0.0
0
LINE
8
FRONT
10
2.137500
20
-0.265554
30
0.0
11
2.250000
21
-0.264296
31
0.0
0
LINE
8
FRONT
10
2.250000
20
-0.264296
30
0.0
11
2.362500
21
-0.263038
31
0.0
0
LINE
8
FRONT
10
2.362500
20
-0.263038
30
0.0
11
2.475000
21
-0.261780
31
0.0
0
LINE
8
FRONT
10
2.475000
20
-0.261780
30
0.0
11
2.587500
21
-0.260522
31
0.0
0
LINE
8
FRONT
10
2.587500
20
-0.260522
30
0.0
11
2.700000
21
-0.259264
31
0.0
0
LINE
8
FRONT
10
2.700000
20
-0.259264
30
0.0
11
2.812500
21
-0.258006
31
0.0
0
LINE
8
FRONT
10
2.812500
20
-0.258006
30
0.0
11
2.925000
21
-0.256748
31
0.0
0
LINE
8
FRONT
10
2.925000
20
-0.256748
30
0.0
11
3.037500
21
-0.255490
31
0.0
0
LINE
8
FRONT
10
3.037500
20
-0.255490
30
0.0
11
3.150000
21
-0.254232
31
0.0
0
LINE
8
FRONT
10
3.150000
20
-0.254232
30
0.0
11
3.262500
21
-0.252974
31
0.0
0
LINE
8
FRONT
10
3.262500
20
-0.252974
30
0.0
11
3.375000
21
-0.251716
31
0.0
0
LINE
8
FRONT
10
3.375000
20
-0.251716
30
0.0
11
3.487500
21
-0.250458
31
0.0
0
LINE
8
FRONT
10
3.487500
20
-0.250458
30
0.0
11
3.600000
21
-0.249200
31
0.0
0
LINE
8
FRONT
10
3.600000
20
-0.249200
30
0.0
11
3.712500
21
-0.247942
31
0.0
0
LINE
8
FRONT
10
3.712500
20
-0.247942
30
0.0
11
3.825000
21
-0.246684
31
0.0
0
LINE
8
FRONT
10
3.825000
20
-0.246684
30
0.0
11
3.937500
21
-0.245426
31
0.0
0
LINE
8
FRONT
10
3.937500
20
-0.245426
30
0.0
11
4.050000
21
-0.244168
31
0.0
0
LINE
8
FRONT
10
4.050000
20
-0.244168
30
0.0
11
4.162500
21
-0.242910
31
0.0
0
LINE
8
FRONT
10
4.162500
20
-0.242910
30
0.0
11
4.275000
21
-0.241651
31
0.0
0
LINE
8
FRONT
10
4.275000
20
-0.241651
30
0.0
11
4.387500
21
-0.240393
31
0.0
0
LINE
8
FRONT
10
4.387500
20
-0.240393
30
0.0
11
4.500000
21
-0.239135
31
0.0
0
LINE
8
FRONT
10
4.500000
20
-0.239135
30
0.0
11
4.612500
21
-0.240393
31
0.0
0
LINE
8
FRONT
10
4.612500
20
-0.240393
30
0.0
11
4.725000
21
-0.241651
31
0.0
0
LINE
8
FRONT
10
4.725000
20
-0.241651
30
0.0
11
4.837500
21
-0.242910
31
0.0
0
LINE
8
FRONT
10
4.837500
20
-0.242910
30
0.0
11
4.950000
21
-0.244168
31
0.0
0
LINE
8
FRONT
10
4.950000
20
-0.244168
30
0.0
11
5.062500
21
-0.245426
31
0.0
0
LINE
8
FRONT
10
5.062500
20
-0.245426
30
0.0
11
5.175000
21
-0.246684
31
0.0
0
LINE
8
FRONT
10
5.175000
20
-0.246684
30
0.0
11
5.287500
21
-0.247942
31
0.0
0
LINE
8
FRONT
10
5.287500
20
-0.247942
30
0.0
11
5.400000
21
-0.249200
31
0.0
0
LINE
8
FRONT
10
5.400000
20
-0.249200
30
0.0
11
5.512500
21
-0.250458
31
0.0
0
LINE
8
FRONT
10
5.512500
20
-0.250458
30
0.0
11
5.625000
21
-0.251716
31
0.0
0
LINE
8
FRONT
10
5.625000
20
-0.251716
30
0.0
11
5.737500
21
-0.252974
31
0.0
0
LINE
8
FRONT
10
5.737500
20
-0.252974
30
0.0
11
5.850000
21
-0.254232
31
0.0
0
LINE
8
FRONT
10
5.850000
20
-0.254232
30
0.0
11
5.962500
21
-0.255490
31
0.0
0
LINE
8
FRONT
10
5.962500
20
-0.255490
30
0.0
11
6.075000
21
-0.256748
31
0.0
0
LINE
8
FRONT
10
6.075000
20
-0.256748
30
0.0
11
6.187500
21
-0.258006
31
0.0
0
LINE
8
FRONT
10
6.187500
20
-0.258006
30
0.0
11
6.300000
21
-0.259264
31
0.0
0
LINE
8
FRONT
10
6.300000
20
-0.259264
30
0.0
11
6.412500
21
-0.260522
31
0.0
0
LINE
8
FRONT
10
6.412500
20
-0.260522
30
0.0
11
6.525000
21
-0.261780
31
0.0
0
LINE
8
FRONT
10
6.525000
20
-0.261780
30
0.0
11
6.637500
21
-0.263038
31
0.0
0
LINE
8
FRONT
10
6.637500
20
-0.263038
30
0.0
11
6.750000
21
-0.264296
31
0.0
0
LINE
8
FRONT
10
6.750000
20
-0.264296
30
0.0
11
6.862500
21
-0.265554
31
0.0
0
LINE
8
FRONT
10
6.862500
20
-0.265554
30
0.0
11
6.975000
21
-0.266812
31
0.0
0
LINE
8
FRONT
10
6.975000
20
-0.266812
30
0.0
11
7.087500
21
-0.268070
31
0.0
0
LINE
8
FRONT
10
7.087500
20
-0.268070
30
0.0
11
7.200000
21
-0.269328
31
0.0
0
LINE
8
FRONT
10
7.200000
20
-0.269328
30
0.0
11
7.312500
21
-0.270586
31
0.0
0
LINE
8
FRONT
10
7.312500
20
-0.270586
30
0.0
11
7.425000
21
-0.271844
31
0.0
0
LINE
8
FRONT
10
7.425000
20
-0.271844
30
0.0
11
7.537500
21
-0.273102
31
0.0
0
LINE
8
FRONT
10
7.537500
20
-0.273102
30
0.0
11
7.650000
21
-0.274360
31
0.0
0
LINE
8
FRONT
10
7.650000
20
-0.274360
30
0.0
11
7.762500
21
-0.275618
31
0.0
0
LINE
8
FRONT
10
7.762500
20
-0.275618
30
0.0
11
7.875000
21
-0.276876
31
0.0
0
LINE
8
FRONT
10
7.875000
20
-0.276876
30
0.0
11
7.987500
21
-0.278134
31
0.0
0
LINE
8
FRONT
10
7.987500
20
-0.278134
30
0.0
11
8.100000
21
-0.279392
31
0.0
0
LINE
8
FRONT
10
8.100000
20
-0.279392
30
0.0
11
8.212500
21
-0.280650
31
0.0
0
LINE
8
FRONT
10
8.212500
20
-0.280650
30
0.0
11
8.325000
21
-0.281909
31
0.0
0
LINE
8
FRONT
10
8.325000
20
-0.281909
30
0.0
11
8.437500
21
-0.283167
31
0.0
0
LINE
8
FRONT
10
8.437500
20
-0.283167
30
0.0
11
8.500000
21
-0.283865
31
0.0
0
LINE
8
FRONT
10
8.500000
20
-0.283865
30
0.0
11
8.550000
21
-0.284425
31
0.0
0
LINE
8
FRONT
10
8.550000
20
-0.284425
30
0.0
11
8.662500
21
-0.285683
31
0.0
0
LINE
8
FRONT
10
8.662500
20
-0.285683
30
0.0
11
8.775000
21
-0.286941
31
0.0
0
LINE
8
FRONT
10
8.775000
20
-0.286941
30
0.0
11
8.887500
21
-0.288199
31
0.0
0
LINE
8
FRONT
10
8.887500
20
-0.288199
30
0.0
11
9.000000
21
-0.289457
31
0.0
0
LINE
8
FRONT
10
0.000000
20
0.289457
30
0.0
11
0.000000
21
-0.289457
31
0.0
0
LINE
8
FRONT
10
9.000000
20
0.289457
30
0.0
11
9.000000
21
-0.289457
31
0.0
0
LINE
8
TOP
10
0.000000
20
1.839112
30
0.0
11
0.112500
21
1.840576
31
0.0
0
LINE
8
TOP
10
0.112500
20
1.840576
30
0.0
11
0.225000
21
1.842041
31
0.0
0
LINE
8
TOP
10
0.225000
20
1.842041
30
0.0
11
0.337500
21
1.843505
31
0.0
0
LINE
8
TOP
10
0.337500
20
1.843505
30
0.0
11
0.450000
21
1.844969
31
0.0
0
LINE
8
TOP
10
0.450000
20
1.844969
30
0.0
11
0.500000
21
1.845620
31
0.0
0
LINE
8
TOP
10
0.500000
20
1.845620
30
0.0
11
0.562500
21
1.846433
31
0.0
0
LINE
8
TOP
10
0.562500
20
1.846433
30
0.0
11
0.675000
21
1.847897
31
0.0
0
LINE
8
TOP
10
0.675000
20
1.847897
30
0.0
11
0.787500
21
1.849362
31
0.0
0
LINE
8
TOP
10
0.787500
20
1.849362
30
0.0
11
0.900000
21
1.850826
31
0.0
0
LINE
8
TOP
10
0.900000
20
1.850826
30
0.0
11
1.012500
21
1.852290
31
0.0
0
LINE
8
TOP
10
1.012500
20
1.852290
30
0.0
11
1.125000
21
1.853754
31
0.0
0
LINE
8
TOP
10
1.125000
20
1.853754
30
0.0
11
1.237500
21
1.855219
31
0.0
0
LINE
8
TOP
10
1.237500
20
1.855219
30
0.0
11
1.350000
21
1.856683
31
0.0
0
LINE
8
TOP
10
1.350000
20
1.856683
30
0.0
11
1.462500
21
1.858147
31
0.0
0
LINE
8
TOP
10
1.462500
20
1.858147
30
0.0
11
1.575000
21
1.859611
31
0.0
0
LINE
8
TOP
10
1.575000
20
1.859611
30
0.0
11
1.687500
21
1.861075
31
0.0
0
LINE
8
TOP
10
1.687500
20
1.861075
30
0.0
11
1.800000
21
1.862540
31
0.0
0
LINE
8
TOP
10
1.800000
20
1.862540
30
0.0
11
1.912500
21
1.864004
31
0.0
0
LINE
8
TOP
10
1.912500
20
1.864004
30
0.0
11
2.025000
21
1.865468
31
0.0
0
LINE
8
TOP
10
2.025000
20
1.865468
30
0.0
11
2.137500
21
1.866932
31
0.0
0
LINE
8
TOP
10
2.137500
20
1.866932
30
0.0
11
2.250000
21
1.868397
31
0.0
0
LINE
8
TOP
10
2.250000
20
1.868397
30
0.0
11
2.362500
21
1.869861
31
0.0
0
LINE
8
TOP
10
2.362500
20
1.869861
30
0.0
11
2.475000
21
1.871325
31
0.0
0
LINE
8
TOP
10
2.475000
20
1.871325
30
0.0
11
2.587500
21
1.872789
31
0.0
0
LINE
8
TOP
10
2.587500
20
1.872789
30
0.0
11
2.700000
21
1.874253
31
0.0
0
LINE
8
TOP
10
2.700000
20
1.874253
30
0.0
11
2.812500
21
1.875718
31
0.0
0
LINE
8
TOP
10
2.812500
20
1.875718
30
0.0
11
2.925000
21
1.877182
31
0.0
0
LINE
8
TOP
10
2.925000
20
1.877182
30
0.0
11
3.037500
21
1.878646
31
0.0
0
LINE
8
TOP
10
3.037500
20
1.878646
30
0.0
11
3.150000
21
1.880110
31
0.0
0
LINE
8
TOP
10
3.150000
20
1.880110
30
0.0
11
3.262500
21
1.881575
31
0.0
0
LINE
8
TOP
10
3.262500
20
1.881575
30
0.0
11
3.375000
21
1.883039
31
0.0
0
LINE
8
TOP
10
3.375000
20
1.883039
30
0.0
11
3.487500
21
1.884503
31
0.0
0
LINE
8
TOP
10
3.487500
20
1.884503
30
0.0
11
3.600000
21
1.885967
31
0.0
0
LINE
8
TOP
10
3.600000
20
1.885967
30
0.0
11
3.712500
21
1.887431
31
0.0
0
LINE
8
TOP
10
3.712500
20
1.887431
30
0.0
11
3.825000
21
1.888896
31
0.0
0
LINE
8
TOP
10
3.825000
20
1.888896
30
0.0
11
3.937500
21
1.890360
31
0.0
0
LINE
8
TOP
10
3.937500
20
1.890360
30
0.0
11
4.050000
21
1.891824
31
0.0
0
LINE
8
TOP
10
4.050000
20
1.891824
30
0.0
11
4.162500
21
1.893288
31
0.0
0
LINE
8
TOP
10
4.162500
20
1.893288
30
0.0
11
4.275000
21
1.894753
31
0.0
0
LINE
8
TOP
10
4.275000
20
1.894753
30
0.0
11
4.387500
21
1.896217
31
0.0
0
LINE
8
TOP
10
4.387500
20
1.896217
30
0.0
11
4.500000
21
1.897681
31
0.0
0
LINE
8
TOP
10
4.500000
20
1.897681
30
0.0
11
4.612500
21
1.896217
31
0.0
0
LINE
8
TOP
10
4.612500
20
1.896217
30
0.0
11
4.725000
21
1.894753
31
0.0
0
LINE
8
TOP
10
4.725000
20
1.894753
30
0.0
11
4.837500
21
1.893288
31
0.0
0
LINE
8
TOP
10
4.837500
20
1.893288
30
0.0
11
4.950000
21
1.891824
31
0.0
0
LINE
8
TOP
10
4.950000
20
1.891824
30
0.0
11
5.062500
21
1.890360
31
0.0
0
LINE
8
TOP
10
5.062500
20
1.890360
30
0.0
11
5.175000
21
1.888896
31
0.0
0
LINE
8
TOP
10
5.175000
20
1.888896
30
0.0
11
5.287500
21
1.887431
31
0.0
0
LINE
8
TOP
10
5.287500
20
1.887431
30
0.0
11
5.400000
21
1.885967
31
0.0
0
LINE
8
TOP
10
5.400000
20
1.885967
30
0.0
11
5.512500
21
1.884503
31
0.0
0
LINE
8
TOP
10
5.512500
20
1.884503
30
0.0
11
5.625000
21
1.883039
31
0.0
0
LINE
8
TOP
10
5.625000
20
1.883039
30
0.0
11
5.737500
21
1.881575
31
0.0
0
LINE
8
TOP
10
5.737500
20
1.881575
30
0.0
11
5.850000
21
1.880110
31
0.0
0
LINE
8
TOP
10
5.850000
20
1.880110
30
0.0
11
5.962500
21
1.878646
31
0.0
0
LINE
8
TOP
10
5.962500
20
1.878646
30
0.0
11
6.075000
21
1.877182
31
0.0
0
LINE
8
TOP
10
6.075000
20
1.877182
30
0.0
11
6.187500
21
1.875718
31
0.0
0
LINE
8
TOP
10
6.187500
20
1.875718
30
0.0
11
6.300000
21
1.874253
31
0.0
0
LINE
8
TOP
10
6.300000
20
1.874253
30
0.0
11
6.412500
21
1.872789
31
0.0
0
LINE
8
TOP
10
6.412500
20
1.872789
30
0.0
11
6.525000
21
1.871325
31
0.0
0
LINE
8
TOP
10
6.525000
20
1.871325
30
0.0
11
6.637500
21
1.869861
31
0.0
0
LINE
8
TOP
10
6.637500
20
1.869861
30
0.0
11
6.750000
21
1.868397
31
0.0
0
LINE
8
TOP
10
6.750000
20
1.868397
30
0.0
11
6.862500
21
1.866932
31
0.0
0
LINE
8
TOP
10
6.862500
20
1.866932
30
0.0
11
6.975000
21
1.865468
31
0.0
0
LINE
8
TOP
10
6.975000
20
1.865468
30
0.0
11
7.087500
21
1.864004
31
0.0
0
LINE
8
TOP
10
7.087500
20
1.864004
30
0.0
11
7.200000
21
1.862540
31
0.0
0
LINE
8
TOP
10
7.200000
20
1.862540
30
0.0
11
7.312500
21
1.861075
31
0.0
0
LINE
8
TOP
10
7.312500
20
1.861075
30
0.0
11
7.425000
21
1.859611
31
0.0
0
LINE
8
TOP
10
7.425000
20
1.859611
30
0.0
11
7.537500
21
1.858147
31
0.0
0
LINE
8
TOP
10
7.537500
20
1.858147
30
0.0
11
7.650000
21
1.856683
31
0.0
0
LINE
8
TOP
10
7.650000
20
1.856683
30
0.0
11
7.762500
21
1.855219
31
0.0
0
LINE
8
TOP
10
7.762500
20
1.855219
30
0.0
11
7.875000
21
1.853754
31
0.0
0
LINE
8
TOP
10
7.875000
20
1.853754
30
0.0
11
7.987500
21
1.852290
31
0.0
0
LINE
8
TOP
10
7.987500
20
1.852290
30
0.0
11
8.100000
21
1.850826
31
0.0
0
LINE
8
TOP
10
8.100000
20
1.850826
30
0.0
11
8.212500
21
1.849362
31
0.0
0
LINE
8
TOP
10
8.212500
20
1.849362
30
0.0
11
8.325000
21
1.847897
31
0.0
0
LINE
8
TOP
10
8.325000
20
1.847897
30
0.0
11
8.437500
21
1.846433
31
0.0
0
LINE
8
TOP
10
8.437500
20
1.846433
30
0.0
11
8.500000
21
1.845620
31
0.0
0
LINE
8
TOP
10
8.500000
20
1.845620
30
0.0
11
8.550000
21
1.844969
31
0.0
0
LINE
8
TOP
10
8.550000
20
1.844969
30
0.0
11
8.662500
21
1.843505
31
0.0
0
LINE
8
TOP
10
8.662500
20
1.843505
30
0.0
11
8.775000
21
1.842041
31
0.0
0
LINE
8
TOP
10
8.775000
20
1.842041
30
0.0
11
8.887500
21
1.840576
31
0.0
0
LINE
8
TOP
10
8.887500
20
1.840576
30
0.0
11
9.000000
21
1.839112
31
0.0
0
LINE
8
TOP
10
0.000000
20
1.397628
30
0.0
11
0.112500
21
1.396164
31
0.0
0
LINE
8
TOP
10
0.112500
20
1.396164
30
0.0
11
0.225000
21
1.394700
31
0.0
0
LINE
8
TOP
10
0.225000
20
1.394700
30
0.0
11
0.337500
21
1.393235
31
0.0
0
LINE
8
TOP
10
0.337500
20
1.393235
30
0.0
11
0.450000
21
1.391771
31
0.0
0
LINE
8
TOP
10
0.450000
20
1.391771
30
0.0
11
0.500000
21
1.391121
31
0.0
0
LINE
8
TOP
10
0.500000
20
1.391121
30
0.0
11
0.562500
21
1.390307
31
0.0
0
LINE
8
TOP
10
0.562500
20
1.390307
30
0.0
11
0.675000
21
1.388843
31
0.0
0
LINE
8
TOP
10
0.675000
20
1.388843
30
0.0
11
0.787500
21
1.387379
31
0.0
0
LINE
8
TOP
10
0.787500
20
1.387379
30
0.0
11
0.900000
21
1.385914
31
0.0
0
LINE
8
TOP
10
0.900000
20
1.385914
30
0.0
11
1.012500
21
1.384450
31
0.0
0
LINE
8
TOP
10
1.012500
20
1.384450
30
0.0
11
1.125000
21
1.382986
31
0.0
0
LINE
8
TOP
10
1.125000
20
1.382986
30
0.0
11
1.237500
21
1.381522
31
0.0
0
LINE
8
TOP
10
1.237500
20
1.381522
30
0.0
11
1.350000
21
1.380057
31
0.0
0
LINE
8
TOP
10
1.350000
20
1.380057
30
0.0
11
1.462500
21
1.378593
31
0.0
0
LINE
8
TOP
10
1.462500
20
1.378593
30
0.0
11
1.575000
21
1.377129
31
0.0
0
LINE
8
TOP
10
1.575000
20
1.377129
30
0.0
11
1.687500
21
1.375665
31
0.0
0
LINE
8
TOP
10
1.687500
20
1.375665
30
0.0
11
1.800000
21
1.374201
31
0.0
0
LINE
8
TOP
10
1.800000
20
1.374201
30
0.0
11
1.912500
21
1.372736
31
0.0
0
LINE
8
TOP
10
1.912500
20
1.372736
30
0.0
11
2.025000
21
1.371272
31
0.0
0
LINE
8
TOP
10
2.025000
20
1.371272
30
0.0
11
2.137500
21
1.369808
31
0.0
0
LINE
8
TOP
10
2.137500
20
1.369808
30
0.0
11
2.250000
21
1.368344
31
0.0
0
LINE
8
TOP
10
2.250000
20
1.368344
30
0.0
11
2.362500
21
1.366880
31
0.0
0
LINE
8
TOP
10
2.362500
20
1.366880
30
0.0
11
2.475000
21
1.365415
31
0.0
0
LINE
8
TOP
10
2.475000
20
1.365415
30
0.0
11
2.587500
21
1.363951
31
0.0
0
LINE
8
TOP
10
2.587500
20
1.363951
30
0.0
11
2.700000
21
1.362487
31
0.0
0
LINE
8
TOP
10
2.700000
20
1.362487
30
0.0
11
2.812500
21
1.361023
31
0.0
0
LINE
8
TOP
10
2.812500
20
1.361023
30
0.0
11
2.925000
21
1.359558
31
0.0
0
LINE
8
TOP
10
2.925000
20
1.359558
30
0.0
11
3.037500
21
1.358094
31
0.0
0
LINE
8
TOP
10
3.037500
20
1.358094
30
0.0
11
3.150000
21
1.356630
31
0.0
0
LINE
8
TOP
10
3.150000
20
1.356630
30
0.0
11
3.262500
21
1.355166
31
0.0
0
LINE
8
TOP
10
3.262500
20
1.355166
30
0.0
11
3.375000
21
1.353702
31
0.0
0
LINE
8
TOP
10
3.375000
20
1.353702
30
0.0
11
3.487500
21
1.352237
31
0.0
0
LINE
8
TOP
10
3.487500
20
1.352237
30
0.0
11
3.600000
21
1.350773
31
0.0
0
LINE
8
TOP
10
3.600000
20
1.350773
30
0.0
11
3.712500
21
1.349309
31
0.0
0
LINE
8
TOP
10
3.712500
20
1.349309
30
0.0
11
3.825000
21
1.347845
31
0.0
0
LINE
8
TOP
10
3.825000
20
1.347845
30
0.0
11
3.937500
21
1.346380
31
0.0
0
LINE
8
TOP
10
3.937500
20
1.346380
30
0.0
11
4.050000
21
1.344916
31
0.0
0
LINE
8
TOP
10
4.050000
20
1.344916
30
0.0
11
4.162500
21
1.343452
31
0.0
0
LINE
8
TOP
10
4.162500
20
1.343452
30
0.0
11
4.275000
21
1.341988
31
0.0
0
LINE
8
TOP
10
4.275000
20
1.341988
30
0.0
11
4.387500
21
1.340524
31
0.0
0
LINE
8
TOP
10
4.387500
20
1.340524
30
0.0
11
4.500000
21
1.339059
31
0.0
0
LINE
8
TOP
10
4.500000
20
1.339059
30
0.0
11
4.612500
21
1.340524
31
0.0
0
LINE
8
TOP
10
4.612500
20
1.340524
30
0.0
11
4.725000
21
1.341988
31
0.0
0
LINE
8
TOP
10
4.725000
20
1.341988
30
0.0
11
4.837500
21
1.343452
31
0.0
0
LINE
8
TOP
10
4.837500
20
1.343452
30
0.0
11
4.950000
21
1.344916
31
0.0
0
LINE
8
TOP
10
4.950000
20
1.344916
30
0.0
11
5.062500
21
1.346380
31
0.0
0
LINE
8
TOP
10
5.062500
20
1.346380
30
0.0
11
5.175000
21
1.347845
31
0.0
0
LINE
8
TOP
10
5.175000
20
1.347845
30
0.0
11
5.287500
21
1.349309
31
0.0
0
LINE
8
TOP
10
5.287500
20
1.349309
30
0.0
11
5.400000
21
1.350773
31
0.0
0
LINE
8
TOP
10
5.400000
20
1.350773
30
0.0
11
5.512500
21
1.352237
31
0.0
0
LINE
8
TOP
10
5.512500
20
1.352237
30
0.0
11
5.625000
21
1.353702
31
0.0
0
LINE
8
TOP
10
5.625000
20
1.353702
30
0.0
11
5.737500
21
1.355166
31
0.0
0
LINE
8
TOP
10
5.737500
20
1.355166
30
0.0
11
5.850000
21
1.356630
31
0.0
0
LINE
8
TOP
10
5.850000
20
1.356630
30
0.0
11
5.962500
21
1.358094
31
0.0
0
LINE
8
TOP
10
5.962500
20
1.358094
30
0.0
11
6.075000
21
1.359558
31
0.0
0
LINE
8
TOP
10
6.075000
20
1.359558
30
0.0
11
6.187500
21
1.361023
31
0.0
0
LINE
8
TOP
10
6.187500
20
1.361023
30
0.0
11
6.300000
21
1.362487
31
0.0
0
LINE
8
TOP
10
6.300000
20
1.362487
30
0.0
11
6.412500
21
1.363951
31
0.0
0
LINE
8
TOP
10
6.412500
20
1.363951
30
0.0
11
6.525000
21
1.365415
31
0.0
0
LINE
8
TOP
10
6.525000
20
1.365415
30
0.0
11
6.637500
21
1.366880
31
0.0
0
LINE
8
TOP
10
6.637500
20
1.366880
30
0.0
11
6.750000
21
1.368344
31
0.0
0
LINE
8
TOP
10
6.750000
20
1.368344
30
0.0
11
6.862500
21
1.369808
31
0.0
0
LINE
8
TOP
10
6.862500
20
1.369808
30
0.0
11
6.975000
21
1.371272
31
0.0
0
LINE
8
TOP
10
6.975000
20
1.371272
30
0.0
11
7.087500
21
1.372736
31
0.0
0
LINE
8
TOP
10
7.087500
20
1.372736
30
0.0
11
7.200000
21
1.374201
31
0.0
0
LINE
8
TOP
10
7.200000
20
1.374201
30
0.0
11
7.312500
21
1.375665
31
0.0
0
LINE
8
TOP
10
7.312500
20
1.375665
30
0.0
11
7.425000
21
1.377129
31
0.0
0
LINE
8
TOP
10
7.425000
20
1.377129
30
0.0
11
7.537500
21
1.378593
31
0.0
0
LINE
8
TOP
10
7.537500
20
1.378593
30
0.0
11
7.650000
21
1.380057
31
0.0
0
LINE
8
TOP
10
7.650000
20
1.380057
30
0.0
11
7.762500
21
1.381522
31
0.0
0
LINE
8
TOP
10
7.762500
20
1.381522
30
0.0
11
7.875000
21
1.382986
31
0.0
0
LINE
8
TOP
10
7.875000
20
1.382986
30
0.0
11
7.987500
21
1.384450
31
0.0
0
LINE
8
TOP
10
7.987500
20
1.384450
30
0.0
11
8.100000
21
1.385914
31
0.0
0
LINE
8
TOP
10
8.100000
20
1.385914
30
0.0
11
8.212500
21
1.387379
31
0.0
0
LINE
8
TOP
10
8.212500
20
1.387379
30
0.0
11
8.325000
21
1.388843
31
0.0
0
LINE
8
TOP
10
8.325000
20
1.388843
30
0.0
11
8.437500
21
1.390307
31
0.0
0
LINE
8
TOP
10
8.437500
20
1.390307
30
0.0
11
8.500000
21
1.391121
31
0.0
0
LINE
8
TOP
10
8.500000
20
1.391121
30
0.0
11
8.550000
21
1.391771
31
0.0
0
LINE
8
TOP
10
8.550000
20
1.391771
30
0.0
11
8.662500
21
1.393235
31
0.0
0
LINE
8
TOP
10
8.662500
20
1.393235
30
0.0
11
8.775000
21
1.394700
31
0.0
0
LINE
8
TOP
10
8.775000
20
1.394700
30
0.0
11
8.887500
21
1.396164
31
0.0
0
LINE
8
TOP
10
8.887500
20
1.396164
30
0.0
11
9.000000
21
1.397628
31
0.0
0
LINE
8
TOP
10
0.000000
20
1.839112
30
0.0
11
0.000000
21
1.397628
31
0.0
0
LINE
8
TOP
10
9.000000
20
1.839112
30
0.0
11
9.000000
21
1.397628
31
0.0
0
LINE
8
SECTION
10
10.220689
20
-0.239135
30
0.0
11
10.779311
21
-0.239135
31
0.0
0
LINE
8
SECTION
10
10.779311
20
-0.239135
30
0.0
11
10.779311
21
0.239135
31
0.0
0
LINE
8
SECTION
10
10.779311
20
0.239135
30
0.0
11
10.220689
21
0.239135
31
0.0
0
LINE
8
SECTION
10
10.220689
20
0.239135
30
0.0
11
10.220689
21
-0.239135
31
0.0
0
LINE
8
SECTION
10
10.260689
20
-0.199135
30
0.0
11
10.739311
21
-0.199135
31
0.0
0
LINE
8
SECTION
10
10.739311
20
-0.199135
30
0.0
11
10.739311
21
0.199135
31
0.0
0
LINE
8
SECTION
10
10.739311
20
0.199135
30
0.0
11
10.260689
21
0.199135
31
0.0
0
LINE
8
SECTION
10
10.260689
20
0.199135
30
0.0
11
10.260689
21
-0.199135
31
0.0
0
LINE
8
SECTION
10
10.260689
20
0.000000
30
0.0
11
10.300689
21
0.000000
31
0.0
0
LINE
8
SECTION
10
10.300689
20
0.000000
30
0.0
11
10.300689
21
0.199135
31
0.0
0
LINE
8
SECTION
10
10.300689
20
0.199135
30
0.0
11
10.260689
21
0.199135
31
0.0
0
LINE
8
SECTION
10
10.260689
20
0.199135
30
0.0
11
10.260689
21
0.000000
31
0.0
0
LINE
8
SECTION
10
10.260689
20
-0.199135
30
0.0
11
10.300689
21
-0.199135
31
0.0
0
LINE
8
SECTION
10
10.300689
20
-0.199135
30
0.0
11
10.300689
21
0.000000
31
0.0
0
LINE
8
SECTION
10
10.300689
20
0.000000
30
0.0
11
10.260689
21
0.000000
31
0.0
0
LINE
8
SECTION
10
10.260689
20
0.000000
30
0.0
11
10.260689
21
-0.199135
31
0.0
0
LINE
8
SECTION
10
10.699311
20
0.000000
30
0.0
11
10.739311
21
0.000000
31
0.0
0
LINE
8
SECTION
10
10.739311
20
0.000000
30
0.0
11
10.739311
21
0.199135
31
0.0
0
LINE
8
SECTION
10
10.739311
20
0.199135
30
0.0
11
10.699311
21
0.199135
31
0.0
0
LINE
8
SECTION
10
10.699311
20
0.199135
30
0.0
11
10.699311
21
0.000000
31
0.0
0
LINE
8
SECTION
10
10.699311
20
-0.199135
30
0.0
11
10.739311
21
-0.199135
31
0.0
0
LINE
8
SECTION
10
10.739311
20
-0.199135
30
0.0
11
10.739311
21
0.000000
31
0.0
0
LINE
8
SECTION
10
10.739311
20
0.000000
30
0.0
11
10.699311
21
0.000000
31
0.0
0
LINE
8
SECTION
10
10.699311
20
0.000000
30
0.0
11
10.699311
21
-0.199135
31
0.0
0
ENDSEC
0
EOF
