0
SECTION
2
HEADER
9
$INSUNITS
70
1
0
ENDSEC
0
SECTION
2
ENTITIES
0
LINE
8
FRONT
10
0.000000
20
0.392708
30
0.0
11
0.100000
21
0.392605
31
0.0
0
LINE
8
FRONT
10
0.100000
20
0.392605
30
0.0
11
0.200000
21
0.392501
31
0.0
0
LINE
8
FRONT
10
0.200000
20
0.392501
30
0.0
11
0.300000
21
0.392398
31
0.0
0
LINE
8
FRONT
10
0.300000
20
0.392398
30
0.0
11
0.400000
21
0.392295
31
0.0
0
LINE
8
FRONT
10
0.400000
20
0.392295
30
0.0
11
0.500000
21
0.392192
31
0.0
0
LINE
8
FRONT
10
0.500000
20
0.392192
30
0.0
11
0.600000
21
0.392089
31
0.0
0
LINE
8
FRONT
10
0.600000
20
0.392089
30
0.0
11
0.700000
21
0.391985
31
0.0
0
LINE
8
FRONT
10
0.700000
20
0.391985
30
0.0
11
0.800000
21
0.391882
31
0.0
0
LINE
8
FRONT
10
0.800000
20
0.391882
30
0.0
11
0.900000
21
0.391779
31
0.0
0
LINE
8
FRONT
10
0.900000
20
0.391779
30
0.0
11
1.000000
21
0.391676
31
0.0
0
LINE
8
FRONT
10
1.000000
20
0.391676
30
0.0
11
1.100000
21
0.391573
31
0.0
0
LINE
8
FRONT
10
1.100000
20
0.391573
30
0.0
11
1.200000
21
0.391469
31
0.0
0
LINE
8
FRONT
10
1.200000
20
0.391469
30
0.0
11
1.300000
21
0.391366
31
0.0
0
LINE
8
FRONT
10
1.300000
20
0.391366
30
0.0
11
1.400000
21
0.391263
31
0.0
0
LINE
8
FRONT
10
1.400000
20
0.391263
30
0.0
11
1.500000
21
0.391160
31
0.0
0
LINE
8
FRONT
10
1.500000
20
0.391160
30
0.0
11
1.600000
21
0.391056
31
0.0
0
LINE
8
FRONT
10
1.600000
20
0.391056
30
0.0
11
1.700000
21
0.390953
31
0.0
0
LINE
8
FRONT
10
1.700000
20
0.390953
30
0.0
11
1.800000
21
0.390850
31
0.0
0
LINE
8
FRONT
10
1.800000
20
0.390850
30
0.0
11
1.900000
21
0.390747
31
0.0
0
LINE
8
FRONT
10
1.900000
20
0.390747
30
0.0
11
2.000000
21
0.390644
31
0.0
0
LINE
8
FRONT
10
2.000000
20
0.390644
30
0.0
11
2.100000
21
0.390540
31
0.0
0
LINE
8
FRONT
10
2.100000
20
0.390540
30
0.0
11
2.200000
21
0.390437
31
0.0
0
LINE
8
FRONT
10
2.200000
20
0.390437
30
0.0
11
2.300000
21
0.390334
31
0.0
0
LINE
8
FRONT
10
2.300000
20
0.390334
30
0.0
11
2.400000
21
0.390231
31
0.0
0
LINE
8
FRONT
10
2.400000
20
0.390231
30
0.0
11
2.500000
21
0.390128
31
0.0
0
LINE
8
FRONT
10
2.500000
20
0.390128
30
0.0
11
2.600000
21
0.390024
31
0.0
0
LINE
8
FRONT
10
2.600000
20
0.390024
30
0.0
11
2.700000
21
0.389921
31
0.0
0
LINE
8
FRONT
10
2.700000
20
0.389921
30
0.0
11
2.800000
21
0.389818
31
0.0
0
LINE
8
FRONT
10
2.800000
20
0.389818
30
0.0
11
2.900000
21
0.389715
31
0.0
0
LINE
8
FRONT
10
2.900000
20
0.389715
30
0.0
11
3.000000
21
0.389612
31
0.0
0
LINE
8
FRONT
10
3.000000
20
0.389612
30
0.0
11
3.100000
21
0.389508
31
0.0
0
LINE
8
FRONT
10
3.100000
20
0.389508
30
0.0
11
3.200000
21
0.389405
31
0.0
0
LINE
8
FRONT
10
3.200000
20
0.389405
30
0.0
11
3.300000
21
0.389302
31
0.0
0
LINE
8
FRONT
10
3.300000
20
0.389302
30
0.0
11
3.400000
21
0.389199
31
0.0
0
LINE
8
FRONT
10
3.400000
20
0.389199
30
0.0
11
3.500000
21
0.389096
31
0.0
0
LINE
8
FRONT
10
3.500000
20
0.389096
30
0.0
11
3.600000
21
0.388992
31
0.0
0
LINE
8
FRONT
10
3.600000
20
0.388992
30
0.0
11
3.700000
21
0.388889
31
0.0
0
LINE
8
FRONT
10
3.700000
20
0.388889
30
0.0
11
3.800000
21
0.388786
31
0.0
0
LINE
8
FRONT
10
3.800000
20
0.388786
30
0.0
11
3.900000
21
0.388683
31
0.0
0
LINE
8
FRONT
10
3.900000
20
0.388683
30
0.0
11
4.000000
21
0.388579
31
0.0
0
LINE
8
FRONT
10
4.000000
20
0.388579
30
0.0
11
4.100000
21
0.388683
31
0.0
0
LINE
8
FRONT
10
4.100000
20
0.388683
30
0.0
11
4.200000
21
0.388786
31
0.0
0
LINE
8
FRONT
10
4.200000
20
0.388786
30
0.0
11
4.300000
21
0.388889
31
0.0
0
LINE
8
FRONT
10
4.300000
20
0.388889
30
0.0
11
4.400000
21
0.388992
31
0.0
0
LINE
8
FRONT
10
4.400000
20
0.388992
30
0.0
11
4.500000
21
0.389096
31
0.0
0
LINE
8
FRONT
10
4.500000
20
0.389096
30
0.0
11
4.600000
21
0.389199
31
0.0
0
LINE
8
FRONT
10
4.600000
20
0.389199
30
0.0
11
4.700000
21
0.389302
31
0.0
0
LINE
8
FRONT
10
4.700000
20
0.389302
30
0.0
11
4.800000
21
0.389405
31
0.0
0
LINE
8
FRONT
10
4.800000
20
0.389405
30
0.0
11
4.900000
21
0.389508
31
0.0
0
LINE
8
FRONT
10
4.900000
20
0.389508
30
0.0
11
5.000000
21
0.389612
31
0.0
0
LINE
8
FRONT
10
5.000000
20
0.389612
30
0.0
11
5.100000
21
0.389715
31
0.0
0
LINE
8
FRONT
10
5.100000
20
0.389715
30
0.0
11
5.200000
21
0.389818
31
0.0
0
LINE
8
FRONT
10
5.200000
20
0.389818
30
0.0
11
5.300000
21
0.389921
31
0.0
0
LINE
8
FRONT
10
5.300000
20
0.389921
30
0.0
11
5.400000
21
0.390024
31
0.0
0
LINE
8
FRONT
10
5.400000
20
0.390024
30
0.0
11
5.500000
21
0.390128
31
0.0
0
LINE
8
FRONT
10
5.500000
20
0.390128
30
0.0
11
5.600000
21
0.390231
31
0.0
0
LINE
8
FRONT
10
5.600000
20
0.390231
30
0.0
11
5.700000
21
0.390334
31
0.0
0
LINE
8
FRONT
10
5.700000
20
0.390334
30
0.0
11
5.800000
21
0.390437
31
0.0
0
LINE
8
FRONT
10
5.800000
20
0.390437
30
0.0
11
5.900000
21
0.390540
31
0.0
0
LINE
8
FRONT
10
5.900000
20
0.390540
30
0.0
11
6.000000
21
0.390644
31
0.0
0
LINE
8
FRONT
10
6.000000
20
0.390644
30
0.0
11
6.100000
21
0.390747
31
0.0
0
LINE
8
FRONT
10
6.100000
20
0.390747
30
0.0
11
6.200000
21
0.390850
31
0.0
0
LINE
8
FRONT
10
6.200000
20
0.390850
30
0.0
11
6.300000
21
0.390953
31
0.0
0
LINE
8
FRONT
10
6.300000
20
0.390953
30
0.0
11
6.400000
21
0.391056
31
0.0
0
LINE
8
FRONT
10
6.400000
20
0.391056
30
0.0
11
6.500000
21
0.391160
31
0.0
0
LINE
8
FRONT
10
6.500000
20
0.391160
30
0.0
11
6.600000
21
0.391263
31
0.0
0
LINE
8
FRONT
10
6.600000
20
0.391263
30
0.0
11
6.700000
21
0.391366
31
0.0
0
LINE
8
FRONT
10
6.700000
20
0.391366
30
0.0
11
6.800000
21
0.391469
31
0.0
0
LINE
8
FRONT
10
6.800000
20
0.391469
30
0.0
11
6.900000
21
0.391573
31
0.0
0
LINE
8
FRONT
10
6.900000
20
0.391573
30
0.0
11
7.000000
21
0.391676
31
0.0
0
LINE
8
FRONT
10
7.000000
20
0.391676
30
0.0
11
7.100000
21
0.391779
31
0.0
0
LINE
8
FRONT
10
7.100000
20
0.391779
30
0.0
11
7.200000
21
0.391882
31
0.0
0
LINE
8
FRONT
10
7.200000
20
0.391882
30
0.0
11
7.300000
21
0.391985
31
0.0
0
LINE
8
FRONT
10
7.300000
20
0.391985
30
0.0
11
7.400000
21
0.392089
31
0.0
0
LINE
8
FRONT
10
7.400000
20
0.392089
30
0.0
11
7.500000
21
0.392192
31
0.0
0
LINE
8
FRONT
10
7.500000
20
0.392192
30
0.0
11
7.600000
21
0.392295
31
0.0
0
LINE
8
FRONT
10
7.600000
20
0.392295
30
0.0
11
7.700000
21
0.392398
31
0.0
0
LINE
8
FRONT
10
7.700000
20
0.392398
30
0.0
11
7.800000
21
0.392501
31
0.0
0
LINE
8
FRONT
10
7.800000
20
0.392501
30
0.0
11
7.900000
21
0.392605
31
0.0
0
LINE
8
FRONT
10
7.900000
20
0.392605
30
0.0
11
8.000000
21
0.392708
31
0.0
0
LINE
8
FRONT
10
0.000000
20
-0.392708
30
0.0
11
0.100000
21
-0.392605
31
0.0
0
LINE
8
FRONT
10
0.100000
20
-0.392605
30
0.0
11
0.200000
21
-0.392501
31
0.0
0
LINE
8
FRONT
10
0.200000
20
-0.392501
30
0.0
11
0.300000
21
-0.392398
31
0.0
0
LINE
8
FRONT
10
0.300000
20
-0.392398
30
0.0
11
0.400000
21
-0.392295
31
0.0
0
LINE
8
FRONT
10
0.400000
20
-0.392295
30
0.0
11
0.500000
21
-0.392192
31
0.0
0
LINE
8
FRONT
10
0.500000
20
-0.392192
30
0.0
11
0.600000
21
-0.392089
31
0.0
0
LINE
8
FRONT
10
0.600000
20
-0.392089
30
0.0
11
0.700000
21
-0.391985
31
0.0
0
LINE
8
FRONT
10
0.700000
20
-0.391985
30
0.0
11
0.800000
21
-0.391882
31
0.0
0
LINE
8
FRONT
10
0.800000
20
-0.391882
30
0.0
11
0.900000
21
-0.391779
31
0.0
0
LINE
8
FRONT
10
0.900000
20
-0.391779
30
0.0
11
1.000000
21
-0.391676
31
0.0
0
LINE
8
FRONT
10
1.000000
20
-0.391676
30
0.0
11
1.100000
21
-0.391573
31
0.0
0
LINE
8
FRONT
10
1.100000
20
-0.391573
30
0.0
11
1.200000
21
-0.391469
31
0.0
0
LINE
8
FRONT
10
1.200000
20
-0.391469
30
0.0
11
1.300000
21
-0.391366
31
0.0
0
LINE
8
FRONT
10
1.300000
20
-0.391366
30
0.0
11
1.400000
21
-0.391263
31
0.0
0
LINE
8
FRONT
10
1.400000
20
-0.391263
30
0.0
11
1.500000
21
-0.391160
31
0.0
0
LINE
8
FRONT
10
1.500000
20
-0.391160
30
0.0
11
1.600000
21
-0.391056
31
0.0
0
LINE
8
FRONT
10
1.600000
20
-0.391056
30
0.0
11
1.700000
21
-0.390953
31
0.0
0
LINE
8
FRONT
10
1.700000
20
-0.390953
30
0.0
11
1.800000
21
-0.390850
31
0.0
0
LINE
8
FRONT
10
1.800000
20
-0.390850
30
0.0
11
1.900000
21
-0.390747
31
0.0
0
LINE
8
FRONT
10
1.900000
20
-0.390747
30
0.0
11
2.000000
21
-0.390644
31
0.0
0
LINE
8
FRONT
10
2.000000
20
-0.390644
30
0.0
11
2.100000
21
-0.390540
31
0.0
0
LINE
8
FRONT
10
2.100000
20
-0.390540
30
0.0
11
2.200000
21
-0.390437
31
0.0
0
LINE
8
FRONT
10
2.200000
20
-0.390437
30
0.0
11
2.300000
21
-0.390334
31
0.0
0
LINE
8
FRONT
10
2.300000
20
-0.390334
30
0.0
11
2.400000
21
-0.390231
31
0.0
0
LINE
8
FRONT
10
2.400000
20
-0.390231
30
0.0
11
2.500000
21
-0.390128
31
0.0
0
LINE
8
FRONT
10
2.500000
20
-0.390128
30
0.0
11
2.600000
21
-0.390024
31
0.0
0
LINE
8
FRONT
10
2.600000
20
-0.390024
30
0.0
11
2.700000
21
-0.389921
31
0.0
0
LINE
8
FRONT
10
2.700000
20
-0.389921
30
0.0
11
2.800000
21
-0.389818
31
0.0
0
LINE
8
FRONT
10
2.800000
20
-0.389818
30
0.0
11
2.900000
21
-0.389715
31
0.0
0
LINE
8
FRONT
10
2.900000
20
-0.389715
30
0.0
11
3.000000
21
-0.389612
31
0.0
0
LINE
8
FRONT
10
3.000000
20
-0.389612
30
0.0
11
3.100000
21
-0.389508
31
0.0
0
LINE
8
FRONT
10
3.100000
20
-0.389508
30
0.0
11
3.200000
21
-0.389405
31
0.0
0
LINE
8
FRONT
10
3.200000
20
-0.389405
30
0.0
11
3.300000
21
-0.389302
31
0.0
0
LINE
8
FRONT
10
3.300000
20
-0.389302
30
0.0
11
3.400000
21
-0.389199
31
0.0
0
LINE
8
FRONT
10
3.400000
20
-0.389199
30
0.0
11
3.500000
21
-0.389096
31
0.0
0
LINE
8
FRONT
10
3.500000
20
-0.389096
30
0.0
11
3.600000
21
-0.388992
31
0.0
0
LINE
8
FRONT
10
3.600000
20
-0.388992
30
0.0
11
3.700000
21
-0.388889
31
0.0
0
LINE
8
FRONT
10
3.700000
20
-0.388889
30
0.0
11
3.800000
21
-0.388786
31
0.0
0
LINE
8
FRONT
10
3.800000
20
-0.388786
30
0.0
11
3.900000
21
-0.388683
31
0.0
0
LINE
8
FRONT
10
3.900000
20
-0.388683
30
0.0
11
4.000000
21
-0.388579
31
0.0
0
LINE
8
FRONT
10
4.000000
20
-0.388579
30
0.0
11
4.100000
21
-0.388683
31
0.0
0
LINE
8
FRONT
10
4.100000
20
-0.388683
30
0.0
11
4.200000
21
-0.388786
31
0.0
0
LINE
8
FRONT
10
4.200000
20
-0.388786
30
0.0
11
4.300000
21
-0.388889
31
0.0
0
LINE
8
FRONT
10
4.300000
20
-0.388889
30
0.0
11
4.400000
21
-0.388992
31
0.0
0
LINE
8
FRONT
10
4.400000
20
-0.388992
30
0.0
11
4.500000
21
-0.389096
31
0.0
0
LINE
8
FRONT
10
4.500000
20
-0.389096
30
0.0
11
4.600000
21
-0.389199
31
0.0
0
LINE
8
FRONT
10
4.600000
20
-0.389199
30
0.0
11
4.700000
21
-0.389302
31
0.0
0
LINE
8
FRONT
10
4.700000
20
-0.389302
30
0.0
11
4.800000
21
-0.389405
31
0.0
0
LINE
8
FRONT
10
4.800000
20
-0.389405
30
0.0
11
4.900000
21
-0.389508
31
0.0
0
LINE
8
FRONT
10
4.900000
20
-0.389508
30
0.0
11
5.000000
21
-0.389612
31
0.0
0
LINE
8
FRONT
10
5.000000
20
-0.389612
30
0.0
11
5.100000
21
-0.389715
31
0.0
0
LINE
8
FRONT
10
5.100000
20
-0.389715
30
0.0
11
5.200000
21
-0.389818
31
0.0
0
LINE
8
FRONT
10
5.200000
20
-0.389818
30
0.0
11
5.300000
21
-0.389921
31
0.0
0
LINE
8
FRONT
10
5.300000
20
-0.389921
30
0.0
11
5.400000
21
-0.390024
31
0.0
0
LINE
8
FRONT
10
5.400000
20
-0.390024
30
0.0
11
5.500000
21
-0.390128
31
0.0
0
LINE
8
FRONT
10
5.500000
20
-0.390128
30
0.0
11
5.600000
21
-0.390231
31
0.0
0
LINE
8
FRONT
10
5.600000
20
-0.390231
30
0.0
11
5.700000
21
-0.390334
31
0.0
0
LINE
8
FRONT
10
5.700000
20
-0.390334
30
0.0
11
5.800000
21
-0.390437
31
0.0
0
LINE
8
FRONT
10
5.800000
20
-0.390437
30
0.0
11
5.900000
21
-0.390540
31
0.0
0
LINE
8
FRONT
10
5.900000
20
-0.390540
30
0.0
11
6.000000
21
-0.390644
31
0.0
0
LINE
8
FRONT
10
6.000000
20
-0.390644
30
0.0
11
6.100000
21
-0.390747
31
0.0
0
LINE
8
FRONT
10
6.100000
20
-0.390747
30
0.0
11
6.200000
21
-0.390850
31
0.0
0
LINE
8
FRONT
10
6.200000
20
-0.390850
30
0.0
11
6.300000
21
-0.390953
31
0.0
0
LINE
8
FRONT
10
6.300000
20
-0.390953
30
0.0
11
6.400000
21
-0.391056
31
0.0
0
LINE
8
FRONT
10
6.400000
20
-0.391056
30
0.0
11
6.500000
21
-0.391160
31
0.0
0
LINE
8
FRONT
10
6.500000
20
-0.391160
30
0.0
11
6.600000
21
-0.391263
31
0.0
0
LINE
8
FRONT
10
6.600000
20
-0.391263
30
0.0
11
6.700000
21
-0.391366
31
0.0
0
LINE
8
FRONT
10
6.700000
20
-0.391366
30
0.0
11
6.800000
21
-0.391469
31
0.0
0
LINE
8
FRONT
10
6.800000
20
-0.391469
30
0.0
11
6.900000
21
-0.391573
31
0.0
0
LINE
8
FRONT
10
6.900000
20
-0.391573
30
0.0
11
7.000000
21
-0.391676
31
0.0
0
LINE
8
FRONT
10
7.000000
20
-0.391676
30
0.0
11
7.100000
21
-0.391779
31
0.0
0
LINE
8
FRONT
10
7.100000
20
-0.391779
30
0.0
11
7.200000
21
-0.391882
31
0.0
0
LINE
8
FRONT
10
7.200000
20
-0.391882
30
0.0
11
7.300000
21
-0.391985
31
0.0
0
LINE
8
FRONT
10
7.300000
20
-0.391985
30
0.0
11
7.400000
21
-0.392089
31
0.0
0
LINE
8
FRONT
10
7.400000
20
-0.392089
30
0.0
11
7.500000
21
-0.392192
31
0.0
0
LINE
8
FRONT
10
7.500000
20
-0.392192
30
0.0
11
7.600000
21
-0.392295
31
0.0
0
LINE
8
FRONT
10
7.600000
20
-0.392295
30
0.0
11
7.700000
21
-0.392398
31
0.0
0
LINE
8
FRONT
10
7.700000
20
-0.392398
30
0.0
11
7.800000
21
-0.392501
31
0.0
0
LINE
8
FRONT
10
7.800000
20
-0.392501
30
0.0
11
7.900000
21
-0.392605
31
0.0
0
LINE
8
FRONT
10
7.900000
20
-0.392605
30
0.0
11
8.000000
21
-0.392708
31
0.0
0
LINE
8
FRONT
10
0.000000
20
0.392708
30
0.0
11
0.000000
21
-0.392708
31
0.0
0
LINE
8
FRONT
10
8.000000
20
0.392708
30
0.0
11
8.000000
21
-0.392708
31
0.0
0
LINE
8
TOP
10
0.000000
20
2.103124
30
0.0
11
0.100000
21
2.103888
31
0.0
0
LINE
8
TOP
10
0.100000
20
2.103888
30
0.0
11
0.200000
21
2.104652
31
0.0
0
LINE
8
TOP
10
0.200000
20
2.104652
30
0.0
11
0.300000
21
2.105416
31
0.0
0
LINE
8
TOP
10
0.300000
20
2.105416
30
0.0
11
0.400000
21
2.106181
31
0.0
0
LINE
8
TOP
10
0.400000
20
2.106181
30
0.0
11
0.500000
21
2.106945
31
0.0
0
LINE
8
TOP
10
0.500000
20
2.106945
30
0.0
11
0.600000
21
2.107709
31
0.0
0
LINE
8
TOP
10
0.600000
20
2.107709
30
0.0
11
0.700000
21
2.108473
31
0.0
0
LINE
8
TOP
10
0.700000
20
2.108473
30
0.0
11
0.800000
21
2.109238
31
0.0
0
LINE
8
TOP
10
0.800000
20
2.109238
30
0.0
11
0.900000
21
2.110002
31
0.0
0
LINE
8
TOP
10
0.900000
20
2.110002
30
0.0
11
1.000000
21
2.110766
31
0.0
0
LINE
8
TOP
10
1.000000
20
2.110766
30
0.0
11
1.100000
21
2.111530
31
0.0
0
LINE
8
TOP
10
1.100000
20
2.111530
30
0.0
11
1.200000
21
2.112295
31
0.0
0
LINE
8
TOP
10
1.200000
20
2.112295
30
0.0
11
1.300000
21
2.113059
31
0.0
0
LINE
8
TOP
10
1.300000
20
2.113059
30
0.0
11
1.400000
21
2.113823
31
0.0
0
LINE
8
TOP
10
1.400000
20
2.113823
30
0.0
11
1.500000
21
2.114587
31
0.0
0
LINE
8
TOP
10
1.500000
20
2.114587
30
0.0
11
1.600000
21
2.115352
31
0.0
0
LINE
8
TOP
10
1.600000
20
2.115352
30
0.0
11
1.700000
21
2.116116
31
0.0
0
LINE
8
TOP
10
1.700000
20
2.116116
30
0.0
11
1.800000
21
2.116880
31
0.0
0
LINE
8
TOP
10
1.800000
20
2.116880
30
0.0
11
1.900000
21
2.117645
31
0.0
0
LINE
8
TOP
10
1.900000
20
2.117645
30
0.0
11
2.000000
21
2.118409
31
0.0
0
LINE
8
TOP
10
2.000000
20
2.118409
30
0.0
11
2.100000
21
2.119173
31
0.0
0
LINE
8
TOP
10
2.100000
20
2.119173
30
0.0
11
2.200000
21
2.119937
31
0.0
0
LINE
8
TOP
10
2.200000
20
2.119937
30
0.0
11
2.300000
21
2.120702
31
0.0
0
LINE
8
TOP
10
2.300000
20
2.120702
30
0.0
11
2.400000
21
2.121466
31
0.0
0
LINE
8
TOP
10
2.400000
20
2.121466
30
0.0
11
2.500000
21
2.122230
31
0.0
0
LINE
8
TOP
10
2.500000
20
2.122230
30
0.0
11
2.600000
21
2.122994
31
0.0
0
LINE
8
TOP
10
2.600000
20
2.122994
30
0.0
11
2.700000
21
2.123759
31
0.0
0
LINE
8
TOP
10
2.700000
20
2.123759
30
0.0
11
2.800000
21
2.124523
31
0.0
0
LINE
8
TOP
10
2.800000
20
2.124523
30
0.0
11
2.900000
21
2.125287
31
0.0
0
LINE
8
TOP
10
2.900000
20
2.125287
30
0.0
11
3.000000
21
2.126051
31
0.0
0
LINE
8
TOP
10
3.000000
20
2.126051
30
0.0
11
3.100000
21
2.126816
31
0.0
0
LINE
8
TOP
10
3.100000
20
2.126816
30
0.0
11
3.200000
21
2.127580
31
0.0
0
LINE
8
TOP
10
3.200000
20
2.127580
30
0.0
11
3.300000
21
2.128344
31
0.0
0
LINE
8
TOP
10
3.300000
20
2.128344
30
0.0
11
3.400000
21
2.129108
31
0.0
0
LINE
8
TOP
10
3.400000
20
2.129108
30
0.0
11
3.500000
21
2.129873
31
0.0
0
LINE
8
TOP
10
3.500000
20
2.129873
30
0.0
11
3.600000
21
2.130637
31
0.0
0
LINE
8
TOP
10
3.600000
20
2.130637
30
0.0
11
3.700000
21
2.131401
31
0.0
0
LINE
8
TOP
10
3.700000
20
2.131401
30
0.0
11
3.800000
21
2.132165
31
0.0
0
LINE
8
TOP
10
3.800000
20
2.132165
30
0.0
11
3.900000
21
2.132930
31
0.0
0
LINE
8
TOP
10
3.900000
20
2.132930
30
0.0
11
4.000000
21
2.133694
31
0.0
0
LINE
8
TOP
10
4.000000
20
2.133694
30
0.0
11
4.100000
21
2.132930
31
0.0
0
LINE
8
TOP
10
4.100000
20
2.132930
30
0.0
11
4.200000
21
2.132165
31
0.0
0
LINE
8
TOP
10
4.200000
20
2.132165
30
0.0
11
4.300000
21
2.131401
31
0.0
0
LINE
8
TOP
10
4.300000
20
2.131401
30
0.0
11
4.400000
21
2.130637
31
0.0
0
LINE
8
TOP
10
4.400000
20
2.130637
30
0.0
11
4.500000
21
2.129873
31
0.0
0
LINE
8
TOP
10
4.500000
20
2.129873
30
0.0
11
4.600000
21
2.129108
31
0.0
0
LINE
8
TOP
10
4.600000
20
2.129108
30
0.0
11
4.700000
21
2.128344
31
0.0
0
LINE
8
TOP
10
4.700000
20
2.128344
30
0.0
11
4.800000
21
2.127580
31
0.0
0
LINE
8
TOP
10
4.800000
20
2.127580
30
0.0
11
4.900000
21
2.126816
31
0.0
0
LINE
8
TOP
10
4.900000
20
2.126816
30
0.0
11
5.000000
21
2.126051
31
0.0
0
LINE
8
TOP
10
5.000000
20
2.126051
30
0.0
11
5.100000
21
2.125287
31
0.0
0
LINE
8
TOP
10
5.100000
20
2.125287
30
0.0
11
5.200000
21
2.124523
31
0.0
0
LINE
8
TOP
10
5.200000
20
2.124523
30
0.0
11
5.300000
21
2.123759
31
0.0
0
LINE
8
TOP
10
5.300000
20
2.123759
30
0.0
11
5.400000
21
2.122994
31
0.0
0
LINE
8
TOP
10
5.400000
20
2.122994
30
0.0
11
5.500000
21
2.122230
31
0.0
0
LINE
8
TOP
10
5.500000
20
2.122230
30
0.0
11
5.600000
21
2.121466
31
0.0
0
LINE
8
TOP
10
5.600000
20
2.121466
30
0.0
11
5.700000
21
2.120702
31
0.0
0
LINE
8
TOP
10
5.700000
20
2.120702
30
0.0
11
5.800000
21
2.119937
31
0.0
0
LINE
8
TOP
10
5.800000
20
2.119937
30
0.0
11
5.900000
21
2.119173
31
0.0
0
LINE
8
TOP
10
5.900000
20
2.119173
30
0.0
11
6.000000
21
2.118409
31
0.0
0
LINE
8
TOP
10
6.000000
20
2.118409
30
0.0
11
6.100000
21
2.117645
31
0.0
0
LINE
8
TOP
10
6.100000
20
2.117645
30
0.0
11
6.200000
21
2.116880
31
0.0
0
LINE
8
TOP
10
6.200000
20
2.116880
30
0.0
11
6.300000
21
2.116116
31
0.0
0
LINE
8
TOP
10
6.300000
20
2.116116
30
0.0
11
6.400000
21
2.115352
31
0.0
0
LINE
8
TOP
10
6.400000
20
2.115352
30
0.0
11
6.500000
21
2.114587
31
0.0
0
LINE
8
TOP
10
6.500000
20
2.114587
30
0.0
11
6.600000
21
2.113823
31
0.0
0
LINE
8
TOP
10
6.600000
20
2.113823
30
0.0
11
6.700000
21
2.113059
31
0.0
0
LINE
8
TOP
10
6.700000
20
2.113059
30
0.0
11
6.800000
21
2.112295
31
0.0
0
LINE
8
TOP
10
6.800000
20
2.112295
30
0.0
11
6.900000
21
2.111530
31
0.0
0
LINE
8
TOP
10
6.900000
20
2.111530
30
0.0
11
7.000000
21
2.110766
31
0.0
0
LINE
8
TOP
10
7.000000
20
2.110766
30
0.0
11
7.100000
21
2.110002
31
0.0
0
LINE
8
TOP
10
7.100000
20
2.110002
30
0.0
11
7.200000
21
2.109238
31
0.0
0
LINE
8
TOP
10
7.200000
20
2.109238
30
0.0
11
7.300000
21
2.108473
31
0.0
0
LINE
8
TOP
10
7.300000
20
2.108473
30
0.0
11
7.400000
21
2.107709
31
0.0
0
LINE
8
TOP
10
7.400000
20
2.107709
30
0.0
11
7.500000
21
2.106945
31
0.0
0
LINE
8
TOP
10
7.500000
20
2.106945
30
0.0
11
7.600000
21
2.106181
31
0.0
0
LINE
8
TOP
10
7.600000
20
2.106181
30
0.0
11
7.700000
21
2.105416
31
0.0
0
LINE
8
TOP
10
7.700000
20
2.105416
30
0.0
11
7.800000
21
2.104652
31
0.0
0
LINE
8
TOP
10
7.800000
20
2.104652
30
0.0
11
7.900000
21
2.103888
31
0.0
0
LINE
8
TOP
10
7.900000
20
2.103888
30
0.0
11
8.000000
21
2.103124
31
0.0
0
LINE
8
TOP
10
0.000000
20
1.753124
30
0.0
11
0.100000
21
1.752359
31
0.0
0
LINE
8
TOP
10
0.100000
20
1.752359
30
0.0
11
0.200000
21
1.751595
31
0.0
0
LINE
8
TOP
10
0.200000
20
1.751595
30
0.0
11
0.300000
21
1.750831
31
0.0
0
LINE
8
TOP
10
0.300000
20
1.750831
30
0.0
11
0.400000
21
1.750067
31
0.0
0
LINE
8
TOP
10
0.400000
20
1.750067
30
0.0
11
0.500000
21
1.749302
31
0.0
0
LINE
8
TOP
10
0.500000
20
1.749302
30
0.0
11
0.600000
21
1.748538
31
0.0
0
LINE
8
TOP
10
0.600000
20
1.748538
30
0.0
11
0.700000
21
1.747774
31
0.0
0
LINE
8
TOP
10
0.700000
20
1.747774
30
0.0
11
0.800000
21
1.747009
31
0.0
0
LINE
8
TOP
10
0.800000
20
1.747009
30
0.0
11
0.900000
21
1.746245
31
0.0
0
LINE
8
TOP
10
0.900000
20
1.746245
30
0.0
11
1.000000
21
1.745481
31
0.0
0
LINE
8
TOP
10
1.000000
20
1.745481
30
0.0
11
1.100000
21
1.744717
31
0.0
0
LINE
8
TOP
10
1.100000
20
1.744717
30
0.0
11
1.200000
21
1.743952
31
0.0
0
LINE
8
TOP
10
1.200000
20
1.743952
30
0.0
11
1.300000
21
1.743188
31
0.0
0
LINE
8
TOP
10
1.300000
20
1.743188
30
0.0
11
1.400000
21
1.742424
31
0.0
0
LINE
8
TOP
10
1.400000
20
1.742424
30
0.0
11
1.500000
21
1.741660
31
0.0
0
LINE
8
TOP
10
1.500000
20
1.741660
30
0.0
11
1.600000
21
1.740895
31
0.0
0
LINE
8
TOP
10
1.600000
20
1.740895
30
0.0
11
1.700000
21
1.740131
31
0.0
0
LINE
8
TOP
10
1.700000
20
1.740131
30
0.0
11
1.800000
21
1.739367
31
0.0
0
LINE
8
TOP
10
1.800000
20
1.739367
30
0.0
11
1.900000
21
1.738603
31
0.0
0
LINE
8
TOP
10
1.900000
20
1.738603
30
0.0
11
2.000000
21
1.737838
31
0.0
0
LINE
8
TOP
10
2.000000
20
1.737838
30
0.0
11
2.100000
21
1.737074
31
0.0
0
LINE
8
TOP
10
2.100000
20
1.737074
30
0.0
11
2.200000
21
1.736310
31
0.0
0
LINE
8
TOP
10
2.200000
20
1.736310
30
0.0
11
2.300000
21
1.735546
31
0.0
0
LINE
8
TOP
10
2.300000
20
1.735546
30
0.0
11
2.400000
21
1.734781
31
0.0
0
LINE
8
TOP
10
2.400000
20
1.734781
30
0.0
11
2.500000
21
1.734017
31
0.0
0
LINE
8
TOP
10
2.500000
20
1.734017
30
0.0
11
2.600000
21
1.733253
31
0.0
0
LINE
8
TOP
10
2.600000
20
1.733253
30
0.0
11
2.700000
21
1.732489
31
0.0
0
LINE
8
TOP
10
2.700000
20
1.732489
30
0.0
11
2.800000
21
1.731724
31
0.0
0
LINE
8
TOP
10
2.800000
20
1.731724
30
0.0
11
2.900000
21
1.730960
31
0.0
0
LINE
8
TOP
10
2.900000
20
1.730960
30
0.0
11
3.000000
21
1.730196
31
0.0
0
LINE
8
TOP
10
3.000000
20
1.730196
30
0.0
11
3.100000
21
1.729431
31
0.0
0
LINE
8
TOP
10
3.100000
20
1.729431
30
0.0
11
3.200000
21
1.728667
31
0.0
0
LINE
8
TOP
10
3.200000
20
1.728667
30
0.0
11
3.300000
21
1.727903
31
0.0
0
LINE
8
TOP
10
3.300000
20
1.727903
30
0.0
11
3.400000
21
1.727139
31
0.0
0
LINE
8
TOP
10
3.400000
20
1.727139
30
0.0
11
3.500000
21
1.726374
31
0.0
0
LINE
8
TOP
10
3.500000
20
1.726374
30
0.0
11
3.600000
21
1.725610
31
0.0
0
LINE
8
TOP
10
3.600000
20
1.725610
30
0.0
11
3.700000
21
1.724846
31
0.0
0
LINE
8
TOP
10
3.700000
20
1.724846
30
0.0
11
3.800000
21
1.724082
31
0.0
0
LINE
8
TOP
10
3.800000
20
1.724082
30
0.0
11
3.900000
21
1.723317
31
0.0
0
LINE
8
TOP
10
3.900000
20
1.723317
30
0.0
11
4.000000
21
1.722553
31
0.0
0
LINE
8
TOP
10
4.000000
20
1.722553
30
0.0
11
4.100000
21
1.723317
31
0.0
0
LINE
8
TOP
10
4.100000
20
1.723317
30
0.0
11
4.200000
21
1.724082
31
0.0
0
LINE
8
TOP
10
4.200000
20
1.724082
30
0.0
11
4.300000
21
1.724846
31
0.0
0
LINE
8
TOP
10
4.300000
20
1.724846
30
0.0
11
4.400000
21
1.725610
31
0.0
0
LINE
8
TOP
10
4.400000
20
1.725610
30
0.0
11
4.500000
21
1.726374
31
0.0
0
LINE
8
TOP
10
4.500000
20
1.726374
30
0.0
11
4.600000
21
1.727139
31
0.0
0
LINE
8
TOP
10
4.600000
20
1.727139
30
0.0
11
4.700000
21
1.727903
31
0.0
0
LINE
8
TOP
10
4.700000
20
1.727903
30
0.0
11
4.800000
21
1.728667
31
0.0
0
LINE
8
TOP
10
4.800000
20
1.728667
30
0.0
11
4.900000
21
1.729431
31
0.0
0
LINE
8
TOP
10
4.900000
20
1.729431
30
0.0
11
5.000000
21
1.730196
31
0.0
0
LINE
8
TOP
10
5.000000
20
1.730196
30
0.0
11
5.100000
21
1.730960
31
0.0
0
LINE
8
TOP
10
5.100000
20
1.730960
30
0.0
11
5.200000
21
1.731724
31
0.0
0
LINE
8
TOP
10
5.200000
20
1.731724
30
0.0
11
5.300000
21
1.732489
31
0.0
0
LINE
8
TOP
10
5.300000
20
1.732489
30
0.0
11
5.400000
21
1.733253
31
0.0
0
LINE
8
TOP
10
5.400000
20
1.733253
30
0.0
11
5.500000
21
1.734017
31
0.0
0
LINE
8
TOP
10
5.500000
20
1.734017
30
0.0
11
5.600000
21
1.734781
31
0.0
0
LINE
8
TOP
10
5.600000
20
1.734781
30
0.0
11
5.700000
21
1.735546
31
0.0
0
LINE
8
TOP
10
5.700000
20
1.735546
30
0.0
11
5.800000
21
1.736310
31
0.0
0
LINE
8
TOP
10
5.800000
20
1.736310
30
0.0
11
5.900000
21
1.737074
31
0.0
0
LINE
8
TOP
10
5.900000
20
1.737074
30
0.0
11
6.000000
21
1.737838
31
0.0
0
LINE
8
TOP
10
6.000000
20
1.737838
30
0.0
11
6.100000
21
1.738603
31
0.0
0
LINE
8
TOP
10
6.100000
20
1.738603
30
0.0
11
6.200000
21
1.739367
31
0.0
0
LINE
8
TOP
10
6.200000
20
1.739367
30
0.0
11
6.300000
21
1.740131
31
0.0
0
LINE
8
TOP
10
6.300000
20
1.740131
30
0.0
11
6.400000
21
1.740895
31
0.0
0
LINE
8
TOP
10
6.400000
20
1.740895
30
0.0
11
6.500000
21
1.741660
31
0.0
0
LINE
8
TOP
10
6.500000
20
1.741660
30
0.0
11
6.600000
21
1.742424
31
0.0
0
LINE
8
TOP
10
6.600000
20
1.742424
30
0.0
11
6.700000
21
1.743188
31
0.0
0
LINE
8
TOP
10
6.700000
20
1.743188
30
0.0
11
6.800000
21
1.743952
31
0.0
0
LINE
8
TOP
10
6.800000
20
1.743952
30
0.0
11
6.900000
21
1.744717
31
0.0
0
LINE
8
TOP
10
6.900000
20
1.744717
30
0.0
11
7.000000
21
1.745481
31
0.0
0
LINE
8
TOP
10
7.000000
20
1.745481
30
0.0
11
7.100000
21
1.746245
31
0.0
0
LINE
8
TOP
10
7.100000
20
1.746245
30
0.0
11
7.200000
21
1.747009
31
0.0
0
LINE
8
TOP
10
7.200000
20
1.747009
30
0.0
11
7.300000
21
1.747774
31
0.0
0
LINE
8
TOP
10
7.300000
20
1.747774
30
0.0
11
7.400000
21
1.748538
31
0.0
0
LINE
8
TOP
10
7.400000
20
1.748538
30
0.0
11
7.500000
21
1.749302
31
0.0
0
LINE
8
TOP
10
7.500000
20
1.749302
30
0.0
11
7.600000
21
1.750067
31
0.0
0
LINE
8
TOP
10
7.600000
20
1.750067
30
0.0
11
7.700000
21
1.750831
31
0.0
0
LINE
8
TOP
10
7.700000
20
1.750831
30
0.0
11
7.800000
21
1.751595
31
0.0
0
LINE
8
TOP
10
7.800000
20
1.751595
30
0.0
11
7.900000
21
1.752359
31
0.0
0
LINE
8
TOP
10
7.900000
20
1.752359
30
0.0
11
8.000000
21
1.753124
31
0.0
0
LINE
8
TOP
10
0.000000
20
2.103124
30
0.0
11
0.000000
21
1.753124
31
0.0
0
LINE
8
TOP
10
8.000000
20
2.103124
30
0.0
11
8.000000
21
1.753124
31
0.0
0
LINE
8
SECTION
10
9.294430
20
-0.388579
30
0.0
11
9.705570
21
-0.388579
31
0.0
0
LINE
8
SECTION
10
9.705570
20
-0.388579
30
0.0
11
9.705570
21
0.388579
31
0.0
0
LINE
8
SECTION
10
9.705570
20
0.388579
30
0.0
11
9.294430
21
0.388579
31
0.0
0
LINE
8
SECTION
10
9.294430
20
0.388579
30
0.0
11
9.294430
21
-0.388579
31
0.0
0
LINE
8
SECTION
10
9.354819
20
-0.328190
30
0.0
11
9.645181
21
-0.328190
31
0.0
0
LINE
8
SECTION
10
9.645181
20
-0.328190
30
0.0
11
9.645181
21
0.328190
31
0.0
0
LINE
8
SECTION
10
9.645181
20
0.328190
30
0.0
11
9.354819
21
0.328190
31
0.0
0
LINE
8
SECTION
10
9.354819
20
0.328190
30
0.0
11
9.354819
21
-0.328190
31
0.0
0
LINE
8
SECTION
10
9.354819
20
0.207153
30
0.0
11
9.415208
21
0.207153
31
0.0
0
LINE
8
SECTION
10
9.415208
20
0.207153
30
0.0
11
9.415208
21
0.328190
31
0.0
0
LINE
8
SECTION
10
9.415208
20
0.328190
30
0.0
11
9.354819
21
0.328190
31
0.0
0
LINE
8
SECTION
10
9.354819
20
0.328190
30
0.0
11
9.354819
21
0.207153
31
0.0
0
LINE
8
SECTION
10
9.354819
20
-0.328190
30
0.0
11
9.415208
21
-0.328190
31
0.0
0
LINE
8
SECTION
10
9.415208
20
-0.328190
30
0.0
11
9.415208
21
-0.207153
31
0.0
0
LINE
8
SECTION
10
9.415208
20
-0.207153
30
0.0
11
9.354819
21
-0.207153
31
0.0
0
LINE
8
SECTION
10
9.354819
20
-0.207153
30
0.0
11
9.354819
21
-0.328190
31
0.0
0
LINE
8
SECTION
10
9.584792
20
0.207153
30
0.0
11
9.645181
21
0.207153
31
0.0
0
LINE
8
SECTION
10
9.645181
20
0.207153
30
0.0
11
9.645181
21
0.328190
31
0.0
0
LINE
8
SECTION
10
9.645181
20
0.328190
30
0.0
11
9.584792
21
0.328190
31
0.0
0
LINE
8
SECTION
10
9.584792
20
0.328190
30
0.0
11
9.584792
21
0.207153
31
0.0
0
LINE
8
SECTION
10
9.584792
20
-0.328190
30
0.0
11
9.645181
21
-0.328190
31
0.0
0
LINE
8
SECTION
10
9.645181
20
-0.328190
30
0.0
11
9.645181
21
-0.207153
31
0.0
0
LINE
8
SECTION
10
9.645181
20
-0.207153
30
0.0
11
9.584792
21
-0.207153
31
0.0
0
LINE
8
SECTION
10
9.584792
20
-0.207153
30
0.0
11
9.584792
21
-0.328190
31
0.0
0
ENDSEC
0
EOF
