0
SECTION
2
HEADER
9
$INSUNITS
70
1
0
ENDSEC
0
SECTION
2
ENTITIES
0
LINE
8
FRONT
10
0.000000
20
0.189472
30
0.0
11
0.100000
21
0.189574
31
0.0
0
LINE
8
FRONT
10
0.100000
20
0.189574
30
0.0
11
0.200000
21
0.189676
31
0.0
0
LINE
8
FRONT
10
0.200000
20
0.189676
30
0.0
11
0.300000
21
0.189778
31
0.0
0
LINE
8
FRONT
10
0.300000
20
0.189778
30
0.0
11
0.400000
21
0.189879
31
0.0
0
LINE
8
FRONT
10
0.400000
20
0.189879
30
0.0
11
0.500000
21
0.189981
31
0.0
0
LINE
8
FRONT
10
0.500000
20
0.189981
30
0.0
11
0.600000
21
0.190083
31
0.0
0
LINE
8
FRONT
10
0.600000
20
0.190083
30
0.0
11
0.700000
21
0.190185
31
0.0
0
LINE
8
FRONT
10
0.700000
20
0.190185
30
0.0
11
0.800000
21
0.190287
31
0.0
0
LINE
8
FRONT
10
0.800000
20
0.190287
30
0.0
11
0.900000
21
0.190389
31
0.0
0
LINE
8
FRONT
10
0.900000
20
0.190389
30
0.0
11
1.000000
21
0.190491
31
0.0
0
LINE
8
FRONT
10
1.000000
20
0.190491
30
0.0
11
1.100000
21
0.190592
31
0.0
0
LINE
8
FRONT
10
1.100000
20
0.190592
30
0.0
11
1.200000
21
0.190694
31
0.0
0
LINE
8
FRONT
10
1.200000
20
0.190694
30
0.0
11
1.300000
21
0.190796
31
0.0
0
LINE
8
FRONT
10
1.300000
20
0.190796
30
0.0
11
1.400000
21
0.190898
31
0.0
0
LINE
8
FRONT
10
1.400000
20
0.190898
30
0.0
11
1.500000
21
0.191000
31
0.0
0
LINE
8
FRONT
10
1.500000
20
0.191000
30
0.0
11
1.600000
21
0.191102
31
0.0
0
LINE
8
FRONT
10
1.600000
20
0.191102
30
0.0
11
1.700000
21
0.191204
31
0.0
0
LINE
8
FRONT
10
1.700000
20
0.191204
30
0.0
11
1.800000
21
0.191305
31
0.0
0
LINE
8
FRONT
10
1.800000
20
0.191305
30
0.0
11
1.900000
21
0.191407
31
0.0
0
LINE
8
FRONT
10
1.900000
20
0.191407
30
0.0
11
2.000000
21
0.191509
31
0.0
0
LINE
8
FRONT
10
2.000000
20
0.191509
30
0.0
11
2.100000
21
0.191611
31
0.0
0
LINE
8
FRONT
10
2.100000
20
0.191611
30
0.0
11
2.200000
21
0.191713
31
0.0
0
LINE
8
FRONT
10
2.200000
20
0.191713
30
0.0
11
2.300000
21
0.191815
31
0.0
0
LINE
8
FRONT
10
2.300000
20
0.191815
30
0.0
11
2.400000
21
0.191917
31
0.0
0
LINE
8
FRONT
10
2.400000
20
0.191917
30
0.0
11
2.500000
21
0.192018
31
0.0
0
LINE
8
FRONT
10
2.500000
20
0.192018
30
0.0
11
2.600000
21
0.192120
31
0.0
0
LINE
8
FRONT
10
2.600000
20
0.192120
30
0.0
11
2.700000
21
0.192222
31
0.0
0
LINE
8
FRONT
10
2.700000
20
0.192222
30
0.0
11
2.800000
21
0.192324
31
0.0
0
LINE
8
FRONT
10
2.800000
20
0.192324
30
0.0
11
2.900000
21
0.192426
31
0.0
0
LINE
8
FRONT
10
2.900000
20
0.192426
30
0.0
11
3.000000
21
0.192528
31
0.0
0
LINE
8
FRONT
10
3.000000
20
0.192528
30
0.0
11
3.100000
21
0.192630
31
0.0
0
LINE
8
FRONT
10
3.100000
20
0.192630
30
0.0
11
3.200000
21
0.192731
31
0.0
0
LINE
8
FRONT
10
3.200000
20
0.192731
30
0.0
11
3.300000
21
0.192833
31
0.0
0
LINE
8
FRONT
10
3.300000
20
0.192833
30
0.0
11
3.400000
21
0.192935
31
0.0
0
LINE
8
FRONT
10
3.400000
20
0.192935
30
0.0
11
3.500000
21
0.193037
31
0.0
0
LINE
8
FRONT
10
3.500000
20
0.193037
30
0.0
11
3.600000
21
0.193139
31
0.0
0
LINE
8
FRONT
10
3.600000
20
0.193139
30
0.0
11
3.700000
21
0.193241
31
0.0
0
LINE
8
FRONT
10
3.700000
20
0.193241
30
0.0
11
3.800000
21
0.193343
31
0.0
0
LINE
8
FRONT
10
3.800000
20
0.193343
30
0.0
11
3.900000
21
0.193445
31
0.0
0
LINE
8
FRONT
10
3.900000
20
0.193445
30
0.0
11
4.000000
21
0.193546
31
0.0
0
LINE
8
FRONT
10
4.000000
20
0.193546
30
0.0
11
4.100000
21
0.211131
31
0.0
0
LINE
8
FRONT
10
4.100000
20
0.211131
30
0.0
11
4.200000
21
0.228715
31
0.0
0
LINE
8
FRONT
10
4.200000
20
0.228715
30
0.0
11
4.300000
21
0.246300
31
0.0
0
LINE
8
FRONT
10
4.300000
20
0.246300
30
0.0
11
4.400000
21
0.263884
31
0.0
0
LINE
8
FRONT
10
4.400000
20
0.263884
30
0.0
11
4.500000
21
0.281469
31
0.0
0
LINE
8
FRONT
10
4.500000
20
0.281469
30
0.0
11
4.600000
21
0.299053
31
0.0
0
LINE
8
FRONT
10
4.600000
20
0.299053
30
0.0
11
4.700000
21
0.316637
31
0.0
0
LINE
8
FRONT
10
4.700000
20
0.316637
30
0.0
11
4.800000
21
0.334222
31
0.0
0
LINE
8
FRONT
10
4.800000
20
0.334222
30
0.0
11
4.900000
21
0.351806
31
0.0
0
LINE
8
FRONT
10
4.900000
20
0.351806
30
0.0
11
5.000000
21
0.369391
31
0.0
0
LINE
8
FRONT
10
5.000000
20
0.369391
30
0.0
11
5.100000
21
0.386975
31
0.0
0
LINE
8
FRONT
10
5.100000
20
0.386975
30
0.0
11
5.200000
21
0.404560
31
0.0
0
LINE
8
FRONT
10
5.200000
20
0.404560
30
0.0
11
5.300000
21
0.422144
31
0.0
0
LINE
8
FRONT
10
5.300000
20
0.422144
30
0.0
11
5.400000
21
0.439729
31
0.0
0
LINE
8
FRONT
10
5.400000
20
0.439729
30
0.0
11
5.500000
21
0.457313
31
0.0
0
LINE
8
FRONT
10
5.500000
20
0.457313
30
0.0
11
5.600000
21
0.474897
31
0.0
0
LINE
8
FRONT
10
5.600000
20
0.474897
30
0.0
11
5.700000
21
0.492482
31
0.0
0
LINE
8
FRONT
10
5.700000
20
0.492482
30
0.0
11
5.800000
21
0.510066
31
0.0
0
LINE
8
FRONT
10
5.800000
20
0.510066
30
0.0
11
5.900000
21
0.527651
31
0.0
0
LINE
8
FRONT
10
5.900000
20
0.527651
30
0.0
11
6.000000
21
0.545235
31
0.0
0
LINE
8
FRONT
10
6.000000
20
0.545235
30
0.0
11
6.100000
21
0.562820
31
0.0
0
LINE
8
FRONT
10
6.100000
20
0.562820
30
0.0
11
6.200000
21
0.580404
31
0.0
0
LINE
8
FRONT
10
6.200000
20
0.580404
30
0.0
11
6.300000
21
0.597988
31
0.0
0
LINE
8
FRONT
10
6.300000
20
0.597988
30
0.0
11
6.400000
21
0.615573
31
0.0
0
LINE
8
FRONT
10
6.400000
20
0.615573
30
0.0
11
6.500000
21
0.633157
31
0.0
0
LINE
8
FRONT
10
6.500000
20
0.633157
30
0.0
11
6.600000
21
0.650742
31
0.0
0
LINE
8
FRONT
10
6.600000
20
0.650742
30
0.0
11
6.700000
21
0.668326
31
0.0
0
LINE
8
FRONT
10
6.700000
20
0.668326
30
0.0
11
6.800000
21
0.685911
31
0.0
0
LINE
8
FRONT
10
6.800000
20
0.685911
30
0.0
11
6.900000
21
0.703495
31
0.0
0
LINE
8
FRONT
10
6.900000
20
0.703495
30
0.0
11
7.000000
21
0.721080
31
0.0
0
LINE
8
FRONT
10
7.000000
20
0.721080
30
0.0
11
7.100000
21
0.738664
31
0.0
0
LINE
8
FRONT
10
7.100000
20
0.738664
30
0.0
11
7.200000
21
0.756248
31
0.0
0
LINE
8
FRONT
10
7.200000
20
0.756248
30
0.0
11
7.300000
21
0.773833
31
0.0
0
LINE
8
FRONT
10
7.300000
20
0.773833
30
0.0
11
7.400000
21
0.791417
31
0.0
0
LINE
8
FRONT
10
7.400000
20
0.791417
30
0.0
11
7.500000
21
0.809002
31
0.0
0
LINE
8
FRONT
10
7.500000
20
0.809002
30
0.0
11
7.600000
21
0.826586
31
0.0
0
LINE
8
FRONT
10
7.600000
20
0.826586
30
0.0
11
7.700000
21
0.844171
31
0.0
0
LINE
8
FRONT
10
7.700000
20
0.844171
30
0.0
11
7.800000
21
0.861755
31
0.0
0
LINE
8
FRONT
10
7.800000
20
0.861755
30
0.0
11
7.900000
21
0.879340
31
0.0
0
LINE
8
FRONT
10
7.900000
20
0.879340
30
0.0
11
8.000000
21
0.896924
31
0.0
0
LINE
8
FRONT
10
0.000000
20
-0.189472
30
0.0
11
0.100000
21
-0.189574
31
0.0
0
LINE
8
FRONT
10
0.100000
20
-0.189574
30
0.0
11
0.200000
21
-0.189676
31
0.0
0
LINE
8
FRONT
10
0.200000
20
-0.189676
30
0.0
11
0.300000
21
-0.189778
31
0.0
0
LINE
8
FRONT
10
0.300000
20
-0.189778
30
0.0
11
0.400000
21
-0.189879
31
0.0
0
LINE
8
FRONT
10
0.400000
20
-0.189879
30
0.0
11
0.500000
21
-0.189981
31
0.0
0
LINE
8
FRONT
10
0.500000
20
-0.189981
30
0.0
11
0.600000
21
-0.190083
31
0.0
0
LINE
8
FRONT
10
0.600000
20
-0.190083
30
0.0
11
0.700000
21
-0.190185
31
0.0
0
LINE
8
FRONT
10
0.700000
20
-0.190185
30
0.0
11
0.800000
21
-0.190287
31
0.0
0
LINE
8
FRONT
10
0.800000
20
-0.190287
30
0.0
11
0.900000
21
-0.190389
31
0.0
0
LINE
8
FRONT
10
0.900000
20
-0.190389
30
0.0
11
1.000000
21
-0.190491
31
0.0
0
LINE
8
FRONT
10
1.000000
20
-0.190491
30
0.0
11
1.100000
21
-0.190592
31
0.0
0
LINE
8
FRONT
10
1.100000
20
-0.190592
30
0.0
11
1.200000
21
-0.190694
31
0.0
0
LINE
8
FRONT
10
1.200000
20
-0.190694
30
0.0
11
1.300000
21
-0.190796
31
0.0
0
LINE
8
FRONT
10
1.300000
20
-0.190796
30
0.0
11
1.400000
21
-0.190898
31
0.0
0
LINE
8
FRONT
10
1.400000
20
-0.190898
30
0.0
11
1.500000
21
-0.191000
31
0.0
0
LINE
8
FRONT
10
1.500000
20
-0.191000
30
0.0
11
1.600000
21
-0.191102
31
0.0
0
LINE
8
FRONT
10
1.600000
20
-0.191102
30
0.0
11
1.700000
21
-0.191204
31
0.0
0
LINE
8
FRONT
10
1.700000
20
-0.191204
30
0.0
11
1.800000
21
-0.191305
31
0.0
0
LINE
8
FRONT
10
1.800000
20
-0.191305
30
0.0
11
1.900000
21
-0.191407
31
0.0
0
LINE
8
FRONT
10
1.900000
20
-0.191407
30
0.0
11
2.000000
21
-0.191509
31
0.0
0
LINE
8
FRONT
10
2.000000
20
-0.191509
30
0.0
11
2.100000
21
-0.191611
31
0.0
0
LINE
8
FRONT
10
2.100000
20
-0.191611
30
0.0
11
2.200000
21
-0.191713
31
0.0
0
LINE
8
FRONT
10
2.200000
20
-0.191713
30
0.0
11
2.300000
21
-0.191815
31
0.0
0
LINE
8
FRONT
10
2.300000
20
-0.191815
30
0.0
11
2.400000
21
-0.191917
31
0.0
0
LINE
8
FRONT
10
2.400000
20
-0.191917
30
0.0
11
2.500000
21
-0.192018
31
0.0
0
LINE
8
FRONT
10
2.500000
20
-0.192018
30
0.0
11
2.600000
21
-0.192120
31
0.0
0
LINE
8
FRONT
10
2.600000
20
-0.192120
30
0.0
11
2.700000
21
-0.192222
31
0.0
0
LINE
8
FRONT
10
2.700000
20
-0.192222
30
0.0
11
2.800000
21
-0.192324
31
0.0
0
LINE
8
FRONT
10
2.800000
20
-0.192324
30
0.0
11
2.900000
21
-0.192426
31
0.0
0
LINE
8
FRONT
10
2.900000
20
-0.192426
30
0.0
11
3.000000
21
-0.192528
31
0.0
0
LINE
8
FRONT
10
3.000000
20
-0.192528
30
0.0
11
3.100000
21
-0.192630
31
0.0
0
LINE
8
FRONT
10
3.100000
20
-0.192630
30
0.0
11
3.200000
21
-0.192731
31
0.0
0
LINE
8
FRONT
10
3.200000
20
-0.192731
30
0.0
11
3.300000
21
-0.192833
31
0.0
0
LINE
8
FRONT
10
3.300000
20
-0.192833
30
0.0
11
3.400000
21
-0.192935
31
0.0
0
LINE
8
FRONT
10
3.400000
20
-0.192935
30
0.0
11
3.500000
21
-0.193037
31
0.0
0
LINE
8
FRONT
10
3.500000
20
-0.193037
30
0.0
11
3.600000
21
-0.193139
31
0.0
0
LINE
8
FRONT
10
3.600000
20
-0.193139
30
0.0
11
3.700000
21
-0.193241
31
0.0
0
LINE
8
FRONT
10
3.700000
20
-0.193241
30
0.0
11
3.800000
21
-0.193343
31
0.0
0
LINE
8
FRONT
10
3.800000
20
-0.193343
30
0.0
11
3.900000
21
-0.193445
31
0.0
0
LINE
8
FRONT
10
3.900000
20
-0.193445
30
0.0
11
4.000000
21
-0.193546
31
0.0
0
LINE
8
FRONT
10
4.000000
20
-0.193546
30
0.0
11
4.100000
21
-0.211131
31
0.0
0
LINE
8
FRONT
10
4.100000
20
-0.211131
30
0.0
11
4.200000
21
-0.228715
31
0.0
0
LINE
8
FRONT
10
4.200000
20
-0.228715
30
0.0
11
4.300000
21
-0.246300
31
0.0
0
LINE
8
FRONT
10
4.300000
20
-0.246300
30
0.0
11
4.400000
21
-0.263884
31
0.0
0
LINE
8
FRONT
10
4.400000
20
-0.263884
30
0.0
11
4.500000
21
-0.281469
31
0.0
0
LINE
8
FRONT
10
4.500000
20
-0.281469
30
0.0
11
4.600000
21
-0.299053
31
0.0
0
LINE
8
FRONT
10
4.600000
20
-0.299053
30
0.0
11
4.700000
21
-0.316637
31
0.0
0
LINE
8
FRONT
10
4.700000
20
-0.316637
30
0.0
11
4.800000
21
-0.334222
31
0.0
0
LINE
8
FRONT
10
4.800000
20
-0.334222
30
0.0
11
4.900000
21
-0.351806
31
0.0
0
LINE
8
FRONT
10
4.900000
20
-0.351806
30
0.0
11
5.000000
21
-0.369391
31
0.0
0
LINE
8
FRONT
10
5.000000
20
-0.369391
30
0.0
11
5.100000
21
-0.386975
31
0.0
0
LINE
8
FRONT
10
5.100000
20
-0.386975
30
0.0
11
5.200000
21
-0.404560
31
0.0
0
LINE
8
FRONT
10
5.200000
20
-0.404560
30
0.0
11
5.300000
21
-0.422144
31
0.0
0
LINE
8
FRONT
10
5.300000
20
-0.422144
30
0.0
11
5.400000
21
-0.439729
31
0.0
0
LINE
8
FRONT
10
5.400000
20
-0.439729
30
0.0
11
5.500000
21
-0.457313
31
0.0
0
LINE
8
FRONT
10
5.500000
20
-0.457313
30
0.0
11
5.600000
21
-0.474897
31
0.0
0
LINE
8
FRONT
10
5.600000
20
-0.474897
30
0.0
11
5.700000
21
-0.492482
31
0.0
0
LINE
8
FRONT
10
5.700000
20
-0.492482
30
0.0
11
5.800000
21
-0.510066
31
0.0
0
LINE
8
FRONT
10
5.800000
20
-0.510066
30
0.0
11
5.900000
21
-0.527651
31
0.0
0
LINE
8
FRONT
10
5.900000
20
-0.527651
30
0.0
11
6.000000
21
-0.545235
31
0.0
0
LINE
8
FRONT
10
6.000000
20
-0.545235
30
0.0
11
6.100000
21
-0.562820
31
0.0
0
LINE
8
FRONT
10
6.100000
20
-0.562820
30
0.0
11
6.200000
21
-0.580404
31
0.0
0
LINE
8
FRONT
10
6.200000
20
-0.580404
30
0.0
11
6.300000
21
-0.597988
31
0.0
0
LINE
8
FRONT
10
6.300000
20
-0.597988
30
0.0
11
6.400000
21
-0.615573
31
0.0
0
LINE
8
FRONT
10
6.400000
20
-0.615573
30
0.0
11
6.500000
21
-0.633157
31
0.0
0
LINE
8
FRONT
10
6.500000
20
-0.633157
30
0.0
11
6.600000
21
-0.650742
31
0.0
0
LINE
8
FRONT
10
6.600000
20
-0.650742
30
0.0
11
6.700000
21
-0.668326
31
0.0
0
LINE
8
FRONT
10
6.700000
20
-0.668326
30
0.0
11
6.800000
21
-0.685911
31
0.0
0
LINE
8
FRONT
10
6.800000
20
-0.685911
30
0.0
11
6.900000
21
-0.703495
31
0.0
0
LINE
8
FRONT
10
6.900000
20
-0.703495
30
0.0
11
7.000000
21
-0.721080
31
0.0
0
LINE
8
FRONT
10
7.000000
20
-0.721080
30
0.0
11
7.100000
21
-0.738664
31
0.0
0
LINE
8
FRONT
10
7.100000
20
-0.738664
30
0.0
11
7.200000
21
-0.756248
31
0.0
0
LINE
8
FRONT
10
7.200000
20
-0.756248
30
0.0
11
7.300000
21
-0.773833
31
0.0
0
LINE
8
FRONT
10
7.300000
20
-0.773833
30
0.0
11
7.400000
21
-0.791417
31
0.0
0
LINE
8
FRONT
10
7.400000
20
-0.791417
30
0.0
11
7.500000
21
-0.809002
31
0.0
0
LINE
8
FRONT
10
7.500000
20
-0.809002
30
0.0
11
7.600000
21
-0.826586
31
0.0
0
LINE
8
FRONT
10
7.600000
20
-0.826586
30
0.0
11
7.700000
21
-0.844171
31
0.0
0
LINE
8
FRONT
10
7.700000
20
-0.844171
30
0.0
11
7.800000
21
-0.861755
31
0.0
0
LINE
8
FRONT
10
7.800000
20
-0.861755
30
0.0
11
7.900000
21
-0.879340
31
0.0
0
LINE
8
FRONT
10
7.900000
20
-0.879340
30
0.0
11
8.000000
21
-0.896924
31
0.0
0
LINE
8
FRONT
10
0.000000
20
0.189472
30
0.0
11
0.000000
21
-0.189472
31
0.0
0
LINE
8
FRONT
10
8.000000
20
0.896924
30
0.0
11
8.000000
21
-0.896924
31
0.0
0
LINE
8
TOP
10
0.000000
20
3.778755
30
0.0
11
0.100000
21
3.774680
31
0.0
0
LINE
8
TOP
10
0.100000
20
3.774680
30
0.0
11
0.200000
21
3.770605
31
0.0
0
LINE
8
TOP
10
0.200000
20
3.770605
30
0.0
11
0.300000
21
3.766531
31
0.0
0
LINE
8
TOP
10
0.300000
20
3.766531
30
0.0
11
0.400000
21
3.762456
31
0.0
0
LINE
8
TOP
10
0.400000
20
3.762456
30
0.0
11
0.500000
21
3.758382
31
0.0
0
LINE
8
TOP
10
0.500000
20
3.758382
30
0.0
11
0.600000
21
3.754307
31
0.0
0
LINE
8
TOP
10
0.600000
20
3.754307
30
0.0
11
0.700000
21
3.750233
31
0.0
0
LINE
8
TOP
10
0.700000
20
3.750233
30
0.0
11
0.800000
21
3.746158
31
0.0
0
LINE
8
TOP
10
0.800000
20
3.746158
30
0.0
11
0.900000
21
3.742083
31
0.0
0
LINE
8
TOP
10
0.900000
20
3.742083
30
0.0
11
1.000000
21
3.738009
31
0.0
0
LINE
8
TOP
10
1.000000
20
3.738009
30
0.0
11
1.100000
21
3.733934
31
0.0
0
LINE
8
TOP
10
1.100000
20
3.733934
30
0.0
11
1.200000
21
3.729860
31
0.0
0
LINE
8
TOP
10
1.200000
20
3.729860
30
0.0
11
1.300000
21
3.725785
31
0.0
0
LINE
8
TOP
10
1.300000
20
3.725785
30
0.0
11
1.400000
21
3.721711
31
0.0
0
LINE
8
TOP
10
1.400000
20
3.721711
30
0.0
11
1.500000
21
3.717636
31
0.0
0
LINE
8
TOP
10
1.500000
20
3.717636
30
0.0
11
1.600000
21
3.713562
31
0.0
0
LINE
8
TOP
10
1.600000
20
3.713562
30
0.0
11
1.700000
21
3.709487
31
0.0
0
LINE
8
TOP
10
1.700000
20
3.709487
30
0.0
11
1.800000
21
3.705412
31
0.0
0
LINE
8
TOP
10
1.800000
20
3.705412
30
0.0
11
1.900000
21
3.701338
31
0.0
0
LINE
8
TOP
10
1.900000
20
3.701338
30
0.0
11
2.000000
21
3.697263
31
0.0
0
LINE
8
TOP
10
2.000000
20
3.697263
30
0.0
11
2.100000
21
3.693189
31
0.0
0
LINE
8
TOP
10
2.100000
20
3.693189
30
0.0
11
2.200000
21
3.689114
31
0.0
0
LINE
8
TOP
10
2.200000
20
3.689114
30
0.0
11
2.300000
21
3.685040
31
0.0
0
LINE
8
TOP
10
2.300000
20
3.685040
30
0.0
11
2.400000
21
3.680965
31
0.0
0
LINE
8
TOP
10
2.400000
20
3.680965
30
0.0
11
2.500000
21
3.676890
31
0.0
0
LINE
8
TOP
10
2.500000
20
3.676890
30
0.0
11
2.600000
21
3.672816
31
0.0
0
LINE
8
TOP
10
2.600000
20
3.672816
30
0.0
11
2.700000
21
3.668741
31
0.0
0
LINE
8
TOP
10
2.700000
20
3.668741
30
0.0
11
2.800000
21
3.664667
31
0.0
0
LINE
8
TOP
10
2.800000
20
3.664667
30
0.0
11
2.900000
21
3.660592
31
0.0
0
LINE
8
TOP
10
2.900000
20
3.660592
30
0.0
11
3.000000
21
3.656518
31
0.0
0
LINE
8
TOP
10
3.000000
20
3.656518
30
0.0
11
3.100000
21
3.652443
31
0.0
0
LINE
8
TOP
10
3.100000
20
3.652443
30
0.0
11
3.200000
21
3.648368
31
0.0
0
LINE
8
TOP
10
3.200000
20
3.648368
30
0.0
11
3.300000
21
3.644294
31
0.0
0
LINE
8
TOP
10
3.300000
20
3.644294
30
0.0
11
3.400000
21
3.640219
31
0.0
0
LINE
8
TOP
10
3.400000
20
3.640219
30
0.0
11
3.500000
21
3.636145
31
0.0
0
LINE
8
TOP
10
3.500000
20
3.636145
30
0.0
11
3.600000
21
3.632070
31
0.0
0
LINE
8
TOP
10
3.600000
20
3.632070
30
0.0
11
3.700000
21
3.627996
31
0.0
0
LINE
8
TOP
10
3.700000
20
3.627996
30
0.0
11
3.800000
21
3.623921
31
0.0
0
LINE
8
TOP
10
3.800000
20
3.623921
30
0.0
11
3.900000
21
3.619846
31
0.0
0
LINE
8
TOP
10
3.900000
20
3.619846
30
0.0
11
4.000000
21
3.615772
31
0.0
0
LINE
8
TOP
10
4.000000
20
3.615772
30
0.0
11
4.100000
21
3.619694
31
0.0
0
LINE
8
TOP
10
4.100000
20
3.619694
30
0.0
11
4.200000
21
3.623616
31
0.0
0
LINE
8
TOP
10
4.200000
20
3.623616
30
0.0
11
4.300000
21
3.627538
31
0.0
0
LINE
8
TOP
10
4.300000
20
3.627538
30
0.0
11
4.400000
21
3.631460
31
0.0
0
LINE
8
TOP
10
4.400000
20
3.631460
30
0.0
11
4.500000
21
3.635382
31
0.0
0
LINE
8
TOP
10
4.500000
20
3.635382
30
0.0
11
4.600000
21
3.639305
31
0.0
0
LINE
8
TOP
10
4.600000
20
3.639305
30
0.0
11
4.700000
21
3.643227
31
0.0
0
LINE
8
TOP
10
4.700000
20
3.643227
30
0.0
11
4.800000
21
3.647149
31
0.0
0
LINE
8
TOP
10
4.800000
20
3.647149
30
0.0
11
4.900000
21
3.651071
31
0.0
0
LINE
8
TOP
10
4.900000
20
3.651071
30
0.0
11
5.000000
21
3.654993
31
0.0
0
LINE
8
TOP
10
5.000000
20
3.654993
30
0.0
11
5.100000
21
3.658915
31
0.0
0
LINE
8
TOP
10
5.100000
20
3.658915
30
0.0
11
5.200000
21
3.662837
31
0.0
0
LINE
8
TOP
10
5.200000
20
3.662837
30
0.0
11
5.300000
21
3.666759
31
0.0
0
LINE
8
TOP
10
5.300000
20
3.666759
30
0.0
11
5.400000
21
3.670682
31
0.0
0
LINE
8
TOP
10
5.400000
20
3.670682
30
0.0
11
5.500000
21
3.674604
31
0.0
0
LINE
8
TOP
10
5.500000
20
3.674604
30
0.0
11
5.600000
21
3.678526
31
0.0
0
LINE
8
TOP
10
5.600000
20
3.678526
30
0.0
11
5.700000
21
3.682448
31
0.0
0
LINE
8
TOP
10
5.700000
20
3.682448
30
0.0
11
5.800000
21
3.686370
31
0.0
0
LINE
8
TOP
10
5.800000
20
3.686370
30
0.0
11
5.900000
21
3.690292
31
0.0
0
LINE
8
TOP
10
5.900000
20
3.690292
30
0.0
11
6.000000
21
3.694214
31
0.0
0
LINE
8
TOP
10
6.000000
20
3.694214
30
0.0
11
6.100000
21
3.698136
31
0.0
0
LINE
8
TOP
10
6.100000
20
3.698136
30
0.0
11
6.200000
21
3.702058
31
0.0
0
LINE
8
TOP
10
6.200000
20
3.702058
30
0.0
11
6.300000
21
3.705981
31
0.0
0
LINE
8
TOP
10
6.300000
20
3.705981
30
0.0
11
6.400000
21
3.709903
31
0.0
0
LINE
8
TOP
10
6.400000
20
3.709903
30
0.0
11
6.500000
21
3.713825
31
0.0
0
LINE
8
TOP
10
6.500000
20
3.713825
30
0.0
11
6.600000
21
3.717747
31
0.0
0
LINE
8
TOP
10
6.600000
20
3.717747
30
0.0
11
6.700000
21
3.721669
31
0.0
0
LINE
8
TOP
10
6.700000
20
3.721669
30
0.0
11
6.800000
21
3.725591
31
0.0
0
LINE
8
TOP
10
6.800000
20
3.725591
30
0.0
11
6.900000
21
3.729513
31
0.0
0
LINE
8
TOP
10
6.900000
20
3.729513
30
0.0
11
7.000000
21
3.733435
31
0.0
0
LINE
8
TOP
10
7.000000
20
3.733435
30
0.0
11
7.100000
21
3.737358
31
0.0
0
LINE
8
TOP
10
7.100000
20
3.737358
30
0.0
11
7.200000
21
3.741280
31
0.0
0
LINE
8
TOP
10
7.200000
20
3.741280
30
0.0
11
7.300000
21
3.745202
31
0.0
0
LINE
8
TOP
10
7.300000
20
3.745202
30
0.0
11
7.400000
21
3.749124
31
0.0
0
LINE
8
TOP
10
7.400000
20
3.749124
30
0.0
11
7.500000
21
3.753046
31
0.0
0
LINE
8
TOP
10
7.500000
20
3.753046
30
0.0
11
7.600000
21
3.756968
31
0.0
0
LINE
8
TOP
10
7.600000
20
3.756968
30
0.0
11
7.700000
21
3.760890
31
0.0
0
LINE
8
TOP
10
7.700000
20
3.760890
30
0.0
11
7.800000
21
3.764812
31
0.0
0
LINE
8
TOP
10
7.800000
20
3.764812
30
0.0
11
7.900000
21
3.768734
31
0.0
0
LINE
8
TOP
10
7.900000
20
3.768734
30
0.0
11
8.000000
21
3.772657
31
0.0
0
LINE
8
TOP
10
0.000000
20
3.102789
30
0.0
11
0.100000
21
3.106864
31
0.0
0
LINE
8
TOP
10
0.100000
20
3.106864
30
0.0
11
0.200000
21
3.110938
31
0.0
0
LINE
8
TOP
10
0.200000
20
3.110938
30
0.0
11
0.300000
21
3.115013
31
0.0
0
LINE
8
TOP
10
0.300000
20
3.115013
30
0.0
11
0.400000
21
3.119087
31
0.0
0
LINE
8
TOP
10
0.400000
20
3.119087
30
0.0
11
0.500000
21
3.123162
31
0.0
0
LINE
8
TOP
10
0.500000
20
3.123162
30
0.0
11
0.600000
21
3.127237
31
0.0
0
LINE
8
TOP
10
0.600000
20
3.127237
30
0.0
11
0.700000
21
3.131311
31
0.0
0
LINE
8
TOP
10
0.700000
20
3.131311
30
0.0
11
0.800000
21
3.135386
31
0.0
0
LINE
8
TOP
10
0.800000
20
3.135386
30
0.0
11
0.900000
21
3.139460
31
0.0
0
LINE
8
TOP
10
0.900000
20
3.139460
30
0.0
11
1.000000
21
3.143535
31
0.0
0
LINE
8
TOP
10
1.000000
20
3.143535
30
0.0
11
1.100000
21
3.147609
31
0.0
0
LINE
8
TOP
10
1.100000
20
3.147609
30
0.0
11
1.200000
21
3.151684
31
0.0
0
LINE
8
TOP
10
1.200000
20
3.151684
30
0.0
11
1.300000
21
3.155759
31
0.0
0
LINE
8
TOP
10
1.300000
20
3.155759
30
0.0
11
1.400000
21
3.159833
31
0.0
0
LINE
8
TOP
10
1.400000
20
3.159833
30
0.0
11
1.500000
21
3.163908
31
0.0
0
LINE
8
TOP
10
1.500000
20
3.163908
30
0.0
11
1.600000
21
3.167982
31
0.0
0
LINE
8
TOP
10
1.600000
20
3.167982
30
0.0
11
1.700000
21
3.172057
31
0.0
0
LINE
8
TOP
10
1.700000
20
3.172057
30
0.0
11
1.800000
21
3.176131
31
0.0
0
LINE
8
TOP
10
1.800000
20
3.176131
30
0.0
11
1.900000
21
3.180206
31
0.0
0
LINE
8
TOP
10
1.900000
20
3.180206
30
0.0
11
2.000000
21
3.184281
31
0.0
0
LINE
8
TOP
10
2.000000
20
3.184281
30
0.0
11
2.100000
21
3.188355
31
0.0
0
LINE
8
TOP
10
2.100000
20
3.188355
30
0.0
11
2.200000
21
3.192430
31
0.0
0
LINE
8
TOP
10
2.200000
20
3.192430
30
0.0
11
2.300000
21
3.196504
31
0.0
0
LINE
8
TOP
10
2.300000
20
3.196504
30
0.0
11
2.400000
21
3.200579
31
0.0
0
LINE
8
TOP
10
2.400000
20
3.200579
30
0.0
11
2.500000
21
3.204653
31
0.0
0
LINE
8
TOP
10
2.500000
20
3.204653
30
0.0
11
2.600000
21
3.208728
31
0.0
0
LINE
8
TOP
10
2.600000
20
3.208728
30
0.0
11
2.700000
21
3.212803
31
0.0
0
LINE
8
TOP
10
2.700000
20
3.212803
30
0.0
11
2.800000
21
3.216877
31
0.0
0
LINE
8
TOP
10
2.800000
20
3.216877
30
0.0
11
2.900000
21
3.220952
31
0.0
0
LINE
8
TOP
10
2.900000
20
3.220952
30
0.0
11
3.000000
21
3.225026
31
0.0
0
LINE
8
TOP
10
3.000000
20
3.225026
30
0.0
11
3.100000
21
3.229101
31
0.0
0
LINE
8
TOP
10
3.100000
20
3.229101
30
0.0
11
3.200000
21
3.233175
31
0.0
0
LINE
8
TOP
10
3.200000
20
3.233175
30
0.0
11
3.300000
21
3.237250
31
0.0
0
LINE
8
TOP
10
3.300000
20
3.237250
30
0.0
11
3.400000
21
3.241324
31
0.0
0
LINE
8
TOP
10
3.400000
20
3.241324
30
0.0
11
3.500000
21
3.245399
31
0.0
0
LINE
8
TOP
10
3.500000
20
3.245399
30
0.0
11
3.600000
21
3.249474
31
0.0
0
LINE
8
TOP
10
3.600000
20
3.249474
30
0.0
11
3.700000
21
3.253548
31
0.0
0
LINE
8
TOP
10
3.700000
20
3.253548
30
0.0
11
3.800000
21
3.257623
31
0.0
0
LINE
8
TOP
10
3.800000
20
3.257623
30
0.0
11
3.900000
21
3.261697
31
0.0
0
LINE
8
TOP
10
3.900000
20
3.261697
30
0.0
11
4.000000
21
3.265772
31
0.0
0
LINE
8
TOP
10
4.000000
20
3.265772
30
0.0
11
4.100000
21
3.261850
31
0.0
0
LINE
8
TOP
10
4.100000
20
3.261850
30
0.0
11
4.200000
21
3.257928
31
0.0
0
LINE
8
TOP
10
4.200000
20
3.257928
30
0.0
11
4.300000
21
3.254006
31
0.0
0
LINE
8
TOP
10
4.300000
20
3.254006
30
0.0
11
4.400000
21
3.250083
31
0.0
0
LINE
8
TOP
10
4.400000
20
3.250083
30
0.0
11
4.500000
21
3.246161
31
0.0
0
LINE
8
TOP
10
4.500000
20
3.246161
30
0.0
11
4.600000
21
3.242239
31
0.0
0
LINE
8
TOP
10
4.600000
20
3.242239
30
0.0
11
4.700000
21
3.238317
31
0.0
0
LINE
8
TOP
10
4.700000
20
3.238317
30
0.0
11
4.800000
21
3.234395
31
0.0
0
LINE
8
TOP
10
4.800000
20
3.234395
30
0.0
11
4.900000
21
3.230473
31
0.0
0
LINE
8
TOP
10
4.900000
20
3.230473
30
0.0
11
5.000000
21
3.226551
31
0.0
0
LINE
8
TOP
10
5.000000
20
3.226551
30
0.0
11
5.100000
21
3.222629
31
0.0
0
LINE
8
TOP
10
5.100000
20
3.222629
30
0.0
11
5.200000
21
3.218706
31
0.0
0
LINE
8
TOP
10
5.200000
20
3.218706
30
0.0
11
5.300000
21
3.214784
31
0.0
0
LINE
8
TOP
10
5.300000
20
3.214784
30
0.0
11
5.400000
21
3.210862
31
0.0
0
LINE
8
TOP
10
5.400000
20
3.210862
30
0.0
11
5.500000
21
3.206940
31
0.0
0
LINE
8
TOP
10
5.500000
20
3.206940
30
0.0
11
5.600000
21
3.203018
31
0.0
0
LINE
8
TOP
10
5.600000
20
3.203018
30
0.0
11
5.700000
21
3.199096
31
0.0
0
LINE
8
TOP
10
5.700000
20
3.199096
30
0.0
11
5.800000
21
3.195174
31
0.0
0
LINE
8
TOP
10
5.800000
20
3.195174
30
0.0
11
5.900000
21
3.191252
31
0.0
0
LINE
8
TOP
10
5.900000
20
3.191252
30
0.0
11
6.000000
21
3.187330
31
0.0
0
LINE
8
TOP
10
6.000000
20
3.187330
30
0.0
11
6.100000
21
3.183407
31
0.0
0
LINE
8
TOP
10
6.100000
20
3.183407
30
0.0
11
6.200000
21
3.179485
31
0.0
0
LINE
8
TOP
10
6.200000
20
3.179485
30
0.0
11
6.300000
21
3.175563
31
0.0
0
LINE
8
TOP
10
6.300000
20
3.175563
30
0.0
11
6.400000
21
3.171641
31
0.0
0
LINE
8
TOP
10
6.400000
20
3.171641
30
0.0
11
6.500000
21
3.167719
31
0.0
0
LINE
8
TOP
10
6.500000
20
3.167719
30
0.0
11
6.600000
21
3.163797
31
0.0
0
LINE
8
TOP
10
6.600000
20
3.163797
30
0.0
11
6.700000
21
3.159875
31
0.0
0
LINE
8
TOP
10
6.700000
20
3.159875
30
0.0
11
6.800000
21
3.155953
31
0.0
0
LINE
8
TOP
10
6.800000
20
3.155953
30
0.0
11
6.900000
21
3.152030
31
0.0
0
LINE
8
TOP
10
6.900000
20
3.152030
30
0.0
11
7.000000
21
3.148108
31
0.0
0
LINE
8
TOP
10
7.000000
20
3.148108
30
0.0
11
7.100000
21
3.144186
31
0.0
0
LINE
8
TOP
10
7.100000
20
3.144186
30
0.0
11
7.200000
21
3.140264
31
0.0
0
LINE
8
TOP
10
7.200000
20
3.140264
30
0.0
11
7.300000
21
3.136342
31
0.0
0
LINE
8
TOP
10
7.300000
20
3.136342
30
0.0
11
7.400000
21
3.132420
31
0.0
0
LINE
8
TOP
10
7.400000
20
3.132420
30
0.0
11
7.500000
21
3.128498
31
0.0
0
LINE
8
TOP
10
7.500000
20
3.128498
30
0.0
11
7.600000
21
3.124576
31
0.0
0
LINE
8
TOP
10
7.600000
20
3.124576
30
0.0
11
7.700000
21
3.120654
31
0.0
0
LINE
8
TOP
10
7.700000
20
3.120654
30
0.0
11
7.800000
21
3.116731
31
0.0
0
LINE
8
TOP
10
7.800000
20
3.116731
30
0.0
11
7.900000
21
3.112809
31
0.0
0
LINE
8
TOP
10
7.900000
20
3.112809
30
0.0
11
8.000000
21
3.108887
31
0.0
0
LINE
8
TOP
10
0.000000
20
3.778755
30
0.0
11
0.000000
21
3.102789
31
0.0
0
LINE
8
TOP
10
8.000000
20
3.772657
30
0.0
11
8.000000
21
3.108887
31
0.0
0
LINE
8
SECTION
10
9.325000
20
-0.193546
30
0.0
11
9.675000
21
-0.193546
31
0.0
0
LINE
8
SECTION
10
9.675000
20
-0.193546
30
0.0
11
9.675000
21
0.193546
31
0.0
0
LINE
8
SECTION
10
9.675000
20
0.193546
30
0.0
11
9.325000
21
0.193546
31
0.0
0
LINE
8
SECTION
10
9.325000
20
0.193546
30
0.0
11
9.325000
21
-0.193546
31
0.0
0
LINE
8
SECTION
10
9.385000
20
-0.133546
30
0.0
11
9.615000
21
-0.133546
31
0.0
0
LINE
8
SECTION
10
9.615000
20
-0.133546
30
0.0
11
9.615000
21
0.133546
31
0.0
0
LINE
8
SECTION
10
9.615000
20
0.133546
30
0.0
11
9.385000
21
0.133546
31
0.0
0
LINE
8
SECTION
10
9.385000
20
0.133546
30
0.0
11
9.385000
21
-0.133546
31
0.0
0
LINE
8
SECTION
10
9.385000
20
0.062618
30
0.0
11
9.445000
21
0.062618
31
0.0
0
LINE
8
SECTION
10
9.445000
20
0.062618
30
0.0
11
9.445000
21
0.133546
31
0.0
0
LINE
8
SECTION
10
9.445000
20
0.133546
30
0.0
11
9.385000
21
0.133546
31
0.0
0
LINE
8
SECTION
10
9.385000
20
0.133546
30
0.0
11
9.385000
21
0.062618
31
0.0
0
LINE
8
SECTION
10
9.385000
20
-0.133546
30
0.0
11
9.445000
21
-0.133546
31
0.0
0
LINE
8
SECTION
10
9.445000
20
-0.133546
30
0.0
11
9.445000
21
-0.062618
31
0.0
0
LINE
8
SECTION
10
9.445000
20
-0.062618
30
0.0
11
9.385000
21
-0.062618
31
0.0
0
LINE
8
SECTION
10
9.385000
20
-0.062618
30
0.0
11
9.385000
21
-0.133546
31
0.0
0
LINE
8
SECTION
10
9.555000
20
0.062618
30
0.0
11
9.615000
21
0.062618
31
0.0
0
LINE
8
SECTION
10
9.615000
20
0.062618
30
0.0
11
9.615000
21
0.133546
31
0.0
0
LINE
8
SECTION
10
9.615000
20
0.133546
30
0.0
11
9.555000
21
0.133546
31
0.0
0
LINE
8
SECTION
10
9.555000
20
0.133546
30
0.0
11
9.555000
21
0.062618
31
0.0
0
LINE
8
SECTION
10
9.555000
20
-0.133546
30
0.0
11
9.615000
21
-0.133546
31
0.0
0
LINE
8
SECTION
10
9.615000
20
-0.133546
30
0.0
11
9.615000
21
-0.062618
31
0.0
0
LINE
8
SECTION
10
9.615000
20
-0.062618
30
0.0
11
9.555000
21
-0.062618
31
0.0
0
LINE
8
SECTION
10
9.555000
20
-0.062618
30
0.0
11
9.555000
21
-0.133546
31
0.0
0
ENDSEC
0
EOF
