0
SECTION
2
HEADER
9
$INSUNITS
70
1
0
ENDSEC
0
SECTION
2
ENTITIES
0
LINE
8
FRONT
10
0.000000
20
0.266837
30
0.0
11
0.112500
21
0.267862
31
0.0
0
LINE
8
FRONT
10
0.112500
20
0.267862
30
0.0
11
0.225000
21
0.268887
31
0.0
0
LINE
8
FRONT
10
0.225000
20
0.268887
30
0.0
11
0.337500
21
0.269912
31
0.0
0
LINE
8
FRONT
10
0.337500
20
0.269912
30
0.0
11
0.450000
21
0.270937
31
0.0
0
LINE
8
FRONT
10
0.450000
20
0.270937
30
0.0
11
0.500000
21
0.271392
31
0.0
0
LINE
8
FRONT
10
0.500000
20
0.271392
30
0.0
11
0.562500
21
0.271961
31
0.0
0
LINE
8
FRONT
10
0.562500
20
0.271961
30
0.0
11
0.675000
21
0.272986
31
0.0
0
LINE
8
FRONT
10
0.675000
20
0.272986
30
0.0
11
0.787500
21
0.274011
31
0.0
0
LINE
8
FRONT
10
0.787500
20
0.274011
30
0.0
11
0.900000
21
0.275036
31
0.0
0
LINE
8
FRONT
10
0.900000
20
0.275036
30
0.0
11
1.012500
21
0.276061
31
0.0
0
LINE
8
FRONT
10
1.012500
20
0.276061
30
0.0
11
1.125000
21
0.277086
31
0.0
0
LINE
8
FRONT
10
1.125000
20
0.277086
30
0.0
11
1.237500
21
0.278111
31
0.0
0
LINE
8
FRONT
10
1.237500
20
0.278111
30
0.0
11
1.350000
21
0.279136
31
0.0
0
LINE
8
FRONT
10
1.350000
20
0.279136
30
0.0
11
1.462500
21
0.280161
31
0.0
0
LINE
8
FRONT
10
1.462500
20
0.280161
30
0.0
11
1.575000
21
0.281186
31
0.0
0
LINE
8
FRONT
10
1.575000
20
0.281186
30
0.0
11
1.687500
21
0.282211
31
0.0
0
LINE
8
FRONT
10
1.687500
20
0.282211
30
0.0
11
1.800000
21
0.283236
31
0.0
0
LINE
8
FRONT
10
1.800000
20
0.283236
30
0.0
11
1.912500
21
0.284261
31
0.0
0
LINE
8
FRONT
10
1.912500
20
0.284261
30
0.0
11
2.025000
21
0.285286
31
0.0
0
LINE
8
FRONT
10
2.025000
20
0.285286
30
0.0
11
2.137500
21
0.286311
31
0.0
0
LINE
8
FRONT
10
2.137500
20
0.286311
30
0.0
11
2.250000
21
0.287336
31
0.0
0
LINE
8
FRONT
10
2.250000
20
0.287336
30
0.0
11
2.362500
21
0.288360
31
0.0
0
LINE
8
FRONT
10
2.362500
20
0.288360
30
0.0
11
2.475000
21
0.289385
31
0.0
0
LINE
8
FRONT
10
2.475000
20
0.289385
30
0.0
11
2.587500
21
0.290410
31
0.0
0
LINE
8
FRONT
10
2.587500
20
0.290410
30
0.0
11
2.700000
21
0.291435
31
0.0
0
LINE
8
FRONT
10
2.700000
20
0.291435
30
0.0
11
2.812500
21
0.292460
31
0.0
0
LINE
8
FRONT
10
2.812500
20
0.292460
30
0.0
11
2.925000
21
0.293485
31
0.0
0
LINE
8
FRONT
10
2.925000
20
0.293485
30
0.0
11
3.037500
21
0.294510
31
0.0
0
LINE
8
FRONT
10
3.037500
20
0.294510
30
0.0
11
3.150000
21
0.295535
31
0.0
0
LINE
8
FRONT
10
3.150000
20
0.295535
30
0.0
11
3.262500
21
0.296560
31
0.0
0
LINE
8
FRONT
10
3.262500
20
0.296560
30
0.0
11
3.375000
21
0.297585
31
0.0
0
LINE
8
FRONT
10
3.375000
20
0.297585
30
0.0
11
3.487500
21
0.298610
31
0.0
0
LINE
8
FRONT
10
3.487500
20
0.298610
30
0.0
11
3.600000
21
0.299635
31
0.0
0
LINE
8
FRONT
10
3.600000
20
0.299635
30
0.0
11
3.712500
21
0.300660
31
0.0
0
LINE
8
FRONT
10
3.712500
20
0.300660
30
0.0
11
3.825000
21
0.301685
31
0.0
0
LINE
8
FRONT
10
3.825000
20
0.301685
30
0.0
11
3.937500
21
0.302710
31
0.0
0
LINE
8
FRONT
10
3.937500
20
0.302710
30
0.0
11
4.050000
21
0.303735
31
0.0
0
LINE
8
FRONT
10
4.050000
20
0.303735
30
0.0
11
4.162500
21
0.304759
31
0.0
0
LINE
8
FRONT
10
4.162500
20
0.304759
30
0.0
11
4.275000
21
0.305784
31
0.0
0
LINE
8
FRONT
10
4.275000
20
0.305784
30
0.0
11
4.387500
21
0.306809
31
0.0
0
LINE
8
FRONT
10
4.387500
20
0.306809
30
0.0
11
4.500000
21
0.307834
31
0.0
0
LINE
8
FRONT
10
4.500000
20
0.307834
30
0.0
11
4.612500
21
0.306809
31
0.0
0
LINE
8
FRONT
10
4.612500
20
0.306809
30
0.0
11
4.725000
21
0.305784
31
0.0
0
LINE
8
FRONT
10
4.725000
20
0.305784
30
0.0
11
4.837500
21
0.304759
31
0.0
0
LINE
8
FRONT
10
4.837500
20
0.304759
30
0.0
11
4.950000
21
0.303735
31
0.0
0
LINE
8
FRONT
10
4.950000
20
0.303735
30
0.0
11
5.062500
21
0.302710
31
0.0
0
LINE
8
FRONT
10
5.062500
20
0.302710
30
0.0
11
5.175000
21
0.301685
31
0.0
0
LINE
8
FRONT
10
5.175000
20
0.301685
30
0.0
11
5.287500
21
0.300660
31
0.0
0
LINE
8
FRONT
10
5.287500
20
0.300660
30
0.0
11
5.400000
21
0.299635
31
0.0
0
LINE
8
FRONT
10
5.400000
20
0.299635
30
0.0
11
5.512500
21
0.298610
31
0.0
0
LINE
8
FRONT
10
5.512500
20
0.298610
30
0.0
11
5.625000
21
0.297585
31
0.0
0
LINE
8
FRONT
10
5.625000
20
0.297585
30
0.0
11
5.737500
21
0.296560
31
0.0
0
LINE
8
FRONT
10
5.737500
20
0.296560
30
0.0
11
5.850000
21
0.295535
31
0.0
0
LINE
8
FRONT
10
5.850000
20
0.295535
30
0.0
11
5.962500
21
0.294510
31
0.0
0
LINE
8
FRONT
10
5.962500
20
0.294510
30
0.0
11
6.075000
21
0.293485
31
0.0
0
LINE
8
FRONT
10
6.075000
20
0.293485
30
0.0
11
6.187500
21
0.292460
31
0.0
0
LINE
8
FRONT
10
6.187500
20
0.292460
30
0.0
11
6.300000
21
0.291435
31
0.0
0
LINE
8
FRONT
10
6.300000
20
0.291435
30
0.0
11
6.412500
21
0.290410
31
0.0
0
LINE
8
FRONT
10
6.412500
20
0.290410
30
0.0
11
6.525000
21
0.289385
31
0.0
0
LINE
8
FRONT
10
6.525000
20
0.289385
30
0.0
11
6.637500
21
0.288360
31
0.0
0
LINE
8
FRONT
10
6.637500
20
0.288360
30
0.0
11
6.750000
21
0.287336
31
0.0
0
LINE
8
FRONT
10
6.750000
20
0.287336
30
0.0
11
6.862500
21
0.286311
31
0.0
0
LINE
8
FRONT
10
6.862500
20
0.286311
30
0.0
11
6.975000
21
0.285286
31
0.0
0
LINE
8
FRONT
10
6.975000
20
0.285286
30
0.0
11
7.087500
21
0.284261
31
0.0
0
LINE
8
FRONT
10
7.087500
20
0.284261
30
0.0
11
7.200000
21
0.283236
31
0.0
0
LINE
8
FRONT
10
7.200000
20
0.283236
30
0.0
11
7.312500
21
0.282211
31
0.0
0
LINE
8
FRONT
10
7.312500
20
0.282211
30
0.0
11
7.425000
21
0.281186
31
0.0
0
LINE
8
FRONT
10
7.425000
20
0.281186
30
0.0
11
7.537500
21
0.280161
31
0.0
0
LINE
8
FRONT
10
7.537500
20
0.280161
30
0.0
11
7.650000
21
0.279136
31
0.0
0
LINE
8
FRONT
10
7.650000
20
0.279136
30
0.0
11
7.762500
21
0.278111
31
0.0
0
LINE
8
FRONT
10
7.762500
20
0.278111
30
0.0
11
7.875000
21
0.277086
31
0.0
0
LINE
8
FRONT
10
7.875000
20
0.277086
30
0.0
11
7.987500
21
0.276061
31
0.0
0
LINE
8
FRONT
10
7.987500
20
0.276061
30
0.0
11
8.100000
21
0.275036
31
0.0
0
LINE
8
FRONT
10
8.100000
20
0.275036
30
0.0
11
8.212500
21
0.274011
31
0.0
0
LINE
8
FRONT
10
8.212500
20
0.274011
30
0.0
11
8.325000
21
0.272986
31
0.0
0
LINE
8
FRONT
10
8.325000
20
0.272986
30
0.0
11
8.437500
21
0.271961
31
0.0
0
LINE
8
FRONT
10
8.437500
20
0.271961
30
0.0
11
8.500000
21
0.271392
31
0.0
0
LINE
8
FRONT
10
8.500000
20
0.271392
30
0.0
11
8.550000
21
0.270937
31
0.0
0
LINE
8
FRONT
10
8.550000
20
0.270937
30
0.0
11
8.662500
21
0.269912
31
0.0
0
LINE
8
FRONT
10
8.662500
20
0.269912
30
0.0
11
8.775000
21
0.268887
31
0.0
0
LINE
8
FRONT
10
8.775000
20
0.268887
30
0.0
11
8.887500
21
0.267862
31
0.0
0
LINE
8
FRONT
10
8.887500
20
0.267862
30
0.0
11
9.000000
21
0.266837
31
0.0
0
LINE
8
FRONT
10
0.000000
20
-0.266837
30
0.0
11
0.112500
21
-0.267862
31
0.0
0
LINE
8
FRONT
10
0.112500
20
-0.267862
30
0.0
11
0.225000
21
-0.268887
31
0.0
0
LINE
8
FRONT
10
0.225000
20
-0.268887
30
0.0
11
0.337500
21
-0.269912
31
0.0
0
LINE
8
FRONT
10
0.337500
20
-0.269912
30
0.0
11
0.450000
21
-0.270937
31
0.0
0
LINE
8
FRONT
10
0.450000
20
-0.270937
30
0.0
11
0.500000
21
-0.271392
31
0.0
0
LINE
8
FRONT
10
0.500000
20
-0.271392
30
0.0
11
0.562500
21
-0.271961
31
0.0
0
LINE
8
FRONT
10
0.562500
20
-0.271961
30
0.0
11
0.675000
21
-0.272986
31
0.0
0
LINE
8
FRONT
10
0.675000
20
-0.272986
30
0.0
11
0.787500
21
-0.274011
31
0.0
0
LINE
8
FRONT
10
0.787500
20
-0.274011
30
0.0
11
0.900000
21
-0.275036
31
0.0
0
LINE
8
FRONT
10
0.900000
20
-0.275036
30
0.0
11
1.012500
21
-0.276061
31
0.0
0
LINE
8
FRONT
10
1.012500
20
-0.276061
30
0.0
11
1.125000
21
-0.277086
31
0.0
0
LINE
8
FRONT
10
1.125000
20
-0.277086
30
0.0
11
1.237500
21
-0.278111
31
0.0
0
LINE
8
FRONT
10
1.237500
20
-0.278111
30
0.0
11
1.350000
21
-0.279136
31
0.0
0
LINE
8
FRONT
10
1.350000
20
-0.279136
30
0.0
11
1.462500
21
-0.280161
31
0.0
0
LINE
8
FRONT
10
1.462500
20
-0.280161
30
0.0
11
1.575000
21
-0.281186
31
0.0
0
LINE
8
FRONT
10
1.575000
20
-0.281186
30
0.0
11
1.687500
21
-0.282211
31
0.0
0
LINE
8
FRONT
10
1.687500
20
-0.282211
30
0.0
11
1.800000
21
-0.283236
31
0.0
0
LINE
8
FRONT
10
1.800000
20
-0.283236
30
0.0
11
1.912500
21
-0.284261
31
0.0
0
LINE
8
FRONT
10
1.912500
20
-0.284261
30
0.0
11
2.025000
21
-0.285286
31
0.0
0
LINE
8
FRONT
10
2.025000
20
-0.285286
30
0.0
11
2.137500
21
-0.286311
31
0.0
0
LINE
8
FRONT
10
2.137500
20
-0.286311
30
0.0
11
2.250000
21
-0.287336
31
0.0
0
LINE
8
FRONT
10
2.250000
20
-0.287336
30
0.0
11
2.362500
21
-0.288360
31
0.0
0
LINE
8
FRONT
10
2.362500
20
-0.288360
30
0.0
11
2.475000
21
-0.289385
31
0.0
0
LINE
8
FRONT
10
2.475000
20
-0.289385
30
0.0
11
2.587500
21
-0.290410
31
0.0
0
LINE
8
FRONT
10
2.587500
20
-0.290410
30
0.0
11
2.700000
21
-0.291435
31
0.0
0
LINE
8
FRONT
10
2.700000
20
-0.291435
30
0.0
11
2.812500
21
-0.292460
31
0.0
0
LINE
8
FRONT
10
2.812500
20
-0.292460
30
0.0
11
2.925000
21
-0.293485
31
0.0
0
LINE
8
FRONT
10
2.925000
20
-0.293485
30
0.0
11
3.037500
21
-0.294510
31
0.0
0
LINE
8
FRONT
10
3.037500
20
-0.294510
30
0.0
11
3.150000
21
-0.295535
31
0.0
0
LINE
8
FRONT
10
3.150000
20
-0.295535
30
0.0
11
3.262500
21
-0.296560
31
0.0
0
LINE
8
FRONT
10
3.262500
20
-0.296560
30
0.0
11
3.375000
21
-0.297585
31
0.0
0
LINE
8
FRONT
10
3.375000
20
-0.297585
30
0.0
11
3.487500
21
-0.298610
31
0.0
0
LINE
8
FRONT
10
3.487500
20
-0.298610
30
0.0
11
3.600000
21
-0.299635
31
0.0
0
LINE
8
FRONT
10
3.600000
20
-0.299635
30
0.0
11
3.712500
21
-0.300660
31
0.0
0
LINE
8
FRONT
10
3.712500
20
-0.300660
30
0.0
11
3.825000
21
-0.301685
31
0.0
0
LINE
8
FRONT
10
3.825000
20
-0.301685
30
0.0
11
3.937500
21
-0.302710
31
0.0
0
LINE
8
FRONT
10
3.937500
20
-0.302710
30
0.0
11
4.050000
21
-0.303735
31
0.0
0
LINE
8
FRONT
10
4.050000
20
-0.303735
30
0.0
11
4.162500
21
-0.304759
31
0.0
0
LINE
8
FRONT
10
4.162500
20
-0.304759
30
0.0
11
4.275000
21
-0.305784
31
0.0
0
LINE
8
FRONT
10
4.275000
20
-0.305784
30
0.0
11
4.387500
21
-0.306809
31
0.0
0
LINE
8
FRONT
10
4.387500
20
-0.306809
30
0.0
11
4.500000
21
-0.307834
31
0.0
0
LINE
8
FRONT
10
4.500000
20
-0.307834
30
0.0
11
4.612500
21
-0.306809
31
0.0
0
LINE
8
FRONT
10
4.612500
20
-0.306809
30
0.0
11
4.725000
21
-0.305784
31
0.0
0
LINE
8
FRONT
10
4.725000
20
-0.305784
30
0.0
11
4.837500
21
-0.304759
31
0.0
0
LINE
8
FRONT
10
4.837500
20
-0.304759
30
0.0
11
4.950000
21
-0.303735
31
0.0
0
LINE
8
FRONT
10
4.950000
20
-0.303735
30
0.0
11
5.062500
21
-0.302710
31
0.0
0
LINE
8
FRONT
10
5.062500
20
-0.302710
30
0.0
11
5.175000
21
-0.301685
31
0.0
0
LINE
8
FRONT
10
5.175000
20
-0.301685
30
0.0
11
5.287500
21
-0.300660
31
0.0
0
LINE
8
FRONT
10
5.287500
20
-0.300660
30
0.0
11
5.400000
21
-0.299635
31
0.0
0
LINE
8
FRONT
10
5.400000
20
-0.299635
30
0.0
11
5.512500
21
-0.298610
31
0.0
0
LINE
8
FRONT
10
5.512500
20
-0.298610
30
0.0
11
5.625000
21
-0.297585
31
0.0
0
LINE
8
FRONT
10
5.625000
20
-0.297585
30
0.0
11
5.737500
21
-0.296560
31
0.0
0
LINE
8
FRONT
10
5.737500
20
-0.296560
30
0.0
11
5.850000
21
-0.295535
31
0.0
0
LINE
8
FRONT
10
5.850000
20
-0.295535
30
0.0
11
5.962500
21
-0.294510
31
0.0
0
LINE
8
FRONT
10
5.962500
20
-0.294510
30
0.0
11
6.075000
21
-0.293485
31
0.0
0
LINE
8
FRONT
10
6.075000
20
-0.293485
30
0.0
11
6.187500
21
-0.292460
31
0.0
0
LINE
8
FRONT
10
6.187500
20
-0.292460
30
0.0
11
6.300000
21
-0.291435
31
0.0
0
LINE
8
FRONT
10
6.300000
20
-0.291435
30
0.0
11
6.412500
21
-0.290410
31
0.0
0
LINE
8
FRONT
10
6.412500
20
-0.290410
30
0.0
11
6.525000
21
-0.289385
31
0.0
0
LINE
8
FRONT
10
6.525000
20
-0.289385
30
0.0
11
6.637500
21
-0.288360
31
0.0
0
LINE
8
FRONT
10
6.637500
20
-0.288360
30
0.0
11
6.750000
21
-0.287336
31
0.0
0
LINE
8
FRONT
10
6.750000
20
-0.287336
30
0.0
11
6.862500
21
-0.286311
31
0.0
0
LINE
8
FRONT
10
6.862500
20
-0.286311
30
0.0
11
6.975000
21
-0.285286
31
0.0
0
LINE
8
FRONT
10
6.975000
20
-0.285286
30
0.0
11
7.087500
21
-0.284261
31
0.0
0
LINE
8
FRONT
10
7.087500
20
-0.284261
30
0.0
11
7.200000
21
-0.283236
31
0.0
0
LINE
8
FRONT
10
7.200000
20
-0.283236
30
0.0
11
7.312500
21
-0.282211
31
0.0
0
LINE
8
FRONT
10
7.312500
20
-0.282211
30
0.0
11
7.425000
21
-0.281186
31
0.0
0
LINE
8
FRONT
10
7.425000
20
-0.281186
30
0.0
11
7.537500
21
-0.280161
31
0.0
0
LINE
8
FRONT
10
7.537500
20
-0.280161
30
0.0
11
7.650000
21
-0.279136
31
0.0
0
LINE
8
FRONT
10
7.650000
20
-0.279136
30
0.0
11
7.762500
21
-0.278111
31
0.0
0
LINE
8
FRONT
10
7.762500
20
-0.278111
30
0.0
11
7.875000
21
-0.277086
31
0.0
0
LINE
8
FRONT
10
7.875000
20
-0.277086
30
0.0
11
7.987500
21
-0.276061
31
0.0
0
LINE
8
FRONT
10
7.987500
20
-0.276061
30
0.0
11
8.100000
21
-0.275036
31
0.0
0
LINE
8
FRONT
10
8.100000
20
-0.275036
30
0.0
11
8.212500
21
-0.274011
31
0.0
0
LINE
8
FRONT
10
8.212500
20
-0.274011
30
0.0
11
8.325000
21
-0.272986
31
0.0
0
LINE
8
FRONT
10
8.325000
20
-0.272986
30
0.0
11
8.437500
21
-0.271961
31
0.0
0
LINE
8
FRONT
10
8.437500
20
-0.271961
30
0.0
11
8.500000
21
-0.271392
31
0.0
0
LINE
8
FRONT
10
8.500000
20
-0.271392
30
0.0
11
8.550000
21
-0.270937
31
0.0
0
LINE
8
FRONT
10
8.550000
20
-0.270937
30
0.0
11
8.662500
21
-0.269912
31
0.0
0
LINE
8
FRONT
10
8.662500
20
-0.269912
30
0.0
11
8.775000
21
-0.268887
31
0.0
0
LINE
8
FRONT
10
8.775000
20
-0.268887
30
0.0
11
8.887500
21
-0.267862
31
0.0
0
LINE
8
FRONT
10
8.887500
20
-0.267862
30
0.0
11
9.000000
21
-0.266837
31
0.0
0
LINE
8
FRONT
10
0.000000
20
0.266837
30
0.0
11
0.000000
21
-0.266837
31
0.0
0
LINE
8
FRONT
10
9.000000
20
0.266837
30
0.0
11
9.000000
21
-0.266837
31
0.0
0
LINE
8
TOP
10
0.000000
20
1.783503
30
0.0
11
0.112500
21
1.787757
31
0.0
0
LINE
8
TOP
10
0.112500
20
1.787757
30
0.0
11
0.225000
21
1.792012
31
0.0
0
LINE
8
TOP
10
0.225000
20
1.792012
30
0.0
11
0.337500
21
1.796267
31
0.0
0
LINE
8
TOP
10
0.337500
20
1.796267
30
0.0
11
0.450000
21
1.800521
31
0.0
0
LINE
8
TOP
10
0.450000
20
1.800521
30
0.0
11
0.500000
21
1.802412
31
0.0
0
LINE
8
TOP
10
0.500000
20
1.802412
30
0.0
11
0.562500
21
1.804776
31
0.0
0
LINE
8
TOP
10
0.562500
20
1.804776
30
0.0
11
0.675000
21
1.809030
31
0.0
0
LINE
8
TOP
10
0.675000
20
1.809030
30
0.0
11
0.787500
21
1.813285
31
0.0
0
LINE
8
TOP
10
0.787500
20
1.813285
30
0.0
11
0.900000
21
1.817539
31
0.0
0
LINE
8
TOP
10
0.900000
20
1.817539
30
0.0
11
1.012500
21
1.821794
31
0.0
0
LINE
8
TOP
10
1.012500
20
1.821794
30
0.0
11
1.125000
21
1.826049
31
0.0
0
LINE
8
TOP
10
1.125000
20
1.826049
30
0.0
11
1.237500
21
1.830303
31
0.0
0
LINE
8
TOP
10
1.237500
20
1.830303
30
0.0
11
1.350000
21
1.834558
31
0.0
0
LINE
8
TOP
10
1.350000
20
1.834558
30
0.0
11
1.462500
21
1.838812
31
0.0
0
LINE
8
TOP
10
1.462500
20
1.838812
30
0.0
11
1.575000
21
1.843067
31
0.0
0
LINE
8
TOP
10
1.575000
20
1.843067
30
0.0
11
1.687500
21
1.847321
31
0.0
0
LINE
8
TOP
10
1.687500
20
1.847321
30
0.0
11
1.800000
21
1.851576
31
0.0
0
LINE
8
TOP
10
1.800000
20
1.851576
30
0.0
11
1.912500
21
1.855830
31
0.0
0
LINE
8
TOP
10
1.912500
20
1.855830
30
0.0
11
2.025000
21
1.860085
31
0.0
0
LINE
8
TOP
10
2.025000
20
1.860085
30
0.0
11
2.137500
21
1.864340
31
0.0
0
LINE
8
TOP
10
2.137500
20
1.864340
30
0.0
11
2.250000
21
1.868594
31
0.0
0
LINE
8
TOP
10
2.250000
20
1.868594
30
0.0
11
2.362500
21
1.872849
31
0.0
0
LINE
8
TOP
10
2.362500
20
1.872849
30
0.0
11
2.475000
21
1.877103
31
0.0
0
LINE
8
TOP
10
2.475000
20
1.877103
30
0.0
11
2.587500
21
1.881358
31
0.0
0
LINE
8
TOP
10
2.587500
20
1.881358
30
0.0
11
2.700000
21
1.885612
31
0.0
0
LINE
8
TOP
10
2.700000
20
1.885612
30
0.0
11
2.812500
21
1.889867
31
0.0
0
LINE
8
TOP
10
2.812500
20
1.889867
30
0.0
11
2.925000
21
1.894121
31
0.0
0
LINE
8
TOP
10
2.925000
20
1.894121
30
0.0
11
3.037500
21
1.898376
31
0.0
0
LINE
8
TOP
10
3.037500
20
1.898376
30
0.0
11
3.150000
21
1.902631
31
0.0
0
LINE
8
TOP
10
3.150000
20
1.902631
30
0.0
11
3.262500
21
1.906885
31
0.0
0
LINE
8
TOP
10
3.262500
20
1.906885
30
0.0
11
3.375000
21
1.911140
31
0.0
0
LINE
8
TOP
10
3.375000
20
1.911140
30
0.0
11
3.487500
21
1.915394
31
0.0
0
LINE
8
TOP
10
3.487500
20
1.915394
30
0.0
11
3.600000
21
1.919649
31
0.0
0
LINE
8
TOP
10
3.600000
20
1.919649
30
0.0
11
3.712500
21
1.923903
31
0.0
0
LINE
8
TOP
10
3.712500
20
1.923903
30
0.0
11
3.825000
21
1.928158
31
0.0
0
LINE
8
TOP
10
3.825000
20
1.928158
30
0.0
11
3.937500
21
1.932412
31
0.0
0
LINE
8
TOP
10
3.937500
20
1.932412
30
0.0
11
4.050000
21
1.936667
31
0.0
0
LINE
8
TOP
10
4.050000
20
1.936667
30
0.0
11
4.162500
21
1.940922
31
0.0
0
LINE
8
TOP
10
4.162500
20
1.940922
30
0.0
11
4.275000
21
1.945176
31
0.0
0
LINE
8
TOP
10
4.275000
20
1.945176
30
0.0
11
4.387500
21
1.949431
31
0.0
0
LINE
8
TOP
10
4.387500
20
1.949431
30
0.0
11
4.500000
21
1.953685
31
0.0
0
LINE
8
TOP
10
4.500000
20
1.953685
30
0.0
11
4.612500
21
1.949431
31
0.0
0
LINE
8
TOP
10
4.612500
20
1.949431
30
0.0
11
4.725000
21
1.945176
31
0.0
0
LINE
8
TOP
10
4.725000
20
1.945176
30
0.0
11
4.837500
21
1.940922
31
0.0
0
LINE
8
TOP
10
4.837500
20
1.940922
30
0.0
11
4.950000
21
1.936667
31
0.0
0
LINE
8
TOP
10
4.950000
20
1.936667
30
0.0
11
5.062500
21
1.932412
31
0.0
0
LINE
8
TOP
10
5.062500
20
1.932412
30
0.0
11
5.175000
21
1.928158
31
0.0
0
LINE
8
TOP
10
5.175000
20
1.928158
30
0.0
11
5.287500
21
1.923903
31
0.0
0
LINE
8
TOP
10
5.287500
20
1.923903
30
0.0
11
5.400000
21
1.919649
31
0.0
0
LINE
8
TOP
10
5.400000
20
1.919649
30
0.0
11
5.512500
21
1.915394
31
0.0
0
LINE
8
TOP
10
5.512500
20
1.915394
30
0.0
11
5.625000
21
1.911140
31
0.0
0
LINE
8
TOP
10
5.625000
20
1.911140
30
0.0
11
5.737500
21
1.906885
31
0.0
0
LINE
8
TOP
10
5.737500
20
1.906885
30
0.0
11
5.850000
21
1.902631
31
0.0
0
LINE
8
TOP
10
5.850000
20
1.902631
30
0.0
11
5.962500
21
1.898376
31
0.0
0
LINE
8
TOP
10
5.962500
20
1.898376
30
0.0
11
6.075000
21
1.894121
31
0.0
0
LINE
8
TOP
10
6.075000
20
1.894121
30
0.0
11
6.187500
21
1.889867
31
0.0
0
LINE
8
TOP
10
6.187500
20
1.889867
30
0.0
11
6.300000
21
1.885612
31
0.0
0
LINE
8
TOP
10
6.300000
20
1.885612
30
0.0
11
6.412500
21
1.881358
31
0.0
0
LINE
8
TOP
10
6.412500
20
1.881358
30
0.0
11
6.525000
21
1.877103
31
0.0
0
LINE
8
TOP
10
6.525000
20
1.877103
30
0.0
11
6.637500
21
1.872849
31
0.0
0
LINE
8
TOP
10
6.637500
20
1.872849
30
0.0
11
6.750000
21
1.868594
31
0.0
0
LINE
8
TOP
10
6.750000
20
1.868594
30
0.0
11
6.862500
21
1.864340
31
0.0
0
LINE
8
TOP
10
6.862500
20
1.864340
30
0.0
11
6.975000
21
1.860085
31
0.0
0
LINE
8
TOP
10
6.975000
20
1.860085
30
0.0
11
7.087500
21
1.855830
31
0.0
0
LINE
8
TOP
10
7.087500
20
1.855830
30
0.0
11
7.200000
21
1.851576
31
0.0
0
LINE
8
TOP
10
7.200000
20
1.851576
30
0.0
11
7.312500
21
1.847321
31
0.0
0
LINE
8
TOP
10
7.312500
20
1.847321
30
0.0
11
7.425000
21
1.843067
31
0.0
0
LINE
8
TOP
10
7.425000
20
1.843067
30
0.0
11
7.537500
21
1.838812
31
0.0
0
LINE
8
TOP
10
7.537500
20
1.838812
30
0.0
11
7.650000
21
1.834558
31
0.0
0
LINE
8
TOP
10
7.650000
20
1.834558
30
0.0
11
7.762500
21
1.830303
31
0.0
0
LINE
8
TOP
10
7.762500
20
1.830303
30
0.0
11
7.875000
21
1.826049
31
0.0
0
LINE
8
TOP
10
7.875000
20
1.826049
30
0.0
11
7.987500
21
1.821794
31
0.0
0
LINE
8
TOP
10
7.987500
20
1.821794
30
0.0
11
8.100000
21
1.817539
31
0.0
0
LINE
8
TOP
10
8.100000
20
1.817539
30
0.0
11
8.212500
21
1.813285
31
0.0
0
LINE
8
TOP
10
8.212500
20
1.813285
30
0.0
11
8.325000
21
1.809030
31
0.0
0
LINE
8
TOP
10
8.325000
20
1.809030
30
0.0
11
8.437500
21
1.804776
31
0.0
0
LINE
8
TOP
10
8.437500
20
1.804776
30
0.0
11
8.500000
21
1.802412
31
0.0
0
LINE
8
TOP
10
8.500000
20
1.802412
30
0.0
11
8.550000
21
1.800521
31
0.0
0
LINE
8
TOP
10
8.550000
20
1.800521
30
0.0
11
8.662500
21
1.796267
31
0.0
0
LINE
8
TOP
10
8.662500
20
1.796267
30
0.0
11
8.775000
21
1.792012
31
0.0
0
LINE
8
TOP
10
8.775000
20
1.792012
30
0.0
11
8.887500
21
1.787757
31
0.0
0
LINE
8
TOP
10
8.887500
20
1.787757
30
0.0
11
9.000000
21
1.783503
31
0.0
0
LINE
8
TOP
10
0.000000
20
1.563503
30
0.0
11
0.112500
21
1.559248
31
0.0
0
LINE
8
TOP
10
0.112500
20
1.559248
30
0.0
11
0.225000
21
1.554994
31
0.0
0
LINE
8
TOP
10
0.225000
20
1.554994
30
0.0
11
0.337500
21
1.550739
31
0.0
0
LINE
8
TOP
10
0.337500
20
1.550739
30
0.0
11
0.450000
21
1.546485
31
0.0
0
LINE
8
TOP
10
0.450000
20
1.546485
30
0.0
11
0.500000
21
1.544594
31
0.0
0
LINE
8
TOP
10
0.500000
20
1.544594
30
0.0
11
0.562500
21
1.542230
31
0.0
0
LINE
8
TOP
10
0.562500
20
1.542230
30
0.0
11
0.675000
21
1.537976
31
0.0
0
LINE
8
TOP
10
0.675000
20
1.537976
30
0.0
11
0.787500
21
1.533721
31
0.0
0
LINE
8
TOP
10
0.787500
20
1.533721
30
0.0
11
0.900000
21
1.529466
31
0.0
0
LINE
8
TOP
10
0.900000
20
1.529466
30
0.0
11
1.012500
21
1.525212
31
0.0
0
LINE
8
TOP
10
1.012500
20
1.525212
30
0.0
11
1.125000
21
1.520957
31
0.0
0
LINE
8
TOP
10
1.125000
20
1.520957
30
0.0
11
1.237500
21
1.516703
31
0.0
0
LINE
8
TOP
10
1.237500
20
1.516703
30
0.0
11
1.350000
21
1.512448
31
0.0
0
LINE
8
TOP
10
1.350000
20
1.512448
30
0.0
11
1.462500
21
1.508194
31
0.0
0
LINE
8
TOP
10
1.462500
20
1.508194
30
0.0
11
1.575000
21
1.503939
31
0.0
0
LINE
8
TOP
10
1.575000
20
1.503939
30
0.0
11
1.687500
21
1.499685
31
0.0
0
LINE
8
TOP
10
1.687500
20
1.499685
30
0.0
11
1.800000
21
1.495430
31
0.0
0
LINE
8
TOP
10
1.800000
20
1.495430
30
0.0
11
1.912500
21
1.491175
31
0.0
0
LINE
8
TOP
10
1.912500
20
1.491175
30
0.0
11
2.025000
21
1.486921
31
0.0
0
LINE
8
TOP
10
2.025000
20
1.486921
30
0.0
11
2.137500
21
1.482666
31
0.0
0
LINE
8
TOP
10
2.137500
20
1.482666
30
0.0
11
2.250000
21
1.478412
31
0.0
0
LINE
8
TOP
10
2.250000
20
1.478412
30
0.0
11
2.362500
21
1.474157
31
0.0
0
LINE
8
TOP
10
2.362500
20
1.474157
30
0.0
11
2.475000
21
1.469903
31
0.0
0
LINE
8
TOP
10
2.475000
20
1.469903
30
0.0
11
2.587500
21
1.465648
31
0.0
0
LINE
8
TOP
10
2.587500
20
1.465648
30
0.0
11
2.700000
21
1.461394
31
0.0
0
LINE
8
TOP
10
2.700000
20
1.461394
30
0.0
11
2.812500
21
1.457139
31
0.0
0
LINE
8
TOP
10
2.812500
20
1.457139
30
0.0
11
2.925000
21
1.452884
31
0.0
0
LINE
8
TOP
10
2.925000
20
1.452884
30
0.0
11
3.037500
21
1.448630
31
0.0
0
LINE
8
TOP
10
3.037500
20
1.448630
30
0.0
11
3.150000
21
1.444375
31
0.0
0
LINE
8
TOP
10
3.150000
20
1.444375
30
0.0
11
3.262500
21
1.440121
31
0.0
0
LINE
8
TOP
10
3.262500
20
1.440121
30
0.0
11
3.375000
21
1.435866
31
0.0
0
LINE
8
TOP
10
3.375000
20
1.435866
30
0.0
11
3.487500
21
1.431612
31
0.0
0
LINE
8
TOP
10
3.487500
20
1.431612
30
0.0
11
3.600000
21
1.427357
31
0.0
0
LINE
8
TOP
10
3.600000
20
1.427357
30
0.0
11
3.712500
21
1.423103
31
0.0
0
LINE
8
TOP
10
3.712500
20
1.423103
30
0.0
11
3.825000
21
1.418848
31
0.0
0
LINE
8
TOP
10
3.825000
20
1.418848
30
0.0
11
3.937500
21
1.414593
31
0.0
0
LINE
8
TOP
10
3.937500
20
1.414593
30
0.0
11
4.050000
21
1.410339
31
0.0
0
LINE
8
TOP
10
4.050000
20
1.410339
30
0.0
11
4.162500
21
1.406084
31
0.0
0
LINE
8
TOP
10
4.162500
20
1.406084
30
0.0
11
4.275000
21
1.401830
31
0.0
0
LINE
8
TOP
10
4.275000
20
1.401830
30
0.0
11
4.387500
21
1.397575
31
0.0
0
LINE
8
TOP
10
4.387500
20
1.397575
30
0.0
11
4.500000
21
1.393321
31
0.0
0
LINE
8
TOP
10
4.500000
20
1.393321
30
0.0
11
4.612500
21
1.397575
31
0.0
0
LINE
8
TOP
10
4.612500
20
1.397575
30
0.0
11
4.725000
21
1.401830
31
0.0
0
LINE
8
TOP
10
4.725000
20
1.401830
30
0.0
11
4.837500
21
1.406084
31
0.0
0
LINE
8
TOP
10
4.837500
20
1.406084
30
0.0
11
4.950000
21
1.410339
31
0.0
0
LINE
8
TOP
10
4.950000
20
1.410339
30
0.0
11
5.062500
21
1.414593
31
0.0
0
LINE
8
TOP
10
5.062500
20
1.414593
30
0.0
11
5.175000
21
1.418848
31
0.0
0
LINE
8
TOP
10
5.175000
20
1.418848
30
0.0
11
5.287500
21
1.423103
31
0.0
0
LINE
8
TOP
10
5.287500
20
1.423103
30
0.0
11
5.400000
21
1.427357
31
0.0
0
LINE
8
TOP
10
5.400000
20
1.427357
30
0.0
11
5.512500
21
1.431612
31
0.0
0
LINE
8
TOP
10
5.512500
20
1.431612
30
0.0
11
5.625000
21
1.435866
31
0.0
0
LINE
8
TOP
10
5.625000
20
1.435866
30
0.0
11
5.737500
21
1.440121
31
0.0
0
LINE
8
TOP
10
5.737500
20
1.440121
30
0.0
11
5.850000
21
1.444375
31
0.0
0
LINE
8
TOP
10
5.850000
20
1.444375
30
0.0
11
5.962500
21
1.448630
31
0.0
0
LINE
8
TOP
10
5.962500
20
1.448630
30
0.0
11
6.075000
21
1.452884
31
0.0
0
LINE
8
TOP
10
6.075000
20
1.452884
30
0.0
11
6.187500
21
1.457139
31
0.0
0
LINE
8
TOP
10
6.187500
20
1.457139
30
0.0
11
6.300000
21
1.461394
31
0.0
0
LINE
8
TOP
10
6.300000
20
1.461394
30
0.0
11
6.412500
21
1.465648
31
0.0
0
LINE
8
TOP
10
6.412500
20
1.465648
30
0.0
11
6.525000
21
1.469903
31
0.0
0
LINE
8
TOP
10
6.525000
20
1.469903
30
0.0
11
6.637500
21
1.474157
31
0.0
0
LINE
8
TOP
10
6.637500
20
1.474157
30
0.0
11
6.750000
21
1.478412
31
0.0
0
LINE
8
TOP
10
6.750000
20
1.478412
30
0.0
11
6.862500
21
1.482666
31
0.0
0
LINE
8
TOP
10
6.862500
20
1.482666
30
0.0
11
6.975000
21
1.486921
31
0.0
0
LINE
8
TOP
10
6.975000
20
1.486921
30
0.0
11
7.087500
21
1.491175
31
0.0
0
LINE
8
TOP
10
7.087500
20
1.491175
30
0.0
11
7.200000
21
1.495430
31
0.0
0
LINE
8
TOP
10
7.200000
20
1.495430
30
0.0
11
7.312500
21
1.499685
31
0.0
0
LINE
8
TOP
10
7.312500
20
1.499685
30
0.0
11
7.425000
21
1.503939
31
0.0
0
LINE
8
TOP
10
7.425000
20
1.503939
30
0.0
11
7.537500
21
1.508194
31
0.0
0
LINE
8
TOP
10
7.537500
20
1.508194
30
0.0
11
7.650000
21
1.512448
31
0.0
0
LINE
8
TOP
10
7.650000
20
1.512448
30
0.0
11
7.762500
21
1.516703
31
0.0
0
LINE
8
TOP
10
7.762500
20
1.516703
30
0.0
11
7.875000
21
1.520957
31
0.0
0
LINE
8
TOP
10
7.875000
20
1.520957
30
0.0
11
7.987500
21
1.525212
31
0.0
0
LINE
8
TOP
10
7.987500
20
1.525212
30
0.0
11
8.100000
21
1.529466
31
0.0
0
LINE
8
TOP
10
8.100000
20
1.529466
30
0.0
11
8.212500
21
1.533721
31
0.0
0
LINE
8
TOP
10
8.212500
20
1.533721
30
0.0
11
8.325000
21
1.537976
31
0.0
0
LINE
8
TOP
10
8.325000
20
1.537976
30
0.0
11
8.437500
21
1.542230
31
0.0
0
LINE
8
TOP
10
8.437500
20
1.542230
30
0.0
11
8.500000
21
1.544594
31
0.0
0
LINE
8
TOP
10
8.500000
20
1.544594
30
0.0
11
8.550000
21
1.546485
31
0.0
0
LINE
8
TOP
10
8.550000
20
1.546485
30
0.0
11
8.662500
21
1.550739
31
0.0
0
LINE
8
TOP
10
8.662500
20
1.550739
30
0.0
11
8.775000
21
1.554994
31
0.0
0
LINE
8
TOP
10
8.775000
20
1.554994
30
0.0
11
8.887500
21
1.559248
31
0.0
0
LINE
8
TOP
10
8.887500
20
1.559248
30
0.0
11
9.000000
21
1.563503
31
0.0
0
LINE
8
TOP
10
0.000000
20
1.783503
30
0.0
11
0.000000
21
1.563503
31
0.0
0
LINE
8
TOP
10
9.000000
20
1.783503
30
0.0
11
9.000000
21
1.563503
31
0.0
0
LINE
8
SECTION
10
10.219818
20
-0.307834
30
0.0
11
10.780182
21
-0.307834
31
0.0
0
LINE
8
SECTION
10
10.780182
20
-0.307834
30
0.0
11
10.780182
21
0.307834
31
0.0
0
LINE
8
SECTION
10
10.780182
20
0.307834
30
0.0
11
10.219818
21
0.307834
31
0.0
0
LINE
8
SECTION
10
10.219818
20
0.307834
30
0.0
11
10.219818
21
-0.307834
31
0.0
0
LINE
8
SECTION
10
10.261901
20
-0.265751
30
0.0
11
10.738099
21
-0.265751
31
0.0
0
LINE
8
SECTION
10
10.738099
20
-0.265751
30
0.0
11
10.738099
21
0.265751
31
0.0
0
LINE
8
SECTION
10
10.738099
20
0.265751
30
0.0
11
10.261901
21
0.265751
31
0.0
0
LINE
8
SECTION
10
10.261901
20
0.265751
30
0.0
11
10.261901
21
-0.265751
31
0.0
0
LINE
8
SECTION
10
10.261901
20
0.184420
30
0.0
11
10.303985
21
0.184420
31
0.0
0
LINE
8
SECTION
10
10.303985
20
0.184420
30
0.0
11
10.303985
21
0.265751
31
0.0
0
LINE
8
SECTION
10
10.303985
20
0.265751
30
0.0
11
10.261901
21
0.265751
31
0.0
0
LINE
8
SECTION
10
10.261901
20
0.265751
30
0.0
11
10.261901
21
0.184420
31
0.0
0
LINE
8
SECTION
10
10.261901
20
-0.265751
30
0.0
11
10.303985
21
-0.265751
31
0.0
0
LINE
8
SECTION
10
10.303985
20
-0.265751
30
0.0
11
10.303985
21
-0.184420
31
0.0
0
LINE
8
SECTION
10
10.303985
20
-0.184420
30
0.0
11
10.261901
21
-0.184420
31
0.0
0
LINE
8
SECTION
10
10.261901
20
-0.184420
30
0.0
11
10.261901
21
-0.265751
31
0.0
0
LINE
8
SECTION
10
10.696015
20
0.184420
30
0.0
11
10.738099
21
0.184420
31
0.0
0
LINE
8
SECTION
10
10.738099
20
0.184420
30
0.0
11
10.738099
21
0.265751
31
0.0
0
LINE
8
SECTION
10
10.738099
20
0.265751
30
0.0
11
10.696015
21
0.265751
31
0.0
0
LINE
8
SECTION
10
10.696015
20
0.265751
30
0.0
11
10.696015
21
0.184420
31
0.0
0
LINE
8
SECTION
10
10.696015
20
-0.265751
30
0.0
11
10.738099
21
-0.265751
31
0.0
0
LINE
8
SECTION
10
10.738099
20
-0.265751
30
0.0
11
10.738099
21
-0.184420
31
0.0
0
LINE
8
SECTION
10
10.738099
20
-0.184420
30
0.0
11
10.696015
21
-0.184420
31
0.0
0
LINE
8
SECTION
10
10.696015
20
-0.184420
30
0.0
11
10.696015
21
-0.265751
31
0.0
0
ENDSEC
0
EOF
