0
SECTION
2
HEADER
9
$INSUNITS
70
1
0
ENDSEC
0
SECTION
2
ENTITIES
0
LINE
8
FRONT
10
0.000000
20
0.257914
30
0.0
11
0.112500
21
0.261315
31
0.0
0
LINE
8
FRONT
10
0.112500
20
0.261315
30
0.0
11
0.225000
21
0.264715
31
0.0
0
LINE
8
FRONT
10
0.225000
20
0.264715
30
0.0
11
0.337500
21
0.268115
31
0.0
0
LINE
8
FRONT
10
0.337500
20
0.268115
30
0.0
11
0.450000
21
0.271516
31
0.0
0
LINE
8
FRONT
10
0.450000
20
0.271516
30
0.0
11
0.500000
21
0.273027
31
0.0
0
LINE
8
FRONT
10
0.500000
20
0.273027
30
0.0
11
0.562500
21
0.274916
31
0.0
0
LINE
8
FRONT
10
0.562500
20
0.274916
30
0.0
11
0.675000
21
0.278317
31
0.0
0
LINE
8
FRONT
10
0.675000
20
0.278317
30
0.0
11
0.787500
21
0.281717
31
0.0
0
LINE
8
FRONT
10
0.787500
20
0.281717
30
0.0
11
0.900000
21
0.285118
31
0.0
0
LINE
8
FRONT
10
0.900000
20
0.285118
30
0.0
11
1.012500
21
0.288518
31
0.0
0
LINE
8
FRONT
10
1.012500
20
0.288518
30
0.0
11
1.125000
21
0.291918
31
0.0
0
LINE
8
FRONT
10
1.125000
20
0.291918
30
0.0
11
1.237500
21
0.295319
31
0.0
0
LINE
8
FRONT
10
1.237500
20
0.295319
30
0.0
11
1.350000
21
0.298719
31
0.0
0
LINE
8
FRONT
10
1.350000
20
0.298719
30
0.0
11
1.462500
21
0.302120
31
0.0
0
LINE
8
FRONT
10
1.462500
20
0.302120
30
0.0
11
1.575000
21
0.305520
31
0.0
0
LINE
8
FRONT
10
1.575000
20
0.305520
30
0.0
11
1.687500
21
0.308920
31
0.0
0
LINE
8
FRONT
10
1.687500
20
0.308920
30
0.0
11
1.800000
21
0.312321
31
0.0
0
LINE
8
FRONT
10
1.800000
20
0.312321
30
0.0
11
1.912500
21
0.315721
31
0.0
0
LINE
8
FRONT
10
1.912500
20
0.315721
30
0.0
11
2.025000
21
0.319122
31
0.0
0
LINE
8
FRONT
10
2.025000
20
0.319122
30
0.0
11
2.137500
21
0.322522
31
0.0
0
LINE
8
FRONT
10
2.137500
20
0.322522
30
0.0
11
2.250000
21
0.325922
31
0.0
0
LINE
8
FRONT
10
2.250000
20
0.325922
30
0.0
11
2.362500
21
0.329323
31
0.0
0
LINE
8
FRONT
10
2.362500
20
0.329323
30
0.0
11
2.475000
21
0.332723
31
0.0
0
LINE
8
FRONT
10
2.475000
20
0.332723
30
0.0
11
2.587500
21
0.336124
31
0.0
0
LINE
8
FRONT
10
2.587500
20
0.336124
30
0.0
11
2.700000
21
0.339524
31
0.0
0
LINE
8
FRONT
10
2.700000
20
0.339524
30
0.0
11
2.812500
21
0.342924
31
0.0
0
LINE
8
FRONT
10
2.812500
20
0.342924
30
0.0
11
2.925000
21
0.346325
31
0.0
0
LINE
8
FRONT
10
2.925000
20
0.346325
30
0.0
11
3.037500
21
0.349725
31
0.0
0
LINE
8
FRONT
10
3.037500
20
0.349725
30
0.0
11
3.150000
21
0.353126
31
0.0
0
LINE
8
FRONT
10
3.150000
20
0.353126
30
0.0
11
3.262500
21
0.356526
31
0.0
0
LINE
8
FRONT
10
3.262500
20
0.356526
30
0.0
11
3.375000
21
0.359927
31
0.0
0
LINE
8
FRONT
10
3.375000
20
0.359927
30
0.0
11
3.487500
21
0.363327
31
0.0
0
LINE
8
FRONT
10
3.487500
20
0.363327
30
0.0
11
3.600000
21
0.366727
31
0.0
0
LINE
8
FRONT
10
3.600000
20
0.366727
30
0.0
11
3.712500
21
0.370128
31
0.0
0
LINE
8
FRONT
10
3.712500
20
0.370128
30
0.0
11
3.825000
21
0.373528
31
0.0
0
LINE
8
FRONT
10
3.825000
20
0.373528
30
0.0
11
3.937500
21
0.376929
31
0.0
0
LINE
8
FRONT
10
3.937500
20
0.376929
30
0.0
11
4.050000
21
0.380329
31
0.0
0
LINE
8
FRONT
10
4.050000
20
0.380329
30
0.0
11
4.162500
21
0.383729
31
0.0
0
LINE
8
FRONT
10
4.162500
20
0.383729
30
0.0
11
4.275000
21
0.387130
31
0.0
0
LINE
8
FRONT
10
4.275000
20
0.387130
30
0.0
11
4.387500
21
0.390530
31
0.0
0
LINE
8
FRONT
10
4.387500
20
0.390530
30
0.0
11
4.500000
21
0.393931
31
0.0
0
LINE
8
FRONT
10
4.500000
20
0.393931
30
0.0
11
4.612500
21
0.390530
31
0.0
0
LINE
8
FRONT
10
4.612500
20
0.390530
30
0.0
11
4.725000
21
0.387130
31
0.0
0
LINE
8
FRONT
10
4.725000
20
0.387130
30
0.0
11
4.837500
21
0.383729
31
0.0
0
LINE
8
FRONT
10
4.837500
20
0.383729
30
0.0
11
4.950000
21
0.380329
31
0.0
0
LINE
8
FRONT
10
4.950000
20
0.380329
30
0.0
11
5.062500
21
0.376929
31
0.0
0
LINE
8
FRONT
10
5.062500
20
0.376929
30
0.0
11
5.175000
21
0.373528
31
0.0
0
LINE
8
FRONT
10
5.175000
20
0.373528
30
0.0
11
5.287500
21
0.370128
31
0.0
0
LINE
8
FRONT
10
5.287500
20
0.370128
30
0.0
11
5.400000
21
0.366727
31
0.0
0
LINE
8
FRONT
10
5.400000
20
0.366727
30
0.0
11
5.512500
21
0.363327
31
0.0
0
LINE
8
FRONT
10
5.512500
20
0.363327
30
0.0
11
5.625000
21
0.359927
31
0.0
0
LINE
8
FRONT
10
5.625000
20
0.359927
30
0.0
11
5.737500
21
0.356526
31
0.0
0
LINE
8
FRONT
10
5.737500
20
0.356526
30
0.0
11
5.850000
21
0.353126
31
0.0
0
LINE
8
FRONT
10
5.850000
20
0.353126
30
0.0
11
5.962500
21
0.349725
31
0.0
0
LINE
8
FRONT
10
5.962500
20
0.349725
30
0.0
11
6.075000
21
0.346325
31
0.0
0
LINE
8
FRONT
10
6.075000
20
0.346325
30
0.0
11
6.187500
21
0.342924
31
0.0
0
LINE
8
FRONT
10
6.187500
20
0.342924
30
0.0
11
6.300000
21
0.339524
31
0.0
0
LINE
8
FRONT
10
6.300000
20
0.339524
30
0.0
11
6.412500
21
0.336124
31
0.0
0
LINE
8
FRONT
10
6.412500
20
0.336124
30
0.0
11
6.525000
21
0.332723
31
0.0
0
LINE
8
FRONT
10
6.525000
20
0.332723
30
0.0
11
6.637500
21
0.329323
31
0.0
0
LINE
8
FRONT
10
6.637500
20
0.329323
30
0.0
11
6.750000
21
0.325922
31
0.0
0
LINE
8
FRONT
10
6.750000
20
0.325922
30
0.0
11
6.862500
21
0.322522
31
0.0
0
LINE
8
FRONT
10
6.862500
20
0.322522
30
0.0
11
6.975000
21
0.319122
31
0.0
0
LINE
8
FRONT
10
6.975000
20
0.319122
30
0.0
11
7.087500
21
0.315721
31
0.0
0
LINE
8
FRONT
10
7.087500
20
0.315721
30
0.0
11
7.200000
21
0.312321
31
0.0
0
LINE
8
FRONT
10
7.200000
20
0.312321
30
0.0
11
7.312500
21
0.308920
31
0.0
0
LINE
8
FRONT
10
7.312500
20
0.308920
30
0.0
11
7.425000
21
0.305520
31
0.0
0
LINE
8
FRONT
10
7.425000
20
0.305520
30
0.0
11
7.537500
21
0.302120
31
0.0
0
LINE
8
FRONT
10
7.537500
20
0.302120
30
0.0
11
7.650000
21
0.298719
31
0.0
0
LINE
8
FRONT
10
7.650000
20
0.298719
30
0.0
11
7.762500
21
0.295319
31
0.0
0
LINE
8
FRONT
10
7.762500
20
0.295319
30
0.0
11
7.875000
21
0.291918
31
0.0
0
LINE
8
FRONT
10
7.875000
20
0.291918
30
0.0
11
7.987500
21
0.288518
31
0.0
0
LINE
8
FRONT
10
7.987500
20
0.288518
30
0.0
11
8.100000
21
0.285118
31
0.0
0
LINE
8
FRONT
10
8.100000
20
0.285118
30
0.0
11
8.212500
21
0.281717
31
0.0
0
LINE
8
FRONT
10
8.212500
20
0.281717
30
0.0
11
8.325000
21
0.278317
31
0.0
0
LINE
8
FRONT
10
8.325000
20
0.278317
30
0.0
11
8.437500
21
0.274916
31
0.0
0
LINE
8
FRONT
10
8.437500
20
0.274916
30
0.0
11
8.500000
21
0.273027
31
0.0
0
LINE
8
FRONT
10
8.500000
20
0.273027
30
0.0
11
8.550000
21
0.271516
31
0.0
0
LINE
8
FRONT
10
8.550000
20
0.271516
30
0.0
11
8.662500
21
0.268115
31
0.0
0
LINE
8
FRONT
10
8.662500
20
0.268115
30
0.0
11
8.775000
21
0.264715
31
0.0
0
LINE
8
FRONT
10
8.775000
20
0.264715
30
0.0
11
8.887500
21
0.261315
31
0.0
0
LINE
8
FRONT
10
8.887500
20
0.261315
30
0.0
11
9.000000
21
0.257914
31
0.0
0
LINE
8
FRONT
10
0.000000
20
-0.257914
30
0.0
11
0.112500
21
-0.261315
31
0.0
0
LINE
8
FRONT
10
0.112500
20
-0.261315
30
0.0
11
0.225000
21
-0.264715
31
0.0
0
LINE
8
FRONT
10
0.225000
20
-0.264715
30
0.0
11
0.337500
21
-0.268115
31
0.0
0
LINE
8
FRONT
10
0.337500
20
-0.268115
30
0.0
11
0.450000
21
-0.271516
31
0.0
0
LINE
8
FRONT
10
0.450000
20
-0.271516
30
0.0
11
0.500000
21
-0.273027
31
0.0
0
LINE
8
FRONT
10
0.500000
20
-0.273027
30
0.0
11
0.562500
21
-0.274916
31
0.0
0
LINE
8
FRONT
10
0.562500
20
-0.274916
30
0.0
11
0.675000
21
-0.278317
31
0.0
0
LINE
8
FRONT
10
0.675000
20
-0.278317
30
0.0
11
0.787500
21
-0.281717
31
0.0
0
LINE
8
FRONT
10
0.787500
20
-0.281717
30
0.0
11
0.900000
21
-0.285118
31
0.0
0
LINE
8
FRONT
10
0.900000
20
-0.285118
30
0.0
11
1.012500
21
-0.288518
31
0.0
0
LINE
8
FRONT
10
1.012500
20
-0.288518
30
0.0
11
1.125000
21
-0.291918
31
0.0
0
LINE
8
FRONT
10
1.125000
20
-0.291918
30
0.0
11
1.237500
21
-0.295319
31
0.0
0
LINE
8
FRONT
10
1.237500
20
-0.295319
30
0.0
11
1.350000
21
-0.298719
31
0.0
0
LINE
8
FRONT
10
1.350000
20
-0.298719
30
0.0
11
1.462500
21
-0.302120
31
0.0
0
LINE
8
FRONT
10
1.462500
20
-0.302120
30
0.0
11
1.575000
21
-0.305520
31
0.0
0
LINE
8
FRONT
10
1.575000
20
-0.305520
30
0.0
11
1.687500
21
-0.308920
31
0.0
0
LINE
8
FRONT
10
1.687500
20
-0.308920
30
0.0
11
1.800000
21
-0.312321
31
0.0
0
LINE
8
FRONT
10
1.800000
20
-0.312321
30
0.0
11
1.912500
21
-0.315721
31
0.0
0
LINE
8
FRONT
10
1.912500
20
-0.315721
30
0.0
11
2.025000
21
-0.319122
31
0.0
0
LINE
8
FRONT
10
2.025000
20
-0.319122
30
0.0
11
2.137500
21
-0.322522
31
0.0
0
LINE
8
FRONT
10
2.137500
20
-0.322522
30
0.0
11
2.250000
21
-0.325922
31
0.0
0
LINE
8
FRONT
10
2.250000
20
-0.325922
30
0.0
11
2.362500
21
-0.329323
31
0.0
0
LINE
8
FRONT
10
2.362500
20
-0.329323
30
0.0
11
2.475000
21
-0.332723
31
0.0
0
LINE
8
FRONT
10
2.475000
20
-0.332723
30
0.0
11
2.587500
21
-0.336124
31
0.0
0
LINE
8
FRONT
10
2.587500
20
-0.336124
30
0.0
11
2.700000
21
-0.339524
31
0.0
0
LINE
8
FRONT
10
2.700000
20
-0.339524
30
0.0
11
2.812500
21
-0.342924
31
0.0
0
LINE
8
FRONT
10
2.812500
20
-0.342924
30
0.0
11
2.925000
21
-0.346325
31
0.0
0
LINE
8
FRONT
10
2.925000
20
-0.346325
30
0.0
11
3.037500
21
-0.349725
31
0.0
0
LINE
8
FRONT
10
3.037500
20
-0.349725
30
0.0
11
3.150000
21
-0.353126
31
0.0
0
LINE
8
FRONT
10
3.150000
20
-0.353126
30
0.0
11
3.262500
21
-0.356526
31
0.0
0
LINE
8
FRONT
10
3.262500
20
-0.356526
30
0.0
11
3.375000
21
-0.359927
31
0.0
0
LINE
8
FRONT
10
3.375000
20
-0.359927
30
0.0
11
3.487500
21
-0.363327
31
0.0
0
LINE
8
FRONT
10
3.487500
20
-0.363327
30
0.0
11
3.600000
21
-0.366727
31
0.0
0
LINE
8
FRONT
10
3.600000
20
-0.366727
30
0.0
11
3.712500
21
-0.370128
31
0.0
0
LINE
8
FRONT
10
3.712500
20
-0.370128
30
0.0
11
3.825000
21
-0.373528
31
0.0
0
LINE
8
FRONT
10
3.825000
20
-0.373528
30
0.0
11
3.937500
21
-0.376929
31
0.0
0
LINE
8
FRONT
10
3.937500
20
-0.376929
30
0.0
11
4.050000
21
-0.380329
31
0.0
0
LINE
8
FRONT
10
4.050000
20
-0.380329
30
0.0
11
4.162500
21
-0.383729
31
0.0
0
LINE
8
FRONT
10
4.162500
20
-0.383729
30
0.0
11
4.275000
21
-0.387130
31
0.0
0
LINE
8
FRONT
10
4.275000
20
-0.387130
30
0.0
11
4.387500
21
-0.390530
31
0.0
0
LINE
8
FRONT
10
4.387500
20
-0.390530
30
0.0
11
4.500000
21
-0.393931
31
0.0
0
LINE
8
FRONT
10
4.500000
20
-0.393931
30
0.0
11
4.612500
21
-0.390530
31
0.0
0
LINE
8
FRONT
10
4.612500
20
-0.390530
30
0.0
11
4.725000
21
-0.387130
31
0.0
0
LINE
8
FRONT
10
4.725000
20
-0.387130
30
0.0
11
4.837500
21
-0.383729
31
0.0
0
LINE
8
FRONT
10
4.837500
20
-0.383729
30
0.0
11
4.950000
21
-0.380329
31
0.0
0
LINE
8
FRONT
10
4.950000
20
-0.380329
30
0.0
11
5.062500
21
-0.376929
31
0.0
0
LINE
8
FRONT
10
5.062500
20
-0.376929
30
0.0
11
5.175000
21
-0.373528
31
0.0
0
LINE
8
FRONT
10
5.175000
20
-0.373528
30
0.0
11
5.287500
21
-0.370128
31
0.0
0
LINE
8
FRONT
10
5.287500
20
-0.370128
30
0.0
11
5.400000
21
-0.366727
31
0.0
0
LINE
8
FRONT
10
5.400000
20
-0.366727
30
0.0
11
5.512500
21
-0.363327
31
0.0
0
LINE
8
FRONT
10
5.512500
20
-0.363327
30
0.0
11
5.625000
21
-0.359927
31
0.0
0
LINE
8
FRONT
10
5.625000
20
-0.359927
30
0.0
11
5.737500
21
-0.356526
31
0.0
0
LINE
8
FRONT
10
5.737500
20
-0.356526
30
0.0
11
5.850000
21
-0.353126
31
0.0
0
LINE
8
FRONT
10
5.850000
20
-0.353126
30
0.0
11
5.962500
21
-0.349725
31
0.0
0
LINE
8
FRONT
10
5.962500
20
-0.349725
30
0.0
11
6.075000
21
-0.346325
31
0.0
0
LINE
8
FRONT
10
6.075000
20
-0.346325
30
0.0
11
6.187500
21
-0.342924
31
0.0
0
LINE
8
FRONT
10
6.187500
20
-0.342924
30
0.0
11
6.300000
21
-0.339524
31
0.0
0
LINE
8
FRONT
10
6.300000
20
-0.339524
30
0.0
11
6.412500
21
-0.336124
31
0.0
0
LINE
8
FRONT
10
6.412500
20
-0.336124
30
0.0
11
6.525000
21
-0.332723
31
0.0
0
LINE
8
FRONT
10
6.525000
20
-0.332723
30
0.0
11
6.637500
21
-0.329323
31
0.0
0
LINE
8
FRONT
10
6.637500
20
-0.329323
30
0.0
11
6.750000
21
-0.325922
31
0.0
0
LINE
8
FRONT
10
6.750000
20
-0.325922
30
0.0
11
6.862500
21
-0.322522
31
0.0
0
LINE
8
FRONT
10
6.862500
20
-0.322522
30
0.0
11
6.975000
21
-0.319122
31
0.0
0
LINE
8
FRONT
10
6.975000
20
-0.319122
30
0.0
11
7.087500
21
-0.315721
31
0.0
0
LINE
8
FRONT
10
7.087500
20
-0.315721
30
0.0
11
7.200000
21
-0.312321
31
0.0
0
LINE
8
FRONT
10
7.200000
20
-0.312321
30
0.0
11
7.312500
21
-0.308920
31
0.0
0
LINE
8
FRONT
10
7.312500
20
-0.308920
30
0.0
11
7.425000
21
-0.305520
31
0.0
0
LINE
8
FRONT
10
7.425000
20
-0.305520
30
0.0
11
7.537500
21
-0.302120
31
0.0
0
LINE
8
FRONT
10
7.537500
20
-0.302120
30
0.0
11
7.650000
21
-0.298719
31
0.0
0
LINE
8
FRONT
10
7.650000
20
-0.298719
30
0.0
11
7.762500
21
-0.295319
31
0.0
0
LINE
8
FRONT
10
7.762500
20
-0.295319
30
0.0
11
7.875000
21
-0.291918
31
0.0
0
LINE
8
FRONT
10
7.875000
20
-0.291918
30
0.0
11
7.987500
21
-0.288518
31
0.0
0
LINE
8
FRONT
10
7.987500
20
-0.288518
30
0.0
11
8.100000
21
-0.285118
31
0.0
0
LINE
8
FRONT
10
8.100000
20
-0.285118
30
0.0
11
8.212500
21
-0.281717
31
0.0
0
LINE
8
FRONT
10
8.212500
20
-0.281717
30
0.0
11
8.325000
21
-0.278317
31
0.0
0
LINE
8
FRONT
10
8.325000
20
-0.278317
30
0.0
11
8.437500
21
-0.274916
31
0.0
0
LINE
8
FRONT
10
8.437500
20
-0.274916
30
0.0
11
8.500000
21
-0.273027
31
0.0
0
LINE
8
FRONT
10
8.500000
20
-0.273027
30
0.0
11
8.550000
21
-0.271516
31
0.0
0
LINE
8
FRONT
10
8.550000
20
-0.271516
30
0.0
11
8.662500
21
-0.268115
31
0.0
0
LINE
8
FRONT
10
8.662500
20
-0.268115
30
0.0
11
8.775000
21
-0.264715
31
0.0
0
LINE
8
FRONT
10
8.775000
20
-0.264715
30
0.0
11
8.887500
21
-0.261315
31
0.0
0
LINE
8
FRONT
10
8.887500
20
-0.261315
30
0.0
11
9.000000
21
-0.257914
31
0.0
0
LINE
8
FRONT
10
0.000000
20
0.257914
30
0.0
11
0.000000
21
-0.257914
31
0.0
0
LINE
8
FRONT
10
9.000000
20
0.257914
30
0.0
11
9.000000
21
-0.257914
31
0.0
0
LINE
8
TOP
10
0.000000
20
2.065962
30
0.0
11
0.112500
21
2.067882
31
0.0
0
LINE
8
TOP
10
0.112500
20
2.067882
30
0.0
11
0.225000
21
2.069801
31
0.0
0
LINE
8
TOP
10
0.225000
20
2.069801
30
0.0
11
0.337500
21
2.071721
31
0.0
0
LINE
8
TOP
10
0.337500
20
2.071721
30
0.0
11
0.450000
21
2.073641
31
0.0
0
LINE
8
TOP
10
0.450000
20
2.073641
30
0.0
11
0.500000
21
2.074495
31
0.0
0
LINE
8
TOP
10
0.500000
20
2.074495
30
0.0
11
0.562500
21
2.075561
31
0.0
0
LINE
8
TOP
10
0.562500
20
2.075561
30
0.0
11
0.675000
21
2.077481
31
0.0
0
LINE
8
TOP
10
0.675000
20
2.077481
30
0.0
11
0.787500
21
2.079401
31
0.0
0
LINE
8
TOP
10
0.787500
20
2.079401
30
0.0
11
0.900000
21
2.081321
31
0.0
0
LINE
8
TOP
10
0.900000
20
2.081321
30
0.0
11
1.012500
21
2.083241
31
0.0
0
LINE
8
TOP
10
1.012500
20
2.083241
30
0.0
11
1.125000
21
2.085161
31
0.0
0
LINE
8
TOP
10
1.125000
20
2.085161
30
0.0
11
1.237500
21
2.087081
31
0.0
0
LINE
8
TOP
10
1.237500
20
2.087081
30
0.0
11
1.350000
21
2.089000
31
0.0
0
LINE
8
TOP
10
1.350000
20
2.089000
30
0.0
11
1.462500
21
2.090920
31
0.0
0
LINE
8
TOP
10
1.462500
20
2.090920
30
0.0
11
1.575000
21
2.092840
31
0.0
0
LINE
8
TOP
10
1.575000
20
2.092840
30
0.0
11
1.687500
21
2.094760
31
0.0
0
LINE
8
TOP
10
1.687500
20
2.094760
30
0.0
11
1.800000
21
2.096680
31
0.0
0
LINE
8
TOP
10
1.800000
20
2.096680
30
0.0
11
1.912500
21
2.098600
31
0.0
0
LINE
8
TOP
10
1.912500
20
2.098600
30
0.0
11
2.025000
21
2.100520
31
0.0
0
LINE
8
TOP
10
2.025000
20
2.100520
30
0.0
11
2.137500
21
2.102440
31
0.0
0
LINE
8
TOP
10
2.137500
20
2.102440
30
0.0
11
2.250000
21
2.104360
31
0.0
0
LINE
8
TOP
10
2.250000
20
2.104360
30
0.0
11
2.362500
21
2.106279
31
0.0
0
LINE
8
TOP
10
2.362500
20
2.106279
30
0.0
11
2.475000
21
2.108199
31
0.0
0
LINE
8
TOP
10
2.475000
20
2.108199
30
0.0
11
2.587500
21
2.110119
31
0.0
0
LINE
8
TOP
10
2.587500
20
2.110119
30
0.0
11
2.700000
21
2.112039
31
0.0
0
LINE
8
TOP
10
2.700000
20
2.112039
30
0.0
11
2.812500
21
2.113959
31
0.0
0
LINE
8
TOP
10
2.812500
20
2.113959
30
0.0
11
2.925000
21
2.115879
31
0.0
0
LINE
8
TOP
10
2.925000
20
2.115879
30
0.0
11
3.037500
21
2.117799
31
0.0
0
LINE
8
TOP
10
3.037500
20
2.117799
30
0.0
11
3.150000
21
2.119719
31
0.0
0
LINE
8
TOP
10
3.150000
20
2.119719
30
0.0
11
3.262500
21
2.121639
31
0.0
0
LINE
8
TOP
10
3.262500
20
2.121639
30
0.0
11
3.375000
21
2.123558
31
0.0
0
LINE
8
TOP
10
3.375000
20
2.123558
30
0.0
11
3.487500
21
2.125478
31
0.0
0
LINE
8
TOP
10
3.487500
20
2.125478
30
0.0
11
3.600000
21
2.127398
31
0.0
0
LINE
8
TOP
10
3.600000
20
2.127398
30
0.0
11
3.712500
21
2.129318
31
0.0
0
LINE
8
TOP
10
3.712500
20
2.129318
30
0.0
11
3.825000
21
2.131238
31
0.0
0
LINE
8
TOP
10
3.825000
20
2.131238
30
0.0
11
3.937500
21
2.133158
31
0.0
0
LINE
8
TOP
10
3.937500
20
2.133158
30
0.0
11
4.050000
21
2.135078
31
0.0
0
LINE
8
TOP
10
4.050000
20
2.135078
30
0.0
11
4.162500
21
2.136998
31
0.0
0
LINE
8
TOP
10
4.162500
20
2.136998
30
0.0
11
4.275000
21
2.138918
31
0.0
0
LINE
8
TOP
10
4.275000
20
2.138918
30
0.0
11
4.387500
21
2.140837
31
0.0
0
LINE
8
TOP
10
4.387500
20
2.140837
30
0.0
11
4.500000
21
2.142757
31
0.0
0
LINE
8
TOP
10
4.500000
20
2.142757
30
0.0
11
4.612500
21
2.140837
31
0.0
0
LINE
8
TOP
10
4.612500
20
2.140837
30
0.0
11
4.725000
21
2.138918
31
0.0
0
LINE
8
TOP
10
4.725000
20
2.138918
30
0.0
11
4.837500
21
2.136998
31
0.0
0
LINE
8
TOP
10
4.837500
20
2.136998
30
0.0
11
4.950000
21
2.135078
31
0.0
0
LINE
8
TOP
10
4.950000
20
2.135078
30
0.0
11
5.062500
21
2.133158
31
0.0
0
LINE
8
TOP
10
5.062500
20
2.133158
30
0.0
11
5.175000
21
2.131238
31
0.0
0
LINE
8
TOP
10
5.175000
20
2.131238
30
0.0
11
5.287500
21
2.129318
31
0.0
0
LINE
8
TOP
10
5.287500
20
2.129318
30
0.0
11
5.400000
21
2.127398
31
0.0
0
LINE
8
TOP
10
5.400000
20
2.127398
30
0.0
11
5.512500
21
2.125478
31
0.0
0
LINE
8
TOP
10
5.512500
20
2.125478
30
0.0
11
5.625000
21
2.123558
31
0.0
0
LINE
8
TOP
10
5.625000
20
2.123558
30
0.0
11
5.737500
21
2.121639
31
0.0
0
LINE
8
TOP
10
5.737500
20
2.121639
30
0.0
11
5.850000
21
2.119719
31
0.0
0
LINE
8
TOP
10
5.850000
20
2.119719
30
0.0
11
5.962500
21
2.117799
31
0.0
0
LINE
8
TOP
10
5.962500
20
2.117799
30
0.0
11
6.075000
21
2.115879
31
0.0
0
LINE
8
TOP
10
6.075000
20
2.115879
30
0.0
11
6.187500
21
2.113959
31
0.0
0
LINE
8
TOP
10
6.187500
20
2.113959
30
0.0
11
6.300000
21
2.112039
31
0.0
0
LINE
8
TOP
10
6.300000
20
2.112039
30
0.0
11
6.412500
21
2.110119
31
0.0
0
LINE
8
TOP
10
6.412500
20
2.110119
30
0.0
11
6.525000
21
2.108199
31
0.0
0
LINE
8
TOP
10
6.525000
20
2.108199
30
0.0
11
6.637500
21
2.106279
31
0.0
0
LINE
8
TOP
10
6.637500
20
2.106279
30
0.0
11
6.750000
21
2.104360
31
0.0
0
LINE
8
TOP
10
6.750000
20
2.104360
30
0.0
11
6.862500
21
2.102440
31
0.0
0
LINE
8
TOP
10
6.862500
20
2.102440
30
0.0
11
6.975000
21
2.100520
31
0.0
0
LINE
8
TOP
10
6.975000
20
2.100520
30
0.0
11
7.087500
21
2.098600
31
0.0
0
LINE
8
TOP
10
7.087500
20
2.098600
30
0.0
11
7.200000
21
2.096680
31
0.0
0
LINE
8
TOP
10
7.200000
20
2.096680
30
0.0
11
7.312500
21
2.094760
31
0.0
0
LINE
8
TOP
10
7.312500
20
2.094760
30
0.0
11
7.425000
21
2.092840
31
0.0
0
LINE
8
TOP
10
7.425000
20
2.092840
30
0.0
11
7.537500
21
2.090920
31
0.0
0
LINE
8
TOP
10
7.537500
20
2.090920
30
0.0
11
7.650000
21
2.089000
31
0.0
0
LINE
8
TOP
10
7.650000
20
2.089000
30
0.0
11
7.762500
21
2.087081
31
0.0
0
LINE
8
TOP
10
7.762500
20
2.087081
30
0.0
11
7.875000
21
2.085161
31
0.0
0
LINE
8
TOP
10
7.875000
20
2.085161
30
0.0
11
7.987500
21
2.083241
31
0.0
0
LINE
8
TOP
10
7.987500
20
2.083241
30
0.0
11
8.100000
21
2.081321
31
0.0
0
LINE
8
TOP
10
8.100000
20
2.081321
30
0.0
11
8.212500
21
2.079401
31
0.0
0
LINE
8
TOP
10
8.212500
20
2.079401
30
0.0
11
8.325000
21
2.077481
31
0.0
0
LINE
8
TOP
10
8.325000
20
2.077481
30
0.0
11
8.437500
21
2.075561
31
0.0
0
LINE
8
TOP
10
8.437500
20
2.075561
30
0.0
11
8.500000
21
2.074495
31
0.0
0
LINE
8
TOP
10
8.500000
20
2.074495
30
0.0
11
8.550000
21
2.073641
31
0.0
0
LINE
8
TOP
10
8.550000
20
2.073641
30
0.0
11
8.662500
21
2.071721
31
0.0
0
LINE
8
TOP
10
8.662500
20
2.071721
30
0.0
11
8.775000
21
2.069801
31
0.0
0
LINE
8
TOP
10
8.775000
20
2.069801
30
0.0
11
8.887500
21
2.067882
31
0.0
0
LINE
8
TOP
10
8.887500
20
2.067882
30
0.0
11
9.000000
21
2.065962
31
0.0
0
LINE
8
TOP
10
0.000000
20
1.797622
30
0.0
11
0.112500
21
1.795702
31
0.0
0
LINE
8
TOP
10
0.112500
20
1.795702
30
0.0
11
0.225000
21
1.793782
31
0.0
0
LINE
8
TOP
10
0.225000
20
1.793782
30
0.0
11
0.337500
21
1.791863
31
0.0
0
LINE
8
TOP
10
0.337500
20
1.791863
30
0.0
11
0.450000
21
1.789943
31
0.0
0
LINE
8
TOP
10
0.450000
20
1.789943
30
0.0
11
0.500000
21
1.789089
31
0.0
0
LINE
8
TOP
10
0.500000
20
1.789089
30
0.0
11
0.562500
21
1.788023
31
0.0
0
LINE
8
TOP
10
0.562500
20
1.788023
30
0.0
11
0.675000
21
1.786103
31
0.0
0
LINE
8
TOP
10
0.675000
20
1.786103
30
0.0
11
0.787500
21
1.784183
31
0.0
0
LINE
8
TOP
10
0.787500
20
1.784183
30
0.0
11
0.900000
21
1.782263
31
0.0
0
LINE
8
TOP
10
0.900000
20
1.782263
30
0.0
11
1.012500
21
1.780343
31
0.0
0
LINE
8
TOP
10
1.012500
20
1.780343
30
0.0
11
1.125000
21
1.778423
31
0.0
0
LINE
8
TOP
10
1.125000
20
1.778423
30
0.0
11
1.237500
21
1.776503
31
0.0
0
LINE
8
TOP
10
1.237500
20
1.776503
30
0.0
11
1.350000
21
1.774583
31
0.0
0
LINE
8
TOP
10
1.350000
20
1.774583
30
0.0
11
1.462500
21
1.772664
31
0.0
0
LINE
8
TOP
10
1.462500
20
1.772664
30
0.0
11
1.575000
21
1.770744
31
0.0
0
LINE
8
TOP
10
1.575000
20
1.770744
30
0.0
11
1.687500
21
1.768824
31
0.0
0
LINE
8
TOP
10
1.687500
20
1.768824
30
0.0
11
1.800000
21
1.766904
31
0.0
0
LINE
8
TOP
10
1.800000
20
1.766904
30
0.0
11
1.912500
21
1.764984
31
0.0
0
LINE
8
TOP
10
1.912500
20
1.764984
30
0.0
11
2.025000
21
1.763064
31
0.0
0
LINE
8
TOP
10
2.025000
20
1.763064
30
0.0
11
2.137500
21
1.761144
31
0.0
0
LINE
8
TOP
10
2.137500
20
1.761144
30
0.0
11
2.250000
21
1.759224
31
0.0
0
LINE
8
TOP
10
2.250000
20
1.759224
30
0.0
11
2.362500
21
1.757304
31
0.0
0
LINE
8
TOP
10
2.362500
20
1.757304
30
0.0
11
2.475000
21
1.755385
31
0.0
0
LINE
8
TOP
10
2.475000
20
1.755385
30
0.0
11
2.587500
21
1.753465
31
0.0
0
LINE
8
TOP
10
2.587500
20
1.753465
30
0.0
11
2.700000
21
1.751545
31
0.0
0
LINE
8
TOP
10
2.700000
20
1.751545
30
0.0
11
2.812500
21
1.749625
31
0.0
0
LINE
8
TOP
10
2.812500
20
1.749625
30
0.0
11
2.925000
21
1.747705
31
0.0
0
LINE
8
TOP
10
2.925000
20
1.747705
30
0.0
11
3.037500
21
1.745785
31
0.0
0
LINE
8
TOP
10
3.037500
20
1.745785
30
0.0
11
3.150000
21
1.743865
31
0.0
0
LINE
8
TOP
10
3.150000
20
1.743865
30
0.0
11
3.262500
21
1.741945
31
0.0
0
LINE
8
TOP
10
3.262500
20
1.741945
30
0.0
11
3.375000
21
1.740025
31
0.0
0
LINE
8
TOP
10
3.375000
20
1.740025
30
0.0
11
3.487500
21
1.738106
31
0.0
0
LINE
8
TOP
10
3.487500
20
1.738106
30
0.0
11
3.600000
21
1.736186
31
0.0
0
LINE
8
TOP
10
3.600000
20
1.736186
30
0.0
11
3.712500
21
1.734266
31
0.0
0
LINE
8
TOP
10
3.712500
20
1.734266
30
0.0
11
3.825000
21
1.732346
31
0.0
0
LINE
8
TOP
10
3.825000
20
1.732346
30
0.0
11
3.937500
21
1.730426
31
0.0
0
LINE
8
TOP
10
3.937500
20
1.730426
30
0.0
11
4.050000
21
1.728506
31
0.0
0
LINE
8
TOP
10
4.050000
20
1.728506
30
0.0
11
4.162500
21
1.726586
31
0.0
0
LINE
8
TOP
10
4.162500
20
1.726586
30
0.0
11
4.275000
21
1.724666
31
0.0
0
LINE
8
TOP
10
4.275000
20
1.724666
30
0.0
11
4.387500
21
1.722746
31
0.0
0
LINE
8
TOP
10
4.387500
20
1.722746
30
0.0
11
4.500000
21
1.720827
31
0.0
0
LINE
8
TOP
10
4.500000
20
1.720827
30
0.0
11
4.612500
21
1.722746
31
0.0
0
LINE
8
TOP
10
4.612500
20
1.722746
30
0.0
11
4.725000
21
1.724666
31
0.0
0
LINE
8
TOP
10
4.725000
20
1.724666
30
0.0
11
4.837500
21
1.726586
31
0.0
0
LINE
8
TOP
10
4.837500
20
1.726586
30
0.0
11
4.950000
21
1.728506
31
0.0
0
LINE
8
TOP
10
4.950000
20
1.728506
30
0.0
11
5.062500
21
1.730426
31
0.0
0
LINE
8
TOP
10
5.062500
20
1.730426
30
0.0
11
5.175000
21
1.732346
31
0.0
0
LINE
8
TOP
10
5.175000
20
1.732346
30
0.0
11
5.287500
21
1.734266
31
0.0
0
LINE
8
TOP
10
5.287500
20
1.734266
30
0.0
11
5.400000
21
1.736186
31
0.0
0
LINE
8
TOP
10
5.400000
20
1.736186
30
0.0
11
5.512500
21
1.738106
31
0.0
0
LINE
8
TOP
10
5.512500
20
1.738106
30
0.0
11
5.625000
21
1.740025
31
0.0
0
LINE
8
TOP
10
5.625000
20
1.740025
30
0.0
11
5.737500
21
1.741945
31
0.0
0
LINE
8
TOP
10
5.737500
20
1.741945
30
0.0
11
5.850000
21
1.743865
31
0.0
0
LINE
8
TOP
10
5.850000
20
1.743865
30
0.0
11
5.962500
21
1.745785
31
0.0
0
LINE
8
TOP
10
5.962500
20
1.745785
30
0.0
11
6.075000
21
1.747705
31
0.0
0
LINE
8
TOP
10
6.075000
20
1.747705
30
0.0
11
6.187500
21
1.749625
31
0.0
0
LINE
8
TOP
10
6.187500
20
1.749625
30
0.0
11
6.300000
21
1.751545
31
0.0
0
LINE
8
TOP
10
6.300000
20
1.751545
30
0.0
11
6.412500
21
1.753465
31
0.0
0
LINE
8
TOP
10
6.412500
20
1.753465
30
0.0
11
6.525000
21
1.755385
31
0.0
0
LINE
8
TOP
10
6.525000
20
1.755385
30
0.0
11
6.637500
21
1.757304
31
0.0
0
LINE
8
TOP
10
6.637500
20
1.757304
30
0.0
11
6.750000
21
1.759224
31
0.0
0
LINE
8
TOP
10
6.750000
20
1.759224
30
0.0
11
6.862500
21
1.761144
31
0.0
0
LINE
8
TOP
10
6.862500
20
1.761144
30
0.0
11
6.975000
21
1.763064
31
0.0
0
LINE
8
TOP
10
6.975000
20
1.763064
30
0.0
11
7.087500
21
1.764984
31
0.0
0
LINE
8
TOP
10
7.087500
20
1.764984
30
0.0
11
7.200000
21
1.766904
31
0.0
0
LINE
8
TOP
10
7.200000
20
1.766904
30
0.0
11
7.312500
21
1.768824
31
0.0
0
LINE
8
TOP
10
7.312500
20
1.768824
30
0.0
11
7.425000
21
1.770744
31
0.0
0
LINE
8
TOP
10
7.425000
20
1.770744
30
0.0
11
7.537500
21
1.772664
31
0.0
0
LINE
8
TOP
10
7.537500
20
1.772664
30
0.0
11
7.650000
21
1.774583
31
0.0
0
LINE
8
TOP
10
7.650000
20
1.774583
30
0.0
11
7.762500
21
1.776503
31
0.0
0
LINE
8
TOP
10
7.762500
20
1.776503
30
0.0
11
7.875000
21
1.778423
31
0.0
0
LINE
8
TOP
10
7.875000
20
1.778423
30
0.0
11
7.987500
21
1.780343
31
0.0
0
LINE
8
TOP
10
7.987500
20
1.780343
30
0.0
11
8.100000
21
1.782263
31
0.0
0
LINE
8
TOP
10
8.100000
20
1.782263
30
0.0
11
8.212500
21
1.784183
31
0.0
0
LINE
8
TOP
10
8.212500
20
1.784183
30
0.0
11
8.325000
21
1.786103
31
0.0
0
LINE
8
TOP
10
8.325000
20
1.786103
30
0.0
11
8.437500
21
1.788023
31
0.0
0
LINE
8
TOP
10
8.437500
20
1.788023
30
0.0
11
8.500000
21
1.789089
31
0.0
0
LINE
8
TOP
10
8.500000
20
1.789089
30
0.0
11
8.550000
21
1.789943
31
0.0
0
LINE
8
TOP
10
8.550000
20
1.789943
30
0.0
11
8.662500
21
1.791863
31
0.0
0
LINE
8
TOP
10
8.662500
20
1.791863
30
0.0
11
8.775000
21
1.793782
31
0.0
0
LINE
8
TOP
10
8.775000
20
1.793782
30
0.0
11
8.887500
21
1.795702
31
0.0
0
LINE
8
TOP
10
8.887500
20
1.795702
30
0.0
11
9.000000
21
1.797622
31
0.0
0
LINE
8
TOP
10
0.000000
20
2.065962
30
0.0
11
0.000000
21
1.797622
31
0.0
0
LINE
8
TOP
10
9.000000
20
2.065962
30
0.0
11
9.000000
21
1.797622
31
0.0
0
LINE
8
SECTION
10
10.289035
20
-0.393931
30
0.0
11
10.710965
21
-0.393931
31
0.0
0
LINE
8
SECTION
10
10.710965
20
-0.393931
30
0.0
11
10.710965
21
0.393931
31
0.0
0
LINE
8
SECTION
10
10.710965
20
0.393931
30
0.0
11
10.289035
21
0.393931
31
0.0
0
LINE
8
SECTION
10
10.289035
20
0.393931
30
0.0
11
10.289035
21
-0.393931
31
0.0
0
LINE
8
SECTION
10
10.329035
20
-0.353931
30
0.0
11
10.670965
21
-0.353931
31
0.0
0
LINE
8
SECTION
10
10.670965
20
-0.353931
30
0.0
11
10.670965
21
0.353931
31
0.0
0
LINE
8
SECTION
10
10.670965
20
0.353931
30
0.0
11
10.329035
21
0.353931
31
0.0
0
LINE
8
SECTION
10
10.329035
20
0.353931
30
0.0
11
10.329035
21
-0.353931
31
0.0
0
LINE
8
SECTION
10
10.329035
20
0.000000
30
0.0
11
10.369035
21
0.000000
31
0.0
0
LINE
8
SECTION
10
10.369035
20
0.000000
30
0.0
11
10.369035
21
0.353931
31
0.0
0
LINE
8
SECTION
10
10.369035
20
0.353931
30
0.0
11
10.329035
21
0.353931
31
0.0
0
LINE
8
SECTION
10
10.329035
20
0.353931
30
0.0
11
10.329035
21
0.000000
31
0.0
0
LINE
8
SECTION
10
10.329035
20
-0.353931
30
0.0
11
10.369035
21
-0.353931
31
0.0
0
LINE
8
SECTION
10
10.369035
20
-0.353931
30
0.0
11
10.369035
21
0.000000
31
0.0
0
LINE
8
SECTION
10
10.369035
20
0.000000
30
0.0
11
10.329035
21
0.000000
31
0.0
0
LINE
8
SECTION
10
10.329035
20
0.000000
30
0.0
11
10.329035
21
-0.353931
31
0.0
0
LINE
8
SECTION
10
10.630965
20
0.000000
30
0.0
11
10.670965
21
0.000000
31
0.0
0
LINE
8
SECTION
10
10.670965
20
0.000000
30
0.0
11
10.670965
21
0.353931
31
0.0
0
LINE
8
SECTION
10
10.670965
20
0.353931
30
0.0
11
10.630965
21
0.353931
31
0.0
0
LINE
8
SECTION
10
10.630965
20
0.353931
30
0.0
11
10.630965
21
0.000000
31
0.0
0
LINE
8
SECTION
10
10.630965
20
-0.353931
30
0.0
11
10.670965
21
-0.353931
31
0.0
0
LINE
8
SECTION
10
10.670965
20
-0.353931
30
0.0
11
10.670965
21
0.000000
31
0.0
0
LINE
8
SECTION
10
10.670965
20
0.000000
30
0.0
11
10.630965
21
0.000000
31
0.0
0
LINE
8
SECTION
10
10.630965
20
0.000000
30
0.0
11
10.630965
21
-0.353931
31
0.0
0
ENDSEC
0
EOF
