0
SECTION
2
HEADER
9
$INSUNITS
70
1
0
ENDSEC
0
SECTION
2
ENTITIES
0
LINE
8
FRONT
10
0.000000
20
0.226298
30
0.0
11
0.100000
21
0.226801
31
0.0
0
LINE
8
FRONT
10
0.100000
20
0.226801
30
0.0
11
0.200000
21
0.227304
31
0.0
0
LINE
8
FRONT
10
0.200000
20
0.227304
30
0.0
11
0.300000
21
0.227807
31
0.0
0
LINE
8
FRONT
10
0.300000
20
0.227807
30
0.0
11
0.400000
21
0.228310
31
0.0
0
LINE
8
FRONT
10
0.400000
20
0.228310
30
0.0
11
0.500000
21
0.228813
31
0.0
0
LINE
8
FRONT
10
0.500000
20
0.228813
30
0.0
11
0.600000
21
0.229316
31
0.0
0
LINE
8
FRONT
10
0.600000
20
0.229316
30
0.0
11
0.700000
21
0.229819
31
0.0
0
LINE
8
FRONT
10
0.700000
20
0.229819
30
0.0
11
0.800000
21
0.230322
31
0.0
0
LINE
8
FRONT
10
0.800000
20
0.230322
30
0.0
11
0.900000
21
0.230825
31
0.0
0
LINE
8
FRONT
10
0.900000
20
0.230825
30
0.0
11
1.000000
21
0.231328
31
0.0
0
LINE
8
FRONT
10
1.000000
20
0.231328
30
0.0
11
1.100000
21
0.231831
31
0.0
0
LINE
8
FRONT
10
1.100000
20
0.231831
30
0.0
11
1.200000
21
0.232334
31
0.0
0
LINE
8
FRONT
10
1.200000
20
0.232334
30
0.0
11
1.300000
21
0.232837
31
0.0
0
LINE
8
FRONT
10
1.300000
20
0.232837
30
0.0
11
1.400000
21
0.233340
31
0.0
0
LINE
8
FRONT
10
1.400000
20
0.233340
30
0.0
11
1.500000
21
0.233842
31
0.0
0
LINE
8
FRONT
10
1.500000
20
0.233842
30
0.0
11
1.600000
21
0.234345
31
0.0
0
LINE
8
FRONT
10
1.600000
20
0.234345
30
0.0
11
1.700000
21
0.234848
31
0.0
0
LINE
8
FRONT
10
1.700000
20
0.234848
30
0.0
11
1.800000
21
0.235351
31
0.0
0
LINE
8
FRONT
10
1.800000
20
0.235351
30
0.0
11
1.900000
21
0.235854
31
0.0
0
LINE
8
FRONT
10
1.900000
20
0.235854
30
0.0
11
2.000000
21
0.236357
31
0.0
0
LINE
8
FRONT
10
2.000000
20
0.236357
30
0.0
11
2.100000
21
0.236860
31
0.0
0
LINE
8
FRONT
10
2.100000
20
0.236860
30
0.0
11
2.200000
21
0.237363
31
0.0
0
LINE
8
FRONT
10
2.200000
20
0.237363
30
0.0
11
2.300000
21
0.237866
31
0.0
0
LINE
8
FRONT
10
2.300000
20
0.237866
30
0.0
11
2.400000
21
0.238369
31
0.0
0
LINE
8
FRONT
10
2.400000
20
0.238369
30
0.0
11
2.500000
21
0.238872
31
0.0
0
LINE
8
FRONT
10
2.500000
20
0.238872
30
0.0
11
2.600000
21
0.239375
31
0.0
0
LINE
8
FRONT
10
2.600000
20
0.239375
30
0.0
11
2.700000
21
0.239878
31
0.0
0
LINE
8
FRONT
10
2.700000
20
0.239878
30
0.0
11
2.800000
21
0.240381
31
0.0
0
LINE
8
FRONT
10
2.800000
20
0.240381
30
0.0
11
2.900000
21
0.240884
31
0.0
0
LINE
8
FRONT
10
2.900000
20
0.240884
30
0.0
11
3.000000
21
0.241387
31
0.0
0
LINE
8
FRONT
10
3.000000
20
0.241387
30
0.0
11
3.100000
21
0.241890
31
0.0
0
LINE
8
FRONT
10
3.100000
20
0.241890
30
0.0
11
3.200000
21
0.242393
31
0.0
0
LINE
8
FRONT
10
3.200000
20
0.242393
30
0.0
11
3.300000
21
0.242896
31
0.0
0
LINE
8
FRONT
10
3.300000
20
0.242896
30
0.0
11
3.400000
21
0.243399
31
0.0
0
LINE
8
FRONT
10
3.400000
20
0.243399
30
0.0
11
3.500000
21
0.243902
31
0.0
0
LINE
8
FRONT
10
3.500000
20
0.243902
30
0.0
11
3.600000
21
0.244405
31
0.0
0
LINE
8
FRONT
10
3.600000
20
0.244405
30
0.0
11
3.700000
21
0.244908
31
0.0
0
LINE
8
FRONT
10
3.700000
20
0.244908
30
0.0
11
3.800000
21
0.245411
31
0.0
0
LINE
8
FRONT
10
3.800000
20
0.245411
30
0.0
11
3.900000
21
0.245914
31
0.0
0
LINE
8
FRONT
10
3.900000
20
0.245914
30
0.0
11
4.000000
21
0.246417
31
0.0
0
LINE
8
FRONT
10
4.000000
20
0.246417
30
0.0
11
4.100000
21
0.245914
31
0.0
0
LINE
8
FRONT
10
4.100000
20
0.245914
30
0.0
11
4.200000
21
0.245411
31
0.0
0
LINE
8
FRONT
10
4.200000
20
0.245411
30
0.0
11
4.300000
21
0.244908
31
0.0
0
LINE
8
FRONT
10
4.300000
20
0.244908
30
0.0
11
4.400000
21
0.244405
31
0.0
0
LINE
8
FRONT
10
4.400000
20
0.244405
30
0.0
11
4.500000
21
0.243902
31
0.0
0
LINE
8
FRONT
10
4.500000
20
0.243902
30
0.0
11
4.600000
21
0.243399
31
0.0
0
LINE
8
FRONT
10
4.600000
20
0.243399
30
0.0
11
4.700000
21
0.242896
31
0.0
0
LINE
8
FRONT
10
4.700000
20
0.242896
30
0.0
11
4.800000
21
0.242393
31
0.0
0
LINE
8
FRONT
10
4.800000
20
0.242393
30
0.0
11
4.900000
21
0.241890
31
0.0
0
LINE
8
FRONT
10
4.900000
20
0.241890
30
0.0
11
5.000000
21
0.241387
31
0.0
0
LINE
8
FRONT
10
5.000000
20
0.241387
30
0.0
11
5.100000
21
0.240884
31
0.0
0
LINE
8
FRONT
10
5.100000
20
0.240884
30
0.0
11
5.200000
21
0.240381
31
0.0
0
LINE
8
FRONT
10
5.200000
20
0.240381
30
0.0
11
5.300000
21
0.239878
31
0.0
0
LINE
8
FRONT
10
5.300000
20
0.239878
30
0.0
11
5.400000
21
0.239375
31
0.0
0
LINE
8
FRONT
10
5.400000
20
0.239375
30
0.0
11
5.500000
21
0.238872
31
0.0
0
LINE
8
FRONT
10
5.500000
20
0.238872
30
0.0
11
5.600000
21
0.238369
31
0.0
0
LINE
8
FRONT
10
5.600000
20
0.238369
30
0.0
11
5.700000
21
0.237866
31
0.0
0
LINE
8
FRONT
10
5.700000
20
0.237866
30
0.0
11
5.800000
21
0.237363
31
0.0
0
LINE
8
FRONT
10
5.800000
20
0.237363
30
0.0
11
5.900000
21
0.236860
31
0.0
0
LINE
8
FRONT
10
5.900000
20
0.236860
30
0.0
11
6.000000
21
0.236357
31
0.0
0
LINE
8
FRONT
10
6.000000
20
0.236357
30
0.0
11
6.100000
21
0.235854
31
0.0
0
LINE
8
FRONT
10
6.100000
20
0.235854
30
0.0
11
6.200000
21
0.235351
31
0.0
0
LINE
8
FRONT
10
6.200000
20
0.235351
30
0.0
11
6.300000
21
0.234848
31
0.0
0
LINE
8
FRONT
10
6.300000
20
0.234848
30
0.0
11
6.400000
21
0.234345
31
0.0
0
LINE
8
FRONT
10
6.400000
20
0.234345
30
0.0
11
6.500000
21
0.233842
31
0.0
0
LINE
8
FRONT
10
6.500000
20
0.233842
30
0.0
11
6.600000
21
0.233340
31
0.0
0
LINE
8
FRONT
10
6.600000
20
0.233340
30
0.0
11
6.700000
21
0.232837
31
0.0
0
LINE
8
FRONT
10
6.700000
20
0.232837
30
0.0
11
6.800000
21
0.232334
31
0.0
0
LINE
8
FRONT
10
6.800000
20
0.232334
30
0.0
11
6.900000
21
0.231831
31
0.0
0
LINE
8
FRONT
10
6.900000
20
0.231831
30
0.0
11
7.000000
21
0.231328
31
0.0
0
LINE
8
FRONT
10
7.000000
20
0.231328
30
0.0
11
7.100000
21
0.230825
31
0.0
0
LINE
8
FRONT
10
7.100000
20
0.230825
30
0.0
11
7.200000
21
0.230322
31
0.0
0
LINE
8
FRONT
10
7.200000
20
0.230322
30
0.0
11
7.300000
21
0.229819
31
0.0
0
LINE
8
FRONT
10
7.300000
20
0.229819
30
0.0
11
7.400000
21
0.229316
31
0.0
0
LINE
8
FRONT
10
7.400000
20
0.229316
30
0.0
11
7.500000
21
0.228813
31
0.0
0
LINE
8
FRONT
10
7.500000
20
0.228813
30
0.0
11
7.600000
21
0.228310
31
0.0
0
LINE
8
FRONT
10
7.600000
20
0.228310
30
0.0
11
7.700000
21
0.227807
31
0.0
0
LINE
8
FRONT
10
7.700000
20
0.227807
30
0.0
11
7.800000
21
0.227304
31
0.0
0
LINE
8
FRONT
10
7.800000
20
0.227304
30
0.0
11
7.900000
21
0.226801
31
0.0
0
LINE
8
FRONT
10
7.900000
20
0.226801
30
0.0
11
8.000000
21
0.226298
31
0.0
0
LINE
8
FRONT
10
0.000000
20
-0.226298
30
0.0
11
0.100000
21
-0.226801
31
0.0
0
LINE
8
FRONT
10
0.100000
20
-0.226801
30
0.0
11
0.200000
21
-0.227304
31
0.0
0
LINE
8
FRONT
10
0.200000
20
-0.227304
30
0.0
11
0.300000
21
-0.227807
31
0.0
0
LINE
8
FRONT
10
0.300000
20
-0.227807
30
0.0
11
0.400000
21
-0.228310
31
0.0
0
LINE
8
FRONT
10
0.400000
20
-0.228310
30
0.0
11
0.500000
21
-0.228813
31
0.0
0
LINE
8
FRONT
10
0.500000
20
-0.228813
30
0.0
11
0.600000
21
-0.229316
31
0.0
0
LINE
8
FRONT
10
0.600000
20
-0.229316
30
0.0
11
0.700000
21
-0.229819
31
0.0
0
LINE
8
FRONT
10
0.700000
20
-0.229819
30
0.0
11
0.800000
21
-0.230322
31
0.0
0
LINE
8
FRONT
10
0.800000
20
-0.230322
30
0.0
11
0.900000
21
-0.230825
31
0.0
0
LINE
8
FRONT
10
0.900000
20
-0.230825
30
0.0
11
1.000000
21
-0.231328
31
0.0
0
LINE
8
FRONT
10
1.000000
20
-0.231328
30
0.0
11
1.100000
21
-0.231831
31
0.0
0
LINE
8
FRONT
10
1.100000
20
-0.231831
30
0.0
11
1.200000
21
-0.232334
31
0.0
0
LINE
8
FRONT
10
1.200000
20
-0.232334
30
0.0
11
1.300000
21
-0.232837
31
0.0
0
LINE
8
FRONT
10
1.300000
20
-0.232837
30
0.0
11
1.400000
21
-0.233340
31
0.0
0
LINE
8
FRONT
10
1.400000
20
-0.233340
30
0.0
11
1.500000
21
-0.233842
31
0.0
0
LINE
8
FRONT
10
1.500000
20
-0.233842
30
0.0
11
1.600000
21
-0.234345
31
0.0
0
LINE
8
FRONT
10
1.600000
20
-0.234345
30
0.0
11
1.700000
21
-0.234848
31
0.0
0
LINE
8
FRONT
10
1.700000
20
-0.234848
30
0.0
11
1.800000
21
-0.235351
31
0.0
0
LINE
8
FRONT
10
1.800000
20
-0.235351
30
0.0
11
1.900000
21
-0.235854
31
0.0
0
LINE
8
FRONT
10
1.900000
20
-0.235854
30
0.0
11
2.000000
21
-0.236357
31
0.0
0
LINE
8
FRONT
10
2.000000
20
-0.236357
30
0.0
11
2.100000
21
-0.236860
31
0.0
0
LINE
8
FRONT
10
2.100000
20
-0.236860
30
0.0
11
2.200000
21
-0.237363
31
0.0
0
LINE
8
FRONT
10
2.200000
20
-0.237363
30
0.0
11
2.300000
21
-0.237866
31
0.0
0
LINE
8
FRONT
10
2.300000
20
-0.237866
30
0.0
11
2.400000
21
-0.238369
31
0.0
0
LINE
8
FRONT
10
2.400000
20
-0.238369
30
0.0
11
2.500000
21
-0.238872
31
0.0
0
LINE
8
FRONT
10
2.500000
20
-0.238872
30
0.0
11
2.600000
21
-0.239375
31
0.0
0
LINE
8
FRONT
10
2.600000
20
-0.239375
30
0.0
11
2.700000
21
-0.239878
31
0.0
0
LINE
8
FRONT
10
2.700000
20
-0.239878
30
0.0
11
2.800000
21
-0.240381
31
0.0
0
LINE
8
FRONT
10
2.800000
20
-0.240381
30
0.0
11
2.900000
21
-0.240884
31
0.0
0
LINE
8
FRONT
10
2.900000
20
-0.240884
30
0.0
11
3.000000
21
-0.241387
31
0.0
0
LINE
8
FRONT
10
3.000000
20
-0.241387
30
0.0
11
3.100000
21
-0.241890
31
0.0
0
LINE
8
FRONT
10
3.100000
20
-0.241890
30
0.0
11
3.200000
21
-0.242393
31
0.0
0
LINE
8
FRONT
10
3.200000
20
-0.242393
30
0.0
11
3.300000
21
-0.242896
31
0.0
0
LINE
8
FRONT
10
3.300000
20
-0.242896
30
0.0
11
3.400000
21
-0.243399
31
0.0
0
LINE
8
FRONT
10
3.400000
20
-0.243399
30
0.0
11
3.500000
21
-0.243902
31
0.0
0
LINE
8
FRONT
10
3.500000
20
-0.243902
30
0.0
11
3.600000
21
-0.244405
31
0.0
0
LINE
8
FRONT
10
3.600000
20
-0.244405
30
0.0
11
3.700000
21
-0.244908
31
0.0
0
LINE
8
FRONT
10
3.700000
20
-0.244908
30
0.0
11
3.800000
21
-0.245411
31
0.0
0
LINE
8
FRONT
10
3.800000
20
-0.245411
30
0.0
11
3.900000
21
-0.245914
31
0.0
0
LINE
8
FRONT
10
3.900000
20
-0.245914
30
0.0
11
4.000000
21
-0.246417
31
0.0
0
LINE
8
FRONT
10
4.000000
20
-0.246417
30
0.0
11
4.100000
21
-0.245914
31
0.0
0
LINE
8
FRONT
10
4.100000
20
-0.245914
30
0.0
11
4.200000
21
-0.245411
31
0.0
0
LINE
8
FRONT
10
4.200000
20
-0.245411
30
0.0
11
4.300000
21
-0.244908
31
0.0
0
LINE
8
FRONT
10
4.300000
20
-0.244908
30
0.0
11
4.400000
21
-0.244405
31
0.0
0
LINE
8
FRONT
10
4.400000
20
-0.244405
30
0.0
11
4.500000
21
-0.243902
31
0.0
0
LINE
8
FRONT
10
4.500000
20
-0.243902
30
0.0
11
4.600000
21
-0.243399
31
0.0
0
LINE
8
FRONT
10
4.600000
20
-0.243399
30
0.0
11
4.700000
21
-0.242896
31
0.0
0
LINE
8
FRONT
10
4.700000
20
-0.242896
30
0.0
11
4.800000
21
-0.242393
31
0.0
0
LINE
8
FRONT
10
4.800000
20
-0.242393
30
0.0
11
4.900000
21
-0.241890
31
0.0
0
LINE
8
FRONT
10
4.900000
20
-0.241890
30
0.0
11
5.000000
21
-0.241387
31
0.0
0
LINE
8
FRONT
10
5.000000
20
-0.241387
30
0.0
11
5.100000
21
-0.240884
31
0.0
0
LINE
8
FRONT
10
5.100000
20
-0.240884
30
0.0
11
5.200000
21
-0.240381
31
0.0
0
LINE
8
FRONT
10
5.200000
20
-0.240381
30
0.0
11
5.300000
21
-0.239878
31
0.0
0
LINE
8
FRONT
10
5.300000
20
-0.239878
30
0.0
11
5.400000
21
-0.239375
31
0.0
0
LINE
8
FRONT
10
5.400000
20
-0.239375
30
0.0
11
5.500000
21
-0.238872
31
0.0
0
LINE
8
FRONT
10
5.500000
20
-0.238872
30
0.0
11
5.600000
21
-0.238369
31
0.0
0
LINE
8
FRONT
10
5.600000
20
-0.238369
30
0.0
11
5.700000
21
-0.237866
31
0.0
0
LINE
8
FRONT
10
5.700000
20
-0.237866
30
0.0
11
5.800000
21
-0.237363
31
0.0
0
LINE
8
FRONT
10
5.800000
20
-0.237363
30
0.0
11
5.900000
21
-0.236860
31
0.0
0
LINE
8
FRONT
10
5.900000
20
-0.236860
30
0.0
11
6.000000
21
-0.236357
31
0.0
0
LINE
8
FRONT
10
6.000000
20
-0.236357
30
0.0
11
6.100000
21
-0.235854
31
0.0
0
LINE
8
FRONT
10
6.100000
20
-0.235854
30
0.0
11
6.200000
21
-0.235351
31
0.0
0
LINE
8
FRONT
10
6.200000
20
-0.235351
30
0.0
11
6.300000
21
-0.234848
31
0.0
0
LINE
8
FRONT
10
6.300000
20
-0.234848
30
0.0
11
6.400000
21
-0.234345
31
0.0
0
LINE
8
FRONT
10
6.400000
20
-0.234345
30
0.0
11
6.500000
21
-0.233842
31
0.0
0
LINE
8
FRONT
10
6.500000
20
-0.233842
30
0.0
11
6.600000
21
-0.233340
31
0.0
0
LINE
8
FRONT
10
6.600000
20
-0.233340
30
0.0
11
6.700000
21
-0.232837
31
0.0
0
LINE
8
FRONT
10
6.700000
20
-0.232837
30
0.0
11
6.800000
21
-0.232334
31
0.0
0
LINE
8
FRONT
10
6.800000
20
-0.232334
30
0.0
11
6.900000
21
-0.231831
31
0.0
0
LINE
8
FRONT
10
6.900000
20
-0.231831
30
0.0
11
7.000000
21
-0.231328
31
0.0
0
LINE
8
FRONT
10
7.000000
20
-0.231328
30
0.0
11
7.100000
21
-0.230825
31
0.0
0
LINE
8
FRONT
10
7.100000
20
-0.230825
30
0.0
11
7.200000
21
-0.230322
31
0.0
0
LINE
8
FRONT
10
7.200000
20
-0.230322
30
0.0
11
7.300000
21
-0.229819
31
0.0
0
LINE
8
FRONT
10
7.300000
20
-0.229819
30
0.0
11
7.400000
21
-0.229316
31
0.0
0
LINE
8
FRONT
10
7.400000
20
-0.229316
30
0.0
11
7.500000
21
-0.228813
31
0.0
0
LINE
8
FRONT
10
7.500000
20
-0.228813
30
0.0
11
7.600000
21
-0.228310
31
0.0
0
LINE
8
FRONT
10
7.600000
20
-0.228310
30
0.0
11
7.700000
21
-0.227807
31
0.0
0
LINE
8
FRONT
10
7.700000
20
-0.227807
30
0.0
11
7.800000
21
-0.227304
31
0.0
0
LINE
8
FRONT
10
7.800000
20
-0.227304
30
0.0
11
7.900000
21
-0.226801
31
0.0
0
LINE
8
FRONT
10
7.900000
20
-0.226801
30
0.0
11
8.000000
21
-0.226298
31
0.0
0
LINE
8
FRONT
10
0.000000
20
0.226298
30
0.0
11
0.000000
21
-0.226298
31
0.0
0
LINE
8
FRONT
10
8.000000
20
0.226298
30
0.0
11
8.000000
21
-0.226298
31
0.0
0
LINE
8
TOP
10
0.000000
20
1.819149
30
0.0
11
0.100000
21
1.816997
31
0.0
0
LINE
8
TOP
10
0.100000
20
1.816997
30
0.0
11
0.200000
21
1.814845
31
0.0
0
LINE
8
TOP
10
0.200000
20
1.814845
30
0.0
11
0.300000
21
1.812693
31
0.0
0
LINE
8
TOP
10
0.300000
20
1.812693
30
0.0
11
0.400000
21
1.810541
31
0.0
0
LINE
8
TOP
10
0.400000
20
1.810541
30
0.0
11
0.500000
21
1.808389
31
0.0
0
LINE
8
TOP
10
0.500000
20
1.808389
30
0.0
11
0.600000
21
1.806237
31
0.0
0
LINE
8
TOP
10
0.600000
20
1.806237
30
0.0
11
0.700000
21
1.804085
31
0.0
0
LINE
8
TOP
10
0.700000
20
1.804085
30
0.0
11
0.800000
21
1.801933
31
0.0
0
LINE
8
TOP
10
0.800000
20
1.801933
30
0.0
11
0.900000
21
1.799781
31
0.0
0
LINE
8
TOP
10
0.900000
20
1.799781
30
0.0
11
1.000000
21
1.797629
31
0.0
0
LINE
8
TOP
10
1.000000
20
1.797629
30
0.0
11
1.100000
21
1.795477
31
0.0
0
LINE
8
TOP
10
1.100000
20
1.795477
30
0.0
11
1.200000
21
1.793325
31
0.0
0
LINE
8
TOP
10
1.200000
20
1.793325
30
0.0
11
1.300000
21
1.791173
31
0.0
0
LINE
8
TOP
10
1.300000
20
1.791173
30
0.0
11
1.400000
21
1.789021
31
0.0
0
LINE
8
TOP
10
1.400000
20
1.789021
30
0.0
11
1.500000
21
1.786869
31
0.0
0
LINE
8
TOP
10
1.500000
20
1.786869
30
0.0
11
1.600000
21
1.784717
31
0.0
0
LINE
8
TOP
10
1.600000
20
1.784717
30
0.0
11
1.700000
21
1.782565
31
0.0
0
LINE
8
TOP
10
1.700000
20
1.782565
30
0.0
11
1.800000
21
1.780413
31
0.0
0
LINE
8
TOP
10
1.800000
20
1.780413
30
0.0
11
1.900000
21
1.778261
31
0.0
0
LINE
8
TOP
10
1.900000
20
1.778261
30
0.0
11
2.000000
21
1.776109
31
0.0
0
LINE
8
TOP
10
2.000000
20
1.776109
30
0.0
11
2.100000
21
1.773957
31
0.0
0
LINE
8
TOP
10
2.100000
20
1.773957
30
0.0
11
2.200000
21
1.771805
31
0.0
0
LINE
8
TOP
10
2.200000
20
1.771805
30
0.0
11
2.300000
21
1.769653
31
0.0
0
LINE
8
TOP
10
2.300000
20
1.769653
30
0.0
11
2.400000
21
1.767501
31
0.0
0
LINE
8
TOP
10
2.400000
20
1.767501
30
0.0
11
2.500000
21
1.765349
31
0.0
0
LINE
8
TOP
10
2.500000
20
1.765349
30
0.0
11
2.600000
21
1.763197
31
0.0
0
LINE
8
TOP
10
2.600000
20
1.763197
30
0.0
11
2.700000
21
1.761045
31
0.0
0
LINE
8
TOP
10
2.700000
20
1.761045
30
0.0
11
2.800000
21
1.758893
31
0.0
0
LINE
8
TOP
10
2.800000
20
1.758893
30
0.0
11
2.900000
21
1.756741
31
0.0
0
LINE
8
TOP
10
2.900000
20
1.756741
30
0.0
11
3.000000
21
1.754589
31
0.0
0
LINE
8
TOP
10
3.000000
20
1.754589
30
0.0
11
3.100000
21
1.752437
31
0.0
0
LINE
8
TOP
10
3.100000
20
1.752437
30
0.0
11
3.200000
21
1.750285
31
0.0
0
LINE
8
TOP
10
3.200000
20
1.750285
30
0.0
11
3.300000
21
1.748133
31
0.0
0
LINE
8
TOP
10
3.300000
20
1.748133
30
0.0
11
3.400000
21
1.745981
31
0.0
0
LINE
8
TOP
10
3.400000
20
1.745981
30
0.0
11
3.500000
21
1.743829
31
0.0
0
LINE
8
TOP
10
3.500000
20
1.743829
30
0.0
11
3.600000
21
1.741677
31
0.0
0
LINE
8
TOP
10
3.600000
20
1.741677
30
0.0
11
3.700000
21
1.739525
31
0.0
0
LINE
8
TOP
10
3.700000
20
1.739525
30
0.0
11
3.800000
21
1.737373
31
0.0
0
LINE
8
TOP
10
3.800000
20
1.737373
30
0.0
11
3.900000
21
1.735222
31
0.0
0
LINE
8
TOP
10
3.900000
20
1.735222
30
0.0
11
4.000000
21
1.733070
31
0.0
0
LINE
8
TOP
10
4.000000
20
1.733070
30
0.0
11
4.100000
21
1.735222
31
0.0
0
LINE
8
TOP
10
4.100000
20
1.735222
30
0.0
11
4.200000
21
1.737373
31
0.0
0
LINE
8
TOP
10
4.200000
20
1.737373
30
0.0
11
4.300000
21
1.739525
31
0.0
0
LINE
8
TOP
10
4.300000
20
1.739525
30
0.0
11
4.400000
21
1.741677
31
0.0
0
LINE
8
TOP
10
4.400000
20
1.741677
30
0.0
11
4.500000
21
1.743829
31
0.0
0
LINE
8
TOP
10
4.500000
20
1.743829
30
0.0
11
4.600000
21
1.745981
31
0.0
0
LINE
8
TOP
10
4.600000
20
1.745981
30
0.0
11
4.700000
21
1.748133
31
0.0
0
LINE
8
TOP
10
4.700000
20
1.748133
30
0.0
11
4.800000
21
1.750285
31
0.0
0
LINE
8
TOP
10
4.800000
20
1.750285
30
0.0
11
4.900000
21
1.752437
31
0.0
0
LINE
8
TOP
10
4.900000
20
1.752437
30
0.0
11
5.000000
21
1.754589
31
0.0
0
LINE
8
TOP
10
5.000000
20
1.754589
30
0.0
11
5.100000
21
1.756741
31
0.0
0
LINE
8
TOP
10
5.100000
20
1.756741
30
0.0
11
5.200000
21
1.758893
31
0.0
0
LINE
8
TOP
10
5.200000
20
1.758893
30
0.0
11
5.300000
21
1.761045
31
0.0
0
LINE
8
TOP
10
5.300000
20
1.761045
30
0.0
11
5.400000
21
1.763197
31
0.0
0
LINE
8
TOP
10
5.400000
20
1.763197
30
0.0
11
5.500000
21
1.765349
31
0.0
0
LINE
8
TOP
10
5.500000
20
1.765349
30
0.0
11
5.600000
21
1.767501
31
0.0
0
LINE
8
TOP
10
5.600000
20
1.767501
30
0.0
11
5.700000
21
1.769653
31
0.0
0
LINE
8
TOP
10
5.700000
20
1.769653
30
0.0
11
5.800000
21
1.771805
31
0.0
0
LINE
8
TOP
10
5.800000
20
1.771805
30
0.0
11
5.900000
21
1.773957
31
0.0
0
LINE
8
TOP
10
5.900000
20
1.773957
30
0.0
11
6.000000
21
1.776109
31
0.0
0
LINE
8
TOP
10
6.000000
20
1.776109
30
0.0
11
6.100000
21
1.778261
31
0.0
0
LINE
8
TOP
10
6.100000
20
1.778261
30
0.0
11
6.200000
21
1.780413
31
0.0
0
LINE
8
TOP
10
6.200000
20
1.780413
30
0.0
11
6.300000
21
1.782565
31
0.0
0
LINE
8
TOP
10
6.300000
20
1.782565
30
0.0
11
6.400000
21
1.784717
31
0.0
0
LINE
8
TOP
10
6.400000
20
1.784717
30
0.0
11
6.500000
21
1.786869
31
0.0
0
LINE
8
TOP
10
6.500000
20
1.786869
30
0.0
11
6.600000
21
1.789021
31
0.0
0
LINE
8
TOP
10
6.600000
20
1.789021
30
0.0
11
6.700000
21
1.791173
31
0.0
0
LINE
8
TOP
10
6.700000
20
1.791173
30
0.0
11
6.800000
21
1.793325
31
0.0
0
LINE
8
TOP
10
6.800000
20
1.793325
30
0.0
11
6.900000
21
1.795477
31
0.0
0
LINE
8
TOP
10
6.900000
20
1.795477
30
0.0
11
7.000000
21
1.797629
31
0.0
0
LINE
8
TOP
10
7.000000
20
1.797629
30
0.0
11
7.100000
21
1.799781
31
0.0
0
LINE
8
TOP
10
7.100000
20
1.799781
30
0.0
11
7.200000
21
1.801933
31
0.0
0
LINE
8
TOP
10
7.200000
20
1.801933
30
0.0
11
7.300000
21
1.804085
31
0.0
0
LINE
8
TOP
10
7.300000
20
1.804085
30
0.0
11
7.400000
21
1.806237
31
0.0
0
LINE
8
TOP
10
7.400000
20
1.806237
30
0.0
11
7.500000
21
1.808389
31
0.0
0
LINE
8
TOP
10
7.500000
20
1.808389
30
0.0
11
7.600000
21
1.810541
31
0.0
0
LINE
8
TOP
10
7.600000
20
1.810541
30
0.0
11
7.700000
21
1.812693
31
0.0
0
LINE
8
TOP
10
7.700000
20
1.812693
30
0.0
11
7.800000
21
1.814845
31
0.0
0
LINE
8
TOP
10
7.800000
20
1.814845
30
0.0
11
7.900000
21
1.816997
31
0.0
0
LINE
8
TOP
10
7.900000
20
1.816997
30
0.0
11
8.000000
21
1.819149
31
0.0
0
LINE
8
TOP
10
0.000000
20
1.284574
30
0.0
11
0.100000
21
1.286726
31
0.0
0
LINE
8
TOP
10
0.100000
20
1.286726
30
0.0
11
0.200000
21
1.288878
31
0.0
0
LINE
8
TOP
10
0.200000
20
1.288878
30
0.0
11
0.300000
21
1.291030
31
0.0
0
LINE
8
TOP
10
0.300000
20
1.291030
30
0.0
11
0.400000
21
1.293182
31
0.0
0
LINE
8
TOP
10
0.400000
20
1.293182
30
0.0
11
0.500000
21
1.295334
31
0.0
0
LINE
8
TOP
10
0.500000
20
1.295334
30
0.0
11
0.600000
21
1.297486
31
0.0
0
LINE
8
TOP
10
0.600000
20
1.297486
30
0.0
11
0.700000
21
1.299638
31
0.0
0
LINE
8
TOP
10
0.700000
20
1.299638
30
0.0
11
0.800000
21
1.301790
31
0.0
0
LINE
8
TOP
10
0.800000
20
1.301790
30
0.0
11
0.900000
21
1.303942
31
0.0
0
LINE
8
TOP
10
0.900000
20
1.303942
30
0.0
11
1.000000
21
1.306094
31
0.0
0
LINE
8
TOP
10
1.000000
20
1.306094
30
0.0
11
1.100000
21
1.308246
31
0.0
0
LINE
8
TOP
10
1.100000
20
1.308246
30
0.0
11
1.200000
21
1.310398
31
0.0
0
LINE
8
TOP
10
1.200000
20
1.310398
30
0.0
11
1.300000
21
1.312550
31
0.0
0
LINE
8
TOP
10
1.300000
20
1.312550
30
0.0
11
1.400000
21
1.314702
31
0.0
0
LINE
8
TOP
10
1.400000
20
1.314702
30
0.0
11
1.500000
21
1.316854
31
0.0
0
LINE
8
TOP
10
1.500000
20
1.316854
30
0.0
11
1.600000
21
1.319006
31
0.0
0
LINE
8
TOP
10
1.600000
20
1.319006
30
0.0
11
1.700000
21
1.321158
31
0.0
0
LINE
8
TOP
10
1.700000
20
1.321158
30
0.0
11
1.800000
21
1.323310
31
0.0
0
LINE
8
TOP
10
1.800000
20
1.323310
30
0.0
11
1.900000
21
1.325462
31
0.0
0
LINE
8
TOP
10
1.900000
20
1.325462
30
0.0
11
2.000000
21
1.327614
31
0.0
0
LINE
8
TOP
10
2.000000
20
1.327614
30
0.0
11
2.100000
21
1.329766
31
0.0
0
LINE
8
TOP
10
2.100000
20
1.329766
30
0.0
11
2.200000
21
1.331918
31
0.0
0
LINE
8
TOP
10
2.200000
20
1.331918
30
0.0
11
2.300000
21
1.334070
31
0.0
0
LINE
8
TOP
10
2.300000
20
1.334070
30
0.0
11
2.400000
21
1.336222
31
0.0
0
LINE
8
TOP
10
2.400000
20
1.336222
30
0.0
11
2.500000
21
1.338374
31
0.0
0
LINE
8
TOP
10
2.500000
20
1.338374
30
0.0
11
2.600000
21
1.340526
31
0.0
0
LINE
8
TOP
10
2.600000
20
1.340526
30
0.0
11
2.700000
21
1.342678
31
0.0
0
LINE
8
TOP
10
2.700000
20
1.342678
30
0.0
11
2.800000
21
1.344830
31
0.0
0
LINE
8
TOP
10
2.800000
20
1.344830
30
0.0
11
2.900000
21
1.346982
31
0.0
0
LINE
8
TOP
10
2.900000
20
1.346982
30
0.0
11
3.000000
21
1.349133
31
0.0
0
LINE
8
TOP
10
3.000000
20
1.349133
30
0.0
11
3.100000
21
1.351285
31
0.0
0
LINE
8
TOP
10
3.100000
20
1.351285
30
0.0
11
3.200000
21
1.353437
31
0.0
0
LINE
8
TOP
10
3.200000
20
1.353437
30
0.0
11
3.300000
21
1.355589
31
0.0
0
LINE
8
TOP
10
3.300000
20
1.355589
30
0.0
11
3.400000
21
1.357741
31
0.0
0
LINE
8
TOP
10
3.400000
20
1.357741
30
0.0
11
3.500000
21
1.359893
31
0.0
0
LINE
8
TOP
10
3.500000
20
1.359893
30
0.0
11
3.600000
21
1.362045
31
0.0
0
LINE
8
TOP
10
3.600000
20
1.362045
30
0.0
11
3.700000
21
1.364197
31
0.0
0
LINE
8
TOP
10
3.700000
20
1.364197
30
0.0
11
3.800000
21
1.366349
31
0.0
0
LINE
8
TOP
10
3.800000
20
1.366349
30
0.0
11
3.900000
21
1.368501
31
0.0
0
LINE
8
TOP
10
3.900000
20
1.368501
30
0.0
11
4.000000
21
1.370653
31
0.0
0
LINE
8
TOP
10
4.000000
20
1.370653
30
0.0
11
4.100000
21
1.368501
31
0.0
0
LINE
8
TOP
10
4.100000
20
1.368501
30
0.0
11
4.200000
21
1.366349
31
0.0
0
LINE
8
TOP
10
4.200000
20
1.366349
30
0.0
11
4.300000
21
1.364197
31
0.0
0
LINE
8
TOP
10
4.300000
20
1.364197
30
0.0
11
4.400000
21
1.362045
31
0.0
0
LINE
8
TOP
10
4.400000
20
1.362045
30
0.0
11
4.500000
21
1.359893
31
0.0
0
LINE
8
TOP
10
4.500000
20
1.359893
30
0.0
11
4.600000
21
1.357741
31
0.0
0
LINE
8
TOP
10
4.600000
20
1.357741
30
0.0
11
4.700000
21
1.355589
31
0.0
0
LINE
8
TOP
10
4.700000
20
1.355589
30
0.0
11
4.800000
21
1.353437
31
0.0
0
LINE
8
TOP
10
4.800000
20
1.353437
30
0.0
11
4.900000
21
1.351285
31
0.0
0
LINE
8
TOP
10
4.900000
20
1.351285
30
0.0
11
5.000000
21
1.349133
31
0.0
0
LINE
8
TOP
10
5.000000
20
1.349133
30
0.0
11
5.100000
21
1.346982
31
0.0
0
LINE
8
TOP
10
5.100000
20
1.346982
30
0.0
11
5.200000
21
1.344830
31
0.0
0
LINE
8
TOP
10
5.200000
20
1.344830
30
0.0
11
5.300000
21
1.342678
31
0.0
0
LINE
8
TOP
10
5.300000
20
1.342678
30
0.0
11
5.400000
21
1.340526
31
0.0
0
LINE
8
TOP
10
5.400000
20
1.340526
30
0.0
11
5.500000
21
1.338374
31
0.0
0
LINE
8
TOP
10
5.500000
20
1.338374
30
0.0
11
5.600000
21
1.336222
31
0.0
0
LINE
8
TOP
10
5.600000
20
1.336222
30
0.0
11
5.700000
21
1.334070
31
0.0
0
LINE
8
TOP
10
5.700000
20
1.334070
30
0.0
11
5.800000
21
1.331918
31
0.0
0
LINE
8
TOP
10
5.800000
20
1.331918
30
0.0
11
5.900000
21
1.329766
31
0.0
0
LINE
8
TOP
10
5.900000
20
1.329766
30
0.0
11
6.000000
21
1.327614
31
0.0
0
LINE
8
TOP
10
6.000000
20
1.327614
30
0.0
11
6.100000
21
1.325462
31
0.0
0
LINE
8
TOP
10
6.100000
20
1.325462
30
0.0
11
6.200000
21
1.323310
31
0.0
0
LINE
8
TOP
10
6.200000
20
1.323310
30
0.0
11
6.300000
21
1.321158
31
0.0
0
LINE
8
TOP
10
6.300000
20
1.321158
30
0.0
11
6.400000
21
1.319006
31
0.0
0
LINE
8
TOP
10
6.400000
20
1.319006
30
0.0
11
6.500000
21
1.316854
31
0.0
0
LINE
8
TOP
10
6.500000
20
1.316854
30
0.0
11
6.600000
21
1.314702
31
0.0
0
LINE
8
TOP
10
6.600000
20
1.314702
30
0.0
11
6.700000
21
1.312550
31
0.0
0
LINE
8
TOP
10
6.700000
20
1.312550
30
0.0
11
6.800000
21
1.310398
31
0.0
0
LINE
8
TOP
10
6.800000
20
1.310398
30
0.0
11
6.900000
21
1.308246
31
0.0
0
LINE
8
TOP
10
6.900000
20
1.308246
30
0.0
11
7.000000
21
1.306094
31
0.0
0
LINE
8
TOP
10
7.000000
20
1.306094
30
0.0
11
7.100000
21
1.303942
31
0.0
0
LINE
8
TOP
10
7.100000
20
1.303942
30
0.0
11
7.200000
21
1.301790
31
0.0
0
LINE
8
TOP
10
7.200000
20
1.301790
30
0.0
11
7.300000
21
1.299638
31
0.0
0
LINE
8
TOP
10
7.300000
20
1.299638
30
0.0
11
7.400000
21
1.297486
31
0.0
0
LINE
8
TOP
10
7.400000
20
1.297486
30
0.0
11
7.500000
21
1.295334
31
0.0
0
LINE
8
TOP
10
7.500000
20
1.295334
30
0.0
11
7.600000
21
1.293182
31
0.0
0
LINE
8
TOP
10
7.600000
20
1.293182
30
0.0
11
7.700000
21
1.291030
31
0.0
0
LINE
8
TOP
10
7.700000
20
1.291030
30
0.0
11
7.800000
21
1.288878
31
0.0
0
LINE
8
TOP
10
7.800000
20
1.288878
30
0.0
11
7.900000
21
1.286726
31
0.0
0
LINE
8
TOP
10
7.900000
20
1.286726
30
0.0
11
8.000000
21
1.284574
31
0.0
0
LINE
8
TOP
10
0.000000
20
1.819149
30
0.0
11
0.000000
21
1.284574
31
0.0
0
LINE
8
TOP
10
8.000000
20
1.819149
30
0.0
11
8.000000
21
1.284574
31
0.0
0
LINE
8
SECTION
10
9.318792
20
-0.246417
30
0.0
11
9.681208
21
-0.246417
31
0.0
0
LINE
8
SECTION
10
9.681208
20
-0.246417
30
0.0
11
9.681208
21
0.246417
31
0.0
0
LINE
8
SECTION
10
9.681208
20
0.246417
30
0.0
11
9.318792
21
0.246417
31
0.0
0
LINE
8
SECTION
10
9.318792
20
0.246417
30
0.0
11
9.318792
21
-0.246417
31
0.0
0
LINE
8
SECTION
10
9.378792
20
-0.186417
30
0.0
11
9.621208
21
-0.186417
31
0.0
0
LINE
8
SECTION
10
9.621208
20
-0.186417
30
0.0
11
9.621208
21
0.186417
31
0.0
0
LINE
8
SECTION
10
9.621208
20
0.186417
30
0.0
11
9.378792
21
0.186417
31
0.0
0
LINE
8
SECTION
10
9.378792
20
0.186417
30
0.0
11
9.378792
21
-0.186417
31
0.0
0
LINE
8
SECTION
10
9.378792
20
0.049655
30
0.0
11
9.438792
21
0.049655
31
0.0
0
LINE
8
SECTION
10
9.438792
20
0.049655
30
0.0
11
9.438792
21
0.186417
31
0.0
0
LINE
8
SECTION
10
9.438792
20
0.186417
30
0.0
11
9.378792
21
0.186417
31
0.0
0
LINE
8
SECTION
10
9.378792
20
0.186417
30
0.0
11
9.378792
21
0.049655
31
0.0
0
LINE
8
SECTION
10
9.378792
20
-0.186417
30
0.0
11
9.438792
21
-0.186417
31
0.0
0
LINE
8
SECTION
10
9.438792
20
-0.186417
30
0.0
11
9.438792
21
-0.049655
31
0.0
0
LINE
8
SECTION
10
9.438792
20
-0.049655
30
0.0
11
9.378792
21
-0.049655
31
0.0
0
LINE
8
SECTION
10
9.378792
20
-0.049655
30
0.0
11
9.378792
21
-0.186417
31
0.0
0
LINE
8
SECTION
10
9.561208
20
0.049655
30
0.0
11
9.621208
21
0.049655
31
0.0
0
LINE
8
SECTION
10
9.621208
20
0.049655
30
0.0
11
9.621208
21
0.186417
31
0.0
0
LINE
8
SECTION
10
9.621208
20
0.186417
30
0.0
11
9.561208
21
0.186417
31
0.0
0
LINE
8
SECTION
10
9.561208
20
0.186417
30
0.0
11
9.561208
21
0.049655
31
0.0
0
LINE
8
SECTION
10
9.561208
20
-0.186417
30
0.0
11
9.621208
21
-0.186417
31
0.0
0
LINE
8
SECTION
10
9.621208
20
-0.186417
30
0.0
11
9.621208
21
-0.049655
31
0.0
0
LINE
8
SECTION
10
9.621208
20
-0.049655
30
0.0
11
9.561208
21
-0.049655
31
0.0
0
LINE
8
SECTION
10
9.561208
20
-0.049655
30
0.0
11
9.561208
21
-0.186417
31
0.0
0
ENDSEC
0
EOF
