0
SECTION
2
HEADER
9
$INSUNITS
70
1
0
ENDSEC
0
SECTION
2
ENTITIES
0
LINE
8
FRONT
10
0.000000
20
0.352242
30
0.0
11
0.100000
21
0.348752
31
0.0
0
LINE
8
FRONT
10
0.100000
20
0.348752
30
0.0
11
0.200000
21
0.345261
31
0.0
0
LINE
8
FRONT
10
0.200000
20
0.345261
30
0.0
11
0.300000
21
0.341770
31
0.0
0
LINE
8
FRONT
10
0.300000
20
0.341770
30
0.0
11
0.400000
21
0.338279
31
0.0
0
LINE
8
FRONT
10
0.400000
20
0.338279
30
0.0
11
0.500000
21
0.334788
31
0.0
0
LINE
8
FRONT
10
0.500000
20
0.334788
30
0.0
11
0.600000
21
0.331297
31
0.0
0
LINE
8
FRONT
10
0.600000
20
0.331297
30
0.0
11
0.700000
21
0.327806
31
0.0
0
LINE
8
FRONT
10
0.700000
20
0.327806
30
0.0
11
0.800000
21
0.324315
31
0.0
0
LINE
8
FRONT
10
0.800000
20
0.324315
30
0.0
11
0.900000
21
0.320824
31
0.0
0
LINE
8
FRONT
10
0.900000
20
0.320824
30
0.0
11
1.000000
21
0.317333
31
0.0
0
LINE
8
FRONT
10
1.000000
20
0.317333
30
0.0
11
1.100000
21
0.313842
31
0.0
0
LINE
8
FRONT
10
1.100000
20
0.313842
30
0.0
11
1.200000
21
0.310351
31
0.0
0
LINE
8
FRONT
10
1.200000
20
0.310351
30
0.0
11
1.300000
21
0.306860
31
0.0
0
LINE
8
FRONT
10
1.300000
20
0.306860
30
0.0
11
1.400000
21
0.303369
31
0.0
0
LINE
8
FRONT
10
1.400000
20
0.303369
30
0.0
11
1.500000
21
0.299879
31
0.0
0
LINE
8
FRONT
10
1.500000
20
0.299879
30
0.0
11
1.600000
21
0.296388
31
0.0
0
LINE
8
FRONT
10
1.600000
20
0.296388
30
0.0
11
1.700000
21
0.292897
31
0.0
0
LINE
8
FRONT
10
1.700000
20
0.292897
30
0.0
11
1.800000
21
0.289406
31
0.0
0
LINE
8
FRONT
10
1.800000
20
0.289406
30
0.0
11
1.900000
21
0.285915
31
0.0
0
LINE
8
FRONT
10
1.900000
20
0.285915
30
0.0
11
2.000000
21
0.282424
31
0.0
0
LINE
8
FRONT
10
2.000000
20
0.282424
30
0.0
11
2.100000
21
0.278933
31
0.0
0
LINE
8
FRONT
10
2.100000
20
0.278933
30
0.0
11
2.200000
21
0.275442
31
0.0
0
LINE
8
FRONT
10
2.200000
20
0.275442
30
0.0
11
2.300000
21
0.271951
31
0.0
0
LINE
8
FRONT
10
2.300000
20
0.271951
30
0.0
11
2.400000
21
0.268460
31
0.0
0
LINE
8
FRONT
10
2.400000
20
0.268460
30
0.0
11
2.500000
21
0.264969
31
0.0
0
LINE
8
FRONT
10
2.500000
20
0.264969
30
0.0
11
2.600000
21
0.261478
31
0.0
0
LINE
8
FRONT
10
2.600000
20
0.261478
30
0.0
11
2.700000
21
0.257987
31
0.0
0
LINE
8
FRONT
10
2.700000
20
0.257987
30
0.0
11
2.800000
21
0.254496
31
0.0
0
LINE
8
FRONT
10
2.800000
20
0.254496
30
0.0
11
2.900000
21
0.251006
31
0.0
0
LINE
8
FRONT
10
2.900000
20
0.251006
30
0.0
11
3.000000
21
0.247515
31
0.0
0
LINE
8
FRONT
10
3.000000
20
0.247515
30
0.0
11
3.100000
21
0.244024
31
0.0
0
LINE
8
FRONT
10
3.100000
20
0.244024
30
0.0
11
3.200000
21
0.240533
31
0.0
0
LINE
8
FRONT
10
3.200000
20
0.240533
30
0.0
11
3.300000
21
0.237042
31
0.0
0
LINE
8
FRONT
10
3.300000
20
0.237042
30
0.0
11
3.400000
21
0.233551
31
0.0
0
LINE
8
FRONT
10
3.400000
20
0.233551
30
0.0
11
3.500000
21
0.230060
31
0.0
0
LINE
8
FRONT
10
3.500000
20
0.230060
30
0.0
11
3.600000
21
0.226569
31
0.0
0
LINE
8
FRONT
10
3.600000
20
0.226569
30
0.0
11
3.700000
21
0.223078
31
0.0
0
LINE
8
FRONT
10
3.700000
20
0.223078
30
0.0
11
3.800000
21
0.219587
31
0.0
0
LINE
8
FRONT
10
3.800000
20
0.219587
30
0.0
11
3.900000
21
0.216096
31
0.0
0
LINE
8
FRONT
10
3.900000
20
0.216096
30
0.0
11
4.000000
21
0.212605
31
0.0
0
LINE
8
FRONT
10
4.000000
20
0.212605
30
0.0
11
4.100000
21
0.214973
31
0.0
0
LINE
8
FRONT
10
4.100000
20
0.214973
30
0.0
11
4.200000
21
0.217340
31
0.0
0
LINE
8
FRONT
10
4.200000
20
0.217340
30
0.0
11
4.300000
21
0.219708
31
0.0
0
LINE
8
FRONT
10
4.300000
20
0.219708
30
0.0
11
4.400000
21
0.222076
31
0.0
0
LINE
8
FRONT
10
4.400000
20
0.222076
30
0.0
11
4.500000
21
0.224443
31
0.0
0
LINE
8
FRONT
10
4.500000
20
0.224443
30
0.0
11
4.600000
21
0.226811
31
0.0
0
LINE
8
FRONT
10
4.600000
20
0.226811
30
0.0
11
4.700000
21
0.229178
31
0.0
0
LINE
8
FRONT
10
4.700000
20
0.229178
30
0.0
11
4.800000
21
0.231546
31
0.0
0
LINE
8
FRONT
10
4.800000
20
0.231546
30
0.0
11
4.900000
21
0.233914
31
0.0
0
LINE
8
FRONT
10
4.900000
20
0.233914
30
0.0
11
5.000000
21
0.236281
31
0.0
0
LINE
8
FRONT
10
5.000000
20
0.236281
30
0.0
11
5.100000
21
0.238649
31
0.0
0
LINE
8
FRONT
10
5.100000
20
0.238649
30
0.0
11
5.200000
21
0.241016
31
0.0
0
LINE
8
FRONT
10
5.200000
20
0.241016
30
0.0
11
5.300000
21
0.243384
31
0.0
0
LINE
8
FRONT
10
5.300000
20
0.243384
30
0.0
11
5.400000
21
0.245751
31
0.0
0
LINE
8
FRONT
10
5.400000
20
0.245751
30
0.0
11
5.500000
21
0.248119
31
0.0
0
LINE
8
FRONT
10
5.500000
20
0.248119
30
0.0
11
5.600000
21
0.250487
31
0.0
0
LINE
8
FRONT
10
5.600000
20
0.250487
30
0.0
11
5.700000
21
0.252854
31
0.0
0
LINE
8
FRONT
10
5.700000
20
0.252854
30
0.0
11
5.800000
21
0.255222
31
0.0
0
LINE
8
FRONT
10
5.800000
20
0.255222
30
0.0
11
5.900000
21
0.257589
31
0.0
0
LINE
8
FRONT
10
5.900000
20
0.257589
30
0.0
11
6.000000
21
0.259957
31
0.0
0
LINE
8
FRONT
10
6.000000
20
0.259957
30
0.0
11
6.100000
21
0.262325
31
0.0
0
LINE
8
FRONT
10
6.100000
20
0.262325
30
0.0
11
6.200000
21
0.264692
31
0.0
0
LINE
8
FRONT
10
6.200000
20
0.264692
30
0.0
11
6.300000
21
0.267060
31
0.0
0
LINE
8
FRONT
10
6.300000
20
0.267060
30
0.0
11
6.400000
21
0.269427
31
0.0
0
LINE
8
FRONT
10
6.400000
20
0.269427
30
0.0
11
6.500000
21
0.271795
31
0.0
0
LINE
8
FRONT
10
6.500000
20
0.271795
30
0.0
11
6.600000
21
0.274163
31
0.0
0
LINE
8
FRONT
10
6.600000
20
0.274163
30
0.0
11
6.700000
21
0.276530
31
0.0
0
LINE
8
FRONT
10
6.700000
20
0.276530
30
0.0
11
6.800000
21
0.278898
31
0.0
0
LINE
8
FRONT
10
6.800000
20
0.278898
30
0.0
11
6.900000
21
0.281265
31
0.0
0
LINE
8
FRONT
10
6.900000
20
0.281265
30
0.0
11
7.000000
21
0.283633
31
0.0
0
LINE
8
FRONT
10
7.000000
20
0.283633
30
0.0
11
7.100000
21
0.286000
31
0.0
0
LINE
8
FRONT
10
7.100000
20
0.286000
30
0.0
11
7.200000
21
0.288368
31
0.0
0
LINE
8
FRONT
10
7.200000
20
0.288368
30
0.0
11
7.300000
21
0.290736
31
0.0
0
LINE
8
FRONT
10
7.300000
20
0.290736
30
0.0
11
7.400000
21
0.293103
31
0.0
0
LINE
8
FRONT
10
7.400000
20
0.293103
30
0.0
11
7.500000
21
0.295471
31
0.0
0
LINE
8
FRONT
10
7.500000
20
0.295471
30
0.0
11
7.600000
21
0.297838
31
0.0
0
LINE
8
FRONT
10
7.600000
20
0.297838
30
0.0
11
7.700000
21
0.300206
31
0.0
0
LINE
8
FRONT
10
7.700000
20
0.300206
30
0.0
11
7.800000
21
0.302574
31
0.0
0
LINE
8
FRONT
10
7.800000
20
0.302574
30
0.0
11
7.900000
21
0.304941
31
0.0
0
LINE
8
FRONT
10
7.900000
20
0.304941
30
0.0
11
8.000000
21
0.307309
31
0.0
0
LINE
8
FRONT
10
0.000000
20
-0.352242
30
0.0
11
0.100000
21
-0.348752
31
0.0
0
LINE
8
FRONT
10
0.100000
20
-0.348752
30
0.0
11
0.200000
21
-0.345261
31
0.0
0
LINE
8
FRONT
10
0.200000
20
-0.345261
30
0.0
11
0.300000
21
-0.341770
31
0.0
0
LINE
8
FRONT
10
0.300000
20
-0.341770
30
0.0
11
0.400000
21
-0.338279
31
0.0
0
LINE
8
FRONT
10
0.400000
20
-0.338279
30
0.0
11
0.500000
21
-0.334788
31
0.0
0
LINE
8
FRONT
10
0.500000
20
-0.334788
30
0.0
11
0.600000
21
-0.331297
31
0.0
0
LINE
8
FRONT
10
0.600000
20
-0.331297
30
0.0
11
0.700000
21
-0.327806
31
0.0
0
LINE
8
FRONT
10
0.700000
20
-0.327806
30
0.0
11
0.800000
21
-0.324315
31
0.0
0
LINE
8
FRONT
10
0.800000
20
-0.324315
30
0.0
11
0.900000
21
-0.320824
31
0.0
0
LINE
8
FRONT
10
0.900000
20
-0.320824
30
0.0
11
1.000000
21
-0.317333
31
0.0
0
LINE
8
FRONT
10
1.000000
20
-0.317333
30
0.0
11
1.100000
21
-0.313842
31
0.0
0
LINE
8
FRONT
10
1.100000
20
-0.313842
30
0.0
11
1.200000
21
-0.310351
31
0.0
0
LINE
8
FRONT
10
1.200000
20
-0.310351
30
0.0
11
1.300000
21
-0.306860
31
0.0
0
LINE
8
FRONT
10
1.300000
20
-0.306860
30
0.0
11
1.400000
21
-0.303369
31
0.0
0
LINE
8
FRONT
10
1.400000
20
-0.303369
30
0.0
11
1.500000
21
-0.299879
31
0.0
0
LINE
8
FRONT
10
1.500000
20
-0.299879
30
0.0
11
1.600000
21
-0.296388
31
0.0
0
LINE
8
FRONT
10
1.600000
20
-0.296388
30
0.0
11
1.700000
21
-0.292897
31
0.0
0
LINE
8
FRONT
10
1.700000
20
-0.292897
30
0.0
11
1.800000
21
-0.289406
31
0.0
0
LINE
8
FRONT
10
1.800000
20
-0.289406
30
0.0
11
1.900000
21
-0.285915
31
0.0
0
LINE
8
FRONT
10
1.900000
20
-0.285915
30
0.0
11
2.000000
21
-0.282424
31
0.0
0
LINE
8
FRONT
10
2.000000
20
-0.282424
30
0.0
11
2.100000
21
-0.278933
31
0.0
0
LINE
8
FRONT
10
2.100000
20
-0.278933
30
0.0
11
2.200000
21
-0.275442
31
0.0
0
LINE
8
FRONT
10
2.200000
20
-0.275442
30
0.0
11
2.300000
21
-0.271951
31
0.0
0
LINE
8
FRONT
10
2.300000
20
-0.271951
30
0.0
11
2.400000
21
-0.268460
31
0.0
0
LINE
8
FRONT
10
2.400000
20
-0.268460
30
0.0
11
2.500000
21
-0.264969
31
0.0
0
LINE
8
FRONT
10
2.500000
20
-0.264969
30
0.0
11
2.600000
21
-0.261478
31
0.0
0
LINE
8
FRONT
10
2.600000
20
-0.261478
30
0.0
11
2.700000
21
-0.257987
31
0.0
0
LINE
8
FRONT
10
2.700000
20
-0.257987
30
0.0
11
2.800000
21
-0.254496
31
0.0
0
LINE
8
FRONT
10
2.800000
20
-0.254496
30
0.0
11
2.900000
21
-0.251006
31
0.0
0
LINE
8
FRONT
10
2.900000
20
-0.251006
30
0.0
11
3.000000
21
-0.247515
31
0.0
0
LINE
8
FRONT
10
3.000000
20
-0.247515
30
0.0
11
3.100000
21
-0.244024
31
0.0
0
LINE
8
FRONT
10
3.100000
20
-0.244024
30
0.0
11
3.200000
21
-0.240533
31
0.0
0
LINE
8
FRONT
10
3.200000
20
-0.240533
30
0.0
11
3.300000
21
-0.237042
31
0.0
0
LINE
8
FRONT
10
3.300000
20
-0.237042
30
0.0
11
3.400000
21
-0.233551
31
0.0
0
LINE
8
FRONT
10
3.400000
20
-0.233551
30
0.0
11
3.500000
21
-0.230060
31
0.0
0
LINE
8
FRONT
10
3.500000
20
-0.230060
30
0.0
11
3.600000
21
-0.226569
31
0.0
0
LINE
8
FRONT
10
3.600000
20
-0.226569
30
0.0
11
3.700000
21
-0.223078
31
0.0
0
LINE
8
FRONT
10
3.700000
20
-0.223078
30
0.0
11
3.800000
21
-0.219587
31
0.0
0
LINE
8
FRONT
10
3.800000
20
-0.219587
30
0.0
11
3.900000
21
-0.216096
31
0.0
0
LINE
8
FRONT
10
3.900000
20
-0.216096
30
0.0
11
4.000000
21
-0.212605
31
0.0
0
LINE
8
FRONT
10
4.000000
20
-0.212605
30
0.0
11
4.100000
21
-0.214973
31
0.0
0
LINE
8
FRONT
10
4.100000
20
-0.214973
30
0.0
11
4.200000
21
-0.217340
31
0.0
0
LINE
8
FRONT
10
4.200000
20
-0.217340
30
0.0
11
4.300000
21
-0.219708
31
0.0
0
LINE
8
FRONT
10
4.300000
20
-0.219708
30
0.0
11
4.400000
21
-0.222076
31
0.0
0
LINE
8
FRONT
10
4.400000
20
-0.222076
30
0.0
11
4.500000
21
-0.224443
31
0.0
0
LINE
8
FRONT
10
4.500000
20
-0.224443
30
0.0
11
4.600000
21
-0.226811
31
0.0
0
LINE
8
FRONT
10
4.600000
20
-0.226811
30
0.0
11
4.700000
21
-0.229178
31
0.0
0
LINE
8
FRONT
10
4.700000
20
-0.229178
30
0.0
11
4.800000
21
-0.231546
31
0.0
0
LINE
8
FRONT
10
4.800000
20
-0.231546
30
0.0
11
4.900000
21
-0.233914
31
0.0
0
LINE
8
FRONT
10
4.900000
20
-0.233914
30
0.0
11
5.000000
21
-0.236281
31
0.0
0
LINE
8
FRONT
10
5.000000
20
-0.236281
30
0.0
11
5.100000
21
-0.238649
31
0.0
0
LINE
8
FRONT
10
5.100000
20
-0.238649
30
0.0
11
5.200000
21
-0.241016
31
0.0
0
LINE
8
FRONT
10
5.200000
20
-0.241016
30
0.0
11
5.300000
21
-0.243384
31
0.0
0
LINE
8
FRONT
10
5.300000
20
-0.243384
30
0.0
11
5.400000
21
-0.245751
31
0.0
0
LINE
8
FRONT
10
5.400000
20
-0.245751
30
0.0
11
5.500000
21
-0.248119
31
0.0
0
LINE
8
FRONT
10
5.500000
20
-0.248119
30
0.0
11
5.600000
21
-0.250487
31
0.0
0
LINE
8
FRONT
10
5.600000
20
-0.250487
30
0.0
11
5.700000
21
-0.252854
31
0.0
0
LINE
8
FRONT
10
5.700000
20
-0.252854
30
0.0
11
5.800000
21
-0.255222
31
0.0
0
LINE
8
FRONT
10
5.800000
20
-0.255222
30
0.0
11
5.900000
21
-0.257589
31
0.0
0
LINE
8
FRONT
10
5.900000
20
-0.257589
30
0.0
11
6.000000
21
-0.259957
31
0.0
0
LINE
8
FRONT
10
6.000000
20
-0.259957
30
0.0
11
6.100000
21
-0.262325
31
0.0
0
LINE
8
FRONT
10
6.100000
20
-0.262325
30
0.0
11
6.200000
21
-0.264692
31
0.0
0
LINE
8
FRONT
10
6.200000
20
-0.264692
30
0.0
11
6.300000
21
-0.267060
31
0.0
0
LINE
8
FRONT
10
6.300000
20
-0.267060
30
0.0
11
6.400000
21
-0.269427
31
0.0
0
LINE
8
FRONT
10
6.400000
20
-0.269427
30
0.0
11
6.500000
21
-0.271795
31
0.0
0
LINE
8
FRONT
10
6.500000
20
-0.271795
30
0.0
11
6.600000
21
-0.274163
31
0.0
0
LINE
8
FRONT
10
6.600000
20
-0.274163
30
0.0
11
6.700000
21
-0.276530
31
0.0
0
LINE
8
FRONT
10
6.700000
20
-0.276530
30
0.0
11
6.800000
21
-0.278898
31
0.0
0
LINE
8
FRONT
10
6.800000
20
-0.278898
30
0.0
11
6.900000
21
-0.281265
31
0.0
0
LINE
8
FRONT
10
6.900000
20
-0.281265
30
0.0
11
7.000000
21
-0.283633
31
0.0
0
LINE
8
FRONT
10
7.000000
20
-0.283633
30
0.0
11
7.100000
21
-0.286000
31
0.0
0
LINE
8
FRONT
10
7.100000
20
-0.286000
30
0.0
11
7.200000
21
-0.288368
31
0.0
0
LINE
8
FRONT
10
7.200000
20
-0.288368
30
0.0
11
7.300000
21
-0.290736
31
0.0
0
LINE
8
FRONT
10
7.300000
20
-0.290736
30
0.0
11
7.400000
21
-0.293103
31
0.0
0
LINE
8
FRONT
10
7.400000
20
-0.293103
30
0.0
11
7.500000
21
-0.295471
31
0.0
0
LINE
8
FRONT
10
7.500000
20
-0.295471
30
0.0
11
7.600000
21
-0.297838
31
0.0
0
LINE
8
FRONT
10
7.600000
20
-0.297838
30
0.0
11
7.700000
21
-0.300206
31
0.0
0
LINE
8
FRONT
10
7.700000
20
-0.300206
30
0.0
11
7.800000
21
-0.302574
31
0.0
0
LINE
8
FRONT
10
7.800000
20
-0.302574
30
0.0
11
7.900000
21
-0.304941
31
0.0
0
LINE
8
FRONT
10
7.900000
20
-0.304941
30
0.0
11
8.000000
21
-0.307309
31
0.0
0
LINE
8
FRONT
10
0.000000
20
0.352242
30
0.0
11
0.000000
21
-0.352242
31
0.0
0
LINE
8
FRONT
10
8.000000
20
0.307309
30
0.0
11
8.000000
21
-0.307309
31
0.0
0
LINE
8
TOP
10
0.000000
20
2.066761
30
0.0
11
0.100000
21
2.065185
31
0.0
0
LINE
8
TOP
10
0.100000
20
2.065185
30
0.0
11
0.200000
21
2.063609
31
0.0
0
LINE
8
TOP
10
0.200000
20
2.063609
30
0.0
11
0.300000
21
2.062033
31
0.0
0
LINE
8
TOP
10
0.300000
20
2.062033
30
0.0
11
0.400000
21
2.060457
31
0.0
0
LINE
8
TOP
10
0.400000
20
2.060457
30
0.0
11
0.500000
21
2.058882
31
0.0
0
LINE
8
TOP
10
0.500000
20
2.058882
30
0.0
11
0.600000
21
2.057306
31
0.0
0
LINE
8
TOP
10
0.600000
20
2.057306
30
0.0
11
0.700000
21
2.055730
31
0.0
0
LINE
8
TOP
10
0.700000
20
2.055730
30
0.0
11
0.800000
21
2.054154
31
0.0
0
LINE
8
TOP
10
0.800000
20
2.054154
30
0.0
11
0.900000
21
2.052579
31
0.0
0
LINE
8
TOP
10
0.900000
20
2.052579
30
0.0
11
1.000000
21
2.051003
31
0.0
0
LINE
8
TOP
10
1.000000
20
2.051003
30
0.0
11
1.100000
21
2.049427
31
0.0
0
LINE
8
TOP
10
1.100000
20
2.049427
30
0.0
11
1.200000
21
2.047851
31
0.0
0
LINE
8
TOP
10
1.200000
20
2.047851
30
0.0
11
1.300000
21
2.046276
31
0.0
0
LINE
8
TOP
10
1.300000
20
2.046276
30
0.0
11
1.400000
21
2.044700
31
0.0
0
LINE
8
TOP
10
1.400000
20
2.044700
30
0.0
11
1.500000
21
2.043124
31
0.0
0
LINE
8
TOP
10
1.500000
20
2.043124
30
0.0
11
1.600000
21
2.041548
31
0.0
0
LINE
8
TOP
10
1.600000
20
2.041548
30
0.0
11
1.700000
21
2.039972
31
0.0
0
LINE
8
TOP
10
1.700000
20
2.039972
30
0.0
11
1.800000
21
2.038397
31
0.0
0
LINE
8
TOP
10
1.800000
20
2.038397
30
0.0
11
1.900000
21
2.036821
31
0.0
0
LINE
8
TOP
10
1.900000
20
2.036821
30
0.0
11
2.000000
21
2.035245
31
0.0
0
LINE
8
TOP
10
2.000000
20
2.035245
30
0.0
11
2.100000
21
2.033669
31
0.0
0
LINE
8
TOP
10
2.100000
20
2.033669
30
0.0
11
2.200000
21
2.032094
31
0.0
0
LINE
8
TOP
10
2.200000
20
2.032094
30
0.0
11
2.300000
21
2.030518
31
0.0
0
LINE
8
TOP
10
2.300000
20
2.030518
30
0.0
11
2.400000
21
2.028942
31
0.0
0
LINE
8
TOP
10
2.400000
20
2.028942
30
0.0
11
2.500000
21
2.027366
31
0.0
0
LINE
8
TOP
10
2.500000
20
2.027366
30
0.0
11
2.600000
21
2.025791
31
0.0
0
LINE
8
TOP
10
2.600000
20
2.025791
30
0.0
11
2.700000
21
2.024215
31
0.0
0
LINE
8
TOP
10
2.700000
20
2.024215
30
0.0
11
2.800000
21
2.022639
31
0.0
0
LINE
8
TOP
10
2.800000
20
2.022639
30
0.0
11
2.900000
21
2.021063
31
0.0
0
LINE
8
TOP
10
2.900000
20
2.021063
30
0.0
11
3.000000
21
2.019487
31
0.0
0
LINE
8
TOP
10
3.000000
20
2.019487
30
0.0
11
3.100000
21
2.017912
31
0.0
0
LINE
8
TOP
10
3.100000
20
2.017912
30
0.0
11
3.200000
21
2.016336
31
0.0
0
LINE
8
TOP
10
3.200000
20
2.016336
30
0.0
11
3.300000
21
2.014760
31
0.0
0
LINE
8
TOP
10
3.300000
20
2.014760
30
0.0
11
3.400000
21
2.013184
31
0.0
0
LINE
8
TOP
10
3.400000
20
2.013184
30
0.0
11
3.500000
21
2.011609
31
0.0
0
LINE
8
TOP
10
3.500000
20
2.011609
30
0.0
11
3.600000
21
2.010033
31
0.0
0
LINE
8
TOP
10
3.600000
20
2.010033
30
0.0
11
3.700000
21
2.008457
31
0.0
0
LINE
8
TOP
10
3.700000
20
2.008457
30
0.0
11
3.800000
21
2.006881
31
0.0
0
LINE
8
TOP
10
3.800000
20
2.006881
30
0.0
11
3.900000
21
2.005305
31
0.0
0
LINE
8
TOP
10
3.900000
20
2.005305
30
0.0
11
4.000000
21
2.003730
31
0.0
0
LINE
8
TOP
10
4.000000
20
2.003730
30
0.0
11
4.100000
21
2.006843
31
0.0
0
LINE
8
TOP
10
4.100000
20
2.006843
30
0.0
11
4.200000
21
2.009956
31
0.0
0
LINE
8
TOP
10
4.200000
20
2.009956
30
0.0
11
4.300000
21
2.013068
31
0.0
0
LINE
8
TOP
10
4.300000
20
2.013068
30
0.0
11
4.400000
21
2.016181
31
0.0
0
LINE
8
TOP
10
4.400000
20
2.016181
30
0.0
11
4.500000
21
2.019294
31
0.0
0
LINE
8
TOP
10
4.500000
20
2.019294
30
0.0
11
4.600000
21
2.022407
31
0.0
0
LINE
8
TOP
10
4.600000
20
2.022407
30
0.0
11
4.700000
21
2.025520
31
0.0
0
LINE
8
TOP
10
4.700000
20
2.025520
30
0.0
11
4.800000
21
2.028633
31
0.0
0
LINE
8
TOP
10
4.800000
20
2.028633
30
0.0
11
4.900000
21
2.031746
31
0.0
0
LINE
8
TOP
10
4.900000
20
2.031746
30
0.0
11
5.000000
21
2.034859
31
0.0
0
LINE
8
TOP
10
5.000000
20
2.034859
30
0.0
11
5.100000
21
2.037972
31
0.0
0
LINE
8
TOP
10
5.100000
20
2.037972
30
0.0
11
5.200000
21
2.041085
31
0.0
0
LINE
8
TOP
10
5.200000
20
2.041085
30
0.0
11
5.300000
21
2.044198
31
0.0
0
LINE
8
TOP
10
5.300000
20
2.044198
30
0.0
11
5.400000
21
2.047310
31
0.0
0
LINE
8
TOP
10
5.400000
20
2.047310
30
0.0
11
5.500000
21
2.050423
31
0.0
0
LINE
8
TOP
10
5.500000
20
2.050423
30
0.0
11
5.600000
21
2.053536
31
0.0
0
LINE
8
TOP
10
5.600000
20
2.053536
30
0.0
11
5.700000
21
2.056649
31
0.0
0
LINE
8
TOP
10
5.700000
20
2.056649
30
0.0
11
5.800000
21
2.059762
31
0.0
0
LINE
8
TOP
10
5.800000
20
2.059762
30
0.0
11
5.900000
21
2.062875
31
0.0
0
LINE
8
TOP
10
5.900000
20
2.062875
30
0.0
11
6.000000
21
2.065988
31
0.0
0
LINE
8
TOP
10
6.000000
20
2.065988
30
0.0
11
6.100000
21
2.069101
31
0.0
0
LINE
8
TOP
10
6.100000
20
2.069101
30
0.0
11
6.200000
21
2.072214
31
0.0
0
LINE
8
TOP
10
6.200000
20
2.072214
30
0.0
11
6.300000
21
2.075327
31
0.0
0
LINE
8
TOP
10
6.300000
20
2.075327
30
0.0
11
6.400000
21
2.078439
31
0.0
0
LINE
8
TOP
10
6.400000
20
2.078439
30
0.0
11
6.500000
21
2.081552
31
0.0
0
LINE
8
TOP
10
6.500000
20
2.081552
30
0.0
11
6.600000
21
2.084665
31
0.0
0
LINE
8
TOP
10
6.600000
20
2.084665
30
0.0
11
6.700000
21
2.087778
31
0.0
0
LINE
8
TOP
10
6.700000
20
2.087778
30
0.0
11
6.800000
21
2.090891
31
0.0
0
LINE
8
TOP
10
6.800000
20
2.090891
30
0.0
11
6.900000
21
2.094004
31
0.0
0
LINE
8
TOP
10
6.900000
20
2.094004
30
0.0
11
7.000000
21
2.097117
31
0.0
0
LINE
8
TOP
10
7.000000
20
2.097117
30
0.0
11
7.100000
21
2.100230
31
0.0
0
LINE
8
TOP
10
7.100000
20
2.100230
30
0.0
11
7.200000
21
2.103343
31
0.0
0
LINE
8
TOP
10
7.200000
20
2.103343
30
0.0
11
7.300000
21
2.106456
31
0.0
0
LINE
8
TOP
10
7.300000
20
2.106456
30
0.0
11
7.400000
21
2.109569
31
0.0
0
LINE
8
TOP
10
7.400000
20
2.109569
30
0.0
11
7.500000
21
2.112681
31
0.0
0
LINE
8
TOP
10
7.500000
20
2.112681
30
0.0
11
7.600000
21
2.115794
31
0.0
0
LINE
8
TOP
10
7.600000
20
2.115794
30
0.0
11
7.700000
21
2.118907
31
0.0
0
LINE
8
TOP
10
7.700000
20
2.118907
30
0.0
11
7.800000
21
2.122020
31
0.0
0
LINE
8
TOP
10
7.800000
20
2.122020
30
0.0
11
7.900000
21
2.125133
31
0.0
0
LINE
8
TOP
10
7.900000
20
2.125133
30
0.0
11
8.000000
21
2.128246
31
0.0
0
LINE
8
TOP
10
0.000000
20
1.546694
30
0.0
11
0.100000
21
1.548270
31
0.0
0
LINE
8
TOP
10
0.100000
20
1.548270
30
0.0
11
0.200000
21
1.549846
31
0.0
0
LINE
8
TOP
10
0.200000
20
1.549846
30
0.0
11
0.300000
21
1.551422
31
0.0
0
LINE
8
TOP
10
0.300000
20
1.551422
30
0.0
11
0.400000
21
1.552997
31
0.0
0
LINE
8
TOP
10
0.400000
20
1.552997
30
0.0
11
0.500000
21
1.554573
31
0.0
0
LINE
8
TOP
10
0.500000
20
1.554573
30
0.0
11
0.600000
21
1.556149
31
0.0
0
LINE
8
TOP
10
0.600000
20
1.556149
30
0.0
11
0.700000
21
1.557725
31
0.0
0
LINE
8
TOP
10
0.700000
20
1.557725
30
0.0
11
0.800000
21
1.559300
31
0.0
0
LINE
8
TOP
10
0.800000
20
1.559300
30
0.0
11
0.900000
21
1.560876
31
0.0
0
LINE
8
TOP
10
0.900000
20
1.560876
30
0.0
11
1.000000
21
1.562452
31
0.0
0
LINE
8
TOP
10
1.000000
20
1.562452
30
0.0
11
1.100000
21
1.564028
31
0.0
0
LINE
8
TOP
10
1.100000
20
1.564028
30
0.0
11
1.200000
21
1.565604
31
0.0
0
LINE
8
TOP
10
1.200000
20
1.565604
30
0.0
11
1.300000
21
1.567179
31
0.0
0
LINE
8
TOP
10
1.300000
20
1.567179
30
0.0
11
1.400000
21
1.568755
31
0.0
0
LINE
8
TOP
10
1.400000
20
1.568755
30
0.0
11
1.500000
21
1.570331
31
0.0
0
LINE
8
TOP
10
1.500000
20
1.570331
30
0.0
11
1.600000
21
1.571907
31
0.0
0
LINE
8
TOP
10
1.600000
20
1.571907
30
0.0
11
1.700000
21
1.573482
31
0.0
0
LINE
8
TOP
10
1.700000
20
1.573482
30
0.0
11
1.800000
21
1.575058
31
0.0
0
LINE
8
TOP
10
1.800000
20
1.575058
30
0.0
11
1.900000
21
1.576634
31
0.0
0
LINE
8
TOP
10
1.900000
20
1.576634
30
0.0
11
2.000000
21
1.578210
31
0.0
0
LINE
8
TOP
10
2.000000
20
1.578210
30
0.0
11
2.100000
21
1.579785
31
0.0
0
LINE
8
TOP
10
2.100000
20
1.579785
30
0.0
11
2.200000
21
1.581361
31
0.0
0
LINE
8
TOP
10
2.200000
20
1.581361
30
0.0
11
2.300000
21
1.582937
31
0.0
0
LINE
8
TOP
10
2.300000
20
1.582937
30
0.0
11
2.400000
21
1.584513
31
0.0
0
LINE
8
TOP
10
2.400000
20
1.584513
30
0.0
11
2.500000
21
1.586089
31
0.0
0
LINE
8
TOP
10
2.500000
20
1.586089
30
0.0
11
2.600000
21
1.587664
31
0.0
0
LINE
8
TOP
10
2.600000
20
1.587664
30
0.0
11
2.700000
21
1.589240
31
0.0
0
LINE
8
TOP
10
2.700000
20
1.589240
30
0.0
11
2.800000
21
1.590816
31
0.0
0
LINE
8
TOP
10
2.800000
20
1.590816
30
0.0
11
2.900000
21
1.592392
31
0.0
0
LINE
8
TOP
10
2.900000
20
1.592392
30
0.0
11
3.000000
21
1.593967
31
0.0
0
LINE
8
TOP
10
3.000000
20
1.593967
30
0.0
11
3.100000
21
1.595543
31
0.0
0
LINE
8
TOP
10
3.100000
20
1.595543
30
0.0
11
3.200000
21
1.597119
31
0.0
0
LINE
8
TOP
10
3.200000
20
1.597119
30
0.0
11
3.300000
21
1.598695
31
0.0
0
LINE
8
TOP
10
3.300000
20
1.598695
30
0.0
11
3.400000
21
1.600271
31
0.0
0
LINE
8
TOP
10
3.400000
20
1.600271
30
0.0
11
3.500000
21
1.601846
31
0.0
0
LINE
8
TOP
10
3.500000
20
1.601846
30
0.0
11
3.600000
21
1.603422
31
0.0
0
LINE
8
TOP
10
3.600000
20
1.603422
30
0.0
11
3.700000
21
1.604998
31
0.0
0
LINE
8
TOP
10
3.700000
20
1.604998
30
0.0
11
3.800000
21
1.606574
31
0.0
0
LINE
8
TOP
10
3.800000
20
1.606574
30
0.0
11
3.900000
21
1.608149
31
0.0
0
LINE
8
TOP
10
3.900000
20
1.608149
30
0.0
11
4.000000
21
1.609725
31
0.0
0
LINE
8
TOP
10
4.000000
20
1.609725
30
0.0
11
4.100000
21
1.606612
31
0.0
0
LINE
8
TOP
10
4.100000
20
1.606612
30
0.0
11
4.200000
21
1.603499
31
0.0
0
LINE
8
TOP
10
4.200000
20
1.603499
30
0.0
11
4.300000
21
1.600386
31
0.0
0
LINE
8
TOP
10
4.300000
20
1.600386
30
0.0
11
4.400000
21
1.597274
31
0.0
0
LINE
8
TOP
10
4.400000
20
1.597274
30
0.0
11
4.500000
21
1.594161
31
0.0
0
LINE
8
TOP
10
4.500000
20
1.594161
30
0.0
11
4.600000
21
1.591048
31
0.0
0
LINE
8
TOP
10
4.600000
20
1.591048
30
0.0
11
4.700000
21
1.587935
31
0.0
0
LINE
8
TOP
10
4.700000
20
1.587935
30
0.0
11
4.800000
21
1.584822
31
0.0
0
LINE
8
TOP
10
4.800000
20
1.584822
30
0.0
11
4.900000
21
1.581709
31
0.0
0
LINE
8
TOP
10
4.900000
20
1.581709
30
0.0
11
5.000000
21
1.578596
31
0.0
0
LINE
8
TOP
10
5.000000
20
1.578596
30
0.0
11
5.100000
21
1.575483
31
0.0
0
LINE
8
TOP
10
5.100000
20
1.575483
30
0.0
11
5.200000
21
1.572370
31
0.0
0
LINE
8
TOP
10
5.200000
20
1.572370
30
0.0
11
5.300000
21
1.569257
31
0.0
0
LINE
8
TOP
10
5.300000
20
1.569257
30
0.0
11
5.400000
21
1.566144
31
0.0
0
LINE
8
TOP
10
5.400000
20
1.566144
30
0.0
11
5.500000
21
1.563032
31
0.0
0
LINE
8
TOP
10
5.500000
20
1.563032
30
0.0
11
5.600000
21
1.559919
31
0.0
0
LINE
8
TOP
10
5.600000
20
1.559919
30
0.0
11
5.700000
21
1.556806
31
0.0
0
LINE
8
TOP
10
5.700000
20
1.556806
30
0.0
11
5.800000
21
1.553693
31
0.0
0
LINE
8
TOP
10
5.800000
20
1.553693
30
0.0
11
5.900000
21
1.550580
31
0.0
0
LINE
8
TOP
10
5.900000
20
1.550580
30
0.0
11
6.000000
21
1.547467
31
0.0
0
LINE
8
TOP
10
6.000000
20
1.547467
30
0.0
11
6.100000
21
1.544354
31
0.0
0
LINE
8
TOP
10
6.100000
20
1.544354
30
0.0
11
6.200000
21
1.541241
31
0.0
0
LINE
8
TOP
10
6.200000
20
1.541241
30
0.0
11
6.300000
21
1.538128
31
0.0
0
LINE
8
TOP
10
6.300000
20
1.538128
30
0.0
11
6.400000
21
1.535015
31
0.0
0
LINE
8
TOP
10
6.400000
20
1.535015
30
0.0
11
6.500000
21
1.531902
31
0.0
0
LINE
8
TOP
10
6.500000
20
1.531902
30
0.0
11
6.600000
21
1.528790
31
0.0
0
LINE
8
TOP
10
6.600000
20
1.528790
30
0.0
11
6.700000
21
1.525677
31
0.0
0
LINE
8
TOP
10
6.700000
20
1.525677
30
0.0
11
6.800000
21
1.522564
31
0.0
0
LINE
8
TOP
10
6.800000
20
1.522564
30
0.0
11
6.900000
21
1.519451
31
0.0
0
LINE
8
TOP
10
6.900000
20
1.519451
30
0.0
11
7.000000
21
1.516338
31
0.0
0
LINE
8
TOP
10
7.000000
20
1.516338
30
0.0
11
7.100000
21
1.513225
31
0.0
0
LINE
8
TOP
10
7.100000
20
1.513225
30
0.0
11
7.200000
21
1.510112
31
0.0
0
LINE
8
TOP
10
7.200000
20
1.510112
30
0.0
11
7.300000
21
1.506999
31
0.0
0
LINE
8
TOP
10
7.300000
20
1.506999
30
0.0
11
7.400000
21
1.503886
31
0.0
0
LINE
8
TOP
10
7.400000
20
1.503886
30
0.0
11
7.500000
21
1.500773
31
0.0
0
LINE
8
TOP
10
7.500000
20
1.500773
30
0.0
11
7.600000
21
1.497660
31
0.0
0
LINE
8
TOP
10
7.600000
20
1.497660
30
0.0
11
7.700000
21
1.494548
31
0.0
0
LINE
8
TOP
10
7.700000
20
1.494548
30
0.0
11
7.800000
21
1.491435
31
0.0
0
LINE
8
TOP
10
7.800000
20
1.491435
30
0.0
11
7.900000
21
1.488322
31
0.0
0
LINE
8
TOP
10
7.900000
20
1.488322
30
0.0
11
8.000000
21
1.485209
31
0.0
0
LINE
8
TOP
10
0.000000
20
2.066761
30
0.0
11
0.000000
21
1.546694
31
0.0
0
LINE
8
TOP
10
8.000000
20
2.128246
30
0.0
11
8.000000
21
1.485209
31
0.0
0
LINE
8
SECTION
10
9.302998
20
-0.212605
30
0.0
11
9.697002
21
-0.212605
31
0.0
0
LINE
8
SECTION
10
9.697002
20
-0.212605
30
0.0
11
9.697002
21
0.212605
31
0.0
0
LINE
8
SECTION
10
9.697002
20
0.212605
30
0.0
11
9.302998
21
0.212605
31
0.0
0
LINE
8
SECTION
10
9.302998
20
0.212605
30
0.0
11
9.302998
21
-0.212605
31
0.0
0
LINE
8
SECTION
10
9.362998
20
-0.152605
30
0.0
11
9.637002
21
-0.152605
31
0.0
0
LINE
8
SECTION
10
9.637002
20
-0.152605
30
0.0
11
9.637002
21
0.152605
31
0.0
0
LINE
8
SECTION
10
9.637002
20
0.152605
30
0.0
11
9.362998
21
0.152605
31
0.0
0
LINE
8
SECTION
10
9.362998
20
0.152605
30
0.0
11
9.362998
21
-0.152605
31
0.0
0
LINE
8
SECTION
10
9.362998
20
0.029399
30
0.0
11
9.422998
21
0.029399
31
0.0
0
LINE
8
SECTION
10
9.422998
20
0.029399
30
0.0
11
9.422998
21
0.152605
31
0.0
0
LINE
8
SECTION
10
9.422998
20
0.152605
30
0.0
11
9.362998
21
0.152605
31
0.0
0
LINE
8
SECTION
10
9.362998
20
0.152605
30
0.0
11
9.362998
21
0.029399
31
0.0
0
LINE
8
SECTION
10
9.362998
20
-0.152605
30
0.0
11
9.422998
21
-0.152605
31
0.0
0
LINE
8
SECTION
10
9.422998
20
-0.152605
30
0.0
11
9.422998
21
-0.029399
31
0.0
0
LINE
8
SECTION
10
9.422998
20
-0.029399
30
0.0
11
9.362998
21
-0.029399
31
0.0
0
LINE
8
SECTION
10
9.362998
20
-0.029399
30
0.0
11
9.362998
21
-0.152605
31
0.0
0
LINE
8
SECTION
10
9.577002
20
0.029399
30
0.0
11
9.637002
21
0.029399
31
0.0
0
LINE
8
SECTION
10
9.637002
20
0.029399
30
0.0
11
9.637002
21
0.152605
31
0.0
0
LINE
8
SECTION
10
9.637002
20
0.152605
30
0.0
11
9.577002
21
0.152605
31
0.0
0
LINE
8
SECTION
10
9.577002
20
0.152605
30
0.0
11
9.577002
21
0.029399
31
0.0
0
LINE
8
SECTION
10
9.577002
20
-0.152605
30
0.0
11
9.637002
21
-0.152605
31
0.0
0
LINE
8
SECTION
10
9.637002
20
-0.152605
30
0.0
11
9.637002
21
-0.029399
31
0.0
0
LINE
8
SECTION
10
9.637002
20
-0.029399
30
0.0
11
9.577002
21
-0.029399
31
0.0
0
LINE
8
SECTION
10
9.577002
20
-0.029399
30
0.0
11
9.577002
21
-0.152605
31
0.0
0
ENDSEC
0
EOF
