0
SECTION
2
HEADER
9
$INSUNITS
70
1
0
ENDSEC
0
SECTION
2
ENTITIES
0
LINE
8
FRONT
10
0.000000
20
0.288259
30
0.0
11
0.100000
21
0.285572
31
0.0
0
LINE
8
FRONT
10
0.100000
20
0.285572
30
0.0
11
0.200000
21
0.282884
31
0.0
0
LINE
8
FRONT
10
0.200000
20
0.282884
30
0.0
11
0.300000
21
0.280196
31
0.0
0
LINE
8
FRONT
10
0.300000
20
0.280196
30
0.0
11
0.400000
21
0.277509
31
0.0
0
LINE
8
FRONT
10
0.400000
20
0.277509
30
0.0
11
0.500000
21
0.274821
31
0.0
0
LINE
8
FRONT
10
0.500000
20
0.274821
30
0.0
11
0.600000
21
0.272133
31
0.0
0
LINE
8
FRONT
10
0.600000
20
0.272133
30
0.0
11
0.700000
21
0.269446
31
0.0
0
LINE
8
FRONT
10
0.700000
20
0.269446
30
0.0
11
0.800000
21
0.266758
31
0.0
0
LINE
8
FRONT
10
0.800000
20
0.266758
30
0.0
11
0.900000
21
0.264070
31
0.0
0
LINE
8
FRONT
10
0.900000
20
0.264070
30
0.0
11
1.000000
21
0.261383
31
0.0
0
LINE
8
FRONT
10
1.000000
20
0.261383
30
0.0
11
1.100000
21
0.258695
31
0.0
0
LINE
8
FRONT
10
1.100000
20
0.258695
30
0.0
11
1.200000
21
0.256007
31
0.0
0
LINE
8
FRONT
10
1.200000
20
0.256007
30
0.0
11
1.300000
21
0.253320
31
0.0
0
LINE
8
FRONT
10
1.300000
20
0.253320
30
0.0
11
1.400000
21
0.250632
31
0.0
0
LINE
8
FRONT
10
1.400000
20
0.250632
30
0.0
11
1.500000
21
0.247944
31
0.0
0
LINE
8
FRONT
10
1.500000
20
0.247944
30
0.0
11
1.600000
21
0.245257
31
0.0
0
LINE
8
FRONT
10
1.600000
20
0.245257
30
0.0
11
1.700000
21
0.242569
31
0.0
0
LINE
8
FRONT
10
1.700000
20
0.242569
30
0.0
11
1.800000
21
0.239881
31
0.0
0
LINE
8
FRONT
10
1.800000
20
0.239881
30
0.0
11
1.900000
21
0.237194
31
0.0
0
LINE
8
FRONT
10
1.900000
20
0.237194
30
0.0
11
2.000000
21
0.234506
31
0.0
0
LINE
8
FRONT
10
2.000000
20
0.234506
30
0.0
11
2.100000
21
0.231818
31
0.0
0
LINE
8
FRONT
10
2.100000
20
0.231818
30
0.0
11
2.200000
21
0.229131
31
0.0
0
LINE
8
FRONT
10
2.200000
20
0.229131
30
0.0
11
2.300000
21
0.226443
31
0.0
0
LINE
8
FRONT
10
2.300000
20
0.226443
30
0.0
11
2.400000
21
0.223756
31
0.0
0
LINE
8
FRONT
10
2.400000
20
0.223756
30
0.0
11
2.500000
21
0.221068
31
0.0
0
LINE
8
FRONT
10
2.500000
20
0.221068
30
0.0
11
2.600000
21
0.218380
31
0.0
0
LINE
8
FRONT
10
2.600000
20
0.218380
30
0.0
11
2.700000
21
0.215693
31
0.0
0
LINE
8
FRONT
10
2.700000
20
0.215693
30
0.0
11
2.800000
21
0.213005
31
0.0
0
LINE
8
FRONT
10
2.800000
20
0.213005
30
0.0
11
2.900000
21
0.210317
31
0.0
0
LINE
8
FRONT
10
2.900000
20
0.210317
30
0.0
11
3.000000
21
0.207630
31
0.0
0
LINE
8
FRONT
10
3.000000
20
0.207630
30
0.0
11
3.100000
21
0.204942
31
0.0
0
LINE
8
FRONT
10
3.100000
20
0.204942
30
0.0
11
3.200000
21
0.202254
31
0.0
0
LINE
8
FRONT
10
3.200000
20
0.202254
30
0.0
11
3.300000
21
0.199567
31
0.0
0
LINE
8
FRONT
10
3.300000
20
0.199567
30
0.0
11
3.400000
21
0.196879
31
0.0
0
LINE
8
FRONT
10
3.400000
20
0.196879
30
0.0
11
3.500000
21
0.194191
31
0.0
0
LINE
8
FRONT
10
3.500000
20
0.194191
30
0.0
11
3.600000
21
0.191504
31
0.0
0
LINE
8
FRONT
10
3.600000
20
0.191504
30
0.0
11
3.700000
21
0.188816
31
0.0
0
LINE
8
FRONT
10
3.700000
20
0.188816
30
0.0
11
3.800000
21
0.186128
31
0.0
0
LINE
8
FRONT
10
3.800000
20
0.186128
30
0.0
11
3.900000
21
0.183441
31
0.0
0
LINE
8
FRONT
10
3.900000
20
0.183441
30
0.0
11
4.000000
21
0.180753
31
0.0
0
LINE
8
FRONT
10
4.000000
20
0.180753
30
0.0
11
4.100000
21
0.183441
31
0.0
0
LINE
8
FRONT
10
4.100000
20
0.183441
30
0.0
11
4.200000
21
0.186128
31
0.0
0
LINE
8
FRONT
10
4.200000
20
0.186128
30
0.0
11
4.300000
21
0.188816
31
0.0
0
LINE
8
FRONT
10
4.300000
20
0.188816
30
0.0
11
4.400000
21
0.191504
31
0.0
0
LINE
8
FRONT
10
4.400000
20
0.191504
30
0.0
11
4.500000
21
0.194191
31
0.0
0
LINE
8
FRONT
10
4.500000
20
0.194191
30
0.0
11
4.600000
21
0.196879
31
0.0
0
LINE
8
FRONT
10
4.600000
20
0.196879
30
0.0
11
4.700000
21
0.199567
31
0.0
0
LINE
8
FRONT
10
4.700000
20
0.199567
30
0.0
11
4.800000
21
0.202254
31
0.0
0
LINE
8
FRONT
10
4.800000
20
0.202254
30
0.0
11
4.900000
21
0.204942
31
0.0
0
LINE
8
FRONT
10
4.900000
20
0.204942
30
0.0
11
5.000000
21
0.207630
31
0.0
0
LINE
8
FRONT
10
5.000000
20
0.207630
30
0.0
11
5.100000
21
0.210317
31
0.0
0
LINE
8
FRONT
10
5.100000
20
0.210317
30
0.0
11
5.200000
21
0.213005
31
0.0
0
LINE
8
FRONT
10
5.200000
20
0.213005
30
0.0
11
5.300000
21
0.215693
31
0.0
0
LINE
8
FRONT
10
5.300000
20
0.215693
30
0.0
11
5.400000
21
0.218380
31
0.0
0
LINE
8
FRONT
10
5.400000
20
0.218380
30
0.0
11
5.500000
21
0.221068
31
0.0
0
LINE
8
FRONT
10
5.500000
20
0.221068
30
0.0
11
5.600000
21
0.223756
31
0.0
0
LINE
8
FRONT
10
5.600000
20
0.223756
30
0.0
11
5.700000
21
0.226443
31
0.0
0
LINE
8
FRONT
10
5.700000
20
0.226443
30
0.0
11
5.800000
21
0.229131
31
0.0
0
LINE
8
FRONT
10
5.800000
20
0.229131
30
0.0
11
5.900000
21
0.231818
31
0.0
0
LINE
8
FRONT
10
5.900000
20
0.231818
30
0.0
11
6.000000
21
0.234506
31
0.0
0
LINE
8
FRONT
10
6.000000
20
0.234506
30
0.0
11
6.100000
21
0.237194
31
0.0
0
LINE
8
FRONT
10
6.100000
20
0.237194
30
0.0
11
6.200000
21
0.239881
31
0.0
0
LINE
8
FRONT
10
6.200000
20
0.239881
30
0.0
11
6.300000
21
0.242569
31
0.0
0
LINE
8
FRONT
10
6.300000
20
0.242569
30
0.0
11
6.400000
21
0.245257
31
0.0
0
LINE
8
FRONT
10
6.400000
20
0.245257
30
0.0
11
6.500000
21
0.247944
31
0.0
0
LINE
8
FRONT
10
6.500000
20
0.247944
30
0.0
11
6.600000
21
0.250632
31
0.0
0
LINE
8
FRONT
10
6.600000
20
0.250632
30
0.0
11
6.700000
21
0.253320
31
0.0
0
LINE
8
FRONT
10
6.700000
20
0.253320
30
0.0
11
6.800000
21
0.256007
31
0.0
0
LINE
8
FRONT
10
6.800000
20
0.256007
30
0.0
11
6.900000
21
0.258695
31
0.0
0
LINE
8
FRONT
10
6.900000
20
0.258695
30
0.0
11
7.000000
21
0.261383
31
0.0
0
LINE
8
FRONT
10
7.000000
20
0.261383
30
0.0
11
7.100000
21
0.264070
31
0.0
0
LINE
8
FRONT
10
7.100000
20
0.264070
30
0.0
11
7.200000
21
0.266758
31
0.0
0
LINE
8
FRONT
10
7.200000
20
0.266758
30
0.0
11
7.300000
21
0.269446
31
0.0
0
LINE
8
FRONT
10
7.300000
20
0.269446
30
0.0
11
7.400000
21
0.272133
31
0.0
0
LINE
8
FRONT
10
7.400000
20
0.272133
30
0.0
11
7.500000
21
0.274821
31
0.0
0
LINE
8
FRONT
10
7.500000
20
0.274821
30
0.0
11
7.600000
21
0.277509
31
0.0
0
LINE
8
FRONT
10
7.600000
20
0.277509
30
0.0
11
7.700000
21
0.280196
31
0.0
0
LINE
8
FRONT
10
7.700000
20
0.280196
30
0.0
11
7.800000
21
0.282884
31
0.0
0
LINE
8
FRONT
10
7.800000
20
0.282884
30
0.0
11
7.900000
21
0.285572
31
0.0
0
LINE
8
FRONT
10
7.900000
20
0.285572
30
0.0
11
8.000000
21
0.288259
31
0.0
0
LINE
8
FRONT
10
0.000000
20
-0.288259
30
0.0
11
0.100000
21
-0.285572
31
0.0
0
LINE
8
FRONT
10
0.100000
20
-0.285572
30
0.0
11
0.200000
21
-0.282884
31
0.0
0
LINE
8
FRONT
10
0.200000
20
-0.282884
30
0.0
11
0.300000
21
-0.280196
31
0.0
0
LINE
8
FRONT
10
0.300000
20
-0.280196
30
0.0
11
0.400000
21
-0.277509
31
0.0
0
LINE
8
FRONT
10
0.400000
20
-0.277509
30
0.0
11
0.500000
21
-0.274821
31
0.0
0
LINE
8
FRONT
10
0.500000
20
-0.274821
30
0.0
11
0.600000
21
-0.272133
31
0.0
0
LINE
8
FRONT
10
0.600000
20
-0.272133
30
0.0
11
0.700000
21
-0.269446
31
0.0
0
LINE
8
FRONT
10
0.700000
20
-0.269446
30
0.0
11
0.800000
21
-0.266758
31
0.0
0
LINE
8
FRONT
10
0.800000
20
-0.266758
30
0.0
11
0.900000
21
-0.264070
31
0.0
0
LINE
8
FRONT
10
0.900000
20
-0.264070
30
0.0
11
1.000000
21
-0.261383
31
0.0
0
LINE
8
FRONT
10
1.000000
20
-0.261383
30
0.0
11
1.100000
21
-0.258695
31
0.0
0
LINE
8
FRONT
10
1.100000
20
-0.258695
30
0.0
11
1.200000
21
-0.256007
31
0.0
0
LINE
8
FRONT
10
1.200000
20
-0.256007
30
0.0
11
1.300000
21
-0.253320
31
0.0
0
LINE
8
FRONT
10
1.300000
20
-0.253320
30
0.0
11
1.400000
21
-0.250632
31
0.0
0
LINE
8
FRONT
10
1.400000
20
-0.250632
30
0.0
11
1.500000
21
-0.247944
31
0.0
0
LINE
8
FRONT
10
1.500000
20
-0.247944
30
0.0
11
1.600000
21
-0.245257
31
0.0
0
LINE
8
FRONT
10
1.600000
20
-0.245257
30
0.0
11
1.700000
21
-0.242569
31
0.0
0
LINE
8
FRONT
10
1.700000
20
-0.242569
30
0.0
11
1.800000
21
-0.239881
31
0.0
0
LINE
8
FRONT
10
1.800000
20
-0.239881
30
0.0
11
1.900000
21
-0.237194
31
0.0
0
LINE
8
FRONT
10
1.900000
20
-0.237194
30
0.0
11
2.000000
21
-0.234506
31
0.0
0
LINE
8
FRONT
10
2.000000
20
-0.234506
30
0.0
11
2.100000
21
-0.231818
31
0.0
0
LINE
8
FRONT
10
2.100000
20
-0.231818
30
0.0
11
2.200000
21
-0.229131
31
0.0
0
LINE
8
FRONT
10
2.200000
20
-0.229131
30
0.0
11
2.300000
21
-0.226443
31
0.0
0
LINE
8
FRONT
10
2.300000
20
-0.226443
30
0.0
11
2.400000
21
-0.223756
31
0.0
0
LINE
8
FRONT
10
2.400000
20
-0.223756
30
0.0
11
2.500000
21
-0.221068
31
0.0
0
LINE
8
FRONT
10
2.500000
20
-0.221068
30
0.0
11
2.600000
21
-0.218380
31
0.0
0
LINE
8
FRONT
10
2.600000
20
-0.218380
30
0.0
11
2.700000
21
-0.215693
31
0.0
0
LINE
8
FRONT
10
2.700000
20
-0.215693
30
0.0
11
2.800000
21
-0.213005
31
0.0
0
LINE
8
FRONT
10
2.800000
20
-0.213005
30
0.0
11
2.900000
21
-0.210317
31
0.0
0
LINE
8
FRONT
10
2.900000
20
-0.210317
30
0.0
11
3.000000
21
-0.207630
31
0.0
0
LINE
8
FRONT
10
3.000000
20
-0.207630
30
0.0
11
3.100000
21
-0.204942
31
0.0
0
LINE
8
FRONT
10
3.100000
20
-0.204942
30
0.0
11
3.200000
21
-0.202254
31
0.0
0
LINE
8
FRONT
10
3.200000
20
-0.202254
30
0.0
11
3.300000
21
-0.199567
31
0.0
0
LINE
8
FRONT
10
3.300000
20
-0.199567
30
0.0
11
3.400000
21
-0.196879
31
0.0
0
LINE
8
FRONT
10
3.400000
20
-0.196879
30
0.0
11
3.500000
21
-0.194191
31
0.0
0
LINE
8
FRONT
10
3.500000
20
-0.194191
30
0.0
11
3.600000
21
-0.191504
31
0.0
0
LINE
8
FRONT
10
3.600000
20
-0.191504
30
0.0
11
3.700000
21
-0.188816
31
0.0
0
LINE
8
FRONT
10
3.700000
20
-0.188816
30
0.0
11
3.800000
21
-0.186128
31
0.0
0
LINE
8
FRONT
10
3.800000
20
-0.186128
30
0.0
11
3.900000
21
-0.183441
31
0.0
0
LINE
8
FRONT
10
3.900000
20
-0.183441
30
0.0
11
4.000000
21
-0.180753
31
0.0
0
LINE
8
FRONT
10
4.000000
20
-0.180753
30
0.0
11
4.100000
21
-0.183441
31
0.0
0
LINE
8
FRONT
10
4.100000
20
-0.183441
30
0.0
11
4.200000
21
-0.186128
31
0.0
0
LINE
8
FRONT
10
4.200000
20
-0.186128
30
0.0
11
4.300000
21
-0.188816
31
0.0
0
LINE
8
FRONT
10
4.300000
20
-0.188816
30
0.0
11
4.400000
21
-0.191504
31
0.0
0
LINE
8
FRONT
10
4.400000
20
-0.191504
30
0.0
11
4.500000
21
-0.194191
31
0.0
0
LINE
8
FRONT
10
4.500000
20
-0.194191
30
0.0
11
4.600000
21
-0.196879
31
0.0
0
LINE
8
FRONT
10
4.600000
20
-0.196879
30
0.0
11
4.700000
21
-0.199567
31
0.0
0
LINE
8
FRONT
10
4.700000
20
-0.199567
30
0.0
11
4.800000
21
-0.202254
31
0.0
0
LINE
8
FRONT
10
4.800000
20
-0.202254
30
0.0
11
4.900000
21
-0.204942
31
0.0
0
LINE
8
FRONT
10
4.900000
20
-0.204942
30
0.0
11
5.000000
21
-0.207630
31
0.0
0
LINE
8
FRONT
10
5.000000
20
-0.207630
30
0.0
11
5.100000
21
-0.210317
31
0.0
0
LINE
8
FRONT
10
5.100000
20
-0.210317
30
0.0
11
5.200000
21
-0.213005
31
0.0
0
LINE
8
FRONT
10
5.200000
20
-0.213005
30
0.0
11
5.300000
21
-0.215693
31
0.0
0
LINE
8
FRONT
10
5.300000
20
-0.215693
30
0.0
11
5.400000
21
-0.218380
31
0.0
0
LINE
8
FRONT
10
5.400000
20
-0.218380
30
0.0
11
5.500000
21
-0.221068
31
0.0
0
LINE
8
FRONT
10
5.500000
20
-0.221068
30
0.0
11
5.600000
21
-0.223756
31
0.0
0
LINE
8
FRONT
10
5.600000
20
-0.223756
30
0.0
11
5.700000
21
-0.226443
31
0.0
0
LINE
8
FRONT
10
5.700000
20
-0.226443
30
0.0
11
5.800000
21
-0.229131
31
0.0
0
LINE
8
FRONT
10
5.800000
20
-0.229131
30
0.0
11
5.900000
21
-0.231818
31
0.0
0
LINE
8
FRONT
10
5.900000
20
-0.231818
30
0.0
11
6.000000
21
-0.234506
31
0.0
0
LINE
8
FRONT
10
6.000000
20
-0.234506
30
0.0
11
6.100000
21
-0.237194
31
0.0
0
LINE
8
FRONT
10
6.100000
20
-0.237194
30
0.0
11
6.200000
21
-0.239881
31
0.0
0
LINE
8
FRONT
10
6.200000
20
-0.239881
30
0.0
11
6.300000
21
-0.242569
31
0.0
0
LINE
8
FRONT
10
6.300000
20
-0.242569
30
0.0
11
6.400000
21
-0.245257
31
0.0
0
LINE
8
FRONT
10
6.400000
20
-0.245257
30
0.0
11
6.500000
21
-0.247944
31
0.0
0
LINE
8
FRONT
10
6.500000
20
-0.247944
30
0.0
11
6.600000
21
-0.250632
31
0.0
0
LINE
8
FRONT
10
6.600000
20
-0.250632
30
0.0
11
6.700000
21
-0.253320
31
0.0
0
LINE
8
FRONT
10
6.700000
20
-0.253320
30
0.0
11
6.800000
21
-0.256007
31
0.0
0
LINE
8
FRONT
10
6.800000
20
-0.256007
30
0.0
11
6.900000
21
-0.258695
31
0.0
0
LINE
8
FRONT
10
6.900000
20
-0.258695
30
0.0
11
7.000000
21
-0.261383
31
0.0
0
LINE
8
FRONT
10
7.000000
20
-0.261383
30
0.0
11
7.100000
21
-0.264070
31
0.0
0
LINE
8
FRONT
10
7.100000
20
-0.264070
30
0.0
11
7.200000
21
-0.266758
31
0.0
0
LINE
8
FRONT
10
7.200000
20
-0.266758
30
0.0
11
7.300000
21
-0.269446
31
0.0
0
LINE
8
FRONT
10
7.300000
20
-0.269446
30
0.0
11
7.400000
21
-0.272133
31
0.0
0
LINE
8
FRONT
10
7.400000
20
-0.272133
30
0.0
11
7.500000
21
-0.274821
31
0.0
0
LINE
8
FRONT
10
7.500000
20
-0.274821
30
0.0
11
7.600000
21
-0.277509
31
0.0
0
LINE
8
FRONT
10
7.600000
20
-0.277509
30
0.0
11
7.700000
21
-0.280196
31
0.0
0
LINE
8
FRONT
10
7.700000
20
-0.280196
30
0.0
11
7.800000
21
-0.282884
31
0.0
0
LINE
8
FRONT
10
7.800000
20
-0.282884
30
0.0
11
7.900000
21
-0.285572
31
0.0
0
LINE
8
FRONT
10
7.900000
20
-0.285572
30
0.0
11
8.000000
21
-0.288259
31
0.0
0
LINE
8
FRONT
10
0.000000
20
0.288259
30
0.0
11
0.000000
21
-0.288259
31
0.0
0
LINE
8
FRONT
10
8.000000
20
0.288259
30
0.0
11
8.000000
21
-0.288259
31
0.0
0
LINE
8
TOP
10
0.000000
20
1.885449
30
0.0
11
0.100000
21
1.883839
31
0.0
0
LINE
8
TOP
10
0.100000
20
1.883839
30
0.0
11
0.200000
21
1.882230
31
0.0
0
LINE
8
TOP
10
0.200000
20
1.882230
30
0.0
11
0.300000
21
1.880621
31
0.0
0
LINE
8
TOP
10
0.300000
20
1.880621
30
0.0
11
0.400000
21
1.879012
31
0.0
0
LINE
8
TOP
10
0.400000
20
1.879012
30
0.0
11
0.500000
21
1.877403
31
0.0
0
LINE
8
TOP
10
0.500000
20
1.877403
30
0.0
11
0.600000
21
1.875793
31
0.0
0
LINE
8
TOP
10
0.600000
20
1.875793
30
0.0
11
0.700000
21
1.874184
31
0.0
0
LINE
8
TOP
10
0.700000
20
1.874184
30
0.0
11
0.800000
21
1.872575
31
0.0
0
LINE
8
TOP
10
0.800000
20
1.872575
30
0.0
11
0.900000
21
1.870966
31
0.0
0
LINE
8
TOP
10
0.900000
20
1.870966
30
0.0
11
1.000000
21
1.869357
31
0.0
0
LINE
8
TOP
10
1.000000
20
1.869357
30
0.0
11
1.100000
21
1.867747
31
0.0
0
LINE
8
TOP
10
1.100000
20
1.867747
30
0.0
11
1.200000
21
1.866138
31
0.0
0
LINE
8
TOP
10
1.200000
20
1.866138
30
0.0
11
1.300000
21
1.864529
31
0.0
0
LINE
8
TOP
10
1.300000
20
1.864529
30
0.0
11
1.400000
21
1.862920
31
0.0
0
LINE
8
TOP
10
1.400000
20
1.862920
30
0.0
11
1.500000
21
1.861311
31
0.0
0
LINE
8
TOP
10
1.500000
20
1.861311
30
0.0
11
1.600000
21
1.859701
31
0.0
0
LINE
8
TOP
10
1.600000
20
1.859701
30
0.0
11
1.700000
21
1.858092
31
0.0
0
LINE
8
TOP
10
1.700000
20
1.858092
30
0.0
11
1.800000
21
1.856483
31
0.0
0
LINE
8
TOP
10
1.800000
20
1.856483
30
0.0
11
1.900000
21
1.854874
31
0.0
0
LINE
8
TOP
10
1.900000
20
1.854874
30
0.0
11
2.000000
21
1.853265
31
0.0
0
LINE
8
TOP
10
2.000000
20
1.853265
30
0.0
11
2.100000
21
1.851655
31
0.0
0
LINE
8
TOP
10
2.100000
20
1.851655
30
0.0
11
2.200000
21
1.850046
31
0.0
0
LINE
8
TOP
10
2.200000
20
1.850046
30
0.0
11
2.300000
21
1.848437
31
0.0
0
LINE
8
TOP
10
2.300000
20
1.848437
30
0.0
11
2.400000
21
1.846828
31
0.0
0
LINE
8
TOP
10
2.400000
20
1.846828
30
0.0
11
2.500000
21
1.845219
31
0.0
0
LINE
8
TOP
10
2.500000
20
1.845219
30
0.0
11
2.600000
21
1.843609
31
0.0
0
LINE
8
TOP
10
2.600000
20
1.843609
30
0.0
11
2.700000
21
1.842000
31
0.0
0
LINE
8
TOP
10
2.700000
20
1.842000
30
0.0
11
2.800000
21
1.840391
31
0.0
0
LINE
8
TOP
10
2.800000
20
1.840391
30
0.0
11
2.900000
21
1.838782
31
0.0
0
LINE
8
TOP
10
2.900000
20
1.838782
30
0.0
11
3.000000
21
1.837172
31
0.0
0
LINE
8
TOP
10
3.000000
20
1.837172
30
0.0
11
3.100000
21
1.835563
31
0.0
0
LINE
8
TOP
10
3.100000
20
1.835563
30
0.0
11
3.200000
21
1.833954
31
0.0
0
LINE
8
TOP
10
3.200000
20
1.833954
30
0.0
11
3.300000
21
1.832345
31
0.0
0
LINE
8
TOP
10
3.300000
20
1.832345
30
0.0
11
3.400000
21
1.830736
31
0.0
0
LINE
8
TOP
10
3.400000
20
1.830736
30
0.0
11
3.500000
21
1.829126
31
0.0
0
LINE
8
TOP
10
3.500000
20
1.829126
30
0.0
11
3.600000
21
1.827517
31
0.0
0
LINE
8
TOP
10
3.600000
20
1.827517
30
0.0
11
3.700000
21
1.825908
31
0.0
0
LINE
8
TOP
10
3.700000
20
1.825908
30
0.0
11
3.800000
21
1.824299
31
0.0
0
LINE
8
TOP
10
3.800000
20
1.824299
30
0.0
11
3.900000
21
1.822690
31
0.0
0
LINE
8
TOP
10
3.900000
20
1.822690
30
0.0
11
4.000000
21
1.821080
31
0.0
0
LINE
8
TOP
10
4.000000
20
1.821080
30
0.0
11
4.100000
21
1.822690
31
0.0
0
LINE
8
TOP
10
4.100000
20
1.822690
30
0.0
11
4.200000
21
1.824299
31
0.0
0
LINE
8
TOP
10
4.200000
20
1.824299
30
0.0
11
4.300000
21
1.825908
31
0.0
0
LINE
8
TOP
10
4.300000
20
1.825908
30
0.0
11
4.400000
21
1.827517
31
0.0
0
LINE
8
TOP
10
4.400000
20
1.827517
30
0.0
11
4.500000
21
1.829126
31
0.0
0
LINE
8
TOP
10
4.500000
20
1.829126
30
0.0
11
4.600000
21
1.830736
31
0.0
0
LINE
8
TOP
10
4.600000
20
1.830736
30
0.0
11
4.700000
21
1.832345
31
0.0
0
LINE
8
TOP
10
4.700000
20
1.832345
30
0.0
11
4.800000
21
1.833954
31
0.0
0
LINE
8
TOP
10
4.800000
20
1.833954
30
0.0
11
4.900000
21
1.835563
31
0.0
0
LINE
8
TOP
10
4.900000
20
1.835563
30
0.0
11
5.000000
21
1.837172
31
0.0
0
LINE
8
TOP
10
5.000000
20
1.837172
30
0.0
11
5.100000
21
1.838782
31
0.0
0
LINE
8
TOP
10
5.100000
20
1.838782
30
0.0
11
5.200000
21
1.840391
31
0.0
0
LINE
8
TOP
10
5.200000
20
1.840391
30
0.0
11
5.300000
21
1.842000
31
0.0
0
LINE
8
TOP
10
5.300000
20
1.842000
30
0.0
11
5.400000
21
1.843609
31
0.0
0
LINE
8
TOP
10
5.400000
20
1.843609
30
0.0
11
5.500000
21
1.845219
31
0.0
0
LINE
8
TOP
10
5.500000
20
1.845219
30
0.0
11
5.600000
21
1.846828
31
0.0
0
LINE
8
TOP
10
5.600000
20
1.846828
30
0.0
11
5.700000
21
1.848437
31
0.0
0
LINE
8
TOP
10
5.700000
20
1.848437
30
0.0
11
5.800000
21
1.850046
31
0.0
0
LINE
8
TOP
10
5.800000
20
1.850046
30
0.0
11
5.900000
21
1.851655
31
0.0
0
LINE
8
TOP
10
5.900000
20
1.851655
30
0.0
11
6.000000
21
1.853265
31
0.0
0
LINE
8
TOP
10
6.000000
20
1.853265
30
0.0
11
6.100000
21
1.854874
31
0.0
0
LINE
8
TOP
10
6.100000
20
1.854874
30
0.0
11
6.200000
21
1.856483
31
0.0
0
LINE
8
TOP
10
6.200000
20
1.856483
30
0.0
11
6.300000
21
1.858092
31
0.0
0
LINE
8
TOP
10
6.300000
20
1.858092
30
0.0
11
6.400000
21
1.859701
31
0.0
0
LINE
8
TOP
10
6.400000
20
1.859701
30
0.0
11
6.500000
21
1.861311
31
0.0
0
LINE
8
TOP
10
6.500000
20
1.861311
30
0.0
11
6.600000
21
1.862920
31
0.0
0
LINE
8
TOP
10
6.600000
20
1.862920
30
0.0
11
6.700000
21
1.864529
31
0.0
0
LINE
8
TOP
10
6.700000
20
1.864529
30
0.0
11
6.800000
21
1.866138
31
0.0
0
LINE
8
TOP
10
6.800000
20
1.866138
30
0.0
11
6.900000
21
1.867747
31
0.0
0
LINE
8
TOP
10
6.900000
20
1.867747
30
0.0
11
7.000000
21
1.869357
31
0.0
0
LINE
8
TOP
10
7.000000
20
1.869357
30
0.0
11
7.100000
21
1.870966
31
0.0
0
LINE
8
TOP
10
7.100000
20
1.870966
30
0.0
11
7.200000
21
1.872575
31
0.0
0
LINE
8
TOP
10
7.200000
20
1.872575
30
0.0
11
7.300000
21
1.874184
31
0.0
0
LINE
8
TOP
10
7.300000
20
1.874184
30
0.0
11
7.400000
21
1.875793
31
0.0
0
LINE
8
TOP
10
7.400000
20
1.875793
30
0.0
11
7.500000
21
1.877403
31
0.0
0
LINE
8
TOP
10
7.500000
20
1.877403
30
0.0
11
7.600000
21
1.879012
31
0.0
0
LINE
8
TOP
10
7.600000
20
1.879012
30
0.0
11
7.700000
21
1.880621
31
0.0
0
LINE
8
TOP
10
7.700000
20
1.880621
30
0.0
11
7.800000
21
1.882230
31
0.0
0
LINE
8
TOP
10
7.800000
20
1.882230
30
0.0
11
7.900000
21
1.883839
31
0.0
0
LINE
8
TOP
10
7.900000
20
1.883839
30
0.0
11
8.000000
21
1.885449
31
0.0
0
LINE
8
TOP
10
0.000000
20
1.344107
30
0.0
11
0.100000
21
1.345716
31
0.0
0
LINE
8
TOP
10
0.100000
20
1.345716
30
0.0
11
0.200000
21
1.347326
31
0.0
0
LINE
8
TOP
10
0.200000
20
1.347326
30
0.0
11
0.300000
21
1.348935
31
0.0
0
LINE
8
TOP
10
0.300000
20
1.348935
30
0.0
11
0.400000
21
1.350544
31
0.0
0
LINE
8
TOP
10
0.400000
20
1.350544
30
0.0
11
0.500000
21
1.352153
31
0.0
0
LINE
8
TOP
10
0.500000
20
1.352153
30
0.0
11
0.600000
21
1.353763
31
0.0
0
LINE
8
TOP
10
0.600000
20
1.353763
30
0.0
11
0.700000
21
1.355372
31
0.0
0
LINE
8
TOP
10
0.700000
20
1.355372
30
0.0
11
0.800000
21
1.356981
31
0.0
0
LINE
8
TOP
10
0.800000
20
1.356981
30
0.0
11
0.900000
21
1.358590
31
0.0
0
LINE
8
TOP
10
0.900000
20
1.358590
30
0.0
11
1.000000
21
1.360199
31
0.0
0
LINE
8
TOP
10
1.000000
20
1.360199
30
0.0
11
1.100000
21
1.361809
31
0.0
0
LINE
8
TOP
10
1.100000
20
1.361809
30
0.0
11
1.200000
21
1.363418
31
0.0
0
LINE
8
TOP
10
1.200000
20
1.363418
30
0.0
11
1.300000
21
1.365027
31
0.0
0
LINE
8
TOP
10
1.300000
20
1.365027
30
0.0
11
1.400000
21
1.366636
31
0.0
0
LINE
8
TOP
10
1.400000
20
1.366636
30
0.0
11
1.500000
21
1.368245
31
0.0
0
LINE
8
TOP
10
1.500000
20
1.368245
30
0.0
11
1.600000
21
1.369855
31
0.0
0
LINE
8
TOP
10
1.600000
20
1.369855
30
0.0
11
1.700000
21
1.371464
31
0.0
0
LINE
8
TOP
10
1.700000
20
1.371464
30
0.0
11
1.800000
21
1.373073
31
0.0
0
LINE
8
TOP
10
1.800000
20
1.373073
30
0.0
11
1.900000
21
1.374682
31
0.0
0
LINE
8
TOP
10
1.900000
20
1.374682
30
0.0
11
2.000000
21
1.376291
31
0.0
0
LINE
8
TOP
10
2.000000
20
1.376291
30
0.0
11
2.100000
21
1.377901
31
0.0
0
LINE
8
TOP
10
2.100000
20
1.377901
30
0.0
11
2.200000
21
1.379510
31
0.0
0
LINE
8
TOP
10
2.200000
20
1.379510
30
0.0
11
2.300000
21
1.381119
31
0.0
0
LINE
8
TOP
10
2.300000
20
1.381119
30
0.0
11
2.400000
21
1.382728
31
0.0
0
LINE
8
TOP
10
2.400000
20
1.382728
30
0.0
11
2.500000
21
1.384337
31
0.0
0
LINE
8
TOP
10
2.500000
20
1.384337
30
0.0
11
2.600000
21
1.385947
31
0.0
0
LINE
8
TOP
10
2.600000
20
1.385947
30
0.0
11
2.700000
21
1.387556
31
0.0
0
LINE
8
TOP
10
2.700000
20
1.387556
30
0.0
11
2.800000
21
1.389165
31
0.0
0
LINE
8
TOP
10
2.800000
20
1.389165
30
0.0
11
2.900000
21
1.390774
31
0.0
0
LINE
8
TOP
10
2.900000
20
1.390774
30
0.0
11
3.000000
21
1.392383
31
0.0
0
LINE
8
TOP
10
3.000000
20
1.392383
30
0.0
11
3.100000
21
1.393993
31
0.0
0
LINE
8
TOP
10
3.100000
20
1.393993
30
0.0
11
3.200000
21
1.395602
31
0.0
0
LINE
8
TOP
10
3.200000
20
1.395602
30
0.0
11
3.300000
21
1.397211
31
0.0
0
LINE
8
TOP
10
3.300000
20
1.397211
30
0.0
11
3.400000
21
1.398820
31
0.0
0
LINE
8
TOP
10
3.400000
20
1.398820
30
0.0
11
3.500000
21
1.400429
31
0.0
0
LINE
8
TOP
10
3.500000
20
1.400429
30
0.0
11
3.600000
21
1.402039
31
0.0
0
LINE
8
TOP
10
3.600000
20
1.402039
30
0.0
11
3.700000
21
1.403648
31
0.0
0
LINE
8
TOP
10
3.700000
20
1.403648
30
0.0
11
3.800000
21
1.405257
31
0.0
0
LINE
8
TOP
10
3.800000
20
1.405257
30
0.0
11
3.900000
21
1.406866
31
0.0
0
LINE
8
TOP
10
3.900000
20
1.406866
30
0.0
11
4.000000
21
1.408475
31
0.0
0
LINE
8
TOP
10
4.000000
20
1.408475
30
0.0
11
4.100000
21
1.406866
31
0.0
0
LINE
8
TOP
10
4.100000
20
1.406866
30
0.0
11
4.200000
21
1.405257
31
0.0
0
LINE
8
TOP
10
4.200000
20
1.405257
30
0.0
11
4.300000
21
1.403648
31
0.0
0
LINE
8
TOP
10
4.300000
20
1.403648
30
0.0
11
4.400000
21
1.402039
31
0.0
0
LINE
8
TOP
10
4.400000
20
1.402039
30
0.0
11
4.500000
21
1.400429
31
0.0
0
LINE
8
TOP
10
4.500000
20
1.400429
30
0.0
11
4.600000
21
1.398820
31
0.0
0
LINE
8
TOP
10
4.600000
20
1.398820
30
0.0
11
4.700000
21
1.397211
31
0.0
0
LINE
8
TOP
10
4.700000
20
1.397211
30
0.0
11
4.800000
21
1.395602
31
0.0
0
LINE
8
TOP
10
4.800000
20
1.395602
30
0.0
11
4.900000
21
1.393993
31
0.0
0
LINE
8
TOP
10
4.900000
20
1.393993
30
0.0
11
5.000000
21
1.392383
31
0.0
0
LINE
8
TOP
10
5.000000
20
1.392383
30
0.0
11
5.100000
21
1.390774
31
0.0
0
LINE
8
TOP
10
5.100000
20
1.390774
30
0.0
11
5.200000
21
1.389165
31
0.0
0
LINE
8
TOP
10
5.200000
20
1.389165
30
0.0
11
5.300000
21
1.387556
31
0.0
0
LINE
8
TOP
10
5.300000
20
1.387556
30
0.0
11
5.400000
21
1.385947
31
0.0
0
LINE
8
TOP
10
5.400000
20
1.385947
30
0.0
11
5.500000
21
1.384337
31
0.0
0
LINE
8
TOP
10
5.500000
20
1.384337
30
0.0
11
5.600000
21
1.382728
31
0.0
0
LINE
8
TOP
10
5.600000
20
1.382728
30
0.0
11
5.700000
21
1.381119
31
0.0
0
LINE
8
TOP
10
5.700000
20
1.381119
30
0.0
11
5.800000
21
1.379510
31
0.0
0
LINE
8
TOP
10
5.800000
20
1.379510
30
0.0
11
5.900000
21
1.377901
31
0.0
0
LINE
8
TOP
10
5.900000
20
1.377901
30
0.0
11
6.000000
21
1.376291
31
0.0
0
LINE
8
TOP
10
6.000000
20
1.376291
30
0.0
11
6.100000
21
1.374682
31
0.0
0
LINE
8
TOP
10
6.100000
20
1.374682
30
0.0
11
6.200000
21
1.373073
31
0.0
0
LINE
8
TOP
10
6.200000
20
1.373073
30
0.0
11
6.300000
21
1.371464
31
0.0
0
LINE
8
TOP
10
6.300000
20
1.371464
30
0.0
11
6.400000
21
1.369855
31
0.0
0
LINE
8
TOP
10
6.400000
20
1.369855
30
0.0
11
6.500000
21
1.368245
31
0.0
0
LINE
8
TOP
10
6.500000
20
1.368245
30
0.0
11
6.600000
21
1.366636
31
0.0
0
LINE
8
TOP
10
6.600000
20
1.366636
30
0.0
11
6.700000
21
1.365027
31
0.0
0
LINE
8
TOP
10
6.700000
20
1.365027
30
0.0
11
6.800000
21
1.363418
31
0.0
0
LINE
8
TOP
10
6.800000
20
1.363418
30
0.0
11
6.900000
21
1.361809
31
0.0
0
LINE
8
TOP
10
6.900000
20
1.361809
30
0.0
11
7.000000
21
1.360199
31
0.0
0
LINE
8
TOP
10
7.000000
20
1.360199
30
0.0
11
7.100000
21
1.358590
31
0.0
0
LINE
8
TOP
10
7.100000
20
1.358590
30
0.0
11
7.200000
21
1.356981
31
0.0
0
LINE
8
TOP
10
7.200000
20
1.356981
30
0.0
11
7.300000
21
1.355372
31
0.0
0
LINE
8
TOP
10
7.300000
20
1.355372
30
0.0
11
7.400000
21
1.353763
31
0.0
0
LINE
8
TOP
10
7.400000
20
1.353763
30
0.0
11
7.500000
21
1.352153
31
0.0
0
LINE
8
TOP
10
7.500000
20
1.352153
30
0.0
11
7.600000
21
1.350544
31
0.0
0
LINE
8
TOP
10
7.600000
20
1.350544
30
0.0
11
7.700000
21
1.348935
31
0.0
0
LINE
8
TOP
10
7.700000
20
1.348935
30
0.0
11
7.800000
21
1.347326
31
0.0
0
LINE
8
TOP
10
7.800000
20
1.347326
30
0.0
11
7.900000
21
1.345716
31
0.0
0
LINE
8
TOP
10
7.900000
20
1.345716
30
0.0
11
8.000000
21
1.344107
31
0.0
0
LINE
8
TOP
10
0.000000
20
1.885449
30
0.0
11
0.000000
21
1.344107
31
0.0
0
LINE
8
TOP
10
8.000000
20
1.885449
30
0.0
11
8.000000
21
1.344107
31
0.0
0
LINE
8
SECTION
10
9.293698
20
-0.180753
30
0.0
11
9.706302
21
-0.180753
31
0.0
0
LINE
8
SECTION
10
9.706302
20
-0.180753
30
0.0
11
9.706302
21
0.180753
31
0.0
0
LINE
8
SECTION
10
9.706302
20
0.180753
30
0.0
11
9.293698
21
0.180753
31
0.0
0
LINE
8
SECTION
10
9.293698
20
0.180753
30
0.0
11
9.293698
21
-0.180753
31
0.0
0
LINE
8
SECTION
10
9.353698
20
-0.120753
30
0.0
11
9.646302
21
-0.120753
31
0.0
0
LINE
8
SECTION
10
9.646302
20
-0.120753
30
0.0
11
9.646302
21
0.120753
31
0.0
0
LINE
8
SECTION
10
9.646302
20
0.120753
30
0.0
11
9.353698
21
0.120753
31
0.0
0
LINE
8
SECTION
10
9.353698
20
0.120753
30
0.0
11
9.353698
21
-0.120753
31
0.0
0
LINE
8
SECTION
10
9.353698
20
0.000000
30
0.0
11
9.413698
21
0.000000
31
0.0
0
LINE
8
SECTION
10
9.413698
20
0.000000
30
0.0
11
9.413698
21
0.120753
31
0.0
0
LINE
8
SECTION
10
9.413698
20
0.120753
30
0.0
11
9.353698
21
0.120753
31
0.0
0
LINE
8
SECTION
10
9.353698
20
0.120753
30
0.0
11
9.353698
21
0.000000
31
0.0
0
LINE
8
SECTION
10
9.353698
20
-0.120753
30
0.0
11
9.413698
21
-0.120753
31
0.0
0
LINE
8
SECTION
10
9.413698
20
-0.120753
30
0.0
11
9.413698
21
0.000000
31
0.0
0
LINE
8
SECTION
10
9.413698
20
0.000000
30
0.0
11
9.353698
21
0.000000
31
0.0
0
LINE
8
SECTION
10
9.353698
20
0.000000
30
0.0
11
9.353698
21
-0.120753
31
0.0
0
LINE
8
SECTION
10
9.586302
20
0.000000
30
0.0
11
9.646302
21
0.000000
31
0.0
0
LINE
8
SECTION
10
9.646302
20
0.000000
30
0.0
11
9.646302
21
0.120753
31
0.0
0
LINE
8
SECTION
10
9.646302
20
0.120753
30
0.0
11
9.586302
21
0.120753
31
0.0
0
LINE
8
SECTION
10
9.586302
20
0.120753
30
0.0
11
9.586302
21
0.000000
31
0.0
0
LINE
8
SECTION
10
9.586302
20
-0.120753
30
0.0
11
9.646302
21
-0.120753
31
0.0
0
LINE
8
SECTION
10
9.646302
20
-0.120753
30
0.0
11
9.646302
21
0.000000
31
0.0
0
LINE
8
SECTION
10
9.646302
20
0.000000
30
0.0
11
9.586302
21
0.000000
31
0.0
0
LINE
8
SECTION
10
9.586302
20
0.000000
30
0.0
11
9.586302
21
-0.120753
31
0.0
0
ENDSEC
0
EOF
