0
SECTION
2
HEADER
9
$INSUNITS
70
1
0
ENDSEC
0
SECTION
2
ENTITIES
0
LINE
8
FRONT
10
0.000000
20
0.175000
30
0.0
11
0.100000
21
0.175000
31
0.0
0
LINE
8
FRONT
10
0.100000
20
0.175000
30
0.0
11
0.200000
21
0.175000
31
0.0
0
LINE
8
FRONT
10
0.200000
20
0.175000
30
0.0
11
0.300000
21
0.175000
31
0.0
0
LINE
8
FRONT
10
0.300000
20
0.175000
30
0.0
11
0.400000
21
0.175000
31
0.0
0
LINE
8
FRONT
10
0.400000
20
0.175000
30
0.0
11
0.500000
21
0.175000
31
0.0
0
LINE
8
FRONT
10
0.500000
20
0.175000
30
0.0
11
0.600000
21
0.175000
31
0.0
0
LINE
8
FRONT
10
0.600000
20
0.175000
30
0.0
11
0.700000
21
0.175000
31
0.0
0
LINE
8
FRONT
10
0.700000
20
0.175000
30
0.0
11
0.800000
21
0.175000
31
0.0
0
LINE
8
FRONT
10
0.800000
20
0.175000
30
0.0
11
0.900000
21
0.175000
31
0.0
0
LINE
8
FRONT
10
0.900000
20
0.175000
30
0.0
11
1.000000
21
0.175000
31
0.0
0
LINE
8
FRONT
10
1.000000
20
0.175000
30
0.0
11
1.100000
21
0.175000
31
0.0
0
LINE
8
FRONT
10
1.100000
20
0.175000
30
0.0
11
1.200000
21
0.175000
31
0.0
0
LINE
8
FRONT
10
1.200000
20
0.175000
30
0.0
11
1.300000
21
0.175000
31
0.0
0
LINE
8
FRONT
10
1.300000
20
0.175000
30
0.0
11
1.400000
21
0.175000
31
0.0
0
LINE
8
FRONT
10
1.400000
20
0.175000
30
0.0
11
1.500000
21
0.175000
31
0.0
0
LINE
8
FRONT
10
1.500000
20
0.175000
30
0.0
11
1.600000
21
0.175000
31
0.0
0
LINE
8
FRONT
10
1.600000
20
0.175000
30
0.0
11
1.700000
21
0.175000
31
0.0
0
LINE
8
FRONT
10
1.700000
20
0.175000
30
0.0
11
1.800000
21
0.175000
31
0.0
0
LINE
8
FRONT
10
1.800000
20
0.175000
30
0.0
11
1.900000
21
0.175000
31
0.0
0
LINE
8
FRONT
10
1.900000
20
0.175000
30
0.0
11
2.000000
21
0.175000
31
0.0
0
LINE
8
FRONT
10
2.000000
20
0.175000
30
0.0
11
2.100000
21
0.175000
31
0.0
0
LINE
8
FRONT
10
2.100000
20
0.175000
30
0.0
11
2.200000
21
0.175000
31
0.0
0
LINE
8
FRONT
10
2.200000
20
0.175000
30
0.0
11
2.300000
21
0.175000
31
0.0
0
LINE
8
FRONT
10
2.300000
20
0.175000
30
0.0
11
2.400000
21
0.175000
31
0.0
0
LINE
8
FRONT
10
2.400000
20
0.175000
30
0.0
11
2.500000
21
0.175000
31
0.0
0
LINE
8
FRONT
10
2.500000
20
0.175000
30
0.0
11
2.600000
21
0.175000
31
0.0
0
LINE
8
FRONT
10
2.600000
20
0.175000
30
0.0
11
2.700000
21
0.175000
31
0.0
0
LINE
8
FRONT
10
2.700000
20
0.175000
30
0.0
11
2.800000
21
0.175000
31
0.0
0
LINE
8
FRONT
10
2.800000
20
0.175000
30
0.0
11
2.900000
21
0.175000
31
0.0
0
LINE
8
FRONT
10
2.900000
20
0.175000
30
0.0
11
3.000000
21
0.175000
31
0.0
0
LINE
8
FRONT
10
3.000000
20
0.175000
30
0.0
11
3.100000
21
0.175000
31
0.0
0
LINE
8
FRONT
10
3.100000
20
0.175000
30
0.0
11
3.200000
21
0.175000
31
0.0
0
LINE
8
FRONT
10
3.200000
20
0.175000
30
0.0
11
3.300000
21
0.175000
31
0.0
0
LINE
8
FRONT
10
3.300000
20
0.175000
30
0.0
11
3.400000
21
0.175000
31
0.0
0
LINE
8
FRONT
10
3.400000
20
0.175000
30
0.0
11
3.500000
21
0.175000
31
0.0
0
LINE
8
FRONT
10
3.500000
20
0.175000
30
0.0
11
3.600000
21
0.175000
31
0.0
0
LINE
8
FRONT
10
3.600000
20
0.175000
30
0.0
11
3.700000
21
0.175000
31
0.0
0
LINE
8
FRONT
10
3.700000
20
0.175000
30
0.0
11
3.800000
21
0.175000
31
0.0
0
LINE
8
FRONT
10
3.800000
20
0.175000
30
0.0
11
3.900000
21
0.175000
31
0.0
0
LINE
8
FRONT
10
3.900000
20
0.175000
30
0.0
11
4.000000
21
0.175000
31
0.0
0
LINE
8
FRONT
10
4.000000
20
0.175000
30
0.0
11
4.100000
21
0.175000
31
0.0
0
LINE
8
FRONT
10
4.100000
20
0.175000
30
0.0
11
4.200000
21
0.175000
31
0.0
0
LINE
8
FRONT
10
4.200000
20
0.175000
30
0.0
11
4.300000
21
0.175000
31
0.0
0
LINE
8
FRONT
10
4.300000
20
0.175000
30
0.0
11
4.400000
21
0.175000
31
0.0
0
LINE
8
FRONT
10
4.400000
20
0.175000
30
0.0
11
4.500000
21
0.175000
31
0.0
0
LINE
8
FRONT
10
4.500000
20
0.175000
30
0.0
11
4.600000
21
0.175000
31
0.0
0
LINE
8
FRONT
10
4.600000
20
0.175000
30
0.0
11
4.700000
21
0.175000
31
0.0
0
LINE
8
FRONT
10
4.700000
20
0.175000
30
0.0
11
4.800000
21
0.175000
31
0.0
0
LINE
8
FRONT
10
4.800000
20
0.175000
30
0.0
11
4.900000
21
0.175000
31
0.0
0
LINE
8
FRONT
10
4.900000
20
0.175000
30
0.0
11
5.000000
21
0.175000
31
0.0
0
LINE
8
FRONT
10
5.000000
20
0.175000
30
0.0
11
5.100000
21
0.175000
31
0.0
0
LINE
8
FRONT
10
5.100000
20
0.175000
30
0.0
11
5.200000
21
0.175000
31
0.0
0
LINE
8
FRONT
10
5.200000
20
0.175000
30
0.0
11
5.300000
21
0.175000
31
0.0
0
LINE
8
FRONT
10
5.300000
20
0.175000
30
0.0
11
5.400000
21
0.175000
31
0.0
0
LINE
8
FRONT
10
5.400000
20
0.175000
30
0.0
11
5.500000
21
0.175000
31
0.0
0
LINE
8
FRONT
10
5.500000
20
0.175000
30
0.0
11
5.600000
21
0.175000
31
0.0
0
LINE
8
FRONT
10
5.600000
20
0.175000
30
0.0
11
5.700000
21
0.175000
31
0.0
0
LINE
8
FRONT
10
5.700000
20
0.175000
30
0.0
11
5.800000
21
0.175000
31
0.0
0
LINE
8
FRONT
10
5.800000
20
0.175000
30
0.0
11
5.900000
21
0.175000
31
0.0
0
LINE
8
FRONT
10
5.900000
20
0.175000
30
0.0
11
6.000000
21
0.175000
31
0.0
0
LINE
8
FRONT
10
6.000000
20
0.175000
30
0.0
11
6.100000
21
0.175000
31
0.0
0
LINE
8
FRONT
10
6.100000
20
0.175000
30
0.0
11
6.200000
21
0.175000
31
0.0
0
LINE
8
FRONT
10
6.200000
20
0.175000
30
0.0
11
6.300000
21
0.175000
31
0.0
0
LINE
8
FRONT
10
6.300000
20
0.175000
30
0.0
11
6.400000
21
0.175000
31
0.0
0
LINE
8
FRONT
10
6.400000
20
0.175000
30
0.0
11
6.500000
21
0.175000
31
0.0
0
LINE
8
FRONT
10
6.500000
20
0.175000
30
0.0
11
6.600000
21
0.175000
31
0.0
0
LINE
8
FRONT
10
6.600000
20
0.175000
30
0.0
11
6.700000
21
0.175000
31
0.0
0
LINE
8
FRONT
10
6.700000
20
0.175000
30
0.0
11
6.800000
21
0.175000
31
0.0
0
LINE
8
FRONT
10
6.800000
20
0.175000
30
0.0
11
6.900000
21
0.175000
31
0.0
0
LINE
8
FRONT
10
6.900000
20
0.175000
30
0.0
11
7.000000
21
0.175000
31
0.0
0
LINE
8
FRONT
10
7.000000
20
0.175000
30
0.0
11
7.100000
21
0.175000
31
0.0
0
LINE
8
FRONT
10
7.100000
20
0.175000
30
0.0
11
7.200000
21
0.175000
31
0.0
0
LINE
8
FRONT
10
7.200000
20
0.175000
30
0.0
11
7.300000
21
0.175000
31
0.0
0
LINE
8
FRONT
10
7.300000
20
0.175000
30
0.0
11
7.400000
21
0.175000
31
0.0
0
LINE
8
FRONT
10
7.400000
20
0.175000
30
0.0
11
7.500000
21
0.175000
31
0.0
0
LINE
8
FRONT
10
7.500000
20
0.175000
30
0.0
11
7.600000
21
0.175000
31
0.0
0
LINE
8
FRONT
10
7.600000
20
0.175000
30
0.0
11
7.700000
21
0.175000
31
0.0
0
LINE
8
FRONT
10
7.700000
20
0.175000
30
0.0
11
7.800000
21
0.175000
31
0.0
0
LINE
8
FRONT
10
7.800000
20
0.175000
30
0.0
11
7.900000
21
0.175000
31
0.0
0
LINE
8
FRONT
10
7.900000
20
0.175000
30
0.0
11
8.000000
21
0.175000
31
0.0
0
LINE
8
FRONT
10
0.000000
20
-0.175000
30
0.0
11
0.100000
21
-0.175000
31
0.0
0
LINE
8
FRONT
10
0.100000
20
-0.175000
30
0.0
11
0.200000
21
-0.175000
31
0.0
0
LINE
8
FRONT
10
0.200000
20
-0.175000
30
0.0
11
0.300000
21
-0.175000
31
0.0
0
LINE
8
FRONT
10
0.300000
20
-0.175000
30
0.0
11
0.400000
21
-0.175000
31
0.0
0
LINE
8
FRONT
10
0.400000
20
-0.175000
30
0.0
11
0.500000
21
-0.175000
31
0.0
0
LINE
8
FRONT
10
0.500000
20
-0.175000
30
0.0
11
0.600000
21
-0.175000
31
0.0
0
LINE
8
FRONT
10
0.600000
20
-0.175000
30
0.0
11
0.700000
21
-0.175000
31
0.0
0
LINE
8
FRONT
10
0.700000
20
-0.175000
30
0.0
11
0.800000
21
-0.175000
31
0.0
0
LINE
8
FRONT
10
0.800000
20
-0.175000
30
0.0
11
0.900000
21
-0.175000
31
0.0
0
LINE
8
FRONT
10
0.900000
20
-0.175000
30
0.0
11
1.000000
21
-0.175000
31
0.0
0
LINE
8
FRONT
10
1.000000
20
-0.175000
30
0.0
11
1.100000
21
-0.175000
31
0.0
0
LINE
8
FRONT
10
1.100000
20
-0.175000
30
0.0
11
1.200000
21
-0.175000
31
0.0
0
LINE
8
FRONT
10
1.200000
20
-0.175000
30
0.0
11
1.300000
21
-0.175000
31
0.0
0
LINE
8
FRONT
10
1.300000
20
-0.175000
30
0.0
11
1.400000
21
-0.175000
31
0.0
0
LINE
8
FRONT
10
1.400000
20
-0.175000
30
0.0
11
1.500000
21
-0.175000
31
0.0
0
LINE
8
FRONT
10
1.500000
20
-0.175000
30
0.0
11
1.600000
21
-0.175000
31
0.0
0
LINE
8
FRONT
10
1.600000
20
-0.175000
30
0.0
11
1.700000
21
-0.175000
31
0.0
0
LINE
8
FRONT
10
1.700000
20
-0.175000
30
0.0
11
1.800000
21
-0.175000
31
0.0
0
LINE
8
FRONT
10
1.800000
20
-0.175000
30
0.0
11
1.900000
21
-0.175000
31
0.0
0
LINE
8
FRONT
10
1.900000
20
-0.175000
30
0.0
11
2.000000
21
-0.175000
31
0.0
0
LINE
8
FRONT
10
2.000000
20
-0.175000
30
0.0
11
2.100000
21
-0.175000
31
0.0
0
LINE
8
FRONT
10
2.100000
20
-0.175000
30
0.0
11
2.200000
21
-0.175000
31
0.0
0
LINE
8
FRONT
10
2.200000
20
-0.175000
30
0.0
11
2.300000
21
-0.175000
31
0.0
0
LINE
8
FRONT
10
2.300000
20
-0.175000
30
0.0
11
2.400000
21
-0.175000
31
0.0
0
LINE
8
FRONT
10
2.400000
20
-0.175000
30
0.0
11
2.500000
21
-0.175000
31
0.0
0
LINE
8
FRONT
10
2.500000
20
-0.175000
30
0.0
11
2.600000
21
-0.175000
31
0.0
0
LINE
8
FRONT
10
2.600000
20
-0.175000
30
0.0
11
2.700000
21
-0.175000
31
0.0
0
LINE
8
FRONT
10
2.700000
20
-0.175000
30
0.0
11
2.800000
21
-0.175000
31
0.0
0
LINE
8
FRONT
10
2.800000
20
-0.175000
30
0.0
11
2.900000
21
-0.175000
31
0.0
0
LINE
8
FRONT
10
2.900000
20
-0.175000
30
0.0
11
3.000000
21
-0.175000
31
0.0
0
LINE
8
FRONT
10
3.000000
20
-0.175000
30
0.0
11
3.100000
21
-0.175000
31
0.0
0
LINE
8
FRONT
10
3.100000
20
-0.175000
30
0.0
11
3.200000
21
-0.175000
31
0.0
0
LINE
8
FRONT
10
3.200000
20
-0.175000
30
0.0
11
3.300000
21
-0.175000
31
0.0
0
LINE
8
FRONT
10
3.300000
20
-0.175000
30
0.0
11
3.400000
21
-0.175000
31
0.0
0
LINE
8
FRONT
10
3.400000
20
-0.175000
30
0.0
11
3.500000
21
-0.175000
31
0.0
0
LINE
8
FRONT
10
3.500000
20
-0.175000
30
0.0
11
3.600000
21
-0.175000
31
0.0
0
LINE
8
FRONT
10
3.600000
20
-0.175000
30
0.0
11
3.700000
21
-0.175000
31
0.0
0
LINE
8
FRONT
10
3.700000
20
-0.175000
30
0.0
11
3.800000
21
-0.175000
31
0.0
0
LINE
8
FRONT
10
3.800000
20
-0.175000
30
0.0
11
3.900000
21
-0.175000
31
0.0
0
LINE
8
FRONT
10
3.900000
20
-0.175000
30
0.0
11
4.000000
21
-0.175000
31
0.0
0
LINE
8
FRONT
10
4.000000
20
-0.175000
30
0.0
11
4.100000
21
-0.175000
31
0.0
0
LINE
8
FRONT
10
4.100000
20
-0.175000
30
0.0
11
4.200000
21
-0.175000
31
0.0
0
LINE
8
FRONT
10
4.200000
20
-0.175000
30
0.0
11
4.300000
21
-0.175000
31
0.0
0
LINE
8
FRONT
10
4.300000
20
-0.175000
30
0.0
11
4.400000
21
-0.175000
31
0.0
0
LINE
8
FRONT
10
4.400000
20
-0.175000
30
0.0
11
4.500000
21
-0.175000
31
0.0
0
LINE
8
FRONT
10
4.500000
20
-0.175000
30
0.0
11
4.600000
21
-0.175000
31
0.0
0
LINE
8
FRONT
10
4.600000
20
-0.175000
30
0.0
11
4.700000
21
-0.175000
31
0.0
0
LINE
8
FRONT
10
4.700000
20
-0.175000
30
0.0
11
4.800000
21
-0.175000
31
0.0
0
LINE
8
FRONT
10
4.800000
20
-0.175000
30
0.0
11
4.900000
21
-0.175000
31
0.0
0
LINE
8
FRONT
10
4.900000
20
-0.175000
30
0.0
11
5.000000
21
-0.175000
31
0.0
0
LINE
8
FRONT
10
5.000000
20
-0.175000
30
0.0
11
5.100000
21
-0.175000
31
0.0
0
LINE
8
FRONT
10
5.100000
20
-0.175000
30
0.0
11
5.200000
21
-0.175000
31
0.0
0
LINE
8
FRONT
10
5.200000
20
-0.175000
30
0.0
11
5.300000
21
-0.175000
31
0.0
0
LINE
8
FRONT
10
5.300000
20
-0.175000
30
0.0
11
5.400000
21
-0.175000
31
0.0
0
LINE
8
FRONT
10
5.400000
20
-0.175000
30
0.0
11
5.500000
21
-0.175000
31
0.0
0
LINE
8
FRONT
10
5.500000
20
-0.175000
30
0.0
11
5.600000
21
-0.175000
31
0.0
0
LINE
8
FRONT
10
5.600000
20
-0.175000
30
0.0
11
5.700000
21
-0.175000
31
0.0
0
LINE
8
FRONT
10
5.700000
20
-0.175000
30
0.0
11
5.800000
21
-0.175000
31
0.0
0
LINE
8
FRONT
10
5.800000
20
-0.175000
30
0.0
11
5.900000
21
-0.175000
31
0.0
0
LINE
8
FRONT
10
5.900000
20
-0.175000
30
0.0
11
6.000000
21
-0.175000
31
0.0
0
LINE
8
FRONT
10
6.000000
20
-0.175000
30
0.0
11
6.100000
21
-0.175000
31
0.0
0
LINE
8
FRONT
10
6.100000
20
-0.175000
30
0.0
11
6.200000
21
-0.175000
31
0.0
0
LINE
8
FRONT
10
6.200000
20
-0.175000
30
0.0
11
6.300000
21
-0.175000
31
0.0
0
LINE
8
FRONT
10
6.300000
20
-0.175000
30
0.0
11
6.400000
21
-0.175000
31
0.0
0
LINE
8
FRONT
10
6.400000
20
-0.175000
30
0.0
11
6.500000
21
-0.175000
31
0.0
0
LINE
8
FRONT
10
6.500000
20
-0.175000
30
0.0
11
6.600000
21
-0.175000
31
0.0
0
LINE
8
FRONT
10
6.600000
20
-0.175000
30
0.0
11
6.700000
21
-0.175000
31
0.0
0
LINE
8
FRONT
10
6.700000
20
-0.175000
30
0.0
11
6.800000
21
-0.175000
31
0.0
0
LINE
8
FRONT
10
6.800000
20
-0.175000
30
0.0
11
6.900000
21
-0.175000
31
0.0
0
LINE
8
FRONT
10
6.900000
20
-0.175000
30
0.0
11
7.000000
21
-0.175000
31
0.0
0
LINE
8
FRONT
10
7.000000
20
-0.175000
30
0.0
11
7.100000
21
-0.175000
31
0.0
0
LINE
8
FRONT
10
7.100000
20
-0.175000
30
0.0
11
7.200000
21
-0.175000
31
0.0
0
LINE
8
FRONT
10
7.200000
20
-0.175000
30
0.0
11
7.300000
21
-0.175000
31
0.0
0
LINE
8
FRONT
10
7.300000
20
-0.175000
30
0.0
11
7.400000
21
-0.175000
31
0.0
0
LINE
8
FRONT
10
7.400000
20
-0.175000
30
0.0
11
7.500000
21
-0.175000
31
0.0
0
LINE
8
FRONT
10
7.500000
20
-0.175000
30
0.0
11
7.600000
21
-0.175000
31
0.0
0
LINE
8
FRONT
10
7.600000
20
-0.175000
30
0.0
11
7.700000
21
-0.175000
31
0.0
0
LINE
8
FRONT
10
7.700000
20
-0.175000
30
0.0
11
7.800000
21
-0.175000
31
0.0
0
LINE
8
FRONT
10
7.800000
20
-0.175000
30
0.0
11
7.900000
21
-0.175000
31
0.0
0
LINE
8
FRONT
10
7.900000
20
-0.175000
30
0.0
11
8.000000
21
-0.175000
31
0.0
0
LINE
8
FRONT
10
0.000000
20
0.175000
30
0.0
11
0.000000
21
-0.175000
31
0.0
0
LINE
8
FRONT
10
8.000000
20
0.175000
30
0.0
11
8.000000
21
-0.175000
31
0.0
0
LINE
8
TOP
10
0.000000
20
2.130608
30
0.0
11
0.100000
21
2.126938
31
0.0
0
LINE
8
TOP
10
0.100000
20
2.126938
30
0.0
11
0.200000
21
2.123267
31
0.0
0
LINE
8
TOP
10
0.200000
20
2.123267
30
0.0
11
0.300000
21
2.119597
31
0.0
0
LINE
8
TOP
10
0.300000
20
2.119597
30
0.0
11
0.400000
21
2.115927
31
0.0
0
LINE
8
TOP
10
0.400000
20
2.115927
30
0.0
11
0.500000
21
2.112256
31
0.0
0
LINE
8
TOP
10
0.500000
20
2.112256
30
0.0
11
0.600000
21
2.108586
31
0.0
0
LINE
8
TOP
10
0.600000
20
2.108586
30
0.0
11
0.700000
21
2.104916
31
0.0
0
LINE
8
TOP
10
0.700000
20
2.104916
30
0.0
11
0.800000
21
2.101245
31
0.0
0
LINE
8
TOP
10
0.800000
20
2.101245
30
0.0
11
0.900000
21
2.097575
31
0.0
0
LINE
8
TOP
10
0.900000
20
2.097575
30
0.0
11
1.000000
21
2.093904
31
0.0
0
LINE
8
TOP
10
1.000000
20
2.093904
30
0.0
11
1.100000
21
2.090234
31
0.0
0
LINE
8
TOP
10
1.100000
20
2.090234
30
0.0
11
1.200000
21
2.086564
31
0.0
0
LINE
8
TOP
10
1.200000
20
2.086564
30
0.0
11
1.300000
21
2.082893
31
0.0
0
LINE
8
TOP
10
1.300000
20
2.082893
30
0.0
11
1.400000
21
2.079223
31
0.0
0
LINE
8
TOP
10
1.400000
20
2.079223
30
0.0
11
1.500000
21
2.075553
31
0.0
0
LINE
8
TOP
10
1.500000
20
2.075553
30
0.0
11
1.600000
21
2.071882
31
0.0
0
LINE
8
TOP
10
1.600000
20
2.071882
30
0.0
11
1.700000
21
2.068212
31
0.0
0
LINE
8
TOP
10
1.700000
20
2.068212
30
0.0
11
1.800000
21
2.064542
31
0.0
0
LINE
8
TOP
10
1.800000
20
2.064542
30
0.0
11
1.900000
21
2.060871
31
0.0
0
LINE
8
TOP
10
1.900000
20
2.060871
30
0.0
11
2.000000
21
2.057201
31
0.0
0
LINE
8
TOP
10
2.000000
20
2.057201
30
0.0
11
2.100000
21
2.053531
31
0.0
0
LINE
8
TOP
10
2.100000
20
2.053531
30
0.0
11
2.200000
21
2.049860
31
0.0
0
LINE
8
TOP
10
2.200000
20
2.049860
30
0.0
11
2.300000
21
2.046190
31
0.0
0
LINE
8
TOP
10
2.300000
20
2.046190
30
0.0
11
2.400000
21
2.042519
31
0.0
0
LINE
8
TOP
10
2.400000
20
2.042519
30
0.0
11
2.500000
21
2.038849
31
0.0
0
LINE
8
TOP
10
2.500000
20
2.038849
30
0.0
11
2.600000
21
2.035179
31
0.0
0
LINE
8
TOP
10
2.600000
20
2.035179
30
0.0
11
2.700000
21
2.031508
31
0.0
0
LINE
8
TOP
10
2.700000
20
2.031508
30
0.0
11
2.800000
21
2.027838
31
0.0
0
LINE
8
TOP
10
2.800000
20
2.027838
30
0.0
11
2.900000
21
2.024168
31
0.0
0
LINE
8
TOP
10
2.900000
20
2.024168
30
0.0
11
3.000000
21
2.020497
31
0.0
0
LINE
8
TOP
10
3.000000
20
2.020497
30
0.0
11
3.100000
21
2.016827
31
0.0
0
LINE
8
TOP
10
3.100000
20
2.016827
30
0.0
11
3.200000
21
2.013157
31
0.0
0
LINE
8
TOP
10
3.200000
20
2.013157
30
0.0
11
3.300000
21
2.009486
31
0.0
0
LINE
8
TOP
10
3.300000
20
2.009486
30
0.0
11
3.400000
21
2.005816
31
0.0
0
LINE
8
TOP
10
3.400000
20
2.005816
30
0.0
11
3.500000
21
2.002145
31
0.0
0
LINE
8
TOP
10
3.500000
20
2.002145
30
0.0
11
3.600000
21
1.998475
31
0.0
0
LINE
8
TOP
10
3.600000
20
1.998475
30
0.0
11
3.700000
21
1.994805
31
0.0
0
LINE
8
TOP
10
3.700000
20
1.994805
30
0.0
11
3.800000
21
1.991134
31
0.0
0
LINE
8
TOP
10
3.800000
20
1.991134
30
0.0
11
3.900000
21
1.987464
31
0.0
0
LINE
8
TOP
10
3.900000
20
1.987464
30
0.0
11
4.000000
21
1.983794
31
0.0
0
LINE
8
TOP
10
4.000000
20
1.983794
30
0.0
11
4.100000
21
1.987464
31
0.0
0
LINE
8
TOP
10
4.100000
20
1.987464
30
0.0
11
4.200000
21
1.991134
31
0.0
0
LINE
8
TOP
10
4.200000
20
1.991134
30
0.0
11
4.300000
21
1.994805
31
0.0
0
LINE
8
TOP
10
4.300000
20
1.994805
30
0.0
11
4.400000
21
1.998475
31
0.0
0
LINE
8
TOP
10
4.400000
20
1.998475
30
0.0
11
4.500000
21
2.002145
31
0.0
0
LINE
8
TOP
10
4.500000
20
2.002145
30
0.0
11
4.600000
21
2.005816
31
0.0
0
LINE
8
TOP
10
4.600000
20
2.005816
30
0.0
11
4.700000
21
2.009486
31
0.0
0
LINE
8
TOP
10
4.700000
20
2.009486
30
0.0
11
4.800000
21
2.013157
31
0.0
0
LINE
8
TOP
10
4.800000
20
2.013157
30
0.0
11
4.900000
21
2.016827
31
0.0
0
LINE
8
TOP
10
4.900000
20
2.016827
30
0.0
11
5.000000
21
2.020497
31
0.0
0
LINE
8
TOP
10
5.000000
20
2.020497
30
0.0
11
5.100000
21
2.024168
31
0.0
0
LINE
8
TOP
10
5.100000
20
2.024168
30
0.0
11
5.200000
21
2.027838
31
0.0
0
LINE
8
TOP
10
5.200000
20
2.027838
30
0.0
11
5.300000
21
2.031508
31
0.0
0
LINE
8
TOP
10
5.300000
20
2.031508
30
0.0
11
5.400000
21
2.035179
31
0.0
0
LINE
8
TOP
10
5.400000
20
2.035179
30
0.0
11
5.500000
21
2.038849
31
0.0
0
LINE
8
TOP
10
5.500000
20
2.038849
30
0.0
11
5.600000
21
2.042519
31
0.0
0
LINE
8
TOP
10
5.600000
20
2.042519
30
0.0
11
5.700000
21
2.046190
31
0.0
0
LINE
8
TOP
10
5.700000
20
2.046190
30
0.0
11
5.800000
21
2.049860
31
0.0
0
LINE
8
TOP
10
5.800000
20
2.049860
30
0.0
11
5.900000
21
2.053531
31
0.0
0
LINE
8
TOP
10
5.900000
20
2.053531
30
0.0
11
6.000000
21
2.057201
31
0.0
0
LINE
8
TOP
10
6.000000
20
2.057201
30
0.0
11
6.100000
21
2.060871
31
0.0
0
LINE
8
TOP
10
6.100000
20
2.060871
30
0.0
11
6.200000
21
2.064542
31
0.0
0
LINE
8
TOP
10
6.200000
20
2.064542
30
0.0
11
6.300000
21
2.068212
31
0.0
0
LINE
8
TOP
10
6.300000
20
2.068212
30
0.0
11
6.400000
21
2.071882
31
0.0
0
LINE
8
TOP
10
6.400000
20
2.071882
30
0.0
11
6.500000
21
2.075553
31
0.0
0
LINE
8
TOP
10
6.500000
20
2.075553
30
0.0
11
6.600000
21
2.079223
31
0.0
0
LINE
8
TOP
10
6.600000
20
2.079223
30
0.0
11
6.700000
21
2.082893
31
0.0
0
LINE
8
TOP
10
6.700000
20
2.082893
30
0.0
11
6.800000
21
2.086564
31
0.0
0
LINE
8
TOP
10
6.800000
20
2.086564
30
0.0
11
6.900000
21
2.090234
31
0.0
0
LINE
8
TOP
10
6.900000
20
2.090234
30
0.0
11
7.000000
21
2.093904
31
0.0
0
LINE
8
TOP
10
7.000000
20
2.093904
30
0.0
11
7.100000
21
2.097575
31
0.0
0
LINE
8
TOP
10
7.100000
20
2.097575
30
0.0
11
7.200000
21
2.101245
31
0.0
0
LINE
8
TOP
10
7.200000
20
2.101245
30
0.0
11
7.300000
21
2.104916
31
0.0
0
LINE
8
TOP
10
7.300000
20
2.104916
30
0.0
11
7.400000
21
2.108586
31
0.0
0
LINE
8
TOP
10
7.400000
20
2.108586
30
0.0
11
7.500000
21
2.112256
31
0.0
0
LINE
8
TOP
10
7.500000
20
2.112256
30
0.0
11
7.600000
21
2.115927
31
0.0
0
LINE
8
TOP
10
7.600000
20
2.115927
30
0.0
11
7.700000
21
2.119597
31
0.0
0
LINE
8
TOP
10
7.700000
20
2.119597
30
0.0
11
7.800000
21
2.123267
31
0.0
0
LINE
8
TOP
10
7.800000
20
2.123267
30
0.0
11
7.900000
21
2.126938
31
0.0
0
LINE
8
TOP
10
7.900000
20
2.126938
30
0.0
11
8.000000
21
2.130608
31
0.0
0
LINE
8
TOP
10
0.000000
20
1.440304
30
0.0
11
0.100000
21
1.443974
31
0.0
0
LINE
8
TOP
10
0.100000
20
1.443974
30
0.0
11
0.200000
21
1.447645
31
0.0
0
LINE
8
TOP
10
0.200000
20
1.447645
30
0.0
11
0.300000
21
1.451315
31
0.0
0
LINE
8
TOP
10
0.300000
20
1.451315
30
0.0
11
0.400000
21
1.454985
31
0.0
0
LINE
8
TOP
10
0.400000
20
1.454985
30
0.0
11
0.500000
21
1.458656
31
0.0
0
LINE
8
TOP
10
0.500000
20
1.458656
30
0.0
11
0.600000
21
1.462326
31
0.0
0
LINE
8
TOP
10
0.600000
20
1.462326
30
0.0
11
0.700000
21
1.465997
31
0.0
0
LINE
8
TOP
10
0.700000
20
1.465997
30
0.0
11
0.800000
21
1.469667
31
0.0
0
LINE
8
TOP
10
0.800000
20
1.469667
30
0.0
11
0.900000
21
1.473337
31
0.0
0
LINE
8
TOP
10
0.900000
20
1.473337
30
0.0
11
1.000000
21
1.477008
31
0.0
0
LINE
8
TOP
10
1.000000
20
1.477008
30
0.0
11
1.100000
21
1.480678
31
0.0
0
LINE
8
TOP
10
1.100000
20
1.480678
30
0.0
11
1.200000
21
1.484348
31
0.0
0
LINE
8
TOP
10
1.200000
20
1.484348
30
0.0
11
1.300000
21
1.488019
31
0.0
0
LINE
8
TOP
10
1.300000
20
1.488019
30
0.0
11
1.400000
21
1.491689
31
0.0
0
LINE
8
TOP
10
1.400000
20
1.491689
30
0.0
11
1.500000
21
1.495359
31
0.0
0
LINE
8
TOP
10
1.500000
20
1.495359
30
0.0
11
1.600000
21
1.499030
31
0.0
0
LINE
8
TOP
10
1.600000
20
1.499030
30
0.0
11
1.700000
21
1.502700
31
0.0
0
LINE
8
TOP
10
1.700000
20
1.502700
30
0.0
11
1.800000
21
1.506370
31
0.0
0
LINE
8
TOP
10
1.800000
20
1.506370
30
0.0
11
1.900000
21
1.510041
31
0.0
0
LINE
8
TOP
10
1.900000
20
1.510041
30
0.0
11
2.000000
21
1.513711
31
0.0
0
LINE
8
TOP
10
2.000000
20
1.513711
30
0.0
11
2.100000
21
1.517382
31
0.0
0
LINE
8
TOP
10
2.100000
20
1.517382
30
0.0
11
2.200000
21
1.521052
31
0.0
0
LINE
8
TOP
10
2.200000
20
1.521052
30
0.0
11
2.300000
21
1.524722
31
0.0
0
LINE
8
TOP
10
2.300000
20
1.524722
30
0.0
11
2.400000
21
1.528393
31
0.0
0
LINE
8
TOP
10
2.400000
20
1.528393
30
0.0
11
2.500000
21
1.532063
31
0.0
0
LINE
8
TOP
10
2.500000
20
1.532063
30
0.0
11
2.600000
21
1.535733
31
0.0
0
LINE
8
TOP
10
2.600000
20
1.535733
30
0.0
11
2.700000
21
1.539404
31
0.0
0
LINE
8
TOP
10
2.700000
20
1.539404
30
0.0
11
2.800000
21
1.543074
31
0.0
0
LINE
8
TOP
10
2.800000
20
1.543074
30
0.0
11
2.900000
21
1.546744
31
0.0
0
LINE
8
TOP
10
2.900000
20
1.546744
30
0.0
11
3.000000
21
1.550415
31
0.0
0
LINE
8
TOP
10
3.000000
20
1.550415
30
0.0
11
3.100000
21
1.554085
31
0.0
0
LINE
8
TOP
10
3.100000
20
1.554085
30
0.0
11
3.200000
21
1.557755
31
0.0
0
LINE
8
TOP
10
3.200000
20
1.557755
30
0.0
11
3.300000
21
1.561426
31
0.0
0
LINE
8
TOP
10
3.300000
20
1.561426
30
0.0
11
3.400000
21
1.565096
31
0.0
0
LINE
8
TOP
10
3.400000
20
1.565096
30
0.0
11
3.500000
21
1.568767
31
0.0
0
LINE
8
TOP
10
3.500000
20
1.568767
30
0.0
11
3.600000
21
1.572437
31
0.0
0
LINE
8
TOP
10
3.600000
20
1.572437
30
0.0
11
3.700000
21
1.576107
31
0.0
0
LINE
8
TOP
10
3.700000
20
1.576107
30
0.0
11
3.800000
21
1.579778
31
0.0
0
LINE
8
TOP
10
3.800000
20
1.579778
30
0.0
11
3.900000
21
1.583448
31
0.0
0
LINE
8
TOP
10
3.900000
20
1.583448
30
0.0
11
4.000000
21
1.587118
31
0.0
0
LINE
8
TOP
10
4.000000
20
1.587118
30
0.0
11
4.100000
21
1.583448
31
0.0
0
LINE
8
TOP
10
4.100000
20
1.583448
30
0.0
11
4.200000
21
1.579778
31
0.0
0
LINE
8
TOP
10
4.200000
20
1.579778
30
0.0
11
4.300000
21
1.576107
31
0.0
0
LINE
8
TOP
10
4.300000
20
1.576107
30
0.0
11
4.400000
21
1.572437
31
0.0
0
LINE
8
TOP
10
4.400000
20
1.572437
30
0.0
11
4.500000
21
1.568767
31
0.0
0
LINE
8
TOP
10
4.500000
20
1.568767
30
0.0
11
4.600000
21
1.565096
31
0.0
0
LINE
8
TOP
10
4.600000
20
1.565096
30
0.0
11
4.700000
21
1.561426
31
0.0
0
LINE
8
TOP
10
4.700000
20
1.561426
30
0.0
11
4.800000
21
1.557755
31
0.0
0
LINE
8
TOP
10
4.800000
20
1.557755
30
0.0
11
4.900000
21
1.554085
31
0.0
0
LINE
8
TOP
10
4.900000
20
1.554085
30
0.0
11
5.000000
21
1.550415
31
0.0
0
LINE
8
TOP
10
5.000000
20
1.550415
30
0.0
11
5.100000
21
1.546744
31
0.0
0
LINE
8
TOP
10
5.100000
20
1.546744
30
0.0
11
5.200000
21
1.543074
31
0.0
0
LINE
8
TOP
10
5.200000
20
1.543074
30
0.0
11
5.300000
21
1.539404
31
0.0
0
LINE
8
TOP
10
5.300000
20
1.539404
30
0.0
11
5.400000
21
1.535733
31
0.0
0
LINE
8
TOP
10
5.400000
20
1.535733
30
0.0
11
5.500000
21
1.532063
31
0.0
0
LINE
8
TOP
10
5.500000
20
1.532063
30
0.0
11
5.600000
21
1.528393
31
0.0
0
LINE
8
TOP
10
5.600000
20
1.528393
30
0.0
11
5.700000
21
1.524722
31
0.0
0
LINE
8
TOP
10
5.700000
20
1.524722
30
0.0
11
5.800000
21
1.521052
31
0.0
0
LINE
8
TOP
10
5.800000
20
1.521052
30
0.0
11
5.900000
21
1.517382
31
0.0
0
LINE
8
TOP
10
5.900000
20
1.517382
30
0.0
11
6.000000
21
1.513711
31
0.0
0
LINE
8
TOP
10
6.000000
20
1.513711
30
0.0
11
6.100000
21
1.510041
31
0.0
0
LINE
8
TOP
10
6.100000
20
1.510041
30
0.0
11
6.200000
21
1.506370
31
0.0
0
LINE
8
TOP
10
6.200000
20
1.506370
30
0.0
11
6.300000
21
1.502700
31
0.0
0
LINE
8
TOP
10
6.300000
20
1.502700
30
0.0
11
6.400000
21
1.499030
31
0.0
0
LINE
8
TOP
10
6.400000
20
1.499030
30
0.0
11
6.500000
21
1.495359
31
0.0
0
LINE
8
TOP
10
6.500000
20
1.495359
30
0.0
11
6.600000
21
1.491689
31
0.0
0
LINE
8
TOP
10
6.600000
20
1.491689
30
0.0
11
6.700000
21
1.488019
31
0.0
0
LINE
8
TOP
10
6.700000
20
1.488019
30
0.0
11
6.800000
21
1.484348
31
0.0
0
LINE
8
TOP
10
6.800000
20
1.484348
30
0.0
11
6.900000
21
1.480678
31
0.0
0
LINE
8
TOP
10
6.900000
20
1.480678
30
0.0
11
7.000000
21
1.477008
31
0.0
0
LINE
8
TOP
10
7.000000
20
1.477008
30
0.0
11
7.100000
21
1.473337
31
0.0
0
LINE
8
TOP
10
7.100000
20
1.473337
30
0.0
11
7.200000
21
1.469667
31
0.0
0
LINE
8
TOP
10
7.200000
20
1.469667
30
0.0
11
7.300000
21
1.465997
31
0.0
0
LINE
8
TOP
10
7.300000
20
1.465997
30
0.0
11
7.400000
21
1.462326
31
0.0
0
LINE
8
TOP
10
7.400000
20
1.462326
30
0.0
11
7.500000
21
1.458656
31
0.0
0
LINE
8
TOP
10
7.500000
20
1.458656
30
0.0
11
7.600000
21
1.454985
31
0.0
0
LINE
8
TOP
10
7.600000
20
1.454985
30
0.0
11
7.700000
21
1.451315
31
0.0
0
LINE
8
TOP
10
7.700000
20
1.451315
30
0.0
11
7.800000
21
1.447645
31
0.0
0
LINE
8
TOP
10
7.800000
20
1.447645
30
0.0
11
7.900000
21
1.443974
31
0.0
0
LINE
8
TOP
10
7.900000
20
1.443974
30
0.0
11
8.000000
21
1.440304
31
0.0
0
LINE
8
TOP
10
0.000000
20
2.130608
30
0.0
11
0.000000
21
1.440304
31
0.0
0
LINE
8
TOP
10
8.000000
20
2.130608
30
0.0
11
8.000000
21
1.440304
31
0.0
0
LINE
8
SECTION
10
9.301662
20
-0.175000
30
0.0
11
9.698338
21
-0.175000
31
0.0
0
LINE
8
SECTION
10
9.698338
20
-0.175000
30
0.0
11
9.698338
21
0.175000
31
0.0
0
LINE
8
SECTION
10
9.698338
20
0.175000
30
0.0
11
9.301662
21
0.175000
31
0.0
0
LINE
8
SECTION
10
9.301662
20
0.175000
30
0.0
11
9.301662
21
-0.175000
31
0.0
0
LINE
8
SECTION
10
9.381347
20
-0.095315
30
0.0
11
9.618653
21
-0.095315
31
0.0
0
LINE
8
SECTION
10
9.618653
20
-0.095315
30
0.0
11
9.618653
21
0.095315
31
0.0
0
LINE
8
SECTION
10
9.618653
20
0.095315
30
0.0
11
9.381347
21
0.095315
31
0.0
0
LINE
8
SECTION
10
9.381347
20
0.095315
30
0.0
11
9.381347
21
-0.095315
31
0.0
0
LINE
8
SECTION
10
9.381347
20
0.000000
30
0.0
11
9.461032
21
0.000000
31
0.0
0
LINE
8
SECTION
10
9.461032
20
0.000000
30
0.0
11
9.461032
21
0.095315
31
0.0
0
LINE
8
SECTION
10
9.461032
20
0.095315
30
0.0
11
9.381347
21
0.095315
31
0.0
0
LINE
8
SECTION
10
9.381347
20
0.095315
30
0.0
11
9.381347
21
0.000000
31
0.0
0
LINE
8
SECTION
10
9.381347
20
-0.095315
30
0.0
11
9.461032
21
-0.095315
31
0.0
0
LINE
8
SECTION
10
9.461032
20
-0.095315
30
0.0
11
9.461032
21
0.000000
31
0.0
0
LINE
8
SECTION
10
9.461032
20
0.000000
30
0.0
11
9.381347
21
0.000000
31
0.0
0
LINE
8
SECTION
10
9.381347
20
0.000000
30
0.0
11
9.381347
21
-0.095315
31
0.0
0
LINE
8
SECTION
10
9.538968
20
0.000000
30
0.0
11
9.618653
21
0.000000
31
0.0
0
LINE
8
SECTION
10
9.618653
20
0.000000
30
0.0
11
9.618653
21
0.095315
31
0.0
0
LINE
8
SECTION
10
9.618653
20
0.095315
30
0.0
11
9.538968
21
0.095315
31
0.0
0
LINE
8
SECTION
10
9.538968
20
0.095315
30
0.0
11
9.538968
21
0.000000
31
0.0
0
LINE
8
SECTION
10
9.538968
20
-0.095315
30
0.0
11
9.618653
21
-0.095315
31
0.0
0
LINE
8
SECTION
10
9.618653
20
-0.095315
30
0.0
11
9.618653
21
0.000000
31
0.0
0
LINE
8
SECTION
10
9.618653
20
0.000000
30
0.0
11
9.538968
21
0.000000
31
0.0
0
LINE
8
SECTION
10
9.538968
20
0.000000
30
0.0
11
9.538968
21
-0.095315
31
0.0
0
ENDSEC
0
EOF
