0
SECTION
2
HEADER
9
$INSUNITS
70
1
0
ENDSEC
0
SECTION
2
ENTITIES
0
LINE
8
FRONT
10
0.000000
20
0.363778
30
0.0
11
0.112500
21
0.360637
31
0.0
0
LINE
8
FRONT
10
0.112500
20
0.360637
30
0.0
11
0.225000
21
0.357495
31
0.0
0
LINE
8
FRONT
10
0.225000
20
0.357495
30
0.0
11
0.337500
21
0.354354
31
0.0
0
LINE
8
FRONT
10
0.337500
20
0.354354
30
0.0
11
0.450000
21
0.351212
31
0.0
0
LINE
8
FRONT
10
0.450000
20
0.351212
30
0.0
11
0.500000
21
0.349816
31
0.0
0
LINE
8
FRONT
10
0.500000
20
0.349816
30
0.0
11
0.562500
21
0.348071
31
0.0
0
LINE
8
FRONT
10
0.562500
20
0.348071
30
0.0
11
0.675000
21
0.344930
31
0.0
0
LINE
8
FRONT
10
0.675000
20
0.344930
30
0.0
11
0.787500
21
0.341788
31
0.0
0
LINE
8
FRONT
10
0.787500
20
0.341788
30
0.0
11
0.900000
21
0.338647
31
0.0
0
LINE
8
FRONT
10
0.900000
20
0.338647
30
0.0
11
1.012500
21
0.335505
31
0.0
0
LINE
8
FRONT
10
1.012500
20
0.335505
30
0.0
11
1.125000
21
0.332364
31
0.0
0
LINE
8
FRONT
10
1.125000
20
0.332364
30
0.0
11
1.237500
21
0.329222
31
0.0
0
LINE
8
FRONT
10
1.237500
20
0.329222
30
0.0
11
1.350000
21
0.326081
31
0.0
0
LINE
8
FRONT
10
1.350000
20
0.326081
30
0.0
11
1.462500
21
0.322939
31
0.0
0
LINE
8
FRONT
10
1.462500
20
0.322939
30
0.0
11
1.575000
21
0.319798
31
0.0
0
LINE
8
FRONT
10
1.575000
20
0.319798
30
0.0
11
1.687500
21
0.316656
31
0.0
0
LINE
8
FRONT
10
1.687500
20
0.316656
30
0.0
11
1.800000
21
0.313515
31
0.0
0
LINE
8
FRONT
10
1.800000
20
0.313515
30
0.0
11
1.912500
21
0.310373
31
0.0
0
LINE
8
FRONT
10
1.912500
20
0.310373
30
0.0
11
2.025000
21
0.307232
31
0.0
0
LINE
8
FRONT
10
2.025000
20
0.307232
30
0.0
11
2.137500
21
0.304090
31
0.0
0
LINE
8
FRONT
10
2.137500
20
0.304090
30
0.0
11
2.250000
21
0.300949
31
0.0
0
LINE
8
FRONT
10
2.250000
20
0.300949
30
0.0
11
2.362500
21
0.297808
31
0.0
0
LINE
8
FRONT
10
2.362500
20
0.297808
30
0.0
11
2.475000
21
0.294666
31
0.0
0
LINE
8
FRONT
10
2.475000
20
0.294666
30
0.0
11
2.587500
21
0.291525
31
0.0
0
LINE
8
FRONT
10
2.587500
20
0.291525
30
0.0
11
2.700000
21
0.288383
31
0.0
0
LINE
8
FRONT
10
2.700000
20
0.288383
30
0.0
11
2.812500
21
0.285242
31
0.0
0
LINE
8
FRONT
10
2.812500
20
0.285242
30
0.0
11
2.925000
21
0.282100
31
0.0
0
LINE
8
FRONT
10
2.925000
20
0.282100
30
0.0
11
3.037500
21
0.278959
31
0.0
0
LINE
8
FRONT
10
3.037500
20
0.278959
30
0.0
11
3.150000
21
0.275817
31
0.0
0
LINE
8
FRONT
10
3.150000
20
0.275817
30
0.0
11
3.262500
21
0.272676
31
0.0
0
LINE
8
FRONT
10
3.262500
20
0.272676
30
0.0
11
3.375000
21
0.269534
31
0.0
0
LINE
8
FRONT
10
3.375000
20
0.269534
30
0.0
11
3.487500
21
0.266393
31
0.0
0
LINE
8
FRONT
10
3.487500
20
0.266393
30
0.0
11
3.600000
21
0.263251
31
0.0
0
LINE
8
FRONT
10
3.600000
20
0.263251
30
0.0
11
3.712500
21
0.260110
31
0.0
0
LINE
8
FRONT
10
3.712500
20
0.260110
30
0.0
11
3.825000
21
0.256968
31
0.0
0
LINE
8
FRONT
10
3.825000
20
0.256968
30
0.0
11
3.937500
21
0.253827
31
0.0
0
LINE
8
FRONT
10
3.937500
20
0.253827
30
0.0
11
4.050000
21
0.250685
31
0.0
0
LINE
8
FRONT
10
4.050000
20
0.250685
30
0.0
11
4.162500
21
0.247544
31
0.0
0
LINE
8
FRONT
10
4.162500
20
0.247544
30
0.0
11
4.275000
21
0.244403
31
0.0
0
LINE
8
FRONT
10
4.275000
20
0.244403
30
0.0
11
4.387500
21
0.241261
31
0.0
0
LINE
8
FRONT
10
4.387500
20
0.241261
30
0.0
11
4.500000
21
0.238120
31
0.0
0
LINE
8
FRONT
10
4.500000
20
0.238120
30
0.0
11
4.612500
21
0.241261
31
0.0
0
LINE
8
FRONT
10
4.612500
20
0.241261
30
0.0
11
4.725000
21
0.244403
31
0.0
0
LINE
8
FRONT
10
4.725000
20
0.244403
30
0.0
11
4.837500
21
0.247544
31
0.0
0
LINE
8
FRONT
10
4.837500
20
0.247544
30
0.0
11
4.950000
21
0.250685
31
0.0
0
LINE
8
FRONT
10
4.950000
20
0.250685
30
0.0
11
5.062500
21
0.253827
31
0.0
0
LINE
8
FRONT
10
5.062500
20
0.253827
30
0.0
11
5.175000
21
0.256968
31
0.0
0
LINE
8
FRONT
10
5.175000
20
0.256968
30
0.0
11
5.287500
21
0.260110
31
0.0
0
LINE
8
FRONT
10
5.287500
20
0.260110
30
0.0
11
5.400000
21
0.263251
31
0.0
0
LINE
8
FRONT
10
5.400000
20
0.263251
30
0.0
11
5.512500
21
0.266393
31
0.0
0
LINE
8
FRONT
10
5.512500
20
0.266393
30
0.0
11
5.625000
21
0.269534
31
0.0
0
LINE
8
FRONT
10
5.625000
20
0.269534
30
0.0
11
5.737500
21
0.272676
31
0.0
0
LINE
8
FRONT
10
5.737500
20
0.272676
30
0.0
11
5.850000
21
0.275817
31
0.0
0
LINE
8
FRONT
10
5.850000
20
0.275817
30
0.0
11
5.962500
21
0.278959
31
0.0
0
LINE
8
FRONT
10
5.962500
20
0.278959
30
0.0
11
6.075000
21
0.282100
31
0.0
0
LINE
8
FRONT
10
6.075000
20
0.282100
30
0.0
11
6.187500
21
0.285242
31
0.0
0
LINE
8
FRONT
10
6.187500
20
0.285242
30
0.0
11
6.300000
21
0.288383
31
0.0
0
LINE
8
FRONT
10
6.300000
20
0.288383
30
0.0
11
6.412500
21
0.291525
31
0.0
0
LINE
8
FRONT
10
6.412500
20
0.291525
30
0.0
11
6.525000
21
0.294666
31
0.0
0
LINE
8
FRONT
10
6.525000
20
0.294666
30
0.0
11
6.637500
21
0.297808
31
0.0
0
LINE
8
FRONT
10
6.637500
20
0.297808
30
0.0
11
6.750000
21
0.300949
31
0.0
0
LINE
8
FRONT
10
6.750000
20
0.300949
30
0.0
11
6.862500
21
0.304090
31
0.0
0
LINE
8
FRONT
10
6.862500
20
0.304090
30
0.0
11
6.975000
21
0.307232
31
0.0
0
LINE
8
FRONT
10
6.975000
20
0.307232
30
0.0
11
7.087500
21
0.310373
31
0.0
0
LINE
8
FRONT
10
7.087500
20
0.310373
30
0.0
11
7.200000
21
0.313515
31
0.0
0
LINE
8
FRONT
10
7.200000
20
0.313515
30
0.0
11
7.312500
21
0.316656
31
0.0
0
LINE
8
FRONT
10
7.312500
20
0.316656
30
0.0
11
7.425000
21
0.319798
31
0.0
0
LINE
8
FRONT
10
7.425000
20
0.319798
30
0.0
11
7.537500
21
0.322939
31
0.0
0
LINE
8
FRONT
10
7.537500
20
0.322939
30
0.0
11
7.650000
21
0.326081
31
0.0
0
LINE
8
FRONT
10
7.650000
20
0.326081
30
0.0
11
7.762500
21
0.329222
31
0.0
0
LINE
8
FRONT
10
7.762500
20
0.329222
30
0.0
11
7.875000
21
0.332364
31
0.0
0
LINE
8
FRONT
10
7.875000
20
0.332364
30
0.0
11
7.987500
21
0.335505
31
0.0
0
LINE
8
FRONT
10
7.987500
20
0.335505
30
0.0
11
8.100000
21
0.338647
31
0.0
0
LINE
8
FRONT
10
8.100000
20
0.338647
30
0.0
11
8.212500
21
0.341788
31
0.0
0
LINE
8
FRONT
10
8.212500
20
0.341788
30
0.0
11
8.325000
21
0.344930
31
0.0
0
LINE
8
FRONT
10
8.325000
20
0.344930
30
0.0
11
8.437500
21
0.348071
31
0.0
0
LINE
8
FRONT
10
8.437500
20
0.348071
30
0.0
11
8.500000
21
0.349816
31
0.0
0
LINE
8
FRONT
10
8.500000
20
0.349816
30
0.0
11
8.550000
21
0.351212
31
0.0
0
LINE
8
FRONT
10
8.550000
20
0.351212
30
0.0
11
8.662500
21
0.354354
31
0.0
0
LINE
8
FRONT
10
8.662500
20
0.354354
30
0.0
11
8.775000
21
0.357495
31
0.0
0
LINE
8
FRONT
10
8.775000
20
0.357495
30
0.0
11
8.887500
21
0.360637
31
0.0
0
LINE
8
FRONT
10
8.887500
20
0.360637
30
0.0
11
9.000000
21
0.363778
31
0.0
0
LINE
8
FRONT
10
0.000000
20
-0.363778
30
0.0
11
0.112500
21
-0.360637
31
0.0
0
LINE
8
FRONT
10
0.112500
20
-0.360637
30
0.0
11
0.225000
21
-0.357495
31
0.0
0
LINE
8
FRONT
10
0.225000
20
-0.357495
30
0.0
11
0.337500
21
-0.354354
31
0.0
0
LINE
8
FRONT
10
0.337500
20
-0.354354
30
0.0
11
0.450000
21
-0.351212
31
0.0
0
LINE
8
FRONT
10
0.450000
20
-0.351212
30
0.0
11
0.500000
21
-0.349816
31
0.0
0
LINE
8
FRONT
10
0.500000
20
-0.349816
30
0.0
11
0.562500
21
-0.348071
31
0.0
0
LINE
8
FRONT
10
0.562500
20
-0.348071
30
0.0
11
0.675000
21
-0.344930
31
0.0
0
LINE
8
FRONT
10
0.675000
20
-0.344930
30
0.0
11
0.787500
21
-0.341788
31
0.0
0
LINE
8
FRONT
10
0.787500
20
-0.341788
30
0.0
11
0.900000
21
-0.338647
31
0.0
0
LINE
8
FRONT
10
0.900000
20
-0.338647
30
0.0
11
1.012500
21
-0.335505
31
0.0
0
LINE
8
FRONT
10
1.012500
20
-0.335505
30
0.0
11
1.125000
21
-0.332364
31
0.0
0
LINE
8
FRONT
10
1.125000
20
-0.332364
30
0.0
11
1.237500
21
-0.329222
31
0.0
0
LINE
8
FRONT
10
1.237500
20
-0.329222
30
0.0
11
1.350000
21
-0.326081
31
0.0
0
LINE
8
FRONT
10
1.350000
20
-0.326081
30
0.0
11
1.462500
21
-0.322939
31
0.0
0
LINE
8
FRONT
10
1.462500
20
-0.322939
30
0.0
11
1.575000
21
-0.319798
31
0.0
0
LINE
8
FRONT
10
1.575000
20
-0.319798
30
0.0
11
1.687500
21
-0.316656
31
0.0
0
LINE
8
FRONT
10
1.687500
20
-0.316656
30
0.0
11
1.800000
21
-0.313515
31
0.0
0
LINE
8
FRONT
10
1.800000
20
-0.313515
30
0.0
11
1.912500
21
-0.310373
31
0.0
0
LINE
8
FRONT
10
1.912500
20
-0.310373
30
0.0
11
2.025000
21
-0.307232
31
0.0
0
LINE
8
FRONT
10
2.025000
20
-0.307232
30
0.0
11
2.137500
21
-0.304090
31
0.0
0
LINE
8
FRONT
10
2.137500
20
-0.304090
30
0.0
11
2.250000
21
-0.300949
31
0.0
0
LINE
8
FRONT
10
2.250000
20
-0.300949
30
0.0
11
2.362500
21
-0.297808
31
0.0
0
LINE
8
FRONT
10
2.362500
20
-0.297808
30
0.0
11
2.475000
21
-0.294666
31
0.0
0
LINE
8
FRONT
10
2.475000
20
-0.294666
30
0.0
11
2.587500
21
-0.291525
31
0.0
0
LINE
8
FRONT
10
2.587500
20
-0.291525
30
0.0
11
2.700000
21
-0.288383
31
0.0
0
LINE
8
FRONT
10
2.700000
20
-0.288383
30
0.0
11
2.812500
21
-0.285242
31
0.0
0
LINE
8
FRONT
10
2.812500
20
-0.285242
30
0.0
11
2.925000
21
-0.282100
31
0.0
0
LINE
8
FRONT
10
2.925000
20
-0.282100
30
0.0
11
3.037500
21
-0.278959
31
0.0
0
LINE
8
FRONT
10
3.037500
20
-0.278959
30
0.0
11
3.150000
21
-0.275817
31
0.0
0
LINE
8
FRONT
10
3.150000
20
-0.275817
30
0.0
11
3.262500
21
-0.272676
31
0.0
0
LINE
8
FRONT
10
3.262500
20
-0.272676
30
0.0
11
3.375000
21
-0.269534
31
0.0
0
LINE
8
FRONT
10
3.375000
20
-0.269534
30
0.0
11
3.487500
21
-0.266393
31
0.0
0
LINE
8
FRONT
10
3.487500
20
-0.266393
30
0.0
11
3.600000
21
-0.263251
31
0.0
0
LINE
8
FRONT
10
3.600000
20
-0.263251
30
0.0
11
3.712500
21
-0.260110
31
0.0
0
LINE
8
FRONT
10
3.712500
20
-0.260110
30
0.0
11
3.825000
21
-0.256968
31
0.0
0
LINE
8
FRONT
10
3.825000
20
-0.256968
30
0.0
11
3.937500
21
-0.253827
31
0.0
0
LINE
8
FRONT
10
3.937500
20
-0.253827
30
0.0
11
4.050000
21
-0.250685
31
0.0
0
LINE
8
FRONT
10
4.050000
20
-0.250685
30
0.0
11
4.162500
21
-0.247544
31
0.0
0
LINE
8
FRONT
10
4.162500
20
-0.247544
30
0.0
11
4.275000
21
-0.244403
31
0.0
0
LINE
8
FRONT
10
4.275000
20
-0.244403
30
0.0
11
4.387500
21
-0.241261
31
0.0
0
LINE
8
FRONT
10
4.387500
20
-0.241261
30
0.0
11
4.500000
21
-0.238120
31
0.0
0
LINE
8
FRONT
10
4.500000
20
-0.238120
30
0.0
11
4.612500
21
-0.241261
31
0.0
0
LINE
8
FRONT
10
4.612500
20
-0.241261
30
0.0
11
4.725000
21
-0.244403
31
0.0
0
LINE
8
FRONT
10
4.725000
20
-0.244403
30
0.0
11
4.837500
21
-0.247544
31
0.0
0
LINE
8
FRONT
10
4.837500
20
-0.247544
30
0.0
11
4.950000
21
-0.250685
31
0.0
0
LINE
8
FRONT
10
4.950000
20
-0.250685
30
0.0
11
5.062500
21
-0.253827
31
0.0
0
LINE
8
FRONT
10
5.062500
20
-0.253827
30
0.0
11
5.175000
21
-0.256968
31
0.0
0
LINE
8
FRONT
10
5.175000
20
-0.256968
30
0.0
11
5.287500
21
-0.260110
31
0.0
0
LINE
8
FRONT
10
5.287500
20
-0.260110
30
0.0
11
5.400000
21
-0.263251
31
0.0
0
LINE
8
FRONT
10
5.400000
20
-0.263251
30
0.0
11
5.512500
21
-0.266393
31
0.0
0
LINE
8
FRONT
10
5.512500
20
-0.266393
30
0.0
11
5.625000
21
-0.269534
31
0.0
0
LINE
8
FRONT
10
5.625000
20
-0.269534
30
0.0
11
5.737500
21
-0.272676
31
0.0
0
LINE
8
FRONT
10
5.737500
20
-0.272676
30
0.0
11
5.850000
21
-0.275817
31
0.0
0
LINE
8
FRONT
10
5.850000
20
-0.275817
30
0.0
11
5.962500
21
-0.278959
31
0.0
0
LINE
8
FRONT
10
5.962500
20
-0.278959
30
0.0
11
6.075000
21
-0.282100
31
0.0
0
LINE
8
FRONT
10
6.075000
20
-0.282100
30
0.0
11
6.187500
21
-0.285242
31
0.0
0
LINE
8
FRONT
10
6.187500
20
-0.285242
30
0.0
11
6.300000
21
-0.288383
31
0.0
0
LINE
8
FRONT
10
6.300000
20
-0.288383
30
0.0
11
6.412500
21
-0.291525
31
0.0
0
LINE
8
FRONT
10
6.412500
20
-0.291525
30
0.0
11
6.525000
21
-0.294666
31
0.0
0
LINE
8
FRONT
10
6.525000
20
-0.294666
30
0.0
11
6.637500
21
-0.297808
31
0.0
0
LINE
8
FRONT
10
6.637500
20
-0.297808
30
0.0
11
6.750000
21
-0.300949
31
0.0
0
LINE
8
FRONT
10
6.750000
20
-0.300949
30
0.0
11
6.862500
21
-0.304090
31
0.0
0
LINE
8
FRONT
10
6.862500
20
-0.304090
30
0.0
11
6.975000
21
-0.307232
31
0.0
0
LINE
8
FRONT
10
6.975000
20
-0.307232
30
0.0
11
7.087500
21
-0.310373
31
0.0
0
LINE
8
FRONT
10
7.087500
20
-0.310373
30
0.0
11
7.200000
21
-0.313515
31
0.0
0
LINE
8
FRONT
10
7.200000
20
-0.313515
30
0.0
11
7.312500
21
-0.316656
31
0.0
0
LINE
8
FRONT
10
7.312500
20
-0.316656
30
0.0
11
7.425000
21
-0.319798
31
0.0
0
LINE
8
FRONT
10
7.425000
20
-0.319798
30
0.0
11
7.537500
21
-0.322939
31
0.0
0
LINE
8
FRONT
10
7.537500
20
-0.322939
30
0.0
11
7.650000
21
-0.326081
31
0.0
0
LINE
8
FRONT
10
7.650000
20
-0.326081
30
0.0
11
7.762500
21
-0.329222
31
0.0
0
LINE
8
FRONT
10
7.762500
20
-0.329222
30
0.0
11
7.875000
21
-0.332364
31
0.0
0
LINE
8
FRONT
10
7.875000
20
-0.332364
30
0.0
11
7.987500
21
-0.335505
31
0.0
0
LINE
8
FRONT
10
7.987500
20
-0.335505
30
0.0
11
8.100000
21
-0.338647
31
0.0
0
LINE
8
FRONT
10
8.100000
20
-0.338647
30
0.0
11
8.212500
21
-0.341788
31
0.0
0
LINE
8
FRONT
10
8.212500
20
-0.341788
30
0.0
11
8.325000
21
-0.344930
31
0.0
0
LINE
8
FRONT
10
8.325000
20
-0.344930
30
0.0
11
8.437500
21
-0.348071
31
0.0
0
LINE
8
FRONT
10
8.437500
20
-0.348071
30
0.0
11
8.500000
21
-0.349816
31
0.0
0
LINE
8
FRONT
10
8.500000
20
-0.349816
30
0.0
11
8.550000
21
-0.351212
31
0.0
0
LINE
8
FRONT
10
8.550000
20
-0.351212
30
0.0
11
8.662500
21
-0.354354
31
0.0
0
LINE
8
FRONT
10
8.662500
20
-0.354354
30
0.0
11
8.775000
21
-0.357495
31
0.0
0
LINE
8
FRONT
10
8.775000
20
-0.357495
30
0.0
11
8.887500
21
-0.360637
31
0.0
0
LINE
8
FRONT
10
8.887500
20
-0.360637
30
0.0
11
9.000000
21
-0.363778
31
0.0
0
LINE
8
FRONT
10
0.000000
20
0.363778
30
0.0
11
0.000000
21
-0.363778
31
0.0
0
LINE
8
FRONT
10
9.000000
20
0.363778
30
0.0
11
9.000000
21
-0.363778
31
0.0
0
LINE
8
TOP
10
0.000000
20
1.972973
30
0.0
11
0.112500
21
1.974931
31
0.0
0
LINE
8
TOP
10
0.112500
20
1.974931
30
0.0
11
0.225000
21
1.976888
31
0.0
0
LINE
8
TOP
10
0.225000
20
1.976888
30
0.0
11
0.337500
21
1.978846
31
0.0
0
LINE
8
TOP
10
0.337500
20
1.978846
30
0.0
11
0.450000
21
1.980803
31
0.0
0
LINE
8
TOP
10
0.450000
20
1.980803
30
0.0
11
0.500000
21
1.981673
31
0.0
0
LINE
8
TOP
10
0.500000
20
1.981673
30
0.0
11
0.562500
21
1.982761
31
0.0
0
LINE
8
TOP
10
0.562500
20
1.982761
30
0.0
11
0.675000
21
1.984719
31
0.0
0
LINE
8
TOP
10
0.675000
20
1.984719
30
0.0
11
0.787500
21
1.986676
31
0.0
0
LINE
8
TOP
10
0.787500
20
1.986676
30
0.0
11
0.900000
21
1.988634
31
0.0
0
LINE
8
TOP
10
0.900000
20
1.988634
30
0.0
11
1.012500
21
1.990591
31
0.0
0
LINE
8
TOP
10
1.012500
20
1.990591
30
0.0
11
1.125000
21
1.992549
31
0.0
0
LINE
8
TOP
10
1.125000
20
1.992549
30
0.0
11
1.237500
21
1.994506
31
0.0
0
LINE
8
TOP
10
1.237500
20
1.994506
30
0.0
11
1.350000
21
1.996464
31
0.0
0
LINE
8
TOP
10
1.350000
20
1.996464
30
0.0
11
1.462500
21
1.998421
31
0.0
0
LINE
8
TOP
10
1.462500
20
1.998421
30
0.0
11
1.575000
21
2.000379
31
0.0
0
LINE
8
TOP
10
1.575000
20
2.000379
30
0.0
11
1.687500
21
2.002337
31
0.0
0
LINE
8
TOP
10
1.687500
20
2.002337
30
0.0
11
1.800000
21
2.004294
31
0.0
0
LINE
8
TOP
10
1.800000
20
2.004294
30
0.0
11
1.912500
21
2.006252
31
0.0
0
LINE
8
TOP
10
1.912500
20
2.006252
30
0.0
11
2.025000
21
2.008209
31
0.0
0
LINE
8
TOP
10
2.025000
20
2.008209
30
0.0
11
2.137500
21
2.010167
31
0.0
0
LINE
8
TOP
10
2.137500
20
2.010167
30
0.0
11
2.250000
21
2.012124
31
0.0
0
LINE
8
TOP
10
2.250000
20
2.012124
30
0.0
11
2.362500
21
2.014082
31
0.0
0
LINE
8
TOP
10
2.362500
20
2.014082
30
0.0
11
2.475000
21
2.016040
31
0.0
0
LINE
8
TOP
10
2.475000
20
2.016040
30
0.0
11
2.587500
21
2.017997
31
0.0
0
LINE
8
TOP
10
2.587500
20
2.017997
30
0.0
11
2.700000
21
2.019955
31
0.0
0
LINE
8
TOP
10
2.700000
20
2.019955
30
0.0
11
2.812500
21
2.021912
31
0.0
0
LINE
8
TOP
10
2.812500
20
2.021912
30
0.0
11
2.925000
21
2.023870
31
0.0
0
LINE
8
TOP
10
2.925000
20
2.023870
30
0.0
11
3.037500
21
2.025827
31
0.0
0
LINE
8
TOP
10
3.037500
20
2.025827
30
0.0
11
3.150000
21
2.027785
31
0.0
0
LINE
8
TOP
10
3.150000
20
2.027785
30
0.0
11
3.262500
21
2.029743
31
0.0
0
LINE
8
TOP
10
3.262500
20
2.029743
30
0.0
11
3.375000
21
2.031700
31
0.0
0
LINE
8
TOP
10
3.375000
20
2.031700
30
0.0
11
3.487500
21
2.033658
31
0.0
0
LINE
8
TOP
10
3.487500
20
2.033658
30
0.0
11
3.600000
21
2.035615
31
0.0
0
LINE
8
TOP
10
3.600000
20
2.035615
30
0.0
11
3.712500
21
2.037573
31
0.0
0
LINE
8
TOP
10
3.712500
20
2.037573
30
0.0
11
3.825000
21
2.039530
31
0.0
0
LINE
8
TOP
10
3.825000
20
2.039530
30
0.0
11
3.937500
21
2.041488
31
0.0
0
LINE
8
TOP
10
3.937500
20
2.041488
30
0.0
11
4.050000
21
2.043445
31
0.0
0
LINE
8
TOP
10
4.050000
20
2.043445
30
0.0
11
4.162500
21
2.045403
31
0.0
0
LINE
8
TOP
10
4.162500
20
2.045403
30
0.0
11
4.275000
21
2.047361
31
0.0
0
LINE
8
TOP
10
4.275000
20
2.047361
30
0.0
11
4.387500
21
2.049318
31
0.0
0
LINE
8
TOP
10
4.387500
20
2.049318
30
0.0
11
4.500000
21
2.051276
31
0.0
0
LINE
8
TOP
10
4.500000
20
2.051276
30
0.0
11
4.612500
21
2.049318
31
0.0
0
LINE
8
TOP
10
4.612500
20
2.049318
30
0.0
11
4.725000
21
2.047361
31
0.0
0
LINE
8
TOP
10
4.725000
20
2.047361
30
0.0
11
4.837500
21
2.045403
31
0.0
0
LINE
8
TOP
10
4.837500
20
2.045403
30
0.0
11
4.950000
21
2.043445
31
0.0
0
LINE
8
TOP
10
4.950000
20
2.043445
30
0.0
11
5.062500
21
2.041488
31
0.0
0
LINE
8
TOP
10
5.062500
20
2.041488
30
0.0
11
5.175000
21
2.039530
31
0.0
0
LINE
8
TOP
10
5.175000
20
2.039530
30
0.0
11
5.287500
21
2.037573
31
0.0
0
LINE
8
TOP
10
5.287500
20
2.037573
30
0.0
11
5.400000
21
2.035615
31
0.0
0
LINE
8
TOP
10
5.400000
20
2.035615
30
0.0
11
5.512500
21
2.033658
31
0.0
0
LINE
8
TOP
10
5.512500
20
2.033658
30
0.0
11
5.625000
21
2.031700
31
0.0
0
LINE
8
TOP
10
5.625000
20
2.031700
30
0.0
11
5.737500
21
2.029743
31
0.0
0
LINE
8
TOP
10
5.737500
20
2.029743
30
0.0
11
5.850000
21
2.027785
31
0.0
0
LINE
8
TOP
10
5.850000
20
2.027785
30
0.0
11
5.962500
21
2.025827
31
0.0
0
LINE
8
TOP
10
5.962500
20
2.025827
30
0.0
11
6.075000
21
2.023870
31
0.0
0
LINE
8
TOP
10
6.075000
20
2.023870
30
0.0
11
6.187500
21
2.021912
31
0.0
0
LINE
8
TOP
10
6.187500
20
2.021912
30
0.0
11
6.300000
21
2.019955
31
0.0
0
LINE
8
TOP
10
6.300000
20
2.019955
30
0.0
11
6.412500
21
2.017997
31
0.0
0
LINE
8
TOP
10
6.412500
20
2.017997
30
0.0
11
6.525000
21
2.016040
31
0.0
0
LINE
8
TOP
10
6.525000
20
2.016040
30
0.0
11
6.637500
21
2.014082
31
0.0
0
LINE
8
TOP
10
6.637500
20
2.014082
30
0.0
11
6.750000
21
2.012124
31
0.0
0
LINE
8
TOP
10
6.750000
20
2.012124
30
0.0
11
6.862500
21
2.010167
31
0.0
0
LINE
8
TOP
10
6.862500
20
2.010167
30
0.0
11
6.975000
21
2.008209
31
0.0
0
LINE
8
TOP
10
6.975000
20
2.008209
30
0.0
11
7.087500
21
2.006252
31
0.0
0
LINE
8
TOP
10
7.087500
20
2.006252
30
0.0
11
7.200000
21
2.004294
31
0.0
0
LINE
8
TOP
10
7.200000
20
2.004294
30
0.0
11
7.312500
21
2.002337
31
0.0
0
LINE
8
TOP
10
7.312500
20
2.002337
30
0.0
11
7.425000
21
2.000379
31
0.0
0
LINE
8
TOP
10
7.425000
20
2.000379
30
0.0
11
7.537500
21
1.998421
31
0.0
0
LINE
8
TOP
10
7.537500
20
1.998421
30
0.0
11
7.650000
21
1.996464
31
0.0
0
LINE
8
TOP
10
7.650000
20
1.996464
30
0.0
11
7.762500
21
1.994506
31
0.0
0
LINE
8
TOP
10
7.762500
20
1.994506
30
0.0
11
7.875000
21
1.992549
31
0.0
0
LINE
8
TOP
10
7.875000
20
1.992549
30
0.0
11
7.987500
21
1.990591
31
0.0
0
LINE
8
TOP
10
7.987500
20
1.990591
30
0.0
11
8.100000
21
1.988634
31
0.0
0
LINE
8
TOP
10
8.100000
20
1.988634
30
0.0
11
8.212500
21
1.986676
31
0.0
0
LINE
8
TOP
10
8.212500
20
1.986676
30
0.0
11
8.325000
21
1.984719
31
0.0
0
LINE
8
TOP
10
8.325000
20
1.984719
30
0.0
11
8.437500
21
1.982761
31
0.0
0
LINE
8
TOP
10
8.437500
20
1.982761
30
0.0
11
8.500000
21
1.981673
31
0.0
0
LINE
8
TOP
10
8.500000
20
1.981673
30
0.0
11
8.550000
21
1.980803
31
0.0
0
LINE
8
TOP
10
8.550000
20
1.980803
30
0.0
11
8.662500
21
1.978846
31
0.0
0
LINE
8
TOP
10
8.662500
20
1.978846
30
0.0
11
8.775000
21
1.976888
31
0.0
0
LINE
8
TOP
10
8.775000
20
1.976888
30
0.0
11
8.887500
21
1.974931
31
0.0
0
LINE
8
TOP
10
8.887500
20
1.974931
30
0.0
11
9.000000
21
1.972973
31
0.0
0
LINE
8
TOP
10
0.000000
20
1.709697
30
0.0
11
0.112500
21
1.707739
31
0.0
0
LINE
8
TOP
10
0.112500
20
1.707739
30
0.0
11
0.225000
21
1.705782
31
0.0
0
LINE
8
TOP
10
0.225000
20
1.705782
30
0.0
11
0.337500
21
1.703824
31
0.0
0
LINE
8
TOP
10
0.337500
20
1.703824
30
0.0
11
0.450000
21
1.701867
31
0.0
0
LINE
8
TOP
10
0.450000
20
1.701867
30
0.0
11
0.500000
21
1.700997
31
0.0
0
LINE
8
TOP
10
0.500000
20
1.700997
30
0.0
11
0.562500
21
1.699909
31
0.0
0
LINE
8
TOP
10
0.562500
20
1.699909
30
0.0
11
0.675000
21
1.697951
31
0.0
0
LINE
8
TOP
10
0.675000
20
1.697951
30
0.0
11
0.787500
21
1.695994
31
0.0
0
LINE
8
TOP
10
0.787500
20
1.695994
30
0.0
11
0.900000
21
1.694036
31
0.0
0
LINE
8
TOP
10
0.900000
20
1.694036
30
0.0
11
1.012500
21
1.692079
31
0.0
0
LINE
8
TOP
10
1.012500
20
1.692079
30
0.0
11
1.125000
21
1.690121
31
0.0
0
LINE
8
TOP
10
1.125000
20
1.690121
30
0.0
11
1.237500
21
1.688164
31
0.0
0
LINE
8
TOP
10
1.237500
20
1.688164
30
0.0
11
1.350000
21
1.686206
31
0.0
0
LINE
8
TOP
10
1.350000
20
1.686206
30
0.0
11
1.462500
21
1.684248
31
0.0
0
LINE
8
TOP
10
1.462500
20
1.684248
30
0.0
11
1.575000
21
1.682291
31
0.0
0
LINE
8
TOP
10
1.575000
20
1.682291
30
0.0
11
1.687500
21
1.680333
31
0.0
0
LINE
8
TOP
10
1.687500
20
1.680333
30
0.0
11
1.800000
21
1.678376
31
0.0
0
LINE
8
TOP
10
1.800000
20
1.678376
30
0.0
11
1.912500
21
1.676418
31
0.0
0
LINE
8
TOP
10
1.912500
20
1.676418
30
0.0
11
2.025000
21
1.674461
31
0.0
0
LINE
8
TOP
10
2.025000
20
1.674461
30
0.0
11
2.137500
21
1.672503
31
0.0
0
LINE
8
TOP
10
2.137500
20
1.672503
30
0.0
11
2.250000
21
1.670546
31
0.0
0
LINE
8
TOP
10
2.250000
20
1.670546
30
0.0
11
2.362500
21
1.668588
31
0.0
0
LINE
8
TOP
10
2.362500
20
1.668588
30
0.0
11
2.475000
21
1.666630
31
0.0
0
LINE
8
TOP
10
2.475000
20
1.666630
30
0.0
11
2.587500
21
1.664673
31
0.0
0
LINE
8
TOP
10
2.587500
20
1.664673
30
0.0
11
2.700000
21
1.662715
31
0.0
0
LINE
8
TOP
10
2.700000
20
1.662715
30
0.0
11
2.812500
21
1.660758
31
0.0
0
LINE
8
TOP
10
2.812500
20
1.660758
30
0.0
11
2.925000
21
1.658800
31
0.0
0
LINE
8
TOP
10
2.925000
20
1.658800
30
0.0
11
3.037500
21
1.656843
31
0.0
0
LINE
8
TOP
10
3.037500
20
1.656843
30
0.0
11
3.150000
21
1.654885
31
0.0
0
LINE
8
TOP
10
3.150000
20
1.654885
30
0.0
11
3.262500
21
1.652927
31
0.0
0
LINE
8
TOP
10
3.262500
20
1.652927
30
0.0
11
3.375000
21
1.650970
31
0.0
0
LINE
8
TOP
10
3.375000
20
1.650970
30
0.0
11
3.487500
21
1.649012
31
0.0
0
LINE
8
TOP
10
3.487500
20
1.649012
30
0.0
11
3.600000
21
1.647055
31
0.0
0
LINE
8
TOP
10
3.600000
20
1.647055
30
0.0
11
3.712500
21
1.645097
31
0.0
0
LINE
8
TOP
10
3.712500
20
1.645097
30
0.0
11
3.825000
21
1.643140
31
0.0
0
LINE
8
TOP
10
3.825000
20
1.643140
30
0.0
11
3.937500
21
1.641182
31
0.0
0
LINE
8
TOP
10
3.937500
20
1.641182
30
0.0
11
4.050000
21
1.639225
31
0.0
0
LINE
8
TOP
10
4.050000
20
1.639225
30
0.0
11
4.162500
21
1.637267
31
0.0
0
LINE
8
TOP
10
4.162500
20
1.637267
30
0.0
11
4.275000
21
1.635309
31
0.0
0
LINE
8
TOP
10
4.275000
20
1.635309
30
0.0
11
4.387500
21
1.633352
31
0.0
0
LINE
8
TOP
10
4.387500
20
1.633352
30
0.0
11
4.500000
21
1.631394
31
0.0
0
LINE
8
TOP
10
4.500000
20
1.631394
30
0.0
11
4.612500
21
1.633352
31
0.0
0
LINE
8
TOP
10
4.612500
20
1.633352
30
0.0
11
4.725000
21
1.635309
31
0.0
0
LINE
8
TOP
10
4.725000
20
1.635309
30
0.0
11
4.837500
21
1.637267
31
0.0
0
LINE
8
TOP
10
4.837500
20
1.637267
30
0.0
11
4.950000
21
1.639225
31
0.0
0
LINE
8
TOP
10
4.950000
20
1.639225
30
0.0
11
5.062500
21
1.641182
31
0.0
0
LINE
8
TOP
10
5.062500
20
1.641182
30
0.0
11
5.175000
21
1.643140
31
0.0
0
LINE
8
TOP
10
5.175000
20
1.643140
30
0.0
11
5.287500
21
1.645097
31
0.0
0
LINE
8
TOP
10
5.287500
20
1.645097
30
0.0
11
5.400000
21
1.647055
31
0.0
0
LINE
8
TOP
10
5.400000
20
1.647055
30
0.0
11
5.512500
21
1.649012
31
0.0
0
LINE
8
TOP
10
5.512500
20
1.649012
30
0.0
11
5.625000
21
1.650970
31
0.0
0
LINE
8
TOP
10
5.625000
20
1.650970
30
0.0
11
5.737500
21
1.652927
31
0.0
0
LINE
8
TOP
10
5.737500
20
1.652927
30
0.0
11
5.850000
21
1.654885
31
0.0
0
LINE
8
TOP
10
5.850000
20
1.654885
30
0.0
11
5.962500
21
1.656843
31
0.0
0
LINE
8
TOP
10
5.962500
20
1.656843
30
0.0
11
6.075000
21
1.658800
31
0.0
0
LINE
8
TOP
10
6.075000
20
1.658800
30
0.0
11
6.187500
21
1.660758
31
0.0
0
LINE
8
TOP
10
6.187500
20
1.660758
30
0.0
11
6.300000
21
1.662715
31
0.0
0
LINE
8
TOP
10
6.300000
20
1.662715
30
0.0
11
6.412500
21
1.664673
31
0.0
0
LINE
8
TOP
10
6.412500
20
1.664673
30
0.0
11
6.525000
21
1.666630
31
0.0
0
LINE
8
TOP
10
6.525000
20
1.666630
30
0.0
11
6.637500
21
1.668588
31
0.0
0
LINE
8
TOP
10
6.637500
20
1.668588
30
0.0
11
6.750000
21
1.670546
31
0.0
0
LINE
8
TOP
10
6.750000
20
1.670546
30
0.0
11
6.862500
21
1.672503
31
0.0
0
LINE
8
TOP
10
6.862500
20
1.672503
30
0.0
11
6.975000
21
1.674461
31
0.0
0
LINE
8
TOP
10
6.975000
20
1.674461
30
0.0
11
7.087500
21
1.676418
31
0.0
0
LINE
8
TOP
10
7.087500
20
1.676418
30
0.0
11
7.200000
21
1.678376
31
0.0
0
LINE
8
TOP
10
7.200000
20
1.678376
30
0.0
11
7.312500
21
1.680333
31
0.0
0
LINE
8
TOP
10
7.312500
20
1.680333
30
0.0
11
7.425000
21
1.682291
31
0.0
0
LINE
8
TOP
10
7.425000
20
1.682291
30
0.0
11
7.537500
21
1.684248
31
0.0
0
LINE
8
TOP
10
7.537500
20
1.684248
30
0.0
11
7.650000
21
1.686206
31
0.0
0
LINE
8
TOP
10
7.650000
20
1.686206
30
0.0
11
7.762500
21
1.688164
31
0.0
0
LINE
8
TOP
10
7.762500
20
1.688164
30
0.0
11
7.875000
21
1.690121
31
0.0
0
LINE
8
TOP
10
7.875000
20
1.690121
30
0.0
11
7.987500
21
1.692079
31
0.0
0
LINE
8
TOP
10
7.987500
20
1.692079
30
0.0
11
8.100000
21
1.694036
31
0.0
0
LINE
8
TOP
10
8.100000
20
1.694036
30
0.0
11
8.212500
21
1.695994
31
0.0
0
LINE
8
TOP
10
8.212500
20
1.695994
30
0.0
11
8.325000
21
1.697951
31
0.0
0
LINE
8
TOP
10
8.325000
20
1.697951
30
0.0
11
8.437500
21
1.699909
31
0.0
0
LINE
8
TOP
10
8.437500
20
1.699909
30
0.0
11
8.500000
21
1.700997
31
0.0
0
LINE
8
TOP
10
8.500000
20
1.700997
30
0.0
11
8.550000
21
1.701867
31
0.0
0
LINE
8
TOP
10
8.550000
20
1.701867
30
0.0
11
8.662500
21
1.703824
31
0.0
0
LINE
8
TOP
10
8.662500
20
1.703824
30
0.0
11
8.775000
21
1.705782
31
0.0
0
LINE
8
TOP
10
8.775000
20
1.705782
30
0.0
11
8.887500
21
1.707739
31
0.0
0
LINE
8
TOP
10
8.887500
20
1.707739
30
0.0
11
9.000000
21
1.709697
31
0.0
0
LINE
8
TOP
10
0.000000
20
1.972973
30
0.0
11
0.000000
21
1.709697
31
0.0
0
LINE
8
TOP
10
9.000000
20
1.972973
30
0.0
11
9.000000
21
1.709697
31
0.0
0
LINE
8
SECTION
10
10.290059
20
-0.238120
30
0.0
11
10.709941
21
-0.238120
31
0.0
0
LINE
8
SECTION
10
10.709941
20
-0.238120
30
0.0
11
10.709941
21
0.238120
31
0.0
0
LINE
8
SECTION
10
10.709941
20
0.238120
30
0.0
11
10.290059
21
0.238120
31
0.0
0
LINE
8
SECTION
10
10.290059
20
0.238120
30
0.0
11
10.290059
21
-0.238120
31
0.0
0
LINE
8
SECTION
10
10.352167
20
-0.176012
30
0.0
11
10.647833
21
-0.176012
31
0.0
0
LINE
8
SECTION
10
10.647833
20
-0.176012
30
0.0
11
10.647833
21
0.176012
31
0.0
0
LINE
8
SECTION
10
10.647833
20
0.176012
30
0.0
11
10.352167
21
0.176012
31
0.0
0
LINE
8
SECTION
10
10.352167
20
0.176012
30
0.0
11
10.352167
21
-0.176012
31
0.0
0
LINE
8
SECTION
10
10.352167
20
0.000000
30
0.0
11
10.414274
21
0.000000
31
0.0
0
LINE
8
SECTION
10
10.414274
20
0.000000
30
0.0
11
10.414274
21
0.176012
31
0.0
0
LINE
8
SECTION
10
10.414274
20
0.176012
30
0.0
11
10.352167
21
0.176012
31
0.0
0
LINE
8
SECTION
10
10.352167
20
0.176012
30
0.0
11
10.352167
21
0.000000
31
0.0
0
LINE
8
SECTION
10
10.352167
20
-0.176012
30
0.0
11
10.414274
21
-0.176012
31
0.0
0
LINE
8
SECTION
10
10.414274
20
-0.176012
30
0.0
11
10.414274
21
0.000000
31
0.0
0
LINE
8
SECTION
10
10.414274
20
0.000000
30
0.0
11
10.352167
21
0.000000
31
0.0
0
LINE
8
SECTION
10
10.352167
20
0.000000
30
0.0
11
10.352167
21
-0.176012
31
0.0
0
LINE
8
SECTION
10
10.585726
20
0.000000
30
0.0
11
10.647833
21
0.000000
31
0.0
0
LINE
8
SECTION
10
10.647833
20
0.000000
30
0.0
11
10.647833
21
0.176012
31
0.0
0
LINE
8
SECTION
10
10.647833
20
0.176012
30
0.0
11
10.585726
21
0.176012
31
0.0
0
LINE
8
SECTION
10
10.585726
20
0.176012
30
0.0
11
10.585726
21
0.000000
31
0.0
0
LINE
8
SECTION
10
10.585726
20
-0.176012
30
0.0
11
10.647833
21
-0.176012
31
0.0
0
LINE
8
SECTION
10
10.647833
20
-0.176012
30
0.0
11
10.647833
21
0.000000
31
0.0
0
LINE
8
SECTION
10
10.647833
20
0.000000
30
0.0
11
10.585726
21
0.000000
31
0.0
0
LINE
8
SECTION
10
10.585726
20
0.000000
30
0.0
11
10.585726
21
-0.176012
31
0.0
0
ENDSEC
0
EOF
