0
SECTION
2
HEADER
9
$INSUNITS
70
1
0
ENDSEC
0
SECTION
2
ENTITIES
0
LINE
8
FRONT
10
0.000000
20
0.144570
30
0.0
11
0.112500
21
0.147150
31
0.0
0
LINE
8
FRONT
10
0.112500
20
0.147150
30
0.0
11
0.225000
21
0.149730
31
0.0
0
LINE
8
FRONT
10
0.225000
20
0.149730
30
0.0
11
0.337500
21
0.152310
31
0.0
0
LINE
8
FRONT
10
0.337500
20
0.152310
30
0.0
11
0.450000
21
0.154890
31
0.0
0
LINE
8
FRONT
10
0.450000
20
0.154890
30
0.0
11
0.500000
21
0.156036
31
0.0
0
LINE
8
FRONT
10
0.500000
20
0.156036
30
0.0
11
0.562500
21
0.157470
31
0.0
0
LINE
8
FRONT
10
0.562500
20
0.157470
30
0.0
11
0.675000
21
0.160050
31
0.0
0
LINE
8
FRONT
10
0.675000
20
0.160050
30
0.0
11
0.787500
21
0.162630
31
0.0
0
LINE
8
FRONT
10
0.787500
20
0.162630
30
0.0
11
0.900000
21
0.165210
31
0.0
0
LINE
8
FRONT
10
0.900000
20
0.165210
30
0.0
11
1.012500
21
0.167790
31
0.0
0
LINE
8
FRONT
10
1.012500
20
0.167790
30
0.0
11
1.125000
21
0.170370
31
0.0
0
LINE
8
FRONT
10
1.125000
20
0.170370
30
0.0
11
1.237500
21
0.172950
31
0.0
0
LINE
8
FRONT
10
1.237500
20
0.172950
30
0.0
11
1.350000
21
0.175530
31
0.0
0
LINE
8
FRONT
10
1.350000
20
0.175530
30
0.0
11
1.462500
21
0.178110
31
0.0
0
LINE
8
FRONT
10
1.462500
20
0.178110
30
0.0
11
1.575000
21
0.180690
31
0.0
0
LINE
8
FRONT
10
1.575000
20
0.180690
30
0.0
11
1.687500
21
0.183270
31
0.0
0
LINE
8
FRONT
10
1.687500
20
0.183270
30
0.0
11
1.800000
21
0.185850
31
0.0
0
LINE
8
FRONT
10
1.800000
20
0.185850
30
0.0
11
1.912500
21
0.188430
31
0.0
0
LINE
8
FRONT
10
1.912500
20
0.188430
30
0.0
11
2.025000
21
0.191010
31
0.0
0
LINE
8
FRONT
10
2.025000
20
0.191010
30
0.0
11
2.137500
21
0.193590
31
0.0
0
LINE
8
FRONT
10
2.137500
20
0.193590
30
0.0
11
2.250000
21
0.196170
31
0.0
0
LINE
8
FRONT
10
2.250000
20
0.196170
30
0.0
11
2.362500
21
0.198750
31
0.0
0
LINE
8
FRONT
10
2.362500
20
0.198750
30
0.0
11
2.475000
21
0.201330
31
0.0
0
LINE
8
FRONT
10
2.475000
20
0.201330
30
0.0
11
2.587500
21
0.203910
31
0.0
0
LINE
8
FRONT
10
2.587500
20
0.203910
30
0.0
11
2.700000
21
0.206490
31
0.0
0
LINE
8
FRONT
10
2.700000
20
0.206490
30
0.0
11
2.812500
21
0.209070
31
0.0
0
LINE
8
FRONT
10
2.812500
20
0.209070
30
0.0
11
2.925000
21
0.211650
31
0.0
0
LINE
8
FRONT
10
2.925000
20
0.211650
30
0.0
11
3.037500
21
0.214230
31
0.0
0
LINE
8
FRONT
10
3.037500
20
0.214230
30
0.0
11
3.150000
21
0.216810
31
0.0
0
LINE
8
FRONT
10
3.150000
20
0.216810
30
0.0
11
3.262500
21
0.219390
31
0.0
0
LINE
8
FRONT
10
3.262500
20
0.219390
30
0.0
11
3.375000
21
0.221970
31
0.0
0
LINE
8
FRONT
10
3.375000
20
0.221970
30
0.0
11
3.487500
21
0.224550
31
0.0
0
LINE
8
FRONT
10
3.487500
20
0.224550
30
0.0
11
3.600000
21
0.227130
31
0.0
0
LINE
8
FRONT
10
3.600000
20
0.227130
30
0.0
11
3.712500
21
0.229710
31
0.0
0
LINE
8
FRONT
10
3.712500
20
0.229710
30
0.0
11
3.825000
21
0.232290
31
0.0
0
LINE
8
FRONT
10
3.825000
20
0.232290
30
0.0
11
3.937500
21
0.234870
31
0.0
0
LINE
8
FRONT
10
3.937500
20
0.234870
30
0.0
11
4.050000
21
0.237450
31
0.0
0
LINE
8
FRONT
10
4.050000
20
0.237450
30
0.0
11
4.162500
21
0.240030
31
0.0
0
LINE
8
FRONT
10
4.162500
20
0.240030
30
0.0
11
4.275000
21
0.242610
31
0.0
0
LINE
8
FRONT
10
4.275000
20
0.242610
30
0.0
11
4.387500
21
0.245190
31
0.0
0
LINE
8
FRONT
10
4.387500
20
0.245190
30
0.0
11
4.500000
21
0.247770
31
0.0
0
LINE
8
FRONT
10
4.500000
20
0.247770
30
0.0
11
4.612500
21
0.245190
31
0.0
0
LINE
8
FRONT
10
4.612500
20
0.245190
30
0.0
11
4.725000
21
0.242610
31
0.0
0
LINE
8
FRONT
10
4.725000
20
0.242610
30
0.0
11
4.837500
21
0.240030
31
0.0
0
LINE
8
FRONT
10
4.837500
20
0.240030
30
0.0
11
4.950000
21
0.237450
31
0.0
0
LINE
8
FRONT
10
4.950000
20
0.237450
30
0.0
11
5.062500
21
0.234870
31
0.0
0
LINE
8
FRONT
10
5.062500
20
0.234870
30
0.0
11
5.175000
21
0.232290
31
0.0
0
LINE
8
FRONT
10
5.175000
20
0.232290
30
0.0
11
5.287500
21
0.229710
31
0.0
0
LINE
8
FRONT
10
5.287500
20
0.229710
30
0.0
11
5.400000
21
0.227130
31
0.0
0
LINE
8
FRONT
10
5.400000
20
0.227130
30
0.0
11
5.512500
21
0.224550
31
0.0
0
LINE
8
FRONT
10
5.512500
20
0.224550
30
0.0
11
5.625000
21
0.221970
31
0.0
0
LINE
8
FRONT
10
5.625000
20
0.221970
30
0.0
11
5.737500
21
0.219390
31
0.0
0
LINE
8
FRONT
10
5.737500
20
0.219390
30
0.0
11
5.850000
21
0.216810
31
0.0
0
LINE
8
FRONT
10
5.850000
20
0.216810
30
0.0
11
5.962500
21
0.214230
31
0.0
0
LINE
8
FRONT
10
5.962500
20
0.214230
30
0.0
11
6.075000
21
0.211650
31
0.0
0
LINE
8
FRONT
10
6.075000
20
0.211650
30
0.0
11
6.187500
21
0.209070
31
0.0
0
LINE
8
FRONT
10
6.187500
20
0.209070
30
0.0
11
6.300000
21
0.206490
31
0.0
0
LINE
8
FRONT
10
6.300000
20
0.206490
30
0.0
11
6.412500
21
0.203910
31
0.0
0
LINE
8
FRONT
10
6.412500
20
0.203910
30
0.0
11
6.525000
21
0.201330
31
0.0
0
LINE
8
FRONT
10
6.525000
20
0.201330
30
0.0
11
6.637500
21
0.198750
31
0.0
0
LINE
8
FRONT
10
6.637500
20
0.198750
30
0.0
11
6.750000
21
0.196170
31
0.0
0
LINE
8
FRONT
10
6.750000
20
0.196170
30
0.0
11
6.862500
21
0.193590
31
0.0
0
LINE
8
FRONT
10
6.862500
20
0.193590
30
0.0
11
6.975000
21
0.191010
31
0.0
0
LINE
8
FRONT
10
6.975000
20
0.191010
30
0.0
11
7.087500
21
0.188430
31
0.0
0
LINE
8
FRONT
10
7.087500
20
0.188430
30
0.0
11
7.200000
21
0.185850
31
0.0
0
LINE
8
FRONT
10
7.200000
20
0.185850
30
0.0
11
7.312500
21
0.183270
31
0.0
0
LINE
8
FRONT
10
7.312500
20
0.183270
30
0.0
11
7.425000
21
0.180690
31
0.0
0
LINE
8
FRONT
10
7.425000
20
0.180690
30
0.0
11
7.537500
21
0.178110
31
0.0
0
LINE
8
FRONT
10
7.537500
20
0.178110
30
0.0
11
7.650000
21
0.175530
31
0.0
0
LINE
8
FRONT
10
7.650000
20
0.175530
30
0.0
11
7.762500
21
0.172950
31
0.0
0
LINE
8
FRONT
10
7.762500
20
0.172950
30
0.0
11
7.875000
21
0.170370
31
0.0
0
LINE
8
FRONT
10
7.875000
20
0.170370
30
0.0
11
7.987500
21
0.167790
31
0.0
0
LINE
8
FRONT
10
7.987500
20
0.167790
30
0.0
11
8.100000
21
0.165210
31
0.0
0
LINE
8
FRONT
10
8.100000
20
0.165210
30
0.0
11
8.212500
21
0.162630
31
0.0
0
LINE
8
FRONT
10
8.212500
20
0.162630
30
0.0
11
8.325000
21
0.160050
31
0.0
0
LINE
8
FRONT
10
8.325000
20
0.160050
30
0.0
11
8.437500
21
0.157470
31
0.0
0
LINE
8
FRONT
10
8.437500
20
0.157470
30
0.0
11
8.500000
21
0.156036
31
0.0
0
LINE
8
FRONT
10
8.500000
20
0.156036
30
0.0
11
8.550000
21
0.154890
31
0.0
0
LINE
8
FRONT
10
8.550000
20
0.154890
30
0.0
11
8.662500
21
0.152310
31
0.0
0
LINE
8
FRONT
10
8.662500
20
0.152310
30
0.0
11
8.775000
21
0.149730
31
0.0
0
LINE
8
FRONT
10
8.775000
20
0.149730
30
0.0
11
8.887500
21
0.147150
31
0.0
0
LINE
8
FRONT
10
8.887500
20
0.147150
30
0.0
11
9.000000
21
0.144570
31
0.0
0
LINE
8
FRONT
10
0.000000
20
-0.144570
30
0.0
11
0.112500
21
-0.147150
31
0.0
0
LINE
8
FRONT
10
0.112500
20
-0.147150
30
0.0
11
0.225000
21
-0.149730
31
0.0
0
LINE
8
FRONT
10
0.225000
20
-0.149730
30
0.0
11
0.337500
21
-0.152310
31
0.0
0
LINE
8
FRONT
10
0.337500
20
-0.152310
30
0.0
11
0.450000
21
-0.154890
31
0.0
0
LINE
8
FRONT
10
0.450000
20
-0.154890
30
0.0
11
0.500000
21
-0.156036
31
0.0
0
LINE
8
FRONT
10
0.500000
20
-0.156036
30
0.0
11
0.562500
21
-0.157470
31
0.0
0
LINE
8
FRONT
10
0.562500
20
-0.157470
30
0.0
11
0.675000
21
-0.160050
31
0.0
0
LINE
8
FRONT
10
0.675000
20
-0.160050
30
0.0
11
0.787500
21
-0.162630
31
0.0
0
LINE
8
FRONT
10
0.787500
20
-0.162630
30
0.0
11
0.900000
21
-0.165210
31
0.0
0
LINE
8
FRONT
10
0.900000
20
-0.165210
30
0.0
11
1.012500
21
-0.167790
31
0.0
0
LINE
8
FRONT
10
1.012500
20
-0.167790
30
0.0
11
1.125000
21
-0.170370
31
0.0
0
LINE
8
FRONT
10
1.125000
20
-0.170370
30
0.0
11
1.237500
21
-0.172950
31
0.0
0
LINE
8
FRONT
10
1.237500
20
-0.172950
30
0.0
11
1.350000
21
-0.175530
31
0.0
0
LINE
8
FRONT
10
1.350000
20
-0.175530
30
0.0
11
1.462500
21
-0.178110
31
0.0
0
LINE
8
FRONT
10
1.462500
20
-0.178110
30
0.0
11
1.575000
21
-0.180690
31
0.0
0
LINE
8
FRONT
10
1.575000
20
-0.180690
30
0.0
11
1.687500
21
-0.183270
31
0.0
0
LINE
8
FRONT
10
1.687500
20
-0.183270
30
0.0
11
1.800000
21
-0.185850
31
0.0
0
LINE
8
FRONT
10
1.800000
20
-0.185850
30
0.0
11
1.912500
21
-0.188430
31
0.0
0
LINE
8
FRONT
10
1.912500
20
-0.188430
30
0.0
11
2.025000
21
-0.191010
31
0.0
0
LINE
8
FRONT
10
2.025000
20
-0.191010
30
0.0
11
2.137500
21
-0.193590
31
0.0
0
LINE
8
FRONT
10
2.137500
20
-0.193590
30
0.0
11
2.250000
21
-0.196170
31
0.0
0
LINE
8
FRONT
10
2.250000
20
-0.196170
30
0.0
11
2.362500
21
-0.198750
31
0.0
0
LINE
8
FRONT
10
2.362500
20
-0.198750
30
0.0
11
2.475000
21
-0.201330
31
0.0
0
LINE
8
FRONT
10
2.475000
20
-0.201330
30
0.0
11
2.587500
21
-0.203910
31
0.0
0
LINE
8
FRONT
10
2.587500
20
-0.203910
30
0.0
11
2.700000
21
-0.206490
31
0.0
0
LINE
8
FRONT
10
2.700000
20
-0.206490
30
0.0
11
2.812500
21
-0.209070
31
0.0
0
LINE
8
FRONT
10
2.812500
20
-0.209070
30
0.0
11
2.925000
21
-0.211650
31
0.0
0
LINE
8
FRONT
10
2.925000
20
-0.211650
30
0.0
11
3.037500
21
-0.214230
31
0.0
0
LINE
8
FRONT
10
3.037500
20
-0.214230
30
0.0
11
3.150000
21
-0.216810
31
0.0
0
LINE
8
FRONT
10
3.150000
20
-0.216810
30
0.0
11
3.262500
21
-0.219390
31
0.0
0
LINE
8
FRONT
10
3.262500
20
-0.219390
30
0.0
11
3.375000
21
-0.221970
31
0.0
0
LINE
8
FRONT
10
3.375000
20
-0.221970
30
0.0
11
3.487500
21
-0.224550
31
0.0
0
LINE
8
FRONT
10
3.487500
20
-0.224550
30
0.0
11
3.600000
21
-0.227130
31
0.0
0
LINE
8
FRONT
10
3.600000
20
-0.227130
30
0.0
11
3.712500
21
-0.229710
31
0.0
0
LINE
8
FRONT
10
3.712500
20
-0.229710
30
0.0
11
3.825000
21
-0.232290
31
0.0
0
LINE
8
FRONT
10
3.825000
20
-0.232290
30
0.0
11
3.937500
21
-0.234870
31
0.0
0
LINE
8
FRONT
10
3.937500
20
-0.234870
30
0.0
11
4.050000
21
-0.237450
31
0.0
0
LINE
8
FRONT
10
4.050000
20
-0.237450
30
0.0
11
4.162500
21
-0.240030
31
0.0
0
LINE
8
FRONT
10
4.162500
20
-0.240030
30
0.0
11
4.275000
21
-0.242610
31
0.0
0
LINE
8
FRONT
10
4.275000
20
-0.242610
30
0.0
11
4.387500
21
-0.245190
31
0.0
0
LINE
8
FRONT
10
4.387500
20
-0.245190
30
0.0
11
4.500000
21
-0.247770
31
0.0
0
LINE
8
FRONT
10
4.500000
20
-0.247770
30
0.0
11
4.612500
21
-0.245190
31
0.0
0
LINE
8
FRONT
10
4.612500
20
-0.245190
30
0.0
11
4.725000
21
-0.242610
31
0.0
0
LINE
8
FRONT
10
4.725000
20
-0.242610
30
0.0
11
4.837500
21
-0.240030
31
0.0
0
LINE
8
FRONT
10
4.837500
20
-0.240030
30
0.0
11
4.950000
21
-0.237450
31
0.0
0
LINE
8
FRONT
10
4.950000
20
-0.237450
30
0.0
11
5.062500
21
-0.234870
31
0.0
0
LINE
8
FRONT
10
5.062500
20
-0.234870
30
0.0
11
5.175000
21
-0.232290
31
0.0
0
LINE
8
FRONT
10
5.175000
20
-0.232290
30
0.0
11
5.287500
21
-0.229710
31
0.0
0
LINE
8
FRONT
10
5.287500
20
-0.229710
30
0.0
11
5.400000
21
-0.227130
31
0.0
0
LINE
8
FRONT
10
5.400000
20
-0.227130
30
0.0
11
5.512500
21
-0.224550
31
0.0
0
LINE
8
FRONT
10
5.512500
20
-0.224550
30
0.0
11
5.625000
21
-0.221970
31
0.0
0
LINE
8
FRONT
10
5.625000
20
-0.221970
30
0.0
11
5.737500
21
-0.219390
31
0.0
0
LINE
8
FRONT
10
5.737500
20
-0.219390
30
0.0
11
5.850000
21
-0.216810
31
0.0
0
LINE
8
FRONT
10
5.850000
20
-0.216810
30
0.0
11
5.962500
21
-0.214230
31
0.0
0
LINE
8
FRONT
10
5.962500
20
-0.214230
30
0.0
11
6.075000
21
-0.211650
31
0.0
0
LINE
8
FRONT
10
6.075000
20
-0.211650
30
0.0
11
6.187500
21
-0.209070
31
0.0
0
LINE
8
FRONT
10
6.187500
20
-0.209070
30
0.0
11
6.300000
21
-0.206490
31
0.0
0
LINE
8
FRONT
10
6.300000
20
-0.206490
30
0.0
11
6.412500
21
-0.203910
31
0.0
0
LINE
8
FRONT
10
6.412500
20
-0.203910
30
0.0
11
6.525000
21
-0.201330
31
0.0
0
LINE
8
FRONT
10
6.525000
20
-0.201330
30
0.0
11
6.637500
21
-0.198750
31
0.0
0
LINE
8
FRONT
10
6.637500
20
-0.198750
30
0.0
11
6.750000
21
-0.196170
31
0.0
0
LINE
8
FRONT
10
6.750000
20
-0.196170
30
0.0
11
6.862500
21
-0.193590
31
0.0
0
LINE
8
FRONT
10
6.862500
20
-0.193590
30
0.0
11
6.975000
21
-0.191010
31
0.0
0
LINE
8
FRONT
10
6.975000
20
-0.191010
30
0.0
11
7.087500
21
-0.188430
31
0.0
0
LINE
8
FRONT
10
7.087500
20
-0.188430
30
0.0
11
7.200000
21
-0.185850
31
0.0
0
LINE
8
FRONT
10
7.200000
20
-0.185850
30
0.0
11
7.312500
21
-0.183270
31
0.0
0
LINE
8
FRONT
10
7.312500
20
-0.183270
30
0.0
11
7.425000
21
-0.180690
31
0.0
0
LINE
8
FRONT
10
7.425000
20
-0.180690
30
0.0
11
7.537500
21
-0.178110
31
0.0
0
LINE
8
FRONT
10
7.537500
20
-0.178110
30
0.0
11
7.650000
21
-0.175530
31
0.0
0
LINE
8
FRONT
10
7.650000
20
-0.175530
30
0.0
11
7.762500
21
-0.172950
31
0.0
0
LINE
8
FRONT
10
7.762500
20
-0.172950
30
0.0
11
7.875000
21
-0.170370
31
0.0
0
LINE
8
FRONT
10
7.875000
20
-0.170370
30
0.0
11
7.987500
21
-0.167790
31
0.0
0
LINE
8
FRONT
10
7.987500
20
-0.167790
30
0.0
11
8.100000
21
-0.165210
31
0.0
0
LINE
8
FRONT
10
8.100000
20
-0.165210
30
0.0
11
8.212500
21
-0.162630
31
0.0
0
LINE
8
FRONT
10
8.212500
20
-0.162630
30
0.0
11
8.325000
21
-0.160050
31
0.0
0
LINE
8
FRONT
10
8.325000
20
-0.160050
30
0.0
11
8.437500
21
-0.157470
31
0.0
0
LINE
8
FRONT
10
8.437500
20
-0.157470
30
0.0
11
8.500000
21
-0.156036
31
0.0
0
LINE
8
FRONT
10
8.500000
20
-0.156036
30
0.0
11
8.550000
21
-0.154890
31
0.0
0
LINE
8
FRONT
10
8.550000
20
-0.154890
30
0.0
11
8.662500
21
-0.152310
31
0.0
0
LINE
8
FRONT
10
8.662500
20
-0.152310
30
0.0
11
8.775000
21
-0.149730
31
0.0
0
LINE
8
FRONT
10
8.775000
20
-0.149730
30
0.0
11
8.887500
21
-0.147150
31
0.0
0
LINE
8
FRONT
10
8.887500
20
-0.147150
30
0.0
11
9.000000
21
-0.144570
31
0.0
0
LINE
8
FRONT
10
0.000000
20
0.144570
30
0.0
11
0.000000
21
-0.144570
31
0.0
0
LINE
8
FRONT
10
9.000000
20
0.144570
30
0.0
11
9.000000
21
-0.144570
31
0.0
0
LINE
8
TOP
10
0.000000
20
1.954036
30
0.0
11
0.112500
21
1.952897
31
0.0
0
LINE
8
TOP
10
0.112500
20
1.952897
30
0.0
11
0.225000
21
1.951758
31
0.0
0
LINE
8
TOP
10
0.225000
20
1.951758
30
0.0
11
0.337500
21
1.950619
31
0.0
0
LINE
8
TOP
10
0.337500
20
1.950619
30
0.0
11
0.450000
21
1.949479
31
0.0
0
LINE
8
TOP
10
0.450000
20
1.949479
30
0.0
11
0.500000
21
1.948973
31
0.0
0
LINE
8
TOP
10
0.500000
20
1.948973
30
0.0
11
0.562500
21
1.948340
31
0.0
0
LINE
8
TOP
10
0.562500
20
1.948340
30
0.0
11
0.675000
21
1.947201
31
0.0
0
LINE
8
TOP
10
0.675000
20
1.947201
30
0.0
11
0.787500
21
1.946062
31
0.0
0
LINE
8
TOP
10
0.787500
20
1.946062
30
0.0
11
0.900000
21
1.944923
31
0.0
0
LINE
8
TOP
10
0.900000
20
1.944923
30
0.0
11
1.012500
21
1.943783
31
0.0
0
LINE
8
TOP
10
1.012500
20
1.943783
30
0.0
11
1.125000
21
1.942644
31
0.0
0
LINE
8
TOP
10
1.125000
20
1.942644
30
0.0
11
1.237500
21
1.941505
31
0.0
0
LINE
8
TOP
10
1.237500
20
1.941505
30
0.0
11
1.350000
21
1.940366
31
0.0
0
LINE
8
TOP
10
1.350000
20
1.940366
30
0.0
11
1.462500
21
1.939227
31
0.0
0
LINE
8
TOP
10
1.462500
20
1.939227
30
0.0
11
1.575000
21
1.938088
31
0.0
0
LINE
8
TOP
10
1.575000
20
1.938088
30
0.0
11
1.687500
21
1.936948
31
0.0
0
LINE
8
TOP
10
1.687500
20
1.936948
30
0.0
11
1.800000
21
1.935809
31
0.0
0
LINE
8
TOP
10
1.800000
20
1.935809
30
0.0
11
1.912500
21
1.934670
31
0.0
0
LINE
8
TOP
10
1.912500
20
1.934670
30
0.0
11
2.025000
21
1.933531
31
0.0
0
LINE
8
TOP
10
2.025000
20
1.933531
30
0.0
11
2.137500
21
1.932392
31
0.0
0
LINE
8
TOP
10
2.137500
20
1.932392
30
0.0
11
2.250000
21
1.931252
31
0.0
0
LINE
8
TOP
10
2.250000
20
1.931252
30
0.0
11
2.362500
21
1.930113
31
0.0
0
LINE
8
TOP
10
2.362500
20
1.930113
30
0.0
11
2.475000
21
1.928974
31
0.0
0
LINE
8
TOP
10
2.475000
20
1.928974
30
0.0
11
2.587500
21
1.927835
31
0.0
0
LINE
8
TOP
10
2.587500
20
1.927835
30
0.0
11
2.700000
21
1.926696
31
0.0
0
LINE
8
TOP
10
2.700000
20
1.926696
30
0.0
11
2.812500
21
1.925556
31
0.0
0
LINE
8
TOP
10
2.812500
20
1.925556
30
0.0
11
2.925000
21
1.924417
31
0.0
0
LINE
8
TOP
10
2.925000
20
1.924417
30
0.0
11
3.037500
21
1.923278
31
0.0
0
LINE
8
TOP
10
3.037500
20
1.923278
30
0.0
11
3.150000
21
1.922139
31
0.0
0
LINE
8
TOP
10
3.150000
20
1.922139
30
0.0
11
3.262500
21
1.921000
31
0.0
0
LINE
8
TOP
10
3.262500
20
1.921000
30
0.0
11
3.375000
21
1.919860
31
0.0
0
LINE
8
TOP
10
3.375000
20
1.919860
30
0.0
11
3.487500
21
1.918721
31
0.0
0
LINE
8
TOP
10
3.487500
20
1.918721
30
0.0
11
3.600000
21
1.917582
31
0.0
0
LINE
8
TOP
10
3.600000
20
1.917582
30
0.0
11
3.712500
21
1.916443
31
0.0
0
LINE
8
TOP
10
3.712500
20
1.916443
30
0.0
11
3.825000
21
1.915304
31
0.0
0
LINE
8
TOP
10
3.825000
20
1.915304
30
0.0
11
3.937500
21
1.914164
31
0.0
0
LINE
8
TOP
10
3.937500
20
1.914164
30
0.0
11
4.050000
21
1.913025
31
0.0
0
LINE
8
TOP
10
4.050000
20
1.913025
30
0.0
11
4.162500
21
1.911886
31
0.0
0
LINE
8
TOP
10
4.162500
20
1.911886
30
0.0
11
4.275000
21
1.910747
31
0.0
0
LINE
8
TOP
10
4.275000
20
1.910747
30
0.0
11
4.387500
21
1.909608
31
0.0
0
LINE
8
TOP
10
4.387500
20
1.909608
30
0.0
11
4.500000
21
1.908469
31
0.0
0
LINE
8
TOP
10
4.500000
20
1.908469
30
0.0
11
4.612500
21
1.909608
31
0.0
0
LINE
8
TOP
10
4.612500
20
1.909608
30
0.0
11
4.725000
21
1.910747
31
0.0
0
LINE
8
TOP
10
4.725000
20
1.910747
30
0.0
11
4.837500
21
1.911886
31
0.0
0
LINE
8
TOP
10
4.837500
20
1.911886
30
0.0
11
4.950000
21
1.913025
31
0.0
0
LINE
8
TOP
10
4.950000
20
1.913025
30
0.0
11
5.062500
21
1.914164
31
0.0
0
LINE
8
TOP
10
5.062500
20
1.914164
30
0.0
11
5.175000
21
1.915304
31
0.0
0
LINE
8
TOP
10
5.175000
20
1.915304
30
0.0
11
5.287500
21
1.916443
31
0.0
0
LINE
8
TOP
10
5.287500
20
1.916443
30
0.0
11
5.400000
21
1.917582
31
0.0
0
LINE
8
TOP
10
5.400000
20
1.917582
30
0.0
11
5.512500
21
1.918721
31
0.0
0
LINE
8
TOP
10
5.512500
20
1.918721
30
0.0
11
5.625000
21
1.919860
31
0.0
0
LINE
8
TOP
10
5.625000
20
1.919860
30
0.0
11
5.737500
21
1.921000
31
0.0
0
LINE
8
TOP
10
5.737500
20
1.921000
30
0.0
11
5.850000
21
1.922139
31
0.0
0
LINE
8
TOP
10
5.850000
20
1.922139
30
0.0
11
5.962500
21
1.923278
31
0.0
0
LINE
8
TOP
10
5.962500
20
1.923278
30
0.0
11
6.075000
21
1.924417
31
0.0
0
LINE
8
TOP
10
6.075000
20
1.924417
30
0.0
11
6.187500
21
1.925556
31
0.0
0
LINE
8
TOP
10
6.187500
20
1.925556
30
0.0
11
6.300000
21
1.926696
31
0.0
0
LINE
8
TOP
10
6.300000
20
1.926696
30
0.0
11
6.412500
21
1.927835
31
0.0
0
LINE
8
TOP
10
6.412500
20
1.927835
30
0.0
11
6.525000
21
1.928974
31
0.0
0
LINE
8
TOP
10
6.525000
20
1.928974
30
0.0
11
6.637500
21
1.930113
31
0.0
0
LINE
8
TOP
10
6.637500
20
1.930113
30
0.0
11
6.750000
21
1.931252
31
0.0
0
LINE
8
TOP
10
6.750000
20
1.931252
30
0.0
11
6.862500
21
1.932392
31
0.0
0
LINE
8
TOP
10
6.862500
20
1.932392
30
0.0
11
6.975000
21
1.933531
31
0.0
0
LINE
8
TOP
10
6.975000
20
1.933531
30
0.0
11
7.087500
21
1.934670
31
0.0
0
LINE
8
TOP
10
7.087500
20
1.934670
30
0.0
11
7.200000
21
1.935809
31
0.0
0
LINE
8
TOP
10
7.200000
20
1.935809
30
0.0
11
7.312500
21
1.936948
31
0.0
0
LINE
8
TOP
10
7.312500
20
1.936948
30
0.0
11
7.425000
21
1.938088
31
0.0
0
LINE
8
TOP
10
7.425000
20
1.938088
30
0.0
11
7.537500
21
1.939227
31
0.0
0
LINE
8
TOP
10
7.537500
20
1.939227
30
0.0
11
7.650000
21
1.940366
31
0.0
0
LINE
8
TOP
10
7.650000
20
1.940366
30
0.0
11
7.762500
21
1.941505
31
0.0
0
LINE
8
TOP
10
7.762500
20
1.941505
30
0.0
11
7.875000
21
1.942644
31
0.0
0
LINE
8
TOP
10
7.875000
20
1.942644
30
0.0
11
7.987500
21
1.943783
31
0.0
0
LINE
8
TOP
10
7.987500
20
1.943783
30
0.0
11
8.100000
21
1.944923
31
0.0
0
LINE
8
TOP
10
8.100000
20
1.944923
30
0.0
11
8.212500
21
1.946062
31
0.0
0
LINE
8
TOP
10
8.212500
20
1.946062
30
0.0
11
8.325000
21
1.947201
31
0.0
0
LINE
8
TOP
10
8.325000
20
1.947201
30
0.0
11
8.437500
21
1.948340
31
0.0
0
LINE
8
TOP
10
8.437500
20
1.948340
30
0.0
11
8.500000
21
1.948973
31
0.0
0
LINE
8
TOP
10
8.500000
20
1.948973
30
0.0
11
8.550000
21
1.949479
31
0.0
0
LINE
8
TOP
10
8.550000
20
1.949479
30
0.0
11
8.662500
21
1.950619
31
0.0
0
LINE
8
TOP
10
8.662500
20
1.950619
30
0.0
11
8.775000
21
1.951758
31
0.0
0
LINE
8
TOP
10
8.775000
20
1.951758
30
0.0
11
8.887500
21
1.952897
31
0.0
0
LINE
8
TOP
10
8.887500
20
1.952897
30
0.0
11
9.000000
21
1.954036
31
0.0
0
LINE
8
TOP
10
0.000000
20
1.352018
30
0.0
11
0.112500
21
1.353157
31
0.0
0
LINE
8
TOP
10
0.112500
20
1.353157
30
0.0
11
0.225000
21
1.354296
31
0.0
0
LINE
8
TOP
10
0.225000
20
1.354296
30
0.0
11
0.337500
21
1.355436
31
0.0
0
LINE
8
TOP
10
0.337500
20
1.355436
30
0.0
11
0.450000
21
1.356575
31
0.0
0
LINE
8
TOP
10
0.450000
20
1.356575
30
0.0
11
0.500000
21
1.357081
31
0.0
0
LINE
8
TOP
10
0.500000
20
1.357081
30
0.0
11
0.562500
21
1.357714
31
0.0
0
LINE
8
TOP
10
0.562500
20
1.357714
30
0.0
11
0.675000
21
1.358853
31
0.0
0
LINE
8
TOP
10
0.675000
20
1.358853
30
0.0
11
0.787500
21
1.359992
31
0.0
0
LINE
8
TOP
10
0.787500
20
1.359992
30
0.0
11
0.900000
21
1.361132
31
0.0
0
LINE
8
TOP
10
0.900000
20
1.361132
30
0.0
11
1.012500
21
1.362271
31
0.0
0
LINE
8
TOP
10
1.012500
20
1.362271
30
0.0
11
1.125000
21
1.363410
31
0.0
0
LINE
8
TOP
10
1.125000
20
1.363410
30
0.0
11
1.237500
21
1.364549
31
0.0
0
LINE
8
TOP
10
1.237500
20
1.364549
30
0.0
11
1.350000
21
1.365688
31
0.0
0
LINE
8
TOP
10
1.350000
20
1.365688
30
0.0
11
1.462500
21
1.366828
31
0.0
0
LINE
8
TOP
10
1.462500
20
1.366828
30
0.0
11
1.575000
21
1.367967
31
0.0
0
LINE
8
TOP
10
1.575000
20
1.367967
30
0.0
11
1.687500
21
1.369106
31
0.0
0
LINE
8
TOP
10
1.687500
20
1.369106
30
0.0
11
1.800000
21
1.370245
31
0.0
0
LINE
8
TOP
10
1.800000
20
1.370245
30
0.0
11
1.912500
21
1.371384
31
0.0
0
LINE
8
TOP
10
1.912500
20
1.371384
30
0.0
11
2.025000
21
1.372524
31
0.0
0
LINE
8
TOP
10
2.025000
20
1.372524
30
0.0
11
2.137500
21
1.373663
31
0.0
0
LINE
8
TOP
10
2.137500
20
1.373663
30
0.0
11
2.250000
21
1.374802
31
0.0
0
LINE
8
TOP
10
2.250000
20
1.374802
30
0.0
11
2.362500
21
1.375941
31
0.0
0
LINE
8
TOP
10
2.362500
20
1.375941
30
0.0
11
2.475000
21
1.377080
31
0.0
0
LINE
8
TOP
10
2.475000
20
1.377080
30
0.0
11
2.587500
21
1.378219
31
0.0
0
LINE
8
TOP
10
2.587500
20
1.378219
30
0.0
11
2.700000
21
1.379359
31
0.0
0
LINE
8
TOP
10
2.700000
20
1.379359
30
0.0
11
2.812500
21
1.380498
31
0.0
0
LINE
8
TOP
10
2.812500
20
1.380498
30
0.0
11
2.925000
21
1.381637
31
0.0
0
LINE
8
TOP
10
2.925000
20
1.381637
30
0.0
11
3.037500
21
1.382776
31
0.0
0
LINE
8
TOP
10
3.037500
20
1.382776
30
0.0
11
3.150000
21
1.383915
31
0.0
0
LINE
8
TOP
10
3.150000
20
1.383915
30
0.0
11
3.262500
21
1.385055
31
0.0
0
LINE
8
TOP
10
3.262500
20
1.385055
30
0.0
11
3.375000
21
1.386194
31
0.0
0
LINE
8
TOP
10
3.375000
20
1.386194
30
0.0
11
3.487500
21
1.387333
31
0.0
0
LINE
8
TOP
10
3.487500
20
1.387333
30
0.0
11
3.600000
21
1.388472
31
0.0
0
LINE
8
TOP
10
3.600000
20
1.388472
30
0.0
11
3.712500
21
1.389611
31
0.0
0
LINE
8
TOP
10
3.712500
20
1.389611
30
0.0
11
3.825000
21
1.390751
31
0.0
0
LINE
8
TOP
10
3.825000
20
1.390751
30
0.0
11
3.937500
21
1.391890
31
0.0
0
LINE
8
TOP
10
3.937500
20
1.391890
30
0.0
11
4.050000
21
1.393029
31
0.0
0
LINE
8
TOP
10
4.050000
20
1.393029
30
0.0
11
4.162500
21
1.394168
31
0.0
0
LINE
8
TOP
10
4.162500
20
1.394168
30
0.0
11
4.275000
21
1.395307
31
0.0
0
LINE
8
TOP
10
4.275000
20
1.395307
30
0.0
11
4.387500
21
1.396447
31
0.0
0
LINE
8
TOP
10
4.387500
20
1.396447
30
0.0
11
4.500000
21
1.397586
31
0.0
0
LINE
8
TOP
10
4.500000
20
1.397586
30
0.0
11
4.612500
21
1.396447
31
0.0
0
LINE
8
TOP
10
4.612500
20
1.396447
30
0.0
11
4.725000
21
1.395307
31
0.0
0
LINE
8
TOP
10
4.725000
20
1.395307
30
0.0
11
4.837500
21
1.394168
31
0.0
0
LINE
8
TOP
10
4.837500
20
1.394168
30
0.0
11
4.950000
21
1.393029
31
0.0
0
LINE
8
TOP
10
4.950000
20
1.393029
30
0.0
11
5.062500
21
1.391890
31
0.0
0
LINE
8
TOP
10
5.062500
20
1.391890
30
0.0
11
5.175000
21
1.390751
31
0.0
0
LINE
8
TOP
10
5.175000
20
1.390751
30
0.0
11
5.287500
21
1.389611
31
0.0
0
LINE
8
TOP
10
5.287500
20
1.389611
30
0.0
11
5.400000
21
1.388472
31
0.0
0
LINE
8
TOP
10
5.400000
20
1.388472
30
0.0
11
5.512500
21
1.387333
31
0.0
0
LINE
8
TOP
10
5.512500
20
1.387333
30
0.0
11
5.625000
21
1.386194
31
0.0
0
LINE
8
TOP
10
5.625000
20
1.386194
30
0.0
11
5.737500
21
1.385055
31
0.0
0
LINE
8
TOP
10
5.737500
20
1.385055
30
0.0
11
5.850000
21
1.383915
31
0.0
0
LINE
8
TOP
10
5.850000
20
1.383915
30
0.0
11
5.962500
21
1.382776
31
0.0
0
LINE
8
TOP
10
5.962500
20
1.382776
30
0.0
11
6.075000
21
1.381637
31
0.0
0
LINE
8
TOP
10
6.075000
20
1.381637
30
0.0
11
6.187500
21
1.380498
31
0.0
0
LINE
8
TOP
10
6.187500
20
1.380498
30
0.0
11
6.300000
21
1.379359
31
0.0
0
LINE
8
TOP
10
6.300000
20
1.379359
30
0.0
11
6.412500
21
1.378219
31
0.0
0
LINE
8
TOP
10
6.412500
20
1.378219
30
0.0
11
6.525000
21
1.377080
31
0.0
0
LINE
8
TOP
10
6.525000
20
1.377080
30
0.0
11
6.637500
21
1.375941
31
0.0
0
LINE
8
TOP
10
6.637500
20
1.375941
30
0.0
11
6.750000
21
1.374802
31
0.0
0
LINE
8
TOP
10
6.750000
20
1.374802
30
0.0
11
6.862500
21
1.373663
31
0.0
0
LINE
8
TOP
10
6.862500
20
1.373663
30
0.0
11
6.975000
21
1.372524
31
0.0
0
LINE
8
TOP
10
6.975000
20
1.372524
30
0.0
11
7.087500
21
1.371384
31
0.0
0
LINE
8
TOP
10
7.087500
20
1.371384
30
0.0
11
7.200000
21
1.370245
31
0.0
0
LINE
8
TOP
10
7.200000
20
1.370245
30
0.0
11
7.312500
21
1.369106
31
0.0
0
LINE
8
TOP
10
7.312500
20
1.369106
30
0.0
11
7.425000
21
1.367967
31
0.0
0
LINE
8
TOP
10
7.425000
20
1.367967
30
0.0
11
7.537500
21
1.366828
31
0.0
0
LINE
8
TOP
10
7.537500
20
1.366828
30
0.0
11
7.650000
21
1.365688
31
0.0
0
LINE
8
TOP
10
7.650000
20
1.365688
30
0.0
11
7.762500
21
1.364549
31
0.0
0
LINE
8
TOP
10
7.762500
20
1.364549
30
0.0
11
7.875000
21
1.363410
31
0.0
0
LINE
8
TOP
10
7.875000
20
1.363410
30
0.0
11
7.987500
21
1.362271
31
0.0
0
LINE
8
TOP
10
7.987500
20
1.362271
30
0.0
11
8.100000
21
1.361132
31
0.0
0
LINE
8
TOP
10
8.100000
20
1.361132
30
0.0
11
8.212500
21
1.359992
31
0.0
0
LINE
8
TOP
10
8.212500
20
1.359992
30
0.0
11
8.325000
21
1.358853
31
0.0
0
LINE
8
TOP
10
8.325000
20
1.358853
30
0.0
11
8.437500
21
1.357714
31
0.0
0
LINE
8
TOP
10
8.437500
20
1.357714
30
0.0
11
8.500000
21
1.357081
31
0.0
0
LINE
8
TOP
10
8.500000
20
1.357081
30
0.0
11
8.550000
21
1.356575
31
0.0
0
LINE
8
TOP
10
8.550000
20
1.356575
30
0.0
11
8.662500
21
1.355436
31
0.0
0
LINE
8
TOP
10
8.662500
20
1.355436
30
0.0
11
8.775000
21
1.354296
31
0.0
0
LINE
8
TOP
10
8.775000
20
1.354296
30
0.0
11
8.887500
21
1.353157
31
0.0
0
LINE
8
TOP
10
8.887500
20
1.353157
30
0.0
11
9.000000
21
1.352018
31
0.0
0
LINE
8
TOP
10
0.000000
20
1.954036
30
0.0
11
0.000000
21
1.352018
31
0.0
0
LINE
8
TOP
10
9.000000
20
1.954036
30
0.0
11
9.000000
21
1.352018
31
0.0
0
LINE
8
SECTION
10
10.244559
20
-0.247770
30
0.0
11
10.755441
21
-0.247770
31
0.0
0
LINE
8
SECTION
10
10.755441
20
-0.247770
30
0.0
11
10.755441
21
0.247770
31
0.0
0
LINE
8
SECTION
10
10.755441
20
0.247770
30
0.0
11
10.244559
21
0.247770
31
0.0
0
LINE
8
SECTION
10
10.244559
20
0.247770
30
0.0
11
10.244559
21
-0.247770
31
0.0
0
LINE
8
SECTION
10
10.284559
20
-0.207770
30
0.0
11
10.715441
21
-0.207770
31
0.0
0
LINE
8
SECTION
10
10.715441
20
-0.207770
30
0.0
11
10.715441
21
0.207770
31
0.0
0
LINE
8
SECTION
10
10.715441
20
0.207770
30
0.0
11
10.284559
21
0.207770
31
0.0
0
LINE
8
SECTION
10
10.284559
20
0.207770
30
0.0
11
10.284559
21
-0.207770
31
0.0
0
LINE
8
SECTION
10
10.284559
20
0.000000
30
0.0
11
10.324559
21
0.000000
31
0.0
0
LINE
8
SECTION
10
10.324559
20
0.000000
30
0.0
11
10.324559
21
0.207770
31
0.0
0
LINE
8
SECTION
10
10.324559
20
0.207770
30
0.0
11
10.284559
21
0.207770
31
0.0
0
LINE
8
SECTION
10
10.284559
20
0.207770
30
0.0
11
10.284559
21
0.000000
31
0.0
0
LINE
8
SECTION
10
10.284559
20
-0.207770
30
0.0
11
10.324559
21
-0.207770
31
0.0
0
LINE
8
SECTION
10
10.324559
20
-0.207770
30
0.0
11
10.324559
21
0.000000
31
0.0
0
LINE
8
SECTION
10
10.324559
20
0.000000
30
0.0
11
10.284559
21
0.000000
31
0.0
0
LINE
8
SECTION
10
10.284559
20
0.000000
30
0.0
11
10.284559
21
-0.207770
31
0.0
0
LINE
8
SECTION
10
10.675441
20
0.000000
30
0.0
11
10.715441
21
0.000000
31
0.0
0
LINE
8
SECTION
10
10.715441
20
0.000000
30
0.0
11
10.715441
21
0.207770
31
0.0
0
LINE
8
SECTION
10
10.715441
20
0.207770
30
0.0
11
10.675441
21
0.207770
31
0.0
0
LINE
8
SECTION
10
10.675441
20
0.207770
30
0.0
11
10.675441
21
0.000000
31
0.0
0
LINE
8
SECTION
10
10.675441
20
-0.207770
30
0.0
11
10.715441
21
-0.207770
31
0.0
0
LINE
8
SECTION
10
10.715441
20
-0.207770
30
0.0
11
10.715441
21
0.000000
31
0.0
0
LINE
8
SECTION
10
10.715441
20
0.000000
30
0.0
11
10.675441
21
0.000000
31
0.0
0
LINE
8
SECTION
10
10.675441
20
0.000000
30
0.0
11
10.675441
21
-0.207770
31
0.0
0
ENDSEC
0
EOF
