0
SECTION
2
HEADER
9
$INSUNITS
70
1
0
ENDSEC
0
SECTION
2
ENTITIES
0
LINE
8
FRONT
10
0.000000
20
0.395307
30
0.0
11
0.112500
21
0.391425
31
0.0
0
LINE
8
FRONT
10
0.112500
20
0.391425
30
0.0
11
0.225000
21
0.387542
31
0.0
0
LINE
8
FRONT
10
0.225000
20
0.387542
30
0.0
11
0.337500
21
0.383659
31
0.0
0
LINE
8
FRONT
10
0.337500
20
0.383659
30
0.0
11
0.450000
21
0.379777
31
0.0
0
LINE
8
FRONT
10
0.450000
20
0.379777
30
0.0
11
0.500000
21
0.378051
31
0.0
0
LINE
8
FRONT
10
0.500000
20
0.378051
30
0.0
11
0.562500
21
0.375894
31
0.0
0
LINE
8
FRONT
10
0.562500
20
0.375894
30
0.0
11
0.675000
21
0.372011
31
0.0
0
LINE
8
FRONT
10
0.675000
20
0.372011
30
0.0
11
0.787500
21
0.368129
31
0.0
0
LINE
8
FRONT
10
0.787500
20
0.368129
30
0.0
11
0.900000
21
0.364246
31
0.0
0
LINE
8
FRONT
10
0.900000
20
0.364246
30
0.0
11
1.012500
21
0.360363
31
0.0
0
LINE
8
FRONT
10
1.012500
20
0.360363
30
0.0
11
1.125000
21
0.356480
31
0.0
0
LINE
8
FRONT
10
1.125000
20
0.356480
30
0.0
11
1.237500
21
0.352598
31
0.0
0
LINE
8
FRONT
10
1.237500
20
0.352598
30
0.0
11
1.350000
21
0.348715
31
0.0
0
LINE
8
FRONT
10
1.350000
20
0.348715
30
0.0
11
1.462500
21
0.344832
31
0.0
0
LINE
8
FRONT
10
1.462500
20
0.344832
30
0.0
11
1.575000
21
0.340950
31
0.0
0
LINE
8
FRONT
10
1.575000
20
0.340950
30
0.0
11
1.687500
21
0.337067
31
0.0
0
LINE
8
FRONT
10
1.687500
20
0.337067
30
0.0
11
1.800000
21
0.333184
31
0.0
0
LINE
8
FRONT
10
1.800000
20
0.333184
30
0.0
11
1.912500
21
0.329302
31
0.0
0
LINE
8
FRONT
10
1.912500
20
0.329302
30
0.0
11
2.025000
21
0.325419
31
0.0
0
LINE
8
FRONT
10
2.025000
20
0.325419
30
0.0
11
2.137500
21
0.321536
31
0.0
0
LINE
8
FRONT
10
2.137500
20
0.321536
30
0.0
11
2.250000
21
0.317654
31
0.0
0
LINE
8
FRONT
10
2.250000
20
0.317654
30
0.0
11
2.362500
21
0.313771
31
0.0
0
LINE
8
FRONT
10
2.362500
20
0.313771
30
0.0
11
2.475000
21
0.309888
31
0.0
0
LINE
8
FRONT
10
2.475000
20
0.309888
30
0.0
11
2.587500
21
0.306006
31
0.0
0
LINE
8
FRONT
10
2.587500
20
0.306006
30
0.0
11
2.700000
21
0.302123
31
0.0
0
LINE
8
FRONT
10
2.700000
20
0.302123
30
0.0
11
2.812500
21
0.298240
31
0.0
0
LINE
8
FRONT
10
2.812500
20
0.298240
30
0.0
11
2.925000
21
0.294358
31
0.0
0
LINE
8
FRONT
10
2.925000
20
0.294358
30
0.0
11
3.037500
21
0.290475
31
0.0
0
LINE
8
FRONT
10
3.037500
20
0.290475
30
0.0
11
3.150000
21
0.286592
31
0.0
0
LINE
8
FRONT
10
3.150000
20
0.286592
30
0.0
11
3.262500
21
0.282710
31
0.0
0
LINE
8
FRONT
10
3.262500
20
0.282710
30
0.0
11
3.375000
21
0.278827
31
0.0
0
LINE
8
FRONT
10
3.375000
20
0.278827
30
0.0
11
3.487500
21
0.274944
31
0.0
0
LINE
8
FRONT
10
3.487500
20
0.274944
30
0.0
11
3.600000
21
0.271061
31
0.0
0
LINE
8
FRONT
10
3.600000
20
0.271061
30
0.0
11
3.712500
21
0.267179
31
0.0
0
LINE
8
FRONT
10
3.712500
20
0.267179
30
0.0
11
3.825000
21
0.263296
31
0.0
0
LINE
8
FRONT
10
3.825000
20
0.263296
30
0.0
11
3.937500
21
0.259413
31
0.0
0
LINE
8
FRONT
10
3.937500
20
0.259413
30
0.0
11
4.050000
21
0.255531
31
0.0
0
LINE
8
FRONT
10
4.050000
20
0.255531
30
0.0
11
4.162500
21
0.251648
31
0.0
0
LINE
8
FRONT
10
4.162500
20
0.251648
30
0.0
11
4.275000
21
0.247765
31
0.0
0
LINE
8
FRONT
10
4.275000
20
0.247765
30
0.0
11
4.387500
21
0.243883
31
0.0
0
LINE
8
FRONT
10
4.387500
20
0.243883
30
0.0
11
4.500000
21
0.240000
31
0.0
0
LINE
8
FRONT
10
4.500000
20
0.240000
30
0.0
11
4.612500
21
0.242022
31
0.0
0
LINE
8
FRONT
10
4.612500
20
0.242022
30
0.0
11
4.725000
21
0.244044
31
0.0
0
LINE
8
FRONT
10
4.725000
20
0.244044
30
0.0
11
4.837500
21
0.246066
31
0.0
0
LINE
8
FRONT
10
4.837500
20
0.246066
30
0.0
11
4.950000
21
0.248088
31
0.0
0
LINE
8
FRONT
10
4.950000
20
0.248088
30
0.0
11
5.062500
21
0.250110
31
0.0
0
LINE
8
FRONT
10
5.062500
20
0.250110
30
0.0
11
5.175000
21
0.252133
31
0.0
0
LINE
8
FRONT
10
5.175000
20
0.252133
30
0.0
11
5.287500
21
0.254155
31
0.0
0
LINE
8
FRONT
10
5.287500
20
0.254155
30
0.0
11
5.400000
21
0.256177
31
0.0
0
LINE
8
FRONT
10
5.400000
20
0.256177
30
0.0
11
5.512500
21
0.258199
31
0.0
0
LINE
8
FRONT
10
5.512500
20
0.258199
30
0.0
11
5.625000
21
0.260221
31
0.0
0
LINE
8
FRONT
10
5.625000
20
0.260221
30
0.0
11
5.737500
21
0.262243
31
0.0
0
LINE
8
FRONT
10
5.737500
20
0.262243
30
0.0
11
5.850000
21
0.264265
31
0.0
0
LINE
8
FRONT
10
5.850000
20
0.264265
30
0.0
11
5.962500
21
0.266287
31
0.0
0
LINE
8
FRONT
10
5.962500
20
0.266287
30
0.0
11
6.075000
21
0.268309
31
0.0
0
LINE
8
FRONT
10
6.075000
20
0.268309
30
0.0
11
6.187500
21
0.270331
31
0.0
0
LINE
8
FRONT
10
6.187500
20
0.270331
30
0.0
11
6.300000
21
0.272353
31
0.0
0
LINE
8
FRONT
10
6.300000
20
0.272353
30
0.0
11
6.412500
21
0.274376
31
0.0
0
LINE
8
FRONT
10
6.412500
20
0.274376
30
0.0
11
6.525000
21
0.276398
31
0.0
0
LINE
8
FRONT
10
6.525000
20
0.276398
30
0.0
11
6.637500
21
0.278420
31
0.0
0
LINE
8
FRONT
10
6.637500
20
0.278420
30
0.0
11
6.750000
21
0.280442
31
0.0
0
LINE
8
FRONT
10
6.750000
20
0.280442
30
0.0
11
6.862500
21
0.282464
31
0.0
0
LINE
8
FRONT
10
6.862500
20
0.282464
30
0.0
11
6.975000
21
0.284486
31
0.0
0
LINE
8
FRONT
10
6.975000
20
0.284486
30
0.0
11
7.087500
21
0.286508
31
0.0
0
LINE
8
FRONT
10
7.087500
20
0.286508
30
0.0
11
7.200000
21
0.288530
31
0.0
0
LINE
8
FRONT
10
7.200000
20
0.288530
30
0.0
11
7.312500
21
0.290552
31
0.0
0
LINE
8
FRONT
10
7.312500
20
0.290552
30
0.0
11
7.425000
21
0.292574
31
0.0
0
LINE
8
FRONT
10
7.425000
20
0.292574
30
0.0
11
7.537500
21
0.294596
31
0.0
0
LINE
8
FRONT
10
7.537500
20
0.294596
30
0.0
11
7.650000
21
0.296618
31
0.0
0
LINE
8
FRONT
10
7.650000
20
0.296618
30
0.0
11
7.762500
21
0.298641
31
0.0
0
LINE
8
FRONT
10
7.762500
20
0.298641
30
0.0
11
7.875000
21
0.300663
31
0.0
0
LINE
8
FRONT
10
7.875000
20
0.300663
30
0.0
11
7.987500
21
0.302685
31
0.0
0
LINE
8
FRONT
10
7.987500
20
0.302685
30
0.0
11
8.100000
21
0.304707
31
0.0
0
LINE
8
FRONT
10
8.100000
20
0.304707
30
0.0
11
8.212500
21
0.306729
31
0.0
0
LINE
8
FRONT
10
8.212500
20
0.306729
30
0.0
11
8.325000
21
0.308751
31
0.0
0
LINE
8
FRONT
10
8.325000
20
0.308751
30
0.0
11
8.437500
21
0.310773
31
0.0
0
LINE
8
FRONT
10
8.437500
20
0.310773
30
0.0
11
8.500000
21
0.311896
31
0.0
0
LINE
8
FRONT
10
8.500000
20
0.311896
30
0.0
11
8.550000
21
0.312795
31
0.0
0
LINE
8
FRONT
10
8.550000
20
0.312795
30
0.0
11
8.662500
21
0.314817
31
0.0
0
LINE
8
FRONT
10
8.662500
20
0.314817
30
0.0
11
8.775000
21
0.316839
31
0.0
0
LINE
8
FRONT
10
8.775000
20
0.316839
30
0.0
11
8.887500
21
0.318861
31
0.0
0
LINE
8
FRONT
10
8.887500
20
0.318861
30
0.0
11
9.000000
21
0.320884
31
0.0
0
LINE
8
FRONT
10
0.000000
20
-0.395307
30
0.0
11
0.112500
21
-0.391425
31
0.0
0
LINE
8
FRONT
10
0.112500
20
-0.391425
30
0.0
11
0.225000
21
-0.387542
31
0.0
0
LINE
8
FRONT
10
0.225000
20
-0.387542
30
0.0
11
0.337500
21
-0.383659
31
0.0
0
LINE
8
FRONT
10
0.337500
20
-0.383659
30
0.0
11
0.450000
21
-0.379777
31
0.0
0
LINE
8
FRONT
10
0.450000
20
-0.379777
30
0.0
11
0.500000
21
-0.378051
31
0.0
0
LINE
8
FRONT
10
0.500000
20
-0.378051
30
0.0
11
0.562500
21
-0.375894
31
0.0
0
LINE
8
FRONT
10
0.562500
20
-0.375894
30
0.0
11
0.675000
21
-0.372011
31
0.0
0
LINE
8
FRONT
10
0.675000
20
-0.372011
30
0.0
11
0.787500
21
-0.368129
31
0.0
0
LINE
8
FRONT
10
0.787500
20
-0.368129
30
0.0
11
0.900000
21
-0.364246
31
0.0
0
LINE
8
FRONT
10
0.900000
20
-0.364246
30
0.0
11
1.012500
21
-0.360363
31
0.0
0
LINE
8
FRONT
10
1.012500
20
-0.360363
30
0.0
11
1.125000
21
-0.356480
31
0.0
0
LINE
8
FRONT
10
1.125000
20
-0.356480
30
0.0
11
1.237500
21
-0.352598
31
0.0
0
LINE
8
FRONT
10
1.237500
20
-0.352598
30
0.0
11
1.350000
21
-0.348715
31
0.0
0
LINE
8
FRONT
10
1.350000
20
-0.348715
30
0.0
11
1.462500
21
-0.344832
31
0.0
0
LINE
8
FRONT
10
1.462500
20
-0.344832
30
0.0
11
1.575000
21
-0.340950
31
0.0
0
LINE
8
FRONT
10
1.575000
20
-0.340950
30
0.0
11
1.687500
21
-0.337067
31
0.0
0
LINE
8
FRONT
10
1.687500
20
-0.337067
30
0.0
11
1.800000
21
-0.333184
31
0.0
0
LINE
8
FRONT
10
1.800000
20
-0.333184
30
0.0
11
1.912500
21
-0.329302
31
0.0
0
LINE
8
FRONT
10
1.912500
20
-0.329302
30
0.0
11
2.025000
21
-0.325419
31
0.0
0
LINE
8
FRONT
10
2.025000
20
-0.325419
30
0.0
11
2.137500
21
-0.321536
31
0.0
0
LINE
8
FRONT
10
2.137500
20
-0.321536
30
0.0
11
2.250000
21
-0.317654
31
0.0
0
LINE
8
FRONT
10
2.250000
20
-0.317654
30
0.0
11
2.362500
21
-0.313771
31
0.0
0
LINE
8
FRONT
10
2.362500
20
-0.313771
30
0.0
11
2.475000
21
-0.309888
31
0.0
0
LINE
8
FRONT
10
2.475000
20
-0.309888
30
0.0
11
2.587500
21
-0.306006
31
0.0
0
LINE
8
FRONT
10
2.587500
20
-0.306006
30
0.0
11
2.700000
21
-0.302123
31
0.0
0
LINE
8
FRONT
10
2.700000
20
-0.302123
30
0.0
11
2.812500
21
-0.298240
31
0.0
0
LINE
8
FRONT
10
2.812500
20
-0.298240
30
0.0
11
2.925000
21
-0.294358
31
0.0
0
LINE
8
FRONT
10
2.925000
20
-0.294358
30
0.0
11
3.037500
21
-0.290475
31
0.0
0
LINE
8
FRONT
10
3.037500
20
-0.290475
30
0.0
11
3.150000
21
-0.286592
31
0.0
0
LINE
8
FRONT
10
3.150000
20
-0.286592
30
0.0
11
3.262500
21
-0.282710
31
0.0
0
LINE
8
FRONT
10
3.262500
20
-0.282710
30
0.0
11
3.375000
21
-0.278827
31
0.0
0
LINE
8
FRONT
10
3.375000
20
-0.278827
30
0.0
11
3.487500
21
-0.274944
31
0.0
0
LINE
8
FRONT
10
3.487500
20
-0.274944
30
0.0
11
3.600000
21
-0.271061
31
0.0
0
LINE
8
FRONT
10
3.600000
20
-0.271061
30
0.0
11
3.712500
21
-0.267179
31
0.0
0
LINE
8
FRONT
10
3.712500
20
-0.267179
30
0.0
11
3.825000
21
-0.263296
31
0.0
0
LINE
8
FRONT
10
3.825000
20
-0.263296
30
0.0
11
3.937500
21
-0.259413
31
0.0
0
LINE
8
FRONT
10
3.937500
20
-0.259413
30
0.0
11
4.050000
21
-0.255531
31
0.0
0
LINE
8
FRONT
10
4.050000
20
-0.255531
30
0.0
11
4.162500
21
-0.251648
31
0.0
0
LINE
8
FRONT
10
4.162500
20
-0.251648
30
0.0
11
4.275000
21
-0.247765
31
0.0
0
LINE
8
FRONT
10
4.275000
20
-0.247765
30
0.0
11
4.387500
21
-0.243883
31
0.0
0
LINE
8
FRONT
10
4.387500
20
-0.243883
30
0.0
11
4.500000
21
-0.240000
31
0.0
0
LINE
8
FRONT
10
4.500000
20
-0.240000
30
0.0
11
4.612500
21
-0.242022
31
0.0
0
LINE
8
FRONT
10
4.612500
20
-0.242022
30
0.0
11
4.725000
21
-0.244044
31
0.0
0
LINE
8
FRONT
10
4.725000
20
-0.244044
30
0.0
11
4.837500
21
-0.246066
31
0.0
0
LINE
8
FRONT
10
4.837500
20
-0.246066
30
0.0
11
4.950000
21
-0.248088
31
0.0
0
LINE
8
FRONT
10
4.950000
20
-0.248088
30
0.0
11
5.062500
21
-0.250110
31
0.0
0
LINE
8
FRONT
10
5.062500
20
-0.250110
30
0.0
11
5.175000
21
-0.252133
31
0.0
0
LINE
8
FRONT
10
5.175000
20
-0.252133
30
0.0
11
5.287500
21
-0.254155
31
0.0
0
LINE
8
FRONT
10
5.287500
20
-0.254155
30
0.0
11
5.400000
21
-0.256177
31
0.0
0
LINE
8
FRONT
10
5.400000
20
-0.256177
30
0.0
11
5.512500
21
-0.258199
31
0.0
0
LINE
8
FRONT
10
5.512500
20
-0.258199
30
0.0
11
5.625000
21
-0.260221
31
0.0
0
LINE
8
FRONT
10
5.625000
20
-0.260221
30
0.0
11
5.737500
21
-0.262243
31
0.0
0
LINE
8
FRONT
10
5.737500
20
-0.262243
30
0.0
11
5.850000
21
-0.264265
31
0.0
0
LINE
8
FRONT
10
5.850000
20
-0.264265
30
0.0
11
5.962500
21
-0.266287
31
0.0
0
LINE
8
FRONT
10
5.962500
20
-0.266287
30
0.0
11
6.075000
21
-0.268309
31
0.0
0
LINE
8
FRONT
10
6.075000
20
-0.268309
30
0.0
11
6.187500
21
-0.270331
31
0.0
0
LINE
8
FRONT
10
6.187500
20
-0.270331
30
0.0
11
6.300000
21
-0.272353
31
0.0
0
LINE
8
FRONT
10
6.300000
20
-0.272353
30
0.0
11
6.412500
21
-0.274376
31
0.0
0
LINE
8
FRONT
10
6.412500
20
-0.274376
30
0.0
11
6.525000
21
-0.276398
31
0.0
0
LINE
8
FRONT
10
6.525000
20
-0.276398
30
0.0
11
6.637500
21
-0.278420
31
0.0
0
LINE
8
FRONT
10
6.637500
20
-0.278420
30
0.0
11
6.750000
21
-0.280442
31
0.0
0
LINE
8
FRONT
10
6.750000
20
-0.280442
30
0.0
11
6.862500
21
-0.282464
31
0.0
0
LINE
8
FRONT
10
6.862500
20
-0.282464
30
0.0
11
6.975000
21
-0.284486
31
0.0
0
LINE
8
FRONT
10
6.975000
20
-0.284486
30
0.0
11
7.087500
21
-0.286508
31
0.0
0
LINE
8
FRONT
10
7.087500
20
-0.286508
30
0.0
11
7.200000
21
-0.288530
31
0.0
0
LINE
8
FRONT
10
7.200000
20
-0.288530
30
0.0
11
7.312500
21
-0.290552
31
0.0
0
LINE
8
FRONT
10
7.312500
20
-0.290552
30
0.0
11
7.425000
21
-0.292574
31
0.0
0
LINE
8
FRONT
10
7.425000
20
-0.292574
30
0.0
11
7.537500
21
-0.294596
31
0.0
0
LINE
8
FRONT
10
7.537500
20
-0.294596
30
0.0
11
7.650000
21
-0.296618
31
0.0
0
LINE
8
FRONT
10
7.650000
20
-0.296618
30
0.0
11
7.762500
21
-0.298641
31
0.0
0
LINE
8
FRONT
10
7.762500
20
-0.298641
30
0.0
11
7.875000
21
-0.300663
31
0.0
0
LINE
8
FRONT
10
7.875000
20
-0.300663
30
0.0
11
7.987500
21
-0.302685
31
0.0
0
LINE
8
FRONT
10
7.987500
20
-0.302685
30
0.0
11
8.100000
21
-0.304707
31
0.0
0
LINE
8
FRONT
10
8.100000
20
-0.304707
30
0.0
11
8.212500
21
-0.306729
31
0.0
0
LINE
8
FRONT
10
8.212500
20
-0.306729
30
0.0
11
8.325000
21
-0.308751
31
0.0
0
LINE
8
FRONT
10
8.325000
20
-0.308751
30
0.0
11
8.437500
21
-0.310773
31
0.0
0
LINE
8
FRONT
10
8.437500
20
-0.310773
30
0.0
11
8.500000
21
-0.311896
31
0.0
0
LINE
8
FRONT
10
8.500000
20
-0.311896
30
0.0
11
8.550000
21
-0.312795
31
0.0
0
LINE
8
FRONT
10
8.550000
20
-0.312795
30
0.0
11
8.662500
21
-0.314817
31
0.0
0
LINE
8
FRONT
10
8.662500
20
-0.314817
30
0.0
11
8.775000
21
-0.316839
31
0.0
0
LINE
8
FRONT
10
8.775000
20
-0.316839
30
0.0
11
8.887500
21
-0.318861
31
0.0
0
LINE
8
FRONT
10
8.887500
20
-0.318861
30
0.0
11
9.000000
21
-0.320884
31
0.0
0
LINE
8
FRONT
10
0.000000
20
0.395307
30
0.0
11
0.000000
21
-0.395307
31
0.0
0
LINE
8
FRONT
10
9.000000
20
0.320884
30
0.0
11
9.000000
21
-0.320884
31
0.0
0
LINE
8
TOP
10
0.000000
20
2.055922
30
0.0
11
0.112500
21
2.057816
31
0.0
0
LINE
8
TOP
10
0.112500
20
2.057816
30
0.0
11
0.225000
21
2.059710
31
0.0
0
LINE
8
TOP
10
0.225000
20
2.059710
30
0.0
11
0.337500
21
2.061604
31
0.0
0
LINE
8
TOP
10
0.337500
20
2.061604
30
0.0
11
0.450000
21
2.063498
31
0.0
0
LINE
8
TOP
10
0.450000
20
2.063498
30
0.0
11
0.500000
21
2.064340
31
0.0
0
LINE
8
TOP
10
0.500000
20
2.064340
30
0.0
11
0.562500
21
2.065392
31
0.0
0
LINE
8
TOP
10
0.562500
20
2.065392
30
0.0
11
0.675000
21
2.067286
31
0.0
0
LINE
8
TOP
10
0.675000
20
2.067286
30
0.0
11
0.787500
21
2.069180
31
0.0
0
LINE
8
TOP
10
0.787500
20
2.069180
30
0.0
11
0.900000
21
2.071074
31
0.0
0
LINE
8
TOP
10
0.900000
20
2.071074
30
0.0
11
1.012500
21
2.072968
31
0.0
0
LINE
8
TOP
10
1.012500
20
2.072968
30
0.0
11
1.125000
21
2.074862
31
0.0
0
LINE
8
TOP
10
1.125000
20
2.074862
30
0.0
11
1.237500
21
2.076756
31
0.0
0
LINE
8
TOP
10
1.237500
20
2.076756
30
0.0
11
1.350000
21
2.078650
31
0.0
0
LINE
8
TOP
10
1.350000
20
2.078650
30
0.0
11
1.462500
21
2.080544
31
0.0
0
LINE
8
TOP
10
1.462500
20
2.080544
30
0.0
11
1.575000
21
2.082439
31
0.0
0
LINE
8
TOP
10
1.575000
20
2.082439
30
0.0
11
1.687500
21
2.084333
31
0.0
0
LINE
8
TOP
10
1.687500
20
2.084333
30
0.0
11
1.800000
21
2.086227
31
0.0
0
LINE
8
TOP
10
1.800000
20
2.086227
30
0.0
11
1.912500
21
2.088121
31
0.0
0
LINE
8
TOP
10
1.912500
20
2.088121
30
0.0
11
2.025000
21
2.090015
31
0.0
0
LINE
8
TOP
10
2.025000
20
2.090015
30
0.0
11
2.137500
21
2.091909
31
0.0
0
LINE
8
TOP
10
2.137500
20
2.091909
30
0.0
11
2.250000
21
2.093803
31
0.0
0
LINE
8
TOP
10
2.250000
20
2.093803
30
0.0
11
2.362500
21
2.095697
31
0.0
0
LINE
8
TOP
10
2.362500
20
2.095697
30
0.0
11
2.475000
21
2.097591
31
0.0
0
LINE
8
TOP
10
2.475000
20
2.097591
30
0.0
11
2.587500
21
2.099485
31
0.0
0
LINE
8
TOP
10
2.587500
20
2.099485
30
0.0
11
2.700000
21
2.101379
31
0.0
0
LINE
8
TOP
10
2.700000
20
2.101379
30
0.0
11
2.812500
21
2.103273
31
0.0
0
LINE
8
TOP
10
2.812500
20
2.103273
30
0.0
11
2.925000
21
2.105167
31
0.0
0
LINE
8
TOP
10
2.925000
20
2.105167
30
0.0
11
3.037500
21
2.107061
31
0.0
0
LINE
8
TOP
10
3.037500
20
2.107061
30
0.0
11
3.150000
21
2.108955
31
0.0
0
LINE
8
TOP
10
3.150000
20
2.108955
30
0.0
11
3.262500
21
2.110849
31
0.0
0
LINE
8
TOP
10
3.262500
20
2.110849
30
0.0
11
3.375000
21
2.112743
31
0.0
0
LINE
8
TOP
10
3.375000
20
2.112743
30
0.0
11
3.487500
21
2.114637
31
0.0
0
LINE
8
TOP
10
3.487500
20
2.114637
30
0.0
11
3.600000
21
2.116531
31
0.0
0
LINE
8
TOP
10
3.600000
20
2.116531
30
0.0
11
3.712500
21
2.118425
31
0.0
0
LINE
8
TOP
10
3.712500
20
2.118425
30
0.0
11
3.825000
21
2.120319
31
0.0
0
LINE
8
TOP
10
3.825000
20
2.120319
30
0.0
11
3.937500
21
2.122213
31
0.0
0
LINE
8
TOP
10
3.937500
20
2.122213
30
0.0
11
4.050000
21
2.124108
31
0.0
0
LINE
8
TOP
10
4.050000
20
2.124108
30
0.0
11
4.162500
21
2.126002
31
0.0
0
LINE
8
TOP
10
4.162500
20
2.126002
30
0.0
11
4.275000
21
2.127896
31
0.0
0
LINE
8
TOP
10
4.275000
20
2.127896
30
0.0
11
4.387500
21
2.129790
31
0.0
0
LINE
8
TOP
10
4.387500
20
2.129790
30
0.0
11
4.500000
21
2.131684
31
0.0
0
LINE
8
TOP
10
4.500000
20
2.131684
30
0.0
11
4.612500
21
2.132335
31
0.0
0
LINE
8
TOP
10
4.612500
20
2.132335
30
0.0
11
4.725000
21
2.132986
31
0.0
0
LINE
8
TOP
10
4.725000
20
2.132986
30
0.0
11
4.837500
21
2.133638
31
0.0
0
LINE
8
TOP
10
4.837500
20
2.133638
30
0.0
11
4.950000
21
2.134289
31
0.0
0
LINE
8
TOP
10
4.950000
20
2.134289
30
0.0
11
5.062500
21
2.134940
31
0.0
0
LINE
8
TOP
10
5.062500
20
2.134940
30
0.0
11
5.175000
21
2.135591
31
0.0
0
LINE
8
TOP
10
5.175000
20
2.135591
30
0.0
11
5.287500
21
2.136243
31
0.0
0
LINE
8
TOP
10
5.287500
20
2.136243
30
0.0
11
5.400000
21
2.136894
31
0.0
0
LINE
8
TOP
10
5.400000
20
2.136894
30
0.0
11
5.512500
21
2.137545
31
0.0
0
LINE
8
TOP
10
5.512500
20
2.137545
30
0.0
11
5.625000
21
2.138196
31
0.0
0
LINE
8
TOP
10
5.625000
20
2.138196
30
0.0
11
5.737500
21
2.138848
31
0.0
0
LINE
8
TOP
10
5.737500
20
2.138848
30
0.0
11
5.850000
21
2.139499
31
0.0
0
LINE
8
TOP
10
5.850000
20
2.139499
30
0.0
11
5.962500
21
2.140150
31
0.0
0
LINE
8
TOP
10
5.962500
20
2.140150
30
0.0
11
6.075000
21
2.140802
31
0.0
0
LINE
8
TOP
10
6.075000
20
2.140802
30
0.0
11
6.187500
21
2.141453
31
0.0
0
LINE
8
TOP
10
6.187500
20
2.141453
30
0.0
11
6.300000
21
2.142104
31
0.0
0
LINE
8
TOP
10
6.300000
20
2.142104
30
0.0
11
6.412500
21
2.142755
31
0.0
0
LINE
8
TOP
10
6.412500
20
2.142755
30
0.0
11
6.525000
21
2.143407
31
0.0
0
LINE
8
TOP
10
6.525000
20
2.143407
30
0.0
11
6.637500
21
2.144058
31
0.0
0
LINE
8
TOP
10
6.637500
20
2.144058
30
0.0
11
6.750000
21
2.144709
31
0.0
0
LINE
8
TOP
10
6.750000
20
2.144709
30
0.0
11
6.862500
21
2.145361
31
0.0
0
LINE
8
TOP
10
6.862500
20
2.145361
30
0.0
11
6.975000
21
2.146012
31
0.0
0
LINE
8
TOP
10
6.975000
20
2.146012
30
0.0
11
7.087500
21
2.146663
31
0.0
0
LINE
8
TOP
10
7.087500
20
2.146663
30
0.0
11
7.200000
21
2.147314
31
0.0
0
LINE
8
TOP
10
7.200000
20
2.147314
30
0.0
11
7.312500
21
2.147966
31
0.0
0
LINE
8
TOP
10
7.312500
20
2.147966
30
0.0
11
7.425000
21
2.148617
31
0.0
0
LINE
8
TOP
10
7.425000
20
2.148617
30
0.0
11
7.537500
21
2.149268
31
0.0
0
LINE
8
TOP
10
7.537500
20
2.149268
30
0.0
11
7.650000
21
2.149920
31
0.0
0
LINE
8
TOP
10
7.650000
20
2.149920
30
0.0
11
7.762500
21
2.150571
31
0.0
0
LINE
8
TOP
10
7.762500
20
2.150571
30
0.0
11
7.875000
21
2.151222
31
0.0
0
LINE
8
TOP
10
7.875000
20
2.151222
30
0.0
11
7.987500
21
2.151873
31
0.0
0
LINE
8
TOP
10
7.987500
20
2.151873
30
0.0
11
8.100000
21
2.152525
31
0.0
0
LINE
8
TOP
10
8.100000
20
2.152525
30
0.0
11
8.212500
21
2.153176
31
0.0
0
LINE
8
TOP
10
8.212500
20
2.153176
30
0.0
11
8.325000
21
2.153827
31
0.0
0
LINE
8
TOP
10
8.325000
20
2.153827
30
0.0
11
8.437500
21
2.154478
31
0.0
0
LINE
8
TOP
10
8.437500
20
2.154478
30
0.0
11
8.500000
21
2.154840
31
0.0
0
LINE
8
TOP
10
8.500000
20
2.154840
30
0.0
11
8.550000
21
2.155130
31
0.0
0
LINE
8
TOP
10
8.550000
20
2.155130
30
0.0
11
8.662500
21
2.155781
31
0.0
0
LINE
8
TOP
10
8.662500
20
2.155781
30
0.0
11
8.775000
21
2.156432
31
0.0
0
LINE
8
TOP
10
8.775000
20
2.156432
30
0.0
11
8.887500
21
2.157084
31
0.0
0
LINE
8
TOP
10
8.887500
20
2.157084
30
0.0
11
9.000000
21
2.157735
31
0.0
0
LINE
8
TOP
10
0.000000
20
1.815922
30
0.0
11
0.112500
21
1.814028
31
0.0
0
LINE
8
TOP
10
0.112500
20
1.814028
30
0.0
11
0.225000
21
1.812134
31
0.0
0
LINE
8
TOP
10
0.225000
20
1.812134
30
0.0
11
0.337500
21
1.810240
31
0.0
0
LINE
8
TOP
10
0.337500
20
1.810240
30
0.0
11
0.450000
21
1.808346
31
0.0
0
LINE
8
TOP
10
0.450000
20
1.808346
30
0.0
11
0.500000
21
1.807504
31
0.0
0
LINE
8
TOP
10
0.500000
20
1.807504
30
0.0
11
0.562500
21
1.806452
31
0.0
0
LINE
8
TOP
10
0.562500
20
1.806452
30
0.0
11
0.675000
21
1.804558
31
0.0
0
LINE
8
TOP
10
0.675000
20
1.804558
30
0.0
11
0.787500
21
1.802664
31
0.0
0
LINE
8
TOP
10
0.787500
20
1.802664
30
0.0
11
0.900000
21
1.800770
31
0.0
0
LINE
8
TOP
10
0.900000
20
1.800770
30
0.0
11
1.012500
21
1.798875
31
0.0
0
LINE
8
TOP
10
1.012500
20
1.798875
30
0.0
11
1.125000
21
1.796981
31
0.0
0
LINE
8
TOP
10
1.125000
20
1.796981
30
0.0
11
1.237500
21
1.795087
31
0.0
0
LINE
8
TOP
10
1.237500
20
1.795087
30
0.0
11
1.350000
21
1.793193
31
0.0
0
LINE
8
TOP
10
1.350000
20
1.793193
30
0.0
11
1.462500
21
1.791299
31
0.0
0
LINE
8
TOP
10
1.462500
20
1.791299
30
0.0
11
1.575000
21
1.789405
31
0.0
0
LINE
8
TOP
10
1.575000
20
1.789405
30
0.0
11
1.687500
21
1.787511
31
0.0
0
LINE
8
TOP
10
1.687500
20
1.787511
30
0.0
11
1.800000
21
1.785617
31
0.0
0
LINE
8
TOP
10
1.800000
20
1.785617
30
0.0
11
1.912500
21
1.783723
31
0.0
0
LINE
8
TOP
10
1.912500
20
1.783723
30
0.0
11
2.025000
21
1.781829
31
0.0
0
LINE
8
TOP
10
2.025000
20
1.781829
30
0.0
11
2.137500
21
1.779935
31
0.0
0
LINE
8
TOP
10
2.137500
20
1.779935
30
0.0
11
2.250000
21
1.778041
31
0.0
0
LINE
8
TOP
10
2.250000
20
1.778041
30
0.0
11
2.362500
21
1.776147
31
0.0
0
LINE
8
TOP
10
2.362500
20
1.776147
30
0.0
11
2.475000
21
1.774253
31
0.0
0
LINE
8
TOP
10
2.475000
20
1.774253
30
0.0
11
2.587500
21
1.772359
31
0.0
0
LINE
8
TOP
10
2.587500
20
1.772359
30
0.0
11
2.700000
21
1.770465
31
0.0
0
LINE
8
TOP
10
2.700000
20
1.770465
30
0.0
11
2.812500
21
1.768571
31
0.0
0
LINE
8
TOP
10
2.812500
20
1.768571
30
0.0
11
2.925000
21
1.766677
31
0.0
0
LINE
8
TOP
10
2.925000
20
1.766677
30
0.0
11
3.037500
21
1.764783
31
0.0
0
LINE
8
TOP
10
3.037500
20
1.764783
30
0.0
11
3.150000
21
1.762889
31
0.0
0
LINE
8
TOP
10
3.150000
20
1.762889
30
0.0
11
3.262500
21
1.760995
31
0.0
0
LINE
8
TOP
10
3.262500
20
1.760995
30
0.0
11
3.375000
21
1.759101
31
0.0
0
LINE
8
TOP
10
3.375000
20
1.759101
30
0.0
11
3.487500
21
1.757206
31
0.0
0
LINE
8
TOP
10
3.487500
20
1.757206
30
0.0
11
3.600000
21
1.755312
31
0.0
0
LINE
8
TOP
10
3.600000
20
1.755312
30
0.0
11
3.712500
21
1.753418
31
0.0
0
LINE
8
TOP
10
3.712500
20
1.753418
30
0.0
11
3.825000
21
1.751524
31
0.0
0
LINE
8
TOP
10
3.825000
20
1.751524
30
0.0
11
3.937500
21
1.749630
31
0.0
0
LINE
8
TOP
10
3.937500
20
1.749630
30
0.0
11
4.050000
21
1.747736
31
0.0
0
LINE
8
TOP
10
4.050000
20
1.747736
30
0.0
11
4.162500
21
1.745842
31
0.0
0
LINE
8
TOP
10
4.162500
20
1.745842
30
0.0
11
4.275000
21
1.743948
31
0.0
0
LINE
8
TOP
10
4.275000
20
1.743948
30
0.0
11
4.387500
21
1.742054
31
0.0
0
LINE
8
TOP
10
4.387500
20
1.742054
30
0.0
11
4.500000
21
1.740160
31
0.0
0
LINE
8
TOP
10
4.500000
20
1.740160
30
0.0
11
4.612500
21
1.739509
31
0.0
0
LINE
8
TOP
10
4.612500
20
1.739509
30
0.0
11
4.725000
21
1.738857
31
0.0
0
LINE
8
TOP
10
4.725000
20
1.738857
30
0.0
11
4.837500
21
1.738206
31
0.0
0
LINE
8
TOP
10
4.837500
20
1.738206
30
0.0
11
4.950000
21
1.737555
31
0.0
0
LINE
8
TOP
10
4.950000
20
1.737555
30
0.0
11
5.062500
21
1.736904
31
0.0
0
LINE
8
TOP
10
5.062500
20
1.736904
30
0.0
11
5.175000
21
1.736252
31
0.0
0
LINE
8
TOP
10
5.175000
20
1.736252
30
0.0
11
5.287500
21
1.735601
31
0.0
0
LINE
8
TOP
10
5.287500
20
1.735601
30
0.0
11
5.400000
21
1.734950
31
0.0
0
LINE
8
TOP
10
5.400000
20
1.734950
30
0.0
11
5.512500
21
1.734299
31
0.0
0
LINE
8
TOP
10
5.512500
20
1.734299
30
0.0
11
5.625000
21
1.733647
31
0.0
0
LINE
8
TOP
10
5.625000
20
1.733647
30
0.0
11
5.737500
21
1.732996
31
0.0
0
LINE
8
TOP
10
5.737500
20
1.732996
30
0.0
11
5.850000
21
1.732345
31
0.0
0
LINE
8
TOP
10
5.850000
20
1.732345
30
0.0
11
5.962500
21
1.731693
31
0.0
0
LINE
8
TOP
10
5.962500
20
1.731693
30
0.0
11
6.075000
21
1.731042
31
0.0
0
LINE
8
TOP
10
6.075000
20
1.731042
30
0.0
11
6.187500
21
1.730391
31
0.0
0
LINE
8
TOP
10
6.187500
20
1.730391
30
0.0
11
6.300000
21
1.729740
31
0.0
0
LINE
8
TOP
10
6.300000
20
1.729740
30
0.0
11
6.412500
21
1.729088
31
0.0
0
LINE
8
TOP
10
6.412500
20
1.729088
30
0.0
11
6.525000
21
1.728437
31
0.0
0
LINE
8
TOP
10
6.525000
20
1.728437
30
0.0
11
6.637500
21
1.727786
31
0.0
0
LINE
8
TOP
10
6.637500
20
1.727786
30
0.0
11
6.750000
21
1.727134
31
0.0
0
LINE
8
TOP
10
6.750000
20
1.727134
30
0.0
11
6.862500
21
1.726483
31
0.0
0
LINE
8
TOP
10
6.862500
20
1.726483
30
0.0
11
6.975000
21
1.725832
31
0.0
0
LINE
8
TOP
10
6.975000
20
1.725832
30
0.0
11
7.087500
21
1.725181
31
0.0
0
LINE
8
TOP
10
7.087500
20
1.725181
30
0.0
11
7.200000
21
1.724529
31
0.0
0
LINE
8
TOP
10
7.200000
20
1.724529
30
0.0
11
7.312500
21
1.723878
31
0.0
0
LINE
8
TOP
10
7.312500
20
1.723878
30
0.0
11
7.425000
21
1.723227
31
0.0
0
LINE
8
TOP
10
7.425000
20
1.723227
30
0.0
11
7.537500
21
1.722576
31
0.0
0
LINE
8
TOP
10
7.537500
20
1.722576
30
0.0
11
7.650000
21
1.721924
31
0.0
0
LINE
8
TOP
10
7.650000
20
1.721924
30
0.0
11
7.762500
21
1.721273
31
0.0
0
LINE
8
TOP
10
7.762500
20
1.721273
30
0.0
11
7.875000
21
1.720622
31
0.0
0
LINE
8
TOP
10
7.875000
20
1.720622
30
0.0
11
7.987500
21
1.719970
31
0.0
0
LINE
8
TOP
10
7.987500
20
1.719970
30
0.0
11
8.100000
21
1.719319
31
0.0
0
LINE
8
TOP
10
8.100000
20
1.719319
30
0.0
11
8.212500
21
1.718668
31
0.0
0
LINE
8
TOP
10
8.212500
20
1.718668
30
0.0
11
8.325000
21
1.718017
31
0.0
0
LINE
8
TOP
10
8.325000
20
1.718017
30
0.0
11
8.437500
21
1.717365
31
0.0
0
LINE
8
TOP
10
8.437500
20
1.717365
30
0.0
11
8.500000
21
1.717003
31
0.0
0
LINE
8
TOP
10
8.500000
20
1.717003
30
0.0
11
8.550000
21
1.716714
31
0.0
0
LINE
8
TOP
10
8.550000
20
1.716714
30
0.0
11
8.662500
21
1.716063
31
0.0
0
LINE
8
TOP
10
8.662500
20
1.716063
30
0.0
11
8.775000
21
1.715411
31
0.0
0
LINE
8
TOP
10
8.775000
20
1.715411
30
0.0
11
8.887500
21
1.714760
31
0.0
0
LINE
8
TOP
10
8.887500
20
1.714760
30
0.0
11
9.000000
21
1.714109
31
0.0
0
LINE
8
TOP
10
0.000000
20
2.055922
30
0.0
11
0.000000
21
1.815922
31
0.0
0
LINE
8
TOP
10
9.000000
20
2.157735
30
0.0
11
9.000000
21
1.714109
31
0.0
0
LINE
8
SECTION
10
10.304238
20
-0.240000
30
0.0
11
10.695762
21
-0.240000
31
0.0
0
LINE
8
SECTION
10
10.695762
20
-0.240000
30
0.0
11
10.695762
21
0.240000
31
0.0
0
LINE
8
SECTION
10
10.695762
20
0.240000
30
0.0
11
10.304238
21
0.240000
31
0.0
0
LINE
8
SECTION
10
10.304238
20
0.240000
30
0.0
11
10.304238
21
-0.240000
31
0.0
0
LINE
8
SECTION
10
10.370797
20
-0.173441
30
0.0
11
10.629203
21
-0.173441
31
0.0
0
LINE
8
SECTION
10
10.629203
20
-0.173441
30
0.0
11
10.629203
21
0.173441
31
0.0
0
LINE
8
SECTION
10
10.629203
20
0.173441
30
0.0
11
10.370797
21
0.173441
31
0.0
0
LINE
8
SECTION
10
10.370797
20
0.173441
30
0.0
11
10.370797
21
-0.173441
31
0.0
0
LINE
8
SECTION
10
10.370797
20
0.000000
30
0.0
11
10.437355
21
0.000000
31
0.0
0
LINE
8
SECTION
10
10.437355
20
0.000000
30
0.0
11
10.437355
21
0.173441
31
0.0
0
LINE
8
SECTION
10
10.437355
20
0.173441
30
0.0
11
10.370797
21
0.173441
31
0.0
0
LINE
8
SECTION
10
10.370797
20
0.173441
30
0.0
11
10.370797
21
0.000000
31
0.0
0
LINE
8
SECTION
10
10.370797
20
-0.173441
30
0.0
11
10.437355
21
-0.173441
31
0.0
0
LINE
8
SECTION
10
10.437355
20
-0.173441
30
0.0
11
10.437355
21
0.000000
31
0.0
0
LINE
8
SECTION
10
10.437355
20
0.000000
30
0.0
11
10.370797
21
0.000000
31
0.0
0
LINE
8
SECTION
10
10.370797
20
0.000000
30
0.0
11
10.370797
21
-0.173441
31
0.0
0
LINE
8
SECTION
10
10.562645
20
0.000000
30
0.0
11
10.629203
21
0.000000
31
0.0
0
LINE
8
SECTION
10
10.629203
20
0.000000
30
0.0
11
10.629203
21
0.173441
31
0.0
0
LINE
8
SECTION
10
10.629203
20
0.173441
30
0.0
11
10.562645
21
0.173441
31
0.0
0
LINE
8
SECTION
10
10.562645
20
0.173441
30
0.0
11
10.562645
21
0.000000
31
0.0
0
LINE
8
SECTION
10
10.562645
20
-0.173441
30
0.0
11
10.629203
21
-0.173441
31
0.0
0
LINE
8
SECTION
10
10.629203
20
-0.173441
30
0.0
11
10.629203
21
0.000000
31
0.0
0
LINE
8
SECTION
10
10.629203
20
0.000000
30
0.0
11
10.562645
21
0.000000
31
0.0
0
LINE
8
SECTION
10
10.562645
20
0.000000
30
0.0
11
10.562645
21
-0.173441
31
0.0
0
ENDSEC
0
EOF
