0
SECTION
2
HEADER
9
$INSUNITS
70
1
0
ENDSEC
0
SECTION
2
ENTITIES
0
LINE
8
FRONT
10
0.000000
20
0.550000
30
0.0
11
0.112500
21
0.544078
31
0.0
0
LINE
8
FRONT
10
0.112500
20
0.544078
30
0.0
11
0.225000
21
0.538155
31
0.0
0
LINE
8
FRONT
10
0.225000
20
0.538155
30
0.0
11
0.337500
21
0.532233
31
0.0
0
LINE
8
FRONT
10
0.337500
20
0.532233
30
0.0
11
0.450000
21
0.526310
31
0.0
0
LINE
8
FRONT
10
0.450000
20
0.526310
30
0.0
11
0.500000
21
0.523678
31
0.0
0
LINE
8
FRONT
10
0.500000
20
0.523678
30
0.0
11
0.562500
21
0.520388
31
0.0
0
LINE
8
FRONT
10
0.562500
20
0.520388
30
0.0
11
0.675000
21
0.514465
31
0.0
0
LINE
8
FRONT
10
0.675000
20
0.514465
30
0.0
11
0.787500
21
0.508543
31
0.0
0
LINE
8
FRONT
10
0.787500
20
0.508543
30
0.0
11
0.900000
21
0.502621
31
0.0
0
LINE
8
FRONT
10
0.900000
20
0.502621
30
0.0
11
1.012500
21
0.496698
31
0.0
0
LINE
8
FRONT
10
1.012500
20
0.496698
30
0.0
11
1.125000
21
0.490776
31
0.0
0
LINE
8
FRONT
10
1.125000
20
0.490776
30
0.0
11
1.237500
21
0.484853
31
0.0
0
LINE
8
FRONT
10
1.237500
20
0.484853
30
0.0
11
1.350000
21
0.478931
31
0.0
0
LINE
8
FRONT
10
1.350000
20
0.478931
30
0.0
11
1.462500
21
0.473008
31
0.0
0
LINE
8
FRONT
10
1.462500
20
0.473008
30
0.0
11
1.575000
21
0.467086
31
0.0
0
LINE
8
FRONT
10
1.575000
20
0.467086
30
0.0
11
1.687500
21
0.461163
31
0.0
0
LINE
8
FRONT
10
1.687500
20
0.461163
30
0.0
11
1.800000
21
0.455241
31
0.0
0
LINE
8
FRONT
10
1.800000
20
0.455241
30
0.0
11
1.912500
21
0.449319
31
0.0
0
LINE
8
FRONT
10
1.912500
20
0.449319
30
0.0
11
2.025000
21
0.443396
31
0.0
0
LINE
8
FRONT
10
2.025000
20
0.443396
30
0.0
11
2.137500
21
0.437474
31
0.0
0
LINE
8
FRONT
10
2.137500
20
0.437474
30
0.0
11
2.250000
21
0.431551
31
0.0
0
LINE
8
FRONT
10
2.250000
20
0.431551
30
0.0
11
2.362500
21
0.425629
31
0.0
0
LINE
8
FRONT
10
2.362500
20
0.425629
30
0.0
11
2.475000
21
0.419706
31
0.0
0
LINE
8
FRONT
10
2.475000
20
0.419706
30
0.0
11
2.587500
21
0.413784
31
0.0
0
LINE
8
FRONT
10
2.587500
20
0.413784
30
0.0
11
2.700000
21
0.407862
31
0.0
0
LINE
8
FRONT
10
2.700000
20
0.407862
30
0.0
11
2.812500
21
0.401939
31
0.0
0
LINE
8
FRONT
10
2.812500
20
0.401939
30
0.0
11
2.925000
21
0.396017
31
0.0
0
LINE
8
FRONT
10
2.925000
20
0.396017
30
0.0
11
3.037500
21
0.390094
31
0.0
0
LINE
8
FRONT
10
3.037500
20
0.390094
30
0.0
11
3.150000
21
0.384172
31
0.0
0
LINE
8
FRONT
10
3.150000
20
0.384172
30
0.0
11
3.262500
21
0.378249
31
0.0
0
LINE
8
FRONT
10
3.262500
20
0.378249
30
0.0
11
3.375000
21
0.372327
31
0.0
0
LINE
8
FRONT
10
3.375000
20
0.372327
30
0.0
11
3.487500
21
0.366404
31
0.0
0
LINE
8
FRONT
10
3.487500
20
0.366404
30
0.0
11
3.600000
21
0.360482
31
0.0
0
LINE
8
FRONT
10
3.600000
20
0.360482
30
0.0
11
3.712500
21
0.354560
31
0.0
0
LINE
8
FRONT
10
3.712500
20
0.354560
30
0.0
11
3.825000
21
0.348637
31
0.0
0
LINE
8
FRONT
10
3.825000
20
0.348637
30
0.0
11
3.937500
21
0.342715
31
0.0
0
LINE
8
FRONT
10
3.937500
20
0.342715
30
0.0
11
4.050000
21
0.336792
31
0.0
0
LINE
8
FRONT
10
4.050000
20
0.336792
30
0.0
11
4.162500
21
0.330870
31
0.0
0
LINE
8
FRONT
10
4.162500
20
0.330870
30
0.0
11
4.275000
21
0.324947
31
0.0
0
LINE
8
FRONT
10
4.275000
20
0.324947
30
0.0
11
4.387500
21
0.319025
31
0.0
0
LINE
8
FRONT
10
4.387500
20
0.319025
30
0.0
11
4.500000
21
0.313103
31
0.0
0
LINE
8
FRONT
10
4.500000
20
0.313103
30
0.0
11
4.612500
21
0.312513
31
0.0
0
LINE
8
FRONT
10
4.612500
20
0.312513
30
0.0
11
4.725000
21
0.311923
31
0.0
0
LINE
8
FRONT
10
4.725000
20
0.311923
30
0.0
11
4.837500
21
0.311334
31
0.0
0
LINE
8
FRONT
10
4.837500
20
0.311334
30
0.0
11
4.950000
21
0.310744
31
0.0
0
LINE
8
FRONT
10
4.950000
20
0.310744
30
0.0
11
5.062500
21
0.310154
31
0.0
0
LINE
8
FRONT
10
5.062500
20
0.310154
30
0.0
11
5.175000
21
0.309565
31
0.0
0
LINE
8
FRONT
10
5.175000
20
0.309565
30
0.0
11
5.287500
21
0.308975
31
0.0
0
LINE
8
FRONT
10
5.287500
20
0.308975
30
0.0
11
5.400000
21
0.308386
31
0.0
0
LINE
8
FRONT
10
5.400000
20
0.308386
30
0.0
11
5.512500
21
0.307796
31
0.0
0
LINE
8
FRONT
10
5.512500
20
0.307796
30
0.0
11
5.625000
21
0.307206
31
0.0
0
LINE
8
FRONT
10
5.625000
20
0.307206
30
0.0
11
5.737500
21
0.306617
31
0.0
0
LINE
8
FRONT
10
5.737500
20
0.306617
30
0.0
11
5.850000
21
0.306027
31
0.0
0
LINE
8
FRONT
10
5.850000
20
0.306027
30
0.0
11
5.962500
21
0.305437
31
0.0
0
LINE
8
FRONT
10
5.962500
20
0.305437
30
0.0
11
6.075000
21
0.304848
31
0.0
0
LINE
8
FRONT
10
6.075000
20
0.304848
30
0.0
11
6.187500
21
0.304258
31
0.0
0
LINE
8
FRONT
10
6.187500
20
0.304258
30
0.0
11
6.300000
21
0.303669
31
0.0
0
LINE
8
FRONT
10
6.300000
20
0.303669
30
0.0
11
6.412500
21
0.303079
31
0.0
0
LINE
8
FRONT
10
6.412500
20
0.303079
30
0.0
11
6.525000
21
0.302489
31
0.0
0
LINE
8
FRONT
10
6.525000
20
0.302489
30
0.0
11
6.637500
21
0.301900
31
0.0
0
LINE
8
FRONT
10
6.637500
20
0.301900
30
0.0
11
6.750000
21
0.301310
31
0.0
0
LINE
8
FRONT
10
6.750000
20
0.301310
30
0.0
11
6.862500
21
0.300720
31
0.0
0
LINE
8
FRONT
10
6.862500
20
0.300720
30
0.0
11
6.975000
21
0.300131
31
0.0
0
LINE
8
FRONT
10
6.975000
20
0.300131
30
0.0
11
7.087500
21
0.299541
31
0.0
0
LINE
8
FRONT
10
7.087500
20
0.299541
30
0.0
11
7.200000
21
0.298952
31
0.0
0
LINE
8
FRONT
10
7.200000
20
0.298952
30
0.0
11
7.312500
21
0.298362
31
0.0
0
LINE
8
FRONT
10
7.312500
20
0.298362
30
0.0
11
7.425000
21
0.297772
31
0.0
0
LINE
8
FRONT
10
7.425000
20
0.297772
30
0.0
11
7.537500
21
0.297183
31
0.0
0
LINE
8
FRONT
10
7.537500
20
0.297183
30
0.0
11
7.650000
21
0.296593
31
0.0
0
LINE
8
FRONT
10
7.650000
20
0.296593
30
0.0
11
7.762500
21
0.296003
31
0.0
0
LINE
8
FRONT
10
7.762500
20
0.296003
30
0.0
11
7.875000
21
0.295414
31
0.0
0
LINE
8
FRONT
10
7.875000
20
0.295414
30
0.0
11
7.987500
21
0.294824
31
0.0
0
LINE
8
FRONT
10
7.987500
20
0.294824
30
0.0
11
8.100000
21
0.294235
31
0.0
0
LINE
8
FRONT
10
8.100000
20
0.294235
30
0.0
11
8.212500
21
0.293645
31
0.0
0
LINE
8
FRONT
10
8.212500
20
0.293645
30
0.0
11
8.325000
21
0.293055
31
0.0
0
LINE
8
FRONT
10
8.325000
20
0.293055
30
0.0
11
8.437500
21
0.292466
31
0.0
0
LINE
8
FRONT
10
8.437500
20
0.292466
30
0.0
11
8.500000
21
0.292138
31
0.0
0
LINE
8
FRONT
10
8.500000
20
0.292138
30
0.0
11
8.550000
21
0.291876
31
0.0
0
LINE
8
FRONT
10
8.550000
20
0.291876
30
0.0
11
8.662500
21
0.291286
31
0.0
0
LINE
8
FRONT
10
8.662500
20
0.291286
30
0.0
11
8.775000
21
0.290697
31
0.0
0
LINE
8
FRONT
10
8.775000
20
0.290697
30
0.0
11
8.887500
21
0.290107
31
0.0
0
LINE
8
FRONT
10
8.887500
20
0.290107
30
0.0
11
9.000000
21
0.289518
31
0.0
0
LINE
8
FRONT
10
0.000000
20
-0.550000
30
0.0
11
0.112500
21
-0.544078
31
0.0
0
LINE
8
FRONT
10
0.112500
20
-0.544078
30
0.0
11
0.225000
21
-0.538155
31
0.0
0
LINE
8
FRONT
10
0.225000
20
-0.538155
30
0.0
11
0.337500
21
-0.532233
31
0.0
0
LINE
8
FRONT
10
0.337500
20
-0.532233
30
0.0
11
0.450000
21
-0.526310
31
0.0
0
LINE
8
FRONT
10
0.450000
20
-0.526310
30
0.0
11
0.500000
21
-0.523678
31
0.0
0
LINE
8
FRONT
10
0.500000
20
-0.523678
30
0.0
11
0.562500
21
-0.520388
31
0.0
0
LINE
8
FRONT
10
0.562500
20
-0.520388
30
0.0
11
0.675000
21
-0.514465
31
0.0
0
LINE
8
FRONT
10
0.675000
20
-0.514465
30
0.0
11
0.787500
21
-0.508543
31
0.0
0
LINE
8
FRONT
10
0.787500
20
-0.508543
30
0.0
11
0.900000
21
-0.502621
31
0.0
0
LINE
8
FRONT
10
0.900000
20
-0.502621
30
0.0
11
1.012500
21
-0.496698
31
0.0
0
LINE
8
FRONT
10
1.012500
20
-0.496698
30
0.0
11
1.125000
21
-0.490776
31
0.0
0
LINE
8
FRONT
10
1.125000
20
-0.490776
30
0.0
11
1.237500
21
-0.484853
31
0.0
0
LINE
8
FRONT
10
1.237500
20
-0.484853
30
0.0
11
1.350000
21
-0.478931
31
0.0
0
LINE
8
FRONT
10
1.350000
20
-0.478931
30
0.0
11
1.462500
21
-0.473008
31
0.0
0
LINE
8
FRONT
10
1.462500
20
-0.473008
30
0.0
11
1.575000
21
-0.467086
31
0.0
0
LINE
8
FRONT
10
1.575000
20
-0.467086
30
0.0
11
1.687500
21
-0.461163
31
0.0
0
LINE
8
FRONT
10
1.687500
20
-0.461163
30
0.0
11
1.800000
21
-0.455241
31
0.0
0
LINE
8
FRONT
10
1.800000
20
-0.455241
30
0.0
11
1.912500
21
-0.449319
31
0.0
0
LINE
8
FRONT
10
1.912500
20
-0.449319
30
0.0
11
2.025000
21
-0.443396
31
0.0
0
LINE
8
FRONT
10
2.025000
20
-0.443396
30
0.0
11
2.137500
21
-0.437474
31
0.0
0
LINE
8
FRONT
10
2.137500
20
-0.437474
30
0.0
11
2.250000
21
-0.431551
31
0.0
0
LINE
8
FRONT
10
2.250000
20
-0.431551
30
0.0
11
2.362500
21
-0.425629
31
0.0
0
LINE
8
FRONT
10
2.362500
20
-0.425629
30
0.0
11
2.475000
21
-0.419706
31
0.0
0
LINE
8
FRONT
10
2.475000
20
-0.419706
30
0.0
11
2.587500
21
-0.413784
31
0.0
0
LINE
8
FRONT
10
2.587500
20
-0.413784
30
0.0
11
2.700000
21
-0.407862
31
0.0
0
LINE
8
FRONT
10
2.700000
20
-0.407862
30
0.0
11
2.812500
21
-0.401939
31
0.0
0
LINE
8
FRONT
10
2.812500
20
-0.401939
30
0.0
11
2.925000
21
-0.396017
31
0.0
0
LINE
8
FRONT
10
2.925000
20
-0.396017
30
0.0
11
3.037500
21
-0.390094
31
0.0
0
LINE
8
FRONT
10
3.037500
20
-0.390094
30
0.0
11
3.150000
21
-0.384172
31
0.0
0
LINE
8
FRONT
10
3.150000
20
-0.384172
30
0.0
11
3.262500
21
-0.378249
31
0.0
0
LINE
8
FRONT
10
3.262500
20
-0.378249
30
0.0
11
3.375000
21
-0.372327
31
0.0
0
LINE
8
FRONT
10
3.375000
20
-0.372327
30
0.0
11
3.487500
21
-0.366404
31
0.0
0
LINE
8
FRONT
10
3.487500
20
-0.366404
30
0.0
11
3.600000
21
-0.360482
31
0.0
0
LINE
8
FRONT
10
3.600000
20
-0.360482
30
0.0
11
3.712500
21
-0.354560
31
0.0
0
LINE
8
FRONT
10
3.712500
20
-0.354560
30
0.0
11
3.825000
21
-0.348637
31
0.0
0
LINE
8
FRONT
10
3.825000
20
-0.348637
30
0.0
11
3.937500
21
-0.342715
31
0.0
0
LINE
8
FRONT
10
3.937500
20
-0.342715
30
0.0
11
4.050000
21
-0.336792
31
0.0
0
LINE
8
FRONT
10
4.050000
20
-0.336792
30
0.0
11
4.162500
21
-0.330870
31
0.0
0
LINE
8
FRONT
10
4.162500
20
-0.330870
30
0.0
11
4.275000
21
-0.324947
31
0.0
0
LINE
8
FRONT
10
4.275000
20
-0.324947
30
0.0
11
4.387500
21
-0.319025
31
0.0
0
LINE
8
FRONT
10
4.387500
20
-0.319025
30
0.0
11
4.500000
21
-0.313103
31
0.0
0
LINE
8
FRONT
10
4.500000
20
-0.313103
30
0.0
11
4.612500
21
-0.312513
31
0.0
0
LINE
8
FRONT
10
4.612500
20
-0.312513
30
0.0
11
4.725000
21
-0.311923
31
0.0
0
LINE
8
FRONT
10
4.725000
20
-0.311923
30
0.0
11
4.837500
21
-0.311334
31
0.0
0
LINE
8
FRONT
10
4.837500
20
-0.311334
30
0.0
11
4.950000
21
-0.310744
31
0.0
0
LINE
8
FRONT
10
4.950000
20
-0.310744
30
0.0
11
5.062500
21
-0.310154
31
0.0
0
LINE
8
FRONT
10
5.062500
20
-0.310154
30
0.0
11
5.175000
21
-0.309565
31
0.0
0
LINE
8
FRONT
10
5.175000
20
-0.309565
30
0.0
11
5.287500
21
-0.308975
31
0.0
0
LINE
8
FRONT
10
5.287500
20
-0.308975
30
0.0
11
5.400000
21
-0.308386
31
0.0
0
LINE
8
FRONT
10
5.400000
20
-0.308386
30
0.0
11
5.512500
21
-0.307796
31
0.0
0
LINE
8
FRONT
10
5.512500
20
-0.307796
30
0.0
11
5.625000
21
-0.307206
31
0.0
0
LINE
8
FRONT
10
5.625000
20
-0.307206
30
0.0
11
5.737500
21
-0.306617
31
0.0
0
LINE
8
FRONT
10
5.737500
20
-0.306617
30
0.0
11
5.850000
21
-0.306027
31
0.0
0
LINE
8
FRONT
10
5.850000
20
-0.306027
30
0.0
11
5.962500
21
-0.305437
31
0.0
0
LINE
8
FRONT
10
5.962500
20
-0.305437
30
0.0
11
6.075000
21
-0.304848
31
0.0
0
LINE
8
FRONT
10
6.075000
20
-0.304848
30
0.0
11
6.187500
21
-0.304258
31
0.0
0
LINE
8
FRONT
10
6.187500
20
-0.304258
30
0.0
11
6.300000
21
-0.303669
31
0.0
0
LINE
8
FRONT
10
6.300000
20
-0.303669
30
0.0
11
6.412500
21
-0.303079
31
0.0
0
LINE
8
FRONT
10
6.412500
20
-0.303079
30
0.0
11
6.525000
21
-0.302489
31
0.0
0
LINE
8
FRONT
10
6.525000
20
-0.302489
30
0.0
11
6.637500
21
-0.301900
31
0.0
0
LINE
8
FRONT
10
6.637500
20
-0.301900
30
0.0
11
6.750000
21
-0.301310
31
0.0
0
LINE
8
FRONT
10
6.750000
20
-0.301310
30
0.0
11
6.862500
21
-0.300720
31
0.0
0
LINE
8
FRONT
10
6.862500
20
-0.300720
30
0.0
11
6.975000
21
-0.300131
31
0.0
0
LINE
8
FRONT
10
6.975000
20
-0.300131
30
0.0
11
7.087500
21
-0.299541
31
0.0
0
LINE
8
FRONT
10
7.087500
20
-0.299541
30
0.0
11
7.200000
21
-0.298952
31
0.0
0
LINE
8
FRONT
10
7.200000
20
-0.298952
30
0.0
11
7.312500
21
-0.298362
31
0.0
0
LINE
8
FRONT
10
7.312500
20
-0.298362
30
0.0
11
7.425000
21
-0.297772
31
0.0
0
LINE
8
FRONT
10
7.425000
20
-0.297772
30
0.0
11
7.537500
21
-0.297183
31
0.0
0
LINE
8
FRONT
10
7.537500
20
-0.297183
30
0.0
11
7.650000
21
-0.296593
31
0.0
0
LINE
8
FRONT
10
7.650000
20
-0.296593
30
0.0
11
7.762500
21
-0.296003
31
0.0
0
LINE
8
FRONT
10
7.762500
20
-0.296003
30
0.0
11
7.875000
21
-0.295414
31
0.0
0
LINE
8
FRONT
10
7.875000
20
-0.295414
30
0.0
11
7.987500
21
-0.294824
31
0.0
0
LINE
8
FRONT
10
7.987500
20
-0.294824
30
0.0
11
8.100000
21
-0.294235
31
0.0
0
LINE
8
FRONT
10
8.100000
20
-0.294235
30
0.0
11
8.212500
21
-0.293645
31
0.0
0
LINE
8
FRONT
10
8.212500
20
-0.293645
30
0.0
11
8.325000
21
-0.293055
31
0.0
0
LINE
8
FRONT
10
8.325000
20
-0.293055
30
0.0
11
8.437500
21
-0.292466
31
0.0
0
LINE
8
FRONT
10
8.437500
20
-0.292466
30
0.0
11
8.500000
21
-0.292138
31
0.0
0
LINE
8
FRONT
10
8.500000
20
-0.292138
30
0.0
11
8.550000
21
-0.291876
31
0.0
0
LINE
8
FRONT
10
8.550000
20
-0.291876
30
0.0
11
8.662500
21
-0.291286
31
0.0
0
LINE
8
FRONT
10
8.662500
20
-0.291286
30
0.0
11
8.775000
21
-0.290697
31
0.0
0
LINE
8
FRONT
10
8.775000
20
-0.290697
30
0.0
11
8.887500
21
-0.290107
31
0.0
0
LINE
8
FRONT
10
8.887500
20
-0.290107
30
0.0
11
9.000000
21
-0.289518
31
0.0
0
LINE
8
FRONT
10
0.000000
20
0.550000
30
0.0
11
0.000000
21
-0.550000
31
0.0
0
LINE
8
FRONT
10
9.000000
20
0.289518
30
0.0
11
9.000000
21
-0.289518
31
0.0
0
LINE
8
TOP
10
0.000000
20
2.560272
30
0.0
11
0.112500
21
2.560366
31
0.0
0
LINE
8
TOP
10
0.112500
20
2.560366
30
0.0
11
0.225000
21
2.560461
31
0.0
0
LINE
8
TOP
10
0.225000
20
2.560461
30
0.0
11
0.337500
21
2.560556
31
0.0
0
LINE
8
TOP
10
0.337500
20
2.560556
30
0.0
11
0.450000
21
2.560651
31
0.0
0
LINE
8
TOP
10
0.450000
20
2.560651
30
0.0
11
0.500000
21
2.560693
31
0.0
0
LINE
8
TOP
10
0.500000
20
2.560693
30
0.0
11
0.562500
21
2.560746
31
0.0
0
LINE
8
TOP
10
0.562500
20
2.560746
30
0.0
11
0.675000
21
2.560841
31
0.0
0
LINE
8
TOP
10
0.675000
20
2.560841
30
0.0
11
0.787500
21
2.560936
31
0.0
0
LINE
8
TOP
10
0.787500
20
2.560936
30
0.0
11
0.900000
21
2.561031
31
0.0
0
LINE
8
TOP
10
0.900000
20
2.561031
30
0.0
11
1.012500
21
2.561126
31
0.0
0
LINE
8
TOP
10
1.012500
20
2.561126
30
0.0
11
1.125000
21
2.561220
31
0.0
0
LINE
8
TOP
10
1.125000
20
2.561220
30
0.0
11
1.237500
21
2.561315
31
0.0
0
LINE
8
TOP
10
1.237500
20
2.561315
30
0.0
11
1.350000
21
2.561410
31
0.0
0
LINE
8
TOP
10
1.350000
20
2.561410
30
0.0
11
1.462500
21
2.561505
31
0.0
0
LINE
8
TOP
10
1.462500
20
2.561505
30
0.0
11
1.575000
21
2.561600
31
0.0
0
LINE
8
TOP
10
1.575000
20
2.561600
30
0.0
11
1.687500
21
2.561695
31
0.0
0
LINE
8
TOP
10
1.687500
20
2.561695
30
0.0
11
1.800000
21
2.561790
31
0.0
0
LINE
8
TOP
10
1.800000
20
2.561790
30
0.0
11
1.912500
21
2.561885
31
0.0
0
LINE
8
TOP
10
1.912500
20
2.561885
30
0.0
11
2.025000
21
2.561980
31
0.0
0
LINE
8
TOP
10
2.025000
20
2.561980
30
0.0
11
2.137500
21
2.562074
31
0.0
0
LINE
8
TOP
10
2.137500
20
2.562074
30
0.0
11
2.250000
21
2.562169
31
0.0
0
LINE
8
TOP
10
2.250000
20
2.562169
30
0.0
11
2.362500
21
2.562264
31
0.0
0
LINE
8
TOP
10
2.362500
20
2.562264
30
0.0
11
2.475000
21
2.562359
31
0.0
0
LINE
8
TOP
10
2.475000
20
2.562359
30
0.0
11
2.587500
21
2.562454
31
0.0
0
LINE
8
TOP
10
2.587500
20
2.562454
30
0.0
11
2.700000
21
2.562549
31
0.0
0
LINE
8
TOP
10
2.700000
20
2.562549
30
0.0
11
2.812500
21
2.562644
31
0.0
0
LINE
8
TOP
10
2.812500
20
2.562644
30
0.0
11
2.925000
21
2.562739
31
0.0
0
LINE
8
TOP
10
2.925000
20
2.562739
30
0.0
11
3.037500
21
2.562834
31
0.0
0
LINE
8
TOP
10
3.037500
20
2.562834
30
0.0
11
3.150000
21
2.562929
31
0.0
0
LINE
8
TOP
10
3.150000
20
2.562929
30
0.0
11
3.262500
21
2.563023
31
0.0
0
LINE
8
TOP
10
3.262500
20
2.563023
30
0.0
11
3.375000
21
2.563118
31
0.0
0
LINE
8
TOP
10
3.375000
20
2.563118
30
0.0
11
3.487500
21
2.563213
31
0.0
0
LINE
8
TOP
10
3.487500
20
2.563213
30
0.0
11
3.600000
21
2.563308
31
0.0
0
LINE
8
TOP
10
3.600000
20
2.563308
30
0.0
11
3.712500
21
2.563403
31
0.0
0
LINE
8
TOP
10
3.712500
20
2.563403
30
0.0
11
3.825000
21
2.563498
31
0.0
0
LINE
8
TOP
10
3.825000
20
2.563498
30
0.0
11
3.937500
21
2.563593
31
0.0
0
LINE
8
TOP
10
3.937500
20
2.563593
30
0.0
11
4.050000
21
2.563688
31
0.0
0
LINE
8
TOP
10
4.050000
20
2.563688
30
0.0
11
4.162500
21
2.563783
31
0.0
0
LINE
8
TOP
10
4.162500
20
2.563783
30
0.0
11
4.275000
21
2.563877
31
0.0
0
LINE
8
TOP
10
4.275000
20
2.563877
30
0.0
11
4.387500
21
2.563972
31
0.0
0
LINE
8
TOP
10
4.387500
20
2.563972
30
0.0
11
4.500000
21
2.564067
31
0.0
0
LINE
8
TOP
10
4.500000
20
2.564067
30
0.0
11
4.612500
21
2.564870
31
0.0
0
LINE
8
TOP
10
4.612500
20
2.564870
30
0.0
11
4.725000
21
2.565673
31
0.0
0
LINE
8
TOP
10
4.725000
20
2.565673
30
0.0
11
4.837500
21
2.566476
31
0.0
0
LINE
8
TOP
10
4.837500
20
2.566476
30
0.0
11
4.950000
21
2.567279
31
0.0
0
LINE
8
TOP
10
4.950000
20
2.567279
30
0.0
11
5.062500
21
2.568082
31
0.0
0
LINE
8
TOP
10
5.062500
20
2.568082
30
0.0
11
5.175000
21
2.568885
31
0.0
0
LINE
8
TOP
10
5.175000
20
2.568885
30
0.0
11
5.287500
21
2.569687
31
0.0
0
LINE
8
TOP
10
5.287500
20
2.569687
30
0.0
11
5.400000
21
2.570490
31
0.0
0
LINE
8
TOP
10
5.400000
20
2.570490
30
0.0
11
5.512500
21
2.571293
31
0.0
0
LINE
8
TOP
10
5.512500
20
2.571293
30
0.0
11
5.625000
21
2.572096
31
0.0
0
LINE
8
TOP
10
5.625000
20
2.572096
30
0.0
11
5.737500
21
2.572899
31
0.0
0
LINE
8
TOP
10
5.737500
20
2.572899
30
0.0
11
5.850000
21
2.573702
31
0.0
0
LINE
8
TOP
10
5.850000
20
2.573702
30
0.0
11
5.962500
21
2.574505
31
0.0
0
LINE
8
TOP
10
5.962500
20
2.574505
30
0.0
11
6.075000
21
2.575308
31
0.0
0
LINE
8
TOP
10
6.075000
20
2.575308
30
0.0
11
6.187500
21
2.576111
31
0.0
0
LINE
8
TOP
10
6.187500
20
2.576111
30
0.0
11
6.300000
21
2.576914
31
0.0
0
LINE
8
TOP
10
6.300000
20
2.576914
30
0.0
11
6.412500
21
2.577716
31
0.0
0
LINE
8
TOP
10
6.412500
20
2.577716
30
0.0
11
6.525000
21
2.578519
31
0.0
0
LINE
8
TOP
10
6.525000
20
2.578519
30
0.0
11
6.637500
21
2.579322
31
0.0
0
LINE
8
TOP
10
6.637500
20
2.579322
30
0.0
11
6.750000
21
2.580125
31
0.0
0
LINE
8
TOP
10
6.750000
20
2.580125
30
0.0
11
6.862500
21
2.580928
31
0.0
0
LINE
8
TOP
10
6.862500
20
2.580928
30
0.0
11
6.975000
21
2.581731
31
0.0
0
LINE
8
TOP
10
6.975000
20
2.581731
30
0.0
11
7.087500
21
2.582534
31
0.0
0
LINE
8
TOP
10
7.087500
20
2.582534
30
0.0
11
7.200000
21
2.583337
31
0.0
0
LINE
8
TOP
10
7.200000
20
2.583337
30
0.0
11
7.312500
21
2.584140
31
0.0
0
LINE
8
TOP
10
7.312500
20
2.584140
30
0.0
11
7.425000
21
2.584943
31
0.0
0
LINE
8
TOP
10
7.425000
20
2.584943
30
0.0
11
7.537500
21
2.585745
31
0.0
0
LINE
8
TOP
10
7.537500
20
2.585745
30
0.0
11
7.650000
21
2.586548
31
0.0
0
LINE
8
TOP
10
7.650000
20
2.586548
30
0.0
11
7.762500
21
2.587351
31
0.0
0
LINE
8
TOP
10
7.762500
20
2.587351
30
0.0
11
7.875000
21
2.588154
31
0.0
0
LINE
8
TOP
10
7.875000
20
2.588154
30
0.0
11
7.987500
21
2.588957
31
0.0
0
LINE
8
TOP
10
7.987500
20
2.588957
30
0.0
11
8.100000
21
2.589760
31
0.0
0
LINE
8
TOP
10
8.100000
20
2.589760
30
0.0
11
8.212500
21
2.590563
31
0.0
0
LINE
8
TOP
10
8.212500
20
2.590563
30
0.0
11
8.325000
21
2.591366
31
0.0
0
LINE
8
TOP
10
8.325000
20
2.591366
30
0.0
11
8.437500
21
2.592169
31
0.0
0
LINE
8
TOP
10
8.437500
20
2.592169
30
0.0
11
8.500000
21
2.592615
31
0.0
0
LINE
8
TOP
10
8.500000
20
2.592615
30
0.0
11
8.550000
21
2.592971
31
0.0
0
LINE
8
TOP
10
8.550000
20
2.592971
30
0.0
11
8.662500
21
2.593774
31
0.0
0
LINE
8
TOP
10
8.662500
20
2.593774
30
0.0
11
8.775000
21
2.594577
31
0.0
0
LINE
8
TOP
10
8.775000
20
2.594577
30
0.0
11
8.887500
21
2.595380
31
0.0
0
LINE
8
TOP
10
8.887500
20
2.595380
30
0.0
11
9.000000
21
2.596183
31
0.0
0
LINE
8
TOP
10
0.000000
20
2.239728
30
0.0
11
0.112500
21
2.239634
31
0.0
0
LINE
8
TOP
10
0.112500
20
2.239634
30
0.0
11
0.225000
21
2.239539
31
0.0
0
LINE
8
TOP
10
0.225000
20
2.239539
30
0.0
11
0.337500
21
2.239444
31
0.0
0
LINE
8
TOP
10
0.337500
20
2.239444
30
0.0
11
0.450000
21
2.239349
31
0.0
0
LINE
8
TOP
10
0.450000
20
2.239349
30
0.0
11
0.500000
21
2.239307
31
0.0
0
LINE
8
TOP
10
0.500000
20
2.239307
30
0.0
11
0.562500
21
2.239254
31
0.0
0
LINE
8
TOP
10
0.562500
20
2.239254
30
0.0
11
0.675000
21
2.239159
31
0.0
0
LINE
8
TOP
10
0.675000
20
2.239159
30
0.0
11
0.787500
21
2.239064
31
0.0
0
LINE
8
TOP
10
0.787500
20
2.239064
30
0.0
11
0.900000
21
2.238969
31
0.0
0
LINE
8
TOP
10
0.900000
20
2.238969
30
0.0
11
1.012500
21
2.238874
31
0.0
0
LINE
8
TOP
10
1.012500
20
2.238874
30
0.0
11
1.125000
21
2.238780
31
0.0
0
LINE
8
TOP
10
1.125000
20
2.238780
30
0.0
11
1.237500
21
2.238685
31
0.0
0
LINE
8
TOP
10
1.237500
20
2.238685
30
0.0
11
1.350000
21
2.238590
31
0.0
0
LINE
8
TOP
10
1.350000
20
2.238590
30
0.0
11
1.462500
21
2.238495
31
0.0
0
LINE
8
TOP
10
1.462500
20
2.238495
30
0.0
11
1.575000
21
2.238400
31
0.0
0
LINE
8
TOP
10
1.575000
20
2.238400
30
0.0
11
1.687500
21
2.238305
31
0.0
0
LINE
8
TOP
10
1.687500
20
2.238305
30
0.0
11
1.800000
21
2.238210
31
0.0
0
LINE
8
TOP
10
1.800000
20
2.238210
30
0.0
11
1.912500
21
2.238115
31
0.0
0
LINE
8
TOP
10
1.912500
20
2.238115
30
0.0
11
2.025000
21
2.238020
31
0.0
0
LINE
8
TOP
10
2.025000
20
2.238020
30
0.0
11
2.137500
21
2.237926
31
0.0
0
LINE
8
TOP
10
2.137500
20
2.237926
30
0.0
11
2.250000
21
2.237831
31
0.0
0
LINE
8
TOP
10
2.250000
20
2.237831
30
0.0
11
2.362500
21
2.237736
31
0.0
0
LINE
8
TOP
10
2.362500
20
2.237736
30
0.0
11
2.475000
21
2.237641
31
0.0
0
LINE
8
TOP
10
2.475000
20
2.237641
30
0.0
11
2.587500
21
2.237546
31
0.0
0
LINE
8
TOP
10
2.587500
20
2.237546
30
0.0
11
2.700000
21
2.237451
31
0.0
0
LINE
8
TOP
10
2.700000
20
2.237451
30
0.0
11
2.812500
21
2.237356
31
0.0
0
LINE
8
TOP
10
2.812500
20
2.237356
30
0.0
11
2.925000
21
2.237261
31
0.0
0
LINE
8
TOP
10
2.925000
20
2.237261
30
0.0
11
3.037500
21
2.237166
31
0.0
0
LINE
8
TOP
10
3.037500
20
2.237166
30
0.0
11
3.150000
21
2.237071
31
0.0
0
LINE
8
TOP
10
3.150000
20
2.237071
30
0.0
11
3.262500
21
2.236977
31
0.0
0
LINE
8
TOP
10
3.262500
20
2.236977
30
0.0
11
3.375000
21
2.236882
31
0.0
0
LINE
8
TOP
10
3.375000
20
2.236882
30
0.0
11
3.487500
21
2.236787
31
0.0
0
LINE
8
TOP
10
3.487500
20
2.236787
30
0.0
11
3.600000
21
2.236692
31
0.0
0
LINE
8
TOP
10
3.600000
20
2.236692
30
0.0
11
3.712500
21
2.236597
31
0.0
0
LINE
8
TOP
10
3.712500
20
2.236597
30
0.0
11
3.825000
21
2.236502
31
0.0
0
LINE
8
TOP
10
3.825000
20
2.236502
30
0.0
11
3.937500
21
2.236407
31
0.0
0
LINE
8
TOP
10
3.937500
20
2.236407
30
0.0
11
4.050000
21
2.236312
31
0.0
0
LINE
8
TOP
10
4.050000
20
2.236312
30
0.0
11
4.162500
21
2.236217
31
0.0
0
LINE
8
TOP
10
4.162500
20
2.236217
30
0.0
11
4.275000
21
2.236123
31
0.0
0
LINE
8
TOP
10
4.275000
20
2.236123
30
0.0
11
4.387500
21
2.236028
31
0.0
0
LINE
8
TOP
10
4.387500
20
2.236028
30
0.0
11
4.500000
21
2.235933
31
0.0
0
LINE
8
TOP
10
4.500000
20
2.235933
30
0.0
11
4.612500
21
2.235130
31
0.0
0
LINE
8
TOP
10
4.612500
20
2.235130
30
0.0
11
4.725000
21
2.234327
31
0.0
0
LINE
8
TOP
10
4.725000
20
2.234327
30
0.0
11
4.837500
21
2.233524
31
0.0
0
LINE
8
TOP
10
4.837500
20
2.233524
30
0.0
11
4.950000
21
2.232721
31
0.0
0
LINE
8
TOP
10
4.950000
20
2.232721
30
0.0
11
5.062500
21
2.231918
31
0.0
0
LINE
8
TOP
10
5.062500
20
2.231918
30
0.0
11
5.175000
21
2.231115
31
0.0
0
LINE
8
TOP
10
5.175000
20
2.231115
30
0.0
11
5.287500
21
2.230313
31
0.0
0
LINE
8
TOP
10
5.287500
20
2.230313
30
0.0
11
5.400000
21
2.229510
31
0.0
0
LINE
8
TOP
10
5.400000
20
2.229510
30
0.0
11
5.512500
21
2.228707
31
0.0
0
LINE
8
TOP
10
5.512500
20
2.228707
30
0.0
11
5.625000
21
2.227904
31
0.0
0
LINE
8
TOP
10
5.625000
20
2.227904
30
0.0
11
5.737500
21
2.227101
31
0.0
0
LINE
8
TOP
10
5.737500
20
2.227101
30
0.0
11
5.850000
21
2.226298
31
0.0
0
LINE
8
TOP
10
5.850000
20
2.226298
30
0.0
11
5.962500
21
2.225495
31
0.0
0
LINE
8
TOP
10
5.962500
20
2.225495
30
0.0
11
6.075000
21
2.224692
31
0.0
0
LINE
8
TOP
10
6.075000
20
2.224692
30
0.0
11
6.187500
21
2.223889
31
0.0
0
LINE
8
TOP
10
6.187500
20
2.223889
30
0.0
11
6.300000
21
2.223086
31
0.0
0
LINE
8
TOP
10
6.300000
20
2.223086
30
0.0
11
6.412500
21
2.222284
31
0.0
0
LINE
8
TOP
10
6.412500
20
2.222284
30
0.0
11
6.525000
21
2.221481
31
0.0
0
LINE
8
TOP
10
6.525000
20
2.221481
30
0.0
11
6.637500
21
2.220678
31
0.0
0
LINE
8
TOP
10
6.637500
20
2.220678
30
0.0
11
6.750000
21
2.219875
31
0.0
0
LINE
8
TOP
10
6.750000
20
2.219875
30
0.0
11
6.862500
21
2.219072
31
0.0
0
LINE
8
TOP
10
6.862500
20
2.219072
30
0.0
11
6.975000
21
2.218269
31
0.0
0
LINE
8
TOP
10
6.975000
20
2.218269
30
0.0
11
7.087500
21
2.217466
31
0.0
0
LINE
8
TOP
10
7.087500
20
2.217466
30
0.0
11
7.200000
21
2.216663
31
0.0
0
LINE
8
TOP
10
7.200000
20
2.216663
30
0.0
11
7.312500
21
2.215860
31
0.0
0
LINE
8
TOP
10
7.312500
20
2.215860
30
0.0
11
7.425000
21
2.215057
31
0.0
0
LINE
8
TOP
10
7.425000
20
2.215057
30
0.0
11
7.537500
21
2.214255
31
0.0
0
LINE
8
TOP
10
7.537500
20
2.214255
30
0.0
11
7.650000
21
2.213452
31
0.0
0
LINE
8
TOP
10
7.650000
20
2.213452
30
0.0
11
7.762500
21
2.212649
31
0.0
0
LINE
8
TOP
10
7.762500
20
2.212649
30
0.0
11
7.875000
21
2.211846
31
0.0
0
LINE
8
TOP
10
7.875000
20
2.211846
30
0.0
11
7.987500
21
2.211043
31
0.0
0
LINE
8
TOP
10
7.987500
20
2.211043
30
0.0
11
8.100000
21
2.210240
31
0.0
0
LINE
8
TOP
10
8.100000
20
2.210240
30
0.0
11
8.212500
21
2.209437
31
0.0
0
LINE
8
TOP
10
8.212500
20
2.209437
30
0.0
11
8.325000
21
2.208634
31
0.0
0
LINE
8
TOP
10
8.325000
20
2.208634
30
0.0
11
8.437500
21
2.207831
31
0.0
0
LINE
8
TOP
10
8.437500
20
2.207831
30
0.0
11
8.500000
21
2.207385
31
0.0
0
LINE
8
TOP
10
8.500000
20
2.207385
30
0.0
11
8.550000
21
2.207029
31
0.0
0
LINE
8
TOP
10
8.550000
20
2.207029
30
0.0
11
8.662500
21
2.206226
31
0.0
0
LINE
8
TOP
10
8.662500
20
2.206226
30
0.0
11
8.775000
21
2.205423
31
0.0
0
LINE
8
TOP
10
8.775000
20
2.205423
30
0.0
11
8.887500
21
2.204620
31
0.0
0
LINE
8
TOP
10
8.887500
20
2.204620
30
0.0
11
9.000000
21
2.203817
31
0.0
0
LINE
8
TOP
10
0.000000
20
2.560272
30
0.0
11
0.000000
21
2.239728
31
0.0
0
LINE
8
TOP
10
9.000000
20
2.596183
30
0.0
11
9.000000
21
2.203817
31
0.0
0
LINE
8
SECTION
10
10.335933
20
-0.313103
30
0.0
11
10.664067
21
-0.313103
31
0.0
0
LINE
8
SECTION
10
10.664067
20
-0.313103
30
0.0
11
10.664067
21
0.313103
31
0.0
0
LINE
8
SECTION
10
10.664067
20
0.313103
30
0.0
11
10.335933
21
0.313103
31
0.0
0
LINE
8
SECTION
10
10.335933
20
0.313103
30
0.0
11
10.335933
21
-0.313103
31
0.0
0
LINE
8
SECTION
10
10.406023
20
-0.243012
30
0.0
11
10.593977
21
-0.243012
31
0.0
0
LINE
8
SECTION
10
10.593977
20
-0.243012
30
0.0
11
10.593977
21
0.243012
31
0.0
0
LINE
8
SECTION
10
10.593977
20
0.243012
30
0.0
11
10.406023
21
0.243012
31
0.0
0
LINE
8
SECTION
10
10.406023
20
0.243012
30
0.0
11
10.406023
21
-0.243012
31
0.0
0
LINE
8
SECTION
10
10.406023
20
0.000000
30
0.0
11
10.476113
21
0.000000
31
0.0
0
LINE
8
SECTION
10
10.476113
20
0.000000
30
0.0
11
10.476113
21
0.243012
31
0.0
0
LINE
8
SECTION
10
10.476113
20
0.243012
30
0.0
11
10.406023
21
0.243012
31
0.0
0
LINE
8
SECTION
10
10.406023
20
0.243012
30
0.0
11
10.406023
21
0.000000
31
0.0
0
LINE
8
SECTION
10
10.406023
20
-0.243012
30
0.0
11
10.476113
21
-0.243012
31
0.0
0
LINE
8
SECTION
10
10.476113
20
-0.243012
30
0.0
11
10.476113
21
0.000000
31
0.0
0
LINE
8
SECTION
10
10.476113
20
0.000000
30
0.0
11
10.406023
21
0.000000
31
0.0
0
LINE
8
SECTION
10
10.406023
20
0.000000
30
0.0
11
10.406023
21
-0.243012
31
0.0
0
LINE
8
SECTION
10
10.523887
20
0.000000
30
0.0
11
10.593977
21
0.000000
31
0.0
0
LINE
8
SECTION
10
10.593977
20
0.000000
30
0.0
11
10.593977
21
0.243012
31
0.0
0
LINE
8
SECTION
10
10.593977
20
0.243012
30
0.0
11
10.523887
21
0.243012
31
0.0
0
LINE
8
SECTION
10
10.523887
20
0.243012
30
0.0
11
10.523887
21
0.000000
31
0.0
0
LINE
8
SECTION
10
10.523887
20
-0.243012
30
0.0
11
10.593977
21
-0.243012
31
0.0
0
LINE
8
SECTION
10
10.593977
20
-0.243012
30
0.0
11
10.593977
21
0.000000
31
0.0
0
LINE
8
SECTION
10
10.593977
20
0.000000
30
0.0
11
10.523887
21
0.000000
31
0.0
0
LINE
8
SECTION
10
10.523887
20
0.000000
30
0.0
11
10.523887
21
-0.243012
31
0.0
0
ENDSEC
0
EOF
