0
SECTION
2
HEADER
9
$INSUNITS
70
1
0
ENDSEC
0
SECTION
2
ENTITIES
0
LINE
8
FRONT
10
0.000000
20
0.156945
30
0.0
11
0.112500
21
0.156810
31
0.0
0
LINE
8
FRONT
10
0.112500
20
0.156810
30
0.0
11
0.225000
21
0.156675
31
0.0
0
LINE
8
FRONT
10
0.225000
20
0.156675
30
0.0
11
0.337500
21
0.156540
31
0.0
0
LINE
8
FRONT
10
0.337500
20
0.156540
30
0.0
11
0.450000
21
0.156405
31
0.0
0
LINE
8
FRONT
10
0.450000
20
0.156405
30
0.0
11
0.500000
21
0.156345
31
0.0
0
LINE
8
FRONT
10
0.500000
20
0.156345
30
0.0
11
0.562500
21
0.156270
31
0.0
0
LINE
8
FRONT
10
0.562500
20
0.156270
30
0.0
11
0.675000
21
0.156135
31
0.0
0
LINE
8
FRONT
10
0.675000
20
0.156135
30
0.0
11
0.787500
21
0.156001
31
0.0
0
LINE
8
FRONT
10
0.787500
20
0.156001
30
0.0
11
0.900000
21
0.155866
31
0.0
0
LINE
8
FRONT
10
0.900000
20
0.155866
30
0.0
11
1.012500
21
0.155731
31
0.0
0
LINE
8
FRONT
10
1.012500
20
0.155731
30
0.0
11
1.125000
21
0.155596
31
0.0
0
LINE
8
FRONT
10
1.125000
20
0.155596
30
0.0
11
1.237500
21
0.155461
31
0.0
0
LINE
8
FRONT
10
1.237500
20
0.155461
30
0.0
11
1.350000
21
0.155326
31
0.0
0
LINE
8
FRONT
10
1.350000
20
0.155326
30
0.0
11
1.462500
21
0.155192
31
0.0
0
LINE
8
FRONT
10
1.462500
20
0.155192
30
0.0
11
1.575000
21
0.155057
31
0.0
0
LINE
8
FRONT
10
1.575000
20
0.155057
30
0.0
11
1.687500
21
0.154922
31
0.0
0
LINE
8
FRONT
10
1.687500
20
0.154922
30
0.0
11
1.800000
21
0.154787
31
0.0
0
LINE
8
FRONT
10
1.800000
20
0.154787
30
0.0
11
1.912500
21
0.154652
31
0.0
0
LINE
8
FRONT
10
1.912500
20
0.154652
30
0.0
11
2.025000
21
0.154517
31
0.0
0
LINE
8
FRONT
10
2.025000
20
0.154517
30
0.0
11
2.137500
21
0.154382
31
0.0
0
LINE
8
FRONT
10
2.137500
20
0.154382
30
0.0
11
2.250000
21
0.154248
31
0.0
0
LINE
8
FRONT
10
2.250000
20
0.154248
30
0.0
11
2.362500
21
0.154113
31
0.0
0
LINE
8
FRONT
10
2.362500
20
0.154113
30
0.0
11
2.475000
21
0.153978
31
0.0
0
LINE
8
FRONT
10
2.475000
20
0.153978
30
0.0
11
2.587500
21
0.153843
31
0.0
0
LINE
8
FRONT
10
2.587500
20
0.153843
30
0.0
11
2.700000
21
0.153708
31
0.0
0
LINE
8
FRONT
10
2.700000
20
0.153708
30
0.0
11
2.812500
21
0.153573
31
0.0
0
LINE
8
FRONT
10
2.812500
20
0.153573
30
0.0
11
2.925000
21
0.153438
31
0.0
0
LINE
8
FRONT
10
2.925000
20
0.153438
30
0.0
11
3.037500
21
0.153304
31
0.0
0
LINE
8
FRONT
10
3.037500
20
0.153304
30
0.0
11
3.150000
21
0.153169
31
0.0
0
LINE
8
FRONT
10
3.150000
20
0.153169
30
0.0
11
3.262500
21
0.153034
31
0.0
0
LINE
8
FRONT
10
3.262500
20
0.153034
30
0.0
11
3.375000
21
0.152899
31
0.0
0
LINE
8
FRONT
10
3.375000
20
0.152899
30
0.0
11
3.487500
21
0.152764
31
0.0
0
LINE
8
FRONT
10
3.487500
20
0.152764
30
0.0
11
3.600000
21
0.152629
31
0.0
0
LINE
8
FRONT
10
3.600000
20
0.152629
30
0.0
11
3.712500
21
0.152494
31
0.0
0
LINE
8
FRONT
10
3.712500
20
0.152494
30
0.0
11
3.825000
21
0.152360
31
0.0
0
LINE
8
FRONT
10
3.825000
20
0.152360
30
0.0
11
3.937500
21
0.152225
31
0.0
0
LINE
8
FRONT
10
3.937500
20
0.152225
30
0.0
11
4.050000
21
0.152090
31
0.0
0
LINE
8
FRONT
10
4.050000
20
0.152090
30
0.0
11
4.162500
21
0.151955
31
0.0
0
LINE
8
FRONT
10
4.162500
20
0.151955
30
0.0
11
4.275000
21
0.151820
31
0.0
0
LINE
8
FRONT
10
4.275000
20
0.151820
30
0.0
11
4.387500
21
0.151685
31
0.0
0
LINE
8
FRONT
10
4.387500
20
0.151685
30
0.0
11
4.500000
21
0.151550
31
0.0
0
LINE
8
FRONT
10
4.500000
20
0.151550
30
0.0
11
4.612500
21
0.151685
31
0.0
0
LINE
8
FRONT
10
4.612500
20
0.151685
30
0.0
11
4.725000
21
0.151820
31
0.0
0
LINE
8
FRONT
10
4.725000
20
0.151820
30
0.0
11
4.837500
21
0.151955
31
0.0
0
LINE
8
FRONT
10
4.837500
20
0.151955
30
0.0
11
4.950000
21
0.152090
31
0.0
0
LINE
8
FRONT
10
4.950000
20
0.152090
30
0.0
11
5.062500
21
0.152225
31
0.0
0
LINE
8
FRONT
10
5.062500
20
0.152225
30
0.0
11
5.175000
21
0.152360
31
0.0
0
LINE
8
FRONT
10
5.175000
20
0.152360
30
0.0
11
5.287500
21
0.152494
31
0.0
0
LINE
8
FRONT
10
5.287500
20
0.152494
30
0.0
11
5.400000
21
0.152629
31
0.0
0
LINE
8
FRONT
10
5.400000
20
0.152629
30
0.0
11
5.512500
21
0.152764
31
0.0
0
LINE
8
FRONT
10
5.512500
20
0.152764
30
0.0
11
5.625000
21
0.152899
31
0.0
0
LINE
8
FRONT
10
5.625000
20
0.152899
30
0.0
11
5.737500
21
0.153034
31
0.0
0
LINE
8
FRONT
10
5.737500
20
0.153034
30
0.0
11
5.850000
21
0.153169
31
0.0
0
LINE
8
FRONT
10
5.850000
20
0.153169
30
0.0
11
5.962500
21
0.153304
31
0.0
0
LINE
8
FRONT
10
5.962500
20
0.153304
30
0.0
11
6.075000
21
0.153438
31
0.0
0
LINE
8
FRONT
10
6.075000
20
0.153438
30
0.0
11
6.187500
21
0.153573
31
0.0
0
LINE
8
FRONT
10
6.187500
20
0.153573
30
0.0
11
6.300000
21
0.153708
31
0.0
0
LINE
8
FRONT
10
6.300000
20
0.153708
30
0.0
11
6.412500
21
0.153843
31
0.0
0
LINE
8
FRONT
10
6.412500
20
0.153843
30
0.0
11
6.525000
21
0.153978
31
0.0
0
LINE
8
FRONT
10
6.525000
20
0.153978
30
0.0
11
6.637500
21
0.154113
31
0.0
0
LINE
8
FRONT
10
6.637500
20
0.154113
30
0.0
11
6.750000
21
0.154248
31
0.0
0
LINE
8
FRONT
10
6.750000
20
0.154248
30
0.0
11
6.862500
21
0.154382
31
0.0
0
LINE
8
FRONT
10
6.862500
20
0.154382
30
0.0
11
6.975000
21
0.154517
31
0.0
0
LINE
8
FRONT
10
6.975000
20
0.154517
30
0.0
11
7.087500
21
0.154652
31
0.0
0
LINE
8
FRONT
10
7.087500
20
0.154652
30
0.0
11
7.200000
21
0.154787
31
0.0
0
LINE
8
FRONT
10
7.200000
20
0.154787
30
0.0
11
7.312500
21
0.154922
31
0.0
0
LINE
8
FRONT
10
7.312500
20
0.154922
30
0.0
11
7.425000
21
0.155057
31
0.0
0
LINE
8
FRONT
10
7.425000
20
0.155057
30
0.0
11
7.537500
21
0.155192
31
0.0
0
LINE
8
FRONT
10
7.537500
20
0.155192
30
0.0
11
7.650000
21
0.155326
31
0.0
0
LINE
8
FRONT
10
7.650000
20
0.155326
30
0.0
11
7.762500
21
0.155461
31
0.0
0
LINE
8
FRONT
10
7.762500
20
0.155461
30
0.0
11
7.875000
21
0.155596
31
0.0
0
LINE
8
FRONT
10
7.875000
20
0.155596
30
0.0
11
7.987500
21
0.155731
31
0.0
0
LINE
8
FRONT
10
7.987500
20
0.155731
30
0.0
11
8.100000
21
0.155866
31
0.0
0
LINE
8
FRONT
10
8.100000
20
0.155866
30
0.0
11
8.212500
21
0.156001
31
0.0
0
LINE
8
FRONT
10
8.212500
20
0.156001
30
0.0
11
8.325000
21
0.156135
31
0.0
0
LINE
8
FRONT
10
8.325000
20
0.156135
30
0.0
11
8.437500
21
0.156270
31
0.0
0
LINE
8
FRONT
10
8.437500
20
0.156270
30
0.0
11
8.500000
21
0.156345
31
0.0
0
LINE
8
FRONT
10
8.500000
20
0.156345
30
0.0
11
8.550000
21
0.156405
31
0.0
0
LINE
8
FRONT
10
8.550000
20
0.156405
30
0.0
11
8.662500
21
0.156540
31
0.0
0
LINE
8
FRONT
10
8.662500
20
0.156540
30
0.0
11
8.775000
21
0.156675
31
0.0
0
LINE
8
FRONT
10
8.775000
20
0.156675
30
0.0
11
8.887500
21
0.156810
31
0.0
0
LINE
8
FRONT
10
8.887500
20
0.156810
30
0.0
11
9.000000
21
0.156945
31
0.0
0
LINE
8
FRONT
10
0.000000
20
-0.156945
30
0.0
11
0.112500
21
-0.156810
31
0.0
0
LINE
8
FRONT
10
0.112500
20
-0.156810
30
0.0
11
0.225000
21
-0.156675
31
0.0
0
LINE
8
FRONT
10
0.225000
20
-0.156675
30
0.0
11
0.337500
21
-0.156540
31
0.0
0
LINE
8
FRONT
10
0.337500
20
-0.156540
30
0.0
11
0.450000
21
-0.156405
31
0.0
0
LINE
8
FRONT
10
0.450000
20
-0.156405
30
0.0
11
0.500000
21
-0.156345
31
0.0
0
LINE
8
FRONT
10
0.500000
20
-0.156345
30
0.0
11
0.562500
21
-0.156270
31
0.0
0
LINE
8
FRONT
10
0.562500
20
-0.156270
30
0.0
11
0.675000
21
-0.156135
31
0.0
0
LINE
8
FRONT
10
0.675000
20
-0.156135
30
0.0
11
0.787500
21
-0.156001
31
0.0
0
LINE
8
FRONT
10
0.787500
20
-0.156001
30
0.0
11
0.900000
21
-0.155866
31
0.0
0
LINE
8
FRONT
10
0.900000
20
-0.155866
30
0.0
11
1.012500
21
-0.155731
31
0.0
0
LINE
8
FRONT
10
1.012500
20
-0.155731
30
0.0
11
1.125000
21
-0.155596
31
0.0
0
LINE
8
FRONT
10
1.125000
20
-0.155596
30
0.0
11
1.237500
21
-0.155461
31
0.0
0
LINE
8
FRONT
10
1.237500
20
-0.155461
30
0.0
11
1.350000
21
-0.155326
31
0.0
0
LINE
8
FRONT
10
1.350000
20
-0.155326
30
0.0
11
1.462500
21
-0.155192
31
0.0
0
LINE
8
FRONT
10
1.462500
20
-0.155192
30
0.0
11
1.575000
21
-0.155057
31
0.0
0
LINE
8
FRONT
10
1.575000
20
-0.155057
30
0.0
11
1.687500
21
-0.154922
31
0.0
0
LINE
8
FRONT
10
1.687500
20
-0.154922
30
0.0
11
1.800000
21
-0.154787
31
0.0
0
LINE
8
FRONT
10
1.800000
20
-0.154787
30
0.0
11
1.912500
21
-0.154652
31
0.0
0
LINE
8
FRONT
10
1.912500
20
-0.154652
30
0.0
11
2.025000
21
-0.154517
31
0.0
0
LINE
8
FRONT
10
2.025000
20
-0.154517
30
0.0
11
2.137500
21
-0.154382
31
0.0
0
LINE
8
FRONT
10
2.137500
20
-0.154382
30
0.0
11
2.250000
21
-0.154248
31
0.0
0
LINE
8
FRONT
10
2.250000
20
-0.154248
30
0.0
11
2.362500
21
-0.154113
31
0.0
0
LINE
8
FRONT
10
2.362500
20
-0.154113
30
0.0
11
2.475000
21
-0.153978
31
0.0
0
LINE
8
FRONT
10
2.475000
20
-0.153978
30
0.0
11
2.587500
21
-0.153843
31
0.0
0
LINE
8
FRONT
10
2.587500
20
-0.153843
30
0.0
11
2.700000
21
-0.153708
31
0.0
0
LINE
8
FRONT
10
2.700000
20
-0.153708
30
0.0
11
2.812500
21
-0.153573
31
0.0
0
LINE
8
FRONT
10
2.812500
20
-0.153573
30
0.0
11
2.925000
21
-0.153438
31
0.0
0
LINE
8
FRONT
10
2.925000
20
-0.153438
30
0.0
11
3.037500
21
-0.153304
31
0.0
0
LINE
8
FRONT
10
3.037500
20
-0.153304
30
0.0
11
3.150000
21
-0.153169
31
0.0
0
LINE
8
FRONT
10
3.150000
20
-0.153169
30
0.0
11
3.262500
21
-0.153034
31
0.0
0
LINE
8
FRONT
10
3.262500
20
-0.153034
30
0.0
11
3.375000
21
-0.152899
31
0.0
0
LINE
8
FRONT
10
3.375000
20
-0.152899
30
0.0
11
3.487500
21
-0.152764
31
0.0
0
LINE
8
FRONT
10
3.487500
20
-0.152764
30
0.0
11
3.600000
21
-0.152629
31
0.0
0
LINE
8
FRONT
10
3.600000
20
-0.152629
30
0.0
11
3.712500
21
-0.152494
31
0.0
0
LINE
8
FRONT
10
3.712500
20
-0.152494
30
0.0
11
3.825000
21
-0.152360
31
0.0
0
LINE
8
FRONT
10
3.825000
20
-0.152360
30
0.0
11
3.937500
21
-0.152225
31
0.0
0
LINE
8
FRONT
10
3.937500
20
-0.152225
30
0.0
11
4.050000
21
-0.152090
31
0.0
0
LINE
8
FRONT
10
4.050000
20
-0.152090
30
0.0
11
4.162500
21
-0.151955
31
0.0
0
LINE
8
FRONT
10
4.162500
20
-0.151955
30
0.0
11
4.275000
21
-0.151820
31
0.0
0
LINE
8
FRONT
10
4.275000
20
-0.151820
30
0.0
11
4.387500
21
-0.151685
31
0.0
0
LINE
8
FRONT
10
4.387500
20
-0.151685
30
0.0
11
4.500000
21
-0.151550
31
0.0
0
LINE
8
FRONT
10
4.500000
20
-0.151550
30
0.0
11
4.612500
21
-0.151685
31
0.0
0
LINE
8
FRONT
10
4.612500
20
-0.151685
30
0.0
11
4.725000
21
-0.151820
31
0.0
0
LINE
8
FRONT
10
4.725000
20
-0.151820
30
0.0
11
4.837500
21
-0.151955
31
0.0
0
LINE
8
FRONT
10
4.837500
20
-0.151955
30
0.0
11
4.950000
21
-0.152090
31
0.0
0
LINE
8
FRONT
10
4.950000
20
-0.152090
30
0.0
11
5.062500
21
-0.152225
31
0.0
0
LINE
8
FRONT
10
5.062500
20
-0.152225
30
0.0
11
5.175000
21
-0.152360
31
0.0
0
LINE
8
FRONT
10
5.175000
20
-0.152360
30
0.0
11
5.287500
21
-0.152494
31
0.0
0
LINE
8
FRONT
10
5.287500
20
-0.152494
30
0.0
11
5.400000
21
-0.152629
31
0.0
0
LINE
8
FRONT
10
5.400000
20
-0.152629
30
0.0
11
5.512500
21
-0.152764
31
0.0
0
LINE
8
FRONT
10
5.512500
20
-0.152764
30
0.0
11
5.625000
21
-0.152899
31
0.0
0
LINE
8
FRONT
10
5.625000
20
-0.152899
30
0.0
11
5.737500
21
-0.153034
31
0.0
0
LINE
8
FRONT
10
5.737500
20
-0.153034
30
0.0
11
5.850000
21
-0.153169
31
0.0
0
LINE
8
FRONT
10
5.850000
20
-0.153169
30
0.0
11
5.962500
21
-0.153304
31
0.0
0
LINE
8
FRONT
10
5.962500
20
-0.153304
30
0.0
11
6.075000
21
-0.153438
31
0.0
0
LINE
8
FRONT
10
6.075000
20
-0.153438
30
0.0
11
6.187500
21
-0.153573
31
0.0
0
LINE
8
FRONT
10
6.187500
20
-0.153573
30
0.0
11
6.300000
21
-0.153708
31
0.0
0
LINE
8
FRONT
10
6.300000
20
-0.153708
30
0.0
11
6.412500
21
-0.153843
31
0.0
0
LINE
8
FRONT
10
6.412500
20
-0.153843
30
0.0
11
6.525000
21
-0.153978
31
0.0
0
LINE
8
FRONT
10
6.525000
20
-0.153978
30
0.0
11
6.637500
21
-0.154113
31
0.0
0
LINE
8
FRONT
10
6.637500
20
-0.154113
30
0.0
11
6.750000
21
-0.154248
31
0.0
0
LINE
8
FRONT
10
6.750000
20
-0.154248
30
0.0
11
6.862500
21
-0.154382
31
0.0
0
LINE
8
FRONT
10
6.862500
20
-0.154382
30
0.0
11
6.975000
21
-0.154517
31
0.0
0
LINE
8
FRONT
10
6.975000
20
-0.154517
30
0.0
11
7.087500
21
-0.154652
31
0.0
0
LINE
8
FRONT
10
7.087500
20
-0.154652
30
0.0
11
7.200000
21
-0.154787
31
0.0
0
LINE
8
FRONT
10
7.200000
20
-0.154787
30
0.0
11
7.312500
21
-0.154922
31
0.0
0
LINE
8
FRONT
10
7.312500
20
-0.154922
30
0.0
11
7.425000
21
-0.155057
31
0.0
0
LINE
8
FRONT
10
7.425000
20
-0.155057
30
0.0
11
7.537500
21
-0.155192
31
0.0
0
LINE
8
FRONT
10
7.537500
20
-0.155192
30
0.0
11
7.650000
21
-0.155326
31
0.0
0
LINE
8
FRONT
10
7.650000
20
-0.155326
30
0.0
11
7.762500
21
-0.155461
31
0.0
0
LINE
8
FRONT
10
7.762500
20
-0.155461
30
0.0
11
7.875000
21
-0.155596
31
0.0
0
LINE
8
FRONT
10
7.875000
20
-0.155596
30
0.0
11
7.987500
21
-0.155731
31
0.0
0
LINE
8
FRONT
10
7.987500
20
-0.155731
30
0.0
11
8.100000
21
-0.155866
31
0.0
0
LINE
8
FRONT
10
8.100000
20
-0.155866
30
0.0
11
8.212500
21
-0.156001
31
0.0
0
LINE
8
FRONT
10
8.212500
20
-0.156001
30
0.0
11
8.325000
21
-0.156135
31
0.0
0
LINE
8
FRONT
10
8.325000
20
-0.156135
30
0.0
11
8.437500
21
-0.156270
31
0.0
0
LINE
8
FRONT
10
8.437500
20
-0.156270
30
0.0
11
8.500000
21
-0.156345
31
0.0
0
LINE
8
FRONT
10
8.500000
20
-0.156345
30
0.0
11
8.550000
21
-0.156405
31
0.0
0
LINE
8
FRONT
10
8.550000
20
-0.156405
30
0.0
11
8.662500
21
-0.156540
31
0.0
0
LINE
8
FRONT
10
8.662500
20
-0.156540
30
0.0
11
8.775000
21
-0.156675
31
0.0
0
LINE
8
FRONT
10
8.775000
20
-0.156675
30
0.0
11
8.887500
21
-0.156810
31
0.0
0
LINE
8
FRONT
10
8.887500
20
-0.156810
30
0.0
11
9.000000
21
-0.156945
31
0.0
0
LINE
8
FRONT
10
0.000000
20
0.156945
30
0.0
11
0.000000
21
-0.156945
31
0.0
0
LINE
8
FRONT
10
9.000000
20
0.156945
30
0.0
11
9.000000
21
-0.156945
31
0.0
0
LINE
8
TOP
10
0.000000
20
2.164604
30
0.0
11
0.112500
21
2.166739
31
0.0
0
LINE
8
TOP
10
0.112500
20
2.166739
30
0.0
11
0.225000
21
2.168874
31
0.0
0
LINE
8
TOP
10
0.225000
20
2.168874
30
0.0
11
0.337500
21
2.171008
31
0.0
0
LINE
8
TOP
10
0.337500
20
2.171008
30
0.0
11
0.450000
21
2.173143
31
0.0
0
LINE
8
TOP
10
0.450000
20
2.173143
30
0.0
11
0.500000
21
2.174092
31
0.0
0
LINE
8
TOP
10
0.500000
20
2.174092
30
0.0
11
0.562500
21
2.175278
31
0.0
0
LINE
8
TOP
10
0.562500
20
2.175278
30
0.0
11
0.675000
21
2.177413
31
0.0
0
LINE
8
TOP
10
0.675000
20
2.177413
30
0.0
11
0.787500
21
2.179548
31
0.0
0
LINE
8
TOP
10
0.787500
20
2.179548
30
0.0
11
0.900000
21
2.181683
31
0.0
0
LINE
8
TOP
10
0.900000
20
2.181683
30
0.0
11
1.012500
21
2.183818
31
0.0
0
LINE
8
TOP
10
1.012500
20
2.183818
30
0.0
11
1.125000
21
2.185953
31
0.0
0
LINE
8
TOP
10
1.125000
20
2.185953
30
0.0
11
1.237500
21
2.188088
31
0.0
0
LINE
8
TOP
10
1.237500
20
2.188088
30
0.0
11
1.350000
21
2.190223
31
0.0
0
LINE
8
TOP
10
1.350000
20
2.190223
30
0.0
11
1.462500
21
2.192358
31
0.0
0
LINE
8
TOP
10
1.462500
20
2.192358
30
0.0
11
1.575000
21
2.194492
31
0.0
0
LINE
8
TOP
10
1.575000
20
2.194492
30
0.0
11
1.687500
21
2.196627
31
0.0
0
LINE
8
TOP
10
1.687500
20
2.196627
30
0.0
11
1.800000
21
2.198762
31
0.0
0
LINE
8
TOP
10
1.800000
20
2.198762
30
0.0
11
1.912500
21
2.200897
31
0.0
0
LINE
8
TOP
10
1.912500
20
2.200897
30
0.0
11
2.025000
21
2.203032
31
0.0
0
LINE
8
TOP
10
2.025000
20
2.203032
30
0.0
11
2.137500
21
2.205167
31
0.0
0
LINE
8
TOP
10
2.137500
20
2.205167
30
0.0
11
2.250000
21
2.207302
31
0.0
0
LINE
8
TOP
10
2.250000
20
2.207302
30
0.0
11
2.362500
21
2.209437
31
0.0
0
LINE
8
TOP
10
2.362500
20
2.209437
30
0.0
11
2.475000
21
2.211572
31
0.0
0
LINE
8
TOP
10
2.475000
20
2.211572
30
0.0
11
2.587500
21
2.213707
31
0.0
0
LINE
8
TOP
10
2.587500
20
2.213707
30
0.0
11
2.700000
21
2.215841
31
0.0
0
LINE
8
TOP
10
2.700000
20
2.215841
30
0.0
11
2.812500
21
2.217976
31
0.0
0
LINE
8
TOP
10
2.812500
20
2.217976
30
0.0
11
2.925000
21
2.220111
31
0.0
0
LINE
8
TOP
10
2.925000
20
2.220111
30
0.0
11
3.037500
21
2.222246
31
0.0
0
LINE
8
TOP
10
3.037500
20
2.222246
30
0.0
11
3.150000
21
2.224381
31
0.0
0
LINE
8
TOP
10
3.150000
20
2.224381
30
0.0
11
3.262500
21
2.226516
31
0.0
0
LINE
8
TOP
10
3.262500
20
2.226516
30
0.0
11
3.375000
21
2.228651
31
0.0
0
LINE
8
TOP
10
3.375000
20
2.228651
30
0.0
11
3.487500
21
2.230786
31
0.0
0
LINE
8
TOP
10
3.487500
20
2.230786
30
0.0
11
3.600000
21
2.232921
31
0.0
0
LINE
8
TOP
10
3.600000
20
2.232921
30
0.0
11
3.712500
21
2.235056
31
0.0
0
LINE
8
TOP
10
3.712500
20
2.235056
30
0.0
11
3.825000
21
2.237191
31
0.0
0
LINE
8
TOP
10
3.825000
20
2.237191
30
0.0
11
3.937500
21
2.239325
31
0.0
0
LINE
8
TOP
10
3.937500
20
2.239325
30
0.0
11
4.050000
21
2.241460
31
0.0
0
LINE
8
TOP
10
4.050000
20
2.241460
30
0.0
11
4.162500
21
2.243595
31
0.0
0
LINE
8
TOP
10
4.162500
20
2.243595
30
0.0
11
4.275000
21
2.245730
31
0.0
0
LINE
8
TOP
10
4.275000
20
2.245730
30
0.0
11
4.387500
21
2.247865
31
0.0
0
LINE
8
TOP
10
4.387500
20
2.247865
30
0.0
11
4.500000
21
2.250000
31
0.0
0
LINE
8
TOP
10
4.500000
20
2.250000
30
0.0
11
4.612500
21
2.247865
31
0.0
0
LINE
8
TOP
10
4.612500
20
2.247865
30
0.0
11
4.725000
21
2.245730
31
0.0
0
LINE
8
TOP
10
4.725000
20
2.245730
30
0.0
11
4.837500
21
2.243595
31
0.0
0
LINE
8
TOP
10
4.837500
20
2.243595
30
0.0
11
4.950000
21
2.241460
31
0.0
0
LINE
8
TOP
10
4.950000
20
2.241460
30
0.0
11
5.062500
21
2.239325
31
0.0
0
LINE
8
TOP
10
5.062500
20
2.239325
30
0.0
11
5.175000
21
2.237191
31
0.0
0
LINE
8
TOP
10
5.175000
20
2.237191
30
0.0
11
5.287500
21
2.235056
31
0.0
0
LINE
8
TOP
10
5.287500
20
2.235056
30
0.0
11
5.400000
21
2.232921
31
0.0
0
LINE
8
TOP
10
5.400000
20
2.232921
30
0.0
11
5.512500
21
2.230786
31
0.0
0
LINE
8
TOP
10
5.512500
20
2.230786
30
0.0
11
5.625000
21
2.228651
31
0.0
0
LINE
8
TOP
10
5.625000
20
2.228651
30
0.0
11
5.737500
21
2.226516
31
0.0
0
LINE
8
TOP
10
5.737500
20
2.226516
30
0.0
11
5.850000
21
2.224381
31
0.0
0
LINE
8
TOP
10
5.850000
20
2.224381
30
0.0
11
5.962500
21
2.222246
31
0.0
0
LINE
8
TOP
10
5.962500
20
2.222246
30
0.0
11
6.075000
21
2.220111
31
0.0
0
LINE
8
TOP
10
6.075000
20
2.220111
30
0.0
11
6.187500
21
2.217976
31
0.0
0
LINE
8
TOP
10
6.187500
20
2.217976
30
0.0
11
6.300000
21
2.215841
31
0.0
0
LINE
8
TOP
10
6.300000
20
2.215841
30
0.0
11
6.412500
21
2.213707
31
0.0
0
LINE
8
TOP
10
6.412500
20
2.213707
30
0.0
11
6.525000
21
2.211572
31
0.0
0
LINE
8
TOP
10
6.525000
20
2.211572
30
0.0
11
6.637500
21
2.209437
31
0.0
0
LINE
8
TOP
10
6.637500
20
2.209437
30
0.0
11
6.750000
21
2.207302
31
0.0
0
LINE
8
TOP
10
6.750000
20
2.207302
30
0.0
11
6.862500
21
2.205167
31
0.0
0
LINE
8
TOP
10
6.862500
20
2.205167
30
0.0
11
6.975000
21
2.203032
31
0.0
0
LINE
8
TOP
10
6.975000
20
2.203032
30
0.0
11
7.087500
21
2.200897
31
0.0
0
LINE
8
TOP
10
7.087500
20
2.200897
30
0.0
11
7.200000
21
2.198762
31
0.0
0
LINE
8
TOP
10
7.200000
20
2.198762
30
0.0
11
7.312500
21
2.196627
31
0.0
0
LINE
8
TOP
10
7.312500
20
2.196627
30
0.0
11
7.425000
21
2.194492
31
0.0
0
LINE
8
TOP
10
7.425000
20
2.194492
30
0.0
11
7.537500
21
2.192358
31
0.0
0
LINE
8
TOP
10
7.537500
20
2.192358
30
0.0
11
7.650000
21
2.190223
31
0.0
0
LINE
8
TOP
10
7.650000
20
2.190223
30
0.0
11
7.762500
21
2.188088
31
0.0
0
LINE
8
TOP
10
7.762500
20
2.188088
30
0.0
11
7.875000
21
2.185953
31
0.0
0
LINE
8
TOP
10
7.875000
20
2.185953
30
0.0
11
7.987500
21
2.183818
31
0.0
0
LINE
8
TOP
10
7.987500
20
2.183818
30
0.0
11
8.100000
21
2.181683
31
0.0
0
LINE
8
TOP
10
8.100000
20
2.181683
30
0.0
11
8.212500
21
2.179548
31
0.0
0
LINE
8
TOP
10
8.212500
20
2.179548
30
0.0
11
8.325000
21
2.177413
31
0.0
0
LINE
8
TOP
10
8.325000
20
2.177413
30
0.0
11
8.437500
21
2.175278
31
0.0
0
LINE
8
TOP
10
8.437500
20
2.175278
30
0.0
11
8.500000
21
2.174092
31
0.0
0
LINE
8
TOP
10
8.500000
20
2.174092
30
0.0
11
8.550000
21
2.173143
31
0.0
0
LINE
8
TOP
10
8.550000
20
2.173143
30
0.0
11
8.662500
21
2.171008
31
0.0
0
LINE
8
TOP
10
8.662500
20
2.171008
30
0.0
11
8.775000
21
2.168874
31
0.0
0
LINE
8
TOP
10
8.775000
20
2.168874
30
0.0
11
8.887500
21
2.166739
31
0.0
0
LINE
8
TOP
10
8.887500
20
2.166739
30
0.0
11
9.000000
21
2.164604
31
0.0
0
LINE
8
TOP
10
0.000000
20
1.585396
30
0.0
11
0.112500
21
1.583261
31
0.0
0
LINE
8
TOP
10
0.112500
20
1.583261
30
0.0
11
0.225000
21
1.581126
31
0.0
0
LINE
8
TOP
10
0.225000
20
1.581126
30
0.0
11
0.337500
21
1.578992
31
0.0
0
LINE
8
TOP
10
0.337500
20
1.578992
30
0.0
11
0.450000
21
1.576857
31
0.0
0
LINE
8
TOP
10
0.450000
20
1.576857
30
0.0
11
0.500000
21
1.575908
31
0.0
0
LINE
8
TOP
10
0.500000
20
1.575908
30
0.0
11
0.562500
21
1.574722
31
0.0
0
LINE
8
TOP
10
0.562500
20
1.574722
30
0.0
11
0.675000
21
1.572587
31
0.0
0
LINE
8
TOP
10
0.675000
20
1.572587
30
0.0
11
0.787500
21
1.570452
31
0.0
0
LINE
8
TOP
10
0.787500
20
1.570452
30
0.0
11
0.900000
21
1.568317
31
0.0
0
LINE
8
TOP
10
0.900000
20
1.568317
30
0.0
11
1.012500
21
1.566182
31
0.0
0
LINE
8
TOP
10
1.012500
20
1.566182
30
0.0
11
1.125000
21
1.564047
31
0.0
0
LINE
8
TOP
10
1.125000
20
1.564047
30
0.0
11
1.237500
21
1.561912
31
0.0
0
LINE
8
TOP
10
1.237500
20
1.561912
30
0.0
11
1.350000
21
1.559777
31
0.0
0
LINE
8
TOP
10
1.350000
20
1.559777
30
0.0
11
1.462500
21
1.557642
31
0.0
0
LINE
8
TOP
10
1.462500
20
1.557642
30
0.0
11
1.575000
21
1.555508
31
0.0
0
LINE
8
TOP
10
1.575000
20
1.555508
30
0.0
11
1.687500
21
1.553373
31
0.0
0
LINE
8
TOP
10
1.687500
20
1.553373
30
0.0
11
1.800000
21
1.551238
31
0.0
0
LINE
8
TOP
10
1.800000
20
1.551238
30
0.0
11
1.912500
21
1.549103
31
0.0
0
LINE
8
TOP
10
1.912500
20
1.549103
30
0.0
11
2.025000
21
1.546968
31
0.0
0
LINE
8
TOP
10
2.025000
20
1.546968
30
0.0
11
2.137500
21
1.544833
31
0.0
0
LINE
8
TOP
10
2.137500
20
1.544833
30
0.0
11
2.250000
21
1.542698
31
0.0
0
LINE
8
TOP
10
2.250000
20
1.542698
30
0.0
11
2.362500
21
1.540563
31
0.0
0
LINE
8
TOP
10
2.362500
20
1.540563
30
0.0
11
2.475000
21
1.538428
31
0.0
0
LINE
8
TOP
10
2.475000
20
1.538428
30
0.0
11
2.587500
21
1.536293
31
0.0
0
LINE
8
TOP
10
2.587500
20
1.536293
30
0.0
11
2.700000
21
1.534159
31
0.0
0
LINE
8
TOP
10
2.700000
20
1.534159
30
0.0
11
2.812500
21
1.532024
31
0.0
0
LINE
8
TOP
10
2.812500
20
1.532024
30
0.0
11
2.925000
21
1.529889
31
0.0
0
LINE
8
TOP
10
2.925000
20
1.529889
30
0.0
11
3.037500
21
1.527754
31
0.0
0
LINE
8
TOP
10
3.037500
20
1.527754
30
0.0
11
3.150000
21
1.525619
31
0.0
0
LINE
8
TOP
10
3.150000
20
1.525619
30
0.0
11
3.262500
21
1.523484
31
0.0
0
LINE
8
TOP
10
3.262500
20
1.523484
30
0.0
11
3.375000
21
1.521349
31
0.0
0
LINE
8
TOP
10
3.375000
20
1.521349
30
0.0
11
3.487500
21
1.519214
31
0.0
0
LINE
8
TOP
10
3.487500
20
1.519214
30
0.0
11
3.600000
21
1.517079
31
0.0
0
LINE
8
TOP
10
3.600000
20
1.517079
30
0.0
11
3.712500
21
1.514944
31
0.0
0
LINE
8
TOP
10
3.712500
20
1.514944
30
0.0
11
3.825000
21
1.512809
31
0.0
0
LINE
8
TOP
10
3.825000
20
1.512809
30
0.0
11
3.937500
21
1.510675
31
0.0
0
LINE
8
TOP
10
3.937500
20
1.510675
30
0.0
11
4.050000
21
1.508540
31
0.0
0
LINE
8
TOP
10
4.050000
20
1.508540
30
0.0
11
4.162500
21
1.506405
31
0.0
0
LINE
8
TOP
10
4.162500
20
1.506405
30
0.0
11
4.275000
21
1.504270
31
0.0
0
LINE
8
TOP
10
4.275000
20
1.504270
30
0.0
11
4.387500
21
1.502135
31
0.0
0
LINE
8
TOP
10
4.387500
20
1.502135
30
0.0
11
4.500000
21
1.500000
31
0.0
0
LINE
8
TOP
10
4.500000
20
1.500000
30
0.0
11
4.612500
21
1.502135
31
0.0
0
LINE
8
TOP
10
4.612500
20
1.502135
30
0.0
11
4.725000
21
1.504270
31
0.0
0
LINE
8
TOP
10
4.725000
20
1.504270
30
0.0
11
4.837500
21
1.506405
31
0.0
0
LINE
8
TOP
10
4.837500
20
1.506405
30
0.0
11
4.950000
21
1.508540
31
0.0
0
LINE
8
TOP
10
4.950000
20
1.508540
30
0.0
11
5.062500
21
1.510675
31
0.0
0
LINE
8
TOP
10
5.062500
20
1.510675
30
0.0
11
5.175000
21
1.512809
31
0.0
0
LINE
8
TOP
10
5.175000
20
1.512809
30
0.0
11
5.287500
21
1.514944
31
0.0
0
LINE
8
TOP
10
5.287500
20
1.514944
30
0.0
11
5.400000
21
1.517079
31
0.0
0
LINE
8
TOP
10
5.400000
20
1.517079
30
0.0
11
5.512500
21
1.519214
31
0.0
0
LINE
8
TOP
10
5.512500
20
1.519214
30
0.0
11
5.625000
21
1.521349
31
0.0
0
LINE
8
TOP
10
5.625000
20
1.521349
30
0.0
11
5.737500
21
1.523484
31
0.0
0
LINE
8
TOP
10
5.737500
20
1.523484
30
0.0
11
5.850000
21
1.525619
31
0.0
0
LINE
8
TOP
10
5.850000
20
1.525619
30
0.0
11
5.962500
21
1.527754
31
0.0
0
LINE
8
TOP
10
5.962500
20
1.527754
30
0.0
11
6.075000
21
1.529889
31
0.0
0
LINE
8
TOP
10
6.075000
20
1.529889
30
0.0
11
6.187500
21
1.532024
31
0.0
0
LINE
8
TOP
10
6.187500
20
1.532024
30
0.0
11
6.300000
21
1.534159
31
0.0
0
LINE
8
TOP
10
6.300000
20
1.534159
30
0.0
11
6.412500
21
1.536293
31
0.0
0
LINE
8
TOP
10
6.412500
20
1.536293
30
0.0
11
6.525000
21
1.538428
31
0.0
0
LINE
8
TOP
10
6.525000
20
1.538428
30
0.0
11
6.637500
21
1.540563
31
0.0
0
LINE
8
TOP
10
6.637500
20
1.540563
30
0.0
11
6.750000
21
1.542698
31
0.0
0
LINE
8
TOP
10
6.750000
20
1.542698
30
0.0
11
6.862500
21
1.544833
31
0.0
0
LINE
8
TOP
10
6.862500
20
1.544833
30
0.0
11
6.975000
21
1.546968
31
0.0
0
LINE
8
TOP
10
6.975000
20
1.546968
30
0.0
11
7.087500
21
1.549103
31
0.0
0
LINE
8
TOP
10
7.087500
20
1.549103
30
0.0
11
7.200000
21
1.551238
31
0.0
0
LINE
8
TOP
10
7.200000
20
1.551238
30
0.0
11
7.312500
21
1.553373
31
0.0
0
LINE
8
TOP
10
7.312500
20
1.553373
30
0.0
11
7.425000
21
1.555508
31
0.0
0
LINE
8
TOP
10
7.425000
20
1.555508
30
0.0
11
7.537500
21
1.557642
31
0.0
0
LINE
8
TOP
10
7.537500
20
1.557642
30
0.0
11
7.650000
21
1.559777
31
0.0
0
LINE
8
TOP
10
7.650000
20
1.559777
30
0.0
11
7.762500
21
1.561912
31
0.0
0
LINE
8
TOP
10
7.762500
20
1.561912
30
0.0
11
7.875000
21
1.564047
31
0.0
0
LINE
8
TOP
10
7.875000
20
1.564047
30
0.0
11
7.987500
21
1.566182
31
0.0
0
LINE
8
TOP
10
7.987500
20
1.566182
30
0.0
11
8.100000
21
1.568317
31
0.0
0
LINE
8
TOP
10
8.100000
20
1.568317
30
0.0
11
8.212500
21
1.570452
31
0.0
0
LINE
8
TOP
10
8.212500
20
1.570452
30
0.0
11
8.325000
21
1.572587
31
0.0
0
LINE
8
TOP
10
8.325000
20
1.572587
30
0.0
11
8.437500
21
1.574722
31
0.0
0
LINE
8
TOP
10
8.437500
20
1.574722
30
0.0
11
8.500000
21
1.575908
31
0.0
0
LINE
8
TOP
10
8.500000
20
1.575908
30
0.0
11
8.550000
21
1.576857
31
0.0
0
LINE
8
TOP
10
8.550000
20
1.576857
30
0.0
11
8.662500
21
1.578992
31
0.0
0
LINE
8
TOP
10
8.662500
20
1.578992
30
0.0
11
8.775000
21
1.581126
31
0.0
0
LINE
8
TOP
10
8.775000
20
1.581126
30
0.0
11
8.887500
21
1.583261
31
0.0
0
LINE
8
TOP
10
8.887500
20
1.583261
30
0.0
11
9.000000
21
1.585396
31
0.0
0
LINE
8
TOP
10
0.000000
20
2.164604
30
0.0
11
0.000000
21
1.585396
31
0.0
0
LINE
8
TOP
10
9.000000
20
2.164604
30
0.0
11
9.000000
21
1.585396
31
0.0
0
LINE
8
SECTION
10
10.125000
20
-0.151550
30
0.0
11
10.875000
21
-0.151550
31
0.0
0
LINE
8
SECTION
10
10.875000
20
-0.151550
30
0.0
11
10.875000
21
0.151550
31
0.0
0
LINE
8
SECTION
10
10.875000
20
0.151550
30
0.0
11
10.125000
21
0.151550
31
0.0
0
LINE
8
SECTION
10
10.125000
20
0.151550
30
0.0
11
10.125000
21
-0.151550
31
0.0
0
LINE
8
SECTION
10
10.165000
20
-0.111550
30
0.0
11
10.835000
21
-0.111550
31
0.0
0
LINE
8
SECTION
10
10.835000
20
-0.111550
30
0.0
11
10.835000
21
0.111550
31
0.0
0
LINE
8
SECTION
10
10.835000
20
0.111550
30
0.0
11
10.165000
21
0.111550
31
0.0
0
LINE
8
SECTION
10
10.165000
20
0.111550
30
0.0
11
10.165000
21
-0.111550
31
0.0
0
LINE
8
SECTION
10
10.165000
20
0.000000
30
0.0
11
10.205000
21
0.000000
31
0.0
0
LINE
8
SECTION
10
10.205000
20
0.000000
30
0.0
11
10.205000
21
0.111550
31
0.0
0
LINE
8
SECTION
10
10.205000
20
0.111550
30
0.0
11
10.165000
21
0.111550
31
0.0
0
LINE
8
SECTION
10
10.165000
20
0.111550
30
0.0
11
10.165000
21
0.000000
31
0.0
0
LINE
8
SECTION
10
10.165000
20
-0.111550
30
0.0
11
10.205000
21
-0.111550
31
0.0
0
LINE
8
SECTION
10
10.205000
20
-0.111550
30
0.0
11
10.205000
21
0.000000
31
0.0
0
LINE
8
SECTION
10
10.205000
20
0.000000
30
0.0
11
10.165000
21
0.000000
31
0.0
0
LINE
8
SECTION
10
10.165000
20
0.000000
30
0.0
11
10.165000
21
-0.111550
31
0.0
0
LINE
8
SECTION
10
10.795000
20
0.000000
30
0.0
11
10.835000
21
0.000000
31
0.0
0
LINE
8
SECTION
10
10.835000
20
0.000000
30
0.0
11
10.835000
21
0.111550
31
0.0
0
LINE
8
SECTION
10
10.835000
20
0.111550
30
0.0
11
10.795000
21
0.111550
31
0.0
0
LINE
8
SECTION
10
10.795000
20
0.111550
30
0.0
11
10.795000
21
0.000000
31
0.0
0
LINE
8
SECTION
10
10.795000
20
-0.111550
30
0.0
11
10.835000
21
-0.111550
31
0.0
0
LINE
8
SECTION
10
10.835000
20
-0.111550
30
0.0
11
10.835000
21
0.000000
31
0.0
0
LINE
8
SECTION
10
10.835000
20
0.000000
30
0.0
11
10.795000
21
0.000000
31
0.0
0
LINE
8
SECTION
10
10.795000
20
0.000000
30
0.0
11
10.795000
21
-0.111550
31
0.0
0
ENDSEC
0
EOF
