0
SECTION
2
HEADER
9
$INSUNITS
70
1
0
ENDSEC
0
SECTION
2
ENTITIES
0
LINE
8
FRONT
10
0.000000
20
0.550000
30
0.0
11
0.112500
21
0.544164
31
0.0
0
LINE
8
FRONT
10
0.112500
20
0.544164
30
0.0
11
0.225000
21
0.538328
31
0.0
0
LINE
8
FRONT
10
0.225000
20
0.538328
30
0.0
11
0.337500
21
0.532492
31
0.0
0
LINE
8
FRONT
10
0.337500
20
0.532492
30
0.0
11
0.450000
21
0.526657
31
0.0
0
LINE
8
FRONT
10
0.450000
20
0.526657
30
0.0
11
0.500000
21
0.524063
31
0.0
0
LINE
8
FRONT
10
0.500000
20
0.524063
30
0.0
11
0.562500
21
0.520821
31
0.0
0
LINE
8
FRONT
10
0.562500
20
0.520821
30
0.0
11
0.675000
21
0.514985
31
0.0
0
LINE
8
FRONT
10
0.675000
20
0.514985
30
0.0
11
0.787500
21
0.509149
31
0.0
0
LINE
8
FRONT
10
0.787500
20
0.509149
30
0.0
11
0.900000
21
0.503313
31
0.0
0
LINE
8
FRONT
10
0.900000
20
0.503313
30
0.0
11
1.012500
21
0.497477
31
0.0
0
LINE
8
FRONT
10
1.012500
20
0.497477
30
0.0
11
1.125000
21
0.491641
31
0.0
0
LINE
8
FRONT
10
1.125000
20
0.491641
30
0.0
11
1.237500
21
0.485805
31
0.0
0
LINE
8
FRONT
10
1.237500
20
0.485805
30
0.0
11
1.350000
21
0.479970
31
0.0
0
LINE
8
FRONT
10
1.350000
20
0.479970
30
0.0
11
1.462500
21
0.474134
31
0.0
0
LINE
8
FRONT
10
1.462500
20
0.474134
30
0.0
11
1.575000
21
0.468298
31
0.0
0
LINE
8
FRONT
10
1.575000
20
0.468298
30
0.0
11
1.687500
21
0.462462
31
0.0
0
LINE
8
FRONT
10
1.687500
20
0.462462
30
0.0
11
1.800000
21
0.456626
31
0.0
0
LINE
8
FRONT
10
1.800000
20
0.456626
30
0.0
11
1.912500
21
0.450790
31
0.0
0
LINE
8
FRONT
10
1.912500
20
0.450790
30
0.0
11
2.025000
21
0.444954
31
0.0
0
LINE
8
FRONT
10
2.025000
20
0.444954
30
0.0
11
2.137500
21
0.439119
31
0.0
0
LINE
8
FRONT
10
2.137500
20
0.439119
30
0.0
11
2.250000
21
0.433283
31
0.0
0
LINE
8
FRONT
10
2.250000
20
0.433283
30
0.0
11
2.362500
21
0.427447
31
0.0
0
LINE
8
FRONT
10
2.362500
20
0.427447
30
0.0
11
2.475000
21
0.421611
31
0.0
0
LINE
8
FRONT
10
2.475000
20
0.421611
30
0.0
11
2.587500
21
0.415775
31
0.0
0
LINE
8
FRONT
10
2.587500
20
0.415775
30
0.0
11
2.700000
21
0.409939
31
0.0
0
LINE
8
FRONT
10
2.700000
20
0.409939
30
0.0
11
2.812500
21
0.404103
31
0.0
0
LINE
8
FRONT
10
2.812500
20
0.404103
30
0.0
11
2.925000
21
0.398267
31
0.0
0
LINE
8
FRONT
10
2.925000
20
0.398267
30
0.0
11
3.037500
21
0.392432
31
0.0
0
LINE
8
FRONT
10
3.037500
20
0.392432
30
0.0
11
3.150000
21
0.386596
31
0.0
0
LINE
8
FRONT
10
3.150000
20
0.386596
30
0.0
11
3.262500
21
0.380760
31
0.0
0
LINE
8
FRONT
10
3.262500
20
0.380760
30
0.0
11
3.375000
21
0.374924
31
0.0
0
LINE
8
FRONT
10
3.375000
20
0.374924
30
0.0
11
3.487500
21
0.369088
31
0.0
0
LINE
8
FRONT
10
3.487500
20
0.369088
30
0.0
11
3.600000
21
0.363252
31
0.0
0
LINE
8
FRONT
10
3.600000
20
0.363252
30
0.0
11
3.712500
21
0.357416
31
0.0
0
LINE
8
FRONT
10
3.712500
20
0.357416
30
0.0
11
3.825000
21
0.351581
31
0.0
0
LINE
8
FRONT
10
3.825000
20
0.351581
30
0.0
11
3.937500
21
0.345745
31
0.0
0
LINE
8
FRONT
10
3.937500
20
0.345745
30
0.0
11
4.050000
21
0.339909
31
0.0
0
LINE
8
FRONT
10
4.050000
20
0.339909
30
0.0
11
4.162500
21
0.334073
31
0.0
0
LINE
8
FRONT
10
4.162500
20
0.334073
30
0.0
11
4.275000
21
0.328237
31
0.0
0
LINE
8
FRONT
10
4.275000
20
0.328237
30
0.0
11
4.387500
21
0.322401
31
0.0
0
LINE
8
FRONT
10
4.387500
20
0.322401
30
0.0
11
4.500000
21
0.316565
31
0.0
0
LINE
8
FRONT
10
4.500000
20
0.316565
30
0.0
11
4.612500
21
0.315369
31
0.0
0
LINE
8
FRONT
10
4.612500
20
0.315369
30
0.0
11
4.725000
21
0.314172
31
0.0
0
LINE
8
FRONT
10
4.725000
20
0.314172
30
0.0
11
4.837500
21
0.312976
31
0.0
0
LINE
8
FRONT
10
4.837500
20
0.312976
30
0.0
11
4.950000
21
0.311779
31
0.0
0
LINE
8
FRONT
10
4.950000
20
0.311779
30
0.0
11
5.062500
21
0.310582
31
0.0
0
LINE
8
FRONT
10
5.062500
20
0.310582
30
0.0
11
5.175000
21
0.309386
31
0.0
0
LINE
8
FRONT
10
5.175000
20
0.309386
30
0.0
11
5.287500
21
0.308189
31
0.0
0
LINE
8
FRONT
10
5.287500
20
0.308189
30
0.0
11
5.400000
21
0.306993
31
0.0
0
LINE
8
FRONT
10
5.400000
20
0.306993
30
0.0
11
5.512500
21
0.305796
31
0.0
0
LINE
8
FRONT
10
5.512500
20
0.305796
30
0.0
11
5.625000
21
0.304599
31
0.0
0
LINE
8
FRONT
10
5.625000
20
0.304599
30
0.0
11
5.737500
21
0.303403
31
0.0
0
LINE
8
FRONT
10
5.737500
20
0.303403
30
0.0
11
5.850000
21
0.302206
31
0.0
0
LINE
8
FRONT
10
5.850000
20
0.302206
30
0.0
11
5.962500
21
0.301010
31
0.0
0
LINE
8
FRONT
10
5.962500
20
0.301010
30
0.0
11
6.075000
21
0.299813
31
0.0
0
LINE
8
FRONT
10
6.075000
20
0.299813
30
0.0
11
6.187500
21
0.298616
31
0.0
0
LINE
8
FRONT
10
6.187500
20
0.298616
30
0.0
11
6.300000
21
0.297420
31
0.0
0
LINE
8
FRONT
10
6.300000
20
0.297420
30
0.0
11
6.412500
21
0.296223
31
0.0
0
LINE
8
FRONT
10
6.412500
20
0.296223
30
0.0
11
6.525000
21
0.295027
31
0.0
0
LINE
8
FRONT
10
6.525000
20
0.295027
30
0.0
11
6.637500
21
0.293830
31
0.0
0
LINE
8
FRONT
10
6.637500
20
0.293830
30
0.0
11
6.750000
21
0.292633
31
0.0
0
LINE
8
FRONT
10
6.750000
20
0.292633
30
0.0
11
6.862500
21
0.291437
31
0.0
0
LINE
8
FRONT
10
6.862500
20
0.291437
30
0.0
11
6.975000
21
0.290240
31
0.0
0
LINE
8
FRONT
10
6.975000
20
0.290240
30
0.0
11
7.087500
21
0.289044
31
0.0
0
LINE
8
FRONT
10
7.087500
20
0.289044
30
0.0
11
7.200000
21
0.287847
31
0.0
0
LINE
8
FRONT
10
7.200000
20
0.287847
30
0.0
11
7.312500
21
0.286650
31
0.0
0
LINE
8
FRONT
10
7.312500
20
0.286650
30
0.0
11
7.425000
21
0.285454
31
0.0
0
LINE
8
FRONT
10
7.425000
20
0.285454
30
0.0
11
7.537500
21
0.284257
31
0.0
0
LINE
8
FRONT
10
7.537500
20
0.284257
30
0.0
11
7.650000
21
0.283061
31
0.0
0
LINE
8
FRONT
10
7.650000
20
0.283061
30
0.0
11
7.762500
21
0.281864
31
0.0
0
LINE
8
FRONT
10
7.762500
20
0.281864
30
0.0
11
7.875000
21
0.280668
31
0.0
0
LINE
8
FRONT
10
7.875000
20
0.280668
30
0.0
11
7.987500
21
0.279471
31
0.0
0
LINE
8
FRONT
10
7.987500
20
0.279471
30
0.0
11
8.100000
21
0.278274
31
0.0
0
LINE
8
FRONT
10
8.100000
20
0.278274
30
0.0
11
8.212500
21
0.277078
31
0.0
0
LINE
8
FRONT
10
8.212500
20
0.277078
30
0.0
11
8.325000
21
0.275881
31
0.0
0
LINE
8
FRONT
10
8.325000
20
0.275881
30
0.0
11
8.437500
21
0.274685
31
0.0
0
LINE
8
FRONT
10
8.437500
20
0.274685
30
0.0
11
8.500000
21
0.274020
31
0.0
0
LINE
8
FRONT
10
8.500000
20
0.274020
30
0.0
11
8.550000
21
0.273488
31
0.0
0
LINE
8
FRONT
10
8.550000
20
0.273488
30
0.0
11
8.662500
21
0.272291
31
0.0
0
LINE
8
FRONT
10
8.662500
20
0.272291
30
0.0
11
8.775000
21
0.271095
31
0.0
0
LINE
8
FRONT
10
8.775000
20
0.271095
30
0.0
11
8.887500
21
0.269898
31
0.0
0
LINE
8
FRONT
10
8.887500
20
0.269898
30
0.0
11
9.000000
21
0.268702
31
0.0
0
LINE
8
FRONT
10
0.000000
20
-0.550000
30
0.0
11
0.112500
21
-0.544164
31
0.0
0
LINE
8
FRONT
10
0.112500
20
-0.544164
30
0.0
11
0.225000
21
-0.538328
31
0.0
0
LINE
8
FRONT
10
0.225000
20
-0.538328
30
0.0
11
0.337500
21
-0.532492
31
0.0
0
LINE
8
FRONT
10
0.337500
20
-0.532492
30
0.0
11
0.450000
21
-0.526657
31
0.0
0
LINE
8
FRONT
10
0.450000
20
-0.526657
30
0.0
11
0.500000
21
-0.524063
31
0.0
0
LINE
8
FRONT
10
0.500000
20
-0.524063
30
0.0
11
0.562500
21
-0.520821
31
0.0
0
LINE
8
FRONT
10
0.562500
20
-0.520821
30
0.0
11
0.675000
21
-0.514985
31
0.0
0
LINE
8
FRONT
10
0.675000
20
-0.514985
30
0.0
11
0.787500
21
-0.509149
31
0.0
0
LINE
8
FRONT
10
0.787500
20
-0.509149
30
0.0
11
0.900000
21
-0.503313
31
0.0
0
LINE
8
FRONT
10
0.900000
20
-0.503313
30
0.0
11
1.012500
21
-0.497477
31
0.0
0
LINE
8
FRONT
10
1.012500
20
-0.497477
30
0.0
11
1.125000
21
-0.491641
31
0.0
0
LINE
8
FRONT
10
1.125000
20
-0.491641
30
0.0
11
1.237500
21
-0.485805
31
0.0
0
LINE
8
FRONT
10
1.237500
20
-0.485805
30
0.0
11
1.350000
21
-0.479970
31
0.0
0
LINE
8
FRONT
10
1.350000
20
-0.479970
30
0.0
11
1.462500
21
-0.474134
31
0.0
0
LINE
8
FRONT
10
1.462500
20
-0.474134
30
0.0
11
1.575000
21
-0.468298
31
0.0
0
LINE
8
FRONT
10
1.575000
20
-0.468298
30
0.0
11
1.687500
21
-0.462462
31
0.0
0
LINE
8
FRONT
10
1.687500
20
-0.462462
30
0.0
11
1.800000
21
-0.456626
31
0.0
0
LINE
8
FRONT
10
1.800000
20
-0.456626
30
0.0
11
1.912500
21
-0.450790
31
0.0
0
LINE
8
FRONT
10
1.912500
20
-0.450790
30
0.0
11
2.025000
21
-0.444954
31
0.0
0
LINE
8
FRONT
10
2.025000
20
-0.444954
30
0.0
11
2.137500
21
-0.439119
31
0.0
0
LINE
8
FRONT
10
2.137500
20
-0.439119
30
0.0
11
2.250000
21
-0.433283
31
0.0
0
LINE
8
FRONT
10
2.250000
20
-0.433283
30
0.0
11
2.362500
21
-0.427447
31
0.0
0
LINE
8
FRONT
10
2.362500
20
-0.427447
30
0.0
11
2.475000
21
-0.421611
31
0.0
0
LINE
8
FRONT
10
2.475000
20
-0.421611
30
0.0
11
2.587500
21
-0.415775
31
0.0
0
LINE
8
FRONT
10
2.587500
20
-0.415775
30
0.0
11
2.700000
21
-0.409939
31
0.0
0
LINE
8
FRONT
10
2.700000
20
-0.409939
30
0.0
11
2.812500
21
-0.404103
31
0.0
0
LINE
8
FRONT
10
2.812500
20
-0.404103
30
0.0
11
2.925000
21
-0.398267
31
0.0
0
LINE
8
FRONT
10
2.925000
20
-0.398267
30
0.0
11
3.037500
21
-0.392432
31
0.0
0
LINE
8
FRONT
10
3.037500
20
-0.392432
30
0.0
11
3.150000
21
-0.386596
31
0.0
0
LINE
8
FRONT
10
3.150000
20
-0.386596
30
0.0
11
3.262500
21
-0.380760
31
0.0
0
LINE
8
FRONT
10
3.262500
20
-0.380760
30
0.0
11
3.375000
21
-0.374924
31
0.0
0
LINE
8
FRONT
10
3.375000
20
-0.374924
30
0.0
11
3.487500
21
-0.369088
31
0.0
0
LINE
8
FRONT
10
3.487500
20
-0.369088
30
0.0
11
3.600000
21
-0.363252
31
0.0
0
LINE
8
FRONT
10
3.600000
20
-0.363252
30
0.0
11
3.712500
21
-0.357416
31
0.0
0
LINE
8
FRONT
10
3.712500
20
-0.357416
30
0.0
11
3.825000
21
-0.351581
31
0.0
0
LINE
8
FRONT
10
3.825000
20
-0.351581
30
0.0
11
3.937500
21
-0.345745
31
0.0
0
LINE
8
FRONT
10
3.937500
20
-0.345745
30
0.0
11
4.050000
21
-0.339909
31
0.0
0
LINE
8
FRONT
10
4.050000
20
-0.339909
30
0.0
11
4.162500
21
-0.334073
31
0.0
0
LINE
8
FRONT
10
4.162500
20
-0.334073
30
0.0
11
4.275000
21
-0.328237
31
0.0
0
LINE
8
FRONT
10
4.275000
20
-0.328237
30
0.0
11
4.387500
21
-0.322401
31
0.0
0
LINE
8
FRONT
10
4.387500
20
-0.322401
30
0.0
11
4.500000
21
-0.316565
31
0.0
0
LINE
8
FRONT
10
4.500000
20
-0.316565
30
0.0
11
4.612500
21
-0.315369
31
0.0
0
LINE
8
FRONT
10
4.612500
20
-0.315369
30
0.0
11
4.725000
21
-0.314172
31
0.0
0
LINE
8
FRONT
10
4.725000
20
-0.314172
30
0.0
11
4.837500
21
-0.312976
31
0.0
0
LINE
8
FRONT
10
4.837500
20
-0.312976
30
0.0
11
4.950000
21
-0.311779
31
0.0
0
LINE
8
FRONT
10
4.950000
20
-0.311779
30
0.0
11
5.062500
21
-0.310582
31
0.0
0
LINE
8
FRONT
10
5.062500
20
-0.310582
30
0.0
11
5.175000
21
-0.309386
31
0.0
0
LINE
8
FRONT
10
5.175000
20
-0.309386
30
0.0
11
5.287500
21
-0.308189
31
0.0
0
LINE
8
FRONT
10
5.287500
20
-0.308189
30
0.0
11
5.400000
21
-0.306993
31
0.0
0
LINE
8
FRONT
10
5.400000
20
-0.306993
30
0.0
11
5.512500
21
-0.305796
31
0.0
0
LINE
8
FRONT
10
5.512500
20
-0.305796
30
0.0
11
5.625000
21
-0.304599
31
0.0
0
LINE
8
FRONT
10
5.625000
20
-0.304599
30
0.0
11
5.737500
21
-0.303403
31
0.0
0
LINE
8
FRONT
10
5.737500
20
-0.303403
30
0.0
11
5.850000
21
-0.302206
31
0.0
0
LINE
8
FRONT
10
5.850000
20
-0.302206
30
0.0
11
5.962500
21
-0.301010
31
0.0
0
LINE
8
FRONT
10
5.962500
20
-0.301010
30
0.0
11
6.075000
21
-0.299813
31
0.0
0
LINE
8
FRONT
10
6.075000
20
-0.299813
30
0.0
11
6.187500
21
-0.298616
31
0.0
0
LINE
8
FRONT
10
6.187500
20
-0.298616
30
0.0
11
6.300000
21
-0.297420
31
0.0
0
LINE
8
FRONT
10
6.300000
20
-0.297420
30
0.0
11
6.412500
21
-0.296223
31
0.0
0
LINE
8
FRONT
10
6.412500
20
-0.296223
30
0.0
11
6.525000
21
-0.295027
31
0.0
0
LINE
8
FRONT
10
6.525000
20
-0.295027
30
0.0
11
6.637500
21
-0.293830
31
0.0
0
LINE
8
FRONT
10
6.637500
20
-0.293830
30
0.0
11
6.750000
21
-0.292633
31
0.0
0
LINE
8
FRONT
10
6.750000
20
-0.292633
30
0.0
11
6.862500
21
-0.291437
31
0.0
0
LINE
8
FRONT
10
6.862500
20
-0.291437
30
0.0
11
6.975000
21
-0.290240
31
0.0
0
LINE
8
FRONT
10
6.975000
20
-0.290240
30
0.0
11
7.087500
21
-0.289044
31
0.0
0
LINE
8
FRONT
10
7.087500
20
-0.289044
30
0.0
11
7.200000
21
-0.287847
31
0.0
0
LINE
8
FRONT
10
7.200000
20
-0.287847
30
0.0
11
7.312500
21
-0.286650
31
0.0
0
LINE
8
FRONT
10
7.312500
20
-0.286650
30
0.0
11
7.425000
21
-0.285454
31
0.0
0
LINE
8
FRONT
10
7.425000
20
-0.285454
30
0.0
11
7.537500
21
-0.284257
31
0.0
0
LINE
8
FRONT
10
7.537500
20
-0.284257
30
0.0
11
7.650000
21
-0.283061
31
0.0
0
LINE
8
FRONT
10
7.650000
20
-0.283061
30
0.0
11
7.762500
21
-0.281864
31
0.0
0
LINE
8
FRONT
10
7.762500
20
-0.281864
30
0.0
11
7.875000
21
-0.280668
31
0.0
0
LINE
8
FRONT
10
7.875000
20
-0.280668
30
0.0
11
7.987500
21
-0.279471
31
0.0
0
LINE
8
FRONT
10
7.987500
20
-0.279471
30
0.0
11
8.100000
21
-0.278274
31
0.0
0
LINE
8
FRONT
10
8.100000
20
-0.278274
30
0.0
11
8.212500
21
-0.277078
31
0.0
0
LINE
8
FRONT
10
8.212500
20
-0.277078
30
0.0
11
8.325000
21
-0.275881
31
0.0
0
LINE
8
FRONT
10
8.325000
20
-0.275881
30
0.0
11
8.437500
21
-0.274685
31
0.0
0
LINE
8
FRONT
10
8.437500
20
-0.274685
30
0.0
11
8.500000
21
-0.274020
31
0.0
0
LINE
8
FRONT
10
8.500000
20
-0.274020
30
0.0
11
8.550000
21
-0.273488
31
0.0
0
LINE
8
FRONT
10
8.550000
20
-0.273488
30
0.0
11
8.662500
21
-0.272291
31
0.0
0
LINE
8
FRONT
10
8.662500
20
-0.272291
30
0.0
11
8.775000
21
-0.271095
31
0.0
0
LINE
8
FRONT
10
8.775000
20
-0.271095
30
0.0
11
8.887500
21
-0.269898
31
0.0
0
LINE
8
FRONT
10
8.887500
20
-0.269898
30
0.0
11
9.000000
21
-0.268702
31
0.0
0
LINE
8
FRONT
10
0.000000
20
0.550000
30
0.0
11
0.000000
21
-0.550000
31
0.0
0
LINE
8
FRONT
10
9.000000
20
0.268702
30
0.0
11
9.000000
21
-0.268702
31
0.0
0
LINE
8
TOP
10
0.000000
20
2.520000
30
0.0
11
0.112500
21
2.521106
31
0.0
0
LINE
8
TOP
10
0.112500
20
2.521106
30
0.0
11
0.225000
21
2.522212
31
0.0
0
LINE
8
TOP
10
0.225000
20
2.522212
30
0.0
11
0.337500
21
2.523319
31
0.0
0
LINE
8
TOP
10
0.337500
20
2.523319
30
0.0
11
0.450000
21
2.524425
31
0.0
0
LINE
8
TOP
10
0.450000
20
2.524425
30
0.0
11
0.500000
21
2.524916
31
0.0
0
LINE
8
TOP
10
0.500000
20
2.524916
30
0.0
11
0.562500
21
2.525531
31
0.0
0
LINE
8
TOP
10
0.562500
20
2.525531
30
0.0
11
0.675000
21
2.526637
31
0.0
0
LINE
8
TOP
10
0.675000
20
2.526637
30
0.0
11
0.787500
21
2.527743
31
0.0
0
LINE
8
TOP
10
0.787500
20
2.527743
30
0.0
11
0.900000
21
2.528850
31
0.0
0
LINE
8
TOP
10
0.900000
20
2.528850
30
0.0
11
1.012500
21
2.529956
31
0.0
0
LINE
8
TOP
10
1.012500
20
2.529956
30
0.0
11
1.125000
21
2.531062
31
0.0
0
LINE
8
TOP
10
1.125000
20
2.531062
30
0.0
11
1.237500
21
2.532168
31
0.0
0
LINE
8
TOP
10
1.237500
20
2.532168
30
0.0
11
1.350000
21
2.533274
31
0.0
0
LINE
8
TOP
10
1.350000
20
2.533274
30
0.0
11
1.462500
21
2.534381
31
0.0
0
LINE
8
TOP
10
1.462500
20
2.534381
30
0.0
11
1.575000
21
2.535487
31
0.0
0
LINE
8
TOP
10
1.575000
20
2.535487
30
0.0
11
1.687500
21
2.536593
31
0.0
0
LINE
8
TOP
10
1.687500
20
2.536593
30
0.0
11
1.800000
21
2.537699
31
0.0
0
LINE
8
TOP
10
1.800000
20
2.537699
30
0.0
11
1.912500
21
2.538806
31
0.0
0
LINE
8
TOP
10
1.912500
20
2.538806
30
0.0
11
2.025000
21
2.539912
31
0.0
0
LINE
8
TOP
10
2.025000
20
2.539912
30
0.0
11
2.137500
21
2.541018
31
0.0
0
LINE
8
TOP
10
2.137500
20
2.541018
30
0.0
11
2.250000
21
2.542124
31
0.0
0
LINE
8
TOP
10
2.250000
20
2.542124
30
0.0
11
2.362500
21
2.543230
31
0.0
0
LINE
8
TOP
10
2.362500
20
2.543230
30
0.0
11
2.475000
21
2.544337
31
0.0
0
LINE
8
TOP
10
2.475000
20
2.544337
30
0.0
11
2.587500
21
2.545443
31
0.0
0
LINE
8
TOP
10
2.587500
20
2.545443
30
0.0
11
2.700000
21
2.546549
31
0.0
0
LINE
8
TOP
10
2.700000
20
2.546549
30
0.0
11
2.812500
21
2.547655
31
0.0
0
LINE
8
TOP
10
2.812500
20
2.547655
30
0.0
11
2.925000
21
2.548761
31
0.0
0
LINE
8
TOP
10
2.925000
20
2.548761
30
0.0
11
3.037500
21
2.549868
31
0.0
0
LINE
8
TOP
10
3.037500
20
2.549868
30
0.0
11
3.150000
21
2.550974
31
0.0
0
LINE
8
TOP
10
3.150000
20
2.550974
30
0.0
11
3.262500
21
2.552080
31
0.0
0
LINE
8
TOP
10
3.262500
20
2.552080
30
0.0
11
3.375000
21
2.553186
31
0.0
0
LINE
8
TOP
10
3.375000
20
2.553186
30
0.0
11
3.487500
21
2.554292
31
0.0
0
LINE
8
TOP
10
3.487500
20
2.554292
30
0.0
11
3.600000
21
2.555399
31
0.0
0
LINE
8
TOP
10
3.600000
20
2.555399
30
0.0
11
3.712500
21
2.556505
31
0.0
0
LINE
8
TOP
10
3.712500
20
2.556505
30
0.0
11
3.825000
21
2.557611
31
0.0
0
LINE
8
TOP
10
3.825000
20
2.557611
30
0.0
11
3.937500
21
2.558717
31
0.0
0
LINE
8
TOP
10
3.937500
20
2.558717
30
0.0
11
4.050000
21
2.559823
31
0.0
0
LINE
8
TOP
10
4.050000
20
2.559823
30
0.0
11
4.162500
21
2.560930
31
0.0
0
LINE
8
TOP
10
4.162500
20
2.560930
30
0.0
11
4.275000
21
2.562036
31
0.0
0
LINE
8
TOP
10
4.275000
20
2.562036
30
0.0
11
4.387500
21
2.563142
31
0.0
0
LINE
8
TOP
10
4.387500
20
2.563142
30
0.0
11
4.500000
21
2.564248
31
0.0
0
LINE
8
TOP
10
4.500000
20
2.564248
30
0.0
11
4.612500
21
2.565855
31
0.0
0
LINE
8
TOP
10
4.612500
20
2.565855
30
0.0
11
4.725000
21
2.567462
31
0.0
0
LINE
8
TOP
10
4.725000
20
2.567462
30
0.0
11
4.837500
21
2.569069
31
0.0
0
LINE
8
TOP
10
4.837500
20
2.569069
30
0.0
11
4.950000
21
2.570676
31
0.0
0
LINE
8
TOP
10
4.950000
20
2.570676
30
0.0
11
5.062500
21
2.572283
31
0.0
0
LINE
8
TOP
10
5.062500
20
2.572283
30
0.0
11
5.175000
21
2.573890
31
0.0
0
LINE
8
TOP
10
5.175000
20
2.573890
30
0.0
11
5.287500
21
2.575496
31
0.0
0
LINE
8
TOP
10
5.287500
20
2.575496
30
0.0
11
5.400000
21
2.577103
31
0.0
0
LINE
8
TOP
10
5.400000
20
2.577103
30
0.0
11
5.512500
21
2.578710
31
0.0
0
LINE
8
TOP
10
5.512500
20
2.578710
30
0.0
11
5.625000
21
2.580317
31
0.0
0
LINE
8
TOP
10
5.625000
20
2.580317
30
0.0
11
5.737500
21
2.581924
31
0.0
0
LINE
8
TOP
10
5.737500
20
2.581924
30
0.0
11
5.850000
21
2.583531
31
0.0
0
LINE
8
TOP
10
5.850000
20
2.583531
30
0.0
11
5.962500
21
2.585138
31
0.0
0
LINE
8
TOP
10
5.962500
20
2.585138
30
0.0
11
6.075000
21
2.586744
31
0.0
0
LINE
8
TOP
10
6.075000
20
2.586744
30
0.0
11
6.187500
21
2.588351
31
0.0
0
LINE
8
TOP
10
6.187500
20
2.588351
30
0.0
11
6.300000
21
2.589958
31
0.0
0
LINE
8
TOP
10
6.300000
20
2.589958
30
0.0
11
6.412500
21
2.591565
31
0.0
0
LINE
8
TOP
10
6.412500
20
2.591565
30
0.0
11
6.525000
21
2.593172
31
0.0
0
LINE
8
TOP
10
6.525000
20
2.593172
30
0.0
11
6.637500
21
2.594779
31
0.0
0
LINE
8
TOP
10
6.637500
20
2.594779
30
0.0
11
6.750000
21
2.596386
31
0.0
0
LINE
8
TOP
10
6.750000
20
2.596386
30
0.0
11
6.862500
21
2.597993
31
0.0
0
LINE
8
TOP
10
6.862500
20
2.597993
30
0.0
11
6.975000
21
2.599599
31
0.0
0
LINE
8
TOP
10
6.975000
20
2.599599
30
0.0
11
7.087500
21
2.601206
31
0.0
0
LINE
8
TOP
10
7.087500
20
2.601206
30
0.0
11
7.200000
21
2.602813
31
0.0
0
LINE
8
TOP
10
7.200000
20
2.602813
30
0.0
11
7.312500
21
2.604420
31
0.0
0
LINE
8
TOP
10
7.312500
20
2.604420
30
0.0
11
7.425000
21
2.606027
31
0.0
0
LINE
8
TOP
10
7.425000
20
2.606027
30
0.0
11
7.537500
21
2.607634
31
0.0
0
LINE
8
TOP
10
7.537500
20
2.607634
30
0.0
11
7.650000
21
2.609241
31
0.0
0
LINE
8
TOP
10
7.650000
20
2.609241
30
0.0
11
7.762500
21
2.610847
31
0.0
0
LINE
8
TOP
10
7.762500
20
2.610847
30
0.0
11
7.875000
21
2.612454
31
0.0
0
LINE
8
TOP
10
7.875000
20
2.612454
30
0.0
11
7.987500
21
2.614061
31
0.0
0
LINE
8
TOP
10
7.987500
20
2.614061
30
0.0
11
8.100000
21
2.615668
31
0.0
0
LINE
8
TOP
10
8.100000
20
2.615668
30
0.0
11
8.212500
21
2.617275
31
0.0
0
LINE
8
TOP
10
8.212500
20
2.617275
30
0.0
11
8.325000
21
2.618882
31
0.0
0
LINE
8
TOP
10
8.325000
20
2.618882
30
0.0
11
8.437500
21
2.620489
31
0.0
0
LINE
8
TOP
10
8.437500
20
2.620489
30
0.0
11
8.500000
21
2.621381
31
0.0
0
LINE
8
TOP
10
8.500000
20
2.621381
30
0.0
11
8.550000
21
2.622095
31
0.0
0
LINE
8
TOP
10
8.550000
20
2.622095
30
0.0
11
8.662500
21
2.623702
31
0.0
0
LINE
8
TOP
10
8.662500
20
2.623702
30
0.0
11
8.775000
21
2.625309
31
0.0
0
LINE
8
TOP
10
8.775000
20
2.625309
30
0.0
11
8.887500
21
2.626916
31
0.0
0
LINE
8
TOP
10
8.887500
20
2.626916
30
0.0
11
9.000000
21
2.628523
31
0.0
0
LINE
8
TOP
10
0.000000
20
2.280000
30
0.0
11
0.112500
21
2.278894
31
0.0
0
LINE
8
TOP
10
0.112500
20
2.278894
30
0.0
11
0.225000
21
2.277788
31
0.0
0
LINE
8
TOP
10
0.225000
20
2.277788
30
0.0
11
0.337500
21
2.276681
31
0.0
0
LINE
8
TOP
10
0.337500
20
2.276681
30
0.0
11
0.450000
21
2.275575
31
0.0
0
LINE
8
TOP
10
0.450000
20
2.275575
30
0.0
11
0.500000
21
2.275084
31
0.0
0
LINE
8
TOP
10
0.500000
20
2.275084
30
0.0
11
0.562500
21
2.274469
31
0.0
0
LINE
8
TOP
10
0.562500
20
2.274469
30
0.0
11
0.675000
21
2.273363
31
0.0
0
LINE
8
TOP
10
0.675000
20
2.273363
30
0.0
11
0.787500
21
2.272257
31
0.0
0
LINE
8
TOP
10
0.787500
20
2.272257
30
0.0
11
0.900000
21
2.271150
31
0.0
0
LINE
8
TOP
10
0.900000
20
2.271150
30
0.0
11
1.012500
21
2.270044
31
0.0
0
LINE
8
TOP
10
1.012500
20
2.270044
30
0.0
11
1.125000
21
2.268938
31
0.0
0
LINE
8
TOP
10
1.125000
20
2.268938
30
0.0
11
1.237500
21
2.267832
31
0.0
0
LINE
8
TOP
10
1.237500
20
2.267832
30
0.0
11
1.350000
21
2.266726
31
0.0
0
LINE
8
TOP
10
1.350000
20
2.266726
30
0.0
11
1.462500
21
2.265619
31
0.0
0
LINE
8
TOP
10
1.462500
20
2.265619
30
0.0
11
1.575000
21
2.264513
31
0.0
0
LINE
8
TOP
10
1.575000
20
2.264513
30
0.0
11
1.687500
21
2.263407
31
0.0
0
LINE
8
TOP
10
1.687500
20
2.263407
30
0.0
11
1.800000
21
2.262301
31
0.0
0
LINE
8
TOP
10
1.800000
20
2.262301
30
0.0
11
1.912500
21
2.261194
31
0.0
0
LINE
8
TOP
10
1.912500
20
2.261194
30
0.0
11
2.025000
21
2.260088
31
0.0
0
LINE
8
TOP
10
2.025000
20
2.260088
30
0.0
11
2.137500
21
2.258982
31
0.0
0
LINE
8
TOP
10
2.137500
20
2.258982
30
0.0
11
2.250000
21
2.257876
31
0.0
0
LINE
8
TOP
10
2.250000
20
2.257876
30
0.0
11
2.362500
21
2.256770
31
0.0
0
LINE
8
TOP
10
2.362500
20
2.256770
30
0.0
11
2.475000
21
2.255663
31
0.0
0
LINE
8
TOP
10
2.475000
20
2.255663
30
0.0
11
2.587500
21
2.254557
31
0.0
0
LINE
8
TOP
10
2.587500
20
2.254557
30
0.0
11
2.700000
21
2.253451
31
0.0
0
LINE
8
TOP
10
2.700000
20
2.253451
30
0.0
11
2.812500
21
2.252345
31
0.0
0
LINE
8
TOP
10
2.812500
20
2.252345
30
0.0
11
2.925000
21
2.251239
31
0.0
0
LINE
8
TOP
10
2.925000
20
2.251239
30
0.0
11
3.037500
21
2.250132
31
0.0
0
LINE
8
TOP
10
3.037500
20
2.250132
30
0.0
11
3.150000
21
2.249026
31
0.0
0
LINE
8
TOP
10
3.150000
20
2.249026
30
0.0
11
3.262500
21
2.247920
31
0.0
0
LINE
8
TOP
10
3.262500
20
2.247920
30
0.0
11
3.375000
21
2.246814
31
0.0
0
LINE
8
TOP
10
3.375000
20
2.246814
30
0.0
11
3.487500
21
2.245708
31
0.0
0
LINE
8
TOP
10
3.487500
20
2.245708
30
0.0
11
3.600000
21
2.244601
31
0.0
0
LINE
8
TOP
10
3.600000
20
2.244601
30
0.0
11
3.712500
21
2.243495
31
0.0
0
LINE
8
TOP
10
3.712500
20
2.243495
30
0.0
11
3.825000
21
2.242389
31
0.0
0
LINE
8
TOP
10
3.825000
20
2.242389
30
0.0
11
3.937500
21
2.241283
31
0.0
0
LINE
8
TOP
10
3.937500
20
2.241283
30
0.0
11
4.050000
21
2.240177
31
0.0
0
LINE
8
TOP
10
4.050000
20
2.240177
30
0.0
11
4.162500
21
2.239070
31
0.0
0
LINE
8
TOP
10
4.162500
20
2.239070
30
0.0
11
4.275000
21
2.237964
31
0.0
0
LINE
8
TOP
10
4.275000
20
2.237964
30
0.0
11
4.387500
21
2.236858
31
0.0
0
LINE
8
TOP
10
4.387500
20
2.236858
30
0.0
11
4.500000
21
2.235752
31
0.0
0
LINE
8
TOP
10
4.500000
20
2.235752
30
0.0
11
4.612500
21
2.234145
31
0.0
0
LINE
8
TOP
10
4.612500
20
2.234145
30
0.0
11
4.725000
21
2.232538
31
0.0
0
LINE
8
TOP
10
4.725000
20
2.232538
30
0.0
11
4.837500
21
2.230931
31
0.0
0
LINE
8
TOP
10
4.837500
20
2.230931
30
0.0
11
4.950000
21
2.229324
31
0.0
0
LINE
8
TOP
10
4.950000
20
2.229324
30
0.0
11
5.062500
21
2.227717
31
0.0
0
LINE
8
TOP
10
5.062500
20
2.227717
30
0.0
11
5.175000
21
2.226110
31
0.0
0
LINE
8
TOP
10
5.175000
20
2.226110
30
0.0
11
5.287500
21
2.224504
31
0.0
0
LINE
8
TOP
10
5.287500
20
2.224504
30
0.0
11
5.400000
21
2.222897
31
0.0
0
LINE
8
TOP
10
5.400000
20
2.222897
30
0.0
11
5.512500
21
2.221290
31
0.0
0
LINE
8
TOP
10
5.512500
20
2.221290
30
0.0
11
5.625000
21
2.219683
31
0.0
0
LINE
8
TOP
10
5.625000
20
2.219683
30
0.0
11
5.737500
21
2.218076
31
0.0
0
LINE
8
TOP
10
5.737500
20
2.218076
30
0.0
11
5.850000
21
2.216469
31
0.0
0
LINE
8
TOP
10
5.850000
20
2.216469
30
0.0
11
5.962500
21
2.214862
31
0.0
0
LINE
8
TOP
10
5.962500
20
2.214862
30
0.0
11
6.075000
21
2.213256
31
0.0
0
LINE
8
TOP
10
6.075000
20
2.213256
30
0.0
11
6.187500
21
2.211649
31
0.0
0
LINE
8
TOP
10
6.187500
20
2.211649
30
0.0
11
6.300000
21
2.210042
31
0.0
0
LINE
8
TOP
10
6.300000
20
2.210042
30
0.0
11
6.412500
21
2.208435
31
0.0
0
LINE
8
TOP
10
6.412500
20
2.208435
30
0.0
11
6.525000
21
2.206828
31
0.0
0
LINE
8
TOP
10
6.525000
20
2.206828
30
0.0
11
6.637500
21
2.205221
31
0.0
0
LINE
8
TOP
10
6.637500
20
2.205221
30
0.0
11
6.750000
21
2.203614
31
0.0
0
LINE
8
TOP
10
6.750000
20
2.203614
30
0.0
11
6.862500
21
2.202007
31
0.0
0
LINE
8
TOP
10
6.862500
20
2.202007
30
0.0
11
6.975000
21
2.200401
31
0.0
0
LINE
8
TOP
10
6.975000
20
2.200401
30
0.0
11
7.087500
21
2.198794
31
0.0
0
LINE
8
TOP
10
7.087500
20
2.198794
30
0.0
11
7.200000
21
2.197187
31
0.0
0
LINE
8
TOP
10
7.200000
20
2.197187
30
0.0
11
7.312500
21
2.195580
31
0.0
0
LINE
8
TOP
10
7.312500
20
2.195580
30
0.0
11
7.425000
21
2.193973
31
0.0
0
LINE
8
TOP
10
7.425000
20
2.193973
30
0.0
11
7.537500
21
2.192366
31
0.0
0
LINE
8
TOP
10
7.537500
20
2.192366
30
0.0
11
7.650000
21
2.190759
31
0.0
0
LINE
8
TOP
10
7.650000
20
2.190759
30
0.0
11
7.762500
21
2.189153
31
0.0
0
LINE
8
TOP
10
7.762500
20
2.189153
30
0.0
11
7.875000
21
2.187546
31
0.0
0
LINE
8
TOP
10
7.875000
20
2.187546
30
0.0
11
7.987500
21
2.185939
31
0.0
0
LINE
8
TOP
10
7.987500
20
2.185939
30
0.0
11
8.100000
21
2.184332
31
0.0
0
LINE
8
TOP
10
8.100000
20
2.184332
30
0.0
11
8.212500
21
2.182725
31
0.0
0
LINE
8
TOP
10
8.212500
20
2.182725
30
0.0
11
8.325000
21
2.181118
31
0.0
0
LINE
8
TOP
10
8.325000
20
2.181118
30
0.0
11
8.437500
21
2.179511
31
0.0
0
LINE
8
TOP
10
8.437500
20
2.179511
30
0.0
11
8.500000
21
2.178619
31
0.0
0
LINE
8
TOP
10
8.500000
20
2.178619
30
0.0
11
8.550000
21
2.177905
31
0.0
0
LINE
8
TOP
10
8.550000
20
2.177905
30
0.0
11
8.662500
21
2.176298
31
0.0
0
LINE
8
TOP
10
8.662500
20
2.176298
30
0.0
11
8.775000
21
2.174691
31
0.0
0
LINE
8
TOP
10
8.775000
20
2.174691
30
0.0
11
8.887500
21
2.173084
31
0.0
0
LINE
8
TOP
10
8.887500
20
2.173084
30
0.0
11
9.000000
21
2.171477
31
0.0
0
LINE
8
TOP
10
0.000000
20
2.520000
30
0.0
11
0.000000
21
2.280000
31
0.0
0
LINE
8
TOP
10
9.000000
20
2.628523
30
0.0
11
9.000000
21
2.171477
31
0.0
0
LINE
8
SECTION
10
10.335752
20
-0.316565
30
0.0
11
10.664248
21
-0.316565
31
0.0
0
LINE
8
SECTION
10
10.664248
20
-0.316565
30
0.0
11
10.664248
21
0.316565
31
0.0
0
LINE
8
SECTION
10
10.664248
20
0.316565
30
0.0
11
10.335752
21
0.316565
31
0.0
0
LINE
8
SECTION
10
10.335752
20
0.316565
30
0.0
11
10.335752
21
-0.316565
31
0.0
0
LINE
8
SECTION
10
10.398021
20
-0.254296
30
0.0
11
10.601979
21
-0.254296
31
0.0
0
LINE
8
SECTION
10
10.601979
20
-0.254296
30
0.0
11
10.601979
21
0.254296
31
0.0
0
LINE
8
SECTION
10
10.601979
20
0.254296
30
0.0
11
10.398021
21
0.254296
31
0.0
0
LINE
8
SECTION
10
10.398021
20
0.254296
30
0.0
11
10.398021
21
-0.254296
31
0.0
0
LINE
8
SECTION
10
10.398021
20
0.000000
30
0.0
11
10.460290
21
0.000000
31
0.0
0
LINE
8
SECTION
10
10.460290
20
0.000000
30
0.0
11
10.460290
21
0.254296
31
0.0
0
LINE
8
SECTION
10
10.460290
20
0.254296
30
0.0
11
10.398021
21
0.254296
31
0.0
0
LINE
8
SECTION
10
10.398021
20
0.254296
30
0.0
11
10.398021
21
0.000000
31
0.0
0
LINE
8
SECTION
10
10.398021
20
-0.254296
30
0.0
11
10.460290
21
-0.254296
31
0.0
0
LINE
8
SECTION
10
10.460290
20
-0.254296
30
0.0
11
10.460290
21
0.000000
31
0.0
0
LINE
8
SECTION
10
10.460290
20
0.000000
30
0.0
11
10.398021
21
0.000000
31
0.0
0
LINE
8
SECTION
10
10.398021
20
0.000000
30
0.0
11
10.398021
21
-0.254296
31
0.0
0
LINE
8
SECTION
10
10.539710
20
0.000000
30
0.0
11
10.601979
21
0.000000
31
0.0
0
LINE
8
SECTION
10
10.601979
20
0.000000
30
0.0
11
10.601979
21
0.254296
31
0.0
0
LINE
8
SECTION
10
10.601979
20
0.254296
30
0.0
11
10.539710
21
0.254296
31
0.0
0
LINE
8
SECTION
10
10.539710
20
0.254296
30
0.0
11
10.539710
21
0.000000
31
0.0
0
LINE
8
SECTION
10
10.539710
20
-0.254296
30
0.0
11
10.601979
21
-0.254296
31
0.0
0
LINE
8
SECTION
10
10.601979
20
-0.254296
30
0.0
11
10.601979
21
0.000000
31
0.0
0
LINE
8
SECTION
10
10.601979
20
0.000000
30
0.0
11
10.539710
21
0.000000
31
0.0
0
LINE
8
SECTION
10
10.539710
20
0.000000
30
0.0
11
10.539710
21
-0.254296
31
0.0
0
ENDSEC
0
EOF
