solid support_block_single_tapered_flat_top
  facet normal 0.00000000e+00 0.00000000e+00 -1.00000000e+00
    outer loop
      vertex -4.00000000e-01 -4.00000000e-01 0.00000000e+00
      vertex 4.00000000e-01 4.00000000e-01 0.00000000e+00
      vertex 4.00000000e-01 -4.00000000e-01 0.00000000e+00
    endloop
  endfacet
  facet normal 0.00000000e+00 0.00000000e+00 -1.00000000e+00
    outer loop
      vertex -4.00000000e-01 -4.00000000e-01 0.00000000e+00
      vertex -4.00000000e-01 4.00000000e-01 0.00000000e+00
      vertex 4.00000000e-01 4.00000000e-01 0.00000000e+00
    endloop
  endfacet
  facet normal 0.00000000e+00 0.00000000e+00 1.00000000e+00
    outer loop
      vertex -2.80000000e-01 -3.10000000e-01 5.00000000e-01
      vertex 2.80000000e-01 -3.10000000e-01 5.00000000e-01
      vertex 2.80000000e-01 3.10000000e-01 5.00000000e-01
    endloop
  endfacet
  facet normal 0.00000000e+00 0.00000000e+00 1.00000000e+00
    outer loop
      vertex -2.80000000e-01 -3.10000000e-01 5.00000000e-01
      vertex 2.80000000e-01 3.10000000e-01 5.00000000e-01
      vertex -2.80000000e-01 3.10000000e-01 5.00000000e-01
    endloop
  endfacet
  facet normal 0.00000000e+00 -9.84183324e-01 1.77152998e-01
    outer loop
      vertex -4.00000000e-01 -4.00000000e-01 0.00000000e+00
      vertex 4.00000000e-01 -4.00000000e-01 0.00000000e+00
      vertex 2.80000000e-01 -3.10000000e-01 5.00000000e-01
    endloop
  endfacet
  facet normal 0.00000000e+00 -9.84183324e-01 1.77152998e-01
    outer loop
      vertex -4.00000000e-01 -4.00000000e-01 0.00000000e+00
      vertex 2.80000000e-01 -3.10000000e-01 5.00000000e-01
      vertex -2.80000000e-01 -3.10000000e-01 5.00000000e-01
    endloop
  endfacet
  facet normal 9.72387302e-01 -0.00000000e+00 2.33372952e-01
    outer loop
      vertex 4.00000000e-01 -4.00000000e-01 0.00000000e+00
      vertex 4.00000000e-01 4.00000000e-01 0.00000000e+00
      vertex 2.80000000e-01 3.10000000e-01 5.00000000e-01
    endloop
  endfacet
  facet normal 9.72387302e-01 0.00000000e+00 2.33372952e-01
    outer loop
      vertex 4.00000000e-01 -4.00000000e-01 0.00000000e+00
      vertex 2.80000000e-01 3.10000000e-01 5.00000000e-01
      vertex 2.80000000e-01 -3.10000000e-01 5.00000000e-01
    endloop
  endfacet
  facet normal 0.00000000e+00 9.84183324e-01 1.77152998e-01
    outer loop
      vertex 4.00000000e-01 4.00000000e-01 0.00000000e+00
      vertex -4.00000000e-01 4.00000000e-01 0.00000000e+00
      vertex -2.80000000e-01 3.10000000e-01 5.00000000e-01
    endloop
  endfacet
  facet normal 0.00000000e+00 9.84183324e-01 1.77152998e-01
    outer loop
      vertex 4.00000000e-01 4.00000000e-01 0.00000000e+00
      vertex -2.80000000e-01 3.10000000e-01 5.00000000e-01
      vertex 2.80000000e-01 3.10000000e-01 5.00000000e-01
    endloop
  endfacet
  facet normal -9.72387302e-01 0.00000000e+00 2.33372952e-01
    outer loop
      vertex -4.00000000e-01 4.00000000e-01 0.00000000e+00
      vertex -4.00000000e-01 -4.00000000e-01 0.00000000e+00
      vertex -2.80000000e-01 -3.10000000e-01 5.00000000e-01
    endloop
  endfacet
  facet normal -9.72387302e-01 0.00000000e+00 2.33372952e-01
    outer loop
      vertex -4.00000000e-01 4.00000000e-01 0.00000000e+00
      vertex -2.80000000e-01 -3.10000000e-01 5.00000000e-01
      vertex -2.80000000e-01 3.10000000e-01 5.00000000e-01
    endloop
  endfacet
endsolid support_block_single_tapered_flat_top
