0
SECTION
2
HEADER
9
$INSUNITS
70
1
0
ENDSEC
0
SECTION
2
ENTITIES
0
LINE
8
FRONT
10
0.000000
20
0.367186
30
0.0
11
0.112500
21
0.366129
31
0.0
0
LINE
8
FRONT
10
0.112500
20
0.366129
30
0.0
11
0.225000
21
0.365071
31
0.0
0
LINE
8
FRONT
10
0.225000
20
0.365071
30
0.0
11
0.337500
21
0.364014
31
0.0
0
LINE
8
FRONT
10
0.337500
20
0.364014
30
0.0
11
0.450000
21
0.362956
31
0.0
0
LINE
8
FRONT
10
0.450000
20
0.362956
30
0.0
11
0.500000
21
0.362486
31
0.0
0
LINE
8
FRONT
10
0.500000
20
0.362486
30
0.0
11
0.562500
21
0.361899
31
0.0
0
LINE
8
FRONT
10
0.562500
20
0.361899
30
0.0
11
0.675000
21
0.360841
31
0.0
0
LINE
8
FRONT
10
0.675000
20
0.360841
30
0.0
11
0.787500
21
0.359784
31
0.0
0
LINE
8
FRONT
10
0.787500
20
0.359784
30
0.0
11
0.900000
21
0.358726
31
0.0
0
LINE
8
FRONT
10
0.900000
20
0.358726
30
0.0
11
1.012500
21
0.357669
31
0.0
0
LINE
8
FRONT
10
1.012500
20
0.357669
30
0.0
11
1.125000
21
0.356611
31
0.0
0
LINE
8
FRONT
10
1.125000
20
0.356611
30
0.0
11
1.237500
21
0.355554
31
0.0
0
LINE
8
FRONT
10
1.237500
20
0.355554
30
0.0
11
1.350000
21
0.354496
31
0.0
0
LINE
8
FRONT
10
1.350000
20
0.354496
30
0.0
11
1.462500
21
0.353439
31
0.0
0
LINE
8
FRONT
10
1.462500
20
0.353439
30
0.0
11
1.575000
21
0.352381
31
0.0
0
LINE
8
FRONT
10
1.575000
20
0.352381
30
0.0
11
1.687500
21
0.351324
31
0.0
0
LINE
8
FRONT
10
1.687500
20
0.351324
30
0.0
11
1.800000
21
0.350266
31
0.0
0
LINE
8
FRONT
10
1.800000
20
0.350266
30
0.0
11
1.912500
21
0.349209
31
0.0
0
LINE
8
FRONT
10
1.912500
20
0.349209
30
0.0
11
2.025000
21
0.348151
31
0.0
0
LINE
8
FRONT
10
2.025000
20
0.348151
30
0.0
11
2.137500
21
0.347094
31
0.0
0
LINE
8
FRONT
10
2.137500
20
0.347094
30
0.0
11
2.250000
21
0.346036
31
0.0
0
LINE
8
FRONT
10
2.250000
20
0.346036
30
0.0
11
2.362500
21
0.344979
31
0.0
0
LINE
8
FRONT
10
2.362500
20
0.344979
30
0.0
11
2.475000
21
0.343921
31
0.0
0
LINE
8
FRONT
10
2.475000
20
0.343921
30
0.0
11
2.587500
21
0.342864
31
0.0
0
LINE
8
FRONT
10
2.587500
20
0.342864
30
0.0
11
2.700000
21
0.341806
31
0.0
0
LINE
8
FRONT
10
2.700000
20
0.341806
30
0.0
11
2.812500
21
0.340749
31
0.0
0
LINE
8
FRONT
10
2.812500
20
0.340749
30
0.0
11
2.925000
21
0.339691
31
0.0
0
LINE
8
FRONT
10
2.925000
20
0.339691
30
0.0
11
3.037500
21
0.338634
31
0.0
0
LINE
8
FRONT
10
3.037500
20
0.338634
30
0.0
11
3.150000
21
0.337576
31
0.0
0
LINE
8
FRONT
10
3.150000
20
0.337576
30
0.0
11
3.262500
21
0.336519
31
0.0
0
LINE
8
FRONT
10
3.262500
20
0.336519
30
0.0
11
3.375000
21
0.335461
31
0.0
0
LINE
8
FRONT
10
3.375000
20
0.335461
30
0.0
11
3.487500
21
0.334404
31
0.0
0
LINE
8
FRONT
10
3.487500
20
0.334404
30
0.0
11
3.600000
21
0.333346
31
0.0
0
LINE
8
FRONT
10
3.600000
20
0.333346
30
0.0
11
3.712500
21
0.332289
31
0.0
0
LINE
8
FRONT
10
3.712500
20
0.332289
30
0.0
11
3.825000
21
0.331231
31
0.0
0
LINE
8
FRONT
10
3.825000
20
0.331231
30
0.0
11
3.937500
21
0.330174
31
0.0
0
LINE
8
FRONT
10
3.937500
20
0.330174
30
0.0
11
4.050000
21
0.329116
31
0.0
0
LINE
8
FRONT
10
4.050000
20
0.329116
30
0.0
11
4.162500
21
0.328059
31
0.0
0
LINE
8
FRONT
10
4.162500
20
0.328059
30
0.0
11
4.275000
21
0.327001
31
0.0
0
LINE
8
FRONT
10
4.275000
20
0.327001
30
0.0
11
4.387500
21
0.325944
31
0.0
0
LINE
8
FRONT
10
4.387500
20
0.325944
30
0.0
11
4.500000
21
0.324886
31
0.0
0
LINE
8
FRONT
10
4.500000
20
0.324886
30
0.0
11
4.612500
21
0.323695
31
0.0
0
LINE
8
FRONT
10
4.612500
20
0.323695
30
0.0
11
4.725000
21
0.322503
31
0.0
0
LINE
8
FRONT
10
4.725000
20
0.322503
30
0.0
11
4.837500
21
0.321312
31
0.0
0
LINE
8
FRONT
10
4.837500
20
0.321312
30
0.0
11
4.950000
21
0.320120
31
0.0
0
LINE
8
FRONT
10
4.950000
20
0.320120
30
0.0
11
5.062500
21
0.318929
31
0.0
0
LINE
8
FRONT
10
5.062500
20
0.318929
30
0.0
11
5.175000
21
0.317737
31
0.0
0
LINE
8
FRONT
10
5.175000
20
0.317737
30
0.0
11
5.287500
21
0.316546
31
0.0
0
LINE
8
FRONT
10
5.287500
20
0.316546
30
0.0
11
5.400000
21
0.315354
31
0.0
0
LINE
8
FRONT
10
5.400000
20
0.315354
30
0.0
11
5.512500
21
0.314162
31
0.0
0
LINE
8
FRONT
10
5.512500
20
0.314162
30
0.0
11
5.625000
21
0.312971
31
0.0
0
LINE
8
FRONT
10
5.625000
20
0.312971
30
0.0
11
5.737500
21
0.311779
31
0.0
0
LINE
8
FRONT
10
5.737500
20
0.311779
30
0.0
11
5.850000
21
0.310588
31
0.0
0
LINE
8
FRONT
10
5.850000
20
0.310588
30
0.0
11
5.962500
21
0.309396
31
0.0
0
LINE
8
FRONT
10
5.962500
20
0.309396
30
0.0
11
6.075000
21
0.308205
31
0.0
0
LINE
8
FRONT
10
6.075000
20
0.308205
30
0.0
11
6.187500
21
0.307013
31
0.0
0
LINE
8
FRONT
10
6.187500
20
0.307013
30
0.0
11
6.300000
21
0.305822
31
0.0
0
LINE
8
FRONT
10
6.300000
20
0.305822
30
0.0
11
6.412500
21
0.304630
31
0.0
0
LINE
8
FRONT
10
6.412500
20
0.304630
30
0.0
11
6.525000
21
0.303439
31
0.0
0
LINE
8
FRONT
10
6.525000
20
0.303439
30
0.0
11
6.637500
21
0.302247
31
0.0
0
LINE
8
FRONT
10
6.637500
20
0.302247
30
0.0
11
6.750000
21
0.301055
31
0.0
0
LINE
8
FRONT
10
6.750000
20
0.301055
30
0.0
11
6.862500
21
0.299864
31
0.0
0
LINE
8
FRONT
10
6.862500
20
0.299864
30
0.0
11
6.975000
21
0.298672
31
0.0
0
LINE
8
FRONT
10
6.975000
20
0.298672
30
0.0
11
7.087500
21
0.297481
31
0.0
0
LINE
8
FRONT
10
7.087500
20
0.297481
30
0.0
11
7.200000
21
0.296289
31
0.0
0
LINE
8
FRONT
10
7.200000
20
0.296289
30
0.0
11
7.312500
21
0.295098
31
0.0
0
LINE
8
FRONT
10
7.312500
20
0.295098
30
0.0
11
7.425000
21
0.293906
31
0.0
0
LINE
8
FRONT
10
7.425000
20
0.293906
30
0.0
11
7.537500
21
0.292715
31
0.0
0
LINE
8
FRONT
10
7.537500
20
0.292715
30
0.0
11
7.650000
21
0.291523
31
0.0
0
LINE
8
FRONT
10
7.650000
20
0.291523
30
0.0
11
7.762500
21
0.290332
31
0.0
0
LINE
8
FRONT
10
7.762500
20
0.290332
30
0.0
11
7.875000
21
0.289140
31
0.0
0
LINE
8
FRONT
10
7.875000
20
0.289140
30
0.0
11
7.987500
21
0.287949
31
0.0
0
LINE
8
FRONT
10
7.987500
20
0.287949
30
0.0
11
8.100000
21
0.286757
31
0.0
0
LINE
8
FRONT
10
8.100000
20
0.286757
30
0.0
11
8.212500
21
0.285565
31
0.0
0
LINE
8
FRONT
10
8.212500
20
0.285565
30
0.0
11
8.325000
21
0.284374
31
0.0
0
LINE
8
FRONT
10
8.325000
20
0.284374
30
0.0
11
8.437500
21
0.283182
31
0.0
0
LINE
8
FRONT
10
8.437500
20
0.283182
30
0.0
11
8.500000
21
0.282520
31
0.0
0
LINE
8
FRONT
10
8.500000
20
0.282520
30
0.0
11
8.550000
21
0.281991
31
0.0
0
LINE
8
FRONT
10
8.550000
20
0.281991
30
0.0
11
8.662500
21
0.280799
31
0.0
0
LINE
8
FRONT
10
8.662500
20
0.280799
30
0.0
11
8.775000
21
0.279608
31
0.0
0
LINE
8
FRONT
10
8.775000
20
0.279608
30
0.0
11
8.887500
21
0.278416
31
0.0
0
LINE
8
FRONT
10
8.887500
20
0.278416
30
0.0
11
9.000000
21
0.277225
31
0.0
0
LINE
8
FRONT
10
0.000000
20
-0.367186
30
0.0
11
0.112500
21
-0.366129
31
0.0
0
LINE
8
FRONT
10
0.112500
20
-0.366129
30
0.0
11
0.225000
21
-0.365071
31
0.0
0
LINE
8
FRONT
10
0.225000
20
-0.365071
30
0.0
11
0.337500
21
-0.364014
31
0.0
0
LINE
8
FRONT
10
0.337500
20
-0.364014
30
0.0
11
0.450000
21
-0.362956
31
0.0
0
LINE
8
FRONT
10
0.450000
20
-0.362956
30
0.0
11
0.500000
21
-0.362486
31
0.0
0
LINE
8
FRONT
10
0.500000
20
-0.362486
30
0.0
11
0.562500
21
-0.361899
31
0.0
0
LINE
8
FRONT
10
0.562500
20
-0.361899
30
0.0
11
0.675000
21
-0.360841
31
0.0
0
LINE
8
FRONT
10
0.675000
20
-0.360841
30
0.0
11
0.787500
21
-0.359784
31
0.0
0
LINE
8
FRONT
10
0.787500
20
-0.359784
30
0.0
11
0.900000
21
-0.358726
31
0.0
0
LINE
8
FRONT
10
0.900000
20
-0.358726
30
0.0
11
1.012500
21
-0.357669
31
0.0
0
LINE
8
FRONT
10
1.012500
20
-0.357669
30
0.0
11
1.125000
21
-0.356611
31
0.0
0
LINE
8
FRONT
10
1.125000
20
-0.356611
30
0.0
11
1.237500
21
-0.355554
31
0.0
0
LINE
8
FRONT
10
1.237500
20
-0.355554
30
0.0
11
1.350000
21
-0.354496
31
0.0
0
LINE
8
FRONT
10
1.350000
20
-0.354496
30
0.0
11
1.462500
21
-0.353439
31
0.0
0
LINE
8
FRONT
10
1.462500
20
-0.353439
30
0.0
11
1.575000
21
-0.352381
31
0.0
0
LINE
8
FRONT
10
1.575000
20
-0.352381
30
0.0
11
1.687500
21
-0.351324
31
0.0
0
LINE
8
FRONT
10
1.687500
20
-0.351324
30
0.0
11
1.800000
21
-0.350266
31
0.0
0
LINE
8
FRONT
10
1.800000
20
-0.350266
30
0.0
11
1.912500
21
-0.349209
31
0.0
0
LINE
8
FRONT
10
1.912500
20
-0.349209
30
0.0
11
2.025000
21
-0.348151
31
0.0
0
LINE
8
FRONT
10
2.025000
20
-0.348151
30
0.0
11
2.137500
21
-0.347094
31
0.0
0
LINE
8
FRONT
10
2.137500
20
-0.347094
30
0.0
11
2.250000
21
-0.346036
31
0.0
0
LINE
8
FRONT
10
2.250000
20
-0.346036
30
0.0
11
2.362500
21
-0.344979
31
0.0
0
LINE
8
FRONT
10
2.362500
20
-0.344979
30
0.0
11
2.475000
21
-0.343921
31
0.0
0
LINE
8
FRONT
10
2.475000
20
-0.343921
30
0.0
11
2.587500
21
-0.342864
31
0.0
0
LINE
8
FRONT
10
2.587500
20
-0.342864
30
0.0
11
2.700000
21
-0.341806
31
0.0
0
LINE
8
FRONT
10
2.700000
20
-0.341806
30
0.0
11
2.812500
21
-0.340749
31
0.0
0
LINE
8
FRONT
10
2.812500
20
-0.340749
30
0.0
11
2.925000
21
-0.339691
31
0.0
0
LINE
8
FRONT
10
2.925000
20
-0.339691
30
0.0
11
3.037500
21
-0.338634
31
0.0
0
LINE
8
FRONT
10
3.037500
20
-0.338634
30
0.0
11
3.150000
21
-0.337576
31
0.0
0
LINE
8
FRONT
10
3.150000
20
-0.337576
30
0.0
11
3.262500
21
-0.336519
31
0.0
0
LINE
8
FRONT
10
3.262500
20
-0.336519
30
0.0
11
3.375000
21
-0.335461
31
0.0
0
LINE
8
FRONT
10
3.375000
20
-0.335461
30
0.0
11
3.487500
21
-0.334404
31
0.0
0
LINE
8
FRONT
10
3.487500
20
-0.334404
30
0.0
11
3.600000
21
-0.333346
31
0.0
0
LINE
8
FRONT
10
3.600000
20
-0.333346
30
0.0
11
3.712500
21
-0.332289
31
0.0
0
LINE
8
FRONT
10
3.712500
20
-0.332289
30
0.0
11
3.825000
21
-0.331231
31
0.0
0
LINE
8
FRONT
10
3.825000
20
-0.331231
30
0.0
11
3.937500
21
-0.330174
31
0.0
0
LINE
8
FRONT
10
3.937500
20
-0.330174
30
0.0
11
4.050000
21
-0.329116
31
0.0
0
LINE
8
FRONT
10
4.050000
20
-0.329116
30
0.0
11
4.162500
21
-0.328059
31
0.0
0
LINE
8
FRONT
10
4.162500
20
-0.328059
30
0.0
11
4.275000
21
-0.327001
31
0.0
0
LINE
8
FRONT
10
4.275000
20
-0.327001
30
0.0
11
4.387500
21
-0.325944
31
0.0
0
LINE
8
FRONT
10
4.387500
20
-0.325944
30
0.0
11
4.500000
21
-0.324886
31
0.0
0
LINE
8
FRONT
10
4.500000
20
-0.324886
30
0.0
11
4.612500
21
-0.323695
31
0.0
0
LINE
8
FRONT
10
4.612500
20
-0.323695
30
0.0
11
4.725000
21
-0.322503
31
0.0
0
LINE
8
FRONT
10
4.725000
20
-0.322503
30
0.0
11
4.837500
21
-0.321312
31
0.0
0
LINE
8
FRONT
10
4.837500
20
-0.321312
30
0.0
11
4.950000
21
-0.320120
31
0.0
0
LINE
8
FRONT
10
4.950000
20
-0.320120
30
0.0
11
5.062500
21
-0.318929
31
0.0
0
LINE
8
FRONT
10
5.062500
20
-0.318929
30
0.0
11
5.175000
21
-0.317737
31
0.0
0
LINE
8
FRONT
10
5.175000
20
-0.317737
30
0.0
11
5.287500
21
-0.316546
31
0.0
0
LINE
8
FRONT
10
5.287500
20
-0.316546
30
0.0
11
5.400000
21
-0.315354
31
0.0
0
LINE
8
FRONT
10
5.400000
20
-0.315354
30
0.0
11
5.512500
21
-0.314162
31
0.0
0
LINE
8
FRONT
10
5.512500
20
-0.314162
30
0.0
11
5.625000
21
-0.312971
31
0.0
0
LINE
8
FRONT
10
5.625000
20
-0.312971
30
0.0
11
5.737500
21
-0.311779
31
0.0
0
LINE
8
FRONT
10
5.737500
20
-0.311779
30
0.0
11
5.850000
21
-0.310588
31
0.0
0
LINE
8
FRONT
10
5.850000
20
-0.310588
30
0.0
11
5.962500
21
-0.309396
31
0.0
0
LINE
8
FRONT
10
5.962500
20
-0.309396
30
0.0
11
6.075000
21
-0.308205
31
0.0
0
LINE
8
FRONT
10
6.075000
20
-0.308205
30
0.0
11
6.187500
21
-0.307013
31
0.0
0
LINE
8
FRONT
10
6.187500
20
-0.307013
30
0.0
11
6.300000
21
-0.305822
31
0.0
0
LINE
8
FRONT
10
6.300000
20
-0.305822
30
0.0
11
6.412500
21
-0.304630
31
0.0
0
LINE
8
FRONT
10
6.412500
20
-0.304630
30
0.0
11
6.525000
21
-0.303439
31
0.0
0
LINE
8
FRONT
10
6.525000
20
-0.303439
30
0.0
11
6.637500
21
-0.302247
31
0.0
0
LINE
8
FRONT
10
6.637500
20
-0.302247
30
0.0
11
6.750000
21
-0.301055
31
0.0
0
LINE
8
FRONT
10
6.750000
20
-0.301055
30
0.0
11
6.862500
21
-0.299864
31
0.0
0
LINE
8
FRONT
10
6.862500
20
-0.299864
30
0.0
11
6.975000
21
-0.298672
31
0.0
0
LINE
8
FRONT
10
6.975000
20
-0.298672
30
0.0
11
7.087500
21
-0.297481
31
0.0
0
LINE
8
FRONT
10
7.087500
20
-0.297481
30
0.0
11
7.200000
21
-0.296289
31
0.0
0
LINE
8
FRONT
10
7.200000
20
-0.296289
30
0.0
11
7.312500
21
-0.295098
31
0.0
0
LINE
8
FRONT
10
7.312500
20
-0.295098
30
0.0
11
7.425000
21
-0.293906
31
0.0
0
LINE
8
FRONT
10
7.425000
20
-0.293906
30
0.0
11
7.537500
21
-0.292715
31
0.0
0
LINE
8
FRONT
10
7.537500
20
-0.292715
30
0.0
11
7.650000
21
-0.291523
31
0.0
0
LINE
8
FRONT
10
7.650000
20
-0.291523
30
0.0
11
7.762500
21
-0.290332
31
0.0
0
LINE
8
FRONT
10
7.762500
20
-0.290332
30
0.0
11
7.875000
21
-0.289140
31
0.0
0
LINE
8
FRONT
10
7.875000
20
-0.289140
30
0.0
11
7.987500
21
-0.287949
31
0.0
0
LINE
8
FRONT
10
7.987500
20
-0.287949
30
0.0
11
8.100000
21
-0.286757
31
0.0
0
LINE
8
FRONT
10
8.100000
20
-0.286757
30
0.0
11
8.212500
21
-0.285565
31
0.0
0
LINE
8
FRONT
10
8.212500
20
-0.285565
30
0.0
11
8.325000
21
-0.284374
31
0.0
0
LINE
8
FRONT
10
8.325000
20
-0.284374
30
0.0
11
8.437500
21
-0.283182
31
0.0
0
LINE
8
FRONT
10
8.437500
20
-0.283182
30
0.0
11
8.500000
21
-0.282520
31
0.0
0
LINE
8
FRONT
10
8.500000
20
-0.282520
30
0.0
11
8.550000
21
-0.281991
31
0.0
0
LINE
8
FRONT
10
8.550000
20
-0.281991
30
0.0
11
8.662500
21
-0.280799
31
0.0
0
LINE
8
FRONT
10
8.662500
20
-0.280799
30
0.0
11
8.775000
21
-0.279608
31
0.0
0
LINE
8
FRONT
10
8.775000
20
-0.279608
30
0.0
11
8.887500
21
-0.278416
31
0.0
0
LINE
8
FRONT
10
8.887500
20
-0.278416
30
0.0
11
9.000000
21
-0.277225
31
0.0
0
LINE
8
FRONT
10
0.000000
20
0.367186
30
0.0
11
0.000000
21
-0.367186
31
0.0
0
LINE
8
FRONT
10
9.000000
20
0.277225
30
0.0
11
9.000000
21
-0.277225
31
0.0
0
LINE
8
TOP
10
0.000000
20
1.978108
30
0.0
11
0.112500
21
1.981451
31
0.0
0
LINE
8
TOP
10
0.112500
20
1.981451
30
0.0
11
0.225000
21
1.984793
31
0.0
0
LINE
8
TOP
10
0.225000
20
1.984793
30
0.0
11
0.337500
21
1.988136
31
0.0
0
LINE
8
TOP
10
0.337500
20
1.988136
30
0.0
11
0.450000
21
1.991478
31
0.0
0
LINE
8
TOP
10
0.450000
20
1.991478
30
0.0
11
0.500000
21
1.992964
31
0.0
0
LINE
8
TOP
10
0.500000
20
1.992964
30
0.0
11
0.562500
21
1.994821
31
0.0
0
LINE
8
TOP
10
0.562500
20
1.994821
30
0.0
11
0.675000
21
1.998163
31
0.0
0
LINE
8
TOP
10
0.675000
20
1.998163
30
0.0
11
0.787500
21
2.001506
31
0.0
0
LINE
8
TOP
10
0.787500
20
2.001506
30
0.0
11
0.900000
21
2.004848
31
0.0
0
LINE
8
TOP
10
0.900000
20
2.004848
30
0.0
11
1.012500
21
2.008191
31
0.0
0
LINE
8
TOP
10
1.012500
20
2.008191
30
0.0
11
1.125000
21
2.011533
31
0.0
0
LINE
8
TOP
10
1.125000
20
2.011533
30
0.0
11
1.237500
21
2.014875
31
0.0
0
LINE
8
TOP
10
1.237500
20
2.014875
30
0.0
11
1.350000
21
2.018218
31
0.0
0
LINE
8
TOP
10
1.350000
20
2.018218
30
0.0
11
1.462500
21
2.021560
31
0.0
0
LINE
8
TOP
10
1.462500
20
2.021560
30
0.0
11
1.575000
21
2.024903
31
0.0
0
LINE
8
TOP
10
1.575000
20
2.024903
30
0.0
11
1.687500
21
2.028245
31
0.0
0
LINE
8
TOP
10
1.687500
20
2.028245
30
0.0
11
1.800000
21
2.031588
31
0.0
0
LINE
8
TOP
10
1.800000
20
2.031588
30
0.0
11
1.912500
21
2.034930
31
0.0
0
LINE
8
TOP
10
1.912500
20
2.034930
30
0.0
11
2.025000
21
2.038273
31
0.0
0
LINE
8
TOP
10
2.025000
20
2.038273
30
0.0
11
2.137500
21
2.041615
31
0.0
0
LINE
8
TOP
10
2.137500
20
2.041615
30
0.0
11
2.250000
21
2.044958
31
0.0
0
LINE
8
TOP
10
2.250000
20
2.044958
30
0.0
11
2.362500
21
2.048300
31
0.0
0
LINE
8
TOP
10
2.362500
20
2.048300
30
0.0
11
2.475000
21
2.051643
31
0.0
0
LINE
8
TOP
10
2.475000
20
2.051643
30
0.0
11
2.587500
21
2.054985
31
0.0
0
LINE
8
TOP
10
2.587500
20
2.054985
30
0.0
11
2.700000
21
2.058327
31
0.0
0
LINE
8
TOP
10
2.700000
20
2.058327
30
0.0
11
2.812500
21
2.061670
31
0.0
0
LINE
8
TOP
10
2.812500
20
2.061670
30
0.0
11
2.925000
21
2.065012
31
0.0
0
LINE
8
TOP
10
2.925000
20
2.065012
30
0.0
11
3.037500
21
2.068355
31
0.0
0
LINE
8
TOP
10
3.037500
20
2.068355
30
0.0
11
3.150000
21
2.071697
31
0.0
0
LINE
8
TOP
10
3.150000
20
2.071697
30
0.0
11
3.262500
21
2.075040
31
0.0
0
LINE
8
TOP
10
3.262500
20
2.075040
30
0.0
11
3.375000
21
2.078382
31
0.0
0
LINE
8
TOP
10
3.375000
20
2.078382
30
0.0
11
3.487500
21
2.081725
31
0.0
0
LINE
8
TOP
10
3.487500
20
2.081725
30
0.0
11
3.600000
21
2.085067
31
0.0
0
LINE
8
TOP
10
3.600000
20
2.085067
30
0.0
11
3.712500
21
2.088410
31
0.0
0
LINE
8
TOP
10
3.712500
20
2.088410
30
0.0
11
3.825000
21
2.091752
31
0.0
0
LINE
8
TOP
10
3.825000
20
2.091752
30
0.0
11
3.937500
21
2.095094
31
0.0
0
LINE
8
TOP
10
3.937500
20
2.095094
30
0.0
11
4.050000
21
2.098437
31
0.0
0
LINE
8
TOP
10
4.050000
20
2.098437
30
0.0
11
4.162500
21
2.101779
31
0.0
0
LINE
8
TOP
10
4.162500
20
2.101779
30
0.0
11
4.275000
21
2.105122
31
0.0
0
LINE
8
TOP
10
4.275000
20
2.105122
30
0.0
11
4.387500
21
2.108464
31
0.0
0
LINE
8
TOP
10
4.387500
20
2.108464
30
0.0
11
4.500000
21
2.111807
31
0.0
0
LINE
8
TOP
10
4.500000
20
2.111807
30
0.0
11
4.612500
21
2.109723
31
0.0
0
LINE
8
TOP
10
4.612500
20
2.109723
30
0.0
11
4.725000
21
2.107640
31
0.0
0
LINE
8
TOP
10
4.725000
20
2.107640
30
0.0
11
4.837500
21
2.105556
31
0.0
0
LINE
8
TOP
10
4.837500
20
2.105556
30
0.0
11
4.950000
21
2.103472
31
0.0
0
LINE
8
TOP
10
4.950000
20
2.103472
30
0.0
11
5.062500
21
2.101389
31
0.0
0
LINE
8
TOP
10
5.062500
20
2.101389
30
0.0
11
5.175000
21
2.099305
31
0.0
0
LINE
8
TOP
10
5.175000
20
2.099305
30
0.0
11
5.287500
21
2.097221
31
0.0
0
LINE
8
TOP
10
5.287500
20
2.097221
30
0.0
11
5.400000
21
2.095138
31
0.0
0
LINE
8
TOP
10
5.400000
20
2.095138
30
0.0
11
5.512500
21
2.093054
31
0.0
0
LINE
8
TOP
10
5.512500
20
2.093054
30
0.0
11
5.625000
21
2.090971
31
0.0
0
LINE
8
TOP
10
5.625000
20
2.090971
30
0.0
11
5.737500
21
2.088887
31
0.0
0
LINE
8
TOP
10
5.737500
20
2.088887
30
0.0
11
5.850000
21
2.086803
31
0.0
0
LINE
8
TOP
10
5.850000
20
2.086803
30
0.0
11
5.962500
21
2.084720
31
0.0
0
LINE
8
TOP
10
5.962500
20
2.084720
30
0.0
11
6.075000
21
2.082636
31
0.0
0
LINE
8
TOP
10
6.075000
20
2.082636
30
0.0
11
6.187500
21
2.080552
31
0.0
0
LINE
8
TOP
10
6.187500
20
2.080552
30
0.0
11
6.300000
21
2.078469
31
0.0
0
LINE
8
TOP
10
6.300000
20
2.078469
30
0.0
11
6.412500
21
2.076385
31
0.0
0
LINE
8
TOP
10
6.412500
20
2.076385
30
0.0
11
6.525000
21
2.074302
31
0.0
0
LINE
8
TOP
10
6.525000
20
2.074302
30
0.0
11
6.637500
21
2.072218
31
0.0
0
LINE
8
TOP
10
6.637500
20
2.072218
30
0.0
11
6.750000
21
2.070134
31
0.0
0
LINE
8
TOP
10
6.750000
20
2.070134
30
0.0
11
6.862500
21
2.068051
31
0.0
0
LINE
8
TOP
10
6.862500
20
2.068051
30
0.0
11
6.975000
21
2.065967
31
0.0
0
LINE
8
TOP
10
6.975000
20
2.065967
30
0.0
11
7.087500
21
2.063883
31
0.0
0
LINE
8
TOP
10
7.087500
20
2.063883
30
0.0
11
7.200000
21
2.061800
31
0.0
0
LINE
8
TOP
10
7.200000
20
2.061800
30
0.0
11
7.312500
21
2.059716
31
0.0
0
LINE
8
TOP
10
7.312500
20
2.059716
30
0.0
11
7.425000
21
2.057633
31
0.0
0
LINE
8
TOP
10
7.425000
20
2.057633
30
0.0
11
7.537500
21
2.055549
31
0.0
0
LINE
8
TOP
10
7.537500
20
2.055549
30
0.0
11
7.650000
21
2.053465
31
0.0
0
LINE
8
TOP
10
7.650000
20
2.053465
30
0.0
11
7.762500
21
2.051382
31
0.0
0
LINE
8
TOP
10
7.762500
20
2.051382
30
0.0
11
7.875000
21
2.049298
31
0.0
0
LINE
8
TOP
10
7.875000
20
2.049298
30
0.0
11
7.987500
21
2.047214
31
0.0
0
LINE
8
TOP
10
7.987500
20
2.047214
30
0.0
11
8.100000
21
2.045131
31
0.0
0
LINE
8
TOP
10
8.100000
20
2.045131
30
0.0
11
8.212500
21
2.043047
31
0.0
0
LINE
8
TOP
10
8.212500
20
2.043047
30
0.0
11
8.325000
21
2.040964
31
0.0
0
LINE
8
TOP
10
8.325000
20
2.040964
30
0.0
11
8.437500
21
2.038880
31
0.0
0
LINE
8
TOP
10
8.437500
20
2.038880
30
0.0
11
8.500000
21
2.037722
31
0.0
0
LINE
8
TOP
10
8.500000
20
2.037722
30
0.0
11
8.550000
21
2.036796
31
0.0
0
LINE
8
TOP
10
8.550000
20
2.036796
30
0.0
11
8.662500
21
2.034713
31
0.0
0
LINE
8
TOP
10
8.662500
20
2.034713
30
0.0
11
8.775000
21
2.032629
31
0.0
0
LINE
8
TOP
10
8.775000
20
2.032629
30
0.0
11
8.887500
21
2.030545
31
0.0
0
LINE
8
TOP
10
8.887500
20
2.030545
30
0.0
11
9.000000
21
2.028462
31
0.0
0
LINE
8
TOP
10
0.000000
20
1.725009
30
0.0
11
0.112500
21
1.721666
31
0.0
0
LINE
8
TOP
10
0.112500
20
1.721666
30
0.0
11
0.225000
21
1.718324
31
0.0
0
LINE
8
TOP
10
0.225000
20
1.718324
30
0.0
11
0.337500
21
1.714981
31
0.0
0
LINE
8
TOP
10
0.337500
20
1.714981
30
0.0
11
0.450000
21
1.711639
31
0.0
0
LINE
8
TOP
10
0.450000
20
1.711639
30
0.0
11
0.500000
21
1.710153
31
0.0
0
LINE
8
TOP
10
0.500000
20
1.710153
30
0.0
11
0.562500
21
1.708296
31
0.0
0
LINE
8
TOP
10
0.562500
20
1.708296
30
0.0
11
0.675000
21
1.704954
31
0.0
0
LINE
8
TOP
10
0.675000
20
1.704954
30
0.0
11
0.787500
21
1.701611
31
0.0
0
LINE
8
TOP
10
0.787500
20
1.701611
30
0.0
11
0.900000
21
1.698269
31
0.0
0
LINE
8
TOP
10
0.900000
20
1.698269
30
0.0
11
1.012500
21
1.694927
31
0.0
0
LINE
8
TOP
10
1.012500
20
1.694927
30
0.0
11
1.125000
21
1.691584
31
0.0
0
LINE
8
TOP
10
1.125000
20
1.691584
30
0.0
11
1.237500
21
1.688242
31
0.0
0
LINE
8
TOP
10
1.237500
20
1.688242
30
0.0
11
1.350000
21
1.684899
31
0.0
0
LINE
8
TOP
10
1.350000
20
1.684899
30
0.0
11
1.462500
21
1.681557
31
0.0
0
LINE
8
TOP
10
1.462500
20
1.681557
30
0.0
11
1.575000
21
1.678214
31
0.0
0
LINE
8
TOP
10
1.575000
20
1.678214
30
0.0
11
1.687500
21
1.674872
31
0.0
0
LINE
8
TOP
10
1.687500
20
1.674872
30
0.0
11
1.800000
21
1.671529
31
0.0
0
LINE
8
TOP
10
1.800000
20
1.671529
30
0.0
11
1.912500
21
1.668187
31
0.0
0
LINE
8
TOP
10
1.912500
20
1.668187
30
0.0
11
2.025000
21
1.664844
31
0.0
0
LINE
8
TOP
10
2.025000
20
1.664844
30
0.0
11
2.137500
21
1.661502
31
0.0
0
LINE
8
TOP
10
2.137500
20
1.661502
30
0.0
11
2.250000
21
1.658159
31
0.0
0
LINE
8
TOP
10
2.250000
20
1.658159
30
0.0
11
2.362500
21
1.654817
31
0.0
0
LINE
8
TOP
10
2.362500
20
1.654817
30
0.0
11
2.475000
21
1.651475
31
0.0
0
LINE
8
TOP
10
2.475000
20
1.651475
30
0.0
11
2.587500
21
1.648132
31
0.0
0
LINE
8
TOP
10
2.587500
20
1.648132
30
0.0
11
2.700000
21
1.644790
31
0.0
0
LINE
8
TOP
10
2.700000
20
1.644790
30
0.0
11
2.812500
21
1.641447
31
0.0
0
LINE
8
TOP
10
2.812500
20
1.641447
30
0.0
11
2.925000
21
1.638105
31
0.0
0
LINE
8
TOP
10
2.925000
20
1.638105
30
0.0
11
3.037500
21
1.634762
31
0.0
0
LINE
8
TOP
10
3.037500
20
1.634762
30
0.0
11
3.150000
21
1.631420
31
0.0
0
LINE
8
TOP
10
3.150000
20
1.631420
30
0.0
11
3.262500
21
1.628077
31
0.0
0
LINE
8
TOP
10
3.262500
20
1.628077
30
0.0
11
3.375000
21
1.624735
31
0.0
0
LINE
8
TOP
10
3.375000
20
1.624735
30
0.0
11
3.487500
21
1.621392
31
0.0
0
LINE
8
TOP
10
3.487500
20
1.621392
30
0.0
11
3.600000
21
1.618050
31
0.0
0
LINE
8
TOP
10
3.600000
20
1.618050
30
0.0
11
3.712500
21
1.614707
31
0.0
0
LINE
8
TOP
10
3.712500
20
1.614707
30
0.0
11
3.825000
21
1.611365
31
0.0
0
LINE
8
TOP
10
3.825000
20
1.611365
30
0.0
11
3.937500
21
1.608023
31
0.0
0
LINE
8
TOP
10
3.937500
20
1.608023
30
0.0
11
4.050000
21
1.604680
31
0.0
0
LINE
8
TOP
10
4.050000
20
1.604680
30
0.0
11
4.162500
21
1.601338
31
0.0
0
LINE
8
TOP
10
4.162500
20
1.601338
30
0.0
11
4.275000
21
1.597995
31
0.0
0
LINE
8
TOP
10
4.275000
20
1.597995
30
0.0
11
4.387500
21
1.594653
31
0.0
0
LINE
8
TOP
10
4.387500
20
1.594653
30
0.0
11
4.500000
21
1.591310
31
0.0
0
LINE
8
TOP
10
4.500000
20
1.591310
30
0.0
11
4.612500
21
1.593394
31
0.0
0
LINE
8
TOP
10
4.612500
20
1.593394
30
0.0
11
4.725000
21
1.595478
31
0.0
0
LINE
8
TOP
10
4.725000
20
1.595478
30
0.0
11
4.837500
21
1.597561
31
0.0
0
LINE
8
TOP
10
4.837500
20
1.597561
30
0.0
11
4.950000
21
1.599645
31
0.0
0
LINE
8
TOP
10
4.950000
20
1.599645
30
0.0
11
5.062500
21
1.601728
31
0.0
0
LINE
8
TOP
10
5.062500
20
1.601728
30
0.0
11
5.175000
21
1.603812
31
0.0
0
LINE
8
TOP
10
5.175000
20
1.603812
30
0.0
11
5.287500
21
1.605896
31
0.0
0
LINE
8
TOP
10
5.287500
20
1.605896
30
0.0
11
5.400000
21
1.607979
31
0.0
0
LINE
8
TOP
10
5.400000
20
1.607979
30
0.0
11
5.512500
21
1.610063
31
0.0
0
LINE
8
TOP
10
5.512500
20
1.610063
30
0.0
11
5.625000
21
1.612147
31
0.0
0
LINE
8
TOP
10
5.625000
20
1.612147
30
0.0
11
5.737500
21
1.614230
31
0.0
0
LINE
8
TOP
10
5.737500
20
1.614230
30
0.0
11
5.850000
21
1.616314
31
0.0
0
LINE
8
TOP
10
5.850000
20
1.616314
30
0.0
11
5.962500
21
1.618397
31
0.0
0
LINE
8
TOP
10
5.962500
20
1.618397
30
0.0
11
6.075000
21
1.620481
31
0.0
0
LINE
8
TOP
10
6.075000
20
1.620481
30
0.0
11
6.187500
21
1.622565
31
0.0
0
LINE
8
TOP
10
6.187500
20
1.622565
30
0.0
11
6.300000
21
1.624648
31
0.0
0
LINE
8
TOP
10
6.300000
20
1.624648
30
0.0
11
6.412500
21
1.626732
31
0.0
0
LINE
8
TOP
10
6.412500
20
1.626732
30
0.0
11
6.525000
21
1.628816
31
0.0
0
LINE
8
TOP
10
6.525000
20
1.628816
30
0.0
11
6.637500
21
1.630899
31
0.0
0
LINE
8
TOP
10
6.637500
20
1.630899
30
0.0
11
6.750000
21
1.632983
31
0.0
0
LINE
8
TOP
10
6.750000
20
1.632983
30
0.0
11
6.862500
21
1.635066
31
0.0
0
LINE
8
TOP
10
6.862500
20
1.635066
30
0.0
11
6.975000
21
1.637150
31
0.0
0
LINE
8
TOP
10
6.975000
20
1.637150
30
0.0
11
7.087500
21
1.639234
31
0.0
0
LINE
8
TOP
10
7.087500
20
1.639234
30
0.0
11
7.200000
21
1.641317
31
0.0
0
LINE
8
TOP
10
7.200000
20
1.641317
30
0.0
11
7.312500
21
1.643401
31
0.0
0
LINE
8
TOP
10
7.312500
20
1.643401
30
0.0
11
7.425000
21
1.645485
31
0.0
0
LINE
8
TOP
10
7.425000
20
1.645485
30
0.0
11
7.537500
21
1.647568
31
0.0
0
LINE
8
TOP
10
7.537500
20
1.647568
30
0.0
11
7.650000
21
1.649652
31
0.0
0
LINE
8
TOP
10
7.650000
20
1.649652
30
0.0
11
7.762500
21
1.651735
31
0.0
0
LINE
8
TOP
10
7.762500
20
1.651735
30
0.0
11
7.875000
21
1.653819
31
0.0
0
LINE
8
TOP
10
7.875000
20
1.653819
30
0.0
11
7.987500
21
1.655903
31
0.0
0
LINE
8
TOP
10
7.987500
20
1.655903
30
0.0
11
8.100000
21
1.657986
31
0.0
0
LINE
8
TOP
10
8.100000
20
1.657986
30
0.0
11
8.212500
21
1.660070
31
0.0
0
LINE
8
TOP
10
8.212500
20
1.660070
30
0.0
11
8.325000
21
1.662154
31
0.0
0
LINE
8
TOP
10
8.325000
20
1.662154
30
0.0
11
8.437500
21
1.664237
31
0.0
0
LINE
8
TOP
10
8.437500
20
1.664237
30
0.0
11
8.500000
21
1.665395
31
0.0
0
LINE
8
TOP
10
8.500000
20
1.665395
30
0.0
11
8.550000
21
1.666321
31
0.0
0
LINE
8
TOP
10
8.550000
20
1.666321
30
0.0
11
8.662500
21
1.668404
31
0.0
0
LINE
8
TOP
10
8.662500
20
1.668404
30
0.0
11
8.775000
21
1.670488
31
0.0
0
LINE
8
TOP
10
8.775000
20
1.670488
30
0.0
11
8.887500
21
1.672572
31
0.0
0
LINE
8
TOP
10
8.887500
20
1.672572
30
0.0
11
9.000000
21
1.674655
31
0.0
0
LINE
8
TOP
10
0.000000
20
1.978108
30
0.0
11
0.000000
21
1.725009
31
0.0
0
LINE
8
TOP
10
9.000000
20
2.028462
30
0.0
11
9.000000
21
1.674655
31
0.0
0
LINE
8
SECTION
10
10.239752
20
-0.324886
30
0.0
11
10.760248
21
-0.324886
31
0.0
0
LINE
8
SECTION
10
10.760248
20
-0.324886
30
0.0
11
10.760248
21
0.324886
31
0.0
0
LINE
8
SECTION
10
10.760248
20
0.324886
30
0.0
11
10.239752
21
0.324886
31
0.0
0
LINE
8
SECTION
10
10.239752
20
0.324886
30
0.0
11
10.239752
21
-0.324886
31
0.0
0
LINE
8
SECTION
10
10.299752
20
-0.264886
30
0.0
11
10.700248
21
-0.264886
31
0.0
0
LINE
8
SECTION
10
10.700248
20
-0.264886
30
0.0
11
10.700248
21
0.264886
31
0.0
0
LINE
8
SECTION
10
10.700248
20
0.264886
30
0.0
11
10.299752
21
0.264886
31
0.0
0
LINE
8
SECTION
10
10.299752
20
0.264886
30
0.0
11
10.299752
21
-0.264886
31
0.0
0
LINE
8
SECTION
10
10.299752
20
0.000000
30
0.0
11
10.359752
21
0.000000
31
0.0
0
LINE
8
SECTION
10
10.359752
20
0.000000
30
0.0
11
10.359752
21
0.264886
31
0.0
0
LINE
8
SECTION
10
10.359752
20
0.264886
30
0.0
11
10.299752
21
0.264886
31
0.0
0
LINE
8
SECTION
10
10.299752
20
0.264886
30
0.0
11
10.299752
21
0.000000
31
0.0
0
LINE
8
SECTION
10
10.299752
20
-0.264886
30
0.0
11
10.359752
21
-0.264886
31
0.0
0
LINE
8
SECTION
10
10.359752
20
-0.264886
30
0.0
11
10.359752
21
0.000000
31
0.0
0
LINE
8
SECTION
10
10.359752
20
0.000000
30
0.0
11
10.299752
21
0.000000
31
0.0
0
LINE
8
SECTION
10
10.299752
20
0.000000
30
0.0
11
10.299752
21
-0.264886
31
0.0
0
LINE
8
SECTION
10
10.640248
20
0.000000
30
0.0
11
10.700248
21
0.000000
31
0.0
0
LINE
8
SECTION
10
10.700248
20
0.000000
30
0.0
11
10.700248
21
0.264886
31
0.0
0
LINE
8
SECTION
10
10.700248
20
0.264886
30
0.0
11
10.640248
21
0.264886
31
0.0
0
LINE
8
SECTION
10
10.640248
20
0.264886
30
0.0
11
10.640248
21
0.000000
31
0.0
0
LINE
8
SECTION
10
10.640248
20
-0.264886
30
0.0
11
10.700248
21
-0.264886
31
0.0
0
LINE
8
SECTION
10
10.700248
20
-0.264886
30
0.0
11
10.700248
21
0.000000
31
0.0
0
LINE
8
SECTION
10
10.700248
20
0.000000
30
0.0
11
10.640248
21
0.000000
31
0.0
0
LINE
8
SECTION
10
10.640248
20
0.000000
30
0.0
11
10.640248
21
-0.264886
31
0.0
0
ENDSEC
0
EOF
