0
SECTION
2
HEADER
9
$INSUNITS
70
1
0
ENDSEC
0
SECTION
2
ENTITIES
0
LINE
8
FRONT
10
0.000000
20
0.210760
30
0.0
11
0.112500
21
0.211013
31
0.0
0
LINE
8
FRONT
10
0.112500
20
0.211013
30
0.0
11
0.225000
21
0.211265
31
0.0
0
LINE
8
FRONT
10
0.225000
20
0.211265
30
0.0
11
0.337500
21
0.211517
31
0.0
0
LINE
8
FRONT
10
0.337500
20
0.211517
30
0.0
11
0.450000
21
0.211770
31
0.0
0
LINE
8
FRONT
10
0.450000
20
0.211770
30
0.0
11
0.500000
21
0.211882
31
0.0
0
LINE
8
FRONT
10
0.500000
20
0.211882
30
0.0
11
0.562500
21
0.212022
31
0.0
0
LINE
8
FRONT
10
0.562500
20
0.212022
30
0.0
11
0.675000
21
0.212275
31
0.0
0
LINE
8
FRONT
10
0.675000
20
0.212275
30
0.0
11
0.787500
21
0.212527
31
0.0
0
LINE
8
FRONT
10
0.787500
20
0.212527
30
0.0
11
0.900000
21
0.212779
31
0.0
0
LINE
8
FRONT
10
0.900000
20
0.212779
30
0.0
11
1.012500
21
0.213032
31
0.0
0
LINE
8
FRONT
10
1.012500
20
0.213032
30
0.0
11
1.125000
21
0.213284
31
0.0
0
LINE
8
FRONT
10
1.125000
20
0.213284
30
0.0
11
1.237500
21
0.213536
31
0.0
0
LINE
8
FRONT
10
1.237500
20
0.213536
30
0.0
11
1.350000
21
0.213789
31
0.0
0
LINE
8
FRONT
10
1.350000
20
0.213789
30
0.0
11
1.462500
21
0.214041
31
0.0
0
LINE
8
FRONT
10
1.462500
20
0.214041
30
0.0
11
1.575000
21
0.214294
31
0.0
0
LINE
8
FRONT
10
1.575000
20
0.214294
30
0.0
11
1.687500
21
0.214546
31
0.0
0
LINE
8
FRONT
10
1.687500
20
0.214546
30
0.0
11
1.800000
21
0.214798
31
0.0
0
LINE
8
FRONT
10
1.800000
20
0.214798
30
0.0
11
1.912500
21
0.215051
31
0.0
0
LINE
8
FRONT
10
1.912500
20
0.215051
30
0.0
11
2.025000
21
0.215303
31
0.0
0
LINE
8
FRONT
10
2.025000
20
0.215303
30
0.0
11
2.137500
21
0.215555
31
0.0
0
LINE
8
FRONT
10
2.137500
20
0.215555
30
0.0
11
2.250000
21
0.215808
31
0.0
0
LINE
8
FRONT
10
2.250000
20
0.215808
30
0.0
11
2.362500
21
0.216060
31
0.0
0
LINE
8
FRONT
10
2.362500
20
0.216060
30
0.0
11
2.475000
21
0.216313
31
0.0
0
LINE
8
FRONT
10
2.475000
20
0.216313
30
0.0
11
2.587500
21
0.216565
31
0.0
0
LINE
8
FRONT
10
2.587500
20
0.216565
30
0.0
11
2.700000
21
0.216817
31
0.0
0
LINE
8
FRONT
10
2.700000
20
0.216817
30
0.0
11
2.812500
21
0.217070
31
0.0
0
LINE
8
FRONT
10
2.812500
20
0.217070
30
0.0
11
2.925000
21
0.217322
31
0.0
0
LINE
8
FRONT
10
2.925000
20
0.217322
30
0.0
11
3.037500
21
0.217574
31
0.0
0
LINE
8
FRONT
10
3.037500
20
0.217574
30
0.0
11
3.150000
21
0.217827
31
0.0
0
LINE
8
FRONT
10
3.150000
20
0.217827
30
0.0
11
3.262500
21
0.218079
31
0.0
0
LINE
8
FRONT
10
3.262500
20
0.218079
30
0.0
11
3.375000
21
0.218332
31
0.0
0
LINE
8
FRONT
10
3.375000
20
0.218332
30
0.0
11
3.487500
21
0.218584
31
0.0
0
LINE
8
FRONT
10
3.487500
20
0.218584
30
0.0
11
3.600000
21
0.218836
31
0.0
0
LINE
8
FRONT
10
3.600000
20
0.218836
30
0.0
11
3.712500
21
0.219089
31
0.0
0
LINE
8
FRONT
10
3.712500
20
0.219089
30
0.0
11
3.825000
21
0.219341
31
0.0
0
LINE
8
FRONT
10
3.825000
20
0.219341
30
0.0
11
3.937500
21
0.219593
31
0.0
0
LINE
8
FRONT
10
3.937500
20
0.219593
30
0.0
11
4.050000
21
0.219846
31
0.0
0
LINE
8
FRONT
10
4.050000
20
0.219846
30
0.0
11
4.162500
21
0.220098
31
0.0
0
LINE
8
FRONT
10
4.162500
20
0.220098
30
0.0
11
4.275000
21
0.220351
31
0.0
0
LINE
8
FRONT
10
4.275000
20
0.220351
30
0.0
11
4.387500
21
0.220603
31
0.0
0
LINE
8
FRONT
10
4.387500
20
0.220603
30
0.0
11
4.500000
21
0.220855
31
0.0
0
LINE
8
FRONT
10
4.500000
20
0.220855
30
0.0
11
4.612500
21
0.220603
31
0.0
0
LINE
8
FRONT
10
4.612500
20
0.220603
30
0.0
11
4.725000
21
0.220351
31
0.0
0
LINE
8
FRONT
10
4.725000
20
0.220351
30
0.0
11
4.837500
21
0.220098
31
0.0
0
LINE
8
FRONT
10
4.837500
20
0.220098
30
0.0
11
4.950000
21
0.219846
31
0.0
0
LINE
8
FRONT
10
4.950000
20
0.219846
30
0.0
11
5.062500
21
0.219593
31
0.0
0
LINE
8
FRONT
10
5.062500
20
0.219593
30
0.0
11
5.175000
21
0.219341
31
0.0
0
LINE
8
FRONT
10
5.175000
20
0.219341
30
0.0
11
5.287500
21
0.219089
31
0.0
0
LINE
8
FRONT
10
5.287500
20
0.219089
30
0.0
11
5.400000
21
0.218836
31
0.0
0
LINE
8
FRONT
10
5.400000
20
0.218836
30
0.0
11
5.512500
21
0.218584
31
0.0
0
LINE
8
FRONT
10
5.512500
20
0.218584
30
0.0
11
5.625000
21
0.218332
31
0.0
0
LINE
8
FRONT
10
5.625000
20
0.218332
30
0.0
11
5.737500
21
0.218079
31
0.0
0
LINE
8
FRONT
10
5.737500
20
0.218079
30
0.0
11
5.850000
21
0.217827
31
0.0
0
LINE
8
FRONT
10
5.850000
20
0.217827
30
0.0
11
5.962500
21
0.217574
31
0.0
0
LINE
8
FRONT
10
5.962500
20
0.217574
30
0.0
11
6.075000
21
0.217322
31
0.0
0
LINE
8
FRONT
10
6.075000
20
0.217322
30
0.0
11
6.187500
21
0.217070
31
0.0
0
LINE
8
FRONT
10
6.187500
20
0.217070
30
0.0
11
6.300000
21
0.216817
31
0.0
0
LINE
8
FRONT
10
6.300000
20
0.216817
30
0.0
11
6.412500
21
0.216565
31
0.0
0
LINE
8
FRONT
10
6.412500
20
0.216565
30
0.0
11
6.525000
21
0.216313
31
0.0
0
LINE
8
FRONT
10
6.525000
20
0.216313
30
0.0
11
6.637500
21
0.216060
31
0.0
0
LINE
8
FRONT
10
6.637500
20
0.216060
30
0.0
11
6.750000
21
0.215808
31
0.0
0
LINE
8
FRONT
10
6.750000
20
0.215808
30
0.0
11
6.862500
21
0.215555
31
0.0
0
LINE
8
FRONT
10
6.862500
20
0.215555
30
0.0
11
6.975000
21
0.215303
31
0.0
0
LINE
8
FRONT
10
6.975000
20
0.215303
30
0.0
11
7.087500
21
0.215051
31
0.0
0
LINE
8
FRONT
10
7.087500
20
0.215051
30
0.0
11
7.200000
21
0.214798
31
0.0
0
LINE
8
FRONT
10
7.200000
20
0.214798
30
0.0
11
7.312500
21
0.214546
31
0.0
0
LINE
8
FRONT
10
7.312500
20
0.214546
30
0.0
11
7.425000
21
0.214294
31
0.0
0
LINE
8
FRONT
10
7.425000
20
0.214294
30
0.0
11
7.537500
21
0.214041
31
0.0
0
LINE
8
FRONT
10
7.537500
20
0.214041
30
0.0
11
7.650000
21
0.213789
31
0.0
0
LINE
8
FRONT
10
7.650000
20
0.213789
30
0.0
11
7.762500
21
0.213536
31
0.0
0
LINE
8
FRONT
10
7.762500
20
0.213536
30
0.0
11
7.875000
21
0.213284
31
0.0
0
LINE
8
FRONT
10
7.875000
20
0.213284
30
0.0
11
7.987500
21
0.213032
31
0.0
0
LINE
8
FRONT
10
7.987500
20
0.213032
30
0.0
11
8.100000
21
0.212779
31
0.0
0
LINE
8
FRONT
10
8.100000
20
0.212779
30
0.0
11
8.212500
21
0.212527
31
0.0
0
LINE
8
FRONT
10
8.212500
20
0.212527
30
0.0
11
8.325000
21
0.212275
31
0.0
0
LINE
8
FRONT
10
8.325000
20
0.212275
30
0.0
11
8.437500
21
0.212022
31
0.0
0
LINE
8
FRONT
10
8.437500
20
0.212022
30
0.0
11
8.500000
21
0.211882
31
0.0
0
LINE
8
FRONT
10
8.500000
20
0.211882
30
0.0
11
8.550000
21
0.211770
31
0.0
0
LINE
8
FRONT
10
8.550000
20
0.211770
30
0.0
11
8.662500
21
0.211517
31
0.0
0
LINE
8
FRONT
10
8.662500
20
0.211517
30
0.0
11
8.775000
21
0.211265
31
0.0
0
LINE
8
FRONT
10
8.775000
20
0.211265
30
0.0
11
8.887500
21
0.211013
31
0.0
0
LINE
8
FRONT
10
8.887500
20
0.211013
30
0.0
11
9.000000
21
0.210760
31
0.0
0
LINE
8
FRONT
10
0.000000
20
-0.210760
30
0.0
11
0.112500
21
-0.211013
31
0.0
0
LINE
8
FRONT
10
0.112500
20
-0.211013
30
0.0
11
0.225000
21
-0.211265
31
0.0
0
LINE
8
FRONT
10
0.225000
20
-0.211265
30
0.0
11
0.337500
21
-0.211517
31
0.0
0
LINE
8
FRONT
10
0.337500
20
-0.211517
30
0.0
11
0.450000
21
-0.211770
31
0.0
0
LINE
8
FRONT
10
0.450000
20
-0.211770
30
0.0
11
0.500000
21
-0.211882
31
0.0
0
LINE
8
FRONT
10
0.500000
20
-0.211882
30
0.0
11
0.562500
21
-0.212022
31
0.0
0
LINE
8
FRONT
10
0.562500
20
-0.212022
30
0.0
11
0.675000
21
-0.212275
31
0.0
0
LINE
8
FRONT
10
0.675000
20
-0.212275
30
0.0
11
0.787500
21
-0.212527
31
0.0
0
LINE
8
FRONT
10
0.787500
20
-0.212527
30
0.0
11
0.900000
21
-0.212779
31
0.0
0
LINE
8
FRONT
10
0.900000
20
-0.212779
30
0.0
11
1.012500
21
-0.213032
31
0.0
0
LINE
8
FRONT
10
1.012500
20
-0.213032
30
0.0
11
1.125000
21
-0.213284
31
0.0
0
LINE
8
FRONT
10
1.125000
20
-0.213284
30
0.0
11
1.237500
21
-0.213536
31
0.0
0
LINE
8
FRONT
10
1.237500
20
-0.213536
30
0.0
11
1.350000
21
-0.213789
31
0.0
0
LINE
8
FRONT
10
1.350000
20
-0.213789
30
0.0
11
1.462500
21
-0.214041
31
0.0
0
LINE
8
FRONT
10
1.462500
20
-0.214041
30
0.0
11
1.575000
21
-0.214294
31
0.0
0
LINE
8
FRONT
10
1.575000
20
-0.214294
30
0.0
11
1.687500
21
-0.214546
31
0.0
0
LINE
8
FRONT
10
1.687500
20
-0.214546
30
0.0
11
1.800000
21
-0.214798
31
0.0
0
LINE
8
FRONT
10
1.800000
20
-0.214798
30
0.0
11
1.912500
21
-0.215051
31
0.0
0
LINE
8
FRONT
10
1.912500
20
-0.215051
30
0.0
11
2.025000
21
-0.215303
31
0.0
0
LINE
8
FRONT
10
2.025000
20
-0.215303
30
0.0
11
2.137500
21
-0.215555
31
0.0
0
LINE
8
FRONT
10
2.137500
20
-0.215555
30
0.0
11
2.250000
21
-0.215808
31
0.0
0
LINE
8
FRONT
10
2.250000
20
-0.215808
30
0.0
11
2.362500
21
-0.216060
31
0.0
0
LINE
8
FRONT
10
2.362500
20
-0.216060
30
0.0
11
2.475000
21
-0.216313
31
0.0
0
LINE
8
FRONT
10
2.475000
20
-0.216313
30
0.0
11
2.587500
21
-0.216565
31
0.0
0
LINE
8
FRONT
10
2.587500
20
-0.216565
30
0.0
11
2.700000
21
-0.216817
31
0.0
0
LINE
8
FRONT
10
2.700000
20
-0.216817
30
0.0
11
2.812500
21
-0.217070
31
0.0
0
LINE
8
FRONT
10
2.812500
20
-0.217070
30
0.0
11
2.925000
21
-0.217322
31
0.0
0
LINE
8
FRONT
10
2.925000
20
-0.217322
30
0.0
11
3.037500
21
-0.217574
31
0.0
0
LINE
8
FRONT
10
3.037500
20
-0.217574
30
0.0
11
3.150000
21
-0.217827
31
0.0
0
LINE
8
FRONT
10
3.150000
20
-0.217827
30
0.0
11
3.262500
21
-0.218079
31
0.0
0
LINE
8
FRONT
10
3.262500
20
-0.218079
30
0.0
11
3.375000
21
-0.218332
31
0.0
0
LINE
8
FRONT
10
3.375000
20
-0.218332
30
0.0
11
3.487500
21
-0.218584
31
0.0
0
LINE
8
FRONT
10
3.487500
20
-0.218584
30
0.0
11
3.600000
21
-0.218836
31
0.0
0
LINE
8
FRONT
10
3.600000
20
-0.218836
30
0.0
11
3.712500
21
-0.219089
31
0.0
0
LINE
8
FRONT
10
3.712500
20
-0.219089
30
0.0
11
3.825000
21
-0.219341
31
0.0
0
LINE
8
FRONT
10
3.825000
20
-0.219341
30
0.0
11
3.937500
21
-0.219593
31
0.0
0
LINE
8
FRONT
10
3.937500
20
-0.219593
30
0.0
11
4.050000
21
-0.219846
31
0.0
0
LINE
8
FRONT
10
4.050000
20
-0.219846
30
0.0
11
4.162500
21
-0.220098
31
0.0
0
LINE
8
FRONT
10
4.162500
20
-0.220098
30
0.0
11
4.275000
21
-0.220351
31
0.0
0
LINE
8
FRONT
10
4.275000
20
-0.220351
30
0.0
11
4.387500
21
-0.220603
31
0.0
0
LINE
8
FRONT
10
4.387500
20
-0.220603
30
0.0
11
4.500000
21
-0.220855
31
0.0
0
LINE
8
FRONT
10
4.500000
20
-0.220855
30
0.0
11
4.612500
21
-0.220603
31
0.0
0
LINE
8
FRONT
10
4.612500
20
-0.220603
30
0.0
11
4.725000
21
-0.220351
31
0.0
0
LINE
8
FRONT
10
4.725000
20
-0.220351
30
0.0
11
4.837500
21
-0.220098
31
0.0
0
LINE
8
FRONT
10
4.837500
20
-0.220098
30
0.0
11
4.950000
21
-0.219846
31
0.0
0
LINE
8
FRONT
10
4.950000
20
-0.219846
30
0.0
11
5.062500
21
-0.219593
31
0.0
0
LINE
8
FRONT
10
5.062500
20
-0.219593
30
0.0
11
5.175000
21
-0.219341
31
0.0
0
LINE
8
FRONT
10
5.175000
20
-0.219341
30
0.0
11
5.287500
21
-0.219089
31
0.0
0
LINE
8
FRONT
10
5.287500
20
-0.219089
30
0.0
11
5.400000
21
-0.218836
31
0.0
0
LINE
8
FRONT
10
5.400000
20
-0.218836
30
0.0
11
5.512500
21
-0.218584
31
0.0
0
LINE
8
FRONT
10
5.512500
20
-0.218584
30
0.0
11
5.625000
21
-0.218332
31
0.0
0
LINE
8
FRONT
10
5.625000
20
-0.218332
30
0.0
11
5.737500
21
-0.218079
31
0.0
0
LINE
8
FRONT
10
5.737500
20
-0.218079
30
0.0
11
5.850000
21
-0.217827
31
0.0
0
LINE
8
FRONT
10
5.850000
20
-0.217827
30
0.0
11
5.962500
21
-0.217574
31
0.0
0
LINE
8
FRONT
10
5.962500
20
-0.217574
30
0.0
11
6.075000
21
-0.217322
31
0.0
0
LINE
8
FRONT
10
6.075000
20
-0.217322
30
0.0
11
6.187500
21
-0.217070
31
0.0
0
LINE
8
FRONT
10
6.187500
20
-0.217070
30
0.0
11
6.300000
21
-0.216817
31
0.0
0
LINE
8
FRONT
10
6.300000
20
-0.216817
30
0.0
11
6.412500
21
-0.216565
31
0.0
0
LINE
8
FRONT
10
6.412500
20
-0.216565
30
0.0
11
6.525000
21
-0.216313
31
0.0
0
LINE
8
FRONT
10
6.525000
20
-0.216313
30
0.0
11
6.637500
21
-0.216060
31
0.0
0
LINE
8
FRONT
10
6.637500
20
-0.216060
30
0.0
11
6.750000
21
-0.215808
31
0.0
0
LINE
8
FRONT
10
6.750000
20
-0.215808
30
0.0
11
6.862500
21
-0.215555
31
0.0
0
LINE
8
FRONT
10
6.862500
20
-0.215555
30
0.0
11
6.975000
21
-0.215303
31
0.0
0
LINE
8
FRONT
10
6.975000
20
-0.215303
30
0.0
11
7.087500
21
-0.215051
31
0.0
0
LINE
8
FRONT
10
7.087500
20
-0.215051
30
0.0
11
7.200000
21
-0.214798
31
0.0
0
LINE
8
FRONT
10
7.200000
20
-0.214798
30
0.0
11
7.312500
21
-0.214546
31
0.0
0
LINE
8
FRONT
10
7.312500
20
-0.214546
30
0.0
11
7.425000
21
-0.214294
31
0.0
0
LINE
8
FRONT
10
7.425000
20
-0.214294
30
0.0
11
7.537500
21
-0.214041
31
0.0
0
LINE
8
FRONT
10
7.537500
20
-0.214041
30
0.0
11
7.650000
21
-0.213789
31
0.0
0
LINE
8
FRONT
10
7.650000
20
-0.213789
30
0.0
11
7.762500
21
-0.213536
31
0.0
0
LINE
8
FRONT
10
7.762500
20
-0.213536
30
0.0
11
7.875000
21
-0.213284
31
0.0
0
LINE
8
FRONT
10
7.875000
20
-0.213284
30
0.0
11
7.987500
21
-0.213032
31
0.0
0
LINE
8
FRONT
10
7.987500
20
-0.213032
30
0.0
11
8.100000
21
-0.212779
31
0.0
0
LINE
8
FRONT
10
8.100000
20
-0.212779
30
0.0
11
8.212500
21
-0.212527
31
0.0
0
LINE
8
FRONT
10
8.212500
20
-0.212527
30
0.0
11
8.325000
21
-0.212275
31
0.0
0
LINE
8
FRONT
10
8.325000
20
-0.212275
30
0.0
11
8.437500
21
-0.212022
31
0.0
0
LINE
8
FRONT
10
8.437500
20
-0.212022
30
0.0
11
8.500000
21
-0.211882
31
0.0
0
LINE
8
FRONT
10
8.500000
20
-0.211882
30
0.0
11
8.550000
21
-0.211770
31
0.0
0
LINE
8
FRONT
10
8.550000
20
-0.211770
30
0.0
11
8.662500
21
-0.211517
31
0.0
0
LINE
8
FRONT
10
8.662500
20
-0.211517
30
0.0
11
8.775000
21
-0.211265
31
0.0
0
LINE
8
FRONT
10
8.775000
20
-0.211265
30
0.0
11
8.887500
21
-0.211013
31
0.0
0
LINE
8
FRONT
10
8.887500
20
-0.211013
30
0.0
11
9.000000
21
-0.210760
31
0.0
0
LINE
8
FRONT
10
0.000000
20
0.210760
30
0.0
11
0.000000
21
-0.210760
31
0.0
0
LINE
8
FRONT
10
9.000000
20
0.210760
30
0.0
11
9.000000
21
-0.210760
31
0.0
0
LINE
8
TOP
10
0.000000
20
1.704303
30
0.0
11
0.112500
21
1.703883
31
0.0
0
LINE
8
TOP
10
0.112500
20
1.703883
30
0.0
11
0.225000
21
1.703463
31
0.0
0
LINE
8
TOP
10
0.225000
20
1.703463
30
0.0
11
0.337500
21
1.703043
31
0.0
0
LINE
8
TOP
10
0.337500
20
1.703043
30
0.0
11
0.450000
21
1.702623
31
0.0
0
LINE
8
TOP
10
0.450000
20
1.702623
30
0.0
11
0.500000
21
1.702436
31
0.0
0
LINE
8
TOP
10
0.500000
20
1.702436
30
0.0
11
0.562500
21
1.702203
31
0.0
0
LINE
8
TOP
10
0.562500
20
1.702203
30
0.0
11
0.675000
21
1.701783
31
0.0
0
LINE
8
TOP
10
0.675000
20
1.701783
30
0.0
11
0.787500
21
1.701363
31
0.0
0
LINE
8
TOP
10
0.787500
20
1.701363
30
0.0
11
0.900000
21
1.700943
31
0.0
0
LINE
8
TOP
10
0.900000
20
1.700943
30
0.0
11
1.012500
21
1.700523
31
0.0
0
LINE
8
TOP
10
1.012500
20
1.700523
30
0.0
11
1.125000
21
1.700103
31
0.0
0
LINE
8
TOP
10
1.125000
20
1.700103
30
0.0
11
1.237500
21
1.699684
31
0.0
0
LINE
8
TOP
10
1.237500
20
1.699684
30
0.0
11
1.350000
21
1.699264
31
0.0
0
LINE
8
TOP
10
1.350000
20
1.699264
30
0.0
11
1.462500
21
1.698844
31
0.0
0
LINE
8
TOP
10
1.462500
20
1.698844
30
0.0
11
1.575000
21
1.698424
31
0.0
0
LINE
8
TOP
10
1.575000
20
1.698424
30
0.0
11
1.687500
21
1.698004
31
0.0
0
LINE
8
TOP
10
1.687500
20
1.698004
30
0.0
11
1.800000
21
1.697584
31
0.0
0
LINE
8
TOP
10
1.800000
20
1.697584
30
0.0
11
1.912500
21
1.697164
31
0.0
0
LINE
8
TOP
10
1.912500
20
1.697164
30
0.0
11
2.025000
21
1.696744
31
0.0
0
LINE
8
TOP
10
2.025000
20
1.696744
30
0.0
11
2.137500
21
1.696324
31
0.0
0
LINE
8
TOP
10
2.137500
20
1.696324
30
0.0
11
2.250000
21
1.695904
31
0.0
0
LINE
8
TOP
10
2.250000
20
1.695904
30
0.0
11
2.362500
21
1.695484
31
0.0
0
LINE
8
TOP
10
2.362500
20
1.695484
30
0.0
11
2.475000
21
1.695064
31
0.0
0
LINE
8
TOP
10
2.475000
20
1.695064
30
0.0
11
2.587500
21
1.694644
31
0.0
0
LINE
8
TOP
10
2.587500
20
1.694644
30
0.0
11
2.700000
21
1.694224
31
0.0
0
LINE
8
TOP
10
2.700000
20
1.694224
30
0.0
11
2.812500
21
1.693804
31
0.0
0
LINE
8
TOP
10
2.812500
20
1.693804
30
0.0
11
2.925000
21
1.693384
31
0.0
0
LINE
8
TOP
10
2.925000
20
1.693384
30
0.0
11
3.037500
21
1.692964
31
0.0
0
LINE
8
TOP
10
3.037500
20
1.692964
30
0.0
11
3.150000
21
1.692544
31
0.0
0
LINE
8
TOP
10
3.150000
20
1.692544
30
0.0
11
3.262500
21
1.692124
31
0.0
0
LINE
8
TOP
10
3.262500
20
1.692124
30
0.0
11
3.375000
21
1.691705
31
0.0
0
LINE
8
TOP
10
3.375000
20
1.691705
30
0.0
11
3.487500
21
1.691285
31
0.0
0
LINE
8
TOP
10
3.487500
20
1.691285
30
0.0
11
3.600000
21
1.690865
31
0.0
0
LINE
8
TOP
10
3.600000
20
1.690865
30
0.0
11
3.712500
21
1.690445
31
0.0
0
LINE
8
TOP
10
3.712500
20
1.690445
30
0.0
11
3.825000
21
1.690025
31
0.0
0
LINE
8
TOP
10
3.825000
20
1.690025
30
0.0
11
3.937500
21
1.689605
31
0.0
0
LINE
8
TOP
10
3.937500
20
1.689605
30
0.0
11
4.050000
21
1.689185
31
0.0
0
LINE
8
TOP
10
4.050000
20
1.689185
30
0.0
11
4.162500
21
1.688765
31
0.0
0
LINE
8
TOP
10
4.162500
20
1.688765
30
0.0
11
4.275000
21
1.688345
31
0.0
0
LINE
8
TOP
10
4.275000
20
1.688345
30
0.0
11
4.387500
21
1.687925
31
0.0
0
LINE
8
TOP
10
4.387500
20
1.687925
30
0.0
11
4.500000
21
1.687505
31
0.0
0
LINE
8
TOP
10
4.500000
20
1.687505
30
0.0
11
4.612500
21
1.687925
31
0.0
0
LINE
8
TOP
10
4.612500
20
1.687925
30
0.0
11
4.725000
21
1.688345
31
0.0
0
LINE
8
TOP
10
4.725000
20
1.688345
30
0.0
11
4.837500
21
1.688765
31
0.0
0
LINE
8
TOP
10
4.837500
20
1.688765
30
0.0
11
4.950000
21
1.689185
31
0.0
0
LINE
8
TOP
10
4.950000
20
1.689185
30
0.0
11
5.062500
21
1.689605
31
0.0
0
LINE
8
TOP
10
5.062500
20
1.689605
30
0.0
11
5.175000
21
1.690025
31
0.0
0
LINE
8
TOP
10
5.175000
20
1.690025
30
0.0
11
5.287500
21
1.690445
31
0.0
0
LINE
8
TOP
10
5.287500
20
1.690445
30
0.0
11
5.400000
21
1.690865
31
0.0
0
LINE
8
TOP
10
5.400000
20
1.690865
30
0.0
11
5.512500
21
1.691285
31
0.0
0
LINE
8
TOP
10
5.512500
20
1.691285
30
0.0
11
5.625000
21
1.691705
31
0.0
0
LINE
8
TOP
10
5.625000
20
1.691705
30
0.0
11
5.737500
21
1.692124
31
0.0
0
LINE
8
TOP
10
5.737500
20
1.692124
30
0.0
11
5.850000
21
1.692544
31
0.0
0
LINE
8
TOP
10
5.850000
20
1.692544
30
0.0
11
5.962500
21
1.692964
31
0.0
0
LINE
8
TOP
10
5.962500
20
1.692964
30
0.0
11
6.075000
21
1.693384
31
0.0
0
LINE
8
TOP
10
6.075000
20
1.693384
30
0.0
11
6.187500
21
1.693804
31
0.0
0
LINE
8
TOP
10
6.187500
20
1.693804
30
0.0
11
6.300000
21
1.694224
31
0.0
0
LINE
8
TOP
10
6.300000
20
1.694224
30
0.0
11
6.412500
21
1.694644
31
0.0
0
LINE
8
TOP
10
6.412500
20
1.694644
30
0.0
11
6.525000
21
1.695064
31
0.0
0
LINE
8
TOP
10
6.525000
20
1.695064
30
0.0
11
6.637500
21
1.695484
31
0.0
0
LINE
8
TOP
10
6.637500
20
1.695484
30
0.0
11
6.750000
21
1.695904
31
0.0
0
LINE
8
TOP
10
6.750000
20
1.695904
30
0.0
11
6.862500
21
1.696324
31
0.0
0
LINE
8
TOP
10
6.862500
20
1.696324
30
0.0
11
6.975000
21
1.696744
31
0.0
0
LINE
8
TOP
10
6.975000
20
1.696744
30
0.0
11
7.087500
21
1.697164
31
0.0
0
LINE
8
TOP
10
7.087500
20
1.697164
30
0.0
11
7.200000
21
1.697584
31
0.0
0
LINE
8
TOP
10
7.200000
20
1.697584
30
0.0
11
7.312500
21
1.698004
31
0.0
0
LINE
8
TOP
10
7.312500
20
1.698004
30
0.0
11
7.425000
21
1.698424
31
0.0
0
LINE
8
TOP
10
7.425000
20
1.698424
30
0.0
11
7.537500
21
1.698844
31
0.0
0
LINE
8
TOP
10
7.537500
20
1.698844
30
0.0
11
7.650000
21
1.699264
31
0.0
0
LINE
8
TOP
10
7.650000
20
1.699264
30
0.0
11
7.762500
21
1.699684
31
0.0
0
LINE
8
TOP
10
7.762500
20
1.699684
30
0.0
11
7.875000
21
1.700103
31
0.0
0
LINE
8
TOP
10
7.875000
20
1.700103
30
0.0
11
7.987500
21
1.700523
31
0.0
0
LINE
8
TOP
10
7.987500
20
1.700523
30
0.0
11
8.100000
21
1.700943
31
0.0
0
LINE
8
TOP
10
8.100000
20
1.700943
30
0.0
11
8.212500
21
1.701363
31
0.0
0
LINE
8
TOP
10
8.212500
20
1.701363
30
0.0
11
8.325000
21
1.701783
31
0.0
0
LINE
8
TOP
10
8.325000
20
1.701783
30
0.0
11
8.437500
21
1.702203
31
0.0
0
LINE
8
TOP
10
8.437500
20
1.702203
30
0.0
11
8.500000
21
1.702436
31
0.0
0
LINE
8
TOP
10
8.500000
20
1.702436
30
0.0
11
8.550000
21
1.702623
31
0.0
0
LINE
8
TOP
10
8.550000
20
1.702623
30
0.0
11
8.662500
21
1.703043
31
0.0
0
LINE
8
TOP
10
8.662500
20
1.703043
30
0.0
11
8.775000
21
1.703463
31
0.0
0
LINE
8
TOP
10
8.775000
20
1.703463
30
0.0
11
8.887500
21
1.703883
31
0.0
0
LINE
8
TOP
10
8.887500
20
1.703883
30
0.0
11
9.000000
21
1.704303
31
0.0
0
LINE
8
TOP
10
0.000000
20
1.227151
30
0.0
11
0.112500
21
1.227571
31
0.0
0
LINE
8
TOP
10
0.112500
20
1.227571
30
0.0
11
0.225000
21
1.227991
31
0.0
0
LINE
8
TOP
10
0.225000
20
1.227991
30
0.0
11
0.337500
21
1.228411
31
0.0
0
LINE
8
TOP
10
0.337500
20
1.228411
30
0.0
11
0.450000
21
1.228831
31
0.0
0
LINE
8
TOP
10
0.450000
20
1.228831
30
0.0
11
0.500000
21
1.229018
31
0.0
0
LINE
8
TOP
10
0.500000
20
1.229018
30
0.0
11
0.562500
21
1.229251
31
0.0
0
LINE
8
TOP
10
0.562500
20
1.229251
30
0.0
11
0.675000
21
1.229671
31
0.0
0
LINE
8
TOP
10
0.675000
20
1.229671
30
0.0
11
0.787500
21
1.230091
31
0.0
0
LINE
8
TOP
10
0.787500
20
1.230091
30
0.0
11
0.900000
21
1.230511
31
0.0
0
LINE
8
TOP
10
0.900000
20
1.230511
30
0.0
11
1.012500
21
1.230931
31
0.0
0
LINE
8
TOP
10
1.012500
20
1.230931
30
0.0
11
1.125000
21
1.231351
31
0.0
0
LINE
8
TOP
10
1.125000
20
1.231351
30
0.0
11
1.237500
21
1.231771
31
0.0
0
LINE
8
TOP
10
1.237500
20
1.231771
30
0.0
11
1.350000
21
1.232191
31
0.0
0
LINE
8
TOP
10
1.350000
20
1.232191
30
0.0
11
1.462500
21
1.232611
31
0.0
0
LINE
8
TOP
10
1.462500
20
1.232611
30
0.0
11
1.575000
21
1.233031
31
0.0
0
LINE
8
TOP
10
1.575000
20
1.233031
30
0.0
11
1.687500
21
1.233451
31
0.0
0
LINE
8
TOP
10
1.687500
20
1.233451
30
0.0
11
1.800000
21
1.233871
31
0.0
0
LINE
8
TOP
10
1.800000
20
1.233871
30
0.0
11
1.912500
21
1.234291
31
0.0
0
LINE
8
TOP
10
1.912500
20
1.234291
30
0.0
11
2.025000
21
1.234710
31
0.0
0
LINE
8
TOP
10
2.025000
20
1.234710
30
0.0
11
2.137500
21
1.235130
31
0.0
0
LINE
8
TOP
10
2.137500
20
1.235130
30
0.0
11
2.250000
21
1.235550
31
0.0
0
LINE
8
TOP
10
2.250000
20
1.235550
30
0.0
11
2.362500
21
1.235970
31
0.0
0
LINE
8
TOP
10
2.362500
20
1.235970
30
0.0
11
2.475000
21
1.236390
31
0.0
0
LINE
8
TOP
10
2.475000
20
1.236390
30
0.0
11
2.587500
21
1.236810
31
0.0
0
LINE
8
TOP
10
2.587500
20
1.236810
30
0.0
11
2.700000
21
1.237230
31
0.0
0
LINE
8
TOP
10
2.700000
20
1.237230
30
0.0
11
2.812500
21
1.237650
31
0.0
0
LINE
8
TOP
10
2.812500
20
1.237650
30
0.0
11
2.925000
21
1.238070
31
0.0
0
LINE
8
TOP
10
2.925000
20
1.238070
30
0.0
11
3.037500
21
1.238490
31
0.0
0
LINE
8
TOP
10
3.037500
20
1.238490
30
0.0
11
3.150000
21
1.238910
31
0.0
0
LINE
8
TOP
10
3.150000
20
1.238910
30
0.0
11
3.262500
21
1.239330
31
0.0
0
LINE
8
TOP
10
3.262500
20
1.239330
30
0.0
11
3.375000
21
1.239750
31
0.0
0
LINE
8
TOP
10
3.375000
20
1.239750
30
0.0
11
3.487500
21
1.240170
31
0.0
0
LINE
8
TOP
10
3.487500
20
1.240170
30
0.0
11
3.600000
21
1.240590
31
0.0
0
LINE
8
TOP
10
3.600000
20
1.240590
30
0.0
11
3.712500
21
1.241010
31
0.0
0
LINE
8
TOP
10
3.712500
20
1.241010
30
0.0
11
3.825000
21
1.241430
31
0.0
0
LINE
8
TOP
10
3.825000
20
1.241430
30
0.0
11
3.937500
21
1.241850
31
0.0
0
LINE
8
TOP
10
3.937500
20
1.241850
30
0.0
11
4.050000
21
1.242269
31
0.0
0
LINE
8
TOP
10
4.050000
20
1.242269
30
0.0
11
4.162500
21
1.242689
31
0.0
0
LINE
8
TOP
10
4.162500
20
1.242689
30
0.0
11
4.275000
21
1.243109
31
0.0
0
LINE
8
TOP
10
4.275000
20
1.243109
30
0.0
11
4.387500
21
1.243529
31
0.0
0
LINE
8
TOP
10
4.387500
20
1.243529
30
0.0
11
4.500000
21
1.243949
31
0.0
0
LINE
8
TOP
10
4.500000
20
1.243949
30
0.0
11
4.612500
21
1.243529
31
0.0
0
LINE
8
TOP
10
4.612500
20
1.243529
30
0.0
11
4.725000
21
1.243109
31
0.0
0
LINE
8
TOP
10
4.725000
20
1.243109
30
0.0
11
4.837500
21
1.242689
31
0.0
0
LINE
8
TOP
10
4.837500
20
1.242689
30
0.0
11
4.950000
21
1.242269
31
0.0
0
LINE
8
TOP
10
4.950000
20
1.242269
30
0.0
11
5.062500
21
1.241850
31
0.0
0
LINE
8
TOP
10
5.062500
20
1.241850
30
0.0
11
5.175000
21
1.241430
31
0.0
0
LINE
8
TOP
10
5.175000
20
1.241430
30
0.0
11
5.287500
21
1.241010
31
0.0
0
LINE
8
TOP
10
5.287500
20
1.241010
30
0.0
11
5.400000
21
1.240590
31
0.0
0
LINE
8
TOP
10
5.400000
20
1.240590
30
0.0
11
5.512500
21
1.240170
31
0.0
0
LINE
8
TOP
10
5.512500
20
1.240170
30
0.0
11
5.625000
21
1.239750
31
0.0
0
LINE
8
TOP
10
5.625000
20
1.239750
30
0.0
11
5.737500
21
1.239330
31
0.0
0
LINE
8
TOP
10
5.737500
20
1.239330
30
0.0
11
5.850000
21
1.238910
31
0.0
0
LINE
8
TOP
10
5.850000
20
1.238910
30
0.0
11
5.962500
21
1.238490
31
0.0
0
LINE
8
TOP
10
5.962500
20
1.238490
30
0.0
11
6.075000
21
1.238070
31
0.0
0
LINE
8
TOP
10
6.075000
20
1.238070
30
0.0
11
6.187500
21
1.237650
31
0.0
0
LINE
8
TOP
10
6.187500
20
1.237650
30
0.0
11
6.300000
21
1.237230
31
0.0
0
LINE
8
TOP
10
6.300000
20
1.237230
30
0.0
11
6.412500
21
1.236810
31
0.0
0
LINE
8
TOP
10
6.412500
20
1.236810
30
0.0
11
6.525000
21
1.236390
31
0.0
0
LINE
8
TOP
10
6.525000
20
1.236390
30
0.0
11
6.637500
21
1.235970
31
0.0
0
LINE
8
TOP
10
6.637500
20
1.235970
30
0.0
11
6.750000
21
1.235550
31
0.0
0
LINE
8
TOP
10
6.750000
20
1.235550
30
0.0
11
6.862500
21
1.235130
31
0.0
0
LINE
8
TOP
10
6.862500
20
1.235130
30
0.0
11
6.975000
21
1.234710
31
0.0
0
LINE
8
TOP
10
6.975000
20
1.234710
30
0.0
11
7.087500
21
1.234291
31
0.0
0
LINE
8
TOP
10
7.087500
20
1.234291
30
0.0
11
7.200000
21
1.233871
31
0.0
0
LINE
8
TOP
10
7.200000
20
1.233871
30
0.0
11
7.312500
21
1.233451
31
0.0
0
LINE
8
TOP
10
7.312500
20
1.233451
30
0.0
11
7.425000
21
1.233031
31
0.0
0
LINE
8
TOP
10
7.425000
20
1.233031
30
0.0
11
7.537500
21
1.232611
31
0.0
0
LINE
8
TOP
10
7.537500
20
1.232611
30
0.0
11
7.650000
21
1.232191
31
0.0
0
LINE
8
TOP
10
7.650000
20
1.232191
30
0.0
11
7.762500
21
1.231771
31
0.0
0
LINE
8
TOP
10
7.762500
20
1.231771
30
0.0
11
7.875000
21
1.231351
31
0.0
0
LINE
8
TOP
10
7.875000
20
1.231351
30
0.0
11
7.987500
21
1.230931
31
0.0
0
LINE
8
TOP
10
7.987500
20
1.230931
30
0.0
11
8.100000
21
1.230511
31
0.0
0
LINE
8
TOP
10
8.100000
20
1.230511
30
0.0
11
8.212500
21
1.230091
31
0.0
0
LINE
8
TOP
10
8.212500
20
1.230091
30
0.0
11
8.325000
21
1.229671
31
0.0
0
LINE
8
TOP
10
8.325000
20
1.229671
30
0.0
11
8.437500
21
1.229251
31
0.0
0
LINE
8
TOP
10
8.437500
20
1.229251
30
0.0
11
8.500000
21
1.229018
31
0.0
0
LINE
8
TOP
10
8.500000
20
1.229018
30
0.0
11
8.550000
21
1.228831
31
0.0
0
LINE
8
TOP
10
8.550000
20
1.228831
30
0.0
11
8.662500
21
1.228411
31
0.0
0
LINE
8
TOP
10
8.662500
20
1.228411
30
0.0
11
8.775000
21
1.227991
31
0.0
0
LINE
8
TOP
10
8.775000
20
1.227991
30
0.0
11
8.887500
21
1.227571
31
0.0
0
LINE
8
TOP
10
8.887500
20
1.227571
30
0.0
11
9.000000
21
1.227151
31
0.0
0
LINE
8
TOP
10
0.000000
20
1.704303
30
0.0
11
0.000000
21
1.227151
31
0.0
0
LINE
8
TOP
10
9.000000
20
1.704303
30
0.0
11
9.000000
21
1.227151
31
0.0
0
LINE
8
SECTION
10
10.278222
20
-0.220855
30
0.0
11
10.721778
21
-0.220855
31
0.0
0
LINE
8
SECTION
10
10.721778
20
-0.220855
30
0.0
11
10.721778
21
0.220855
31
0.0
0
LINE
8
SECTION
10
10.721778
20
0.220855
30
0.0
11
10.278222
21
0.220855
31
0.0
0
LINE
8
SECTION
10
10.278222
20
0.220855
30
0.0
11
10.278222
21
-0.220855
31
0.0
0
LINE
8
SECTION
10
10.333209
20
-0.165869
30
0.0
11
10.666791
21
-0.165869
31
0.0
0
LINE
8
SECTION
10
10.666791
20
-0.165869
30
0.0
11
10.666791
21
0.165869
31
0.0
0
LINE
8
SECTION
10
10.666791
20
0.165869
30
0.0
11
10.333209
21
0.165869
31
0.0
0
LINE
8
SECTION
10
10.333209
20
0.165869
30
0.0
11
10.333209
21
-0.165869
31
0.0
0
LINE
8
SECTION
10
10.333209
20
0.000000
30
0.0
11
10.388195
21
0.000000
31
0.0
0
LINE
8
SECTION
10
10.388195
20
0.000000
30
0.0
11
10.388195
21
0.165869
31
0.0
0
LINE
8
SECTION
10
10.388195
20
0.165869
30
0.0
11
10.333209
21
0.165869
31
0.0
0
LINE
8
SECTION
10
10.333209
20
0.165869
30
0.0
11
10.333209
21
0.000000
31
0.0
0
LINE
8
SECTION
10
10.333209
20
-0.165869
30
0.0
11
10.388195
21
-0.165869
31
0.0
0
LINE
8
SECTION
10
10.388195
20
-0.165869
30
0.0
11
10.388195
21
0.000000
31
0.0
0
LINE
8
SECTION
10
10.388195
20
0.000000
30
0.0
11
10.333209
21
0.000000
31
0.0
0
LINE
8
SECTION
10
10.333209
20
0.000000
30
0.0
11
10.333209
21
-0.165869
31
0.0
0
LINE
8
SECTION
10
10.611805
20
0.000000
30
0.0
11
10.666791
21
0.000000
31
0.0
0
LINE
8
SECTION
10
10.666791
20
0.000000
30
0.0
11
10.666791
21
0.165869
31
0.0
0
LINE
8
SECTION
10
10.666791
20
0.165869
30
0.0
11
10.611805
21
0.165869
31
0.0
0
LINE
8
SECTION
10
10.611805
20
0.165869
30
0.0
11
10.611805
21
0.000000
31
0.0
0
LINE
8
SECTION
10
10.611805
20
-0.165869
30
0.0
11
10.666791
21
-0.165869
31
0.0
0
LINE
8
SECTION
10
10.666791
20
-0.165869
30
0.0
11
10.666791
21
0.000000
31
0.0
0
LINE
8
SECTION
10
10.666791
20
0.000000
30
0.0
11
10.611805
21
0.000000
31
0.0
0
LINE
8
SECTION
10
10.611805
20
0.000000
30
0.0
11
10.611805
21
-0.165869
31
0.0
0
ENDSEC
0
EOF
