0
SECTION
2
HEADER
9
$INSUNITS
70
1
0
ENDSEC
0
SECTION
2
ENTITIES
0
LINE
8
FRONT
10
0.000000
20
0.188100
30
0.0
11
0.112500
21
0.187739
31
0.0
0
LINE
8
FRONT
10
0.112500
20
0.187739
30
0.0
11
0.225000
21
0.187378
31
0.0
0
LINE
8
FRONT
10
0.225000
20
0.187378
30
0.0
11
0.337500
21
0.187017
31
0.0
0
LINE
8
FRONT
10
0.337500
20
0.187017
30
0.0
11
0.450000
21
0.186656
31
0.0
0
LINE
8
FRONT
10
0.450000
20
0.186656
30
0.0
11
0.500000
21
0.186496
31
0.0
0
LINE
8
FRONT
10
0.500000
20
0.186496
30
0.0
11
0.562500
21
0.186295
31
0.0
0
LINE
8
FRONT
10
0.562500
20
0.186295
30
0.0
11
0.675000
21
0.185934
31
0.0
0
LINE
8
FRONT
10
0.675000
20
0.185934
30
0.0
11
0.787500
21
0.185573
31
0.0
0
LINE
8
FRONT
10
0.787500
20
0.185573
30
0.0
11
0.900000
21
0.185212
31
0.0
0
LINE
8
FRONT
10
0.900000
20
0.185212
30
0.0
11
1.012500
21
0.184852
31
0.0
0
LINE
8
FRONT
10
1.012500
20
0.184852
30
0.0
11
1.125000
21
0.184491
31
0.0
0
LINE
8
FRONT
10
1.125000
20
0.184491
30
0.0
11
1.237500
21
0.184130
31
0.0
0
LINE
8
FRONT
10
1.237500
20
0.184130
30
0.0
11
1.350000
21
0.183769
31
0.0
0
LINE
8
FRONT
10
1.350000
20
0.183769
30
0.0
11
1.462500
21
0.183408
31
0.0
0
LINE
8
FRONT
10
1.462500
20
0.183408
30
0.0
11
1.575000
21
0.183047
31
0.0
0
LINE
8
FRONT
10
1.575000
20
0.183047
30
0.0
11
1.687500
21
0.182686
31
0.0
0
LINE
8
FRONT
10
1.687500
20
0.182686
30
0.0
11
1.800000
21
0.182325
31
0.0
0
LINE
8
FRONT
10
1.800000
20
0.182325
30
0.0
11
1.912500
21
0.181965
31
0.0
0
LINE
8
FRONT
10
1.912500
20
0.181965
30
0.0
11
2.025000
21
0.181604
31
0.0
0
LINE
8
FRONT
10
2.025000
20
0.181604
30
0.0
11
2.137500
21
0.181243
31
0.0
0
LINE
8
FRONT
10
2.137500
20
0.181243
30
0.0
11
2.250000
21
0.180882
31
0.0
0
LINE
8
FRONT
10
2.250000
20
0.180882
30
0.0
11
2.362500
21
0.180521
31
0.0
0
LINE
8
FRONT
10
2.362500
20
0.180521
30
0.0
11
2.475000
21
0.180160
31
0.0
0
LINE
8
FRONT
10
2.475000
20
0.180160
30
0.0
11
2.587500
21
0.179799
31
0.0
0
LINE
8
FRONT
10
2.587500
20
0.179799
30
0.0
11
2.700000
21
0.179438
31
0.0
0
LINE
8
FRONT
10
2.700000
20
0.179438
30
0.0
11
2.812500
21
0.179077
31
0.0
0
LINE
8
FRONT
10
2.812500
20
0.179077
30
0.0
11
2.925000
21
0.178717
31
0.0
0
LINE
8
FRONT
10
2.925000
20
0.178717
30
0.0
11
3.037500
21
0.178356
31
0.0
0
LINE
8
FRONT
10
3.037500
20
0.178356
30
0.0
11
3.150000
21
0.177995
31
0.0
0
LINE
8
FRONT
10
3.150000
20
0.177995
30
0.0
11
3.262500
21
0.177634
31
0.0
0
LINE
8
FRONT
10
3.262500
20
0.177634
30
0.0
11
3.375000
21
0.177273
31
0.0
0
LINE
8
FRONT
10
3.375000
20
0.177273
30
0.0
11
3.487500
21
0.176912
31
0.0
0
LINE
8
FRONT
10
3.487500
20
0.176912
30
0.0
11
3.600000
21
0.176551
31
0.0
0
LINE
8
FRONT
10
3.600000
20
0.176551
30
0.0
11
3.712500
21
0.176190
31
0.0
0
LINE
8
FRONT
10
3.712500
20
0.176190
30
0.0
11
3.825000
21
0.175829
31
0.0
0
LINE
8
FRONT
10
3.825000
20
0.175829
30
0.0
11
3.937500
21
0.175469
31
0.0
0
LINE
8
FRONT
10
3.937500
20
0.175469
30
0.0
11
4.050000
21
0.175108
31
0.0
0
LINE
8
FRONT
10
4.050000
20
0.175108
30
0.0
11
4.162500
21
0.174747
31
0.0
0
LINE
8
FRONT
10
4.162500
20
0.174747
30
0.0
11
4.275000
21
0.174386
31
0.0
0
LINE
8
FRONT
10
4.275000
20
0.174386
30
0.0
11
4.387500
21
0.174025
31
0.0
0
LINE
8
FRONT
10
4.387500
20
0.174025
30
0.0
11
4.500000
21
0.173664
31
0.0
0
LINE
8
FRONT
10
4.500000
20
0.173664
30
0.0
11
4.612500
21
0.174025
31
0.0
0
LINE
8
FRONT
10
4.612500
20
0.174025
30
0.0
11
4.725000
21
0.174386
31
0.0
0
LINE
8
FRONT
10
4.725000
20
0.174386
30
0.0
11
4.837500
21
0.174747
31
0.0
0
LINE
8
FRONT
10
4.837500
20
0.174747
30
0.0
11
4.950000
21
0.175108
31
0.0
0
LINE
8
FRONT
10
4.950000
20
0.175108
30
0.0
11
5.062500
21
0.175469
31
0.0
0
LINE
8
FRONT
10
5.062500
20
0.175469
30
0.0
11
5.175000
21
0.175829
31
0.0
0
LINE
8
FRONT
10
5.175000
20
0.175829
30
0.0
11
5.287500
21
0.176190
31
0.0
0
LINE
8
FRONT
10
5.287500
20
0.176190
30
0.0
11
5.400000
21
0.176551
31
0.0
0
LINE
8
FRONT
10
5.400000
20
0.176551
30
0.0
11
5.512500
21
0.176912
31
0.0
0
LINE
8
FRONT
10
5.512500
20
0.176912
30
0.0
11
5.625000
21
0.177273
31
0.0
0
LINE
8
FRONT
10
5.625000
20
0.177273
30
0.0
11
5.737500
21
0.177634
31
0.0
0
LINE
8
FRONT
10
5.737500
20
0.177634
30
0.0
11
5.850000
21
0.177995
31
0.0
0
LINE
8
FRONT
10
5.850000
20
0.177995
30
0.0
11
5.962500
21
0.178356
31
0.0
0
LINE
8
FRONT
10
5.962500
20
0.178356
30
0.0
11
6.075000
21
0.178717
31
0.0
0
LINE
8
FRONT
10
6.075000
20
0.178717
30
0.0
11
6.187500
21
0.179077
31
0.0
0
LINE
8
FRONT
10
6.187500
20
0.179077
30
0.0
11
6.300000
21
0.179438
31
0.0
0
LINE
8
FRONT
10
6.300000
20
0.179438
30
0.0
11
6.412500
21
0.179799
31
0.0
0
LINE
8
FRONT
10
6.412500
20
0.179799
30
0.0
11
6.525000
21
0.180160
31
0.0
0
LINE
8
FRONT
10
6.525000
20
0.180160
30
0.0
11
6.637500
21
0.180521
31
0.0
0
LINE
8
FRONT
10
6.637500
20
0.180521
30
0.0
11
6.750000
21
0.180882
31
0.0
0
LINE
8
FRONT
10
6.750000
20
0.180882
30
0.0
11
6.862500
21
0.181243
31
0.0
0
LINE
8
FRONT
10
6.862500
20
0.181243
30
0.0
11
6.975000
21
0.181604
31
0.0
0
LINE
8
FRONT
10
6.975000
20
0.181604
30
0.0
11
7.087500
21
0.181965
31
0.0
0
LINE
8
FRONT
10
7.087500
20
0.181965
30
0.0
11
7.200000
21
0.182325
31
0.0
0
LINE
8
FRONT
10
7.200000
20
0.182325
30
0.0
11
7.312500
21
0.182686
31
0.0
0
LINE
8
FRONT
10
7.312500
20
0.182686
30
0.0
11
7.425000
21
0.183047
31
0.0
0
LINE
8
FRONT
10
7.425000
20
0.183047
30
0.0
11
7.537500
21
0.183408
31
0.0
0
LINE
8
FRONT
10
7.537500
20
0.183408
30
0.0
11
7.650000
21
0.183769
31
0.0
0
LINE
8
FRONT
10
7.650000
20
0.183769
30
0.0
11
7.762500
21
0.184130
31
0.0
0
LINE
8
FRONT
10
7.762500
20
0.184130
30
0.0
11
7.875000
21
0.184491
31
0.0
0
LINE
8
FRONT
10
7.875000
20
0.184491
30
0.0
11
7.987500
21
0.184852
31
0.0
0
LINE
8
FRONT
10
7.987500
20
0.184852
30
0.0
11
8.100000
21
0.185212
31
0.0
0
LINE
8
FRONT
10
8.100000
20
0.185212
30
0.0
11
8.212500
21
0.185573
31
0.0
0
LINE
8
FRONT
10
8.212500
20
0.185573
30
0.0
11
8.325000
21
0.185934
31
0.0
0
LINE
8
FRONT
10
8.325000
20
0.185934
30
0.0
11
8.437500
21
0.186295
31
0.0
0
LINE
8
FRONT
10
8.437500
20
0.186295
30
0.0
11
8.500000
21
0.186496
31
0.0
0
LINE
8
FRONT
10
8.500000
20
0.186496
30
0.0
11
8.550000
21
0.186656
31
0.0
0
LINE
8
FRONT
10
8.550000
20
0.186656
30
0.0
11
8.662500
21
0.187017
31
0.0
0
LINE
8
FRONT
10
8.662500
20
0.187017
30
0.0
11
8.775000
21
0.187378
31
0.0
0
LINE
8
FRONT
10
8.775000
20
0.187378
30
0.0
11
8.887500
21
0.187739
31
0.0
0
LINE
8
FRONT
10
8.887500
20
0.187739
30
0.0
11
9.000000
21
0.188100
31
0.0
0
LINE
8
FRONT
10
0.000000
20
-0.188100
30
0.0
11
0.112500
21
-0.187739
31
0.0
0
LINE
8
FRONT
10
0.112500
20
-0.187739
30
0.0
11
0.225000
21
-0.187378
31
0.0
0
LINE
8
FRONT
10
0.225000
20
-0.187378
30
0.0
11
0.337500
21
-0.187017
31
0.0
0
LINE
8
FRONT
10
0.337500
20
-0.187017
30
0.0
11
0.450000
21
-0.186656
31
0.0
0
LINE
8
FRONT
10
0.450000
20
-0.186656
30
0.0
11
0.500000
21
-0.186496
31
0.0
0
LINE
8
FRONT
10
0.500000
20
-0.186496
30
0.0
11
0.562500
21
-0.186295
31
0.0
0
LINE
8
FRONT
10
0.562500
20
-0.186295
30
0.0
11
0.675000
21
-0.185934
31
0.0
0
LINE
8
FRONT
10
0.675000
20
-0.185934
30
0.0
11
0.787500
21
-0.185573
31
0.0
0
LINE
8
FRONT
10
0.787500
20
-0.185573
30
0.0
11
0.900000
21
-0.185212
31
0.0
0
LINE
8
FRONT
10
0.900000
20
-0.185212
30
0.0
11
1.012500
21
-0.184852
31
0.0
0
LINE
8
FRONT
10
1.012500
20
-0.184852
30
0.0
11
1.125000
21
-0.184491
31
0.0
0
LINE
8
FRONT
10
1.125000
20
-0.184491
30
0.0
11
1.237500
21
-0.184130
31
0.0
0
LINE
8
FRONT
10
1.237500
20
-0.184130
30
0.0
11
1.350000
21
-0.183769
31
0.0
0
LINE
8
FRONT
10
1.350000
20
-0.183769
30
0.0
11
1.462500
21
-0.183408
31
0.0
0
LINE
8
FRONT
10
1.462500
20
-0.183408
30
0.0
11
1.575000
21
-0.183047
31
0.0
0
LINE
8
FRONT
10
1.575000
20
-0.183047
30
0.0
11
1.687500
21
-0.182686
31
0.0
0
LINE
8
FRONT
10
1.687500
20
-0.182686
30
0.0
11
1.800000
21
-0.182325
31
0.0
0
LINE
8
FRONT
10
1.800000
20
-0.182325
30
0.0
11
1.912500
21
-0.181965
31
0.0
0
LINE
8
FRONT
10
1.912500
20
-0.181965
30
0.0
11
2.025000
21
-0.181604
31
0.0
0
LINE
8
FRONT
10
2.025000
20
-0.181604
30
0.0
11
2.137500
21
-0.181243
31
0.0
0
LINE
8
FRONT
10
2.137500
20
-0.181243
30
0.0
11
2.250000
21
-0.180882
31
0.0
0
LINE
8
FRONT
10
2.250000
20
-0.180882
30
0.0
11
2.362500
21
-0.180521
31
0.0
0
LINE
8
FRONT
10
2.362500
20
-0.180521
30
0.0
11
2.475000
21
-0.180160
31
0.0
0
LINE
8
FRONT
10
2.475000
20
-0.180160
30
0.0
11
2.587500
21
-0.179799
31
0.0
0
LINE
8
FRONT
10
2.587500
20
-0.179799
30
0.0
11
2.700000
21
-0.179438
31
0.0
0
LINE
8
FRONT
10
2.700000
20
-0.179438
30
0.0
11
2.812500
21
-0.179077
31
0.0
0
LINE
8
FRONT
10
2.812500
20
-0.179077
30
0.0
11
2.925000
21
-0.178717
31
0.0
0
LINE
8
FRONT
10
2.925000
20
-0.178717
30
0.0
11
3.037500
21
-0.178356
31
0.0
0
LINE
8
FRONT
10
3.037500
20
-0.178356
30
0.0
11
3.150000
21
-0.177995
31
0.0
0
LINE
8
FRONT
10
3.150000
20
-0.177995
30
0.0
11
3.262500
21
-0.177634
31
0.0
0
LINE
8
FRONT
10
3.262500
20
-0.177634
30
0.0
11
3.375000
21
-0.177273
31
0.0
0
LINE
8
FRONT
10
3.375000
20
-0.177273
30
0.0
11
3.487500
21
-0.176912
31
0.0
0
LINE
8
FRONT
10
3.487500
20
-0.176912
30
0.0
11
3.600000
21
-0.176551
31
0.0
0
LINE
8
FRONT
10
3.600000
20
-0.176551
30
0.0
11
3.712500
21
-0.176190
31
0.0
0
LINE
8
FRONT
10
3.712500
20
-0.176190
30
0.0
11
3.825000
21
-0.175829
31
0.0
0
LINE
8
FRONT
10
3.825000
20
-0.175829
30
0.0
11
3.937500
21
-0.175469
31
0.0
0
LINE
8
FRONT
10
3.937500
20
-0.175469
30
0.0
11
4.050000
21
-0.175108
31
0.0
0
LINE
8
FRONT
10
4.050000
20
-0.175108
30
0.0
11
4.162500
21
-0.174747
31
0.0
0
LINE
8
FRONT
10
4.162500
20
-0.174747
30
0.0
11
4.275000
21
-0.174386
31
0.0
0
LINE
8
FRONT
10
4.275000
20
-0.174386
30
0.0
11
4.387500
21
-0.174025
31
0.0
0
LINE
8
FRONT
10
4.387500
20
-0.174025
30
0.0
11
4.500000
21
-0.173664
31
0.0
0
LINE
8
FRONT
10
4.500000
20
-0.173664
30
0.0
11
4.612500
21
-0.174025
31
0.0
0
LINE
8
FRONT
10
4.612500
20
-0.174025
30
0.0
11
4.725000
21
-0.174386
31
0.0
0
LINE
8
FRONT
10
4.725000
20
-0.174386
30
0.0
11
4.837500
21
-0.174747
31
0.0
0
LINE
8
FRONT
10
4.837500
20
-0.174747
30
0.0
11
4.950000
21
-0.175108
31
0.0
0
LINE
8
FRONT
10
4.950000
20
-0.175108
30
0.0
11
5.062500
21
-0.175469
31
0.0
0
LINE
8
FRONT
10
5.062500
20
-0.175469
30
0.0
11
5.175000
21
-0.175829
31
0.0
0
LINE
8
FRONT
10
5.175000
20
-0.175829
30
0.0
11
5.287500
21
-0.176190
31
0.0
0
LINE
8
FRONT
10
5.287500
20
-0.176190
30
0.0
11
5.400000
21
-0.176551
31
0.0
0
LINE
8
FRONT
10
5.400000
20
-0.176551
30
0.0
11
5.512500
21
-0.176912
31
0.0
0
LINE
8
FRONT
10
5.512500
20
-0.176912
30
0.0
11
5.625000
21
-0.177273
31
0.0
0
LINE
8
FRONT
10
5.625000
20
-0.177273
30
0.0
11
5.737500
21
-0.177634
31
0.0
0
LINE
8
FRONT
10
5.737500
20
-0.177634
30
0.0
11
5.850000
21
-0.177995
31
0.0
0
LINE
8
FRONT
10
5.850000
20
-0.177995
30
0.0
11
5.962500
21
-0.178356
31
0.0
0
LINE
8
FRONT
10
5.962500
20
-0.178356
30
0.0
11
6.075000
21
-0.178717
31
0.0
0
LINE
8
FRONT
10
6.075000
20
-0.178717
30
0.0
11
6.187500
21
-0.179077
31
0.0
0
LINE
8
FRONT
10
6.187500
20
-0.179077
30
0.0
11
6.300000
21
-0.179438
31
0.0
0
LINE
8
FRONT
10
6.300000
20
-0.179438
30
0.0
11
6.412500
21
-0.179799
31
0.0
0
LINE
8
FRONT
10
6.412500
20
-0.179799
30
0.0
11
6.525000
21
-0.180160
31
0.0
0
LINE
8
FRONT
10
6.525000
20
-0.180160
30
0.0
11
6.637500
21
-0.180521
31
0.0
0
LINE
8
FRONT
10
6.637500
20
-0.180521
30
0.0
11
6.750000
21
-0.180882
31
0.0
0
LINE
8
FRONT
10
6.750000
20
-0.180882
30
0.0
11
6.862500
21
-0.181243
31
0.0
0
LINE
8
FRONT
10
6.862500
20
-0.181243
30
0.0
11
6.975000
21
-0.181604
31
0.0
0
LINE
8
FRONT
10
6.975000
20
-0.181604
30
0.0
11
7.087500
21
-0.181965
31
0.0
0
LINE
8
FRONT
10
7.087500
20
-0.181965
30
0.0
11
7.200000
21
-0.182325
31
0.0
0
LINE
8
FRONT
10
7.200000
20
-0.182325
30
0.0
11
7.312500
21
-0.182686
31
0.0
0
LINE
8
FRONT
10
7.312500
20
-0.182686
30
0.0
11
7.425000
21
-0.183047
31
0.0
0
LINE
8
FRONT
10
7.425000
20
-0.183047
30
0.0
11
7.537500
21
-0.183408
31
0.0
0
LINE
8
FRONT
10
7.537500
20
-0.183408
30
0.0
11
7.650000
21
-0.183769
31
0.0
0
LINE
8
FRONT
10
7.650000
20
-0.183769
30
0.0
11
7.762500
21
-0.184130
31
0.0
0
LINE
8
FRONT
10
7.762500
20
-0.184130
30
0.0
11
7.875000
21
-0.184491
31
0.0
0
LINE
8
FRONT
10
7.875000
20
-0.184491
30
0.0
11
7.987500
21
-0.184852
31
0.0
0
LINE
8
FRONT
10
7.987500
20
-0.184852
30
0.0
11
8.100000
21
-0.185212
31
0.0
0
LINE
8
FRONT
10
8.100000
20
-0.185212
30
0.0
11
8.212500
21
-0.185573
31
0.0
0
LINE
8
FRONT
10
8.212500
20
-0.185573
30
0.0
11
8.325000
21
-0.185934
31
0.0
0
LINE
8
FRONT
10
8.325000
20
-0.185934
30
0.0
11
8.437500
21
-0.186295
31
0.0
0
LINE
8
FRONT
10
8.437500
20
-0.186295
30
0.0
11
8.500000
21
-0.186496
31
0.0
0
LINE
8
FRONT
10
8.500000
20
-0.186496
30
0.0
11
8.550000
21
-0.186656
31
0.0
0
LINE
8
FRONT
10
8.550000
20
-0.186656
30
0.0
11
8.662500
21
-0.187017
31
0.0
0
LINE
8
FRONT
10
8.662500
20
-0.187017
30
0.0
11
8.775000
21
-0.187378
31
0.0
0
LINE
8
FRONT
10
8.775000
20
-0.187378
30
0.0
11
8.887500
21
-0.187739
31
0.0
0
LINE
8
FRONT
10
8.887500
20
-0.187739
30
0.0
11
9.000000
21
-0.188100
31
0.0
0
LINE
8
FRONT
10
0.000000
20
0.188100
30
0.0
11
0.000000
21
-0.188100
31
0.0
0
LINE
8
FRONT
10
9.000000
20
0.188100
30
0.0
11
9.000000
21
-0.188100
31
0.0
0
LINE
8
TOP
10
0.000000
20
1.845592
30
0.0
11
0.112500
21
1.848028
31
0.0
0
LINE
8
TOP
10
0.112500
20
1.848028
30
0.0
11
0.225000
21
1.850464
31
0.0
0
LINE
8
TOP
10
0.225000
20
1.850464
30
0.0
11
0.337500
21
1.852899
31
0.0
0
LINE
8
TOP
10
0.337500
20
1.852899
30
0.0
11
0.450000
21
1.855335
31
0.0
0
LINE
8
TOP
10
0.450000
20
1.855335
30
0.0
11
0.500000
21
1.856418
31
0.0
0
LINE
8
TOP
10
0.500000
20
1.856418
30
0.0
11
0.562500
21
1.857771
31
0.0
0
LINE
8
TOP
10
0.562500
20
1.857771
30
0.0
11
0.675000
21
1.860207
31
0.0
0
LINE
8
TOP
10
0.675000
20
1.860207
30
0.0
11
0.787500
21
1.862643
31
0.0
0
LINE
8
TOP
10
0.787500
20
1.862643
30
0.0
11
0.900000
21
1.865078
31
0.0
0
LINE
8
TOP
10
0.900000
20
1.865078
30
0.0
11
1.012500
21
1.867514
31
0.0
0
LINE
8
TOP
10
1.012500
20
1.867514
30
0.0
11
1.125000
21
1.869950
31
0.0
0
LINE
8
TOP
10
1.125000
20
1.869950
30
0.0
11
1.237500
21
1.872386
31
0.0
0
LINE
8
TOP
10
1.237500
20
1.872386
30
0.0
11
1.350000
21
1.874822
31
0.0
0
LINE
8
TOP
10
1.350000
20
1.874822
30
0.0
11
1.462500
21
1.877257
31
0.0
0
LINE
8
TOP
10
1.462500
20
1.877257
30
0.0
11
1.575000
21
1.879693
31
0.0
0
LINE
8
TOP
10
1.575000
20
1.879693
30
0.0
11
1.687500
21
1.882129
31
0.0
0
LINE
8
TOP
10
1.687500
20
1.882129
30
0.0
11
1.800000
21
1.884565
31
0.0
0
LINE
8
TOP
10
1.800000
20
1.884565
30
0.0
11
1.912500
21
1.887001
31
0.0
0
LINE
8
TOP
10
1.912500
20
1.887001
30
0.0
11
2.025000
21
1.889436
31
0.0
0
LINE
8
TOP
10
2.025000
20
1.889436
30
0.0
11
2.137500
21
1.891872
31
0.0
0
LINE
8
TOP
10
2.137500
20
1.891872
30
0.0
11
2.250000
21
1.894308
31
0.0
0
LINE
8
TOP
10
2.250000
20
1.894308
30
0.0
11
2.362500
21
1.896744
31
0.0
0
LINE
8
TOP
10
2.362500
20
1.896744
30
0.0
11
2.475000
21
1.899179
31
0.0
0
LINE
8
TOP
10
2.475000
20
1.899179
30
0.0
11
2.587500
21
1.901615
31
0.0
0
LINE
8
TOP
10
2.587500
20
1.901615
30
0.0
11
2.700000
21
1.904051
31
0.0
0
LINE
8
TOP
10
2.700000
20
1.904051
30
0.0
11
2.812500
21
1.906487
31
0.0
0
LINE
8
TOP
10
2.812500
20
1.906487
30
0.0
11
2.925000
21
1.908923
31
0.0
0
LINE
8
TOP
10
2.925000
20
1.908923
30
0.0
11
3.037500
21
1.911358
31
0.0
0
LINE
8
TOP
10
3.037500
20
1.911358
30
0.0
11
3.150000
21
1.913794
31
0.0
0
LINE
8
TOP
10
3.150000
20
1.913794
30
0.0
11
3.262500
21
1.916230
31
0.0
0
LINE
8
TOP
10
3.262500
20
1.916230
30
0.0
11
3.375000
21
1.918666
31
0.0
0
LINE
8
TOP
10
3.375000
20
1.918666
30
0.0
11
3.487500
21
1.921102
31
0.0
0
LINE
8
TOP
10
3.487500
20
1.921102
30
0.0
11
3.600000
21
1.923537
31
0.0
0
LINE
8
TOP
10
3.600000
20
1.923537
30
0.0
11
3.712500
21
1.925973
31
0.0
0
LINE
8
TOP
10
3.712500
20
1.925973
30
0.0
11
3.825000
21
1.928409
31
0.0
0
LINE
8
TOP
10
3.825000
20
1.928409
30
0.0
11
3.937500
21
1.930845
31
0.0
0
LINE
8
TOP
10
3.937500
20
1.930845
30
0.0
11
4.050000
21
1.933281
31
0.0
0
LINE
8
TOP
10
4.050000
20
1.933281
30
0.0
11
4.162500
21
1.935716
31
0.0
0
LINE
8
TOP
10
4.162500
20
1.935716
30
0.0
11
4.275000
21
1.938152
31
0.0
0
LINE
8
TOP
10
4.275000
20
1.938152
30
0.0
11
4.387500
21
1.940588
31
0.0
0
LINE
8
TOP
10
4.387500
20
1.940588
30
0.0
11
4.500000
21
1.943024
31
0.0
0
LINE
8
TOP
10
4.500000
20
1.943024
30
0.0
11
4.612500
21
1.940588
31
0.0
0
LINE
8
TOP
10
4.612500
20
1.940588
30
0.0
11
4.725000
21
1.938152
31
0.0
0
LINE
8
TOP
10
4.725000
20
1.938152
30
0.0
11
4.837500
21
1.935716
31
0.0
0
LINE
8
TOP
10
4.837500
20
1.935716
30
0.0
11
4.950000
21
1.933281
31
0.0
0
LINE
8
TOP
10
4.950000
20
1.933281
30
0.0
11
5.062500
21
1.930845
31
0.0
0
LINE
8
TOP
10
5.062500
20
1.930845
30
0.0
11
5.175000
21
1.928409
31
0.0
0
LINE
8
TOP
10
5.175000
20
1.928409
30
0.0
11
5.287500
21
1.925973
31
0.0
0
LINE
8
TOP
10
5.287500
20
1.925973
30
0.0
11
5.400000
21
1.923537
31
0.0
0
LINE
8
TOP
10
5.400000
20
1.923537
30
0.0
11
5.512500
21
1.921102
31
0.0
0
LINE
8
TOP
10
5.512500
20
1.921102
30
0.0
11
5.625000
21
1.918666
31
0.0
0
LINE
8
TOP
10
5.625000
20
1.918666
30
0.0
11
5.737500
21
1.916230
31
0.0
0
LINE
8
TOP
10
5.737500
20
1.916230
30
0.0
11
5.850000
21
1.913794
31
0.0
0
LINE
8
TOP
10
5.850000
20
1.913794
30
0.0
11
5.962500
21
1.911358
31
0.0
0
LINE
8
TOP
10
5.962500
20
1.911358
30
0.0
11
6.075000
21
1.908923
31
0.0
0
LINE
8
TOP
10
6.075000
20
1.908923
30
0.0
11
6.187500
21
1.906487
31
0.0
0
LINE
8
TOP
10
6.187500
20
1.906487
30
0.0
11
6.300000
21
1.904051
31
0.0
0
LINE
8
TOP
10
6.300000
20
1.904051
30
0.0
11
6.412500
21
1.901615
31
0.0
0
LINE
8
TOP
10
6.412500
20
1.901615
30
0.0
11
6.525000
21
1.899179
31
0.0
0
LINE
8
TOP
10
6.525000
20
1.899179
30
0.0
11
6.637500
21
1.896744
31
0.0
0
LINE
8
TOP
10
6.637500
20
1.896744
30
0.0
11
6.750000
21
1.894308
31
0.0
0
LINE
8
TOP
10
6.750000
20
1.894308
30
0.0
11
6.862500
21
1.891872
31
0.0
0
LINE
8
TOP
10
6.862500
20
1.891872
30
0.0
11
6.975000
21
1.889436
31
0.0
0
LINE
8
TOP
10
6.975000
20
1.889436
30
0.0
11
7.087500
21
1.887001
31
0.0
0
LINE
8
TOP
10
7.087500
20
1.887001
30
0.0
11
7.200000
21
1.884565
31
0.0
0
LINE
8
TOP
10
7.200000
20
1.884565
30
0.0
11
7.312500
21
1.882129
31
0.0
0
LINE
8
TOP
10
7.312500
20
1.882129
30
0.0
11
7.425000
21
1.879693
31
0.0
0
LINE
8
TOP
10
7.425000
20
1.879693
30
0.0
11
7.537500
21
1.877257
31
0.0
0
LINE
8
TOP
10
7.537500
20
1.877257
30
0.0
11
7.650000
21
1.874822
31
0.0
0
LINE
8
TOP
10
7.650000
20
1.874822
30
0.0
11
7.762500
21
1.872386
31
0.0
0
LINE
8
TOP
10
7.762500
20
1.872386
30
0.0
11
7.875000
21
1.869950
31
0.0
0
LINE
8
TOP
10
7.875000
20
1.869950
30
0.0
11
7.987500
21
1.867514
31
0.0
0
LINE
8
TOP
10
7.987500
20
1.867514
30
0.0
11
8.100000
21
1.865078
31
0.0
0
LINE
8
TOP
10
8.100000
20
1.865078
30
0.0
11
8.212500
21
1.862643
31
0.0
0
LINE
8
TOP
10
8.212500
20
1.862643
30
0.0
11
8.325000
21
1.860207
31
0.0
0
LINE
8
TOP
10
8.325000
20
1.860207
30
0.0
11
8.437500
21
1.857771
31
0.0
0
LINE
8
TOP
10
8.437500
20
1.857771
30
0.0
11
8.500000
21
1.856418
31
0.0
0
LINE
8
TOP
10
8.500000
20
1.856418
30
0.0
11
8.550000
21
1.855335
31
0.0
0
LINE
8
TOP
10
8.550000
20
1.855335
30
0.0
11
8.662500
21
1.852899
31
0.0
0
LINE
8
TOP
10
8.662500
20
1.852899
30
0.0
11
8.775000
21
1.850464
31
0.0
0
LINE
8
TOP
10
8.775000
20
1.850464
30
0.0
11
8.887500
21
1.848028
31
0.0
0
LINE
8
TOP
10
8.887500
20
1.848028
30
0.0
11
9.000000
21
1.845592
31
0.0
0
LINE
8
TOP
10
0.000000
20
1.443943
30
0.0
11
0.112500
21
1.441508
31
0.0
0
LINE
8
TOP
10
0.112500
20
1.441508
30
0.0
11
0.225000
21
1.439072
31
0.0
0
LINE
8
TOP
10
0.225000
20
1.439072
30
0.0
11
0.337500
21
1.436636
31
0.0
0
LINE
8
TOP
10
0.337500
20
1.436636
30
0.0
11
0.450000
21
1.434200
31
0.0
0
LINE
8
TOP
10
0.450000
20
1.434200
30
0.0
11
0.500000
21
1.433118
31
0.0
0
LINE
8
TOP
10
0.500000
20
1.433118
30
0.0
11
0.562500
21
1.431764
31
0.0
0
LINE
8
TOP
10
0.562500
20
1.431764
30
0.0
11
0.675000
21
1.429329
31
0.0
0
LINE
8
TOP
10
0.675000
20
1.429329
30
0.0
11
0.787500
21
1.426893
31
0.0
0
LINE
8
TOP
10
0.787500
20
1.426893
30
0.0
11
0.900000
21
1.424457
31
0.0
0
LINE
8
TOP
10
0.900000
20
1.424457
30
0.0
11
1.012500
21
1.422021
31
0.0
0
LINE
8
TOP
10
1.012500
20
1.422021
30
0.0
11
1.125000
21
1.419586
31
0.0
0
LINE
8
TOP
10
1.125000
20
1.419586
30
0.0
11
1.237500
21
1.417150
31
0.0
0
LINE
8
TOP
10
1.237500
20
1.417150
30
0.0
11
1.350000
21
1.414714
31
0.0
0
LINE
8
TOP
10
1.350000
20
1.414714
30
0.0
11
1.462500
21
1.412278
31
0.0
0
LINE
8
TOP
10
1.462500
20
1.412278
30
0.0
11
1.575000
21
1.409842
31
0.0
0
LINE
8
TOP
10
1.575000
20
1.409842
30
0.0
11
1.687500
21
1.407407
31
0.0
0
LINE
8
TOP
10
1.687500
20
1.407407
30
0.0
11
1.800000
21
1.404971
31
0.0
0
LINE
8
TOP
10
1.800000
20
1.404971
30
0.0
11
1.912500
21
1.402535
31
0.0
0
LINE
8
TOP
10
1.912500
20
1.402535
30
0.0
11
2.025000
21
1.400099
31
0.0
0
LINE
8
TOP
10
2.025000
20
1.400099
30
0.0
11
2.137500
21
1.397663
31
0.0
0
LINE
8
TOP
10
2.137500
20
1.397663
30
0.0
11
2.250000
21
1.395228
31
0.0
0
LINE
8
TOP
10
2.250000
20
1.395228
30
0.0
11
2.362500
21
1.392792
31
0.0
0
LINE
8
TOP
10
2.362500
20
1.392792
30
0.0
11
2.475000
21
1.390356
31
0.0
0
LINE
8
TOP
10
2.475000
20
1.390356
30
0.0
11
2.587500
21
1.387920
31
0.0
0
LINE
8
TOP
10
2.587500
20
1.387920
30
0.0
11
2.700000
21
1.385484
31
0.0
0
LINE
8
TOP
10
2.700000
20
1.385484
30
0.0
11
2.812500
21
1.383049
31
0.0
0
LINE
8
TOP
10
2.812500
20
1.383049
30
0.0
11
2.925000
21
1.380613
31
0.0
0
LINE
8
TOP
10
2.925000
20
1.380613
30
0.0
11
3.037500
21
1.378177
31
0.0
0
LINE
8
TOP
10
3.037500
20
1.378177
30
0.0
11
3.150000
21
1.375741
31
0.0
0
LINE
8
TOP
10
3.150000
20
1.375741
30
0.0
11
3.262500
21
1.373306
31
0.0
0
LINE
8
TOP
10
3.262500
20
1.373306
30
0.0
11
3.375000
21
1.370870
31
0.0
0
LINE
8
TOP
10
3.375000
20
1.370870
30
0.0
11
3.487500
21
1.368434
31
0.0
0
LINE
8
TOP
10
3.487500
20
1.368434
30
0.0
11
3.600000
21
1.365998
31
0.0
0
LINE
8
TOP
10
3.600000
20
1.365998
30
0.0
11
3.712500
21
1.363562
31
0.0
0
LINE
8
TOP
10
3.712500
20
1.363562
30
0.0
11
3.825000
21
1.361127
31
0.0
0
LINE
8
TOP
10
3.825000
20
1.361127
30
0.0
11
3.937500
21
1.358691
31
0.0
0
LINE
8
TOP
10
3.937500
20
1.358691
30
0.0
11
4.050000
21
1.356255
31
0.0
0
LINE
8
TOP
10
4.050000
20
1.356255
30
0.0
11
4.162500
21
1.353819
31
0.0
0
LINE
8
TOP
10
4.162500
20
1.353819
30
0.0
11
4.275000
21
1.351383
31
0.0
0
LINE
8
TOP
10
4.275000
20
1.351383
30
0.0
11
4.387500
21
1.348948
31
0.0
0
LINE
8
TOP
10
4.387500
20
1.348948
30
0.0
11
4.500000
21
1.346512
31
0.0
0
LINE
8
TOP
10
4.500000
20
1.346512
30
0.0
11
4.612500
21
1.348948
31
0.0
0
LINE
8
TOP
10
4.612500
20
1.348948
30
0.0
11
4.725000
21
1.351383
31
0.0
0
LINE
8
TOP
10
4.725000
20
1.351383
30
0.0
11
4.837500
21
1.353819
31
0.0
0
LINE
8
TOP
10
4.837500
20
1.353819
30
0.0
11
4.950000
21
1.356255
31
0.0
0
LINE
8
TOP
10
4.950000
20
1.356255
30
0.0
11
5.062500
21
1.358691
31
0.0
0
LINE
8
TOP
10
5.062500
20
1.358691
30
0.0
11
5.175000
21
1.361127
31
0.0
0
LINE
8
TOP
10
5.175000
20
1.361127
30
0.0
11
5.287500
21
1.363562
31
0.0
0
LINE
8
TOP
10
5.287500
20
1.363562
30
0.0
11
5.400000
21
1.365998
31
0.0
0
LINE
8
TOP
10
5.400000
20
1.365998
30
0.0
11
5.512500
21
1.368434
31
0.0
0
LINE
8
TOP
10
5.512500
20
1.368434
30
0.0
11
5.625000
21
1.370870
31
0.0
0
LINE
8
TOP
10
5.625000
20
1.370870
30
0.0
11
5.737500
21
1.373306
31
0.0
0
LINE
8
TOP
10
5.737500
20
1.373306
30
0.0
11
5.850000
21
1.375741
31
0.0
0
LINE
8
TOP
10
5.850000
20
1.375741
30
0.0
11
5.962500
21
1.378177
31
0.0
0
LINE
8
TOP
10
5.962500
20
1.378177
30
0.0
11
6.075000
21
1.380613
31
0.0
0
LINE
8
TOP
10
6.075000
20
1.380613
30
0.0
11
6.187500
21
1.383049
31
0.0
0
LINE
8
TOP
10
6.187500
20
1.383049
30
0.0
11
6.300000
21
1.385484
31
0.0
0
LINE
8
TOP
10
6.300000
20
1.385484
30
0.0
11
6.412500
21
1.387920
31
0.0
0
LINE
8
TOP
10
6.412500
20
1.387920
30
0.0
11
6.525000
21
1.390356
31
0.0
0
LINE
8
TOP
10
6.525000
20
1.390356
30
0.0
11
6.637500
21
1.392792
31
0.0
0
LINE
8
TOP
10
6.637500
20
1.392792
30
0.0
11
6.750000
21
1.395228
31
0.0
0
LINE
8
TOP
10
6.750000
20
1.395228
30
0.0
11
6.862500
21
1.397663
31
0.0
0
LINE
8
TOP
10
6.862500
20
1.397663
30
0.0
11
6.975000
21
1.400099
31
0.0
0
LINE
8
TOP
10
6.975000
20
1.400099
30
0.0
11
7.087500
21
1.402535
31
0.0
0
LINE
8
TOP
10
7.087500
20
1.402535
30
0.0
11
7.200000
21
1.404971
31
0.0
0
LINE
8
TOP
10
7.200000
20
1.404971
30
0.0
11
7.312500
21
1.407407
31
0.0
0
LINE
8
TOP
10
7.312500
20
1.407407
30
0.0
11
7.425000
21
1.409842
31
0.0
0
LINE
8
TOP
10
7.425000
20
1.409842
30
0.0
11
7.537500
21
1.412278
31
0.0
0
LINE
8
TOP
10
7.537500
20
1.412278
30
0.0
11
7.650000
21
1.414714
31
0.0
0
LINE
8
TOP
10
7.650000
20
1.414714
30
0.0
11
7.762500
21
1.417150
31
0.0
0
LINE
8
TOP
10
7.762500
20
1.417150
30
0.0
11
7.875000
21
1.419586
31
0.0
0
LINE
8
TOP
10
7.875000
20
1.419586
30
0.0
11
7.987500
21
1.422021
31
0.0
0
LINE
8
TOP
10
7.987500
20
1.422021
30
0.0
11
8.100000
21
1.424457
31
0.0
0
LINE
8
TOP
10
8.100000
20
1.424457
30
0.0
11
8.212500
21
1.426893
31
0.0
0
LINE
8
TOP
10
8.212500
20
1.426893
30
0.0
11
8.325000
21
1.429329
31
0.0
0
LINE
8
TOP
10
8.325000
20
1.429329
30
0.0
11
8.437500
21
1.431764
31
0.0
0
LINE
8
TOP
10
8.437500
20
1.431764
30
0.0
11
8.500000
21
1.433118
31
0.0
0
LINE
8
TOP
10
8.500000
20
1.433118
30
0.0
11
8.550000
21
1.434200
31
0.0
0
LINE
8
TOP
10
8.550000
20
1.434200
30
0.0
11
8.662500
21
1.436636
31
0.0
0
LINE
8
TOP
10
8.662500
20
1.436636
30
0.0
11
8.775000
21
1.439072
31
0.0
0
LINE
8
TOP
10
8.775000
20
1.439072
30
0.0
11
8.887500
21
1.441508
31
0.0
0
LINE
8
TOP
10
8.887500
20
1.441508
30
0.0
11
9.000000
21
1.443943
31
0.0
0
LINE
8
TOP
10
0.000000
20
1.845592
30
0.0
11
0.000000
21
1.443943
31
0.0
0
LINE
8
TOP
10
9.000000
20
1.845592
30
0.0
11
9.000000
21
1.443943
31
0.0
0
LINE
8
SECTION
10
10.201744
20
-0.173664
30
0.0
11
10.798256
21
-0.173664
31
0.0
0
LINE
8
SECTION
10
10.798256
20
-0.173664
30
0.0
11
10.798256
21
0.173664
31
0.0
0
LINE
8
SECTION
10
10.798256
20
0.173664
30
0.0
11
10.201744
21
0.173664
31
0.0
0
LINE
8
SECTION
10
10.201744
20
0.173664
30
0.0
11
10.201744
21
-0.173664
31
0.0
0
LINE
8
SECTION
10
10.253176
20
-0.122232
30
0.0
11
10.746824
21
-0.122232
31
0.0
0
LINE
8
SECTION
10
10.746824
20
-0.122232
30
0.0
11
10.746824
21
0.122232
31
0.0
0
LINE
8
SECTION
10
10.746824
20
0.122232
30
0.0
11
10.253176
21
0.122232
31
0.0
0
LINE
8
SECTION
10
10.253176
20
0.122232
30
0.0
11
10.253176
21
-0.122232
31
0.0
0
LINE
8
SECTION
10
10.253176
20
0.000000
30
0.0
11
10.304609
21
0.000000
31
0.0
0
LINE
8
SECTION
10
10.304609
20
0.000000
30
0.0
11
10.304609
21
0.122232
31
0.0
0
LINE
8
SECTION
10
10.304609
20
0.122232
30
0.0
11
10.253176
21
0.122232
31
0.0
0
LINE
8
SECTION
10
10.253176
20
0.122232
30
0.0
11
10.253176
21
0.000000
31
0.0
0
LINE
8
SECTION
10
10.253176
20
-0.122232
30
0.0
11
10.304609
21
-0.122232
31
0.0
0
LINE
8
SECTION
10
10.304609
20
-0.122232
30
0.0
11
10.304609
21
0.000000
31
0.0
0
LINE
8
SECTION
10
10.304609
20
0.000000
30
0.0
11
10.253176
21
0.000000
31
0.0
0
LINE
8
SECTION
10
10.253176
20
0.000000
30
0.0
11
10.253176
21
-0.122232
31
0.0
0
LINE
8
SECTION
10
10.695391
20
0.000000
30
0.0
11
10.746824
21
0.000000
31
0.0
0
LINE
8
SECTION
10
10.746824
20
0.000000
30
0.0
11
10.746824
21
0.122232
31
0.0
0
LINE
8
SECTION
10
10.746824
20
0.122232
30
0.0
11
10.695391
21
0.122232
31
0.0
0
LINE
8
SECTION
10
10.695391
20
0.122232
30
0.0
11
10.695391
21
0.000000
31
0.0
0
LINE
8
SECTION
10
10.695391
20
-0.122232
30
0.0
11
10.746824
21
-0.122232
31
0.0
0
LINE
8
SECTION
10
10.746824
20
-0.122232
30
0.0
11
10.746824
21
0.000000
31
0.0
0
LINE
8
SECTION
10
10.746824
20
0.000000
30
0.0
11
10.695391
21
0.000000
31
0.0
0
LINE
8
SECTION
10
10.695391
20
0.000000
30
0.0
11
10.695391
21
-0.122232
31
0.0
0
ENDSEC
0
EOF
