0
SECTION
2
HEADER
9
$INSUNITS
70
1
0
ENDSEC
0
SECTION
2
ENTITIES
0
LINE
8
FRONT
10
0.000000
20
0.329269
30
0.0
11
0.112500
21
0.329947
31
0.0
0
LINE
8
FRONT
10
0.112500
20
0.329947
30
0.0
11
0.225000
21
0.330626
31
0.0
0
LINE
8
FRONT
10
0.225000
20
0.330626
30
0.0
11
0.337500
21
0.331304
31
0.0
0
LINE
8
FRONT
10
0.337500
20
0.331304
30
0.0
11
0.450000
21
0.331982
31
0.0
0
LINE
8
FRONT
10
0.450000
20
0.331982
30
0.0
11
0.500000
21
0.332284
31
0.0
0
LINE
8
FRONT
10
0.500000
20
0.332284
30
0.0
11
0.562500
21
0.332661
31
0.0
0
LINE
8
FRONT
10
0.562500
20
0.332661
30
0.0
11
0.675000
21
0.333339
31
0.0
0
LINE
8
FRONT
10
0.675000
20
0.333339
30
0.0
11
0.787500
21
0.334018
31
0.0
0
LINE
8
FRONT
10
0.787500
20
0.334018
30
0.0
11
0.900000
21
0.334696
31
0.0
0
LINE
8
FRONT
10
0.900000
20
0.334696
30
0.0
11
1.012500
21
0.335375
31
0.0
0
LINE
8
FRONT
10
1.012500
20
0.335375
30
0.0
11
1.125000
21
0.336053
31
0.0
0
LINE
8
FRONT
10
1.125000
20
0.336053
30
0.0
11
1.237500
21
0.336732
31
0.0
0
LINE
8
FRONT
10
1.237500
20
0.336732
30
0.0
11
1.350000
21
0.337410
31
0.0
0
LINE
8
FRONT
10
1.350000
20
0.337410
30
0.0
11
1.462500
21
0.338089
31
0.0
0
LINE
8
FRONT
10
1.462500
20
0.338089
30
0.0
11
1.575000
21
0.338767
31
0.0
0
LINE
8
FRONT
10
1.575000
20
0.338767
30
0.0
11
1.687500
21
0.339445
31
0.0
0
LINE
8
FRONT
10
1.687500
20
0.339445
30
0.0
11
1.800000
21
0.340124
31
0.0
0
LINE
8
FRONT
10
1.800000
20
0.340124
30
0.0
11
1.912500
21
0.340802
31
0.0
0
LINE
8
FRONT
10
1.912500
20
0.340802
30
0.0
11
2.025000
21
0.341481
31
0.0
0
LINE
8
FRONT
10
2.025000
20
0.341481
30
0.0
11
2.137500
21
0.342159
31
0.0
0
LINE
8
FRONT
10
2.137500
20
0.342159
30
0.0
11
2.250000
21
0.342838
31
0.0
0
LINE
8
FRONT
10
2.250000
20
0.342838
30
0.0
11
2.362500
21
0.343516
31
0.0
0
LINE
8
FRONT
10
2.362500
20
0.343516
30
0.0
11
2.475000
21
0.344195
31
0.0
0
LINE
8
FRONT
10
2.475000
20
0.344195
30
0.0
11
2.587500
21
0.344873
31
0.0
0
LINE
8
FRONT
10
2.587500
20
0.344873
30
0.0
11
2.700000
21
0.345551
31
0.0
0
LINE
8
FRONT
10
2.700000
20
0.345551
30
0.0
11
2.812500
21
0.346230
31
0.0
0
LINE
8
FRONT
10
2.812500
20
0.346230
30
0.0
11
2.925000
21
0.346908
31
0.0
0
LINE
8
FRONT
10
2.925000
20
0.346908
30
0.0
11
3.037500
21
0.347587
31
0.0
0
LINE
8
FRONT
10
3.037500
20
0.347587
30
0.0
11
3.150000
21
0.348265
31
0.0
0
LINE
8
FRONT
10
3.150000
20
0.348265
30
0.0
11
3.262500
21
0.348944
31
0.0
0
LINE
8
FRONT
10
3.262500
20
0.348944
30
0.0
11
3.375000
21
0.349622
31
0.0
0
LINE
8
FRONT
10
3.375000
20
0.349622
30
0.0
11
3.487500
21
0.350301
31
0.0
0
LINE
8
FRONT
10
3.487500
20
0.350301
30
0.0
11
3.600000
21
0.350979
31
0.0
0
LINE
8
FRONT
10
3.600000
20
0.350979
30
0.0
11
3.712500
21
0.351657
31
0.0
0
LINE
8
FRONT
10
3.712500
20
0.351657
30
0.0
11
3.825000
21
0.352336
31
0.0
0
LINE
8
FRONT
10
3.825000
20
0.352336
30
0.0
11
3.937500
21
0.353014
31
0.0
0
LINE
8
FRONT
10
3.937500
20
0.353014
30
0.0
11
4.050000
21
0.353693
31
0.0
0
LINE
8
FRONT
10
4.050000
20
0.353693
30
0.0
11
4.162500
21
0.354371
31
0.0
0
LINE
8
FRONT
10
4.162500
20
0.354371
30
0.0
11
4.275000
21
0.355050
31
0.0
0
LINE
8
FRONT
10
4.275000
20
0.355050
30
0.0
11
4.387500
21
0.355728
31
0.0
0
LINE
8
FRONT
10
4.387500
20
0.355728
30
0.0
11
4.500000
21
0.356407
31
0.0
0
LINE
8
FRONT
10
4.500000
20
0.356407
30
0.0
11
4.612500
21
0.355728
31
0.0
0
LINE
8
FRONT
10
4.612500
20
0.355728
30
0.0
11
4.725000
21
0.355050
31
0.0
0
LINE
8
FRONT
10
4.725000
20
0.355050
30
0.0
11
4.837500
21
0.354371
31
0.0
0
LINE
8
FRONT
10
4.837500
20
0.354371
30
0.0
11
4.950000
21
0.353693
31
0.0
0
LINE
8
FRONT
10
4.950000
20
0.353693
30
0.0
11
5.062500
21
0.353014
31
0.0
0
LINE
8
FRONT
10
5.062500
20
0.353014
30
0.0
11
5.175000
21
0.352336
31
0.0
0
LINE
8
FRONT
10
5.175000
20
0.352336
30
0.0
11
5.287500
21
0.351657
31
0.0
0
LINE
8
FRONT
10
5.287500
20
0.351657
30
0.0
11
5.400000
21
0.350979
31
0.0
0
LINE
8
FRONT
10
5.400000
20
0.350979
30
0.0
11
5.512500
21
0.350301
31
0.0
0
LINE
8
FRONT
10
5.512500
20
0.350301
30
0.0
11
5.625000
21
0.349622
31
0.0
0
LINE
8
FRONT
10
5.625000
20
0.349622
30
0.0
11
5.737500
21
0.348944
31
0.0
0
LINE
8
FRONT
10
5.737500
20
0.348944
30
0.0
11
5.850000
21
0.348265
31
0.0
0
LINE
8
FRONT
10
5.850000
20
0.348265
30
0.0
11
5.962500
21
0.347587
31
0.0
0
LINE
8
FRONT
10
5.962500
20
0.347587
30
0.0
11
6.075000
21
0.346908
31
0.0
0
LINE
8
FRONT
10
6.075000
20
0.346908
30
0.0
11
6.187500
21
0.346230
31
0.0
0
LINE
8
FRONT
10
6.187500
20
0.346230
30
0.0
11
6.300000
21
0.345551
31
0.0
0
LINE
8
FRONT
10
6.300000
20
0.345551
30
0.0
11
6.412500
21
0.344873
31
0.0
0
LINE
8
FRONT
10
6.412500
20
0.344873
30
0.0
11
6.525000
21
0.344195
31
0.0
0
LINE
8
FRONT
10
6.525000
20
0.344195
30
0.0
11
6.637500
21
0.343516
31
0.0
0
LINE
8
FRONT
10
6.637500
20
0.343516
30
0.0
11
6.750000
21
0.342838
31
0.0
0
LINE
8
FRONT
10
6.750000
20
0.342838
30
0.0
11
6.862500
21
0.342159
31
0.0
0
LINE
8
FRONT
10
6.862500
20
0.342159
30
0.0
11
6.975000
21
0.341481
31
0.0
0
LINE
8
FRONT
10
6.975000
20
0.341481
30
0.0
11
7.087500
21
0.340802
31
0.0
0
LINE
8
FRONT
10
7.087500
20
0.340802
30
0.0
11
7.200000
21
0.340124
31
0.0
0
LINE
8
FRONT
10
7.200000
20
0.340124
30
0.0
11
7.312500
21
0.339445
31
0.0
0
LINE
8
FRONT
10
7.312500
20
0.339445
30
0.0
11
7.425000
21
0.338767
31
0.0
0
LINE
8
FRONT
10
7.425000
20
0.338767
30
0.0
11
7.537500
21
0.338089
31
0.0
0
LINE
8
FRONT
10
7.537500
20
0.338089
30
0.0
11
7.650000
21
0.337410
31
0.0
0
LINE
8
FRONT
10
7.650000
20
0.337410
30
0.0
11
7.762500
21
0.336732
31
0.0
0
LINE
8
FRONT
10
7.762500
20
0.336732
30
0.0
11
7.875000
21
0.336053
31
0.0
0
LINE
8
FRONT
10
7.875000
20
0.336053
30
0.0
11
7.987500
21
0.335375
31
0.0
0
LINE
8
FRONT
10
7.987500
20
0.335375
30
0.0
11
8.100000
21
0.334696
31
0.0
0
LINE
8
FRONT
10
8.100000
20
0.334696
30
0.0
11
8.212500
21
0.334018
31
0.0
0
LINE
8
FRONT
10
8.212500
20
0.334018
30
0.0
11
8.325000
21
0.333339
31
0.0
0
LINE
8
FRONT
10
8.325000
20
0.333339
30
0.0
11
8.437500
21
0.332661
31
0.0
0
LINE
8
FRONT
10
8.437500
20
0.332661
30
0.0
11
8.500000
21
0.332284
31
0.0
0
LINE
8
FRONT
10
8.500000
20
0.332284
30
0.0
11
8.550000
21
0.331982
31
0.0
0
LINE
8
FRONT
10
8.550000
20
0.331982
30
0.0
11
8.662500
21
0.331304
31
0.0
0
LINE
8
FRONT
10
8.662500
20
0.331304
30
0.0
11
8.775000
21
0.330626
31
0.0
0
LINE
8
FRONT
10
8.775000
20
0.330626
30
0.0
11
8.887500
21
0.329947
31
0.0
0
LINE
8
FRONT
10
8.887500
20
0.329947
30
0.0
11
9.000000
21
0.329269
31
0.0
0
LINE
8
FRONT
10
0.000000
20
-0.329269
30
0.0
11
0.112500
21
-0.329947
31
0.0
0
LINE
8
FRONT
10
0.112500
20
-0.329947
30
0.0
11
0.225000
21
-0.330626
31
0.0
0
LINE
8
FRONT
10
0.225000
20
-0.330626
30
0.0
11
0.337500
21
-0.331304
31
0.0
0
LINE
8
FRONT
10
0.337500
20
-0.331304
30
0.0
11
0.450000
21
-0.331982
31
0.0
0
LINE
8
FRONT
10
0.450000
20
-0.331982
30
0.0
11
0.500000
21
-0.332284
31
0.0
0
LINE
8
FRONT
10
0.500000
20
-0.332284
30
0.0
11
0.562500
21
-0.332661
31
0.0
0
LINE
8
FRONT
10
0.562500
20
-0.332661
30
0.0
11
0.675000
21
-0.333339
31
0.0
0
LINE
8
FRONT
10
0.675000
20
-0.333339
30
0.0
11
0.787500
21
-0.334018
31
0.0
0
LINE
8
FRONT
10
0.787500
20
-0.334018
30
0.0
11
0.900000
21
-0.334696
31
0.0
0
LINE
8
FRONT
10
0.900000
20
-0.334696
30
0.0
11
1.012500
21
-0.335375
31
0.0
0
LINE
8
FRONT
10
1.012500
20
-0.335375
30
0.0
11
1.125000
21
-0.336053
31
0.0
0
LINE
8
FRONT
10
1.125000
20
-0.336053
30
0.0
11
1.237500
21
-0.336732
31
0.0
0
LINE
8
FRONT
10
1.237500
20
-0.336732
30
0.0
11
1.350000
21
-0.337410
31
0.0
0
LINE
8
FRONT
10
1.350000
20
-0.337410
30
0.0
11
1.462500
21
-0.338089
31
0.0
0
LINE
8
FRONT
10
1.462500
20
-0.338089
30
0.0
11
1.575000
21
-0.338767
31
0.0
0
LINE
8
FRONT
10
1.575000
20
-0.338767
30
0.0
11
1.687500
21
-0.339445
31
0.0
0
LINE
8
FRONT
10
1.687500
20
-0.339445
30
0.0
11
1.800000
21
-0.340124
31
0.0
0
LINE
8
FRONT
10
1.800000
20
-0.340124
30
0.0
11
1.912500
21
-0.340802
31
0.0
0
LINE
8
FRONT
10
1.912500
20
-0.340802
30
0.0
11
2.025000
21
-0.341481
31
0.0
0
LINE
8
FRONT
10
2.025000
20
-0.341481
30
0.0
11
2.137500
21
-0.342159
31
0.0
0
LINE
8
FRONT
10
2.137500
20
-0.342159
30
0.0
11
2.250000
21
-0.342838
31
0.0
0
LINE
8
FRONT
10
2.250000
20
-0.342838
30
0.0
11
2.362500
21
-0.343516
31
0.0
0
LINE
8
FRONT
10
2.362500
20
-0.343516
30
0.0
11
2.475000
21
-0.344195
31
0.0
0
LINE
8
FRONT
10
2.475000
20
-0.344195
30
0.0
11
2.587500
21
-0.344873
31
0.0
0
LINE
8
FRONT
10
2.587500
20
-0.344873
30
0.0
11
2.700000
21
-0.345551
31
0.0
0
LINE
8
FRONT
10
2.700000
20
-0.345551
30
0.0
11
2.812500
21
-0.346230
31
0.0
0
LINE
8
FRONT
10
2.812500
20
-0.346230
30
0.0
11
2.925000
21
-0.346908
31
0.0
0
LINE
8
FRONT
10
2.925000
20
-0.346908
30
0.0
11
3.037500
21
-0.347587
31
0.0
0
LINE
8
FRONT
10
3.037500
20
-0.347587
30
0.0
11
3.150000
21
-0.348265
31
0.0
0
LINE
8
FRONT
10
3.150000
20
-0.348265
30
0.0
11
3.262500
21
-0.348944
31
0.0
0
LINE
8
FRONT
10
3.262500
20
-0.348944
30
0.0
11
3.375000
21
-0.349622
31
0.0
0
LINE
8
FRONT
10
3.375000
20
-0.349622
30
0.0
11
3.487500
21
-0.350301
31
0.0
0
LINE
8
FRONT
10
3.487500
20
-0.350301
30
0.0
11
3.600000
21
-0.350979
31
0.0
0
LINE
8
FRONT
10
3.600000
20
-0.350979
30
0.0
11
3.712500
21
-0.351657
31
0.0
0
LINE
8
FRONT
10
3.712500
20
-0.351657
30
0.0
11
3.825000
21
-0.352336
31
0.0
0
LINE
8
FRONT
10
3.825000
20
-0.352336
30
0.0
11
3.937500
21
-0.353014
31
0.0
0
LINE
8
FRONT
10
3.937500
20
-0.353014
30
0.0
11
4.050000
21
-0.353693
31
0.0
0
LINE
8
FRONT
10
4.050000
20
-0.353693
30
0.0
11
4.162500
21
-0.354371
31
0.0
0
LINE
8
FRONT
10
4.162500
20
-0.354371
30
0.0
11
4.275000
21
-0.355050
31
0.0
0
LINE
8
FRONT
10
4.275000
20
-0.355050
30
0.0
11
4.387500
21
-0.355728
31
0.0
0
LINE
8
FRONT
10
4.387500
20
-0.355728
30
0.0
11
4.500000
21
-0.356407
31
0.0
0
LINE
8
FRONT
10
4.500000
20
-0.356407
30
0.0
11
4.612500
21
-0.355728
31
0.0
0
LINE
8
FRONT
10
4.612500
20
-0.355728
30
0.0
11
4.725000
21
-0.355050
31
0.0
0
LINE
8
FRONT
10
4.725000
20
-0.355050
30
0.0
11
4.837500
21
-0.354371
31
0.0
0
LINE
8
FRONT
10
4.837500
20
-0.354371
30
0.0
11
4.950000
21
-0.353693
31
0.0
0
LINE
8
FRONT
10
4.950000
20
-0.353693
30
0.0
11
5.062500
21
-0.353014
31
0.0
0
LINE
8
FRONT
10
5.062500
20
-0.353014
30
0.0
11
5.175000
21
-0.352336
31
0.0
0
LINE
8
FRONT
10
5.175000
20
-0.352336
30
0.0
11
5.287500
21
-0.351657
31
0.0
0
LINE
8
FRONT
10
5.287500
20
-0.351657
30
0.0
11
5.400000
21
-0.350979
31
0.0
0
LINE
8
FRONT
10
5.400000
20
-0.350979
30
0.0
11
5.512500
21
-0.350301
31
0.0
0
LINE
8
FRONT
10
5.512500
20
-0.350301
30
0.0
11
5.625000
21
-0.349622
31
0.0
0
LINE
8
FRONT
10
5.625000
20
-0.349622
30
0.0
11
5.737500
21
-0.348944
31
0.0
0
LINE
8
FRONT
10
5.737500
20
-0.348944
30
0.0
11
5.850000
21
-0.348265
31
0.0
0
LINE
8
FRONT
10
5.850000
20
-0.348265
30
0.0
11
5.962500
21
-0.347587
31
0.0
0
LINE
8
FRONT
10
5.962500
20
-0.347587
30
0.0
11
6.075000
21
-0.346908
31
0.0
0
LINE
8
FRONT
10
6.075000
20
-0.346908
30
0.0
11
6.187500
21
-0.346230
31
0.0
0
LINE
8
FRONT
10
6.187500
20
-0.346230
30
0.0
11
6.300000
21
-0.345551
31
0.0
0
LINE
8
FRONT
10
6.300000
20
-0.345551
30
0.0
11
6.412500
21
-0.344873
31
0.0
0
LINE
8
FRONT
10
6.412500
20
-0.344873
30
0.0
11
6.525000
21
-0.344195
31
0.0
0
LINE
8
FRONT
10
6.525000
20
-0.344195
30
0.0
11
6.637500
21
-0.343516
31
0.0
0
LINE
8
FRONT
10
6.637500
20
-0.343516
30
0.0
11
6.750000
21
-0.342838
31
0.0
0
LINE
8
FRONT
10
6.750000
20
-0.342838
30
0.0
11
6.862500
21
-0.342159
31
0.0
0
LINE
8
FRONT
10
6.862500
20
-0.342159
30
0.0
11
6.975000
21
-0.341481
31
0.0
0
LINE
8
FRONT
10
6.975000
20
-0.341481
30
0.0
11
7.087500
21
-0.340802
31
0.0
0
LINE
8
FRONT
10
7.087500
20
-0.340802
30
0.0
11
7.200000
21
-0.340124
31
0.0
0
LINE
8
FRONT
10
7.200000
20
-0.340124
30
0.0
11
7.312500
21
-0.339445
31
0.0
0
LINE
8
FRONT
10
7.312500
20
-0.339445
30
0.0
11
7.425000
21
-0.338767
31
0.0
0
LINE
8
FRONT
10
7.425000
20
-0.338767
30
0.0
11
7.537500
21
-0.338089
31
0.0
0
LINE
8
FRONT
10
7.537500
20
-0.338089
30
0.0
11
7.650000
21
-0.337410
31
0.0
0
LINE
8
FRONT
10
7.650000
20
-0.337410
30
0.0
11
7.762500
21
-0.336732
31
0.0
0
LINE
8
FRONT
10
7.762500
20
-0.336732
30
0.0
11
7.875000
21
-0.336053
31
0.0
0
LINE
8
FRONT
10
7.875000
20
-0.336053
30
0.0
11
7.987500
21
-0.335375
31
0.0
0
LINE
8
FRONT
10
7.987500
20
-0.335375
30
0.0
11
8.100000
21
-0.334696
31
0.0
0
LINE
8
FRONT
10
8.100000
20
-0.334696
30
0.0
11
8.212500
21
-0.334018
31
0.0
0
LINE
8
FRONT
10
8.212500
20
-0.334018
30
0.0
11
8.325000
21
-0.333339
31
0.0
0
LINE
8
FRONT
10
8.325000
20
-0.333339
30
0.0
11
8.437500
21
-0.332661
31
0.0
0
LINE
8
FRONT
10
8.437500
20
-0.332661
30
0.0
11
8.500000
21
-0.332284
31
0.0
0
LINE
8
FRONT
10
8.500000
20
-0.332284
30
0.0
11
8.550000
21
-0.331982
31
0.0
0
LINE
8
FRONT
10
8.550000
20
-0.331982
30
0.0
11
8.662500
21
-0.331304
31
0.0
0
LINE
8
FRONT
10
8.662500
20
-0.331304
30
0.0
11
8.775000
21
-0.330626
31
0.0
0
LINE
8
FRONT
10
8.775000
20
-0.330626
30
0.0
11
8.887500
21
-0.329947
31
0.0
0
LINE
8
FRONT
10
8.887500
20
-0.329947
30
0.0
11
9.000000
21
-0.329269
31
0.0
0
LINE
8
FRONT
10
0.000000
20
0.329269
30
0.0
11
0.000000
21
-0.329269
31
0.0
0
LINE
8
FRONT
10
9.000000
20
0.329269
30
0.0
11
9.000000
21
-0.329269
31
0.0
0
LINE
8
TOP
10
0.000000
20
2.079771
30
0.0
11
0.112500
21
2.076936
31
0.0
0
LINE
8
TOP
10
0.112500
20
2.076936
30
0.0
11
0.225000
21
2.074102
31
0.0
0
LINE
8
TOP
10
0.225000
20
2.074102
30
0.0
11
0.337500
21
2.071267
31
0.0
0
LINE
8
TOP
10
0.337500
20
2.071267
30
0.0
11
0.450000
21
2.068432
31
0.0
0
LINE
8
TOP
10
0.450000
20
2.068432
30
0.0
11
0.500000
21
2.067172
31
0.0
0
LINE
8
TOP
10
0.500000
20
2.067172
30
0.0
11
0.562500
21
2.065597
31
0.0
0
LINE
8
TOP
10
0.562500
20
2.065597
30
0.0
11
0.675000
21
2.062762
31
0.0
0
LINE
8
TOP
10
0.675000
20
2.062762
30
0.0
11
0.787500
21
2.059927
31
0.0
0
LINE
8
TOP
10
0.787500
20
2.059927
30
0.0
11
0.900000
21
2.057092
31
0.0
0
LINE
8
TOP
10
0.900000
20
2.057092
30
0.0
11
1.012500
21
2.054257
31
0.0
0
LINE
8
TOP
10
1.012500
20
2.054257
30
0.0
11
1.125000
21
2.051422
31
0.0
0
LINE
8
TOP
10
1.125000
20
2.051422
30
0.0
11
1.237500
21
2.048588
31
0.0
0
LINE
8
TOP
10
1.237500
20
2.048588
30
0.0
11
1.350000
21
2.045753
31
0.0
0
LINE
8
TOP
10
1.350000
20
2.045753
30
0.0
11
1.462500
21
2.042918
31
0.0
0
LINE
8
TOP
10
1.462500
20
2.042918
30
0.0
11
1.575000
21
2.040083
31
0.0
0
LINE
8
TOP
10
1.575000
20
2.040083
30
0.0
11
1.687500
21
2.037248
31
0.0
0
LINE
8
TOP
10
1.687500
20
2.037248
30
0.0
11
1.800000
21
2.034413
31
0.0
0
LINE
8
TOP
10
1.800000
20
2.034413
30
0.0
11
1.912500
21
2.031578
31
0.0
0
LINE
8
TOP
10
1.912500
20
2.031578
30
0.0
11
2.025000
21
2.028743
31
0.0
0
LINE
8
TOP
10
2.025000
20
2.028743
30
0.0
11
2.137500
21
2.025909
31
0.0
0
LINE
8
TOP
10
2.137500
20
2.025909
30
0.0
11
2.250000
21
2.023074
31
0.0
0
LINE
8
TOP
10
2.250000
20
2.023074
30
0.0
11
2.362500
21
2.020239
31
0.0
0
LINE
8
TOP
10
2.362500
20
2.020239
30
0.0
11
2.475000
21
2.017404
31
0.0
0
LINE
8
TOP
10
2.475000
20
2.017404
30
0.0
11
2.587500
21
2.014569
31
0.0
0
LINE
8
TOP
10
2.587500
20
2.014569
30
0.0
11
2.700000
21
2.011734
31
0.0
0
LINE
8
TOP
10
2.700000
20
2.011734
30
0.0
11
2.812500
21
2.008899
31
0.0
0
LINE
8
TOP
10
2.812500
20
2.008899
30
0.0
11
2.925000
21
2.006064
31
0.0
0
LINE
8
TOP
10
2.925000
20
2.006064
30
0.0
11
3.037500
21
2.003230
31
0.0
0
LINE
8
TOP
10
3.037500
20
2.003230
30
0.0
11
3.150000
21
2.000395
31
0.0
0
LINE
8
TOP
10
3.150000
20
2.000395
30
0.0
11
3.262500
21
1.997560
31
0.0
0
LINE
8
TOP
10
3.262500
20
1.997560
30
0.0
11
3.375000
21
1.994725
31
0.0
0
LINE
8
TOP
10
3.375000
20
1.994725
30
0.0
11
3.487500
21
1.991890
31
0.0
0
LINE
8
TOP
10
3.487500
20
1.991890
30
0.0
11
3.600000
21
1.989055
31
0.0
0
LINE
8
TOP
10
3.600000
20
1.989055
30
0.0
11
3.712500
21
1.986220
31
0.0
0
LINE
8
TOP
10
3.712500
20
1.986220
30
0.0
11
3.825000
21
1.983385
31
0.0
0
LINE
8
TOP
10
3.825000
20
1.983385
30
0.0
11
3.937500
21
1.980550
31
0.0
0
LINE
8
TOP
10
3.937500
20
1.980550
30
0.0
11
4.050000
21
1.977716
31
0.0
0
LINE
8
TOP
10
4.050000
20
1.977716
30
0.0
11
4.162500
21
1.974881
31
0.0
0
LINE
8
TOP
10
4.162500
20
1.974881
30
0.0
11
4.275000
21
1.972046
31
0.0
0
LINE
8
TOP
10
4.275000
20
1.972046
30
0.0
11
4.387500
21
1.969211
31
0.0
0
LINE
8
TOP
10
4.387500
20
1.969211
30
0.0
11
4.500000
21
1.966376
31
0.0
0
LINE
8
TOP
10
4.500000
20
1.966376
30
0.0
11
4.612500
21
1.969211
31
0.0
0
LINE
8
TOP
10
4.612500
20
1.969211
30
0.0
11
4.725000
21
1.972046
31
0.0
0
LINE
8
TOP
10
4.725000
20
1.972046
30
0.0
11
4.837500
21
1.974881
31
0.0
0
LINE
8
TOP
10
4.837500
20
1.974881
30
0.0
11
4.950000
21
1.977716
31
0.0
0
LINE
8
TOP
10
4.950000
20
1.977716
30
0.0
11
5.062500
21
1.980550
31
0.0
0
LINE
8
TOP
10
5.062500
20
1.980550
30
0.0
11
5.175000
21
1.983385
31
0.0
0
LINE
8
TOP
10
5.175000
20
1.983385
30
0.0
11
5.287500
21
1.986220
31
0.0
0
LINE
8
TOP
10
5.287500
20
1.986220
30
0.0
11
5.400000
21
1.989055
31
0.0
0
LINE
8
TOP
10
5.400000
20
1.989055
30
0.0
11
5.512500
21
1.991890
31
0.0
0
LINE
8
TOP
10
5.512500
20
1.991890
30
0.0
11
5.625000
21
1.994725
31
0.0
0
LINE
8
TOP
10
5.625000
20
1.994725
30
0.0
11
5.737500
21
1.997560
31
0.0
0
LINE
8
TOP
10
5.737500
20
1.997560
30
0.0
11
5.850000
21
2.000395
31
0.0
0
LINE
8
TOP
10
5.850000
20
2.000395
30
0.0
11
5.962500
21
2.003230
31
0.0
0
LINE
8
TOP
10
5.962500
20
2.003230
30
0.0
11
6.075000
21
2.006064
31
0.0
0
LINE
8
TOP
10
6.075000
20
2.006064
30
0.0
11
6.187500
21
2.008899
31
0.0
0
LINE
8
TOP
10
6.187500
20
2.008899
30
0.0
11
6.300000
21
2.011734
31
0.0
0
LINE
8
TOP
10
6.300000
20
2.011734
30
0.0
11
6.412500
21
2.014569
31
0.0
0
LINE
8
TOP
10
6.412500
20
2.014569
30
0.0
11
6.525000
21
2.017404
31
0.0
0
LINE
8
TOP
10
6.525000
20
2.017404
30
0.0
11
6.637500
21
2.020239
31
0.0
0
LINE
8
TOP
10
6.637500
20
2.020239
30
0.0
11
6.750000
21
2.023074
31
0.0
0
LINE
8
TOP
10
6.750000
20
2.023074
30
0.0
11
6.862500
21
2.025909
31
0.0
0
LINE
8
TOP
10
6.862500
20
2.025909
30
0.0
11
6.975000
21
2.028743
31
0.0
0
LINE
8
TOP
10
6.975000
20
2.028743
30
0.0
11
7.087500
21
2.031578
31
0.0
0
LINE
8
TOP
10
7.087500
20
2.031578
30
0.0
11
7.200000
21
2.034413
31
0.0
0
LINE
8
TOP
10
7.200000
20
2.034413
30
0.0
11
7.312500
21
2.037248
31
0.0
0
LINE
8
TOP
10
7.312500
20
2.037248
30
0.0
11
7.425000
21
2.040083
31
0.0
0
LINE
8
TOP
10
7.425000
20
2.040083
30
0.0
11
7.537500
21
2.042918
31
0.0
0
LINE
8
TOP
10
7.537500
20
2.042918
30
0.0
11
7.650000
21
2.045753
31
0.0
0
LINE
8
TOP
10
7.650000
20
2.045753
30
0.0
11
7.762500
21
2.048588
31
0.0
0
LINE
8
TOP
10
7.762500
20
2.048588
30
0.0
11
7.875000
21
2.051422
31
0.0
0
LINE
8
TOP
10
7.875000
20
2.051422
30
0.0
11
7.987500
21
2.054257
31
0.0
0
LINE
8
TOP
10
7.987500
20
2.054257
30
0.0
11
8.100000
21
2.057092
31
0.0
0
LINE
8
TOP
10
8.100000
20
2.057092
30
0.0
11
8.212500
21
2.059927
31
0.0
0
LINE
8
TOP
10
8.212500
20
2.059927
30
0.0
11
8.325000
21
2.062762
31
0.0
0
LINE
8
TOP
10
8.325000
20
2.062762
30
0.0
11
8.437500
21
2.065597
31
0.0
0
LINE
8
TOP
10
8.437500
20
2.065597
30
0.0
11
8.500000
21
2.067172
31
0.0
0
LINE
8
TOP
10
8.500000
20
2.067172
30
0.0
11
8.550000
21
2.068432
31
0.0
0
LINE
8
TOP
10
8.550000
20
2.068432
30
0.0
11
8.662500
21
2.071267
31
0.0
0
LINE
8
TOP
10
8.662500
20
2.071267
30
0.0
11
8.775000
21
2.074102
31
0.0
0
LINE
8
TOP
10
8.775000
20
2.074102
30
0.0
11
8.887500
21
2.076936
31
0.0
0
LINE
8
TOP
10
8.887500
20
2.076936
30
0.0
11
9.000000
21
2.079771
31
0.0
0
LINE
8
TOP
10
0.000000
20
1.558668
30
0.0
11
0.112500
21
1.561503
31
0.0
0
LINE
8
TOP
10
0.112500
20
1.561503
30
0.0
11
0.225000
21
1.564338
31
0.0
0
LINE
8
TOP
10
0.225000
20
1.564338
30
0.0
11
0.337500
21
1.567173
31
0.0
0
LINE
8
TOP
10
0.337500
20
1.567173
30
0.0
11
0.450000
21
1.570008
31
0.0
0
LINE
8
TOP
10
0.450000
20
1.570008
30
0.0
11
0.500000
21
1.571268
31
0.0
0
LINE
8
TOP
10
0.500000
20
1.571268
30
0.0
11
0.562500
21
1.572843
31
0.0
0
LINE
8
TOP
10
0.562500
20
1.572843
30
0.0
11
0.675000
21
1.575678
31
0.0
0
LINE
8
TOP
10
0.675000
20
1.575678
30
0.0
11
0.787500
21
1.578512
31
0.0
0
LINE
8
TOP
10
0.787500
20
1.578512
30
0.0
11
0.900000
21
1.581347
31
0.0
0
LINE
8
TOP
10
0.900000
20
1.581347
30
0.0
11
1.012500
21
1.584182
31
0.0
0
LINE
8
TOP
10
1.012500
20
1.584182
30
0.0
11
1.125000
21
1.587017
31
0.0
0
LINE
8
TOP
10
1.125000
20
1.587017
30
0.0
11
1.237500
21
1.589852
31
0.0
0
LINE
8
TOP
10
1.237500
20
1.589852
30
0.0
11
1.350000
21
1.592687
31
0.0
0
LINE
8
TOP
10
1.350000
20
1.592687
30
0.0
11
1.462500
21
1.595522
31
0.0
0
LINE
8
TOP
10
1.462500
20
1.595522
30
0.0
11
1.575000
21
1.598357
31
0.0
0
LINE
8
TOP
10
1.575000
20
1.598357
30
0.0
11
1.687500
21
1.601192
31
0.0
0
LINE
8
TOP
10
1.687500
20
1.601192
30
0.0
11
1.800000
21
1.604026
31
0.0
0
LINE
8
TOP
10
1.800000
20
1.604026
30
0.0
11
1.912500
21
1.606861
31
0.0
0
LINE
8
TOP
10
1.912500
20
1.606861
30
0.0
11
2.025000
21
1.609696
31
0.0
0
LINE
8
TOP
10
2.025000
20
1.609696
30
0.0
11
2.137500
21
1.612531
31
0.0
0
LINE
8
TOP
10
2.137500
20
1.612531
30
0.0
11
2.250000
21
1.615366
31
0.0
0
LINE
8
TOP
10
2.250000
20
1.615366
30
0.0
11
2.362500
21
1.618201
31
0.0
0
LINE
8
TOP
10
2.362500
20
1.618201
30
0.0
11
2.475000
21
1.621036
31
0.0
0
LINE
8
TOP
10
2.475000
20
1.621036
30
0.0
11
2.587500
21
1.623871
31
0.0
0
LINE
8
TOP
10
2.587500
20
1.623871
30
0.0
11
2.700000
21
1.626705
31
0.0
0
LINE
8
TOP
10
2.700000
20
1.626705
30
0.0
11
2.812500
21
1.629540
31
0.0
0
LINE
8
TOP
10
2.812500
20
1.629540
30
0.0
11
2.925000
21
1.632375
31
0.0
0
LINE
8
TOP
10
2.925000
20
1.632375
30
0.0
11
3.037500
21
1.635210
31
0.0
0
LINE
8
TOP
10
3.037500
20
1.635210
30
0.0
11
3.150000
21
1.638045
31
0.0
0
LINE
8
TOP
10
3.150000
20
1.638045
30
0.0
11
3.262500
21
1.640880
31
0.0
0
LINE
8
TOP
10
3.262500
20
1.640880
30
0.0
11
3.375000
21
1.643715
31
0.0
0
LINE
8
TOP
10
3.375000
20
1.643715
30
0.0
11
3.487500
21
1.646550
31
0.0
0
LINE
8
TOP
10
3.487500
20
1.646550
30
0.0
11
3.600000
21
1.649384
31
0.0
0
LINE
8
TOP
10
3.600000
20
1.649384
30
0.0
11
3.712500
21
1.652219
31
0.0
0
LINE
8
TOP
10
3.712500
20
1.652219
30
0.0
11
3.825000
21
1.655054
31
0.0
0
LINE
8
TOP
10
3.825000
20
1.655054
30
0.0
11
3.937500
21
1.657889
31
0.0
0
LINE
8
TOP
10
3.937500
20
1.657889
30
0.0
11
4.050000
21
1.660724
31
0.0
0
LINE
8
TOP
10
4.050000
20
1.660724
30
0.0
11
4.162500
21
1.663559
31
0.0
0
LINE
8
TOP
10
4.162500
20
1.663559
30
0.0
11
4.275000
21
1.666394
31
0.0
0
LINE
8
TOP
10
4.275000
20
1.666394
30
0.0
11
4.387500
21
1.669229
31
0.0
0
LINE
8
TOP
10
4.387500
20
1.669229
30
0.0
11
4.500000
21
1.672064
31
0.0
0
LINE
8
TOP
10
4.500000
20
1.672064
30
0.0
11
4.612500
21
1.669229
31
0.0
0
LINE
8
TOP
10
4.612500
20
1.669229
30
0.0
11
4.725000
21
1.666394
31
0.0
0
LINE
8
TOP
10
4.725000
20
1.666394
30
0.0
11
4.837500
21
1.663559
31
0.0
0
LINE
8
TOP
10
4.837500
20
1.663559
30
0.0
11
4.950000
21
1.660724
31
0.0
0
LINE
8
TOP
10
4.950000
20
1.660724
30
0.0
11
5.062500
21
1.657889
31
0.0
0
LINE
8
TOP
10
5.062500
20
1.657889
30
0.0
11
5.175000
21
1.655054
31
0.0
0
LINE
8
TOP
10
5.175000
20
1.655054
30
0.0
11
5.287500
21
1.652219
31
0.0
0
LINE
8
TOP
10
5.287500
20
1.652219
30
0.0
11
5.400000
21
1.649384
31
0.0
0
LINE
8
TOP
10
5.400000
20
1.649384
30
0.0
11
5.512500
21
1.646550
31
0.0
0
LINE
8
TOP
10
5.512500
20
1.646550
30
0.0
11
5.625000
21
1.643715
31
0.0
0
LINE
8
TOP
10
5.625000
20
1.643715
30
0.0
11
5.737500
21
1.640880
31
0.0
0
LINE
8
TOP
10
5.737500
20
1.640880
30
0.0
11
5.850000
21
1.638045
31
0.0
0
LINE
8
TOP
10
5.850000
20
1.638045
30
0.0
11
5.962500
21
1.635210
31
0.0
0
LINE
8
TOP
10
5.962500
20
1.635210
30
0.0
11
6.075000
21
1.632375
31
0.0
0
LINE
8
TOP
10
6.075000
20
1.632375
30
0.0
11
6.187500
21
1.629540
31
0.0
0
LINE
8
TOP
10
6.187500
20
1.629540
30
0.0
11
6.300000
21
1.626705
31
0.0
0
LINE
8
TOP
10
6.300000
20
1.626705
30
0.0
11
6.412500
21
1.623871
31
0.0
0
LINE
8
TOP
10
6.412500
20
1.623871
30
0.0
11
6.525000
21
1.621036
31
0.0
0
LINE
8
TOP
10
6.525000
20
1.621036
30
0.0
11
6.637500
21
1.618201
31
0.0
0
LINE
8
TOP
10
6.637500
20
1.618201
30
0.0
11
6.750000
21
1.615366
31
0.0
0
LINE
8
TOP
10
6.750000
20
1.615366
30
0.0
11
6.862500
21
1.612531
31
0.0
0
LINE
8
TOP
10
6.862500
20
1.612531
30
0.0
11
6.975000
21
1.609696
31
0.0
0
LINE
8
TOP
10
6.975000
20
1.609696
30
0.0
11
7.087500
21
1.606861
31
0.0
0
LINE
8
TOP
10
7.087500
20
1.606861
30
0.0
11
7.200000
21
1.604026
31
0.0
0
LINE
8
TOP
10
7.200000
20
1.604026
30
0.0
11
7.312500
21
1.601192
31
0.0
0
LINE
8
TOP
10
7.312500
20
1.601192
30
0.0
11
7.425000
21
1.598357
31
0.0
0
LINE
8
TOP
10
7.425000
20
1.598357
30
0.0
11
7.537500
21
1.595522
31
0.0
0
LINE
8
TOP
10
7.537500
20
1.595522
30
0.0
11
7.650000
21
1.592687
31
0.0
0
LINE
8
TOP
10
7.650000
20
1.592687
30
0.0
11
7.762500
21
1.589852
31
0.0
0
LINE
8
TOP
10
7.762500
20
1.589852
30
0.0
11
7.875000
21
1.587017
31
0.0
0
LINE
8
TOP
10
7.875000
20
1.587017
30
0.0
11
7.987500
21
1.584182
31
0.0
0
LINE
8
TOP
10
7.987500
20
1.584182
30
0.0
11
8.100000
21
1.581347
31
0.0
0
LINE
8
TOP
10
8.100000
20
1.581347
30
0.0
11
8.212500
21
1.578512
31
0.0
0
LINE
8
TOP
10
8.212500
20
1.578512
30
0.0
11
8.325000
21
1.575678
31
0.0
0
LINE
8
TOP
10
8.325000
20
1.575678
30
0.0
11
8.437500
21
1.572843
31
0.0
0
LINE
8
TOP
10
8.437500
20
1.572843
30
0.0
11
8.500000
21
1.571268
31
0.0
0
LINE
8
TOP
10
8.500000
20
1.571268
30
0.0
11
8.550000
21
1.570008
31
0.0
0
LINE
8
TOP
10
8.550000
20
1.570008
30
0.0
11
8.662500
21
1.567173
31
0.0
0
LINE
8
TOP
10
8.662500
20
1.567173
30
0.0
11
8.775000
21
1.564338
31
0.0
0
LINE
8
TOP
10
8.775000
20
1.564338
30
0.0
11
8.887500
21
1.561503
31
0.0
0
LINE
8
TOP
10
8.887500
20
1.561503
30
0.0
11
9.000000
21
1.558668
31
0.0
0
LINE
8
TOP
10
0.000000
20
2.079771
30
0.0
11
0.000000
21
1.558668
31
0.0
0
LINE
8
TOP
10
9.000000
20
2.079771
30
0.0
11
9.000000
21
1.558668
31
0.0
0
LINE
8
SECTION
10
10.352844
20
-0.356407
30
0.0
11
10.647156
21
-0.356407
31
0.0
0
LINE
8
SECTION
10
10.647156
20
-0.356407
30
0.0
11
10.647156
21
0.356407
31
0.0
0
LINE
8
SECTION
10
10.647156
20
0.356407
30
0.0
11
10.352844
21
0.356407
31
0.0
0
LINE
8
SECTION
10
10.352844
20
0.356407
30
0.0
11
10.352844
21
-0.356407
31
0.0
0
LINE
8
SECTION
10
10.403622
20
-0.305628
30
0.0
11
10.596378
21
-0.305628
31
0.0
0
LINE
8
SECTION
10
10.596378
20
-0.305628
30
0.0
11
10.596378
21
0.305628
31
0.0
0
LINE
8
SECTION
10
10.596378
20
0.305628
30
0.0
11
10.403622
21
0.305628
31
0.0
0
LINE
8
SECTION
10
10.403622
20
0.305628
30
0.0
11
10.403622
21
-0.305628
31
0.0
0
LINE
8
SECTION
10
10.403622
20
0.000000
30
0.0
11
10.454400
21
0.000000
31
0.0
0
LINE
8
SECTION
10
10.454400
20
0.000000
30
0.0
11
10.454400
21
0.305628
31
0.0
0
LINE
8
SECTION
10
10.454400
20
0.305628
30
0.0
11
10.403622
21
0.305628
31
0.0
0
LINE
8
SECTION
10
10.403622
20
0.305628
30
0.0
11
10.403622
21
0.000000
31
0.0
0
LINE
8
SECTION
10
10.403622
20
-0.305628
30
0.0
11
10.454400
21
-0.305628
31
0.0
0
LINE
8
SECTION
10
10.454400
20
-0.305628
30
0.0
11
10.454400
21
0.000000
31
0.0
0
LINE
8
SECTION
10
10.454400
20
0.000000
30
0.0
11
10.403622
21
0.000000
31
0.0
0
LINE
8
SECTION
10
10.403622
20
0.000000
30
0.0
11
10.403622
21
-0.305628
31
0.0
0
LINE
8
SECTION
10
10.545600
20
0.000000
30
0.0
11
10.596378
21
0.000000
31
0.0
0
LINE
8
SECTION
10
10.596378
20
0.000000
30
0.0
11
10.596378
21
0.305628
31
0.0
0
LINE
8
SECTION
10
10.596378
20
0.305628
30
0.0
11
10.545600
21
0.305628
31
0.0
0
LINE
8
SECTION
10
10.545600
20
0.305628
30
0.0
11
10.545600
21
0.000000
31
0.0
0
LINE
8
SECTION
10
10.545600
20
-0.305628
30
0.0
11
10.596378
21
-0.305628
31
0.0
0
LINE
8
SECTION
10
10.596378
20
-0.305628
30
0.0
11
10.596378
21
0.000000
31
0.0
0
LINE
8
SECTION
10
10.596378
20
0.000000
30
0.0
11
10.545600
21
0.000000
31
0.0
0
LINE
8
SECTION
10
10.545600
20
0.000000
30
0.0
11
10.545600
21
-0.305628
31
0.0
0
ENDSEC
0
EOF
