0
SECTION
2
HEADER
9
$INSUNITS
70
1
0
ENDSEC
0
SECTION
2
ENTITIES
0
LINE
8
FRONT
10
0.000000
20
0.277744
30
0.0
11
0.112500
21
0.278949
31
0.0
0
LINE
8
FRONT
10
0.112500
20
0.278949
30
0.0
11
0.225000
21
0.280154
31
0.0
0
LINE
8
FRONT
10
0.225000
20
0.280154
30
0.0
11
0.337500
21
0.281359
31
0.0
0
LINE
8
FRONT
10
0.337500
20
0.281359
30
0.0
11
0.450000
21
0.282564
31
0.0
0
LINE
8
FRONT
10
0.450000
20
0.282564
30
0.0
11
0.500000
21
0.283100
31
0.0
0
LINE
8
FRONT
10
0.500000
20
0.283100
30
0.0
11
0.562500
21
0.283770
31
0.0
0
LINE
8
FRONT
10
0.562500
20
0.283770
30
0.0
11
0.675000
21
0.284975
31
0.0
0
LINE
8
FRONT
10
0.675000
20
0.284975
30
0.0
11
0.787500
21
0.286180
31
0.0
0
LINE
8
FRONT
10
0.787500
20
0.286180
30
0.0
11
0.900000
21
0.287385
31
0.0
0
LINE
8
FRONT
10
0.900000
20
0.287385
30
0.0
11
1.012500
21
0.288590
31
0.0
0
LINE
8
FRONT
10
1.012500
20
0.288590
30
0.0
11
1.125000
21
0.289795
31
0.0
0
LINE
8
FRONT
10
1.125000
20
0.289795
30
0.0
11
1.237500
21
0.291001
31
0.0
0
LINE
8
FRONT
10
1.237500
20
0.291001
30
0.0
11
1.350000
21
0.292206
31
0.0
0
LINE
8
FRONT
10
1.350000
20
0.292206
30
0.0
11
1.462500
21
0.293411
31
0.0
0
LINE
8
FRONT
10
1.462500
20
0.293411
30
0.0
11
1.575000
21
0.294616
31
0.0
0
LINE
8
FRONT
10
1.575000
20
0.294616
30
0.0
11
1.687500
21
0.295821
31
0.0
0
LINE
8
FRONT
10
1.687500
20
0.295821
30
0.0
11
1.800000
21
0.297026
31
0.0
0
LINE
8
FRONT
10
1.800000
20
0.297026
30
0.0
11
1.912500
21
0.298231
31
0.0
0
LINE
8
FRONT
10
1.912500
20
0.298231
30
0.0
11
2.025000
21
0.299437
31
0.0
0
LINE
8
FRONT
10
2.025000
20
0.299437
30
0.0
11
2.137500
21
0.300642
31
0.0
0
LINE
8
FRONT
10
2.137500
20
0.300642
30
0.0
11
2.250000
21
0.301847
31
0.0
0
LINE
8
FRONT
10
2.250000
20
0.301847
30
0.0
11
2.362500
21
0.303052
31
0.0
0
LINE
8
FRONT
10
2.362500
20
0.303052
30
0.0
11
2.475000
21
0.304257
31
0.0
0
LINE
8
FRONT
10
2.475000
20
0.304257
30
0.0
11
2.587500
21
0.305462
31
0.0
0
LINE
8
FRONT
10
2.587500
20
0.305462
30
0.0
11
2.700000
21
0.306667
31
0.0
0
LINE
8
FRONT
10
2.700000
20
0.306667
30
0.0
11
2.812500
21
0.307873
31
0.0
0
LINE
8
FRONT
10
2.812500
20
0.307873
30
0.0
11
2.925000
21
0.309078
31
0.0
0
LINE
8
FRONT
10
2.925000
20
0.309078
30
0.0
11
3.037500
21
0.310283
31
0.0
0
LINE
8
FRONT
10
3.037500
20
0.310283
30
0.0
11
3.150000
21
0.311488
31
0.0
0
LINE
8
FRONT
10
3.150000
20
0.311488
30
0.0
11
3.262500
21
0.312693
31
0.0
0
LINE
8
FRONT
10
3.262500
20
0.312693
30
0.0
11
3.375000
21
0.313898
31
0.0
0
LINE
8
FRONT
10
3.375000
20
0.313898
30
0.0
11
3.487500
21
0.315103
31
0.0
0
LINE
8
FRONT
10
3.487500
20
0.315103
30
0.0
11
3.600000
21
0.316309
31
0.0
0
LINE
8
FRONT
10
3.600000
20
0.316309
30
0.0
11
3.712500
21
0.317514
31
0.0
0
LINE
8
FRONT
10
3.712500
20
0.317514
30
0.0
11
3.825000
21
0.318719
31
0.0
0
LINE
8
FRONT
10
3.825000
20
0.318719
30
0.0
11
3.937500
21
0.319924
31
0.0
0
LINE
8
FRONT
10
3.937500
20
0.319924
30
0.0
11
4.050000
21
0.321129
31
0.0
0
LINE
8
FRONT
10
4.050000
20
0.321129
30
0.0
11
4.162500
21
0.322334
31
0.0
0
LINE
8
FRONT
10
4.162500
20
0.322334
30
0.0
11
4.275000
21
0.323540
31
0.0
0
LINE
8
FRONT
10
4.275000
20
0.323540
30
0.0
11
4.387500
21
0.324745
31
0.0
0
LINE
8
FRONT
10
4.387500
20
0.324745
30
0.0
11
4.500000
21
0.325950
31
0.0
0
LINE
8
FRONT
10
4.500000
20
0.325950
30
0.0
11
4.612500
21
0.324745
31
0.0
0
LINE
8
FRONT
10
4.612500
20
0.324745
30
0.0
11
4.725000
21
0.323540
31
0.0
0
LINE
8
FRONT
10
4.725000
20
0.323540
30
0.0
11
4.837500
21
0.322334
31
0.0
0
LINE
8
FRONT
10
4.837500
20
0.322334
30
0.0
11
4.950000
21
0.321129
31
0.0
0
LINE
8
FRONT
10
4.950000
20
0.321129
30
0.0
11
5.062500
21
0.319924
31
0.0
0
LINE
8
FRONT
10
5.062500
20
0.319924
30
0.0
11
5.175000
21
0.318719
31
0.0
0
LINE
8
FRONT
10
5.175000
20
0.318719
30
0.0
11
5.287500
21
0.317514
31
0.0
0
LINE
8
FRONT
10
5.287500
20
0.317514
30
0.0
11
5.400000
21
0.316309
31
0.0
0
LINE
8
FRONT
10
5.400000
20
0.316309
30
0.0
11
5.512500
21
0.315103
31
0.0
0
LINE
8
FRONT
10
5.512500
20
0.315103
30
0.0
11
5.625000
21
0.313898
31
0.0
0
LINE
8
FRONT
10
5.625000
20
0.313898
30
0.0
11
5.737500
21
0.312693
31
0.0
0
LINE
8
FRONT
10
5.737500
20
0.312693
30
0.0
11
5.850000
21
0.311488
31
0.0
0
LINE
8
FRONT
10
5.850000
20
0.311488
30
0.0
11
5.962500
21
0.310283
31
0.0
0
LINE
8
FRONT
10
5.962500
20
0.310283
30
0.0
11
6.075000
21
0.309078
31
0.0
0
LINE
8
FRONT
10
6.075000
20
0.309078
30
0.0
11
6.187500
21
0.307873
31
0.0
0
LINE
8
FRONT
10
6.187500
20
0.307873
30
0.0
11
6.300000
21
0.306667
31
0.0
0
LINE
8
FRONT
10
6.300000
20
0.306667
30
0.0
11
6.412500
21
0.305462
31
0.0
0
LINE
8
FRONT
10
6.412500
20
0.305462
30
0.0
11
6.525000
21
0.304257
31
0.0
0
LINE
8
FRONT
10
6.525000
20
0.304257
30
0.0
11
6.637500
21
0.303052
31
0.0
0
LINE
8
FRONT
10
6.637500
20
0.303052
30
0.0
11
6.750000
21
0.301847
31
0.0
0
LINE
8
FRONT
10
6.750000
20
0.301847
30
0.0
11
6.862500
21
0.300642
31
0.0
0
LINE
8
FRONT
10
6.862500
20
0.300642
30
0.0
11
6.975000
21
0.299437
31
0.0
0
LINE
8
FRONT
10
6.975000
20
0.299437
30
0.0
11
7.087500
21
0.298231
31
0.0
0
LINE
8
FRONT
10
7.087500
20
0.298231
30
0.0
11
7.200000
21
0.297026
31
0.0
0
LINE
8
FRONT
10
7.200000
20
0.297026
30
0.0
11
7.312500
21
0.295821
31
0.0
0
LINE
8
FRONT
10
7.312500
20
0.295821
30
0.0
11
7.425000
21
0.294616
31
0.0
0
LINE
8
FRONT
10
7.425000
20
0.294616
30
0.0
11
7.537500
21
0.293411
31
0.0
0
LINE
8
FRONT
10
7.537500
20
0.293411
30
0.0
11
7.650000
21
0.292206
31
0.0
0
LINE
8
FRONT
10
7.650000
20
0.292206
30
0.0
11
7.762500
21
0.291001
31
0.0
0
LINE
8
FRONT
10
7.762500
20
0.291001
30
0.0
11
7.875000
21
0.289795
31
0.0
0
LINE
8
FRONT
10
7.875000
20
0.289795
30
0.0
11
7.987500
21
0.288590
31
0.0
0
LINE
8
FRONT
10
7.987500
20
0.288590
30
0.0
11
8.100000
21
0.287385
31
0.0
0
LINE
8
FRONT
10
8.100000
20
0.287385
30
0.0
11
8.212500
21
0.286180
31
0.0
0
LINE
8
FRONT
10
8.212500
20
0.286180
30
0.0
11
8.325000
21
0.284975
31
0.0
0
LINE
8
FRONT
10
8.325000
20
0.284975
30
0.0
11
8.437500
21
0.283770
31
0.0
0
LINE
8
FRONT
10
8.437500
20
0.283770
30
0.0
11
8.500000
21
0.283100
31
0.0
0
LINE
8
FRONT
10
8.500000
20
0.283100
30
0.0
11
8.550000
21
0.282564
31
0.0
0
LINE
8
FRONT
10
8.550000
20
0.282564
30
0.0
11
8.662500
21
0.281359
31
0.0
0
LINE
8
FRONT
10
8.662500
20
0.281359
30
0.0
11
8.775000
21
0.280154
31
0.0
0
LINE
8
FRONT
10
8.775000
20
0.280154
30
0.0
11
8.887500
21
0.278949
31
0.0
0
LINE
8
FRONT
10
8.887500
20
0.278949
30
0.0
11
9.000000
21
0.277744
31
0.0
0
LINE
8
FRONT
10
0.000000
20
-0.277744
30
0.0
11
0.112500
21
-0.278949
31
0.0
0
LINE
8
FRONT
10
0.112500
20
-0.278949
30
0.0
11
0.225000
21
-0.280154
31
0.0
0
LINE
8
FRONT
10
0.225000
20
-0.280154
30
0.0
11
0.337500
21
-0.281359
31
0.0
0
LINE
8
FRONT
10
0.337500
20
-0.281359
30
0.0
11
0.450000
21
-0.282564
31
0.0
0
LINE
8
FRONT
10
0.450000
20
-0.282564
30
0.0
11
0.500000
21
-0.283100
31
0.0
0
LINE
8
FRONT
10
0.500000
20
-0.283100
30
0.0
11
0.562500
21
-0.283770
31
0.0
0
LINE
8
FRONT
10
0.562500
20
-0.283770
30
0.0
11
0.675000
21
-0.284975
31
0.0
0
LINE
8
FRONT
10
0.675000
20
-0.284975
30
0.0
11
0.787500
21
-0.286180
31
0.0
0
LINE
8
FRONT
10
0.787500
20
-0.286180
30
0.0
11
0.900000
21
-0.287385
31
0.0
0
LINE
8
FRONT
10
0.900000
20
-0.287385
30
0.0
11
1.012500
21
-0.288590
31
0.0
0
LINE
8
FRONT
10
1.012500
20
-0.288590
30
0.0
11
1.125000
21
-0.289795
31
0.0
0
LINE
8
FRONT
10
1.125000
20
-0.289795
30
0.0
11
1.237500
21
-0.291001
31
0.0
0
LINE
8
FRONT
10
1.237500
20
-0.291001
30
0.0
11
1.350000
21
-0.292206
31
0.0
0
LINE
8
FRONT
10
1.350000
20
-0.292206
30
0.0
11
1.462500
21
-0.293411
31
0.0
0
LINE
8
FRONT
10
1.462500
20
-0.293411
30
0.0
11
1.575000
21
-0.294616
31
0.0
0
LINE
8
FRONT
10
1.575000
20
-0.294616
30
0.0
11
1.687500
21
-0.295821
31
0.0
0
LINE
8
FRONT
10
1.687500
20
-0.295821
30
0.0
11
1.800000
21
-0.297026
31
0.0
0
LINE
8
FRONT
10
1.800000
20
-0.297026
30
0.0
11
1.912500
21
-0.298231
31
0.0
0
LINE
8
FRONT
10
1.912500
20
-0.298231
30
0.0
11
2.025000
21
-0.299437
31
0.0
0
LINE
8
FRONT
10
2.025000
20
-0.299437
30
0.0
11
2.137500
21
-0.300642
31
0.0
0
LINE
8
FRONT
10
2.137500
20
-0.300642
30
0.0
11
2.250000
21
-0.301847
31
0.0
0
LINE
8
FRONT
10
2.250000
20
-0.301847
30
0.0
11
2.362500
21
-0.303052
31
0.0
0
LINE
8
FRONT
10
2.362500
20
-0.303052
30
0.0
11
2.475000
21
-0.304257
31
0.0
0
LINE
8
FRONT
10
2.475000
20
-0.304257
30
0.0
11
2.587500
21
-0.305462
31
0.0
0
LINE
8
FRONT
10
2.587500
20
-0.305462
30
0.0
11
2.700000
21
-0.306667
31
0.0
0
LINE
8
FRONT
10
2.700000
20
-0.306667
30
0.0
11
2.812500
21
-0.307873
31
0.0
0
LINE
8
FRONT
10
2.812500
20
-0.307873
30
0.0
11
2.925000
21
-0.309078
31
0.0
0
LINE
8
FRONT
10
2.925000
20
-0.309078
30
0.0
11
3.037500
21
-0.310283
31
0.0
0
LINE
8
FRONT
10
3.037500
20
-0.310283
30
0.0
11
3.150000
21
-0.311488
31
0.0
0
LINE
8
FRONT
10
3.150000
20
-0.311488
30
0.0
11
3.262500
21
-0.312693
31
0.0
0
LINE
8
FRONT
10
3.262500
20
-0.312693
30
0.0
11
3.375000
21
-0.313898
31
0.0
0
LINE
8
FRONT
10
3.375000
20
-0.313898
30
0.0
11
3.487500
21
-0.315103
31
0.0
0
LINE
8
FRONT
10
3.487500
20
-0.315103
30
0.0
11
3.600000
21
-0.316309
31
0.0
0
LINE
8
FRONT
10
3.600000
20
-0.316309
30
0.0
11
3.712500
21
-0.317514
31
0.0
0
LINE
8
FRONT
10
3.712500
20
-0.317514
30
0.0
11
3.825000
21
-0.318719
31
0.0
0
LINE
8
FRONT
10
3.825000
20
-0.318719
30
0.0
11
3.937500
21
-0.319924
31
0.0
0
LINE
8
FRONT
10
3.937500
20
-0.319924
30
0.0
11
4.050000
21
-0.321129
31
0.0
0
LINE
8
FRONT
10
4.050000
20
-0.321129
30
0.0
11
4.162500
21
-0.322334
31
0.0
0
LINE
8
FRONT
10
4.162500
20
-0.322334
30
0.0
11
4.275000
21
-0.323540
31
0.0
0
LINE
8
FRONT
10
4.275000
20
-0.323540
30
0.0
11
4.387500
21
-0.324745
31
0.0
0
LINE
8
FRONT
10
4.387500
20
-0.324745
30
0.0
11
4.500000
21
-0.325950
31
0.0
0
LINE
8
FRONT
10
4.500000
20
-0.325950
30
0.0
11
4.612500
21
-0.324745
31
0.0
0
LINE
8
FRONT
10
4.612500
20
-0.324745
30
0.0
11
4.725000
21
-0.323540
31
0.0
0
LINE
8
FRONT
10
4.725000
20
-0.323540
30
0.0
11
4.837500
21
-0.322334
31
0.0
0
LINE
8
FRONT
10
4.837500
20
-0.322334
30
0.0
11
4.950000
21
-0.321129
31
0.0
0
LINE
8
FRONT
10
4.950000
20
-0.321129
30
0.0
11
5.062500
21
-0.319924
31
0.0
0
LINE
8
FRONT
10
5.062500
20
-0.319924
30
0.0
11
5.175000
21
-0.318719
31
0.0
0
LINE
8
FRONT
10
5.175000
20
-0.318719
30
0.0
11
5.287500
21
-0.317514
31
0.0
0
LINE
8
FRONT
10
5.287500
20
-0.317514
30
0.0
11
5.400000
21
-0.316309
31
0.0
0
LINE
8
FRONT
10
5.400000
20
-0.316309
30
0.0
11
5.512500
21
-0.315103
31
0.0
0
LINE
8
FRONT
10
5.512500
20
-0.315103
30
0.0
11
5.625000
21
-0.313898
31
0.0
0
LINE
8
FRONT
10
5.625000
20
-0.313898
30
0.0
11
5.737500
21
-0.312693
31
0.0
0
LINE
8
FRONT
10
5.737500
20
-0.312693
30
0.0
11
5.850000
21
-0.311488
31
0.0
0
LINE
8
FRONT
10
5.850000
20
-0.311488
30
0.0
11
5.962500
21
-0.310283
31
0.0
0
LINE
8
FRONT
10
5.962500
20
-0.310283
30
0.0
11
6.075000
21
-0.309078
31
0.0
0
LINE
8
FRONT
10
6.075000
20
-0.309078
30
0.0
11
6.187500
21
-0.307873
31
0.0
0
LINE
8
FRONT
10
6.187500
20
-0.307873
30
0.0
11
6.300000
21
-0.306667
31
0.0
0
LINE
8
FRONT
10
6.300000
20
-0.306667
30
0.0
11
6.412500
21
-0.305462
31
0.0
0
LINE
8
FRONT
10
6.412500
20
-0.305462
30
0.0
11
6.525000
21
-0.304257
31
0.0
0
LINE
8
FRONT
10
6.525000
20
-0.304257
30
0.0
11
6.637500
21
-0.303052
31
0.0
0
LINE
8
FRONT
10
6.637500
20
-0.303052
30
0.0
11
6.750000
21
-0.301847
31
0.0
0
LINE
8
FRONT
10
6.750000
20
-0.301847
30
0.0
11
6.862500
21
-0.300642
31
0.0
0
LINE
8
FRONT
10
6.862500
20
-0.300642
30
0.0
11
6.975000
21
-0.299437
31
0.0
0
LINE
8
FRONT
10
6.975000
20
-0.299437
30
0.0
11
7.087500
21
-0.298231
31
0.0
0
LINE
8
FRONT
10
7.087500
20
-0.298231
30
0.0
11
7.200000
21
-0.297026
31
0.0
0
LINE
8
FRONT
10
7.200000
20
-0.297026
30
0.0
11
7.312500
21
-0.295821
31
0.0
0
LINE
8
FRONT
10
7.312500
20
-0.295821
30
0.0
11
7.425000
21
-0.294616
31
0.0
0
LINE
8
FRONT
10
7.425000
20
-0.294616
30
0.0
11
7.537500
21
-0.293411
31
0.0
0
LINE
8
FRONT
10
7.537500
20
-0.293411
30
0.0
11
7.650000
21
-0.292206
31
0.0
0
LINE
8
FRONT
10
7.650000
20
-0.292206
30
0.0
11
7.762500
21
-0.291001
31
0.0
0
LINE
8
FRONT
10
7.762500
20
-0.291001
30
0.0
11
7.875000
21
-0.289795
31
0.0
0
LINE
8
FRONT
10
7.875000
20
-0.289795
30
0.0
11
7.987500
21
-0.288590
31
0.0
0
LINE
8
FRONT
10
7.987500
20
-0.288590
30
0.0
11
8.100000
21
-0.287385
31
0.0
0
LINE
8
FRONT
10
8.100000
20
-0.287385
30
0.0
11
8.212500
21
-0.286180
31
0.0
0
LINE
8
FRONT
10
8.212500
20
-0.286180
30
0.0
11
8.325000
21
-0.284975
31
0.0
0
LINE
8
FRONT
10
8.325000
20
-0.284975
30
0.0
11
8.437500
21
-0.283770
31
0.0
0
LINE
8
FRONT
10
8.437500
20
-0.283770
30
0.0
11
8.500000
21
-0.283100
31
0.0
0
LINE
8
FRONT
10
8.500000
20
-0.283100
30
0.0
11
8.550000
21
-0.282564
31
0.0
0
LINE
8
FRONT
10
8.550000
20
-0.282564
30
0.0
11
8.662500
21
-0.281359
31
0.0
0
LINE
8
FRONT
10
8.662500
20
-0.281359
30
0.0
11
8.775000
21
-0.280154
31
0.0
0
LINE
8
FRONT
10
8.775000
20
-0.280154
30
0.0
11
8.887500
21
-0.278949
31
0.0
0
LINE
8
FRONT
10
8.887500
20
-0.278949
30
0.0
11
9.000000
21
-0.277744
31
0.0
0
LINE
8
FRONT
10
0.000000
20
0.277744
30
0.0
11
0.000000
21
-0.277744
31
0.0
0
LINE
8
FRONT
10
9.000000
20
0.277744
30
0.0
11
9.000000
21
-0.277744
31
0.0
0
LINE
8
TOP
10
0.000000
20
1.871654
30
0.0
11
0.112500
21
1.875466
31
0.0
0
LINE
8
TOP
10
0.112500
20
1.875466
30
0.0
11
0.225000
21
1.879278
31
0.0
0
LINE
8
TOP
10
0.225000
20
1.879278
30
0.0
11
0.337500
21
1.883090
31
0.0
0
LINE
8
TOP
10
0.337500
20
1.883090
30
0.0
11
0.450000
21
1.886902
31
0.0
0
LINE
8
TOP
10
0.450000
20
1.886902
30
0.0
11
0.500000
21
1.888596
31
0.0
0
LINE
8
TOP
10
0.500000
20
1.888596
30
0.0
11
0.562500
21
1.890714
31
0.0
0
LINE
8
TOP
10
0.562500
20
1.890714
30
0.0
11
0.675000
21
1.894526
31
0.0
0
LINE
8
TOP
10
0.675000
20
1.894526
30
0.0
11
0.787500
21
1.898338
31
0.0
0
LINE
8
TOP
10
0.787500
20
1.898338
30
0.0
11
0.900000
21
1.902150
31
0.0
0
LINE
8
TOP
10
0.900000
20
1.902150
30
0.0
11
1.012500
21
1.905962
31
0.0
0
LINE
8
TOP
10
1.012500
20
1.905962
30
0.0
11
1.125000
21
1.909774
31
0.0
0
LINE
8
TOP
10
1.125000
20
1.909774
30
0.0
11
1.237500
21
1.913586
31
0.0
0
LINE
8
TOP
10
1.237500
20
1.913586
30
0.0
11
1.350000
21
1.917398
31
0.0
0
LINE
8
TOP
10
1.350000
20
1.917398
30
0.0
11
1.462500
21
1.921210
31
0.0
0
LINE
8
TOP
10
1.462500
20
1.921210
30
0.0
11
1.575000
21
1.925022
31
0.0
0
LINE
8
TOP
10
1.575000
20
1.925022
30
0.0
11
1.687500
21
1.928834
31
0.0
0
LINE
8
TOP
10
1.687500
20
1.928834
30
0.0
11
1.800000
21
1.932646
31
0.0
0
LINE
8
TOP
10
1.800000
20
1.932646
30
0.0
11
1.912500
21
1.936458
31
0.0
0
LINE
8
TOP
10
1.912500
20
1.936458
30
0.0
11
2.025000
21
1.940270
31
0.0
0
LINE
8
TOP
10
2.025000
20
1.940270
30
0.0
11
2.137500
21
1.944082
31
0.0
0
LINE
8
TOP
10
2.137500
20
1.944082
30
0.0
11
2.250000
21
1.947894
31
0.0
0
LINE
8
TOP
10
2.250000
20
1.947894
30
0.0
11
2.362500
21
1.951706
31
0.0
0
LINE
8
TOP
10
2.362500
20
1.951706
30
0.0
11
2.475000
21
1.955518
31
0.0
0
LINE
8
TOP
10
2.475000
20
1.955518
30
0.0
11
2.587500
21
1.959330
31
0.0
0
LINE
8
TOP
10
2.587500
20
1.959330
30
0.0
11
2.700000
21
1.963142
31
0.0
0
LINE
8
TOP
10
2.700000
20
1.963142
30
0.0
11
2.812500
21
1.966954
31
0.0
0
LINE
8
TOP
10
2.812500
20
1.966954
30
0.0
11
2.925000
21
1.970766
31
0.0
0
LINE
8
TOP
10
2.925000
20
1.970766
30
0.0
11
3.037500
21
1.974578
31
0.0
0
LINE
8
TOP
10
3.037500
20
1.974578
30
0.0
11
3.150000
21
1.978390
31
0.0
0
LINE
8
TOP
10
3.150000
20
1.978390
30
0.0
11
3.262500
21
1.982202
31
0.0
0
LINE
8
TOP
10
3.262500
20
1.982202
30
0.0
11
3.375000
21
1.986014
31
0.0
0
LINE
8
TOP
10
3.375000
20
1.986014
30
0.0
11
3.487500
21
1.989826
31
0.0
0
LINE
8
TOP
10
3.487500
20
1.989826
30
0.0
11
3.600000
21
1.993638
31
0.0
0
LINE
8
TOP
10
3.600000
20
1.993638
30
0.0
11
3.712500
21
1.997450
31
0.0
0
LINE
8
TOP
10
3.712500
20
1.997450
30
0.0
11
3.825000
21
2.001262
31
0.0
0
LINE
8
TOP
10
3.825000
20
2.001262
30
0.0
11
3.937500
21
2.005074
31
0.0
0
LINE
8
TOP
10
3.937500
20
2.005074
30
0.0
11
4.050000
21
2.008886
31
0.0
0
LINE
8
TOP
10
4.050000
20
2.008886
30
0.0
11
4.162500
21
2.012698
31
0.0
0
LINE
8
TOP
10
4.162500
20
2.012698
30
0.0
11
4.275000
21
2.016510
31
0.0
0
LINE
8
TOP
10
4.275000
20
2.016510
30
0.0
11
4.387500
21
2.020322
31
0.0
0
LINE
8
TOP
10
4.387500
20
2.020322
30
0.0
11
4.500000
21
2.024134
31
0.0
0
LINE
8
TOP
10
4.500000
20
2.024134
30
0.0
11
4.612500
21
2.020322
31
0.0
0
LINE
8
TOP
10
4.612500
20
2.020322
30
0.0
11
4.725000
21
2.016510
31
0.0
0
LINE
8
TOP
10
4.725000
20
2.016510
30
0.0
11
4.837500
21
2.012698
31
0.0
0
LINE
8
TOP
10
4.837500
20
2.012698
30
0.0
11
4.950000
21
2.008886
31
0.0
0
LINE
8
TOP
10
4.950000
20
2.008886
30
0.0
11
5.062500
21
2.005074
31
0.0
0
LINE
8
TOP
10
5.062500
20
2.005074
30
0.0
11
5.175000
21
2.001262
31
0.0
0
LINE
8
TOP
10
5.175000
20
2.001262
30
0.0
11
5.287500
21
1.997450
31
0.0
0
LINE
8
TOP
10
5.287500
20
1.997450
30
0.0
11
5.400000
21
1.993638
31
0.0
0
LINE
8
TOP
10
5.400000
20
1.993638
30
0.0
11
5.512500
21
1.989826
31
0.0
0
LINE
8
TOP
10
5.512500
20
1.989826
30
0.0
11
5.625000
21
1.986014
31
0.0
0
LINE
8
TOP
10
5.625000
20
1.986014
30
0.0
11
5.737500
21
1.982202
31
0.0
0
LINE
8
TOP
10
5.737500
20
1.982202
30
0.0
11
5.850000
21
1.978390
31
0.0
0
LINE
8
TOP
10
5.850000
20
1.978390
30
0.0
11
5.962500
21
1.974578
31
0.0
0
LINE
8
TOP
10
5.962500
20
1.974578
30
0.0
11
6.075000
21
1.970766
31
0.0
0
LINE
8
TOP
10
6.075000
20
1.970766
30
0.0
11
6.187500
21
1.966954
31
0.0
0
LINE
8
TOP
10
6.187500
20
1.966954
30
0.0
11
6.300000
21
1.963142
31
0.0
0
LINE
8
TOP
10
6.300000
20
1.963142
30
0.0
11
6.412500
21
1.959330
31
0.0
0
LINE
8
TOP
10
6.412500
20
1.959330
30
0.0
11
6.525000
21
1.955518
31
0.0
0
LINE
8
TOP
10
6.525000
20
1.955518
30
0.0
11
6.637500
21
1.951706
31
0.0
0
LINE
8
TOP
10
6.637500
20
1.951706
30
0.0
11
6.750000
21
1.947894
31
0.0
0
LINE
8
TOP
10
6.750000
20
1.947894
30
0.0
11
6.862500
21
1.944082
31
0.0
0
LINE
8
TOP
10
6.862500
20
1.944082
30
0.0
11
6.975000
21
1.940270
31
0.0
0
LINE
8
TOP
10
6.975000
20
1.940270
30
0.0
11
7.087500
21
1.936458
31
0.0
0
LINE
8
TOP
10
7.087500
20
1.936458
30
0.0
11
7.200000
21
1.932646
31
0.0
0
LINE
8
TOP
10
7.200000
20
1.932646
30
0.0
11
7.312500
21
1.928834
31
0.0
0
LINE
8
TOP
10
7.312500
20
1.928834
30
0.0
11
7.425000
21
1.925022
31
0.0
0
LINE
8
TOP
10
7.425000
20
1.925022
30
0.0
11
7.537500
21
1.921210
31
0.0
0
LINE
8
TOP
10
7.537500
20
1.921210
30
0.0
11
7.650000
21
1.917398
31
0.0
0
LINE
8
TOP
10
7.650000
20
1.917398
30
0.0
11
7.762500
21
1.913586
31
0.0
0
LINE
8
TOP
10
7.762500
20
1.913586
30
0.0
11
7.875000
21
1.909774
31
0.0
0
LINE
8
TOP
10
7.875000
20
1.909774
30
0.0
11
7.987500
21
1.905962
31
0.0
0
LINE
8
TOP
10
7.987500
20
1.905962
30
0.0
11
8.100000
21
1.902150
31
0.0
0
LINE
8
TOP
10
8.100000
20
1.902150
30
0.0
11
8.212500
21
1.898338
31
0.0
0
LINE
8
TOP
10
8.212500
20
1.898338
30
0.0
11
8.325000
21
1.894526
31
0.0
0
LINE
8
TOP
10
8.325000
20
1.894526
30
0.0
11
8.437500
21
1.890714
31
0.0
0
LINE
8
TOP
10
8.437500
20
1.890714
30
0.0
11
8.500000
21
1.888596
31
0.0
0
LINE
8
TOP
10
8.500000
20
1.888596
30
0.0
11
8.550000
21
1.886902
31
0.0
0
LINE
8
TOP
10
8.550000
20
1.886902
30
0.0
11
8.662500
21
1.883090
31
0.0
0
LINE
8
TOP
10
8.662500
20
1.883090
30
0.0
11
8.775000
21
1.879278
31
0.0
0
LINE
8
TOP
10
8.775000
20
1.879278
30
0.0
11
8.887500
21
1.875466
31
0.0
0
LINE
8
TOP
10
8.887500
20
1.875466
30
0.0
11
9.000000
21
1.871654
31
0.0
0
LINE
8
TOP
10
0.000000
20
1.584045
30
0.0
11
0.112500
21
1.580233
31
0.0
0
LINE
8
TOP
10
0.112500
20
1.580233
30
0.0
11
0.225000
21
1.576421
31
0.0
0
LINE
8
TOP
10
0.225000
20
1.576421
30
0.0
11
0.337500
21
1.572609
31
0.0
0
LINE
8
TOP
10
0.337500
20
1.572609
30
0.0
11
0.450000
21
1.568797
31
0.0
0
LINE
8
TOP
10
0.450000
20
1.568797
30
0.0
11
0.500000
21
1.567103
31
0.0
0
LINE
8
TOP
10
0.500000
20
1.567103
30
0.0
11
0.562500
21
1.564985
31
0.0
0
LINE
8
TOP
10
0.562500
20
1.564985
30
0.0
11
0.675000
21
1.561173
31
0.0
0
LINE
8
TOP
10
0.675000
20
1.561173
30
0.0
11
0.787500
21
1.557361
31
0.0
0
LINE
8
TOP
10
0.787500
20
1.557361
30
0.0
11
0.900000
21
1.553549
31
0.0
0
LINE
8
TOP
10
0.900000
20
1.553549
30
0.0
11
1.012500
21
1.549737
31
0.0
0
LINE
8
TOP
10
1.012500
20
1.549737
30
0.0
11
1.125000
21
1.545925
31
0.0
0
LINE
8
TOP
10
1.125000
20
1.545925
30
0.0
11
1.237500
21
1.542113
31
0.0
0
LINE
8
TOP
10
1.237500
20
1.542113
30
0.0
11
1.350000
21
1.538301
31
0.0
0
LINE
8
TOP
10
1.350000
20
1.538301
30
0.0
11
1.462500
21
1.534489
31
0.0
0
LINE
8
TOP
10
1.462500
20
1.534489
30
0.0
11
1.575000
21
1.530677
31
0.0
0
LINE
8
TOP
10
1.575000
20
1.530677
30
0.0
11
1.687500
21
1.526865
31
0.0
0
LINE
8
TOP
10
1.687500
20
1.526865
30
0.0
11
1.800000
21
1.523053
31
0.0
0
LINE
8
TOP
10
1.800000
20
1.523053
30
0.0
11
1.912500
21
1.519241
31
0.0
0
LINE
8
TOP
10
1.912500
20
1.519241
30
0.0
11
2.025000
21
1.515429
31
0.0
0
LINE
8
TOP
10
2.025000
20
1.515429
30
0.0
11
2.137500
21
1.511617
31
0.0
0
LINE
8
TOP
10
2.137500
20
1.511617
30
0.0
11
2.250000
21
1.507805
31
0.0
0
LINE
8
TOP
10
2.250000
20
1.507805
30
0.0
11
2.362500
21
1.503993
31
0.0
0
LINE
8
TOP
10
2.362500
20
1.503993
30
0.0
11
2.475000
21
1.500181
31
0.0
0
LINE
8
TOP
10
2.475000
20
1.500181
30
0.0
11
2.587500
21
1.496369
31
0.0
0
LINE
8
TOP
10
2.587500
20
1.496369
30
0.0
11
2.700000
21
1.492557
31
0.0
0
LINE
8
TOP
10
2.700000
20
1.492557
30
0.0
11
2.812500
21
1.488745
31
0.0
0
LINE
8
TOP
10
2.812500
20
1.488745
30
0.0
11
2.925000
21
1.484933
31
0.0
0
LINE
8
TOP
10
2.925000
20
1.484933
30
0.0
11
3.037500
21
1.481121
31
0.0
0
LINE
8
TOP
10
3.037500
20
1.481121
30
0.0
11
3.150000
21
1.477309
31
0.0
0
LINE
8
TOP
10
3.150000
20
1.477309
30
0.0
11
3.262500
21
1.473497
31
0.0
0
LINE
8
TOP
10
3.262500
20
1.473497
30
0.0
11
3.375000
21
1.469685
31
0.0
0
LINE
8
TOP
10
3.375000
20
1.469685
30
0.0
11
3.487500
21
1.465873
31
0.0
0
LINE
8
TOP
10
3.487500
20
1.465873
30
0.0
11
3.600000
21
1.462061
31
0.0
0
LINE
8
TOP
10
3.600000
20
1.462061
30
0.0
11
3.712500
21
1.458249
31
0.0
0
LINE
8
TOP
10
3.712500
20
1.458249
30
0.0
11
3.825000
21
1.454437
31
0.0
0
LINE
8
TOP
10
3.825000
20
1.454437
30
0.0
11
3.937500
21
1.450625
31
0.0
0
LINE
8
TOP
10
3.937500
20
1.450625
30
0.0
11
4.050000
21
1.446813
31
0.0
0
LINE
8
TOP
10
4.050000
20
1.446813
30
0.0
11
4.162500
21
1.443001
31
0.0
0
LINE
8
TOP
10
4.162500
20
1.443001
30
0.0
11
4.275000
21
1.439189
31
0.0
0
LINE
8
TOP
10
4.275000
20
1.439189
30
0.0
11
4.387500
21
1.435377
31
0.0
0
LINE
8
TOP
10
4.387500
20
1.435377
30
0.0
11
4.500000
21
1.431565
31
0.0
0
LINE
8
TOP
10
4.500000
20
1.431565
30
0.0
11
4.612500
21
1.435377
31
0.0
0
LINE
8
TOP
10
4.612500
20
1.435377
30
0.0
11
4.725000
21
1.439189
31
0.0
0
LINE
8
TOP
10
4.725000
20
1.439189
30
0.0
11
4.837500
21
1.443001
31
0.0
0
LINE
8
TOP
10
4.837500
20
1.443001
30
0.0
11
4.950000
21
1.446813
31
0.0
0
LINE
8
TOP
10
4.950000
20
1.446813
30
0.0
11
5.062500
21
1.450625
31
0.0
0
LINE
8
TOP
10
5.062500
20
1.450625
30
0.0
11
5.175000
21
1.454437
31
0.0
0
LINE
8
TOP
10
5.175000
20
1.454437
30
0.0
11
5.287500
21
1.458249
31
0.0
0
LINE
8
TOP
10
5.287500
20
1.458249
30
0.0
11
5.400000
21
1.462061
31
0.0
0
LINE
8
TOP
10
5.400000
20
1.462061
30
0.0
11
5.512500
21
1.465873
31
0.0
0
LINE
8
TOP
10
5.512500
20
1.465873
30
0.0
11
5.625000
21
1.469685
31
0.0
0
LINE
8
TOP
10
5.625000
20
1.469685
30
0.0
11
5.737500
21
1.473497
31
0.0
0
LINE
8
TOP
10
5.737500
20
1.473497
30
0.0
11
5.850000
21
1.477309
31
0.0
0
LINE
8
TOP
10
5.850000
20
1.477309
30
0.0
11
5.962500
21
1.481121
31
0.0
0
LINE
8
TOP
10
5.962500
20
1.481121
30
0.0
11
6.075000
21
1.484933
31
0.0
0
LINE
8
TOP
10
6.075000
20
1.484933
30
0.0
11
6.187500
21
1.488745
31
0.0
0
LINE
8
TOP
10
6.187500
20
1.488745
30
0.0
11
6.300000
21
1.492557
31
0.0
0
LINE
8
TOP
10
6.300000
20
1.492557
30
0.0
11
6.412500
21
1.496369
31
0.0
0
LINE
8
TOP
10
6.412500
20
1.496369
30
0.0
11
6.525000
21
1.500181
31
0.0
0
LINE
8
TOP
10
6.525000
20
1.500181
30
0.0
11
6.637500
21
1.503993
31
0.0
0
LINE
8
TOP
10
6.637500
20
1.503993
30
0.0
11
6.750000
21
1.507805
31
0.0
0
LINE
8
TOP
10
6.750000
20
1.507805
30
0.0
11
6.862500
21
1.511617
31
0.0
0
LINE
8
TOP
10
6.862500
20
1.511617
30
0.0
11
6.975000
21
1.515429
31
0.0
0
LINE
8
TOP
10
6.975000
20
1.515429
30
0.0
11
7.087500
21
1.519241
31
0.0
0
LINE
8
TOP
10
7.087500
20
1.519241
30
0.0
11
7.200000
21
1.523053
31
0.0
0
LINE
8
TOP
10
7.200000
20
1.523053
30
0.0
11
7.312500
21
1.526865
31
0.0
0
LINE
8
TOP
10
7.312500
20
1.526865
30
0.0
11
7.425000
21
1.530677
31
0.0
0
LINE
8
TOP
10
7.425000
20
1.530677
30
0.0
11
7.537500
21
1.534489
31
0.0
0
LINE
8
TOP
10
7.537500
20
1.534489
30
0.0
11
7.650000
21
1.538301
31
0.0
0
LINE
8
TOP
10
7.650000
20
1.538301
30
0.0
11
7.762500
21
1.542113
31
0.0
0
LINE
8
TOP
10
7.762500
20
1.542113
30
0.0
11
7.875000
21
1.545925
31
0.0
0
LINE
8
TOP
10
7.875000
20
1.545925
30
0.0
11
7.987500
21
1.549737
31
0.0
0
LINE
8
TOP
10
7.987500
20
1.549737
30
0.0
11
8.100000
21
1.553549
31
0.0
0
LINE
8
TOP
10
8.100000
20
1.553549
30
0.0
11
8.212500
21
1.557361
31
0.0
0
LINE
8
TOP
10
8.212500
20
1.557361
30
0.0
11
8.325000
21
1.561173
31
0.0
0
LINE
8
TOP
10
8.325000
20
1.561173
30
0.0
11
8.437500
21
1.564985
31
0.0
0
LINE
8
TOP
10
8.437500
20
1.564985
30
0.0
11
8.500000
21
1.567103
31
0.0
0
LINE
8
TOP
10
8.500000
20
1.567103
30
0.0
11
8.550000
21
1.568797
31
0.0
0
LINE
8
TOP
10
8.550000
20
1.568797
30
0.0
11
8.662500
21
1.572609
31
0.0
0
LINE
8
TOP
10
8.662500
20
1.572609
30
0.0
11
8.775000
21
1.576421
31
0.0
0
LINE
8
TOP
10
8.775000
20
1.576421
30
0.0
11
8.887500
21
1.580233
31
0.0
0
LINE
8
TOP
10
8.887500
20
1.580233
30
0.0
11
9.000000
21
1.584045
31
0.0
0
LINE
8
TOP
10
0.000000
20
1.871654
30
0.0
11
0.000000
21
1.584045
31
0.0
0
LINE
8
TOP
10
9.000000
20
1.871654
30
0.0
11
9.000000
21
1.584045
31
0.0
0
LINE
8
SECTION
10
10.203716
20
-0.325950
30
0.0
11
10.796284
21
-0.325950
31
0.0
0
LINE
8
SECTION
10
10.796284
20
-0.325950
30
0.0
11
10.796284
21
0.325950
31
0.0
0
LINE
8
SECTION
10
10.796284
20
0.325950
30
0.0
11
10.203716
21
0.325950
31
0.0
0
LINE
8
SECTION
10
10.203716
20
0.325950
30
0.0
11
10.203716
21
-0.325950
31
0.0
0
LINE
8
SECTION
10
10.243716
20
-0.285950
30
0.0
11
10.756284
21
-0.285950
31
0.0
0
LINE
8
SECTION
10
10.756284
20
-0.285950
30
0.0
11
10.756284
21
0.285950
31
0.0
0
LINE
8
SECTION
10
10.756284
20
0.285950
30
0.0
11
10.243716
21
0.285950
31
0.0
0
LINE
8
SECTION
10
10.243716
20
0.285950
30
0.0
11
10.243716
21
-0.285950
31
0.0
0
LINE
8
SECTION
10
10.243716
20
0.211252
30
0.0
11
10.283716
21
0.211252
31
0.0
0
LINE
8
SECTION
10
10.283716
20
0.211252
30
0.0
11
10.283716
21
0.285950
31
0.0
0
LINE
8
SECTION
10
10.283716
20
0.285950
30
0.0
11
10.243716
21
0.285950
31
0.0
0
LINE
8
SECTION
10
10.243716
20
0.285950
30
0.0
11
10.243716
21
0.211252
31
0.0
0
LINE
8
SECTION
10
10.243716
20
-0.285950
30
0.0
11
10.283716
21
-0.285950
31
0.0
0
LINE
8
SECTION
10
10.283716
20
-0.285950
30
0.0
11
10.283716
21
-0.211252
31
0.0
0
LINE
8
SECTION
10
10.283716
20
-0.211252
30
0.0
11
10.243716
21
-0.211252
31
0.0
0
LINE
8
SECTION
10
10.243716
20
-0.211252
30
0.0
11
10.243716
21
-0.285950
31
0.0
0
LINE
8
SECTION
10
10.716284
20
0.211252
30
0.0
11
10.756284
21
0.211252
31
0.0
0
LINE
8
SECTION
10
10.756284
20
0.211252
30
0.0
11
10.756284
21
0.285950
31
0.0
0
LINE
8
SECTION
10
10.756284
20
0.285950
30
0.0
11
10.716284
21
0.285950
31
0.0
0
LINE
8
SECTION
10
10.716284
20
0.285950
30
0.0
11
10.716284
21
0.211252
31
0.0
0
LINE
8
SECTION
10
10.716284
20
-0.285950
30
0.0
11
10.756284
21
-0.285950
31
0.0
0
LINE
8
SECTION
10
10.756284
20
-0.285950
30
0.0
11
10.756284
21
-0.211252
31
0.0
0
LINE
8
SECTION
10
10.756284
20
-0.211252
30
0.0
11
10.716284
21
-0.211252
31
0.0
0
LINE
8
SECTION
10
10.716284
20
-0.211252
30
0.0
11
10.716284
21
-0.285950
31
0.0
0
ENDSEC
0
EOF
