0
SECTION
2
HEADER
9
$INSUNITS
70
1
0
ENDSEC
0
SECTION
2
ENTITIES
0
LINE
8
FRONT
10
0.000000
20
0.149770
30
0.0
11
0.112500
21
0.153699
31
0.0
0
LINE
8
FRONT
10
0.112500
20
0.153699
30
0.0
11
0.225000
21
0.157628
31
0.0
0
LINE
8
FRONT
10
0.225000
20
0.157628
30
0.0
11
0.337500
21
0.161557
31
0.0
0
LINE
8
FRONT
10
0.337500
20
0.161557
30
0.0
11
0.450000
21
0.165486
31
0.0
0
LINE
8
FRONT
10
0.450000
20
0.165486
30
0.0
11
0.500000
21
0.167232
31
0.0
0
LINE
8
FRONT
10
0.500000
20
0.167232
30
0.0
11
0.562500
21
0.169415
31
0.0
0
LINE
8
FRONT
10
0.562500
20
0.169415
30
0.0
11
0.675000
21
0.173344
31
0.0
0
LINE
8
FRONT
10
0.675000
20
0.173344
30
0.0
11
0.787500
21
0.177273
31
0.0
0
LINE
8
FRONT
10
0.787500
20
0.177273
30
0.0
11
0.900000
21
0.181202
31
0.0
0
LINE
8
FRONT
10
0.900000
20
0.181202
30
0.0
11
1.012500
21
0.185131
31
0.0
0
LINE
8
FRONT
10
1.012500
20
0.185131
30
0.0
11
1.125000
21
0.189060
31
0.0
0
LINE
8
FRONT
10
1.125000
20
0.189060
30
0.0
11
1.237500
21
0.192989
31
0.0
0
LINE
8
FRONT
10
1.237500
20
0.192989
30
0.0
11
1.350000
21
0.196918
31
0.0
0
LINE
8
FRONT
10
1.350000
20
0.196918
30
0.0
11
1.462500
21
0.200848
31
0.0
0
LINE
8
FRONT
10
1.462500
20
0.200848
30
0.0
11
1.575000
21
0.204777
31
0.0
0
LINE
8
FRONT
10
1.575000
20
0.204777
30
0.0
11
1.687500
21
0.208706
31
0.0
0
LINE
8
FRONT
10
1.687500
20
0.208706
30
0.0
11
1.800000
21
0.212635
31
0.0
0
LINE
8
FRONT
10
1.800000
20
0.212635
30
0.0
11
1.912500
21
0.216564
31
0.0
0
LINE
8
FRONT
10
1.912500
20
0.216564
30
0.0
11
2.025000
21
0.220493
31
0.0
0
LINE
8
FRONT
10
2.025000
20
0.220493
30
0.0
11
2.137500
21
0.224422
31
0.0
0
LINE
8
FRONT
10
2.137500
20
0.224422
30
0.0
11
2.250000
21
0.228351
31
0.0
0
LINE
8
FRONT
10
2.250000
20
0.228351
30
0.0
11
2.362500
21
0.232280
31
0.0
0
LINE
8
FRONT
10
2.362500
20
0.232280
30
0.0
11
2.475000
21
0.236209
31
0.0
0
LINE
8
FRONT
10
2.475000
20
0.236209
30
0.0
11
2.587500
21
0.240138
31
0.0
0
LINE
8
FRONT
10
2.587500
20
0.240138
30
0.0
11
2.700000
21
0.244067
31
0.0
0
LINE
8
FRONT
10
2.700000
20
0.244067
30
0.0
11
2.812500
21
0.247996
31
0.0
0
LINE
8
FRONT
10
2.812500
20
0.247996
30
0.0
11
2.925000
21
0.251926
31
0.0
0
LINE
8
FRONT
10
2.925000
20
0.251926
30
0.0
11
3.037500
21
0.255855
31
0.0
0
LINE
8
FRONT
10
3.037500
20
0.255855
30
0.0
11
3.150000
21
0.259784
31
0.0
0
LINE
8
FRONT
10
3.150000
20
0.259784
30
0.0
11
3.262500
21
0.263713
31
0.0
0
LINE
8
FRONT
10
3.262500
20
0.263713
30
0.0
11
3.375000
21
0.267642
31
0.0
0
LINE
8
FRONT
10
3.375000
20
0.267642
30
0.0
11
3.487500
21
0.271571
31
0.0
0
LINE
8
FRONT
10
3.487500
20
0.271571
30
0.0
11
3.600000
21
0.275500
31
0.0
0
LINE
8
FRONT
10
3.600000
20
0.275500
30
0.0
11
3.712500
21
0.279429
31
0.0
0
LINE
8
FRONT
10
3.712500
20
0.279429
30
0.0
11
3.825000
21
0.283358
31
0.0
0
LINE
8
FRONT
10
3.825000
20
0.283358
30
0.0
11
3.937500
21
0.287287
31
0.0
0
LINE
8
FRONT
10
3.937500
20
0.287287
30
0.0
11
4.050000
21
0.291216
31
0.0
0
LINE
8
FRONT
10
4.050000
20
0.291216
30
0.0
11
4.162500
21
0.295145
31
0.0
0
LINE
8
FRONT
10
4.162500
20
0.295145
30
0.0
11
4.275000
21
0.299074
31
0.0
0
LINE
8
FRONT
10
4.275000
20
0.299074
30
0.0
11
4.387500
21
0.303004
31
0.0
0
LINE
8
FRONT
10
4.387500
20
0.303004
30
0.0
11
4.500000
21
0.306933
31
0.0
0
LINE
8
FRONT
10
4.500000
20
0.306933
30
0.0
11
4.612500
21
0.304352
31
0.0
0
LINE
8
FRONT
10
4.612500
20
0.304352
30
0.0
11
4.725000
21
0.301770
31
0.0
0
LINE
8
FRONT
10
4.725000
20
0.301770
30
0.0
11
4.837500
21
0.299189
31
0.0
0
LINE
8
FRONT
10
4.837500
20
0.299189
30
0.0
11
4.950000
21
0.296608
31
0.0
0
LINE
8
FRONT
10
4.950000
20
0.296608
30
0.0
11
5.062500
21
0.294027
31
0.0
0
LINE
8
FRONT
10
5.062500
20
0.294027
30
0.0
11
5.175000
21
0.291446
31
0.0
0
LINE
8
FRONT
10
5.175000
20
0.291446
30
0.0
11
5.287500
21
0.288865
31
0.0
0
LINE
8
FRONT
10
5.287500
20
0.288865
30
0.0
11
5.400000
21
0.286284
31
0.0
0
LINE
8
FRONT
10
5.400000
20
0.286284
30
0.0
11
5.512500
21
0.283703
31
0.0
0
LINE
8
FRONT
10
5.512500
20
0.283703
30
0.0
11
5.625000
21
0.281122
31
0.0
0
LINE
8
FRONT
10
5.625000
20
0.281122
30
0.0
11
5.737500
21
0.278541
31
0.0
0
LINE
8
FRONT
10
5.737500
20
0.278541
30
0.0
11
5.850000
21
0.275960
31
0.0
0
LINE
8
FRONT
10
5.850000
20
0.275960
30
0.0
11
5.962500
21
0.273379
31
0.0
0
LINE
8
FRONT
10
5.962500
20
0.273379
30
0.0
11
6.075000
21
0.270798
31
0.0
0
LINE
8
FRONT
10
6.075000
20
0.270798
30
0.0
11
6.187500
21
0.268217
31
0.0
0
LINE
8
FRONT
10
6.187500
20
0.268217
30
0.0
11
6.300000
21
0.265636
31
0.0
0
LINE
8
FRONT
10
6.300000
20
0.265636
30
0.0
11
6.412500
21
0.263055
31
0.0
0
LINE
8
FRONT
10
6.412500
20
0.263055
30
0.0
11
6.525000
21
0.260474
31
0.0
0
LINE
8
FRONT
10
6.525000
20
0.260474
30
0.0
11
6.637500
21
0.257893
31
0.0
0
LINE
8
FRONT
10
6.637500
20
0.257893
30
0.0
11
6.750000
21
0.255312
31
0.0
0
LINE
8
FRONT
10
6.750000
20
0.255312
30
0.0
11
6.862500
21
0.252731
31
0.0
0
LINE
8
FRONT
10
6.862500
20
0.252731
30
0.0
11
6.975000
21
0.250150
31
0.0
0
LINE
8
FRONT
10
6.975000
20
0.250150
30
0.0
11
7.087500
21
0.247569
31
0.0
0
LINE
8
FRONT
10
7.087500
20
0.247569
30
0.0
11
7.200000
21
0.244987
31
0.0
0
LINE
8
FRONT
10
7.200000
20
0.244987
30
0.0
11
7.312500
21
0.242406
31
0.0
0
LINE
8
FRONT
10
7.312500
20
0.242406
30
0.0
11
7.425000
21
0.239825
31
0.0
0
LINE
8
FRONT
10
7.425000
20
0.239825
30
0.0
11
7.537500
21
0.237244
31
0.0
0
LINE
8
FRONT
10
7.537500
20
0.237244
30
0.0
11
7.650000
21
0.234663
31
0.0
0
LINE
8
FRONT
10
7.650000
20
0.234663
30
0.0
11
7.762500
21
0.232082
31
0.0
0
LINE
8
FRONT
10
7.762500
20
0.232082
30
0.0
11
7.875000
21
0.229501
31
0.0
0
LINE
8
FRONT
10
7.875000
20
0.229501
30
0.0
11
7.987500
21
0.226920
31
0.0
0
LINE
8
FRONT
10
7.987500
20
0.226920
30
0.0
11
8.100000
21
0.224339
31
0.0
0
LINE
8
FRONT
10
8.100000
20
0.224339
30
0.0
11
8.212500
21
0.221758
31
0.0
0
LINE
8
FRONT
10
8.212500
20
0.221758
30
0.0
11
8.325000
21
0.219177
31
0.0
0
LINE
8
FRONT
10
8.325000
20
0.219177
30
0.0
11
8.437500
21
0.216596
31
0.0
0
LINE
8
FRONT
10
8.437500
20
0.216596
30
0.0
11
8.500000
21
0.215162
31
0.0
0
LINE
8
FRONT
10
8.500000
20
0.215162
30
0.0
11
8.550000
21
0.214015
31
0.0
0
LINE
8
FRONT
10
8.550000
20
0.214015
30
0.0
11
8.662500
21
0.211434
31
0.0
0
LINE
8
FRONT
10
8.662500
20
0.211434
30
0.0
11
8.775000
21
0.208853
31
0.0
0
LINE
8
FRONT
10
8.775000
20
0.208853
30
0.0
11
8.887500
21
0.206272
31
0.0
0
LINE
8
FRONT
10
8.887500
20
0.206272
30
0.0
11
9.000000
21
0.203691
31
0.0
0
LINE
8
FRONT
10
0.000000
20
-0.149770
30
0.0
11
0.112500
21
-0.153699
31
0.0
0
LINE
8
FRONT
10
0.112500
20
-0.153699
30
0.0
11
0.225000
21
-0.157628
31
0.0
0
LINE
8
FRONT
10
0.225000
20
-0.157628
30
0.0
11
0.337500
21
-0.161557
31
0.0
0
LINE
8
FRONT
10
0.337500
20
-0.161557
30
0.0
11
0.450000
21
-0.165486
31
0.0
0
LINE
8
FRONT
10
0.450000
20
-0.165486
30
0.0
11
0.500000
21
-0.167232
31
0.0
0
LINE
8
FRONT
10
0.500000
20
-0.167232
30
0.0
11
0.562500
21
-0.169415
31
0.0
0
LINE
8
FRONT
10
0.562500
20
-0.169415
30
0.0
11
0.675000
21
-0.173344
31
0.0
0
LINE
8
FRONT
10
0.675000
20
-0.173344
30
0.0
11
0.787500
21
-0.177273
31
0.0
0
LINE
8
FRONT
10
0.787500
20
-0.177273
30
0.0
11
0.900000
21
-0.181202
31
0.0
0
LINE
8
FRONT
10
0.900000
20
-0.181202
30
0.0
11
1.012500
21
-0.185131
31
0.0
0
LINE
8
FRONT
10
1.012500
20
-0.185131
30
0.0
11
1.125000
21
-0.189060
31
0.0
0
LINE
8
FRONT
10
1.125000
20
-0.189060
30
0.0
11
1.237500
21
-0.192989
31
0.0
0
LINE
8
FRONT
10
1.237500
20
-0.192989
30
0.0
11
1.350000
21
-0.196918
31
0.0
0
LINE
8
FRONT
10
1.350000
20
-0.196918
30
0.0
11
1.462500
21
-0.200848
31
0.0
0
LINE
8
FRONT
10
1.462500
20
-0.200848
30
0.0
11
1.575000
21
-0.204777
31
0.0
0
LINE
8
FRONT
10
1.575000
20
-0.204777
30
0.0
11
1.687500
21
-0.208706
31
0.0
0
LINE
8
FRONT
10
1.687500
20
-0.208706
30
0.0
11
1.800000
21
-0.212635
31
0.0
0
LINE
8
FRONT
10
1.800000
20
-0.212635
30
0.0
11
1.912500
21
-0.216564
31
0.0
0
LINE
8
FRONT
10
1.912500
20
-0.216564
30
0.0
11
2.025000
21
-0.220493
31
0.0
0
LINE
8
FRONT
10
2.025000
20
-0.220493
30
0.0
11
2.137500
21
-0.224422
31
0.0
0
LINE
8
FRONT
10
2.137500
20
-0.224422
30
0.0
11
2.250000
21
-0.228351
31
0.0
0
LINE
8
FRONT
10
2.250000
20
-0.228351
30
0.0
11
2.362500
21
-0.232280
31
0.0
0
LINE
8
FRONT
10
2.362500
20
-0.232280
30
0.0
11
2.475000
21
-0.236209
31
0.0
0
LINE
8
FRONT
10
2.475000
20
-0.236209
30
0.0
11
2.587500
21
-0.240138
31
0.0
0
LINE
8
FRONT
10
2.587500
20
-0.240138
30
0.0
11
2.700000
21
-0.244067
31
0.0
0
LINE
8
FRONT
10
2.700000
20
-0.244067
30
0.0
11
2.812500
21
-0.247996
31
0.0
0
LINE
8
FRONT
10
2.812500
20
-0.247996
30
0.0
11
2.925000
21
-0.251926
31
0.0
0
LINE
8
FRONT
10
2.925000
20
-0.251926
30
0.0
11
3.037500
21
-0.255855
31
0.0
0
LINE
8
FRONT
10
3.037500
20
-0.255855
30
0.0
11
3.150000
21
-0.259784
31
0.0
0
LINE
8
FRONT
10
3.150000
20
-0.259784
30
0.0
11
3.262500
21
-0.263713
31
0.0
0
LINE
8
FRONT
10
3.262500
20
-0.263713
30
0.0
11
3.375000
21
-0.267642
31
0.0
0
LINE
8
FRONT
10
3.375000
20
-0.267642
30
0.0
11
3.487500
21
-0.271571
31
0.0
0
LINE
8
FRONT
10
3.487500
20
-0.271571
30
0.0
11
3.600000
21
-0.275500
31
0.0
0
LINE
8
FRONT
10
3.600000
20
-0.275500
30
0.0
11
3.712500
21
-0.279429
31
0.0
0
LINE
8
FRONT
10
3.712500
20
-0.279429
30
0.0
11
3.825000
21
-0.283358
31
0.0
0
LINE
8
FRONT
10
3.825000
20
-0.283358
30
0.0
11
3.937500
21
-0.287287
31
0.0
0
LINE
8
FRONT
10
3.937500
20
-0.287287
30
0.0
11
4.050000
21
-0.291216
31
0.0
0
LINE
8
FRONT
10
4.050000
20
-0.291216
30
0.0
11
4.162500
21
-0.295145
31
0.0
0
LINE
8
FRONT
10
4.162500
20
-0.295145
30
0.0
11
4.275000
21
-0.299074
31
0.0
0
LINE
8
FRONT
10
4.275000
20
-0.299074
30
0.0
11
4.387500
21
-0.303004
31
0.0
0
LINE
8
FRONT
10
4.387500
20
-0.303004
30
0.0
11
4.500000
21
-0.306933
31
0.0
0
LINE
8
FRONT
10
4.500000
20
-0.306933
30
0.0
11
4.612500
21
-0.304352
31
0.0
0
LINE
8
FRONT
10
4.612500
20
-0.304352
30
0.0
11
4.725000
21
-0.301770
31
0.0
0
LINE
8
FRONT
10
4.725000
20
-0.301770
30
0.0
11
4.837500
21
-0.299189
31
0.0
0
LINE
8
FRONT
10
4.837500
20
-0.299189
30
0.0
11
4.950000
21
-0.296608
31
0.0
0
LINE
8
FRONT
10
4.950000
20
-0.296608
30
0.0
11
5.062500
21
-0.294027
31
0.0
0
LINE
8
FRONT
10
5.062500
20
-0.294027
30
0.0
11
5.175000
21
-0.291446
31
0.0
0
LINE
8
FRONT
10
5.175000
20
-0.291446
30
0.0
11
5.287500
21
-0.288865
31
0.0
0
LINE
8
FRONT
10
5.287500
20
-0.288865
30
0.0
11
5.400000
21
-0.286284
31
0.0
0
LINE
8
FRONT
10
5.400000
20
-0.286284
30
0.0
11
5.512500
21
-0.283703
31
0.0
0
LINE
8
FRONT
10
5.512500
20
-0.283703
30
0.0
11
5.625000
21
-0.281122
31
0.0
0
LINE
8
FRONT
10
5.625000
20
-0.281122
30
0.0
11
5.737500
21
-0.278541
31
0.0
0
LINE
8
FRONT
10
5.737500
20
-0.278541
30
0.0
11
5.850000
21
-0.275960
31
0.0
0
LINE
8
FRONT
10
5.850000
20
-0.275960
30
0.0
11
5.962500
21
-0.273379
31
0.0
0
LINE
8
FRONT
10
5.962500
20
-0.273379
30
0.0
11
6.075000
21
-0.270798
31
0.0
0
LINE
8
FRONT
10
6.075000
20
-0.270798
30
0.0
11
6.187500
21
-0.268217
31
0.0
0
LINE
8
FRONT
10
6.187500
20
-0.268217
30
0.0
11
6.300000
21
-0.265636
31
0.0
0
LINE
8
FRONT
10
6.300000
20
-0.265636
30
0.0
11
6.412500
21
-0.263055
31
0.0
0
LINE
8
FRONT
10
6.412500
20
-0.263055
30
0.0
11
6.525000
21
-0.260474
31
0.0
0
LINE
8
FRONT
10
6.525000
20
-0.260474
30
0.0
11
6.637500
21
-0.257893
31
0.0
0
LINE
8
FRONT
10
6.637500
20
-0.257893
30
0.0
11
6.750000
21
-0.255312
31
0.0
0
LINE
8
FRONT
10
6.750000
20
-0.255312
30
0.0
11
6.862500
21
-0.252731
31
0.0
0
LINE
8
FRONT
10
6.862500
20
-0.252731
30
0.0
11
6.975000
21
-0.250150
31
0.0
0
LINE
8
FRONT
10
6.975000
20
-0.250150
30
0.0
11
7.087500
21
-0.247569
31
0.0
0
LINE
8
FRONT
10
7.087500
20
-0.247569
30
0.0
11
7.200000
21
-0.244987
31
0.0
0
LINE
8
FRONT
10
7.200000
20
-0.244987
30
0.0
11
7.312500
21
-0.242406
31
0.0
0
LINE
8
FRONT
10
7.312500
20
-0.242406
30
0.0
11
7.425000
21
-0.239825
31
0.0
0
LINE
8
FRONT
10
7.425000
20
-0.239825
30
0.0
11
7.537500
21
-0.237244
31
0.0
0
LINE
8
FRONT
10
7.537500
20
-0.237244
30
0.0
11
7.650000
21
-0.234663
31
0.0
0
LINE
8
FRONT
10
7.650000
20
-0.234663
30
0.0
11
7.762500
21
-0.232082
31
0.0
0
LINE
8
FRONT
10
7.762500
20
-0.232082
30
0.0
11
7.875000
21
-0.229501
31
0.0
0
LINE
8
FRONT
10
7.875000
20
-0.229501
30
0.0
11
7.987500
21
-0.226920
31
0.0
0
LINE
8
FRONT
10
7.987500
20
-0.226920
30
0.0
11
8.100000
21
-0.224339
31
0.0
0
LINE
8
FRONT
10
8.100000
20
-0.224339
30
0.0
11
8.212500
21
-0.221758
31
0.0
0
LINE
8
FRONT
10
8.212500
20
-0.221758
30
0.0
11
8.325000
21
-0.219177
31
0.0
0
LINE
8
FRONT
10
8.325000
20
-0.219177
30
0.0
11
8.437500
21
-0.216596
31
0.0
0
LINE
8
FRONT
10
8.437500
20
-0.216596
30
0.0
11
8.500000
21
-0.215162
31
0.0
0
LINE
8
FRONT
10
8.500000
20
-0.215162
30
0.0
11
8.550000
21
-0.214015
31
0.0
0
LINE
8
FRONT
10
8.550000
20
-0.214015
30
0.0
11
8.662500
21
-0.211434
31
0.0
0
LINE
8
FRONT
10
8.662500
20
-0.211434
30
0.0
11
8.775000
21
-0.208853
31
0.0
0
LINE
8
FRONT
10
8.775000
20
-0.208853
30
0.0
11
8.887500
21
-0.206272
31
0.0
0
LINE
8
FRONT
10
8.887500
20
-0.206272
30
0.0
11
9.000000
21
-0.203691
31
0.0
0
LINE
8
FRONT
10
0.000000
20
0.149770
30
0.0
11
0.000000
21
-0.149770
31
0.0
0
LINE
8
FRONT
10
9.000000
20
0.203691
30
0.0
11
9.000000
21
-0.203691
31
0.0
0
LINE
8
TOP
10
0.000000
20
1.852281
30
0.0
11
0.112500
21
1.854772
31
0.0
0
LINE
8
TOP
10
0.112500
20
1.854772
30
0.0
11
0.225000
21
1.857263
31
0.0
0
LINE
8
TOP
10
0.225000
20
1.857263
30
0.0
11
0.337500
21
1.859754
31
0.0
0
LINE
8
TOP
10
0.337500
20
1.859754
30
0.0
11
0.450000
21
1.862245
31
0.0
0
LINE
8
TOP
10
0.450000
20
1.862245
30
0.0
11
0.500000
21
1.863352
31
0.0
0
LINE
8
TOP
10
0.500000
20
1.863352
30
0.0
11
0.562500
21
1.864735
31
0.0
0
LINE
8
TOP
10
0.562500
20
1.864735
30
0.0
11
0.675000
21
1.867226
31
0.0
0
LINE
8
TOP
10
0.675000
20
1.867226
30
0.0
11
0.787500
21
1.869717
31
0.0
0
LINE
8
TOP
10
0.787500
20
1.869717
30
0.0
11
0.900000
21
1.872208
31
0.0
0
LINE
8
TOP
10
0.900000
20
1.872208
30
0.0
11
1.012500
21
1.874699
31
0.0
0
LINE
8
TOP
10
1.012500
20
1.874699
30
0.0
11
1.125000
21
1.877190
31
0.0
0
LINE
8
TOP
10
1.125000
20
1.877190
30
0.0
11
1.237500
21
1.879680
31
0.0
0
LINE
8
TOP
10
1.237500
20
1.879680
30
0.0
11
1.350000
21
1.882171
31
0.0
0
LINE
8
TOP
10
1.350000
20
1.882171
30
0.0
11
1.462500
21
1.884662
31
0.0
0
LINE
8
TOP
10
1.462500
20
1.884662
30
0.0
11
1.575000
21
1.887153
31
0.0
0
LINE
8
TOP
10
1.575000
20
1.887153
30
0.0
11
1.687500
21
1.889644
31
0.0
0
LINE
8
TOP
10
1.687500
20
1.889644
30
0.0
11
1.800000
21
1.892135
31
0.0
0
LINE
8
TOP
10
1.800000
20
1.892135
30
0.0
11
1.912500
21
1.894625
31
0.0
0
LINE
8
TOP
10
1.912500
20
1.894625
30
0.0
11
2.025000
21
1.897116
31
0.0
0
LINE
8
TOP
10
2.025000
20
1.897116
30
0.0
11
2.137500
21
1.899607
31
0.0
0
LINE
8
TOP
10
2.137500
20
1.899607
30
0.0
11
2.250000
21
1.902098
31
0.0
0
LINE
8
TOP
10
2.250000
20
1.902098
30
0.0
11
2.362500
21
1.904589
31
0.0
0
LINE
8
TOP
10
2.362500
20
1.904589
30
0.0
11
2.475000
21
1.907080
31
0.0
0
LINE
8
TOP
10
2.475000
20
1.907080
30
0.0
11
2.587500
21
1.909570
31
0.0
0
LINE
8
TOP
10
2.587500
20
1.909570
30
0.0
11
2.700000
21
1.912061
31
0.0
0
LINE
8
TOP
10
2.700000
20
1.912061
30
0.0
11
2.812500
21
1.914552
31
0.0
0
LINE
8
TOP
10
2.812500
20
1.914552
30
0.0
11
2.925000
21
1.917043
31
0.0
0
LINE
8
TOP
10
2.925000
20
1.917043
30
0.0
11
3.037500
21
1.919534
31
0.0
0
LINE
8
TOP
10
3.037500
20
1.919534
30
0.0
11
3.150000
21
1.922025
31
0.0
0
LINE
8
TOP
10
3.150000
20
1.922025
30
0.0
11
3.262500
21
1.924515
31
0.0
0
LINE
8
TOP
10
3.262500
20
1.924515
30
0.0
11
3.375000
21
1.927006
31
0.0
0
LINE
8
TOP
10
3.375000
20
1.927006
30
0.0
11
3.487500
21
1.929497
31
0.0
0
LINE
8
TOP
10
3.487500
20
1.929497
30
0.0
11
3.600000
21
1.931988
31
0.0
0
LINE
8
TOP
10
3.600000
20
1.931988
30
0.0
11
3.712500
21
1.934479
31
0.0
0
LINE
8
TOP
10
3.712500
20
1.934479
30
0.0
11
3.825000
21
1.936970
31
0.0
0
LINE
8
TOP
10
3.825000
20
1.936970
30
0.0
11
3.937500
21
1.939460
31
0.0
0
LINE
8
TOP
10
3.937500
20
1.939460
30
0.0
11
4.050000
21
1.941951
31
0.0
0
LINE
8
TOP
10
4.050000
20
1.941951
30
0.0
11
4.162500
21
1.944442
31
0.0
0
LINE
8
TOP
10
4.162500
20
1.944442
30
0.0
11
4.275000
21
1.946933
31
0.0
0
LINE
8
TOP
10
4.275000
20
1.946933
30
0.0
11
4.387500
21
1.949424
31
0.0
0
LINE
8
TOP
10
4.387500
20
1.949424
30
0.0
11
4.500000
21
1.951914
31
0.0
0
LINE
8
TOP
10
4.500000
20
1.951914
30
0.0
11
4.612500
21
1.947387
31
0.0
0
LINE
8
TOP
10
4.612500
20
1.947387
30
0.0
11
4.725000
21
1.942859
31
0.0
0
LINE
8
TOP
10
4.725000
20
1.942859
30
0.0
11
4.837500
21
1.938331
31
0.0
0
LINE
8
TOP
10
4.837500
20
1.938331
30
0.0
11
4.950000
21
1.933803
31
0.0
0
LINE
8
TOP
10
4.950000
20
1.933803
30
0.0
11
5.062500
21
1.929275
31
0.0
0
LINE
8
TOP
10
5.062500
20
1.929275
30
0.0
11
5.175000
21
1.924747
31
0.0
0
LINE
8
TOP
10
5.175000
20
1.924747
30
0.0
11
5.287500
21
1.920219
31
0.0
0
LINE
8
TOP
10
5.287500
20
1.920219
30
0.0
11
5.400000
21
1.915691
31
0.0
0
LINE
8
TOP
10
5.400000
20
1.915691
30
0.0
11
5.512500
21
1.911163
31
0.0
0
LINE
8
TOP
10
5.512500
20
1.911163
30
0.0
11
5.625000
21
1.906635
31
0.0
0
LINE
8
TOP
10
5.625000
20
1.906635
30
0.0
11
5.737500
21
1.902107
31
0.0
0
LINE
8
TOP
10
5.737500
20
1.902107
30
0.0
11
5.850000
21
1.897579
31
0.0
0
LINE
8
TOP
10
5.850000
20
1.897579
30
0.0
11
5.962500
21
1.893052
31
0.0
0
LINE
8
TOP
10
5.962500
20
1.893052
30
0.0
11
6.075000
21
1.888524
31
0.0
0
LINE
8
TOP
10
6.075000
20
1.888524
30
0.0
11
6.187500
21
1.883996
31
0.0
0
LINE
8
TOP
10
6.187500
20
1.883996
30
0.0
11
6.300000
21
1.879468
31
0.0
0
LINE
8
TOP
10
6.300000
20
1.879468
30
0.0
11
6.412500
21
1.874940
31
0.0
0
LINE
8
TOP
10
6.412500
20
1.874940
30
0.0
11
6.525000
21
1.870412
31
0.0
0
LINE
8
TOP
10
6.525000
20
1.870412
30
0.0
11
6.637500
21
1.865884
31
0.0
0
LINE
8
TOP
10
6.637500
20
1.865884
30
0.0
11
6.750000
21
1.861356
31
0.0
0
LINE
8
TOP
10
6.750000
20
1.861356
30
0.0
11
6.862500
21
1.856828
31
0.0
0
LINE
8
TOP
10
6.862500
20
1.856828
30
0.0
11
6.975000
21
1.852300
31
0.0
0
LINE
8
TOP
10
6.975000
20
1.852300
30
0.0
11
7.087500
21
1.847772
31
0.0
0
LINE
8
TOP
10
7.087500
20
1.847772
30
0.0
11
7.200000
21
1.843244
31
0.0
0
LINE
8
TOP
10
7.200000
20
1.843244
30
0.0
11
7.312500
21
1.838717
31
0.0
0
LINE
8
TOP
10
7.312500
20
1.838717
30
0.0
11
7.425000
21
1.834189
31
0.0
0
LINE
8
TOP
10
7.425000
20
1.834189
30
0.0
11
7.537500
21
1.829661
31
0.0
0
LINE
8
TOP
10
7.537500
20
1.829661
30
0.0
11
7.650000
21
1.825133
31
0.0
0
LINE
8
TOP
10
7.650000
20
1.825133
30
0.0
11
7.762500
21
1.820605
31
0.0
0
LINE
8
TOP
10
7.762500
20
1.820605
30
0.0
11
7.875000
21
1.816077
31
0.0
0
LINE
8
TOP
10
7.875000
20
1.816077
30
0.0
11
7.987500
21
1.811549
31
0.0
0
LINE
8
TOP
10
7.987500
20
1.811549
30
0.0
11
8.100000
21
1.807021
31
0.0
0
LINE
8
TOP
10
8.100000
20
1.807021
30
0.0
11
8.212500
21
1.802493
31
0.0
0
LINE
8
TOP
10
8.212500
20
1.802493
30
0.0
11
8.325000
21
1.797965
31
0.0
0
LINE
8
TOP
10
8.325000
20
1.797965
30
0.0
11
8.437500
21
1.793437
31
0.0
0
LINE
8
TOP
10
8.437500
20
1.793437
30
0.0
11
8.500000
21
1.790922
31
0.0
0
LINE
8
TOP
10
8.500000
20
1.790922
30
0.0
11
8.550000
21
1.788909
31
0.0
0
LINE
8
TOP
10
8.550000
20
1.788909
30
0.0
11
8.662500
21
1.784382
31
0.0
0
LINE
8
TOP
10
8.662500
20
1.784382
30
0.0
11
8.775000
21
1.779854
31
0.0
0
LINE
8
TOP
10
8.775000
20
1.779854
30
0.0
11
8.887500
21
1.775326
31
0.0
0
LINE
8
TOP
10
8.887500
20
1.775326
30
0.0
11
9.000000
21
1.770798
31
0.0
0
LINE
8
TOP
10
0.000000
20
1.489314
30
0.0
11
0.112500
21
1.486823
31
0.0
0
LINE
8
TOP
10
0.112500
20
1.486823
30
0.0
11
0.225000
21
1.484333
31
0.0
0
LINE
8
TOP
10
0.225000
20
1.484333
30
0.0
11
0.337500
21
1.481842
31
0.0
0
LINE
8
TOP
10
0.337500
20
1.481842
30
0.0
11
0.450000
21
1.479351
31
0.0
0
LINE
8
TOP
10
0.450000
20
1.479351
30
0.0
11
0.500000
21
1.478244
31
0.0
0
LINE
8
TOP
10
0.500000
20
1.478244
30
0.0
11
0.562500
21
1.476860
31
0.0
0
LINE
8
TOP
10
0.562500
20
1.476860
30
0.0
11
0.675000
21
1.474369
31
0.0
0
LINE
8
TOP
10
0.675000
20
1.474369
30
0.0
11
0.787500
21
1.471878
31
0.0
0
LINE
8
TOP
10
0.787500
20
1.471878
30
0.0
11
0.900000
21
1.469388
31
0.0
0
LINE
8
TOP
10
0.900000
20
1.469388
30
0.0
11
1.012500
21
1.466897
31
0.0
0
LINE
8
TOP
10
1.012500
20
1.466897
30
0.0
11
1.125000
21
1.464406
31
0.0
0
LINE
8
TOP
10
1.125000
20
1.464406
30
0.0
11
1.237500
21
1.461915
31
0.0
0
LINE
8
TOP
10
1.237500
20
1.461915
30
0.0
11
1.350000
21
1.459424
31
0.0
0
LINE
8
TOP
10
1.350000
20
1.459424
30
0.0
11
1.462500
21
1.456933
31
0.0
0
LINE
8
TOP
10
1.462500
20
1.456933
30
0.0
11
1.575000
21
1.454443
31
0.0
0
LINE
8
TOP
10
1.575000
20
1.454443
30
0.0
11
1.687500
21
1.451952
31
0.0
0
LINE
8
TOP
10
1.687500
20
1.451952
30
0.0
11
1.800000
21
1.449461
31
0.0
0
LINE
8
TOP
10
1.800000
20
1.449461
30
0.0
11
1.912500
21
1.446970
31
0.0
0
LINE
8
TOP
10
1.912500
20
1.446970
30
0.0
11
2.025000
21
1.444479
31
0.0
0
LINE
8
TOP
10
2.025000
20
1.444479
30
0.0
11
2.137500
21
1.441989
31
0.0
0
LINE
8
TOP
10
2.137500
20
1.441989
30
0.0
11
2.250000
21
1.439498
31
0.0
0
LINE
8
TOP
10
2.250000
20
1.439498
30
0.0
11
2.362500
21
1.437007
31
0.0
0
LINE
8
TOP
10
2.362500
20
1.437007
30
0.0
11
2.475000
21
1.434516
31
0.0
0
LINE
8
TOP
10
2.475000
20
1.434516
30
0.0
11
2.587500
21
1.432025
31
0.0
0
LINE
8
TOP
10
2.587500
20
1.432025
30
0.0
11
2.700000
21
1.429534
31
0.0
0
LINE
8
TOP
10
2.700000
20
1.429534
30
0.0
11
2.812500
21
1.427044
31
0.0
0
LINE
8
TOP
10
2.812500
20
1.427044
30
0.0
11
2.925000
21
1.424553
31
0.0
0
LINE
8
TOP
10
2.925000
20
1.424553
30
0.0
11
3.037500
21
1.422062
31
0.0
0
LINE
8
TOP
10
3.037500
20
1.422062
30
0.0
11
3.150000
21
1.419571
31
0.0
0
LINE
8
TOP
10
3.150000
20
1.419571
30
0.0
11
3.262500
21
1.417080
31
0.0
0
LINE
8
TOP
10
3.262500
20
1.417080
30
0.0
11
3.375000
21
1.414589
31
0.0
0
LINE
8
TOP
10
3.375000
20
1.414589
30
0.0
11
3.487500
21
1.412099
31
0.0
0
LINE
8
TOP
10
3.487500
20
1.412099
30
0.0
11
3.600000
21
1.409608
31
0.0
0
LINE
8
TOP
10
3.600000
20
1.409608
30
0.0
11
3.712500
21
1.407117
31
0.0
0
LINE
8
TOP
10
3.712500
20
1.407117
30
0.0
11
3.825000
21
1.404626
31
0.0
0
LINE
8
TOP
10
3.825000
20
1.404626
30
0.0
11
3.937500
21
1.402135
31
0.0
0
LINE
8
TOP
10
3.937500
20
1.402135
30
0.0
11
4.050000
21
1.399644
31
0.0
0
LINE
8
TOP
10
4.050000
20
1.399644
30
0.0
11
4.162500
21
1.397154
31
0.0
0
LINE
8
TOP
10
4.162500
20
1.397154
30
0.0
11
4.275000
21
1.394663
31
0.0
0
LINE
8
TOP
10
4.275000
20
1.394663
30
0.0
11
4.387500
21
1.392172
31
0.0
0
LINE
8
TOP
10
4.387500
20
1.392172
30
0.0
11
4.500000
21
1.389681
31
0.0
0
LINE
8
TOP
10
4.500000
20
1.389681
30
0.0
11
4.612500
21
1.394209
31
0.0
0
LINE
8
TOP
10
4.612500
20
1.394209
30
0.0
11
4.725000
21
1.398737
31
0.0
0
LINE
8
TOP
10
4.725000
20
1.398737
30
0.0
11
4.837500
21
1.403265
31
0.0
0
LINE
8
TOP
10
4.837500
20
1.403265
30
0.0
11
4.950000
21
1.407793
31
0.0
0
LINE
8
TOP
10
4.950000
20
1.407793
30
0.0
11
5.062500
21
1.412321
31
0.0
0
LINE
8
TOP
10
5.062500
20
1.412321
30
0.0
11
5.175000
21
1.416849
31
0.0
0
LINE
8
TOP
10
5.175000
20
1.416849
30
0.0
11
5.287500
21
1.421376
31
0.0
0
LINE
8
TOP
10
5.287500
20
1.421376
30
0.0
11
5.400000
21
1.425904
31
0.0
0
LINE
8
TOP
10
5.400000
20
1.425904
30
0.0
11
5.512500
21
1.430432
31
0.0
0
LINE
8
TOP
10
5.512500
20
1.430432
30
0.0
11
5.625000
21
1.434960
31
0.0
0
LINE
8
TOP
10
5.625000
20
1.434960
30
0.0
11
5.737500
21
1.439488
31
0.0
0
LINE
8
TOP
10
5.737500
20
1.439488
30
0.0
11
5.850000
21
1.444016
31
0.0
0
LINE
8
TOP
10
5.850000
20
1.444016
30
0.0
11
5.962500
21
1.448544
31
0.0
0
LINE
8
TOP
10
5.962500
20
1.448544
30
0.0
11
6.075000
21
1.453072
31
0.0
0
LINE
8
TOP
10
6.075000
20
1.453072
30
0.0
11
6.187500
21
1.457600
31
0.0
0
LINE
8
TOP
10
6.187500
20
1.457600
30
0.0
11
6.300000
21
1.462128
31
0.0
0
LINE
8
TOP
10
6.300000
20
1.462128
30
0.0
11
6.412500
21
1.466656
31
0.0
0
LINE
8
TOP
10
6.412500
20
1.466656
30
0.0
11
6.525000
21
1.471184
31
0.0
0
LINE
8
TOP
10
6.525000
20
1.471184
30
0.0
11
6.637500
21
1.475712
31
0.0
0
LINE
8
TOP
10
6.637500
20
1.475712
30
0.0
11
6.750000
21
1.480239
31
0.0
0
LINE
8
TOP
10
6.750000
20
1.480239
30
0.0
11
6.862500
21
1.484767
31
0.0
0
LINE
8
TOP
10
6.862500
20
1.484767
30
0.0
11
6.975000
21
1.489295
31
0.0
0
LINE
8
TOP
10
6.975000
20
1.489295
30
0.0
11
7.087500
21
1.493823
31
0.0
0
LINE
8
TOP
10
7.087500
20
1.493823
30
0.0
11
7.200000
21
1.498351
31
0.0
0
LINE
8
TOP
10
7.200000
20
1.498351
30
0.0
11
7.312500
21
1.502879
31
0.0
0
LINE
8
TOP
10
7.312500
20
1.502879
30
0.0
11
7.425000
21
1.507407
31
0.0
0
LINE
8
TOP
10
7.425000
20
1.507407
30
0.0
11
7.537500
21
1.511935
31
0.0
0
LINE
8
TOP
10
7.537500
20
1.511935
30
0.0
11
7.650000
21
1.516463
31
0.0
0
LINE
8
TOP
10
7.650000
20
1.516463
30
0.0
11
7.762500
21
1.520991
31
0.0
0
LINE
8
TOP
10
7.762500
20
1.520991
30
0.0
11
7.875000
21
1.525519
31
0.0
0
LINE
8
TOP
10
7.875000
20
1.525519
30
0.0
11
7.987500
21
1.530047
31
0.0
0
LINE
8
TOP
10
7.987500
20
1.530047
30
0.0
11
8.100000
21
1.534574
31
0.0
0
LINE
8
TOP
10
8.100000
20
1.534574
30
0.0
11
8.212500
21
1.539102
31
0.0
0
LINE
8
TOP
10
8.212500
20
1.539102
30
0.0
11
8.325000
21
1.543630
31
0.0
0
LINE
8
TOP
10
8.325000
20
1.543630
30
0.0
11
8.437500
21
1.548158
31
0.0
0
LINE
8
TOP
10
8.437500
20
1.548158
30
0.0
11
8.500000
21
1.550674
31
0.0
0
LINE
8
TOP
10
8.500000
20
1.550674
30
0.0
11
8.550000
21
1.552686
31
0.0
0
LINE
8
TOP
10
8.550000
20
1.552686
30
0.0
11
8.662500
21
1.557214
31
0.0
0
LINE
8
TOP
10
8.662500
20
1.557214
30
0.0
11
8.775000
21
1.561742
31
0.0
0
LINE
8
TOP
10
8.775000
20
1.561742
30
0.0
11
8.887500
21
1.566270
31
0.0
0
LINE
8
TOP
10
8.887500
20
1.566270
30
0.0
11
9.000000
21
1.570798
31
0.0
0
LINE
8
TOP
10
0.000000
20
1.852281
30
0.0
11
0.000000
21
1.489314
31
0.0
0
LINE
8
TOP
10
9.000000
20
1.770798
30
0.0
11
9.000000
21
1.570798
31
0.0
0
LINE
8
SECTION
10
10.218883
20
-0.306933
30
0.0
11
10.781117
21
-0.306933
31
0.0
0
LINE
8
SECTION
10
10.781117
20
-0.306933
30
0.0
11
10.781117
21
0.306933
31
0.0
0
LINE
8
SECTION
10
10.781117
20
0.306933
30
0.0
11
10.218883
21
0.306933
31
0.0
0
LINE
8
SECTION
10
10.218883
20
0.306933
30
0.0
11
10.218883
21
-0.306933
31
0.0
0
LINE
8
SECTION
10
10.258883
20
-0.266933
30
0.0
11
10.741117
21
-0.266933
31
0.0
0
LINE
8
SECTION
10
10.741117
20
-0.266933
30
0.0
11
10.741117
21
0.266933
31
0.0
0
LINE
8
SECTION
10
10.741117
20
0.266933
30
0.0
11
10.258883
21
0.266933
31
0.0
0
LINE
8
SECTION
10
10.258883
20
0.266933
30
0.0
11
10.258883
21
-0.266933
31
0.0
0
LINE
8
SECTION
10
10.258883
20
0.177798
30
0.0
11
10.298883
21
0.177798
31
0.0
0
LINE
8
SECTION
10
10.298883
20
0.177798
30
0.0
11
10.298883
21
0.266933
31
0.0
0
LINE
8
SECTION
10
10.298883
20
0.266933
30
0.0
11
10.258883
21
0.266933
31
0.0
0
LINE
8
SECTION
10
10.258883
20
0.266933
30
0.0
11
10.258883
21
0.177798
31
0.0
0
LINE
8
SECTION
10
10.258883
20
-0.266933
30
0.0
11
10.298883
21
-0.266933
31
0.0
0
LINE
8
SECTION
10
10.298883
20
-0.266933
30
0.0
11
10.298883
21
-0.177798
31
0.0
0
LINE
8
SECTION
10
10.298883
20
-0.177798
30
0.0
11
10.258883
21
-0.177798
31
0.0
0
LINE
8
SECTION
10
10.258883
20
-0.177798
30
0.0
11
10.258883
21
-0.266933
31
0.0
0
LINE
8
SECTION
10
10.701117
20
0.177798
30
0.0
11
10.741117
21
0.177798
31
0.0
0
LINE
8
SECTION
10
10.741117
20
0.177798
30
0.0
11
10.741117
21
0.266933
31
0.0
0
LINE
8
SECTION
10
10.741117
20
0.266933
30
0.0
11
10.701117
21
0.266933
31
0.0
0
LINE
8
SECTION
10
10.701117
20
0.266933
30
0.0
11
10.701117
21
0.177798
31
0.0
0
LINE
8
SECTION
10
10.701117
20
-0.266933
30
0.0
11
10.741117
21
-0.266933
31
0.0
0
LINE
8
SECTION
10
10.741117
20
-0.266933
30
0.0
11
10.741117
21
-0.177798
31
0.0
0
LINE
8
SECTION
10
10.741117
20
-0.177798
30
0.0
11
10.701117
21
-0.177798
31
0.0
0
LINE
8
SECTION
10
10.701117
20
-0.177798
30
0.0
11
10.701117
21
-0.266933
31
0.0
0
ENDSEC
0
EOF
